<?xml version="1.0" encoding="utf-8"?>
<!-- Generator: Adobe Illustrator 20.1.0, SVG Export Plug-In . SVG Version: 6.00 Build 0)  -->
<svg version="1.1" id="Ebene_1" xmlns="http://www.w3.org/2000/svg" xmlns:xlink="http://www.w3.org/1999/xlink" x="0px" y="0px"
	 viewBox="0 0 64.8 77.2" style="enable-background:new 0 0 64.8 77.2;" xml:space="preserve">
<style type="text/css">
	.st0{fill:none;stroke:#000000;stroke-width:3;stroke-miterlimit:10;}
</style>
<g>
	<path class="st0" d="M50.3,75.8h-36c-6.6,0-12-5.4-12-12v-36c0-6.6,5.4-12,12-12h36c6.6,0,12,5.4,12,12v36
		C62.3,70.3,56.9,75.8,50.3,75.8z"/>
	<path class="st0" d="M13,14.6c0-7.1,5.8-12.9,12.9-12.9h12.9c7.1,0,12.9,5.8,12.9,12.9"/>
	<path d="M38.9,41.1c0-3.4-2.8-6.2-6.2-6.2s-6.2,2.8-6.2,6.2c0,1.8,0.7,3.3,1.9,4.5v10.3c0,2.4,2,4.4,4.4,4.4s4.4-2,4.4-4.4V45.6
		C38.2,44.4,38.9,42.8,38.9,41.1z"/>
</g>
</svg>
