<?xml version="1.0" encoding="utf-8"?>
<!-- Generator: Adobe Illustrator 23.0.3, SVG Export Plug-In . SVG Version: 6.00 Build 0)  -->
<svg version="1.1" id="Layer_1" xmlns="http://www.w3.org/2000/svg" xmlns:xlink="http://www.w3.org/1999/xlink" x="0px" y="0px"
	 viewBox="0 0 168.4 35.9" style="enable-background:new 0 0 168.4 35.9;" xml:space="preserve">
<g>
	<g>
		<path d="M4.5,2.8c-1,0-1.6,0.5-1.6,1.9v2.1H0V4.9C0,1.8,1.5,0,4.6,0s4.6,1.8,4.6,4.9c0,2.6-0.9,4.7-3.8,7.7
			C3.5,14.5,3,15.4,3,16.4c0,0.1,0,0.3,0,0.4h5.8v2.8H0v-2.4c0-2.2,0.8-3.8,3-6.2c2.3-2.5,3-4,3-6.1C6.1,3.3,5.4,2.8,4.5,2.8z"/>
		<path d="M22.4,5c0-1.8-0.6-2.2-1.6-2.2s-1.6,0.5-1.6,1.9v1.3h-2.9v-1c0-3.1,1.6-4.9,4.6-4.9s4.6,1.8,4.6,4.9v0.5
			c0,2.1-0.7,3.4-2.1,4v0c1.5,0.7,2.1,2.1,2.1,4.1V15c0,3.1-1.5,4.9-4.5,4.9s-4.5-1.8-4.5-4.9v-1.6h2.9v1.8c0,1.4,0.6,1.9,1.6,1.9
			s1.6-0.5,1.6-2.2v-1.5c0-1.8-0.6-2.5-2-2.5h-1V8.1h1.2c1.1,0,1.8-0.5,1.8-2.1L22.4,5L22.4,5z"/>
		<path d="M35.8,13.4v1.8c0,1.4,0.6,1.9,1.6,1.9s1.6-0.5,1.6-1.9v-4.3C39,9.5,38.4,9,37.4,9s-1.6,0.5-1.6,1.9v0.6h-2.9l0.6-11.3h8V3
			h-5.3L36,7.6H36c0.5-0.9,1.4-1.4,2.6-1.4c2.3,0,3.4,1.6,3.4,4.4V15c0,3.1-1.5,4.9-4.5,4.9s-4.5-1.8-4.5-4.9v-1.6L35.8,13.4
			L35.8,13.4z"/>
		<path d="M55.4,2.2v25.7c0,2.4,1,3.2,2.7,3.2c1.7,0,2.7-0.9,2.7-3.2V2.2h4.9v25.4c0,5.3-2.7,8.4-7.8,8.4s-7.8-3-7.8-8.4V2.2H55.4z"
			/>
		<path d="M83.6,30.4v5h-5v-5C78.6,30.4,83.6,30.4,83.6,30.4z"/>
		<path d="M101.7,11.4L101.7,11.4l-0.1,24.1h-4.7V2.2h6.6l5.3,19.9h0.1V2.2h4.7v33.3h-5.4L101.7,11.4z"/>
		<path d="M132,16.2h7.2V21H132v9.8h9v4.8h-14.3V2.2H141v4.8h-9V16.2z"/>
		<path d="M152.3,2.2h16.2v4.8H163v28.5h-5.2V6.9h-5.5L152.3,2.2L152.3,2.2z"/>
	</g>
</g>
</svg>
