<svg id="f8712fd3-eb17-4a8b-ad8b-4490217aa8c7" data-name="Layer 1" xmlns="http://www.w3.org/2000/svg" viewBox="0 0 115.83 115.22"><title>01u</title><g id="bf49f51b-e061-44c7-8d8e-cf902b845577" data-name="shapes"><path d="M57.39,59.35Z" transform="translate(0.03)"/><path d="M57.1,56.51Z" transform="translate(0.03)"/><path d="M60,57.27Z" transform="translate(0.03)"/><path d="M57.39,56.28h0v0Z" transform="translate(0.03)"/><path d="M56.7,57.11Z" transform="translate(0.03)"/><path d="M58.41,56.09h.05m-.05,0Z" transform="translate(0.03)"/><path d="M58.43,59.51h0a.09.09,0,0,0-.08.08h0a.09.09,0,0,0,.09.08.09.09,0,0,0,.08-.08h0a.09.09,0,0,0-.08-.08Z" transform="translate(0.03)"/><path d="M56.72,58.51h0v.06h0Z" transform="translate(0.03)"/><path d="M56.6,57.42h0A0,0,0,0,0,56.6,57.42Z" transform="translate(0.03)"/><path d="M56.64,58.18h0a.05.05,0,0,0,0,.1A.32.32,0,0,0,56.64,58.18Z" transform="translate(0.03)"/><path d="M58.07,59.54Z" transform="translate(0.03)"/><path d="M56.51,57.83Z" transform="translate(0.03)"/><path d="M56.87,56.74a.06.06,0,0,0-.06,0,.07.07,0,1,0,.1,0Z" transform="translate(0.03)"/><path d="M56.86,58.83Z" transform="translate(0.03)"/><path d="M59.68,59Z" transform="translate(0.03)"/><path d="M60.08,57.55a.08.08,0,0,0-.07.1.07.07,0,0,0,.07.07h0a.09.09,0,0,0,.08-.08h0a.11.11,0,0,0-.09-.08Z" transform="translate(0.03)"/><path d="M59.93,56.93h0a.06.06,0,1,0,.09,0A.07.07,0,0,0,59.93,56.93Z" transform="translate(0.03)"/><path d="M58.73,56.09h.05S58.74,56.07,58.73,56.09Z" transform="translate(0.03)"/><path d="M58.8,59.61a.08.08,0,0,0,.06-.09.08.08,0,0,0-.08-.06h0a.09.09,0,0,0-.06.1A.07.07,0,0,0,58.8,59.61Z" transform="translate(0.03)"/><path d="M59.85,58.66v.05s0,0,.06,0m0-.06Z" transform="translate(0.03)"/><path d="M58.05,56.05Z" transform="translate(0.03)"/><path d="M60.1,57.93h0a.06.06,0,0,0-.09,0A.06.06,0,0,0,60,58a.07.07,0,0,0,.06.07.07.07,0,0,0,0-.09l0,0Z" transform="translate(0.03)"/><path d="M59.67,56.63Z" transform="translate(0.03)"/><path d="M60.06,58.36Z" transform="translate(0.03)"/><path d="M57.71,56.13Z" transform="translate(0.03)"/><path d="M59.38,59.25a0,0,0,0,0,.07,0m0-.07h-.06s0,0,0,.07Z" transform="translate(0.03)"/><path d="M57.78,59.51v-.09h0a.09.09,0,0,0-.07,0,.06.06,0,0,0,0,.08A.06.06,0,0,0,57.78,59.51Z" transform="translate(0.03)"/><path d="M59.41,56.39Z" transform="translate(0.03)"/><path d="M59.11,56.21Z" transform="translate(0.03)"/><path d="M59.13,59.44Z" transform="translate(0.03)"/><path d="M57.08,59.09Z" transform="translate(0.03)"/><path d="M56.37,56.94Z" transform="translate(0.03)"/><path d="M59.27,55.88Z" transform="translate(0.03)"/><path d="M59.3,59.78v-.07h0a.06.06,0,0,0,0,.08Z" transform="translate(0.03)"/><path d="M57.59,55.79Z" transform="translate(0.03)"/><path d="M58,59.9Z" transform="translate(0.03)"/><path d="M56.89,59.39Z" transform="translate(0.03)"/><path d="M58.79,55.74s0,.08.05.08a.07.07,0,0,0,.09,0,.09.09,0,0,0,0-.08h0A.07.07,0,0,0,58.79,55.74Z" transform="translate(0.03)"/><path d="M56.29,58.25h0v0h0Z" transform="translate(0.03)"/><path d="M58.87,59.9Z" transform="translate(0.03)"/><path d="M56.86,56.25Z" transform="translate(0.03)"/><path d="M57.61,59.83Z" transform="translate(0.03)"/><path d="M59.94,56.38h0a0,0,0,0,0,0,.07h0a.06.06,0,0,0,.08,0Z" transform="translate(0.03)"/><path d="M57.2,55.91h-.06a.1.1,0,0,0,0,.14h0a.1.1,0,0,0,.14,0h0a.1.1,0,0,0,0-.14h0A.08.08,0,0,0,57.2,55.91Z" transform="translate(0.03)"/><path d="M57.16,59.71a.08.08,0,1,0,.12-.12h0a.09.09,0,0,0-.07,0,.08.08,0,0,0-.06.1Z" transform="translate(0.03)"/><path d="M59.63,56.08a.06.06,0,0,0,0,.08s0,0,0,0h0m.07,0a.06.06,0,0,0,0-.08Z" transform="translate(0.03)"/><path d="M58,55.69Z" transform="translate(0.03)"/><path d="M59.6,59.46a0,0,0,0,0,0,.07,0,0,0,0,0,.07,0h0v-.07H59.6Z" transform="translate(0.03)"/><path d="M58.44,55.62h0a.07.07,0,0,0,0,.14s.06,0,.07,0h0S58.47,55.63,58.44,55.62Z" transform="translate(0.03)"/><path d="M58.45,60h0m-.05,0h0m0,0h0Z" transform="translate(0.03)"/><path d="M60.34,57.14Z" transform="translate(0.03)"/><path d="M60.22,56.77Z" transform="translate(0.03)"/><path d="M56.54,59.07a0,0,0,0,0,.07,0m0-.07Z" transform="translate(0.03)"/><path d="M56.25,57.34h0a0,0,0,0,0,0,0v.06m.06,0s0,0,0-.06Z" transform="translate(0.03)"/><path d="M56.6,56.57h-.05m0,.06Z" transform="translate(0.03)"/><path d="M60.44,58.08A0,0,0,0,0,60.5,58h0Z" transform="translate(0.03)"/><path d="M60.41,58.41h0m0,.06Z" transform="translate(0.03)"/><path d="M60.16,58.91a.06.06,0,0,0,.08,0h0a.07.07,0,0,0,0-.09h-.06a.07.07,0,0,0,0,.08Z" transform="translate(0.03)"/><path d="M60.44,57.51a.09.09,0,0,0-.09.09h0a.11.11,0,0,0,.1.09.1.1,0,0,0,.09-.11h0a.09.09,0,0,0-.09-.08Z" transform="translate(0.03)"/><path d="M60,59.11h-.07a.12.12,0,0,0-.1,0,.12.12,0,1,0,.21,0Z" transform="translate(0.03)"/><path d="M56.15,57.83h0m.1,0h0a.05.05,0,0,0-.1,0h.1Z" transform="translate(0.03)"/><path d="M56.44,58.64h-.07s0,0,0,.09a.07.07,0,0,0,.09,0Z" transform="translate(0.03)"/><path d="M59.45,55.47H59.4v.08a.06.06,0,0,0,.08,0v-.08Z" transform="translate(0.03)"/><path d="M55.77,57.9a.07.07,0,0,0,.07-.07h0a.07.07,0,0,0-.14,0h0A.07.07,0,0,0,55.77,57.9Z" transform="translate(0.03)"/><path d="M58.46,55.25Z" transform="translate(0.03)"/><path d="M60.87,58.1Z" transform="translate(0.03)"/><path d="M55.84,57.23h0a.08.08,0,0,0-.08.07.08.08,0,0,0,.06.1h0a.07.07,0,0,0,.09,0v0a.07.07,0,0,0,0-.09Z" transform="translate(0.03)"/><path d="M59.89,55.74h0a.06.06,0,0,0,0,.08,0,0,0,0,0,.07,0h0a0,0,0,0,0,0-.07h-.09Z" transform="translate(0.03)"/><path d="M60.87,57.52Z" transform="translate(0.03)"/><path d="M60.79,58.59Z" transform="translate(0.03)"/><path d="M55.85,58.34Z" transform="translate(0.03)"/><path d="M59,60.31Z" transform="translate(0.03)"/><path d="M59.47,60.14Z" transform="translate(0.03)"/><path d="M57,55.58h0a.07.07,0,0,0,0,.1h0a.07.07,0,0,0,.1,0h0s0-.07,0-.1a0,0,0,0,0-.1,0Z" transform="translate(0.03)"/><path d="M60.32,59.52a.06.06,0,0,0,0-.08h-.06a.07.07,0,0,0,0,.09.06.06,0,0,0,.08,0h0Z" transform="translate(0.03)"/><path d="M58.89,55.33a.09.09,0,0,0,.06.09.07.07,0,0,0,.08-.05.08.08,0,0,0,0-.09h0A.11.11,0,0,0,58.89,55.33Z" transform="translate(0.03)"/><path d="M59.83,59.89a.08.08,0,0,0,.11,0h0a.09.09,0,0,0,0-.13h-.13a.08.08,0,0,0,0,.11S59.82,59.89,59.83,59.89Z" transform="translate(0.03)"/><path d="M57,60.05a0,0,0,0,0,0,0h0Z" transform="translate(0.03)"/><path d="M57.49,60.18Z" transform="translate(0.03)"/><path d="M60.58,59Z" transform="translate(0.03)"/><path d="M60.57,56.57Z" transform="translate(0.03)"/><path d="M57.44,55.36h0a.06.06,0,0,0,.09.09h0a.06.06,0,0,0,0-.08h0a0,0,0,0,0-.07,0Z" transform="translate(0.03)"/><path d="M58,60.22h0a.14.14,0,0,0-.13.11.12.12,0,0,0,.1.14h0a.12.12,0,0,0,.14-.1h0a.13.13,0,0,0-.11-.15Z" transform="translate(0.03)"/><path d="M58.47,60.37h0a.06.06,0,0,0,0,.06Z" transform="translate(0.03)"/><path d="M56.66,59.76a.12.12,0,0,0,0-.17h0a.14.14,0,0,0-.09,0,.14.14,0,0,0-.09,0,.12.12,0,0,0,0,.17h0a.12.12,0,0,0,.17,0Z" transform="translate(0.03)"/><path d="M56.26,56.32h0a.06.06,0,0,0,0,.08h.07Z" transform="translate(0.03)"/><path d="M60.26,56.09h0a.06.06,0,0,0,0,.08h0a.06.06,0,1,0,.09-.09h-.09Z" transform="translate(0.03)"/><path d="M56,56.73a.1.1,0,0,0-.08.05.08.08,0,0,0,0,.11h0a.08.08,0,0,0,.11,0,.1.1,0,0,0,0-.11Z" transform="translate(0.03)"/><path d="M56,58.83Z" transform="translate(0.03)"/><path d="M60.76,57Z" transform="translate(0.03)"/><path d="M56.57,55.92h0a.06.06,0,0,0,0,.06m.07,0v0Z" transform="translate(0.03)"/><path d="M56.15,59.35a.12.12,0,0,0,.14,0,.1.1,0,0,0,0-.14h-.14a.1.1,0,0,0,0,.14Z" transform="translate(0.03)"/><path d="M57.93,55.27Z" transform="translate(0.03)"/><path d="M57.26,54.9h0m.06,0h0Z" transform="translate(0.03)"/><path d="M55.45,58.43h0a.15.15,0,0,0-.12-.1h0a.12.12,0,0,0-.1.12v0a.1.1,0,0,0,.12.09h0A.13.13,0,0,0,55.45,58.43Z" transform="translate(0.03)"/><path d="M59.7,60.6Z" transform="translate(0.03)"/><path d="M57.39,60.74a.13.13,0,0,0-.08-.16h0a.13.13,0,0,0-.12.08.14.14,0,0,0,.08.16A.13.13,0,0,0,57.39,60.74Z" transform="translate(0.03)"/><path d="M59.12,60.83h0v0Z" transform="translate(0.03)"/><path d="M57.88,60.82Z" transform="translate(0.03)"/><path d="M56.7,55.19Z" transform="translate(0.03)"/><path d="M55.51,56.6Z" transform="translate(0.03)"/><path d="M56.21,55.56h0m0,.06h0Z" transform="translate(0.03)"/><path d="M55.22,57.83h0m.08,0Z" transform="translate(0.03)"/><path d="M55.33,57.16Z" transform="translate(0.03)"/><path d="M61,59.34h.06c.06,0,0,0,0-.07h0Z" transform="translate(0.03)"/><path d="M57.85,54.74a.06.06,0,0,0-.05.06.06.06,0,0,0,.12,0h-.06Z" transform="translate(0.03)"/><path d="M56.68,60.48h.08a0,0,0,0,0,0-.07h0a.06.06,0,0,0-.08,0A0,0,0,0,0,56.68,60.48Z" transform="translate(0.03)"/><path d="M61.36,57.35a.17.17,0,0,0-.14.17.15.15,0,0,0,.12.19.15.15,0,0,0,.19-.11.11.11,0,0,0,0-.08.15.15,0,0,0-.15-.14Z" transform="translate(0.03)"/><path d="M61.39,58h0a.12.12,0,0,0-.13.11h0a.13.13,0,0,0,.11.15h0a.14.14,0,0,0,.14-.12.14.14,0,0,0-.13-.15Z" transform="translate(0.03)"/><path d="M61.35,58.76a.1.1,0,0,0-.05-.12h0a.1.1,0,0,0-.1.07.1.1,0,0,0,.06.13h0a.09.09,0,0,0,.1-.08Z" transform="translate(0.03)"/><path d="M59.68,54.92a.16.16,0,0,0-.14.08.15.15,0,0,0,.06.2.14.14,0,0,0,.2-.06h0a.15.15,0,0,0-.07-.2Z" transform="translate(0.03)"/><path d="M60.26,60.3a.09.09,0,0,0,0-.1H60.2a.08.08,0,0,0,0,.11Z" transform="translate(0.03)"/><path d="M61,56.32Z" transform="translate(0.03)"/><path d="M56.29,60.11a.08.08,0,0,0,0-.11h-.07a.06.06,0,0,0-.06,0,.08.08,0,0,0,.12.12Z" transform="translate(0.03)"/><path d="M60.7,59.77h0a0,0,0,1,0,.08.06.06.06,0,0,0,0-.06Z" transform="translate(0.03)"/><path d="M59,54.84v.07h.07a.06.06,0,0,0,0-.08h0A.06.06,0,0,0,59,54.84Z" transform="translate(0.03)"/><path d="M60.65,55.77h0a0,0,0,0,0,0,.07h0a.06.06,0,0,0,.08,0m0-.07h0Z" transform="translate(0.03)"/><path d="M60.2,55.28h-.09a.1.1,0,0,0,0,.14h0a.11.11,0,0,0,.16,0h0a.1.1,0,0,0,0-.14H60.2Z" transform="translate(0.03)"/><path d="M61.24,56.85a.06.06,0,0,0,0,.06,0,0,0,1,0,.07-.07h-.07Z" transform="translate(0.03)"/><path d="M58.5,61a.11.11,0,0,0,.06-.07.07.07,0,0,0-.07-.06h0a.06.06,0,0,0-.06.07A.07.07,0,0,0,58.5,61Z" transform="translate(0.03)"/><path d="M55.74,59.64a.09.09,0,0,0,.13,0h0a.09.09,0,0,0,0-.13h0a.1.1,0,0,0-.08,0h-.06a.1.1,0,0,0,0,.15Z" transform="translate(0.03)"/><path d="M58.53,54.76h0Z" transform="translate(0.03)"/><path d="M55.82,56.06Z" transform="translate(0.03)"/><path d="M55.54,59Z" transform="translate(0.03)"/><path d="M61.12,55.36h0a.08.08,0,0,0,0,.09.05.05,0,0,0,.08,0,.05.05,0,0,0,0-.08Z" transform="translate(0.03)"/><path d="M58.56,54.15s0,0,0-.06h0a.06.06,0,0,0-.06,0,.08.08,0,0,0,0,.09.07.07,0,0,0,.09,0h0Z" transform="translate(0.03)"/><path d="M60.68,60.85a.15.15,0,0,0,0-.21h0a.14.14,0,0,0-.12-.06h-.1a.16.16,0,0,0,0,.22.15.15,0,0,0,.2.07Z" transform="translate(0.03)"/><path d="M55.84,60.53a0,0,0,0,0,0-.07h0v.06Z" transform="translate(0.03)"/><path d="M56.38,54.66h0v.06c0,.06,0,0,.06,0s0,0,0-.06S56.39,54.66,56.38,54.66Z" transform="translate(0.03)"/><path d="M59.28,61.45a.06.06,0,0,0,0-.08h-.06a.06.06,0,0,0,0,.08Z" transform="translate(0.03)"/><path d="M55.18,60a.17.17,0,0,0,.22.1.17.17,0,0,0,.05-.29.19.19,0,0,0-.14-.07h-.09a.17.17,0,0,0-.06.23Z" transform="translate(0.03)"/><path d="M55.79,55.08h0a.08.08,0,0,0,0,.11.07.07,0,1,0,.1-.1,0,0,0,0,0,0-.05A0,0,0,0,0,55.79,55.08Z" transform="translate(0.03)"/><path d="M55.39,55.59h-.08a.16.16,0,0,0-.17.13.18.18,0,0,0,.08.15.15.15,0,0,0,.21,0,.16.16,0,0,0,0-.22A.16.16,0,0,0,55.39,55.59Z" transform="translate(0.03)"/><path d="M58.53,61.57a.07.07,0,0,0,.07-.07h0a.07.07,0,0,0-.07-.07h0a.09.09,0,0,0-.05.1A.12.12,0,0,0,58.53,61.57Z" transform="translate(0.03)"/><path d="M54.73,57h0a0,0,0,0,0,0,.07h.07s0-.06,0-.07Z" transform="translate(0.03)"/><path d="M57.79,61.4h0a.06.06,0,0,0-.06.05.06.06,0,1,0,.12,0,0,0,0,0,0-.05-.05Z" transform="translate(0.03)"/><path d="M57.76,54.15Z" transform="translate(0.03)"/><path d="M62,58.09h0a.11.11,0,0,0-.1.09h0a.11.11,0,0,0,.09.1.08.08,0,0,0,.1-.06v0a.09.09,0,0,0-.07-.11Z" transform="translate(0.03)"/><path d="M62,57.36a.07.07,0,0,0-.07.09.07.07,0,0,0,.07.07h0a.08.08,0,0,0,.07-.08.08.08,0,0,0-.08-.08Z" transform="translate(0.03)"/><path d="M61.15,60.18h-.06a0,0,0,0,0,0,.07m.06,0s0-.06,0-.07Z" transform="translate(0.03)"/><path d="M61.6,56h-.06a.08.08,0,0,0,0,.09.07.07,0,0,0,.09,0,.07.07,0,0,0,0-.09A.08.08,0,0,0,61.6,56Z" transform="translate(0.03)"/><path d="M59.27,54.15h0a.12.12,0,0,0-.11.09.11.11,0,0,0,.07.14h0a.12.12,0,0,0,.14-.09.11.11,0,0,0-.09-.13Z" transform="translate(0.03)"/><path d="M57.11,61.3a0,0,0,0,0,0-.07h0a0,0,0,0,0,0,.07A0,0,0,0,0,57.11,61.3Z" transform="translate(0.03)"/><path d="M61.8,56.59a.12.12,0,0,0-.08.15h0a.12.12,0,0,0,.15.08h0a.12.12,0,0,0,.09-.14h0a.13.13,0,0,0-.12-.09Z" transform="translate(0.03)"/><path d="M61.49,59.71a.13.13,0,0,0,.18,0,.14.14,0,0,0,0-.19l-.06,0h-.06a.13.13,0,0,0-.11.06A.14.14,0,0,0,61.49,59.71Z" transform="translate(0.03)"/><path d="M60,61.17a.09.09,0,0,0,0-.07h0m0,.06h0Z" transform="translate(0.03)"/><path d="M61.92,58.94a.08.08,0,0,0-.06-.1h0a.09.09,0,0,0,0,.1.12.12,0,0,0,0,.05A.1.1,0,0,0,61.92,58.94Z" transform="translate(0.03)"/><path d="M60.58,54.85h0m0,.07a0,0,0,0,0,.07,0h-.07Z" transform="translate(0.03)"/><path d="M54.76,58.57Z" transform="translate(0.03)"/><path d="M59.94,54.42a.09.09,0,1,0,.11.06.09.09,0,0,0-.06-.06Z" transform="translate(0.03)"/><path d="M56.43,60.93Z" transform="translate(0.03)"/><path d="M54.53,57.82h0a.12.12,0,1,0,.24,0h0a.13.13,0,0,0-.12-.11.11.11,0,0,0-.12.1Z" transform="translate(0.03)"/><path d="M54.94,56.29a.08.08,0,0,0-.07.05.07.07,0,1,0,.11.1.08.08,0,0,0,0,0,.08.08,0,0,0,0-.11Z" transform="translate(0.03)"/><path d="M55,59.27h0m0,.07a.09.09,0,0,0,0-.07Z" transform="translate(0.03)"/><path d="M57.05,54.22h0a.16.16,0,1,0,.2.09A.15.15,0,0,0,57.05,54.22Z" transform="translate(0.03)"/><path d="M61,54.18a.15.15,0,0,0-.15.15.16.16,0,0,0,0,.11.15.15,0,0,0,.21,0,.15.15,0,0,0,0-.19A.16.16,0,0,0,61,54.18Z" transform="translate(0.03)"/><path d="M61.75,54.88a.11.11,0,0,0-.08,0h-.06a.11.11,0,0,0,0,.15.12.12,0,0,0,.14,0,.1.1,0,0,0,0-.14Z" transform="translate(0.03)"/><path d="M60.27,53.76a.11.11,0,0,0-.09.05.1.1,0,1,0,.14,0h0Z" transform="translate(0.03)"/><path d="M55.88,54.15a.13.13,0,0,0,.18,0h0a.14.14,0,0,0,0-.19A.13.13,0,0,0,56,53.9h-.07a.14.14,0,0,0-.06.19A.12.12,0,0,0,55.88,54.15Z" transform="translate(0.03)"/><path d="M54.6,60.44a.14.14,0,0,0,.19,0,.13.13,0,0,0,0-.18h0a.11.11,0,0,0-.11-.06H54.6a.14.14,0,0,0,0,.2Z" transform="translate(0.03)"/><path d="M58.54,53.55a.15.15,0,0,0,.14-.13.12.12,0,0,0-.1-.14h0a.14.14,0,1,0,0,.27Z" transform="translate(0.03)"/><path d="M54.79,55.17a.14.14,0,0,0-.09,0,.17.17,0,0,0-.13.07.16.16,0,0,0,0,.22.15.15,0,0,0,.21,0h0a.15.15,0,0,0,.15-.15A.15.15,0,0,0,54.79,55.17Z" transform="translate(0.03)"/><path d="M59.48,62.23a.15.15,0,0,0,.1-.17.13.13,0,0,0-.13-.1h0a.16.16,0,0,0-.1.17A.14.14,0,0,0,59.48,62.23Z" transform="translate(0.03)"/><path d="M62.62,59.16a.07.07,0,0,0,0-.1h0a.08.08,0,0,0-.08.06.07.07,0,0,0,.05.1.07.07,0,0,0,.1,0,.06.06,0,0,0,0-.06Z" transform="translate(0.03)"/><path d="M55.28,54.56h0a.06.06,0,0,0,0,.08,0,0,0,0,0,.07,0h0a.06.06,0,0,0,0-.08h-.09Z" transform="translate(0.03)"/><path d="M55.42,61.15a.16.16,0,0,0,0-.24h-.11a.17.17,0,0,0-.12.05.17.17,0,0,0,0,.23A.18.18,0,0,0,55.42,61.15Z" transform="translate(0.03)"/><path d="M62.15,60a.08.08,0,0,0,.12-.12h0l-.07,0A.08.08,0,0,0,62.15,60Z" transform="translate(0.03)"/><path d="M61.07,61.34v-.06h0m0,.06Z" transform="translate(0.03)"/><path d="M56,61.66a.12.12,0,0,0,.14,0,.11.11,0,0,0,0-.13h0a.11.11,0,0,0-.09,0A.11.11,0,0,0,56,61.66Z" transform="translate(0.03)"/><path d="M56.79,53.61h0a.09.09,0,0,0,0,.1.09.09,0,0,0,.1,0,.07.07,0,0,0,0-.09Z" transform="translate(0.03)"/><path d="M61.72,60.72v-.06h-.06v.06Z" transform="translate(0.03)"/><path d="M62.26,55.63a.09.09,0,0,0-.07,0h0a.08.08,0,0,0,0,.11.1.1,0,0,0,.1.08.1.1,0,0,0,.08-.11l0-.05Z" transform="translate(0.03)"/><path d="M62.72,58.32h.06a.08.08,0,0,0-.05-.07h-.06A.08.08,0,0,0,62.72,58.32Z" transform="translate(0.03)"/><path d="M54.27,55.94a.13.13,0,0,0-.13.09.14.14,0,0,0,.07.18.14.14,0,1,0,.11-.26Z" transform="translate(0.03)"/><path d="M54.38,59.53a.12.12,0,0,0-.1-.07h-.05a.12.12,0,0,0-.06.16h0a.11.11,0,0,0,.21-.09Z" transform="translate(0.03)"/><path d="M56.9,62a.09.09,0,0,0,0-.12h0a.1.1,0,0,0-.09.07.09.09,0,0,0,0,.12h0A.1.1,0,0,0,56.9,62Z" transform="translate(0.03)"/><path d="M60.33,61.87a.12.12,0,0,0-.09-.18h0a.09.09,0,0,0,0,.12A.1.1,0,0,0,60.33,61.87Z" transform="translate(0.03)"/><path d="M62.5,56.37a.12.12,0,0,0-.08.15h0a.12.12,0,0,0,.15.08h0a.12.12,0,0,0,.08-.15h0a.14.14,0,0,0-.12-.09Z" transform="translate(0.03)"/><path d="M57.64,53.37a.08.08,0,0,0-.07.1.07.07,0,0,0,.09.07h0a.1.1,0,0,0,.07-.09.09.09,0,0,0-.09-.08Z" transform="translate(0.03)"/><path d="M57.68,62.13h0m0,0a0,0,0,0,0,0,.07h.07s0-.06,0-.07Z" transform="translate(0.03)"/><path d="M62.71,57.25a.11.11,0,0,0-.1.12h0a.11.11,0,0,0,.12.1h0a.12.12,0,0,0,.08-.15.11.11,0,0,0-.08-.08Z" transform="translate(0.03)"/><path d="M53.91,57.91a.09.09,0,0,0,.08-.08h0a.09.09,0,0,0-.08-.08.08.08,0,0,0-.07.08h0s0,.07.06.08Z" transform="translate(0.03)"/><path d="M59.27,53.5a.18.18,0,0,0,.12.21.17.17,0,0,0,.2-.11h0a.18.18,0,0,0-.12-.21h0A.16.16,0,0,0,59.27,53.5Z" transform="translate(0.03)"/><path d="M54,56.88h0V57m.06,0h0L54,56.88Z" transform="translate(0.03)"/><path d="M54.12,58.7a.12.12,0,0,0-.11-.09h0a.13.13,0,0,0-.09.14.12.12,0,0,0,.14.09A.12.12,0,0,0,54.12,58.7Z" transform="translate(0.03)"/><path d="M58.57,62.35a.12.12,0,0,0,.11-.13h0a.11.11,0,0,0-.11-.11h0a.12.12,0,0,0-.11.13h0A.13.13,0,0,0,58.57,62.35Z" transform="translate(0.03)"/><path d="M57.51,52.52s-.06,0,0,.07a.07.07,0,0,0,.07.06s.06,0,0-.07a.06.06,0,0,0-.06-.06h0Z" transform="translate(0.03)"/><path d="M58.62,63.17a.06.06,0,0,0,.05-.06.06.06,0,0,0-.06-.06h0a.07.07,0,0,0-.06.07S58.58,63.17,58.62,63.17Z" transform="translate(0.03)"/><path d="M62.34,54.18a.18.18,0,0,0-.2.16.2.2,0,0,0,.06.15.21.21,0,0,0,.26,0,.19.19,0,0,0,0-.27h0A.17.17,0,0,0,62.34,54.18Z" transform="translate(0.03)"/><path d="M53.3,58.88a.15.15,0,0,0-.16-.13h0a.16.16,0,1,0,.06.32h0A.16.16,0,0,0,53.3,58.88Z" transform="translate(0.03)"/><path d="M61.66,62.1a.12.12,0,0,0,0-.17h0a.09.09,0,0,0-.1,0h-.08a.15.15,0,0,0,0,.18.12.12,0,0,0,.17,0Z" transform="translate(0.03)"/><path d="M55.47,62.44a.13.13,0,1,0,.14-.22h-.07a.12.12,0,0,0-.07.22Z" transform="translate(0.03)"/><path d="M63.48,59.42a.1.1,0,0,0-.06-.12h0a.1.1,0,0,0-.09.07.09.09,0,0,0,.05.12h0A.1.1,0,0,0,63.48,59.42Z" transform="translate(0.03)"/><path d="M53.15,56.7h0a.06.06,0,0,0-.06,0s0,0,0,.07h0m.06,0s0-.06-.05-.07h0Z" transform="translate(0.03)"/><path d="M63.62,58.18h0a.17.17,0,0,0-.17.16.18.18,0,0,0,.15.19.18.18,0,0,0,.19-.15h0a.16.16,0,0,0-.13-.19Z" transform="translate(0.03)"/><path d="M60.65,53Z" transform="translate(0.03)"/><path d="M54.12,61.05a.24.24,0,0,0,.06-.32h0a.26.26,0,0,0-.19-.1.29.29,0,0,0-.13,0,.24.24,0,0,0-.06.32h0a.24.24,0,0,0,.31.11Z" transform="translate(0.03)"/><path d="M54.05,54.69H54a.11.11,0,0,0-.11.06.13.13,0,0,0,0,.18h0a.14.14,0,0,0,.19,0,.12.12,0,0,0,.08-.16A.12.12,0,0,0,54.05,54.69Z" transform="translate(0.03)"/><path d="M52.78,57.83h0a.25.25,0,0,0,.5,0h0a.25.25,0,0,0-.5,0Z" transform="translate(0.03)"/><path d="M54.68,53.8a.13.13,0,0,0-.13.05.17.17,0,0,0,0,.25.18.18,0,0,0,.25-.25A.21.21,0,0,0,54.68,53.8Z" transform="translate(0.03)"/><path d="M61.56,53.58h0m0,.06h.06m0-.07h0Z" transform="translate(0.03)"/><path d="M60.69,62.61Z" transform="translate(0.03)"/><path d="M55.52,53.19h-.07a.13.13,0,0,0-.05.19.15.15,0,0,0,.2,0,.15.15,0,0,0,0-.2A.12.12,0,0,0,55.52,53.19Z" transform="translate(0.03)"/><path d="M59.49,52.65a.16.16,0,1,0,.2-.12h0a.14.14,0,0,0-.19.09A0,0,0,0,0,59.49,52.65Z" transform="translate(0.03)"/><path d="M62.87,60.33a.12.12,0,0,0,.05.15.12.12,0,0,0,.14,0,.1.1,0,0,0,0-.14H63A.12.12,0,0,0,62.87,60.33Z" transform="translate(0.03)"/><path d="M56.62,62.84a.14.14,0,0,0-.07-.16h0a.12.12,0,0,0-.11.08.12.12,0,0,0,.06.16h0A.12.12,0,0,0,56.62,62.84Z" transform="translate(0.03)"/><path d="M63.58,57.1a.17.17,0,0,0-.16.19.18.18,0,0,0,.2.16h0a.16.16,0,0,0,.16-.18h0a.18.18,0,0,0-.18-.16Z" transform="translate(0.03)"/><path d="M56.48,52.71h0a.14.14,0,0,0-.08.18.16.16,0,0,0,.18.09.14.14,0,0,0,.09-.19A.17.17,0,0,0,56.48,52.71Z" transform="translate(0.03)"/><path d="M59.49,63a.2.2,0,0,0,.23.14.19.19,0,0,0,.13-.23.19.19,0,0,0-.18-.14h-.05A.19.19,0,0,0,59.49,63Z" transform="translate(0.03)"/><path d="M63.16,55.13A.23.23,0,0,0,63,55h-.12a.24.24,0,0,0-.1.31h0a.24.24,0,0,0,.32.09A.23.23,0,0,0,63.16,55.13Z" transform="translate(0.03)"/><path d="M62.53,61.06a.26.26,0,1,0,0,.38A.28.28,0,0,0,62.53,61.06Z" transform="translate(0.03)"/><path d="M54.72,61.7v-.06h0a.06.06,0,0,0,0,.06Z" transform="translate(0.03)"/><path d="M58.59,52.57Z" transform="translate(0.03)"/><path d="M57.55,63h-.06a.07.07,0,0,0,0,.08.08.08,0,0,0,.08-.06A.06.06,0,0,0,57.55,63Z" transform="translate(0.03)"/><path d="M53.46,55.59a.14.14,0,0,0-.15.13.14.14,0,0,0,.09.14.15.15,0,0,0,.19-.06h0a.15.15,0,0,0-.07-.19h-.06Z" transform="translate(0.03)"/><path d="M63.35,56.14a.09.09,0,0,0-.06.11.11.11,0,0,0,.12.07.08.08,0,0,0,.06-.11h0a.1.1,0,0,0-.09-.07Z" transform="translate(0.03)"/><path d="M53.53,59.9h-.06V60a.08.08,0,0,0,.09,0A.85.85,0,0,1,53.53,59.9Z" transform="translate(0.03)"/><path d="M63.15,53.45a.2.2,0,0,0-.15.06.22.22,0,1,0,.31,0h0A.23.23,0,0,0,63.15,53.45Z" transform="translate(0.03)"/><path d="M62.29,52.69h-.08a.12.12,0,0,0-.1.05.13.13,0,0,0,0,.18.12.12,0,0,0,.18,0,.14.14,0,0,0,0-.19h0Z" transform="translate(0.03)"/><path d="M62.27,62.89a.06.06,0,0,0,0-.08h-.06a.06.06,0,1,0,.08.1Z" transform="translate(0.03)"/><path d="M61.17,63.5h0a.06.06,0,0,0,0,.08h0Z" transform="translate(0.03)"/><path d="M63.84,61a.11.11,0,0,0,.16-.16h-.06a.12.12,0,0,0-.06.16.09.09,0,0,0,.06.06Z" transform="translate(0.03)"/><path d="M64.65,57.07h0a.08.08,0,0,0-.08.1h0a.08.08,0,0,0,.08.08h0a.11.11,0,0,0,.09-.1A.12.12,0,0,0,64.65,57.07Z" transform="translate(0.03)"/><path d="M64,54.65a.16.16,0,0,0-.15-.09h-.08a.17.17,0,0,0-.06.23.16.16,0,0,0,.22.06h0A.16.16,0,0,0,64,54.65Z" transform="translate(0.03)"/><path d="M63.19,61.92h0m0,.07a0,0,0,0,0,.07,0,.45.45,0,0,0-.07-.07Z" transform="translate(0.03)"/><path d="M64.37,55.83a.09.09,0,0,0-.05.1.07.07,0,1,0,.1-.1.1.1,0,0,0-.08,0Z" transform="translate(0.03)"/><path d="M64.57,59.77a.19.19,0,0,0-.11-.23h0a.17.17,0,0,0-.17.13h0a.19.19,0,0,0,.13.23A.18.18,0,0,0,64.57,59.77Z" transform="translate(0.03)"/><path d="M64.65,58.21a.24.24,0,0,0-.23.22.23.23,0,0,0,.2.26h0a.24.24,0,0,0,.26-.22h0a.23.23,0,0,0-.21-.25h0Z" transform="translate(0.03)"/><path d="M59.87,51.65a.06.06,0,0,0,0,.06h.06a0,0,0,0,0,0-.05h0A0,0,0,0,0,59.87,51.65Z" transform="translate(0.03)"/><path d="M55,52.3h-.07a.14.14,0,0,0,0,.17.13.13,0,0,0,.18-.18A.14.14,0,0,0,55,52.3Z" transform="translate(0.03)"/><path d="M58.64,51.63a.15.15,0,0,0,.16-.14h0a.16.16,0,0,0-.13-.17h0a.17.17,0,0,0-.16.15A.16.16,0,0,0,58.64,51.63Z" transform="translate(0.03)"/><path d="M58.68,64.3a.12.12,0,0,0,.11-.14.13.13,0,0,0-.12-.11h0a.12.12,0,0,0-.12.12h0A.13.13,0,0,0,58.68,64.3Z" transform="translate(0.03)"/><path d="M53.22,54.27a.14.14,0,0,0,0-.19h-.08a.14.14,0,0,0-.12.06.15.15,0,0,0,0,.2.13.13,0,0,0,.19-.05Z" transform="translate(0.03)"/><path d="M52.58,60.32a.1.1,0,0,0-.09-.06h0a.09.09,0,1,0,.07.17h0A.09.09,0,0,0,52.58,60.32Z" transform="translate(0.03)"/><path d="M53,61.56a.15.15,0,0,0,.21,0,.17.17,0,0,0,0-.21.17.17,0,0,0-.13-.07H53a.15.15,0,0,0-.05.22A.09.09,0,0,0,53,61.56Z" transform="translate(0.03)"/><path d="M56.39,63.88a.25.25,0,0,0-.16-.33h-.09a.27.27,0,0,0-.25.17.27.27,0,0,0,.47.27l0-.09Z" transform="translate(0.03)"/><path d="M52,57.84Z" transform="translate(0.03)"/><path d="M52.2,59.11a.11.11,0,0,0-.1-.09h0a.1.1,0,0,0-.08.12h0a.11.11,0,0,0,.12.08A.09.09,0,0,0,52.2,59.11Z" transform="translate(0.03)"/><path d="M55,63.29a.08.08,0,0,0,.09,0,.09.09,0,0,0,0-.1H55a.06.06,0,0,0,0,.09Z" transform="translate(0.03)"/><path d="M57.35,51.49Z" transform="translate(0.03)"/><path d="M52.12,56.44h0a.1.1,0,0,0-.1.08h0a.1.1,0,0,0,.06.13h0a.1.1,0,0,0,.12-.09.1.1,0,0,0-.08-.12Z" transform="translate(0.03)"/><path d="M52.48,55.25h0a.06.06,0,0,0,0,.08.06.06,0,0,0,.05-.11h-.05Z" transform="translate(0.03)"/><path d="M54,53.14h-.06a.08.08,0,0,0,0,.11.07.07,0,0,0,.11,0,.09.09,0,0,0,0-.12h0Z" transform="translate(0.03)"/><path d="M56.11,51.8h0a0,0,0,0,0,0,.07m.07,0a0,0,0,0,0,0-.07h-.07Z" transform="translate(0.03)"/><path d="M60,64.2a.24.24,0,0,0,.17-.29.25.25,0,0,0-.23-.17h-.06a.24.24,0,0,0-.17.29.23.23,0,0,0,.27.17Z" transform="translate(0.03)"/><path d="M61.12,52.08h0m.06,0Z" transform="translate(0.03)"/><path d="M54.12,62.59a.22.22,0,0,0,0-.3.2.2,0,0,0-.15-.06.21.21,0,0,0-.15.07.21.21,0,0,0,.31.29Z" transform="translate(0.03)"/><path d="M57.4,64h0a.15.15,0,0,0-.15.12.15.15,0,0,0,.12.16.14.14,0,0,0,.16-.12h0a.13.13,0,0,0-.1-.16Z" transform="translate(0.03)"/><path d="M60.34,65.49a.29.29,0,0,0,.21-.35h0a.31.31,0,0,0-.29-.22h-.07a.3.3,0,0,0-.22.36A.31.31,0,0,0,60.34,65.49Z" transform="translate(0.03)"/><path d="M52,62.12a.09.09,0,0,0,0,.13h0a.1.1,0,0,0,.14,0,.11.11,0,0,0,0-.15H52Z" transform="translate(0.03)"/><path d="M65.57,55.4a.13.13,0,1,0,.16.09h0a.15.15,0,0,0-.12-.1Z" transform="translate(0.03)"/><path d="M53.07,52.21H53a.09.09,0,0,0,0,.12.08.08,0,0,0,.11,0h0a.09.09,0,0,0,0-.12Z" transform="translate(0.03)"/><path d="M66,60.2a.37.37,0,0,0-.24-.45h-.11a.35.35,0,0,0-.34.25.37.37,0,0,0,.24.46.36.36,0,0,0,.45-.24Z" transform="translate(0.03)"/><path d="M52.21,53.57a.19.19,0,0,0,0-.26.21.21,0,0,0-.11,0,.18.18,0,0,0-.11.33h0A.18.18,0,0,0,52.21,53.57Z" transform="translate(0.03)"/><path d="M51.5,60.79a.18.18,0,0,0-.17-.12h-.08a.18.18,0,0,0-.09.24h0a.18.18,0,0,0,.23.1h0A.2.2,0,0,0,51.5,60.79Z" transform="translate(0.03)"/><path d="M61.68,50.87a.12.12,0,0,0-.09.18.09.09,0,0,0,.13,0h0a.1.1,0,0,0,0-.13h0Z" transform="translate(0.03)"/><path d="M64.88,61.74a.27.27,0,0,0,.36-.1.27.27,0,0,0-.1-.36.28.28,0,0,0-.36.1A.27.27,0,0,0,64.88,61.74Z" transform="translate(0.03)"/><path d="M51.31,54.68a.13.13,0,0,0-.12.08.15.15,0,0,0,.07.19.14.14,0,0,0,.18-.07.14.14,0,0,0-.06-.19h-.07Z" transform="translate(0.03)"/><path d="M50.89,56.12h0a.15.15,0,0,0-.16.13.17.17,0,1,0,.2-.13h0Z" transform="translate(0.03)"/><path d="M51.13,59.33a.28.28,0,0,0-.27-.22H50.8a.25.25,0,0,0-.21.3v0a.27.27,0,0,0,.29.27.28.28,0,0,0,.27-.28.3.3,0,0,0,0-.1Z" transform="translate(0.03)"/><path d="M65.11,54A.11.11,0,0,0,65,54h-.07a.13.13,0,0,0,.19.19.13.13,0,0,0,0-.18Z" transform="translate(0.03)"/><path d="M50.57,57.84h0a.13.13,0,0,0,.26,0h0a.13.13,0,0,0-.26,0Z" transform="translate(0.03)"/><path d="M64.25,62.64h-.12a.2.2,0,0,0-.14.06A.18.18,0,0,0,64,63a.18.18,0,0,0,.25,0h0a.18.18,0,0,0,0-.26Z" transform="translate(0.03)"/><path d="M57.11,49.9a.39.39,0,0,0-.32.44.38.38,0,0,0,.43.32.39.39,0,0,0,.32-.44.38.38,0,0,0-.37-.32Z" transform="translate(0.03)"/><path d="M63.07,51.68H63a.12.12,0,0,0-.1,0,.15.15,0,0,0,0,.18.13.13,0,0,0,.18,0,.14.14,0,0,0,0-.19Z" transform="translate(0.03)"/><path d="M64.11,52.6a.23.23,0,0,0-.16.06A.25.25,0,0,0,64,53a.24.24,0,0,0,.34,0,.23.23,0,0,0,0-.34h0A.24.24,0,0,0,64.11,52.6Z" transform="translate(0.03)"/><path d="M53.21,63.49a.16.16,0,0,0,0-.23H53a.17.17,0,0,0,0,.24A.17.17,0,0,0,53.21,63.49Z" transform="translate(0.03)"/><path d="M54.29,51.13a.24.24,0,0,0-.12,0,.21.21,0,0,0-.07.29h0a.22.22,0,1,0,.37-.23A.2.2,0,0,0,54.29,51.13Z" transform="translate(0.03)"/><path d="M60.09,50.4a.14.14,0,0,0,.1.17h0a.16.16,0,0,0,.17-.1.15.15,0,0,0-.1-.17h0A.14.14,0,0,0,60.09,50.4Z" transform="translate(0.03)"/><path d="M55.9,65.06a.21.21,0,0,0-.13-.27H55.7a.22.22,0,0,0-.2.13.21.21,0,0,0,.13.27h0a.21.21,0,0,0,.27-.13Z" transform="translate(0.03)"/><path d="M65.93,58.49h0a.09.09,0,0,0-.09.08.09.09,0,0,0,.08.1.09.09,0,1,0,0-.18Z" transform="translate(0.03)"/><path d="M61.82,64.89a.26.26,0,0,0,.11-.34h0a.24.24,0,0,0-.22-.14h-.12a.25.25,0,1,0,.23.45Z" transform="translate(0.03)"/><path d="M55.67,50.59h0a.08.08,0,0,0,0,.09.09.09,0,0,0,.1,0,.09.09,0,0,0,0-.1A.08.08,0,0,0,55.67,50.59Z" transform="translate(0.03)"/><path d="M65.89,56.8a.24.24,0,1,0,0,.48.24.24,0,0,0,.22-.26h0a.23.23,0,0,0-.23-.21Z" transform="translate(0.03)"/><path d="M58.7,50.38a.18.18,0,0,0,.19-.17h0a.18.18,0,0,0-.17-.19h0a.18.18,0,0,0,0,.36Z" transform="translate(0.03)"/><path d="M57.21,65.3h0s-.07,0-.07.06,0,.07.06.08a.08.08,0,0,0,.08-.06S57.25,65.3,57.21,65.3Z" transform="translate(0.03)"/><path d="M58.75,65.67a.22.22,0,0,0,.22-.22v0a.24.24,0,0,0-.23-.22h0a.23.23,0,1,0,0,.46Z" transform="translate(0.03)"/><path d="M54.25,64.42a.12.12,0,1,0,.17-.17h-.07a.11.11,0,0,0-.1.06A.11.11,0,0,0,54.25,64.42Z" transform="translate(0.03)"/><path d="M63.16,64a.24.24,0,0,0,0-.34A.25.25,0,0,0,63,63.6a.2.2,0,0,0-.15,0,.25.25,0,0,0,0,.35.24.24,0,0,0,.28,0Z" transform="translate(0.03)"/><path d="M64,65.16a.13.13,0,0,0,0-.2h0V64.9a.14.14,0,0,0-.16.2.15.15,0,0,0,.2.07.1.1,0,0,0,0,0Z" transform="translate(0.03)"/><path d="M49.91,54.14h-.06a.08.08,0,0,0,0,.09.07.07,0,0,0,.1,0h0a.07.07,0,0,0,0-.09Z" transform="translate(0.03)"/><path d="M53.38,65.83a.26.26,0,0,0,.27-.44.33.33,0,0,0-.14,0,.27.27,0,0,0-.22.12A.27.27,0,0,0,53.38,65.83Z" transform="translate(0.03)"/><path d="M55.14,49.19h0a.06.06,0,0,0,.06,0m0-.06s0,.06-.06.06Z" transform="translate(0.03)"/><path d="M55.34,66.48a.19.19,0,0,0-.1-.23h-.06a.17.17,0,0,0-.17.12.18.18,0,1,0,.33.12Z" transform="translate(0.03)"/><path d="M57,66.82h0a.06.06,0,0,0-.06.05s0,.06.05.07a.12.12,0,0,0,.07,0,.07.07,0,0,0-.06-.12Z" transform="translate(0.03)"/><path d="M52,50.93a.29.29,0,0,0-.18.07.27.27,0,0,0,0,.37h0a.25.25,0,0,0,.36,0,.27.27,0,0,0,0-.37h0A.24.24,0,0,0,52,50.93Z" transform="translate(0.03)"/><path d="M53.48,50h0a.08.08,0,1,0,.11,0A.08.08,0,0,0,53.48,50Z" transform="translate(0.03)"/><path d="M62.35,49.51a.09.09,0,0,0-.08.05.08.08,0,0,0,0,.11.09.09,0,0,0,.12,0,.08.08,0,0,0,0-.11Z" transform="translate(0.03)"/><path d="M67,54.81a.27.27,0,0,0-.18.34h0a.27.27,0,0,0,.34.17.27.27,0,0,0,.18-.34h0a.27.27,0,0,0-.26-.18Z" transform="translate(0.03)"/><path d="M58.79,48.54h0a.15.15,0,0,0-.14.13.15.15,0,0,0,.14.15.14.14,0,0,0,.14-.14.13.13,0,0,0-.12-.14Z" transform="translate(0.03)"/><path d="M52.15,64.58a.14.14,0,0,0,0-.21.17.17,0,0,0-.1,0,.17.17,0,0,0-.1,0,.14.14,0,0,0,0,.21A.15.15,0,0,0,52.15,64.58Z" transform="translate(0.03)"/><path d="M58.83,67.17A.21.21,0,0,0,59,67a.21.21,0,0,0-.21-.19h0a.21.21,0,0,0-.2.22h0A.21.21,0,0,0,58.83,67.17Z" transform="translate(0.03)"/><path d="M65.27,51.8h0a0,0,0,0,0,0,.07h.06Z" transform="translate(0.03)"/><path d="M60.68,66.79a.12.12,0,0,0,.08-.14.12.12,0,0,0-.11-.08h0a.11.11,0,1,0,.06.22h0Z" transform="translate(0.03)"/><path d="M60.42,48.9a.2.2,0,0,0,.13.25h0a.21.21,0,0,0,.25-.15.2.2,0,0,0-.15-.24h0a.2.2,0,0,0-.24.13Z" transform="translate(0.03)"/><path d="M56.86,48.31h0a.46.46,0,0,0-.38.53h0a.46.46,0,0,0,.52.39.47.47,0,0,0,.39-.53.45.45,0,0,0-.46-.39Z" transform="translate(0.03)"/><path d="M49.08,57.84h0a.09.09,0,0,0,.09.09h0a.09.09,0,0,0,.1-.1h0a.11.11,0,0,0-.1-.1.11.11,0,0,0-.09.1Z" transform="translate(0.03)"/><path d="M50.7,62.9a.22.22,0,0,0-.05.31h0a.21.21,0,0,0,.3,0h0A.23.23,0,0,0,51,63a.26.26,0,0,0-.19-.1Z" transform="translate(0.03)"/><path d="M49.48,59.68a.14.14,0,0,0-.11-.09h0a.11.11,0,0,0-.09.13h0a.12.12,0,0,0,.14.09A.11.11,0,0,0,49.48,59.68Z" transform="translate(0.03)"/><path d="M49.43,55.61h-.07a.38.38,0,0,0-.1.75h0a.38.38,0,1,0,.23-.72l-.08,0Z" transform="translate(0.03)"/><path d="M50.06,61.78a.34.34,0,0,0,.21-.43.33.33,0,0,0-.34-.23h-.14a.34.34,0,1,0,.27.63h0Z" transform="translate(0.03)"/><path d="M50.7,52.75a.21.21,0,0,0,.26,0h0a.19.19,0,0,0,0-.26.21.21,0,0,0-.11,0,.18.18,0,0,0-.15.08h0A.19.19,0,0,0,50.7,52.75Z" transform="translate(0.03)"/><path d="M66.2,62.51a.3.3,0,0,0,.41-.12h0a.31.31,0,0,0-.12-.41h-.15a.3.3,0,0,0-.26.15A.3.3,0,0,0,66.2,62.51Z" transform="translate(0.03)"/><path d="M66.38,53.34h0a.06.06,0,0,0,0,.08.07.07,0,0,0,.09,0Z" transform="translate(0.03)"/><path d="M67.39,60.64a.34.34,0,0,0-.21-.42h-.11a.33.33,0,0,0-.1.65.34.34,0,0,0,.42-.21Z" transform="translate(0.03)"/><path d="M67.42,56.75a.11.11,0,0,0-.11.13h0a.13.13,0,0,0,.14.12h0a.13.13,0,0,0,.11-.15h0a.13.13,0,0,0-.12-.11Z" transform="translate(0.03)"/><path d="M64,50.52h0a0,0,0,0,0,0,0,0,0,0,0,0,0,.07h0a.06.06,0,0,0,.08,0h0a.06.06,0,0,0,0-.08Z" transform="translate(0.03)"/><path d="M67.45,58.63h0a.11.11,0,0,0-.1.09.09.09,0,0,0,.07.11h0a.09.09,0,0,0,.11-.07v0a.1.1,0,0,0-.09-.11Z" transform="translate(0.03)"/><path d="M65.47,63.55a.3.3,0,0,0-.18-.06.25.25,0,0,0-.21.1h0a.29.29,0,0,0,0,.4.28.28,0,0,0,.41-.39h0Z" transform="translate(0.03)"/><path d="M62.41,66.09a.07.07,0,0,0,0-.09.06.06,0,0,0-.06,0h0a0,0,0,0,0,0,.07h0A.07.07,0,0,0,62.41,66.09Z" transform="translate(0.03)"/><path d="M66.65,50.47h-.12a.21.21,0,0,0,0,.26.18.18,0,0,0,.28-.24h0A.18.18,0,0,0,66.65,50.47Z" transform="translate(0.03)"/><path d="M47.68,55h-.12a.61.61,0,0,0-.12,1.21A.62.62,0,1,0,47.68,55Z" transform="translate(0.03)"/><path d="M63.34,68a.32.32,0,0,0,.16-.44.32.32,0,0,0-.31-.19.38.38,0,0,0-.15,0,.35.35,0,0,0-.15.45.33.33,0,0,0,.43.19Z" transform="translate(0.03)"/><path d="M68.31,52.26a.43.43,0,0,0-.38-.22.54.54,0,0,0-.22.05.45.45,0,0,0-.16.6.44.44,0,0,0,.76-.43Z" transform="translate(0.03)"/><path d="M65.13,49H65a.13.13,0,0,0-.11.06.13.13,0,0,0,0,.2h0a.13.13,0,0,0,.18,0l0,0a.13.13,0,0,0,.11-.16A.13.13,0,0,0,65.13,49Z" transform="translate(0.03)"/><path d="M48.46,62.69a.53.53,0,0,0,.29-.71h0a.54.54,0,0,0-.51-.33H48a.54.54,0,0,0,.43,1h0Z" transform="translate(0.03)"/><path d="M68.74,54.3a.22.22,0,0,0-.14.28h0a.2.2,0,0,0,.26.14h0a.21.21,0,0,0,.15-.27.23.23,0,0,0-.21-.16Z" transform="translate(0.03)"/><path d="M54.5,47.4h0a.14.14,0,0,0-.07.16.12.12,0,0,0,.15.08h0a.14.14,0,0,0,.07-.16A.13.13,0,0,0,54.5,47.4Z" transform="translate(0.03)"/><path d="M69.27,58.83h0a.08.08,0,0,0-.08.07s0,.08.07.09a.08.08,0,1,0,0-.16Z" transform="translate(0.03)"/><path d="M55,68.29a.44.44,0,0,0-.25-.57h0a.38.38,0,0,0-.15,0,.45.45,0,0,0-.45.45.46.46,0,0,0,.29.42A.45.45,0,0,0,55,68.3Z" transform="translate(0.03)"/><path d="M65.16,66.6a.13.13,0,0,0,0-.18h0a.11.11,0,0,0-.1-.06H65a.13.13,0,0,0,0,.2h0a.13.13,0,0,0,.17.06Z" transform="translate(0.03)"/><path d="M50.75,49.56a.25.25,0,0,0-.2.09.29.29,0,0,0,0,.41h0a.31.31,0,0,0,.42,0,.29.29,0,0,0,0-.41h0A.31.31,0,0,0,50.75,49.56Z" transform="translate(0.03)"/><path d="M69,61.13a.14.14,0,0,0-.09-.18h0a.14.14,0,0,0-.13.1.12.12,0,0,0,.06.16h0A.14.14,0,0,0,69,61.13Z" transform="translate(0.03)"/><path d="M49.48,51.67a.22.22,0,0,0,0-.3h-.12a.22.22,0,0,0-.18.1.21.21,0,0,0,.35.24h0Z" transform="translate(0.03)"/><path d="M61.15,68.58a.13.13,0,1,0,0-.26h0a.13.13,0,0,0-.09.16A.13.13,0,0,0,61.15,68.58Z" transform="translate(0.03)"/><path d="M63.15,47.8A.16.16,0,0,0,63,48a.17.17,0,0,0,.08.12.13.13,0,0,0,.18,0s0,0,0,0a.14.14,0,0,0-.06-.19h0Z" transform="translate(0.03)"/><path d="M58.91,68.63a.16.16,0,0,0-.15.17h0a.15.15,0,0,0,.15.15h0a.16.16,0,0,0,.15-.17h0a.17.17,0,0,0-.16-.15Z" transform="translate(0.03)"/><path d="M58.86,47.08a.23.23,0,1,0,0-.46h0a.24.24,0,0,0-.23.22A.24.24,0,0,0,58.86,47.08Z" transform="translate(0.03)"/><path d="M67,64.55a.55.55,0,0,0-.35-.12.52.52,0,0,0-.4.18.53.53,0,1,0,.81.69h0A.54.54,0,0,0,67,64.55Z" transform="translate(0.03)"/><path d="M56.57,46.41A.56.56,0,0,0,56,47a.57.57,0,0,0,.59.54l.12,0h0a.57.57,0,0,0,.47-.63.56.56,0,0,0-.56-.48Z" transform="translate(0.03)"/><path d="M47.5,59.74a.34.34,0,0,0-.27.4h0a.35.35,0,0,0,.7,0,.29.29,0,0,0,0-.09.34.34,0,0,0-.34-.28Z" transform="translate(0.03)"/><path d="M48.23,53.38a.12.12,0,0,0-.1.07.11.11,0,1,0,.2.08.12.12,0,0,0-.06-.14Z" transform="translate(0.03)"/><path d="M67.72,63.54a.47.47,0,0,0,.53-.78l-.08,0a.41.41,0,0,0-.22,0,.44.44,0,0,0-.41.24A.47.47,0,0,0,67.72,63.54Z" transform="translate(0.03)"/><path d="M69.24,56.52a.16.16,0,0,0-.16.18h0a.18.18,0,0,0,.19.15.16.16,0,0,0,.16-.18h0a.17.17,0,0,0-.17-.16Z" transform="translate(0.03)"/><path d="M52.43,67.35a.22.22,0,0,0,.29-.11.22.22,0,0,0-.06-.26.34.34,0,0,0-.3.1A.23.23,0,0,0,52.43,67.35Z" transform="translate(0.03)"/><path d="M49.24,64a.16.16,0,0,0,0,.22.15.15,0,0,0,.21,0,.17.17,0,0,0,0-.22A.17.17,0,0,0,49.24,64Z" transform="translate(0.03)"/><path d="M52.51,48.37h-.07a.12.12,0,0,0,0,.17h0a.13.13,0,0,0,.18,0h0a.14.14,0,0,0,0-.19A.14.14,0,0,0,52.51,48.37Z" transform="translate(0.03)"/><path d="M56.73,68.46h0a.23.23,0,0,0-.23.23.23.23,0,0,0,.23.23.23.23,0,0,0,0-.46Z" transform="translate(0.03)"/><path d="M47,57.85h0a.38.38,0,0,0,.38.4h0a.4.4,0,0,0,.4-.4h0a.4.4,0,0,0-.4-.4h0a.38.38,0,0,0-.39.39Z" transform="translate(0.03)"/><path d="M60.49,47a.61.61,0,0,0,.43.73.59.59,0,0,0,.72-.42h0a.58.58,0,0,0-.4-.72h-.17A.61.61,0,0,0,60.49,47Z" transform="translate(0.03)"/><path d="M51,66a.27.27,0,0,0,0-.39.26.26,0,0,0-.16-.07.25.25,0,0,0-.2.09.27.27,0,0,0,0,.38A.26.26,0,0,0,51,66Z" transform="translate(0.03)"/><path d="M56.44,70.33h-.08a.53.53,0,0,0-.08,1.06h0a.54.54,0,1,0,.16-1.06Z" transform="translate(0.03)"/><path d="M44.82,57.84h0a.33.33,0,0,0,.65,0h0a.33.33,0,0,0-.65,0Z" transform="translate(0.03)"/><path d="M46.42,63.52a.5.5,0,0,0,.26-.66h0a.51.51,0,0,0-.46-.3.61.61,0,0,0-.19,0,.5.5,0,0,0,.39.92Z" transform="translate(0.03)"/><path d="M45.45,55h0a.2.2,0,0,0-.19.16h0a.19.19,0,0,0,.37.07.18.18,0,0,0-.14-.22Z" transform="translate(0.03)"/><path d="M64.24,69.81a.16.16,0,0,0,.09-.22v0a.16.16,0,0,0-.16-.1h-.08a.19.19,0,0,0-.08.25.17.17,0,0,0,.22.1Z" transform="translate(0.03)"/><path d="M56.27,44.46a.33.33,0,0,0,.11.65.33.33,0,0,0,.27-.37.32.32,0,0,0-.33-.28Z" transform="translate(0.03)"/><path d="M66.68,68.56a.43.43,0,0,0,.07-.59h0a.42.42,0,0,0-.33-.16.41.41,0,0,0-.26.09.42.42,0,0,0,.52.66Z" transform="translate(0.03)"/><path d="M46,60.4a.57.57,0,0,0-.55-.45h-.11a.56.56,0,0,0-.44.66h0a.56.56,0,1,0,1.1-.19Z" transform="translate(0.03)"/><path d="M61.35,45a.29.29,0,0,0,.2.34.28.28,0,0,0,.34-.2.27.27,0,0,0-.19-.33h-.08A.29.29,0,0,0,61.35,45Z" transform="translate(0.03)"/><path d="M51.31,69.15a.16.16,0,0,0,.2,0,.15.15,0,0,0,0-.2h-.08a.13.13,0,0,0-.07.24Z" transform="translate(0.03)"/><path d="M51.35,46.29a.32.32,0,0,0-.19.05.35.35,0,0,0-.06.49.33.33,0,0,0,.55-.37h0A.34.34,0,0,0,51.35,46.29Z" transform="translate(0.03)"/><path d="M47.38,65.48a.18.18,0,0,0,.25-.25.19.19,0,0,0-.14-.07h-.1a.18.18,0,0,0-.09.24A.3.3,0,0,0,47.38,65.48Z" transform="translate(0.03)"/><path d="M53.74,45.33h0a.12.12,0,0,0-.07.15h0a.11.11,0,0,0,.14.07h0a.12.12,0,0,0,.08-.15h0A.14.14,0,0,0,53.74,45.33Z" transform="translate(0.03)"/><path d="M49.16,67.52a.16.16,0,0,0,.23,0h0a.18.18,0,0,0,0-.24.24.24,0,0,0-.12,0,.17.17,0,0,0-.12,0,.16.16,0,0,0,0,.23h0Z" transform="translate(0.03)"/><path d="M49.24,48.13a.17.17,0,0,0-.1,0,.14.14,0,1,0,.2.2.13.13,0,0,0,0-.18l0,0A.17.17,0,0,0,49.24,48.13Z" transform="translate(0.03)"/><path d="M46.21,52.33a.29.29,0,0,0-.27.18h0a.3.3,0,0,0,.54.26.28.28,0,0,0-.11-.39l0,0A.2.2,0,0,0,46.21,52.33Z" transform="translate(0.03)"/><path d="M54.12,70.33a.37.37,0,0,0-.22-.47.24.24,0,0,0-.12,0,.36.36,0,0,0-.36.36.37.37,0,0,0,.37.36.35.35,0,0,0,.33-.23Z" transform="translate(0.03)"/><path d="M47.7,50a.36.36,0,0,0-.2-.06.33.33,0,0,0-.27.15.34.34,0,1,0,.5.46.18.18,0,0,0,.05-.07A.35.35,0,0,0,47.7,50Z" transform="translate(0.03)"/><path d="M59,44.84a.19.19,0,0,0,.14-.23.18.18,0,0,0-.14-.14h0a.19.19,0,0,0-.14.23A.18.18,0,0,0,59,44.84Z" transform="translate(0.03)"/><path d="M71.08,61.8a.18.18,0,0,0-.11-.21h0a.17.17,0,0,0-.16.12.14.14,0,0,0,.09.19h0A.17.17,0,0,0,71.08,61.8Z" transform="translate(0.03)"/><path d="M71.43,56.31a.16.16,0,0,0-.14.17.16.16,0,0,0,.17.15h0a.16.16,0,0,0,.14-.18h0a.16.16,0,0,0-.16-.14Z" transform="translate(0.03)"/><path d="M71.48,58.82h0a.32.32,0,0,0-.26.37.32.32,0,0,0,.26.26.31.31,0,0,0,.34-.28h0a.31.31,0,0,0-.27-.35Z" transform="translate(0.03)"/><path d="M68.59,49a.37.37,0,0,0-.27-.13.32.32,0,0,0-.23.09.36.36,0,1,0,.51,0h0Z" transform="translate(0.03)"/><path d="M64.28,45.66h-.16a.35.35,0,0,0-.31.2.33.33,0,0,0,.14.46h0a.33.33,0,0,0,.46-.14v0a.35.35,0,0,0-.11-.48Z" transform="translate(0.03)"/><path d="M66.47,47.27a.11.11,0,0,0-.08,0,.14.14,0,0,0-.12.06.13.13,0,0,0,0,.2h0a.13.13,0,0,0,.2,0h0a.15.15,0,0,0,.06-.2A.17.17,0,0,0,66.47,47.27Z" transform="translate(0.03)"/><path d="M61.72,70.82a.26.26,0,0,0,.18-.3.25.25,0,0,0-.24-.18H61.6a.25.25,0,0,0-.14.33A.26.26,0,0,0,61.72,70.82Z" transform="translate(0.03)"/><path d="M59,71.16a.18.18,0,0,0,.2-.16h0a.18.18,0,0,0-.17-.17h0a.19.19,0,0,0-.17.19A.17.17,0,0,0,59,71.16Z" transform="translate(0.03)"/><path d="M70.85,53.67a.2.2,0,0,0-.13.24A.19.19,0,0,0,71,54l0,0a.2.2,0,0,0,.13-.24.19.19,0,0,0-.18-.14Z" transform="translate(0.03)"/><path d="M70.2,51.21a.39.39,0,0,0-.35-.21.36.36,0,0,0-.2.06.4.4,0,1,0,.4.7.4.4,0,0,0,.15-.54Z" transform="translate(0.03)"/><path d="M69.68,64.54a.4.4,0,0,0,.54-.12.39.39,0,0,0-.13-.54l0,0h-.19a.39.39,0,0,0-.39.39.4.4,0,0,0,.2.34Z" transform="translate(0.03)"/><path d="M68.41,66.32h-.13a.09.09,0,0,0,0,.13h0a.08.08,0,0,0,.11,0h0a.09.09,0,0,0,0-.13Z" transform="translate(0.03)"/><path d="M53.48,72.9a.66.66,0,0,0-.39-.85h-.23a.66.66,0,0,0-.23,1.28h0a.66.66,0,0,0,.84-.4Z" transform="translate(0.03)"/><path d="M52.83,42.81h-.06a.18.18,0,0,0-.11.22.19.19,0,0,0,.23.11.21.21,0,0,0,.1-.23A.18.18,0,0,0,52.83,42.81Z" transform="translate(0.03)"/><path d="M68.18,45.07A.24.24,0,0,0,68,45a.27.27,0,0,0-.23.12.29.29,0,0,0,0,.41h0a.31.31,0,0,0,.42,0,.3.3,0,0,0,.06-.41Z" transform="translate(0.03)"/><path d="M74.07,56h0a.21.21,0,0,0-.26.17.22.22,0,0,0,.17.26h.09a.22.22,0,0,0,.19-.24A.21.21,0,0,0,74.07,56Z" transform="translate(0.03)"/><path d="M59.18,74.13a.5.5,0,0,0,.4-.6.51.51,0,0,0-.4-.4h0a.51.51,0,0,0-.48.54h0A.51.51,0,0,0,59.18,74.13Z" transform="translate(0.03)"/><path d="M73.84,62.67a.43.43,0,0,0-.28-.54h-.13a.41.41,0,0,0-.4.29.44.44,0,0,0,.2.58.43.43,0,0,0,.57-.2.56.56,0,0,0,0-.12Z" transform="translate(0.03)"/><path d="M47.14,46.63a.39.39,0,1,0,.57-.54.4.4,0,0,0-.29-.12.43.43,0,0,0-.27.1A.4.4,0,0,0,47.14,46.63Z" transform="translate(0.03)"/><path d="M74.07,59.29a.11.11,0,0,0-.11.1.12.12,0,0,0,.1.13.12.12,0,0,0,.12-.1.11.11,0,0,0-.09-.13h0Z" transform="translate(0.03)"/><path d="M65.29,43.1a.53.53,0,0,0-.46.28.51.51,0,0,0,.22.69h0a.53.53,0,0,0,.69-.23.52.52,0,0,0-.24-.69A.42.42,0,0,0,65.29,43.1Z" transform="translate(0.03)"/><path d="M73.39,53a.11.11,0,0,0-.09.13v0a.12.12,0,0,0,.15.07.12.12,0,0,0,.08-.15.11.11,0,0,0-.08-.08Z" transform="translate(0.03)"/><path d="M43.78,51.36a.22.22,0,0,0-.2.14.22.22,0,0,0,.12.29.23.23,0,0,0,.29-.13.22.22,0,0,0-.12-.28Z" transform="translate(0.03)"/><path d="M50,44.06a.28.28,0,0,0-.18,0,.34.34,0,0,0-.1.47.32.32,0,0,0,.45.11h0a.34.34,0,0,0,.11-.47h0A.32.32,0,0,0,50,44.06Z" transform="translate(0.03)"/><path d="M70.32,47.22a.29.29,0,0,0-.18.07.28.28,0,0,0,0,.4.29.29,0,0,0,.4,0,.27.27,0,0,0,0-.39A.34.34,0,0,0,70.32,47.22Z" transform="translate(0.03)"/><path d="M55.88,41.89a.29.29,0,0,0-.26.3.06.06,0,0,1,0,0,.28.28,0,0,0,.32.25h0a.31.31,0,0,0,.25-.34.3.3,0,0,0-.3-.26Z" transform="translate(0.03)"/><path d="M61.89,42.4a.41.41,0,0,0,.29.5h0a.42.42,0,0,0,.5-.3.41.41,0,0,0-.29-.5h-.11A.4.4,0,0,0,61.89,42.4Z" transform="translate(0.03)"/><path d="M68.23,70.58a.33.33,0,0,0,.07-.45h0a.33.33,0,0,0-.45-.07h0a.33.33,0,0,0,.34.56Z" transform="translate(0.03)"/><path d="M62.44,73.59a.47.47,0,0,0-.12-.93H62.2a.48.48,0,0,0,.21.94Z" transform="translate(0.03)"/><path d="M71.87,66a.62.62,0,0,0,.61-1.08.68.68,0,0,0-.31-.08.62.62,0,0,0-.3,1.16Z" transform="translate(0.03)"/><path d="M59.11,42.3a.28.28,0,1,0,0-.56h0a.28.28,0,0,0,0,.56Z" transform="translate(0.03)"/><path d="M70.44,68a.14.14,0,0,0-.09,0,.17.17,0,0,0-.12,0,.16.16,0,0,0,0,.22.17.17,0,0,0,.21,0,.15.15,0,0,0,.1-.17A.14.14,0,0,0,70.44,68Z" transform="translate(0.03)"/><path d="M47.73,69.57a.38.38,0,0,0,0-.54h0a.39.39,0,0,0-.27-.11.36.36,0,0,0-.28.12.39.39,0,0,0,0,.55.38.38,0,0,0,.54,0Z" transform="translate(0.03)"/><path d="M44,64.53a.49.49,0,0,0,.25-.63.5.5,0,0,0-.44-.29h-.19a.49.49,0,0,0-.22.64.49.49,0,0,0,.6.24Z" transform="translate(0.03)"/><path d="M49.66,71.78a.6.6,0,0,0,.86,0,.61.61,0,0,0,0-.86.74.74,0,0,0-.22-.14.64.64,0,0,0-.33-.1.65.65,0,0,0-.52.29A.61.61,0,0,0,49.66,71.78Z" transform="translate(0.03)"/><path d="M45.47,48.88a.17.17,0,0,0,0-.23h-.09a.16.16,0,0,0,0,.32.17.17,0,0,0,.13-.07Z" transform="translate(0.03)"/><path d="M42,57.84h0a.53.53,0,0,0,.53.52.52.52,0,0,0,.52-.52h0a.52.52,0,0,0-.52-.52h0a.52.52,0,0,0-.53.51Z" transform="translate(0.03)"/><path d="M56,73.21h0a.26.26,0,0,0,0,.51.25.25,0,0,0,.3-.19v0a.26.26,0,0,0-.21-.3Z" transform="translate(0.03)"/><path d="M45.21,66.68a.25.25,0,1,0,.36.06.26.26,0,0,0-.21-.11A.27.27,0,0,0,45.21,66.68Z" transform="translate(0.03)"/><path d="M65.46,72.32a.33.33,0,0,0,.15-.44h0a.32.32,0,0,0-.29-.18h-.15a.34.34,0,0,0-.15.45.33.33,0,0,0,.43.18Z" transform="translate(0.03)"/><path d="M43.16,61a.33.33,0,0,0-.32-.26h-.07a.32.32,0,0,0-.26.39h0a.32.32,0,0,0,.38.25h0A.33.33,0,0,0,43.16,61Z" transform="translate(0.03)"/><path d="M42.87,54.45h0a.19.19,0,0,0-.19.16.17.17,0,0,0,.12.22h0a.2.2,0,0,0,.23-.15.21.21,0,0,0-.16-.24Z" transform="translate(0.03)"/><path d="M72.27,50.07a.14.14,0,0,0-.11-.07h-.07a.14.14,0,0,0,0,.17.13.13,0,0,0,.18,0h0A.14.14,0,0,0,72.27,50.07Z" transform="translate(0.03)"/><path d="M43,69.08a.47.47,0,0,0-.26-.85.44.44,0,0,0-.27.09.48.48,0,0,0-.12.65h0A.47.47,0,0,0,43,69.08Z" transform="translate(0.03)"/><path d="M41.17,66a.71.71,0,0,0,.36-.92.7.7,0,0,0-.64-.42h-.28a.71.71,0,0,0-.36.92.69.69,0,0,0,.89.43Z" transform="translate(0.03)"/><path d="M77.17,55.41a.49.49,0,0,0-.43.52.48.48,0,0,0,.52.42.46.46,0,0,0,.41-.52.46.46,0,0,0-.46-.42Z" transform="translate(0.03)"/><path d="M43.08,47.21a.41.41,0,1,0-.57.11.41.41,0,0,0,.57-.11Z" transform="translate(0.03)"/><path d="M40.88,50.07a.26.26,0,0,0-.25.16.27.27,0,0,0,.2.33.26.26,0,0,0,.29-.12A.26.26,0,0,0,41,50.1h0Z" transform="translate(0.03)"/><path d="M38.88,57.84h0a.46.46,0,0,0,.4.53.47.47,0,0,0,.53-.39.33.33,0,0,0,0-.14h0a.48.48,0,0,0-.53-.4A.47.47,0,0,0,38.88,57.84Z" transform="translate(0.03)"/><path d="M74.74,67.38a.41.41,0,0,0,.54-.24.42.42,0,0,0-.14-.49.46.46,0,0,0-.2-.05.42.42,0,0,0-.36.21A.43.43,0,0,0,74.74,67.38Z" transform="translate(0.03)"/><path d="M73.41,69.4a1,1,0,0,0-1.69.72,1,1,0,0,0,.37.82,1,1,0,0,0,1.32-1.54Z" transform="translate(0.03)"/><path d="M59.33,77a.17.17,0,0,0,.17-.17v0a.18.18,0,0,0-.18-.17h0a.19.19,0,0,0-.17.19A.18.18,0,0,0,59.33,77Z" transform="translate(0.03)"/><path d="M47.94,74.55a.7.7,0,0,0,1-.2l0,0a.72.72,0,0,0-.22-1h0a.73.73,0,0,0-1,.23.7.7,0,0,0,.22,1Z" transform="translate(0.03)"/><path d="M75.36,48.35a.5.5,0,1,0-.41.74.46.46,0,0,0,.22-.06.49.49,0,0,0,.2-.66Z" transform="translate(0.03)"/><path d="M51.88,75.68a.12.12,0,0,0-.07-.15h-.05a.12.12,0,0,0-.11.08.14.14,0,0,0,.07.16.12.12,0,0,0,.15-.07Z" transform="translate(0.03)"/><path d="M48.28,41.46h-.14a.25.25,0,1,0,.27.43h0a.24.24,0,0,0,.08-.34h0A.24.24,0,0,0,48.28,41.46Z" transform="translate(0.03)"/><path d="M45.24,43.74a.31.31,0,0,0-.22.09.34.34,0,0,0,0,.47.33.33,0,0,0,.48-.46h0A.3.3,0,0,0,45.24,43.74Z" transform="translate(0.03)"/><path d="M62.86,39.38a.22.22,0,0,0,.16.27.23.23,0,0,0,.27-.16.22.22,0,0,0-.16-.27h-.05A.22.22,0,0,0,62.86,39.38Z" transform="translate(0.03)"/><path d="M72.72,45.28h-.1a.17.17,0,0,0,0,.23.16.16,0,0,0,.23,0,.16.16,0,0,0,0-.22A.15.15,0,0,0,72.72,45.28Z" transform="translate(0.03)"/><path d="M70.17,73.08a.33.33,0,0,0,.07-.45h0a.33.33,0,0,0-.45-.07h0a.33.33,0,0,0,.34.56Z" transform="translate(0.03)"/><path d="M45.73,72a.62.62,0,0,0,0-.89.66.66,0,0,0-.44-.17.59.59,0,0,0-.45.2.63.63,0,0,0,0,.88h0A.63.63,0,0,0,45.73,72Z" transform="translate(0.03)"/><path d="M63.3,76.9a.72.72,0,0,0,.51-.88.7.7,0,0,0-.69-.54.54.54,0,0,0-.18,0,.71.71,0,0,0-.52.87h0a.73.73,0,0,0,.88.54Z" transform="translate(0.03)"/><path d="M55.51,76.44h0a.17.17,0,0,0-.16.13.16.16,0,1,0,.19-.13h0Z" transform="translate(0.03)"/><path d="M39.78,53.76h-.05a.24.24,0,0,0-.24.19.26.26,0,0,0,.13.33.26.26,0,0,0,.33-.13.36.36,0,0,0,0-.1A.26.26,0,0,0,39.78,53.76Z" transform="translate(0.03)"/><path d="M76.27,51.56a.58.58,0,0,0-.38.73h0a.59.59,0,0,0,1.17-.16.6.6,0,0,0-.06-.19.59.59,0,0,0-.56-.4Z" transform="translate(0.03)"/><path d="M66.88,75.18A.34.34,0,0,0,67,74.7a.36.36,0,0,0-.33-.21h-.16a.36.36,0,0,0,.33.65Z" transform="translate(0.03)"/><path d="M40.23,61.58a.5.5,0,0,0-.49-.4h-.11a.52.52,0,0,0-.4.6.51.51,0,0,0,1-.2h0Z" transform="translate(0.03)"/><path d="M77.16,63.7a.74.74,0,0,0-.49-.92h-.22a.73.73,0,0,0-.7.52.74.74,0,0,0,1.37.56.65.65,0,0,0,0-.13Z" transform="translate(0.03)"/><path d="M59.24,39.66a.8.8,0,0,0,.08-1.6h0a.79.79,0,0,0-.8.76A.8.8,0,0,0,59.24,39.66Z" transform="translate(0.03)"/><path d="M66.68,40.1a.69.69,0,0,0-.35,1.28.66.66,0,0,0,.91-.24.3.3,0,0,0,0-.08.67.67,0,0,0-.31-.89A.59.59,0,0,0,66.68,40.1Z" transform="translate(0.03)"/><path d="M77.27,59.15h0a.57.57,0,0,0-.57.52h0a.57.57,0,1,0,.62-.52h0Z" transform="translate(0.03)"/><path d="M70.06,42.64h-.12a.21.21,0,0,0-.16.08.19.19,0,0,0,0,.28.21.21,0,0,0,.29,0,.2.2,0,0,0,.09-.27A.28.28,0,0,0,70.06,42.64Z" transform="translate(0.03)"/><path d="M55.41,38.87a.19.19,0,1,0,0,.38h.06a.19.19,0,0,0,.14-.23.18.18,0,0,0-.14-.14Z" transform="translate(0.03)"/><path d="M51.73,39.74h-.1a.27.27,0,0,0-.16.35.27.27,0,1,0,.26-.35Z" transform="translate(0.03)"/><path d="M81,55.24a.26.26,0,0,0-.23.28.25.25,0,0,0,.28.22h0a.24.24,0,0,0,.22-.26h0a.25.25,0,0,0-.25-.23Z" transform="translate(0.03)"/><path d="M64.29,80.7a.86.86,0,0,0-.22-1.7.74.74,0,0,0-.21,0,.84.84,0,0,0-.61,1,.85.85,0,0,0,1,.71Z" transform="translate(0.03)"/><path d="M42.93,74.61a.36.36,0,0,0,0-.51h0a.39.39,0,0,0-.25-.1.34.34,0,0,0-.26.12.36.36,0,1,0,.53.49Z" transform="translate(0.03)"/><path d="M72.49,76.07a.32.32,0,0,0,.06-.44.34.34,0,0,0-.25-.13.32.32,0,0,0-.19.07.3.3,0,0,0-.06.43h0A.32.32,0,0,0,72.49,76.07Z" transform="translate(0.03)"/><path d="M59.59,81.89a1.32,1.32,0,1,0-.07-2.64h-.07a1.32,1.32,0,0,0,.14,2.64Z" transform="translate(0.03)"/><path d="M68.67,78.82A.61.61,0,0,0,69,78h0a.63.63,0,0,0-.56-.35.52.52,0,0,0-.27.07.61.61,0,0,0-.29.81v0A.62.62,0,0,0,68.67,78.82Z" transform="translate(0.03)"/><path d="M45.75,38.82a.63.63,0,0,0,.88,0,.64.64,0,0,0,.12-.61.65.65,0,0,0-.52-.29.56.56,0,0,0-.33.1.61.61,0,0,0-.15.85Z" transform="translate(0.03)"/><path d="M78.07,69.2a.38.38,0,0,0,.53-.14h0a.4.4,0,0,0-.14-.55h0a.61.61,0,0,0-.19,0,.41.41,0,0,0-.36.21A.41.41,0,0,0,78.07,69.2Z" transform="translate(0.03)"/><path d="M78.24,46.1a.61.61,0,0,0-.32.08.65.65,0,0,0-.24.89.64.64,0,0,0,.88.24.65.65,0,0,0,.25-.88h0A.64.64,0,0,0,78.24,46.1Z" transform="translate(0.03)"/><path d="M50.78,79.33a.35.35,0,0,0-.21-.45h-.12a.33.33,0,0,0-.39.28.32.32,0,0,0,.27.39.36.36,0,0,0,.45-.21Z" transform="translate(0.03)"/><path d="M55,80.07h0a.28.28,0,0,0-.28.24.29.29,0,0,0,.23.32.28.28,0,0,0,.32-.23h0a.28.28,0,0,0-.24-.32Z" transform="translate(0.03)"/><path d="M59.45,35.53a.46.46,0,0,0,0-.92h0a.46.46,0,0,0,0,.92Z" transform="translate(0.03)"/><path d="M76,72.18a.59.59,0,0,0-.4-.15.61.61,0,0,0-.62.6.61.61,0,0,0,1.08.4.6.6,0,0,0-.06-.85Z" transform="translate(0.03)"/><path d="M81,60.48a.38.38,0,0,0,.42-.34h0a.38.38,0,0,0-.34-.42h0a.37.37,0,0,0-.39.34h0A.38.38,0,0,0,81,60.48Z" transform="translate(0.03)"/><path d="M80.2,64.65a.12.12,0,0,0-.08-.15h0a.1.1,0,0,0-.12.09.14.14,0,0,0,.07.16h0A.12.12,0,0,0,80.2,64.65Z" transform="translate(0.03)"/><path d="M54.83,35.05a.25.25,0,0,0-.21.28.24.24,0,0,0,.28.22.25.25,0,0,0,0-.5Z" transform="translate(0.03)"/><path d="M72.43,39.57a.27.27,0,0,0-.17-.06.3.3,0,0,0-.23.11.28.28,0,0,0,0,.4.29.29,0,0,0,.41,0,.27.27,0,0,0,0-.4.27.27,0,0,0-.08-.07Z" transform="translate(0.03)"/><path d="M79.78,50.08a.94.94,0,0,0-.57,1.2A.94.94,0,0,0,81,50.7h0a1,1,0,0,0-.9-.66A.85.85,0,0,0,79.78,50.08Z" transform="translate(0.03)"/><path d="M42.63,41a.34.34,0,0,0-.24.58.34.34,0,0,0,.48,0h0a.34.34,0,0,0,0-.48A.3.3,0,0,0,42.63,41Z" transform="translate(0.03)"/><path d="M39.4,70.51a.45.45,0,0,0-.12.63.46.46,0,0,0,.63.11.45.45,0,0,0,.12-.62h0a.45.45,0,0,0-.37-.19A.44.44,0,0,0,39.4,70.51Z" transform="translate(0.03)"/><path d="M68.35,36.81a.55.55,0,0,0-.25,1h0a.55.55,0,0,0,.73-.24h0a.55.55,0,0,0-.25-.74h0A.49.49,0,0,0,68.35,36.81Z" transform="translate(0.03)"/><path d="M37.44,66.94a.1.1,0,0,0,.06-.13h0a.11.11,0,0,0-.09-.06h0a.1.1,0,0,0-.06.13h0S37.39,67,37.44,66.94Z" transform="translate(0.03)"/><path d="M75.6,42.42a.52.52,0,0,0-.35.14.53.53,0,0,0-.07.75h0a.54.54,0,0,0,.76.07h0a.56.56,0,0,0,.14-.77.54.54,0,0,0-.5-.23Z" transform="translate(0.03)"/><path d="M46.22,77.32A.18.18,0,0,0,46.4,77a.14.14,0,0,0-.09,0,.16.16,0,0,0-.16.18.17.17,0,0,0,.07.13Z" transform="translate(0.03)"/><path d="M37.38,48.48a.37.37,0,0,0-.33.22.36.36,0,0,0,.19.47.36.36,0,1,0,.29-.66Z" transform="translate(0.03)"/><path d="M40,45.09a.49.49,0,0,0-.12-.68.5.5,0,0,0-.27-.08.48.48,0,0,0-.28.87A.47.47,0,0,0,40,45.09Z" transform="translate(0.03)"/><path d="M36.15,52.53H36a.76.76,0,1,0,.14,0Z" transform="translate(0.03)"/><path d="M35.94,62.09a.37.37,0,1,0,.15.73h0a.38.38,0,0,0,.28-.44.37.37,0,0,0-.35-.29Z" transform="translate(0.03)"/><path d="M64.13,35.36H64a.4.4,0,0,0-.39.31.41.41,0,0,0,.29.5.42.42,0,0,0,.5-.3A.41.41,0,0,0,64.13,35.36Z" transform="translate(0.03)"/><path d="M50.4,35.8h-.22a.66.66,0,0,0-.39.84.65.65,0,0,0,.83.39h0a.65.65,0,0,0-.23-1.27Z" transform="translate(0.03)"/><path d="M35.55,58.35a.49.49,0,0,0,.49-.49h0a.5.5,0,0,0-1,0h0a.49.49,0,0,0,.49.49Z" transform="translate(0.03)"/><path d="M31.62,51.93h-.08a.38.38,0,0,0-.38.31.37.37,0,1,0,.46-.31Z" transform="translate(0.03)"/><path d="M30,57.85h0a1,1,0,0,0,2.08,0h0a1,1,0,0,0-2.08,0Z" transform="translate(0.03)"/><path d="M39.64,77.78a.16.16,0,0,0,0-.22.17.17,0,0,0-.1,0,.21.21,0,0,0-.11,0,.15.15,0,0,0,0,.22.15.15,0,0,0,.21,0h0Z" transform="translate(0.03)"/><path d="M32.32,63.23a.78.78,0,0,0-.76-.63H31.4a.78.78,0,1,0,.92.61Z" transform="translate(0.03)"/><path d="M35.44,73.82a.6.6,0,1,0,1-.67A.61.61,0,0,0,36,72.9a.61.61,0,0,0-.52.92Z" transform="translate(0.03)"/><path d="M64.93,32.25a.94.94,0,0,0,.47-1.81,1,1,0,0,0-.24,0,.94.94,0,0,0-.23,1.84Z" transform="translate(0.03)"/><path d="M33.35,69a.32.32,0,0,0,.17-.42h0a.32.32,0,0,0-.3-.19.33.33,0,0,0-.33.31.32.32,0,0,0,.32.33A.32.32,0,0,0,33.35,69Z" transform="translate(0.03)"/><path d="M85.53,60.12a.44.44,0,0,0-.37.5.45.45,0,0,0,.37.37.44.44,0,1,0,.18-.86h-.18Z" transform="translate(0.03)"/><path d="M84.69,66.06a.26.26,0,0,0-.16-.34h-.1a.28.28,0,0,0-.27.19.29.29,0,0,0,.19.35h0a.25.25,0,0,0,.33-.16S84.69,66.07,84.69,66.06Z" transform="translate(0.03)"/><path d="M83.36,43.9a1.32,1.32,0,0,0-1.14-.67,1.27,1.27,0,0,0-.63.17,1.3,1.3,0,1,0,1.77.5Z" transform="translate(0.03)"/><path d="M33.2,46.78a.26.26,0,0,0-.25.16.27.27,0,1,0,.49.21h0a.26.26,0,0,0-.13-.34h0A.18.18,0,0,0,33.2,46.78Z" transform="translate(0.03)"/><path d="M43.86,33.77a.84.84,0,0,0-.46.13h0a.86.86,0,0,0,.77,1.54l.14-.09a.86.86,0,0,0-.45-1.58Z" transform="translate(0.03)"/><path d="M85.53,54.47h-.06a.55.55,0,0,0-.5.59v0a.56.56,0,0,0,.61.51h0a.57.57,0,0,0,.5-.62A.55.55,0,0,0,85.53,54.47Z" transform="translate(0.03)"/><path d="M48.82,31.62a.61.61,0,0,0-.19,0,.56.56,0,0,0-.33.72h0a.55.55,0,0,0,.71.32h0a.55.55,0,0,0,.31-.73.57.57,0,0,0-.5-.35Z" transform="translate(0.03)"/><path d="M59.67,31a.47.47,0,0,0,.49-.43h0a.47.47,0,0,0-.44-.49h0a.47.47,0,0,0,0,.93Z" transform="translate(0.03)"/><path d="M75.23,79.6a.22.22,0,0,0,0-.32.21.21,0,0,0-.18-.09h-.14a.22.22,0,0,0-.08.31.23.23,0,0,0,.31.09l0,0Z" transform="translate(0.03)"/><path d="M81.84,71.81a.86.86,0,0,0,.83-1.5.88.88,0,0,0-.42-.11.87.87,0,0,0-.85.87A.85.85,0,0,0,81.84,71.81Z" transform="translate(0.03)"/><path d="M70.89,83.33a1.09,1.09,0,0,0-.48-2.07,1.17,1.17,0,0,0-.49.11h0a1.1,1.1,0,0,0-.49,1.47,1.08,1.08,0,0,0,1.44.5Z" transform="translate(0.03)"/><path d="M79.58,75a.74.74,0,0,0-1,.08.75.75,0,0,0,0,1.06.75.75,0,0,0,1.06,0,.75.75,0,0,0,0-1.06Z" transform="translate(0.03)"/><path d="M54.3,84.45h-.07a.41.41,0,0,0-.4.35.41.41,0,1,0,.47-.34Z" transform="translate(0.03)"/><path d="M75.25,35.93a.37.37,0,0,0-.2-.07.33.33,0,0,0-.26.13.32.32,0,0,0,.06.46.32.32,0,0,0,.45-.06h0A.33.33,0,0,0,75.25,35.93Z" transform="translate(0.03)"/><path d="M65.32,84.66a.38.38,0,0,0,.28-.47.38.38,0,0,0-.38-.29h-.09a.39.39,0,0,0-.34.43.38.38,0,0,0,.43.34l.1,0Z" transform="translate(0.03)"/><path d="M79.06,39.13a.91.91,0,0,0-.57.21.87.87,0,0,0,1.12,1.32h0a.87.87,0,0,0,.09-1.22A.85.85,0,0,0,79.06,39.13Z" transform="translate(0.03)"/><path d="M49.36,83.66a.5.5,0,0,0-.28-.65h0a.54.54,0,0,0-.18,0,.52.52,0,0,0-.5.54.52.52,0,0,0,.32.46.51.51,0,0,0,.65-.31Z" transform="translate(0.03)"/><path d="M54,29.93a.88.88,0,1,0,1,.74h0a.89.89,0,0,0-.88-.74Z" transform="translate(0.03)"/><path d="M70.35,32.17a1.1,1.1,0,0,0-1,.61,1.1,1.1,0,1,0,2,1,1.1,1.1,0,0,0-.49-1.47h0A1,1,0,0,0,70.35,32.17Z" transform="translate(0.03)"/><path d="M59.78,85.52a.4.4,0,1,0,0-.8h0a.41.41,0,0,0-.38.42A.39.39,0,0,0,59.78,85.52Z" transform="translate(0.03)"/><path d="M39.49,37a1,1,0,0,0-.74,1.71,1,1,0,0,0,1.47-1.4A1,1,0,0,0,39.49,37Z" transform="translate(0.03)"/><path d="M84.31,49.28a.34.34,0,1,0,.2.66h0a.35.35,0,0,0,.23-.43.35.35,0,0,0-.33-.24Z" transform="translate(0.03)"/><path d="M43.71,81.37a.38.38,0,0,0,.51-.12.37.37,0,0,0-.1-.5h0a.33.33,0,0,0-.19-.06.37.37,0,0,0-.31.18A.37.37,0,0,0,43.71,81.37Z" transform="translate(0.03)"/><path d="M36.08,41.93a.31.31,0,0,0-.2-.07.35.35,0,0,0-.28.15.34.34,0,0,0,.08.47h0a.35.35,0,0,0,.48-.08.34.34,0,0,0-.08-.47Z" transform="translate(0.03)"/><path d="M53.2,24.43a1,1,0,1,0,.18,0Z" transform="translate(0.03)"/><path d="M36.22,82.07a.61.61,0,0,0-.08-.86.55.55,0,0,0-.37-.14.61.61,0,0,0-.42,1.06h0A.63.63,0,0,0,36.22,82.07Z" transform="translate(0.03)"/><path d="M26.36,50.38h-.17a.86.86,0,1,0,.17,0Z" transform="translate(0.03)"/><path d="M25.93,63.17a1.34,1.34,0,1,0,.27,0A1.22,1.22,0,0,0,25.93,63.17Z" transform="translate(0.03)"/><path d="M89.45,47.42a.57.57,0,0,0-.37.72h0a.57.57,0,1,0,.55-.75A.57.57,0,0,0,89.45,47.42Z" transform="translate(0.03)"/><path d="M46.92,26.45h-.21a.65.65,0,0,0-.53.74A.64.64,0,0,0,47.45,27,.65.65,0,0,0,46.92,26.45Z" transform="translate(0.03)"/><path d="M41,29.58a.4.4,0,1,0,.22.74h0a.4.4,0,0,0,.12-.55A.39.39,0,0,0,41,29.58Z" transform="translate(0.03)"/><path d="M86.24,75.15a1.65,1.65,0,0,0,1.6-2.88,1.64,1.64,0,0,0-2.24.64A1.65,1.65,0,0,0,86.24,75.15Z" transform="translate(0.03)"/><path d="M91,60.47a.63.63,0,0,0-.62.57.62.62,0,0,0,.54.69h0a.63.63,0,0,0,.13-1.25H91Z" transform="translate(0.03)"/><path d="M90.55,67.89a.94.94,0,0,0-.62-1.18h-.28a1,1,0,0,0-1,.94,1,1,0,0,0,1.86.29Z" transform="translate(0.03)"/><path d="M91,53.21h-.12a1.26,1.26,0,0,0,.06,2.52l.19,0a1.26,1.26,0,0,0-.13-2.5Z" transform="translate(0.03)"/><path d="M34.62,35.1a1.52,1.52,0,1,0,.1-2.15l0,0A1.51,1.51,0,0,0,34.62,35.1Z" transform="translate(0.03)"/><path d="M73.12,87.86a.67.67,0,0,0,.3-.9.65.65,0,0,0-.6-.37.67.67,0,0,0-.69.65.73.73,0,0,0,.09.35A.67.67,0,0,0,73.12,87.86Z" transform="translate(0.03)"/><path d="M79.15,83.19a.9.9,0,1,0-.7,1.45.92.92,0,0,0,.55-.19h0a.89.89,0,0,0,.16-1.25Z" transform="translate(0.03)"/><path d="M53.6,89.06h-.19a1.19,1.19,0,1,0,.19,0Z" transform="translate(0.03)"/><path d="M28.17,44.29a.6.6,0,0,0-.55.36.58.58,0,0,0,.31.77.59.59,0,1,0,.46-1.08A.54.54,0,0,0,28.17,44.29Z" transform="translate(0.03)"/><path d="M24.66,57.84h0a.86.86,0,0,0,1.72,0h0a.86.86,0,0,0-1.72,0Z" transform="translate(0.03)"/><path d="M83.58,78.77a.46.46,0,0,0-.33-.13.51.51,0,1,0,.39.85.51.51,0,0,0-.06-.72Z" transform="translate(0.03)"/><path d="M28.66,71.88a1.15,1.15,0,0,0,.61-1.51,1.13,1.13,0,0,0-1.07-.7,1,1,0,0,0-.46.1,1.15,1.15,0,0,0,.92,2.11Z" transform="translate(0.03)"/><path d="M31.77,39.35a.47.47,0,0,0-.11-.64.5.5,0,0,0-.26-.08.45.45,0,0,0-.47.43.44.44,0,0,0,.21.4A.46.46,0,0,0,31.77,39.35Z" transform="translate(0.03)"/><path d="M87,41.65h-.1a.22.22,0,0,0-.09.3h0a.23.23,0,0,0,.3.08.21.21,0,0,0,.08-.29h0A.21.21,0,0,0,87,41.65Z" transform="translate(0.03)"/><path d="M60.09,91.5A.92.92,0,0,0,60,89.67h0a.92.92,0,0,0-.87,1v0A.92.92,0,0,0,60.09,91.5Z" transform="translate(0.03)"/><path d="M66.76,90.18a.62.62,0,0,0,.45-.75h0a.63.63,0,0,0-.61-.48h-.16a.65.65,0,0,0-.45.77.63.63,0,0,0,.75.47Z" transform="translate(0.03)"/><path d="M66.4,26.55a.52.52,0,0,0,.67-.3.51.51,0,0,0-.3-.67l-.11,0h-.13a.51.51,0,0,0-.5.38A.52.52,0,0,0,66.4,26.55Z" transform="translate(0.03)"/><path d="M60,25.56a.5.5,0,0,0,.4-.6.51.51,0,0,0-.4-.4h0a.5.5,0,0,0-.4.6A.51.51,0,0,0,60,25.56Z" transform="translate(0.03)"/><path d="M31.13,76.18a.55.55,0,1,0,.31-.09A.56.56,0,0,0,31.13,76.18Z" transform="translate(0.03)"/><path d="M40.68,86.25a.65.65,0,0,0,.69-1.1.63.63,0,0,0-.88.2h0A.65.65,0,0,0,40.68,86.25Z" transform="translate(0.03)"/><path d="M78.54,31.66a.27.27,0,0,0-.15-.05.26.26,0,0,0-.2.1.24.24,0,0,0,0,.35.24.24,0,0,0,.34,0h0a.27.27,0,0,0,0-.38Z" transform="translate(0.03)"/><path d="M83.2,35.74A.69.69,0,1,0,83.65,37a.71.71,0,0,0,.08-1A.67.67,0,0,0,83.2,35.74Z" transform="translate(0.03)"/><path d="M46.83,89.05a.46.46,0,0,0,.59-.27.46.46,0,0,0-.26-.6H47a.48.48,0,0,0-.44.3A.47.47,0,0,0,46.83,89.05Z" transform="translate(0.03)"/><path d="M73,28a.41.41,0,0,0-.19-.05.47.47,0,0,0-.41.25.46.46,0,0,0,.21.6.45.45,0,0,0,.6-.2A.44.44,0,0,0,73,28Z" transform="translate(0.03)"/><path d="M77.05,92.49a1.49,1.49,0,0,0-1.33-.82,1.44,1.44,0,0,0-.65.15,1.48,1.48,0,1,0,2,.67Z" transform="translate(0.03)"/><path d="M75.08,22.18a.63.63,0,0,0,.23.86.62.62,0,0,0,.86-.23.2.2,0,0,0,0-.08.63.63,0,0,0-.29-.84.67.67,0,0,0-.28-.06A.63.63,0,0,0,75.08,22.18Z" transform="translate(0.03)"/><path d="M67.78,21.2a1.55,1.55,0,0,0,.82-3h0a1.74,1.74,0,0,0-.39-.05,1.56,1.56,0,0,0-.39,3.06Z" transform="translate(0.03)"/><path d="M25,81.13a1.32,1.32,0,1,0,1.08-2.08,1.29,1.29,0,0,0-.76.24A1.32,1.32,0,0,0,25,81.13Z" transform="translate(0.03)"/><path d="M31.53,86.66a.37.37,0,0,0,0-.52.4.4,0,0,0-.26-.1.38.38,0,0,0-.27.64A.38.38,0,0,0,31.53,86.66Z" transform="translate(0.03)"/><path d="M96.17,68.75a1.13,1.13,0,0,0-.26,0,.77.77,0,1,0,.29,0Z" transform="translate(0.03)"/><path d="M60.27,19a.52.52,0,0,0,.54-.48.51.51,0,0,0-.49-.53h0a.51.51,0,0,0-.51.48A.5.5,0,0,0,60.27,19Z" transform="translate(0.03)"/><path d="M88.18,30.57a1.59,1.59,0,1,0,1.24.55h0A1.55,1.55,0,0,0,88.18,30.57Z" transform="translate(0.03)"/><path d="M19.84,49.52h-.08a.38.38,0,0,0-.38.4.38.38,0,0,0,.3.37.39.39,0,0,0,.46-.3A.4.4,0,0,0,19.84,49.52Z" transform="translate(0.03)"/><path d="M88.85,82.7a.93.93,0,0,0-.62-.23.94.94,0,0,0-.72.33,1.12,1.12,0,1,0,1.8.29A1,1,0,0,0,88.85,82.7Z" transform="translate(0.03)"/><path d="M21.68,42.1a.5.5,0,1,0,.66-.26.67.67,0,0,0-.2,0A.49.49,0,0,0,21.68,42.1Z" transform="translate(0.03)"/><path d="M20.37,65.71a.61.61,0,0,0-.59-.49h-.13a.59.59,0,0,0-.47.7v0a.61.61,0,0,0,1.19-.23Z" transform="translate(0.03)"/><path d="M18.32,57.87h0a.64.64,0,0,0,1.28,0h0a.64.64,0,0,0-1.28,0Z" transform="translate(0.03)"/><path d="M52.26,18.34a.58.58,0,0,0-.48.65.56.56,0,0,0,.64.48.57.57,0,0,0-.07-1.13Z" transform="translate(0.03)"/><path d="M43.11,21.47a1.62,1.62,0,1,0,1-2.09,1.63,1.63,0,0,0-1,2.09Z" transform="translate(0.03)"/><path d="M22.84,73.14a.73.73,0,0,0-1-.38.73.73,0,0,0,.58,1.34h0a.73.73,0,0,0,.38-1Z" transform="translate(0.03)"/><path d="M95.89,44.66a1.34,1.34,0,1,0,1.28.94A1.34,1.34,0,0,0,95.89,44.66Z" transform="translate(0.03)"/><path d="M52.49,96.38h-.06a.37.37,0,0,0,0,.74.37.37,0,0,0,.42-.31.38.38,0,0,0-.33-.43Z" transform="translate(0.03)"/><path d="M44.89,94.31a.62.62,0,0,0-.63.32.49.49,0,1,0,.65-.31Z" transform="translate(0.03)"/><path d="M97.49,52.39h-.14a1.38,1.38,0,1,0,.14,0Z" transform="translate(0.03)"/><path d="M97.5,61.4a.37.37,0,0,0-.36.32.35.35,0,0,0,.31.39h0a.35.35,0,0,0,.39-.31h0a.36.36,0,0,0-.31-.39Z" transform="translate(0.03)"/><path d="M37.49,23.25a1.17,1.17,0,0,0-1.17,1.17,1.19,1.19,0,0,0,.17.61,1.17,1.17,0,1,0,1-1.78Z" transform="translate(0.03)"/><path d="M31.2,28.73a.57.57,0,0,0-.39.16.56.56,0,0,0,0,.79.56.56,0,0,0,.79,0h0a.56.56,0,0,0,0-.79A.57.57,0,0,0,31.2,28.73Z" transform="translate(0.03)"/><path d="M26.53,34.59a.87.87,0,0,0-.52-.16.9.9,0,0,0-.75.39A.92.92,0,0,0,25.68,36a.93.93,0,0,0,1.08-.22A.91.91,0,0,0,26.53,34.59Z" transform="translate(0.03)"/><path d="M92.74,38.36h-.16a.32.32,0,0,0-.12.44h0a.31.31,0,0,0,.42.13h0a.32.32,0,0,0,.13-.43A.31.31,0,0,0,92.74,38.36Z" transform="translate(0.03)"/><path d="M83,25.91a.91.91,0,0,0-.59-.21,1.08,1.08,0,1,0,.45,2,1.07,1.07,0,0,0,.32-.41A1,1,0,0,0,83,25.91Z" transform="translate(0.03)"/><path d="M37.31,91.68a.48.48,0,0,0,.67-.1.47.47,0,0,0-.1-.67l-.06,0a.5.5,0,0,0-.26-.08.48.48,0,0,0-.26.88Z" transform="translate(0.03)"/><path d="M60.42,97.73a.6.6,0,0,0,.52-.67.62.62,0,0,0-.52-.52h0a.58.58,0,0,0-.56.6v0A.59.59,0,0,0,60.42,97.73Z" transform="translate(0.03)"/><path d="M68.42,96.56a.65.65,0,0,0-.16-1.29h-.17a.67.67,0,0,0,.3,1.3Z" transform="translate(0.03)"/><path d="M92.18,78a1.23,1.23,0,0,0,1.2-2.15h0a1.15,1.15,0,0,0-.6-.16,1.25,1.25,0,0,0-1.08.64A1.22,1.22,0,0,0,92.16,78Z" transform="translate(0.03)"/><path d="M82.76,89.29a.49.49,0,0,0,.06-.68.46.46,0,0,0-.35-.17.51.51,0,0,0-.29.1.48.48,0,0,0-.09.67.47.47,0,0,0,.66.09Z" transform="translate(0.03)"/><path d="M12.07,66.6H11.9a.83.83,0,1,0,.33,1.63.82.82,0,0,0,.66-1s0,0,0,0A.83.83,0,0,0,12.07,66.6Z" transform="translate(0.03)"/><path d="M12.23,47.41H12a.93.93,0,1,0,.19,0Z" transform="translate(0.03)"/><path d="M10.4,57.86h0a.69.69,0,0,0,1.38,0h0a.69.69,0,0,0-1.38,0Z" transform="translate(0.03)"/><path d="M20.28,31.36a.89.89,0,0,0-.21-1.25.92.92,0,0,0-.52-.17.87.87,0,0,0-.74.39h0A.9.9,0,0,0,19,31.58a.89.89,0,0,0,1.25-.17Z" transform="translate(0.03)"/><path d="M18.76,83.68a1.48,1.48,0,1,0,2,.43l0-.07A1.46,1.46,0,0,0,18.76,83.68Z" transform="translate(0.03)"/><path d="M15.86,76.15a1,1,0,0,0-.92-.6.88.88,0,0,0-.39.08,1,1,0,1,0,1.31.53Z" transform="translate(0.03)"/><path d="M26.33,92.58a.67.67,0,0,0,0-1,.68.68,0,0,0-.43-.17.63.63,0,0,0-.48.21.65.65,0,0,0,0,.93.67.67,0,0,0,.95,0Z" transform="translate(0.03)"/><path d="M86.39,19.8a1,1,0,0,0,.1,1.41l.08.06a1.05,1.05,0,0,0,1.29-1.66h0a1,1,0,0,0-1.47.19Z" transform="translate(0.03)"/><path d="M100,35.57A.82.82,0,0,0,99.62,34a.82.82,0,0,0-.72,1.2h0A.81.81,0,0,0,100,35.57Z" transform="translate(0.03)"/><path d="M94.15,26.2a.82.82,0,0,0-.54.2.83.83,0,0,0-.09,1.16.82.82,0,0,0,1.16.08h0a.82.82,0,0,0-.53-1.44Z" transform="translate(0.03)"/><path d="M103.92,70.33A1.65,1.65,0,1,0,105,72.4,1.65,1.65,0,0,0,103.92,70.33Z" transform="translate(0.03)"/><path d="M103.4,42.51a1,1,0,0,0-.34.06,1.1,1.1,0,1,0,.34-.06Z" transform="translate(0.03)"/><path d="M105.24,63.5a.94.94,0,1,0,.19-1.86h-.1a1,1,0,0,0-1,.86h0A1,1,0,0,0,105.24,63.5Z" transform="translate(0.03)"/><path d="M105.33,51.78h-.13a1.18,1.18,0,1,0,.13,0Z" transform="translate(0.03)"/><path d="M51,10.22a.62.62,0,1,0,.09-.05Z" transform="translate(0.03)"/><path d="M31.58,18.82a2.06,2.06,0,0,0,3.51-2.16,2.08,2.08,0,0,0-1.77-1,2,2,0,0,0-1.74,3.14Z" transform="translate(0.03)"/><path d="M13.83,38.74a1.16,1.16,0,0,0,2.14.92h0a1.16,1.16,0,0,0-.6-1.53h0a1,1,0,0,0-.46-.1A1.16,1.16,0,0,0,13.83,38.74Z" transform="translate(0.03)"/><path d="M41.43,13.69a.5.5,0,0,0,.62.31h0a.51.51,0,0,0,.35-.63A.5.5,0,0,0,41.9,13h-.18a.49.49,0,0,0-.33.61A.36.36,0,0,0,41.43,13.69Z" transform="translate(0.03)"/><path d="M69.84,13.23a1.21,1.21,0,0,0,1.46-.86,1.19,1.19,0,0,0-.86-1.45h0a.76.76,0,0,0-.3,0,1.17,1.17,0,0,0-.3,2.31Z" transform="translate(0.03)"/><path d="M78.34,17a1.74,1.74,0,1,0-.8-2.33,1.75,1.75,0,0,0,.8,2.33Z" transform="translate(0.03)"/><path d="M60.65,11.46a.82.82,0,0,0,.08-1.64h0a.82.82,0,1,0,0,1.64Z" transform="translate(0.03)"/><path d="M101.13,81.51a1.67,1.67,0,0,0-.6-2.28,1.73,1.73,0,0,0-.86-.23,1.67,1.67,0,0,0-.81,3.14,1.65,1.65,0,0,0,2.26-.62Z" transform="translate(0.03)"/><path d="M26.9,24.77a1.64,1.64,0,0,0,0-2.31A1.71,1.71,0,0,0,25.77,22a1.63,1.63,0,1,0,1.13,2.81h0Z" transform="translate(0.03)"/><path d="M95.4,87.16a1.85,1.85,0,0,0-1.19-.43,1.81,1.81,0,1,0,1.19.43Z" transform="translate(0.03)"/><path d="M42.15,101.76a.38.38,0,0,0-.15,0,.43.43,0,0,0-.15.84.43.43,0,0,0,.56-.26.45.45,0,0,0-.22-.57Z" transform="translate(0.03)"/><path d="M34.1,96.86a1.32,1.32,0,0,0-.69-.2,1.31,1.31,0,1,0,.69.2Z" transform="translate(0.03)"/><path d="M80.38,99.63a1.32,1.32,0,0,0-1.18-.73,1.31,1.31,0,1,0,1.18.73Z" transform="translate(0.03)"/><path d="M70.69,105.26A1.76,1.76,0,0,0,72,103.15v-.05a1.78,1.78,0,0,0-1.72-1.33,1.61,1.61,0,0,0-.44.06,1.77,1.77,0,0,0,.89,3.43Z" transform="translate(0.03)"/><path d="M60.86,106.15A1.16,1.16,0,0,0,62,105v0a1.15,1.15,0,0,0-1.15-1.09h-.06a1.15,1.15,0,0,0,.12,2.3h0Z" transform="translate(0.03)"/><path d="M51.32,104.12h-.07a.41.41,0,0,0-.39.45.42.42,0,0,0,.33.38.42.42,0,0,0,.13-.83Z" transform="translate(0.03)"/><path d="M87.3,94.48a.68.68,0,0,0-.41.14.67.67,0,1,0,.41-.14Z" transform="translate(0.03)"/><path d="M39,110.21a.76.76,0,0,0-.3,0,.87.87,0,1,0,1,.71A.88.88,0,0,0,39,110.21Z" transform="translate(0.03)"/><path d="M50,3.42A1.65,1.65,0,1,0,49.72.13h-.25A1.67,1.67,0,0,0,50,3.42Z" transform="translate(0.03)"/><path d="M38.82,5.2a.58.58,0,0,0-.21-1.12h-.2a.58.58,0,0,0,.41,1.09Z" transform="translate(0.03)"/><path d="M28.77,10.44h0A.85.85,0,0,0,29,9.27a.86.86,0,0,0-.72-.4.79.79,0,0,0-.45.13h0a.86.86,0,0,0-.33,1.16.85.85,0,0,0,1.16.32Z" transform="translate(0.03)"/><path d="M19.35,97.71A1.27,1.27,0,0,0,18.06,99a1.3,1.3,0,0,0,.41,1,1.28,1.28,0,0,0,1.89-1.72.8.8,0,0,0-.13-.13A1.26,1.26,0,0,0,19.35,97.71Z" transform="translate(0.03)"/><path d="M1.64,59a1.1,1.1,0,0,0,1.1-1.1h0a1.1,1.1,0,1,0-2.2,0h0A1.1,1.1,0,0,0,1.64,59Z" transform="translate(0.03)"/><path d="M7.72,79.66a1.58,1.58,0,0,0-1.45-1,1.51,1.51,0,0,0-.63.13,1.58,1.58,0,1,0,2.08.82Z" transform="translate(0.03)"/><path d="M50,112.56h-.2a1.33,1.33,0,0,0-.2,2.65,1.35,1.35,0,0,0,1.52-1.12,1.33,1.33,0,0,0-1.1-1.53Z" transform="translate(0.03)"/><path d="M5.81,36.42a1,1,0,1,0,.81-1.9,1.1,1.1,0,0,0-.4-.08,1,1,0,0,0-1,.62,1,1,0,0,0,.5,1.32Z" transform="translate(0.03)"/><path d="M28.88,105.27a.79.79,0,0,0-.45-.13.86.86,0,1,0,.86.86A.88.88,0,0,0,28.88,105.27Z" transform="translate(0.03)"/><path d="M3.84,69.14a1,1,0,0,0-1-.83H2.62a1,1,0,1,0,1.24.81Z" transform="translate(0.03)"/><path d="M11.86,88.49a1.78,1.78,0,0,0-1,.33,1.8,1.8,0,1,0,1-.33Z" transform="translate(0.03)"/><path d="M20.34,17.88a1.57,1.57,0,0,0,.06-2.22h0a1.59,1.59,0,0,0-1.14-.49,1.57,1.57,0,1,0,1.08,2.71Z" transform="translate(0.03)"/><path d="M11.27,26.19A.91.91,0,1,0,11,24.93a.92.92,0,0,0,.27,1.26Z" transform="translate(0.03)"/><path d="M2.23,49.14a2.79,2.79,0,0,0,1.38-5.41l-.26,0a2.71,2.71,0,0,0-.57,0,2.78,2.78,0,0,0-.55,5.51Z" transform="translate(0.03)"/><path d="M114.84,62.42h-.11a1.07,1.07,0,0,0,0,2.14,1.07,1.07,0,0,0,.1-2.14Z" transform="translate(0.03)"/><path d="M112.87,73.38a1.52,1.52,0,0,0-.42-.06,1.4,1.4,0,1,0,0,2.8,1.4,1.4,0,0,0,.39-2.74Z" transform="translate(0.03)"/><path d="M108.27,84.68a.69.69,0,0,0-.92.26.68.68,0,1,0,.93-.26Z" transform="translate(0.03)"/><path d="M114.61,50.94a1,1,0,1,0,.11,0Z" transform="translate(0.03)"/><path d="M83.37,107.75a.86.86,0,0,0-.41.1h0a.94.94,0,0,0,.83,1.69h0a.94.94,0,0,0-.42-1.79Z" transform="translate(0.03)"/><path d="M93.09,102.11a.47.47,0,0,0-.3.1.49.49,0,1,0,.7.11v0A.51.51,0,0,0,93.09,102.11Z" transform="translate(0.03)"/><path d="M111,41.23a1.45,1.45,0,1,0,1.38-1.89,1.55,1.55,0,0,0-.43.07,1.45,1.45,0,0,0-1,1.82Z" transform="translate(0.03)"/><path d="M102.89,92.94a2.29,2.29,0,0,0-1.5-.55,2.25,2.25,0,0,0-1.74.81,2.3,2.3,0,1,0,3.24-.26Z" transform="translate(0.03)"/><path d="M72.11,4.45a1.58,1.58,0,1,0,.79-3.06h0a2.67,2.67,0,0,0-.4,0,1.58,1.58,0,0,0-.39,3.11Z" transform="translate(0.03)"/><path d="M82.79,7.86a1.07,1.07,0,0,0,1.43-.49,1.08,1.08,0,0,0-.49-1.44h0a1.12,1.12,0,0,0-.47-.11,1.08,1.08,0,0,0-.47,2Z" transform="translate(0.03)"/><path d="M61.29,113.78h0a.66.66,0,0,0,.07,1.31.66.66,0,0,0,0-1.31Z" transform="translate(0.03)"/><path d="M61.11,2.41a1.21,1.21,0,0,0,1.18-1.24A1.22,1.22,0,0,0,61.23,0h-.06A1.21,1.21,0,0,0,60,1.14,1.22,1.22,0,0,0,61.11,2.41Z" transform="translate(0.03)"/><path d="M72.63,112h-.18a.7.7,0,1,0,.35,1.36h0a.69.69,0,0,0,.51-.85.7.7,0,0,0-.68-.53Z" transform="translate(0.03)"/><path d="M101.62,21.22a.46.46,0,0,0,0-.66h0a.48.48,0,0,0-.36-.16.51.51,0,0,0-.31.11.49.49,0,0,0,0,.68.48.48,0,0,0,.57,0Z" transform="translate(0.03)"/><path d="M107.21,30.64a.75.75,0,0,0,1.31-.74.77.77,0,0,0-.68-.4.85.85,0,0,0-.38.09.78.78,0,0,0-.29,1.05Z" transform="translate(0.03)"/><path d="M92.09,14.13h0a1.48,1.48,0,1,0,2-2.18.9.9,0,0,0-.19-.15h0a1.55,1.55,0,0,0-.91-.3,1.47,1.47,0,0,0-.9,2.64Z" transform="translate(0.03)"/></g></svg>