<svg id="b010a981-c0bd-4d9d-ad35-e1722a3c0eab" data-name="Layer 1" xmlns="http://www.w3.org/2000/svg" viewBox="0 0 117.81 117.41"><title>04u</title><g id="eecb18f5-bd80-4248-93ff-ae7d1ab4b0ac" data-name="shapes"><path d="M73.67,35.25a.26.26,0,1,0,0,.52.27.27,0,0,0,.22-.12.26.26,0,0,0-.08-.36h0A.23.23,0,0,0,73.67,35.25Zm9.45,11.21a.36.36,0,0,0,.65-.33.38.38,0,0,0-.33-.2h-.16a.36.36,0,0,0-.19.47ZM84.66,49a.68.68,0,0,0-.41.86.67.67,0,1,0,1.27-.44.68.68,0,0,0-.64-.45A.83.83,0,0,0,84.66,49Zm.87,4.25a.32.32,0,0,0,.39.26h0a.32.32,0,0,0,.26-.37v0a.33.33,0,0,0-.32-.27h-.07a.34.34,0,0,0-.28.38s0,0,0,.06ZM70.68,83.63a.2.2,0,0,0-.18-.11h-.09a.2.2,0,0,0-.1.26.2.2,0,1,0,.37-.17ZM67.23,31.69a.81.81,0,0,0-.22,0,.76.76,0,0,0-.73.54.75.75,0,0,0,.49.94h0a.76.76,0,0,0,1-.42.19.19,0,0,1,0-.07.76.76,0,0,0-.47-1Zm3.14,2.2a.16.16,0,0,0,.21,0s0,0,0,0a.16.16,0,0,0-.07-.22h-.08a.16.16,0,0,0-.15.09A.16.16,0,0,0,70.37,33.89ZM85,67.37h-.13a.4.4,0,1,0,.46.33A.4.4,0,0,0,85,67.37ZM37.24,41.52a.14.14,0,0,0-.12.06.15.15,0,0,0,0,.21.14.14,0,0,0,.2,0h0a.18.18,0,0,0,0-.22ZM55.66,31.38a.42.42,0,0,0,.46.38h0a.43.43,0,0,0,.39-.47h0a.43.43,0,0,0-.43-.39h0a.43.43,0,0,0-.43.43ZM85.9,64h0a.17.17,0,0,0-.18.15.18.18,0,0,0,.13.22h0a.19.19,0,0,0,.22-.15h0a.19.19,0,0,0-.16-.22Zm.15-7.12a.29.29,0,0,0,.31.27h0a.29.29,0,1,0,0-.58h0a.29.29,0,0,0-.32.26v.06Zm.57,3.68a.27.27,0,0,0-.25-.29h0a.27.27,0,1,0,0,.54.27.27,0,0,0,.27-.25ZM63.4,31.73a.16.16,0,0,0,.19-.12h0a.18.18,0,0,0-.14-.19h0a.18.18,0,0,0-.17.14A.16.16,0,0,0,63.4,31.73Zm-20.84,49a.25.25,0,0,0-.18.4.22.22,0,0,0,.31-.31h0A.2.2,0,0,0,42.56,80.73ZM33.3,48.44a.49.49,0,1,0,.39-.9.47.47,0,0,0-.63.24v0A.49.49,0,0,0,33.3,48.44ZM45.62,34.25h-.16a.31.31,0,0,0-.13.43h0a.33.33,0,0,0,.44.14.34.34,0,0,0,.14-.45A.36.36,0,0,0,45.62,34.25Zm6.93-1.94a.38.38,0,0,0,.33-.41.39.39,0,0,0-.42-.33h-.09a.38.38,0,0,0,.18.73ZM83.31,71.45a.36.36,0,0,0,.47-.15.36.36,0,0,0-.16-.47.38.38,0,0,0-.15,0,.34.34,0,0,0-.31.19h0A.35.35,0,0,0,83.31,71.45ZM49,84.55a.09.09,0,0,0,.12,0,.09.09,0,0,0-.06-.11h0a.06.06,0,0,0-.06.11Zm3.85,1.08a.32.32,0,0,0-.22-.38h-.08a.31.31,0,1,0,.3.39ZM48.49,33.21a.49.49,0,1,0,.91-.36.48.48,0,0,0-.45-.31h-.18a.49.49,0,0,0-.31.61Zm7.69,52.67h0a.28.28,0,0,0-.22.33.28.28,0,0,0,.22.22.29.29,0,0,0,.3-.25.27.27,0,0,0-.24-.3Zm7.35.25a.23.23,0,0,0,0-.46h0a.24.24,0,0,0-.2.27A.25.25,0,0,0,63.53,86.13ZM59.85,87a.74.74,0,0,0,0-1.48h0a.73.73,0,0,0-.71.75h0A.74.74,0,0,0,59.85,87Zm6.74-1.82a.5.5,0,0,0,.62.33.51.51,0,0,0,.43-.58.52.52,0,0,0-.58-.42h-.14a.49.49,0,0,0-.36.59l0,.09ZM81.68,43.31a.22.22,0,0,0,.06-.3.21.21,0,0,0-.18-.09.24.24,0,0,0-.12,0,.22.22,0,0,0-.06.3.22.22,0,0,0,.3.05Zm-2.29-2.93a.2.2,0,0,0,0-.25.21.21,0,0,0-.13-.05h-.12a.18.18,0,0,0,0,.25.17.17,0,0,0,.23.06Zm-34,43a.53.53,0,0,0,.72-.16.52.52,0,0,0-.17-.72l0,0a.54.54,0,0,0-.25-.06.52.52,0,0,0-.25,1Zm14.35-52h0a.17.17,0,0,0,.16-.15.15.15,0,0,0-.14-.16h0a.17.17,0,0,0-.16.15.16.16,0,0,0,.17.15ZM42.29,36.74a.29.29,0,1,0,.45-.35.27.27,0,0,0-.22-.11h-.17a.29.29,0,0,0-.11.4ZM31.94,66.18a.37.37,0,0,0,.45.26h0a.37.37,0,0,0,.28-.44v0a.39.39,0,0,0-.37-.27h-.1a.37.37,0,0,0-.27.45ZM33.71,70a.49.49,0,0,0,.25-.63.5.5,0,0,0-.44-.29.61.61,0,0,0-.19,0,.48.48,0,0,0-.26.63h0a.49.49,0,0,0,.63.29Zm-2.14-7.82h0a.3.3,0,0,0,.08.6.3.3,0,0,0,0-.6ZM76.45,37.54a.25.25,0,0,0,0,.34h0a.24.24,0,0,0,.34,0h0a.25.25,0,0,0,0-.34h0a.23.23,0,0,0-.16-.06A.22.22,0,0,0,76.45,37.54ZM39.59,78.74a.22.22,0,0,0,.31,0h0a.24.24,0,0,0,0-.33.29.29,0,0,0-.16-.07.24.24,0,0,0-.17.39ZM31,58.76h0a.31.31,0,0,0,.36.25.3.3,0,0,0,.25-.25h0a.31.31,0,0,0-.36-.25A.3.3,0,0,0,31,58.76Zm.6-4.1h-.05a.41.41,0,0,0-.41.41.42.42,0,0,0,.42.41.41.41,0,0,0,.4-.35.42.42,0,0,0-.35-.47ZM77,80.18a.55.55,0,0,0,.06-.78h0a.55.55,0,0,0-.42-.19.56.56,0,0,0-.35.13.55.55,0,0,0-.07.77A.56.56,0,0,0,77,80.18ZM35.34,44.39h-.18a.36.36,0,0,0-.26.44A.42.42,0,0,0,35,45a.37.37,0,0,0,.5-.11h0A.36.36,0,0,0,35.34,44.39ZM37.7,75.51a.55.55,0,0,0-.43-.2.5.5,0,0,0-.33.12.53.53,0,0,0-.1.74v0a.55.55,0,0,0,.76.09.54.54,0,0,0,.1-.76ZM40,38.64a.44.44,0,0,0-.31-.13.42.42,0,0,0-.3.12.45.45,0,0,0,0,.61.43.43,0,0,0,.61,0h0A.44.44,0,0,0,40,38.64ZM79.64,76.83a.5.5,0,0,0-.33-.12.5.5,0,1,0,.33.86.5.5,0,0,0,0-.7h0ZM32.49,51.52a.21.21,0,0,0-.15-.25h-.05a.21.21,0,0,0-.2.15.2.2,0,0,0,.13.25h0a.21.21,0,0,0,.26-.15ZM81.4,74.59a.35.35,0,0,0,.47-.09.33.33,0,0,0-.08-.46h0a.33.33,0,0,0-.19-.06.34.34,0,0,0-.19.62ZM35.56,73.46a.74.74,0,0,0-.38-1.38.7.7,0,0,0-.37.11.75.75,0,0,0-.18,1A.74.74,0,0,0,35.56,73.46ZM73.72,81.6a.34.34,0,0,0,0,.68.34.34,0,0,0,.35-.33.32.32,0,0,0,0-.19A.33.33,0,0,0,73.72,81.6Zm-11.26-2h-.05a.3.3,0,0,0-.25.34h0a.3.3,0,0,0,.6-.1h0a.31.31,0,0,0-.3-.29ZM62.3,38.3a.67.67,0,0,0,.76-.54.66.66,0,0,0-.54-.76h-.11a.65.65,0,0,0-.64.54.66.66,0,0,0,.53.72ZM78.24,68.51a.28.28,0,0,0-.11-.37h0a.24.24,0,0,0-.12,0,.28.28,0,0,0-.13.52h0A.28.28,0,0,0,78.24,68.51ZM54.36,37.79a.48.48,0,0,0-.47-.38h-.12a.5.5,0,0,0-.37.59.49.49,0,0,0,.59.36.48.48,0,0,0,.37-.58ZM75,72.8a.4.4,0,0,0-.26-.1.41.41,0,0,0-.29.13.4.4,0,0,0,0,.56A.4.4,0,0,0,75,72.8Zm-23.67,6a.19.19,0,0,0-.1-.23h-.07a.17.17,0,0,0-.16.12.16.16,0,0,0,.09.22h0a.18.18,0,0,0,.25-.07s0,0,0,0Zm25.29-7.9a.13.13,0,0,0,0-.18h-.07a.11.11,0,0,0-.1.06.12.12,0,0,0,0,.17h0a.13.13,0,0,0,.18,0,0,0,0,0,0,0,0Zm-1.8-26.46a.11.11,0,0,0,0-.15h-.15a.1.1,0,0,0,0,.14h0A.11.11,0,0,0,74.82,44.44Zm-20.89,35a.12.12,0,0,0-.14.11.15.15,0,0,0,.28.1,0,0,0,0,0,0,0,.16.16,0,0,0-.12-.18Zm-2.78-41H51a.32.32,0,1,0,.41.18.32.32,0,0,0-.3-.19Zm-9.1,6.81a.25.25,0,0,0-.18.4.22.22,0,0,0,.27-.35.18.18,0,0,0-.09-.06ZM72.71,74.81a.3.3,0,0,0-.18.06.28.28,0,0,0,0,.4.28.28,0,0,0,.43-.36.32.32,0,0,0-.22-.1Zm3.46-28a.42.42,0,0,0,.57.13l0,0a.43.43,0,0,0,.11-.59.44.44,0,0,0-.35-.18.4.4,0,0,0-.24.07.41.41,0,0,0-.15.56l0,.06ZM70.6,77.08a.35.35,0,0,0,.11-.48.37.37,0,0,0-.3-.16.3.3,0,0,0-.18.06.34.34,0,0,0-.11.47A.35.35,0,0,0,70.6,77.08ZM67.91,78h-.07a.16.16,0,0,0-.09.22.17.17,0,0,0,.23.09.17.17,0,0,0,.08-.22h0A.18.18,0,0,0,67.91,78ZM80.23,60.33a.18.18,0,0,0,0-.36h0a.18.18,0,0,0-.17.17.18.18,0,0,0,.17.19Zm.2-3.06a.19.19,0,0,0-.19-.17h0a.18.18,0,0,0-.18.18v0a.19.19,0,0,0,.2.18h0a.19.19,0,0,0,.17-.21ZM70.2,41a.31.31,0,0,0,.44-.09h0a.31.31,0,0,0-.09-.44h0a.25.25,0,0,0-.17,0,.33.33,0,0,0-.32.34.31.31,0,0,0,.14.26Zm9.7,13.73a.24.24,0,0,0,.18-.27.22.22,0,0,0-.22-.19h0a.21.21,0,1,0,0,.41Zm-7-12.57a.34.34,0,1,0-.48.48.33.33,0,0,0,.47,0h0a.35.35,0,0,0,0-.49l0,0ZM79.21,52a.35.35,0,0,0,.23-.42v0a.37.37,0,0,0-.33-.24H79a.38.38,0,0,0-.22.45.35.35,0,0,0,.44.23Zm-1.7-2.72a.52.52,0,0,0,.71.23.53.53,0,0,0,.24-.71.54.54,0,0,0-.72-.23h0a.53.53,0,0,0-.24.71v0Zm-9.36-9.87A.3.3,0,0,0,68,39h-.15a.31.31,0,0,0-.28.18.32.32,0,0,0,.15.41.33.33,0,0,0,.41-.16ZM79,66.05a.32.32,0,0,0,.41-.2h0a.32.32,0,0,0-.19-.4h0a.17.17,0,0,0-.1,0,.33.33,0,0,0-.31.21A.32.32,0,0,0,79,66.05ZM59.55,37.74a.42.42,0,0,0,.35-.48.42.42,0,0,0-.35-.35h0a.42.42,0,0,0-.42.41.4.4,0,0,0,.38.42ZM79.81,63.29a.3.3,0,0,0,.36-.23h0a.3.3,0,0,0-.22-.36h-.08a.31.31,0,0,0-.31.25A.32.32,0,0,0,79.81,63.29ZM65.32,79.46a.27.27,0,0,0,.19-.32v0a.26.26,0,0,0-.26-.19h-.08a.28.28,0,0,0-.18.34.27.27,0,0,0,.33.19Zm-.23-40.85h0a.36.36,0,0,0,.45-.22h0a.36.36,0,0,0-.24-.45h-.1a.35.35,0,0,0-.34.25A.35.35,0,0,0,65.09,38.61ZM59.61,80a.12.12,0,0,0-.13.11v0a.13.13,0,0,0,.13.13h0a.15.15,0,0,0,.1-.17.14.14,0,0,0-.1-.1ZM39.19,50.24h-.06a.16.16,0,1,0,.14.22h0a.14.14,0,0,0,0-.2Zm-1.56,5.29a.36.36,0,0,0-.06.72h0a.38.38,0,0,0,.41-.31.38.38,0,0,0-.32-.41Zm-.19,3.38a.14.14,0,0,0,.14-.14h0a.14.14,0,0,0-.28,0h0A.14.14,0,0,0,37.44,58.91Zm6.7-15.39a.24.24,0,0,0,0-.35.25.25,0,0,0-.18-.08.29.29,0,0,0-.18.07.25.25,0,0,0,0,.35h0a.24.24,0,0,0,.34,0Zm.11,30.9a.36.36,0,0,0,0-.51h0a.39.39,0,0,0-.25-.1.36.36,0,0,0-.25.11.34.34,0,0,0,0,.48l0,0a.35.35,0,0,0,.49,0ZM46,41.27a.28.28,0,0,0-.06.39.27.27,0,0,0,.38.06h0a.28.28,0,0,0,.06-.39.27.27,0,0,0-.22-.11A.3.3,0,0,0,46,41.27Zm.37,34.5a.3.3,0,0,0-.42.06.31.31,0,0,0,.06.43.3.3,0,1,0,.35-.49h0ZM56.71,37.48a.06.06,0,0,0,0-.06v-.05h0a.06.06,0,1,0-.05.11A0,0,0,0,0,56.71,37.48ZM37.65,61.76a.11.11,0,0,0,.1-.12h0a.13.13,0,0,0-.12-.11h0a.11.11,0,0,0-.11.13h0A.12.12,0,0,0,37.65,61.76ZM56.24,80a.52.52,0,0,0,.36.63.51.51,0,0,0,.62-.36.37.37,0,0,0,0-.18.51.51,0,0,0-.46-.56h0A.52.52,0,0,0,56.24,80Zm-18-27.28h-.1a.36.36,0,0,0-.09.71.36.36,0,0,0,.19-.69Zm1,14.73a.34.34,0,0,0,.19-.44v0a.34.34,0,0,0-.32-.21H39a.36.36,0,0,0-.18.47.35.35,0,0,0,.46.18Zm-1.08-3.34h-.09a.33.33,0,0,0-.23.39.33.33,0,0,0,.4.23.31.31,0,0,0,.22-.39h0a.32.32,0,0,0-.25-.2Zm2.23,5a.57.57,0,0,0-.28.08.55.55,0,0,0-.18.76.54.54,0,0,0,.75.18.55.55,0,0,0,.19-.75.58.58,0,0,0-.43-.24Zm8.29-28.87a.36.36,0,0,0,.15-.49h0a.36.36,0,0,0-.32-.19.54.54,0,0,0-.18,0,.36.36,0,0,0-.14.5.35.35,0,0,0,.44.25l.1,0ZM42.07,71.9a.14.14,0,0,0-.09,0,.16.16,0,0,0,0,.22.18.18,0,0,0,.22,0,.16.16,0,0,0,0-.22A.15.15,0,0,0,42.07,71.9Zm6.7,5.33a.25.25,0,0,0-.17,0,.37.37,0,0,0-.33.19.36.36,0,1,0,.64.33.37.37,0,0,0-.14-.47Zm-8.11-29.8a.5.5,0,0,0-.24-.06.47.47,0,0,0-.39.22.46.46,0,1,0,.63-.16Zm27.68-21a.5.5,0,0,0,1,.31h0A.5.5,0,0,0,69,26.1a.33.33,0,0,0-.14,0,.5.5,0,0,0-.52.32ZM87,78a.45.45,0,0,0-.11-.64h0a.44.44,0,0,0-.27-.09.5.5,0,0,0-.39.21A.47.47,0,1,0,87,78ZM64.39,25.82a.29.29,0,0,0,.33-.24.3.3,0,0,0-.23-.33h0a.28.28,0,0,0-.28.24A.29.29,0,0,0,64.39,25.82Zm28.07,35a.17.17,0,0,0-.16.15.16.16,0,0,0,.13.17h0a.16.16,0,0,0,.17-.15h0a.16.16,0,0,0-.15-.17h0Zm-8.18-25.1a.61.61,0,0,0-.46-.21.63.63,0,0,0,0,1.26.62.62,0,0,0,.46-1.05Zm4.73,38h-.07a.17.17,0,1,0,.2.13A.16.16,0,0,0,89,73.72Zm-50.07,12a.11.11,0,0,0-.08,0,.09.09,0,0,0,0,.13h0a.09.09,0,0,0,.13,0h0a.09.09,0,0,0,0-.13h-.06Zm51.93-16a.19.19,0,0,0-.12-.24h-.06a.19.19,0,0,0-.18.13.17.17,0,0,0,.1.23h0a.19.19,0,0,0,.24,0Zm1-4.7a.3.3,0,1,0-.06.6.3.3,0,0,0,.36-.23h0a.31.31,0,0,0-.24-.36ZM30.11,76.28a.38.38,0,0,0,.13-.52.38.38,0,0,0-.32-.18.61.61,0,0,0-.19,0,.37.37,0,0,0-.06.53.36.36,0,0,0,.44.12ZM28.11,45a.7.7,0,0,0-.25,0,.66.66,0,1,0,.66.66A.65.65,0,0,0,28.11,45Zm-2.7,9.89a.63.63,0,0,0,.7-.54.62.62,0,0,0-.51-.7h-.11a.63.63,0,0,0-.08,1.25ZM69,91.22a.34.34,0,0,0,.25-.41.34.34,0,0,0-.35-.26h-.11a.34.34,0,0,0-.22.43h0a.33.33,0,0,0,.39.25Zm8-4.54a.46.46,0,0,0-.23.06h0a.44.44,0,0,0-.2.58.43.43,0,0,0,.58.19l.08-.05h0a.43.43,0,0,0,.12-.59A.41.41,0,0,0,77,86.68ZM26.34,50a.16.16,0,0,0,.18-.09h0a.16.16,0,0,0-.09-.18h0a.16.16,0,0,0-.14.11A.14.14,0,0,0,26.34,50Zm-.78,17.94a.87.87,0,0,0,1.07.61h0a.86.86,0,0,0,.62-1v0a.9.9,0,0,0-.84-.64.89.89,0,0,0-.23,0,.85.85,0,0,0-.62,1,.43.43,0,0,0,0,.05Zm-.32-4.59a.25.25,0,0,0,.29.23h0a.27.27,0,0,0,0-.54h0a.27.27,0,0,0-.3.24v.06ZM84,81.42a.18.18,0,0,0,0-.25h-.13a.2.2,0,0,0-.14.06.18.18,0,0,0,0,.25.19.19,0,0,0,.26,0h0ZM28,72.24a.32.32,0,0,0,.15-.43.31.31,0,0,0-.28-.18h-.12a.33.33,0,0,0-.17.43.31.31,0,0,0,.41.18ZM73.08,88.66a.54.54,0,0,0-.25.06h0a.61.61,0,1,0,.81.29A.59.59,0,0,0,73.08,88.66ZM55.43,24.81a.43.43,0,0,0-.39.47h0a.44.44,0,0,0,.48.39.43.43,0,0,0,.39-.47h0a.44.44,0,0,0-.44-.4Zm25,59.79a.27.27,0,0,0,.37,0h0a.28.28,0,0,0,0-.38.28.28,0,0,0-.38,0,.27.27,0,0,0,0,.37ZM35.5,82.13a.85.85,0,1,0,0,1.7.83.83,0,0,0,.61-.26.84.84,0,0,0,0-1.2A.87.87,0,0,0,35.5,82.13ZM51.17,26.52A.55.55,0,0,0,51,25.44a.29.29,0,0,0-.13,0,.55.55,0,0,0-.48.61.54.54,0,0,0,.61.48.31.31,0,0,0,.13,0ZM32.27,79.39a.32.32,0,0,0-.07.46h0a.34.34,0,0,0,.48.06h0a.34.34,0,0,0-.22-.6A.31.31,0,0,0,32.27,79.39Zm3.39-45a.27.27,0,0,0-.21-.09.29.29,0,0,0-.27.31.28.28,0,1,0,.48-.22ZM25.19,58.54a.22.22,0,0,0-.22.22h0a.22.22,0,0,0,.18.27.23.23,0,0,0,.27-.17.17.17,0,0,0,0-.1h0a.23.23,0,0,0-.23-.23ZM86.93,40.13a.56.56,0,0,0,.15-.78h0a.56.56,0,0,0-.46-.24.53.53,0,0,0-.32.1.56.56,0,1,0,.64.93Zm-35.74,51h-.08a.34.34,0,0,0-.34.27.36.36,0,0,0,.26.43.37.37,0,0,0,.43-.27.34.34,0,0,0-.27-.39Zm13.32.57h0a.21.21,0,0,0-.17.24.21.21,0,0,0,.24.16h0a.21.21,0,0,0,.16-.24.19.19,0,0,0-.23-.12Zm-4.13.64A.35.35,0,0,0,60,92h0a.34.34,0,0,0,0,.68h0a.34.34,0,0,0,.34-.31Zm28.52-49h-.1a.23.23,0,0,0-.1.31h0a.23.23,0,0,0,.31.1h0a.24.24,0,0,0,.1-.31A.23.23,0,0,0,88.9,43.3Zm2.16,4.23a.42.42,0,0,0-.4-.28h-.13a.42.42,0,0,0-.26.53h0a.41.41,0,0,0,.79-.25Zm-10.48-15a.51.51,0,0,0-.4.19.52.52,0,0,0,.07.73.51.51,0,0,0,.73-.06.53.53,0,0,0-.06-.73.51.51,0,0,0-.34-.17ZM42.9,88a.49.49,0,0,0-.17,0,.37.37,0,0,0-.19.68h0a.36.36,0,0,0,.5-.14.35.35,0,0,0-.07-.5ZM72.07,27.75a1,1,0,1,0,1.89.88,1,1,0,0,0-.42-1.35l-.08,0a1,1,0,0,0-1.39.51ZM46.54,90.89a.75.75,0,1,0,.54-1.4.62.62,0,0,0-.27,0,.76.76,0,0,0-.75.75.75.75,0,0,0,.48.7Zm-17-48.76a.64.64,0,0,0,.88-.22h0a.62.62,0,0,0-.22-.86h0a.62.62,0,0,0-.32-.09.63.63,0,0,0-.33,1.18Zm26,49.53h0a.59.59,0,1,0,.58.65.58.58,0,0,0-.47-.65ZM42.76,29.37a.18.18,0,0,0,.07-.24.17.17,0,0,0-.16-.09h-.09a.19.19,0,0,0-.07.24.18.18,0,0,0,.24.1Zm-11,8A.82.82,0,1,0,33,37.24a.85.85,0,0,0-.51-.18.81.81,0,0,0-.69.31ZM60,24.81a.29.29,0,0,0-.29.27.3.3,0,0,0,.28.3.29.29,0,0,0,.29-.27h0a.27.27,0,0,0-.25-.29h0Zm-21,7a.19.19,0,0,0,0-.28.18.18,0,0,0-.15-.08h-.12a.19.19,0,0,0,0,.28.21.21,0,0,0,.27.07Zm54.13,24.6a.68.68,0,0,0-.68-.63h0a.68.68,0,0,0,0,1.36h.14A.68.68,0,0,0,93.13,56.41Zm-1.28-4.94h-.1a.53.53,0,0,0-.41.63h0a.52.52,0,0,0,.61.41h0a.53.53,0,0,0-.11-1Zm-45.1-24.6a.49.49,0,0,0-.17,0,.45.45,0,0,0-.25.58.45.45,0,0,0,.58.26.45.45,0,0,0,.25-.58A.43.43,0,0,0,46.75,26.87Zm30.31,3.32a.18.18,0,0,0-.26.06.19.19,0,0,0,.32.2h0A.19.19,0,0,0,77.06,30.19ZM55,98h0a.39.39,0,1,0,.39.43.38.38,0,0,0-.33-.43Zm5.58-79a.38.38,0,0,0-.37-.41h0a.39.39,0,0,0-.33.46.4.4,0,0,0,.33.33.39.39,0,0,0,.36-.38ZM31,87.69a.42.42,0,0,0,.58-.6.4.4,0,0,0-.29-.12.44.44,0,0,0-.31.13.41.41,0,0,0,0,.58Zm18.93,9h-.19a.8.8,0,1,0,.88.7.79.79,0,0,0-.7-.7ZM24.66,78.75a.49.49,0,0,0-.17,0,.33.33,0,0,0-.12.45.34.34,0,0,0,.46.12.32.32,0,0,0,.11-.45h0A.33.33,0,0,0,24.66,78.75ZM38.94,24.28a.89.89,0,0,0,1.22.36.91.91,0,0,0,.36-1.23.89.89,0,0,0-.79-.46,1,1,0,0,0-.44.11A.9.9,0,0,0,38.94,24.28ZM24.78,38.19a.22.22,0,0,0-.16,0,.32.32,0,0,0-.27.16.31.31,0,1,0,.54.32h0a.32.32,0,0,0-.06-.45ZM44.6,21.76a.16.16,0,0,0,.1-.2h0a.17.17,0,0,0-.16-.11h-.06a.18.18,0,0,0-.09.22.16.16,0,0,0,.2.1Zm-.34,74a.39.39,0,0,0,.22.49.37.37,0,0,0,.49-.17A.26.26,0,0,0,45,96a.38.38,0,0,0-.21-.49.33.33,0,0,0-.14,0,.4.4,0,0,0-.39.26ZM27.49,83.6a.24.24,0,0,0,.33,0h0a.22.22,0,0,0,0-.31l0,0a.21.21,0,0,0-.18-.09.19.19,0,0,0-.15,0,.23.23,0,0,0-.09.33A.2.2,0,0,0,27.49,83.6Zm.62-49.14a.61.61,0,0,0-.1-.85.58.58,0,0,0-.38-.13.61.61,0,0,0,0,1.22.58.58,0,0,0,.46-.22Zm42.6,62.15h0a.13.13,0,0,0-.08.16h0a.12.12,0,0,0,.15.08h0a.12.12,0,0,0,.08-.15h0a.11.11,0,0,0-.12-.1ZM60.25,98.37a.13.13,0,0,0-.13.13h0a.14.14,0,0,0,.27.07.09.09,0,0,0,0-.07.13.13,0,0,0-.13-.13h0ZM31.68,30.65a.7.7,0,0,0,0-1h0a.71.71,0,0,0-1,1,.69.69,0,0,0,1,0Zm3.86,59.86a.4.4,0,0,0-.23-.08.38.38,0,0,0-.22.69h0a.36.36,0,0,0,.52-.07h0A.38.38,0,0,0,35.54,90.51ZM40.41,94a.69.69,0,0,0-.2-1l-.08,0a.62.62,0,0,0-.33,0,.7.7,0,1,0,0,1.4A.7.7,0,0,0,40.41,94Zm25,3.48A.48.48,0,0,0,65,98v0a.49.49,0,0,0,1-.17.49.49,0,0,0-.49-.41ZM35.61,27.19a.59.59,0,0,0,.12-.83h0a.55.55,0,0,0-.48-.24.63.63,0,0,0-.35.11.59.59,0,0,0-.12.83h0a.59.59,0,0,0,.81.15Zm-13,48a.94.94,0,1,0-1.12-.45A1,1,0,0,0,22.61,75.19Zm-3.2-22.5a.73.73,0,1,0,.73.84h0a.73.73,0,0,0-.63-.82h-.1ZM18.78,64.2A.65.65,0,0,0,20.07,64a.65.65,0,0,0-.64-.56h-.09a.66.66,0,0,0-.55.75h0Zm1.6-15.6a.38.38,0,1,0,.2-.74h-.1a.38.38,0,0,0-.37.28A.38.38,0,0,0,20.38,48.6Zm-.07,20.05a.71.71,0,0,0-.5.87.72.72,0,1,0,.69-.9A.63.63,0,0,0,20.31,68.65Zm-1-9.87a.22.22,0,0,0-.44,0h0a.21.21,0,0,0,.2.22h0a.22.22,0,0,0,.22-.22h0ZM79.92,92.51a.47.47,0,0,0,.65.15h0a.49.49,0,0,0,.14-.67.47.47,0,0,0-.39-.21.5.5,0,0,0-.26.08.47.47,0,0,0-.14.65Zm.12-67a.39.39,0,0,0,.54-.12h0a.39.39,0,0,0-.33-.61.4.4,0,0,0-.33.18.39.39,0,0,0,.06.55H80Zm8.47,6.68a.26.26,0,0,0,0-.33.24.24,0,0,0-.18-.07.25.25,0,0,0-.16.06.23.23,0,0,0,.32.34ZM84.18,28a.46.46,0,1,0,.65-.05.46.46,0,0,0-.65.05ZM91,36.65a.81.81,0,1,0,.67-1.26.83.83,0,0,0-.46.14A.8.8,0,0,0,91,36.65Zm3.24,4.18a.15.15,0,0,0,.21.07h0a.15.15,0,0,0,.08-.2h0a.16.16,0,0,0-.15-.09h-.07a.15.15,0,0,0-.11.18s0,0,0,0ZM98.6,56.71a.66.66,0,0,0,.63-.69v0a.68.68,0,0,0-.67-.63h0a.67.67,0,1,0,.08,1.34h0Zm-.09,5.47a.83.83,0,1,0,.25-1.64h-.19a.83.83,0,0,0-.77.88A.81.81,0,0,0,98.51,62.18ZM96.77,51h0a1.11,1.11,0,1,0,1.08-1.33.81.81,0,0,0-.22,0A1.1,1.1,0,0,0,96.77,51Zm-42-32.66a.82.82,0,1,0,.89.74h0a.81.81,0,0,0-.81-.73Zm20.9,75.93h-.24a.55.55,0,0,0-.26.73.54.54,0,0,0,.71.28h0a.55.55,0,0,0,.26-.73A.55.55,0,0,0,75.67,94.27ZM21.92,43.91a.77.77,0,0,0,1-.4.79.79,0,0,0-.41-1,.8.8,0,0,0-.3-.06.76.76,0,0,0-.3,1.47Zm43.47-24a.42.42,0,0,0,.48-.33h0a.43.43,0,0,0-.35-.49h-.06a.42.42,0,0,0-.42.36.41.41,0,0,0,.34.47Zm10.42,2.25a.54.54,0,0,0-.22-.05.52.52,0,1,0,.22.05ZM70.53,21a.33.33,0,0,0,.4-.2.32.32,0,0,0-.21-.4h-.09a.32.32,0,0,0-.31.22A.32.32,0,0,0,70.53,21Zm-20.81-.55a.45.45,0,0,0,.3-.56.44.44,0,0,0-.4-.32h-.11a.44.44,0,0,0-.27.57.45.45,0,0,0,.48.3ZM92.29,81.63a.72.72,0,0,0-.19-1,.66.66,0,0,0-.4-.13.72.72,0,0,0,0,1.44A.73.73,0,0,0,92.29,81.63Zm-7.7,7.15a.31.31,0,0,0-.21.07.33.33,0,0,0,0,.45.31.31,0,0,0,.44,0h0a.32.32,0,0,0,0-.45.3.3,0,0,0-.23-.11ZM98,65.78h-.17a.8.8,0,1,0,.17,0ZM94.4,76.47a.18.18,0,0,0-.08.34.19.19,0,0,0,.25-.08.18.18,0,0,0-.08-.24A.15.15,0,0,0,94.4,76.47Zm-5.83,9.08h0a.22.22,0,0,0,0-.32.19.19,0,0,0-.15,0,.2.2,0,0,0-.16.07.22.22,0,1,0,.33.3h0Zm8.11-39.22a.72.72,0,0,0,.44-.91.71.71,0,0,0-.67-.48h-.24a.71.71,0,0,0-.44.9h0A.73.73,0,0,0,96.68,46.33ZM97,71.93a.54.54,0,0,0-.33-.69h-.19a.54.54,0,0,0,0,1.08A.53.53,0,0,0,97,72Zm7.66-9.8a.38.38,0,0,0,0-.75h0a.37.37,0,0,0-.37.35.38.38,0,0,0,.34.4h0ZM54.13,12a1.07,1.07,0,1,0,.11,0Zm23.94,5.33a.23.23,0,1,0,.19-.41h-.1a.23.23,0,0,0-.21.25.23.23,0,0,0,.12.18Zm-11.65-3.5a.32.32,0,0,0,.1-.64h0a.33.33,0,0,0,0,.65ZM48.36,103.12h-.07a.33.33,0,0,0-.31.25.32.32,0,0,0,.62.14.31.31,0,0,0-.21-.38ZM72.2,15.62a.79.79,0,1,0,.62-1.45l-.15-.05h-.23a.77.77,0,0,0-.24,1.5Zm29.86,27.53a.51.51,0,1,0,.17,0ZM37.18,19.2a.82.82,0,0,0,.34-1.11h0a.84.84,0,0,0-.73-.42.76.76,0,0,0-.39.1.82.82,0,0,0,.79,1.44Zm67.51,36.69a.27.27,0,0,0,.24-.28.26.26,0,0,0-.26-.25h0a.26.26,0,0,0-.25.28A.27.27,0,0,0,104.69,55.89ZM42.74,17h0a1.13,1.13,0,0,0,.63-1.47,1.12,1.12,0,0,0-1-.71,1.14,1.14,0,0,0-.41.07h0A1.13,1.13,0,0,0,42.74,17ZM82.91,97.86a.84.84,0,0,0,1.13.36.83.83,0,0,0,.36-1.13L84.32,97a.83.83,0,0,0-.7-.38.79.79,0,0,0-.45.13.82.82,0,0,0-.26,1.14ZM47.65,14.21a.54.54,0,0,0,.66.41h0a.56.56,0,0,0,.39-.69.55.55,0,0,0-.52-.41h-.12a.57.57,0,0,0-.43.67ZM93.83,29a1.4,1.4,0,0,0,.11-2l0,0a1.39,1.39,0,0,0-2-.14l0,0A1.42,1.42,0,1,0,93.83,29ZM11.68,58.83a1.28,1.28,0,1,0,2.55.23.89.89,0,0,0,0-.23v-.08a1.28,1.28,0,0,0-1.39-1.16,1.26,1.26,0,0,0-1.16,1.16Zm1.58-5.45a.75.75,0,0,0,.85-.65.76.76,0,0,0-.65-.86h-.11a.76.76,0,0,0-.75.66A.77.77,0,0,0,13.26,53.38Zm.17,12a.43.43,0,0,0,.33-.51.42.42,0,0,0-.39-.34h-.06A.44.44,0,0,0,13,65,.43.43,0,0,0,13.43,65.38Zm3.62,12.38a1.1,1.1,0,0,0,.57-1.45,1.08,1.08,0,0,0-1-.66,1.07,1.07,0,0,0-.43.09,1.1,1.1,0,0,0,.86,2ZM14.87,46.7a.32.32,0,0,0-.22-.38h-.08a.3.3,0,0,0-.29.23.28.28,0,0,0,.19.36h0A.32.32,0,0,0,14.87,46.7ZM42.66,101a.59.59,0,0,0-.23,0,.66.66,0,0,0-.66.66.65.65,0,0,0,.65.66.68.68,0,0,0,.62-.42.64.64,0,0,0-.35-.84ZM16.4,41.25A.46.46,0,0,0,17,41a.47.47,0,0,0-.22-.56h-.19a.45.45,0,0,0-.18.86Zm-1.8,29.6h0a.11.11,0,0,0-.08.13.12.12,0,0,0,.14.08.13.13,0,0,0,.07-.14A.12.12,0,0,0,14.6,70.85ZM31.83,22.06a.35.35,0,0,0,.09-.47.33.33,0,0,0-.3-.15.31.31,0,0,0-.2.07.34.34,0,0,0,.41.55Zm70.43,50.75a.94.94,0,1,0,.31,0A1.61,1.61,0,0,0,102.26,72.81ZM37,98.74h-.17a.36.36,0,0,0-.31.19.35.35,0,1,0,.62.34h0a.35.35,0,0,0-.07-.49ZM27.11,25.92a.25.25,0,0,0-.18-.42.22.22,0,0,0-.17.07.24.24,0,0,0,0,.34h0a.24.24,0,0,0,.34,0Zm73.2,13a1.06,1.06,0,0,0-.48-2,1.13,1.13,0,0,0-.48.11,1.07,1.07,0,1,0,1,1.89ZM19.4,81.68a.55.55,0,0,0-.28.07.54.54,0,1,0,.74.19h0A.54.54,0,0,0,19.4,81.68Zm-.5-46.6a.52.52,0,1,0,.9.53.51.51,0,0,0-.17-.7h0a.52.52,0,0,0-.27-.07A.55.55,0,0,0,18.9,35.08ZM60.34,13.59a.73.73,0,0,0,0-1.46h0a.73.73,0,0,0,0,1.46Zm12.19,88.33a.61.61,0,0,0-.19,0,.65.65,0,0,0-.44.82h0a.67.67,0,0,0,.83.45.67.67,0,0,0-.2-1.31Zm5.72-1.84a.24.24,0,0,0-.12,0,.27.27,0,0,0-.21.33.28.28,0,1,0,.54-.12A.27.27,0,0,0,78.25,100.08ZM66.91,104a.34.34,0,0,0-.34-.28h-.06a.35.35,0,0,0,.12.68A.36.36,0,0,0,66.91,104ZM32.48,94.68a1.34,1.34,0,0,0-2.13,1.06,1.31,1.31,0,0,0,.55,1.09h0a1.33,1.33,0,0,0,1.58-2.15ZM22.15,31.15A1.09,1.09,0,0,0,23.68,31h0a1.05,1.05,0,1,0-1.54.18ZM89.07,94.39a.82.82,0,0,0,.1-1.15.81.81,0,1,0-.1,1.15ZM61,104.61a.49.49,0,0,0-.49-.48h0a.5.5,0,1,0,.49.51ZM23.35,87.85a.75.75,0,0,0,.14-1l0,0a.75.75,0,0,0-.59-.29.72.72,0,0,0-.47.16.76.76,0,0,0,.94,1.19Zm73.59-3.44a.33.33,0,0,0-.19-.06.35.35,0,0,0-.28.14.33.33,0,0,0,.08.46h0a.33.33,0,0,0,.45-.07v0a.32.32,0,0,0-.06-.45ZM96.88,33a.31.31,0,0,0,.1-.44v0a.32.32,0,0,0-.28-.15.33.33,0,0,0-.19.06.34.34,0,0,0-.08.47.31.31,0,0,0,.44.09Zm-8.8-8.87a.61.61,0,1,0,.78-.94.59.59,0,0,0-.38-.14.61.61,0,0,0-.47.21A.62.62,0,0,0,88.08,24.13Zm-4.35-4.41a.33.33,0,0,0-.19-.06.34.34,0,0,0-.3.17.36.36,0,0,0,.11.5h0a.37.37,0,0,0,.49-.11.36.36,0,0,0-.11-.5Zm20.18,30.13a.31.31,0,0,0,.24-.36h0a.31.31,0,0,0-.3-.25h-.06a.3.3,0,0,0-.24.35h0A.32.32,0,0,0,103.91,49.85ZM27,91.37a.43.43,0,0,0-.3.13.41.41,0,0,0,0,.59.42.42,0,1,0,.59-.59h0A.39.39,0,0,0,27,91.37ZM100.64,79.8a.86.86,0,0,0-.77-1.26.84.84,0,0,0-.77.48.86.86,0,1,0,1.54.78ZM93,88.54a1,1,0,0,0-.72.31h0a1.11,1.11,0,1,0,.72-.31Zm-38.56,15.4h0a.5.5,0,0,0-.49.44.5.5,0,0,0,.44.55.51.51,0,0,0,.54-.45.49.49,0,0,0-.43-.54h-.06Zm49.4-35.68a.43.43,0,1,0,.17-.85h-.09a.44.44,0,0,0-.42.35.44.44,0,0,0,.29.5ZM97.2,24a.29.29,0,0,0,.41,0l0,0a.31.31,0,0,0,0-.42.3.3,0,0,0-.22-.1.32.32,0,0,0-.21.08.3.3,0,0,0,0,.42ZM34,13.46a.39.39,0,0,0,.17-.53h0a.39.39,0,0,0-.35-.21.61.61,0,0,0-.19,0,.41.41,0,0,0-.16.54.4.4,0,0,0,.5.23ZM8.36,46.13A1.17,1.17,0,0,0,9,43.87a.81.81,0,0,0-.31,0,1.17,1.17,0,0,0-.3,2.3ZM28.24,17.2a.43.43,0,0,0,.09-.6.42.42,0,0,0-.34-.17.44.44,0,0,0-.25.08h0a.43.43,0,0,0-.09.6.42.42,0,0,0,.59.09Zm72.94,12.44a.68.68,0,0,0,1.13-.76.69.69,0,0,0-1-.18.67.67,0,0,0-.18.93ZM8.69,71.86H8.5a.74.74,0,0,0-.51.91.73.73,0,1,0,.7-.93ZM6.83,59.2a.38.38,0,0,0,.39-.39h0a.38.38,0,0,0-.37-.39h0a.38.38,0,0,0-.39.39h0A.38.38,0,0,0,6.83,59.2ZM23.06,21.73a.54.54,0,0,0,0-.76.52.52,0,0,0-.37-.16.51.51,0,0,0-.37.15.54.54,0,0,0,0,.76A.55.55,0,0,0,23.06,21.73Zm82.48,14a.57.57,0,0,0,.26-.75h0a.58.58,0,0,0-.5-.3.54.54,0,0,0-.25.06.56.56,0,0,0-.21.76A.57.57,0,0,0,105.54,35.73ZM6,66a1.36,1.36,0,1,0,1.36-1.55H7.12A1.38,1.38,0,0,0,6,66ZM45.88,8.34A.93.93,0,0,0,47,9a.92.92,0,0,0-.22-1.82h-.21a.93.93,0,0,0-.68,1.13ZM11,78.88h-.11a.26.26,0,0,0-.14.35h0a.27.27,0,0,0,.35.15.28.28,0,0,0,.13-.38.31.31,0,0,0-.23-.15Zm57.35,31a.75.75,0,0,0-.74-.63h-.13a.76.76,0,1,0,.87.63h0ZM13.51,33.19a1.12,1.12,0,0,0,1.15-1.93h0a1.13,1.13,0,0,0-.57-.15,1.1,1.1,0,0,0-1,.54A1.13,1.13,0,0,0,13.51,33.19Zm53.85-25a.75.75,0,0,0,.85-.61.72.72,0,0,0-.58-.84h-.15a.74.74,0,0,0-.12,1.46Zm-56.71,31a.76.76,0,0,0,1-.4h0a.77.77,0,0,0-.4-1h0a.59.59,0,0,0-.29-.07.78.78,0,0,0-.71.47.76.76,0,0,0,.41.94ZM53.56,6.34a.66.66,0,0,0-.63.7A.67.67,0,1,0,54.26,7a.66.66,0,0,0-.63-.63ZM17.6,27a.68.68,0,0,0,.95-.11.65.65,0,0,0,0-.93.27.27,0,0,0-.08-.07.66.66,0,0,0-.42-.15.68.68,0,0,0-.75.61A.67.67,0,0,0,17.6,27ZM74.18,9.23a.23.23,0,0,0,.27-.14.21.21,0,0,0-.13-.27h-.07A.22.22,0,0,0,74,9,.23.23,0,0,0,74.18,9.23ZM7.25,52.07a.26.26,0,0,0,.3-.22h0a.26.26,0,0,0-.23-.29h0a.26.26,0,0,0-.07.52ZM80.64,11.73a.23.23,0,1,0,.2-.42h-.1a.23.23,0,0,0-.21.13A.23.23,0,0,0,80.64,11.73Zm5.73,3.86a.87.87,0,0,0,.93-1.46.85.85,0,0,0-.47-.13.87.87,0,0,0-.87.85A.89.89,0,0,0,86.37,15.59Zm-46-4.82a.63.63,0,0,0-.22-1.22.45.45,0,0,0-.23,0h0a.65.65,0,0,0,.42,1.23h0Zm52.78,8.82a1,1,0,1,0-.78.34.94.94,0,0,0,.78-.34ZM74.36,108.17h-.08a.25.25,0,0,0-.17.31.26.26,0,1,0,.25-.31Zm33.75-32.58h-.06a.18.18,0,0,0-.17.12.17.17,0,0,0,.33.11h0a.16.16,0,0,0-.09-.22Zm-2.77,5.61a1,1,0,1,0,0,2,1,1,0,0,0,1-1,1,1,0,0,0-.56-.91A1,1,0,0,0,105.34,81.2Zm2-39.32a.75.75,0,0,0,1,.48h0a.77.77,0,0,0,.48-1h0a.75.75,0,0,0-.73-.51,1,1,0,0,0-.25,0,.77.77,0,0,0-.59.92.56.56,0,0,0,0,.12ZM102.58,87a1.36,1.36,0,0,0-.78-.24,1.38,1.38,0,1,0,1.14,2.17A1.39,1.39,0,0,0,102.58,87Zm8.2-32.27h0a.46.46,0,0,0-.44.48v0a.48.48,0,0,0,.51.44.46.46,0,0,0,.44-.48v0A.49.49,0,0,0,110.78,54.73Zm-.87-6.13a.28.28,0,1,0-.06-.56h-.06a.27.27,0,0,0-.21.32h0a.27.27,0,0,0,.32.23Zm.9,13.13h0a.43.43,0,0,0-.43.4.43.43,0,0,0,.86.06h0a.42.42,0,0,0-.38-.46ZM47.05,108.67h-.17a.73.73,0,0,0-.71.57.73.73,0,1,0,1.43.34.73.73,0,0,0-.53-.9Zm62.76-39.3a.33.33,0,0,0,.38-.25h0a.32.32,0,0,0-.23-.38h-.09a.33.33,0,0,0-.32.26A.34.34,0,0,0,109.81,69.37Zm-29,35.44a1.13,1.13,0,0,0-1,1.57h0a1.13,1.13,0,0,0,1.48.54,1.11,1.11,0,0,0-.47-2.12ZM97.49,93.29a.29.29,0,0,0-.23.1.31.31,0,0,0,0,.44.31.31,0,1,0,.42-.46A.27.27,0,0,0,97.49,93.29ZM61.24,110.72a.54.54,0,0,0-.55-.53h0a.56.56,0,0,0,0,1.11A.57.57,0,0,0,61.24,110.72ZM86.92,102a.53.53,0,0,0-.3.09.55.55,0,0,0-.17.77.56.56,0,1,0,.94-.6h0A.56.56,0,0,0,86.92,102Zm-33.17,8.35h0a.16.16,0,0,0-.17.15h0a.17.17,0,0,0,.15.18.18.18,0,0,0,.21-.12.18.18,0,0,0-.13-.21h-.06ZM92.5,97.58a.86.86,0,1,0,.66.3A.87.87,0,0,0,92.5,97.58ZM60.55,7.38a.64.64,0,0,0,.67-.61h0a.65.65,0,0,0-.63-.67h0a.65.65,0,0,0,0,1.29ZM28.07,100.06a.61.61,0,0,0-.5.26.59.59,0,0,0,.11.84l0,0a.61.61,0,0,0,.87-.09.62.62,0,0,0-.08-.87l-.06,0A.58.58,0,0,0,28.07,100.06Zm12.43,6.59a.58.58,0,0,0-.26-.05.74.74,0,0,0,0,1.48.75.75,0,0,0,.7-.48.72.72,0,0,0-.42-.94Zm-6.57-2.72a.48.48,0,0,0-.43.26.49.49,0,0,0,.19.66.49.49,0,0,0,.48-.86h0A.46.46,0,0,0,33.93,103.93ZM14.13,83.8a1.55,1.55,0,0,0-1.32,2.35,1.55,1.55,0,0,0,2.66-1.6A1.56,1.56,0,0,0,14.13,83.8Zm3.95,5.92a1.34,1.34,0,1,0,1.05.51h0A1.34,1.34,0,0,0,18.08,89.72Zm5.38,5.75h0a1,1,0,0,0-1.39,1.44,1,1,0,0,0,1.39,0,1,1,0,0,0,0-1.41ZM5,36.81a.83.83,0,0,0,1.09-.43h0a.85.85,0,0,0-.43-1.11h0a1,1,0,0,0-.33-.06.85.85,0,0,0-.78.51A.84.84,0,0,0,5,36.81ZM90.22,107a.64.64,0,0,0-.38.12.71.71,0,1,0,.8,1.18.73.73,0,0,0,.2-1A.74.74,0,0,0,90.22,107ZM2.54,44.2a.86.86,0,0,0,1-.6.84.84,0,0,0-.6-1H2.72a.84.84,0,0,0-.22,1.66ZM1.12,51.75A.75.75,0,0,0,2,51.1a.76.76,0,0,0-.65-.86h-.1a.76.76,0,0,0-.75.66h0A.77.77,0,0,0,1.12,51.75Zm74.44-47a1.68,1.68,0,1,0-1.11-2.1h0a1.68,1.68,0,0,0,1.07,2.12h0ZM53.2,116h-.07a.59.59,0,0,0-.56.63.6.6,0,1,0,1.19-.07A.59.59,0,0,0,53.2,116Zm30.22-5.81A1.28,1.28,0,0,0,82.26,112a1.29,1.29,0,1,0,1.16-1.85ZM18.51,100a.66.66,0,0,0-.46.19.63.63,0,1,0,.9,0A.73.73,0,0,0,18.51,100ZM115.9,47.33a.22.22,0,0,0,.18-.27h0a.24.24,0,0,0-.23-.19h0a.26.26,0,0,0-.19.29A.25.25,0,0,0,115.9,47.33ZM13.32,22.79a.13.13,0,0,0,0-.18h0a.11.11,0,0,0-.08,0,.16.16,0,0,0-.11,0,.14.14,0,0,0,0,.19A.13.13,0,0,0,13.32,22.79ZM8.63,29.42a.37.37,0,0,0,.5-.13A.36.36,0,0,0,9,28.8a.37.37,0,0,0-.18-.05.36.36,0,0,0-.31.17A.37.37,0,0,0,8.63,29.42Zm98.46-3.19a.53.53,0,0,0,.14-.75.56.56,0,0,0-.45-.23.47.47,0,0,0-.3.1.53.53,0,0,0-.15.73v0A.54.54,0,0,0,107.09,26.23ZM5.35,81.1H5.18a.45.45,0,1,0,.59.24A.46.46,0,0,0,5.35,81.1ZM115.81,70.59a.34.34,0,0,0,.4-.27h0a.34.34,0,0,0-.27-.39h-.06a.33.33,0,0,0-.33.27A.34.34,0,0,0,115.81,70.59ZM2.48,73.1a1.16,1.16,0,0,0,.62,2.24h0a1.16,1.16,0,0,0-.31-2.28A1.65,1.65,0,0,0,2.48,73.1Zm-.77-6.55a.47.47,0,0,0-.47-.41H1.17a.46.46,0,0,0-.4.53h0a.46.46,0,0,0,.51.4h0a.46.46,0,0,0,.41-.52ZM102.19,20a.36.36,0,0,0,0-.49.36.36,0,0,0-.26-.11.32.32,0,0,0-.23.09.34.34,0,0,0,0,.48A.35.35,0,0,0,102.19,20ZM.71,59.54a.71.71,0,0,0,.71-.71h0a.71.71,0,0,0-1.42,0H0A.71.71,0,0,0,.71,59.54ZM14.25,94.09a1.26,1.26,0,0,0-1.76-.2A1.24,1.24,0,1,0,13.85,96a1.09,1.09,0,0,0,.17-.13,1.24,1.24,0,0,0,.21-1.73h0ZM8.87,88a.5.5,0,0,0-.24.06.48.48,0,0,0,.41.87l.08-.05a.46.46,0,0,0,.16-.64h0A.49.49,0,0,0,8.87,88ZM111,33a.64.64,0,0,0-.29-1.21.73.73,0,0,0-.29.07A.64.64,0,0,0,111,33ZM76.18,113.15a1,1,0,0,0-.34,0,1.13,1.13,0,1,0,.34,0Zm20.28-10.34a.26.26,0,0,0-.19.07.29.29,0,0,0,0,.41h0a.29.29,0,1,0,.19-.49ZM60.9,116.33h0a.53.53,0,0,0-.51.55h0a.53.53,0,0,0,1.06,0h0a.54.54,0,0,0-.53-.55ZM53.1,1.76a.89.89,0,0,0,.79-1v0A.89.89,0,0,0,53,0h-.09a.88.88,0,0,0-.79,1,.88.88,0,0,0,1,.79ZM82.76,7.14A1.3,1.3,0,1,0,82,6,1.28,1.28,0,0,0,82.76,7.14Zm7,3.19a.74.74,0,0,0,1-.13.75.75,0,0,0-.12-1l-.13-.08a.72.72,0,0,0-.4-.12.75.75,0,0,0-.4,1.38ZM68.46,1.64a.25.25,0,0,0,.29-.2h0a.25.25,0,0,0-.19-.3h0a.26.26,0,0,0,0,.51ZM38.28,112.46h-.23a.65.65,0,1,0,.6.88.64.64,0,0,0-.3-.85ZM60.75,1.13a.51.51,0,0,0,.53-.49h0a.51.51,0,0,0-.49-.53h0a.52.52,0,0,0-.51.49A.52.52,0,0,0,60.75,1.13ZM107.3,90.94a.8.8,0,0,0-.45-.14.79.79,0,0,0-.66.35.8.8,0,0,0,1.27,1l.05-.07A.8.8,0,0,0,107.3,90.94ZM114,77.4h-.13a.38.38,0,0,0-.38.38.39.39,0,0,0,.26.36.38.38,0,0,0,.48-.24h0a.38.38,0,0,0-.21-.49ZM68.62,115.29h-.13a.79.79,0,0,0-.63.91.78.78,0,0,0,.91.62.77.77,0,0,0,.63-.89A.8.8,0,0,0,68.62,115.29Zm42.19-31.53a1.17,1.17,0,0,0-1.15,1.17,1.18,1.18,0,0,0,.63,1,1.15,1.15,0,0,0,1.19-2l-.19-.09A1.15,1.15,0,0,0,110.81,83.76ZM45.68,3.53A1.41,1.41,0,0,0,45.35.76,2.09,2.09,0,0,0,45,.8a1.4,1.4,0,0,0,.66,2.73ZM38.39,5.66a1.28,1.28,0,0,0-.46-2.47,1.22,1.22,0,0,0-.46.09,1.28,1.28,0,0,0,.92,2.38ZM45.79,114a1.71,1.71,0,0,0-.32,0,1.37,1.37,0,1,0,.32,0ZM24.71,12.4a.58.58,0,0,0,.13-.81h0a.58.58,0,0,0-.47-.24.63.63,0,0,0-.35.11.61.61,0,1,0,.7,1h0ZM114.3,41.07a1.55,1.55,0,0,0-.51-3,1.81,1.81,0,0,0-.51.08,1.57,1.57,0,0,0-1,2v0a1.54,1.54,0,0,0,2,.93ZM25.38,104.35a1.56,1.56,0,1,0,.64,1.24A1.57,1.57,0,0,0,25.38,104.35ZM97.1,14.92a1,1,0,0,0-1.46-1.37,1,1,0,0,0,0,1.42l.07.06A1,1,0,0,0,97.1,14.92ZM31,8a.27.27,0,0,0,.1-.37h0a.28.28,0,0,0-.36-.1.27.27,0,0,0-.11.36A.28.28,0,0,0,31,8Zm85.9,54.07h0a.4.4,0,1,0,.07,0h0ZM31.82,108.3a1.71,1.71,0,1,0,.67,2.31,1.71,1.71,0,0,0-.67-2.31ZM18.9,17.44a.68.68,0,0,0,0-1l0,0a.69.69,0,0,0-1,0l0,0a.69.69,0,1,0,.94,1h.06ZM117,55.73a.94.94,0,0,0-.07-1.87h-.06a.93.93,0,0,0-.87,1h0A.94.94,0,0,0,117,55.73ZM102,97.12a.59.59,0,0,0-.43.19.58.58,0,1,0,.77.87l.08-.09a.58.58,0,0,0,0-.82.55.55,0,0,0-.44-.18Z" transform="translate(0 0)"/></g></svg>