<svg id="f9634fee-8e9d-49c5-a054-39692c408a2d" data-name="Layer 1" xmlns="http://www.w3.org/2000/svg" viewBox="0 0 113.64 113.64"><title>06u</title><g id="bb175fb0-ce60-4a80-a29c-991d5767bdc8" data-name="shapes"><circle cx="100.46" cy="69.2" r="3.19"/><circle cx="106.41" cy="56.63" r="2.58"/><circle cx="107.65" cy="46.21" r="1.96"/><path d="M106,39a1.45,1.45,0,1,1,2,0l0,0A1.46,1.46,0,0,1,106,39Z" transform="translate(0 0)"/><path d="M104.38,31.71a1.09,1.09,0,0,1,0-1.54h0a1.14,1.14,0,1,1,.13,1.68A.8.8,0,0,1,104.38,31.71Z" transform="translate(0 0)"/><path d="M102.35,26.33a.77.77,0,1,1,1.09,0,.76.76,0,0,1-1.07,0Z" transform="translate(0 0)"/><path d="M100,21.84a.55.55,0,1,1,.78,0A.56.56,0,0,1,100,21.84Z" transform="translate(0 0)"/><circle cx="94.8" cy="14.83" r="0.26"/><circle cx="97.72" cy="18.01" r="0.3"/><path d="M92.53,76.42A2.58,2.58,0,1,0,93.9,79.8h0a2.56,2.56,0,0,0-1.35-3.37Z" transform="translate(0 0)"/><path d="M83.2,82.45a2,2,0,1,0,1,2.66l0-.08A2,2,0,0,0,83.2,82.45Z" transform="translate(0 0)"/><circle cx="74.53" cy="86.92" r="1.45"/><path d="M67.73,86.92a1.1,1.1,0,0,0-.85,2,1.1,1.1,0,1,0,1.17-1.87A1.27,1.27,0,0,0,67.73,86.92Z" transform="translate(0 0)"/><path d="M61.89,87.21a.77.77,0,0,0-1,.41.78.78,0,0,0,.4,1,.78.78,0,1,0,.63-1.43Z" transform="translate(0 0)"/><path d="M56.75,86.57a.55.55,0,0,0-.72.29.53.53,0,0,0,.27.7h0a.55.55,0,0,0,.72-.29.54.54,0,0,0-.29-.71Z" transform="translate(0 0)"/><path d="M48.26,84.22a.26.26,0,0,0-.2.48h0a.26.26,0,1,0,.2-.48Z" transform="translate(0 0)"/><path d="M52.33,85.7a.31.31,0,0,0-.39.16.3.3,0,0,0,.16.39.28.28,0,0,0,.38-.14v0A.31.31,0,0,0,52.33,85.7Z" transform="translate(0 0)"/><circle cx="13.17" cy="44.43" r="3.19"/><circle cx="7.22" cy="57" r="2.58"/><circle cx="5.98" cy="67.42" r="1.96"/><path d="M7.65,74.68a1.45,1.45,0,1,1-2.05,0h0A1.46,1.46,0,0,1,7.65,74.68Z" transform="translate(0 0)"/><path d="M9.25,81.92a1.09,1.09,0,0,1,0,1.54h0a1.14,1.14,0,1,1-.13-1.68A.8.8,0,0,1,9.25,81.92Z" transform="translate(0 0)"/><circle cx="10.73" cy="87.84" r="0.77"/><circle cx="13.26" cy="92.18" r="0.55"/><circle cx="18.83" cy="98.8" r="0.26"/><circle cx="15.91" cy="95.62" r="0.3"/><path d="M21.1,37.21a2.58,2.58,0,1,0-1.37-3.38h0a2.56,2.56,0,0,0,1.35,3.37Z" transform="translate(0 0)"/><circle cx="31.19" cy="29.37" r="1.96"/><path d="M38.54,28a1.55,1.55,0,1,0-.06,0Z" transform="translate(0 0)"/><path d="M45.9,26.71a1.1,1.1,0,0,0,.85-2,1.1,1.1,0,1,0-1.17,1.87A1.27,1.27,0,0,0,45.9,26.71Z" transform="translate(0 0)"/><path d="M51.74,26.42a.77.77,0,0,0,1-.41.78.78,0,0,0-.4-1,.78.78,0,0,0-.63,1.43Z" transform="translate(0 0)"/><path d="M56.88,27.06a.55.55,0,0,0,.72-.29.53.53,0,0,0-.27-.7h0a.55.55,0,0,0-.72.29.54.54,0,0,0,.29.71Z" transform="translate(0 0)"/><path d="M65.37,29.41a.26.26,0,0,0,.2-.48.26.26,0,1,0-.2.48Z" transform="translate(0 0)"/><path d="M61.3,27.93a.31.31,0,0,0,.39-.16.3.3,0,0,0-.16-.39.28.28,0,0,0-.38.14v0A.31.31,0,0,0,61.3,27.93Z" transform="translate(0 0)"/><circle cx="96.43" cy="34.72" r="3.19"/><circle cx="91.75" cy="21.62" r="2.58"/><circle cx="85.26" cy="13.38" r="1.96"/><circle cx="78.95" cy="7.96" r="1.45"/><path d="M72.7,5.43a1.1,1.1,0,1,1,1.09-1.11v0A1.09,1.09,0,0,1,72.7,5.43Z" transform="translate(0 0)"/><path d="M67.46,3.06a.77.77,0,1,1,.77-.77h0a.76.76,0,0,1-.75.77Z" transform="translate(0 0)"/><circle cx="62.61" cy="1.01" r="0.55"/><path d="M54,.53a.27.27,0,0,1-.21-.32A.27.27,0,0,1,54,0a.27.27,0,0,1,.27.26A.27.27,0,0,1,54,.53Z" transform="translate(0 0)"/><circle cx="58.3" cy="0.45" r="0.3"/><circle cx="96.9" cy="47.81" r="2.58"/><path d="M93.6,56.29a2,2,0,1,0,2.59,1.14l0-.06A2,2,0,0,0,93.6,56.29Z" transform="translate(0 0)"/><path d="M90.09,64.24A1.45,1.45,0,1,0,92,65,1.45,1.45,0,0,0,90.09,64.24Z" transform="translate(0 0)"/><path d="M85.82,70.38a1.1,1.1,0,0,0,.47,2.15,1.14,1.14,0,0,0,.36-.15,1.09,1.09,0,0,0,.61-1.4v0A1.11,1.11,0,0,0,85.82,70.38Z" transform="translate(0 0)"/><path d="M81.89,74.72a.78.78,0,0,0-.43,1,.77.77,0,1,0,1.43-.57h0A.77.77,0,0,0,81.89,74.72Z" transform="translate(0 0)"/><path d="M77.81,77.9a.55.55,0,0,0-.31.71.54.54,0,0,0,.71.31.53.53,0,0,0,.31-.71h0a.53.53,0,0,0-.7-.3Z" transform="translate(0 0)"/><path d="M70.14,82.24a.26.26,0,1,0,.2.49.26.26,0,1,0-.2-.49Z" transform="translate(0 0)"/><path d="M74.07,80.41a.3.3,0,0,0-.16.39.3.3,0,0,0,.41.1.29.29,0,0,0,.14-.32.3.3,0,0,0-.39-.17Z" transform="translate(0 0)"/><circle cx="17.2" cy="78.91" r="3.19"/><circle cx="21.88" cy="92" r="2.58"/><circle cx="28.37" cy="100.25" r="1.96"/><circle cx="34.68" cy="105.66" r="1.45"/><path d="M40.93,108.2a1.1,1.1,0,1,1-1.09,1.11v0A1.09,1.09,0,0,1,40.93,108.2Z" transform="translate(0 0)"/><path d="M46.17,110.57a.77.77,0,1,1-.77.77h0a.76.76,0,0,1,.75-.77Z" transform="translate(0 0)"/><circle cx="51.02" cy="112.62" r="0.55"/><path d="M59.65,113.1a.27.27,0,1,1-.27.27h0A.27.27,0,0,1,59.65,113.1Z" transform="translate(0 0)"/><circle cx="55.33" cy="113.18" r="0.3"/><path d="M17.69,68.21a2.58,2.58,0,1,0-3.36-1.43h0A2.58,2.58,0,0,0,17.69,68.21Z" transform="translate(0 0)"/><path d="M20,57.34a2,2,0,1,0-2.59-1.14l0,.06A2,2,0,0,0,20,57.34Z" transform="translate(0 0)"/><path d="M23.54,49.39a1.45,1.45,0,1,0-1.89-.8A1.46,1.46,0,0,0,23.54,49.39Z" transform="translate(0 0)"/><path d="M27.8,43.25a1.08,1.08,0,0,0,.77-1.33,1.09,1.09,0,0,0-1.33-.78,1.19,1.19,0,0,0-.26.11,1.09,1.09,0,0,0-.61,1.4v0A1.1,1.1,0,0,0,27.8,43.25Z" transform="translate(0 0)"/><path d="M31.74,38.91a.78.78,0,0,0,.43-1,.77.77,0,1,0-1.43.57h0A.77.77,0,0,0,31.74,38.91Z" transform="translate(0 0)"/><path d="M35.82,35.73a.55.55,0,0,0,.31-.71.54.54,0,0,0-.71-.31.53.53,0,0,0-.31.71h0a.53.53,0,0,0,.7.3Z" transform="translate(0 0)"/><path d="M43.49,31.39a.27.27,0,0,0,.15-.35.27.27,0,0,0-.5.2A.27.27,0,0,0,43.49,31.39Z" transform="translate(0 0)"/><path d="M39.56,33.22a.3.3,0,0,0,.16-.39.3.3,0,0,0-.41-.1.29.29,0,0,0-.14.32.3.3,0,0,0,.39.17Z" transform="translate(0 0)"/><circle cx="69.2" cy="13.17" r="3.19"/><circle cx="56.63" cy="7.22" r="2.58"/><circle cx="46.21" cy="5.98" r="1.96"/><path d="M39,7.65A1.45,1.45,0,1,1,39,5.6h0A1.46,1.46,0,0,1,39,7.65Z" transform="translate(0 0)"/><path d="M31.71,9.25a1.09,1.09,0,0,1-1.54,0h0a1.14,1.14,0,1,1,1.68-.13A.8.8,0,0,1,31.71,9.25Z" transform="translate(0 0)"/><circle cx="25.79" cy="10.73" r="0.77"/><circle cx="21.45" cy="13.26" r="0.55"/><circle cx="14.83" cy="18.83" r="0.26"/><path d="M18.22,16.12a.29.29,0,0,1-.42,0,.3.3,0,0,1,0-.42.3.3,0,0,1,.43,0h0a.29.29,0,0,1,0,.41Z" transform="translate(0 0)"/><path d="M76.42,21.1a2.58,2.58,0,1,0,3.38-1.37h0a2.56,2.56,0,0,0-3.37,1.35Z" transform="translate(0 0)"/><path d="M82.45,30.43a2,2,0,1,0,2.64-1l-.09,0A2,2,0,0,0,82.45,30.43Z" transform="translate(0 0)"/><path d="M85.59,38.54a1.45,1.45,0,1,0,2.64,1.19l0-.06a1.45,1.45,0,0,0-2.67-1.13Z" transform="translate(0 0)"/><path d="M86.92,45.9a1.1,1.1,0,0,0,2,.85,1.1,1.1,0,1,0-1.87-1.17A1.27,1.27,0,0,0,86.92,45.9Z" transform="translate(0 0)"/><circle cx="87.92" cy="52.05" r="0.77"/><path d="M86.57,56.88a.55.55,0,0,0,.29.72.53.53,0,0,0,.7-.27v0a.55.55,0,0,0-.29-.72.54.54,0,0,0-.71.29Z" transform="translate(0 0)"/><path d="M84.22,65.37a.26.26,0,1,0,.34-.14A.26.26,0,0,0,84.22,65.37Z" transform="translate(0 0)"/><path d="M85.7,61.3a.31.31,0,0,0,.16.39.3.3,0,0,0,.39-.16.28.28,0,0,0-.14-.38h0A.31.31,0,0,0,85.7,61.3Z" transform="translate(0 0)"/><circle cx="44.43" cy="100.46" r="3.19"/><circle cx="57" cy="106.41" r="2.58"/><circle cx="67.42" cy="107.65" r="1.96"/><path d="M74.68,106a1.45,1.45,0,1,1,0,2l0,0A1.46,1.46,0,0,1,74.68,106Z" transform="translate(0 0)"/><path d="M81.92,104.38a1.09,1.09,0,0,1,1.54,0h0a1.14,1.14,0,1,1-1.68.13A.8.8,0,0,1,81.92,104.38Z" transform="translate(0 0)"/><circle cx="87.84" cy="102.9" r="0.77"/><path d="M91.79,100a.55.55,0,1,1,0,.78A.56.56,0,0,1,91.79,100Z" transform="translate(0 0)"/><circle cx="98.8" cy="94.8" r="0.26"/><circle cx="95.62" cy="97.72" r="0.3"/><path d="M37.21,92.53a2.58,2.58,0,1,0-3.38,1.37h0a2.56,2.56,0,0,0,3.37-1.35Z" transform="translate(0 0)"/><path d="M31.18,83.2a2,2,0,1,0-2.66,1l.08,0A2,2,0,0,0,31.18,83.2Z" transform="translate(0 0)"/><circle cx="26.7" cy="74.53" r="1.45"/><path d="M26.71,67.73a1.1,1.1,0,0,0-2-.85,1.1,1.1,0,0,0,1.87,1.17A1.27,1.27,0,0,0,26.71,67.73Z" transform="translate(0 0)"/><path d="M26.42,61.89a.77.77,0,0,0-.41-1,.78.78,0,0,0-1,.4.78.78,0,1,0,1.43.63Z" transform="translate(0 0)"/><path d="M27.06,56.75a.55.55,0,0,0-.29-.72.53.53,0,0,0-.7.27v0a.55.55,0,0,0,.29.72.54.54,0,0,0,.71-.29Z" transform="translate(0 0)"/><path d="M29.41,48.26a.26.26,0,1,0-.48-.2h0a.26.26,0,0,0,.14.34A.27.27,0,0,0,29.41,48.26Z" transform="translate(0 0)"/><path d="M27.93,52.33a.31.31,0,0,0-.16-.39.3.3,0,0,0-.39.16.28.28,0,0,0,.14.38h0A.31.31,0,0,0,27.93,52.33Z" transform="translate(0 0)"/><circle cx="34.72" cy="17.2" r="3.19"/><circle cx="21.62" cy="21.87" r="2.58"/><circle cx="13.38" cy="28.37" r="1.96"/><circle cx="7.97" cy="34.68" r="1.45"/><path d="M5.43,40.93a1.1,1.1,0,1,1-1.11-1.09h0a1.09,1.09,0,0,1,1.09,1.09Z" transform="translate(0 0)"/><path d="M3.06,46.17a.77.77,0,1,1-.77-.77.76.76,0,0,1,.77.77Z" transform="translate(0 0)"/><path d="M1.56,51a.55.55,0,1,1-1.1,0A.56.56,0,0,1,1,50.47H1A.55.55,0,0,1,1.56,51Z" transform="translate(0 0)"/><path d="M.53,59.65a.27.27,0,0,1-.32.21A.27.27,0,0,1,0,59.65a.27.27,0,0,1,.26-.27.27.27,0,0,1,.27.27Z" transform="translate(0 0)"/><circle cx="0.45" cy="55.33" r="0.3"/><path d="M45.42,17.69a2.58,2.58,0,1,0,1.43-3.36h0A2.58,2.58,0,0,0,45.42,17.69Z" transform="translate(0 0)"/><path d="M56.29,20a2,2,0,1,0,1.14-2.59l-.06,0A2,2,0,0,0,56.29,20Z" transform="translate(0 0)"/><circle cx="65.58" cy="23" r="1.45"/><path d="M70.38,27.8a1.08,1.08,0,0,0,1.33.77,1.09,1.09,0,0,0,.78-1.33,1.19,1.19,0,0,0-.11-.26,1.09,1.09,0,0,0-1.4-.61h0A1.1,1.1,0,0,0,70.38,27.8Z" transform="translate(0 0)"/><path d="M74.72,31.74a.78.78,0,0,0,1,.43.77.77,0,1,0-.57-1.43h0A.77.77,0,0,0,74.72,31.74Z" transform="translate(0 0)"/><path d="M77.9,35.82a.55.55,0,0,0,.71.31.54.54,0,0,0,.31-.71.53.53,0,0,0-.71-.31h0a.53.53,0,0,0-.3.7Z" transform="translate(0 0)"/><path d="M82.24,43.49a.26.26,0,0,0,.49-.2.26.26,0,1,0-.49.2Z" transform="translate(0 0)"/><path d="M80.41,39.56a.3.3,0,0,0,.39.16.3.3,0,0,0,.1-.41.29.29,0,0,0-.32-.14.3.3,0,0,0-.17.39Z" transform="translate(0 0)"/><circle cx="78.91" cy="96.43" r="3.19"/><circle cx="92" cy="91.75" r="2.58"/><circle cx="100.25" cy="85.26" r="1.96"/><circle cx="105.66" cy="78.95" r="1.45"/><circle cx="109.29" cy="72.7" r="1.09"/><path d="M110.57,67.46a.77.77,0,1,1,.77.77h0a.76.76,0,0,1-.77-.75Z" transform="translate(0 0)"/><path d="M112.07,62.61a.55.55,0,1,1,.55.55.55.55,0,0,1-.55-.55Z" transform="translate(0 0)"/><path d="M113.1,54a.27.27,0,1,1,.27.27h0A.27.27,0,0,1,113.1,54Z" transform="translate(0 0)"/><circle cx="113.18" cy="58.3" r="0.3"/><circle cx="65.82" cy="96.9" r="2.58"/><path d="M57.34,93.6a2,2,0,1,0-1.14,2.59l.06,0A2,2,0,0,0,57.34,93.6Z" transform="translate(0 0)"/><circle cx="48.05" cy="90.63" r="1.45"/><path d="M43.25,85.83a1.08,1.08,0,0,0-1.33-.77,1.09,1.09,0,0,0-.78,1.33,1.19,1.19,0,0,0,.11.26,1.09,1.09,0,0,0,1.4.61h0A1.1,1.1,0,0,0,43.25,85.83Z" transform="translate(0 0)"/><path d="M38.91,81.89a.78.78,0,0,0-1-.43.77.77,0,1,0,.57,1.43h0A.77.77,0,0,0,38.91,81.89Z" transform="translate(0 0)"/><path d="M35.73,77.81A.55.55,0,0,0,35,77.5a.54.54,0,0,0-.31.71.53.53,0,0,0,.71.31h0a.53.53,0,0,0,.3-.7Z" transform="translate(0 0)"/><path d="M31.39,70.14a.26.26,0,1,0-.49.2.26.26,0,1,0,.49-.2Z" transform="translate(0 0)"/><path d="M33.22,74.07a.3.3,0,0,0-.39-.16.3.3,0,0,0-.1.41.29.29,0,0,0,.32.14.3.3,0,0,0,.17-.39Z" transform="translate(0 0)"/><path d="M76,69.14a1.23,1.23,0,1,1,1.69.43A1.23,1.23,0,0,1,76,69.14Z" transform="translate(0 0)"/><path d="M80.73,63.5a1,1,0,0,1,1.57-1.24,1,1,0,0,1,.14.24,1,1,0,0,1-1.71,1Z" transform="translate(0 0)"/><path d="M82.87,58.33a.73.73,0,1,1,1,.27A.75.75,0,0,1,82.87,58.33Z" transform="translate(0 0)"/><path d="M83.77,54a.58.58,0,0,1,1-.57.58.58,0,1,1-1,.57Z" transform="translate(0 0)"/><path d="M83.84,50.22a.41.41,0,0,1,.15-.57.42.42,0,1,1-.15.58Z" transform="translate(0 0)"/><path d="M83.47,47.3a.3.3,0,0,1,.1-.4h0A.29.29,0,0,1,84,47h0a.31.31,0,0,1-.11.41.29.29,0,0,1-.41-.1Z" transform="translate(0 0)"/><path d="M72,71.38A1,1,0,1,0,70.76,73,1,1,0,0,0,72,71.4Z" transform="translate(0 0)"/><path d="M66.59,73.14a.76.76,0,0,0-1.06.15.76.76,0,1,0,1.06-.15Z" transform="translate(0 0)"/><path d="M62.19,73.63a.56.56,0,1,0-.68.9.58.58,0,0,0,.79-.11A.57.57,0,0,0,62.19,73.63Z" transform="translate(0 0)"/><path d="M58.38,73.33a.44.44,0,0,0-.6.08.42.42,0,0,0,.09.59h0a.42.42,0,0,0,.58-.06v0A.43.43,0,0,0,58.38,73.33Z" transform="translate(0 0)"/><path d="M55.45,72.7a.3.3,0,1,0,.06.42h0A.3.3,0,0,0,55.45,72.7Z" transform="translate(0 0)"/><path d="M53,71.71a.21.21,0,0,0-.29,0,.22.22,0,0,0,0,.3h0A.21.21,0,0,0,53,72a.22.22,0,0,0,0-.3h0Z" transform="translate(0 0)"/><path d="M49.07,69.44a.1.1,0,0,0-.14,0h0a.1.1,0,0,0,.14.14A.1.1,0,0,0,49.07,69.44Z" transform="translate(0 0)"/><path d="M50.91,70.7a.11.11,0,0,0-.16,0h0a.11.11,0,0,0,.18.14A.11.11,0,0,0,50.91,70.7Z" transform="translate(0 0)"/><path d="M37.66,44.49A1.23,1.23,0,1,1,36,44.06,1.23,1.23,0,0,1,37.66,44.49Z" transform="translate(0 0)"/><path d="M32.9,50.13a1,1,0,0,1-1.57,1.24,1,1,0,0,1-.14-.24,1,1,0,0,1,1.71-1Z" transform="translate(0 0)"/><path d="M30.76,55.3a.73.73,0,1,1-1-.27A.75.75,0,0,1,30.76,55.3Z" transform="translate(0 0)"/><path d="M29.86,59.62a.58.58,0,0,1-1,.57.58.58,0,1,1,1-.57Z" transform="translate(0 0)"/><path d="M29.79,63.41a.41.41,0,0,1-.15.57.42.42,0,1,1,.15-.58Z" transform="translate(0 0)"/><path d="M30.16,66.33a.3.3,0,0,1-.1.4h0a.31.31,0,0,1-.41-.1.3.3,0,1,1,.52-.3Z" transform="translate(0 0)"/><path d="M41.67,42.25a1,1,0,0,0,1.4-1.43,1,1,0,0,0-.2-.15,1,1,0,1,0-1.2,1.58Z" transform="translate(0 0)"/><path d="M47,40.49a.76.76,0,1,0-.15-1.07A.77.77,0,0,0,47,40.49Z" transform="translate(0 0)"/><path d="M51.44,40a.56.56,0,1,0,.68-.9h0a.58.58,0,0,0-.79.11A.57.57,0,0,0,51.44,40Z" transform="translate(0 0)"/><path d="M55.25,40.3a.44.44,0,0,0,.6-.08.42.42,0,0,0-.09-.59h0a.42.42,0,0,0-.58.06v0A.43.43,0,0,0,55.25,40.3Z" transform="translate(0 0)"/><circle cx="58.36" cy="40.69" r="0.3"/><path d="M60.65,41.92a.21.21,0,0,0,.29,0,.22.22,0,0,0,0-.3h0a.2.2,0,0,0-.29.05.21.21,0,0,0,0,.29Z" transform="translate(0 0)"/><path d="M64.56,44.19a.1.1,0,0,0,.14,0h0a.1.1,0,0,0-.14-.14A.1.1,0,0,0,64.56,44.19Z" transform="translate(0 0)"/><path d="M62.72,42.93a.11.11,0,0,0,.16,0h0a.11.11,0,0,0-.18-.14h0A.11.11,0,0,0,62.72,42.93Z" transform="translate(0 0)"/><path d="M79.08,52a1.23,1.23,0,1,1,.44-2.42l.16,0A1.23,1.23,0,0,1,79.24,52Z" transform="translate(0 0)"/><path d="M78.45,44.63a1,1,0,1,1,1.21-.73h0A1,1,0,0,1,78.45,44.63Z" transform="translate(0 0)"/><path d="M76.31,39.47a.77.77,0,0,1-.55-.93.76.76,0,1,1,.55.93Z" transform="translate(0 0)"/><path d="M73.89,35.77a.55.55,0,0,1-.41-.65v0a.56.56,0,0,1,.68-.41h0a.55.55,0,0,1,.4.68.53.53,0,0,1-.66.4Z" transform="translate(0 0)"/><path d="M71.27,33a.42.42,0,0,1-.31-.51h0a.42.42,0,0,1,.82.21h0A.42.42,0,0,1,71.27,33Z" transform="translate(0 0)"/><path d="M68.94,31.24a.3.3,0,0,1-.22-.36.31.31,0,0,1,.37-.22.29.29,0,0,1,.21.35h0A.3.3,0,0,1,68.94,31.24Z" transform="translate(0 0)"/><path d="M77.82,56.4a1,1,0,1,0,1.13.87A1,1,0,0,0,77.82,56.4Z" transform="translate(0 0)"/><circle cx="75.38" cy="62.19" r="0.76"/><path d="M72.51,64.91a.56.56,0,0,0-.48.63h0a.56.56,0,0,0,1.11-.15.55.55,0,0,0-.61-.48Z" transform="translate(0 0)"/><path d="M69.6,67.39a.41.41,0,0,0-.36.47.42.42,0,0,0,.47.37.43.43,0,0,0,.36-.48A.42.42,0,0,0,69.6,67.39Z" transform="translate(0 0)"/><path d="M67.08,69a.3.3,0,1,0,.08.6h0a.32.32,0,0,0,.26-.34A.33.33,0,0,0,67.08,69Z" transform="translate(0 0)"/><path d="M64.64,70.06a.2.2,0,0,0-.18.22v0a.21.21,0,0,0,.42-.06.21.21,0,0,0-.24-.18Z" transform="translate(0 0)"/><path d="M60.26,71.22a.12.12,0,0,0-.09.11.09.09,0,0,0,.11.09h0a.1.1,0,0,0,.08-.11.09.09,0,0,0-.09-.09Z" transform="translate(0 0)"/><path d="M62.45,70.81a.11.11,0,0,0-.1.12h0a.13.13,0,0,0,.13.1.12.12,0,0,0,.08-.15.11.11,0,0,0-.08-.08Z" transform="translate(0 0)"/><path d="M34.55,61.65a1.23,1.23,0,0,1,1.19,1.27A1.23,1.23,0,0,1,34,64a1.23,1.23,0,0,1,.44-2.42l.16,0Z" transform="translate(0 0)"/><circle cx="34.94" cy="69.98" r="0.99"/><path d="M37.32,74.16a.77.77,0,0,1,.55.93.76.76,0,1,1-.55-.93Z" transform="translate(0 0)"/><path d="M39.74,77.86a.55.55,0,0,1,.41.65v0a.56.56,0,0,1-.68.41h0a.55.55,0,0,1-.4-.68.53.53,0,0,1,.66-.4Z" transform="translate(0 0)"/><path d="M42.36,80.59a.42.42,0,0,1,.31.51h0a.42.42,0,0,1-.82-.21h0A.42.42,0,0,1,42.36,80.59Z" transform="translate(0 0)"/><path d="M44.69,82.39a.3.3,0,0,1,.22.36.31.31,0,0,1-.37.22.29.29,0,0,1-.21-.35h0A.3.3,0,0,1,44.69,82.39Z" transform="translate(0 0)"/><path d="M35.81,57.23a1,1,0,1,0-1.13-.87A1,1,0,0,0,35.81,57.23Z" transform="translate(0 0)"/><path d="M38.36,52.18a.76.76,0,1,0-.21-1.5.75.75,0,0,0-.65.85.76.76,0,0,0,.86.65Z" transform="translate(0 0)"/><path d="M41.12,48.72a.56.56,0,0,0,.48-.63h0a.56.56,0,1,0-1.11.15.55.55,0,0,0,.61.48Z" transform="translate(0 0)"/><path d="M44,46.24a.41.41,0,0,0,.36-.47.42.42,0,0,0-.47-.37h0a.43.43,0,0,0-.36.48A.42.42,0,0,0,44,46.24Z" transform="translate(0 0)"/><path d="M46.55,44.62a.3.3,0,0,0-.08-.6.32.32,0,0,0-.26.34A.33.33,0,0,0,46.55,44.62Z" transform="translate(0 0)"/><path d="M49,43.57a.2.2,0,0,0,.18-.22v0a.21.21,0,0,0-.42.06.21.21,0,0,0,.24.18Z" transform="translate(0 0)"/><path d="M53.37,42.41a.12.12,0,0,0,.09-.11.09.09,0,0,0-.11-.09h0a.1.1,0,0,0-.08.11.09.09,0,0,0,.09.09Z" transform="translate(0 0)"/><path d="M51.18,42.82a.11.11,0,0,0,.1-.12h0a.13.13,0,0,0-.13-.1.12.12,0,1,0-.07.23h.1Z" transform="translate(0 0)"/><circle cx="68.51" cy="36.59" r="1.23"/><path d="M63.5,32.9a1,1,0,0,1-1.24-1.57,1,1,0,0,1,.24-.14,1,1,0,0,1,1,1.71Z" transform="translate(0 0)"/><path d="M58.33,30.76a.73.73,0,1,1,.27-1A.75.75,0,0,1,58.33,30.76Z" transform="translate(0 0)"/><path d="M54,29.86a.58.58,0,0,1-.57-1,.58.58,0,1,1,.57,1Z" transform="translate(0 0)"/><path d="M50.22,29.79a.41.41,0,0,1-.57-.15.42.42,0,1,1,.58.15Z" transform="translate(0 0)"/><path d="M47.3,30.16a.3.3,0,0,1-.4-.1h0a.31.31,0,0,1,.1-.41.3.3,0,0,1,.3.52Z" transform="translate(0 0)"/><path d="M71.38,41.67a1,1,0,1,0,1.43-.2,1,1,0,0,0-1.4.17Z" transform="translate(0 0)"/><path d="M73.14,47a.76.76,0,0,0,.15,1.06A.76.76,0,1,0,73.14,47Z" transform="translate(0 0)"/><path d="M73.63,51.44a.56.56,0,1,0,.9.68.58.58,0,0,0-.11-.79A.57.57,0,0,0,73.63,51.44Z" transform="translate(0 0)"/><path d="M73.33,55.25a.44.44,0,0,0,.08.6.42.42,0,0,0,.59-.09h0a.42.42,0,0,0-.06-.58h0A.43.43,0,0,0,73.33,55.25Z" transform="translate(0 0)"/><path d="M72.7,58.18a.3.3,0,1,0,.42-.06h0A.3.3,0,0,0,72.7,58.18Z" transform="translate(0 0)"/><path d="M71.71,60.65a.21.21,0,0,0,0,.29.22.22,0,0,0,.3,0h0a.21.21,0,0,0,0-.29.22.22,0,0,0-.3,0Z" transform="translate(0 0)"/><path d="M69.44,64.56a.1.1,0,0,0,0,.14h0a.1.1,0,0,0,.14-.14A.1.1,0,0,0,69.44,64.56Z" transform="translate(0 0)"/><path d="M70.7,62.72a.11.11,0,0,0,0,.16h0a.11.11,0,1,0,.14-.18A.11.11,0,0,0,70.7,62.72Z" transform="translate(0 0)"/><path d="M44.49,76a1.23,1.23,0,1,1-.43,1.69A1.23,1.23,0,0,1,44.49,76Z" transform="translate(0 0)"/><path d="M50.13,80.73a1,1,0,0,1,1.24,1.57,1,1,0,0,1-.24.14,1,1,0,0,1-1-1.71Z" transform="translate(0 0)"/><path d="M55.3,82.87a.73.73,0,1,1-.27,1A.75.75,0,0,1,55.3,82.87Z" transform="translate(0 0)"/><path d="M59.62,83.77a.58.58,0,0,1,.57,1,.58.58,0,1,1-.57-1Z" transform="translate(0 0)"/><path d="M63.41,83.84A.41.41,0,0,1,64,84a.42.42,0,1,1-.58-.15Z" transform="translate(0 0)"/><path d="M66.33,83.47a.3.3,0,0,1,.4.1h0a.31.31,0,0,1-.1.41.3.3,0,0,1-.3-.52Z" transform="translate(0 0)"/><path d="M42.25,72a1,1,0,1,0-1.39.2A1,1,0,0,0,42.25,72Z" transform="translate(0 0)"/><path d="M40.49,66.59a.76.76,0,1,0-1.07.15A.77.77,0,0,0,40.49,66.59Z" transform="translate(0 0)"/><path d="M40,62.19a.56.56,0,1,0-.9-.68h0a.58.58,0,0,0,.11.79A.57.57,0,0,0,40,62.19Z" transform="translate(0 0)"/><path d="M40.3,58.38a.44.44,0,0,0-.08-.6.42.42,0,0,0-.59.09h0a.42.42,0,0,0,.06.58h0A.43.43,0,0,0,40.3,58.38Z" transform="translate(0 0)"/><path d="M40.93,55.45a.3.3,0,1,0-.42.06h0A.3.3,0,0,0,40.93,55.45Z" transform="translate(0 0)"/><path d="M41.92,53a.21.21,0,0,0,0-.29.22.22,0,0,0-.3,0h0a.2.2,0,0,0,.05.29A.21.21,0,0,0,42,53h0Z" transform="translate(0 0)"/><path d="M44.19,49.07a.1.1,0,0,0,0-.14h0a.1.1,0,0,0-.14.14A.1.1,0,0,0,44.19,49.07Z" transform="translate(0 0)"/><path d="M42.93,50.91a.11.11,0,0,0,0-.16h0a.11.11,0,1,0-.14.18h0A.11.11,0,0,0,42.93,50.91Z" transform="translate(0 0)"/><path d="M52,34.55A1.23,1.23,0,1,1,49.6,34a1.23,1.23,0,0,1,2.38.6Z" transform="translate(0 0)"/><path d="M44.63,35.18A1,1,0,1,1,43.87,34h0A1,1,0,0,1,44.63,35.18Z" transform="translate(0 0)"/><path d="M39.47,37.32a.77.77,0,0,1-.93.55.76.76,0,1,1,.93-.55Z" transform="translate(0 0)"/><circle cx="35.23" cy="39.6" r="0.56"/><path d="M33,42.36a.42.42,0,0,1-.51.31h0a.42.42,0,0,1,.21-.82A.42.42,0,0,1,33,42.36Z" transform="translate(0 0)"/><path d="M31.24,44.69a.3.3,0,0,1-.36.22.31.31,0,0,1-.22-.37.29.29,0,0,1,.35-.21h0A.3.3,0,0,1,31.24,44.69Z" transform="translate(0 0)"/><path d="M56.4,35.81a1,1,0,1,0,.87-1.13A1,1,0,0,0,56.4,35.81Z" transform="translate(0 0)"/><path d="M61.45,38.36a.76.76,0,1,0,1.5-.21.75.75,0,0,0-.85-.65.76.76,0,0,0-.65.86Z" transform="translate(0 0)"/><path d="M64.91,41.12a.56.56,0,0,0,.63.48h0A.55.55,0,0,0,66,41a.57.57,0,0,0-.64-.48A.55.55,0,0,0,64.91,41.12Z" transform="translate(0 0)"/><path d="M67.39,44a.41.41,0,0,0,.47.36.42.42,0,0,0,.37-.47.43.43,0,0,0-.48-.36A.42.42,0,0,0,67.39,44Z" transform="translate(0 0)"/><path d="M69,46.55a.3.3,0,1,0,.6-.08.32.32,0,0,0-.34-.26A.33.33,0,0,0,69,46.55Z" transform="translate(0 0)"/><path d="M70.06,49a.2.2,0,0,0,.22.18h0a.21.21,0,0,0-.06-.42.21.21,0,0,0-.18.24Z" transform="translate(0 0)"/><path d="M71.22,53.37a.12.12,0,0,0,.11.09.09.09,0,0,0,.09-.11h0a.1.1,0,0,0-.11-.08.09.09,0,0,0-.09.09Z" transform="translate(0 0)"/><path d="M70.81,51.18a.11.11,0,0,0,.12.1h0a.13.13,0,0,0,.1-.13.12.12,0,0,0-.15-.08.11.11,0,0,0-.08.08Z" transform="translate(0 0)"/><circle cx="62.84" cy="79.38" r="1.23"/><path d="M69,78.45a1,1,0,1,1,.73,1.21h0A1,1,0,0,1,69,78.45Z" transform="translate(0 0)"/><path d="M74.16,76.31a.77.77,0,0,1,.93-.55.76.76,0,1,1-.93.55Z" transform="translate(0 0)"/><path d="M77.86,73.89a.55.55,0,0,1,.65-.41h0a.56.56,0,0,1,.41.68h0a.55.55,0,0,1-.68.4.53.53,0,0,1-.4-.66Z" transform="translate(0 0)"/><path d="M80.59,71.27A.42.42,0,0,1,81.1,71a.42.42,0,0,1-.21.82.41.41,0,0,1-.31-.5A.07.07,0,0,1,80.59,71.27Z" transform="translate(0 0)"/><path d="M82.39,68.94a.3.3,0,0,1,.36-.22.31.31,0,0,1,.22.37.29.29,0,0,1-.35.21h0A.3.3,0,0,1,82.39,68.94Z" transform="translate(0 0)"/><path d="M57.23,77.82A1,1,0,1,0,56.36,79,1,1,0,0,0,57.23,77.82Z" transform="translate(0 0)"/><path d="M52.18,75.27a.76.76,0,1,0-1.5.21.75.75,0,0,0,.85.65.76.76,0,0,0,.65-.86Z" transform="translate(0 0)"/><circle cx="48.17" cy="72.58" r="0.56"/><path d="M46.24,69.6a.41.41,0,0,0-.47-.36.42.42,0,0,0-.37.47.43.43,0,0,0,.48.36A.42.42,0,0,0,46.24,69.6Z" transform="translate(0 0)"/><path d="M44.62,67.08a.3.3,0,0,0-.6.08.32.32,0,0,0,.34.26A.33.33,0,0,0,44.62,67.08Z" transform="translate(0 0)"/><path d="M43.57,64.64a.2.2,0,0,0-.22-.18h0a.21.21,0,1,0,.06.42.21.21,0,0,0,.18-.24Z" transform="translate(0 0)"/><path d="M42.41,60.26a.12.12,0,0,0-.11-.09.09.09,0,0,0-.09.11h0a.1.1,0,0,0,.11.08.09.09,0,0,0,.09-.09Z" transform="translate(0 0)"/><path d="M42.82,62.45a.11.11,0,0,0-.12-.1h0a.13.13,0,0,0-.1.13.12.12,0,0,0,.15.08.11.11,0,0,0,.08-.08Z" transform="translate(0 0)"/></g></svg>