<svg id="a7705721-dfc8-42de-98c4-54c844273626" data-name="Layer 1" xmlns="http://www.w3.org/2000/svg" viewBox="0 0 127.58 128.29"><title>12u</title><g id="ab6e3443-d5e2-4909-b4f0-b3db4582637a" data-name="shapes"><path d="M121,65.82l-6-.27h6.6l-1.3-.06-3.67-.16-3.6-.14h3.79c-.8,0-2-.09-3.44-.14l-4.86-.17h11.82l-3.67-.11L111,64.45l-4.69-.12h.08l5.15-.09c1.42,0,2.55-.06,3.31-.07h-1.58L117.7,64l3.74-.09h0l-3.74,0h-7.21l2.89-.09c1.48,0,2.65-.09,3.44-.12h-6l1.63-.06c1.46-.05,2.6-.11,3.38-.14l1.2-.05h-7.83l3.15-.16h-1l1-.05,1.11-.06H109l3.54-.18,5.89-.3,3.79-.2L123.6,62h-1.35l-3.8.07-5.89.12h-2.24l2.14-.13,3.38-.22,1.19-.08h-1.2l-3.38.07-2.38.07,2.06-.15,1.1-.08h-1.11l-2.85.08,2.85-.22,1.1-.08h-1.11c-.72,0-1.78,0-3.14.09l-2.67.09h.53l-3.7.11L99.68,62h.69l6.79-.57,5.23-.45,3.37-.3,1.19-.11-1.19.06c-.78,0-1.93.08-3.38.16l-5.25.27-1.27.06.65-.06,5.15-.49c1.43-.13,2.56-.25,3.32-.33l1.17-.12-1.17.07-3.33.19-5.17.31-1.9.12,4.5-.48c1.36-.14,2.42-.27,3.14-.35l1.11-.12-1.11.07-1.16.07,2.11-.24,1.13-.13-1.14.08-3.21.22-5,.37-1.93.14,4.69-.54,8.16-1,6.28-.75,4-.5,1.43-.17-1.44.12-4.06.35-6.3.58-8.17.75-1.62.16,1.87-.25,3-.42,1.08-.16-.64.06,1.44-.2,1.12-.16-1.13.11-3,.28,1.62-.24,1.09-.16-1.1.11c-.72.07-1.77.16-3.1.3l-4.42.45,1-.15,2.85-.43,1-.16-1,.1-1.3.13,1.29-.2,1-.16-.62.06,1.38-.2,3.16-.5,1.12-.18-1.12.13-3.19.35-5,.58h-.22l.38-.06,4.93-.79,3.18-.53L114,57l-1.13.14h-.12l1.56-.25,6.09-1,3.92-.66L125.7,55l-1.28.17,1.44-.24,1.42-.24-1.43.18-4,.54-6.28.84-8.13,1.12-6.51.91,1.53-.29-1,.12,4.59-.84,5.09-1c1.41-.25,2.52-.47,3.27-.62l1.16-.22-1.17.17h-.21l.31-.06-1.15.17-3.23.47-5,.76c-1.75.26-3.71.55-5.82.88l2.92-.61-1.88.28,1.09-.23L105,56.6l-2.5.4,3.75-.79,5.11-1.07c1.41-.29,2.52-.54,3.28-.7l1.17-.26-1.18.2-1.95.33.48-.1,1.12-.25-1.13.2-1.68.28,3.26-.71,1.16-.26-1.17.2-2.88.51,2.78-.63,1.16-.26-1.17.21c-.76.14-1.89.33-3.31.6l-.38.07.65-.15-1.08.19-.88.16,1.67-.38c1.41-.31,2.52-.58,3.28-.75l1.16-.27-.56.1,2.61-.6,1.23-.29-1.24.23-3.52.67-2.15.42,2.63-.63,1.17-.28-1.18.23-3.32.64-5.15,1L100.64,56l1.68-.4c2.62-.63,5-1.23,7.13-1.75l5.5-1.36,3.53-.89,1.25-.32-1.26.27-1.48.31h.09l3.68-.93,1.3-.33-1.32.28-3.71.8-5.76,1.25-3,.66,1-.26,3.14-.83,1.11-.3-1.12.25-1.82.39,4.08-1.07,6.12-1.62L124.7,49l1.39-.37-1.41.32-4,.91-6.16,1.45L108,52.84l2-.55c1.37-.37,2.45-.69,3.18-.89l1.13-.32-1.14.27c-.74.17-1.84.42-3.22.76l-5,1.2-6.48,1.57L93.55,56.1c2.43-.72,4.48-1.35,6-1.83l3.34-1-.36.09L103.6,53l4.78-1.45c1.33-.4,2.37-.73,3.08-1l1.08-.34-1.1.29c-.72.19-1.77.45-3.11.81l-3.11.83,2.47-.79,1-.32-1,.27-2.73.72,5.63-1.77,5.62-1.77,3.62-1.16,1.28-.41-1.3.36-3.65,1L110.49,50l-3.23.91,2.45-.81,1-.35-1.06.3c-.69.19-1.71.47-3,.85L102,52.23l-5.25,1.52.87-.31-2.16.61c1.11-.38,2.09-.73,2.93-1l3.22-1.15-1.52.45,3.52-1.24,4.78-1.69c1.33-.46,2.36-.85,3.07-1.1l1.09-.39-1.1.34-2.55.79.38-.14,1-.38-1.06.33-2.77.86,3.37-1.22c1.38-.49,2.45-.89,3.18-1.16l1.12-.41L113,47.3l-3.22,1-5,1.62L98.37,52l-1.08.36,4.38-1.64,7-2.64,5.39-2,3.46-1.33,1.23-.47-1.25.42L114,45.88l-5.44,1.88c-2.07.72-4.41,1.52-6.94,2.41l-.91.31.78-.3c2.55-1,4.88-1.93,6.94-2.75l5.36-2.13,3.44-1.38,1.22-.49-1.24.44-3.49,1.25-1,.37.68-.27-1.12.4c-.73.26-1.81.64-3.17,1.14l-4.92,1.78-3.48,1.27h.07L105.2,48l2.84-1.2,1-.42-1,.37c-.67.25-1.65.6-2.89,1.07l-3.9,1.46.28-.12c2.55-1.07,4.88-2.06,6.94-3l5.35-2.28,3.44-1.48,1.22-.52-1.24.47-3.49,1.35-5.42,2.12c-2.09.82-4.45,1.74-7,2.76l-4,1.59,1-.47-.68.26,1.24-.56L97.22,50c2.18-1,4.18-1.88,6-2.68l4.72-2.14,3-1.39L112,43.3l-1.1.44L107.81,45l-4.15,1.72.57-.26c2.73-1.25,5.23-2.41,7.45-3.44l5.75-2.66,3.69-1.72,1.3-.61-1.32.56-3.75,1.6-5.82,2.5-4.59,2,2.52-1.21,1-.5-1.06.45-3,1.28-4.1,1.78c1-.48,1.77-.88,2.32-1.14l.93-.46-1,.41-.83.35.26-.12c1.19-.58,2.13-1,2.76-1.37l1-.48-1,.43L104,45.32h-.06L108.65,43l3.08-1.54,1.09-.55-1.11.5-3.14,1.41-.15.07,1.43-.71,5.52-2.76,3.55-1.79,1.25-.63-1.27.58-3.61,1.66-5.6,2.6-6.14,2.86,1.55-.8,5-2.55c1.37-.7,2.44-1.27,3.17-1.65l1.13-.59-1.15.54c-.75.36-1.85.86-3.24,1.53l-2.69,1.28,3.33-1.74,5.61-2.94,3.61-1.9,1.27-.67-1.3.63-3.66,1.77c-1.58.77-3.5,1.7-5.69,2.78s-4.68,2.27-7.37,3.61L99.7,45.68l-.37.18,1.07-.58,4.37-2.39c1.22-.65,2.16-1.19,2.81-1.54l1-.55-1,.5-2.88,1.42L100.23,45l-.44.22.87-.49,4.41-2.45c1.22-.68,2.17-1.23,2.82-1.6l1-.56-1,.52L105,42.06l-4.48,2.29L98,45.64l.62-.36,4.16-2.39c1.15-.65,2-1.18,2.67-1.54l.94-.55-1,.5-2.73,1.43L98.44,45l-3.09,1.63.26-.16,2.94-1.76-3,1.59c-1.64.86-3.87,2-6.52,3.48l3.83-2.32c2-1.18,3.74-2.28,5.32-3.25l4.1-2.52c1.14-.69,2-1.25,2.63-1.63l.93-.58-1,.53c-.62.35-1.54.85-2.7,1.51L98,43.84l-1.23.69,1-.64-3,1.66-1.1.61.53-.34-.63.35,1.11-.7c2.08-1.31,4-2.53,5.67-3.61l4.36-2.79c1.21-.77,2.15-1.39,2.8-1.81l1-.64-1,.6-.67.39.48-.31-1,.58-2.8,1.64-1.29.77,4.86-3.15,5.17-3.36,3.32-2.18,1.18-.77-1.21.73-3.14,1.9.3-.2-1.12.67-3.14,1.91-4.86,3c-1.88,1.15-4,2.44-6.31,3.87l-4,2.46.21-.15c2-1.34,3.83-2.59,5.44-3.69l4.19-2.86c1.17-.79,2.07-1.43,2.69-1.85l1-.66h0l.11-.07c1.28-.87,2.27-1.57,3-2l1-.72-1.07.67c-.7.44-1.73,1.08-3,1.92l-4.69,3c-1.81,1.15-3.85,2.45-6.07,3.89l-1.17.75L99.58,40l4.27-3,2.73-2,1-.69-1,.65-2.81,1.84-3.65,2.4h.06l-3.18,2-.3.2,2.61-1.9,4.22-3.07c1.18-.84,2.09-1.52,2.71-2l1-.71-1,.67-.55.36.26-.19-1,.64c-.62.42-1.55,1-2.71,1.82L98,39.92l-1.76,1.19c1-.7,1.86-1.38,2.7-2L103.15,36c1.16-.86,2.07-1.56,2.69-2l1-.72-1,.68c-.64.44-1.58,1.07-2.77,1.9l-2.83,2c1.05-.78,1.86-1.42,2.42-1.84l.88-.67-.91.62L100,37.67l-3.2,2.24c.43-.33.84-.65,1.25-.95l4.07-3.14c1.14-.87,2-1.57,2.62-2l.93-.72-1,.67L102,35.69l-4.19,3c-1.24.89-2.62,1.87-4.09,2.94l2-1.58,3.79-3,2.29-1.83.14-.11c1.13-.89,2-1.6,2.6-2.08l.92-.74-1,.69-.67.49,2-1.47,2.87-2.29,1-.82-.6.45.24-.19-1,.76-3,2.09-4.53,3.39-2.4,1.79,3.86-3.13,4.58-3.73L109.72,28l1-.85-1.07.81-3,2.3-4,3h0l-.89.67c-.58.45-1.44,1.08-2.51,1.91l-3.9,3-.91.7L96.5,37.8c1-.81,1.71-1.46,2.23-1.89l.78-.68-.28.22,3-2.52c1.14-.95,2-1.71,2.62-2.23l.93-.79-1,.75c-.62.49-1.55,1.2-2.71,2.12L98,36.06l-.8.63,2.23-1.92c1-.9,1.86-1.62,2.42-2.1l.86-.75-.78.62.35-.31.87-.76-.9.72-2.54,2h0l-.83.65c-.53.43-1.33,1-2.32,1.85L93,39.58l-.12.1,2-1.8h0l2.77-2.45,2.3-2.06.81-.72-.85.68-2.39,2-3.7,3-.37.3,1-1,.83-.75.37-.34,2.44-2.2,2.33-2.13.83-.75-.86.71-2.43,2-1,.89L99.23,33l4.21-3.85c1.17-1.07,2.07-1.92,2.7-2.49l1-.88-1,.84L103.31,29,99,32.75l-.47.4.68-.63.79-.75-.83.71L98.6,33l3.53-3.3c1.13-1.05,2-1.89,2.61-2.46l.92-.87-1,.83c-.62.55-1.54,1.33-2.7,2.35l-1.48,1.3.49-.47.84-.8-.16.14.15-.15-.87.76-1.29,1.13,3.51-3.34c1.16-1.09,2.06-2,2.68-2.56l1-.91-1,.87L103,28l-4.3,3.84-5.57,5h0l2.16-2.12C96.78,33.26,98,32,99.07,31s1.84-1.82,2.39-2.36l.85-.84-.88.8c-.58.52-1.43,1.28-2.49,2.26L95.08,34.4l-.76.69L96,33.42,93.14,36l-2.26,2.07,1.4-1.42,3.37-3.41c.93-.94,1.66-1.69,2.15-2.2l.77-.78-.8.74-2.26,2.1-2.13,2c1.69-1.71,3.23-3.3,4.62-4.72l4.06-4.17,2.6-2.69.92-.95-1,.91c-.62.6-1.53,1.48-2.7,2.59l-4.18,4L95,32.68l.62-.65,1.22-1.29L100,27.49l2.46-2.6.87-.93-.91.89-2.56,2.5-.55.55,1.07-1.14c1.68-1.77,3.14-3.32,4.34-4.6l2.79-3,1-1.05-1,1L104.63,22l-4.48,4.47-.65.66,1.35-1.45c1.09-1.17,1.93-2.1,2.52-2.73l.88-1-.92.92c-.61.61-1.5,1.49-2.62,2.63l-4,4.1C95.09,31.25,93.32,33,91.41,35l-.19.19,1.49-1.67-.65.65,2.69-3c.91-1,1.61-1.8,2.09-2.34l.74-.83-.78.79c-.5.52-1.25,1.27-2.19,2.25l-1.56,1.61.93-1,2-2.31.72-.82-.76.78c-.5.51-1.23,1.26-2.14,2.22l-.94,1,.27-.3,3.46-3.95c1-1.09,1.71-2,2.23-2.55l.78-.9-.82.86-2.33,2.46L92.85,32l-3.14,3.34.86-1c1.8-2.07,3.43-4,4.87-5.66l3.75-4.38c1-1.21,1.85-2.17,2.4-2.83l.85-1-.89,1c-.58.63-1.43,1.55-2.5,2.73l-3.88,4.26-.38.42.06-.07,3.67-4.37,2.36-2.81.83-1-.87,1c-.57.63-1.41,1.55-2.46,2.73l-3.81,4.24c-1.25,1.4-2.64,2.94-4.13,4.62l1.44-1.75,3.31-4.05c.92-1.12,1.63-2,2.12-2.61l.75-.92-.79.89-1.93,2.18,1.31-1.63.74-.92-.78.88c-.5.58-1.25,1.41-2.18,2.49L91,31.63l-.18.21,2-2.48c.85-1.06,1.5-1.9,2-2.47l.7-.88-.53.6.4-.5.7-.89-.74.86-1.25,1.43.55-.68,2.08-2.65.73-.94-.77.9c-.51.59-1.26,1.46-2.19,2.56l-2.67,3.15L93.34,28l3.49-4.46c1-1.24,1.71-2.22,2.23-2.88l.78-1-.83,1-2.33,2.8-3.62,4.35-3.14,3.78.81-1.07,3.17-4.17c.88-1.15,1.56-2.06,2-2.68l.72-1-.76.92L93.71,26c-.91,1.13-2,2.49-3.3,4.06s-2.71,3.33-4.27,5.26l-.4.5h0c-.26.33-.55.69-.87,1.07l.32-.44,1.18-1.63.22-.3c1.51-2,2.88-3.93,4.1-5.59S93,25.8,93.85,24.61l2-2.79.71-1-.23.29.74-1,.74-1-.79,1c-.51.65-1.26,1.59-2.21,2.81l-3.1,4,.56-.79.63-.89-.68.86c-.43.56-1.08,1.38-1.9,2.43l-2,2.54L90,28.68l-.84,1.08c.29-.42.58-.82.85-1.22l3.08-4.37c.86-1.21,1.52-2.17,2-2.82l.7-1-.74,1-.17.22.07-.09,2.1-3,.74-1.06-.78,1c-.51.68-1.27,1.66-2.22,2.93L93.44,23.1l1.85-2.67c.92-1.32,1.64-2.37,2.13-3.08l.75-1.09-.8,1.06-2.23,3L94,21.81l3-4.24c1-1.41,1.72-2.53,2.24-3.28l.79-1.16-.84,1.13-2.35,3.2-3.64,5-3,4.14,1.46-2.19c.82-1.2,1.44-2.16,1.87-2.81l.66-1-.7,1-2,2.73-3.07,4.25-4,5.52-1.1,1.54c1.15-1.75,2.19-3.37,3.12-4.82s1.92-3,2.65-4.1,1.3-2,1.69-2.65l.6-.94-.64.91c-.42.6-1,1.46-1.81,2.57l-2.79,4L85,32.18q1.62-2.52,3.09-4.85c1.62-2.53,3.09-4.86,4.39-6.93L95.87,15,98,11.59l.76-1.22L98,11.56l-2.3,3.38c-1,1.46-2.16,3.23-3.52,5.26-1.08,1.6-2.26,3.38-3.54,5.29l.48-.78c.73-1.19,1.3-2.13,1.69-2.78l.6-1-.64.95-.26.39.43-.71-.64.94c-.41.62-1,1.51-1.78,2.67l-2.74,4.15c-.26.39-.53.79-.8,1.21l1.2-2c.65-1.08,1.14-1.93,1.49-2.51l.52-.9-.57.87c-.37.56-.92,1.38-1.6,2.44l-.74,1.13,2.28-3.88c.69-1.16,1.22-2.08,1.59-2.71l.56-1-.61.93c-.2.32-.46.71-.76,1.17l.34-.56,2.91-5,1.86-3.2.66-1.14-.66,1,.33-.56-.7,1.1c-.45.72-1.12,1.76-2,3.11l-3,4.83c-1.17,1.86-2.49,4-3.92,6.28l-3.34,5.39.52-.94.88-1.61,2.36-4.24L87,24.26c.68-1.2,1.19-2.16,1.55-2.81l.54-1-.59,1c-.38.63-1,1.55-1.66,2.74s-1.58,2.62-2.57,4.26S82.15,31.94,81,34l-.46.76.78-1.49-.19.32,1.2-2.31-1.46,2.43,1.27-2.47-.12.21.21-.42-.92,1.56L82,31.16l-.5.84.69-1.35L83.07,29c1.28-2.42,2.43-4.65,3.45-6.63s1.91-3.7,2.65-5.11l1.69-3.3.6-1.17-.65,1.14-1,1.71L91,13.35l.6-1.18L91,13.33l-1.83,3.26L86.3,21.68c-1,1.87-2.2,4-3.45,6.25l.31-.63c.87-1.74,1.62-3.25,2.24-4.51l1.43-2.9.51-1-.2.35.16-.32,2.75-5.53c.75-1.53,1.34-2.74,1.75-3.56s.62-1.26.62-1.26L91.75,9.8l-1.88,3.5L87,18.72c-1,1.86-2.1,3.94-3.29,6.2-.44.82-.88,1.66-1.34,2.54l-.24.45,1.56-3.26c.88-1.87,1.66-3.49,2.3-4.83s1.13-2.4,1.47-3.12L88,15.6l-.57,1.08c-.37.71-.92,1.73-1.59,3.05s-1.51,2.92-2.46,4.75l-.46.89c1.21-2.57,2.31-4.94,3.29-7s1.88-4,2.61-5.59S90.06,10,90.44,9.12L91,7.84,90.39,9.1,88.6,12.64l-2.76,5.52-.3.6,1.1-2.45.5-1.11-.55,1.09c-.36.71-.89,1.75-1.54,3.08L84.23,21l.65-1.47.46-1-.5,1c-.33.66-.83,1.63-1.43,2.87l-.36.73,1.07-2.42c.59-1.31,1-2.35,1.34-3.05l.47-1.08-.52,1.06c-.33.69-.84,1.7-1.46,3L81.69,25.3c-.32.65-.65,1.32-1,2l.37-.87h0l.69-1.61c.8-1.86,1.5-3.47,2.07-4.81s1-2.38,1.32-3.09l.47-1.1-.52,1.08c-.33.7-.83,1.72-1.44,3l-1.42,3L83,21.1c.85-2,1.6-3.8,2.22-5.26s1.09-2.6,1.42-3.38l.5-1.2-.55,1.18c-.36.77-.89,1.89-1.55,3.33L82.68,21l-.74,1.6.49-1.18c.53-1.29.94-2.31,1.22-3l.43-1.06-.48,1c-.31.68-.78,1.67-1.35,2.95l-2.08,4.58-2,4.45.73-1.87-1,2.11c.69-1.74,1.32-3.37,1.9-4.83.7-1.82,1.32-3.4,1.83-4.7s.9-2.32,1.17-3L83.23,17l-.46,1L81.7,20.44c.34-.9.61-1.62.82-2.15l.4-1.07-.45,1.05c-.3.68-.74,1.67-1.28,2.95L80,24l.35-.95.36-1L80.3,23c-.26.61-.66,1.5-1.14,2.65s-1.07,2.53-1.75,4.12c-.18.44-.38.9-.58,1.38.15-.42.29-.82.43-1.19l1.16-3.26-.08.2c.52-1.41,1-2.75,1.44-4l1.83-5c.5-1.37.9-2.5,1.17-3.24l.41-1.15-.46,1.13c-.3.73-.75,1.81-1.3,3.19l-1.24,3.09.46-1.32.36-1-.41,1-.48,1.2c.46-1.3.81-2.33,1-3l.37-1.08-.42,1.06c-.27.69-.69,1.7-1.19,3s-1.13,2.85-1.83,4.65l-1.49,3.77-.07.17c-.23.6-.5,1.28-.8,2,.09-.25.16-.48.24-.71l.24-.73.1-.31,1.08-3.29-.94,2.39.15-.44c.55-1.69,1-3.17,1.44-4.38s.71-2.17.92-2.83l.32-1-.37,1c-.24.64-.61,1.57-1,2.77-.24.64-.5,1.36-.79,2.13.71-2.18,1.36-4.2,2-6l1.73-5.39c.49-1.49.85-2.67,1.11-3.47l.39-1.23L81.84,11,80.6,14.43l-.6,1.8.25-.79-.4,1.09c-.25.71-.64,1.74-1.1,3.07s-1,2.93-1.7,4.78L76,27.3l1.17-3.81,1.5-5c.42-1.37.74-2.45,1-3.19L80,14.17l-.38,1.11c-.25.73-.63,1.79-1.09,3.15s-.9,2.64-1.46,4.27l.21-.72,1.52-5.13c.42-1.42.74-2.54,1-3.31l.2-1.13-.39,1.16c-.19.55-.44,1.29-.74,2.19l.11-.39-.37,1.08c-.23.71-.59,1.75-1,3.08L77,21.31l1-3.53c.41-1.4.71-2.5.92-3.25l.32-1.15-.37,1.14c-.24.74-.61,1.82-1.05,3.2l-1.54,4.79.84-3.06c.38-1.35.66-2.41.85-3.13l.3-1.11L78,16.31c-.22.71-.57,1.75-1,3.08s-1,2.95-1.55,4.81-1.24,3.94-2,6.23l-1.89,6.15c.38-1.53.71-2.85,1-3.92l.53-2.08c.59-2.3,1.12-4.41,1.58-6.29l1.21-4.85c.34-1.34.59-2.4.76-3.12l.27-1.11-.32,1.09c-.21.72-.52,1.76-.9,3.09-.26.92-.56,2-.9,3.14v-.21c.48-2,.89-3.68,1.23-5.09s.6-2.53.78-3.28l.27-1.16-.32,1.14c-.16.58-.39,1.36-.66,2.32V16l-.3,1.07a.39.39,0,0,1-.08.28l1-4.05c.36-1.52.63-2.73.82-3.54l.29-1.26-.34,1.24c-.14.52-.33,1.19-.55,2l.15-.63L78,7.45l.3-1.31L78,7.43c-.23.85-.56,2.09-1,3.67s-.93,3.5-1.51,5.7c-.35,1.3-.72,2.7-1.11,4.19.33-1.5.65-2.91.94-4.23.49-2.22.92-4.16,1.28-5.76s.62-2.85.81-3.71L77.67,6l-.34,1.3-1,3.68-.86,3.38.27-1.24c.34-1.53.58-2.74.76-3.56l.26-1.27L76.5,9.52c-.21.82-.52,2-.9,3.54l-1.37,5.49c-.52,2.12-1.12,4.51-1.76,7.13-.35,1.45-.72,3-1.1,4.54.35-1.75.64-3.28.88-4.51.43-2.32.68-3.64.68-3.64l-.21.85.12-.6c.38-2,.71-3.67,1-5.08s.48-2.52.62-3.28l.22-1.15L74.39,14c-.17.75-.44,1.85-.76,3.25l-.29,1.27.19-1c.27-1.4.46-2.51.6-3.26l.21-1.15-.26,1.14c-.17.75-.43,1.84-.74,3.23l-1.12,5c-.43,1.92-.93,4.13-1.45,6.52l-.17.79c.28-1.64.52-3.08.72-4.26l.6-3.65-.8,3.62c-.23,1.09-.52,2.42-.84,3.92l.35-2.29-.47,2.2c.49-3,1-5.9,1.39-8.58.48-3,.91-5.69,1.29-8.1s.71-4.52,1-6.26l.62-4L74.65.92l-.27,1.42c-.17.92-.43,2.28-.75,4s-.71,3.82-1.16,6.22-1,5.12-1.48,8.08-1.12,6.17-1.73,9.56c-.17.94-.34,1.9-.51,2.87l.08-.58c.44-3.18.85-6.19,1.23-9s.71-5.32,1-7.58.55-4.23.77-5.85.37-2.9.48-3.77L72.49,5l-.23,1.32c-.14.87-.35,2.13-.61,3.75s-.58,3.57-1,5.82c-.08.53-.17,1.07-.26,1.63l.1-.85c.18-1.43.3-2.55.4-3.31L71,12.19l-.19,1.16c-.12.76-.31,1.87-.53,3.29s-.49,3.14-.8,5.12-.66,4.2-1,6.64c-.07.47-.14.94-.21,1.43l.6-5.48c.31-2.72.57-5.22.8-7.43s.43-4.14.6-5.73.29-2.84.38-3.69l.13-1.3-.19,1.29c-.12.85-.29,2.1-.51,3.68s-.48,3.5-.78,5.71l-.51,3.74L69,18.15c.14-1.38.22-2.47.29-3.21l.1-1.13-.15,1.13c-.1.73-.25,1.81-.43,3.19s-.38,2.92-.61,4.74c.16-1.88.31-3.63.45-5.23.18-2.18.35-4.08.48-5.64s.23-2.79.3-3.63l.1-1.29-.16,1.28c-.1.84-.25,2.06-.43,3.62s-.41,3.45-.66,5.62c-.06.48-.11,1-.17,1.48,0-.51.07-1,.11-1.48.17-2.18.31-4.08.43-5.65s.2-2.79.26-3.63L69.06,7l-.14,1.3c-.08.76-.21,1.83-.36,3.18-.08.79-.22,1.9-.36,3.31s-.35,3.26-.57,5.32c-.06.5-.11,1-.17,1.55,0-.62.07-1.19.11-1.71.09-1.33.14-2.37.18-3.08l.07-1.09v.09c0-.59.06-1.1.08-1.5l.1-1.15-.12,1.15c-.08.74-.2,1.83-.33,3.22s-.31,3.08-.5,5c0,.55-.11,1.12-.17,1.7.16-2.62.28-5,.4-7.17s.21-4.12.3-5.7.14-2.82.18-3.67l.06-1.29-.11,1.29c-.08.85-.19,2.08-.32,3.66s-.3,3.49-.48,5.68-.4,4.67-.61,7.38c-.11,1.45-.23,3-.36,4.56,0-1.05.07-2,.09-2.8l.1-3.57s-.1,1.16-.27,3.2V25.7c0-2.31.08-3.62.08-3.62l-.06.72v-.72l-.28,3.61a6.21,6.21,0,0,1-.08,1.19V24.45c0-1.86.07-3.48.1-4.81s0-2.38,0-3.09v-1.1l-.07,1.09c0,.72-.11,1.76-.19,3.09l-.27,4.8c-.1,1.64-.2,3.46-.31,5.44,0-3.08.07-6,.1-8.71,0-2.93,0-5.62.06-8s0-4.46,0-6.17V1.63L65,3c0,1,0,2.29-.11,4l-.12,3.47V1.62L64.7,3c0,.91-.07,2.26-.13,4,0,1.08-.06,2.3-.1,3.66V3c0,.91-.06,2.26-.1,4,0,1.36-.07,3-.11,4.75,0-2.4-.06-4.5-.08-6.23s0-3.13-.06-4.07v0L64,5.54c0,1.76-.06,3.89-.1,6.33,0,1.49,0,3.08-.07,4.78v3c0-1.33-.08-2.38-.1-3.09v5.36c-.08-2.36-.15-4.53-.22-6.49-.09-2.27-.16-4.26-.21-5.89s-.12-2.92-.15-3.8L63.13,4.4V18.75C63.07,17.4,63,16.33,63,15.6s-.06-1.11-.06-1.11v5.65a4.45,4.45,0,0,0-.06-.94l-.06-1v6.39c-.06-1-.12-2-.18-2.93-.12-2-.22-3.72-.3-5.14s-.16-2.54-.21-3.31A2,2,0,0,0,61.62,12v1.18c0,.76,0,1.88.07,3.31s.08,3.16.13,5.14v.68c-.14-1.94-.26-3.64-.35-5s-.19-2.5-.24-3.25L61.17,13v1.15c0,.75,0,1.86.09,3.26,0,.86.07,1.83.1,2.9-.09-1.28-.19-2.51-.27-3.65-.17-2.22-.32-4.15-.44-5.74S60.46,8,60.4,7.18l-.11-1.31.05,1.31c0,.86.09,2.11.16,3.71l.1,2.3c-.07-.83-.13-1.6-.19-2.3L60.1,7.2,60,5.89l.06,1.31c0,.76.08,1.83.15,3.17-.05-.46-.08-.86-.11-1.2L60,7.91V9.18c0,.82.1,2,.18,3.57.07,1.26.14,2.75.23,4.43-.06-.58-.11-1.08-.14-1.47l-.11-1.11v.15c-.12-1.21-.22-2.32-.31-3.29-.14-1.58-.27-2.81-.35-3.66s-.12-1.29-.12-1.29l.07,1.3c0,.84.11,2.08.21,3.66s.21,3.5.35,5.7.28,4.67.46,7.38l.07,1.14c0,.33.05.86.09,1.56-.24-2.32-.48-4.44-.69-6.34s-.41-3.78-.57-5.22-.29-2.59-.38-3.36l-.14-1.19L59,12.33c0,.78.12,1.92.24,3.37s.24,3.18.39,5.17l-.08-.72c-.25-2-.46-3.84-.63-5.31s-.32-2.63-.42-3.42l-.15-1.21.1,1.22c0,.45.08,1,.13,1.72-.11-.93-.21-1.8-.31-2.57-.2-1.6-.35-2.86-.46-3.72l-.17-1.31.11,1.32c.08.86.19,2.12.33,3.73l.52,5.79c.2,2.23.43,4.76.69,7.51l.08.76c-.18-1.29-.34-2.5-.5-3.64-.27-2-.51-3.76-.71-5.2s-.36-2.58-.47-3.35l-.17-1.18.12,1.19c.08.77.18,1.91.33,3.36l.3,2.9-.38-2.56-.17-1.1.11,1.1c.07.6.15,1.44.26,2.48-.11-.75-.22-1.48-.32-2.17-.33-2.23-.61-4.16-.85-5.76s-.43-2.84-.55-3.7l-.2-1.31L56.29,7l.42,3.72c.13,1.09.27,2.35.43,3.75-.15-1-.29-1.9-.41-2.72-.24-1.57-.44-2.79-.57-3.63L56,6.88a8.22,8.22,0,0,0,.15,1.29c.15.84.23,2.08.43,3.64s.42,3.48.68,5.67c.1.76.19,1.56.29,2.38l-.34-2.09c-.22-1.38-.41-2.47-.53-3.21l-.2-1.13.14,1.14c.1.75.22,1.84.4,3.23s.4,3.08.64,5c.12.93.25,1.92.38,3-.13-.77-.26-1.52-.38-2.26-.47-2.77-.91-5.3-1.31-7.54s-.73-4.2-1-5.82-.51-2.87-.66-3.73l-.3-1.35.18,1.33c.13.87.3,2.15.53,3.77s.52,3.58.85,5.83a7.37,7.37,0,0,0,.16,1.12,3.47,3.47,0,0,0-.14-.7l-.2-1.09.15,1.1c.1.72.24,1.77.44,3.11s.44,3,.71,4.83l.45,3.09c-.16-.85-.32-1.69-.47-2.5-.51-2.66-1-5.1-1.41-7.26s-.8-4.05-1.1-5.6-.55-2.77-.72-3.6l-.26-1.27.21,1.28c.13.84.32,2.07.58,3.63s.57,3.45.93,5.62c.16,1,.34,2.11.53,3.25l-.11-.5c-.26-1.3-.49-2.32-.63-3l-.23-1.07L55,17.53c.12.7.28,1.73.51,3s.49,2.9.79,4.73l.15.84c-.29-1.32-.56-2.57-.81-3.72-.43-1.94-.8-3.64-1.1-5s-.55-2.49-.72-3.23L53.57,13l.21,1.16c.13.75.32,1.86.58,3.26.19,1.06.42,2.3.67,3.68-.4-1.77-.75-3.32-1-4.62s-.59-2.54-.76-3.3L53,12l.22,1.18c.14.76.34,1.89.62,3.32.24,1.26.53,2.76.85,4.46-.28-1.2-.54-2.33-.79-3.39-.51-2.17-1-4.06-1.32-5.61l-.85-3.61L51.38,7.1l.25,1.29c.17.84.41,2.07.72,3.64s.7,3.47,1.15,5.65c.35,1.75.74,3.69,1.17,5.77-.19-.78-.38-1.56-.56-2.32-.71-2.92-1.37-5.6-2-8S51.05,8.72,50.63,7l-1-4-.35-1.39L49.58,3l.85,4c.38,1.71.83,3.8,1.35,6.18s1.11,5.09,1.76,8c.15.67.3,1.35.46,2-.07-.26-.14-.51-.2-.76-.51-1.93-1-3.62-1.32-5s-.66-2.47-.86-3.22l-.31-1.14.25,1.16c.17.75.41,1.85.73,3.25l1.15,5.05c.08.38.17.78.26,1.18-.14-.54-.29-1.07-.43-1.58-.53-1.94-1-3.64-1.38-5S51.21,14.71,51,14l-.32-1.15v.22l-.06-.22L50.94,14c.18.76.43,1.87.77,3.28L52,18.46l-.33-1.2c-.39-1.39-.71-2.49-.92-3.23l-.33-1.15L50.69,14c.18.75.44,1.86.78,3.27l1.21,5,.3,1.25c.22.9.48,1.95.76,3.12l-.62-2.18c-.78-2.69-1.5-5.16-2.14-7.34l-1.66-5.67c-.47-1.56-.83-2.8-1.08-3.64s-.39-1.28-.39-1.28l.33,1.3,1,3.68c.41,1.58.92,3.5,1.49,5.7l.17.67c-.26-.86-.48-1.55-.64-2.08l-.34-1.1.29,1.12c.19.73.46,1.8.82,3.16l1.3,4.9.14.52-.16-.51c-.59-1.87-1.09-3.5-1.51-4.84s-.76-2.4-1-3.12l-.35-1.1s.1.39.3,1.12.48,1.8.85,3.15l1.33,4.83c-.55-1.71-1-3.21-1.44-4.45s-.77-2.37-1-3.08L49,15.31l.18.66L49,15.26v.08c-.73-2.26-1.36-4.23-1.89-5.85L45.88,5.71l-.44-1.33.39,1.35c.25.88.62,2.17,1.1,3.81l1.73,5.93c.66,2.28,1.41,4.87,2.25,7.68l1.22,4.11c-.2-.59-.39-1.17-.58-1.72L50,20.91c-.44-1.29-.8-2.3-1-3l-.37-1.05.28.92L48,15.36l-.39-1.11L48,15.38c.23.73.54,1.82,1,3.19l.35,1.15-.43-1.22-2-5.5c-.53-1.52-1-2.71-1.24-3.52L45.2,8.24l.39,1.26,1.12,3.58c.42,1.32.92,2.89,1.48,4.68-.12-.34-.23-.63-.32-.88l-.39-1.08.34,1.1c.22.71.54,1.76,1,3.09l.79,2.47L48.1,18.34c-.49-1.36-.89-2.43-1.16-3.16l-.42-1.11.37,1.13c.24.74.58,1.83,1,3.21l.13.38c-.18-.48-.34-.89-.46-1.22l-.3-.78-.47-1.27c-.53-1.45-1-2.58-1.25-3.35L45.09,11l.4,1.2c.26.79.63,1.94,1.12,3.4s1.09,3.24,1.77,5.28,1.44,4.33,2.3,6.84L51.45,30c-.47-1.22-.92-2.36-1.33-3.42L48.36,22c-.49-1.26-.88-2.23-1.15-2.9l-.4-1,.35,1c.24.68.57,1.68,1,2.94s1,2.81,1.59,4.58c.46,1.32,1,2.76,1.52,4.31l-1.45-3.52-1.41-3.41s.43,1.21,1.17,3.32l-1.36-3.24.34,1c-.66-1.61-1.28-3.12-1.86-4.5L44.53,15.4c-.53-1.47-1.06-2.6-1.39-3.4l-.5-1.19s.16.42.45,1.21.72,2,1.28,3.41l2,5.3,1.31,3.46-1.2-2.81c-.54-1.27-1-2.27-1.28-2.95l-.45-1,.4,1.07c.27.69.65,1.7,1.15,3,.25.66.54,1.4.85,2.2l-.94-2.16c-.55-1.27-1-2.26-1.3-2.94l-.46-1,.41,1c.27.69.66,1.71,1.17,3,.37,1,.81,2.06,1.3,3.29-.9-2-1.74-3.92-2.5-5.63-.93-2.08-1.73-3.9-2.4-5.39l-1.55-3.47-.56-1.22.51,1.25L42.25,14l.94,2.29,0-.11c-1-2.23-1.88-4.17-2.6-5.77L38.86,6.62l-.6-1.31.55,1.33c.36.87.89,2.14,1.56,3.77l2.44,5.84.43,1c-1-2.09-1.8-3.92-2.5-5.43l-1.67-3.6L38.48,7,39,8.27c.36.85.88,2.09,1.55,3.66S42,15.42,43,17.61s2,4.66,3.15,7.36l.39.91-2.6-5.47c-1-2-1.82-3.79-2.51-5.25l-1.63-3.37L39.2,10.6l.52,1.22c.35.79.86,1.95,1.5,3.42l2.35,5.33.28.64L43.76,21l-2.53-5.2c-.7-1.44-1.26-2.56-1.64-3.33L39,11.3l.53,1.19c.35.79.87,1.93,1.52,3.39s1.36,3,2.21,4.92l-.61-1.22-.51-1,.46,1c.3.68.74,1.67,1.31,2.93l.17.37C43,20.77,42,18.8,41.14,17L38.3,11.36c-.8-1.57-1.42-2.8-1.84-3.64L35.8,6.44l.61,1.31,1.71,3.69,2.69,5.73c1,2.19,2.17,4.65,3.44,7.33L45,26q.81,1.76,1.77,3.78l-1.63-3,.8,1.72-.31-.5-1.52-2.86-.9-1.69L43,23.07l-.32-.59c-.65-1.23-1.18-2.2-1.53-2.86l-.54-1,.49,1c.33.67.8,1.66,1.41,2.92l2.21,4.53c.64,1.32,1.34,2.76,2.1,4.3L46.08,30l-1.76-3.17s.57,1.19,1.59,3.26l.85,1.74-.38-.68.23.47L46,30.48l-2.26-4c-.62-1.12-1.12-2-1.46-2.59L41.73,23l.47.94,1.34,2.65c.48.92,1,2,1.66,3.24l-.37-.64.18.35-.3-.51L42.3,24.78c-.66-1.16-1.2-2.07-1.56-2.7l-.55-.95.5,1c.34.64.82,1.58,1.44,2.77l.44.83-2.23-3.85c-.73-1.26-1.31-2.23-1.7-2.9L38,18l.55,1c.37.69.89,1.7,1.58,3l.57,1L38.8,19.72c-1.2-2.06-2.25-3.85-3.12-5.32l-2-3.42L33,9.77,33.61,11c.43.8,1.07,2,1.87,3.43l-.07-.12L36,15.44l1.74,3.2,2.73,5c1,1.92,2.24,4.08,3.55,6.43.65,1.18,1.34,2.41,2,3.68L46,33.49l.23.43-.71-1.14L43.7,29.89l.2.35v-.07c-1.41-2.3-2.71-4.39-3.86-6.25l-3-4.81c-.9-1.34-1.56-2.38-2-3.11l-.69-1.09L35,16.05c.42.73,1,1.8,1.81,3.16l1.93,3.34.47.83c.07.11.14.24.21.37L36.7,19.42l-3.37-5.35c-.94-1.48-1.68-2.65-2.19-3.44l-.77-1.21.73,1.24,2.06,3.51,3.23,5.45c1.24,2.1,2.65,4.47,4.19,7.05l.41.69c.27.45.57,1,.93,1.58L44.2,32.8c.24.39.48.8.73,1.22-1.15-1.75-2.22-3.35-3.17-4.8L39,25.06c-.76-1.16-1.37-2.06-1.78-2.68l-.64-.94.59,1c.39.64.94,1.57,1.67,2.75l.91,1.48L39.26,26c-.75-1.13-1.36-2-1.77-2.62l-.63-.92.59.95c.38.62.93,1.54,1.65,2.69l1.33,2.14L39,26.11c-.76-1.12-1.38-2-1.79-2.6l-.63-.92.59.95c.38.62.94,1.53,1.67,2.68l2.61,4.15c.28.43.56.88.85,1.35L44,34.46l-1.33-1.87-2.07-2.9.28.43c-1.47-2.1-2.83-4-4.05-5.75l-3.35-4.76-2.17-3.05-.77-1.08.73,1.11,2.05,3.13,2.93,4.43L34,21c-.91-1.28-1.64-2.28-2.14-3l-.75-1,.71,1.07c.47.7,1.14,1.74,2,3l3,4.46-.55-.74L35.66,24l.61.92c.4.59,1,1.48,1.73,2.59l2.71,4,1.77,2.63L42,33.42l1.17,1.76-1.74-2.3L39.19,30l.25.37-1.93-2.56-1.89-2.48L35,24.45l.63.91c.37.54.9,1.32,1.58,2.28l-1-1.31c-.85-1.12-1.53-2-2-2.58l-.71-.91.66.94L36,26.45l1.36,1.92-2.17-2.82L31.64,21l-2.29-3-.82-1,.77,1,2.19,3,.75,1-.79-1-2.31-2.94-.81-1,.77,1.07,2.2,3,1.77,2.42-1.55-2-2.3-2.9-.82-1,.77,1.06,2.2,3,3.42,4.64c1.32,1.79,2.81,3.8,4.45,6l.8,1.07-.13-.16,2,2.71.65.89c-.43-.52-.82-1-1.18-1.42l-2.2-2.63.27.36L39.21,33l-3.07-3.71c-.84-1-1.52-1.83-2-2.37l-.7-.84.66.87,1,1.33-.58-.69c-.89-1.08-1.61-1.92-2.09-2.49l-.74-.89.7.92c.46.6,1.12,1.48,2,2.58l1.88,2.42-.44-.51,2.32,3,.37.47-1-1.12,1.95,2.54-2.86-3.33-1.94-2.25L34,28.14l.64.82L32.77,26.8,32,26l.69.88c.42.53,1,1.29,1.78,2.23l-1.75-2c-.94-1.1-1.7-1.95-2.21-2.53l-.79-.89.75.93c.48.6,1.19,1.49,2.11,2.61l.46.58-3-3.57-4.17-4.76c-1.17-1.31-2.08-2.35-2.7-3.05l-1-1.08.92,1.11,2.59,3.15,4,4.87,1.51,1.82-.77-.85.73.88c.37.45.87,1.08,1.5,1.84L32,27.46l.69.84.32.38c-.67-.74-1.22-1.33-1.61-1.77l-.77-.83.72.87c.48.57,1.17,1.41,2.06,2.46l3.2,3.82,1.7,2-.71-.76,1.13,1.35L37.94,35l.3.36c-.74-.79-1.44-1.54-2.09-2.25l-3.43-3.69L30.5,27.06l-.79-.84.75.87.3.35-.07-.07-.78-.83.74.86c.48.57,1.19,1.4,2.1,2.44l1.18,1.36-2.65-2.81L29,26l-.82-.87.79.9c.51.58,1.25,1.45,2.21,2.53l3.45,3.92,4.34,4.9.2.23L37,35.27c-1.87-1.94-3.59-3.7-5.11-5.27l-4-4.06-2.55-2.6-.9-.92.86,1,2.45,2.7,3.82,4.17L34.05,33l-1-1-2.19-2.18L30.08,29l.74.81,2.09,2.28.88.94L31.14,30.4l-2.33-2.29L28,27.3l.78.85c.52.55,1.26,1.36,2.23,2.38.55.6,1.18,1.26,1.87,2l-.21-.2c-.94-.94-1.7-1.66-2.21-2.16l-.79-.76.75.8c.49.52,1.2,1.29,2.12,2.25L35.83,36c1.28,1.35,2.72,2.87,4.3,4.52l.39.41-.68-.65L36.31,36.9c-1.9-1.83-3.66-3.5-5.22-5l-4-3.82c-1.11-1.07-2-1.89-2.6-2.46l-.93-.86.89.9c.58.59,1.42,1.46,2.51,2.55l.93.95.18.18c.52.53,1.28,1.32,2.27,2.31l3.55,3.59,2.5,2.51,1,1c.86.87,1.92,2,3.15,3.18l-2.35-2.1L35.7,37.62l.22.21-2.25-2c-.92-.84-1.66-1.48-2.16-1.92l-.76-.68.39.39-2.7-2.42c-1.07-1-1.93-1.72-2.51-2.24L25,28.11l.85.83,2.42,2.34L32,34.9l1.25,1.2-.94-.82c-1-.85-1.72-1.5-2.24-2l-.79-.69.76.73.37.36-.6-.52-4.18-3.67-2.7-2.29L22,26.37l.92.87c.6.56,1.48,1.4,2.61,2.45l1.73,1.61-.72-.61-.88-.75.84.79c.5.51,1.33,1.27,2.36,2.27l2,1.87-.18-.15L29.91,34l.74.7c.33.3.76.7,1.27,1.19l-3.08-2.62-2.48-2.09-.88-.73.84.77,2.39,2.2,3.72,3.39.11.1-2-1.7c-2.3-1.94-4.42-3.71-6.3-5.27l-4.86-4.06-3.13-2.6-1.11-.91,1.07,1,3,2.63,3.86,3.41L20.77,27.5l-1-.82,1,.86c.64.56,1.56,1.39,2.75,2.43l3.08,2.7-.6-.45-.89-.71.86.75,1.35,1.2L24.73,31.4c-1.86-1.49-3.47-2.8-4.8-3.88L16.83,25l-1.1-.88L16.8,25l3,2.59,4.69,4c1.59,1.36,3.36,2.88,5.29,4.51l-1.08-.85-2.49-1.94-.88-.68.84.72c.56.48,1.36,1.18,2.4,2l3.75,3.17,3.14,2.66-2.09-1.57.37.31c-1.63-1.26-3.15-2.41-4.51-3.45L25,33.37c-1.17-.9-2.11-1.6-2.74-2.08l-1-.73.94.77c.61.51,1.5,1.25,2.65,2.19L29,36.9c1.36,1.11,2.86,2.35,4.49,3.67l-2.61-1.94-4.05-3c-1.12-.84-2-1.48-2.62-1.92L23.29,33l.89.72,2.53,2,1.67,1.33-2.07-1.52-4.61-3.3c-1.27-.94-2.28-1.66-3-2.16l-1.05-.76,1,.8c.67.53,1.64,1.3,2.89,2.27l3.68,2.88c.13.1.27.2.41.32l-.7-.58L24,34.4l.88.69,1,.81-1.07-.76L24,34.5l.88.68c.57.45,1.41,1.12,2.49,1.94l3.88,3,1.9,1.47h0L29.32,39c-1.05-.74-1.88-1.3-2.44-1.69l-.87-.6.47.36-.58-.4-2.68-1.85-.95-.65.92.69,2.19,1.66-4.17-2.89-3-2.06-1.06-.73,1,.77c.68.51,1.66,1.25,2.92,2.18L24,35.91l-2.71-1.83-1-.67,1,.72L23,35.38l-.87-.58-1-.65.94.69,2.67,2L27.83,39l-.5-.32.71.51c-1.63-1.08-3.05-2-4.22-2.81S21.65,35,21,34.56l-1-.66,1,.71c.64.45,1.56,1.13,2.75,2l4.25,3,.18.13-4.34-2.84L21,35.11l-1-.65,1,.69,2.74,1.94,1.05.74L23.51,37l-.94-.6.91.64,1.39,1-2-1.26L19,34.29l-3.16-2-1.11-.71,1.08.75,2.11,1.46L16.66,33l-1.1-.7,1.07.74,3,2.08c1.3.9,2.89,2,4.71,3.22L26.73,40l-2.06-1.29L21.91,37l-1-.6.95.65.52.35-.79-.48-1-.6,1,.65,2.7,1.82,4.21,2.83.83.56L26.6,40.5l.62.42L24.39,39.2l-2.78-1.67-1-.58,1,.63c.62.41,1.53,1,2.7,1.79l4.21,2.76,4.87,3.18c.58.37,1.22.8,1.92,1.26l-2-1.19L27.5,42l-4.45-2.59c-1.23-.72-2.21-1.27-2.87-1.65l-1-.58,1,.63L23,39.59l4.36,2.74C28.6,43.1,30,44,31.41,44.86L27,42.39l-4.51-2.54c-1.25-.71-2.24-1.25-2.92-1.63l-1-.57,1,.62c.65.4,1.61,1,2.84,1.74l2.34,1.43-.12-.07.87.54L28,43.42l3,1.84,1.22.74-1.23-.65L33,46.62l-3.45-1.84-3.28-1.73,2.32,1.39-.66-.35c-2.47-1.33-4.74-2.54-6.75-3.6L16,37.72,12.61,36l-1.19-.63,1.17.67,1.53.89-.42-.23-3.52-1.84-1.25-.65,1.22.7,3.45,2,5.38,3c2.07,1.17,4.41,2.5,7,3.93l5.89,3.29-1.71-.85L25.82,44c-2.61-1.33-5-2.54-7.14-3.61l-5.52-2.77L9.61,35.87l-1.26-.62,1.24.67,3.48,1.9,5.44,2.93,7,3.79,6.23,3.32-3-1.43-3.35-1.57,3.26,1.75,4.91,2.6-.29-.13L30.4,47.76l1.92,1-4.26-2-4.37-2-2.82-1.27-1-.45,1,.5,1.48.75L21.52,44c-1.28-.59-2.29-1-3-1.34l-1.05-.47,1,.52.82.42L16.73,42l-1.09-.48,1.07.53c.7.35,1.72.87,3,1.5L22,44.6l-5.59-2.49-5.79-2.57L6.86,37.9l-1.32-.58L6.83,38l3.67,1.77,5.72,2.73c1.93.92,4.09,2,6.43,3.06L21.3,45l-3-1.26-1.06-.45.64.3-2.79-1.19-3.42-1.45-1.21-.51,1.19.56c.77.36,1.91.91,3.36,1.58l1.56.72L13.4,41.9l-1.17-.49,1.14.54.22.1-1.12-.47-1.19-.49,1.17.54c.76.35,1.88.88,3.31,1.53l5.14,2.36L24.16,47l-2.31-.93-1-.39.95.44,2.7,1.24,2.21,1-1.08-.44-2.68-1L22,46.5l.93.43,2.19,1L23,47.09l-5-2c-1.38-.55-2.47-1-3.21-1.25l-1.13-.44,1.11.49L18,45.3l4.91,2.13L29,50.06l1.08.47,2,.88-2.95-1.07,2.94,1.28,4.75,2L32.06,52l-1.63-.56-.7-.26-6.4-2.28-4.94-1.74C17,46.63,16,46.26,15.21,46l-1.12-.39,1.1.44c.73.29,1.78.72,3.14,1.25l1.55.61-1.08-.37-1.05-.36,1,.41c.67.26,1.65.66,2.9,1.14l.39.15-.51-.17-1-.33,1,.38c.63.25,1.55.62,2.72,1.07l4.24,1.64,2.15.84-4.83-1.59L22.2,49.56h.12l-.49-.16,3.57,1.36,3.77,1.41,2.34.89h.07l-3-.92.28.1h-.07L24.5,51l-2.76-.85-1-.29.89.32-1.48-.46L14.87,48l-3.43-1-1.21-.37,1.2.42,3.38,1.18.37.13-2.62-.8L9,46.47l-1.27-.38L9,46.52l3.54,1.21,2.17.74-.46-.14L13.07,48l1.14.39c.74.25,1.82.63,3.2,1.09h0c-1.33-.4-2.38-.7-3.11-.91l-1.14-.33,1.13.38,3.19,1.08,5,1.65,4.74,1.57L24,52l-4.9-1.34c-1.35-.39-2.41-.67-3.13-.87l-1.11-.3,1.09.35c.72.23,1.76.58,3.09,1l4.8,1.53,1.6.51-1.57-.42L19,51.15l-3.14-.83L14.76,50l1.1.34,1.34.42-4.72-1.25-3.59-.95-1.27-.33,1.26.39,3.55,1.07,5.51,1.66,5.87,1.75-1.67-.42L17.07,51.4l-3.27-.82-1.15-.28,1.14.34,3.23.94,1,.29-1.24-.3c-1.41-.36-2.53-.62-3.29-.8l-1.16-.28,1.15.33c.75.21,1.85.54,3.25.93l2.38.68,1.76.5,4.39,1.24-.48-.11-3.7-.84.51.14-.89-.2,3.68,1,5.39,1.49-1-.22-3.33-.71,2.57.7C25.9,55,24,54.53,22.2,54.16l-5.06-1.1c-1.4-.31-2.51-.53-3.26-.69l-1.15-.24,1.14.29,3.23.83,5,1.27c1.94.49,4.13,1,6.52,1.62l2.11.53c-1.18-.24-2.23-.44-3.13-.61l-3.42-.66,3.38.85.29.07-3.66-.7-4.82-.92c-1.33-.26-2.39-.44-3.1-.58l-1.1-.2,1,.23-3.06-.57-1.18-.21,1.17.27c.75.17,1.86.43,3.28.74L19,55l-2.24-.39-1.08-.19,1.07.24,3,.68,1.79.4-3.24-.57c-1.36-.25-2.44-.42-3.17-.55l-1.12-.19,1.11.24,3.15.69.55.12-2.19-.38c-1.41-.25-2.53-.42-3.29-.55l-1.16-.19,1.15.24,1.66.36-5-.85-3.75-.62L5,53.33l1.31.27,3.72.75,5.79,1.16,2,.4-1.62-.25-1.1-.16,1.09.22,1.19.24-1.2-.18-1.1-.17,1.09.22c.71.14,1.76.36,3.08.61l4.8.93,4.27.83L26.65,58l1.23.25-.79-.11,1.63.32h-.3c-2.42-.35-4.64-.66-6.61-.92l-5.1-.71-3.28-.43-1.17-.16.31.06h0l-1.18-.15,1.17.21,3.32.58,5.16.89,2.76.47-7.08-.91L11,56.59l-3.68-.45L6,56l1.3.21L11,56.8l5.69.89c2.2.35,4.68.74,7.38,1.15l1.82.27-.45,0c-2.63-.31-5-.57-7.17-.8l-5.53-.61-3.56-.38-1.26-.13,1.25.19,3.55.51,3.39.48-1.23-.12-1.13-.11,1.12.17c.73.1,1.8.27,3.17.45l3.43.48-4.16-.4c-1.39-.14-2.49-.23-3.24-.3l-1.15-.1,1.14.16.94.13-.78-.07L13,58.5l1.14.15,3.22.43,1.45.19-1.61-.14L14,58.85l-1.15-.09,1.14.15,1.87.24h-.53l-5.88-.5-3.78-.31-1.34-.11,1.33.16,3.77.45,5.86.68,5,.57L16,59.73c-1.43-.11-2.56-.18-3.32-.23l-1.18-.08,1.17.13,3.31.37,4.89.53-1.81-.12L16,60.14l-1.1-.06,1.1.12,2.11.23h-.88l1,.11,2.95.31,4.59.46.82.08-3.22-.18-7.53-.41L10,60.5,6.3,60.32,5,60.2l1.32.12,3.73.32,5.8.48,1.35.11-1.68-.07L12.16,61H11l1.19.1.56,0H11l1.19.1,3,.24H12.67l1.15.09,1.31.1L12,61.42H10.81l1.19.09,3.36.25,2.1.14-3.13-.08H13.19l1.14.08,3.21.22,5,.32h.16l-5-.1-3.21-.06H13.37l1.13.07c.74,0,1.82.12,3.2.19H18l-5.13-.09-6.17-.1H1.26l1.41.07,4,.19,6,.27H6l1.3.06L11,63l3.64.14h-5l1.22,0c.8,0,2,.09,3.44.14l4.91.17H7.3l3.67.11,5.7.14L21.3,64h0l-5.15.09c-1.43,0-2.55.06-3.31.07h1.55L10,64.25l-3.74.09h0L10,64.4h7.19l-2.88.09c-1.48,0-2.65.09-3.44.12L9.59,65h7.15l-1.59.06c-1.46,0-2.6.1-3.38.14l-1.2,0H18.4l-3.15.15-1.12.06h2.08l-1,.05-1.11.06h4.51L15,65.75,9.18,66l-3.79.2L4,66.3H5.35l3.79-.07,5.9-.12h2.29l-2.19.13-3.38.22-1.19.08h1.2l3.38-.07,2.38-.07-2.06.15-1.11.08h1.12c.66,0,1.62,0,2.83-.07l-2.83.21-1.11.09h1.12c.72,0,1.78,0,3.14-.09l2.66-.09h-.52l3.7-.11,3.5-.11h-.74L20.48,67l-5.24.45-3.36.3-1.19.11,1.19-.06c.78,0,1.92-.08,3.38-.16l5.24-.27,1.33-.07-.7.07L16,67.82c-1.43.13-2.55.25-3.31.33l-1.18.12,1.18-.07L16,68l5.17-.32,1.91-.11-4.51.48-3.14.34-1.11.13,1.11-.07,1.16-.08-2.11.25-1.13.13,1.14-.08,3.21-.22,5-.37,2-.14-4.76.54-8.15,1-6.29.75-4,.5L0,70.86l1.44-.12,4.05-.36,6.31-.57c2.43-.22,5.18-.47,8.17-.76l1.67-.16-1.92.26c-1.32.17-2.35.33-3,.42l-1.08.15h.65l-1.45.2L13.67,70l1.13-.11,3-.28-1.62.24L15.07,70l1.1-.1c.72-.07,1.77-.16,3.1-.3l4.41-.45-1,.15-2.85.43-1,.16,1-.1,1.31-.14-1.3.21-1,.16.6-.06-1.36.2-3.16.5-1.13.17,1.13-.12c.74-.08,1.82-.19,3.19-.36L23,69.81h.22l-.38.06-4.94.79-3.17.53-1.12.19,1.13-.14h.09l-1.54.25-6.09,1-3.91.65-1.39.24,1.26-.17-1.42.24-1.43.24,1.43-.18,4-.54L12,72.13,20.23,71l6.49-.91-1.51.29,1-.13-4.61.85-5.12.9-3.27.62-1.16.23,1.16-.17h.23l-.32.06,1.14-.17,3.23-.47,5-.76,5.86-.89-3,.62,1.89-.28-1,.21-3.52.74,2.49-.39-3.78.8-5.11,1.07c-1.42.29-2.53.54-3.28.7l-1.17.25L13,74l2-.33-.48.1L13.35,74l1.14-.2,1.68-.28-3.26.71-1.16.26,1.17-.2,2.9-.52c-1.19.27-2.13.49-2.8.63l-1.16.27L13,74.46c.76-.14,1.89-.33,3.31-.6l.39-.07-.66.15,1.08-.19.89-.16L16.36,74c-1.41.31-2.52.58-3.28.75L11.92,75l.57-.11-2.62.61-1.23.29,1.24-.23,3.52-.67,2.18-.43-2.67.64-1.16.28,1.18-.23,3.31-.64,5.16-1L27,72.37l-1.69.4c-2.61.63-5,1.23-7.13,1.75l-5.49,1.36-3.53.89-1.25.32,1.26-.27,1.48-.31h-.09l-3.68.93-1.3.33,1.31-.28,3.72-.8,5.76-1.26,3-.66-1,.27-3.14.83-1.11.29L15.26,76l1.84-.4-4.1,1L6.88,78.25l-3.94,1-1.39.37L3,79.35l4-.92L13.09,77l6.52-1.53-2,.54-3.19.9-1.12.32L14.45,77c.74-.17,1.83-.42,3.22-.76l5-1.2,6.48-1.57L34,72.26l-6,1.81-3.33,1L25.1,75l-1.1.29-4.78,1.45c-1.33.4-2.37.73-3.08,1L15.06,78l1.11-.29c.71-.19,1.77-.45,3.11-.81l3.14-.84-2.5.8-1,.31,1-.26c.65-.17,1.59-.41,2.78-.74L17,78l-5.62,1.77L7.8,80.92l-1.28.41L7.81,81l3.66-1,5.68-1.61,3.24-.92-2.46.82-1.05.35,1.07-.3c.69-.2,1.71-.47,3-.85L25.6,76.1c1.58-.45,3.34-.95,5.23-1.51l-.85.3,2.15-.6-2.92,1L26,76.47,27.48,76,24,77.26,19.21,79c-1.33.46-2.37.84-3.08,1.1l-1.08.39,1.1-.34,2.55-.79-.38.14-1,.38,1.06-.33,2.81-.87-3.42,1.23c-1.37.49-2.44.89-3.17,1.16l-1.12.41,1.14-.36,3.22-1,5-1.62,6.48-2.11L30.47,76,26,77.59l-7,2.64-5.38,2c-1.5.56-2.66,1-3.46,1.33L8.93,84l1.25-.42,3.5-1.2,5.45-1.88c2.05-.71,4.35-1.5,6.85-2.38l1-.35-.81.31-7,2.75L13.88,83l-3.44,1.38-1.22.49,1.24-.44c.8-.29,2-.7,3.49-1.25L15,82.84l-.69.28,1.12-.4c.73-.26,1.81-.64,3.17-1.14l4.91-1.78L27,78.53h-.06L22.51,80.4c-1.22.5-2.18.92-2.84,1.2l-1,.42,1-.37c.67-.25,1.65-.6,2.89-1.07l4-1.48-.34.14c-2.55,1.07-4.88,2.06-6.95,3l-5.34,2.28c-1.48.63-2.65,1.13-3.44,1.48l-1.22.52L10.49,86,14,84.64l5.41-2.11c2.1-.82,4.46-1.74,7-2.76l4-1.6-1,.47.67-.26L28.83,79l1.56-.6c-2.17,1-4.16,1.87-5.92,2.67l-4.72,2.14c-1.31.59-2.33,1.07-3,1.39l-1.1.4,1.09-.44,3.09-1.26,4.09-1.69-.51.23c-2.73,1.25-5.24,2.41-7.45,3.44L10.21,88,6.52,89.7l-1.3.61,1.32-.56,3.75-1.6,5.82-2.5,4.54-2-2.47,1.19-1,.5,1.06-.45,3-1.28,4.07-1.76L23,83l-.93.46.95-.41.81-.35-.24.12c-1.2.58-2.13,1-2.77,1.37l-1,.48,1-.43L23.64,83h0L19,85.32l-3.1,1.54-1.09.55,1.12-.5,3.14-1.41.17-.08-1.45.72L12.27,88.9,8.72,90.69l-1.25.63,1.27-.58,3.61-1.67L18,86.48l6.2-2.89-1.61.83-5,2.58c-1.37.7-2.44,1.27-3.18,1.65l-1.12.58,1.15-.53,3.24-1.53,2.74-1.31L17,87.6l-5.61,2.94-3.6,1.9-1.27.67,1.29-.63,3.67-1.77,5.69-2.78c2.2-1.07,4.68-2.28,7.37-3.61l3-1.47.75-.37-1.06.58-4.38,2.38L20.06,87l-1,.55,1-.5c.66-.33,1.64-.8,2.87-1.42l4.46-2.23.49-.25-.92.52-4.41,2.45c-1.22.68-2.17,1.23-2.83,1.59l-1,.57,1-.52,2.89-1.47c1.25-.63,2.76-1.41,4.49-2.3l2.5-1.28-.62.36-4.16,2.38L22.2,87l-.94.55,1-.5L25,85.61l4.24-2.22,3.06-1.61-.24.14-2.93,1.76,3-1.59c1.64-.86,3.87-2,6.52-3.48l-3.83,2.32c-2,1.18-3.74,2.28-5.32,3.25L25.4,86.7c-1.14.69-2,1.25-2.63,1.63l-.93.58,1-.53,2.7-1.51,4.18-2.37L31,83.8l-1,.65,3-1.66,1-.61-.52.34.65-.37L33,82.87c-2.08,1.31-4,2.53-5.67,3.61L23,89.27c-1.21.77-2.15,1.39-2.8,1.81l-1,.64,1-.6.68-.39-.49.31,1-.58c.65-.38,1.6-.93,2.8-1.65l1.3-.77-4.9,3.16-5.17,3.36-3.32,2.18-1.18.77,1.2-.73,3.16-1.91-.31.21,1.11-.68c.73-.44,1.8-1.07,3.14-1.9l4.87-3c1.88-1.15,4-2.44,6.31-3.87l4-2.46-.21.15c-2,1.34-3.83,2.59-5.45,3.69L24.5,89.9c-1.17.79-2.07,1.43-2.69,1.85l-.89.62-.17.11c-1.28.87-2.27,1.56-2.95,2l-1,.72,1.07-.67c.7-.44,1.73-1.08,3-1.92l4.69-3c1.81-1.15,3.85-2.45,6.07-3.89L32.79,85l-4.73,3.34-4.27,3-2.73,2-1,.7,1-.65,2.81-1.84,3.67-2.41-.08.06,3.17-2.07.28-.18-2.58,1.87-4.22,3.07c-1.18.85-2.09,1.53-2.72,2l-1,.7,1-.66.54-.36-.25.19,1-.64,2.71-1.82,4.2-2.84L31.3,87.3l-2.66,2-4.18,3.12c-1.16.86-2.07,1.55-2.69,2l-.95.72,1-.68c.64-.44,1.58-1.07,2.77-1.9l2.82-2L25,92.4l-.87.67.91-.62,2.56-1.78,3.24-2.27-1.29,1c-1.57,1.22-2.94,2.27-4.08,3.14l-2.61,2-.93.72,1-.67,2.7-1.92,4.18-3,4.09-2.94-2,1.57c-1.46,1.17-2.74,2.18-3.79,3l-2.42,1.93h0c-1.13.89-2,1.6-2.6,2.08l-.92.74.95-.69.66-.49-1.88,1.5L19,98.67l-1,.82.6-.45-.24.19,1-.76C20,98,21,97.24,22.28,96.3l4.54-3.39,2.39-1.79-3.85,3.13L20.85,98l-2.93,2.41-1,.85,1.07-.81,3-2.3,4-3h0l.89-.68c.58-.44,1.44-1.08,2.51-1.91l3.9-3,.9-.69-2,1.73c-1,.81-1.71,1.46-2.23,1.89l-.78.67.29-.23-3,2.54c-1.14,1-2,1.71-2.63,2.23l-.92.79,1-.75c.62-.49,1.55-1.2,2.71-2.13l4.2-3.31.84-.66-2.27,2L26,95.69l-.85.75.79-.63-.36.32-.87.75.9-.71,2.54-2h0l.83-.65,2.32-1.85,3.59-2.89.14-.11-2,1.74-3,2.51c-1,.88-1.77,1.58-2.3,2l-.81.73.85-.68,2.39-2,3.7-3,.35-.29-1.74,1.58-.8.72-2.12,2-2.33,2.13-.83.75.86-.71,2.43-2,1.08-.91-2.32,2.12L24.2,99.16l-2.7,2.49-.95.88,1-.84,2.79-2.38,4.33-3.72.49-.43-.7.66-.79.75.83-.71.59-.51-3.55,3.32c-1.13,1-2,1.89-2.61,2.46L22,102l1-.82c.62-.55,1.54-1.34,2.7-2.35l1.5-1.32c-.19.18-.36.35-.52.49l-.83.8.16-.14-.16.15.88-.76L28,96.93l-3.49,3.32-2.68,2.56-.95.9,1-.86,2.78-2.46L29,96.55c1.65-1.47,3.51-3.13,5.52-4.94l-2.11,2.06-3.74,3.65c-1,1-1.84,1.82-2.4,2.36l-.84.84.88-.8c.58-.52,1.43-1.28,2.49-2.26l3.86-3.52.74-.67-1.64,1.64,2.84-2.57,2.23-2-1.37,1.39L32,95.1l-2.16,2.2-.76.78.8-.74,2.26-2.1,2.09-2L29.63,98l-4.05,4.17L23,104.82l-.92,1,1-.91c.62-.6,1.53-1.48,2.7-2.59l4.18-4,2.66-2.57-.59.61-1.16,1.22-3.2,3.36c-1.07,1.12-1.89,2-2.46,2.6l-.87.92.91-.88,2.56-2.5.57-.56c-.37.39-.74.77-1.09,1.15l-4.35,4.6-2.78,3-1,1,1-1c.66-.67,1.64-1.64,2.88-2.88l4.48-4.48.66-.66-1.36,1.46-2.52,2.73-.89,1,.93-.93L27,102.89l4-4.1c1.56-1.58,3.33-3.36,5.24-5.32l.16-.17L34.9,94.94l.63-.63-2.67,3c-.91,1-1.61,1.8-2.09,2.34l-.74.83.78-.79L33,97.29l1.56-1.61-.93,1c-.89,1-1.57,1.78-2,2.31l-.72.82.76-.78c.49-.52,1.23-1.26,2.14-2.22.29-.31.61-.63.93-1l-.26.3-3.48,4c-1,1.09-1.71,2-2.22,2.55l-.78.9.82-.87,2.33-2.45,3.6-3.83c1-1,2-2.11,3.09-3.3l-.81,1c-1.8,2.07-3.43,4-4.88,5.66l-3.74,4.38L26,106.94l-.85,1,.89-1,2.5-2.73L32.43,100l.34-.38h0L29.08,104l-2.36,2.81-.83,1,.87-1c.57-.63,1.41-1.55,2.46-2.73L33,99.89l4.09-4.58L35.72,97l-3.31,4c-.92,1.12-1.64,2-2.13,2.62l-.75.92.79-.89c.46-.52,1.12-1.25,1.93-2.18L31,103.16l-.74.91.78-.87,2.18-2.49,3.39-3.88.21-.25-2,2.51c-.85,1.06-1.5,1.91-2,2.48l-.69.87.52-.59-.39.5-.71.89.75-.86L33.51,101l-.53.67-2.08,2.65-.74.94.78-.9,2.19-2.57c.75-.88,1.64-1.92,2.63-3.1l-1.44,1.85L30.84,105c-1,1.24-1.71,2.22-2.23,2.88l-.78,1,.82-1c.54-.65,1.34-1.59,2.34-2.8l3.62-4.35L37.75,97l-.81,1-3.17,4.16c-.88,1.16-1.56,2.07-2,2.69l-.72,1,.76-.91c.49-.61,1.22-1.48,2.13-2.61l3.31-4C38.52,96.72,40,95,41.52,93l.36-.45.08-.1.89-1.08c-.12.16-.23.31-.33.46-.5.7-.91,1.27-1.23,1.7l-.17.23c-1.51,2-2.88,3.93-4.1,5.59s-2.28,3.13-3.16,4.32l-2,2.79-.71,1,.23-.29-.74,1-.74,1,.79-1c.51-.65,1.26-1.59,2.21-2.81l3.09-4-.55.77-.63.89.67-.85c.44-.56,1.09-1.38,1.9-2.43l2-2.55-1.69,2.42.85-1.1c-.29.43-.58.84-.86,1.24l-3.08,4.37c-.86,1.21-1.52,2.17-2,2.82l-.7,1,.74-1a1.88,1.88,0,0,1,.18-.24l-.08.11-2.1,3L29.87,111l.78-1c.51-.68,1.27-1.67,2.21-2.93l1.33-1.78L32.35,108l-2.13,3-.75,1.09.8-1.06c.51-.7,1.27-1.71,2.23-3l1.08-1.46-2.89,4.21c-1,1.41-1.72,2.52-2.24,3.28l-.79,1.16.83-1.13,2.36-3.2,3.64-5,3-4.13L36,104c-.81,1.2-1.43,2.16-1.86,2.8l-.66,1,.7-1c.46-.66,1.14-1.55,2-2.73l3.06-4.25c1.19-1.64,2.52-3.49,4-5.52l1.11-1.55c-1.15,1.76-2.19,3.38-3.13,4.83l-2.64,4.1c-.74,1.13-1.3,2-1.69,2.65l-.6.93.64-.9c.42-.6,1-1.46,1.81-2.57l2.79-4c.35-.5.72-1,1.09-1.56L39.54,101c-1.62,2.54-3.09,4.87-4.39,6.94l-3.38,5.36-2.16,3.45L28.85,118l.81-1.19,2.27-3.38,3.53-5.26c1.07-1.59,2.25-3.35,3.51-5.25l-.45.73c-.74,1.2-1.3,2.14-1.69,2.78l-.6,1,.64-1,.26-.38-.43.71.63-.94c.41-.62,1-1.52,1.78-2.67S40.8,100.6,41.86,99c.27-.4.54-.82.83-1.24-.45.75-.87,1.44-1.23,2-.65,1.08-1.15,1.93-1.49,2.51l-.52.89.57-.86c.37-.56.92-1.38,1.6-2.44l.73-1.12-2.27,3.86c-.69,1.17-1.22,2.09-1.59,2.72l-.56,1,.61-.94.77-1.18-.35.58-2.91,5L34.19,113l-.66,1.14.66-1-.33.55.7-1.09,2-3.11,3-4.83c1.17-1.87,2.49-4,3.92-6.28L46.81,93l-.51.93-.88,1.62c-.15.26-.3.52-.44.78l-1.92,3.45-2.41,4.36c-.68,1.2-1.19,2.16-1.55,2.8l-.54,1,.59-1c.38-.63,1-1.55,1.66-2.74l2.57-4.27c1-1.64,2.11-3.5,3.32-5.54l.45-.75h0l-.78,1.5.19-.31-1.2,2.3,1.45-2.42-1.26,2.46.12-.21-.22.42.94-1.57-.73,1.42.47-.8-.73,1.45-.83,1.58c-1.28,2.42-2.43,4.65-3.45,6.63l-2.65,5.11c-.74,1.42-1.3,2.54-1.69,3.3l-.6,1.17.65-1.14.92-1.65L36.65,115l-.6,1.18s.23-.4.65-1.16l1.82-3.26,2.82-5.09c1-1.87,2.2-4,3.45-6.26l-.31.63c-.87,1.74-1.62,3.26-2.24,4.51s-1.1,2.24-1.44,2.91l-.5,1,.18-.33-.15.3c-1,2.13-2,4-2.74,5.53l-1.75,3.56-.62,1.26.67-1.23,1.87-3.5c.81-1.51,1.78-3.35,2.9-5.45s2.39-4.48,3.75-7.07l.12-.23.76-1.44.24-.45L44,103.69l-2.3,4.83c-.64,1.34-1.13,2.4-1.47,3.11l-.52,1.11.57-1.08c.37-.71.92-1.74,1.59-3s1.51-2.92,2.46-4.75l.46-.89c-1.21,2.57-2.31,4.94-3.29,7l-2.61,5.59c-.71,1.56-1.28,2.78-1.66,3.61l-.59,1.28.64-1.26L39,115.7c.76-1.53,1.69-3.39,2.76-5.52l.32-.64L41,112l-.5,1.12.55-1.09c.35-.71.89-1.75,1.54-3.08.25-.51.53-1.06.82-1.64-.26.59-.48,1.09-.66,1.47l-.46,1,.51-1c.33-.67.82-1.63,1.43-2.87l.35-.7-1.06,2.39c-.59,1.31-1,2.34-1.34,3l-.48,1.08.53-1.06c.33-.69.84-1.7,1.46-3L46,103.07c.32-.64.64-1.31,1-2l-.32.77L46,103.51c-.79,1.86-1.49,3.47-2.06,4.8s-1,2.39-1.32,3.1L42,112.5l.52-1.08c.33-.7.83-1.72,1.44-3,.41-.86.88-1.85,1.39-3-.26.63-.51,1.23-.76,1.81-.86,2-1.6,3.8-2.22,5.25s-1.09,2.61-1.42,3.39l-.5,1.2L41,115.9c.36-.77.89-1.89,1.55-3.33L45,107.39q.34-.77.72-1.56L45.21,107c-.53,1.29-.94,2.31-1.22,3l-.43,1,.48-1,1.35-3c.57-1.27,1.27-2.81,2.08-4.59l2-4.43-.72,1.86,1-2.14-1.91,4.86L46,107.29c-.51,1.3-.9,2.33-1.17,3l-.41,1.07.46-1c.26-.59.63-1.42,1.08-2.46-.35.9-.62,1.64-.83,2.17l-.4,1.07.45-1c.29-.68.74-1.67,1.28-3l1.18-2.76-.36,1-.36,1,.41-.93,1.14-2.65,1.75-4.12.57-1.35-.42,1.16-1.16,3.25.07-.16c-.52,1.4-1,2.71-1.44,3.92-.7,2-1.32,3.64-1.83,5s-.89,2.49-1.16,3.24l-.41,1.15.46-1.13c.3-.74.75-1.81,1.3-3.19l1.23-3.07L47,108.8l-.37,1,.42-1,.48-1.2c-.46,1.3-.81,2.32-1,3l-.38,1.08.43-1.06c.27-.69.69-1.7,1.19-3L49.52,103c.44-1.11.92-2.31,1.42-3.59l.13-.35.8-2c-.08.23-.16.46-.23.68l-.32,1h0c-.69,2.09-1.08,3.29-1.08,3.29s.34-.86.93-2.38l-.14.43c-.56,1.69-1,3.17-1.44,4.38s-.71,2.17-.92,2.82l-.32,1,.37-1c.24-.64.61-1.58,1-2.78l.8-2.13c-.72,2.18-1.37,4.21-2,6l-1.73,5.39c-.49,1.49-.85,2.67-1.11,3.47l-.39,1.23.44-1.22c.29-.79.71-1.94,1.24-3.42L47.6,112l-.25.81.4-1.09c.25-.71.64-1.74,1.1-3.07s1-2.93,1.7-4.78c.33-.9.67-1.86,1-2.87-.41,1.34-.79,2.6-1.15,3.76-.58,1.91-1.09,3.58-1.5,5s-.74,2.45-1,3.19l-.34,1.13L48,113c.25-.73.63-1.79,1.09-3.15s.9-2.64,1.46-4.27l-.21.72-1.52,5.13c-.42,1.42-.74,2.54-1,3.3l-.34,1.18.39-1.16c.19-.55.44-1.29.74-2.2l-.11.4.36-1.09c.24-.71.6-1.74,1-3.07l.58-1.78c-.38,1.32-.71,2.51-1,3.53-.4,1.4-.7,2.5-.91,3.25l-.11,1.2.37-1.13c.24-.74.61-1.82,1-3.2l1.54-4.79c-.31,1.14-.6,2.17-.84,3.06-.38,1.34-.66,2.41-.86,3.13l-.3,1.1.36-1.09c.22-.71.57-1.75,1-3.09l1.51-4.8c.59-1.85,1.25-4,2-6.23.57-2,1.18-4.06,1.85-6.25l-1,4-.51,2c-.59,2.3-1.12,4.41-1.58,6.29s-.88,3.5-1.21,4.85-.59,2.4-.77,3.12l-.26,1.11L51,112c.2-.72.52-1.76.9-3.09l.89-3.13v.2l-1.22,5.09c-.35,1.41-.6,2.53-.78,3.28l-.28,1.16.33-1.14c.16-.58.38-1.35.65-2.31v.2l.3-1.07a1.45,1.45,0,0,1,.07-.26c-.36,1.51-.67,2.86-1,4-.36,1.52-.63,2.72-.83,3.54l-.29,1.26.35-1.24.54-2-.14.6c-.37,1.59-.66,2.85-.85,3.7l-.3,1.31.35-1.3c.23-.84.56-2.08,1-3.66s.93-3.5,1.51-5.71c.34-1.28.71-2.65,1.09-4.12-.33,1.48-.63,2.87-.92,4.17-.5,2.22-.93,4.16-1.28,5.76s-.62,2.85-.81,3.71L50,122.36l.34-1.3.95-3.68c.25-1,.54-2.12.85-3.37l-.26,1.23c-.34,1.53-.58,2.74-.76,3.56l-.27,1.26.32-1.25c.21-.81.52-2,.9-3.53s.83-3.37,1.36-5.49,1.13-4.51,1.76-7.13c.36-1.46.73-3,1.12-4.59-.35,1.77-.65,3.31-.89,4.56-.43,2.32-.68,3.64-.68,3.64l.2-.83-.11.57-1,5.09c-.28,1.41-.48,2.52-.62,3.27L53,115.53s.09-.4.27-1.14.44-1.85.76-3.25l.29-1.27-.19,1c-.27,1.4-.46,2.51-.6,3.26l-.21,1.15.26-1.14c.17-.75.43-1.84.74-3.23l1.12-5c.44-1.94.93-4.13,1.45-6.52l.18-.84c-.29,1.66-.53,3.11-.73,4.3l-.6,3.66.79-3.62c.24-1.1.53-2.43.85-4L57,101.23,57.49,99c-.5,3-1,5.92-1.4,8.6q-.72,4.5-1.29,8.11c-.38,2.41-.71,4.52-1,6.26s-.48,3.09-.62,4L53,127.42l.27-1.42c.18-.92.44-2.28.76-4l1.16-6.23c.45-2.41,1-5.11,1.48-8.07l1.73-9.56c.16-.94.33-1.9.51-2.87l-.08.58c-.44,3.18-.85,6.19-1.23,9s-.72,5.32-1,7.58-.56,4.23-.77,5.85-.37,2.9-.48,3.77l-.17,1.33.22-1.32c.15-.87.36-2.14.62-3.75s.58-3.58.95-5.82c.08-.52.17-1.06.26-1.61l-.11.83c-.17,1.42-.3,2.55-.39,3.31l-.13,1.17.19-1.16c.12-.76.31-1.87.53-3.29s.49-3.14.8-5.12.66-4.2,1-6.64l.22-1.5c-.21,1.94-.42,3.79-.61,5.55-.31,2.72-.57,5.22-.8,7.43s-.43,4.14-.6,5.73S57,120,57,120.85l-.13,1.3.19-1.3c.11-.84.3-2.09.51-3.67s.48-3.5.78-5.71l.51-3.76c-.09.91-.17,1.75-.24,2.49-.13,1.38-.22,2.47-.28,3.21l-.1,1.13.15-1.13c.1-.73.25-1.81.43-3.19s.37-2.89.61-4.69c-.17,1.86-.32,3.59-.45,5.18-.19,2.18-.35,4.07-.48,5.64L58.2,120l-.1,1.28.16-1.28c.1-.83.25-2,.43-3.61s.4-3.45.66-5.63c0-.47.11-1,.17-1.47,0,.5-.07,1-.11,1.48-.17,2.18-.31,4.08-.43,5.65s-.2,2.79-.26,3.63l-.09,1.28.14-1.28c.08-.74.21-1.8.35-3.12.09-.79.22-1.92.37-3.36s.35-3.27.57-5.32c.06-.5.11-1,.17-1.56l-.11,1.72c-.09,1.33-.14,2.37-.18,3.08l-.07,1.09v-.1c0,.6-.06,1.1-.08,1.51l-.07,1.14L59.8,114c.08-.74.2-1.83.33-3.23s.31-3.08.5-5c0-.55.11-1.12.17-1.7-.16,2.62-.29,5-.4,7.17s-.22,4.12-.3,5.7-.14,2.82-.18,3.66l-.06,1.3a11.11,11.11,0,0,1,.11-1.29c.11-.84.19-2.08.32-3.66s.3-3.49.48-5.68.4-4.68.61-7.38c.11-1.44.23-3,.35-4.51,0,1-.06,2-.08,2.75l-.1,3.57s.1-1.16.26-3.19v.15l-.08,3.62.06-.72v.72s.1-1.31.27-3.61c0-.37.06-.78.09-1.2v.23c0,.77,0,1.51,0,2.21,0,1.86-.07,3.48-.1,4.81s0,2.38,0,3.09v1.1l.07-1.09c0-.72.11-1.76.19-3.09s.16-3,.27-4.8.2-3.51.31-5.51c0,3.11-.07,6-.1,8.78,0,2.93,0,5.62-.06,8s0,4.46,0,6.17v5.41l.06-1.4c0-.92.09-2.26.15-4,0-1,.08-2.22.12-3.52v7.49c0-.92.08-2.26.13-4,0-1.08.07-2.31.11-3.67v7.65c0-.92.06-2.26.1-4l.11-4.69c0,2.37,0,4.45.08,6.16s0,3.14.06,4.08v0c0-.94,0-2.32.08-4.08s.06-3.88.1-6.32c0-1.48,0-3.07.07-4.76v.07c0-.71,0-1.76.06-3.09v0c0,1.33.08,2.38.1,3.09v-5.3c.07,2.33.15,4.48.22,6.43.08,2.27.15,4.26.21,5.89l.15,3.8a11.78,11.78,0,0,0,.06,1.34V109.56c.06,1.36.13,2.43.16,3.16l.06,1.11v-5.65a4.5,4.5,0,0,0,.06.94l.06,1v-6.4q.09,1.55.18,2.94c.11,2,.22,3.72.3,5.14s.16,2.54.21,3.31L66,116.3v-1.18c0-.76,0-1.88-.07-3.31s-.07-3.16-.12-5.14V106c.14,2,.25,3.65.35,5s.18,2.5.24,3.25l.09,1.15v-1.16c0-.75,0-1.85-.1-3.25,0-.86-.06-1.84-.09-2.92.09,1.29.18,2.52.27,3.67.17,2.22.32,4.15.44,5.74s.22,2.85.29,3.7l.11,1.31v-1.31c0-.86-.08-2.11-.16-3.71l-.1-2.34c.06.84.13,1.63.18,2.34.13,1.59.25,2.84.32,3.69l.11,1.31-.06-1.31c0-.75-.08-1.81-.14-3.13a11.44,11.44,0,0,0,.1,1.16l.11,1.26-.06-1.27c0-.82-.09-2-.17-3.57-.07-1.27-.15-2.77-.23-4.46a12.84,12.84,0,0,0,.14,1.5l.11,1.11v-.18c.11,1.23.22,2.34.31,3.32.14,1.58.26,2.81.34,3.66l.13,1.29-.07-1.3c0-.84-.11-2.08-.21-3.66s-.21-3.5-.35-5.7-.28-4.68-.46-7.38l-.07-1a13.21,13.21,0,0,0-.09-1.64c.24,2.3.47,4.42.68,6.31s.42,3.77.58,5.22.29,2.59.38,3.36l.14,1.19L68.66,116c0-.78-.13-1.92-.24-3.38s-.24-3.14-.39-5.11l.08.67c.24,2,.46,3.84.63,5.31s.32,2.63.42,3.42l.15,1.21-.1-1.22c0-.46-.08-1-.13-1.73.11.94.21,1.8.31,2.58.2,1.6.35,2.86.46,3.72l.17,1.31-.12-1.32-.32-3.73c-.15-1.6-.32-3.55-.52-5.79s-.43-4.76-.7-7.51l-.07-.76c.17,1.29.34,2.5.49,3.63.28,2,.52,3.77.71,5.21s.37,2.58.48,3.35l.16,1.18L70,115.86c-.08-.77-.18-1.91-.33-3.36l-.3-2.89.38,2.55.16,1.1-.11-1.1c-.06-.6-.14-1.43-.24-2.46.1.74.21,1.46.31,2.15.33,2.22.61,4.16.85,5.76s.42,2.84.55,3.7l.2,1.31-.14-1.32c-.1-.86-.24-2.12-.42-3.72-.13-1.09-.27-2.35-.43-3.75.15,1,.29,1.9.41,2.72.24,1.56.44,2.79.57,3.63l.2,1.28-.15-1.29c-.1-.84-.23-2.08-.43-3.65l-.69-5.66c-.09-.76-.19-1.57-.29-2.4l.35,2.1c.22,1.39.41,2.47.53,3.22l.19,1.13L71,113.77c-.1-.75-.22-1.84-.4-3.23l-.64-5c-.12-.93-.25-1.92-.38-3,.13.77.26,1.52.38,2.26.47,2.77.91,5.3,1.31,7.54l1,5.81c.29,1.61.52,2.88.67,3.74l.24,1.32L73,121.88l-.53-3.76c-.24-1.62-.52-3.58-.85-5.84a9,9,0,0,0-.16-1.13l.14.72.2,1.09-.15-1.1c-.1-.72-.24-1.77-.44-3.11s-.44-3-.71-4.83l-.45-3,.47,2.44c.5,2.66,1,5.1,1.41,7.26s.79,4,1.1,5.6.55,2.77.72,3.6l.25,1.27-.2-1.28c-.13-.84-.32-2.07-.58-3.63s-.57-3.45-.93-5.63c-.16-1-.34-2.08-.52-3.2l.09.46c.27,1.3.5,2.32.64,3l.23,1.06-.17-1.07c-.12-.7-.28-1.74-.51-3s-.49-2.9-.79-4.73l-.15-.84L72,106c.43,1.94.8,3.63,1.1,5s.55,2.49.72,3.23l.25,1.15-.2-1.16c-.13-.75-.32-1.86-.58-3.26-.2-1.06-.42-2.3-.67-3.68.4,1.77.75,3.32,1,4.62s.58,2.53.76,3.29l.27,1.17-.22-1.18c-.14-.76-.34-1.89-.62-3.32-.24-1.26-.53-2.76-.85-4.46.28,1.19.54,2.32.79,3.39.51,2.17,1,4.06,1.31,5.61s.67,2.78.86,3.61l.31,1.27L76,120c-.16-.84-.4-2.08-.72-3.64s-.7-3.47-1.14-5.65c-.36-1.77-.75-3.74-1.19-5.85l.58,2.39c.71,2.93,1.37,5.6,2,8s1.1,4.44,1.52,6.14.76,3,1,4l.35,1.4-.3-1.41c-.2-.92-.49-2.27-.85-4s-.83-3.8-1.35-6.19-1.11-5.08-1.76-8c-.16-.69-.31-1.4-.47-2.11l.21.82c.51,1.93,1,3.62,1.32,5s.66,2.47.86,3.22.31,1.13.31,1.13L76.06,114c-.16-.75-.4-1.85-.72-3.25s-.71-3.1-1.15-5c-.09-.38-.18-.78-.27-1.18.15.54.3,1.07.43,1.57.54,2,1,3.65,1.39,5s.69,2.49.9,3.24l.32,1.15v-.22l.06.21-.27-1.16c-.18-.75-.43-1.86-.77-3.27l-.29-1.21.34,1.2c.39,1.39.71,2.49.92,3.23l.32,1.15L77,114.3c-.18-.76-.44-1.87-.78-3.27L75,106l-.06-.24c-.06-.26-.13-.54-.2-.82-.1-.43-.21-.86-.31-1.3L74,101.71l.62,2.17c.77,2.69,1.5,5.16,2.14,7.34l1.66,5.66,1.08,3.64.39,1.29-.34-1.3c-.21-.85-.53-2.09-.94-3.68L77,111.12l-.17-.64c.26.84.48,1.54.63,2l.34,1.11-.28-1.12c-.19-.73-.46-1.8-.83-3.16l-1.29-4.9-.14-.52.16.51c.58,1.87,1.09,3.5,1.51,4.84s.76,2.4,1,3.11l.35,1.1-.3-1.11c-.2-.73-.48-1.8-.85-3.15l-1.33-4.83c.55,1.71,1,3.21,1.44,4.45s.77,2.37,1,3.08L78.6,113l-.19-.66.24.71h0c.73,2.24,1.36,4.21,1.89,5.82l1.23,3.78L82.2,124l-.39-1.35-1.1-3.82-1.71-6c-.66-2.29-1.41-4.87-2.25-7.68l-1.22-4.11c.2.59.39,1.17.58,1.72.62,1.79,1.15,3.35,1.59,4.63s.8,2.3,1,3l.37,1.06-.28-.94c.35,1,.65,1.85.85,2.45l.39,1.11L79.72,113c-.23-.73-.54-1.82-1-3.19-.11-.38-.24-.78-.37-1.2.15.43.3.86.45,1.27.74,2.11,1.38,4,1.92,5.48s1,2.72,1.24,3.53l.45,1.25-.4-1.26c-.25-.83-.63-2-1.11-3.58l-1.49-4.71c.13.35.24.65.33.91l.39,1.08-.34-1.1c-.23-.71-.54-1.76-1-3.09L78,105.92c.57,1.57,1.08,3,1.5,4.12.5,1.36.9,2.43,1.17,3.15l.41,1.12-.36-1.13c-.24-.74-.58-1.83-1-3.21l-.12-.36c.17.47.33.87.45,1.2l.26.68.5,1.37c.54,1.45,1,2.58,1.26,3.35l.44,1.19-.39-1.2c-.26-.79-.63-1.94-1.12-3.4s-1.09-3.24-1.77-5.28-1.44-4.34-2.3-6.84c-.24-.72-.5-1.46-.75-2.21.46,1.19.9,2.32,1.31,3.36l1.76,4.51c.48,1.25.88,2.23,1.14,2.9l.41,1-.35-1c-.24-.68-.57-1.68-1-2.94l-1.59-4.58-1.51-4.31c.54,1.34,1,2.53,1.43,3.52l1.42,3.41-1.2-3.4,1.37,3.26-.36-1,1.88,4.53,2.2,5.27c.6,1.45,1.08,2.58,1.41,3.36l.5,1.18-.45-1.2c-.3-.79-.72-2-1.28-3.42s-1.23-3.24-2-5.29L80,104.16c.45,1,.86,2,1.21,2.82.54,1.27,1,2.26,1.28,2.94l.45,1-.4-1.06c-.27-.69-.65-1.7-1.15-3-.26-.66-.54-1.4-.85-2.21l.94,2.17c.55,1.27,1,2.26,1.3,2.93l.46,1-.41-1.06c-.27-.68-.66-1.7-1.17-3l-1.29-3.28c.89,2,1.73,3.92,2.49,5.62.93,2.08,1.73,3.9,2.4,5.39s1.19,2.67,1.55,3.46l.55,1.23-.5-1.25-1.42-3.52-.94-2.29v.12c1,2.23,1.88,4.17,2.6,5.77l1.69,3.71.6,1.31-.55-1.33-1.56-3.77c-.68-1.62-1.5-3.58-2.44-5.84l-.43-1,2.49,5.42,1.68,3.61.59,1.27-.54-1.3L87,116.37c-.67-1.58-1.48-3.49-2.42-5.68l-3.15-7.36-.39-.91,2.6,5.47c1,2,1.81,3.79,2.51,5.24l1.62,3.38.58,1.19-.53-1.22c-.34-.79-.85-2-1.5-3.43s-1.44-3.26-2.34-5.32L83.7,107l.14.28,2.53,5.18c.69,1.44,1.26,2.56,1.63,3.33l.59,1.17-.54-1.2c-.35-.78-.85-1.93-1.51-3.38l-2.22-4.93.62,1.23.51,1-.46-1c-.3-.68-.74-1.67-1.31-2.93l-.15-.33c1,2.11,2,4.07,2.93,5.85L89.34,117l1.84,3.63.66,1.29-.61-1.31c-.4-.85-1-2.1-1.71-3.69s-1.65-3.52-2.69-5.74-2.2-4.71-3.49-7.43l-.13-.26-.54-1.16L80.88,98.5l1.65,3.08s-.28-.61-.8-1.71l.82,1.53c.91,1.72,1.71,3.22,2.36,4.46l1.54,2.86.54,1-.5-1c-.32-.67-.79-1.67-1.4-2.92l-2.21-4.53L80.79,97c.27.51.53,1,.77,1.4l1.76,3.17-1.59-3.26-.86-1.75.39.69L81,96.74c.22.38.43.76.63,1.12.87,1.55,1.63,2.91,2.26,4s1.12,2,1.46,2.58l.52.92-.47-.94-1.34-2.65c-.48-.92-1-2-1.65-3.23l.36.63-.19-.37.31.53,2.41,4.21c.66,1.16,1.2,2.07,1.56,2.69l.55,1-.51-1c-.33-.64-.81-1.58-1.43-2.77L85,102.6c.86,1.48,1.62,2.78,2.25,3.88l1.7,2.9.6,1-.55-1c-.37-.69-.89-1.7-1.58-3l-.6-1.12,2,3.35L92,113.94l2,3.42.72,1.21L94,117.34l-1.88-3.45.08.14-.61-1.14c-.41-.73-1-1.82-1.75-3.2l-2.72-5c-1.05-1.91-2.24-4.07-3.55-6.42l-2-3.66.12.19-.23-.41.71,1.13L84,98.45l-.2-.37v.09l3.86,6.25,3,4.81,1.93,3.09.69,1.09-.64-1.12-1.81-3.16c-.55-.94-1.17-2-1.86-3.22h0l-.54-1c-.07-.11-.13-.22-.2-.35,1,1.54,1.87,3,2.71,4.3l3.37,5.36,2.19,3.44.77,1.21-.73-1.24-2.06-3.51-3.23-5.45c-1.24-2.1-2.65-4.48-4.19-7.06l-.48-.79-.86-1.47c-.64-1.07-1.4-2.37-2.28-3.86l-.76-1.27c1.16,1.77,2.24,3.39,3.2,4.84l2.76,4.17,1.8,2.77.64.94-.59-1-1.67-2.75-.92-1.5.48.71c.75,1.13,1.36,2,1.77,2.61l.62.93-.58-1c-.38-.62-.93-1.54-1.65-2.69l-1.33-2.14,1.42,2.08c.76,1.12,1.37,2,1.79,2.6l.63.92-.59-1c-.39-.62-.94-1.53-1.67-2.68l-2.61-4-1-1.57L83.6,93.88l1.32,1.87L87,98.65l-.29-.46c1.47,2.12,2.84,4.06,4.06,5.78l3.35,4.76,2.17,3,.76,1.07-.72-1.1c-.47-.73-1.17-1.79-2-3.13l-3-4.48,2.29,3.2c.91,1.28,1.64,2.27,2.13,3l.76,1-.71-1.07c-.47-.7-1.14-1.74-2-3l-3-4.48.55.75.66.89-.61-.92c-.4-.6-1-1.48-1.73-2.59l-2.71-4-1.79-2.65.54.71-1.17-1.75,1.74,2.29,2.2,2.88L88.19,98l1.94,2.57c.8,1.07,1.45,1.91,1.89,2.48l.67.88-.63-.91c-.38-.55-.91-1.33-1.6-2.31.37.48.71.92,1,1.34l2,2.58.71.91-.66-.94c-.44-.62-1.06-1.53-1.88-2.67L90.28,100l2.16,2.81c1.38,1.77,2.57,3.32,3.56,4.6l2.29,3,.82,1-.78-1.08-2.18-3-.75-1,.79,1,2.3,2.94.82,1-.77-1.07-2.2-3-1.8-2.46,1.58,2,2.3,2.91.82,1-.77-1.06-2.2-3L92.85,102c-1.32-1.79-2.81-3.81-4.45-6l-.82-1.09.15.18-2-2.71-.67-.91,1.2,1.44,2.2,2.63-.26-.34.21.25,3.07,3.71c.84,1,1.52,1.82,2,2.37l.7.84-.66-.87-1-1.34.58.7c.89,1.08,1.61,1.92,2.09,2.49l.74.88-.7-.91c-.46-.6-1.12-1.48-2-2.58l-1.89-2.44.45.53-2.33-3c-.11-.16-.24-.32-.37-.48l1,1.13-1.94-2.51L91,97.16c.83,1,1.49,1.73,1.94,2.24l.69.8L93,99.39c.79.92,1.43,1.64,1.87,2.15l.74.84-.69-.87c-.42-.52-1-1.28-1.76-2.21l1.72,2c1,1.1,1.71,1.94,2.22,2.53l.79.89-.75-.93c-.49-.6-1.19-1.49-2.11-2.61l-.43-.54,3,3.48,4.17,4.76,2.7,3,1,1.08-.92-1.12L102,108.73l-4-4.87-1.48-1.79.74.82-.73-.88L95,100.18l.64.7L94.9,100l-.33-.4,1.62,1.78.77.84-.73-.87c-.47-.57-1.16-1.41-2-2.46s-2-2.35-3.2-3.82l-1.72-2,.73.78L88.91,92.5l.84.89L89.41,93l2.08,2.23C92.82,96.69,94,97.94,94.92,99s1.71,1.82,2.22,2.36l.79.84-.75-.87-.3-.35.12,0,.78.83L97,101c-.49-.57-1.19-1.4-2.1-2.44L93.72,97.2l2.64,2.8,2.31,2.43.82.86-.78-.89c-.51-.59-1.25-1.45-2.21-2.53L93.05,96c-1.32-1.5-2.8-3.18-4.43-5l-.13-.15,2.19,2.28c1.87,1.94,3.59,3.7,5.11,5.27l3.95,4.06,2.55,2.6.9.92-.86-1-2.45-2.7-3.82-4.17-2.48-2.72,1,1c.93.94,1.68,1.68,2.19,2.18l.78.77-.74-.81c-.49-.52-1.19-1.3-2.09-2.28l-.88-1,2.65,2.64,2.33,2.29.82.81-.79-.85L96.64,97.8l-1.87-2,.2.2c1,.94,1.71,1.66,2.22,2.16l.79.76-.75-.8c-.49-.52-1.2-1.29-2.12-2.25l-3.3-3.49c-1.28-1.35-2.72-2.87-4.3-4.52l-.39-.4.47.44,3.73,3.58,5.23,5,4,3.82c1.11,1.07,2,1.89,2.6,2.46l.93.86-.89-.9c-.58-.59-1.42-1.46-2.51-2.56l-1-1L99.61,99l-2.27-2.31L93.79,93.1l-2.42-2.4-1-1.07-3.15-3.19,2.34,2.11L92,90.76l-.22-.22,2.26,2,2.15,1.92.77.68-.38-.38,2.68,2.41c1.08,1,1.94,1.72,2.52,2.24l.89.79-.86-.83L99.4,97l-3.78-3.62L94.4,92.23l.9.8,2.24,2,.8.69L97.59,95l-.39-.38.62.54c1.61,1.42,3,2.65,4.18,3.66s2.08,1.81,2.7,2.35l1,.83-.92-.87c-.6-.56-1.48-1.4-2.61-2.45L100.38,97l.74.63.88.75-.84-.79c-.55-.51-1.35-1.27-2.38-2.22l-2-1.88.2.16.78.66-.74-.7-1.3-1.21L98.83,95c1.06.9,1.91,1.6,2.48,2.08l.88.74-.85-.78L99,94.89,95.2,91.52l-.15-.14,2.06,1.74c2.3,1.94,4.42,3.7,6.29,5.27l4.86,4,3.14,2.6,1.11.92-1.07-1-3-2.7-3.9-3.44,2.38,1.94,1,.82-1-.86c-.64-.56-1.56-1.39-2.75-2.43l-3.1-2.71c.24.18.45.35.63.5l.89.71-.86-.75-1.38-1.23,2.57,2.08,4.8,3.88,3.1,2.49,1.1.88-1.07-.92-3-2.59c-1.29-1.12-2.87-2.47-4.68-4l-5.3-4.53,1.09.87,2.49,1.94.88.68-.85-.72c-.55-.48-1.36-1.18-2.4-2l-3.74-3.17L92.21,87l2.06,1.55-.35-.29c1.62,1.25,3.13,2.4,4.49,3.43L102.66,95l2.75,2.08,1,.73-.94-.77c-.61-.51-1.51-1.26-2.66-2.19l-4.14-3.39-4.45-3.62,2.57,1.9,4,3c1.12.84,2,1.48,2.61,1.92l.93.68-.89-.72-2.53-2-1.68-1.34,2.08,1.52,4.6,3.37c1.28.94,2.29,1.66,3,2.16l1,.76-1-.8c-.67-.53-1.64-1.3-2.89-2.27l-3.6-2.81-.49-.39.75.53.91.65-.88-.69-1-.8,1.07.75.91.64-.88-.69c-.57-.44-1.41-1.11-2.49-1.94l-3.88-3-1.9-1.47,3.78,2.64,2.44,1.69.87.6-.46-.36.57.4,2.67,1.85,1,.65-.91-.69-2.17-1.64,4.15,2.87,3,2.06,1.06.73-1-.78-2.92-2.17-2.92-2.16c1.14.79,2.06,1.39,2.68,1.82l1,.66-1-.71L104.66,93l.85.57,1,.65-.94-.7-2.67-2L99.82,89.3l.49.32-.73-.53,4.24,2.82,2.82,1.87,1,.66-1-.71-2.74-2-4.27-3-.18-.13,4.34,2.83c1.21.8,2.17,1.41,2.82,1.83l1,.65-1-.69-2.74-2c-.33-.22-.67-.47-1-.72l1.22.78,1,.6-.92-.64-1.38-1,1.83,1.16L108.63,94l3.15,2,1.12.71L111.84,96l-2.1-1.45,1.24.78,1.1.69L111,95.3l-3-2.08c-1.28-.88-2.89-2-4.71-3.22l-2.41-1.65L103,89.67l2.76,1.71,1,.6-1-.65-.53-.36.79.49,1,.6-1-.65c-.62-.42-1.53-1-2.7-1.83l-4.21-2.82-.86-.58,2.7,1.66-.63-.43,2.85,1.72c1.19.73,2.13,1.29,2.77,1.67l1,.59-1-.63c-.62-.41-1.53-1-2.7-1.79l-4.21-2.76-4.81-3.14-2-1.32L94.37,83c2.11,1.25,4,2.37,5.77,3.37L104.59,89l2.87,1.66,1,.58-1-.63-2.79-1.77L100.33,86l-4.1-2.57c1.59.91,3.09,1.75,4.44,2.51l4.51,2.54c1.25.71,2.24,1.25,2.91,1.62l1,.58-1-.62-2.84-1.75-2.36-1.43L103,87l-.87-.53c-.56-.35-1.39-.87-2.45-1.51L96.62,83l-1.12-.69,1.22.65-2.09-1.28,3.46,1.85,3.28,1.72-2.3-1.37.63.34c2.47,1.33,4.74,2.54,6.76,3.6l5.21,2.77,3.33,1.8,1.19.63L115,92.34l-1.54-.88.43.23,3.52,1.84,1.24.65-1.22-.7-3.45-2-5.37-3c-2.07-1.17-4.41-2.5-7-3.93l-5.9-3.29,1.64.81,4.39,2.24c2.61,1.33,5,2.54,7.14,3.61l5.51,2.77L118,92.46l1.26.63L118,92.42l-3.49-1.9-5.43-2.93-7-3.79-6.2-3.3,2.95,1.41,3.35,1.57-3.26-1.75c-1.3-.7-3-1.58-4.9-2.6l.28.13,2.91,1.32-1.93-1,4.27,2,4.38,2,2.82,1.27,1,.45-1-.5-1.5-.76.83.37c1.28.59,2.28,1,3,1.34l1,.47-1-.52-.82-.42,2.61,1.17,1.1.48-1.07-.53-3-1.51-2.23-1.09,5.6,2.49,5.78,2.57,3.73,1.64,1.32.58-1.29-.63-3.68-1.77L111.44,86,105,82.86l1.4.61,3,1.26,1.06.45-.62-.3L112.53,86,116,87.46l1.21.51L116,87.41l-3.36-1.58-1.56-.72,3.19,1.33,1.17.49-1.15-.54-.21-.1,1.12.47,1.19.49-1.17-.54c-.76-.36-1.88-.88-3.31-1.53l-5.14-2.36-3.24-1.48,2.29.92,1,.39-1-.44L103.12,81l-2.22-1,1.09.43c1.15.47,2.06.82,2.68,1.06l1,.37-.93-.42-2.16-1,2.08.82,5,2,3.21,1.25L114,85l-1.11-.49c-.73-.32-1.8-.8-3.16-1.38L104.82,81c-1.85-.8-3.94-1.71-6.22-2.68l-1-.42-2-.88,3,1.07-2.94-1.28-4.75-2c1.88.68,3.5,1.25,4.76,1.69l1.52.52.81.3,6.4,2.28,4.94,1.74c1.36.49,2.44.86,3.18,1.12l1.12.39-1.1-.44c-.73-.29-1.78-.72-3.14-1.25l-1.54-.6,1.07.36,1,.36-1-.41c-.67-.26-1.65-.66-2.9-1.14l-.39-.15.51.16,1,.33-1-.38-2.72-1.06L99.2,76.94,96.94,76l4.88,1.6,3.61,1.16h-.12l.49.16-3.57-1.36L98.31,76.1l-2.19-.84H96l3,.93-.26-.1h0l4.27,1.33,2.76.84,1,.3-.86-.31,1.45.45,5.31,1.64c1.47.46,2.64.81,3.43,1l1.21.37-1.2-.42-3.38-1.18L112.5,80l2.57.79,3.59,1.08,1.27.38-1.26-.43-3.54-1.21L113,79.88l.43.12,1.14.34L113.43,80c-.74-.25-1.82-.63-3.2-1.09h0l3.08.9,1.15.33-1.13-.38c-.74-.25-1.82-.63-3.19-1.08l-5-1.66-4.74-1.57,3.26.92,4.85,1.36,3.13.87,1.11.3-1.09-.35c-.72-.23-1.76-.58-3.09-1L103.79,76l-1.64-.53,1.62.44,4.86,1.31,3.14.83,1.11.29-1.1-.34-1.37-.44,4.75,1.27c1.54.42,2.76.73,3.59.94l1.27.34-1.26-.39c-.82-.24-2-.62-3.55-1.07L109.69,77l-5.86-1.75,1.67.42L110.57,77c1.4.36,2.51.63,3.27.81L115,78l-1.14-.34-3.23-.94-1-.29,1.21.3c1.41.36,2.53.62,3.29.8l1.16.28-1.15-.33c-.75-.22-1.85-.54-3.25-.93l-2.44-.7-1.7-.48-4.36-1.24.45.11,3.7.84L106,75l.89.2-3.68-1-5.43-1.5,1.07.23,3.32.71-2.54-.7c2.1.47,4,.89,5.79,1.26l5.06,1.1,3.26.69,1.15.24-1.14-.29L110.56,75l-5-1.27L99,72.12l-2-.51,3.08.6,3.43.65L100.08,72l-.3-.07,3.67.7,4.82.92,3.1.57,1.1.21-1-.23,3.06.57,1.17.21-1.16-.27-3.28-.75-2.65-.59,2.22.39,1.09.19-1.08-.24-3-.69L106,72.55l3.24.57,3.17.55,1.12.19-1.11-.25-3.15-.68-.56-.12,2.2.38,3.29.55,1.16.19-1.15-.24-1.65-.35,5,.83,3.75.62,1.32.22-1.31-.27L117.6,74l-5.78-1.15-2-.4,1.6.24,1.09.17-1.08-.22-1.19-.24,1.2.18,1.09.17-1.08-.22-3.09-.62L103.58,71l-4.25-.82,1.65.23-1.23-.25.8.11-1.67-.33h.34c2.42.35,4.64.65,6.61.92l5.1.7c1.41.2,2.53.34,3.28.44l1.16.16-.3-.06h0l1.18.15L115.08,72l-3.32-.58-5.16-.89-2.7-.46c2.56.34,4.92.63,7,.89l5.71.72,3.68.45,1.31.16-1.3-.21-3.66-.59L111,70.66c-2.2-.35-4.68-.74-7.38-1.15l-1.74-.26h.37l7.17.8,5.53.61,3.56.38,1.26.13L118.51,71c-.81-.12-2-.3-3.54-.51L111.59,70l1.22.12,1.13.11-1.12-.16c-.73-.1-1.81-.27-3.17-.45l-3.43-.48,4.16.4,3.24.29,1.15.11-1.14-.16-.93-.13.77.07,1.15.1-1.14-.15c-.74-.1-1.83-.26-3.22-.43l-1.46-.19,1.62.14,3.24.28,1.15.09-1.14-.15-1.85-.24h.51l5.88.5L122,70l1.34.11L122,70l-3.77-.45-5.86-.68-4.92-.57,4.15.31c1.43.11,2.56.18,3.32.23l1.18.08-1.17-.13-3.31-.38-4.88-.52,1.8.11c1.34.1,2.39.15,3.11.2l1.1.06-1.1-.12-2.12-.23h.89l-1-.11c-.69-.07-1.68-.19-3-.31L101.83,67,101,67l3.28.19c2.75.16,5.28.29,7.53.41l5.8.3,3.74.18,1.32.06L121.31,68l-3.72-.32-5.8-.48-1.37-.12,1.7.08,3.36.13h1.18l-1.18-.09-.55,0h1.74l-1.19-.09c-.7-.06-1.7-.15-3-.24h1.34L115,67l-1.15-.09-1.3-.1,3.07.09h1.19l-1.19-.09-3.36-.25-2.08-.14,3.11.08h1.14l-1.14-.08-3.21-.22-5-.33H105l5,.1h4.34l-1.2,0c-.74,0-1.82-.12-3.2-.19h-.25l5.11.09,6.2.1h5.4l-1.4-.07Z" transform="translate(0 -0.03)"/></g></svg>