<svg id="eb734d6a-b9fd-4406-b66e-fdd815cef55e" data-name="Layer 1" xmlns="http://www.w3.org/2000/svg" viewBox="0 0 118.54 118.66"><title>14u</title><g id="a3d93836-ce36-4004-bf24-cf127f500c57" data-name="shapes"><path d="M59.15,61.11a.09.09,0,0,1,.08-.09h0a.09.09,0,0,1,.09.08h0a.09.09,0,0,1-.08.09h0s-.08,0-.09-.07Zm-.27.07h0a.1.1,0,0,1-.07-.1h0A.07.07,0,0,1,58.9,61h0a.08.08,0,0,1,.07.09h0a.08.08,0,0,1-.08.08h0Zm.61-.1a.07.07,0,0,1,0-.09h0a.08.08,0,0,1,.1.06h0a.08.08,0,0,1-.06.1h0S59.49,61.12,59.49,61.08Zm-1,0h0a.07.07,0,0,1,0-.1h0a.09.09,0,0,1,.11-.06h0a.08.08,0,0,1,0,.11h0a.08.08,0,0,1-.08.06h0ZM59.81,61a.08.08,0,0,1,0-.11h0a.08.08,0,0,1,.11,0h0a.09.09,0,0,1,0,.12h-.11Zm-1.59,0a.09.09,0,0,1,0-.12h0a.08.08,0,0,1,.11,0h0a.09.09,0,0,1,0,.12h-.11Zm1.89-.12a.08.08,0,0,1,0-.11h0a.08.08,0,0,1,.11,0h0a.13.13,0,0,1,0,.12h0a.1.1,0,0,1-.12-.05Zm-2.18-.09a.09.09,0,0,1,0-.12h0a.09.09,0,0,1,.12,0h0a.08.08,0,0,1,0,.11H58a.06.06,0,0,1-.06,0Zm2.44-.12a.09.09,0,0,1,0-.12h0a.09.09,0,0,1,.12,0h0a.08.08,0,0,1,0,.11h-.07a.06.06,0,0,1-.06-.05Zm-2.68-.13a.09.09,0,0,1,0-.12h0a.09.09,0,0,1,.12,0h0a.09.09,0,0,1,0,.12h-.12Zm2.91-.12a.09.09,0,0,1,0-.12h0a.09.09,0,0,1,.12,0h0a.08.08,0,0,1,0,.11H60.6Zm-3.1-.18h0a.07.07,0,0,1,0-.1h0a.08.08,0,0,1,.11,0h0a.09.09,0,0,1,0,.12h0a.08.08,0,0,1-.11,0,0,0,0,0,1,0,0Zm3.26-.12a.08.08,0,0,1,0-.11h0a.08.08,0,0,1,.11,0h0a.08.08,0,0,1,0,.11h0a.11.11,0,0,1-.08,0h0Zm-3.4-.21a.09.09,0,0,1,.06-.1h0s.09,0,.11.06h0a.09.09,0,0,1-.06.1h0a.09.09,0,0,1-.11-.06v0Zm3.51-.11a.06.06,0,0,1-.06-.08h0a.07.07,0,0,1,.09-.07h0a.08.08,0,0,1,.06.1h0a.08.08,0,0,1-.08.07h0Zm-3.57-.23a.08.08,0,0,1,.07-.1h0a.1.1,0,0,1,.1.08h0s0,.08-.07.09h0a.08.08,0,0,1-.09-.12Zm3.54-.18h0s0-.08.07-.09h0a.09.09,0,0,1,.09.09h0a.09.09,0,0,1-.09.08h0a.09.09,0,0,1-.1-.06.1.1,0,0,1,0-.07Zm-3.47-.08a.08.08,0,0,1-.07-.1h0a.07.07,0,0,1,.07-.07h0a.07.07,0,0,1,.07.07v0h0a.09.09,0,0,1-.08.08h0ZM60.81,59a.08.08,0,0,1,.06-.1h0a.08.08,0,0,1,.12,0A.08.08,0,0,1,61,59h0a.08.08,0,0,1-.07.1h0a.08.08,0,0,1-.11,0A.1.1,0,0,1,60.81,59Zm-3.39-.09a.08.08,0,0,1-.06-.1h0a.09.09,0,0,1,.11-.06h0a.08.08,0,0,1,.06.08v0h0a.08.08,0,0,1-.08.07h0Zm3.29-.22h0a.11.11,0,0,1,0-.11h0a.08.08,0,0,1,.11,0h0a.08.08,0,0,1,0,.11h0a.09.09,0,0,1-.11,0Zm-3.18-.1a.08.08,0,0,1,0-.11h0a.09.09,0,0,1,.12,0h0a.07.07,0,0,1,0,.1h-.13Zm3-.18a.08.08,0,0,1,0-.11h0a.09.09,0,0,1,.12,0h0a.09.09,0,0,1,0,.12h0a.08.08,0,0,1-.08,0Zm-2.87-.11a.09.09,0,0,1,0-.12h0a.08.08,0,0,1,.11,0h0a.08.08,0,0,1,0,.11h-.12Zm2.67-.15a.08.08,0,0,1,0-.1l0,0h0a.08.08,0,0,1,.11,0h0a.09.09,0,0,1,0,.12h-.12ZM57.88,58a.08.08,0,0,1,0-.11h0a.09.09,0,0,1,.12,0h0A.09.09,0,0,1,58,58h-.12Zm2.2-.09a.13.13,0,0,1,0-.12h0a.08.08,0,0,1,.11,0h0a.08.08,0,0,1,0,.11h-.13Zm-1.94-.12a.08.08,0,0,1,0-.11h0a.09.09,0,0,1,.12,0h0a.08.08,0,0,1,0,.11h0a.11.11,0,0,1-.08,0Zm1.66,0h0a.09.09,0,0,1,0-.12h0a.08.08,0,0,1,.11,0h0a.07.07,0,0,1,.05.1H59.8Zm-1.36-.11a.1.1,0,0,1,.05-.11h0a.08.08,0,0,1,.11,0h0a.08.08,0,0,1,0,.11h0a.08.08,0,0,1-.11-.05,0,0,0,0,1,0,0Zm1.06,0a.09.09,0,0,1-.06-.1h0a.08.08,0,0,1,.1-.06h0a.08.08,0,0,1,.06.1h0a.08.08,0,0,1-.08.06h0Zm-.74-.1s0-.08.07-.09h0a.07.07,0,0,1,.09,0v0h0a.07.07,0,0,1,0,.09h0a.11.11,0,0,1-.06-.1Zm.42.06a.11.11,0,0,1-.08-.09h0a.09.09,0,0,1,.08-.08h0a.09.09,0,0,1,.08.08h0a.09.09,0,0,1-.08.08h0Z" transform="translate(0.02 0)"/><path d="M59.15,61.11a.09.09,0,0,1,.08-.09h0a.09.09,0,0,1,.09.08h0a.09.09,0,0,1-.08.09h0s-.08,0-.09-.07Zm-.27.07h0a.1.1,0,0,1-.07-.1h0A.07.07,0,0,1,58.9,61h0a.08.08,0,0,1,.07.09h0a.08.08,0,0,1-.08.08h0Zm.61-.1a.07.07,0,0,1,0-.09h0a.08.08,0,0,1,.1.06h0a.08.08,0,0,1-.06.1h0S59.49,61.12,59.49,61.08Zm-1,0h0a.07.07,0,0,1,0-.1h0a.09.09,0,0,1,.11-.06h0a.08.08,0,0,1,0,.11h0a.08.08,0,0,1-.08.06h0ZM59.81,61a.08.08,0,0,1,0-.11h0a.08.08,0,0,1,.11,0h0a.09.09,0,0,1,0,.12h-.11Zm-1.59,0a.09.09,0,0,1,0-.12h0a.08.08,0,0,1,.11,0h0a.09.09,0,0,1,0,.12h-.11Zm1.89-.12a.08.08,0,0,1,0-.11h0a.08.08,0,0,1,.11,0h0a.13.13,0,0,1,0,.12h0a.1.1,0,0,1-.12-.05Zm-2.18-.09a.09.09,0,0,1,0-.12h0a.09.09,0,0,1,.12,0h0a.08.08,0,0,1,0,.11H58a.06.06,0,0,1-.06,0Zm2.44-.12a.09.09,0,0,1,0-.12h0a.09.09,0,0,1,.12,0h0a.08.08,0,0,1,0,.11h-.07a.06.06,0,0,1-.06-.05Zm-2.68-.13a.09.09,0,0,1,0-.12h0a.09.09,0,0,1,.12,0h0a.09.09,0,0,1,0,.12h-.12Zm2.91-.12a.09.09,0,0,1,0-.12h0a.09.09,0,0,1,.12,0h0a.08.08,0,0,1,0,.11H60.6Zm-3.1-.18h0a.07.07,0,0,1,0-.1h0a.08.08,0,0,1,.11,0h0a.09.09,0,0,1,0,.12h0a.08.08,0,0,1-.11,0,0,0,0,0,1,0,0Zm3.26-.12a.08.08,0,0,1,0-.11h0a.08.08,0,0,1,.11,0h0a.08.08,0,0,1,0,.11h0a.11.11,0,0,1-.08,0h0Zm-3.4-.21a.09.09,0,0,1,.06-.1h0s.09,0,.11.06h0a.09.09,0,0,1-.06.1h0a.09.09,0,0,1-.11-.06v0Zm3.51-.11a.06.06,0,0,1-.06-.08h0a.07.07,0,0,1,.09-.07h0a.08.08,0,0,1,.06.1h0a.08.08,0,0,1-.08.07h0Zm-3.57-.23a.08.08,0,0,1,.07-.1h0a.1.1,0,0,1,.1.08h0s0,.08-.07.09h0a.08.08,0,0,1-.09-.12Zm3.54-.18h0s0-.08.07-.09h0a.09.09,0,0,1,.09.09h0a.09.09,0,0,1-.09.08h0a.09.09,0,0,1-.1-.06.1.1,0,0,1,0-.07Zm-3.47-.08a.08.08,0,0,1-.07-.1h0a.07.07,0,0,1,.07-.07h0a.07.07,0,0,1,.07.07v0h0a.09.09,0,0,1-.08.08h0ZM60.81,59a.08.08,0,0,1,.06-.1h0a.08.08,0,0,1,.12,0A.08.08,0,0,1,61,59h0a.08.08,0,0,1-.07.1h0a.08.08,0,0,1-.11,0A.1.1,0,0,1,60.81,59Zm-3.39-.09a.08.08,0,0,1-.06-.1h0a.09.09,0,0,1,.11-.06h0a.08.08,0,0,1,.06.08v0h0a.08.08,0,0,1-.08.07h0Zm3.29-.22h0a.11.11,0,0,1,0-.11h0a.08.08,0,0,1,.11,0h0a.08.08,0,0,1,0,.11h0a.09.09,0,0,1-.11,0Zm-3.18-.1a.08.08,0,0,1,0-.11h0a.09.09,0,0,1,.12,0h0a.07.07,0,0,1,0,.1h-.13Zm3-.18a.08.08,0,0,1,0-.11h0a.09.09,0,0,1,.12,0h0a.09.09,0,0,1,0,.12h0a.08.08,0,0,1-.08,0Zm-2.87-.11a.09.09,0,0,1,0-.12h0a.08.08,0,0,1,.11,0h0a.08.08,0,0,1,0,.11h-.12Zm2.67-.15a.08.08,0,0,1,0-.1l0,0h0a.08.08,0,0,1,.11,0h0a.09.09,0,0,1,0,.12h-.12ZM57.88,58a.08.08,0,0,1,0-.11h0a.09.09,0,0,1,.12,0h0A.09.09,0,0,1,58,58h-.12Zm2.2-.09a.13.13,0,0,1,0-.12h0a.08.08,0,0,1,.11,0h0a.08.08,0,0,1,0,.11h-.13Zm-1.94-.12a.08.08,0,0,1,0-.11h0a.09.09,0,0,1,.12,0h0a.08.08,0,0,1,0,.11h0a.11.11,0,0,1-.08,0Zm1.66,0h0a.09.09,0,0,1,0-.12h0a.08.08,0,0,1,.11,0h0a.07.07,0,0,1,.05.1H59.8Zm-1.36-.11a.1.1,0,0,1,.05-.11h0a.08.08,0,0,1,.11,0h0a.08.08,0,0,1,0,.11h0a.08.08,0,0,1-.11-.05,0,0,0,0,1,0,0Zm1.06,0a.09.09,0,0,1-.06-.1h0a.08.08,0,0,1,.1-.06h0a.08.08,0,0,1,.06.1h0a.08.08,0,0,1-.08.06h0Zm-.74-.1s0-.08.07-.09h0a.07.07,0,0,1,.09,0v0h0a.07.07,0,0,1,0,.09h0a.11.11,0,0,1-.06-.1Zm.42.06a.11.11,0,0,1-.08-.09h0a.09.09,0,0,1,.08-.08h0a.09.09,0,0,1,.08.08h0a.09.09,0,0,1-.08.08h0Z" transform="translate(0.02 0)"/><path d="M59.15,61.47a.1.1,0,0,1,.09-.11h0a.09.09,0,0,1,.1.1h0a.11.11,0,0,1-.09.1h0a.1.1,0,0,1-.11-.09Zm-.32.07a.08.08,0,0,1-.08-.1h0a.1.1,0,0,1,.11-.09h0a.09.09,0,0,1,.09.11h0a.11.11,0,0,1-.1.09h0Zm.72-.11a.1.1,0,0,1,.08-.12h0a.1.1,0,0,1,.12,0v0h0a.1.1,0,0,1-.08.12h0A.12.12,0,0,1,59.55,61.43Zm-1.13,0a.08.08,0,0,1-.06-.11h0a.12.12,0,0,1,.13-.07h0a.1.1,0,0,1,.06.13h0a.1.1,0,0,1-.1.07h0Zm1.52-.12a.11.11,0,0,1,.05-.14h0a.12.12,0,0,1,.14,0h0a.11.11,0,0,1-.05.14h0a.12.12,0,0,1-.14,0Zm-1.91,0h0a.12.12,0,0,1,0-.14h0a.12.12,0,0,1,.14,0h0a.1.1,0,0,1,0,.14h0a.07.07,0,0,1-.08,0H58Zm2.27-.14a.12.12,0,0,1,0-.14h0a.1.1,0,0,1,.14,0h0a.1.1,0,0,1,0,.14h-.06a.08.08,0,0,1-.09,0ZM57.69,61h0a.1.1,0,0,1,0-.14h0a.1.1,0,0,1,.14,0h0a.1.1,0,0,1,0,.14h-.14Zm2.93-.14a.11.11,0,0,1,0-.15h0a.1.1,0,0,1,.14,0h0a.11.11,0,0,1,0,.15h-.07a.08.08,0,0,1-.07,0ZM57.4,60.7a.11.11,0,0,1,0-.15h0a.11.11,0,0,1,.15,0h0a.12.12,0,0,1,0,.14h0a.06.06,0,0,1-.06,0h0a.14.14,0,0,1-.09,0Zm3.48-.15a.12.12,0,0,1,0-.14h0a.1.1,0,0,1,.14,0h0a.1.1,0,0,1,0,.14h0a.11.11,0,0,1-.09.05h0Zm-3.71-.21h0a.1.1,0,0,1,0-.14h0a.11.11,0,0,1,.14,0h0a.11.11,0,0,1-.05.14h0a.08.08,0,0,1-.09,0Zm3.92-.14a.1.1,0,0,1-.06-.13h0a.1.1,0,0,1,.13-.06h0a.1.1,0,0,1,.06.13h0a.13.13,0,0,1-.09.07h0ZM57,60a.1.1,0,0,1,.06-.13h0a.1.1,0,0,1,.12.07h0a.1.1,0,0,1-.06.13h0A.1.1,0,0,1,57,60Zm4.21-.13a.1.1,0,0,1-.08-.12h0a.1.1,0,0,1,.12-.08h0a.1.1,0,0,1,.08.12h0a.1.1,0,0,1-.1.08h0Zm-4.29-.29a.1.1,0,0,1,.09-.11h0a.12.12,0,0,1,.11.09h0a.1.1,0,0,1-.09.11h0a.09.09,0,0,1-.1-.1v0Zm4.24-.21h0a.09.09,0,0,1,.1-.1h0a.09.09,0,0,1,.1.08v0h0a.11.11,0,0,1-.1.1h0a.11.11,0,0,1-.1-.12h0ZM57,59.24a.1.1,0,0,1-.09-.11h0A.1.1,0,0,1,57,59h0a.1.1,0,0,1,.09.11h0a.11.11,0,0,1-.1.09h0Zm4.12-.3a.11.11,0,0,1,.08-.12h0a.1.1,0,0,1,.12.09h0a.1.1,0,0,1-.08.11h0a.1.1,0,0,1-.1-.08Zm-4.07-.1a.1.1,0,0,1-.06-.13h0a.1.1,0,0,1,.12-.07h0a.09.09,0,0,1,.07.12h0a.1.1,0,0,1-.1.07h0Zm4-.27a.11.11,0,0,1,0-.13h0a.12.12,0,0,1,.14.06h0a.1.1,0,0,1-.06.13h0a.1.1,0,0,1-.13-.06h0Zm-3.82-.11a.11.11,0,0,1,0-.14h0a.12.12,0,0,1,.14,0h0a.1.1,0,0,1,0,.14h0a.1.1,0,0,1-.09.06h0Zm3.64-.23a.1.1,0,0,1,0-.14h0a.1.1,0,0,1,.14,0h0a.1.1,0,0,1,0,.14H61a.09.09,0,0,1-.1,0Zm-3.44-.13a.1.1,0,0,1,0-.14h0a.12.12,0,0,1,.14,0h0a.1.1,0,0,1,0,.14h-.09a.08.08,0,0,1-.08,0Zm3.2-.17a.1.1,0,0,1,0-.14h0a.11.11,0,0,1,.15,0h0a.12.12,0,0,1,0,.14h-.07a.09.09,0,0,1-.1,0Zm-2.94-.13a.11.11,0,0,1,0-.15h0a.12.12,0,0,1,.14,0h0a.1.1,0,0,1,0,.14h-.07a.09.09,0,0,1-.1,0Zm2.65-.12a.1.1,0,0,1,0-.14h0a.11.11,0,0,1,.15,0h0a.12.12,0,0,1,0,.14h0a.1.1,0,0,1-.08,0h0ZM58,57.54a.09.09,0,0,1,0-.13h0a.12.12,0,0,1,.14,0h0a.12.12,0,0,1,0,.14h0A.1.1,0,0,1,58,57.54Zm2,0h0a.12.12,0,0,1,0-.14h0a.11.11,0,0,1,.14,0h0a.12.12,0,0,1,0,.14h0a.11.11,0,0,1-.09.06h0Zm-1.63-.13a.1.1,0,0,1,.06-.13h0a.1.1,0,0,1,.13.06h0a.1.1,0,0,1-.06.13h0a.1.1,0,0,1-.14,0,.11.11,0,0,1,0-.08Zm1.27,0a.1.1,0,0,1-.08-.12h0a.12.12,0,0,1,.13-.08h0a.12.12,0,0,1,.07.13h0a.1.1,0,0,1-.1.08h0Zm-.88-.12a.1.1,0,0,1,.08-.11h0a.1.1,0,0,1,.12.08h0a.1.1,0,0,1-.08.12h0a.1.1,0,0,1-.13-.05.08.08,0,0,1,0-.09Zm.5.07a.09.09,0,0,1-.1-.1h0a.1.1,0,0,1,.11-.09h0a.09.09,0,0,1,.09.09h0a.09.09,0,0,1-.08.1Z" transform="translate(0.02 0)"/><path d="M59.15,61.89a.13.13,0,0,1,.11-.12h0a.12.12,0,0,1,.13.11h0a.12.12,0,0,1-.11.13h0a.12.12,0,0,1-.13-.11Zm-.38.1h0a.12.12,0,0,1-.1-.14h0a.14.14,0,0,1,.13-.11h0a.12.12,0,0,1,.11.14h0a.13.13,0,0,1-.12.11h0Zm.86-.14a.13.13,0,0,1,.09-.15h0a.12.12,0,0,1,.15.08h0a.12.12,0,0,1-.08.15h0A.14.14,0,0,1,59.63,61.85Zm-1.36,0h0a.14.14,0,0,1-.07-.16h0a.11.11,0,0,1,.14-.07h0a.12.12,0,0,1,.08.15h0a.13.13,0,0,1-.12.08h0Zm1.83-.16a.12.12,0,0,1,.06-.16h0a.12.12,0,0,1,.16.06h0a.12.12,0,0,1-.06.16h0a.11.11,0,0,1-.15,0h0Zm-2.29,0a.12.12,0,0,1,0-.17h0a.12.12,0,0,1,.16,0h0a.14.14,0,0,1,0,.17h0a.13.13,0,0,1-.11.06h0Zm2.72-.17a.14.14,0,0,1,0-.17h0a.12.12,0,0,1,.17,0h0a.12.12,0,0,1,0,.17h-.07a.12.12,0,0,1-.1,0Zm-3.13-.13a.12.12,0,0,1,0-.17h0a.13.13,0,0,1,.18,0h0a.12.12,0,0,1,0,.17h-.09a.1.1,0,0,1-.09,0Zm3.51-.17a.13.13,0,0,1,0-.18h0a.12.12,0,0,1,.17,0h0a.12.12,0,0,1,0,.17h0a.14.14,0,0,1-.09,0h0a.11.11,0,0,1-.08,0ZM57.05,61a.11.11,0,0,1,0-.15l0,0h0a.12.12,0,0,1,.17,0h0a.12.12,0,0,1,0,.17h-.17Zm4.18-.17a.14.14,0,0,1,0-.17h0a.14.14,0,0,1,.17,0h0a.12.12,0,0,1,0,.17h0a.11.11,0,0,1-.1.06h0Zm-4.46-.25a.14.14,0,0,1,0-.17h0a.14.14,0,0,1,.17.05h0a.13.13,0,0,1-.06.17h0a.11.11,0,0,1-.11-.06Zm4.71-.17a.12.12,0,0,1-.07-.15h0a.14.14,0,0,1,.16-.07h0a.12.12,0,0,1,.06.16h0a.12.12,0,0,1-.11.08h0Zm-4.9-.31a.12.12,0,0,1,.08-.15h0a.12.12,0,0,1,.15.08h0a.13.13,0,0,1-.08.16h0a.12.12,0,0,1-.15-.08v0ZM61.63,60a.12.12,0,0,1-.09-.14h0a.12.12,0,0,1,.14-.1h0a.12.12,0,0,1,.1.14h0a.12.12,0,0,1-.12.1h0Zm-5.15-.35a.14.14,0,0,1,.11-.13h0a.12.12,0,0,1,.14.1h0a.12.12,0,0,1-.11.13h0a.13.13,0,0,1-.14-.12h0Zm5.1-.25h0a.12.12,0,0,1,.11-.13h0a.12.12,0,0,1,.12.12h0a.12.12,0,0,1-.12.12h0a.12.12,0,0,1-.12-.12h0Zm-5-.12a.14.14,0,0,1-.11-.13h0A.12.12,0,0,1,56.6,59h0a.12.12,0,0,1,.12.12h0a.14.14,0,0,1-.13.11h0Zm5-.35a.13.13,0,0,1,.09-.15h0a.12.12,0,0,1,.14.1h0a.12.12,0,0,1-.07.14h0a.12.12,0,0,1-.13-.1Zm-4.88-.13a.12.12,0,0,1-.08-.15h0a.12.12,0,0,1,.14-.09h0a.12.12,0,0,1,.08.15h0a.12.12,0,0,1-.12.09h0Zm4.74-.32a.14.14,0,0,1,.07-.16h0a.14.14,0,0,1,.16.07h0a.14.14,0,0,1-.07.16h0a.13.13,0,0,1-.15-.08Zm-4.58-.14a.13.13,0,0,1-.06-.17h0a.14.14,0,0,1,.17,0h0a.14.14,0,0,1,0,.17h0a.11.11,0,0,1-.11.06h0ZM61.19,58a.12.12,0,0,1,0-.17h0a.12.12,0,0,1,.16,0h0a.12.12,0,0,1,0,.17h-.16Zm-4.13-.15a.12.12,0,0,1,0-.17h0a.12.12,0,0,1,.17,0h0a.15.15,0,0,1,0,.18h-.17Zm3.84-.21a.12.12,0,0,1,0-.17h0a.11.11,0,0,1,.15,0l0,0h0a.12.12,0,0,1,0,.17H60.9Zm-3.52-.16a.12.12,0,0,1,0-.17h0a.12.12,0,0,1,.17,0h0a.12.12,0,0,1,0,.17h0a.11.11,0,0,1-.08,0h0a.1.1,0,0,1-.09,0Zm3.17-.14a.14.14,0,0,1,0-.17h0a.12.12,0,0,1,.17,0h0a.12.12,0,0,1,0,.17h-.17Zm-2.79-.16a.12.12,0,0,1,0-.17h0a.14.14,0,0,1,.17,0h0a.14.14,0,0,1,0,.17h-.07a.12.12,0,0,1-.1,0Zm2.39-.07a.12.12,0,0,1-.06-.16h0a.12.12,0,0,1,.16-.06h0a.12.12,0,0,1,.06.16h0a.12.12,0,0,1-.11.07h-.05Zm-2-.16a.12.12,0,0,1,.07-.15h0a.14.14,0,0,1,.16.07h0a.13.13,0,0,1-.08.16h0a.11.11,0,0,1-.11,0Zm1.52,0a.13.13,0,0,1-.09-.15h0a.13.13,0,0,1,.15-.09h0a.12.12,0,0,1,.09.14h0a.1.1,0,0,1-.12.09h0Zm-1.05-.14a.12.12,0,0,1,.1-.14h0a.12.12,0,0,1,.14.1h0a.12.12,0,0,1-.1.14h0a.12.12,0,0,1-.09-.08Zm.6.08a.13.13,0,0,1-.12-.13h0a.12.12,0,0,1,.12-.12h0a.12.12,0,0,1,.11.13h0A.12.12,0,0,1,59.22,56.89Z" transform="translate(0.02 0)"/><path d="M59.15,62.4a.15.15,0,0,1,.14-.15h0a.15.15,0,0,1,.15.14h0a.14.14,0,0,1-.13.15h0A.15.15,0,0,1,59.15,62.4Zm-.46.12a.15.15,0,0,1-.12-.17h0a.14.14,0,0,1,.16-.12h0a.15.15,0,0,1,.13.16h0a.15.15,0,0,1-.15.13h0Zm1-.17a.15.15,0,0,1,.11-.18h0a.15.15,0,0,1,.18.11h0a.16.16,0,0,1-.11.18h0a.15.15,0,0,1-.14-.11Zm-1.63,0a.14.14,0,0,1-.1-.16v0h0a.15.15,0,0,1,.17-.1h0a.16.16,0,0,1,.09.18h0a.15.15,0,0,1-.14.1h0Zm2.19-.18a.16.16,0,0,1,.07-.2h0a.16.16,0,0,1,.2.07h0a.15.15,0,0,1-.08.2h-.06a.11.11,0,0,1-.09-.05ZM57.5,62.1a.15.15,0,0,1,0-.2h0a.15.15,0,0,1,.2,0h0a.15.15,0,0,1,0,.2h0a.14.14,0,0,1-.12.07h0Zm3.27-.2a.17.17,0,0,1,0-.21h0a.17.17,0,0,1,.21,0h0a.15.15,0,0,1,0,.2H60.9l-.09,0ZM57,61.75a.17.17,0,0,1,0-.21h0a.17.17,0,0,1,.21,0h0a.15.15,0,0,1,0,.21h0a.11.11,0,0,1-.11,0H57Zm4.22-.21a.15.15,0,0,1,0-.21h0a.14.14,0,0,1,.2,0h0a.13.13,0,0,1,0,.18l0,0h0a.12.12,0,0,1-.1,0h0l-.07,0Zm-4.64-.23h0a.14.14,0,0,1,0-.21h0a.13.13,0,0,1,.2,0h0a.15.15,0,0,1,0,.21H56.7l-.07,0Zm5-.21a.17.17,0,0,1,0-.21h0a.17.17,0,0,1,.21,0h0a.15.15,0,0,1,0,.2h0a.15.15,0,0,1-.12.07h0Zm-5.36-.31a.15.15,0,0,1,.06-.19h0a.14.14,0,0,1,.19.06h0a.15.15,0,0,1-.06.2h-.07a.18.18,0,0,1-.07,0Zm5.65-.2a.15.15,0,0,1-.08-.19h0a.15.15,0,0,1,.19-.08h0a.15.15,0,0,1,.08.19h0a.14.14,0,0,1-.13.09h-.06ZM56,60.23a.15.15,0,0,1,.1-.19h0a.17.17,0,0,1,.18.1h0a.17.17,0,0,1-.1.19h0a.13.13,0,0,1-.12-.08ZM62.07,60a.13.13,0,0,1-.11-.16h0a.15.15,0,0,1,.17-.12h0a.13.13,0,0,1,.11.16h0a.14.14,0,0,1-.14.12h0ZM56,59.65a.14.14,0,0,1,.12-.16h0a.15.15,0,0,1,.16.13h0a.15.15,0,0,1-.13.16h0A.15.15,0,0,1,56,59.65Zm6.12-.31h0a.14.14,0,0,1,.14-.14h0a.15.15,0,0,1,.15.14h0a.15.15,0,0,1-.15.14h0a.14.14,0,0,1-.18-.08.13.13,0,0,1,0-.06Zm-6-.14A.16.16,0,0,1,56,59v0h0a.15.15,0,0,1,.16-.13h0a.13.13,0,0,1,.13.13v0h0a.15.15,0,0,1-.15.14h0ZM62,58.77a.15.15,0,0,1,.12-.17h0a.15.15,0,0,1,.17.11h0a.16.16,0,0,1-.12.18h0A.15.15,0,0,1,62,58.77Zm-5.85-.15a.14.14,0,0,1-.1-.18h0a.14.14,0,0,1,.18-.1h0a.13.13,0,0,1,.1.17h0a.15.15,0,0,1-.14.1h0Zm5.69-.38a.14.14,0,0,1,.07-.18h0a.13.13,0,0,1,.17.06v0h0a.15.15,0,0,1-.06.19h0a.14.14,0,0,1-.15-.08Zm-5.5-.17a.15.15,0,0,1-.06-.2h0a.14.14,0,0,1,.19-.06h0a.13.13,0,0,1,.08.16v0h0a.16.16,0,0,1-.13.08h-.07Zm5.25-.32a.17.17,0,0,1,0-.21h0a.15.15,0,0,1,.2.05h0a.13.13,0,0,1,0,.2h-.08a.15.15,0,0,1-.11,0Zm-5-.19a.13.13,0,0,1,0-.2h0a.13.13,0,0,1,.2,0h0a.15.15,0,0,1,0,.21h0a.18.18,0,0,1-.12,0h0Zm4.61-.25a.13.13,0,0,1,0-.2h0a.13.13,0,0,1,.18,0l0,0h0a.14.14,0,0,1,0,.2H61.2ZM57,57.12a.17.17,0,0,1,0-.21h0a.13.13,0,0,1,.2,0h0a.13.13,0,0,1,0,.18l0,0h-.1A.17.17,0,0,1,57,57.12ZM60.83,57a.13.13,0,0,1,0-.2h0a.13.13,0,0,1,.2,0h0A.17.17,0,0,1,61,57h0a.14.14,0,0,1-.12.06h0Zm-3.35-.19a.15.15,0,0,1,.05-.2h0a.15.15,0,0,1,.2,0h0a.15.15,0,0,1,0,.2h-.07a.17.17,0,0,1-.18-.05Zm2.87-.09a.14.14,0,0,1-.07-.18h0a.15.15,0,0,1,.19-.07h0a.14.14,0,0,1,.08.18h0a.14.14,0,0,1-.14.09h0ZM58,56.49a.14.14,0,0,1,.07-.18h0a.16.16,0,0,1,.18.09h0a.15.15,0,0,1-.08.19h0A.14.14,0,0,1,58,56.49Zm1.83,0a.15.15,0,0,1-.11-.18h0a.13.13,0,0,1,.16-.11h0a.15.15,0,0,1,.11.18h0a.13.13,0,0,1-.14.11h0Zm-1.27-.18a.14.14,0,0,1,.12-.16h0a.15.15,0,0,1,.17.12h0a.16.16,0,0,1-.13.17h0a.14.14,0,0,1-.16-.12h0Zm.72.1h0a.14.14,0,0,1-.14-.14h0a.14.14,0,0,1,.14-.14h0a.15.15,0,0,1,.14.15h0A.15.15,0,0,1,59.28,56.41Z" transform="translate(0.02 0)"/><path d="M59.15,63a.18.18,0,0,1,.16-.18h0a.16.16,0,0,1,.18.14v0h0a.18.18,0,0,1-.17.19h0A.18.18,0,0,1,59.15,63Zm-.55.13a.18.18,0,0,1-.15-.2h0a.19.19,0,0,1,.2-.14h0a.17.17,0,0,1,.15.19h0a.16.16,0,0,1-.17.15h0Zm1.25-.2a.18.18,0,0,1,.12-.21h0a.2.2,0,0,1,.21.13h0a.18.18,0,0,1-.13.21h0a.17.17,0,0,1-.21-.06Zm-2,0a.18.18,0,0,1-.11-.22h0A.19.19,0,0,1,58,62.6h0a.17.17,0,0,1,.11.2v0h0A.16.16,0,0,1,58,63h-.06Zm2.63-.22a.18.18,0,0,1,.09-.24h0a.17.17,0,0,1,.23.09h0a.18.18,0,0,1-.08.23h-.08a.27.27,0,0,1-.12,0Zm-3.3-.08a.18.18,0,0,1-.06-.24h0a.18.18,0,0,1,.24-.07h0a.18.18,0,0,1,.06.24h0a.16.16,0,0,1-.15.09h0Zm3.92-.25a.16.16,0,0,1,0-.24h0a.18.18,0,0,1,.25,0h0a.18.18,0,0,1,0,.24h-.11a.14.14,0,0,1-.1,0Zm-4.51-.18a.17.17,0,0,1,0-.24h0a.17.17,0,0,1,.24,0h0a.17.17,0,0,1,0,.24h0a.16.16,0,0,1-.13.06h-.08Zm5.1-.2a.18.18,0,0,1,0-.25h0a.18.18,0,0,1,.25,0h0A.16.16,0,0,1,62,62h0a.16.16,0,0,1-.13.06h0A.18.18,0,0,1,61.69,62Zm-5.57-.28h0a.16.16,0,0,1,0-.24h0a.18.18,0,0,1,.25,0h0a.16.16,0,0,1,0,.24h-.11A.17.17,0,0,1,56.12,61.72Zm6-.25a.16.16,0,0,1,0-.24h0a.16.16,0,0,1,.24,0h0a.18.18,0,0,1,0,.24h0a.18.18,0,0,1-.15.08h0a.16.16,0,0,1-.06-.08Zm-6.43-.36h0a.18.18,0,0,1,.08-.24h0A.19.19,0,0,1,56,61h0a.17.17,0,0,1-.08.23h0a.11.11,0,0,1-.08,0h0a.18.18,0,0,1-.12-.12Zm6.78-.24a.19.19,0,0,1-.1-.23h0a.19.19,0,0,1,.23-.1h0a.19.19,0,0,1,.1.23h0a.19.19,0,0,1-.16.11h-.07Zm-7-.44a.18.18,0,0,1,.12-.22h0a.18.18,0,0,1,.22.12h0a.19.19,0,0,1-.12.22h0a.18.18,0,0,1-.19-.12Zm7.28-.23a.16.16,0,0,1-.14-.17v0h0a.16.16,0,0,1,.19-.14h0a.16.16,0,0,1,.14.19h0a.16.16,0,0,1-.17.15h0Zm-7.42-.49h0a.18.18,0,0,1,.15-.19h0a.18.18,0,0,1,.19.15h0a.17.17,0,0,1-.16.19h0a.18.18,0,0,1-.21-.13v0Zm7.34-.37h0a.18.18,0,0,1,.18-.18h0a.18.18,0,0,1,.17.18h0a.18.18,0,0,1-.17.17h0a.18.18,0,0,1-.2-.16h0Zm-7.18-.17a.17.17,0,0,1-.16-.19h0a.16.16,0,0,1,.18-.16h0a.16.16,0,0,1,.16.18h0a.18.18,0,0,1-.18.16h0Zm7.12-.51a.18.18,0,0,1,.13-.21h0a.18.18,0,0,1,.21.12v0h0a.18.18,0,0,1-.12.21h0a.16.16,0,0,1-.21-.11,0,0,0,0,1,0,0Zm-7-.19a.17.17,0,0,1-.12-.21h0a.16.16,0,0,1,.21-.12h0a.16.16,0,0,1,.12.21h0a.17.17,0,0,1-.17.12h0ZM62.4,58a.18.18,0,0,1,.08-.23h0a.19.19,0,0,1,.23.1h0a.19.19,0,0,1-.1.23h-.06A.16.16,0,0,1,62.4,58Zm-6.61-.21a.18.18,0,0,1-.07-.23h0a.17.17,0,0,1,.22-.1l.06,0h0a.18.18,0,0,1,.08.24h0a.17.17,0,0,1-.16.09h0a.13.13,0,0,1-.13,0Zm6.3-.38a.18.18,0,0,1,0-.24h0a.19.19,0,0,1,.24,0h0a.19.19,0,0,1,0,.24h-.1a.17.17,0,0,1-.1,0Zm-6-.22a.18.18,0,0,1,0-.25h0a.18.18,0,0,1,.25,0h0a.2.2,0,0,1,0,.25h0a.2.2,0,0,1-.14.06h0l-.06,0Zm5.53-.3a.18.18,0,0,1,0-.25h0a.18.18,0,0,1,.25,0h0a.17.17,0,0,1,0,.24h0a.17.17,0,0,1-.12,0h0a.11.11,0,0,1-.08,0Zm-5.07-.23a.17.17,0,0,1,0-.24h0a.16.16,0,0,1,.23,0h0a.16.16,0,0,1,0,.23h0a.18.18,0,0,1-.12.05h0l-.07,0Zm4.57-.21h0a.16.16,0,0,1,0-.23h0a.16.16,0,0,1,.23,0h0a.16.16,0,0,1,0,.23h0a.16.16,0,0,1-.14.08h0a.15.15,0,0,1,0-.06Zm-4-.23a.18.18,0,0,1,.06-.24h0a.18.18,0,0,1,.24.06h0a.19.19,0,0,1-.06.25h-.09a.17.17,0,0,1-.12,0Zm3.44-.1a.17.17,0,0,1-.08-.23h0a.16.16,0,0,1,.22-.09h0a.17.17,0,0,1,.08.23h0a.17.17,0,0,1-.16.11h0Zm-2.82-.22a.16.16,0,0,1,.09-.22h0a.18.18,0,0,1,.22.11h0A.19.19,0,0,1,58,56h-.06a.17.17,0,0,1-.17-.08Zm2.19,0h0a.18.18,0,0,1-.13-.21h0a.17.17,0,0,1,.21-.14h0a.18.18,0,0,1,.13.22h0a.17.17,0,0,1-.17.13h0Zm-1.52-.21a.17.17,0,0,1,.14-.2h0a.18.18,0,0,1,.2.15h0a.19.19,0,0,1-.15.2h0a.17.17,0,0,1-.17-.12Zm.86.12a.17.17,0,0,1-.16-.19h0a.18.18,0,0,1,.17-.17h0a.19.19,0,0,1,.17.19h0a.19.19,0,0,1-.18.17h0Z" transform="translate(0.02 0)"/><path d="M59.15,63.76a.21.21,0,0,1,.2-.23h0a.21.21,0,0,1,.22.2h0a.21.21,0,0,1-.2.22h0A.23.23,0,0,1,59.15,63.76Zm-.66.15a.22.22,0,0,1-.18-.23h0a.21.21,0,0,1,.24-.18h0a.2.2,0,0,1,.18.22v0h0a.21.21,0,0,1-.21.18h0Zm1.5-.23a.21.21,0,0,1,.15-.26h0a.22.22,0,0,1,.26.15h0a.22.22,0,0,1-.16.25h-.05a.2.2,0,0,1-.19-.15Zm-2.35,0h0a.21.21,0,0,1-.13-.27h0a.21.21,0,0,1,.27-.13h0a.21.21,0,0,1,.13.27h0a.22.22,0,0,1-.2.14h-.07Zm3.15-.27a.21.21,0,0,1,.1-.28h0a.22.22,0,0,1,.28.1h0a.23.23,0,0,1-.11.28h0a.11.11,0,0,1-.08,0h0a.22.22,0,0,1-.2-.07Zm-3.95-.1h0a.2.2,0,0,1-.09-.27h0a.21.21,0,0,1,.29-.08h0a.21.21,0,0,1,.08.29h0a.21.21,0,0,1-.19.1h-.1Zm4.7-.29a.2.2,0,0,1,0-.28h0a.2.2,0,0,1,.28,0h0a.2.2,0,0,1,0,.28h-.13a.2.2,0,0,1-.17,0Zm-5.42-.21a.24.24,0,0,1,0-.3h0a.22.22,0,0,1,.3,0h0a.22.22,0,0,1,0,.3h0a.24.24,0,0,1-.16.07h0a.23.23,0,0,1-.14,0Zm6.08-.31a.2.2,0,0,1,0-.28h0a.22.22,0,0,1,.3,0h0a.22.22,0,0,1,0,.3h0a.23.23,0,0,1-.16.06h0a.23.23,0,0,1-.14,0Zm-6.68-.33a.22.22,0,0,1,0-.3h0a.22.22,0,0,1,.3,0h0a.22.22,0,0,1,0,.3h-.13a.25.25,0,0,1-.17,0Zm7.23-.3a.19.19,0,0,1-.07-.27v0h0a.21.21,0,0,1,.29-.07h0a.22.22,0,0,1,.06.3h0a.21.21,0,0,1-.18.09h-.11ZM55,61.46h0a.2.2,0,0,1,.08-.27h0a.2.2,0,0,1,.27.08h0a.2.2,0,0,1-.08.27h0a.14.14,0,0,1-.09,0h0A.23.23,0,0,1,55,61.46Zm8.13-.29A.21.21,0,0,1,63,60.9h0a.22.22,0,0,1,.28-.12h0a.22.22,0,0,1,.11.27h0a.2.2,0,0,1-.19.14h0Zm-8.46-.52h0a.21.21,0,0,1,.14-.26h0a.19.19,0,0,1,.25.12v0h0a.19.19,0,0,1-.12.25h-.08a.21.21,0,0,1-.16-.14Zm8.73-.27a.2.2,0,0,1-.16-.23v0h0a.21.21,0,0,1,.24-.17h0a.21.21,0,0,1,.17.24h0a.21.21,0,0,1-.21.17h0Zm-8.9-.6a.23.23,0,0,1,.19-.23h0a.21.21,0,0,1,.23.19h0a.21.21,0,0,1-.19.23h0a.21.21,0,0,1-.19-.19Zm8.81-.44h0a.21.21,0,0,1,.21-.21h0a.21.21,0,0,1,.21.21h0a.21.21,0,0,1-.21.21h0a.21.21,0,0,1-.17-.21Zm-8.62-.21a.21.21,0,0,1-.19-.22h0a.19.19,0,0,1,.21-.19h0a.21.21,0,0,1,.27.12A.22.22,0,0,1,55,59h0a.21.21,0,0,1-.21.19h0Zm8.54-.61a.21.21,0,0,1,.17-.24h0a.22.22,0,0,1,.25.16h0a.22.22,0,0,1-.17.25h0a.21.21,0,0,1-.21-.17Zm-8.42-.22a.21.21,0,0,1-.15-.24v0h0a.22.22,0,0,1,.24-.18l.09,0h0a.21.21,0,0,1,.14.26h0a.21.21,0,0,1-.2.15h-.13Zm8.2-.54a.23.23,0,0,1,.11-.28h0a.22.22,0,0,1,.28.12h0a.21.21,0,0,1-.12.27H63.2a.21.21,0,0,1-.15-.11Zm-7.93-.25a.22.22,0,0,1-.09-.29h0a.21.21,0,0,1,.28-.09h0a.2.2,0,0,1,.09.28h0a.19.19,0,0,1-.18.11h0Zm7.56-.46a.2.2,0,0,1,0-.28h0a.2.2,0,0,1,.28,0v0h0a.21.21,0,0,1-.06.29h-.12a.16.16,0,0,1-.13-.06Zm-7.14-.27a.21.21,0,0,1,0-.29h0a.22.22,0,0,1,.3,0h0a.2.2,0,0,1,0,.28h0a.17.17,0,0,1-.16.09h0a.22.22,0,0,1-.1-.09Zm6.64-.36a.22.22,0,0,1,0-.3h0a.21.21,0,0,1,.29,0h0a.22.22,0,0,1,0,.3h0a.2.2,0,0,1-.15.06h0a.21.21,0,0,1-.1-.06Zm-6.09-.28a.2.2,0,0,1,0-.28h0a.22.22,0,0,1,.3,0h0a.21.21,0,0,1,0,.29h0a.2.2,0,0,1-.14.06h0a.23.23,0,0,1-.12-.06Zm5.49-.24a.21.21,0,0,1-.06-.29h0a.22.22,0,0,1,.3,0h0a.21.21,0,0,1,0,.29h0a.2.2,0,0,1-.17.09h0a.16.16,0,0,1,0-.09Zm-4.83-.28a.21.21,0,0,1,.06-.28h0a.21.21,0,0,1,.29.07h0a.21.21,0,0,1-.07.29h-.11a.22.22,0,0,1-.14-.08Zm4.13-.12a.2.2,0,0,1-.11-.26v0h0a.21.21,0,0,1,.28-.1h0a.21.21,0,0,1,.1.28h0a.2.2,0,0,1-.19.12h0l0,0Zm-3.39-.26a.21.21,0,0,1,.13-.27h0a.21.21,0,0,1,.27.13h0a.21.21,0,0,1-.13.27h-.07a.21.21,0,0,1-.16-.13Zm2.64,0A.21.21,0,0,1,60,55h0a.21.21,0,0,1,.25-.15h0a.2.2,0,0,1,.16.23v0h0a.21.21,0,0,1-.21.16h0ZM58.3,55a.21.21,0,0,1,.16-.24h0a.2.2,0,0,1,.23.17h0a.2.2,0,0,1-.17.23h0A.21.21,0,0,1,58.3,55Zm1,.13a.22.22,0,0,1-.2-.21h0a.22.22,0,0,1,.22-.21h0a.21.21,0,0,1,.2.22h0a.2.2,0,0,1-.2.2h0Z" transform="translate(0.02 0)"/><path d="M59.15,64.64a.26.26,0,0,1,.24-.27h0a.27.27,0,0,1,.27.25h0a.25.25,0,0,1-.24.26h0a.25.25,0,0,1-.27-.23Zm-.79.19a.25.25,0,0,1-.21-.28h0a.25.25,0,0,1,.28-.22h0a.26.26,0,0,1,.22.29h0a.26.26,0,0,1-.25.21h0Zm1.79-.29a.25.25,0,0,1,.19-.3h0a.27.27,0,0,1,.31.18h0a.26.26,0,0,1-.19.31H60.4A.26.26,0,0,1,60.15,64.54Zm-2.81,0a.27.27,0,0,1-.16-.33h0a.25.25,0,0,1,.32-.15h0a.24.24,0,0,1,.17.29v0h0a.26.26,0,0,1-.24.17h-.08Zm3.78-.33a.26.26,0,0,1,.13-.34h0a.26.26,0,0,1,.33.13h0a.24.24,0,0,1-.1.32h0a.21.21,0,0,1-.11,0h0a.25.25,0,0,1-.23-.07Zm-4.74-.11a.27.27,0,0,1-.1-.35h0a.26.26,0,0,1,.35-.09h0a.25.25,0,0,1,.09.34h0a.23.23,0,0,1-.22.13h0a.25.25,0,0,1-.12,0ZM62,63.8a.26.26,0,0,1,.06-.36h0a.25.25,0,0,1,.35.06h0a.25.25,0,0,1-.06.35h0a.19.19,0,0,1-.15,0h0A.21.21,0,0,1,62,63.8Zm-6.5-.26h0a.25.25,0,0,1,0-.35h0a.25.25,0,0,1,.35,0h0a.25.25,0,0,1,0,.35h0a.25.25,0,0,1-.19.09h0a.24.24,0,0,1-.15-.09Zm7.29-.37a.24.24,0,0,1,0-.34h0a.25.25,0,0,1,.35,0h0a.24.24,0,0,1,0,.35h0a.27.27,0,0,1-.19.08h0a.28.28,0,0,1-.15-.08Zm-8-.39a.25.25,0,0,1,0-.35h0a.25.25,0,0,1,.36,0h0a.27.27,0,0,1,0,.36H55A.23.23,0,0,1,54.79,62.78Zm8.68-.37a.26.26,0,0,1-.08-.35h0a.25.25,0,0,1,.35-.07h0a.26.26,0,0,1,.08.35h0a.26.26,0,0,1-.21.11h0A.23.23,0,0,1,63.47,62.41Zm-9.25-.52a.24.24,0,0,1,.08-.33h0a.25.25,0,0,1,.34.09v0h0a.26.26,0,0,1-.11.34h-.12A.27.27,0,0,1,54.22,61.89ZM64,61.54a.24.24,0,0,1-.14-.32h0a.26.26,0,0,1,.33-.14h0a.24.24,0,0,1,.14.32h0a.25.25,0,0,1-.23.16h0Zm-10.15-.63A.25.25,0,0,1,54,60.6h0a.26.26,0,0,1,.32.16h0a.25.25,0,0,1-.17.31h-.08a.27.27,0,0,1-.25-.17Zm10.48-.32a.27.27,0,0,1-.2-.3h0a.24.24,0,0,1,.29-.2h0a.24.24,0,0,1,.2.29h0a.25.25,0,0,1-.25.2h0Zm-10.68-.72a.25.25,0,0,1,.23-.27h0a.26.26,0,0,1,.28.23h0a.25.25,0,0,1-.23.27h0a.26.26,0,0,1-.31-.2v0Zm10.57-.53h0a.26.26,0,0,1,.26-.26h0a.25.25,0,0,1,.25.25h0a.26.26,0,0,1-.25.25h0a.26.26,0,0,1-.29-.23h0Zm-10.34-.25a.25.25,0,0,1-.23-.27h0a.25.25,0,0,1,.27-.23h0a.25.25,0,0,1,.23.27h0a.25.25,0,0,1-.25.23h0Zm10.25-.73h0a.26.26,0,0,1,.19-.3h0a.25.25,0,0,1,.29.2h0a.25.25,0,0,1-.19.3h-.05a.25.25,0,0,1-.28-.2ZM54,58.1a.25.25,0,0,1-.17-.31h0a.25.25,0,0,1,.31-.17h0a.26.26,0,0,1,.17.32h0a.26.26,0,0,1-.24.18H54Zm9.84-.66a.26.26,0,0,1,.13-.33h0a.24.24,0,0,1,.32.14h0a.26.26,0,0,1-.13.33h-.1a.24.24,0,0,1-.24-.14Zm-9.52-.3a.24.24,0,0,1-.11-.32v0h0a.26.26,0,0,1,.34-.11h0a.26.26,0,0,1,.11.34h0a.27.27,0,0,1-.23.14h0Zm9.07-.55a.26.26,0,0,1,.08-.35h0a.26.26,0,0,1,.35.08h0a.26.26,0,0,1-.08.35H63.6a.27.27,0,0,1-.22-.08Zm-8.56-.32a.24.24,0,0,1,0-.34h0a.23.23,0,0,1,.33-.06h0a.25.25,0,0,1,0,.36h0a.25.25,0,0,1-.2.09h0a.18.18,0,0,1-.16,0Zm8-.43a.25.25,0,0,1,0-.35h0a.25.25,0,0,1,.36,0h0a.25.25,0,0,1,0,.35h0a.22.22,0,0,1-.17.07h0a.25.25,0,0,1-.23-.07Zm-7.31-.33a.25.25,0,0,1,0-.35h0a.25.25,0,0,1,.36,0h0a.25.25,0,0,1,0,.35h0a.23.23,0,0,1-.16.06h0a.27.27,0,0,1-.24-.06Zm6.58-.3h0a.25.25,0,0,1-.06-.35h0a.25.25,0,0,1,.35-.06h0a.25.25,0,0,1,.06.35h0a.26.26,0,0,1-.21.11h0a.18.18,0,0,1-.18,0Zm-5.79-.33a.24.24,0,0,1,.07-.33h0a.25.25,0,0,1,.34.09h0a.25.25,0,0,1-.09.34h-.12a.25.25,0,0,1-.26-.09Zm5-.14a.26.26,0,0,1-.13-.34h0a.26.26,0,0,1,.34-.12h0a.25.25,0,0,1,.12.33h0a.25.25,0,0,1-.23.15h0Zm-4.07-.32a.27.27,0,0,1,.16-.33h0a.26.26,0,0,1,.32.16h0a.24.24,0,0,1-.13.31H57.4a.27.27,0,0,1-.24-.15Zm3.16,0h0a.26.26,0,0,1-.19-.31h0a.24.24,0,0,1,.3-.18h0a.25.25,0,0,1,.19.3h0a.26.26,0,0,1-.25.19Zm-2.19-.3a.25.25,0,0,1,.2-.29h0a.26.26,0,0,1,.29.22h0a.25.25,0,0,1-.22.28h0a.25.25,0,0,1-.34-.14.14.14,0,0,1,0-.06Zm1.24.16a.24.24,0,0,1-.24-.24v0h0a.25.25,0,0,1,.26-.24h0a.26.26,0,0,1,.25.26h0a.26.26,0,0,1-.26.25h0Z" transform="translate(0.02 0)"/><path d="M59.15,65.7a.3.3,0,0,1,.29-.32h0a.3.3,0,0,1,.32.28h0a.3.3,0,0,1-.28.32h0A.3.3,0,0,1,59.15,65.7Zm-.94.23h0A.3.3,0,0,1,58,65.6h0a.3.3,0,0,1,.33-.26h0a.3.3,0,0,1,.26.33h0a.3.3,0,0,1-.3.26h0Zm2.15-.34a.31.31,0,0,1,.21-.37h0a.31.31,0,0,1,.37.22h0a.31.31,0,0,1-.21.37h-.09A.3.3,0,0,1,60.36,65.59Zm-3.38,0a.3.3,0,0,1-.19-.38h0a.3.3,0,0,1,.38-.19h0a.3.3,0,0,1,.19.38h0a.29.29,0,0,1-.28.2H57Zm4.54-.39a.32.32,0,0,1,.15-.41h0a.3.3,0,0,1,.4.15h0a.3.3,0,0,1-.15.4h-.13a.28.28,0,0,1-.27-.09Zm-5.7-.14a.31.31,0,0,1-.11-.41h0a.31.31,0,0,1,.42-.12h0a.32.32,0,0,1,.11.42h0a.3.3,0,0,1-.26.15h0a.29.29,0,0,1-.16,0Zm6.77-.42a.3.3,0,0,1,.07-.42h0a.3.3,0,0,1,.41,0v0h0a.3.3,0,0,1-.06.42h0a.3.3,0,0,1-.18.06h0a.33.33,0,0,1-.25-.08Zm-7.8-.31h0a.3.3,0,0,1,0-.43h0a.3.3,0,0,1,.42,0h0a.29.29,0,0,1,0,.41h0a.3.3,0,0,1-.23.11h0a.29.29,0,0,1-.2-.05Zm8.75-.44a.3.3,0,0,1,0-.43h0a.3.3,0,0,1,.42,0h0a.3.3,0,0,1,0,.42h0a.31.31,0,0,1-.22.09h0a.31.31,0,0,1-.21,0Zm-9.62-.48A.29.29,0,0,1,54,63h0a.28.28,0,0,1,.4,0l0,0h0a.27.27,0,0,1,0,.4l0,0h0a.24.24,0,0,1-.18.07h0a.3.3,0,0,1-.32-.08ZM64.33,63a.31.31,0,0,1-.09-.42h0a.29.29,0,0,1,.41-.09h0a.29.29,0,0,1,.09.41h0a.27.27,0,0,1-.25.14h0A.33.33,0,0,1,64.33,63Zm-11.1-.63a.31.31,0,0,1,.12-.41h0a.31.31,0,0,1,.41.12h0a.31.31,0,0,1-.12.41H53.5a.34.34,0,0,1-.27-.1ZM64.94,62a.31.31,0,0,1-.17-.4h0a.31.31,0,0,1,.39-.17h0a.31.31,0,0,1,.18.39h0a.29.29,0,0,1-.28.19h0Zm-12.18-.76a.29.29,0,0,1,.19-.37h0a.31.31,0,0,1,.38.19h0a.3.3,0,0,1-.2.38h-.09a.3.3,0,0,1-.29-.23Zm12.58-.38a.31.31,0,0,1-.25-.36h0a.31.31,0,0,1,.36-.24h0a.3.3,0,0,1,.24.35h0a.31.31,0,0,1-.3.25h0ZM52.52,60a.3.3,0,0,1,.27-.33h0a.3.3,0,0,1,.33.27h0a.3.3,0,0,1-.27.34h0a.3.3,0,0,1-.33-.27Zm12.68-.64h0a.29.29,0,0,1,.3-.3h0a.29.29,0,0,1,.31.29h0a.31.31,0,0,1-.31.3h0a.31.31,0,0,1-.3-.32h0ZM52.79,59.1a.32.32,0,0,1-.28-.33h0a.32.32,0,0,1,.33-.28h0a.32.32,0,0,1,.28.33h0a.3.3,0,0,1-.3.28h0Zm12.3-.88a.3.3,0,0,1,.23-.36h0a.3.3,0,0,1,.35.24h0a.3.3,0,0,1-.23.36h-.06a.31.31,0,0,1-.3-.29ZM53,57.85a.31.31,0,0,1-.21-.38h0a.29.29,0,0,1,.37-.2h0a.29.29,0,0,1,.2.36h0a.3.3,0,0,1-.29.22H53Zm11.8-.79a.3.3,0,0,1,.17-.39h0a.29.29,0,0,1,.38.15v0h0a.28.28,0,0,1-.14.38h0a.24.24,0,0,1-.12,0h0a.31.31,0,0,1-.32-.17ZM53.35,56.7a.3.3,0,0,1-.14-.39h0a.31.31,0,0,1,.41-.14h0a.31.31,0,0,1,.13.41h0a.31.31,0,0,1-.27.17h0A.23.23,0,0,1,53.35,56.7ZM64.23,56a.31.31,0,0,1,.09-.42h0a.31.31,0,0,1,.42.09h0a.31.31,0,0,1-.09.42h0a.25.25,0,0,1-.17,0h0A.3.3,0,0,1,64.23,56ZM54,55.66a.31.31,0,0,1,0-.43h0a.3.3,0,0,1,.42,0h0a.3.3,0,0,1,0,.42h0a.3.3,0,0,1-.24.12h0A.31.31,0,0,1,54,55.66Zm9.57-.52a.3.3,0,0,1,0-.42h0a.3.3,0,0,1,.43,0h0a.3.3,0,0,1,0,.42h0a.32.32,0,0,1-.21.08h0a.25.25,0,0,1-.27-.08Zm-8.78-.4a.3.3,0,0,1,0-.43h0a.3.3,0,0,1,.43,0h0a.3.3,0,0,1,0,.42h0a.31.31,0,0,1-.2.07h0a.29.29,0,0,1-.28-.07Zm7.9-.35a.29.29,0,0,1-.07-.42h0A.3.3,0,0,1,63,53.9h0a.3.3,0,0,1,.08.42h0a.31.31,0,0,1-.25.13h0a.31.31,0,0,1-.19-.06Zm-7-.4a.31.31,0,0,1,.11-.41h0a.31.31,0,0,1,.42.1h0a.32.32,0,0,1-.11.42H56a.31.31,0,0,1-.26-.1Zm6-.17a.3.3,0,0,1-.15-.4h0a.31.31,0,0,1,.39-.16h0a.31.31,0,0,1,.15.4h0a.31.31,0,0,1-.28.18h0a.29.29,0,0,1-.18,0Zm-4.88-.39a.3.3,0,0,1,.19-.38h0a.31.31,0,0,1,.39.17h0a.31.31,0,0,1-.19.39h-.1a.3.3,0,0,1-.34-.19Zm3.8,0a.3.3,0,0,1-.23-.37h0a.3.3,0,0,1,.36-.22h0a.28.28,0,0,1,.22.34v0h0a.3.3,0,0,1-.29.23ZM58,53.07a.31.31,0,0,1,.26-.35h0a.3.3,0,0,1,.34.25h0a.29.29,0,0,1-.23.34h-.07a.32.32,0,0,1-.35-.23Zm1.5.2a.29.29,0,0,1-.29-.31h0a.29.29,0,0,1,.29-.29h0a.29.29,0,0,1,.29.31h0a.31.31,0,0,1-.3.29h0Z" transform="translate(0.02 0)"/><path d="M59.16,67a.36.36,0,0,1,.34-.38h0a.37.37,0,0,1,.38.35h0a.36.36,0,0,1-.34.38h0a.36.36,0,0,1-.38-.32ZM58,67.25h0a.36.36,0,0,1-.31-.4h0a.36.36,0,0,1,.4-.31h0a.36.36,0,0,1,.31.4h0a.37.37,0,0,1-.36.31h0Zm2.58-.41a.34.34,0,0,1,.24-.43h0a.37.37,0,0,1,.44.26h0a.38.38,0,0,1-.27.44h0a.35.35,0,0,1-.4-.26Zm-4.06,0a.36.36,0,0,1-.23-.44v0h0a.36.36,0,0,1,.44-.23h0a.36.36,0,0,1,.23.44v0h0a.35.35,0,0,1-.34.24h0a.17.17,0,0,1-.1,0ZM62,66.43a.38.38,0,0,1,.18-.49h0a.37.37,0,0,1,.48.18h0a.35.35,0,0,1-.16.48h0a.38.38,0,0,1-.15,0h0A.35.35,0,0,1,62,66.43Zm-6.83-.16a.37.37,0,0,1-.14-.49h0a.35.35,0,0,1,.47-.15h0a.36.36,0,0,1,.14.5h0a.38.38,0,0,1-.32.18h0a.41.41,0,0,1-.19,0Zm8.12-.51a.35.35,0,0,1,.08-.5h0a.36.36,0,0,1,.5.09h0a.34.34,0,0,1-.07.49h0a.31.31,0,0,1-.21.07h0a.35.35,0,0,1-.31-.15Zm-9.36-.38a.36.36,0,0,1,0-.51h0a.37.37,0,0,1,.52,0h0a.37.37,0,0,1,0,.52h0a.36.36,0,0,1-.27.12h0a.38.38,0,0,1-.26-.13Zm10.5-.52a.35.35,0,0,1,0-.49l0,0h0a.36.36,0,0,1,.51,0h0a.37.37,0,0,1,0,.52h0a.39.39,0,0,1-.27.11h0a.33.33,0,0,1-.25-.12Zm-11.55-.57a.37.37,0,0,1,.06-.51h0a.36.36,0,0,1,.51,0h0a.37.37,0,0,1-.06.52h0a.35.35,0,0,1-.22.08h0a.36.36,0,0,1-.3-.09Zm12.5-.52a.37.37,0,0,1-.11-.51h0a.37.37,0,0,1,.51-.11h0a.37.37,0,0,1,.1.51h0a.37.37,0,0,1-.3.16h0a.54.54,0,0,1-.21,0ZM52.05,63a.35.35,0,0,1,.13-.48h0a.37.37,0,0,1,.49.15h0a.37.37,0,0,1-.15.49h0a.49.49,0,0,1-.17,0h0A.34.34,0,0,1,52.05,63Zm14-.5a.36.36,0,0,1-.21-.47h0a.37.37,0,0,1,.47-.2h0a.36.36,0,0,1,.2.48h0a.36.36,0,0,1-.34.22h-.13Zm-14.57-.9h0a.36.36,0,0,1,.24-.45h0a.36.36,0,0,1,.45.24h0a.36.36,0,0,1-.24.45h-.11A.37.37,0,0,1,51.48,61.6Zm15.09-.46a.38.38,0,0,1-.29-.43h0a.35.35,0,0,1,.42-.29h0a.35.35,0,0,1,.29.42h0a.36.36,0,0,1-.36.29Zm-15.38-1a.37.37,0,0,1,.33-.4h0a.37.37,0,0,1,.4.33h0a.38.38,0,0,1-.33.4h0a.37.37,0,0,1-.4-.34v0Zm15.22-.77h0a.36.36,0,0,1,.35-.37h0a.36.36,0,0,1,.36.36h0a.36.36,0,0,1-.36.36h0a.38.38,0,0,1-.37-.37h0ZM51.52,59a.37.37,0,0,1-.33-.4h0a.37.37,0,0,1,.39-.33h0a.37.37,0,0,1,.33.4h0a.36.36,0,0,1-.36.33h0Zm14.76-1.06a.37.37,0,0,1,.28-.43h0a.36.36,0,0,1,.43.29h0a.36.36,0,0,1-.28.43h-.08a.36.36,0,0,1-.35-.3Zm-14.56-.38a.36.36,0,0,1-.25-.44h0a.37.37,0,0,1,.45-.25h0a.37.37,0,0,1,.25.45h0a.36.36,0,0,1-.35.27h0Zm14.16-.94a.38.38,0,0,1,.2-.48h0a.38.38,0,0,1,.48.21h0a.37.37,0,0,1-.2.47h-.14a.38.38,0,0,1-.34-.21Zm-13.69-.43a.35.35,0,0,1-.16-.48h0a.35.35,0,0,1,.48-.16h0a.35.35,0,0,1,.16.48h0a.34.34,0,0,1-.33.2h0a.3.3,0,0,1-.16,0Zm13.06-.79a.37.37,0,0,1,.1-.51h0a.37.37,0,0,1,.51.11h0a.36.36,0,0,1-.11.5h0a.36.36,0,0,1-.2.06h0a.38.38,0,0,1-.3-.17Zm-12.34-.47a.37.37,0,0,1-.06-.51h0a.36.36,0,0,1,.51-.06h0a.36.36,0,0,1,.06.51h0a.35.35,0,0,1-.28.14h0a.41.41,0,0,1-.23-.09Zm11.48-.62a.35.35,0,0,1,0-.49l0,0h0a.35.35,0,0,1,.49,0l0,0h0a.35.35,0,0,1,0,.49l0,0h0a.36.36,0,0,1-.25.11h0a.32.32,0,0,1-.26-.12Zm-10.53-.48a.36.36,0,0,1,0-.51h0a.36.36,0,0,1,.51,0h0a.37.37,0,0,1,0,.52h0a.32.32,0,0,1-.23.09h0a.41.41,0,0,1-.28-.11Zm9.48-.42a.38.38,0,0,1-.09-.51h0a.37.37,0,0,1,.51-.08h0a.34.34,0,0,1,.1.48v0h0a.37.37,0,0,1-.3.16h0a.32.32,0,0,1-.21-.08ZM55,52.92a.37.37,0,0,1,.13-.5h0a.37.37,0,0,1,.5.13h0a.37.37,0,0,1-.13.5h0a.32.32,0,0,1-.19.05h0A.35.35,0,0,1,55,52.92Zm7.14-.21a.36.36,0,0,1-.18-.48h0a.37.37,0,0,1,.48-.18h0a.35.35,0,0,1,.19.46v0h0a.36.36,0,0,1-.33.22h0A.28.28,0,0,1,62.14,52.71Zm-5.85-.46a.35.35,0,0,1,.2-.45h0A.34.34,0,0,1,57,52s0,0,0,0h0a.35.35,0,0,1-.2.45h-.14A.36.36,0,0,1,56.29,52.25Zm4.55,0a.36.36,0,0,1-.27-.43h0a.36.36,0,0,1,.43-.27h0a.38.38,0,0,1,.27.44h0a.38.38,0,0,1-.36.28h-.08Zm-3.16-.43a.36.36,0,0,1,.3-.41h0a.35.35,0,0,1,.41.3h0a.37.37,0,0,1-.31.42H58a.36.36,0,0,1-.32-.29Zm1.79.24a.37.37,0,0,1-.35-.38h0a.37.37,0,0,1,.38-.35h0a.37.37,0,0,1,.35.38h0a.37.37,0,0,1-.36.35h0Z" transform="translate(0.02 0)"/><path d="M59.16,68.5a.44.44,0,0,1,.41-.46h0a.44.44,0,0,1,.46.42h0a.44.44,0,0,1-.42.46h0A.44.44,0,0,1,59.16,68.5Zm-1.37.33a.43.43,0,0,1-.37-.48h0a.44.44,0,0,1,.5-.37h0a.43.43,0,0,1,.37.48h0a.44.44,0,0,1-.44.38h-.06Zm3.1-.49a.44.44,0,0,1,.3-.53h0a.44.44,0,0,1,.53.32h0a.44.44,0,0,1-.32.53h-.11A.43.43,0,0,1,60.89,68.34ZM56,68.41a.44.44,0,0,1-.27-.56h0a.42.42,0,0,1,.54-.27h0a.43.43,0,0,1,.28.55h0a.46.46,0,0,1-.42.29h0Zm6.54-.57a.45.45,0,0,1,.22-.58h0a.45.45,0,0,1,.58.22h0a.44.44,0,0,1-.22.58h-.18a.43.43,0,0,1-.38-.22Zm-8.2-.19a.44.44,0,0,1-.16-.6h0a.44.44,0,0,1,.6-.16h0a.44.44,0,0,1,.16.6h0a.43.43,0,0,1-.38.22h0a.36.36,0,0,1-.2-.06Zm9.75-.6a.43.43,0,0,1,.09-.6h0a.43.43,0,0,1,.6.09h0a.44.44,0,0,1-.1.61h0a.5.5,0,0,1-.26.08h0a.44.44,0,0,1-.33-.18Zm-11.23-.46a.43.43,0,0,1-.07-.59l0,0h0a.44.44,0,0,1,.62,0h0a.44.44,0,0,1,0,.62h0a.41.41,0,0,1-.33.15h0a.36.36,0,0,1-.22-.16ZM65.48,66a.43.43,0,0,1,0-.61h0a.44.44,0,0,1,.62,0h0a.44.44,0,0,1,0,.62h0a.41.41,0,0,1-.31.14h0A.41.41,0,0,1,65.48,66Zm-13.86-.69a.44.44,0,0,1,.07-.62h0a.43.43,0,0,1,.6.07h0a.43.43,0,0,1-.06.6h0a.44.44,0,0,1-.27.09h0a.39.39,0,0,1-.34-.19Zm15-.63a.44.44,0,0,1-.15-.59h0a.45.45,0,0,1,.61-.14h0a.45.45,0,0,1,.13.61h0a.43.43,0,0,1-.37.2h0a.37.37,0,0,1-.23-.1Zm-16-.9a.44.44,0,0,1,.18-.59h0a.44.44,0,0,1,.59.18h0a.44.44,0,0,1-.18.59h0a.34.34,0,0,1-.2,0h0a.44.44,0,0,1-.38-.21Zm16.86-.61a.44.44,0,0,1-.25-.57h0a.44.44,0,0,1,.57-.24h0a.44.44,0,0,1,.25.57h0a.45.45,0,0,1-.41.27h0l-.15-.06ZM50,62.06a.44.44,0,0,1,.29-.55h0a.46.46,0,0,1,.55.3h0a.45.45,0,0,1-.3.54h-.12A.42.42,0,0,1,50,62.06Zm18.11-.56a.43.43,0,0,1-.35-.51h0a.42.42,0,0,1,.5-.34h0a.44.44,0,0,1,.35.51h0a.43.43,0,0,1-.43.35ZM49.6,60.27a.44.44,0,0,1,.39-.48h0a.44.44,0,0,1,.48.39h0a.44.44,0,0,1-.39.48h0a.43.43,0,0,1-.48-.38Zm18.27-.93h0a.44.44,0,0,1,.43-.44h0a.44.44,0,0,1,.44.44h0a.44.44,0,0,1-.44.43h0A.43.43,0,0,1,67.87,59.34ZM50,58.92a.43.43,0,0,1-.39-.47h0a.43.43,0,0,1,.46-.4h0a.44.44,0,0,1,.4.47h0a.44.44,0,0,1-.44.4h0Zm17.7-1.27a.44.44,0,0,1,.35-.51h0a.43.43,0,0,1,.51.33h0a.43.43,0,0,1-.33.51h-.1A.44.44,0,0,1,67.7,57.65Zm-17.47-.46a.45.45,0,0,1-.3-.54h0a.44.44,0,0,1,.55-.29h0a.43.43,0,0,1,.29.53h0a.43.43,0,0,1-.41.31h0A.3.3,0,0,1,50.23,57.19Zm17-1.13a.43.43,0,0,1,.24-.56h0a.42.42,0,0,1,.56.21v0h0a.43.43,0,0,1-.24.56h0a.43.43,0,0,1-.16,0h0A.44.44,0,0,1,67.23,56.06ZM50.8,55.55a.44.44,0,0,1-.19-.59h0a.44.44,0,0,1,.58-.2h0a.44.44,0,0,1,.19.59h0a.43.43,0,0,1-.39.24h0A.46.46,0,0,1,50.8,55.55Zm15.67-1a.43.43,0,0,1,.1-.59h0a.45.45,0,0,1,.61.13h0a.44.44,0,0,1-.13.6h0a.4.4,0,0,1-.24.07h0a.42.42,0,0,1-.36-.16ZM51.67,54a.44.44,0,0,1-.08-.62h0a.44.44,0,0,1,.62-.07h0a.44.44,0,0,1,.07.61h0a.42.42,0,0,1-.34.17h0A.44.44,0,0,1,51.67,54Zm13.77-.74h0a.43.43,0,0,1,0-.61h0a.44.44,0,0,1,.62,0h0a.44.44,0,0,1,0,.62h0a.42.42,0,0,1-.3.12h0a.41.41,0,0,1-.32-.08Zm-12.63-.58a.43.43,0,0,1,0-.61h0a.43.43,0,0,1,.61,0h0a.44.44,0,0,1,0,.62h0a.44.44,0,0,1-.29.11h0a.41.41,0,0,1-.32-.07Zm11.37-.51a.42.42,0,0,1-.11-.6h0a.44.44,0,0,1,.61-.11h0a.44.44,0,0,1,.11.61h0a.44.44,0,0,1-.36.19h0a.43.43,0,0,1-.25,0Zm-10-.57a.44.44,0,0,1,.16-.6h0a.43.43,0,0,1,.59.16h0a.43.43,0,0,1-.13.58h0a.43.43,0,0,1-.22.06h0a.42.42,0,0,1-.39-.17Zm8.57-.25a.44.44,0,0,1-.21-.58h0a.42.42,0,0,1,.55-.22h0a.43.43,0,0,1,.22.57h0a.44.44,0,0,1-.4.26h0a.31.31,0,0,1-.19,0Zm-7-.56a.43.43,0,0,1,.26-.55h0a.44.44,0,0,1,.56.27h0a.43.43,0,0,1-.26.55h-.15a.45.45,0,0,1-.44-.23Zm5.45,0a.44.44,0,0,1-.32-.52h0a.44.44,0,0,1,.53-.33h0a.44.44,0,0,1,.32.53h0a.44.44,0,0,1-.42.34h0Zm-3.79-.51a.45.45,0,0,1,.37-.5h0a.45.45,0,0,1,.5.37h0a.45.45,0,0,1-.37.5h-.06a.45.45,0,0,1-.47-.31Zm2.16.29a.44.44,0,0,1-.42-.46h0a.44.44,0,0,1,.45-.42h0a.44.44,0,0,1,.42.46h0a.45.45,0,0,1-.43.42h0Z" transform="translate(0.02 0)"/><path d="M59.16,70.33a.52.52,0,0,1,.5-.54h0a.51.51,0,0,1,.54.48h0a.51.51,0,0,1-.47.55h0a.51.51,0,0,1-.55-.47Zm-1.64.4a.5.5,0,0,1-.44-.57v0h0a.52.52,0,0,1,.58-.45h0a.53.53,0,0,1,.45.6h0a.53.53,0,0,1-.52.45h-.08Zm3.72-.59a.53.53,0,0,1,.37-.64h0a.54.54,0,0,1,.64.39h0a.52.52,0,0,1-.38.63h-.13A.52.52,0,0,1,61.24,70.14Zm-5.85.08a.54.54,0,0,1-.32-.67h0a.54.54,0,0,1,.67-.32h0a.51.51,0,0,1,.32.66h0a.52.52,0,0,1-.49.35h0A.57.57,0,0,1,55.39,70.22Zm7.85-.67a.53.53,0,0,1,.26-.7h0a.54.54,0,0,1,.7.26h0a.52.52,0,0,1-.26.69h0a.41.41,0,0,1-.22,0h0A.54.54,0,0,1,63.24,69.55Zm-9.84-.24a.52.52,0,0,1-.19-.71h0a.54.54,0,0,1,.72-.2h0a.53.53,0,0,1,.19.72h0a.51.51,0,0,1-.45.26h0a.52.52,0,0,1-.27-.07Zm11.7-.72a.54.54,0,0,1,.12-.74h0A.52.52,0,0,1,66,68a.1.1,0,0,1,0,0h0a.52.52,0,0,1-.11.73h0a.54.54,0,0,1-.3.1h0a.54.54,0,0,1-.48-.24Zm-13.48-.54h0a.52.52,0,0,1,0-.74h0a.52.52,0,0,1,.73-.07h0a.52.52,0,0,1,0,.74h0a.52.52,0,0,1-.4.18h0A.54.54,0,0,1,51.62,68.05Zm15.12-.76a.52.52,0,0,1,0-.74h0a.53.53,0,0,1,.75,0h0a.53.53,0,0,1,0,.74h0a.52.52,0,0,1-.38.17h0A.48.48,0,0,1,66.74,67.29Zm-16.63-.82a.53.53,0,0,1,.09-.74h0a.51.51,0,0,1,.73.09h0a.52.52,0,0,1-.08.73h0a.5.5,0,0,1-.33.12h0A.51.51,0,0,1,50.11,66.47Zm18-.76A.53.53,0,0,1,68,65h0a.52.52,0,0,1,.73-.16h0a.53.53,0,0,1,.15.73h0a.52.52,0,0,1-.44.24h0A.5.5,0,0,1,68.11,65.71ZM48.92,64.63a.53.53,0,0,1,.23-.71h0a.53.53,0,0,1,.71.23h0a.52.52,0,0,1-.23.7h0a.5.5,0,0,1-.24.06h0A.53.53,0,0,1,48.92,64.63Zm20.24-.73a.53.53,0,0,1-.3-.68h0a.53.53,0,0,1,.69-.29h0a.54.54,0,0,1,.29.68h0a.52.52,0,0,1-.49.33h0A.41.41,0,0,1,69.16,63.9Zm-21-1.3a.5.5,0,0,1,.33-.64h0a.52.52,0,0,1,.65.35h0a.53.53,0,0,1-.35.65h-.15a.52.52,0,0,1-.55-.35Zm21.73-.67a.52.52,0,0,1-.42-.6h0A.53.53,0,0,1,70,60.9h0a.52.52,0,0,1,.41.61h0a.52.52,0,0,1-.51.43h0Zm-22.2-1.48h0a.52.52,0,0,1,.47-.57h0a.52.52,0,0,1,.57.45v0h0a.52.52,0,0,1-.45.57h0A.55.55,0,0,1,47.69,60.45Zm21.92-1.11h0a.52.52,0,0,1,.52-.52h0a.52.52,0,0,1,.53.51h0a.52.52,0,0,1-.52.52h0A.52.52,0,0,1,69.61,59.34Zm-21.45-.5a.52.52,0,0,1-.47-.57h0a.53.53,0,0,1,.57-.48h0a.53.53,0,0,1,.47.57h0a.53.53,0,0,1-.52.48Zm21.26-1.53a.51.51,0,0,1,.39-.61h0a.52.52,0,0,1,.61.41h0a.53.53,0,0,1-.41.62h-.1A.52.52,0,0,1,69.42,57.31Zm-21-.54a.51.51,0,0,1-.36-.64h0a.51.51,0,0,1,.64-.36h0a.51.51,0,0,1,.36.64h0a.53.53,0,0,1-.5.38h0Zm20.4-1.36a.52.52,0,0,1,.28-.68h0a.52.52,0,0,1,.68.28h0a.52.52,0,0,1-.28.68H69.3a.54.54,0,0,1-.45-.29ZM49.1,54.79a.53.53,0,0,1-.23-.71h0a.54.54,0,0,1,.71-.22h0a.52.52,0,0,1,.23.7h0a.52.52,0,0,1-.47.29h0a.83.83,0,0,1-.21-.06Zm18.8-1.14h0a.53.53,0,0,1,.15-.73h0a.52.52,0,0,1,.72.15h0a.51.51,0,0,1-.14.71h0a.47.47,0,0,1-.28.09h0a.52.52,0,0,1-.41-.24ZM50.17,53a.53.53,0,0,1-.09-.74h0a.53.53,0,0,1,.74-.09h0a.54.54,0,0,1,.09.74h0a.53.53,0,0,1-.42.2h0A.52.52,0,0,1,50.17,53Zm16.52-.89a.52.52,0,0,1,0-.74h0a.52.52,0,0,1,.74,0h0a.53.53,0,0,1,0,.74h0a.56.56,0,0,1-.37.15h0a.53.53,0,0,1-.37-.17ZM51.54,51.4a.52.52,0,0,1,0-.73h0a.52.52,0,0,1,.73,0h0a.53.53,0,0,1,0,.74h0a.56.56,0,0,1-.35.13h0A.55.55,0,0,1,51.54,51.4Zm13.65-.61a.51.51,0,0,1-.13-.72h0a.51.51,0,0,1,.72-.12h0a.54.54,0,0,1,.13.73h0a.53.53,0,0,1-.43.22h0A.47.47,0,0,1,65.19,50.79Zm-12-.69a.53.53,0,0,1,.19-.72h0a.53.53,0,0,1,.72.19h0a.53.53,0,0,1-.19.72h0a.48.48,0,0,1-.26.07h0a.55.55,0,0,1-.48-.26Zm10.29-.3a.52.52,0,0,1-.26-.69h0a.53.53,0,0,1,.69-.27h0a.52.52,0,0,1,.26.69h0a.53.53,0,0,1-.48.31h0a.69.69,0,0,1-.24-.05ZM55,49.13a.5.5,0,0,1,.3-.65h0a.52.52,0,0,1,.67.31h0a.54.54,0,0,1-.32.67h-.18A.52.52,0,0,1,55,49.13Zm6.55,0a.53.53,0,0,1-.39-.63h0a.51.51,0,0,1,.62-.39h0a.51.51,0,0,1,.39.62h0a.52.52,0,0,1-.51.4h-.12ZM57,48.54a.53.53,0,0,1,.44-.59h0a.51.51,0,0,1,.59.42v0h0a.52.52,0,0,1-.44.59h-.08A.53.53,0,0,1,57,48.54Zm2.58.34a.52.52,0,0,1-.5-.54h0a.53.53,0,0,1,.55-.5h0a.52.52,0,0,1,.5.54h0a.52.52,0,0,1-.52.5h0Z" transform="translate(0.02 0)"/><path d="M59.16,72.53a.62.62,0,0,1,.59-.65h0a.62.62,0,0,1,.66.58v0h0a.62.62,0,0,1-.59.65h0a.62.62,0,0,1-.65-.59Zm-2,.48h0a.63.63,0,0,1-.53-.71h0a.64.64,0,0,1,.71-.54h0a.63.63,0,0,1,.53.72h0a.63.63,0,0,1-.62.54h-.09Zm4.46-.71a.63.63,0,0,1,.46-.76h0a.64.64,0,0,1,.77.46h0a.63.63,0,0,1-.47.76h-.15a.63.63,0,0,1-.58-.46Zm-7,.1h0a.63.63,0,0,1-.39-.8h0a.63.63,0,0,1,.78-.4h0a.63.63,0,0,1,.39.8h0a.63.63,0,0,1-.59.42h0a.63.63,0,0,1-.19,0ZM64,71.59a.61.61,0,0,1,.3-.82h0a.61.61,0,0,1,.82.3h0a.61.61,0,0,1-.3.82h0a.58.58,0,0,1-.26.06h0a.63.63,0,0,1-.55-.37Zm-11.81-.28h0a.64.64,0,0,1-.23-.86h0a.61.61,0,0,1,.84-.24h0a.61.61,0,0,1,.24.84v0h0a.65.65,0,0,1-.55.31h0a.74.74,0,0,1-.29-.08Zm14-.87a.64.64,0,0,1,.14-.88h0a.63.63,0,0,1,.88.15h0a.64.64,0,0,1-.14.88h0a.7.7,0,0,1-.37.11h0a.62.62,0,0,1-.45-.26Zm-16.18-.66a.61.61,0,0,1-.06-.87h0a.62.62,0,0,1,.89-.07h0a.63.63,0,0,1,.06.89h0a.64.64,0,0,1-.48.22h0a.6.6,0,0,1-.35-.16Zm18.15-.89a.62.62,0,0,1,0-.89h0a.62.62,0,0,1,.88,0h0a.62.62,0,0,1,0,.89h0a.63.63,0,0,1-.46.2h0a.62.62,0,0,1-.37-.2Zm-20-1a.63.63,0,0,1,.09-.89h0a.64.64,0,0,1,.89.11h0a.63.63,0,0,1-.11.88h0a.62.62,0,0,1-.39.14h0a.7.7,0,0,1-.39-.24ZM69.9,67a.63.63,0,0,1-.19-.87h0a.63.63,0,0,1,.87-.19h0a.63.63,0,0,1,.19.87h0a.62.62,0,0,1-.53.29h0A.59.59,0,0,1,69.9,67Zm-23-1.31a.64.64,0,0,1,.26-.85h0a.63.63,0,0,1,.85.27h0a.63.63,0,0,1-.27.85h0a.55.55,0,0,1-.28.07h0a.62.62,0,0,1-.58-.35Zm24.28-.86a.63.63,0,0,1-.35-.82h0a.63.63,0,0,1,.82-.35h0a.63.63,0,0,1,.34.82h0a.61.61,0,0,1-.58.39h0a.7.7,0,0,1-.25-.05ZM45.9,63.25a.63.63,0,0,1,.41-.79h0a.63.63,0,0,1,.78.43h0a.63.63,0,0,1-.42.78H46.5A.64.64,0,0,1,45.9,63.25Zm26.1-.8a.63.63,0,0,1-.5-.74h0a.63.63,0,0,1,.73-.5h0a.63.63,0,0,1,.5.74h0a.61.61,0,0,1-.61.51H72ZM45.4,60.67A.63.63,0,0,1,46,60h0a.64.64,0,0,1,.69.56h0a.63.63,0,0,1-.57.68H46A.62.62,0,0,1,45.4,60.67Zm26.3-1.33h0a.63.63,0,0,1,.63-.63h0a.63.63,0,0,1,.63.63h0a.64.64,0,0,1-.63.62h0A.64.64,0,0,1,71.7,59.34ZM46,58.73a.64.64,0,0,1-.57-.69h0a.64.64,0,0,1,.69-.56h0a.62.62,0,0,1,.57.67h0a.63.63,0,0,1-.63.57Zm25.51-1.81a.62.62,0,0,1,.49-.73h0a.63.63,0,0,1,.74.49h0a.64.64,0,0,1-.5.74h-.12a.63.63,0,0,1-.66-.5Zm-25.16-.68a.63.63,0,0,1-.43-.77h0A.63.63,0,0,1,46.7,55h0a.62.62,0,0,1,.44.76v0h0a.62.62,0,0,1-.6.45h0Zm24.48-1.6a.63.63,0,0,1,.35-.82h0a.63.63,0,0,1,.82.35h0a.64.64,0,0,1-.35.82h-.23a.64.64,0,0,1-.63-.35Zm-23.66-.77A.61.61,0,0,1,46.9,53h0a.63.63,0,0,1,.84-.28h0a.64.64,0,0,1,.28.85h0a.64.64,0,0,1-.56.34h0a.64.64,0,0,1-.33-.07Zm22.56-1.35h0a.63.63,0,0,1,.19-.87h0a.63.63,0,0,1,.87.19h0a.62.62,0,0,1-.17.86h0a.67.67,0,0,1-.34.1h0a.64.64,0,0,1-.57-.29ZM48.38,51.7a.64.64,0,0,1-.11-.89h0a.64.64,0,0,1,.89-.1h0a.62.62,0,0,1,.11.87h0a.63.63,0,0,1-.49.24h0A.61.61,0,0,1,48.38,51.7Zm19.83-1.05a.62.62,0,0,1,0-.89h0a.62.62,0,0,1,.89,0h0a.62.62,0,0,1,0,.89h0a.63.63,0,0,1-.43.17h0A.6.6,0,0,1,68.21,50.65ZM50,49.8a.63.63,0,0,1,.06-.89h0A.63.63,0,0,1,51,49a.08.08,0,0,1,0,0h0a.63.63,0,0,1-.06.89h0a.62.62,0,0,1-.41.16h0A.67.67,0,0,1,50,49.8Zm16.39-.71a.61.61,0,0,1-.16-.86v0h0a.63.63,0,0,1,.87-.15h0a.64.64,0,0,1,.15.88h0a.64.64,0,0,1-.51.26h0a.6.6,0,0,1-.34-.11ZM52,48.24a.64.64,0,0,1,.23-.86h0a.64.64,0,0,1,.86.23h0a.63.63,0,0,1-.23.86h0a.62.62,0,0,1-.32.09h0A.62.62,0,0,1,52,48.24Zm12.35-.34a.63.63,0,0,1-.32-.83h0a.62.62,0,0,1,.83-.31h0a.64.64,0,0,1,.31.83h0a.63.63,0,0,1-.57.37h0a.63.63,0,0,1-.27-.06Zm-10.12-.81a.63.63,0,0,1,.37-.8h0a.61.61,0,0,1,.79.37v0h0a.64.64,0,0,1-.38.8h0a.74.74,0,0,1-.21,0h0a.61.61,0,0,1-.6-.39Zm7.86,0a.63.63,0,0,1-.47-.76h0a.63.63,0,0,1,.76-.47h0a.63.63,0,0,1,.47.76h0a.63.63,0,0,1-.61.48h-.15Zm-5.46-.75a.62.62,0,0,1,.52-.71h0a.63.63,0,0,1,.72.53h0a.63.63,0,0,1-.54.71h-.09a.63.63,0,0,1-.63-.49Zm3.1.41a.62.62,0,0,1-.6-.64h0a.62.62,0,0,1,.64-.6h0a.62.62,0,0,1,.6.64h0a.63.63,0,0,1-.62.6h0Z" transform="translate(0.02 0)"/><path d="M59.16,75.17a.76.76,0,0,1,.71-.79h0a.75.75,0,0,1,.79.72h0a.75.75,0,0,1-.71.79h0a.74.74,0,0,1-.78-.7Zm-2.36.58h0a.76.76,0,0,1-.64-.86h0a.75.75,0,0,1,.85-.64h0a.75.75,0,0,1,.64.85h0a.75.75,0,0,1-.74.65Zm5.35-.86A.76.76,0,0,1,62.7,74h0a.76.76,0,0,1,.91.55h0a.76.76,0,0,1-.55.91h-.19A.76.76,0,0,1,62.15,74.89ZM53.74,75a.74.74,0,0,1-.49-.94.14.14,0,0,1,0-.06h0a.74.74,0,0,1,.92-.5l.08,0h0a.77.77,0,0,1,.48,1v0h0A.76.76,0,0,1,54,75h0A.66.66,0,0,1,53.74,75ZM65,74a.75.75,0,0,1,.36-1h0a.75.75,0,0,1,1,.36h0a.75.75,0,0,1-.36,1h0a.67.67,0,0,1-.31.07h0A.75.75,0,0,1,65,74Zm-14.13-.3a.75.75,0,0,1-.28-1h0a.75.75,0,0,1,1-.28h0a.75.75,0,0,1,.28,1h0a.75.75,0,0,1-.65.38h0A.74.74,0,0,1,50.87,73.7Zm16.84-1a.75.75,0,0,1,.18-1h0a.74.74,0,0,1,1,.17h0a.76.76,0,0,1-.17,1.06h0a.77.77,0,0,1-.44.14h0a.74.74,0,0,1-.57-.41ZM48.3,71.87a.76.76,0,0,1-.07-1.06h0a.76.76,0,0,1,1.06-.08h0a.76.76,0,0,1,.08,1.06h0a.74.74,0,0,1-.57.27h0A.78.78,0,0,1,48.3,71.87ZM70.08,70.8a.77.77,0,0,1,0-1.07h0a.77.77,0,0,1,1.07,0h0a.77.77,0,0,1,0,1.07h0a.76.76,0,0,1-.55.24h0A.73.73,0,0,1,70.08,70.8ZM46.13,69.59a.75.75,0,0,1,.11-1h0a.75.75,0,0,1,1,.12h0a.76.76,0,0,1-.12,1.06h0a.78.78,0,0,1-.47.16h0A.75.75,0,0,1,46.13,69.59Zm25.92-1.07a.75.75,0,0,1-.22-1h0a.77.77,0,0,1,1-.23h0a.77.77,0,0,1,.23,1h0a.75.75,0,0,1-.64.35h0A.81.81,0,0,1,72.05,68.52ZM44.42,67a.75.75,0,0,1,.32-1h0a.75.75,0,0,1,1,.32h0a.75.75,0,0,1-.32,1h0a.72.72,0,0,1-.35.08h0A.75.75,0,0,1,44.42,67Zm29.14-1a.75.75,0,0,1-.44-1l0,0h0a.77.77,0,0,1,1-.43h0a.75.75,0,0,1,.43,1v0h0a.75.75,0,0,1-.7.48h0a.85.85,0,0,1-.3-.15ZM43.24,64a.76.76,0,0,1,.51-.94h0a.77.77,0,0,1,.94.52h0a.75.75,0,0,1-.51.93H44A.75.75,0,0,1,43.24,64Zm31.3-1a.75.75,0,0,1-.6-.87h0a.76.76,0,0,1,.89-.6h0a.75.75,0,0,1,.6.87h0a.76.76,0,0,1-.74.61h-.15ZM42.65,60.93h0a.76.76,0,0,1,.68-.83h0a.76.76,0,0,1,.82.69h0a.75.75,0,0,1-.67.82H43.4A.74.74,0,0,1,42.65,60.93Zm31.56-1.59h0a.77.77,0,0,1,.76-.76h0a.76.76,0,0,1,.75.76h0a.77.77,0,0,1-.75.75h0A.76.76,0,0,1,74.21,59.34ZM43.33,58.6a.76.76,0,0,1-.69-.82h0a.76.76,0,0,1,.83-.68h0a.75.75,0,0,1,.68.81h0a.76.76,0,0,1-.75.68Zm30.61-2.15a.74.74,0,0,1,.59-.88h0a.74.74,0,0,1,.89.58h0a.76.76,0,0,1-.6.89h-.14A.75.75,0,0,1,73.94,56.45Zm-30.19-.83a.77.77,0,0,1-.52-.94h0a.76.76,0,0,1,.94-.51h0a.76.76,0,0,1,.51.94h0a.75.75,0,0,1-.72.54h0A.76.76,0,0,1,43.75,55.62Zm29.38-1.91a.77.77,0,0,1,.4-1h0a.77.77,0,0,1,1,.42h0a.75.75,0,0,1-.39,1h0a.67.67,0,0,1-.28.06h0A.77.77,0,0,1,73.13,53.71Zm-28.4-.94a.76.76,0,0,1-.33-1h0a.76.76,0,0,1,1-.33h0a.76.76,0,0,1,.32,1h0a.76.76,0,0,1-.67.41h0A.72.72,0,0,1,44.73,52.77Zm27.08-1.61a.75.75,0,0,1,.22-1h0a.77.77,0,0,1,1,.22h0a.77.77,0,0,1-.23,1h0a.73.73,0,0,1-.41.12h0A.73.73,0,0,1,71.81,51.16Zm-25.58-1a.76.76,0,0,1-.13-1.06h0a.75.75,0,0,1,1.06-.1h0a.75.75,0,0,1,.13,1h0a.75.75,0,0,1-.59.29h0a.77.77,0,0,1-.47-.12ZM70,48.92a.77.77,0,0,1,0-1.07h0a.77.77,0,0,1,1.07,0h0a.77.77,0,0,1,0,1.07h0a.78.78,0,0,1-.52.21h0A.81.81,0,0,1,70,48.92Zm-21.83-1a.76.76,0,0,1,.08-1.07h0a.75.75,0,0,1,1.06.08h0a.77.77,0,0,1,0,1.07h0a.78.78,0,0,1-.5.19h0a.76.76,0,0,1-.57-.3Zm19.66-.84h0A.77.77,0,0,1,67.68,46h0a.77.77,0,0,1,1.06-.18h0a.77.77,0,0,1,.18,1.06h0a.75.75,0,0,1-.62.32h0a.78.78,0,0,1-.44-.15Zm-17.3-1a.75.75,0,0,1,.28-1h0a.75.75,0,0,1,1,.28h0a.76.76,0,0,1-.27,1h0a.75.75,0,0,1-.38.1h0a.77.77,0,0,1-.6-.46Zm14.82-.4h0a.75.75,0,0,1-.37-1h0a.76.76,0,0,1,1-.38h0a.75.75,0,0,1,.37,1h0a.73.73,0,0,1-.69.44h0a.77.77,0,0,1-.28-.12Zm-12.14-1a.75.75,0,0,1,.41-1l.05,0h0a.75.75,0,0,1,1,.41s0,0,0,0h0a.75.75,0,0,1-.41,1l0,0H54a.73.73,0,0,1-.72-.5Zm9.43,0a.76.76,0,0,1-.55-.91h0A.75.75,0,0,1,63,43.2h0a.75.75,0,0,1,.55.91h0a.75.75,0,0,1-.73.58h0Zm-6.55-.9a.76.76,0,0,1,.64-.86h0a.76.76,0,0,1,.86.64h0a.75.75,0,0,1-.64.85h-.11a.76.76,0,0,1-.72-.62Zm3.72.5h0a.75.75,0,0,1-.72-.79h0a.75.75,0,0,1,.78-.72h0a.75.75,0,0,1,.72.79h0a.77.77,0,0,1-.76.72h0Z" transform="translate(0.02 0)"/><path d="M59.16,78.34a.91.91,0,0,1,.81-1H60a.92.92,0,0,1,.95.87h0a.91.91,0,0,1-.87.94h0A.89.89,0,0,1,59.16,78.34ZM56.33,79h0a.91.91,0,0,1-.77-1h0a.91.91,0,0,1,1-.77h0a.91.91,0,0,1,.77,1h0a.9.9,0,0,1-.89.78h-.11Zm6.42-1a.89.89,0,0,1,.64-1.08h0a.9.9,0,0,1,1.09.66h0a.91.91,0,0,1-.66,1.1h0a.81.81,0,0,1-.22,0h0A.91.91,0,0,1,62.75,78Zm-10.1.14h0A.92.92,0,0,1,52.09,77h0a.92.92,0,0,1,1.16-.56h0a.91.91,0,0,1,.56,1.15h0a.9.9,0,0,1-.86.61h0A.8.8,0,0,1,52.65,78.14ZM66.22,77a.91.91,0,0,1,.44-1.2h0a.92.92,0,0,1,1.21.44h0a.92.92,0,0,1-.45,1.2h0a1,1,0,0,1-.38.08h0A.9.9,0,0,1,66.22,77Zm-17-.41a.91.91,0,0,1-.33-1.24h0A.91.91,0,0,1,50.12,75h0a.91.91,0,0,1,.33,1.24h0a.9.9,0,0,1-.78.45h0a.93.93,0,0,1-.46-.12Zm20.22-1.25a.91.91,0,0,1,.2-1.26h0a.91.91,0,0,1,1.26.2h0a.91.91,0,0,1-.2,1.26h0a.87.87,0,0,1-.52.17h0a.89.89,0,0,1-.75-.4Zm-23.3-.94A.91.91,0,0,1,46,73.12l0,0h0A.89.89,0,0,1,47.26,73l.06,0h0a.9.9,0,0,1,.1,1.27h0a.93.93,0,0,1-.68.31h0a.93.93,0,0,1-.6-.21Zm26.14-1.29a.9.9,0,0,1,0-1.26l0,0h0a.9.9,0,0,1,1.27,0h0a.91.91,0,0,1,0,1.28h0a.91.91,0,0,1-.66.28h0a.9.9,0,0,1-.63-.3ZM43.52,71.64h0a.91.91,0,0,1,.15-1.27h0a.92.92,0,0,1,1.28.15h0a.93.93,0,0,1-.16,1.28h0a.88.88,0,0,1-.56.19h0A.9.9,0,0,1,43.52,71.64Zm31.11-1.28a.89.89,0,0,1-.27-1.24h0a.91.91,0,0,1,1.25-.28h0a.92.92,0,0,1,.27,1.26h0a.9.9,0,0,1-.76.41h0A1,1,0,0,1,74.63,70.36ZM41.47,68.47a.91.91,0,0,1,.39-1.22h0a.9.9,0,0,1,1.21.38h0a.9.9,0,0,1-.38,1.21h0a.86.86,0,0,1-.41.1h0A.92.92,0,0,1,41.47,68.47Zm35-1.24a.9.9,0,0,1-.5-1.17h0a.9.9,0,0,1,1.17-.5h0a.91.91,0,0,1,.5,1.18h0a.91.91,0,0,1-.84.57h0a.94.94,0,0,1-.37-.07ZM40.06,65a.92.92,0,0,1,.62-1.13h0a.91.91,0,0,1,1.12.62h0a.9.9,0,0,1-.61,1.12h0a1.13,1.13,0,0,1-.26,0h0A.92.92,0,0,1,40.06,65Zm37.56-1.14a.91.91,0,0,1-.72-1.06h0a.91.91,0,0,1,1-.82L78,62h0a.9.9,0,0,1,.72,1h0a.9.9,0,0,1-.89.73h-.17ZM39.35,61.25a.91.91,0,0,1,.81-1h0a.91.91,0,0,1,1,.81h0a.91.91,0,0,1-.81,1h-.09A.9.9,0,0,1,39.35,61.25Zm37.88-1.91h0a.9.9,0,0,1,.89-.91h0a.9.9,0,0,1,.91.89h0a.9.9,0,0,1-.9.9h0A.91.91,0,0,1,77.23,59.34Zm-37.07-.88a.92.92,0,0,1-.82-1h0a.91.91,0,0,1,1-.82h0a.92.92,0,0,1,.82,1h0a.91.91,0,0,1-.9.82h-.1Zm36.73-2.59a.91.91,0,0,1,.72-1.06h0a.91.91,0,0,1,1.06.72h0A.88.88,0,0,1,78,56.59h-.18A.92.92,0,0,1,76.89,55.87Zm-36.22-1a.91.91,0,0,1-.62-1.13h0a.9.9,0,0,1,1.12-.61h0a.91.91,0,0,1,.62,1.12h0a.92.92,0,0,1-.87.66h0a1.07,1.07,0,0,1-.25,0Zm35.25-2.3a.92.92,0,0,1,.5-1.18h0a.91.91,0,0,1,1.18.49h0a.9.9,0,0,1-.47,1.17h0a.8.8,0,0,1-.34.07h0a.9.9,0,0,1-.84-.56ZM41.84,51.46a.91.91,0,0,1-.39-1.22h0a.91.91,0,0,1,1.22-.39h0a.91.91,0,0,1,.4,1.21h0a.89.89,0,0,1-.8.49h0A.87.87,0,0,1,41.84,51.46Zm32.5-1.93a.91.91,0,0,1,.26-1.25h0a.91.91,0,0,1,1.25.26h0a.91.91,0,0,1-.26,1.25h0a.86.86,0,0,1-.49.15h0A.89.89,0,0,1,74.34,49.53Zm-30.69-1.2a.9.9,0,0,1-.16-1.26h0a.9.9,0,0,1,1.26-.16h0a.91.91,0,0,1,.15,1.27h0a.9.9,0,0,1-.71.35h0A.89.89,0,0,1,43.65,48.33Zm28.56-1.5a.9.9,0,0,1,0-1.26l0,0h0a.91.91,0,0,1,1.28,0h0a.91.91,0,0,1,0,1.28h0a.93.93,0,0,1-.63.25h0A.87.87,0,0,1,72.21,46.83ZM46,45.6a.9.9,0,0,1,.08-1.27h0a.9.9,0,0,1,1.27.08h0a.9.9,0,0,1-.08,1.27h0a.89.89,0,0,1-.6.22h0A.93.93,0,0,1,46,45.6Zm23.6-1a.91.91,0,0,1-.22-1.27h0a.92.92,0,0,1,1.27-.21h0a.91.91,0,0,1,.21,1.26h0a.92.92,0,0,1-.74.39h0a1,1,0,0,1-.51-.18ZM48.85,43.36a.89.89,0,0,1,.31-1.23h0a.91.91,0,0,1,1.24.33h0a.9.9,0,0,1-.32,1.23h0a.89.89,0,0,1-.45.12h0A.9.9,0,0,1,48.85,43.36Zm17.78-.49a.91.91,0,0,1-.46-1.19h0a.92.92,0,0,1,1.2-.45h0a.92.92,0,0,1,.45,1.2h0A.88.88,0,0,1,67,43h0A.82.82,0,0,1,66.63,42.87ZM52.05,41.7a.92.92,0,0,1,.56-1.16h0a.92.92,0,0,1,1.16.56h0a.92.92,0,0,1-.56,1.16h0a1,1,0,0,1-.3.05h0A.9.9,0,0,1,52.05,41.7Zm11.33.06h0a.91.91,0,0,1-.67-1.1h0A.92.92,0,0,1,63.8,40h0a.9.9,0,0,1,.67,1.08h0a.91.91,0,0,1-.88.7h0Zm-7.86-1.08a.92.92,0,0,1,.76-1h0a.91.91,0,0,1,1,.77h0a.9.9,0,0,1-.77,1h-.13A.89.89,0,0,1,55.52,40.68Zm4.46.6a.92.92,0,0,1-.87-1v0h0a.92.92,0,0,1,1-.87h0a.91.91,0,0,1,.86,1h0a.9.9,0,0,1-.9.87h0Z" transform="translate(0.02 0)"/><path d="M59.16,82.14a1.09,1.09,0,0,1,1-1.14h0a1.1,1.1,0,0,1,1.14,1h0a1.09,1.09,0,0,1-1,1.14h-.06A1.07,1.07,0,0,1,59.16,82.14ZM55.77,83a1.1,1.1,0,0,1-.93-1.23h0a1.1,1.1,0,0,1,1.23-.93h0A1.1,1.1,0,0,1,57,82h0a1.1,1.1,0,0,1-1.08.94h-.15Zm7.7-1.24a1.09,1.09,0,0,1,.8-1.31h0a1.09,1.09,0,0,1,1.32.8h0a1.09,1.09,0,0,1-.79,1.31h-.27a1.09,1.09,0,0,1-1.06-.83Zm-12.11.17a1.09,1.09,0,0,1-.69-1.37h0a1.08,1.08,0,0,1,1.37-.67h0a1.09,1.09,0,0,1,.68,1.38h0a1.09,1.09,0,0,1-1,.73h0a1,1,0,0,1-.38-.09Zm16.27-1.39a1.08,1.08,0,0,1,.54-1.44h0a1.08,1.08,0,0,1,1.44.54h0a1.08,1.08,0,0,1-.54,1.44h0a1,1,0,0,1-.45.1h0a1.1,1.1,0,0,1-1-.67ZM47.23,80a1.09,1.09,0,0,1-.4-1.49h0a1.08,1.08,0,0,1,1.48-.39h0a1.07,1.07,0,0,1,.4,1.47h0a1.07,1.07,0,0,1-.94.54h0A.93.93,0,0,1,47.23,80Zm24.25-1.5a1.09,1.09,0,0,1,.26-1.5h0a1.09,1.09,0,0,1,1.51.26h0A1.09,1.09,0,0,1,73,78.78h0a1.1,1.1,0,0,1-.63.2h0a1.1,1.1,0,0,1-.89-.46ZM43.53,77.39a1.1,1.1,0,0,1-.11-1.54h0A1.08,1.08,0,0,1,45,75.7l0,0h0a1.09,1.09,0,0,1,.13,1.52l0,0h0a1.09,1.09,0,0,1-.82.37h0A1.1,1.1,0,0,1,43.53,77.39Zm31.36-1.55a1.1,1.1,0,0,1,0-1.54h0a1.1,1.1,0,0,1,1.54,0h0a1.09,1.09,0,0,1,0,1.53h0a1.07,1.07,0,0,1-.79.34h0A1.12,1.12,0,0,1,74.89,75.84ZM40.4,74.11a1.09,1.09,0,0,1,.18-1.53h0a1.08,1.08,0,0,1,1.52.18h0a1.08,1.08,0,0,1-.17,1.52h0a1,1,0,0,1-.67.23h0A1.08,1.08,0,0,1,40.4,74.11Zm37.33-1.55a1.09,1.09,0,0,1-.34-1.49h0a1.11,1.11,0,0,1,1.51-.33h0a1.09,1.09,0,0,1,.32,1.51h0a1.08,1.08,0,0,1-.91.5h0A1,1,0,0,1,77.73,72.56ZM37.94,70.29a1.08,1.08,0,0,1,.46-1.46h0a1.09,1.09,0,0,1,1.47.46h0a1.08,1.08,0,0,1-.45,1.46h0a1.08,1.08,0,0,1-.5.12h0A1.07,1.07,0,0,1,37.94,70.29Zm42-1.48a1.08,1.08,0,0,1-.61-1.41h0a1.1,1.1,0,0,1,1.42-.61h0a1.09,1.09,0,0,1,.6,1.42h0a1.09,1.09,0,0,1-1,.68h0a1.16,1.16,0,0,1-.45-.08ZM36.25,66.08A1.09,1.09,0,0,1,37,64.73h0a1.09,1.09,0,0,1,1.35.72v0h0a1.09,1.09,0,0,1-.73,1.35h0a1.61,1.61,0,0,1-.31,0h0A1.07,1.07,0,0,1,36.25,66.08Zm45.07-1.37a1.09,1.09,0,0,1-.87-1.27h0a1.09,1.09,0,0,1,1.28-.86h0a1.07,1.07,0,0,1,.86,1.26h0a1.09,1.09,0,0,1-1.07.88h0A.68.68,0,0,1,81.32,64.71ZM35.39,61.63a1.09,1.09,0,0,1,1-1.19h0a1.1,1.1,0,0,1,1.18,1h0a1.09,1.09,0,0,1-1,1.19h-.12A1.07,1.07,0,0,1,35.39,61.63Zm45.45-2.29h0a1.09,1.09,0,0,1,1.09-1.09h0a1.08,1.08,0,0,1,1.07,1h0a1.08,1.08,0,0,1-1.08,1.08h0A1.07,1.07,0,0,1,80.84,59.34ZM36.36,58.28a1.11,1.11,0,0,1-1-1.19h0a1.11,1.11,0,0,1,1.19-1h0a1.11,1.11,0,0,1,1,1.19h0a1.1,1.1,0,0,1-1.08,1Zm44.08-3.1a1.09,1.09,0,0,1,.87-1.27h0a1.08,1.08,0,0,1,1.27.85h0A1.08,1.08,0,0,1,81.72,56h-.21A1.1,1.1,0,0,1,80.44,55.18ZM37,54a1.08,1.08,0,0,1-.74-1.35h0a1.07,1.07,0,0,1,1.33-.74h0a1.07,1.07,0,0,1,.74,1.33v0h0a1.08,1.08,0,0,1-1,.78h0A1,1,0,0,1,37,54Zm42.31-2.76a1.09,1.09,0,0,1,.6-1.42h0a1.09,1.09,0,0,1,1.41.6h0a1.07,1.07,0,0,1-.57,1.4h0a1.1,1.1,0,0,1-.4.08h0a1.08,1.08,0,0,1-1-.69ZM38.41,49.9a1.1,1.1,0,0,1-.47-1.47h0A1.1,1.1,0,0,1,39.38,48h0a1.1,1.1,0,0,1,.47,1.47h0a1.11,1.11,0,0,1-1,.59h0a1.11,1.11,0,0,1-.47-.17Zm39-2.32h0a1.08,1.08,0,0,1,.31-1.5h0a1.06,1.06,0,0,1,1.48.3l0,0h0a1.06,1.06,0,0,1-.3,1.48l0,0h0a1,1,0,0,1-.59.18h0a1.08,1.08,0,0,1-.94-.51ZM40.55,46.13a1.07,1.07,0,0,1-.19-1.51h0a1.09,1.09,0,0,1,1.53-.19h0A1.09,1.09,0,0,1,42.11,46l0,0h0a1.11,1.11,0,0,1-.86.41h0A1,1,0,0,1,40.55,46.13Zm34.27-1.8a1.09,1.09,0,0,1,0-1.53h0a1.1,1.1,0,0,1,1.54,0h0a1.1,1.1,0,0,1,0,1.54h0a1.09,1.09,0,0,1-.75.3h0A1.05,1.05,0,0,1,74.82,44.33ZM43.38,42.85a1.09,1.09,0,0,1,.11-1.53h0a1.09,1.09,0,0,1,1.54.1h0A1.09,1.09,0,0,1,45,43l0,0h0a1.13,1.13,0,0,1-.72.27h0A1.1,1.1,0,0,1,43.38,42.85ZM71.7,41.64h0a1.09,1.09,0,0,1-.26-1.52h0A1.09,1.09,0,0,1,73,39.84l0,0h0a1.08,1.08,0,0,1,.25,1.51h0a1.07,1.07,0,0,1-.88.46h0A1.08,1.08,0,0,1,71.7,41.64ZM46.79,40.17a1.09,1.09,0,0,1,.39-1.49h0a1.09,1.09,0,0,1,1.49.39h0a1.09,1.09,0,0,1-.4,1.49h0a1,1,0,0,1-.54.15h0A1.1,1.1,0,0,1,46.79,40.17Zm21.33-.59h0a1.1,1.1,0,0,1-.54-1.44h0A1.1,1.1,0,0,1,69,37.6h0a1.08,1.08,0,0,1,.56,1.4h0a1.08,1.08,0,0,1-1,.64h0A1.09,1.09,0,0,1,68.12,39.58ZM50.63,38.17a1.09,1.09,0,0,1,.67-1.38h0a1.09,1.09,0,0,1,1.39.67h0A1.09,1.09,0,0,1,52,38.84h0a1.13,1.13,0,0,1-.36.06h0A1.09,1.09,0,0,1,50.63,38.17Zm13.6.07a1.08,1.08,0,0,1-.81-1.31h0a1.08,1.08,0,0,1,1.31-.81h0a1.08,1.08,0,0,1,.81,1.31h0a1.09,1.09,0,0,1-1.06.83h0A1.07,1.07,0,0,1,64.23,38.24Zm-9.44-1.3a1.1,1.1,0,0,1,.92-1.23h0a1.1,1.1,0,0,1,1.23.92h0a1.07,1.07,0,0,1-.89,1.22h-.2A1.09,1.09,0,0,1,54.79,36.94Zm5.35.72h0a1.07,1.07,0,0,1-1-1.13h0a1.08,1.08,0,0,1,1.13-1h0a1.09,1.09,0,0,1,1,1.14h0a1.09,1.09,0,0,1-1.09,1h0Z" transform="translate(0.02 0)"/><path d="M59.16,86.7a1.3,1.3,0,0,1,1.24-1.36h0a1.31,1.31,0,0,1,1.37,1.24h0A1.32,1.32,0,0,1,60.56,88h-.1A1.31,1.31,0,0,1,59.16,86.7Zm-4.07,1A1.31,1.31,0,0,1,54,86.22h0a1.3,1.3,0,0,1,1.46-1.11h0a1.28,1.28,0,0,1,1.1,1.45v0h0a1.31,1.31,0,0,1-1.29,1.13h-.2Zm9.25-1.48a1.3,1.3,0,0,1,1-1.56h0a1.3,1.3,0,0,1,1.57,1v0h0a1.31,1.31,0,0,1-1,1.57h0a.81.81,0,0,1-.31,0h0a1.3,1.3,0,0,1-1.27-1Zm-14.54.21h0A1.3,1.3,0,0,1,49,84.78v0h0A1.31,1.31,0,0,1,50.65,84h0a1.29,1.29,0,0,1,.8,1.65h0a1.29,1.29,0,0,1-1.23.88h0a1.2,1.2,0,0,1-.42-.12Zm19.53-1.67A1.31,1.31,0,0,1,70,83l0,0h0a1.31,1.31,0,0,1,1.73.64h0a1.31,1.31,0,0,1-.64,1.73h0a1.25,1.25,0,0,1-.54.12h0a1.29,1.29,0,0,1-1.22-.74Zm-24.49-.59h0a1.33,1.33,0,0,1-.48-1.79h0a1.33,1.33,0,0,1,1.79-.48h0a1.32,1.32,0,0,1,.47,1.79h0a1.26,1.26,0,0,1-1.13.65h0a1.47,1.47,0,0,1-.65-.18ZM74,82.36a1.3,1.3,0,0,1,.3-1.81h0a1.31,1.31,0,0,1,1.82.3h0a1.31,1.31,0,0,1-.31,1.82h0a1.3,1.3,0,0,1-.76.25h0A1.31,1.31,0,0,1,74,82.36ZM40.41,81a1.3,1.3,0,0,1-.15-1.83h0A1.31,1.31,0,0,1,42.12,79h0a1.32,1.32,0,0,1,.13,1.85h0a1.32,1.32,0,0,1-1,.45h0A1.29,1.29,0,0,1,40.41,81ZM78,79.14a1.32,1.32,0,0,1,0-1.84h0a1.3,1.3,0,0,1,1.84,0h0a1.31,1.31,0,0,1,0,1.85h0a1.27,1.27,0,0,1-.94.4h0A1.31,1.31,0,0,1,78,79.14ZM36.65,77.06a1.29,1.29,0,0,1,.21-1.83h0a1.31,1.31,0,0,1,1.84.22h0a1.31,1.31,0,0,1-.22,1.83h0a1.33,1.33,0,0,1-.81.28h0A1.27,1.27,0,0,1,36.65,77.06Zm44.8-1.85a1.29,1.29,0,0,1-.4-1.78v0h0a1.29,1.29,0,0,1,1.78-.4h0a1.31,1.31,0,0,1,.39,1.8h0a1.29,1.29,0,0,1-1.1.6h0A1.25,1.25,0,0,1,81.45,75.21ZM33.7,72.49a1.29,1.29,0,0,1,.53-1.75h0a1.3,1.3,0,0,1,1.75.56h0a1.31,1.31,0,0,1-.56,1.76h0a1.39,1.39,0,0,1-.6.14h0A1.3,1.3,0,0,1,33.7,72.49ZM84.05,70.7A1.3,1.3,0,0,1,83.31,69v0h0a1.32,1.32,0,0,1,1.7-.73h0a1.32,1.32,0,0,1,.73,1.7h0a1.3,1.3,0,0,1-1.22.82h0A1.32,1.32,0,0,1,84.05,70.7ZM31.67,67.43a1.3,1.3,0,0,1,.87-1.62h0a1.31,1.31,0,0,1,1.62.89h0a1.31,1.31,0,0,1-.88,1.62h0a1.57,1.57,0,0,1-.37.05h0A1.3,1.3,0,0,1,31.67,67.43Zm54.08-1.64a1.31,1.31,0,0,1-1-1.53h0a1.3,1.3,0,0,1,1.53-1h0a1.3,1.3,0,0,1,1,1.52h0a1.31,1.31,0,0,1-1.28,1h0Zm-55.11-3.7a1.3,1.3,0,0,1,1.16-1.43h0a1.31,1.31,0,0,1,1.42,1.18h0a1.3,1.3,0,0,1-1.15,1.42h-.15A1.3,1.3,0,0,1,30.64,62.09Zm54.54-2.75h0A1.31,1.31,0,0,1,86.46,58h0a1.31,1.31,0,0,1,1.31,1.3h0a1.3,1.3,0,0,1-1.3,1.3h0A1.3,1.3,0,0,1,85.18,59.34ZM31.81,58.07a1.29,1.29,0,0,1-1.18-1.41h0A1.29,1.29,0,0,1,32,55.47h0a1.29,1.29,0,0,1,1.18,1.41h0a1.31,1.31,0,0,1-1.3,1.18ZM84.7,54.35a1.31,1.31,0,0,1,1-1.53h0a1.31,1.31,0,0,1,1.53,1h0a1.3,1.3,0,0,1-1,1.52H86A1.32,1.32,0,0,1,84.7,54.35ZM32.53,52.92a1.31,1.31,0,0,1-.88-1.62h0a1.31,1.31,0,0,1,1.62-.89h0A1.32,1.32,0,0,1,34.15,52h0a1.28,1.28,0,0,1-1.25,1h0A1.53,1.53,0,0,1,32.53,52.92ZM83.3,49.61a1.31,1.31,0,0,1,.73-1.7h0a1.29,1.29,0,0,1,1.69.72h0a1.31,1.31,0,0,1-.71,1.7h0a1.16,1.16,0,0,1-.49.1h0A1.32,1.32,0,0,1,83.3,49.61ZM34.23,48a1.31,1.31,0,0,1-.56-1.76h0a1.3,1.3,0,0,1,1.75-.56h0A1.3,1.3,0,0,1,36,47.44h0a1.33,1.33,0,0,1-1.17.7h0A1.39,1.39,0,0,1,34.23,48ZM81,45.22a1.32,1.32,0,0,1,.39-1.81h0a1.31,1.31,0,0,1,1.8.39h0a1.3,1.3,0,0,1-.38,1.8h0a1.28,1.28,0,0,1-.71.21h0A1.31,1.31,0,0,1,81,45.22ZM36.83,43.49a1.3,1.3,0,0,1-.24-1.81l0,0h0a1.3,1.3,0,0,1,1.81-.24l0,0h0a1.3,1.3,0,0,1,.24,1.81l0,0h0a1.31,1.31,0,0,1-1,.5h0A1.26,1.26,0,0,1,36.83,43.49ZM78,41.33a1.32,1.32,0,0,1,0-1.84h0a1.31,1.31,0,0,1,1.85,0h0a1.31,1.31,0,0,1,0,1.85h0a1.3,1.3,0,0,1-.9.36h0A1.3,1.3,0,0,1,78,41.33ZM40.23,39.56a1.32,1.32,0,0,1,.13-1.85h0a1.31,1.31,0,0,1,1.84.13h0a1.31,1.31,0,0,1-.13,1.84h0a1.27,1.27,0,0,1-.85.32h0A1.33,1.33,0,0,1,40.23,39.56Zm34-1.46a1.3,1.3,0,0,1-.32-1.81h0a1.3,1.3,0,0,1,1.8-.28h0A1.31,1.31,0,0,1,76,37.79h0a1.31,1.31,0,0,1-1.07.55h0a1.32,1.32,0,0,1-.72-.24Zm-29.9-1.77a1.3,1.3,0,0,1,.47-1.78h0a1.3,1.3,0,0,1,1.78.47h0a1.3,1.3,0,0,1-.47,1.78h0a1.28,1.28,0,0,1-.66.18h0a1.3,1.3,0,0,1-1.15-.65Zm25.61-.7a1.3,1.3,0,0,1-.66-1.72h0A1.32,1.32,0,0,1,71,33.25h0A1.32,1.32,0,0,1,71.66,35v0h0a1.31,1.31,0,0,1-1.19.77h0a1.44,1.44,0,0,1-.54-.14Zm-21-1.69a1.31,1.31,0,0,1,.81-1.67h0a1.31,1.31,0,0,1,1.66.81h0a1.31,1.31,0,0,1-.81,1.66h0a1.25,1.25,0,0,1-.43.07h0a1.28,1.28,0,0,1-1.24-.87Zm16.3.06a1.31,1.31,0,0,1-1-1.54v0h0a1.3,1.3,0,0,1,1.56-1h0a1.32,1.32,0,0,1,1,1.58h0a1.32,1.32,0,0,1-1.27,1h0A1.51,1.51,0,0,1,65.24,34ZM53.92,32.47A1.3,1.3,0,0,1,55,31h0a1.29,1.29,0,0,1,1.47,1.08v0h0a1.3,1.3,0,0,1-1.09,1.48h-.2A1.3,1.3,0,0,1,53.92,32.47Zm6.42.86A1.29,1.29,0,0,1,59.1,32h0a1.31,1.31,0,0,1,1.36-1.25h0a1.3,1.3,0,0,1,1.24,1.36h0a1.3,1.3,0,0,1-1.3,1.24h-.06Z" transform="translate(0.02 0)"/><path d="M59.16,92.18a1.57,1.57,0,0,1,1.49-1.64h0A1.57,1.57,0,0,1,62.29,92h0a1.57,1.57,0,0,1-1.49,1.64h-.08A1.56,1.56,0,0,1,59.16,92.18Zm-4.88,1.18h0A1.56,1.56,0,0,1,53,91.6h0a1.57,1.57,0,0,1,1.77-1.34h0A1.57,1.57,0,0,1,56.05,92h0a1.57,1.57,0,0,1-1.55,1.35h0A.81.81,0,0,1,54.28,93.36Zm11.1-1.77a1.56,1.56,0,0,1,1.14-1.89h0a1.57,1.57,0,0,1,1.89,1.15h0a1.57,1.57,0,0,1-1.15,1.89h0a1.57,1.57,0,0,1-.37.05h0A1.57,1.57,0,0,1,65.38,91.59Zm-17.45.24a1.55,1.55,0,0,1-1-1.94s0,0,0-.06h0a1.57,1.57,0,0,1,2-1h0a1.57,1.57,0,0,1,1,2v0h0a1.57,1.57,0,0,1-1.48,1.06h0A1.51,1.51,0,0,1,47.93,91.83Zm23.43-2a1.59,1.59,0,0,1,.78-2.08h0a1.57,1.57,0,0,1,2.07.77h0a1.56,1.56,0,0,1-.77,2.07h0a1.46,1.46,0,0,1-.65.14h0A1.57,1.57,0,0,1,71.36,89.83ZM42,89.12A1.58,1.58,0,0,1,41.41,87h0a1.57,1.57,0,0,1,2.14-.57h0a1.57,1.57,0,0,1,.57,2.14h0a1.58,1.58,0,0,1-1.36.78h0A1.57,1.57,0,0,1,42,89.12ZM76.91,87a1.57,1.57,0,0,1,.36-2.18h0a1.57,1.57,0,0,1,2.18.36h0a1.57,1.57,0,0,1-.36,2.18h0a1.56,1.56,0,0,1-.91.29h0A1.57,1.57,0,0,1,76.91,87ZM36.66,85.33a1.58,1.58,0,0,1-.16-2.21h0A1.57,1.57,0,0,1,38.71,83h0a1.58,1.58,0,0,1,.16,2.21h0a1.55,1.55,0,0,1-1.19.54h0A1.56,1.56,0,0,1,36.66,85.33ZM81.82,83.1a1.55,1.55,0,0,1-.06-2.21h0a1.58,1.58,0,0,1,2.22,0h0a1.56,1.56,0,0,1,0,2.21h0a1.56,1.56,0,0,1-1.13.48h0A1.51,1.51,0,0,1,81.82,83.1ZM32.15,80.61a1.56,1.56,0,0,1,.25-2.19h0a1.56,1.56,0,0,1,2.19.25h0a1.57,1.57,0,0,1-.26,2.2h0a1.58,1.58,0,0,1-1,.33h0A1.56,1.56,0,0,1,32.15,80.61Zm53.76-2.23a1.55,1.55,0,0,1-.48-2.14v0h0a1.55,1.55,0,0,1,2.15-.47h0a1.57,1.57,0,0,1,.47,2.17h0a1.59,1.59,0,0,1-1.32.71h0A1.56,1.56,0,0,1,85.91,78.38Zm-57.3-3.26h0A1.57,1.57,0,0,1,29.28,73h0a1.57,1.57,0,0,1,2.11.66h0a1.58,1.58,0,0,1-.67,2.11h0A1.55,1.55,0,0,1,30,76h0A1.58,1.58,0,0,1,28.61,75.12ZM89,73a1.57,1.57,0,0,1-.87-2h0a1.57,1.57,0,0,1,2-.87h0a1.57,1.57,0,0,1,.87,2h0a1.57,1.57,0,0,1-1.46,1h0A1.43,1.43,0,0,1,89,73Zm-62.83-4a1.57,1.57,0,0,1,1-1.94h0a1.55,1.55,0,0,1,1.93,1v0h0a1.55,1.55,0,0,1-1,1.93h0a1.31,1.31,0,0,1-.44.07h0A1.56,1.56,0,0,1,26.17,69.05Zm64.9-2a1.56,1.56,0,0,1-1.24-1.82h0A1.57,1.57,0,0,1,91.66,64h0a1.57,1.57,0,0,1,1.24,1.84h0a1.55,1.55,0,0,1-1.53,1.27h0a1.53,1.53,0,0,1-.3,0ZM24.93,62.64a1.57,1.57,0,0,1,1.41-1.71h0a1.57,1.57,0,0,1,1.71,1.41h0a1.57,1.57,0,0,1-1.41,1.71h-.15A1.57,1.57,0,0,1,24.93,62.64Zm65.46-3.3h0a1.55,1.55,0,0,1,1.46-1.64H92a1.56,1.56,0,0,1,1.57,1.55h0a1.57,1.57,0,0,1-1.48,1.64H92a1.56,1.56,0,0,1-1.61-1.51Zm-64-1.53A1.56,1.56,0,0,1,25,56.11h0a1.54,1.54,0,0,1,1.68-1.41h0A1.56,1.56,0,0,1,28,56.4h0a1.56,1.56,0,0,1-1.55,1.42h-.06Zm63.48-4.46a1.56,1.56,0,0,1,1.23-1.83h0a1.57,1.57,0,0,1,1.84,1.22v0h0a1.57,1.57,0,0,1-1.23,1.83H91.4a1.56,1.56,0,0,1-1.58-1.24ZM27.21,51.63a1.56,1.56,0,0,1-1.06-1.93h0a1.55,1.55,0,0,1,1.91-1.07h0a1.55,1.55,0,0,1,1.07,1.91v0h0a1.56,1.56,0,0,1-1.5,1.13h0A1.31,1.31,0,0,1,27.21,51.63Zm60.92-4h0a1.56,1.56,0,0,1,.87-2h0a1.56,1.56,0,0,1,2,.86h0a1.57,1.57,0,0,1-.87,2h0a1.62,1.62,0,0,1-.58.11h0a1.58,1.58,0,0,1-1.42-.94Zm-58.88-1.9a1.57,1.57,0,0,1-.68-2.11h0A1.56,1.56,0,0,1,30.68,43h0a1.57,1.57,0,0,1,.68,2.11h0A1.57,1.57,0,0,1,30,46h0A1.48,1.48,0,0,1,29.25,45.73ZM85.4,42.39h0a1.56,1.56,0,0,1,.46-2.16h0a1.57,1.57,0,0,1,2.17.46h0a1.57,1.57,0,0,1-.47,2.17h0a1.56,1.56,0,0,1-.84.25h0A1.57,1.57,0,0,1,85.4,42.39Zm-53-2.07a1.57,1.57,0,0,1-.26-2.2h0a1.57,1.57,0,0,1,2.2-.26h0a1.56,1.56,0,0,1,.27,2.19h0a1.56,1.56,0,0,1-1.23.6h0a1.54,1.54,0,0,1-1-.34Zm49.35-2.59a1.57,1.57,0,0,1,0-2.21h0a1.58,1.58,0,0,1,2.22,0h0a1.56,1.56,0,0,1,0,2.21h0a1.56,1.56,0,0,1-1.08.44h0a1.57,1.57,0,0,1-1.23-.44ZM36.45,35.6a1.57,1.57,0,0,1,.15-2.21h0a1.55,1.55,0,0,1,2.2.15h0a1.54,1.54,0,0,1-.14,2.19h0a1.6,1.6,0,0,1-1,.39h0A1.56,1.56,0,0,1,36.45,35.6Zm40.77-1.75a1.57,1.57,0,0,1-.37-2.18h0A1.56,1.56,0,0,1,79,31.3h0a1.56,1.56,0,0,1,.37,2.17h0a1.53,1.53,0,0,1-1.27.66h0A1.54,1.54,0,0,1,77.22,33.85ZM41.35,31.73a1.56,1.56,0,0,1,.56-2.13h0a1.57,1.57,0,0,1,2.14.57h0a1.58,1.58,0,0,1-.57,2.14h0a1.56,1.56,0,0,1-.79.21h0A1.56,1.56,0,0,1,41.35,31.73Zm30.72-.84h0a1.57,1.57,0,0,1-.77-2.08h0a1.56,1.56,0,0,1,2-.82h0a1.55,1.55,0,0,1,.78,2.06h0a1.56,1.56,0,0,1-1.43.92h0A1.8,1.8,0,0,1,72.07,30.89Zm-25.18-2a1.57,1.57,0,0,1,1-2h0a1.58,1.58,0,0,1,2,1h0a1.57,1.57,0,0,1-1,2h0a1.48,1.48,0,0,1-.51.09h0a1.58,1.58,0,0,1-1.49-1.12Zm19.57.1A1.58,1.58,0,0,1,65.3,27.1h0a1.57,1.57,0,0,1,1.89-1.16h0a1.57,1.57,0,0,1,1.16,1.89h0A1.57,1.57,0,0,1,66.83,29h0a2.29,2.29,0,0,1-.37,0Zm-13.59-1.9a1.57,1.57,0,0,1,1.33-1.77h0A1.54,1.54,0,0,1,56,26.58s0,0,0,.06h0a1.56,1.56,0,0,1-1.32,1.78h-.23A1.58,1.58,0,0,1,52.87,27.09Zm7.71,1a1.57,1.57,0,0,1-1.49-1.64h0A1.56,1.56,0,0,1,60.72,25h0a1.56,1.56,0,0,1,1.5,1.62h0a1.57,1.57,0,0,1-1.57,1.5h-.07Z" transform="translate(0.02 0)"/><path d="M59.16,98.75a1.89,1.89,0,0,1,1.77-2h0a1.88,1.88,0,0,1,2,1.75v0h0a1.88,1.88,0,0,1-1.75,2H61A1.88,1.88,0,0,1,59.16,98.75Zm-5.85,1.42a1.88,1.88,0,0,1-1.6-2.12h0a1.87,1.87,0,0,1,2.1-1.6h0a1.88,1.88,0,0,1,1.6,2.12h0a1.88,1.88,0,0,1-1.86,1.62h0ZM66.62,98A1.88,1.88,0,0,1,68,95.77h0a1.88,1.88,0,0,1,2.26,1.38h0a1.87,1.87,0,0,1-1.36,2.27h0a1.61,1.61,0,0,1-.44.06h0A1.88,1.88,0,0,1,66.62,98Zm-20.94.29a1.88,1.88,0,0,1-1.16-2.39h0a1.88,1.88,0,0,1,2.39-1.16h0a1.88,1.88,0,0,1,1.16,2.39h0A1.87,1.87,0,0,1,46.3,98.4h0a1.85,1.85,0,0,1-.62-.07Zm28.13-2.4a1.89,1.89,0,0,1,.93-2.49h0a1.89,1.89,0,0,1,2.49.93h0a1.9,1.9,0,0,1-.93,2.49h0a1.92,1.92,0,0,1-.78.17h0a1.9,1.9,0,0,1-1.71-1.06ZM38.55,95a1.88,1.88,0,0,1-.69-2.57h0a1.88,1.88,0,0,1,2.57-.69h0a1.89,1.89,0,0,1,.69,2.57h0a1.89,1.89,0,0,1-1.63.94h0a1.91,1.91,0,0,1-.94-.21Zm41.91-2.59a1.88,1.88,0,0,1,.44-2.62h0a1.87,1.87,0,0,1,2.61.43h0a1.87,1.87,0,0,1-.43,2.61h0a1.9,1.9,0,0,1-1.08.35h0a1.91,1.91,0,0,1-1.54-.75Zm-48.3-2A1.89,1.89,0,0,1,32,87.88h0a1.88,1.88,0,0,1,2.64-.2h0a1.88,1.88,0,0,1,.2,2.64h0a1.88,1.88,0,0,1-1.42.65h0a1.88,1.88,0,0,1-1.26-.46Zm54.19-2.68a1.87,1.87,0,0,1-.07-2.64h0a1.88,1.88,0,0,1,2.65-.07h0a1.89,1.89,0,0,1,.13,2.67l-.07.07h0a1.88,1.88,0,0,1-1.36.58h0a1.88,1.88,0,0,1-1.29-.52Zm-59.6-3h0A1.88,1.88,0,0,1,27,82.14h0a1.89,1.89,0,0,1,2.64.31h0a1.89,1.89,0,0,1-.31,2.64h0a1.91,1.91,0,0,1-1.17.41h0a1.87,1.87,0,0,1-1.47-.63ZM91.26,82.1a1.87,1.87,0,0,1-.58-2.58h0a1.88,1.88,0,0,1,2.6-.57h0a1.89,1.89,0,0,1,.56,2.6h0a1.87,1.87,0,0,1-1.58.86h0a1.86,1.86,0,0,1-1-.21ZM22.5,78.27a1.86,1.86,0,0,1,.79-2.52h0a1.87,1.87,0,0,1,2.52.79v0h0A1.86,1.86,0,0,1,25,79.07h0a1.85,1.85,0,0,1-.86.21h0A1.87,1.87,0,0,1,22.5,78.27ZM95,75.71a1.88,1.88,0,0,1-1-2.44h0a1.87,1.87,0,0,1,2.44-1h0a1.87,1.87,0,0,1,1,2.44h0a1.87,1.87,0,0,1-1.74,1.18h0A1.91,1.91,0,0,1,95,75.71ZM19.57,71a1.88,1.88,0,0,1,1.28-2.33h0a1.87,1.87,0,0,1,2.33,1.26h0a1.88,1.88,0,0,1-1.27,2.33h0a1.89,1.89,0,0,1-.53.08h0A1.89,1.89,0,0,1,19.57,71Zm77.89-2.37A1.87,1.87,0,0,1,96,66.43h0a1.87,1.87,0,0,1,2.18-1.49h0a1.86,1.86,0,0,1,1.49,2.18v0h0a1.89,1.89,0,0,1-1.85,1.52h0ZM18.09,63.3a1.88,1.88,0,0,1,1.69-2h0a1.88,1.88,0,0,1,2,1.69h0a1.88,1.88,0,0,1-1.69,2H20A1.88,1.88,0,0,1,18.09,63.3Zm78.55-4v0h0a1.86,1.86,0,0,1,1.84-1.88h0a1.89,1.89,0,0,1,1.88,1.87h0v.06h0a1.89,1.89,0,0,1-1.88,1.87h0a1.87,1.87,0,0,1-1.87-1.83ZM19.78,57.51a1.86,1.86,0,0,1-1.7-2h0a1.87,1.87,0,0,1,2-1.7h0a1.87,1.87,0,0,1,1.69,2h0A1.89,1.89,0,0,1,20,57.52h-.22ZM96,52.16A1.87,1.87,0,0,1,97.44,50h0a1.88,1.88,0,0,1,2.2,1.47h0a1.88,1.88,0,0,1-1.47,2.2h-.38A1.87,1.87,0,0,1,96,52.16ZM20.82,50.09a1.88,1.88,0,0,1-1.27-2.33h0a1.88,1.88,0,0,1,2.33-1.27h0a1.86,1.86,0,0,1,1.28,2.3v0h0a1.86,1.86,0,0,1-1.8,1.36h0A1.89,1.89,0,0,1,20.82,50.09Zm73.11-4.76a1.87,1.87,0,0,1,1-2.45h0a1.9,1.9,0,0,1,2.45,1h0a1.9,1.9,0,0,1-1,2.45h0a1.85,1.85,0,0,1-.7.13h0A1.88,1.88,0,0,1,93.93,45.33ZM23.27,43a1.86,1.86,0,0,1-.82-2.51v0h0A1.87,1.87,0,0,1,25,39.66h0a1.89,1.89,0,0,1,.81,2.53h0a1.88,1.88,0,0,1-1.68,1h0A1.84,1.84,0,0,1,23.27,43Zm67.38-4h0a1.88,1.88,0,0,1,.55-2.59h0a1.85,1.85,0,0,1,2.57.56l0,0h0a1.87,1.87,0,0,1-.53,2.59h0a1.86,1.86,0,0,1-1,.3h0A1.88,1.88,0,0,1,90.65,39ZM27,36.52a1.88,1.88,0,0,1-.32-2.64h0a1.89,1.89,0,0,1,2.64-.31h0a1.88,1.88,0,0,1,.32,2.63h0a1.9,1.9,0,0,1-1.48.72h0A1.88,1.88,0,0,1,27,36.52Zm59.22-3.11a1.87,1.87,0,0,1,0-2.64h0a1.88,1.88,0,0,1,2.65,0h0a1.89,1.89,0,0,1,0,2.66h0a1.91,1.91,0,0,1-1.3.52h0a1.83,1.83,0,0,1-1.4-.53ZM31.91,30.85a1.88,1.88,0,0,1,.18-2.65h0a1.87,1.87,0,0,1,2.64.18h0A1.89,1.89,0,0,1,34.56,31h0a1.86,1.86,0,0,1-1.23.46h0A1.86,1.86,0,0,1,31.91,30.85Zm48.92-2.1a1.88,1.88,0,0,1-.44-2.62h0A1.88,1.88,0,0,1,83,25.69h0a1.87,1.87,0,0,1,.45,2.61h0a1.86,1.86,0,0,1-1.53.79h0A1.81,1.81,0,0,1,80.83,28.75Zm-43-2.54a1.87,1.87,0,0,1,.66-2.56h0a1.88,1.88,0,0,1,2.57.68h0a1.88,1.88,0,0,1-.69,2.57h0a1.85,1.85,0,0,1-.94.26h0a1.89,1.89,0,0,1-1.66-.94Zm36.87-1a1.9,1.9,0,0,1-.93-2.49h0a1.87,1.87,0,0,1,2.47-.94h0a1.89,1.89,0,0,1,.93,2.49h0a1.88,1.88,0,0,1-1.71,1.1h0a2,2,0,0,1-.82-.18ZM44.44,22.76a1.88,1.88,0,0,1,1.14-2.39h0A1.87,1.87,0,0,1,48,21.51v0h0a1.88,1.88,0,0,1-1.14,2.39h0a1.87,1.87,0,0,1-.62.1h0A1.87,1.87,0,0,1,44.44,22.76Zm23.48.12h0a1.89,1.89,0,0,1-1.4-2.27h0a1.88,1.88,0,0,1,2.27-1.38h0a1.86,1.86,0,0,1,1.39,2.25h0a1.89,1.89,0,0,1-1.83,1.44h0A2.1,2.1,0,0,1,67.92,22.88Zm-16.3-2.24a1.88,1.88,0,0,1,1.59-2.13h0a1.89,1.89,0,0,1,2.13,1.6h0a1.87,1.87,0,0,1-1.58,2.12h-.28A1.87,1.87,0,0,1,51.62,20.64Zm9.25,1.25h0a1.88,1.88,0,0,1-1.79-2v0h0A1.87,1.87,0,0,1,61,18.09h.07a1.88,1.88,0,0,1,1.79,2v0h0A1.89,1.89,0,0,1,61,21.89h-.13Z" transform="translate(0.02 0)"/><path d="M59.17,106.63a2.25,2.25,0,0,1,2.13-2.36h0a2.25,2.25,0,0,1,2.36,2.13h0a2.25,2.25,0,0,1-2.13,2.36h-.12A2.25,2.25,0,0,1,59.17,106.63Zm-7,1.71a2.25,2.25,0,0,1-1.92-2.54h0a2.27,2.27,0,0,1,2.55-1.92h0a2.27,2.27,0,0,1,1.92,2.55h0a2.26,2.26,0,0,1-2.23,1.94h0Zm16-2.56a2.26,2.26,0,0,1,1.65-2.72h0a2.26,2.26,0,0,1,2.72,1.65h0a2.26,2.26,0,0,1-1.65,2.72h0a2.33,2.33,0,0,1-.53.06h0a2.24,2.24,0,0,1-2.24-1.72ZM43,106.13a2.25,2.25,0,0,1-1.4-2.86h0a2.26,2.26,0,0,1,2.87-1.4h0a2.26,2.26,0,0,1,1.4,2.87h0a2.25,2.25,0,0,1-2.14,1.51h0A2.24,2.24,0,0,1,43,106.13Zm33.75-2.88a2.26,2.26,0,0,1,1.11-3h0a2.24,2.24,0,0,1,3,1.09v0h0a2.26,2.26,0,0,1-1.11,3h0a2.19,2.19,0,0,1-.94.21h0a2.25,2.25,0,0,1-2.07-1.32Zm-42.31-1a2.27,2.27,0,0,1-.83-3.09h0a2.27,2.27,0,0,1,3.08-.82h0a2.26,2.26,0,0,1,.83,3.08h0a2.28,2.28,0,0,1-2,1.13h0a2.23,2.23,0,0,1-1.09-.32Zm50.3-3.11A2.24,2.24,0,0,1,85.25,96h0a2.27,2.27,0,0,1,3.15.52h0a2.26,2.26,0,0,1-.53,3.15h0a2.27,2.27,0,0,1-1.31.42h0a2.23,2.23,0,0,1-1.83-1Zm-58-2.35a2.26,2.26,0,0,1-.23-3.18h0a2.26,2.26,0,0,1,3.19-.23h0a2.25,2.25,0,0,1,.23,3.17h0a2.27,2.27,0,0,1-1.7.78h0a2.24,2.24,0,0,1-1.46-.57Zm65-3.21a2.27,2.27,0,0,1-.08-3.19h0a2.26,2.26,0,0,1,3.19-.08h0A2.25,2.25,0,0,1,95,93.48h0a2.26,2.26,0,0,1-1.64.7h0a2.29,2.29,0,0,1-1.57-.62ZM20.27,90a2.26,2.26,0,0,1,.37-3.17h0a2.27,2.27,0,0,1,3.17.37h0a2.26,2.26,0,0,1-.38,3.17h0a2.25,2.25,0,0,1-1.39.48h0A2.26,2.26,0,0,1,20.27,90Zm77.41-3.21a2.24,2.24,0,0,1-.7-3.1l0,0h0a2.26,2.26,0,0,1,3.12-.68h0a2.25,2.25,0,0,1,.68,3.11h0a2.24,2.24,0,0,1-1.89,1h0a2.2,2.2,0,0,1-1.22-.33Zm-82.51-4.7a2.25,2.25,0,0,1,1-3h0a2.25,2.25,0,0,1,3,1h0a2.26,2.26,0,0,1-1,3h0a2.31,2.31,0,0,1-1,.25h0a2.23,2.23,0,0,1-2-1.28Zm87-3.08a2.25,2.25,0,0,1-1.26-2.91v0h0a2.26,2.26,0,0,1,2.93-1.25h0a2.26,2.26,0,0,1,1.25,2.93h0a2.25,2.25,0,0,1-2.1,1.38h0a2.28,2.28,0,0,1-.82-.14ZM11.66,73.33a2.26,2.26,0,0,1,1.52-2.8h0A2.24,2.24,0,0,1,16,72v0h0a2.26,2.26,0,0,1-1.51,2.8h0a2.3,2.3,0,0,1-.64.09h0A2.24,2.24,0,0,1,11.66,73.33Zm93.46-2.84a2.27,2.27,0,0,1-1.79-2.64h0a2.25,2.25,0,0,1,2.62-1.8h0a2.27,2.27,0,0,1,1.79,2.64h0a2.27,2.27,0,0,1-2.22,1.83h0A2.28,2.28,0,0,1,105.12,70.49ZM9.88,64.09a2.25,2.25,0,0,1,2-2.46h0a2.25,2.25,0,0,1,2.46,2h0a2.25,2.25,0,0,1-2,2.46h-.22A2.25,2.25,0,0,1,9.88,64.09Zm94.25-4.75v-.06h0A2.26,2.26,0,0,1,106.37,57h0a2.24,2.24,0,0,1,2.26,2.22v0h0v0h0v.06h0a2.25,2.25,0,0,1-2.25,2.25h0a2.26,2.26,0,0,1-2.26-2.26ZM11.9,57.14a2.24,2.24,0,0,1-2-2.45h0a2.25,2.25,0,0,1,2.45-2h0a2.27,2.27,0,0,1,2,2.46h0a2.25,2.25,0,0,1-2.24,2H11.9Zm91.41-6.42h0a2.25,2.25,0,0,1,1.78-2.64h0a2.26,2.26,0,0,1,2.65,1.78h0A2.27,2.27,0,0,1,106,52.51h0a3.09,3.09,0,0,1-.43,0h0A2.25,2.25,0,0,1,103.31,50.72ZM13.16,48.24a2.24,2.24,0,0,1-1.54-2.77v0h0a2.26,2.26,0,0,1,2.79-1.54h0A2.26,2.26,0,0,1,16,46.7h0a2.26,2.26,0,0,1-2.17,1.62h0A2.52,2.52,0,0,1,13.16,48.24Zm87.73-5.71a2.25,2.25,0,0,1,1.23-2.93h0a2.26,2.26,0,0,1,2.93,1.25h0a2.27,2.27,0,0,1-1.25,2.94h0a2.2,2.2,0,0,1-.84.16h0A2.26,2.26,0,0,1,100.89,42.53Zm-84.8-2.79a2.24,2.24,0,0,1-1-3h0a2.24,2.24,0,0,1,3-1h0a2.26,2.26,0,0,1,1,3h0a2.26,2.26,0,0,1-2,1.22h0A2.15,2.15,0,0,1,16.09,39.74ZM97,34.94a2.24,2.24,0,0,1,.66-3.11h0a2.27,2.27,0,0,1,3.12.67h0a2.27,2.27,0,0,1-.67,3.12h0a2.32,2.32,0,0,1-1.23.36h0A2.27,2.27,0,0,1,97,34.94ZM20.58,32a2.26,2.26,0,0,1-.38-3.17h0a2.26,2.26,0,0,1,3.17-.38h0a2.28,2.28,0,0,1,.38,3.17h0a2.29,2.29,0,0,1-1.78.86h0A2.27,2.27,0,0,1,20.58,32Zm71.07-3.73a2.27,2.27,0,0,1,0-3.2l.08-.07h0a2.26,2.26,0,0,1,3.19.07h0a2.26,2.26,0,0,1-.07,3.19h0a2.22,2.22,0,0,1-1.56.62h0a2.23,2.23,0,0,1-1.62-.65ZM26.46,25.16A2.26,2.26,0,0,1,26.68,22h0a2.26,2.26,0,0,1,3.18.23h0a2.25,2.25,0,0,1-.21,3.17h0a2.24,2.24,0,0,1-1.48.55h0A2.26,2.26,0,0,1,26.46,25.16Zm58.71-2.52a2.27,2.27,0,0,1-.53-3.15h0A2.26,2.26,0,0,1,87.78,19h0a2.26,2.26,0,0,1,.54,3.15h0a2.27,2.27,0,0,1-1.84.94h0A2.3,2.3,0,0,1,85.17,22.64ZM33.51,19.58a2.27,2.27,0,0,1,.82-3.08h0a2.26,2.26,0,0,1,3.08.81h0a2.25,2.25,0,0,1-.81,3.08h0a2.23,2.23,0,0,1-1.13.31h0A2.27,2.27,0,0,1,33.51,19.58Zm44.25-1.21a2.26,2.26,0,0,1-1.12-3v0h0a2.25,2.25,0,0,1,3-1.13l0,0h0a2.25,2.25,0,0,1,1.12,3h0a2.25,2.25,0,0,1-2.06,1.32h0A2.23,2.23,0,0,1,77.76,18.37ZM41.49,15.45a2.27,2.27,0,0,1,1.39-2.87h0A2.25,2.25,0,0,1,45.74,14v0h0a2.23,2.23,0,0,1-1.37,2.85h0a2.1,2.1,0,0,1-.74.13h0A2.26,2.26,0,0,1,41.49,15.45Zm28.19.14A2.26,2.26,0,0,1,68,12.87h0a2.26,2.26,0,0,1,2.72-1.67h0a2.26,2.26,0,0,1,1.67,2.72h0a2.26,2.26,0,0,1-2.19,1.73h0A2.24,2.24,0,0,1,69.68,15.59ZM50.12,12.9A2.25,2.25,0,0,1,52,10.35h0a2.25,2.25,0,0,1,2.55,1.9h0a2.25,2.25,0,0,1-1.9,2.55h-.34A2.25,2.25,0,0,1,50.12,12.9Zm11.09,1.5A2.26,2.26,0,0,1,59.06,12v0h0a2.26,2.26,0,0,1,2.36-2.15h0a2.26,2.26,0,0,1,2.15,2.36h0a2.25,2.25,0,0,1-2.25,2.15h-.11Z" transform="translate(0.02 0)"/><path d="M59.17,116.09a2.71,2.71,0,0,1,2.58-2.83h0a2.7,2.7,0,0,1,2.83,2.56h0A2.7,2.7,0,0,1,62,118.66h-.16A2.69,2.69,0,0,1,59.17,116.09Zm-8.44,2a2.68,2.68,0,0,1-2.29-3v0h0a2.69,2.69,0,0,1,3-2.3h0a2.71,2.71,0,0,1,2.3,3.06h0a2.7,2.7,0,0,1-2.67,2.32h0a2.56,2.56,0,0,1-.39,0ZM69.91,115a2.71,2.71,0,0,1,2-3.27h0a2.71,2.71,0,0,1,3.27,2v0h0a2.7,2.7,0,0,1-2,3.26h0a2.74,2.74,0,0,1-.64.08h0a2.72,2.72,0,0,1-2.63-2Zm-30.15.42A2.72,2.72,0,0,1,38.08,112h0a2.69,2.69,0,0,1,3.43-1.67h0a2.7,2.7,0,0,1,1.68,3.43h0a2.71,2.71,0,0,1-2.56,1.82h0a2.62,2.62,0,0,1-.88-.1ZM80.26,112a2.72,2.72,0,0,1,1.34-3.59h0a2.7,2.7,0,0,1,3.58,1.33h0a2.7,2.7,0,0,1-1.33,3.58h0a2.74,2.74,0,0,1-1.13.25h0A2.71,2.71,0,0,1,80.26,112Zm-50.78-1.2a2.71,2.71,0,0,1-1-3.69h0a2.69,2.69,0,0,1,3.68-1h0a2.7,2.7,0,0,1,1,3.68h0a2.68,2.68,0,0,1-2.34,1.35h0A2.58,2.58,0,0,1,29.48,110.8Zm60.36-3.72a2.71,2.71,0,0,1,.63-3.77h0a2.71,2.71,0,0,1,3.78.62h0a2.73,2.73,0,0,1-.63,3.78h0a2.69,2.69,0,0,1-1.57.5h0A2.72,2.72,0,0,1,89.84,107.08Zm-69.55-2.82a2.72,2.72,0,0,1-.28-3.82h0a2.72,2.72,0,0,1,3.82-.28h0a2.72,2.72,0,0,1,.29,3.82l0,0h0a2.69,2.69,0,0,1-2,.93h0A2.67,2.67,0,0,1,20.29,104.26Zm78-3.86a2.7,2.7,0,0,1-.09-3.82h0a2.7,2.7,0,0,1,3.82-.09h0a2.7,2.7,0,0,1,.09,3.82h0a2.69,2.69,0,0,1-2,.84h0a2.71,2.71,0,0,1-1.79-.75Zm-85.8-4.31a2.71,2.71,0,0,1,.45-3.8h0a2.71,2.71,0,0,1,3.8.45h0a2.69,2.69,0,0,1-.44,3.79h0a2.73,2.73,0,0,1-1.67.58h0A2.71,2.71,0,0,1,12.49,96.09Zm92.9-3.84a2.71,2.71,0,0,1-.82-3.74h0a2.7,2.7,0,0,1,3.73-.82h0a2.7,2.7,0,0,1,.82,3.73h0a2.71,2.71,0,0,1-2.27,1.24h0A2.71,2.71,0,0,1,105.39,92.25Zm-99-5.64h0A2.7,2.7,0,0,1,7.53,83h0a2.69,2.69,0,0,1,3.64,1.15h0A2.7,2.7,0,0,1,10,87.76h0a2.68,2.68,0,0,1-1.24.31h0a2.71,2.71,0,0,1-2.39-1.46Zm104.42-3.7a2.7,2.7,0,0,1-1.51-3.51h0a2.7,2.7,0,0,1,3.5-1.52h0a2.7,2.7,0,0,1,1.5,3.51h0a2.69,2.69,0,0,1-2.51,1.7h0a2.73,2.73,0,0,1-1-.2ZM2.16,76.13A2.7,2.7,0,0,1,4,72.77H4A2.71,2.71,0,0,1,7.35,74.6h0A2.7,2.7,0,0,1,5.58,78l-.06,0h0a2.79,2.79,0,0,1-.76.11h0A2.71,2.71,0,0,1,2.16,76.13Zm112.15-3.41a2.7,2.7,0,0,1-2.15-3.14v0h0a2.71,2.71,0,0,1,3.16-2.15h0a2.71,2.71,0,0,1,2.15,3.17h0a2.7,2.7,0,0,1-2.66,2.2h0A2.94,2.94,0,0,1,114.31,72.72ZM0,65a2.69,2.69,0,0,1,2.39-3h0a2.69,2.69,0,0,1,3,2.39v0h0a2.7,2.7,0,0,1-2.37,3H2.71A2.71,2.71,0,0,1,0,65Zm113.11-5.7h0v-.06h0v-.07h0a2.72,2.72,0,0,1,2.7-2.71h0a2.72,2.72,0,0,1,2.71,2.7h0v.07h0v.07h0a2.7,2.7,0,0,1-2.7,2.7h0a2.7,2.7,0,0,1-2.68-2.66ZM2.46,56.71A2.71,2.71,0,0,1,0,53.77v-.06H0a2.72,2.72,0,0,1,3-2.45H3a2.71,2.71,0,0,1,2.4,3h0a2.7,2.7,0,0,1-2.69,2.46H2.46ZM112.14,49h0a2.71,2.71,0,0,1,2.14-3.17h0A2.69,2.69,0,0,1,117.44,48v0h0a2.68,2.68,0,0,1-2.11,3.16h0a2.26,2.26,0,0,1-.52,0h0A2.71,2.71,0,0,1,112.14,49ZM4,46a2.7,2.7,0,0,1-1.84-3.36h0A2.72,2.72,0,0,1,5.52,40.8h0a2.7,2.7,0,0,1,1.84,3.36h0a2.72,2.72,0,0,1-2.6,2h0A2.86,2.86,0,0,1,4,46Zm105.28-6.87a2.71,2.71,0,0,1,1.49-3.52h0a2.71,2.71,0,0,1,3.53,1.5h0a2.72,2.72,0,0,1-1.5,3.52h0a2.66,2.66,0,0,1-1,.2h0a2.7,2.7,0,0,1-2.56-1.67ZM7.48,35.83a2.72,2.72,0,0,1-1.17-3.65h0A2.7,2.7,0,0,1,9.93,31L10,31h0a2.7,2.7,0,0,1,1.18,3.62v0h0a2.73,2.73,0,0,1-2.41,1.47h0A2.72,2.72,0,0,1,7.48,35.83Zm97-5.77a2.71,2.71,0,0,1,.8-3.74h0a2.71,2.71,0,0,1,3.74.8h0a2.68,2.68,0,0,1-.78,3.72l0,0h0a2.67,2.67,0,0,1-1.47.44h0a2.7,2.7,0,0,1-2.24-1.24ZM12.87,26.48a2.69,2.69,0,0,1-.47-3.79h0a2.7,2.7,0,0,1,3.79-.46h0A2.7,2.7,0,0,1,16.67,26h0a2.71,2.71,0,0,1-2.13,1h0A2.63,2.63,0,0,1,12.87,26.48ZM98.15,22a2.69,2.69,0,0,1,.07-3.82h0a2.7,2.7,0,0,1,3.82.09h0a2.7,2.7,0,0,1-.06,3.8l0,0h0a2.7,2.7,0,0,1-1.87.75h0A2.7,2.7,0,0,1,98.15,22ZM19.92,18.32a2.71,2.71,0,0,1,.27-3.82h0a2.71,2.71,0,0,1,3.82.27h0a2.71,2.71,0,0,1-.27,3.82h0a2.68,2.68,0,0,1-1.77.66h0A2.72,2.72,0,0,1,19.92,18.32Zm70.46-3a2.69,2.69,0,0,1-.64-3.76h0a2.69,2.69,0,0,1,3.76-.64h0a2.69,2.69,0,0,1,.64,3.76h0a2.7,2.7,0,0,1-2.21,1.14h0a2.73,2.73,0,0,1-1.56-.52Zm-62-3.67a2.71,2.71,0,0,1,1-3.7h0a2.71,2.71,0,0,1,3.7,1h0a2.71,2.71,0,0,1-1,3.7h0a2.82,2.82,0,0,1-1.36.36h0a2.68,2.68,0,0,1-2.33-1.38Zm53.1-1.45h0a2.72,2.72,0,0,1-1.35-3.59h0a2.71,2.71,0,0,1,3.59-1.34h0a2.69,2.69,0,0,1,1.34,3.57h0a2.71,2.71,0,0,1-2.47,1.59h0a2.77,2.77,0,0,1-1.1-.26ZM38,6.67a2.72,2.72,0,0,1,1.67-3.45h0a2.72,2.72,0,0,1,3.45,1.67h0a2.7,2.7,0,0,1-1.66,3.44h0a2.46,2.46,0,0,1-.89.16h0A2.73,2.73,0,0,1,38,6.67Zm33.83.17a2.7,2.7,0,0,1-2-3.25h0a2.69,2.69,0,0,1,3.23-2h0a2.71,2.71,0,0,1,2,3.26h0a2.71,2.71,0,0,1-2.63,2.07h0a3,3,0,0,1-.67-.07ZM48.31,3.62A2.71,2.71,0,0,1,50.6.55h0a2.72,2.72,0,0,1,3.07,2.3h0a2.71,2.71,0,0,1-2.3,3.06H51A2.71,2.71,0,0,1,48.31,3.62ZM61.63,5.41A2.69,2.69,0,0,1,59.05,2.6v0h0A2.7,2.7,0,0,1,61.86,0h0a2.71,2.71,0,0,1,2.58,2.83h0a2.7,2.7,0,0,1-2.7,2.58Z" transform="translate(0.02 0)"/></g></svg>