<svg id="bf426d4d-0375-4ae8-a416-533e38fd74c7" data-name="Layer 1" xmlns="http://www.w3.org/2000/svg" viewBox="0 0 137.74 139.15"><title>16u</title><g id="b3e021eb-87ec-433c-84e3-6bb915877dc2" data-name="shapes"><path d="M68.87,111.52a2.69,2.69,0,0,0,4.67,0,2.69,2.69,0,0,0,3.79.07,2.62,2.62,0,0,0,.62-.92,2.61,2.61,0,0,0,4.24-1.4,2.46,2.46,0,0,0,4-1.92,2.29,2.29,0,0,0,3.74-1.78.49.49,0,0,0,0-.17,2.44,2.44,0,0,0,3.4-.56,2.49,2.49,0,0,0,.46-1.44v-.32a2.47,2.47,0,0,0,1.07.25,2.44,2.44,0,0,0,2.44-2.44h0a2.72,2.72,0,0,0,0-.49,2.39,2.39,0,0,0,.83.15,2.5,2.5,0,0,0,2.49-2.5,2.54,2.54,0,0,0-.13-.77,2.51,2.51,0,0,0,.55.07,2.44,2.44,0,0,0,2.4-2.35,2.47,2.47,0,0,0-.22-1,2.29,2.29,0,0,0,.37,0A2.44,2.44,0,0,0,106,91.58v0a2.39,2.39,0,0,0-.43-1.37h.23a2.3,2.3,0,0,0,2.3-2.3,2.35,2.35,0,0,0-.48-1.4h0a2.46,2.46,0,0,0,2-3.94A2.6,2.6,0,0,0,110.8,78a2.27,2.27,0,0,0,.46-4.17,2.3,2.3,0,0,0,.47-4.35,2.3,2.3,0,0,0,0-4.37,2.3,2.3,0,0,0-.52-4.36,2.25,2.25,0,0,0,.94-3,2.23,2.23,0,0,0-1.46-1.13,2.53,2.53,0,0,0-1.21-4.48,2.38,2.38,0,0,0-1.84-3.92h-.24a2.19,2.19,0,0,0-.11-3.09,2.24,2.24,0,0,0-2-.53,2.25,2.25,0,0,0,.58-1.52,2.3,2.3,0,0,0-2.3-2.3h0a2.31,2.31,0,0,0-.64.1,2.31,2.31,0,0,0-2.82-3.36,2.29,2.29,0,0,0,.23-1A2.32,2.32,0,0,0,98,34.17a2.38,2.38,0,0,0-1.13.29,2.18,2.18,0,0,0,.15-.8,2.24,2.24,0,0,0-3.6-1.78,2.28,2.28,0,0,0,.12-.73,2.22,2.22,0,0,0-2.22-2.24,2.14,2.14,0,0,0-1.29.4V29a2.46,2.46,0,0,0-2.52-2.4,2.51,2.51,0,0,0-1.51.57,2.27,2.27,0,0,0-2.28-2.26,2.25,2.25,0,0,0-1.72.8,2.4,2.4,0,0,0-4.19-1.42,2.47,2.47,0,0,0-3-1.76,2.44,2.44,0,0,0-1.36.92,2.46,2.46,0,0,0-3.21-1.35,2.42,2.42,0,0,0-1.16,1,2.5,2.5,0,0,0-3.39-1,2.57,2.57,0,0,0-1,1.09,2.46,2.46,0,0,0-4.36.62A2.43,2.43,0,0,0,56,25a2.32,2.32,0,0,0-4,1.51.61.61,0,0,0,0,.19,2.16,2.16,0,0,0-3-.31,2.19,2.19,0,0,0-.8,1.69v.27a2.37,2.37,0,0,0-4,1.69v.32A2.29,2.29,0,0,0,42.88,30a2.36,2.36,0,0,0-2.36,2.36h0a1.62,1.62,0,0,0,0,.44,2.61,2.61,0,0,0-1-.23A2.46,2.46,0,0,0,37.07,35a2.43,2.43,0,0,0,.2,1,2.18,2.18,0,0,0-2.84,1.17A2.21,2.21,0,0,0,34.51,39a2.46,2.46,0,0,0-3,3.52h-.27A2.37,2.37,0,0,0,29,44.93a2.32,2.32,0,0,0,.33,1.17h0a2.56,2.56,0,0,0-1.84,4.35,2.17,2.17,0,0,0-1.08,3.93h0A2.33,2.33,0,0,0,24,56.72a2.3,2.3,0,0,0,.9,1.83,2.43,2.43,0,0,0-1.85,2.9A2.47,2.47,0,0,0,24,62.86a2.5,2.5,0,0,0-1.31,3.27,2.55,2.55,0,0,0,1,1.16,2.5,2.5,0,0,0-.85,3.43,2.57,2.57,0,0,0,1.14,1,2.46,2.46,0,0,0,.77,4.35,2.39,2.39,0,0,0,1.32,4.22,2.26,2.26,0,0,0,1.11,3.95,2.66,2.66,0,0,0,1.89,4.36,2.46,2.46,0,0,0,2.19,3.58h.07a2.54,2.54,0,0,0-.24,1.08,2.61,2.61,0,0,0,2.61,2.59,2.48,2.48,0,0,0,.54-.06,2.43,2.43,0,0,0-.13.76,2.32,2.32,0,0,0,2.32,2.32h0A2.79,2.79,0,0,0,37,98.8a2.33,2.33,0,0,0-.11.74,2.59,2.59,0,0,0,2.59,2.61h0a2.63,2.63,0,0,0,.83-.14v.21a2.53,2.53,0,0,0,2.53,2.53,2.46,2.46,0,0,0,1.07-.24h0a2.52,2.52,0,0,0,4,2.09,2.4,2.4,0,0,0,3.87,1.75A2.53,2.53,0,0,0,55.9,110a2.66,2.66,0,0,0,1.44,1.62,2.22,2.22,0,0,0-2,1.26v-.16a2.12,2.12,0,1,0-.22,1v.19a2.24,2.24,0,0,0,4.19,1.1,2.3,2.3,0,0,0,4.57-.33,2.33,2.33,0,0,0-1.15-2,2.71,2.71,0,0,0,2.19-1.25,2.33,2.33,0,0,0,4,.14Zm34.61-23.65a2.31,2.31,0,0,0,.37,1.25,1.61,1.61,0,0,0-.31,0,2.41,2.41,0,0,0-1.17.31,2.66,2.66,0,0,0,.67-1.76,2.48,2.48,0,0,0-.18-.93,2.85,2.85,0,0,0,2.37-2.19,2.49,2.49,0,0,0,.51,1.06A2.3,2.3,0,0,0,103.48,87.87Zm.37-18a3.71,3.71,0,0,0-.23-.32,3.94,3.94,0,0,0,.49-.59,2.73,2.73,0,0,0,.33.35,3.3,3.3,0,0,0-.59.59Zm.16,3.54a2.62,2.62,0,0,0-.94.84.57.57,0,0,1-.08-.13,3.35,3.35,0,0,0,.86-.9c.05.09.15.16.15.22Zm.1-7.84a3.75,3.75,0,0,0-.51-.61,2.71,2.71,0,0,0,.24-.35,2.88,2.88,0,0,0,.62.59,2.23,2.23,0,0,0-.35.4Zm-.27-4.21a3.08,3.08,0,0,0-.9-1l.12-.2a2.63,2.63,0,0,0,1,.9Zm1.42,22a2.78,2.78,0,0,0-.19-.64,3.13,3.13,0,0,0,.71-.35,2.42,2.42,0,0,0-.52,1Zm1-1.45a3.17,3.17,0,0,0,.5-.75,3.07,3.07,0,0,0,.28.42,2.42,2.42,0,0,0-.74.36Zm.53-3.22a2.9,2.9,0,0,0-.31-.54,2.63,2.63,0,0,0,1.41-2,2.3,2.3,0,0,0,.64,1.22,2.6,2.6,0,0,0-1.7,1.35Zm1.11-3.3a2.69,2.69,0,0,0-.68-1.43,2.72,2.72,0,0,0,1.37-1.69,2.28,2.28,0,0,0,1.08,1.3,2.26,2.26,0,0,0-1.73,1.85Zm.69-4.56a2.7,2.7,0,0,0-.83-1.33A2.8,2.8,0,0,0,108.82,68a2.29,2.29,0,0,0,1.23,1.34,2.29,2.29,0,0,0-1.42,1.49Zm.23-4.33a2.78,2.78,0,0,0-1-1.5,2.8,2.8,0,0,0,.83-1.35,2.29,2.29,0,0,0,1.48,1.5,2.33,2.33,0,0,0-1.23,1.38Zm.89-5.56a2.28,2.28,0,0,0-1.14,1.37,2.76,2.76,0,0,0-1.39-1.74,2.66,2.66,0,0,0,.71-1.69A2.25,2.25,0,0,0,109.75,61Zm-1.08-3.86a2.24,2.24,0,0,0-.74,1.54,2.64,2.64,0,0,0-1.49-2.25,2.64,2.64,0,0,0,.38-.7,2.56,2.56,0,0,0,1.89,1.44ZM101,41.94a2.38,2.38,0,0,0,.65-.1,2.3,2.3,0,0,0,.73,3.17,2.23,2.23,0,0,0,1.79.27,2.2,2.2,0,0,0,1.66,3.64H106a2.4,2.4,0,0,0,.1,3.39,2.44,2.44,0,0,0,1.18.61,2.63,2.63,0,0,0-.41.63,3,3,0,0,0-1.85-1.7,2.81,2.81,0,0,0,.26-1.17A2.75,2.75,0,0,0,102.7,48a2.46,2.46,0,0,0,.21-1,2.52,2.52,0,0,0-2.32-2.52,3.09,3.09,0,0,0,.17-1,2.84,2.84,0,0,0-.5-1.62A2.31,2.31,0,0,0,101,41.94Zm-.3,49.2a3.07,3.07,0,0,0-.13-.85,2.68,2.68,0,0,0,1.17-.34,2.42,2.42,0,0,0-.36,2.58,2.41,2.41,0,0,0-.38,0,2.66,2.66,0,0,0-.74.12,2.75,2.75,0,0,0,.39-1.51ZM100,49.45v0ZM98.63,95.68A2.27,2.27,0,0,0,98,95.6a2.33,2.33,0,0,0-.59.08,2.84,2.84,0,0,0,.34-1.34,1.7,1.7,0,0,0,0-.45h.15a2.8,2.8,0,0,0,.95-.17A2.4,2.4,0,0,0,98.52,95,2.61,2.61,0,0,0,98.63,95.68Zm-.75-49.36h.05v.08A.22.22,0,0,0,97.88,46.32ZM98,47.87v0Zm.07-9a2.41,2.41,0,0,0,.84-.16A2.19,2.19,0,0,0,99,40.79a2.8,2.8,0,0,0-1.07-.21h-.28v-.35a2.6,2.6,0,0,0-.59-1.65,2.18,2.18,0,0,0,.94.24ZM95.6,98.63a2.28,2.28,0,0,0-.78-.13,2.46,2.46,0,0,0-.6.07,2.68,2.68,0,0,0,.38-1.38v-.14a3.38,3.38,0,0,0,.45,0,2.87,2.87,0,0,0,.77-.11,2.48,2.48,0,0,0-.26,1.11A3.77,3.77,0,0,0,95.6,98.63ZM95,42.86h.06V43A.34.34,0,0,0,95,42.86Zm-.21-7a2.2,2.2,0,0,0,1.06-.27,2.3,2.3,0,0,0,.33,2.3A2.66,2.66,0,0,0,95,37.65a2.72,2.72,0,0,0-.63.08V37.4a2.58,2.58,0,0,0-.73-1.8,2.23,2.23,0,0,0,1.18.3Zm-2.41,65.35a2.47,2.47,0,0,0-1.07-.25H91a3.11,3.11,0,0,0,.3-1.12,2,2,0,0,0,.49,0,2.79,2.79,0,0,0,.81-.12,2.47,2.47,0,0,0-.26,1.1,1.58,1.58,0,0,0,0,.43Zm.09-60.41H92a3.28,3.28,0,0,0-.2-.82h0a2.56,2.56,0,0,0,.62-.07v.34a2.89,2.89,0,0,0,.08.59Zm-.21,53.64H92a2.4,2.4,0,0,0,.12-.53h.14a3.09,3.09,0,0,0,0,.43v.14Zm-1-61.09a2.23,2.23,0,0,0,1.36-.46,2.28,2.28,0,0,0-.12.73,2.22,2.22,0,0,0,.61,1.53,2.57,2.57,0,0,0-1.35-.38,2.52,2.52,0,0,0-.67.09,2.88,2.88,0,0,0-.52-1.61,2.28,2.28,0,0,0,.77.14Zm-2.42,70.29a2.32,2.32,0,0,0-1.3-.4,2.06,2.06,0,0,0-.7.12,2.72,2.72,0,0,0,.41-.88,3.1,3.1,0,0,0,1,.18,2.82,2.82,0,0,0,.71-.09,2.39,2.39,0,0,0-.15.83,2.33,2.33,0,0,0,.11.28Zm0-65.64h-.18l-.06-.25a3.5,3.5,0,0,0,.64-.15,2,2,0,0,0,.07.43A3.71,3.71,0,0,0,88.86,38Zm-1.24-6.5a2.43,2.43,0,0,0,1.49-.5v.18a2.22,2.22,0,0,0,.32,1.15,2.85,2.85,0,0,0-1.08-.21,2.81,2.81,0,0,0-1.14.24,2.62,2.62,0,0,0-.43-1,2.4,2.4,0,0,0,.84.11ZM73.14,108.33Zm1.67-1.27Zm2.45.61a.9.9,0,0,0-.19-.15l.31-.08Zm2.39-1.56a3.18,3.18,0,0,0-.62.07l.18-.32a2.18,2.18,0,0,0,.56.25Zm.74-72.27h0Zm.94,72.89a2.42,2.42,0,0,0-.87-.49h.17a2.85,2.85,0,0,0,1-.18A2.69,2.69,0,0,0,81.33,106.73Zm.25-73.05a3.42,3.42,0,0,0,.43-.21,2.58,2.58,0,0,0,.08.26A2.94,2.94,0,0,0,81.58,33.68Zm3.75,71.81A2.44,2.44,0,0,0,83,105a2.88,2.88,0,0,0,.34-.68,2.87,2.87,0,0,0,1.26.29,2.8,2.8,0,0,0,1.07-.21A2.45,2.45,0,0,0,85.33,105.49Zm-8-79a2.4,2.4,0,0,0,4.12.93,2.25,2.25,0,0,0,2.25,2.06A2.2,2.2,0,0,0,85.16,29h0a2.44,2.44,0,0,0,.41,1.36,2.65,2.65,0,0,0-1-.19,2.57,2.57,0,0,0-1.38.39A2.66,2.66,0,0,0,79.09,29a2.75,2.75,0,0,0-2.58-1.79h-.24a2.45,2.45,0,0,0,1.07-.69Zm-4.15-.66a2.46,2.46,0,0,0,2.28,1.53h.17a2.9,2.9,0,0,0-.88.48,2.89,2.89,0,0,0-2.18-1.42,2.74,2.74,0,0,0,.62-.56ZM29.28,53.91a2.7,2.7,0,0,0,.35,2.27,2.82,2.82,0,0,0-1,.71v-.21a2.32,2.32,0,0,0-1-1.93A2.18,2.18,0,0,0,29.28,53.91Zm-1.36,4.43a3.23,3.23,0,0,0,0,.44,2.81,2.81,0,0,0,.61,1.76,2.72,2.72,0,0,0-.62.5v-.16a2.44,2.44,0,0,0-1-2A2.16,2.16,0,0,0,27.92,58.34Zm-.8,4.31V63a2.87,2.87,0,0,0,.81,2,2.65,2.65,0,0,0-.41.41,1.31,1.31,0,0,0,0-.28,2.5,2.5,0,0,0-1.07-2A2,2,0,0,0,27.12,62.65Zm.4,6.53a3.23,3.23,0,0,0,.37.37,3.16,3.16,0,0,0-.48.67,2.59,2.59,0,0,0,.12-.78A2.26,2.26,0,0,0,27.52,69.18Zm-.65-2.36a3.69,3.69,0,0,0,0,.47,3.53,3.53,0,0,0,0,.46,2.5,2.5,0,0,0-.57-.46A2.34,2.34,0,0,0,26.87,66.82Zm.36,3.81a3.08,3.08,0,0,0-.16,1v.29a2.42,2.42,0,0,0-.6-.4A2.51,2.51,0,0,0,27.23,70.63Zm-.23,5a2.45,2.45,0,0,0,.92-1.91v-.08a2.79,2.79,0,0,0,.54.42,2.84,2.84,0,0,0-.61,1.75,1.41,1.41,0,0,0,0,.29,2.56,2.56,0,0,0-.85-.48Zm.83,4.14a2.4,2.4,0,0,0,.87-1.85v-.07a2.78,2.78,0,0,0,.88.59,2.76,2.76,0,0,0-.44,1.5,3.84,3.84,0,0,0,0,.48,2.2,2.2,0,0,0-1.31-.66Zm2.7,3.88a2.7,2.7,0,0,0-1.11-.33,2.24,2.24,0,0,0,.42-1.3v-.26a2.72,2.72,0,0,0,1,.74,3.22,3.22,0,0,0-.31,1.14Zm-.85-30.56a2.07,2.07,0,0,0,.06-.5,2.15,2.15,0,0,0-.51-1.39,2.54,2.54,0,0,0,1.39-.41A2.88,2.88,0,0,0,31,52.1a2.81,2.81,0,0,0-1.32,1ZM33,46.54A2.81,2.81,0,0,0,33,47a2.57,2.57,0,0,0,.15.87,3,3,0,0,0-1.28.55,2.49,2.49,0,0,0-.41-1.15A2.35,2.35,0,0,0,33,46.54Zm-.2,41.25a2.5,2.5,0,0,0-1.26-.51,2.55,2.55,0,0,0,.31-.89,2.93,2.93,0,0,0,1.06.45,2.72,2.72,0,0,0-.12.8A.76.76,0,0,0,32.8,87.79ZM33,57.15l.12-.06a.76.76,0,0,0,.06.36A1,1,0,0,0,33,57.15Zm.68-13.37a2.48,2.48,0,0,0,1.35-.4v.07a3,3,0,0,0,.12.84,2.74,2.74,0,0,0-1.53.82,1,1,0,0,0,0-.25,2.35,2.35,0,0,0-.27-1.1Zm.87,10.34a2.8,2.8,0,0,0-.2-.62l.26-.09a2.41,2.41,0,0,0,.17.58Zm.09,26.49a3.06,3.06,0,0,0-.13.43h-.08a2.35,2.35,0,0,0,.14-.45Zm.51,10.54a2.5,2.5,0,0,0-1.47-.47h-.15a2.29,2.29,0,0,0,.2-.93,2.82,2.82,0,0,0,1.51.68,2.74,2.74,0,0,0-.09.7Zm1.29,3.08a2.29,2.29,0,0,0-.37,0,2.7,2.7,0,0,0,.19-.84A3.07,3.07,0,0,0,38,94a1.31,1.31,0,0,0,0,.28,2.6,2.6,0,0,0,.06.56,2.35,2.35,0,0,0-1.63-.63Zm-.12-44.37a.84.84,0,0,0-.1-.29,1.7,1.7,0,0,0,.45-.15v.27l-.33.17ZM36.59,85h0l-.21-.07h0Zm2.94,12a2.8,2.8,0,0,0-.81.13,2.24,2.24,0,0,0,.06-.52,1.41,1.41,0,0,0,0-.29,3,3,0,0,0,.91.69Zm1.21.3h.6a3.23,3.23,0,0,0,0,.44,2.8,2.8,0,0,0-.6-.49Zm1.38,2.56a1.13,1.13,0,0,0,0-.26,2,2,0,0,0,0-.35,2.67,2.67,0,0,0,.66.5,2.46,2.46,0,0,0-.66.06ZM43.7,40.07Zm.49,60a2.16,2.16,0,0,0,.36,0,.61.61,0,0,0,.07.35,2.49,2.49,0,0,0-.43-.36Zm1.22,2.2h0a2.94,2.94,0,0,0,0-.42,3.73,3.73,0,0,0,.36.32Zm-.68-67.5a2.66,2.66,0,0,0-3.21,2,2.81,2.81,0,0,0-.07.65v.15a2.18,2.18,0,0,0-.51,0,2.75,2.75,0,0,0-2.75,2.75.43.43,0,0,0,0,.16H38.1a3.09,3.09,0,0,0-2,.7,2.52,2.52,0,0,0-.3-1,2.1,2.1,0,0,0,.61.09,2.17,2.17,0,0,0,2.22-2.12V38a2.18,2.18,0,0,0-.14-.76,2.29,2.29,0,0,0,1,.23A2.46,2.46,0,0,0,42,35.06V35a2.94,2.94,0,0,0,0-.51,2.36,2.36,0,0,0,3.31-2.17,1.82,1.82,0,0,0,0-.33,2.11,2.11,0,0,0,1,.35,3,3,0,0,0-1.53,2.42ZM49,104.49a2.47,2.47,0,0,0-.76-1.75,3.24,3.24,0,0,0,.53-.16A2.75,2.75,0,0,0,50,104.13,2.56,2.56,0,0,0,49,104.49Zm-.1-72.21A3,3,0,0,0,47.8,32a2.37,2.37,0,0,0,1-2,2.41,2.41,0,0,0,0-.38A2.16,2.16,0,0,0,52.45,28h0V27.9a2.3,2.3,0,0,0,1.56.88,2.71,2.71,0,0,0-1.33,1.81,2.53,2.53,0,0,0-3.77,1.69Zm3.75,73.86a2.32,2.32,0,0,0-1.07-1.64,2.64,2.64,0,0,0,1-.26,2.88,2.88,0,0,0,1,1.42,2.61,2.61,0,0,0-.92.48Zm.9-71.45-.3-.09a2.59,2.59,0,0,0,.62-1.12,1.58,1.58,0,0,0,.36.2,3.13,3.13,0,0,0-.67,1Zm2-6.21a2.32,2.32,0,0,0,1-1.54,2.44,2.44,0,0,0,1.26.77,2.9,2.9,0,0,0-1,1.22,2.67,2.67,0,0,0-1.28-.45Zm1.15,78.75a2.55,2.55,0,0,0-.65-1,3.14,3.14,0,0,0,.74-.28,3.16,3.16,0,0,0,.62.83,2.62,2.62,0,0,0-.73.45Zm1.07-74.16a1.48,1.48,0,0,0-.29-.12,2.61,2.61,0,0,0,.39-.64,2,2,0,0,0,.31.19,3.41,3.41,0,0,0-.43.57Zm1.82,80.48a2.23,2.23,0,0,0-1.22-1.66h.07a2.65,2.65,0,0,0,1.81-.72,2.82,2.82,0,0,0,1.17,1.2,2.29,2.29,0,0,0-1.85,1.18Zm1.2-5.55a2.57,2.57,0,0,0-.38-.55,2.87,2.87,0,0,0,.77-.37,3.62,3.62,0,0,0,.36.42A2.52,2.52,0,0,0,60.79,108Zm.45-80.23A2.71,2.71,0,0,0,60,27.23a2.46,2.46,0,0,0,.74-1.06A2.54,2.54,0,0,0,62,27a3,3,0,0,0-.76.8Zm1,4.1a2.35,2.35,0,0,0-.45-.22.91.91,0,0,0,.11-.16,2.42,2.42,0,0,0,.42.29Zm2.1-5.44a2.54,2.54,0,0,0,.56-.74,2.49,2.49,0,0,0,1.4,1,3.26,3.26,0,0,0-.54.51,2.88,2.88,0,0,0-1.45-.74Zm.81,82.43a2.68,2.68,0,0,0-.41-.64,3.07,3.07,0,0,0,1.3-.85,2.67,2.67,0,0,0,.84.61,2.27,2.27,0,0,0-1.76.91Zm3.94-83.3a2.47,2.47,0,0,0,1.77,1.23,3.74,3.74,0,0,0-.55.41,3,3,0,0,0-1.72-1.05,2.8,2.8,0,0,0,.47-.56ZM68,108.27a2.72,2.72,0,0,0,2-.89,4.11,4.11,0,0,0,.3.29A2.7,2.7,0,0,0,68.81,109a2.36,2.36,0,0,0-.83-.74Zm47.8-42.85a1.88,1.88,0,1,0,1.88,1.88h0A1.89,1.89,0,0,0,115.8,65.42Zm1.69,6.16a1.88,1.88,0,1,0-1.88,1.88h0A1.88,1.88,0,0,0,117.49,71.58Zm-.59,4.25A1.87,1.87,0,1,0,115,77.7a1.87,1.87,0,0,0,1.9-1.87Zm-1,4.18a1.78,1.78,0,1,0-1.78,1.78h0A1.78,1.78,0,0,0,115.86,80Zm-1,4.08a2,2,0,1,1-.07,0Zm-3.76,2a1.91,1.91,0,1,0,1.86,2v0a1.9,1.9,0,0,0-1.93-1.87h0Zm0,5.68a3.91,3.91,0,1,0,0,.07v0Zm-2.37,3.58a2.07,2.07,0,1,0-2.07,2.08,2.07,2.07,0,0,0,2.07-2.08Zm-2.57,3.36a2.18,2.18,0,1,0-2.19,2.17h0a2.17,2.17,0,0,0,2.14-2.13Zm-3.26,3.1a1.88,1.88,0,1,0-1.88,1.88h0a1.88,1.88,0,0,0,1.85-1.84ZM100,104.67a2.17,2.17,0,1,0-2.17,2.17h0A2.17,2.17,0,0,0,100,104.67Zm-3.56,2.52a2.08,2.08,0,1,0-2.09,2.07h0a2.09,2.09,0,0,0,2-2.07Zm-5.76,4.27a2.07,2.07,0,1,0-2.07-2.07h0a2.07,2.07,0,0,0,2,2.07Zm-2-.21a1.91,1.91,0,1,0-1.91,1.91,1.92,1.92,0,0,0,1.91-1.91h0Zm-3.85,1.51a2.08,2.08,0,1,0-2.09,2.07h0a2.07,2.07,0,0,0,2.08-2.06h0Zm-4,1.14a2.2,2.2,0,0,0-4.38-.23,2.26,2.26,0,1,0,.22,1.22,2.2,2.2,0,0,0,4.16-1Zm-10.69,3A1.88,1.88,0,1,0,68.26,115h0a1.88,1.88,0,0,0,1.85,1.91h0ZM64,115.05a1.88,1.88,0,1,0,1.88-1.88h0A1.88,1.88,0,0,0,64,115.05Zm-14.76-1.79a2,2,0,1,0-2-2,2,2,0,0,0,2,2Zm-1.67-3.87a2.2,2.2,0,1,0-2.2,2.2h0a2.21,2.21,0,0,0,2.17-2.2Zm-3.92-2.2a2,2,0,1,0-2,2,2,2,0,0,0,2-2Zm-3.13-2.52A2.29,2.29,0,0,0,36.66,103a2.07,2.07,0,1,0-.37.42,2.3,2.3,0,1,0,4.2,1.29ZM30,98.75a2,2,0,1,0,2-2A2,2,0,0,0,30,98.75Zm-.67-5.6a2.24,2.24,0,1,0,2.24,2.24h0a2.24,2.24,0,0,0-2.24-2.24h0ZM27,89.91a1.91,1.91,0,1,0,1.91,1.91h0A1.91,1.91,0,0,0,27,89.91Zm-2-4a2.11,2.11,0,1,0,2,2.22V88a2.13,2.13,0,0,0-2.07-2.07Zm-1.69-3.7a1.87,1.87,0,1,0,1.87,1.87h0a1.86,1.86,0,0,0-1.88-1.84h-.06ZM21.92,78a2,2,0,1,0,2,2A2,2,0,0,0,21.92,78Zm-1-4.26a2,2,0,1,0,2,2,2,2,0,0,0-2-2Zm-.58-.13a2.07,2.07,0,1,0-2.07-2.07h0a2.07,2.07,0,0,0,2,2.11h.08Zm1.89-6.36a2.08,2.08,0,1,0-2.08,2.08,2.08,2.08,0,0,0,2.08-2.08h0ZM20.34,60.9A2.07,2.07,0,1,0,22.46,63a2.07,2.07,0,0,0-2.12-2.1h0ZM21,56.73a2,2,0,1,0,2,2A2,2,0,0,0,21,56.73Zm2.89-2.15a1.94,1.94,0,1,0-1.95,1.93h0a1.94,1.94,0,0,0,1.89-1.93ZM25,50.5a1.78,1.78,0,1,0-1.78,1.78h0A1.78,1.78,0,0,0,25,50.5Zm1.91-4a2,2,0,1,0-2,2,2,2,0,0,0,2-2Zm1.81-3.77A1.78,1.78,0,1,0,27,44.56h0a1.79,1.79,0,0,0,1.74-1.78ZM27.19,39.2a2.13,2.13,0,1,0,2.13-2.13h0A2.15,2.15,0,0,0,27.19,39.2Zm2.94-3.36A1.87,1.87,0,1,0,32,34h0A1.87,1.87,0,0,0,30.13,35.84Zm3-3.1A1.87,1.87,0,1,0,35,30.88h0a1.87,1.87,0,0,0-1.9,1.84v0Zm5.09-5a1.55,1.55,0,1,1,0,.05Zm3.47-2.17a1.78,1.78,0,1,0,1.78,1.78h0a1.77,1.77,0,0,0-1.81-1.73Zm3.68,1.58a1.41,1.41,0,1,0,0,.05h0ZM51,23.34a1.78,1.78,0,1,0-1.78,1.78h0A1.78,1.78,0,0,0,51,23.34Zm2.23-3.44a1.94,1.94,0,1,0,1.94,1.94h0a1.92,1.92,0,0,0-1.93-1.93h0Zm4.14-1.24a2,2,0,1,0,2,2,2,2,0,0,0-2-2h0Zm4.22-.81a2.08,2.08,0,1,0,2.07,2.09v0a2.07,2.07,0,0,0-2.07-2.07h0Zm4.27-.38a2.07,2.07,0,1,0,2.08,2.07,2.07,2.07,0,0,0-2.08-2.07h0Zm4.29,0a2.07,2.07,0,1,0,2.07,2.07h0a2.07,2.07,0,0,0-2.07-2.07h0Zm4.27.41a2,2,0,1,0,2,2,2,2,0,0,0-2-2h0Zm4.22.83a2,2,0,1,0,2,2,2,2,0,0,0-2-2h0Zm2.27,3.12A1.87,1.87,0,1,0,82.82,20h0a1.87,1.87,0,0,0-1.87,1.83Zm5.88,3.22a1.71,1.71,0,1,0-1.71-1.71h0a1.72,1.72,0,0,0,1.7,1.71Zm3.87-1.76a1.91,1.91,0,1,0,1.91,1.91,1.92,1.92,0,0,0-1.91-1.91Zm3.68,2.2a1.91,1.91,0,1,0,1.91,1.91,1.92,1.92,0,0,0-1.91-1.91Zm3.47,6.43a2,2,0,1,0-2-2,2,2,0,0,0,2,2Zm1.49.82A1.74,1.74,0,1,0,101,31h0a1.74,1.74,0,0,0-1.71,1.74Zm4.7,1.07a2,2,0,1,0,2,2A2,2,0,0,0,104,33.81Zm2.67,3.42a2,2,0,1,0,2,2,2,2,0,0,0-2-2ZM109,40.81a2,2,0,1,0,2,2A2,2,0,0,0,109,40.81Zm3.87,5.74A1.84,1.84,0,1,0,111,48.39h0a1.83,1.83,0,0,0,1.86-1.8v0Zm-.15,6a2,2,0,1,0-2-2,2,2,0,0,0,2,2Zm1.33,3.82a1.74,1.74,0,1,0-1.74-1.74h0a1.74,1.74,0,0,0,1.77,1.69Zm1,4.28a1.84,1.84,0,1,0-1.84-1.84h0A1.84,1.84,0,0,0,115,60.6ZM113.73,63a1.88,1.88,0,1,0,1.88-1.88h0A1.88,1.88,0,0,0,113.73,63Zm6.85,2.81a1.48,1.48,0,1,0,1.48,1.48h0a1.47,1.47,0,0,0-1.48-1.46h0Zm1.3,5.76a1.48,1.48,0,1,0-1.48,1.48h0a1.47,1.47,0,0,0,1.47-1.47Zm-.55,4.26a1.45,1.45,0,1,0-1.45,1.45h0a1.45,1.45,0,0,0,1.45-1.44Zm-.94,4.2A1.38,1.38,0,1,0,119,81.42,1.38,1.38,0,0,0,120.39,80v0Zm-.9,4.12a1.69,1.69,0,1,0-1.7,1.68h0a1.68,1.68,0,0,0,1.69-1.67Zm-1.68,4a1.55,1.55,0,1,0-1.56,1.54h0a1.55,1.55,0,0,0,1.55-1.53ZM115.75,92a1.35,1.35,0,1,0-1.35,1.35h0A1.34,1.34,0,0,0,115.75,92Zm-3.52,5.44a1.74,1.74,0,1,0-1.74-1.74h0a1.74,1.74,0,0,0,1.72,1.76h0Zm-2.46.26a1.52,1.52,0,1,0,1.52,1.52h0a1.52,1.52,0,0,0-1.52-1.5ZM107,101a1.59,1.59,0,1,0,1.58,1.6v0A1.6,1.6,0,0,0,107,101Zm-3,3a1.59,1.59,0,1,0,1.59,1.59h0A1.59,1.59,0,0,0,104,104Zm-3.24,2.81a1.59,1.59,0,1,0,1.59,1.59h0a1.59,1.59,0,0,0-1.57-1.58Zm-3.46,2.61a1.52,1.52,0,1,0,1.52,1.52h0a1.51,1.51,0,0,0-1.5-1.5Zm-3.65,5.5a1.74,1.74,0,1,0-1.74-1.74h0a1.74,1.74,0,0,0,1.73,1.75h0Zm-3.83-1.35a1.55,1.55,0,1,0,1.55,1.55,1.54,1.54,0,0,0-1.55-1.55Zm-4,4.71a1.55,1.55,0,1,0-.25,0A1,1,0,0,0,85.82,118.28Zm-4.09,1.43A1.68,1.68,0,1,0,80.09,118h0a1.68,1.68,0,0,0,1.64,1.72h0Zm-6-.72a1.58,1.58,0,1,1,.09,0Zm-2.47,2.47a1.87,1.87,0,1,0-1.86-1.88v0a1.87,1.87,0,0,0,1.87,1.87h0Zm-2.81-1.6A1.48,1.48,0,1,0,69,121.33h0A1.48,1.48,0,0,0,70.54,120v-.08Zm-5.76-2a1.88,1.88,0,1,0,1.88,1.88h0a1.88,1.88,0,0,0-1.79-1.84Zm-6.1,1.44a1.84,1.84,0,1,0,1.85-1.83h0a1.83,1.83,0,0,0-1.74,1.87Zm-4.12-.78a1.74,1.74,0,1,0,1.74-1.74h0a1.73,1.73,0,0,0-1.65,1.78Zm-2.4.62a1.74,1.74,0,1,0-1.74-1.74h0a1.74,1.74,0,0,0,1.7,1.78h.13ZM49.74,116a1.62,1.62,0,1,0-3.23-.25,1,1,0,0,0,0,.25,1.62,1.62,0,0,0,3.23,0Zm-5.52,0a1.84,1.84,0,1,0-1.84-1.84h0A1.85,1.85,0,0,0,44.22,116Zm-3.74-2.31a1.62,1.62,0,1,0-1.62-1.62,1.63,1.63,0,0,0,1.62,1.62h0Zm-3.57-2.3a1.71,1.71,0,1,0-1.71-1.71h0a1.72,1.72,0,0,0,1.68,1.74h0Zm-3.35-2.67A1.72,1.72,0,1,0,31.85,107h0a1.72,1.72,0,0,0,1.67,1.75h0Zm-3.12-2.91a1.74,1.74,0,1,0-1.74-1.74h0a1.74,1.74,0,0,0,1.71,1.77h0ZM29,100.91a1.42,1.42,0,1,0-1.42,1.42h0A1.43,1.43,0,0,0,29,100.91Zm-4-1.74a1.67,1.67,0,1,0-1.67-1.67h0A1.67,1.67,0,0,0,25,99.17Zm-2.32-3.73a1.55,1.55,0,1,0-1.55-1.55h0a1.54,1.54,0,0,0,1.51,1.54Zm-2-3.62A1.71,1.71,0,1,0,19,90.11h0a1.7,1.7,0,0,0,1.65,1.71ZM18.92,88a1.87,1.87,0,1,0-1.87-1.87A1.87,1.87,0,0,0,18.92,88Zm-1.38-4.46a1.48,1.48,0,1,0-1.47-1.49v0a1.47,1.47,0,0,0,1.43,1.51h0ZM18.08,78a1.58,1.58,0,0,0-3.15-.25,1,1,0,0,0,0,.25,1.58,1.58,0,0,0,3.15,0Zm-2.27-2.59a1.65,1.65,0,1,0-1.65-1.65h0a1.65,1.65,0,0,0,1.65,1.59Zm-.35-4.25a1.67,1.67,0,1,0-1.67-1.67h0a1.68,1.68,0,0,0,1.67,1.62Zm0-4.29a1.67,1.67,0,1,0-1.67-1.67h0a1.68,1.68,0,0,0,1.67,1.62Zm.35-4.33a1.62,1.62,0,1,0-1.62-1.62h0a1.6,1.6,0,0,0,1.62,1.57ZM15,56.64a1.52,1.52,0,1,0,1.52-1.52h0A1.52,1.52,0,0,0,15,56.63Zm1.15-4.16a1.41,1.41,0,1,0,1.41-1.41h0a1.41,1.41,0,0,0-1.41,1.41Zm1-4.06a1.78,1.78,0,1,0,1.78-1.78h0a1.78,1.78,0,0,0-1.79,1.77h0ZM19,44.48a1.61,1.61,0,1,0,1.61-1.62A1.61,1.61,0,0,0,19,44.48Zm2.21-3.79a1.42,1.42,0,1,0,1.42-1.42h0a1.41,1.41,0,0,0-1.41,1.41h0ZM25,35.54a1.55,1.55,0,1,0,1.54,1.56v0A1.54,1.54,0,0,0,25,35.54Zm2.6-3.14a1.28,1.28,0,1,0,1.28,1.28h0A1.28,1.28,0,0,0,27.6,32.4h0Zm2.88-3.48A1.58,1.58,0,1,0,32,30.56v-.07a1.58,1.58,0,0,0-1.56-1.57ZM33.56,26a1.55,1.55,0,1,0,1.55,1.55h0A1.54,1.54,0,0,0,33.57,26Zm3.35-2.68a1.55,1.55,0,1,0,1.55,1.55h0a1.56,1.56,0,0,0-1.55-1.54Zm2.15-.84a1.42,1.42,0,1,0,1.42-1.42h0a1.43,1.43,0,0,0-1.42,1.42h0Zm3.54-2.1a1.62,1.62,0,1,0,3.23.25,1,1,0,0,0,0-.25,1.62,1.62,0,0,0-3.23,0Zm4.12-1.78a1.41,1.41,0,1,0,1.42-1.4h0a1.4,1.4,0,0,0-1.4,1.4h0Zm3.92-1.46a1.52,1.52,0,1,0,1.53-1.51h0a1.52,1.52,0,0,0-1.52,1.52h0ZM56.3,14.5A1.52,1.52,0,1,0,57.81,16v0a1.53,1.53,0,0,0-1.51-1.49Zm4.21-.88a1.62,1.62,0,1,0,1.62,1.62h0a1.61,1.61,0,0,0-1.61-1.61h0Zm4.27-.49a1.67,1.67,0,1,0,1.67,1.67h0a1.67,1.67,0,0,0-1.67-1.66ZM69.07,13a1.67,1.67,0,1,0,1.67,1.67h0a1.67,1.67,0,0,0-1.67-1.66Zm4.28.29A1.65,1.65,0,1,0,75,15a1.63,1.63,0,0,0-1.62-1.66h0ZM77.6,14a1.58,1.58,0,1,0,1.57,1.59v0A1.59,1.59,0,0,0,77.6,14Zm4.18,1.05a1.48,1.48,0,1,0,1.47,1.49h0a1.48,1.48,0,0,0-1.47-1.46Zm2.77,2.77a1.32,1.32,0,1,0,1.32-1.32h0a1.32,1.32,0,0,0-1.32,1.32v0Zm3.58,1.62a1.71,1.71,0,1,0,1.71-1.71h0a1.72,1.72,0,0,0-1.71,1.71v0Zm4,1.94a1.55,1.55,0,1,0,1.56-1.54h0a1.54,1.54,0,0,0-1.56,1.52v0ZM96,23.65a1.32,1.32,0,1,0,1.32-1.33A1.32,1.32,0,0,0,96,23.65Zm3.36,2.53a1.42,1.42,0,1,0,1.42-1.42h0A1.43,1.43,0,0,0,99.36,26.18ZM104,30.73A1.74,1.74,0,1,0,102.28,29v0A1.74,1.74,0,0,0,104,30.73Zm3-.12a1.45,1.45,0,1,0-.24,2.89H107a1.45,1.45,0,0,0,0-2.89Zm2.74,6.12a1.38,1.38,0,1,0-1.38-1.38h0a1.38,1.38,0,0,0,1.38,1.38h0Zm2.46.52a1.62,1.62,0,1,0,1.62,1.62,1.6,1.6,0,0,0-1.59-1.62Zm2.17,4.06a1.26,1.26,0,1,0,1.26,1.26,1.24,1.24,0,0,0-1.23-1.26ZM116.26,45a1.45,1.45,0,1,0,1.45,1.45h0A1.43,1.43,0,0,0,116.28,45Zm1.54,3.84a1.62,1.62,0,1,0,1.62,1.62h0a1.61,1.61,0,0,0-1.59-1.63h0Zm1.2,4.39a1.32,1.32,0,1,0,1.33,1.32A1.32,1.32,0,0,0,119,53.23Zm.87,4.1a1.42,1.42,0,1,0,1.42,1.42h0a1.43,1.43,0,0,0-1.41-1.42Zm.53,4.23A1.45,1.45,0,1,0,121.85,63h0a1.46,1.46,0,0,0-1.44-1.44Zm5,4.68a1.06,1.06,0,1,0,1.06,1.06h0a1.05,1.05,0,0,0-1.07-1.05h0Zm.9,5.34a1.06,1.06,0,1,0-1.06,1.06h0a1.07,1.07,0,0,0,1-1.06Zm-.5,4.26a1,1,0,1,0-1,1,1,1,0,0,0,1-1Zm-.88,4.22a1,1,0,1,0-1,1,1,1,0,0,0,1-1Zm-2.07,5.42a1.28,1.28,0,1,0-1.28-1.28A1.28,1.28,0,0,0,122.85,85.48ZM121.4,87.1a1.16,1.16,0,1,0,1.15,1.17v0a1.14,1.14,0,0,0-1.15-1.15Zm-.73,5.08a1,1,0,1,0-1,1A1,1,0,0,0,120.67,92.18ZM118.83,96a1.16,1.16,0,1,0-1.17,1.15h0A1.17,1.17,0,0,0,118.83,96Zm-2.28,3.63a1.16,1.16,0,1,0-1.17,1.15h0a1.16,1.16,0,0,0,1.16-1.16h0Zm-3.7,2.2a1.25,1.25,0,1,0,1.25,1.25,1.25,1.25,0,0,0-1.25-1.25h0Zm-2.8,3.51a1,1,0,1,0,1,1,1,1,0,0,0-1-1h0ZM107,108a1.31,1.31,0,1,0,1.31,1.31h0A1.3,1.3,0,0,0,107,108Zm-3.25,2.85a1.26,1.26,0,1,0,1.26,1.26h0a1.25,1.25,0,0,0-1.25-1.21Zm-3.45,2.55a1.25,1.25,0,1,0,1.25,1.25,1.25,1.25,0,0,0-1.25-1.25Zm-3.63,2.38A1.16,1.16,0,1,0,97.83,117a1.16,1.16,0,0,0-1.16-1.22h0Zm-3.79,1.81A1.35,1.35,0,1,0,94.24,119a1.34,1.34,0,0,0-1.31-1.37h0Zm-3.88,2a1.16,1.16,0,1,0,1.16,1.16h0A1.16,1.16,0,0,0,89,119.54Zm-4,1.29a1.28,1.28,0,1,0,1.29,1.28A1.28,1.28,0,0,0,85,120.83h0Zm-4.14,1.11A1.28,1.28,0,1,0,82,123.35a.57.57,0,0,0,0-.13,1.28,1.28,0,0,0-1.24-1.28Zm-4.21.7a1.39,1.39,0,0,0-1.49,1.27,1.38,1.38,0,0,0,2.76.22V124a1.38,1.38,0,0,0-1.37-1.36Zm-4.27.41a1.45,1.45,0,1,0,1.45,1.45h0a1.43,1.43,0,0,0-1.43-1.45h0ZM68,123.6a1.06,1.06,0,0,0-1.12,1,1.06,1.06,0,0,0,2.12.12v-.06A1.06,1.06,0,0,0,68,123.6Zm-4.29-.55a1.45,1.45,0,1,0,1.45,1.45h0A1.45,1.45,0,0,0,63.71,123.05Zm-4.26-.45A1.42,1.42,0,1,0,60.87,124v0a1.41,1.41,0,0,0-1.42-1.4Zm-4.22-.7a1.32,1.32,0,1,0,1.32,1.32h0A1.32,1.32,0,0,0,55.23,121.9Zm-4.14-1a1.21,1.21,0,1,0,1.21,1.21h0A1.21,1.21,0,0,0,51.09,120.9ZM47,119.64a1.06,1.06,0,1,0,1.06,1.06v-.06A1.06,1.06,0,0,0,47,119.64Zm-3.93-2.11A1.45,1.45,0,1,0,44.55,119a1.45,1.45,0,0,0-1.48-1.47h0Zm-3.8-1.81a1.26,1.26,0,1,0,.08,0h-.08Zm-3.63-2.41A1.38,1.38,0,1,0,37,114.69h0a1.37,1.37,0,0,0-1.34-1.38Zm-2.31-1.17a1.14,1.14,0,1,0-1.14,1.15,1.14,1.14,0,0,0,1.14-1.15v0Zm-2.94-2.79a1.45,1.45,0,1,0-1.46,1.44H29a1.45,1.45,0,0,0,1.43-1.44ZM26,107.45a1.14,1.14,0,1,0-1.15-1.14A1.14,1.14,0,0,0,26,107.45Zm-1.72-4.39a1.09,1.09,0,1,0,0,.21A.74.74,0,0,0,24.28,103.06ZM22,99.61a1.32,1.32,0,1,0-1.32,1.32h0a1.32,1.32,0,0,0,1.27-1.32ZM19.28,96a1,1,0,1,0-1,1A1,1,0,0,0,19.28,96Zm-1.81-3.8a1.16,1.16,0,1,0-1.16,1.16,1.16,1.16,0,0,0,1.16-1.16v0ZM14.6,89.57a1.32,1.32,0,1,0-1.33-1.32,1.32,1.32,0,0,0,1.33,1.32Zm-1.42-4.31a1.06,1.06,0,1,0-1.06-1.06h0A1.05,1.05,0,0,0,13.18,85.26Zm-1.11-4.05a1.16,1.16,0,1,0-1.16-1.16h0a1.14,1.14,0,0,0,1.15,1.15Zm-.8-4.14a1.23,1.23,0,1,0-1.22-1.24h0A1.23,1.23,0,0,0,11.27,77.07Zm-.48-4.24a1.25,1.25,0,1,0-1.25-1.25A1.25,1.25,0,0,0,10.79,72.83Zm-.16-4.28a1.26,1.26,0,1,0-1.25-1.27h0a1.25,1.25,0,0,0,1.24,1.26ZM9.57,63a1.23,1.23,0,1,0,1.23-1.23h0A1.22,1.22,0,0,0,9.57,63Zm2.91-4.27a1.24,1.24,0,1,0,0,.06v0Zm-.41-3.1A1.11,1.11,0,1,0,11,54.48v.05a1.11,1.11,0,0,0,1.07,1.11Zm.09-5.25a1,1,0,1,0,1-1,1,1,0,0,0-1,1h0Zm2.44-5.31a1.26,1.26,0,1,0-.22,2.51.81.81,0,0,0,.22,0,1.26,1.26,0,0,0,0-2.51Zm1.71-1.62a1.06,1.06,0,1,0-1.06-1.06h0a1,1,0,0,0,1,1.06h0Zm2-3.79a1.06,1.06,0,1,0-1.06-1.06,1.05,1.05,0,0,0,1.06,1.06h0ZM19.39,35a1.21,1.21,0,1,0,1.21-1.21h0A1.21,1.21,0,0,0,19.39,35Zm3.76-2.49a1,1,0,1,0-1-1,1,1,0,0,0,1,1ZM26,29.27a1,1,0,1,0-1-1A1,1,0,0,0,26,29.27Zm1.75-4A1.28,1.28,0,1,0,29,24h0a1.28,1.28,0,0,0-1.3,1.24Zm3.57-2.79a.71.71,0,1,0-.05-.05v0Zm3.2-2.55a1.21,1.21,0,1,0,1.21-1.21h0a1.21,1.21,0,0,0-1.26,1.16v0Zm3.79-2.28a1.06,1.06,0,1,0,1.06-1.06h0a1,1,0,0,0-1.1.89v.14Zm3.59-2a1.26,1.26,0,1,0,1.27-1.25h0a1.25,1.25,0,0,0-1.31,1.19v0Zm4.33-1.71A.86.86,0,1,0,47,13h0a.86.86,0,0,0-.82.9h0Zm3.89-1.42a1,1,0,1,0,1-1,1,1,0,0,0-1,1h0Zm4-1.11a1.12,1.12,0,1,0,1.12-1.12h0a1.11,1.11,0,0,0-1.11,1.08Zm4.12-.8A1.21,1.21,0,1,0,59.45,9.4h0a1.21,1.21,0,0,0-1.21,1.17Zm4.24-.48a1.23,1.23,0,1,0,2.45.22.81.81,0,0,0,0-.22,1.23,1.23,0,0,0-2.45,0ZM66.74,10a1.26,1.26,0,0,0,2.52-.06A1.27,1.27,0,0,0,68,8.68a1.25,1.25,0,0,0-1.26,1.24h0Zm4.32.16A1.23,1.23,0,1,0,72.3,8.91h0a1.22,1.22,0,0,0-1.22,1.18Zm4.33.48a1.16,1.16,0,1,0,1.17-1.15h0a1.16,1.16,0,0,0-1.16,1.11Zm4.31.8a1.06,1.06,0,1,0,1.06-1.06,1.05,1.05,0,0,0-1.06,1.06Zm4.15,1.11a1.06,1.06,0,1,0,1.06-1.06h0a1.05,1.05,0,0,0-1.05,1ZM88,13.9a1,1,0,1,0,1-.9.94.94,0,0,0-1,.88Zm3.72,1.71a1.16,1.16,0,1,0,1.17-1.15h0a1.17,1.17,0,0,0-1.15,1.15Zm4,2a1,1,0,1,0,1-1,1,1,0,0,0-1,1h0Zm3.51,2.28a1.09,1.09,0,1,0,0-.21A.74.74,0,0,0,99.23,19.89Zm3.45,2.55a1.09,1.09,0,1,0,1.09-1.09h0a1.08,1.08,0,0,0-1.08,1.08v0ZM107,26.38a1.14,1.14,0,1,0-1.14-1.14h0A1.15,1.15,0,0,0,107,26.38Zm3,2.75a.85.85,0,1,0-.85-.85h0a.85.85,0,0,0,.85.85h0Zm2.8,3.54a1.14,1.14,0,1,0-1.15-1.14,1.14,1.14,0,0,0,1.15,1.14h0ZM115.39,36a1,1,0,1,0-1-1A1,1,0,0,0,115.39,36Zm2.29,3.85a1.26,1.26,0,1,0-1.26-1.26,1.25,1.25,0,0,0,1.26,1.26h0Zm1.11,2.54a.89.89,0,1,0,.89-.9.89.89,0,0,0-.89.9v0Zm1.55,3.93a1.06,1.06,0,1,0,1.06-1.06h0a1,1,0,0,0-1.06,1v0Zm2.47,2.84A1.21,1.21,0,1,0,124,50.39a1.21,1.21,0,0,0-1.19-1.23Zm.19,5.35a.92.92,0,1,0,.92-.92h0a.92.92,0,0,0-.92.92v0Zm.73,4.21a1,1,0,1,0,1-1,1,1,0,0,0-1,1v0ZM125.2,64a1,1,0,1,0-1-1,1,1,0,0,0,1,1h0Zm4.94,2.62a.63.63,0,1,0,.63.63h0a.61.61,0,0,0-.63-.6ZM130,71a.63.63,0,1,0,.63.63h0A.62.62,0,0,0,130,71Zm.16,4.89a.6.6,0,1,0-.6.6.6.6,0,0,0,.59-.61v0Zm-1.34,3.67a.56.56,0,1,0,.56.56h0a.56.56,0,0,0-.52-.6h-.05Zm-.16,4.72a.87.87,0,1,0-.88.86h0a.86.86,0,0,0,.85-.87v0Zm-2.18,3.33a.76.76,0,1,0,.76.76.76.76,0,0,0-.76-.76h0Zm-1.59,4.14a.6.6,0,1,0,.6.6h0a.59.59,0,0,0-.54-.64h-.07ZM123,95.38a.8.8,0,1,0,.8.8.8.8,0,0,0-.8-.8Zm-1.33,4.52a.79.79,0,1,0-.79.79A.79.79,0,0,0,121.67,99.9Zm-3.17,2.66a.92.92,0,1,0,.92.92h0a.91.91,0,0,0-.9-.91Zm-2.61,3.63a.69.69,0,1,0,.6.6A.69.69,0,0,0,115.89,106.19ZM113,109.1a1,1,0,1,0,1,1,1,1,0,0,0-1-1Zm-3,3.3a.7.7,0,1,0,.7.7h0a.69.69,0,0,0-.69-.69Zm-3.26,2.8a.68.68,0,0,0,0,1.36.68.68,0,0,0,0-1.36Zm-3.44,2.32a.92.92,0,1,0,.92.92h0A.92.92,0,0,0,103.3,117.52ZM99.69,120a.79.79,0,0,0-.8.78h0a.8.8,0,0,0,1.59.18.54.54,0,0,0,0-.18A.79.79,0,0,0,99.69,120Zm-3.77,2a.79.79,0,0,0-.79.79h0a.79.79,0,0,0,.78.8h0a.8.8,0,0,0,.8-.8h0a.79.79,0,0,0-.79-.79ZM92,124a.6.6,0,0,0-.6.6.58.58,0,0,0,.59.59h0a.58.58,0,0,0,.59-.57v0A.58.58,0,0,0,92,124Zm-4,1.37a.75.75,0,1,0,.75.75A.76.76,0,0,0,88,125.37Zm-4.1,1.13a.86.86,0,1,0,.86.86A.87.87,0,0,0,83.9,126.5Zm-4.18.85a1,1,0,1,0,1,1,1,1,0,0,0-1-1Zm-4.24.58a1,1,0,1,0,1,1,1,1,0,0,0-1-1h0Zm-4.28.37a1.13,1.13,0,1,0,.09,0H71.2Zm-4.29.49a.63.63,0,1,0,.63.63.64.64,0,0,0-.62-.62Zm-4.28-.64a1,1,0,1,0,1,1,1,1,0,0,0-1-1h0Zm-4.26-.46a1,1,0,1,0,1,1A1,1,0,0,0,58.37,127.69Zm-4.2-.69a.92.92,0,1,0,.92.92h0A.92.92,0,0,0,54.17,127ZM50,126a.82.82,0,1,0,.82.82h0A.82.82,0,0,0,50,126Zm-4-1.28a.68.68,0,1,0,.68.68.67.67,0,0,0-.68-.68Zm-4-1.87a.89.89,0,1,0,.89.89h0A.89.89,0,0,0,42,122.85Zm-3.83-1.93a.9.9,0,1,0,.89.91v0A.89.89,0,0,0,38.17,120.92Zm-3.69-2.34a1,1,0,1,0,1,1A1,1,0,0,0,34.48,118.58ZM31,116.4a.79.79,0,1,0,.79.79.79.79,0,0,0-.79-.79Zm-3.35-2.73a.85.85,0,1,0,.84.86h0a.85.85,0,0,0-.85-.85h0Zm-3.17-2.9a.85.85,0,1,0,.85.85h0a.85.85,0,0,0-.85-.85h0Zm-2.95-3.09a.83.83,0,1,0,.82.84v0a.82.82,0,0,0-.82-.82h0Zm-1.65-2.48a1.09,1.09,0,1,0-1.1,1.08h0a1.08,1.08,0,0,0,1-1.08ZM16.25,101a.75.75,0,1,0,.75.75A.76.76,0,0,0,16.25,101ZM14,97.1a1,1,0,1,0,1,1A1,1,0,0,0,14,97.1Zm-2-3.63a.79.79,0,1,0,.79.79.79.79,0,0,0-.79-.79Zm-1.73-4.09a1,1,0,1,0,1,1,1,1,0,0,0-1-1ZM9.5,86.29a.68.68,0,0,0-1.36,0,.69.69,0,0,0,1.37,0h0Zm-1.85-4.8a.68.68,0,1,0,.68.68A.67.67,0,0,0,7.65,81.49ZM7.53,78a.76.76,0,1,0-.77.75h0A.76.76,0,0,0,7.53,78ZM6.18,72.9a.82.82,0,1,0,.83.82.82.82,0,0,0-.83-.82Zm.56-3.46a.85.85,0,1,0-.85.85h0A.85.85,0,0,0,6.74,69.44ZM5.89,66a.82.82,0,1,0-.82-.82h0A.82.82,0,0,0,5.89,66Zm.29-4.32a.78.78,0,1,0-.78-.78h0a.78.78,0,0,0,.78.75Zm.59-4.33a.7.7,0,1,0-.69-.71h0a.7.7,0,0,0,.69.67ZM7.66,53a.6.6,0,1,0-.6-.6h0A.6.6,0,0,0,7.66,53Zm1.17-4.13a.6.6,0,1,0-.6-.6h0a.59.59,0,0,0,.57.61h0Zm.59-4.63a.86.86,0,1,0,.86-.86.87.87,0,0,0-.86.86v0ZM12,41a.7.7,0,1,0-.7-.7.7.7,0,0,0,.7.7Zm2-3.65a.85.85,0,1,0-.85-.85h0a.85.85,0,0,0,.82.88h0Zm2.25-3.87a.63.63,0,1,0-.63-.63.63.63,0,0,0,.63.63h0Zm2.5-3.16a1,1,0,1,0-1-1,1,1,0,0,0,1,1h0Zm2.73-3.58a.69.69,0,1,0-.68-.7h0a.68.68,0,0,0,.64.72h0Zm2.95-3.11a.69.69,0,1,0-.68-.7h0a.69.69,0,0,0,.66.72h0Zm3.17-2.9a.69.69,0,1,0-.69-.69.69.69,0,0,0,.69.69h0ZM31,18a.63.63,0,1,0-.63-.63h0A.63.63,0,0,0,31,18Zm3.53-2.22a.85.85,0,1,0-.85-.85h0a.85.85,0,0,0,.8.88Zm3.69-2.34a.7.7,0,1,0-.7-.7.7.7,0,0,0,.7.7ZM42,11.54a.7.7,0,1,0-.69-.71v0A.69.69,0,0,0,42,11.54Zm4-1.86a.49.49,0,1,0-.49-.49.49.49,0,0,0,.49.49ZM50,8.4a.58.58,0,0,0,.6-.58h0a.6.6,0,1,0-1.2,0A.58.58,0,0,0,50,8.4Zm4.15-1a.7.7,0,1,0-.7-.7h0a.69.69,0,0,0,.69.69h0Zm4.21-.72a.78.78,0,1,0-.78-.78h0a.78.78,0,0,0,.78.78h0Zm4.26-.48a.82.82,0,1,0-.82-.82h0a.82.82,0,0,0,.82.82h0Zm4.3-.2a.85.85,0,1,0-.85-.85h0A.85.85,0,0,0,66.92,6Zm4.29,0a.82.82,0,1,0-.82-.82A.82.82,0,0,0,71.21,6Zm4.28.37a.82.82,0,1,0-.82-.82h0a.83.83,0,0,0,.77.87h0Zm4.24.6a.76.76,0,0,0,.79-.73.77.77,0,0,0-.73-.79.76.76,0,0,0-.79.73v.09a.76.76,0,0,0,.73.73Zm4.18.88a.68.68,0,1,0-.68-.68.68.68,0,0,0,.63.73h0ZM88,9a.53.53,0,1,0-.07-1A.52.52,0,0,0,88,9Zm4,1.76a.8.8,0,1,0-.8-.8.8.8,0,0,0,.8.8h0Zm3.89,1.6a.6.6,0,1,0-.6-.6h0a.6.6,0,0,0,.58.62h0Zm3.77,2.06a.6.6,0,1,0-.6-.6A.6.6,0,0,0,99.66,14.42Zm2.86,1.71a.75.75,0,1,0,.75-.75A.76.76,0,0,0,102.52,16.13Zm3.69,2.56a.52.52,0,0,0,.5.5.5.5,0,0,0,0-1,.51.51,0,0,0-.47.52ZM110,22.05a.56.56,0,1,0-.55-.57v0A.57.57,0,0,0,110,22.05Zm3.06,3.3a.85.85,0,1,0-.85-.85h0a.85.85,0,0,0,.85.85Zm2.85,2.89a.53.53,0,1,0-.53-.53h0a.52.52,0,0,0,.52.52Zm2.61,3.67a.8.8,0,1,0-.79-.81h0A.8.8,0,0,0,118.52,31.91Zm2.38,3.46a.69.69,0,1,0-.68-.7v0a.67.67,0,0,0,.68.68ZM123,39.1a.69.69,0,1,0-.68-.7h0A.69.69,0,0,0,123,39.1Zm1.86,3.68a.5.5,0,1,0-.5-.5.5.5,0,0,0,.5.5h0ZM126.47,47a.69.69,0,1,0-.68-.7h0A.69.69,0,0,0,126.47,47Zm1.32,4.22a.82.82,0,1,0-.82-.82h0a.83.83,0,0,0,.82.77Zm.52,3.34a.51.51,0,1,0,.52-.51.51.51,0,0,0-.52.51Zm.66,4.23a.58.58,0,1,0,.58-.58.57.57,0,0,0-.55.53Zm.4,4.27a.63.63,0,1,0,.63-.63h0a.63.63,0,0,0-.62.57Zm5.55,4.06a.22.22,0,0,0-.22.22h0a.22.22,0,0,0,.44,0,.21.21,0,0,0-.16-.26h-.06Zm-.14,4.29a.22.22,0,0,0-.22.22h0a.23.23,0,0,0,.22.24.23.23,0,1,0,0-.46Zm-.41,4.3a.2.2,0,0,0-.19.19h0a.19.19,0,0,0,.18.2h0a.2.2,0,0,0,.24-.15.2.2,0,0,0-.15-.24ZM133.69,80a.14.14,0,1,0,.14.14A.14.14,0,0,0,133.69,80Zm-1,3.83a.5.5,0,0,0,0,1h0a.5.5,0,0,0,0-1ZM131.51,88a.36.36,0,0,0-.36.36h0a.36.36,0,1,0,.36-.36ZM130,92.19a.22.22,0,1,0,.22.22.22.22,0,0,0-.22-.22Zm-1.74,3.71a.43.43,0,0,0,0,.86.44.44,0,0,0,.42-.43.43.43,0,0,0-.41-.43Zm-2,3.8a.44.44,0,1,0,.43.45h0a.44.44,0,0,0-.38-.44ZM124,103.58a.23.23,0,0,0-.24.22.23.23,0,0,0,.46,0v0a.23.23,0,0,0-.17-.22ZM121.63,107a.34.34,0,0,0-.28.39.35.35,0,0,0,.28.28.34.34,0,0,0,.12-.67A.24.24,0,0,0,121.63,107ZM119,110.58a.09.09,0,0,0-.1.08v0a.09.09,0,0,0,.1.1.11.11,0,0,0,.09-.1.09.09,0,0,0-.08-.1Zm-2.89,2.87a.41.41,0,1,0,.47.47.42.42,0,0,0-.34-.47A.29.29,0,0,0,116.11,113.45Zm-3.08,3a.42.42,0,0,0-.4.41.4.4,0,0,0,.8,0,.41.41,0,0,0-.39-.43h0Zm-3.27,2.79a.4.4,0,1,0,.41.4.4.4,0,0,0-.41-.4h-.07Zm-3.43,2.63a.34.34,0,0,0-.12.67h.12a.34.34,0,0,0,.28-.39A.35.35,0,0,0,106.33,121.87Zm-3.6,2.09a.59.59,0,1,0,.58.6h0a.58.58,0,0,0-.55-.61h-.07ZM99,126.2a.43.43,0,1,0,.43.43.43.43,0,0,0-.43-.43Zm-3.86,1.86a.43.43,0,0,0,0,.86h0a.43.43,0,0,0,0-.86Zm-4,1.82a.22.22,0,0,0-.22.22h0a.22.22,0,1,0,.22-.22h0ZM87,131.09a.36.36,0,0,0-.36.36h0a.36.36,0,1,0,.36-.36Zm-4.15,1a.47.47,0,0,0-.49.47h0a.5.5,0,0,0,1,0,.48.48,0,0,0-.45-.51h0Zm-4.21.75a.55.55,0,0,0-.56.54h0a.56.56,0,1,0,1.11,0h0a.54.54,0,0,0-.5-.58h0Zm-4.26.5a.6.6,0,1,0,.6.6.59.59,0,0,0-.56-.63ZM70.1,134a.22.22,0,0,0-.22.22h0a.22.22,0,0,0,.44,0,.22.22,0,0,0-.18-.22Zm-4.29,0a.22.22,0,0,0-.22.22h0a.22.22,0,0,0,.44,0,.22.22,0,0,0-.18-.22Zm-4.28-.68a.63.63,0,0,0-.63.63h0a.63.63,0,1,0,1.26,0h0a.63.63,0,0,0-.59-.66Zm-4.25-.5a.59.59,0,1,0,.58.6v0a.57.57,0,0,0-.54-.61ZM53.1,132a.52.52,0,0,0-.5.5.5.5,0,0,0,.6.4.51.51,0,0,0,.4-.4A.52.52,0,0,0,53.1,132ZM49,131a.41.41,0,1,0,.47.47.42.42,0,0,0-.34-.47Zm-4.07-1.24a.29.29,0,1,0,.29.29A.29.29,0,0,0,44.88,129.76Zm-4-1.82a.5.5,0,0,0-.5.5h0a.5.5,0,0,0,1,0,.51.51,0,0,0-.47-.44ZM37,126.3a.33.33,0,0,0-.33.33h0A.34.34,0,0,0,37,127h0a.32.32,0,0,0,.33-.31v0a.34.34,0,0,0-.29-.37Zm-3.74-2.46a.69.69,0,1,0,.6.6A.69.69,0,0,0,33.26,123.84Zm-3.59-2.11a.46.46,0,1,0,.46.46h0a.46.46,0,0,0-.42-.46Zm-3.44-2.64a.53.53,0,1,0,.53.53h0a.53.53,0,0,0-.49-.53ZM23,116.57a.27.27,0,1,0,.27.27h0A.27.27,0,0,0,23,116.57Zm-3.08-3.27a.56.56,0,1,0,.56.56h0A.56.56,0,0,0,19.92,113.3ZM17,110.44a.24.24,0,0,0-.24.24.23.23,0,0,0,.23.23h0a.23.23,0,0,0,.23-.23h0a.23.23,0,0,0-.22-.24Zm-2.68-3.62a.5.5,0,1,0,.5.5.5.5,0,0,0-.46-.5Zm-2.45-3.4a.4.4,0,0,0-.45.32.39.39,0,0,0,.33.45.24.24,0,0,0,.12,0,.4.4,0,0,0,.45-.32.39.39,0,0,0-.33-.45A.24.24,0,0,0,11.87,103.42ZM9.68,99.54a.6.6,0,1,0,.6.6A.6.6,0,0,0,9.68,99.54Zm-2-3.44a.23.23,0,0,0-.24.22h0a.24.24,0,1,0,.48,0,.24.24,0,0,0-.22-.23ZM6,92a.4.4,0,1,0,0,.8H6A.4.4,0,0,0,6,92ZM4.48,87.83a.56.56,0,1,0,.56.56H5A.56.56,0,0,0,4.48,87.83ZM3.26,84a.25.25,0,0,0-.26.24v0a.26.26,0,0,0,.52,0h0A.25.25,0,0,0,3.28,84Zm-.95-4.26a.34.34,0,0,0-.12.67.24.24,0,0,0,.12,0A.34.34,0,0,0,2.59,80,.35.35,0,0,0,2.31,79.74Zm-.69-4.29a.41.41,0,0,0-.39.39.38.38,0,0,0,.39.39A.38.38,0,0,0,2,75.85a.4.4,0,0,0-.38-.39Zm0-3.88a.4.4,0,0,0-.4-.4h0a.41.41,0,0,0-.47.34.42.42,0,0,0,.34.47h.13a.4.4,0,0,0,.39-.4Zm-.14-4.29a.4.4,0,1,0-.4.41.4.4,0,0,0,.4-.41ZM1.22,63.4a.41.41,0,1,0-.47-.47.42.42,0,0,0,.34.47Zm.41-4.31A.36.36,0,0,0,2,58.74H2a.36.36,0,1,0-.38.36Zm.69-4.28a.32.32,0,0,0,0-.64h0a.32.32,0,0,0,0,.64Zm1-4.28a.21.21,0,0,0,.16-.26.21.21,0,0,0-.26-.17.23.23,0,0,0-.17.22.22.22,0,0,0,.22.22h0Zm1.22-3.85A.48.48,0,0,0,5,46.23v0a.5.5,0,0,0-1,0,.47.47,0,0,0,.48.48ZM6,42.5a.32.32,0,1,0-.32-.32A.32.32,0,0,0,6,42.5Zm1.7-4.1a.14.14,0,1,0-.14-.14A.14.14,0,0,0,7.7,38.4ZM9.7,35a.5.5,0,1,0,0-1,.52.52,0,0,0-.5.5.5.5,0,0,0,.45.55h0Zm2.23-3.87a.3.3,0,0,0,.24-.35.3.3,0,0,0-.24-.24.3.3,0,0,0-.11.59A.21.21,0,0,0,11.93,31.08Zm2.45-3.45a.36.36,0,0,0,.36-.36h0a.36.36,0,1,0-.38.36ZM17,24a.09.09,0,0,0,.09-.09h0a.11.11,0,0,0-.09-.1.09.09,0,0,0-.1.1h0A.09.09,0,0,0,17,24Zm2.88-2.87a.41.41,0,1,0-.4-.42v0a.4.4,0,0,0,.39.41h0ZM23,17.85a.09.09,0,0,0,.1-.08v0a.09.09,0,0,0-.1-.1h0a.11.11,0,0,0-.1.1.09.09,0,0,0,.1.1Zm3.27-2.52a.36.36,0,1,0-.36-.36.36.36,0,0,0,.36.36Zm3.44-2.63a.3.3,0,0,0,.24-.35.3.3,0,0,0-.24-.24.3.3,0,0,0-.11.59A.21.21,0,0,0,29.71,12.7Zm3.59-2.13a.51.51,0,1,0-.5-.52h0A.51.51,0,0,0,33.3,10.57ZM37,8.1a.15.15,0,0,0,.17-.1.14.14,0,0,0-.27-.07.09.09,0,0,0,0,.07A.13.13,0,0,0,37,8.1Zm3.87-1.68a.34.34,0,0,0,.32-.32.32.32,0,1,0-.32.32h0Zm4-1.86a.07.07,0,1,0-.07-.07h0a.07.07,0,0,0,.07.07h0ZM49,3.36a.23.23,0,0,0,.24-.22.23.23,0,1,0-.46,0v0a.22.22,0,0,0,.22.22Zm4.15-1A.32.32,0,1,0,52.83,2a.33.33,0,0,0,.27.33Zm4.22-.78a.36.36,0,0,0,0-.72.37.37,0,0,0-.37.36.38.38,0,0,0,.32.37Zm4.25-.51a.4.4,0,0,0,.4-.4h0a.4.4,0,1,0-.8,0h0a.39.39,0,0,0,.35.41ZM65.85.81a.4.4,0,0,0,.4-.4h0a.4.4,0,0,0-.8,0,.4.4,0,0,0,.39.41Zm4.29,0A.41.41,0,0,0,70.55.4h0a.42.42,0,0,0-.41-.4.4.4,0,0,0-.4.4h0a.4.4,0,0,0,.39.41Zm4.28.26a.38.38,0,0,0,.39-.39.38.38,0,0,0-.37-.39h0A.39.39,0,0,0,74,.65v0a.4.4,0,0,0,.41.39Zm4.26.49A.34.34,0,0,0,79,1.17a.35.35,0,0,0-.28-.28.33.33,0,0,0-.39.28.33.33,0,0,0,.27.39A.24.24,0,0,0,78.68,1.56Zm4.21.75a.27.27,0,0,0,0-.53.27.27,0,1,0-.1.53Zm4.15,1a.13.13,0,0,0,.14-.12h0a.14.14,0,0,0-.28,0,.12.12,0,0,0,.1.09Zm4.07,1.25Zm4,1.81a.23.23,0,0,0,.23-.23h0a.23.23,0,0,0-.22-.24h0a.24.24,0,0,0-.24.24.22.22,0,0,0,.22.19ZM99,8.2A.24.24,0,1,0,98.76,8,.24.24,0,0,0,99,8.2Zm3.74,2.25a.38.38,0,0,0,.39-.37v0a.38.38,0,0,0-.39-.39.39.39,0,0,0-.39.39h0a.37.37,0,0,0,.34.39Zm3.6,2.12a.16.16,0,0,0,.16-.16h0a.16.16,0,0,0-.16-.16h0a.16.16,0,0,0-.17.15h0a.15.15,0,0,0,.12.17Zm3.43,2.64a.24.24,0,0,0,0-.48h0a.24.24,0,0,0,0,.48ZM113,18a.24.24,0,1,0-.24-.24h0A.24.24,0,0,0,113,18Zm3.08,3a.27.27,0,1,0-.26-.28v0a.26.26,0,0,0,.25.26Zm5.56,6.49a.22.22,0,0,0,.22-.22h0a.22.22,0,1,0-.44,0h0a.22.22,0,0,0,.21.22Zm2.46,3.42a.12.12,0,0,0,.12-.12h0a.12.12,0,0,0-.12-.12h0a.13.13,0,0,0,0,.25Zm2.22,3.88a.34.34,0,1,0-.33-.35h0a.34.34,0,0,0,.32.34Zm2,3.8a.34.34,0,1,0-.33-.35v0a.33.33,0,0,0,.3.33ZM130,42.32a.14.14,0,1,0-.14-.14h0A.14.14,0,0,0,130,42.32Zm1.48,4.18a.3.3,0,1,0-.29-.31v0a.29.29,0,0,0,.29.29h0Zm1.22,4.22a.4.4,0,1,0-.4-.4h0a.4.4,0,0,0,.4.4h0Zm1,3.91a.12.12,0,0,0,.12-.12h0a.13.13,0,0,0-.25,0h0a.13.13,0,0,0,.12.13Zm.68,4.27a.17.17,0,0,0,.17-.16.18.18,0,0,0-.17-.17.16.16,0,0,0-.16.16h0a.17.17,0,0,0,.15.16Zm.41,4.33A.23.23,0,0,0,135,63a.23.23,0,1,0-.46,0v0a.22.22,0,0,0,.21.22Zm2.88,21a.07.07,0,0,0-.07.06.07.07,0,0,0,.14,0s0-.07-.08-.06h0Zm-6,16ZM122,114.38a.09.09,0,0,0-.1.08h0a.09.09,0,0,0,.08.1h0a.09.09,0,0,0,.09-.09h0A.09.09,0,0,0,122,114.38Zm-9.3,8.88a.09.09,0,0,0-.09.09h0a.1.1,0,0,0,.19,0h0a.09.09,0,0,0-.08-.1Zm-14.56,9.06Zm-4,1.5A.22.22,0,0,0,94,134a.23.23,0,0,0,.22.24.23.23,0,0,0,0-.46h0ZM81.8,137.58a.07.07,0,1,0,.07.07.07.07,0,0,0-.07-.07Zm-4.23.63a.14.14,0,1,0,.14.14h0a.14.14,0,0,0-.09-.14Zm-4.26.4a.19.19,0,1,0,.19.19A.2.2,0,0,0,73.31,138.61Zm-8.58.1a.22.22,0,1,0,.22.22.23.23,0,0,0-.17-.22Zm-4.28-.27a.17.17,0,1,0,.17.17.18.18,0,0,0-.12-.17Zm-4.25-.53a.12.12,0,0,0-.13.11h0a.13.13,0,0,0,.13.13h0a.12.12,0,0,0,.12-.12h0a.12.12,0,0,0-.07-.12Zm-4.2-.83a.13.13,0,0,0,0,.25h0a.13.13,0,0,0,.13-.13h0a.12.12,0,0,0-.12-.12Zm-4.15-1Zm-8.08-3a.14.14,0,1,0,.14.14A.14.14,0,0,0,39.77,133.08ZM28.49,127a.12.12,0,0,0-.12.12h0a.12.12,0,0,0,.12.12h0a.12.12,0,0,0,.13-.11h0A.13.13,0,0,0,28.49,127ZM10,109.28a.16.16,0,0,0-.17.15h0a.18.18,0,0,0,.17.17.17.17,0,0,0,.16-.17.16.16,0,0,0-.16-.16Zm-4.62-7.11h0v0ZM1.65,94.46ZM.14,90.33a.14.14,0,1,0,0,.28h0a.14.14,0,1,0,0-.28Zm0-46.14a.07.07,0,0,0,0-.14.07.07,0,0,0,0,.14Zm9.85-19ZM94.19.57Zm43.47,49.75Z" transform="translate(0 0)"/></g></svg>