<svg id="f63e2520-dd83-4619-87ba-f74dd9718a8f" data-name="Layer 1" xmlns="http://www.w3.org/2000/svg" viewBox="0 0 113.93 114.07"><title>17u</title><g id="e696eb65-3782-4cf2-b1b5-cf07244a7aab" data-name="shapes"><path d="M57.2,55.16a.11.11,0,0,1,.1.11h0a.11.11,0,0,1-.11.1h0a.09.09,0,0,1-.1-.1h0a.09.09,0,0,1,.1-.1h0Zm-.26.11a.1.1,0,0,1-.09.12h0a.1.1,0,0,1-.12-.08h0a.1.1,0,0,1,.08-.12h0A.12.12,0,0,1,56.94,55.27Zm.63-.05h0a.1.1,0,0,1,.08.12h0a.11.11,0,0,1-.13.08h0a.09.09,0,0,1-.07-.12h0a.1.1,0,0,1,.1-.08h0Zm-1,.12a.09.09,0,0,1,0,.12h0a.1.1,0,0,1-.13-.06h0a.12.12,0,0,1,.06-.14h0a.08.08,0,0,1,.12,0s0,0,0,.05Zm1.35,0a.12.12,0,0,1,0,.14h0a.1.1,0,0,1-.14,0h0a.1.1,0,0,1-.05-.13h0a.1.1,0,0,1,.09-.06h0Zm-1.68.13a.1.1,0,0,1,0,.14h0a.12.12,0,0,1-.14,0h0a.11.11,0,0,1,0-.15h.06a.1.1,0,0,1,.09,0Zm2,.07h0a.1.1,0,0,1,0,.14h0a.11.11,0,0,1-.15,0h0a.1.1,0,0,1,0-.14h.08a.06.06,0,0,1,.08,0ZM56,55.68a.1.1,0,0,1,0,.14h0a.1.1,0,0,1-.14,0h0a.1.1,0,0,1,0-.14H56Zm2.57.13a.11.11,0,0,1,0,.15h0a.11.11,0,0,1-.15,0h0a.11.11,0,0,1,0-.15h0a.09.09,0,0,1,.07,0h.08Zm-2.82.13a.09.09,0,0,1,0,.13h0a.1.1,0,0,1-.14,0h0a.11.11,0,0,1,0-.15h.14Zm3,.18a.1.1,0,0,1,0,.14h0a.11.11,0,0,1-.15,0h0a.12.12,0,0,1,0-.14h0A.11.11,0,0,1,58.75,56.12Zm-3.23.12a.12.12,0,0,1,0,.14h0a.1.1,0,0,1-.14,0h0a.11.11,0,0,1,0-.13h0a.1.1,0,0,1,.09-.07h.05Zm3.38.23a.12.12,0,0,1-.07.13h0a.1.1,0,0,1-.13-.06h0a.1.1,0,0,1,.06-.13h0A.12.12,0,0,1,58.9,56.47Zm-3.51.11a.1.1,0,0,1,.08.12h0a.1.1,0,0,1-.12.08h0a.1.1,0,0,1-.09-.09,0,0,0,0,0,0,0h0a.1.1,0,0,1,.1-.08h0Zm3.58.26h0a.1.1,0,0,1-.08.12h0a.1.1,0,0,1-.11-.09h0a.09.09,0,0,1,.07-.11h0a.1.1,0,0,1,.13,0,.06.06,0,0,1,0,0Zm-3.54.2h0a.09.09,0,0,1-.08.1h0a.09.09,0,0,1-.1-.08v0h0a.1.1,0,0,1,.09-.11h0a.1.1,0,0,1,.1.07Zm3.45.07a.09.09,0,0,1,.1.1h0a.09.09,0,0,1-.11.09h0a.09.09,0,0,1-.09-.09v0h0a.11.11,0,0,1,.1-.09h0Zm-3.41.27a.1.1,0,0,1-.08.12h0a.1.1,0,0,1-.12,0v0h0a.11.11,0,0,1,.08-.13h0a.1.1,0,0,1,.12.08Zm3.36.08a.09.09,0,0,1,.07.12h0a.09.09,0,0,1-.12.07h0a.12.12,0,0,1-.07-.13h0a.12.12,0,0,1,.1-.07h0Zm-3.26.24a.1.1,0,0,1,0,.14h0a.11.11,0,0,1-.14-.05h0a.1.1,0,0,1,0-.13h0A.1.1,0,0,1,55.57,57.7Zm3.14.1a.1.1,0,0,1,0,.14h0a.1.1,0,0,1-.14,0h0a.1.1,0,0,1,0-.14h0a.11.11,0,0,1,.09,0h.05Zm-3,.2a.1.1,0,0,1,0,.14h0a.09.09,0,0,1-.13,0h0a.11.11,0,0,1,0-.15h0a.12.12,0,0,1,.16,0v0Zm2.78.11a.11.11,0,0,1,0,.15h0a.11.11,0,0,1-.15,0h0a.1.1,0,0,1,0-.14h.16ZM56,58.25a.11.11,0,0,1,0,.15h0a.11.11,0,0,1-.15,0h0a.1.1,0,0,1,0-.14H56Zm2.32.12a.11.11,0,0,1,0,.15h0a.11.11,0,0,1-.15,0h0a.11.11,0,0,1,0-.15h.15Zm-2,.09a.1.1,0,0,1,0,.14h0a.1.1,0,0,1-.14,0h0a.1.1,0,0,1,0-.14h0a.11.11,0,0,1,.09-.05h0Zm1.76.12a.11.11,0,0,1-.05.14h0a.1.1,0,0,1-.14,0h0a.1.1,0,0,1,0-.14h0a.11.11,0,0,1,.11,0Zm-1.46,0a.09.09,0,0,1,.07.11s0,0,0,0h0a.1.1,0,0,1-.13.06h0a.1.1,0,0,1-.06-.13h0a.12.12,0,0,1,.1-.07h0Zm1.13.12a.1.1,0,0,1-.08.12h0a.1.1,0,0,1-.12,0v0h0a.12.12,0,0,1,.07-.13h0a.12.12,0,0,1,.09.11Zm-.8,0h0a.09.09,0,0,1,.09.11h0a.1.1,0,0,1-.12.08h0a.09.09,0,0,1-.09-.09v0h0a.12.12,0,0,1,.11-.09h0Zm.45.11a.1.1,0,0,1-.09.11h0a.1.1,0,0,1-.11-.09h0a.12.12,0,0,1,.1-.11h0a.13.13,0,0,1,.07.09Z" transform="translate(0 0)"/><path d="M57.2,55.16a.11.11,0,0,1,.1.11h0a.11.11,0,0,1-.11.1h0a.09.09,0,0,1-.1-.1h0a.09.09,0,0,1,.1-.1h0Zm-.26.11a.1.1,0,0,1-.09.12h0a.1.1,0,0,1-.12-.08h0a.1.1,0,0,1,.08-.12h0A.12.12,0,0,1,56.94,55.27Zm.63-.05h0a.1.1,0,0,1,.08.12h0a.11.11,0,0,1-.13.08h0a.09.09,0,0,1-.07-.12h0a.1.1,0,0,1,.1-.08h0Zm-1,.12a.09.09,0,0,1,0,.12h0a.1.1,0,0,1-.13-.06h0a.12.12,0,0,1,.06-.14h0a.08.08,0,0,1,.12,0s0,0,0,.05Zm1.35,0a.12.12,0,0,1,0,.14h0a.1.1,0,0,1-.14,0h0a.1.1,0,0,1-.05-.13h0a.1.1,0,0,1,.09-.06h0Zm-1.68.13a.1.1,0,0,1,0,.14h0a.12.12,0,0,1-.14,0h0a.11.11,0,0,1,0-.15h.06a.1.1,0,0,1,.09,0Zm2,.07h0a.1.1,0,0,1,0,.14h0a.11.11,0,0,1-.15,0h0a.1.1,0,0,1,0-.14h.08a.06.06,0,0,1,.08,0ZM56,55.68a.1.1,0,0,1,0,.14h0a.1.1,0,0,1-.14,0h0a.1.1,0,0,1,0-.14H56Zm2.57.13a.11.11,0,0,1,0,.15h0a.11.11,0,0,1-.15,0h0a.11.11,0,0,1,0-.15h0a.09.09,0,0,1,.07,0h.08Zm-2.82.13a.09.09,0,0,1,0,.13h0a.1.1,0,0,1-.14,0h0a.11.11,0,0,1,0-.15h.14Zm3,.18a.1.1,0,0,1,0,.14h0a.11.11,0,0,1-.15,0h0a.12.12,0,0,1,0-.14h0A.11.11,0,0,1,58.75,56.12Zm-3.23.12a.12.12,0,0,1,0,.14h0a.1.1,0,0,1-.14,0h0a.11.11,0,0,1,0-.13h0a.1.1,0,0,1,.09-.07h.05Zm3.38.23a.12.12,0,0,1-.07.13h0a.1.1,0,0,1-.13-.06h0a.1.1,0,0,1,.06-.13h0A.12.12,0,0,1,58.9,56.47Zm-3.51.11a.1.1,0,0,1,.08.12h0a.1.1,0,0,1-.12.08h0a.1.1,0,0,1-.09-.09,0,0,0,0,0,0,0h0a.1.1,0,0,1,.1-.08h0Zm3.58.26h0a.1.1,0,0,1-.08.12h0a.1.1,0,0,1-.11-.09h0a.09.09,0,0,1,.07-.11h0a.1.1,0,0,1,.13,0,.06.06,0,0,1,0,0Zm-3.54.2h0a.09.09,0,0,1-.08.1h0a.09.09,0,0,1-.1-.08v0h0a.1.1,0,0,1,.09-.11h0a.1.1,0,0,1,.1.07Zm3.45.07a.09.09,0,0,1,.1.1h0a.09.09,0,0,1-.11.09h0a.09.09,0,0,1-.09-.09v0h0a.11.11,0,0,1,.1-.09h0Zm-3.41.27a.1.1,0,0,1-.08.12h0a.1.1,0,0,1-.12,0v0h0a.11.11,0,0,1,.08-.13h0a.1.1,0,0,1,.12.08Zm3.36.08a.09.09,0,0,1,.07.12h0a.09.09,0,0,1-.12.07h0a.12.12,0,0,1-.07-.13h0a.12.12,0,0,1,.1-.07h0Zm-3.26.24a.1.1,0,0,1,0,.14h0a.11.11,0,0,1-.14-.05h0a.1.1,0,0,1,0-.13h0A.1.1,0,0,1,55.57,57.7Zm3.14.1a.1.1,0,0,1,0,.14h0a.1.1,0,0,1-.14,0h0a.1.1,0,0,1,0-.14h0a.11.11,0,0,1,.09,0h.05Zm-3,.2a.1.1,0,0,1,0,.14h0a.09.09,0,0,1-.13,0h0a.11.11,0,0,1,0-.15h0a.12.12,0,0,1,.16,0v0Zm2.78.11a.11.11,0,0,1,0,.15h0a.11.11,0,0,1-.15,0h0a.1.1,0,0,1,0-.14h.16ZM56,58.25a.11.11,0,0,1,0,.15h0a.11.11,0,0,1-.15,0h0a.1.1,0,0,1,0-.14H56Zm2.32.12a.11.11,0,0,1,0,.15h0a.11.11,0,0,1-.15,0h0a.11.11,0,0,1,0-.15h.15Zm-2,.09a.1.1,0,0,1,0,.14h0a.1.1,0,0,1-.14,0h0a.1.1,0,0,1,0-.14h0a.11.11,0,0,1,.09-.05h0Zm1.76.12a.11.11,0,0,1-.05.14h0a.1.1,0,0,1-.14,0h0a.1.1,0,0,1,0-.14h0a.11.11,0,0,1,.11,0Zm-1.46,0a.09.09,0,0,1,.07.11s0,0,0,0h0a.1.1,0,0,1-.13.06h0a.1.1,0,0,1-.06-.13h0a.12.12,0,0,1,.1-.07h0Zm1.13.12a.1.1,0,0,1-.08.12h0a.1.1,0,0,1-.12,0v0h0a.12.12,0,0,1,.07-.13h0a.12.12,0,0,1,.09.11Zm-.8,0h0a.09.09,0,0,1,.09.11h0a.1.1,0,0,1-.12.08h0a.09.09,0,0,1-.09-.09v0h0a.12.12,0,0,1,.11-.09h0Zm.45.11a.1.1,0,0,1-.09.11h0a.1.1,0,0,1-.11-.09h0a.12.12,0,0,1,.1-.11h0a.13.13,0,0,1,.07.09Z" transform="translate(0 0)"/><path d="M57.22,54.8h0a.1.1,0,0,1,.09.11h0a.09.09,0,0,1-.09.09h0a.09.09,0,0,1-.1-.1h0a.11.11,0,0,1,.1-.1h0Zm-.34.12a.09.09,0,0,1-.07.11h0a.1.1,0,0,1-.12-.08h0a.1.1,0,0,1,.08-.12h0a.1.1,0,0,1,.11.09Zm.78-.05h0a.11.11,0,0,1,.08.13h0a.12.12,0,0,1-.13.08h0a.09.09,0,0,1-.07-.12h0a.1.1,0,0,1,.1-.08h0Zm-1.2.13a.1.1,0,0,1-.05.13h0a.1.1,0,0,1-.13-.06h0a.1.1,0,0,1,0-.13h0a.09.09,0,0,1,.12,0S56.46,55,56.46,55Zm1.63,0h0a.1.1,0,0,1,0,.14h0a.11.11,0,0,1-.13,0h0A.1.1,0,0,1,58,55h.13Zm-2,.14a.11.11,0,0,1,0,.15h0a.1.1,0,0,1-.14,0h0a.1.1,0,0,1,0-.14h0l.07,0Zm2.4.1a.09.09,0,0,1,0,.13h0a.1.1,0,0,1-.14,0h0a.12.12,0,0,1,0-.14h0a.14.14,0,0,1,.09,0h0s0,0,0,0Zm-2.76.15a.11.11,0,0,1,0,.15h0a.11.11,0,0,1-.15,0h0a.1.1,0,0,1,0-.14h.08a.09.09,0,0,1,.06,0Zm3.09.16h0a.11.11,0,0,1,0,.15h0a.11.11,0,0,1-.15,0h0a.1.1,0,0,1,0-.14h0a.09.09,0,0,1,.07,0h0l.06,0Zm-3.38.16a.1.1,0,0,1,0,.14h0a.1.1,0,0,1-.14,0h0a.11.11,0,0,1,0-.15h0a.14.14,0,0,1,.09,0h0s0,0,0,0Zm3.64.21a.12.12,0,0,1,0,.14h0a.1.1,0,0,1-.14,0h0a.1.1,0,0,1,0-.14h0a.1.1,0,0,1,.12.08h0Zm-3.87.15a.09.09,0,0,1,0,.13h0a.09.09,0,0,1-.13,0h0a.1.1,0,0,1-.06-.13h0a.12.12,0,0,1,.1-.07h0Zm4,.26a.12.12,0,0,1-.07.13h0a.1.1,0,0,1-.13-.06h0a.1.1,0,0,1,0-.12h0a.12.12,0,0,1,.11.09Zm-4.2.15a.1.1,0,0,1,.08.12h0a.11.11,0,0,1-.12.08h0a.1.1,0,0,1-.09-.09,0,0,0,0,0,0,0h0a.11.11,0,0,1,.1-.09h0Zm4.29.3a.12.12,0,0,1-.1.11h0s-.1,0-.11-.09h0a.1.1,0,0,1,.09-.12h0a.11.11,0,0,1,.1.12h0ZM55.08,57h0a.11.11,0,0,1-.1.1h0a.11.11,0,0,1-.11-.1h0a.11.11,0,0,1,.11-.11h0A.11.11,0,0,1,55.08,57Zm4.15.1a.12.12,0,0,1,.1.12h0a.1.1,0,0,1-.12.09h0c-.05,0-.09-.06-.09-.11h0a.11.11,0,0,1,.1-.1h0Zm-4.11.31a.11.11,0,0,1-.08.13h0a.1.1,0,0,1-.12-.09h0a.1.1,0,0,1,.08-.12h0a.1.1,0,0,1,.12.07v0Zm4.05.12a.12.12,0,0,1,.07.13h0a.09.09,0,0,1-.12.07h0a.09.09,0,0,1-.07-.12h0a.08.08,0,0,1,.1-.07h0Zm-3.92.27a.11.11,0,0,1-.06.14h0a.11.11,0,0,1-.13,0h0a.1.1,0,0,1,0-.14h0a.12.12,0,0,1,.19,0ZM59,58a.11.11,0,0,1,0,.15h0a.12.12,0,0,1-.14,0h0a.1.1,0,0,1,0-.14h0A.1.1,0,0,1,59,58Zm-3.57.23a.11.11,0,0,1,0,.15h0a.1.1,0,0,1-.14,0h0a.11.11,0,0,1,0-.15h.06a.1.1,0,0,1,.1,0Zm3.34.14a.1.1,0,0,1,0,.14h0a.1.1,0,0,1-.14,0h0a.1.1,0,0,1,0-.14h.09a.11.11,0,0,1,.08,0Zm-3.07.17a.11.11,0,0,1,0,.15h0a.11.11,0,0,1-.15,0h0a.11.11,0,0,1,0-.15h.07a.1.1,0,0,1,.1,0Zm2.78.14a.11.11,0,0,1,0,.15h0a.11.11,0,0,1-.15,0h0a.11.11,0,0,1,0-.15h.06a.2.2,0,0,1,.11,0ZM56,58.76h0a.1.1,0,0,1,0,.14h0a.1.1,0,0,1-.14,0h0a.11.11,0,0,1,0-.15H56Zm2.1.14a.1.1,0,0,1,0,.14h0a.1.1,0,0,1-.1,0h0a.1.1,0,0,1,0-.14h0a.11.11,0,0,1,.14,0h0Zm-1.73,0a.1.1,0,0,1,.06.13h0a.1.1,0,0,1-.13.06h0a.09.09,0,0,1-.07-.11v0h0a.1.1,0,0,1,.09-.07h0Zm1.34.13a.11.11,0,0,1-.08.13h0a.12.12,0,0,1-.13-.08h0a.1.1,0,0,1,.08-.12h0a.11.11,0,0,1,.15,0,.11.11,0,0,1,0,.08Zm-.94,0a.1.1,0,0,1,.08.12h0a.1.1,0,0,1-.12.08h0a.08.08,0,0,1-.08-.1h0a.11.11,0,0,1,.1-.09h0Zm.51.12a.1.1,0,0,1-.09.11h0a.1.1,0,0,1-.11-.09h0a.1.1,0,0,1,.09-.11h0a.09.09,0,1,1,.15.11Z" transform="translate(0 0)"/><path d="M57.24,54.38a.09.09,0,0,1,.1.1h0a.11.11,0,0,1-.11.1h0a.09.09,0,0,1-.1-.1h0a.09.09,0,0,1,.1-.1h0Zm-.42.12a.09.09,0,0,1-.07.11h0a.1.1,0,0,1-.12-.08h0a.1.1,0,0,1,.09-.12h0a.1.1,0,0,1,.12.08Zm1,0h0a.1.1,0,0,1,.08.1s0,0,0,0h0a.08.08,0,0,1-.1.07h0a.1.1,0,0,1-.08-.12h0a.1.1,0,0,1,.1-.08h0Zm-1.46.14a.1.1,0,0,1,0,.13h0a.1.1,0,0,1-.13-.06h0a.11.11,0,0,1,.06-.14h0a.08.08,0,0,1,.08,0Zm2,0h0a.1.1,0,0,1,0,.14h0a.1.1,0,0,1-.14,0h0a.12.12,0,0,1,0-.14h.14Zm-2.43.16a.11.11,0,0,1,0,.15h0a.11.11,0,0,1-.15,0h0a.1.1,0,0,1,0-.14h0a.06.06,0,0,1,.06,0Zm2.89.12a.11.11,0,0,1,0,.15h0a.11.11,0,0,1-.15,0h0a.11.11,0,0,1,0-.15h0a.14.14,0,0,1,.09,0h.06Zm-3.31.18a.11.11,0,0,1,0,.15h0a.11.11,0,0,1-.15,0h0a.11.11,0,0,1,0-.15h.15Zm3.7.19a.11.11,0,0,1,0,.15h0a.11.11,0,0,1-.15,0h0a.11.11,0,0,1,0-.15h.15Zm-4,.19a.1.1,0,0,1,0,.14h0a.09.09,0,0,1-.13,0h0a.1.1,0,0,1,0-.14h0a.11.11,0,0,1,.09-.05h0Zm4.36.25a.1.1,0,0,1,0,.14h0a.1.1,0,0,1-.14,0h0a.1.1,0,0,1,0-.14h.14Zm-4.63.19a.11.11,0,0,1,.05.14h0a.11.11,0,0,1-.14.06h0A.11.11,0,0,1,54.8,56h0a.11.11,0,0,1,.1-.06h0Zm4.84.31a.1.1,0,0,1-.06.13h0a.12.12,0,0,1-.13-.07h0a.12.12,0,0,1,.07-.13h0a.11.11,0,0,1,0,.08Zm-5,.18a.1.1,0,0,1,.09.09,0,0,0,0,0,0,0h0a.1.1,0,0,1-.09.09h0a.1.1,0,0,1-.08-.12h0a.1.1,0,0,1,.1-.08h0Zm5.13.34h0a.1.1,0,0,1-.09.12h0a.12.12,0,0,1-.12-.1h0a.11.11,0,0,1,.1-.11h0a.09.09,0,0,1,0,.1Zm-5.1.28h0a.09.09,0,0,1-.1.1h0a.09.09,0,0,1-.1-.08v0h0a.1.1,0,0,1,.09-.11h0a.09.09,0,0,1-.06.08Zm5,.15a.09.09,0,0,1,.09.09v0h0a.09.09,0,0,1-.09.09h0a.09.09,0,0,1-.09-.09v0h0a.11.11,0,0,1,.1-.09h0Zm-5,.35a.1.1,0,0,1-.08.12h0a.1.1,0,0,1-.13-.06v0h0a.11.11,0,0,1,.08-.12h0a.1.1,0,0,1,0,.09Zm4.87.16a.12.12,0,0,1,.07.13h0a.11.11,0,0,1-.14.06h0a.08.08,0,0,1-.06-.11h0a.1.1,0,0,1,.1-.08h0ZM54.86,58a.12.12,0,0,1-.06.14h0a.12.12,0,0,1-.14,0h0a.11.11,0,0,1,.06-.14h0A.12.12,0,0,1,54.86,58Zm4.53.17a.1.1,0,0,1,0,.14h0a.1.1,0,0,1-.14,0h0a.1.1,0,0,1,0-.14h0a.14.14,0,0,1,.09,0h0Zm-4.29.26a.11.11,0,0,1,0,.15h0a.1.1,0,0,1-.14,0h0a.12.12,0,0,1,0-.14h.14Zm4,.18a.1.1,0,0,1,0,.14h0a.11.11,0,0,1-.15,0h0a.11.11,0,0,1,0-.15H59a.1.1,0,0,1,.09,0Zm-3.7.2a.1.1,0,0,1,0,.14h0a.11.11,0,0,1-.15,0h0a.11.11,0,0,1,0-.15h0a.09.09,0,0,1,.07,0h0a.09.09,0,0,1,.1,0Zm3.34.17a.12.12,0,0,1,0,.14h0a.11.11,0,0,1-.15,0h0a.11.11,0,0,1,0-.15h.07a.09.09,0,0,1,.1,0Zm-2.94.13a.11.11,0,0,1,0,.15h0a.12.12,0,0,1-.14,0h0a.1.1,0,0,1,0-.14h.14Zm2.51.16a.1.1,0,0,1,0,.14h0a.1.1,0,0,1-.14,0h0a.12.12,0,0,1,0-.14h0a.11.11,0,0,1,.11.06Zm-2.07.06h0a.1.1,0,0,1,.06.13h0a.1.1,0,0,1-.13.06h0a.1.1,0,0,1-.06-.13h0a.1.1,0,0,1,.1-.07h0Zm1.6.14a.11.11,0,0,1-.08.13h0a.11.11,0,0,1-.13-.08h0a.1.1,0,0,1,.08-.12h0a.12.12,0,0,1,.15.08h0Zm-1.12,0a.09.09,0,0,1,.09.11h0a.1.1,0,0,1-.12.09h0a.12.12,0,0,1-.09-.12h0a.12.12,0,0,1,.11-.09h0Zm.61.12a.1.1,0,0,1-.09.11h0a.1.1,0,0,1-.11-.09h0a.11.11,0,0,1,.1-.11h0a.11.11,0,0,1,.13.09Z" transform="translate(0 0)"/><path d="M57.26,53.87a.09.09,0,0,1,.1.1h0a.09.09,0,0,1-.1.1h0a.11.11,0,0,1-.1-.11h0A.11.11,0,0,1,57.26,53.87Zm-.52.12a.1.1,0,0,1-.08.12h0a.1.1,0,0,1-.12-.09h0a.12.12,0,0,1,.09-.12h0a.11.11,0,0,1,.12.1h0Zm1.16,0a.08.08,0,0,1,.07.1v0h0a.11.11,0,0,1-.13.08h0a.12.12,0,0,1-.07-.13h0a.1.1,0,0,1,.1-.08h0Zm-1.76.15a.11.11,0,0,1-.06.14h0a.11.11,0,0,1-.14-.06h0a.11.11,0,0,1,.06-.14h0a.11.11,0,0,1,.14,0Zm2.36.07h0a.12.12,0,0,1,0,.14h0a.1.1,0,0,1-.14,0h0a.09.09,0,0,1,0-.13h.15Zm-2.93.19a.12.12,0,0,1,0,.14h0a.11.11,0,0,1-.15,0h0a.1.1,0,0,1,0-.14h0a.11.11,0,0,1,.15,0Zm3.47.15a.09.09,0,0,1,0,.13h0a.09.09,0,0,1-.13,0h0a.09.09,0,0,1,0-.13H59l0,0Zm-4,.21a.11.11,0,0,1,0,.15h0a.1.1,0,0,1-.14,0h0a.11.11,0,0,1,0-.15H55a.12.12,0,0,1,.1,0Zm4.44.23a.11.11,0,0,1,0,.15h0a.11.11,0,0,1-.15,0h0a.1.1,0,0,1,0-.14h.07a.08.08,0,0,1,.11,0Zm-4.86.23a.09.09,0,0,1,0,.13h0a.1.1,0,0,1-.14,0h0a.1.1,0,0,1,0-.14h.14Zm5.23.29h0a.12.12,0,0,1,0,.14h0a.11.11,0,0,1-.15,0h0a.11.11,0,0,1,0-.15h.06a.13.13,0,0,1,.12,0Zm-5.55.24a.09.09,0,0,1,.05.13h0a.1.1,0,0,1-.11.06h0a.1.1,0,0,1-.06-.13h0a.12.12,0,0,1,.1-.07h0Zm5.8.35a.1.1,0,0,1-.06.13h0a.1.1,0,0,1-.13-.06h0a.1.1,0,0,1,0-.14A.08.08,0,0,1,60,56h0a.1.1,0,0,1,.13.06v0Zm-6,.24a.1.1,0,0,1,.09.09,0,0,0,0,0,0,0h0a.1.1,0,0,1-.12.08h0a.11.11,0,0,1-.07-.13h0a.1.1,0,0,1,.1-.08h0Zm6.14.39a.1.1,0,0,1-.09.11h0a.1.1,0,0,1-.12-.08h0a.1.1,0,0,1,.09-.11h0a.11.11,0,0,1,.14.07h0Zm-6.1.27h0c0,.06,0,.1-.1.1h0a.1.1,0,0,1-.11-.09h0a.11.11,0,0,1,.11-.11h0a.09.09,0,0,1,.1.1Zm6,.2a.1.1,0,0,1,.09.11h0a.1.1,0,0,1-.11.09h0a.09.09,0,0,1-.1-.1h0a.12.12,0,0,1,.11-.09h0Zm-6,.4a.11.11,0,0,1-.08.13h0a.11.11,0,0,1-.13-.08h0a.12.12,0,0,1,.08-.13h0a.12.12,0,0,1,.2.12Zm5.86.21a.1.1,0,0,1,.06.13h0a.12.12,0,0,1-.13.07h0a.12.12,0,0,1-.07-.13h0a.1.1,0,0,1,.1-.08h0Zm-5.68.36a.1.1,0,0,1,0,.13h0a.1.1,0,0,1-.13-.05h0a.1.1,0,0,1,0-.14h0A.14.14,0,0,1,54.3,58a.15.15,0,0,1,.09.18Zm5.45.22a.1.1,0,0,1,0,.14h0a.1.1,0,0,1-.14,0h0a.1.1,0,0,1,0-.14h0a.1.1,0,0,1,.09-.06h0Zm-5.16.31a.1.1,0,0,1,0,.14h0a.1.1,0,0,1-.14,0h0a.11.11,0,0,1,0-.15h.06a.1.1,0,0,1,.14,0,0,0,0,0,1,0,0Zm4.83.21a.11.11,0,0,1,0,.15h0a.11.11,0,0,1-.15,0h0a.11.11,0,0,1,0-.15h.15ZM55,59.15a.1.1,0,0,1,0,.14h0a.11.11,0,0,1-.15,0h0a.11.11,0,0,1,0-.15h.07a.11.11,0,0,1,.13,0,.08.08,0,0,1,0,0Zm4,.2a.1.1,0,0,1,0,.14h0a.1.1,0,0,1-.14,0h0a.11.11,0,0,1,0-.15h.07a.12.12,0,0,1,.14,0Zm-3.52.17a.1.1,0,0,1,0,.14h0a.1.1,0,0,1-.14,0h0a.1.1,0,0,1,0-.14h0a.11.11,0,0,1,.09-.05h0Zm3,.18a.11.11,0,0,1,0,.14h0a.11.11,0,0,1-.14-.05h0a.11.11,0,0,1,.05-.14h0a.12.12,0,0,1,.22.09ZM56,59.78h0a.1.1,0,0,1,.06.13h0A.1.1,0,0,1,56,60h0a.1.1,0,0,1-.06-.13h0a.12.12,0,0,1,.1-.07h0ZM58,60a.1.1,0,0,1,0,.12h0a.1.1,0,0,1-.13-.06h0a.11.11,0,0,1,.08-.13h0A.1.1,0,0,1,58,60Zm-1.31,0h0a.1.1,0,0,1,.08.11h0a.09.09,0,0,1-.11.09h0a.09.09,0,0,1-.09-.11h0a.11.11,0,0,1,.1-.09h0Zm.71.12a.11.11,0,0,1-.1.11h0a.1.1,0,0,1-.11-.09h0c0-.05,0-.1.09-.11h0a.12.12,0,0,1,.1.07Z" transform="translate(0 0)"/><path d="M57.29,53.26a.09.09,0,0,1,.1.1h0a.09.09,0,0,1-.09.09h0a.11.11,0,0,1-.1-.1h0A.11.11,0,0,1,57.29,53.26Zm-.64.12a.1.1,0,0,1-.08.12h0a.1.1,0,0,1-.12-.08h0a.09.09,0,0,1,.07-.11h0A.11.11,0,0,1,56.65,53.38Zm1.4,0a.09.09,0,0,1,.07.12h0a.08.08,0,0,1-.1.07h0a.1.1,0,0,1-.08-.12h0a.1.1,0,0,1,.1-.08h0Zm-2.13.18a.1.1,0,0,1-.06.13h0a.1.1,0,0,1-.13-.06h0a.1.1,0,0,1,.06-.13h0a.1.1,0,0,1,.13,0Zm2.85.09a.12.12,0,0,1,0,.14h0a.1.1,0,0,1-.14,0h0a.09.09,0,0,1,0-.13h.15Zm-3.53.22a.09.09,0,0,1,0,.13h0a.1.1,0,0,1-.14,0h0a.1.1,0,0,1,0-.14h.06a.08.08,0,0,1,.08,0Zm4.18.18h0a.11.11,0,0,1,0,.15h0a.11.11,0,0,1-.15,0h0a.11.11,0,0,1,0-.15h.15Zm-4.77.26a.11.11,0,0,1,0,.15h0a.1.1,0,0,1-.14,0h0a.1.1,0,0,1,0-.14h.07a.11.11,0,0,1,.08,0Zm5.32.27a.1.1,0,0,1,0,.14h0a.1.1,0,0,1-.14,0h0a.1.1,0,0,1,0-.14h.06a.09.09,0,0,1,.12,0Zm-5.82.28a.12.12,0,0,1,0,.14h0A.11.11,0,0,1,54,55h0a.12.12,0,0,1,0-.14h0a.1.1,0,0,1,.08,0h0Zm6.26.34a.11.11,0,0,1,0,.15h0a.12.12,0,0,1-.14,0h0a.1.1,0,0,1,0-.14h0a.11.11,0,0,1,.14,0Zm-6.65.3a.11.11,0,0,1,.07.13h0a.12.12,0,0,1-.14,0h0a.09.09,0,0,1,0-.13h0a.1.1,0,0,1,.09-.07h0Zm7,.41h0a.1.1,0,0,1-.06.13h0a.1.1,0,0,1-.13-.06h0a.1.1,0,0,1,.06-.13h0a.09.09,0,0,1,.08.06Zm-7.19.29a.1.1,0,0,1,.08.11v0h0a.1.1,0,0,1-.12.08h0a.1.1,0,0,1-.08-.12h0a.11.11,0,0,1,.1-.09h0Zm7.35.46h0c0,.05,0,.11-.09.11h0a.1.1,0,0,1-.12-.09h0a.12.12,0,0,1,.1-.12h0a.11.11,0,0,1,.06.09ZM53.53,57h0a.11.11,0,0,1-.1.11h0a.11.11,0,0,1-.11-.11h0a.11.11,0,0,1,.11-.11h0A.11.11,0,0,1,53.53,57Zm7.25.26a.1.1,0,0,1,.09.11h0a.09.09,0,0,1-.09.09h0a.09.09,0,0,1-.1-.1h0a.12.12,0,0,1,.11-.09h0Zm-7.17.47a.1.1,0,0,1-.08.12h0a.1.1,0,0,1-.13-.06v0h0a.11.11,0,0,1,.08-.12h0a.11.11,0,0,1,.13.09v0Zm7,.26a.09.09,0,0,1,.07.12h0a.09.09,0,0,1-.12.07h0a.09.09,0,0,1-.07-.12h0a.1.1,0,0,1,.1-.07h0Zm-6.82.43a.12.12,0,0,1-.06.14h0a.11.11,0,0,1-.14-.06h0a.11.11,0,0,1,.06-.14h0a.12.12,0,0,1,.16,0,.15.15,0,0,1,0,.09Zm6.55.26a.11.11,0,0,1,0,.15h0a.12.12,0,0,1-.14,0h0a.1.1,0,0,1,0-.14h0a.09.09,0,0,1,.09-.06h.05Zm-6.2.37a.1.1,0,0,1,0,.14h0a.09.09,0,0,1-.13,0h0A.11.11,0,0,1,54,59h.06a.11.11,0,0,1,.12.05Zm5.79.26a.09.09,0,0,1,0,.13h0a.1.1,0,0,1-.14,0h0a.1.1,0,0,1,0-.14h.08a.09.09,0,0,1,.13,0v0Zm-5.32.29a.1.1,0,0,1,0,.14h0a.1.1,0,0,1-.14,0h0a.11.11,0,0,1,0-.15h0a.11.11,0,0,1,.08,0h0a.1.1,0,0,1,.11,0Zm4.8.24a.12.12,0,0,1,0,.14h0a.1.1,0,0,1-.14,0h0a.12.12,0,0,1,0-.14h0a.09.09,0,0,1,.07,0h0a.1.1,0,0,1,.12,0Zm-4.22.2h0a.1.1,0,0,1,0,.14h0a.09.09,0,0,1-.13,0h0a.1.1,0,0,1,0-.14h.14Zm3.6.21a.12.12,0,0,1,0,.14h0a.12.12,0,0,1-.14,0h0a.12.12,0,0,1,0-.14h.05a.11.11,0,0,1,.13,0Zm-3,.1h0a.11.11,0,0,1,.07.14h0a.11.11,0,0,1-.14.06h0a.1.1,0,0,1-.06-.13h0a.1.1,0,0,1,.1-.07h0Zm2.27.18a.12.12,0,0,1-.07.13h0a.11.11,0,0,1-.13-.08h0a.12.12,0,0,1,.07-.13h0a.13.13,0,0,1,.17-.05.14.14,0,0,1,0,.17Zm-1.56,0a.1.1,0,0,1,.08.12h0a.09.09,0,0,1-.11.09h0a.1.1,0,0,1-.08-.12h0a.11.11,0,0,1,.1-.09h0Zm.83.14a.09.09,0,0,1-.1.1h0a.1.1,0,0,1-.11-.09h0a.1.1,0,0,1,.09-.11h0a.14.14,0,0,1,.17,0,.12.12,0,0,1,0,.17h0Z" transform="translate(0 0)"/><path d="M57.33,52.52a.11.11,0,0,1,.1.11h0a.09.09,0,0,1-.1.1h0a.09.09,0,0,1-.1-.1h0A.11.11,0,0,1,57.33,52.52Zm-.79.14a.12.12,0,0,1-.09.12h0a.12.12,0,0,1-.12-.09h0a.1.1,0,0,1,.08-.12h0A.12.12,0,0,1,56.54,52.66Zm1.69,0h0a.11.11,0,0,1,.08.13h0a.12.12,0,0,1-.13.07h0a.09.09,0,0,1-.07-.12h0a.1.1,0,0,1,.1-.07h0Zm-2.56.2a.1.1,0,0,1-.06.13h0a.1.1,0,0,1-.13-.05h0a.1.1,0,0,1,.06-.13h0A.12.12,0,0,1,55.67,52.86Zm3.42.11a.12.12,0,0,1,0,.14h0a.1.1,0,0,1-.14,0h0A.1.1,0,0,1,59,53h0Zm-4.23.27a.1.1,0,0,1,0,.14h0a.12.12,0,0,1-.14,0h0a.11.11,0,0,1,0-.15h.06A.11.11,0,0,1,54.86,53.24Zm5,.22a.12.12,0,0,1,0,.14h0a.1.1,0,0,1-.14,0h0a.1.1,0,0,1,0-.14h.15Zm-5.73.31a.09.09,0,0,1,0,.13h0a.1.1,0,0,1-.14,0h0a.11.11,0,0,1,0-.15h.07a.08.08,0,0,1,.08,0Zm6.39.32h0a.1.1,0,0,1,0,.14h0a.1.1,0,0,1-.14,0h0a.1.1,0,0,1,0-.14h0a.09.09,0,0,1,.07,0h0a.08.08,0,0,1,.09,0Zm-7,.34a.1.1,0,0,1,0,.14h0a.11.11,0,0,1-.15,0h0a.1.1,0,0,1,0-.14h0a.11.11,0,0,1,.09,0h0Zm7.51.41A.1.1,0,0,1,61,55l0,0h0a.1.1,0,0,1-.14,0h0a.1.1,0,0,1,0-.14h0a.08.08,0,0,1,.12,0h0Zm-8,.36a.12.12,0,0,1,0,.14h0a.11.11,0,0,1-.13,0h0a.1.1,0,0,1-.06-.13h0a.12.12,0,0,1,.1-.07h0Zm8.33.47h0a.13.13,0,0,1-.07.14h0a.12.12,0,0,1-.13-.07h0a.1.1,0,0,1,0-.12h0a.12.12,0,0,1,.17,0,.08.08,0,0,1,0,0Zm-8.62.38a.1.1,0,0,1,.08.12h0a.1.1,0,0,1-.12.08h0a.1.1,0,0,1-.08-.12h0a.11.11,0,0,1,.1-.09h0Zm8.8.52a.09.09,0,0,1-.07.11h0a.1.1,0,0,1-.12-.08h0a.1.1,0,0,1,.09-.11h0a.1.1,0,0,1,.14,0,.08.08,0,0,1,0,.09ZM52.8,57h0a.11.11,0,0,1-.11.11h0a.09.09,0,0,1-.1-.1h0a.1.1,0,0,1,.09-.11h0A.11.11,0,0,1,52.8,57Zm8.71.33a.1.1,0,0,1,.09.11h0a.09.09,0,0,1-.1.1h0a.09.09,0,0,1-.09-.11h0a.11.11,0,0,1,.1-.09h0Zm-8.63.55a.12.12,0,0,1-.07.13h0a.11.11,0,0,1-.13-.09h0a.11.11,0,0,1,.08-.12h0a.1.1,0,0,1,.12.07v0Zm8.47.33a.09.09,0,0,1,.07.12h0a.09.09,0,0,1-.12.07h0a.12.12,0,0,1-.07-.13h0a.1.1,0,0,1,.1-.07h0Zm-8.2.5a.12.12,0,0,1,0,.14h0a.12.12,0,0,1-.14,0h0a.1.1,0,0,1,0-.14h0a.11.11,0,0,1,.14,0ZM61,59a.1.1,0,0,1,0,.14h0a.1.1,0,0,1-.14,0h0a.1.1,0,0,1,0-.14H61Zm-7.44.43a.11.11,0,0,1,0,.15h0a.1.1,0,0,1-.14,0h0a.09.09,0,0,1,0-.13h.07a.11.11,0,0,1,.08,0Zm7,.32a.1.1,0,0,1,0,.14h0a.11.11,0,0,1-.15,0h0a.12.12,0,0,1,0-.14h.08a.08.08,0,0,1,0,0Zm-6.38.34a.11.11,0,0,1,0,.15h0a.11.11,0,0,1-.15,0h0a.1.1,0,0,1,0-.14h.08s0,0,0,0Zm5.75.29a.09.09,0,0,1,0,.13h0a.09.09,0,0,1-.13,0h0a.1.1,0,0,1,0-.14h0a.09.09,0,0,1,.07,0h0l0,0Zm-5.06.24a.11.11,0,0,1,0,.15h0a.1.1,0,0,1-.14,0h0a.1.1,0,0,1,0-.14h0a.11.11,0,0,1,.09-.05h.06Zm4.32.25a.12.12,0,0,1,0,.14h0a.11.11,0,0,1-.15.05A.1.1,0,0,1,59,61h0a.09.09,0,0,1,0-.1h0a.11.11,0,0,1,.15.05.07.07,0,0,1,0,0Zm-3.54.14a.1.1,0,0,1,.06.13h0a.1.1,0,0,1-.13.06h0a.1.1,0,0,1-.06-.13h0a.1.1,0,0,1,.09-.07h0Zm2.71.19a.11.11,0,0,1-.08.13h0a.12.12,0,0,1-.13-.07h0a.11.11,0,0,1,.08-.13h0a.12.12,0,0,1,.08.11Zm-1.86,0h0a.12.12,0,0,1,.09.12h0a.1.1,0,0,1-.12.09h0a.1.1,0,0,1-.09-.12h0a.11.11,0,0,1,.1-.09h0Zm1,.14a.1.1,0,0,1-.09.11h0a.1.1,0,0,1-.11-.09h0a.1.1,0,0,1,.09-.11h0a.12.12,0,0,1,.05.15h0Z" transform="translate(0 0)"/><path d="M57.37,51.64a.09.09,0,0,1,.1.1h0a.09.09,0,0,1-.1.1h0a.11.11,0,0,1-.1-.11h0A.11.11,0,0,1,57.37,51.64Zm-1,.14a.1.1,0,0,1-.08.12h0a.1.1,0,0,1-.12-.09h0a.12.12,0,0,1,.09-.11h0a.1.1,0,0,1,.14,0s0,0,0,0Zm2.05,0a.11.11,0,0,1,.08.13h0a.11.11,0,0,1-.13.08h0a.12.12,0,0,1-.07-.13h0a.1.1,0,0,1,.1-.08h0ZM55.36,52a.1.1,0,0,1-.06.13h0a.1.1,0,0,1-.13-.05h0a.1.1,0,0,1,.06-.13h0A.12.12,0,0,1,55.36,52Zm4.12.15h0a.11.11,0,0,1,.05.14h0a.12.12,0,0,1-.14,0h0a.1.1,0,0,1,0-.14h0a.11.11,0,0,1,.09-.06h0Zm-5.09.31a.12.12,0,0,1,0,.14h0a.11.11,0,0,1-.15,0h0a.11.11,0,0,1,0-.15h0a.11.11,0,0,1,.13,0,.08.08,0,0,1,0,0Zm6,.27a.11.11,0,0,1,0,.15h0a.11.11,0,0,1-.15,0h0a.1.1,0,0,1,0-.14h0a.11.11,0,0,1,.08,0h0a.08.08,0,0,1,.09,0Zm-6.88.37a.1.1,0,0,1,0,.14h0a.11.11,0,0,1-.15,0h0a.11.11,0,0,1,0-.15h0a.09.09,0,0,1,.07,0h0a.1.1,0,0,1,.1,0Zm7.67.38h0a.11.11,0,0,1,0,.15h0a.11.11,0,0,1-.15,0h0a.11.11,0,0,1,0-.15h.07a.1.1,0,0,1,.1,0Zm-8.38.42a.12.12,0,0,1,0,.14h0a.11.11,0,0,1-.15,0h0a.11.11,0,0,1,0-.15h.09a.07.07,0,0,1,.08,0Zm9,.48a.12.12,0,0,1,0,.14h0a.1.1,0,0,1-.14,0h0a.12.12,0,0,1,0-.14h0a.11.11,0,0,1,.16,0v0Zm-9.55.44a.12.12,0,0,1,0,.14h0a.1.1,0,0,1-.14,0h0a.11.11,0,0,1,0-.13h0a.1.1,0,0,1,.09-.07h0Zm10,.56h0a.1.1,0,0,1-.06.13h0a.1.1,0,0,1-.13-.06h0a.1.1,0,0,1,.06-.13h0a.11.11,0,0,1,.14.08v0Zm-10.32.46A.1.1,0,0,1,52,56v0h0a.11.11,0,0,1-.13.08h0a.1.1,0,0,1-.08-.12h0a.1.1,0,0,1,.1-.08h0Zm10.54.61a.1.1,0,0,1-.09.11h0a.1.1,0,0,1-.12-.08h0a.1.1,0,0,1,.09-.11h0a.1.1,0,0,1,.12.07v0ZM51.91,57h0a.09.09,0,0,1-.1.1h0A.1.1,0,0,1,51.7,57h0a.11.11,0,0,1,.11-.11h0A.11.11,0,0,1,51.91,57Zm10.48.42a.09.09,0,0,1,.09.09v0h0a.09.09,0,0,1-.1.1h0a.12.12,0,0,1-.1-.12h0a.12.12,0,0,1,.11-.09h0ZM52,58.1a.11.11,0,0,1-.08.13h0a.1.1,0,0,1-.12-.08h0a.11.11,0,0,1,.06-.14h0A.09.09,0,0,1,52,58.1Zm10.18.41a.12.12,0,0,1,.07.13h0a.09.09,0,0,1-.12.07h0a.09.09,0,0,1-.07-.12h0a.1.1,0,0,1,.1-.07h0Zm-9.86.59a.11.11,0,0,1,0,.14h0a.11.11,0,0,1-.14-.05h0a.11.11,0,0,1,0-.14h0a.11.11,0,0,1,.15,0v0Zm9.45.41a.09.09,0,0,1,0,.13h0a.11.11,0,0,1-.15,0h0a.1.1,0,0,1,0-.14h0a.08.08,0,0,1,.08-.06h0ZM52.85,60h0a.11.11,0,0,1,0,.15h0a.11.11,0,0,1-.15,0h0a.11.11,0,0,1,0-.15h.06A.08.08,0,0,1,52.85,60Zm8.35.38a.09.09,0,0,1,0,.13h0a.09.09,0,0,1-.13,0h0a.1.1,0,0,1,0-.14h.15Zm-7.66.41a.11.11,0,0,1,0,.15h0a.1.1,0,0,1-.14,0h0a.11.11,0,0,1,0-.15h.14Zm6.9.34a.1.1,0,0,1,0,.14h0a.09.09,0,0,1-.13,0h0a.09.09,0,0,1,0-.13h.07a.11.11,0,0,1,.08,0Zm-6.07.3a.11.11,0,0,1,0,.15h0a.11.11,0,0,1-.15,0h0a.1.1,0,0,1,0-.14h0a.11.11,0,0,1,.09,0h0Zm5.18.29a.12.12,0,0,1,0,.14h0a.1.1,0,0,1-.14,0h0a.12.12,0,0,1,0-.14h0a.13.13,0,0,1,.14.07Zm-4.23.17h0a.12.12,0,0,1,.06.14h0a.1.1,0,0,1-.13.06h0a.09.09,0,0,1-.07-.12h0a.1.1,0,0,1,.1-.07h0Zm3.23.23a.1.1,0,0,1-.08.12h0a.1.1,0,0,1-.12-.05v0h0a.12.12,0,0,1,.07-.13h0a.1.1,0,0,1,.13.07v0Zm-2.21,0a.11.11,0,0,1,.08.12h0a.09.09,0,0,1-.11.09h0a.1.1,0,0,1-.08-.12h0a.11.11,0,0,1,.1-.09h0Zm1.15.15a.1.1,0,0,1-.09.11h0a.1.1,0,0,1-.11-.09h0c0-.06,0-.1.1-.11h0a.09.09,0,0,1,.11.09.07.07,0,0,1,0,.06Z" transform="translate(0 0)"/><path d="M57.43,50.58a.12.12,0,0,1,.1.11h0a.12.12,0,0,1-.11.1h0a.09.09,0,0,1-.1-.1h0a.09.09,0,0,1,.08-.1h0Zm-1.19.16a.09.09,0,0,1-.07.11h0a.1.1,0,0,1-.12-.08h0a.1.1,0,0,1,.09-.12h0A.1.1,0,0,1,56.24,50.74Zm2.48,0a.08.08,0,0,1,.07.1v0h0a.1.1,0,0,1-.12.08h0a.11.11,0,0,1-.08-.13h0a.1.1,0,0,1,.1-.08h0ZM55,51a.1.1,0,0,1-.06.13h0a.11.11,0,0,1-.14-.06h0a.12.12,0,0,1,.07-.13h0A.12.12,0,0,1,55,51Zm5,.19a.09.09,0,0,1,0,.13h0a.11.11,0,0,1-.14.05h0a.11.11,0,0,1,0-.14h0a.11.11,0,0,1,.1-.06h0Zm-6.11.36a.1.1,0,0,1,0,.14h0a.1.1,0,0,1-.14,0h0a.11.11,0,0,1,0-.15h.06a.18.18,0,0,1,.07.05Zm7.22.33a.1.1,0,0,1,0,.14h0a.12.12,0,0,1-.14,0h0a.1.1,0,0,1,0-.14h0a.11.11,0,0,1,.08,0h.06Zm-8.25.44a.11.11,0,0,1,0,.15h0a.11.11,0,0,1-.15,0h0a.11.11,0,0,1,0-.15h.07a.1.1,0,0,1,.07,0Zm9.2.46a.11.11,0,0,1,.11.12A.12.12,0,0,1,62,53h0a.12.12,0,0,1-.14,0h0a.1.1,0,0,1,0-.14h.07a.11.11,0,0,1,.08,0Zm-10,.5a.11.11,0,0,1,0,.15h0a.11.11,0,0,1-.15,0h0a.12.12,0,0,1,0-.14h0a.11.11,0,0,1,.09,0h0Zm10.8.57a.1.1,0,0,1,0,.14h0a.1.1,0,0,1-.14,0h0a.1.1,0,0,1,0-.14h0a.12.12,0,0,1,.08,0Zm-11.45.55a.1.1,0,0,1,.06.13h0a.11.11,0,0,1-.14.06h0a.12.12,0,0,1,0-.14h0a.09.09,0,0,1,.09-.06h0Zm12,.65a.1.1,0,0,1-.06.13h0a.1.1,0,0,1-.13-.06h0a.1.1,0,0,1,.06-.13h0a.12.12,0,0,1,0,.11ZM51,55.62a.1.1,0,0,1,.08.12h0a.1.1,0,0,1-.12.08h0a.1.1,0,0,1-.09-.09,0,0,0,0,0,0,0h0a.11.11,0,0,1,.1-.09h0Zm12.63.71a.09.09,0,0,1-.07.11h0a.09.09,0,0,1-.11-.07v0h0a.09.09,0,0,1,.07-.11h0a.09.09,0,0,1,0,.13ZM50.85,57h0a.1.1,0,0,1-.09.11h0a.11.11,0,0,1-.11-.11h0a.11.11,0,0,1,.11-.11h0A.11.11,0,0,1,50.85,57Zm12.59.52a.12.12,0,0,1,.1.12h0a.1.1,0,0,1-.12.09h0a.1.1,0,0,1-.09-.11h0a.09.09,0,0,1,.1-.1h0ZM51,58.32h0a.08.08,0,0,1,0,.11h0a.08.08,0,0,1-.11,0,0,0,0,0,1,0,0h0a.1.1,0,0,1,.08-.12h0a.1.1,0,0,1,.12.08Zm12.23.51a.09.09,0,0,1,.07.12h0a.12.12,0,0,1-.13.07h0a.09.09,0,0,1-.07-.12h0a.1.1,0,0,1,.1-.08h0Zm-11.84.69a.1.1,0,0,1,0,.13h0a.09.09,0,0,1-.13,0h0a.1.1,0,0,1,0-.14h0a.14.14,0,0,1,.17,0Zm11.35.5a.11.11,0,0,1,0,.14h0a.11.11,0,0,1-.15,0h0a.1.1,0,0,1,0-.14h0a.15.15,0,0,1,.09-.06h0ZM52,60.63a.1.1,0,0,1,0,.14h0a.1.1,0,0,1-.14,0h0a.11.11,0,0,1,0-.15h.06A.14.14,0,0,1,52,60.63Zm10,.46a.1.1,0,0,1,0,.14h0a.11.11,0,0,1-.15,0h0a.11.11,0,0,1,0-.15H62Zm-9.2.49h0a.1.1,0,0,1,0,.14h0a.11.11,0,0,1-.15,0h0a.11.11,0,0,1,0-.15h.15Zm8.28.41a.1.1,0,0,1,0,.14h0a.12.12,0,0,1-.14,0h0A.1.1,0,0,1,61,62h0a.08.08,0,0,1,.09,0Zm-7.27.37h0a.1.1,0,0,1,0,.14h0a.1.1,0,0,1-.14,0h0a.12.12,0,0,1,0-.14h.14Zm6.2.33a.11.11,0,0,1,0,.14h0a.1.1,0,0,1-.14,0h0a.1.1,0,0,1,0-.14h0a.11.11,0,0,1,.13,0Zm-5,.22A.14.14,0,0,1,55,63h0a.11.11,0,0,1-.14.07h0a.11.11,0,0,1-.06-.14h0a.1.1,0,0,1,.1-.07h0Zm3.87.25a.11.11,0,0,1-.08.13h0a.1.1,0,0,1-.12-.08h0a.1.1,0,0,1,0-.12h0a.1.1,0,0,1,.08.07Zm-2.64.06a.1.1,0,0,1,.09.12h0a.1.1,0,0,1-.12.09h0a.09.09,0,0,1-.09-.11h0a.11.11,0,0,1,.1-.09h0Zm1.37.16a.1.1,0,0,1-.09.11h0a.12.12,0,0,1-.11-.1h0a.1.1,0,0,1,.09-.11h0a.11.11,0,0,1,.06.1Z" transform="translate(0 0)"/><path d="M57.49,49.21a.2.2,0,0,1,.2.2v0h0a.21.21,0,0,1-.22.2h0a.21.21,0,0,1-.19-.22h0a.19.19,0,0,1,.18-.2h0Zm-1.34.25a.21.21,0,0,1-.17.24h0a.21.21,0,0,1-.24-.15v0h0a.21.21,0,0,1,.17-.24h0A.21.21,0,0,1,56.15,49.46Zm2.91,0h0a.22.22,0,0,1,.15.26h0a.21.21,0,0,1-.25.15h0a.21.21,0,0,1-.15-.26h0a.2.2,0,0,1,.2-.15Zm-4.41.37a.21.21,0,0,1-.13.27h0a.22.22,0,0,1-.27-.12h0a.21.21,0,0,1,.13-.27h.07a.22.22,0,0,1,.2.1Zm5.9.18a.22.22,0,0,1,.1.28h0a.21.21,0,0,1-.28.1h0a.21.21,0,0,1-.1-.28h0a.21.21,0,0,1,.19-.12h0Zm-7.31.46a.22.22,0,0,1-.06.29h0a.21.21,0,0,1-.29-.07h0a.21.21,0,0,1,.06-.28h.11a.2.2,0,0,1,.18,0Zm8.66.38a.21.21,0,0,1,0,.29h0a.2.2,0,0,1-.28,0h0a.21.21,0,0,1,0-.29h0a.21.21,0,0,1,.17-.08h0a.23.23,0,0,1,.12.06Zm-9.9.54a.21.21,0,0,1,0,.29h0a.2.2,0,0,1-.28,0h0a.21.21,0,0,1,0-.29h0a.2.2,0,0,1,.15-.06h0a.18.18,0,0,1,.14,0Zm11,.55a.22.22,0,0,1,0,.3h0a.21.21,0,0,1-.29,0h0a.2.2,0,0,1,0-.28h0a.33.33,0,0,1,.14,0h0a.2.2,0,0,1,.15,0Zm-12,.57a.21.21,0,0,1,0,.29h0a.21.21,0,0,1-.28.06h0a.21.21,0,0,1,0-.29h0a.2.2,0,0,1,.17-.09h0A.17.17,0,0,1,51,52.51Zm13,.71a.19.19,0,0,1-.07.27h0a.18.18,0,0,1-.26,0l0,0h0a.19.19,0,0,1,.07-.27h.11A.23.23,0,0,1,64,53.22Zm-13.78.62a.2.2,0,0,1,.11.26h0a.2.2,0,0,1-.26.11h0A.21.21,0,0,1,49.9,54h0a.21.21,0,0,1,.19-.13h0Zm14.41.84a.21.21,0,0,1-.12.26h0a.23.23,0,0,1-.27-.14h0a.21.21,0,0,1,.14-.26h.06a.21.21,0,0,1,.15.14Zm-14.91.62a.19.19,0,0,1,.17.22v0h0a.22.22,0,0,1-.25.17h0a.22.22,0,0,1-.16-.25h0a.2.2,0,0,1,.2-.17h0ZM65,56.23a.22.22,0,0,1-.18.23h0a.21.21,0,0,1-.23-.19h0a.22.22,0,0,1,.18-.23h0a.2.2,0,0,1,.18.19ZM49.68,57h0a.2.2,0,0,1-.19.21h0a.21.21,0,0,1-.21-.21h0a.21.21,0,0,1,.21-.21h0a.2.2,0,0,1,.2.2Zm15,.54a.24.24,0,0,1,.19.23h0a.23.23,0,0,1-.23.19h0a.21.21,0,0,1-.19-.23h0a.21.21,0,0,1,.21-.19h0Zm-14.88,1a.22.22,0,0,1-.16.25h0a.22.22,0,0,1-.25-.17h0a.21.21,0,0,1,.16-.24h0a.21.21,0,0,1,.27.11.19.19,0,0,1,0,.07Zm14.62.55a.21.21,0,0,1,.13.26h0a.19.19,0,0,1-.25.13h0a.21.21,0,0,1-.14-.26h0a.2.2,0,0,1,.2-.14h.07ZM50.3,60h0a.23.23,0,0,1-.11.28h0a.23.23,0,0,1-.28-.11h0a.23.23,0,0,1,.11-.28h.08A.23.23,0,0,1,50.3,60Zm13.59.55a.2.2,0,0,1,.09.27h0a.21.21,0,0,1-.28.09h0a.22.22,0,0,1-.09-.29h0a.21.21,0,0,1,.19-.1h0a.17.17,0,0,1,.1,0ZM51,61.3a.21.21,0,0,1,0,.29h0a.21.21,0,0,1-.29-.05h0a.21.21,0,0,1,.05-.29h.12A.22.22,0,0,1,51,61.3Zm12,.53a.22.22,0,0,1,0,.3h0a.24.24,0,0,1-.3,0h0a.2.2,0,0,1,0-.28h0a.21.21,0,0,1,.16-.08h0A.21.21,0,0,1,63,61.83Zm-11,.6a.22.22,0,0,1,0,.3h0a.21.21,0,0,1-.29,0h0a.22.22,0,0,1,0-.3h0a.2.2,0,0,1,.15-.06h0A.25.25,0,0,1,52,62.43Zm10,.5a.21.21,0,0,1,0,.29h0a.21.21,0,0,1-.29,0h0a.22.22,0,0,1,0-.3h0a.29.29,0,0,1,.13,0h0A.22.22,0,0,1,62,62.93Zm-8.76.42a.21.21,0,0,1,.07.29h0a.22.22,0,0,1-.29.06h0a.19.19,0,0,1-.07-.27h0a.22.22,0,0,1,.18-.1h0l.07,0Zm7.47.44a.21.21,0,0,1-.09.28h0a.21.21,0,0,1-.28-.1h0a.21.21,0,0,1,.09-.28h.09a.2.2,0,0,1,.15.1ZM54.55,64a.21.21,0,0,1,.13.26h0a.22.22,0,0,1-.27.13h0a.21.21,0,0,1-.13-.27h0a.22.22,0,0,1,.2-.14h0Zm4.69.36a.21.21,0,0,1-.15.25h0a.21.21,0,0,1-.25-.15h0a.21.21,0,0,1,.15-.25h0a.2.2,0,0,1,.25.14v0Zm-3.24,0a.2.2,0,0,1,.18.22h0a.21.21,0,0,1-.24.18h0a.21.21,0,0,1-.17-.24h0a.2.2,0,0,1,.2-.18h0Zm1.72.26a.2.2,0,0,1-.18.22h0a.2.2,0,0,1-.22-.18h0a.2.2,0,0,1,.18-.22h0a.19.19,0,0,1,.22.16v0Z" transform="translate(0 0)"/><path d="M57.57,47.68a.23.23,0,0,1,.2.22h0a.21.21,0,0,1-.22.2h0a.21.21,0,0,1-.2-.22h0a.22.22,0,0,1,.21-.2h0ZM55.92,48a.2.2,0,0,1-.17.23h0a.21.21,0,0,1-.24-.18v0h0a.23.23,0,0,1,.18-.24h0a.21.21,0,0,1,.24.17Zm3.52,0a.21.21,0,0,1,.15.25h0a.21.21,0,0,1-.25.15h0a.21.21,0,0,1-.15-.25h0a.2.2,0,0,1,.2-.16h0Zm-5.33.41a.21.21,0,0,1-.12.27h0a.21.21,0,0,1-.27-.13h0a.22.22,0,0,1,.12-.26h.08a.2.2,0,0,1,.19.09Zm7.11.24a.21.21,0,0,1,.1.27h0A.21.21,0,0,1,61,49l0,0h0a.21.21,0,0,1-.1-.28h0a.21.21,0,0,1,.19-.12h0Zm-8.79.54a.21.21,0,0,1-.06.29h0a.21.21,0,0,1-.29-.07h0a.21.21,0,0,1,.07-.29h.11a.21.21,0,0,1,.17,0Zm10.4.46h0a.24.24,0,0,1,0,.3h0a.22.22,0,0,1-.3,0h0a.21.21,0,0,1,0-.29h0a.23.23,0,0,1,.17-.08h0a.2.2,0,0,1,.13,0ZM51,50.26a.22.22,0,0,1,0,.3h0a.22.22,0,0,1-.3,0h0a.22.22,0,0,1,0-.3h0a.17.17,0,0,1,.14,0h0A.22.22,0,0,1,51,50.26Zm13.25.67a.2.2,0,0,1,0,.28h0a.21.21,0,0,1-.29,0h0a.22.22,0,0,1,0-.3h0a.29.29,0,0,1,.13,0h0a.21.21,0,0,1,.11,0Zm-14.49.71a.21.21,0,0,1,0,.29h0a.21.21,0,0,1-.29,0h0a.2.2,0,0,1,0-.28h0a.2.2,0,0,1,.17-.09h0a.16.16,0,0,1,.07.09Zm15.58.84a.21.21,0,0,1-.08.28h0a.21.21,0,0,1-.29-.08h0a.21.21,0,0,1,0-.28h.1a.2.2,0,0,1,.19.08Zm-16.52.76a.2.2,0,0,1,.11.26h0a.2.2,0,0,1-.26.11h0a.2.2,0,0,1-.11-.26h0a.21.21,0,0,1,.19-.13h0l0,0Zm17.27,1a.22.22,0,0,1-.14.26h0a.21.21,0,0,1-.26-.14h0a.21.21,0,0,1,.14-.26h.06a.22.22,0,0,1,.11.12ZM48.18,55a.22.22,0,0,1,.16.25h0a.22.22,0,0,1-.25.16h0a.22.22,0,0,1-.16-.25h0a.21.21,0,0,1,.21-.16h0Zm18.24,1.08a.21.21,0,0,1-.19.23h0a.2.2,0,0,1-.22-.18h0a.2.2,0,0,1,.18-.22h0a.21.21,0,0,1,.23.17ZM48.16,57h0a.21.21,0,0,1-.21.21h0a.21.21,0,0,1-.21-.21h0a.21.21,0,0,1,.21-.21h0A.21.21,0,0,1,48.16,57Zm18.08.7a.21.21,0,0,1,.19.22h0a.23.23,0,0,1-.23.19h0a.21.21,0,0,1-.19-.23h0a.21.21,0,0,1,.21-.19h0ZM48.35,58.87a.22.22,0,0,1-.16.25h0a.22.22,0,0,1-.25-.16h0a.22.22,0,0,1,.16-.25h0A.22.22,0,0,1,48.35,58.87Zm17.56.69a.21.21,0,0,1,.14.26h0a.22.22,0,0,1-.26.14h0a.22.22,0,0,1-.14-.26h0a.21.21,0,0,1,.2-.15h.06Zm-17,1h0a.22.22,0,0,1-.11.27h0a.21.21,0,0,1-.28-.1h0a.22.22,0,0,1,.11-.27h.08a.23.23,0,0,1,.19.15Zm16.32.68a.19.19,0,0,1,.1.25l0,0h0a.2.2,0,0,1-.27.09h0a.21.21,0,0,1-.08-.28h0a.2.2,0,0,1,.18-.11h0a.16.16,0,0,1,.09.07Zm-15.44.89a.21.21,0,0,1,0,.29h0a.2.2,0,0,1-.28,0h0a.21.21,0,0,1,0-.29h.12a.22.22,0,0,1,.16.09Zm14.42.65a.22.22,0,0,1,0,.3h0a.22.22,0,0,1-.3,0h0a.2.2,0,0,1,0-.28h0a.21.21,0,0,1,.16-.08h0a.24.24,0,0,1,.13.11ZM51,63.54a.22.22,0,0,1,0,.3h0a.21.21,0,0,1-.29,0h0a.22.22,0,0,1,0-.3h0a.2.2,0,0,1,.15-.06h0A.35.35,0,0,1,51,63.54Zm11.92.59a.22.22,0,0,1,0,.3h0a.22.22,0,0,1-.3,0h0a.21.21,0,0,1,0-.29h0a.29.29,0,0,1,.13,0h0a.22.22,0,0,1,.14,0Zm-10.49.52a.19.19,0,0,1,.07.27h0a.21.21,0,0,1-.29.07h0a.21.21,0,0,1-.07-.29h0a.21.21,0,0,1,.18-.09h0a.11.11,0,0,1,.08,0Zm9,.5a.2.2,0,0,1-.08.27h0a.21.21,0,0,1-.28-.09h0a.22.22,0,0,1,.1-.28h.09a.24.24,0,0,1,.11.09ZM54,65.44a.22.22,0,0,1,.12.27h0a.21.21,0,0,1-.27.12h0a.21.21,0,0,1-.12-.27h0a.21.21,0,0,1,.19-.13H54Zm5.6.4a.22.22,0,0,1-.15.26h0a.22.22,0,0,1-.26-.15h0a.22.22,0,0,1,.15-.26h.06a.22.22,0,0,1,.23.15Zm-3.85,0a.21.21,0,0,1,.17.24h0a.2.2,0,0,1-.22.18h0a.21.21,0,0,1-.18-.24h0a.22.22,0,0,1,.21-.18h0Zm2,.29a.23.23,0,0,1-.2.22h0a.23.23,0,0,1-.22-.2h0a.21.21,0,0,1,.2-.22h0a.21.21,0,0,1,.27.15.28.28,0,0,1,0,.09Z" transform="translate(0 0)"/><path d="M57.66,45.85a.23.23,0,0,1,.2.22h0a.21.21,0,0,1-.22.2h0a.21.21,0,0,1-.2-.22h0a.22.22,0,0,1,.21-.2h0Zm-2,.29a.21.21,0,0,1-.16.24h0a.2.2,0,0,1-.23-.17h0A.22.22,0,0,1,55.4,46h0a.21.21,0,0,1,.24.14Zm4.26,0h0a.21.21,0,0,1,.15.26h0a.21.21,0,0,1-.25.15h0a.21.21,0,0,1-.16-.24v0h0a.2.2,0,0,1,.2-.15h.05Zm-6.42.47a.21.21,0,0,1-.13.27h0a.2.2,0,0,1-.26-.12h0a.21.21,0,0,1,.12-.27h.07a.21.21,0,0,1,.18.17ZM62,47a.19.19,0,0,1,.1.26h0a.21.21,0,0,1-.28.1h0a.21.21,0,0,1-.1-.28h0a.25.25,0,0,1,.19-.12h0Zm-10.56.63a.19.19,0,0,1,0,.27h0a.22.22,0,0,1-.29-.06h0a.21.21,0,0,1,.07-.29h0a.21.21,0,0,1,.11,0h0a.19.19,0,0,1,.19,0ZM64,48.17h0a.22.22,0,0,1,0,.3h0a.21.21,0,0,1-.29,0h0a.21.21,0,0,1,0-.29h0a.21.21,0,0,1,.17-.08h0A.19.19,0,0,1,64,48.17Zm-14.27.76a.22.22,0,0,1,0,.3h0a.22.22,0,0,1-.3,0h0a.2.2,0,0,1,0-.28h0a.2.2,0,0,1,.14-.06h0a.16.16,0,0,1,.11,0Zm15.91.8h0a.22.22,0,0,1,0,.3h0a.22.22,0,0,1-.3,0h0a.23.23,0,0,1,0-.29h0a.24.24,0,0,1,.14-.05h0a.21.21,0,0,1,.11,0Zm-17.39.86a.21.21,0,0,1,.06.29h0a.2.2,0,0,1-.28,0h0a.21.21,0,0,1-.06-.29h0a.24.24,0,0,1,.18-.09h0a.18.18,0,0,1,.06.09Zm18.69,1a.21.21,0,0,1-.08.28h0a.21.21,0,0,1-.29-.08h0a.21.21,0,0,1,.08-.28h.1a.22.22,0,0,1,.14.08Zm-19.8.92a.23.23,0,0,1,.11.28h0a.23.23,0,0,1-.28.11h0a.23.23,0,0,1-.11-.28h0a.24.24,0,0,1,.2-.12h.08Zm20.69,1.16a.21.21,0,0,1-.12.26h0a.21.21,0,0,1-.26-.14h0a.21.21,0,0,1,.12-.26h.08a.2.2,0,0,1,.14.14Zm-21.4.95a.21.21,0,0,1,.17.24h0a.22.22,0,0,1-.25.16h0a.2.2,0,0,1-.16-.23v0h0a.2.2,0,0,1,.2-.16h0Zm21.86,1.26h0a.21.21,0,0,1-.19.23h0a.2.2,0,0,1-.22-.18h0A.2.2,0,0,1,68,55.7h0a.21.21,0,0,1,.24.16v0ZM46.33,57h0a.21.21,0,0,1-.21.21h0a.21.21,0,0,1-.21-.21h0a.21.21,0,0,1,.21-.21h0A.21.21,0,0,1,46.33,57Zm21.73.88a.21.21,0,0,1,.19.23h0a.22.22,0,0,1-.23.18h0a.21.21,0,0,1-.19-.23h0a.21.21,0,0,1,.21-.18h0Zm-21.5,1.33a.22.22,0,0,1-.17.25h0a.21.21,0,0,1-.24-.15v0h0a.18.18,0,0,1,.13-.23h0a.22.22,0,0,1,.25.17v0Zm21.1.85a.22.22,0,0,1,.14.26h0a.21.21,0,0,1-.26.14h0a.21.21,0,0,1-.15-.24v0h0a.21.21,0,0,1,.2-.15h.06ZM47.22,61.33a.22.22,0,0,1-.11.27h0a.21.21,0,0,1-.28-.1h0a.22.22,0,0,1,.11-.27H47A.23.23,0,0,1,47.22,61.33Zm19.61.83a.22.22,0,0,1,.08.29h0a.21.21,0,0,1-.28.08h0a.21.21,0,0,1-.09-.28h0a.21.21,0,0,1,.19-.11h0ZM48.28,63.23a.2.2,0,0,1,0,.28h0a.22.22,0,0,1-.29-.05h0a.21.21,0,0,1,.05-.29h.12A.22.22,0,0,1,48.28,63.23ZM65.59,64a.22.22,0,0,1,0,.3h0a.22.22,0,0,1-.3,0h0a.23.23,0,0,1,0-.29h0a.21.21,0,0,1,.16-.08h0A.19.19,0,0,1,65.59,64Zm-15.88.86a.22.22,0,0,1,0,.3h0a.22.22,0,0,1-.3,0h0a.22.22,0,0,1,0-.3h0a.2.2,0,0,1,.15-.06h0a.26.26,0,0,1,.15.07ZM64,65.58a.21.21,0,0,1,0,.29h0a.2.2,0,0,1-.28,0h0a.21.21,0,0,1,0-.29h0a.24.24,0,0,1,.12,0h0A.25.25,0,0,1,64,65.58Zm-12.58.62a.22.22,0,0,1,.06.29h0a.19.19,0,0,1-.27.07h0a.21.21,0,0,1-.07-.29h0a.22.22,0,0,1,.18-.1h0Zm10.72.6a.21.21,0,0,1-.1.28h0a.23.23,0,0,1-.29-.1h0a.22.22,0,0,1,.1-.28h.09a.2.2,0,0,1,.22.1Zm-8.76.36a.22.22,0,0,1,.12.27h0a.21.21,0,0,1-.27.12h0a.21.21,0,0,1-.12-.27h0a.21.21,0,0,1,.19-.13h.08Zm6.69.45a.21.21,0,0,1-.15.26h0a.21.21,0,0,1-.25-.15h0a.22.22,0,0,1,.15-.26h0a.2.2,0,0,1,.26.11s0,0,0,0Zm-4.58.09a.2.2,0,0,1,.17.23h0a.2.2,0,0,1-.22.18h0a.21.21,0,0,1-.18-.24h0a.21.21,0,0,1,.21-.18h0Zm2.4.3a.23.23,0,0,1-.2.22h0a.21.21,0,0,1-.22-.2h0a.2.2,0,0,1,.18-.22h0a.22.22,0,0,1,.25.19h0Z" transform="translate(0 0)"/><path d="M57.78,43.56a.32.32,0,0,1,.3.32h0a.31.31,0,0,1-.32.3h0a.31.31,0,0,1-.3-.32h0a.32.32,0,0,1,.31-.29h0Zm-2.37.4a.31.31,0,0,1-.26.35h0a.32.32,0,0,1-.36-.26h0A.3.3,0,0,1,55,43.7h.07a.31.31,0,0,1,.31.3Zm5.07,0a.3.3,0,0,1,.22.38h0a.31.31,0,0,1-.38.22h0a.31.31,0,0,1-.23-.36v0h0a.31.31,0,0,1,.3-.24h.08Zm-7.67.6a.32.32,0,0,1-.18.41h0a.32.32,0,0,1-.4-.19h0a.3.3,0,0,1,.16-.39h0a.21.21,0,0,1,.11,0h0A.32.32,0,0,1,52.81,44.56ZM63,44.91h0a.31.31,0,0,1,.14.41h0a.31.31,0,0,1-.41.14h0a.31.31,0,0,1-.14-.41h0a.3.3,0,0,1,.28-.17h0A.32.32,0,0,1,63,44.91Zm-12.65.77a.32.32,0,0,1-.1.44h0a.32.32,0,0,1-.43-.1h0a.32.32,0,0,1,.1-.44h.17a.31.31,0,0,1,.3.1Zm15,.67h0a.31.31,0,0,1,0,.44h0a.32.32,0,0,1-.44.06h0a.31.31,0,0,1,0-.44h0a.3.3,0,0,1,.24-.12h0a.39.39,0,0,1,.21.06Zm-17.11.92a.31.31,0,0,1,0,.44h0a.33.33,0,0,1-.45,0h0a.31.31,0,0,1,0-.44h0a.31.31,0,0,1,.22-.09h0a.34.34,0,0,1,.24.09Zm19.09,1a.31.31,0,0,1,0,.44h0a.31.31,0,0,1-.44,0h0a.31.31,0,0,1,0-.44h0a.31.31,0,0,1,.21-.07h0a.33.33,0,0,1,.24,0Zm-20.88,1a.32.32,0,0,1,.08.44h0a.33.33,0,0,1-.44.08h0a.33.33,0,0,1-.08-.44h0a.33.33,0,0,1,.26-.13h0a.32.32,0,0,1,.19,0Zm22.45,1.2a.32.32,0,0,1-.12.43h0a.32.32,0,0,1-.43-.12h0a.32.32,0,0,1,.12-.43h0a.22.22,0,0,1,.16,0h0A.33.33,0,0,1,68.9,50.47ZM45.11,51.55a.31.31,0,0,1,.16.41h0a.32.32,0,0,1-.41.17h0a.31.31,0,0,1-.16-.41h0a.3.3,0,0,1,.29-.19h0A.25.25,0,0,1,45.11,51.55ZM70,53a.31.31,0,0,1-.2.39h0a.33.33,0,0,1-.4-.2h0a.32.32,0,0,1,.21-.4h.09A.29.29,0,0,1,70,53ZM44.27,54.1a.32.32,0,0,1,.25.37h0a.32.32,0,0,1-.37.24h0a.32.32,0,0,1-.25-.37h0a.31.31,0,0,1,.31-.25h.06Zm26.28,1.57a.3.3,0,0,1-.26.34h0a.31.31,0,0,1-.34-.28h0a.31.31,0,0,1,.28-.34h0a.3.3,0,0,1,.32.26ZM44.24,57h0a.31.31,0,0,1-.31.31h0a.31.31,0,0,1-.31-.31h0a.31.31,0,0,1,.3-.32h0A.32.32,0,0,1,44.24,57Zm26,1a.32.32,0,0,1,.28.34h0a.32.32,0,0,1-.35.28h0a.32.32,0,0,1-.28-.34h0a.32.32,0,0,1,.32-.28h0ZM44.5,59.67a.31.31,0,0,1-.24.37h0a.32.32,0,0,1-.37-.25h0a.32.32,0,0,1,.24-.37h.07A.31.31,0,0,1,44.5,59.67Zm25.29,1a.33.33,0,0,1,.2.4h0a.31.31,0,0,1-.39.2h0a.31.31,0,0,1-.21-.37v0h0a.3.3,0,0,1,.3-.22h.09Zm-24.5,1.49a.31.31,0,0,1-.16.41h0a.31.31,0,0,1-.41-.16h0a.32.32,0,0,1,.16-.42H45a.31.31,0,0,1,.29.15Zm23.51,1a.32.32,0,0,1,.12.43h0a.31.31,0,0,1-.42.12h0a.32.32,0,0,1-.13-.43h0a.33.33,0,0,1,.28-.16h0a.26.26,0,0,1,.15,0ZM46.56,64.42a.3.3,0,0,1-.06.42h0a.31.31,0,0,1-.43-.07h0a.32.32,0,0,1,.07-.44h0a.31.31,0,0,1,.19,0h0A.33.33,0,0,1,46.56,64.42Zm20.77,1a.31.31,0,0,1,0,.44h0a.31.31,0,0,1-.44,0h0a.31.31,0,0,1,0-.44h0a.32.32,0,0,1,.24-.11h0a.36.36,0,0,1,.2.06Zm-19.07,1a.31.31,0,0,1,0,.44h0a.33.33,0,0,1-.45,0h0a.31.31,0,0,1,0-.44h0a.33.33,0,0,1,.23-.1h0a.29.29,0,0,1,.22.07Zm17.18.86a.31.31,0,0,1,0,.44h0a.31.31,0,0,1-.44,0h0a.31.31,0,0,1,0-.44h0a.37.37,0,0,1,.2-.07h0a.29.29,0,0,1,.24,0ZM50.33,68a.32.32,0,0,1,.1.43h0a.32.32,0,0,1-.44.1h0a.32.32,0,0,1-.1-.43h0a.33.33,0,0,1,.27-.15h0A.34.34,0,0,1,50.33,68Zm12.89.74a.31.31,0,0,1-.13.42h0a.3.3,0,0,1-.41-.12v0h0a.31.31,0,0,1,.13-.42h.15a.33.33,0,0,1,.28.12Zm-10.55.4a.31.31,0,0,1,.18.4h0a.32.32,0,0,1-.4.19h0a.32.32,0,0,1-.19-.4h0a.32.32,0,0,1,.3-.21h0Zm8.07.6a.32.32,0,0,1-.22.38h0a.32.32,0,0,1-.38-.22h0a.31.31,0,0,1,.22-.38h.08a.3.3,0,0,1,.3.21Zm-5.55,0a.3.3,0,0,1,.26.33v0h0a.31.31,0,0,1-.35.26h0a.3.3,0,0,1-.26-.33v0h0a.3.3,0,0,1,.31-.27h0Zm2.93.42a.32.32,0,0,1-.3.33h0a.33.33,0,0,1-.33-.3h0a.32.32,0,0,1,.3-.33h0a.32.32,0,0,1,.33.31v0Z" transform="translate(0 0)"/><path d="M57.91,40.92a.31.31,0,0,1,.3.32h0a.31.31,0,0,1-.32.3h0a.31.31,0,0,1-.29-.33h0a.29.29,0,0,1,.3-.3h0Zm-2.9.43a.32.32,0,0,1-.26.36h0a.33.33,0,0,1-.36-.27h0a.31.31,0,0,1,.26-.35h.05a.32.32,0,0,1,.3.26Zm6.13.06a.31.31,0,0,1,.23.38h0A.33.33,0,0,1,61,42h0a.32.32,0,0,1-.22-.38h0a.32.32,0,0,1,.3-.24h.08Zm-9.24.68a.32.32,0,0,1-.19.4h0a.31.31,0,0,1-.4-.18h0a.31.31,0,0,1,.19-.41h.1A.3.3,0,0,1,51.9,42.09Zm12.3.45a.31.31,0,0,1,.14.41h0a.28.28,0,0,1-.38.15h0a.32.32,0,0,1-.15-.41h0a.33.33,0,0,1,.29-.18h0A.31.31,0,0,1,64.2,42.54Zm-15.2.9a.33.33,0,0,1-.1.44h0a.32.32,0,0,1-.43-.1h0a.31.31,0,0,1,.1-.43h0a.24.24,0,0,1,.16-.05h0A.32.32,0,0,1,49,43.44Zm18,.83h0a.32.32,0,0,1,.06.44h0a.32.32,0,0,1-.44.06h0a.32.32,0,0,1-.06-.44h0a.31.31,0,0,1,.25-.13h0A.32.32,0,0,1,67,44.27ZM46.43,45.36a.31.31,0,0,1,0,.44h0a.31.31,0,0,1-.44,0h0a.3.3,0,0,1,0-.42l0,0h0a.29.29,0,0,1,.21-.09h0A.32.32,0,0,1,46.43,45.36Zm22.91,1.16a.31.31,0,0,1,0,.44h0a.31.31,0,0,1-.44,0h0a.33.33,0,0,1,0-.45h0a.31.31,0,0,1,.2-.07h0A.31.31,0,0,1,69.34,46.52Zm-25,1.22a.33.33,0,0,1,.08.44h0a.32.32,0,0,1-.44.08h0a.32.32,0,0,1-.08-.44h0a.3.3,0,0,1,.26-.13h0a.34.34,0,0,1,.14.05Zm26.91,1.45a.32.32,0,0,1-.12.43h0a.32.32,0,0,1-.43-.12h0a.32.32,0,0,1,.12-.43H71a.33.33,0,0,1,.24.12ZM42.69,50.51a.33.33,0,0,1,.16.41h0a.32.32,0,0,1-.41.17h0a.33.33,0,0,1-.17-.42h0a.33.33,0,0,1,.29-.18h0A.3.3,0,0,1,42.69,50.51ZM72.5,52.19h0a.31.31,0,0,1-.2.39h0a.33.33,0,0,1-.4-.2h0a.31.31,0,0,1,.2-.39h.1A.33.33,0,0,1,72.5,52.19ZM41.67,53.55a.31.31,0,0,1,.25.35v0h0a.32.32,0,0,1-.37.24h0a.3.3,0,0,1-.24-.37h0a.31.31,0,0,1,.3-.25h.07Zm31.48,1.84a.3.3,0,0,1-.26.34h0a.32.32,0,0,1-.35-.28h0a.32.32,0,0,1,.28-.34h0a.31.31,0,0,1,.34.28ZM41.6,57h0a.32.32,0,0,1-.32.32h0A.31.31,0,0,1,41,57h0a.31.31,0,0,1,.3-.32h0A.32.32,0,0,1,41.6,57Zm31.28,1.27a.31.31,0,0,1,.28.34h0a.31.31,0,0,1-.34.28h0a.31.31,0,0,1-.28-.34h0a.31.31,0,0,1,.31-.28h0Zm-31,1.88a.31.31,0,0,1-.24.37h0a.3.3,0,0,1-.36-.22v0h0a.3.3,0,0,1,.22-.36h.08a.31.31,0,0,1,.35.27h0ZM72.3,61.46a.31.31,0,0,1,.21.38h0a.31.31,0,0,1-.39.2h0a.31.31,0,0,1-.21-.38h0a.31.31,0,0,1,.3-.22h0ZM42.86,63.18a.31.31,0,0,1-.16.41h0a.31.31,0,0,1-.41-.16h0a.31.31,0,0,1,.16-.41h0a.29.29,0,0,1,.13,0h0A.32.32,0,0,1,42.86,63.18ZM71.1,64.42a.31.31,0,0,1,.13.42h0a.31.31,0,0,1-.42.12h0a.3.3,0,0,1-.13-.4v0h0a.28.28,0,0,1,.27-.17h0A.42.42,0,0,1,71.1,64.42Zm-26.71,1.5h0a.32.32,0,0,1-.07.44h0a.32.32,0,0,1-.44-.08h0a.31.31,0,0,1,.08-.43h0a.28.28,0,0,1,.18-.06h0A.31.31,0,0,1,44.39,65.92Zm24.94,1.17a.31.31,0,0,1,0,.44h0a.31.31,0,0,1-.44,0h0a.31.31,0,0,1,0-.44h0a.3.3,0,0,1,.23-.11h0A.33.33,0,0,1,69.33,67.09ZM46.44,68.3a.31.31,0,0,1,0,.44h0a.33.33,0,0,1-.45,0h0a.31.31,0,0,1,0-.44h0a.29.29,0,0,1,.23-.1h0A.32.32,0,0,1,46.44,68.3Zm20.62,1a.32.32,0,0,1-.06.44h0a.31.31,0,0,1-.44,0h0a.32.32,0,0,1,0-.44h0a.26.26,0,0,1,.19-.07h0a.33.33,0,0,1,.25.11Zm-18.13.87h0a.33.33,0,0,1,.1.44h0a.32.32,0,0,1-.43.1h0a.3.3,0,0,1-.11-.42v0h0a.3.3,0,0,1,.26-.14h0a.38.38,0,0,1,.17.08Zm15.45.89a.32.32,0,0,1-.15.41h0a.31.31,0,0,1-.42-.13h0A.32.32,0,0,1,64,71h0a.29.29,0,0,1,.13,0h0a.3.3,0,0,1,.25.1Zm-12.63.49a.31.31,0,0,1,.18.4h0a.3.3,0,0,1-.39.19h0a.32.32,0,0,1-.19-.4h0a.32.32,0,0,1,.3-.21h0Zm9.65.68a.31.31,0,0,1-.22.38h0a.31.31,0,0,1-.39-.21h0A.32.32,0,0,1,61,72h.09a.3.3,0,0,1,.3.26Zm-6.62.1a.33.33,0,0,1,.27.36h0a.32.32,0,0,1-.36.26h0a.31.31,0,0,1-.26-.35h0a.3.3,0,0,1,.31-.27h0Zm3.47.45a.33.33,0,0,1-.3.33h0a.31.31,0,0,1-.33-.29h0a.31.31,0,0,1,.29-.33h0a.32.32,0,0,1,.33.31v0Z" transform="translate(0 0)"/><path d="M58.08,37.66h0a.4.4,0,0,1,.39.41v0h0a.41.41,0,0,1-.43.39h0a.42.42,0,0,1-.4-.44h0a.41.41,0,0,1,.42-.39h0Zm-3.45.55a.41.41,0,0,1-.34.47h0a.41.41,0,0,1-.47-.34h0a.4.4,0,0,1,.32-.47h.09A.42.42,0,0,1,54.63,38.21Zm7.33,0a.42.42,0,0,1,.3.5h0a.4.4,0,0,1-.49.3h0a.42.42,0,0,1-.3-.5h0a.42.42,0,0,1,.4-.32h0Zm-11.07.84a.41.41,0,0,1-.24.53h0a.42.42,0,0,1-.54-.24h0a.42.42,0,0,1,.25-.54h.14a.42.42,0,0,1,.39.29Zm14.75.52a.42.42,0,0,1,.19.56h0a.42.42,0,0,1-.56.19h0a.42.42,0,0,1-.19-.56h0a.43.43,0,0,1,.38-.23h0a.37.37,0,0,1,.18.08ZM47.41,40.7a.43.43,0,0,1-.13.58h0a.43.43,0,0,1-.58-.13h0a.42.42,0,0,1,.14-.58h0a.43.43,0,0,1,.22-.06h0A.42.42,0,0,1,47.41,40.7ZM69,41.7a.43.43,0,0,1,.08.59h0a.43.43,0,0,1-.59.07h0a.4.4,0,0,1-.08-.57h0a.44.44,0,0,1,.34-.16h0a.46.46,0,0,1,.28.06ZM44.33,43a.42.42,0,0,1,0,.59h0a.42.42,0,0,1-.59,0h0a.42.42,0,0,1,0-.59h0a.45.45,0,0,1,.29-.12h0A.47.47,0,0,1,44.33,43Zm27.49,1.4h0a.4.4,0,0,1,0,.57h0a.42.42,0,0,1-.59,0h0a.42.42,0,0,1,0-.59h0a.45.45,0,0,1,.27-.1h0a.41.41,0,0,1,.32.1ZM41.76,45.85a.42.42,0,0,1,.1.58h0a.42.42,0,0,1-.58.11h0a.41.41,0,0,1-.1-.58h0a.42.42,0,0,1,.34-.17h0A.4.4,0,0,1,41.76,45.85Zm32.3,1.75a.4.4,0,0,1-.14.56h0a.43.43,0,0,1-.57-.16h0a.43.43,0,0,1,.17-.57h.2A.41.41,0,0,1,74.06,47.6ZM39.82,49.17a.42.42,0,0,1,.22.55h0a.42.42,0,0,1-.54.22h0a.41.41,0,0,1-.22-.54h0a.41.41,0,0,1,.38-.26h0A.33.33,0,0,1,39.82,49.17Zm35.8,2a.43.43,0,0,1-.28.52h0a.41.41,0,0,1-.52-.26h0a.41.41,0,0,1,.26-.52h.14a.42.42,0,0,1,.4.31Zm-37,1.6a.4.4,0,0,1,.32.48h0a.41.41,0,0,1-.47.33h0a.42.42,0,0,1-.32-.5h0a.42.42,0,0,1,.41-.33h.08ZM76.44,55a.42.42,0,0,1-.38.46h0a.41.41,0,0,1-.45-.37h0a.41.41,0,0,1,.36-.46h0a.43.43,0,0,1,.43.41Zm-37.9,2h0a.42.42,0,0,1-.42.42h0A.42.42,0,0,1,37.7,57h0a.42.42,0,0,1,.42-.42h0A.42.42,0,0,1,38.54,57ZM76,58.52a.41.41,0,0,1,.37.45h0a.41.41,0,0,1-.45.37h0a.42.42,0,0,1-.38-.46h0a.41.41,0,0,1,.42-.37h0ZM38.92,60.81a.42.42,0,0,1-.32.5h0a.43.43,0,0,1-.5-.33h0a.43.43,0,0,1,.33-.49h.08A.43.43,0,0,1,38.92,60.81ZM75.36,62.3a.41.41,0,0,1,.27.51h0a.43.43,0,0,1-.52.28h0a.43.43,0,0,1-.28-.52h0a.43.43,0,0,1,.4-.3h0ZM40.05,64.39a.39.39,0,0,1-.2.54h0a.39.39,0,0,1-.54-.2h0a.41.41,0,0,1,.2-.54h0a.43.43,0,0,1,.16,0h0A.44.44,0,0,1,40.05,64.39Zm33.87,1.47a.42.42,0,0,1,.17.57h0a.42.42,0,0,1-.57.16h0a.4.4,0,0,1-.17-.54v0h0a.4.4,0,0,1,.36-.22h0A.46.46,0,0,1,73.92,65.86Zm-32,1.81h0a.43.43,0,0,1-.11.59h0a.42.42,0,0,1-.58-.11h0a.42.42,0,0,1,.1-.58h0a.4.4,0,0,1,.24-.07h0a.44.44,0,0,1,.32.17Zm29.91,1.4a.42.42,0,0,1,0,.59h0a.41.41,0,0,1-.58,0h0a.41.41,0,0,1-.06-.58h0a.43.43,0,0,1,.32-.14h0a.42.42,0,0,1,.28.14ZM44.34,70.52a.41.41,0,0,1,0,.58h0a.4.4,0,0,1-.57,0h0a.41.41,0,0,1,0-.58h0a.43.43,0,0,1,.3-.13h0A.37.37,0,0,1,44.34,70.52Zm24.74,1.26a.41.41,0,0,1-.07.58h0a.41.41,0,0,1-.58-.07h0a.43.43,0,0,1,.07-.59h0a.5.5,0,0,1,.26-.08h0A.42.42,0,0,1,69.08,71.78Zm-21.77,1a.42.42,0,0,1,.14.58h0a.42.42,0,0,1-.58.13h0a.42.42,0,0,1-.13-.57h0a.42.42,0,0,1,.35-.2h0a.43.43,0,0,1,.22.09Zm18.56,1.08a.43.43,0,0,1-.19.56h0a.42.42,0,0,1-.56-.19h0a.42.42,0,0,1,.19-.56h0a.54.54,0,0,1,.18,0h0a.4.4,0,0,1,.38.22Zm-15.18.58a.4.4,0,0,1,.25.51v0h0a.4.4,0,0,1-.52.25h0a.42.42,0,0,1-.25-.54h0a.42.42,0,0,1,.39-.27h0a.47.47,0,0,1,.15.06Zm11.61.84a.42.42,0,0,1-.3.51h0a.43.43,0,0,1-.51-.3h0a.42.42,0,0,1,.3-.51h.11a.42.42,0,0,1,.4.33Zm-8,.09h0a.42.42,0,0,1,.36.47h0a.42.42,0,0,1-.48.35h0a.41.41,0,0,1-.35-.46h0a.42.42,0,0,1,.41-.36h.06Zm4.19.57a.41.41,0,0,1-.38.44h0a.42.42,0,0,1-.44-.39h0a.42.42,0,0,1,.4-.44h0a.41.41,0,0,1,.45.37V76Z" transform="translate(0 0)"/><path d="M58.27,33.87h0a.4.4,0,0,1,.39.41v0h0a.41.41,0,0,1-.42.4h0a.42.42,0,0,1-.4-.44h0a.43.43,0,0,1,.42-.4h0Zm-4.21.58a.43.43,0,0,1-.35.48h0a.43.43,0,0,1-.48-.35h0a.43.43,0,0,1,.35-.48h.06A.42.42,0,0,1,54.06,34.45Zm8.85.12a.43.43,0,0,1,.3.51h0a.43.43,0,0,1-.51.3h0a.42.42,0,0,1-.3-.51h0a.42.42,0,0,1,.4-.31h.11Zm-13.33,1a.43.43,0,0,1-.25.53h0a.42.42,0,0,1-.54-.24h0a.42.42,0,0,1,.25-.54h.14a.43.43,0,0,1,.4.21Zm17.73.67h0a.41.41,0,0,1,.19.55h0a.42.42,0,0,1-.56.2h0a.43.43,0,0,1-.19-.56h0a.42.42,0,0,1,.38-.24h0a.37.37,0,0,1,.18,0ZM45.4,37.48a.43.43,0,0,1-.13.58h0a.43.43,0,0,1-.58-.13h0a.42.42,0,0,1,.14-.58h0a.43.43,0,0,1,.22-.06h0A.42.42,0,0,1,45.4,37.48Zm25.89,1.2a.43.43,0,0,1,.08.59h0a.43.43,0,0,1-.59.07h0a.43.43,0,0,1-.07-.59h0a.42.42,0,0,1,.33-.16h0A.38.38,0,0,1,71.29,38.68ZM41.71,40.24a.41.41,0,0,1,0,.58h0a.42.42,0,0,1-.59,0h0a.41.41,0,0,1,0-.58h0a.4.4,0,0,1,.29-.12h0A.39.39,0,0,1,41.71,40.24Zm33,1.67a.41.41,0,0,1,0,.58h0a.42.42,0,0,1-.59,0h0a.41.41,0,0,1,0-.58h0a.39.39,0,0,1,.27-.11h0a.4.4,0,0,1,.31.11ZM38.64,43.68a.42.42,0,0,1,.11.58h0a.43.43,0,0,1-.59.11h0a.44.44,0,0,1-.1-.58h0a.42.42,0,0,1,.34-.18h0A.4.4,0,0,1,38.64,43.68Zm38.74,2.08h0a.42.42,0,0,1-.16.57h0a.43.43,0,0,1-.57-.17h0a.41.41,0,0,1,.16-.56h0a.39.39,0,0,1,.21-.06h0A.4.4,0,0,1,77.38,45.76Zm-41,1.91a.42.42,0,0,1,.22.55h0a.42.42,0,0,1-.55.22h0a.42.42,0,0,1-.22-.55h0a.41.41,0,0,1,.38-.25h0l.12,0Zm42.91,2.4a.41.41,0,0,1-.26.52h0a.42.42,0,0,1-.53-.27h0a.43.43,0,0,1,.28-.52h.12a.43.43,0,0,1,.35.27ZM34.87,52a.42.42,0,0,1,.32.5h0a.4.4,0,0,1-.48.32h0a.43.43,0,0,1-.32-.49h0a.4.4,0,0,1,.4-.34h.09Zm45.31,2.62a.41.41,0,0,1-.36.46h0a.42.42,0,0,1-.46-.37h0a.43.43,0,0,1,.38-.46h0a.41.41,0,0,1,.45.37v0ZM34.74,57h0a.41.41,0,0,1-.41.41h0a.4.4,0,0,1-.42-.38v0h0a.41.41,0,0,1,.4-.42h0A.42.42,0,0,1,34.74,57Zm45.08,1.9a.42.42,0,0,1,.37.46h0a.42.42,0,0,1-.46.37h0a.42.42,0,0,1-.37-.46h0a.41.41,0,0,1,.41-.37h0ZM35.2,61.59a.41.41,0,0,1-.31.49h0a.41.41,0,0,1-.49-.31h0a.42.42,0,0,1,.32-.5h.09A.42.42,0,0,1,35.2,61.59ZM79,63.43a.41.41,0,0,1,.28.51v0h0a.41.41,0,0,1-.51.27h0a.41.41,0,0,1-.27-.51h0a.42.42,0,0,1,.4-.3h0ZM36.57,65.9a.42.42,0,0,1-.22.55h0a.42.42,0,0,1-.55-.22h0a.42.42,0,0,1,.22-.55h0a.43.43,0,0,1,.16,0h0A.41.41,0,0,1,36.57,65.9Zm40.67,1.8a.42.42,0,0,1,.17.57h0a.41.41,0,0,1-.55.17h0a.41.41,0,0,1-.16-.56h0a.42.42,0,0,1,.36-.22h0A.46.46,0,0,1,77.24,67.7ZM38.77,69.85a.41.41,0,0,1-.09.57h0a.42.42,0,0,1-.58-.1h0a.42.42,0,0,1,.1-.58h0a.41.41,0,0,1,.24-.08h0A.42.42,0,0,1,38.77,69.85Zm35.91,1.69a.4.4,0,0,1,0,.57h0a.42.42,0,0,1-.59,0h0a.41.41,0,0,1,0-.58h0a.41.41,0,0,1,.31-.14h0A.39.39,0,0,1,74.68,71.54Zm-33,1.74a.41.41,0,0,1,0,.58h0a.42.42,0,0,1-.59,0h0a.42.42,0,0,1,0-.59h0a.39.39,0,0,1,.3-.13h0a.43.43,0,0,1,.34.13Zm29.68,1.5a.41.41,0,0,1-.07.58h0a.41.41,0,0,1-.58-.07h0a.43.43,0,0,1,.07-.59h0a.5.5,0,0,1,.26-.08h0a.4.4,0,0,1,.38.16ZM45.31,76a.41.41,0,0,1,.14.56v0h0a.42.42,0,0,1-.57.13h0a.41.41,0,0,1-.14-.56v0h0a.42.42,0,0,1,.35-.19h0A.43.43,0,0,1,45.31,76Zm22.24,1.25a.42.42,0,0,1-.19.56h0a.4.4,0,0,1-.55-.18h0a.41.41,0,0,1,.2-.52h.18a.44.44,0,0,1,.37.19ZM49.37,78a.42.42,0,0,1,.25.54h0a.42.42,0,0,1-.54.24h0a.41.41,0,0,1-.24-.53h0a.41.41,0,0,1,.39-.28h0A.32.32,0,0,1,49.37,78Zm13.89,1a.43.43,0,0,1-.3.51h0a.42.42,0,0,1-.51-.3h0a.42.42,0,0,1,.28-.51h.12A.43.43,0,0,1,63.26,79Zm-9.5.17a.43.43,0,0,1,.35.48h0a.43.43,0,0,1-.48.35h0a.43.43,0,0,1-.35-.48h0a.42.42,0,0,1,.41-.35Zm5,.62a.41.41,0,0,1-.39.43h0a.41.41,0,0,1-.44-.38h0a.42.42,0,0,1,.4-.44h0a.42.42,0,0,1,.4.38Z" transform="translate(0 0)"/><path d="M58.5,29.32h0a.41.41,0,0,1,.39.43h0a.42.42,0,0,1-.44.4h0a.42.42,0,0,1-.39-.44h0a.41.41,0,0,1,.41-.39h0ZM53.36,30a.4.4,0,0,1-.32.47h0a.41.41,0,0,1-.47-.34h0a.43.43,0,0,1,.35-.48H53A.39.39,0,0,1,53.36,30Zm10.69.21a.42.42,0,0,1,.3.5h0a.4.4,0,0,1-.49.3h0a.41.41,0,0,1-.31-.48v0h0a.42.42,0,0,1,.4-.32h0Zm-16,1a.42.42,0,0,1-.25.54h0a.41.41,0,0,1-.53-.24h0a.41.41,0,0,1,.24-.53h0a.38.38,0,0,1,.15,0h0A.41.41,0,0,1,48,31.25Zm21.32.85a.42.42,0,0,1,.2.56h0a.42.42,0,0,1-.56.19h0a.42.42,0,0,1-.2-.55h0a.41.41,0,0,1,.37-.23h0a.33.33,0,0,1,.17,0ZM43,33.62a.42.42,0,0,1-.13.57h0a.43.43,0,0,1-.58-.13h0a.43.43,0,0,1,.13-.58h0a.46.46,0,0,1,.23-.06h0A.42.42,0,0,1,43,33.62Zm31.09,1.45a.43.43,0,0,1,.07.59h0a.4.4,0,0,1-.56.09l0,0h0a.4.4,0,0,1-.08-.57h0a.42.42,0,0,1,.33-.16h0a.44.44,0,0,1,.25.08ZM38.57,36.94a.41.41,0,0,1,0,.58h0a.41.41,0,0,1-.58,0h0A.41.41,0,0,1,38,37h0a.44.44,0,0,1,.29-.11h0A.38.38,0,0,1,38.57,36.94Zm39.58,2a.42.42,0,0,1,0,.59h0a.41.41,0,0,1-.58,0h0a.41.41,0,0,1,0-.58h0a.42.42,0,0,1,.28-.1h0A.41.41,0,0,1,78.15,38.94ZM34.9,41.08a.41.41,0,0,1,.11.57h0a.41.41,0,0,1-.57.11h0a.42.42,0,0,1-.1-.58h0a.42.42,0,0,1,.34-.17h0A.4.4,0,0,1,34.9,41.08Zm46.47,2.46a.42.42,0,0,1-.16.57h0a.42.42,0,0,1-.57-.16h0a.4.4,0,0,1,.14-.56h0a.35.35,0,0,1,.2-.05h0A.44.44,0,0,1,81.37,43.54ZM32.14,45.87a.44.44,0,0,1,.22.55h0a.42.42,0,0,1-.55.22h0a.42.42,0,0,1-.22-.55h0a.41.41,0,0,1,.38-.25h0A.47.47,0,0,1,32.14,45.87ZM83.59,48.7a.43.43,0,0,1-.28.52h0a.41.41,0,0,1-.52-.26h0a.41.41,0,0,1,.26-.52h.14A.41.41,0,0,1,83.59,48.7ZM30.4,51.13a.41.41,0,0,1,.33.47v0h0a.43.43,0,0,1-.49.32h0a.41.41,0,0,1-.33-.47v0h0a.42.42,0,0,1,.41-.33h.08ZM84.72,54.2a.42.42,0,0,1-.37.46h0a.42.42,0,0,1-.46-.38h0a.41.41,0,0,1,.37-.45h0A.42.42,0,0,1,84.72,54.2ZM30.18,57h0a.42.42,0,0,1-.42.42h0a.42.42,0,0,1-.42-.42h0a.42.42,0,0,1,.42-.42h0a.41.41,0,0,1,.42.4Zm54.17,2.32a.4.4,0,0,1,.37.43v0h0a.42.42,0,0,1-.45.38h0a.43.43,0,0,1-.38-.46h0a.43.43,0,0,1,.42-.38h0ZM30.74,62.51a.42.42,0,0,1-.32.5h0a.41.41,0,0,1-.49-.31v0h0a.41.41,0,0,1,.31-.49h.09A.43.43,0,0,1,30.74,62.51Zm52.59,2.28a.42.42,0,0,1,.27.53h0a.41.41,0,0,1-.52.27h0a.41.41,0,0,1-.27-.51h0a.42.42,0,0,1,.4-.3h0ZM32.38,67.71a.42.42,0,0,1-.22.55h0a.41.41,0,0,1-.54-.22h0a.39.39,0,0,1,.2-.54H32A.43.43,0,0,1,32.38,67.71Zm48.85,2.2a.43.43,0,0,1,.17.57h0a.43.43,0,0,1-.57.16h0a.43.43,0,0,1-.17-.57h0a.44.44,0,0,1,.37-.21h0A.35.35,0,0,1,81.23,69.91ZM35,72.46h0a.42.42,0,0,1-.1.58h0a.42.42,0,0,1-.58-.1h0a.41.41,0,0,1,.09-.57h0a.41.41,0,0,1,.24-.08h0A.42.42,0,0,1,35,72.46Zm43.1,2a.41.41,0,0,1,0,.58h0a.42.42,0,0,1-.59,0h0a.42.42,0,0,1,0-.59h0a.41.41,0,0,1,.31-.14h0a.38.38,0,0,1,.32.18ZM38.6,76.58a.42.42,0,0,1,0,.59h0a.41.41,0,0,1-.58,0h0a.42.42,0,0,1,0-.59h0a.44.44,0,0,1,.31-.13h0A.49.49,0,0,1,38.6,76.58Zm35.6,1.8a.41.41,0,0,1-.07.58h0a.43.43,0,0,1-.59-.07h0a.43.43,0,0,1,.07-.59h0a.41.41,0,0,1,.26-.09h0A.43.43,0,0,1,74.2,78.38ZM42.91,79.91a.43.43,0,0,1,.13.58h0a.42.42,0,0,1-.57.13h0a.41.41,0,0,1-.15-.56h0a.43.43,0,0,1,.36-.2h0A.43.43,0,0,1,42.91,79.91Zm26.65,1.47a.42.42,0,0,1-.19.56h0a.42.42,0,0,1-.56-.19h0a.42.42,0,0,1,.19-.56h.18A.41.41,0,0,1,69.56,81.38ZM47.8,82.3a.44.44,0,0,1,.25.54h0a.42.42,0,0,1-.54.25h0a.42.42,0,0,1-.25-.54h0a.41.41,0,0,1,.4-.27h0Zm16.61,1.09a.43.43,0,0,1-.3.51h0a.42.42,0,0,1-.51-.28v0h0a.42.42,0,0,1,.28-.51H64A.42.42,0,0,1,64.41,83.39Zm-11.34.27h0a.42.42,0,0,1,.36.47h0a.42.42,0,0,1-.48.35h0A.41.41,0,0,1,52.6,84v0h0a.42.42,0,0,1,.41-.36h.06Zm5.88.66a.4.4,0,0,1-.37.43h0a.41.41,0,0,1-.44-.38h0a.42.42,0,0,1,.39-.44h0a.41.41,0,0,1,.48.32.22.22,0,0,1,0,.08Z" transform="translate(0 0)"/><path d="M58.77,23.85h0a.43.43,0,0,1,.4.44h0a.42.42,0,0,1-.44.4h0a.42.42,0,0,1-.4-.44h0a.43.43,0,0,1,.42-.4h0Zm-6.24.69a.42.42,0,0,1-.35.48h0a.42.42,0,0,1-.47-.35h0A.4.4,0,0,1,52,24.2h.09A.41.41,0,0,1,52.53,24.54Zm12.88.32a.4.4,0,0,1,.3.49v0h0a.4.4,0,0,1-.49.3h0a.42.42,0,0,1-.29-.51h0a.4.4,0,0,1,.4-.31h.1ZM46.09,26.12a.42.42,0,0,1-.25.54h0a.41.41,0,0,1-.53-.24h0a.4.4,0,0,1,.23-.53h.16A.42.42,0,0,1,46.09,26.12Zm25.63,1.07a.42.42,0,0,1,.19.56h0a.42.42,0,0,1-.56.19h0a.42.42,0,0,1-.19-.56h0a.43.43,0,0,1,.38-.23h0A.39.39,0,0,1,71.72,27.19ZM40.1,29a.4.4,0,0,1-.13.56h0a.42.42,0,0,1-.57-.13h0a.42.42,0,0,1,.13-.58h0a.43.43,0,0,1,.22-.06h0A.43.43,0,0,1,40.1,29Zm37.32,1.77a.4.4,0,0,1,.08.57h0a.43.43,0,0,1-.59.08h0a.43.43,0,0,1-.07-.59h0a.42.42,0,0,1,.33-.16h0a.37.37,0,0,1,.25.07ZM34.8,33a.41.41,0,0,1,0,.58h0a.41.41,0,0,1-.58,0h0a.42.42,0,0,1,0-.59h0a.44.44,0,0,1,.29-.11h0A.38.38,0,0,1,34.8,33Zm47.5,2.4a.4.4,0,0,1,0,.57h0a.42.42,0,0,1-.59,0h0a.41.41,0,0,1,0-.58h0a.38.38,0,0,1,.27-.1h0a.42.42,0,0,1,.32.09ZM30.41,38a.42.42,0,0,1,.11.58h0a.42.42,0,0,1-.58.1h0a.42.42,0,0,1-.11-.58h0a.42.42,0,0,1,.34-.18h0A.41.41,0,0,1,30.41,38Zm55.73,2.92a.4.4,0,0,1-.14.56h0a.41.41,0,0,1-.56-.16h0a.42.42,0,0,1,.16-.57h.2a.4.4,0,0,1,.36.12Zm-59,2.84a.41.41,0,0,1,.23.53v0h0a.42.42,0,0,1-.55.22h0a.42.42,0,0,1-.22-.54h0a.4.4,0,0,1,.38-.26h.13Zm61.66,3.3a.41.41,0,0,1-.26.52h0a.41.41,0,0,1-.52-.26h0a.41.41,0,0,1,.26-.52h.14A.42.42,0,0,1,88.8,47.06ZM25.05,50a.4.4,0,0,1,.32.48h0a.4.4,0,0,1-.48.32h0a.4.4,0,0,1-.32-.48h0A.41.41,0,0,1,25,50h.05Zm65.11,3.61a.43.43,0,0,1-.38.46h0a.41.41,0,0,1-.45-.37h0a.41.41,0,0,1,.36-.46h0a.43.43,0,0,1,.46.4h0ZM24.72,57h0a.42.42,0,0,1-.42.42h0a.42.42,0,0,1-.42-.42h0a.42.42,0,0,1,.42-.42h0A.42.42,0,0,1,24.72,57Zm65.07,2.9a.43.43,0,0,1,.38.46h0a.42.42,0,0,1-.46.37h0a.42.42,0,0,1-.38-.45h0a.43.43,0,0,1,.42-.38h0Zm-64.4,3.73a.42.42,0,0,1-.33.49h0a.43.43,0,0,1-.49-.32h0a.42.42,0,0,1,.32-.5H25A.43.43,0,0,1,25.39,63.63Zm63.16,2.79a.43.43,0,0,1,.28.52h0a.42.42,0,0,1-.52.28h0a.41.41,0,0,1-.31-.49v0h0a.42.42,0,0,1,.4-.3h0ZM27.36,69.87a.42.42,0,0,1-.22.55h0a.42.42,0,0,1-.55-.22h0a.41.41,0,0,1,.22-.54H27A.44.44,0,0,1,27.36,69.87ZM86,72.56a.42.42,0,0,1,.16.57h0a.42.42,0,0,1-.57.16h0a.42.42,0,0,1-.16-.57h0a.41.41,0,0,1,.36-.21h0A.38.38,0,0,1,86,72.56Zm-55.46,3a.42.42,0,0,1-.11.58h0a.41.41,0,0,1-.57-.09h0a.42.42,0,0,1,.11-.58h0a.41.41,0,0,1,.24-.08h0a.42.42,0,0,1,.36.21ZM82.3,78.05a.42.42,0,0,1,0,.59h0a.41.41,0,0,1-.58,0h0a.42.42,0,0,1,0-.59h0A.42.42,0,0,1,82,78h0A.45.45,0,0,1,82.3,78.05Zm-47.46,2.5a.42.42,0,0,1,0,.59h0a.41.41,0,0,1-.58,0h0a.41.41,0,0,1,0-.58h0a.39.39,0,0,1,.3-.13h0A.46.46,0,0,1,34.84,80.55ZM77.55,82.7a.41.41,0,0,1-.07.58h0a.43.43,0,0,1-.59-.07h0a.43.43,0,0,1,.08-.59h0a.38.38,0,0,1,.25-.09h0A.4.4,0,0,1,77.55,82.7ZM40,84.56h0a.41.41,0,0,1,.15.56h0a.42.42,0,0,1-.58.14h0a.43.43,0,0,1-.13-.58h0a.41.41,0,0,1,.35-.19h0A.43.43,0,0,1,40,84.56Zm32,1.73a.4.4,0,0,1-.18.55h0a.42.42,0,0,1-.56-.19h0a.42.42,0,0,1,.19-.56h.19A.4.4,0,0,1,72,86.29ZM45.91,87.44a.4.4,0,0,1,.25.52h0a.42.42,0,0,1-.54.25h0a.42.42,0,0,1-.25-.54h0a.44.44,0,0,1,.4-.27h0Zm19.87,1.24a.41.41,0,0,1-.28.51h0a.42.42,0,0,1-.51-.28v0h0a.39.39,0,0,1,.28-.49h.12A.43.43,0,0,1,65.78,88.68Zm-13.53.38a.43.43,0,0,1,.36.48h0a.43.43,0,0,1-.48.35h0a.43.43,0,0,1-.35-.48h0a.42.42,0,0,1,.41-.35Zm7,.72a.43.43,0,0,1-.4.44h0a.43.43,0,0,1-.44-.4h0a.42.42,0,0,1,.4-.44h0a.41.41,0,0,1,.43.4Z" transform="translate(0 0)"/><path d="M59.1,17.3a.42.42,0,0,1,.4.44h0a.43.43,0,0,1-.44.4h0a.43.43,0,0,1-.4-.44h0a.43.43,0,0,1,.42-.4h0Zm-7.56.76a.41.41,0,0,1-.34.47h0a.42.42,0,0,1-.48-.35h0a.42.42,0,0,1,.35-.47h.07A.42.42,0,0,1,51.54,18.06Zm15.52.45a.39.39,0,0,1,.29.48v0h0a.41.41,0,0,1-.48.31h0a.41.41,0,0,1-.31-.48v0h0a.42.42,0,0,1,.4-.32h0ZM43.81,20a.42.42,0,0,1-.25.54h0a.42.42,0,0,1-.54-.25h0a.4.4,0,0,1,.22-.52h0a.38.38,0,0,1,.15,0h0A.42.42,0,0,1,43.81,20Zm30.8,1.33a.42.42,0,0,1,.19.55h0a.43.43,0,0,1-.55.19h0a.42.42,0,0,1-.2-.55h0a.4.4,0,0,1,.37-.24h0a.41.41,0,0,1,.19,0Zm-38,2.11a.42.42,0,0,1-.12.57h0a.4.4,0,0,1-.56-.11v0h0a.4.4,0,0,1,.11-.56h0a.34.34,0,0,1,.22-.07h0a.4.4,0,0,1,.36.17Zm44.81,2.15a.4.4,0,0,1,.08.57h0a.43.43,0,0,1-.59.08h0a.43.43,0,0,1-.07-.59h0a.42.42,0,0,1,.33-.16h0a.4.4,0,0,1,.26.06ZM30.28,28.22a.41.41,0,0,1,0,.58h0a.41.41,0,0,1-.58,0h0a.41.41,0,0,1,0-.58h0A.4.4,0,0,1,30,28.1h0A.42.42,0,0,1,30.28,28.22Zm57,2.88h0a.42.42,0,0,1,0,.59h0a.41.41,0,0,1-.58,0h0a.42.42,0,0,1,0-.59h0A.47.47,0,0,1,87,31h0a.43.43,0,0,1,.27.1ZM25,34.21a.42.42,0,0,1,.1.58h0a.42.42,0,0,1-.58.11h0a.41.41,0,0,1-.1-.58h0a.42.42,0,0,1,.34-.17h0A.4.4,0,0,1,25,34.21Zm66.85,3.48a.42.42,0,0,1-.16.57h0a.42.42,0,0,1-.57-.16h0a.43.43,0,0,1,.16-.57h0a.54.54,0,0,1,.21-.05h0a.42.42,0,0,1,.39.21Zm-70.8,3.44a.42.42,0,0,1,.22.55h0a.42.42,0,0,1-.55.22h0a.42.42,0,0,1-.22-.55h0a.43.43,0,0,1,.39-.25h0a.63.63,0,0,1,.19,0Zm74,4a.41.41,0,0,1-.26.52h0a.41.41,0,0,1-.52-.26h0a.42.42,0,0,1,.27-.53h.13a.4.4,0,0,1,.4.24ZM18.62,48.71a.4.4,0,0,1,.33.46v0h0a.4.4,0,0,1-.48.32h0a.4.4,0,0,1-.32-.48h0a.42.42,0,0,1,.41-.33h.08ZM96.68,53a.42.42,0,0,1-.37.46h0a.43.43,0,0,1-.46-.38h0a.42.42,0,0,1,.38-.45h0A.42.42,0,0,1,96.68,53ZM18.16,57h0a.42.42,0,0,1-.42.42h0a.41.41,0,0,1-.42-.4h0v0h0a.42.42,0,0,1,.42-.42h0a.42.42,0,0,1,.42.42Zm78.16,3.52a.41.41,0,0,1,.37.45h0a.42.42,0,0,1-.45.38h0a.42.42,0,0,1-.38-.46h0a.43.43,0,0,1,.42-.37h0ZM19,65a.41.41,0,0,1-.31.49h0a.4.4,0,0,1-.48-.29v0h0a.4.4,0,0,1,.29-.48h.11A.41.41,0,0,1,19,65Zm75.86,3.42a.41.41,0,0,1,.27.51h0a.43.43,0,0,1-.52.28h0a.43.43,0,0,1-.28-.53h0a.43.43,0,0,1,.4-.29h0Zm-73.53,4a.39.39,0,0,1-.2.54h0a.39.39,0,0,1-.54-.2h0a.41.41,0,0,1,.2-.54h0a.43.43,0,0,1,.16,0h0A.4.4,0,0,1,21.33,72.47Zm70.43,3.26a.43.43,0,0,1,.16.57h0a.41.41,0,0,1-.55.17h0a.41.41,0,0,1-.16-.56h0a.41.41,0,0,1,.37-.22h0A.46.46,0,0,1,91.76,75.73ZM25.18,79.35a.42.42,0,0,1-.1.58h0a.43.43,0,0,1-.59-.09h0a.42.42,0,0,1,.11-.58h0a.41.41,0,0,1,.24-.08h0A.42.42,0,0,1,25.18,79.35Zm62.1,3a.41.41,0,0,1,0,.58h0a.42.42,0,0,1-.59,0h0a.42.42,0,0,1,0-.59h0A.44.44,0,0,1,87,82.2h0a.4.4,0,0,1,.27.12Zm-56.95,3a.42.42,0,0,1,0,.59h0a.42.42,0,0,1-.59,0h0a.44.44,0,0,1,0-.6h0a.43.43,0,0,1,.3-.13h0a.44.44,0,0,1,.29.11Zm51.25,2.56a.41.41,0,0,1-.07.58h0a.4.4,0,0,1-.56,0l0,0h0a.41.41,0,0,1,.07-.58h0a.41.41,0,0,1,.26-.09h0a.42.42,0,0,1,.33.13Zm-45,2.25a.42.42,0,0,1,.14.58h0a.43.43,0,0,1-.58.13h0A.42.42,0,0,1,36,90.3h0a.42.42,0,0,1,.35-.2h0a.34.34,0,0,1,.2,0Zm38.31,2a.42.42,0,0,1-.19.56h0a.43.43,0,0,1-.55-.19h0a.4.4,0,0,1,.17-.55h.2a.39.39,0,0,1,.35.16ZM43.64,93.6a.4.4,0,0,1,.25.52h0a.42.42,0,0,1-.54.25h0a.44.44,0,0,1-.25-.54h0a.45.45,0,0,1,.4-.27h0ZM67.44,95a.41.41,0,0,1-.3.5h0a.42.42,0,0,1-.51-.29h0a.42.42,0,0,1,.28-.51H67A.43.43,0,0,1,67.44,95Zm-16.17.51a.42.42,0,0,1,.35.48h0a.42.42,0,0,1-.47.35h0a.42.42,0,0,1-.35-.48h0a.42.42,0,0,1,.41-.35Zm8.31.78a.42.42,0,0,1-.39.44h0a.42.42,0,0,1-.44-.4h0a.42.42,0,0,1,.39-.44h0a.42.42,0,0,1,.44.4v0Z" transform="translate(0 0)"/><path d="M59.49,9.44h0a.42.42,0,0,1,.4.44h0a.42.42,0,0,1-.44.39h0a.41.41,0,0,1-.39-.43h0a.41.41,0,0,1,.41-.39h0Zm-9.15.83a.42.42,0,0,1-.35.48h0a.42.42,0,0,1-.48-.35h0a.42.42,0,0,1,.36-.47h.06A.42.42,0,0,1,50.34,10.27ZM69,10.88a.4.4,0,0,1,.3.49v0h0a.4.4,0,0,1-.49.3h0a.4.4,0,0,1-.3-.49v0h0a.4.4,0,0,1,.4-.31H69ZM41.07,12.59a.41.41,0,0,1-.24.53h0a.41.41,0,0,1-.53-.24h0a.42.42,0,0,1,.24-.54h.15A.43.43,0,0,1,41.07,12.59Zm37,1.63a.43.43,0,0,1,.19.56h0a.42.42,0,0,1-.55.2h0a.42.42,0,0,1-.19-.56h0a.41.41,0,0,1,.37-.23h0A.58.58,0,0,1,78.07,14.22ZM32.45,16.73a.4.4,0,0,1-.11.56h0a.4.4,0,0,1-.56-.11v0h0a.42.42,0,0,1,.12-.57h0a.34.34,0,0,1,.22-.07h0A.39.39,0,0,1,32.45,16.73Zm53.8,2.6a.4.4,0,0,1,.09.56l0,0h0a.4.4,0,0,1-.57.08h0a.43.43,0,0,1-.08-.59h0a.42.42,0,0,1,.33-.16h0A.41.41,0,0,1,86.25,19.33Zm-61.4,3.19a.42.42,0,0,1,0,.59h0a.41.41,0,0,1-.58,0h0a.41.41,0,0,1,0-.58h0a.44.44,0,0,1,.29-.11h0A.38.38,0,0,1,24.85,22.52ZM93.24,26a.42.42,0,0,1,0,.59h0a.42.42,0,0,1-.59,0h0a.42.42,0,0,1,0-.59h0a.43.43,0,0,1,.27-.1h0A.41.41,0,0,1,93.24,26ZM18.56,29.71a.42.42,0,0,1,.11.58h0a.42.42,0,0,1-.58.11h0a.42.42,0,0,1-.11-.58h0a.42.42,0,0,1,.34-.18h0A.4.4,0,0,1,18.56,29.71Zm80.2,4.16a.41.41,0,0,1-.16.56h0a.4.4,0,0,1-.56-.14v0h0a.41.41,0,0,1,.16-.56h0a.39.39,0,0,1,.21-.06h0A.42.42,0,0,1,98.76,33.87ZM13.85,38a.41.41,0,0,1,.21.54h0a.4.4,0,0,1-.52.23h0a.4.4,0,0,1-.24-.51s0,0,0,0h0a.43.43,0,0,1,.38-.25h0A.33.33,0,0,1,13.85,38Zm88.72,4.69h0a.4.4,0,0,1-.24.51h0a.4.4,0,0,1-.51-.24v0h0a.41.41,0,0,1,.26-.52h.14a.41.41,0,0,1,.39.3Zm-91.66,4.4a.43.43,0,0,1,.32.49h0a.41.41,0,0,1-.47.33h0a.43.43,0,0,1-.33-.5h0a.43.43,0,0,1,.41-.33h.09Zm93.61,5a.42.42,0,0,1-.38.46h0a.41.41,0,0,1-.45-.37h0a.41.41,0,0,1,.36-.46h0a.43.43,0,0,1,.46.4v0ZM10.28,57h0v0h0a.41.41,0,0,1-.4.42h0a.42.42,0,0,1-.42-.42h0v0h0a.42.42,0,0,1,.42-.42h0a.41.41,0,0,1,.41.41Zm93.87,4.31a.42.42,0,0,1,.38.45h0a.42.42,0,0,1-.46.38h0a.42.42,0,0,1-.37-.46h0a.41.41,0,0,1,.41-.38h0Zm-92.9,5.21h0a.42.42,0,0,1-.32.5h0a.41.41,0,0,1-.49-.31v0h0a.41.41,0,0,1,.31-.49h.09a.42.42,0,0,1,.41.36Zm91.08,4.17a.43.43,0,0,1,.28.52h0a.44.44,0,0,1-.53.28h0a.43.43,0,0,1-.27-.53h0a.43.43,0,0,1,.4-.29h0ZM14.1,75.59a.39.39,0,0,1-.2.54h0a.42.42,0,0,1-.55-.21h0a.41.41,0,0,1,.2-.54h.18A.4.4,0,0,1,14.1,75.59Zm84.55,4a.4.4,0,0,1,.17.54v0h0a.4.4,0,0,1-.55.17h0a.42.42,0,0,1-.17-.57h0a.41.41,0,0,1,.37-.22h0a.34.34,0,0,1,.2,0ZM18.72,83.86h0a.41.41,0,0,1-.09.57h0a.41.41,0,0,1-.57-.09h0a.42.42,0,0,1,.1-.58h0a.41.41,0,0,1,.24-.08h0A.42.42,0,0,1,18.72,83.86Zm74.54,3.58a.42.42,0,0,1,0,.59h0a.42.42,0,0,1-.59,0h0a.41.41,0,0,1,0-.58h0a.37.37,0,0,1,.31-.15h0A.43.43,0,0,1,93.26,87.44ZM24.91,91a.41.41,0,0,1,0,.58h0a.42.42,0,0,1-.59,0h0a.41.41,0,0,1,0-.58h0a.39.39,0,0,1,.3-.13h0A.39.39,0,0,1,24.91,91Zm61.5,3.06a.42.42,0,0,1-.08.58h0a.41.41,0,0,1-.58-.07h0a.4.4,0,0,1,0-.56l0,0h0a.38.38,0,0,1,.25-.09h0a.42.42,0,0,1,.34.2Zm-54,2.72a.42.42,0,0,1,.13.58h0a.41.41,0,0,1-.56.13h0a.41.41,0,0,1-.15-.56h0a.43.43,0,0,1,.36-.2h0a.44.44,0,0,1,.22.1ZM78.35,99.2a.42.42,0,0,1-.19.56h0a.42.42,0,0,1-.56-.19h0a.43.43,0,0,1,.19-.56h0A.5.5,0,0,1,78,99h0a.41.41,0,0,1,.35.24ZM40.92,101a.42.42,0,0,1,.25.53h0a.42.42,0,0,1-.54.25h0a.42.42,0,0,1-.25-.54h0a.41.41,0,0,1,.4-.27h0Zm28.51,1.67a.43.43,0,0,1-.3.51h0a.42.42,0,0,1-.51-.3h0a.42.42,0,0,1,.28-.51H69a.44.44,0,0,1,.41.29Zm-19.34.68a.42.42,0,0,1,.36.47h0a.42.42,0,0,1-.48.35h0a.41.41,0,0,1-.35-.46h0a.42.42,0,0,1,.41-.36h.06Zm9.9.85a.41.41,0,0,1-.38.44h0a.42.42,0,0,1-.44-.4h0a.41.41,0,0,1,.39-.43h0a.41.41,0,0,1,.44.38h0Z" transform="translate(0 0)"/><path d="M60,0a.42.42,0,0,1,.4.44h0A.41.41,0,0,1,60,.83h0a.41.41,0,0,1-.4-.42h0A.42.42,0,0,1,60,0h0ZM48.91.93a.43.43,0,0,1-.36.48h0a.41.41,0,0,1-.47-.34h0a.41.41,0,0,1,.34-.47h.07A.44.44,0,0,1,48.91.93Zm22.48.8a.43.43,0,0,1,.3.51h0a.42.42,0,0,1-.51.3h0a.42.42,0,0,1-.3-.51h0a.42.42,0,0,1,.4-.31h.11Zm-33.61,2a.42.42,0,0,1-.24.54h0A.42.42,0,0,1,37,4h0a.41.41,0,0,1,.24-.53h0a.33.33,0,0,1,.14,0h0a.43.43,0,0,1,.39.25Zm44.44,2a.42.42,0,0,1,.2.55h0a.43.43,0,0,1-.55.19h0a.42.42,0,0,1-.2-.56h0A.46.46,0,0,1,82,5.69h0a.42.42,0,0,1,.22,0Zm-54.77,3a.41.41,0,0,1-.11.57h0a.4.4,0,0,1-.56-.13h0a.4.4,0,0,1,.11-.56h0a.34.34,0,0,1,.22-.07h0a.39.39,0,0,1,.35.18ZM92,11.85a.41.41,0,0,1,.07.58h0a.4.4,0,0,1-.57.08h0a.43.43,0,0,1-.08-.59h0a.42.42,0,0,1,.33-.16h0A.41.41,0,0,1,92,11.85ZM18.34,15.67a.42.42,0,0,1,0,.59h0a.42.42,0,0,1-.59,0h0a.41.41,0,0,1,0-.58h0a.4.4,0,0,1,.29-.12h0A.42.42,0,0,1,18.34,15.67ZM100.4,19.8a.41.41,0,0,1,0,.58h0a.42.42,0,0,1-.59,0h0a.41.41,0,0,1,0-.58h0a.38.38,0,0,1,.27-.1h0A.41.41,0,0,1,100.4,19.8ZM10.8,24.32a.42.42,0,0,1,.11.58h0a.42.42,0,0,1-.58.1h0a.42.42,0,0,1-.11-.58h0a.47.47,0,0,1,.35-.18h0A.4.4,0,0,1,10.8,24.32ZM107,29.27a.42.42,0,0,1-.16.57h0a.42.42,0,0,1-.57-.16h0a.42.42,0,0,1,.16-.57h0a.46.46,0,0,1,.2-.05h0A.44.44,0,0,1,107,29.27ZM5.16,34.3a.42.42,0,0,1,.22.55h0a.42.42,0,0,1-.55.22h0a.42.42,0,0,1-.22-.55h0A.4.4,0,0,1,5,34.27H5A.45.45,0,0,1,5.16,34.3Zm106.43,5.58a.42.42,0,0,1-.27.53h0a.43.43,0,0,1-.53-.27h0a.43.43,0,0,1,.28-.53h.12A.41.41,0,0,1,111.59,39.88ZM1.65,45.22A.4.4,0,0,1,2,45.7H2a.41.41,0,0,1-.47.33h0a.42.42,0,0,1-.32-.5h0a.42.42,0,0,1,.4-.33h.06Zm112.27,6a.43.43,0,0,1-.38.46h0a.42.42,0,0,1-.45-.38h0a.4.4,0,0,1,.35-.45h0a.43.43,0,0,1,.46.35ZM.83,57v.06h0v.06h0a.41.41,0,0,1-.4.42h0A.42.42,0,0,1,0,57.16H0V57.1H0V57H0a.42.42,0,0,1,.42-.42h0A.41.41,0,0,1,.83,57Zm112.72,5.25a.42.42,0,0,1,.38.46h0a.42.42,0,0,1-.46.37h0a.41.41,0,0,1-.37-.45h0a.41.41,0,0,1,.41-.38h0ZM2,68.49a.43.43,0,0,1-.32.49h0a.42.42,0,0,1-.5-.32h0a.42.42,0,0,1,.33-.49h.08A.42.42,0,0,1,2,68.49Zm109.35,5.05a.43.43,0,0,1,.28.53h0a.41.41,0,0,1-.51.27h0a.43.43,0,0,1-.28-.52h0a.43.43,0,0,1,.4-.29h.12ZM5.43,79.34a.42.42,0,0,1-.22.55h0a.42.42,0,0,1-.55-.22h0a.42.42,0,0,1,.22-.55h0a.49.49,0,0,1,.17,0h0A.4.4,0,0,1,5.43,79.34Zm101.49,4.78a.43.43,0,0,1,.16.57h0a.42.42,0,0,1-.57.16h0a.41.41,0,0,1-.16-.56h0a.41.41,0,0,1,.37-.22h0A.46.46,0,0,1,106.92,84.12ZM11,89.27a.43.43,0,0,1-.1.59h0a.42.42,0,0,1-.58-.11h0a.41.41,0,0,1,.09-.57h0a.4.4,0,0,1,.24-.07h0A.42.42,0,0,1,11,89.27Zm89.46,4.32a.41.41,0,0,1,0,.58h0a.42.42,0,0,1-.59,0h0a.41.41,0,0,1-.06-.58h0a.43.43,0,0,1,.32-.14h0a.39.39,0,0,1,.3.14Zm-82,4.31a.4.4,0,0,1,0,.57h0a.41.41,0,0,1-.58,0h0a.42.42,0,0,1,0-.59h0a.44.44,0,0,1,.31-.13h0a.43.43,0,0,1,.23.14Zm73.79,3.66a.42.42,0,0,1-.08.59h0a.41.41,0,0,1-.58-.07h0a.41.41,0,0,1,.07-.58h0a.41.41,0,0,1,.26-.09h0a.45.45,0,0,1,.28.16Zm-64.77,3.29a.43.43,0,0,1,.13.58h0a.43.43,0,0,1-.58.13h0a.42.42,0,0,1-.13-.57h0a.43.43,0,0,1,.36-.2h0a.49.49,0,0,1,.17.06Zm55.1,2.87a.42.42,0,0,1-.19.56h0a.42.42,0,0,1-.56-.19h0a.4.4,0,0,1,.18-.55h0a.54.54,0,0,1,.18,0h0a.44.44,0,0,1,.33.19ZM37.7,109.86a.4.4,0,0,1,.26.5v0h0a.42.42,0,0,1-.54.25h0a.42.42,0,0,1-.24-.54h0a.42.42,0,0,1,.39-.27h0l.09,0Zm34.16,1.94a.42.42,0,0,1-.3.51h0a.42.42,0,0,1-.54-.24.25.25,0,0,1,0-.07h0a.42.42,0,0,1,.3-.51h.1a.43.43,0,0,1,.41.31Zm-23.13.88a.43.43,0,0,1,.35.48h0a.43.43,0,0,1-.48.35h0a.43.43,0,0,1-.35-.48h0a.42.42,0,0,1,.42-.35Zm11.81.95a.43.43,0,0,1-.4.44h0a.43.43,0,0,1-.44-.4h0a.42.42,0,0,1,.4-.44h0a.43.43,0,0,1,.39.4Z" transform="translate(0 0)"/></g></svg>