<svg id="b2edb526-e444-497e-bf0f-2106228239f6" data-name="Layer 1" xmlns="http://www.w3.org/2000/svg" viewBox="0 0 145.03 145.08"><defs><style>.a4153514-ec28-43b5-8b3b-e96b2573281c,.a7eb598c-09ed-4fe6-8ff7-d834ba0adb61,.ae26b8b3-0d0c-4ad5-ac4b-b9ef4493e7c7,.b5137a15-04bc-4125-864b-4a6a14b4bc1a,.bf15a36b-7eab-4024-8698-41e68b4cf808,.e8176de9-ef86-4d8a-8d98-4c06a00088c2,.e9db1a79-9687-48ea-a89f-6fd4e34a9269,.ed44761d-cd96-4c47-8cfe-e58f7e4792f2,.f4092b5d-ba94-4152-896b-37de76696822,.f46c02e0-4d90-49ea-b255-a922f946f948{fill:none;stroke:#000;stroke-miterlimit:10;}.e9db1a79-9687-48ea-a89f-6fd4e34a9269{stroke-width:0.23px;}.a7eb598c-09ed-4fe6-8ff7-d834ba0adb61{stroke-width:0.15px;}.f46c02e0-4d90-49ea-b255-a922f946f948{stroke-width:0.1px;}.a4153514-ec28-43b5-8b3b-e96b2573281c{stroke-width:0.48px;}.bf15a36b-7eab-4024-8698-41e68b4cf808{stroke-width:0.44px;}.b5137a15-04bc-4125-864b-4a6a14b4bc1a{stroke-width:0.4px;}.ed44761d-cd96-4c47-8cfe-e58f7e4792f2{stroke-width:0.36px;}.ae26b8b3-0d0c-4ad5-ac4b-b9ef4493e7c7{stroke-width:0.31px;}.f4092b5d-ba94-4152-896b-37de76696822{stroke-width:0.27px;}.e8176de9-ef86-4d8a-8d98-4c06a00088c2{stroke-width:0.19px;}</style></defs><title>29u</title><g id="fb980111-b031-4ec1-93af-8a246308f6ad" data-name="shapes"><path class="e9db1a79-9687-48ea-a89f-6fd4e34a9269" d="M38.26,21l8.61,8.6a12.16,12.16,0,0,1,0,17.21h0l-.11.12a12.19,12.19,0,0,1-17.1-.1L21,38.26A12.18,12.18,0,0,0,3.81,55.49l8.61,8.61a12.16,12.16,0,0,1,0,17.2h0L3.81,89.93h0A12.18,12.18,0,0,0,21,107.16l8.61-8.61a12.18,12.18,0,0,1,17.2,0h0a12.18,12.18,0,0,1,0,17.23h0l-8.61,8.61h0a12.18,12.18,0,1,0,17.24,17.22h0L64.1,133a12.16,12.16,0,0,1,17.21,0h0l8.61,8.61a12.18,12.18,0,0,0,17.23-17.23h0l-8.62-8.62a12.16,12.16,0,0,1,0-17.2h0a12.17,12.17,0,0,1,17.19,0l8.61,8.61a12.18,12.18,0,0,0,17.23-17.23L133,81.31a12.16,12.16,0,0,1,0-17.2h0l8.61-8.62a12.18,12.18,0,0,0-17.22-17.22l-8.62,8.61a12.17,12.17,0,0,1-17.21,0h0a12.16,12.16,0,0,1,0-17.2h0l8.6-8.66A12.18,12.18,0,0,0,89.94,3.81l-8.62,8.61a12.17,12.17,0,0,1-17.21,0L55.49,3.81A12.18,12.18,0,0,0,38.26,21Z" transform="translate(-0.35 -0.35)"/><path class="e9db1a79-9687-48ea-a89f-6fd4e34a9269" d="M41.29,25.58l7.85,7.85a11.1,11.1,0,0,1,0,15.7h0l-.1.1a11.1,11.1,0,0,1-15.59-.09l-7.87-7.86A11.11,11.11,0,0,0,9.87,57l7.86,7.85a11.11,11.11,0,0,1,0,15.71L9.87,88.42h0a11.11,11.11,0,0,0,15.72,15.71l7.86-7.86a11.11,11.11,0,0,1,15.68,0h0a11.1,11.1,0,0,1,0,15.7h0l-7.85,7.85h0A11.11,11.11,0,1,0,57,135.54h0l7.85-7.85a11.14,11.14,0,0,1,15.72,0l7.85,7.86a11.11,11.11,0,0,0,15.71-15.71L96.27,112a11.09,11.09,0,0,1,0-15.7h0a11.11,11.11,0,0,1,15.68,0l7.86,7.86a11.11,11.11,0,0,0,15.71-15.71l-7.86-7.86a11.11,11.11,0,0,1,0-15.71L135.55,57a11.11,11.11,0,0,0-15.46-16l-.25.25L112,49.15a11.11,11.11,0,0,1-15.7,0h0a11.09,11.09,0,0,1,0-15.68h0l7.85-7.86A11.12,11.12,0,0,0,88.42,9.87h0l-7.86,7.86a11.1,11.1,0,0,1-15.69,0L57,9.87A11.11,11.11,0,0,0,41.29,25.58Z" transform="translate(-0.35 -0.35)"/><path class="e9db1a79-9687-48ea-a89f-6fd4e34a9269" d="M44.46,30.33l7.06,7.06a10,10,0,0,1,0,14.12l-.09.1a10,10,0,0,1-14-.08l-7.07-7.07a10,10,0,0,0-14.6,13.67l.45.45,7.06,7.07a10,10,0,0,1,0,14.11l-7.06,7.07h0A10,10,0,1,0,30.34,101l7.06-7.1a10,10,0,0,1,14.1,0h0a10,10,0,0,1,0,14.13l-7.06,7.06h0a10,10,0,0,0,14.14,14.12l7.06-7.06a10,10,0,0,1,14.12,0l7.06,7.06A10,10,0,1,0,101,115.08L93.89,108a10,10,0,0,1,0-14.11h0a10,10,0,0,1,14.1,0l7.07,7.06A10,10,0,1,0,130,87.62a9.81,9.81,0,0,0-.79-.79l-7.07-7.08a10,10,0,0,1,0-14.11l7.06-7.07a10,10,0,0,0-14.12-14.13l-7,7.08a10,10,0,0,1-14.11,0h0a10,10,0,0,1,0-14.11L101,30.33A10,10,0,0,0,87.08,16l-.24.25-7.07,7.06a10,10,0,0,1-14.11,0L58.59,16.2A10,10,0,0,0,44.46,30.33Z" transform="translate(-0.35 -0.35)"/><path class="e9db1a79-9687-48ea-a89f-6fd4e34a9269" d="M46.94,34.06l6.45,6.44a9.1,9.1,0,0,1,0,12.87h0l-.08.08a9.1,9.1,0,0,1-12.79-.07l-6.45-6.45A9.11,9.11,0,0,0,21.18,59.83h0l6.44,6.44a9.1,9.1,0,0,1,0,12.86h0l-6.44,6.45h0A9.11,9.11,0,0,0,34.06,98.47L40.5,92a9.11,9.11,0,0,1,12.86,0h0a9.1,9.1,0,0,1,0,12.87h0l-6.44,6.44h0A9.11,9.11,0,1,0,59.81,124.2l6.44-6.44a9.1,9.1,0,0,1,12.87,0h0l6.44,6.44a9.11,9.11,0,1,0,12.89-12.88L92,104.91A9.12,9.12,0,0,1,92,92h0a9.11,9.11,0,0,1,12.86,0l6.44,6.44a9.11,9.11,0,0,0,12.88-12.88l-6.45-6.45a9.11,9.11,0,0,1,0-12.87h0l6.44-6.44a9.11,9.11,0,1,0-12.88-12.89l-6.45,6.45a9.11,9.11,0,0,1-12.87,0h0A9.12,9.12,0,0,1,92,40.5l6.45-6.44A9.11,9.11,0,0,0,85.59,21.18l-6.44,6.44a9.11,9.11,0,0,1-12.87,0h0l-6.45-6.44A9.11,9.11,0,0,0,46.94,34.06Z" transform="translate(-0.35 -0.35)"/><path class="e9db1a79-9687-48ea-a89f-6fd4e34a9269" d="M49.36,37.68l5.84,5.84a8.26,8.26,0,0,1,0,11.67h0l-.07.08a8.26,8.26,0,0,1-11.59-.07l-5.85-5.84A8.25,8.25,0,0,0,26,61l5.84,5.84a8.26,8.26,0,0,1,0,11.67h0L26,84.38h0A8.26,8.26,0,0,0,37.68,96.06l5.84-5.84a8.26,8.26,0,0,1,11.66,0h0a8.26,8.26,0,0,1,0,11.67h0l-5.83,5.84h0A8.26,8.26,0,0,0,61,119.41l5.83-5.84a8.27,8.27,0,0,1,11.68,0l5.83,5.84A8.26,8.26,0,0,0,96,107.73l-5.84-5.84a8.26,8.26,0,0,1,0-11.67h0a8.26,8.26,0,0,1,11.66,0l5.84,5.84a8.26,8.26,0,0,0,11.67-11.68l-5.84-5.84a8.26,8.26,0,0,1,0-11.67l5.9-5.87a8.26,8.26,0,0,0-11.67-11.68L101.9,55.2a8.27,8.27,0,0,1-11.67,0h0a8.26,8.26,0,0,1,0-11.67l5.84-5.84A8.26,8.26,0,1,0,84.39,26l-5.84,5.85a8.27,8.27,0,0,1-11.67,0L61,26A8.26,8.26,0,0,0,49.36,37.68Z" transform="translate(-0.35 -0.35)"/><path class="e9db1a79-9687-48ea-a89f-6fd4e34a9269" d="M51.41,40.76l5.33,5.33a7.51,7.51,0,0,1,0,10.62l0,0-.06.07a7.53,7.53,0,0,1-10.57-.06l-5.33-5.33A7.53,7.53,0,1,0,30.12,62.06h0l5.32,5.32a7.53,7.53,0,0,1,0,10.65h0l-5.32,5.32h0A7.53,7.53,0,0,0,40.77,94h0l5.32-5.32a7.54,7.54,0,0,1,10.63,0h0a7.51,7.51,0,0,1,0,10.62l0,0-5.32,5.33h0A7.53,7.53,0,1,0,62.06,115.3h0l5.33-5.3A7.52,7.52,0,0,1,78,110l5.33,5.32A7.54,7.54,0,0,0,94,104.65l-5.33-5.33a7.52,7.52,0,0,1,0-10.63h0a7.54,7.54,0,0,1,10.63,0L104.65,94A7.53,7.53,0,0,0,115.3,83.36L110,78a7.53,7.53,0,0,1,0-10.65L115.32,62a7.53,7.53,0,0,0-10.64-10.65l-5.33,5.33a7.54,7.54,0,0,1-10.64,0h0a7.52,7.52,0,0,1,0-10.63h0L94,40.76A7.53,7.53,0,0,0,83.36,30.11L78,35.44a7.54,7.54,0,0,1-10.64,0L62,30.11A7.53,7.53,0,0,0,51.41,40.76Z" transform="translate(-0.35 -0.35)"/><path class="e9db1a79-9687-48ea-a89f-6fd4e34a9269" d="M53.58,44l4.78,4.78a6.77,6.77,0,0,1,0,9.57l-.06.06a6.77,6.77,0,0,1-9.5-.06L44,53.57a6.76,6.76,0,1,0-9.56,9.57l4.78,4.79a6.75,6.75,0,0,1,0,9.55h0l-4.78,4.79h0A6.76,6.76,0,0,0,44,91.84l4.78-4.79a6.8,6.8,0,0,1,9.56,0h0a6.77,6.77,0,0,1,0,9.57l-4.78,4.78h0a6.78,6.78,0,1,0,9.59,9.6h0l4.78-4.78a6.76,6.76,0,0,1,9.56,0L82.27,111a6.76,6.76,0,1,0,9.57-9.56l-4.79-4.79a6.77,6.77,0,0,1,0-9.57h0a6.78,6.78,0,0,1,9.55,0l4.78,4.79a6.8,6.8,0,1,0,9.62-9.6l-4.79-4.79a6.77,6.77,0,0,1,0-9.55L111,63.14a6.77,6.77,0,0,0-9.57-9.57l-4.78,4.79a6.78,6.78,0,0,1-9.56,0h0a6.77,6.77,0,0,1,0-9.55L91.84,44a6.76,6.76,0,1,0-9.56-9.57h0l-4.79,4.79a6.78,6.78,0,0,1-9.56,0l-4.78-4.79a6.77,6.77,0,1,0-9.85,9.29Z" transform="translate(-0.35 -0.35)"/><path class="a7eb598c-09ed-4fe6-8ff7-d834ba0adb61" d="M55.26,46.54l4.36,4.36a6.16,6.16,0,0,1,0,8.71h0v.06a6.18,6.18,0,0,1-8.66,0l-4.37-4.37A6.17,6.17,0,1,0,37.82,64l4.36,4.37a6.13,6.13,0,0,1,0,8.68l0,0-4.35,4.37h0a6.17,6.17,0,0,0,8.73,8.73h0l4.36-4.37a6.17,6.17,0,0,1,8.71,0h0a6.16,6.16,0,0,1,0,8.71h0L55.27,98.9h0A6.17,6.17,0,0,0,64,107.6l4.36-4.36a6.16,6.16,0,0,1,8.71,0h0l4.36,4.36a6.17,6.17,0,0,0,8.73-8.72L85.8,94.51a6.16,6.16,0,0,1,0-8.72h0a6.17,6.17,0,0,1,8.71,0l4.36,4.37a6.17,6.17,0,0,0,8.73-8.73h0l-4.37-4.37a6.17,6.17,0,0,1,0-8.71L107.61,64a6.17,6.17,0,0,0-8.73-8.72l-4.36,4.36a6.16,6.16,0,0,1-8.72,0h0a6.16,6.16,0,0,1,0-8.72l4.36-4.37a6.17,6.17,0,0,0-8.73-8.72l-4.36,4.36a6.16,6.16,0,0,1-8.71,0h0L64,37.81a6.17,6.17,0,0,0-8.73,8.73h0Z" transform="translate(-0.35 -0.35)"/><path class="a7eb598c-09ed-4fe6-8ff7-d834ba0adb61" d="M57,49.17l3.92,3.93a5.54,5.54,0,0,1,0,7.82l0,0V61a5.56,5.56,0,0,1-7.79-.05l-4-3.94a5.55,5.55,0,0,0-8.1,7.59c.08.09.17.17.25.25l3.92,3.93a5.53,5.53,0,0,1,0,7.81l0,0-3.92,3.93h0a5.55,5.55,0,1,0,7.85,7.85l3.92-3.93a5.56,5.56,0,0,1,7.83,0h0a5.54,5.54,0,0,1,0,7.82l0,0L57,96.24h0a5.55,5.55,0,0,0,7.85,7.84l3.92-3.92a5.55,5.55,0,0,1,7.84,0l3.92,3.92a5.55,5.55,0,0,0,7.85-7.84l-3.93-3.93a5.54,5.54,0,0,1,0-7.83h0a5.56,5.56,0,0,1,7.83,0L96.2,88.4a5.55,5.55,0,0,0,7.85-7.85h0l-3.93-3.93a5.54,5.54,0,0,1,0-7.83l3.93-3.93A5.55,5.55,0,0,0,96.24,57l-3.92,3.92a5.54,5.54,0,0,1-7.83,0h0a5.54,5.54,0,0,1,0-7.83h0l3.92-3.93a5.55,5.55,0,0,0-7.85-7.84l-3.92,3.92a5.55,5.55,0,0,1-7.84,0L64.87,41.3A5.56,5.56,0,0,0,57,49.17Z" transform="translate(-0.35 -0.35)"/><path class="f46c02e0-4d90-49ea-b255-a922f946f948" d="M58.4,51.25,62,54.82A5.05,5.05,0,0,1,62,62l0,0v0a5.08,5.08,0,0,1-7.1,0L51.25,58.4a5.06,5.06,0,1,0-7.44,6.86,4,4,0,0,0,.29.29l3.57,3.58a5,5,0,0,1,.08,7.07l-.08.08L44.1,79.86h0A5.06,5.06,0,0,0,51.25,87l3.57-3.58a5.06,5.06,0,0,1,7.15,0h0a5.05,5.05,0,0,1,0,7.14h0l-3.57,3.6h0a5.06,5.06,0,1,0,7.05,7.26l.11-.11,3.57-3.57a5.06,5.06,0,0,1,7.16,0h0l3.57,3.57a5.06,5.06,0,1,0,7.54-6.76c-.13-.13-.26-.27-.4-.39l-3.58-3.58a5.06,5.06,0,0,1,0-7.15h0a5.05,5.05,0,0,1,7.14,0L94.17,87a5.06,5.06,0,0,0,7.16-7.16l-3.59-3.58a5.06,5.06,0,0,1,0-7.15l3.58-3.58a5.06,5.06,0,1,0-7-7.26l-.11.11L90.59,62a5.05,5.05,0,0,1-7.14,0h0a5.06,5.06,0,0,1,0-7.15L87,51.25a5.06,5.06,0,0,0-7.16-7.16l-3.58,3.58a5,5,0,0,1-7.07.07l-.07-.07-3.58-3.58a5.06,5.06,0,0,0-7.16,7.16h0Z" transform="translate(-0.35 -0.35)"/><path class="a4153514-ec28-43b5-8b3b-e96b2573281c" d="M38.26,21l8.61,8.6a12.16,12.16,0,0,1,0,17.21h0l-.11.12a12.19,12.19,0,0,1-17.1-.1L21,38.26A12.18,12.18,0,0,0,3.81,55.49l8.61,8.61a12.16,12.16,0,0,1,0,17.2h0L3.81,89.93h0A12.18,12.18,0,0,0,21,107.16l8.61-8.61a12.18,12.18,0,0,1,17.2,0h0a12.18,12.18,0,0,1,0,17.23h0l-8.61,8.61h0a12.18,12.18,0,1,0,17.24,17.22h0L64.1,133a12.16,12.16,0,0,1,17.21,0h0l8.61,8.61a12.18,12.18,0,0,0,17.23-17.23h0l-8.62-8.62a12.16,12.16,0,0,1,0-17.2h0a12.17,12.17,0,0,1,17.19,0l8.61,8.61a12.18,12.18,0,0,0,17.23-17.23L133,81.31a12.16,12.16,0,0,1,0-17.2h0l8.61-8.62a12.18,12.18,0,0,0-17.22-17.22l-8.62,8.61a12.17,12.17,0,0,1-17.21,0h0a12.16,12.16,0,0,1,0-17.2h0l8.6-8.66A12.18,12.18,0,0,0,89.94,3.81l-8.62,8.61a12.17,12.17,0,0,1-17.21,0L55.49,3.81A12.18,12.18,0,0,0,38.26,21Z" transform="translate(-0.35 -0.35)"/><path class="bf15a36b-7eab-4024-8698-41e68b4cf808" d="M41.29,25.58l7.85,7.85a11.1,11.1,0,0,1,0,15.7h0l-.1.1a11.1,11.1,0,0,1-15.59-.09l-7.87-7.86A11.11,11.11,0,0,0,9.87,57l7.86,7.85a11.11,11.11,0,0,1,0,15.71L9.87,88.42h0a11.11,11.11,0,0,0,15.72,15.71l7.86-7.86a11.11,11.11,0,0,1,15.68,0h0a11.1,11.1,0,0,1,0,15.7h0l-7.85,7.85h0A11.11,11.11,0,1,0,57,135.54h0l7.85-7.85a11.14,11.14,0,0,1,15.72,0l7.85,7.86a11.11,11.11,0,0,0,15.71-15.71L96.27,112a11.09,11.09,0,0,1,0-15.7h0a11.11,11.11,0,0,1,15.68,0l7.86,7.86a11.11,11.11,0,0,0,15.71-15.71l-7.86-7.86a11.11,11.11,0,0,1,0-15.71L135.55,57a11.11,11.11,0,0,0-15.46-16l-.25.25L112,49.15a11.11,11.11,0,0,1-15.7,0h0a11.09,11.09,0,0,1,0-15.68h0l7.85-7.86A11.12,11.12,0,0,0,88.42,9.87h0l-7.86,7.86a11.1,11.1,0,0,1-15.69,0L57,9.87A11.11,11.11,0,0,0,41.29,25.58Z" transform="translate(-0.35 -0.35)"/><path class="b5137a15-04bc-4125-864b-4a6a14b4bc1a" d="M44.46,30.33l7.06,7.06a10,10,0,0,1,0,14.12l-.09.1a10,10,0,0,1-14-.08l-7.07-7.07a10,10,0,0,0-14.6,13.67l.45.45,7.06,7.07a10,10,0,0,1,0,14.11l-7.06,7.07h0A10,10,0,1,0,30.34,101l7.06-7.1a10,10,0,0,1,14.1,0h0a10,10,0,0,1,0,14.13l-7.06,7.06h0a10,10,0,0,0,14.14,14.12l7.06-7.06a10,10,0,0,1,14.12,0l7.06,7.06A10,10,0,1,0,101,115.08L93.89,108a10,10,0,0,1,0-14.11h0a10,10,0,0,1,14.1,0l7.07,7.06A10,10,0,1,0,130,87.62a9.81,9.81,0,0,0-.79-.79l-7.07-7.08a10,10,0,0,1,0-14.11l7.06-7.07a10,10,0,0,0-14.12-14.13l-7,7.08a10,10,0,0,1-14.11,0h0a10,10,0,0,1,0-14.11L101,30.33A10,10,0,0,0,87.08,16l-.24.25-7.07,7.06a10,10,0,0,1-14.11,0L58.59,16.2A10,10,0,0,0,44.46,30.33Z" transform="translate(-0.35 -0.35)"/><path class="ed44761d-cd96-4c47-8cfe-e58f7e4792f2" d="M46.94,34.06l6.45,6.44a9.1,9.1,0,0,1,0,12.87h0l-.08.08a9.1,9.1,0,0,1-12.79-.07l-6.45-6.45A9.11,9.11,0,0,0,21.18,59.83h0l6.44,6.44a9.1,9.1,0,0,1,0,12.86h0l-6.44,6.45h0A9.11,9.11,0,0,0,34.06,98.47L40.5,92a9.11,9.11,0,0,1,12.86,0h0a9.1,9.1,0,0,1,0,12.87h0l-6.44,6.44h0A9.11,9.11,0,1,0,59.81,124.2l6.44-6.44a9.1,9.1,0,0,1,12.87,0h0l6.44,6.44a9.11,9.11,0,1,0,12.89-12.88L92,104.91A9.12,9.12,0,0,1,92,92h0a9.11,9.11,0,0,1,12.86,0l6.44,6.44a9.11,9.11,0,0,0,12.88-12.88l-6.45-6.45a9.11,9.11,0,0,1,0-12.87h0l6.44-6.44a9.11,9.11,0,1,0-12.88-12.89l-6.45,6.45a9.11,9.11,0,0,1-12.87,0h0A9.12,9.12,0,0,1,92,40.5l6.45-6.44A9.11,9.11,0,0,0,85.59,21.18l-6.44,6.44a9.11,9.11,0,0,1-12.87,0h0l-6.45-6.44A9.11,9.11,0,0,0,46.94,34.06Z" transform="translate(-0.35 -0.35)"/><path class="ae26b8b3-0d0c-4ad5-ac4b-b9ef4493e7c7" d="M49.36,37.68l5.84,5.84a8.26,8.26,0,0,1,0,11.67h0l-.07.08a8.26,8.26,0,0,1-11.59-.07l-5.85-5.84A8.25,8.25,0,0,0,26,61l5.84,5.84a8.26,8.26,0,0,1,0,11.67h0L26,84.38h0A8.26,8.26,0,0,0,37.68,96.06l5.84-5.84a8.26,8.26,0,0,1,11.66,0h0a8.26,8.26,0,0,1,0,11.67h0l-5.83,5.84h0A8.26,8.26,0,0,0,61,119.41l5.83-5.84a8.27,8.27,0,0,1,11.68,0l5.83,5.84A8.26,8.26,0,0,0,96,107.73l-5.84-5.84a8.26,8.26,0,0,1,0-11.67h0a8.26,8.26,0,0,1,11.66,0l5.84,5.84a8.26,8.26,0,0,0,11.67-11.68l-5.84-5.84a8.26,8.26,0,0,1,0-11.67l5.9-5.87a8.26,8.26,0,0,0-11.67-11.68L101.9,55.2a8.27,8.27,0,0,1-11.67,0h0a8.26,8.26,0,0,1,0-11.67l5.84-5.84A8.26,8.26,0,1,0,84.39,26l-5.84,5.85a8.27,8.27,0,0,1-11.67,0L61,26A8.26,8.26,0,0,0,49.36,37.68Z" transform="translate(-0.35 -0.35)"/><path class="f4092b5d-ba94-4152-896b-37de76696822" d="M51.41,40.76l5.33,5.33a7.51,7.51,0,0,1,0,10.62l0,0-.06.07a7.53,7.53,0,0,1-10.57-.06l-5.33-5.33A7.53,7.53,0,1,0,30.12,62.06h0l5.32,5.32a7.53,7.53,0,0,1,0,10.65h0l-5.32,5.32h0A7.53,7.53,0,0,0,40.77,94h0l5.32-5.32a7.54,7.54,0,0,1,10.63,0h0a7.51,7.51,0,0,1,0,10.62l0,0-5.32,5.33h0A7.53,7.53,0,1,0,62.06,115.3h0l5.33-5.3A7.52,7.52,0,0,1,78,110l5.33,5.32A7.54,7.54,0,0,0,94,104.65l-5.33-5.33a7.52,7.52,0,0,1,0-10.63h0a7.54,7.54,0,0,1,10.63,0L104.65,94A7.53,7.53,0,0,0,115.3,83.36L110,78a7.53,7.53,0,0,1,0-10.65L115.32,62a7.53,7.53,0,0,0-10.64-10.65l-5.33,5.33a7.54,7.54,0,0,1-10.64,0h0a7.52,7.52,0,0,1,0-10.63h0L94,40.76A7.53,7.53,0,0,0,83.36,30.11L78,35.44a7.54,7.54,0,0,1-10.64,0L62,30.11A7.53,7.53,0,0,0,51.41,40.76Z" transform="translate(-0.35 -0.35)"/><path class="e9db1a79-9687-48ea-a89f-6fd4e34a9269" d="M53.58,44l4.78,4.78a6.77,6.77,0,0,1,0,9.57l-.06.06a6.77,6.77,0,0,1-9.5-.06L44,53.57a6.76,6.76,0,1,0-9.56,9.57l4.78,4.79a6.75,6.75,0,0,1,0,9.55h0l-4.78,4.79h0A6.76,6.76,0,0,0,44,91.84l4.78-4.79a6.8,6.8,0,0,1,9.56,0h0a6.77,6.77,0,0,1,0,9.57l-4.78,4.78h0a6.78,6.78,0,1,0,9.59,9.6h0l4.78-4.78a6.76,6.76,0,0,1,9.56,0L82.27,111a6.76,6.76,0,1,0,9.57-9.56l-4.79-4.79a6.77,6.77,0,0,1,0-9.57h0a6.78,6.78,0,0,1,9.55,0l4.78,4.79a6.8,6.8,0,1,0,9.62-9.6l-4.79-4.79a6.77,6.77,0,0,1,0-9.55L111,63.14a6.77,6.77,0,0,0-9.57-9.57l-4.78,4.79a6.78,6.78,0,0,1-9.56,0h0a6.77,6.77,0,0,1,0-9.55L91.84,44a6.76,6.76,0,1,0-9.56-9.57h0l-4.79,4.79a6.78,6.78,0,0,1-9.56,0l-4.78-4.79a6.77,6.77,0,1,0-9.85,9.29Z" transform="translate(-0.35 -0.35)"/><path class="e8176de9-ef86-4d8a-8d98-4c06a00088c2" d="M55.26,46.54l4.36,4.36a6.16,6.16,0,0,1,0,8.71h0v.06a6.18,6.18,0,0,1-8.66,0l-4.37-4.37A6.17,6.17,0,1,0,37.82,64l4.36,4.37a6.13,6.13,0,0,1,0,8.68l0,0-4.35,4.37h0a6.17,6.17,0,0,0,8.73,8.73h0l4.36-4.37a6.17,6.17,0,0,1,8.71,0h0a6.16,6.16,0,0,1,0,8.71h0L55.27,98.9h0A6.17,6.17,0,0,0,64,107.6l4.36-4.36a6.16,6.16,0,0,1,8.71,0h0l4.36,4.36a6.17,6.17,0,0,0,8.73-8.72L85.8,94.51a6.16,6.16,0,0,1,0-8.72h0a6.17,6.17,0,0,1,8.71,0l4.36,4.37a6.17,6.17,0,0,0,8.73-8.73h0l-4.37-4.37a6.17,6.17,0,0,1,0-8.71L107.61,64a6.17,6.17,0,0,0-8.73-8.72l-4.36,4.36a6.16,6.16,0,0,1-8.72,0h0a6.16,6.16,0,0,1,0-8.72l4.36-4.37a6.17,6.17,0,0,0-8.73-8.72l-4.36,4.36a6.16,6.16,0,0,1-8.71,0h0L64,37.81a6.17,6.17,0,0,0-8.73,8.73h0Z" transform="translate(-0.35 -0.35)"/><path class="a7eb598c-09ed-4fe6-8ff7-d834ba0adb61" d="M57,49.17l3.92,3.93a5.54,5.54,0,0,1,0,7.82l0,0V61a5.56,5.56,0,0,1-7.79-.05l-4-3.94a5.55,5.55,0,0,0-8.1,7.59c.08.09.17.17.25.25l3.92,3.93a5.53,5.53,0,0,1,0,7.81l0,0-3.92,3.93h0a5.55,5.55,0,1,0,7.85,7.85l3.92-3.93a5.56,5.56,0,0,1,7.83,0h0a5.54,5.54,0,0,1,0,7.82l0,0L57,96.24h0a5.55,5.55,0,0,0,7.85,7.84l3.92-3.92a5.55,5.55,0,0,1,7.84,0l3.92,3.92a5.55,5.55,0,0,0,7.85-7.84l-3.93-3.93a5.54,5.54,0,0,1,0-7.83h0a5.56,5.56,0,0,1,7.83,0L96.2,88.4a5.55,5.55,0,0,0,7.85-7.85h0l-3.93-3.93a5.54,5.54,0,0,1,0-7.83l3.93-3.93A5.55,5.55,0,0,0,96.24,57l-3.92,3.92a5.54,5.54,0,0,1-7.83,0h0a5.54,5.54,0,0,1,0-7.83h0l3.92-3.93a5.55,5.55,0,0,0-7.85-7.84l-3.92,3.92a5.55,5.55,0,0,1-7.84,0L64.87,41.3A5.56,5.56,0,0,0,57,49.17Z" transform="translate(-0.35 -0.35)"/><path class="f46c02e0-4d90-49ea-b255-a922f946f948" d="M58.4,51.25,62,54.82A5.05,5.05,0,0,1,62,62l0,0v0a5.08,5.08,0,0,1-7.1,0L51.25,58.4a5.06,5.06,0,1,0-7.44,6.86,4,4,0,0,0,.29.29l3.57,3.58a5,5,0,0,1,.08,7.07l-.08.08L44.1,79.86h0A5.06,5.06,0,0,0,51.25,87l3.57-3.58a5.06,5.06,0,0,1,7.15,0h0a5.05,5.05,0,0,1,0,7.14h0l-3.57,3.6h0a5.06,5.06,0,1,0,7.05,7.26l.11-.11,3.57-3.57a5.06,5.06,0,0,1,7.16,0h0l3.57,3.57a5.06,5.06,0,1,0,7.54-6.76c-.13-.13-.26-.27-.4-.39l-3.58-3.58a5.06,5.06,0,0,1,0-7.15h0a5.05,5.05,0,0,1,7.14,0L94.17,87a5.06,5.06,0,0,0,7.16-7.16l-3.59-3.58a5.06,5.06,0,0,1,0-7.15l3.58-3.58a5.06,5.06,0,1,0-7-7.26l-.11.11L90.59,62a5.05,5.05,0,0,1-7.14,0h0a5.06,5.06,0,0,1,0-7.15L87,51.25a5.06,5.06,0,0,0-7.16-7.16l-3.58,3.58a5,5,0,0,1-7.07.07l-.07-.07-3.58-3.58a5.06,5.06,0,0,0-7.16,7.16h0Z" transform="translate(-0.35 -0.35)"/></g></svg>