<svg id="a88d9997-492e-40f0-9b23-0b772fad06a9" data-name="Layer 1" xmlns="http://www.w3.org/2000/svg" viewBox="0 0 205 205"><title>02u</title><g id="b414be21-c492-4860-8cbf-5aab7c576279" data-name="Layer 1-2"><path d="M102.5,0A102.5,102.5,0,1,0,205,102.5,102.5,102.5,0,0,0,102.5,0Zm48,171c-20.19,14.14-43.09,20.73-64.57,20.21,23.82-.35,49.34-10.12,70.34-29,19.49-17.54,32.22-40.24,35.86-63.91s-2.26-45.56-16.64-61.53c-.26-.29-.53-.55-.8-.83a70.69,70.69,0,0,1,8.52,10c12.81,18.29,16.47,41.37,10.31,65s-21.45,45-43,60.07Zm5.11-9.56c-17,15.32-37,24.57-56.63,27.63,21.59-4.36,43.53-17,60.8-36.82,16.94-19.48,26.92-43,28.1-66.14S181.28,42.81,166,29.5c-.67-.59-1.37-1.13-2.06-1.68a65.79,65.79,0,0,1,10.85,9.63c14.17,15.74,20,37.3,16.39,60.71S175,144.09,155.65,161.48Zm5.28-19.6c-12.3,18.24-28.32,31.87-45.15,39.88,17.9-9.68,34.59-26.75,46-49.09,11.27-22.11,15.72-46,12.54-67.37s-13.67-37.62-29.52-45.7a47.61,47.61,0,0,0-7.14-2.93l1.14.26a54.26,54.26,0,0,1,16.46,7.44C170.77,34.88,180,52.87,181,75s-6,46-20.11,66.88ZM49.8,180.63C34.23,170.12,25.05,152.13,24,130s6-46,20.11-66.88C56.19,45.2,72.14,31.24,89.69,23,71.63,32.65,54.76,49.81,43.28,72.33,32,94.44,27.56,118.37,30.74,139.7s13.67,37.62,29.52,45.7a48.87,48.87,0,0,0,7.26,3l-.34-.08A53.67,53.67,0,0,1,49.8,180.63Zm111-48.41c-9.75,19.12-23.4,34.35-38.35,44.32,15.56-11.66,29.29-30.2,37.61-53.08,8.26-22.67,10-46.17,5-66.16s-16.28-34.2-31.7-39.81a41.79,41.79,0,0,0-8.67-2.14,48.27,48.27,0,0,1,19.52,5.14c15.55,7.93,25.84,23.89,29,45s-1.21,44.8-12.38,66.73Zm-1.68-9.1C152,142.61,141,158.93,128.28,170.46c13.42-13.68,23.58-33.26,28.69-55.38,10.85-47-4.77-90.87-34.82-97.81a37.46,37.46,0,0,0-9.79-.89,48,48,0,0,1,6.34-.45,41.92,41.92,0,0,1,14.37,2.5c15.1,5.49,26.13,19.38,31.07,39.11s3.2,43.09-5,65.58ZM156,114.86c-4.3,18.63-12.22,35.45-22.64,48.4,9.89-14.08,17.08-33.53,19.39-55.48,4.85-46.18-13.75-86.13-41.47-89a30.94,30.94,0,0,0-9.06.41,39.31,39.31,0,0,1,11.64-1.82,35.36,35.36,0,0,1,8.07.92C151.46,25.06,166.75,68.4,156,114.86Zm-4.25-7.18c-2,18.9-7.61,35.93-15.45,49.21,7.29-14.53,11.59-33.94,11.22-55.18-.38-21.45-5.38-41.54-14.1-56.57S113.19,21.78,101.09,22a26.39,26.39,0,0,0-8.57,1.61,33.53,33.53,0,0,1,15.55-4.05,29.69,29.69,0,0,1,3.13.16c27.17,2.87,45.37,42.28,40.57,88ZM103.89,182h-.43c-24.09,0-44.24-35.16-45-78.73-.37-21.28,3.89-41.37,12-56.55S89.4,23.21,101.11,23h.44c11.55,0,22.55,8,31,22.64,8.64,14.89,13.6,34.81,14,56.09C147.31,145.56,128.17,181.57,103.89,182ZM57.46,103.3c.77,44.11,21.36,79.71,46,79.71h.45a26,26,0,0,0,8.72-1.69,32.6,32.6,0,0,1-18.83,4c-27.17-2.86-45.37-42.31-40.57-88,2-18.58,7.43-35.35,15.06-48.53-7.35,15-11.18,34.21-10.83,54.5Zm-5.23-6.07c-4.85,46.18,13.75,86.13,41.47,89a28.77,28.77,0,0,0,3.21.17,31.29,31.29,0,0,0,5.79-.56,37.47,37.47,0,0,1-19.65.88c-29.51-6.78-44.8-50.12-34-96.58C53.3,71.51,61.21,54.7,71.64,41.75c-9.91,14.07-17.1,33.53-19.41,55.47ZM48,89.92c-10.85,47,4.77,90.87,34.82,97.81a36.9,36.9,0,0,0,8.31.94h1.46a42.81,42.81,0,0,1-20.69-2.06c-15.1-5.49-26.13-19.38-31.07-39.11s-3.17-43.09,5-65.58C52.92,62.44,63.92,46.16,76.6,34.63,63.23,48.3,53.1,67.85,48,89.92Zm-3.09-8.38c-8.26,22.67-10,46.17-5,66.16s16.28,34.2,31.7,39.81a41.88,41.88,0,0,0,8.68,2.14,48.31,48.31,0,0,1-19.53-5.14c-15.55-7.92-25.84-23.89-29-44.95S33,94.71,44.17,72.78c9.69-19,23.23-34.15,38.07-44.13C66.8,40.32,53.18,58.8,44.91,81.54Zm-1.63-19C29.07,83.63,21.85,107.58,23,130s10.44,40.75,26.28,51.44l.53.33a58.28,58.28,0,0,1-10.07-7c-15.13-13.13-22.74-33-21.62-55.87S29.18,72.68,46,53.36A114.61,114.61,0,0,1,91.2,21.23C72.72,29.4,55.91,43.84,43.28,62.56Zm118.44,79.88c14.21-21.06,21.43-45,20.32-67.45S171.6,34.23,155.76,23.54c-.21-.14-.43-.26-.65-.4a58.87,58.87,0,0,1,10.19,7.11c15.09,13.11,22.75,33,21.58,55.85S175.82,132.32,159,151.64a114.54,114.54,0,0,1-46,32.41c18.18-7.84,35.57-22.11,48.72-41.61ZM45.22,52.71c-16.94,19.48-26.92,43-28.1,66.14S23.72,162.19,39,175.5c.54.47,1.09.91,1.64,1.36a65,65,0,0,1-10.43-9.31c-14.17-15.74-20-37.3-16.39-60.71S30.08,60.91,49.39,43.52C66.53,28.09,86.69,18.8,106.45,15.8,84.72,20.09,62.6,32.71,45.22,52.71Zm3.51-9.93C29.24,60.32,16.51,83,12.87,106.69s2.26,45.56,16.64,61.53c.25.28.51.53.76.8a71,71,0,0,1-8.48-10C9,140.72,5.32,117.64,11.48,94s21.45-45,43-60.07C74,20.34,95.93,13.7,116.73,13.7c1,0,2,0,3,.05C95.73,13.92,69.92,23.69,48.73,42.78Zm5.2-9.64C32.17,48.38,16.75,69.92,10.51,93.78c-5.48,21-3.27,41.59,6.15,58.86-.68-1.13-1.34-2.28-2-3.45-11-20.66-12.19-44.94-3.39-68.36S37.9,37.61,61.36,25.13a109,109,0,0,1,51.12-13,99.54,99.54,0,0,1,16.17,1.31C104.34,10.42,77.32,16.76,53.93,33.14ZM88.28,192.3c21,0,43.17-6.7,62.79-20.44,21.76-15.24,37.18-36.77,43.42-60.64,5.48-21,3.27-41.59-6.15-58.86.68,1.13,1.34,2.28,2,3.45,11,20.66,12.19,44.94,3.39,68.36s-26.59,43.23-50,55.7a108.88,108.88,0,0,1-51.12,13,100.77,100.77,0,0,1-15.8-1.24A96.38,96.38,0,0,0,88.28,192.3ZM60.89,24.3C37.21,36.84,19.27,56.81,10.38,80.48,3.5,98.79,2.67,117.61,7.77,134.87c-7.3-21.82-5.4-45.56,5.48-67.27C24.72,44.71,44.79,26.82,69.77,17.23A107.92,107.92,0,0,1,108.45,10a101.66,101.66,0,0,1,32.49,5.27c-24.79-7.42-53.79-5-80,9ZM92.53,193.84a110,110,0,0,0,51.58-13.09c23.68-12.59,41.62-32.56,50.51-56.23,6.88-18.3,7.71-37.13,2.61-54.38,7.3,21.82,5.4,45.55-5.48,67.26-11.47,22.89-31.54,40.78-56.52,50.37a105.29,105.29,0,0,1-71.57,1.85A99.38,99.38,0,0,0,92.53,193.84ZM69.41,16.3C44.2,26,23.94,44,12.35,67.15A89.94,89.94,0,0,0,3,117.86C-.18,96.08,4.72,73.93,17.12,54.61A103.32,103.32,0,0,1,79.53,10.38,106.44,106.44,0,0,1,105.28,7.2a102,102,0,0,1,53.66,15.08C133.56,7.57,100.56,4.34,69.41,16.3ZM96.55,196a109,109,0,0,0,39-7.31c25.25-9.69,45.51-27.69,57.1-50.84A89.94,89.94,0,0,0,202,87.14c3.15,21.78-1.75,43.93-14.15,63.25a103.32,103.32,0,0,1-62.41,44.23,106.44,106.44,0,0,1-25.75,3.18,102.22,102.22,0,0,1-53.58-15A100.76,100.76,0,0,0,96.55,196ZM79.29,9.41C52.92,16,30.55,31.85,16.28,54.07a95.78,95.78,0,0,0-14,35.84C8.37,46.57,43.88,10.68,90.52,5a104.56,104.56,0,0,1,12.76-.78A102,102,0,0,1,170.49,29.4C146.6,9.54,112.9,1,79.29,9.41ZM99.72,198.8a107.45,107.45,0,0,0,26-3.21c26.37-6.58,48.74-22.44,63-44.66A95.59,95.59,0,0,0,202.87,114,97,97,0,0,1,182,162.75,103.24,103.24,0,0,1,40,180.19q-3.73-2.83-7.14-5.95A102.12,102.12,0,0,0,99.72,198.8ZM102.5,1a101.43,101.43,0,0,1,82.82,42.88A102.72,102.72,0,0,0,90.4,4C51.92,8.69,20.94,33.75,7.55,66.63A101.67,101.67,0,0,1,102.5,1Zm0,203a101.41,101.41,0,0,1-81.31-40.81A100.45,100.45,0,0,0,39.36,181a102.57,102.57,0,0,0,62.23,20.85,106.5,106.5,0,0,0,13-.8h0a103,103,0,0,0,68.15-37.66,100.49,100.49,0,0,0,13.81-22.75A101.64,101.64,0,0,1,102.5,204Z"/></g></svg>