<svg id="b0aa80ee-d300-4ddd-b224-fe57f72a6537" data-name="Layer 1" xmlns="http://www.w3.org/2000/svg" viewBox="0 0 382 382"><defs><style>.a160b2b3-2226-4d76-b1cb-00e8911ff50b,.a9e1a14f-f656-4544-8341-76ca6bf80c3e{fill:none;stroke:#000;stroke-miterlimit:10;}.a9e1a14f-f656-4544-8341-76ca6bf80c3e{stroke-width:2px;}.a160b2b3-2226-4d76-b1cb-00e8911ff50b{stroke-dasharray:2.99 2.99;}</style></defs><title>12u</title><g id="a510739e-a433-4294-8a00-cdd36d9c61ca" data-name="circles"><path class="a9e1a14f-f656-4544-8341-76ca6bf80c3e" d="M129.88,131.88C204.08,57.69,290.69,24,323.35,56.65s-1,119.27-75.23,193.47S87.3,358,54.65,325.35,55.69,206.08,129.88,131.88Z" transform="translate(2)"/><path class="a9e1a14f-f656-4544-8341-76ca6bf80c3e" d="M248.12,131.88c74.19,74.2,107.89,160.81,75.23,193.47s-119.27-1-193.47-75.23S22,89.3,54.65,56.65,173.92,57.69,248.12,131.88Z" transform="translate(2)"/><path class="a9e1a14f-f656-4544-8341-76ca6bf80c3e" d="M189,107.4c104.93,0,190,37.41,190,83.61s-85.07,83.6-190,83.6S-1,237.18-1,191,84.07,107.4,189,107.4Z" transform="translate(2)"/><path class="a9e1a14f-f656-4544-8341-76ca6bf80c3e" d="M272.6,191c0,104.93-37.41,190-83.61,190s-83.6-85.07-83.6-190S142.82,1,189,1,272.6,86.07,272.6,191Z" transform="translate(2)"/><path class="a160b2b3-2226-4d76-b1cb-00e8911ff50b" d="M111.76,159C151.91,62.06,219-2.21,261.71,15.46S306.39,126.05,266.24,223,159,384.21,116.29,366.54,71.6,256,111.76,159Z" transform="translate(2)"/><path class="a160b2b3-2226-4d76-b1cb-00e8911ff50b" d="M221,113.76C318,153.92,382.22,221,364.54,263.76S254,308.39,157,268.24-4.21,161,13.46,118.29,124.05,73.61,221,113.76Z" transform="translate(2)"/><path class="a160b2b3-2226-4d76-b1cb-00e8911ff50b" d="M157,113.76c97-40.15,189.86-38.14,207.54,4.53s-46.6,109.8-143.55,150S31.13,306.37,13.46,263.71,60.06,153.92,157,113.76Z" transform="translate(2)"/><path class="a160b2b3-2226-4d76-b1cb-00e8911ff50b" d="M266.24,159c40.16,97,38.14,189.86-4.54,207.54S151.91,319.94,111.76,223,73.63,33.13,116.28,15.46,226.09,62.07,266.24,159Z" transform="translate(2)"/></g><g id="b6de74ab-739f-4086-81f1-75748b643adf" data-name="EXTRA"><circle cx="248.21" cy="329.37" r="3.74"/><circle cx="133.68" cy="52.77" r="3.74"/><circle cx="52.64" cy="248.33" r="3.74"/><circle cx="329.25" cy="133.81" r="3.74"/><circle cx="131.64" cy="329.35" r="3.74" transform="translate(-204.21 437.31) rotate(-85.93)"/><circle cx="248.25" cy="52.78" r="3.74"/><circle cx="52.66" cy="133.76" r="3.74"/><circle cx="329.23" cy="248.37" r="3.74"/></g></svg>