<svg id="a90ea7c2-58da-47b6-8564-c6dae74304a1" data-name="Layer 1" xmlns="http://www.w3.org/2000/svg" viewBox="0 0 198.42 198.43"><defs><style>.a9aa60b2-f216-4dd3-aa50-eaddca517516{fill:#000000;}</style></defs><title>12u</title><g id="a1845dc3-e337-49a3-86a1-0e1f2d8a329b" data-name="items"><path class="a9aa60b2-f216-4dd3-aa50-eaddca517516" d="M47.58,176c-7.81,0-14.12-2.21-18.52-6.61-8.33-8.33-8.81-23.46-1.36-42.62S49.49,86.9,68.2,68.2C106.88,29.52,152.27,12,169.37,29.06s-.46,62.48-39.14,101.17c-18.71,18.7-39.5,33.08-58.56,40.49C62.65,174.23,54.52,176,47.58,176ZM150.84,23.19c-21.52,0-53.62,17-82.12,45.53-18.64,18.63-33,39.34-40.34,58.3s-6.91,33.72,1.2,41.83,23,8.53,41.82,1.19,39.67-21.7,58.31-40.33c38.4-38.4,55.95-83.32,39.14-100.13C164.52,25.25,158.31,23.19,150.84,23.19Z"/><path class="a9aa60b2-f216-4dd3-aa50-eaddca517516" d="M150.92,175.91c-21.79,0-54.09-17-82.72-45.68-18.71-18.71-33.09-39.5-40.5-58.56s-7-34.29,1.36-42.61c17.1-17.1,62.48.46,101.17,39.14,18.7,18.7,33.08,39.5,40.49,58.55s7,34.29-1.36,42.62C164.92,173.81,158.56,175.91,150.92,175.91ZM47.58,23.19c-7.47,0-13.67,2-18,6.39-8.11,8.1-8.53,23-1.2,41.82s21.7,39.67,40.34,58.31c28.5,28.5,60.6,45.52,82.12,45.52,7.48,0,13.67-2,18-6.38,8.11-8.11,8.53-23,1.19-41.83s-21.7-39.67-40.33-58.3C101.21,40.21,69.11,23.19,47.58,23.19Z"/><path class="a9aa60b2-f216-4dd3-aa50-eaddca517516" d="M99.21,143.07C44.51,143.07,0,123.4,0,99.22S44.51,55.35,99.21,55.35h0c54.71,0,99.21,19.68,99.21,43.87S153.92,143.07,99.21,143.07Zm0-87C44.91,56.08.73,75.43.73,99.22s44.18,43.12,98.48,43.12S197.69,123,197.69,99.22,153.51,56.09,99.21,56.08Z"/><path class="a9aa60b2-f216-4dd3-aa50-eaddca517516" d="M99.21,198.43c-24.18,0-43.86-44.51-43.86-99.22S75,0,99.21,0s43.86,44.51,43.86,99.21S123.4,198.43,99.21,198.43Zm0-197.7C75.43.73,56.08,44.91,56.08,99.21s19.35,98.48,43.13,98.48,43.13-44.17,43.13-98.48S123,.73,99.21.73Z"/><path class="a9aa60b2-f216-4dd3-aa50-eaddca517516" d="M70,192.41v-.73a17.45,17.45,0,0,0,2.15-.17l.09.73C71.51,192.33,70.76,192.38,70,192.41Zm-2.23,0a13.74,13.74,0,0,1-2.21-.26l.12-.72c.7.12,1.42.2,2.14.25Zm6.63-.5-.15-.72c.69-.14,1.4-.31,2.1-.5l.2.71c-.69.16-1.41.34-2.11.48Zm-11-.25a19.47,19.47,0,0,1-2.11-.73l.28-.67a19.71,19.71,0,0,0,2,.7Zm15.27-.92-.24-.69c.67-.24,1.35-.5,2-.77l.27.67c-.62.26-1.32.52-2,.76ZM59.28,190a18.51,18.51,0,0,1-1.89-1.17l.42-.6a17.84,17.84,0,0,0,1.82,1.13Zm23.5-1-.31-.66c.65-.3,1.29-.63,1.94-1l.35.65A13.22,13.22,0,0,1,82.78,189Zm-27.12-1.6c-.54-.47-1.08-1-1.6-1.54l.53-.5c.5.53,1,1,1.55,1.49Zm31-.42-.37-.63c.62-.36,1.24-.74,1.86-1.13l.4.61c-.61.4-1.24.78-1.87,1.17Zm3.72-2.36L90,184c.59-.4,1.19-.82,1.78-1.26l.43.59c-.61.46-1.21.89-1.81,1.29Zm-37.8-.43c-.44-.56-.88-1.17-1.3-1.79l.6-.41c.41.61.84,1.19,1.28,1.74ZM94,182l-.45-.58c.57-.44,1.14-.89,1.71-1.36l.46.57C95.11,181.13,94.53,181.59,94,182Zm-43.83-1.51a16.22,16.22,0,0,1-1-2l.66-.32c.32.66.67,1.3,1,1.91Zm47.24-1.27-.48-.56c.54-.47,1.09-.95,1.63-1.44l.49.54-1.68,1.49Zm-49.19-2.7c-.29-.67-.55-1.35-.81-2.05l.69-.25c.25.69.51,1.36.79,2Zm52.45-.25-.51-.53c.53-.5,1-1,1.58-1.52l.51.52Zm3.13-3.08-.53-.51c.51-.52,1-1.05,1.52-1.58l.53.5-1.56,1.62Zm-57.1-.81c-.21-.7-.42-1.4-.61-2.12l.71-.19c.19.71.39,1.41.6,2.09ZM106.77,170l-.54-.49c.48-.54,1-1.08,1.45-1.63l.55.48C107.75,168.93,107.26,169.48,106.77,170Zm-61.25-1.87q-.24-1.06-.45-2.16l.72-.14c.14.73.29,1.44.45,2.14Zm64.15-1.44-.56-.47c.47-.55.93-1.11,1.4-1.68l.57.47Zm-65-2.89c-.11-.71-.22-1.44-.31-2.17l.73-.1c.09.73.19,1.45.31,2.16Zm67.76-.5-.57-.45,1.35-1.72.58.45c-.43.6-.88,1.17-1.34,1.74Zm2.69-3.47-.58-.44c.43-.58.87-1.16,1.3-1.75l.59.43c-.43.61-.85,1.2-1.29,1.78Zm-71-.39c-.07-.72-.14-1.45-.2-2.19l.74-.06a19.62,19.62,0,0,0,.19,2.18Zm73.6-3.15-.6-.43c.43-.59.84-1.18,1.26-1.79l.6.42Zm-73.94-1.23c0-.73-.07-1.46-.09-2.2h.74c0,.73,0,1.46.08,2.18Zm76.44-2.38-.61-.41c.41-.6.81-1.21,1.21-1.82l.62.4Zm-76.57-2v-2.19h.73v2.19Zm79-1.65-.62-.4c.39-.61.78-1.22,1.17-1.85l.62.39c-.4.63-.82,1.24-1.18,1.83Zm-78.2-2.72h-.73a20.31,20.31,0,0,1,.08-2.2h.73c0,.75-.07,1.48-.09,2.2Zm80.52-1-.63-.38c.38-.62.75-1.24,1.12-1.87l.64.37c-.39.62-.76,1.25-1.1,1.87ZM44.64,142h-.73c.05-.72.1-1.45.16-2.19l.73.06C44.74,140.5,44.69,141.23,44.64,142Zm82.55-.42-.63-.37,1.08-1.9.64.36Zm2.15-3.83-.64-.35c.35-.64.7-1.28,1-1.92l.65.34ZM45,137.6l-.73-.08c.07-.72.14-1.45.22-2.18l.73.08C45.14,136.15,45.06,136.88,45,137.6Zm86.42-3.77-.65-.33,1-1.95.65.33C132.09,132.54,131.75,133.19,131.42,133.83Zm-85.94-.58-.73-.09c.09-.72.19-1.45.29-2.17l.73.1C45.67,131.81,45.57,132.53,45.48,133.25Zm87.93-3.33-.66-.32,1-2,.66.32Zm-87.32-1-.73-.12c.12-.71.23-1.44.35-2.16l.73.12c-.13.73-.24,1.45-.35,2.17Zm89.23-3-.66-.32.92-2,.66.31c-.3.74-.61,1.41-.92,2.09Zm-88.51-1.36-.72-.13c.13-.72.27-1.44.41-2.16l.72.14c-.14.78-.28,1.49-.41,2.21ZM137.15,122l-.67-.3c.3-.66.6-1.33.89-2l.67.29C137.75,120.66,137.45,121.32,137.15,122Zm-89.5-1.66-.72-.15c.15-.72.3-1.43.46-2.15l.71.16c-.1.7-.31,1.42-.45,2.13ZM138.91,118l-.68-.29c.28-.65.55-1.31.83-2l.7.22V116C139.46,116.66,139.18,117.31,138.91,118Zm-90.33-1.91-.71-.17q.24-1.07.51-2.13l.71.17Zm92-2.14-.68-.28c.28-.68.55-1.35.81-2l.68.27-.81,2Zm-91-2.11-.71-.18c.18-.71.36-1.42.55-2.13l.71.19c-.13.68-.33,1.39-.51,2.09Zm92.56-2-.68-.26.77-2,.68.26c-.21.62-.46,1.31-.73,2ZM50.71,107.6l-.71-.2.6-2.11.7.2c-.16.7-.36,1.4-.55,2.1Zm92.95-1.87-.69-.25c.25-.69.49-1.38.73-2.06l.69.24ZM52,103.39l-.7-.21c.21-.7.43-1.4.65-2.1l.7.22A18.6,18.6,0,0,0,52,103.39Zm93.18-1.82-.69-.23c.23-.7.46-1.39.68-2.08l.7.23c-.27.69-.49,1.39-.73,2.08ZM53.27,99.22,52.58,99c.22-.69.45-1.39.68-2.08l.7.23C53.72,97.83,53.5,98.52,53.27,99.22ZM146.5,97.4l-.7-.22c.22-.7.43-1.4.64-2.09l.7.21C146.93,96,146.72,96.7,146.5,97.4ZM54.66,95.07,54,94.83c.24-.69.48-1.38.73-2.07l.69.25C55.14,93.7,54.9,94.38,54.66,95.07Zm93.11-1.87-.71-.21q.31-1,.6-2.1l.71.2ZM56.14,91l-.69-.25c.25-.68.51-1.37.77-2l.68.26C56.64,89.59,56.39,90.27,56.14,91ZM149,89l-.71-.19c.19-.7.37-1.41.55-2.11l.71.18A14.31,14.31,0,0,0,149,89ZM57.74,86.9,57,86.6l.81-2,.68.27ZM150,84.72l-.71-.17c.18-.71.34-1.42.51-2.13l.71.17Q150.3,83.66,150,84.72ZM59.3,82.81l-.68-.28v-.11l.85-2,.67.29-.84,2ZM151,80.45l-.71-.16c.16-.72.31-1.43.46-2.14l.71.15C151.34,79,151.18,79.73,151,80.45ZM61.08,78.68l-.67-.29.88-2,.67.3C61.67,77.35,61.37,78,61.08,78.68Zm90.84-2.53L151.2,76c.14-.72.27-1.44.4-2.15l.72.13C152.19,74.71,152.06,75.43,151.92,76.15Zm-89-1.46-.67-.3.93-2,.66.31c-.36.67-.67,1.3-1,2Zm89.83-2.86-.72-.12c.12-.72.23-1.44.35-2.16l.72.11c-.16.72-.28,1.45-.4,2.17Zm-88-1.09-.66-.32,1-2,.66.33c-.37.68-.7,1.33-1,2Zm88.63-3.25-.72-.1c.1-.73.19-1.45.29-2.16l.72.09c-.1.68-.2,1.44-.3,2.17Zm-86.69-.67L66,66.49l1-1.95.65.34Zm87.24-3.68-.73-.08c.09-.73.16-1.46.23-2.18l.73.07-.24,2.19ZM68.71,63l-.65-.35,1-1.93.65.36C69.4,61.66,69.05,62.3,68.71,63Zm2.1-3.84-.64-.35c.36-.64.72-1.28,1.09-1.91l.63.37Zm83.54-.34-.73-.06c.06-.73.11-1.46.16-2.18h.73c0,.72-.1,1.42-.16,2.19ZM73,55.33,72.37,55c.37-.64.75-1.26,1.13-1.89l.62.38C73.74,54.07,73.37,54.7,73,55.33Zm81.63-.95h-.73c0-.73.06-1.46.08-2.18h.73C154.69,52.92,154.66,53.65,154.63,54.38ZM75.26,51.59l-.62-.38c.39-.63.78-1.25,1.18-1.86l.61.39Zm79.5-1.6H154V47.8h.73v1a11.57,11.57,0,0,1,0,1.2ZM77.62,47.91l-.61-.4c.4-.62.81-1.23,1.21-1.83l.61.41ZM154,45.62c0-.73-.05-1.46-.09-2.18h.73c0,.73.07,1.46.09,2.2ZM80.06,44.28l-.6-.41q.63-.91,1.26-1.8l.6.43Zm73.7-3c0-.73-.12-1.45-.19-2.17l.73-.07c.07.72.14,1.45.19,2.19ZM82.6,40.72l-.6-.43,1.31-1.76.59.44C83.46,39.55,83,40.13,82.6,40.72Zm2.62-3.49-.57-.45c.45-.58.9-1.16,1.35-1.72l.57.45Zm68.1-.3q-.13-1.09-.3-2.16l.72-.12c.11.72.22,1.45.31,2.18ZM88,33.81l-.57-.46,1.41-1.69.56.48A19.07,19.07,0,0,0,88,33.81Zm64.69-1.19c-.14-.72-.28-1.43-.44-2.13l.71-.16q.24,1.07.45,2.16ZM90.78,30.49,90.23,30c.48-.55,1-1.1,1.46-1.64l.54.5C91.75,29.39,91.26,29.94,90.78,30.49Zm60.9-2.11c-.19-.71-.39-1.41-.6-2.09l.7-.22c.21.69.42,1.4.61,2.12Zm-58-1.13-.53-.5c.51-.54,1-1.06,1.52-1.58l.52.51Zm56.67-3c-.25-.69-.51-1.37-.79-2l.68-.29c.28.67.55,1.36.8,2.06Zm-53.61-.1-.52-.52c.53-.52,1.06-1,1.59-1.52l.5.53c-.5.47-1,1-1.54,1.49Zm3.17-3-.49-.55c.55-.49,1.1-1,1.65-1.45l.48.55c-.55.46-1.06.95-1.61,1.44Zm48.76-.9c-.32-.66-.67-1.31-1-1.92l.63-.36a18.83,18.83,0,0,1,1,2ZM103.22,18.3l-.47-.56c.58-.47,1.15-.93,1.73-1.37l.44.58-1.67,1.34Zm43.3-1.81c-.41-.61-.84-1.19-1.27-1.75l.57-.45c.45.57.89,1.17,1.31,1.79Zm-39.85-.85-.44-.59c.61-.44,1.2-.87,1.8-1.27l.42.6c-.57.4-1.16.81-1.75,1.25Zm3.59-2.45-.39-.62q.94-.6,1.89-1.14l.36.63c-.58.35-1.2.72-1.83,1.12Zm33.58-.08c-.5-.53-1-1-1.55-1.49l.48-.55a21.12,21.12,0,0,1,1.6,1.54ZM114.06,11l-.34-.65c.66-.35,1.32-.68,2-1L116,10C115.36,10.33,114.71,10.65,114.06,11Zm26.57-.72a19,19,0,0,0-1.82-1.13l.35-.64a20.56,20.56,0,0,1,1.89,1.18ZM118,9.16l-.28-.68c.69-.28,1.38-.55,2.07-.78l.24.69C119.35,8.62,118.66,8.88,118,9.16Zm18.89-.94a19.77,19.77,0,0,0-2-.71l.2-.7a20.08,20.08,0,0,1,2.1.73Zm-14.8-.47-.2-.75c.72-.19,1.45-.37,2.15-.51l.15.72-2.11.54ZM132.75,7c-.71-.12-1.42-.2-2.13-.25V6a13.61,13.61,0,0,1,2.21.26Zm-6.44-.12-.08-.73c.74-.09,1.49-.14,2.21-.16v.73c-.68,0-1.44.1-2.13.19Z"/><path class="a9aa60b2-f216-4dd3-aa50-eaddca517516" d="M149.67,154.77h-1.24V154h2.18v.73Zm3.16-.05V154c.74,0,1.46-.05,2.18-.09v.73C154.3,154.67,153.57,154.7,152.83,154.72Zm-6.6,0-2.19-.08v-.73l2.19.08Zm-4.38-.21c-.73,0-1.46-.1-2.19-.15l.06-.73,2.17.15Zm15.36,0-.05-.73c.73,0,1.46-.12,2.17-.19l.08.73c-.73.05-1.41.12-2.2.17Zm-19.74-.34-2.18-.23.08-.73c.73.09,1.45.16,2.17.23Zm24.12-.1-.09-.73c.73-.09,1.45-.19,2.16-.31l.11.73Zm-28.48-.39-2.18-.29.1-.72,2.17.29Zm32.83-.3-.14-.72c.72-.14,1.43-.28,2.13-.44l.16.71-2.15.43Zm-37.18-.31-2.17-.35.12-.72,2.16.35Zm41.47-.66-.19-.71c.72-.19,1.41-.39,2.09-.6l.22.69c-.69.21-1.35.4-2.12.6Zm-45.8-.07c-.72-.13-1.43-.26-2.16-.41l.15-.71,2.14.4Zm-4.31-.84L118,151l.15-.71,2.14.46Zm54.32-.41-.25-.69c.69-.25,1.37-.51,2-.79l.28.68c-.64.26-1.32.53-2,.78Zm-58.6-.53L113.7,150l.18-.71,2.12.51Zm-4.27-1-2.12-.55.19-.71,2.12.55Zm66.94-.15-.32-.65c.66-.33,1.31-.67,1.91-1l.37.63c-.63.29-1.28.61-2,1Zm-71.17-1-2.11-.6.2-.71q1,.32,2.1.6Zm75-1.21-.41-.61c.61-.4,1.2-.83,1.75-1.27l.45.57c-.55.41-1.13.85-1.78,1.27Zm-79.23,0-2.11-.7.22-.7,2.08.64Zm-4.18-1.31-2.09-.69.24-.69,2.07.68Zm-4.16-1.4-2.07-.73L93,143l2.06.73Zm91,0-.5-.53c.53-.5,1-1,1.49-1.55l.55.48c-.47.53-1,1-1.49,1.51ZM90.65,143l-2.06-.77.26-.68,2.05.77Zm-4.1-1.56c-.67-.26-1.33-.53-2-.81l.27-.68,2,.81Zm102.19-.34-.6-.42a21.34,21.34,0,0,0,1.14-1.82l.64.35a18.55,18.55,0,0,1-1.18,1.84ZM82.48,139.8h0l-2-.82.28-.68,2,.83Zm-4-1.71-2-.89.29-.67,2,.89Zm112.44-.89-.68-.27a19.77,19.77,0,0,0,.71-2l.71.2c-.23.69-.49,1.36-.78,2Zm-116.44-.91-2-.92.31-.67,2,.93Zm-4-1.87-2-1,.33-.66,2,1Zm121.64-1.49-.72-.13c.12-.71.2-1.42.25-2.13h.73c-.06.74-.15,1.49-.27,2.21Zm-125.57-.46-2-1,.34-.64,1.94,1Zm-3.89-2c-.65-.35-1.29-.69-1.93-1l.35-.64,1.92.92Zm129-1.93a17.45,17.45,0,0,0-.17-2.15l.73-.08c.09.74.15,1.48.17,2.21ZM58.8,128.28l-1.9-1.09.37-.63,1.89,1.08ZM55,126.09,53.12,125l.38-.63,1.88,1.13Zm136.17-1.91c-.13-.68-.3-1.39-.5-2.1l.71-.19c.2.72.37,1.45.51,2.15Zm-139.92-.37-1.85-1.17.39-.62,1.85,1.17Zm-3.7-2.37c-.61-.4-1.22-.8-1.82-1.21l.4-.61L48,120.83ZM190,120c-.22-.66-.48-1.35-.76-2l.68-.28c.28.7.54,1.39.77,2.07ZM43.91,119c-.6-.41-1.2-.83-1.79-1.26l.42-.59,1.79,1.25Zm-3.57-2.54c-.6-.43-1.19-.87-1.77-1.31l.44-.58,1.76,1.3ZM188.4,116c-.31-.64-.63-1.29-1-1.94l.65-.34c.34.66.67,1.32,1,2ZM36.83,113.81l-1.73-1.35.46-.58c.56.45,1.14.9,1.72,1.35Zm149.55-1.65c-.36-.62-.74-1.24-1.13-1.87l.62-.39q.58.94,1.14,1.89Zm-153-1.09c-.57-.46-1.13-.93-1.68-1.4l.47-.56c.55.47,1.11.93,1.68,1.4ZM184,108.48c-.4-.6-.82-1.19-1.25-1.78l.59-.44c.44.6.86,1.2,1.27,1.8Zm-154-.25c-.56-.48-1.1-1-1.64-1.46l.49-.54,1.63,1.45Zm-3.26-3-1.58-1.52.51-.52,1.57,1.51Zm154.7-.33c-.44-.56-.89-1.13-1.36-1.7l.57-.47c.47.58.93,1.15,1.37,1.73ZM23.65,102.21c-.52-.53-1-1-1.52-1.58l.53-.5c.49.52,1,1,1.51,1.57Zm155.08-.63c-.47-.55-.95-1.09-1.44-1.64l.54-.49c.5.55,1,1.1,1.45,1.65ZM20.63,99c-.49-.55-1-1.1-1.45-1.65l.55-.47c.47.54.95,1.09,1.45,1.63Zm155.18-.67c-.5-.53-1-1-1.52-1.57l.52-.52q.78.8,1.53,1.59Zm-158-2.66c-.47-.57-.92-1.15-1.37-1.72L17,93.5c.44.57.89,1.14,1.36,1.71Zm155-.45-1.58-1.52.5-.53c.54.51,1.07,1,1.59,1.52Zm-3.18-3L168,90.77l.48-.55c.56.48,1.1,1,1.64,1.46Zm-154.5,0c-.44-.6-.86-1.2-1.27-1.79l.6-.42c.41.6.83,1.19,1.26,1.78Zm151.21-2.85L164.61,88l.46-.57,1.69,1.41Zm-153.75-.8c-.4-.63-.78-1.26-1.15-1.89l.64-.37c.36.62.73,1.24,1.13,1.86Zm150.32-2c-.56-.45-1.14-.9-1.72-1.35l.45-.57L163.37,86ZM10.38,84.76c-.35-.67-.69-1.33-1-2l.66-.31c.31.65.63,1.29,1,1.94Zm149.08-.86c-.58-.44-1.17-.87-1.76-1.3l.43-.59c.6.43,1.18.87,1.77,1.3Zm-3.53-2.58-1.79-1.26.42-.6,1.79,1.26ZM8.5,80.76c-.29-.7-.55-1.39-.78-2.06l.69-.24c.23.66.49,1.34.77,2Zm143.84-1.93-1.83-1.21.41-.61,1.82,1.21ZM7.06,76.59c-.2-.72-.37-1.44-.52-2.15l.72-.15c.14.69.31,1.4.5,2.1Zm141.62-.16-1.85-1.16.39-.63c.62.39,1.24.78,1.85,1.18ZM145,74.12c-.62-.38-1.25-.75-1.88-1.12l.38-.63,1.88,1.13ZM6.19,72.25A18.45,18.45,0,0,1,6,70h.73a17.45,17.45,0,0,0,.17,2.15Zm135-.36-1.9-1.08.36-.64,1.9,1.09Zm-3.81-2.14-1.92-1,.34-.65,1.93,1ZM6.78,67.86H6.05a13.47,13.47,0,0,1,.25-2.21l.73.12A19,19,0,0,0,6.78,67.86Zm126.76-.18-1.94-1,.33-.65,1.95,1Zm-3.89-2-2-1L128,64l2,1Zm-3.94-1.91-2-.92.31-.67,2,.93ZM7.5,63.63l-.71-.2c.21-.71.45-1.42.73-2.11l.68.28A18,18,0,0,0,7.5,63.63ZM121.74,62l-2-.88.29-.67,2,.89Zm-4-1.75-2-.84h-.11l.28-.68H116l2,.85ZM9.12,59.66l-.64-.35q.54-1,1.17-1.89l.6.42A17.84,17.84,0,0,0,9.12,59.66ZM113.59,58.5l-2-.81.26-.68,2,.81Zm-4.07-1.59-2-.77.25-.69,2.06.77Zm-97.94-.77L11,55.66c.48-.55,1-1.09,1.54-1.6l.5.53A19.19,19.19,0,0,0,11.58,56.14Zm93.84-.75-2.07-.73.24-.69,2.07.73ZM101.29,54l-2.08-.69.22-.69,2.09.68Zm-86.6-.78-.45-.58c.56-.45,1.17-.89,1.79-1.3l.4.6a17.71,17.71,0,0,0-1.74,1.24Zm82.44-.57L95,52l.21-.7,2.09.64Zm-4.19-1.26q-1.05-.31-2.1-.6L91,50l2.11.6ZM18.27,50.8l-.36-.63a18.83,18.83,0,0,1,1.95-1l.32.66a12.94,12.94,0,0,0-1.91.93Zm70.46-.59-2.12-.55L86.8,49l2.12.55Zm-4.24-1.08-2.12-.51.16-.71,2.14.51Zm-62.33-.24-.29-.67c.67-.29,1.35-.55,2.06-.81l.25.69a19.47,19.47,0,0,0-2,.75Zm58.08-.75-2.14-.45.15-.72,2.14.46Zm-54-.74L26,46.7c.69-.21,1.4-.42,2.12-.61l.19.71c-.71.2-1.41.35-2.09.56ZM76,47.22l-2.15-.41.13-.72,2.16.41Zm-4.31-.78-2.15-.35.11-.72,2.17.34Zm-41.21-.2-.16-.72c.7-.16,1.42-.31,2.15-.45l.14.72c-.75.14-1.47.29-2.17.45Zm36.9-.47-2.17-.29.09-.73,2.18.29Zm-32.63-.35-.11-.73,2.18-.31.09.73c-.77.09-1.49.19-2.2.31ZM63,45.22c-.73-.08-1.45-.16-2.17-.22l.07-.73,2.18.22Zm-24-.36v-.73l2.19-.2.06.73C40.48,44.72,39.75,44.78,39,44.86Zm19.61-.06-2.17-.16v-.73l2.19.16Zm-15.27-.27v-.74l2.19-.09v.74l-2.15.09Zm10.91,0-2.18-.08v-.73l2.2.08Zm-4.36-.12H47.75v-.73H50Z"/><path class="a9aa60b2-f216-4dd3-aa50-eaddca517516" d="M47.91,154.76h-2.2V154h2.18Zm2.19,0V154l2.19-.05v.73Zm-6.59-.12-2.19-.14v-.73l2.18.14Zm11,0v-.73l2.18-.12v.73Zm4.38-.28-.06-.73,2.17-.2.07.73Zm-19.75,0c-.74-.07-1.47-.15-2.19-.25l.1-.72q1.06.13,2.16.24Zm24.12-.4-.08-.73c.71-.08,1.44-.16,2.17-.26l.09.73Zm-28.49-.15c-.73-.12-1.45-.24-2.17-.38l.14-.72c.71.14,1.42.26,2.15.37Zm32.84-.4-.1-.73,2.16-.32.11.72c-.73.07-1.46.17-2.18.28ZM30.45,153l-2.14-.52.19-.71c.69.18,1.39.35,2.11.51Zm41.5-.26-.12-.72,2.15-.38.13.72Zm4.32-.79-.14-.71,2.14-.44.15.72Zm-50.08-.08c-.72-.22-1.41-.45-2.09-.7l.24-.69c.67.24,1.36.47,2.06.69ZM80.56,151l-.16-.71,2.13-.49.17.72ZM22,150.31c-.69-.28-1.37-.59-2-.91l.32-.65c.64.31,1.3.6,2,.89Zm62.8-.3-.18-.71,2.12-.53.19.7c-.69.19-1.39.37-2.1.53Zm4.25-1.09-.19-.71,2.11-.58.2.71Zm-71-.54c-.65-.37-1.28-.76-1.88-1.16l.4-.61c.59.39,1.21.77,1.85,1.13Zm75.25-.64-.2-.71,2.1-.62.21.7Zm4.2-1.28-.22-.69,2.09-.67.22.7C98.9,146,98.2,146.25,97.5,146.46Zm-83.13-.54c-.59-.46-1.16-.94-1.69-1.44l.5-.53a15.55,15.55,0,0,0,1.64,1.4Zm87.3-.81-.23-.7,2.07-.7.24.69Zm4.15-1.44-.25-.69,2.06-.75.25.69Zm-94.69-.78a14.91,14.91,0,0,1-1.38-1.75l.6-.42a21.31,21.31,0,0,0,1.33,1.68Zm98.81-.74-.27-.69,2-.79.27.68Zm4.08-1.61-.28-.68,2-.8.19.32.09.35-2,.81ZM8.56,139.26a18.65,18.65,0,0,1-1-2l.67-.28a20.21,20.21,0,0,0,.94,1.93Zm109.51-.4-.29-.67c.68-.29,1.35-.57,2-.87l.29.68C119.42,138.29,118.75,138.58,118.07,138.86Zm4-1.75-.3-.67,2-.91.31.67Zm4-1.84-.31-.66,2-.94.32.66ZM6.84,135.16A19.93,19.93,0,0,1,6.33,133l.72-.13c.13.72.29,1.43.49,2.13ZM130,133.36l-.32-.66,2-1,.33.65Zm3.91-2-.34-.65,1.94-1,.34.65ZM6.06,130.78c0-.53-.06-1.07-.06-1.61v-.61h.73v2.16Zm131.74-1.49-.35-.64,1.91-1.06.36.64Zm3.82-2.15-.36-.64,1.88-1.1.38.63ZM6.9,126.43l-.73-.09c.08-.71.2-1.45.34-2.18l.72.13C7.09,125,7,125.73,6.9,126.43Zm138.5-1.53-.38-.62,1.86-1.15.39.62Zm3.72-2.32-.39-.62,1.83-1.19.4.62Zm-141.4-.39L7,122c.19-.7.41-1.41.65-2.12l.7.24C8.12,120.81,7.91,121.51,7.72,122.19Zm145.07-2-.41-.61,1.8-1.23.42.6ZM9.11,118.09l-.67-.27c.27-.67.56-1.35.88-2l.66.31C9.67,116.77,9.38,117.43,9.11,118.09Zm147.29-.42-.43-.6c.6-.42,1.19-.85,1.78-1.28l.43.6Zm3.54-2.59-.44-.59,1.74-1.32.45.58Zm-149-.92-.65-.34c.33-.65.69-1.29,1.06-1.93l.64.36c-.36.64-.71,1.27-1,1.91Zm152.46-1.77-.46-.57c.58-.46,1.14-.92,1.7-1.38l.47.56c-.55.47-1.11.93-1.7,1.39Zm-150.29-2L12.5,110c.39-.61.79-1.23,1.21-1.84l.6.41c-.41.61-.81,1.21-1.19,1.82Zm153.68-.79-.47-.56c.55-.48,1.11-1,1.65-1.43l.48.55c-.53.48-1.09,1-1.65,1.44ZM15.56,106.79l-.59-.44,1.32-1.76.58.45C16.42,105.62,16,106.2,15.56,106.79Zm154.54-.09-.49-.54,1.6-1.49.5.53Zm3.2-3-.52-.52c.53-.51,1-1,1.55-1.54l.52.51c-.51.5-1,1-1.55,1.53Zm-155.08-.35-.56-.46c.45-.56.92-1.12,1.41-1.69l.55.48c-.48.54-.94,1.1-1.4,1.65Zm158.16-2.78-.54-.5c.51-.54,1-1.07,1.48-1.61l.55.49ZM21.06,100l-.54-.49c.48-.54,1-1.08,1.49-1.61l.53.5C22,99,21.55,99.49,21.06,100Zm158.26-2.74-.56-.48c.48-.55,1-1.11,1.41-1.67l.56.47c-.49.57-1,1.14-1.41,1.7ZM24.05,96.84l-.52-.51c.51-.52,1-1,1.56-1.55l.51.52Zm158-3-.58-.44c.45-.59.89-1.17,1.31-1.75l.59.43a18.18,18.18,0,0,1-1.27,1.79Zm-154.88,0-.5-.53,1.61-1.5.5.55C28.23,92.8,27.7,93.29,27.17,93.79Zm3.23-2.94-.48-.55,1.66-1.44.48.56Zm154.29-.54-.61-.41c.42-.61.81-1.21,1.2-1.82l.61.39c-.38.61-.78,1.23-1.2,1.84ZM33.73,88l-.46-.57c.56-.46,1.12-.92,1.7-1.38l.46.57ZM187,86.59l-.63-.37a20.5,20.5,0,0,0,1-1.9l.65.34A12.43,12.43,0,0,1,187,86.59ZM37.14,85.29l-.45-.58,1.75-1.33.44.58Zm151.94-2.61-.66-.31c.31-.66.6-1.33.87-2l.68.28C189.7,81.33,189.4,82,189.08,82.68Zm-148.45,0-.43-.59c.59-.43,1.18-.86,1.78-1.28l.43.59Zm3.56-2.53-.41-.61,1.81-1.24.41.61Zm146.55-1.54-.69-.24c.24-.68.45-1.38.64-2.06l.71.19c-.2.68-.4,1.39-.66,2.09ZM47.82,77.68l-.4-.61,1.84-1.2.39.62Zm3.68-2.36-.39-.62L53,73.55l.38.63Zm140.4-1-.71-.14c.14-.72.25-1.44.33-2.13l.73.09C192.17,72.85,192.05,73.58,191.9,74.32ZM55.23,73.05l-.37-.63,1.89-1.11.37.64ZM59,70.86l-.36-.63c.63-.36,1.27-.72,1.92-1.07l.35.64Zm133.39-.93h-.73v-.65c0-.5,0-1,0-1.5h.73v1.55a1.24,1.24,0,0,1,.07.6ZM62.85,68.76l-.35-.65,1.94-1,.34.64Zm3.87-2-.33-.65,2-1,.33.66c-.72.3-1.35.63-2,1Zm124.66-1.11a18.78,18.78,0,0,0-.48-2.1l.7-.2a20.06,20.06,0,0,1,.5,2.17ZM70.64,64.78l-.32-.66,2-.94.31.66Zm4-1.87-.3-.66,2-.91.31.67Zm115.6-1.41a20.21,20.21,0,0,0-.94-1.93l.64-.36a18.65,18.65,0,0,1,1,2ZM78.58,61.12l-.29-.67,2-.87.29.68Zm4-1.71-.28-.68h.09l2-.83.27.68-2,.83Zm105.5-1.66c-.41-.58-.86-1.14-1.33-1.69l.55-.48c.49.56.95,1.15,1.38,1.75Zm-101.35,0-.27-.68,2.05-.79.26.69Zm4.09-1.55-.26-.69,2.07-.75.24.69c-.65.22-1.34.47-2,.73ZM95,54.7l-.28-.7,2.08-.71L97,54Zm90.32-.19c-.51-.48-1.06-.95-1.63-1.4l.45-.58c.59.47,1.16.95,1.68,1.45Zm-86.17-1.2-.23-.7,2.09-.67.22.7ZM103.28,52l-.21-.7,2.1-.63.21.71Zm78.62-.16c-.59-.39-1.21-.77-1.84-1.13l.36-.64c.65.37,1.28.76,1.88,1.16Zm-74.42-1.06-.2-.71,2.12-.58.19.71Zm70.66-1.08c-.63-.31-1.3-.61-2-.89l.29-.68c.69.29,1.36.6,2,.91Zm-66.44-.05-.18-.71,2.13-.54.17.72C113.12,49.29,112.41,49.46,111.7,49.65Zm4.25-1-.17-.71,2.14-.49.16.72c-.72.13-1.41.27-2.08.44ZM174.14,48c-.67-.24-1.36-.47-2.06-.69l.22-.7c.71.22,1.41.46,2.09.7Zm-53.92-.35-.15-.72,2.15-.43.14.72Zm4.29-.84-.13-.72,2.16-.38.12.73Zm45.48-.1c-.69-.18-1.39-.36-2.11-.52l.16-.71c.73.16,1.44.34,2.14.52Zm-41.17-.62-.12-.73,2.18-.32.1.73-2.16.34Zm36.93-.34c-.71-.13-1.42-.26-2.15-.37l.11-.72c.74.11,1.46.24,2.17.37Zm-32.61-.27-.09-.73,2.18-.26.08.73-2.17.28Zm28.3-.41q-1.06-.14-2.16-.24l.07-.73c.74.07,1.47.16,2.18.25Zm-24-.08-.07-.73,2.19-.2.06.73Zm19.63-.35c-.72-.06-1.45-.1-2.18-.14v-.73c.74,0,1.47.08,2.19.14Zm-15.27,0-.05-.73L144,43.8v.73Zm4.36-.21V43.7h2.2v.73Zm6.55,0h-2.18V43.7h2.2Z"/><path class="a9aa60b2-f216-4dd3-aa50-eaddca517516" d="M129.17,192.42h-.67v-.73h2.15l0,.73C130.21,192.4,129.69,192.42,129.17,192.42Zm-2.88-.17c-.72-.08-1.46-.2-2.19-.35l.14-.71c.71.14,1.43.25,2.13.33Zm6.64-.15-.12-.72a18.61,18.61,0,0,0,2.09-.48l.2.7a18,18,0,0,1-2.17.5Zm-11-.7c-.69-.2-1.41-.41-2.11-.66l.24-.69c.69.24,1.38.45,2.07.64Zm15.27-.54-.28-.67a20.21,20.21,0,0,0,1.93-.94l.35.64a18.28,18.28,0,0,1-2,1ZM117.76,190c-.67-.27-1.34-.57-2-.89l.31-.66c.67.31,1.33.6,2,.87Zm23.34-1.26-.43-.6a19.76,19.76,0,0,0,1.69-1.33l.48.55q-.84.7-1.74,1.35Zm-27.33-.61c-.65-.34-1.29-.69-1.93-1.06l.36-.64a19.44,19.44,0,0,0,1.91,1ZM110,185.9c-.61-.39-1.23-.79-1.84-1.21l.41-.61c.61.42,1.22.81,1.82,1.2Zm34.49-.12-.53-.5a15.44,15.44,0,0,0,1.4-1.63l.58.45c-.52.59-1,1.16-1.5,1.68Zm-38.13-2.36c-.59-.42-1.17-.86-1.76-1.32l.45-.58c.58.45,1.16.89,1.74,1.31Zm40.88-1.12-.61-.4c.39-.59.78-1.21,1.13-1.84l.64.36c-.4.64-.81,1.28-1.21,1.88Zm-44.36-1.57c-.56-.46-1.13-.93-1.69-1.41l.48-.56c.56.48,1.11,1,1.67,1.41Zm46.55-2.27-.66-.32c.31-.63.61-1.3.9-2l.67.28c-.34.72-.64,1.4-1,2Zm-49.89-.59-1.62-1.49.51-.54c.53.51,1.07,1,1.6,1.48Zm-3.2-3c-.52-.51-1-1-1.55-1.55l.52-.52,1.55,1.55Zm54.8-.46-.69-.25c.25-.67.48-1.35.69-2.06l.7.22c-.27.68-.5,1.39-.75,2.07Zm-57.87-2.68c-.5-.53-1-1.06-1.49-1.61l.54-.49c.49.54,1,1.07,1.48,1.6Zm59.18-1.53-.7-.19c.18-.69.35-1.39.51-2.11l.72.16c-.22.71-.39,1.42-.58,2.12Zm-62.14-1.72c-.48-.54-1-1.1-1.43-1.66l.56-.47c.47.56,1,1.11,1.42,1.65Zm63.11-2.58-.72-.13c.14-.71.26-1.42.38-2.15l.72.12c-.17.71-.29,1.43-.43,2.14Zm-65.95-.76c-.46-.56-.93-1.13-1.39-1.71l.58-.46c.45.58.91,1.14,1.37,1.7Zm-2.74-3.43L83.39,160l.59-.44c.44.59.88,1.16,1.33,1.74Zm69.38-.15-.73-.1c.09-.71.17-1.43.25-2.16l.73.07c-.13.72-.21,1.45-.3,2.17Zm-72-3.36-1.29-1.78.6-.43c.42.6.85,1.19,1.28,1.78Zm72.46-1h-.73c0-.72.1-1.45.13-2.18h.73c-.1.69-.15,1.42-.2,2.14Zm-75-2.56-1.24-1.81.61-.41q.61.92,1.23,1.8Zm75.23-1.83h-.73v-2.18h.73c0,.68-.06,1.42-.08,2.14ZM77,151l-1.2-1.84.62-.39,1.19,1.83Zm77-2.57c0-.73,0-1.45-.05-2.19h.73v2.2Zm-79.36-1.12c-.38-.62-.77-1.24-1.15-1.87l.63-.38,1.14,1.86ZM153.9,144c0-.72-.08-1.45-.13-2.18l.73,0c.05.74.09,1.47.13,2.2Zm-81.51-.5c-.37-.63-.74-1.26-1.1-1.9l.63-.36c.37.63.73,1.26,1.1,1.88Zm-2.19-3.8c-.36-.64-.72-1.28-1.07-1.92l.64-.35c.35.64.71,1.27,1.07,1.91Zm83.41-.06c-.06-.72-.12-1.44-.19-2.17l.73-.07c.07.73.13,1.46.19,2.18Zm-85.53-3.79-1-1.94.65-.34c.33.65.68,1.29,1,1.93Zm85.11-.56c-.08-.71-.17-1.44-.26-2.16l.73-.1c.09.73.18,1.46.26,2.18ZM66.05,132c-.33-.65-.66-1.3-1-2l.65-.32c.33.65.66,1.3,1,2Zm86.59-1c-.1-.72-.21-1.44-.32-2.16l.72-.11c.12.72.22,1.45.33,2.17ZM64.1,128.05c-.32-.65-.64-1.31-.95-2l.66-.31c.32.66.63,1.32,1,2Zm87.9-1.39c-.12-.71-.25-1.43-.38-2.15l.72-.13c.14.72.26,1.44.38,2.16Zm-89.75-2.57-.9-2,.66-.3c.3.67.61,1.33.91,2Zm89-1.73c-.14-.71-.28-1.42-.43-2.14l.71-.15c.15.72.3,1.44.44,2.15Zm-90.76-2.28-.87-2,.67-.29.87,2Zm89.87-2-.48-2.13.71-.17c.17.72.33,1.43.48,2.14Zm-91.59-2,.34-.13-.35.1-.82-2,.68-.28c.26.67.53,1.33.81,2l-.32.19Zm90.6-2.22c-.17-.7-.35-1.41-.53-2.12l.71-.18c.18.71.36,1.42.53,2.13ZM57.07,112c-.27-.68-.53-1.37-.79-2l.68-.26c.26.68.52,1.36.79,2Zm91.16-2.39c-.19-.7-.38-1.4-.58-2.11l.7-.2c.2.71.4,1.42.58,2.12ZM55.51,107.9c-.26-.69-.51-1.37-.75-2.06l.69-.25c.24.69.49,1.37.75,2.06Zm91.54-2.5c-.2-.7-.41-1.4-.62-2.1l.7-.21c.21.7.42,1.4.62,2.1Zm-93-1.63c-.24-.69-.48-1.38-.71-2.07l.69-.24c.23.69.47,1.38.71,2.07Zm91.75-2.56c-.21-.69-.44-1.38-.66-2.08l.69-.23c.23.7.45,1.4.67,2.09Zm-93.15-1.6c-.23-.7-.45-1.39-.67-2.09l.7-.22.66,2.09ZM144.43,97c-.23-.69-.47-1.38-.71-2.07l.7-.24.71,2.07ZM51.31,95.41c-.21-.71-.42-1.41-.62-2.11l.7-.2c.2.7.41,1.4.62,2.09ZM143,92.9l-.75-2.05.69-.25.75,2.06ZM50.09,91.19c-.2-.7-.4-1.41-.58-2.11l.7-.19c.19.7.38,1.4.58,2.11Zm91.39-2.39-.79-2,.68-.26.8,2ZM49,87c-.18-.71-.36-1.42-.53-2.13l.71-.18c.17.71.35,1.42.53,2.12Zm90.93-2.23c-.27-.67-.54-1.35-.82-2v-.1l.67-.29.05.11.82,2Zm-92-2c-.17-.71-.33-1.42-.49-2.14l.72-.15c.15.7.31,1.42.48,2.13Zm90.26-2.1-.87-2,.67-.29.87,2ZM47,78.41c-.15-.72-.29-1.44-.43-2.15l.72-.14c.14.71.28,1.42.43,2.14Zm89.46-1.83-.91-2,.66-.3c.31.66.61,1.33.91,2ZM46.12,74.1c-.13-.72-.26-1.44-.38-2.16l.72-.12c.13.71.25,1.43.38,2.15Zm88.47-1.49c-.32-.66-.63-1.32-1-2l.66-.32.95,2Zm-89.2-2.84c-.11-.72-.22-1.45-.32-2.17l.72-.1c.1.72.21,1.44.32,2.16Zm87.29-1.09-1-2,.66-.34c.33.65.66,1.3,1,2ZM44.77,65.43c-.09-.73-.18-1.46-.26-2.18l.73-.09c.08.72.17,1.45.26,2.17Zm85.92-.65-1-1.93.64-.35,1,1.94ZM44.28,61.06c-.07-.73-.13-1.46-.19-2.18l.73-.06c.06.72.12,1.44.19,2.17Zm84.34-.13c-.35-.64-.7-1.28-1.06-1.91l.64-.36c.36.63.71,1.27,1.07,1.92Zm-2.14-3.81-1.11-1.89.63-.37,1.11,1.89Zm-82.55-.43c0-.74-.09-1.47-.13-2.2h.73c0,.72.08,1.45.13,2.18Zm80.32-3.33c-.38-.63-.77-1.25-1.15-1.86l.62-.39c.39.62.77,1.24,1.15,1.87ZM43.71,52.3V50.1h.73c0,.73,0,1.45.05,2.19Zm78.22-2.65c-.39-.62-.79-1.23-1.19-1.83l.62-.4,1.19,1.84ZM44.39,47.91h-.73v-2.2h.73C44.41,46.45,44.4,47.18,44.39,47.91ZM119.53,46l-1.23-1.81.6-.41c.42.59.83,1.2,1.24,1.81Zm-75-2.45H43.8c0-.74.08-1.47.13-2.19h.73c-.06.73-.1,1.46-.14,2.19ZM117,42.41c-.42-.6-.85-1.19-1.28-1.78l.59-.43,1.33,1.8ZM44.84,39.2l-.73-.07c.08-.74.16-1.47.25-2.19l.73.09C45,37.75,44.92,38.47,44.84,39.2Zm69.62-.32c-.44-.59-.88-1.16-1.33-1.74l.58-.45c.45.58.89,1.16,1.33,1.75Zm-2.68-3.45c-.46-.58-.91-1.14-1.37-1.7l.56-.47c.46.57.92,1.13,1.38,1.71Zm-66.39-.55-.72-.12c.11-.73.24-1.45.37-2.17l.72.14C45.63,33.44,45.5,34.15,45.39,34.88ZM109,32.06c-.47-.56-1-1.11-1.42-1.66l.54-.48c.48.54,1,1.1,1.44,1.66ZM46.2,30.6l-.71-.16c.16-.73.33-1.44.52-2.14l.71.18C46.53,29.18,46.36,29.88,46.2,30.6Zm59.92-1.82c-.49-.55-1-1.08-1.49-1.61l.54-.5c.5.53,1,1.07,1.49,1.61ZM47.31,26.39l-.69-.21c.22-.72.45-1.41.69-2.1l.69.25C47.76,25,47.53,25.69,47.31,26.39Zm55.81-.79c-.51-.53-1-1-1.54-1.55l.51-.52,1.56,1.56ZM100,22.54l-1.6-1.48.49-.54c.54.48,1.08,1,1.62,1.49Zm-51.22-.23L48.11,22c.29-.69.59-1.37.91-2l.66.32c-.31.68-.61,1.31-.89,2Zm48-2.69c-.55-.48-1.11-.94-1.67-1.4l.46-.56c.57.45,1.13.92,1.69,1.41Zm-46.1-1.21-.63-.36c.37-.65.76-1.29,1.15-1.89l.61.41C51.43,17.15,51.05,17.77,50.68,18.41Zm42.7-1.54c-.58-.45-1.16-.89-1.74-1.31l.43-.59c.59.42,1.17.86,1.76,1.32Zm-40.3-2.05-.58-.45c.46-.59,1-1.16,1.44-1.69l.54.5C54,13.7,53.52,14.25,53.08,14.82Zm36.78-.51c-.61-.41-1.22-.81-1.82-1.19l.39-.62c.61.38,1.22.79,1.84,1.2ZM86.17,12c-.63-.36-1.27-.71-1.9-1l.34-.65c.64.33,1.28.69,1.93,1.06ZM56,11.68l-.48-.55a21.07,21.07,0,0,1,1.74-1.38l.42.6A19.62,19.62,0,0,0,56,11.68ZM82.32,10c-.66-.31-1.33-.6-2-.87l.28-.68c.67.28,1.34.57,2,.89Zm-22.8-.8-.36-.64a18.65,18.65,0,0,1,2-1l.28.67A19.17,19.17,0,0,0,59.52,9.2ZM78.3,8.35c-.69-.23-1.39-.44-2.07-.63L76.42,7c.7.19,1.41.41,2.12.65ZM63.47,7.54l-.2-.7a20.1,20.1,0,0,1,2.17-.51l.12.72C64.86,7.18,64.16,7.34,63.47,7.54Zm10.66-.31C73.42,7.09,72.7,7,72,6.9l.08-.73c.72.08,1.46.2,2.19.34ZM67.7,6.79V6.06c.73,0,1.47-.07,2.22,0v.73A13.7,13.7,0,0,0,67.7,6.79Z"/></g></svg>