<svg id="af77e2cc-2ae1-45d1-ae24-d98b42dc4f99" data-name="Layer 1" xmlns="http://www.w3.org/2000/svg" viewBox="0 0 323.75 362"><defs><style>.a712a540-4e38-40e6-a1c2-e9c84cd1144d,.bdcb1925-9cf9-4bb5-ab98-bbdb6d9ab616{fill:none;stroke:#000;stroke-miterlimit:10;}.a712a540-4e38-40e6-a1c2-e9c84cd1144d{stroke-width:0.75px;stroke-dasharray:3 3;}.bdcb1925-9cf9-4bb5-ab98-bbdb6d9ab616{stroke-width:2px;}</style></defs><title>16u</title><g id="ad01da45-3d5a-400f-a829-b194ee3829a3" data-name="circles"><path class="a712a540-4e38-40e6-a1c2-e9c84cd1144d" d="M238.38,201.5c-25.73,96-80.82,164.69-123.09,153.37S59.64,256.52,85.37,160.5,166.21-4.19,208.46,7.13,264.11,105.48,238.38,201.5Z" transform="translate(-0.01)"/><path class="a712a540-4e38-40e6-a1c2-e9c84cd1144d" d="M230.47,141.4c49.7,86.09,59.3,173.61,21.4,195.49S143,306.69,93.28,220.6,34,47,71.87,25.12,180.76,55.31,230.47,141.4Z" transform="translate(-0.01)"/><path class="bdcb1925-9cf9-4bb5-ab98-bbdb6d9ab616" d="M201.48,249.59C115.39,299.3,27.87,308.89,6,271S36.2,162.11,122.28,112.41,295.89,53.11,317.76,91,287.57,199.89,201.48,249.59Z" transform="translate(-0.01)"/><path class="bdcb1925-9cf9-4bb5-ab98-bbdb6d9ab616" d="M201.48,112.41C287.57,162.11,339.64,233.1,317.76,271s-109.4,28.3-195.49-21.41S-15.88,128.88,6,91,115.39,62.7,201.48,112.41Z" transform="translate(-0.01)"/><path class="bdcb1925-9cf9-4bb5-ab98-bbdb6d9ab616" d="M82.67,181c0-99.41,35.45-180,79.21-180s79.2,80.59,79.2,180-35.45,180-79.2,180S82.67,280.4,82.67,181Z" transform="translate(-0.01)"/><path class="a712a540-4e38-40e6-a1c2-e9c84cd1144d" d="M240.4,170.66c13,98.56-11.64,183.09-55,188.8s-89-69.57-102-168.12S95,8.25,138.38,2.54,227.43,72.1,240.4,170.66Z" transform="translate(-0.01)"/><path class="a712a540-4e38-40e6-a1c2-e9c84cd1144d" d="M210.09,118.16c78.87,60.52,121.23,137.7,94.59,172.42s-112.16,13.77-191-46.74S-7.56,106.13,19.07,71.43,131.23,57.65,210.09,118.16Z" transform="translate(-0.01)"/><path class="a712a540-4e38-40e6-a1c2-e9c84cd1144d" d="M224.71,229.22C164.2,308.08,87,350.44,52.3,323.8S38.52,211.65,99,132.78,236.75,11.56,271.45,38.19,285.23,150.35,224.71,229.22Z" transform="translate(-0.01)"/><path class="a712a540-4e38-40e6-a1c2-e9c84cd1144d" d="M240.91,186.18c-6.5,99.19-47.14,177.29-90.81,174.43S76.34,275,82.84,175.82,130-1.48,173.65,1.39,247.41,87,240.91,186.18Z" transform="translate(-0.01)"/><path class="a712a540-4e38-40e6-a1c2-e9c84cd1144d" d="M221.42,128.77c65.55,74.75,92,158.71,59.14,187.56S167.87,308,102.33,233.22,10.3,74.51,43.19,45.67,155.88,54,221.42,128.77Z" transform="translate(-0.01)"/><path class="a712a540-4e38-40e6-a1c2-e9c84cd1144d" d="M214.1,240.55c-74.74,65.54-158.7,92-187.56,59.13S34.92,187,109.65,121.45s158.71-92,187.56-59.14S288.84,175,214.1,240.55Z" transform="translate(-0.01)"/><path class="a712a540-4e38-40e6-a1c2-e9c84cd1144d" d="M236.88,155.54c31.95,94.13,24.29,181.84-17.15,195.91s-100.9-50.86-132.85-145S62.6,24.61,104,10.55,204.92,61.41,236.88,155.54Z" transform="translate(-0.01)"/><path class="a712a540-4e38-40e6-a1c2-e9c84cd1144d" d="M232.91,216c-44,89.16-111.4,145.76-150.65,126.4S46.87,235.12,90.84,146,202.25.21,241.48,19.56,276.88,126.88,232.91,216Z" transform="translate(-0.01)"/></g></svg>