<svg id="b13603ab-7191-4ebe-99f5-c4b028f21d58" data-name="Layer 1" xmlns="http://www.w3.org/2000/svg" viewBox="0 0 118.77 118.76"><defs><style>.e7c5732f-cf44-4575-8857-9812daa4960d{fill:none;stroke:#000;stroke-miterlimit:10;stroke-width:0.46px;}</style></defs><title>27u</title><g id="abba9b19-263e-4e3d-9798-d64ee552e21e" data-name="shapes"><path class="e7c5732f-cf44-4575-8857-9812daa4960d" d="M77.33,77.79c-23.1,23.1-50.06,33.59-60.23,23.42S17.42,64.08,40.52,41,90.59,7.39,100.75,17.55,100.43,54.69,77.33,77.79Z" transform="translate(0.46)"/><path class="e7c5732f-cf44-4575-8857-9812daa4960d" d="M40.52,77.79C17.42,54.69,6.93,27.72,17.1,17.55S54.23,17.88,77.33,41s33.59,50,23.42,60.21S63.62,100.88,40.52,77.79Z" transform="translate(0.46)"/><path class="e7c5732f-cf44-4575-8857-9812daa4960d" d="M58.93,85.41c-32.67,0-59.16-11.65-59.16-26s26.49-26,59.15-26,59.16,11.65,59.16,26S91.59,85.41,58.93,85.41Z" transform="translate(0.46)"/><path class="e7c5732f-cf44-4575-8857-9812daa4960d" d="M32.9,59.38C32.9,26.71,44.54.23,58.93.23S85,26.71,85,59.38s-11.65,59.15-26,59.15S32.9,92.05,32.9,59.38Z" transform="translate(0.46)"/><path class="e7c5732f-cf44-4575-8857-9812daa4960d" d="M83,69.34C70.47,99.52,49.57,119.53,36.29,114S22.38,79.6,34.88,49.42,68.28-.77,81.56,4.73,95.47,39.16,83,69.34Z" transform="translate(0.46)"/><path class="e7c5732f-cf44-4575-8857-9812daa4960d" d="M49,83.43C18.78,70.93-1.23,50,4.28,36.74s34.42-13.91,64.6-1.41S119.08,68.74,113.57,82,79.14,95.93,49,83.43Z" transform="translate(0.46)"/><path class="e7c5732f-cf44-4575-8857-9812daa4960d" d="M68.89,83.43C38.7,95.93,9.78,95.3,4.27,82S18.78,47.83,49,35.33s59.11-11.87,64.61,1.41S99.07,70.93,68.89,83.43Z" transform="translate(0.46)"/><path class="e7c5732f-cf44-4575-8857-9812daa4960d" d="M34.88,69.34C22.38,39.16,23,10.23,36.29,4.73S70.47,19.24,83,49.42,94.84,108.53,81.56,114,47.38,99.52,34.88,69.34Z" transform="translate(0.46)"/></g></svg>