<svg id="bf6c710e-e723-49c0-9534-a0174e2ece7a" data-name="Layer 1" xmlns="http://www.w3.org/2000/svg" viewBox="0 0 215.67 205.12"><title>01u</title><g id="e749e4dc-869f-4b18-bc97-31fe5b65bbf0" data-name="Layer 1-2"><path d="M180.09,187.85l35.58-109.5L201.25,67.87v-.05l-.27-.14L108.13.21,107.84,0,93.41,10.48h0l-.23.22L0,78.35l5.51,17h0l.15.3L41.19,205.12H174.48l5.51-17h0ZM214.5,78.73l-33.16,102,1.54-8.7h0v-.32L201.06,69Zm-156.84.83,51.43-18.72-1.22.64h0l-.25.19L58,88Zm83.83,53.27-29.85,13.29L141,127.8ZM85.28,98.19l19.56-7.12L85.39,101.41Zm37.59,23.89L113,126.46l9.67-6ZM98,108.58l3.79-2-3.68,2.67Zm16.42,8.6-.74.33.73-.46Zm-13.22-2.12v0Zm13,.92-.1.06.09-.08Zm-6.84,4.27h0l-.09-.08ZM102,115.74l1.77-7.13,7.33-.51,2.75,6.81-5.62,4.72Zm10.19-7.61h0v0Zm-8-.55Zm2.19,13.16-.11.05-.54-.6Zm7-12.43h.12l.08.81Zm-8.64-1.71.07-.11.79.17Zm-4.29,7.68-.09-.09.41-.7Zm4.82,6.86-.23.07-.88-1.31Zm9.17-2.87v.24L113,119Zm.27-7.94-.17-1.66.23.08Zm-9.27-4.72.15-.2L107,106Zm-5.73,7.7-.13-.2,1-1.24ZM104,121.4l-.37.06-1.06-2.16Zm10.31-1.8-.06.36-2.39.34Zm1.38-7.83.09-2.54.33.17Zm-9.32-7.15.27-.26,2.12,1.13ZM99,112.15l-.16-.33,1.72-1.67Zm3.45,9.35H102l-1-3.15Zm11.42-.49-.16.49h-3.32ZM117,110l.42.31-1,3.14Zm-9.52-6.31.41-.3,2.68,1.94Zm-9,7.1-.16-.48,2.67-2Zm2.39,10.61-.66-.1-.75-4.23Zm12.42,1.1-.29.6-4.26-.6Zm4.89-11.5.48.46-1.88,3.87Zm-9.4-8.2.59-.31,3.09,3ZM99.15,121l-.8-.23-.19-5.38Zm13.28,3-.47.69-5.17-1.48Zm6.94-11.71.51.66-3,4.46Zm-9-10.21.78-.29,3.31,4.24Zm-12.5,5.39v-.84l5.06-1.84Zm-.79,6,.24,6.94L96.4,120Zm14.18,12.08-.68.76-6-2.67Zm9.19-11.66.51.88-4.39,4.88Zm-8.24-12.35,1-.21,3.28,5.68Zm-14.3,4,.11-1,6.41-1.37Zm-2.46,13.89-1-.64,1.89-7.61ZM109.77,127l-.93.78-6.65-4.15Zm11.64-11.28.46,1.13-6,5Zm-7.12-14.55,1.21-.09,2.93,7.27Zm-16,2.28.29-1.18,7.82-.55ZM93.6,118.15l-1.1-.93L96,108.65Zm14.4,10.3-1.22.76-7.08-6ZM122.19,118l.34,1.39-7.84,4.9Zm-5.59-16.79,1.43.1,2.23,9Zm-17.69.13.53-1.33,9.23.65ZM91.7,116.46l-1.12-1.24L96,105.88Zm14.06,13.23-1.53.68-7.21-8Zm13.34-28.25,1.63.35,1.13,10.72ZM100,99l.83-1.45,10.54,2.24ZM90,114.34l-1.08-1.6,7.66-9.81Zm13.26,16.38-1.86.53-7-10.33Zm19.67-7.55-.06,1.93-12,3.43Zm.28-8-1.38-13.1,1.82.66ZM101.42,96.66l1.18-1.52,11.7,4.26ZM88.34,111.78l-1-2,10.27-9.92Zm11.93,19.67-2.19.3-6.26-12.83Zm22.39-5.27-.38,2.17-14.14,2Zm1.91-22.93,2,1L124,118.35Zm-21.21-8.9L105,92.82l12.6,6.7ZM87,108.77l-.78-2.4,13.16-9.56Zm10,23H94.47l-5-15.47Zm25-2.4-.78,2.4H104.94Zm5.44-24.51,2,1.48-5,15.47ZM105.8,92.14l2-1.48,13.2,9.56ZM86,105.31l-.49-2.81,16.28-8.66Zm7.42,26.38-2.83-.39-3.21-18.17Zm27.38,1.11-1.25,2.57-18.26-2.57Zm9.51-25.7,2.06,2-8.08,16.57Zm-21.5-17,2.52-1.34,13.27,12.81ZM89.5,131l-3.1-.89-.73-20.8Zm29.5,5.3-1.86,2.7-20-5.74Zm14.1-26.39,2,2.54-11.64,17.26ZM112.31,88.35l3-1.1,12.81,16.4Zm-27,8.75.38-3.61,22.89-4.86Zm-.83,7.9.86,24.75L82,128.28Zm31.93,34.81L114,142.5,92.64,133Zm19.16-26.44,1.82,3.14L121.77,133.9ZM116.39,87l3.55-.76,11.7,20.27ZM86,92.43l1-4,26.17-1.83Zm-4.83,35.31-3.44-2.15L84,100.13Zm32.1,15.5-3.11,2.61L87.86,132Zm24.66-25.73,1.52,3.76-20.09,16.86ZM121,86.1l4-.28,9.83,24.31ZM87.29,87.46,89,83.25l29.25,2ZM76.81,124.92,73.34,122l11-27.18Zm32.39,21.55-3.84,2.4L82.9,130Zm30.51-24.15,1.09,4.4L116,142.25ZM126.16,85.85l4.53.31,7.09,28.44ZM89.5,82.28,92,77.9l32,6.79ZM72.57,121.22l-3.38-3.76,16.34-28.3Zm31.81,28.14-4.62,2L77.89,127.13Zm27.39-63,4.95,1.06,3.41,32.49ZM92.66,77l3.47-4.44L130.29,85ZM68.54,116.59l-3.15-4.67L87.77,83.27Zm30.18,35.17-5.41,1.55L73,123.17Zm42.78-17.84-.2,5.63-34.94,10Zm.28-7.94-4-38.25L143,89.65Zm-44.9-54.2,4.5-4.34,35.64,19ZM64.87,111l-2.74-5.62,29-28Zm27.37,42.55-6.19.87L68.35,118.1Zm48.92-12.88-1.09,6.15-40,5.62Zm1.38-7.83L144,90.12l5.52,2.94Zm1.23-44L102.23,66.76l5.6-4.07L143.91,88.9ZM95.59,71.64,61.75,104.32l-2.14-6.59L95.68,71.52Zm-31.26,40.5L85,154.42H78L64.25,112ZM93.2,154.38l46.58-6.55-2.14,6.59H93.06ZM142.29,140l8.17-46.32,5.6,4.07-13.78,42.4Zm8.36-47.42h0l-.29-.15-41.6-30.22,6.77-3.6L151.15,93Zm-49.4-26.32h0l-.22.22L59.37,96.66,58,89.11l43.73-23.25ZM61,105.09h0l.14.29L77,154.27l-7.59-1.06-8.6-48.76Zm24.49,50.33v.05l.32-.05H137.2l-3.36,6.89-49-6.89Zm55.44-7.74h0l.06-.32,15.89-48.9,5.51,5.33-21.7,44.49Zm16.34-50.29h0L157,97.2l-40.43-39,8-2.9,33.7,43.13Zm-98.75-.07h0l.1.3L68.29,153l-8.15-2.33L58.23,96Zm18.82,58.05h.34l55.63,7.82-4.74,7L76,155.1Zm61,0h.06l.1-.31,24.63-50.5,5.21,6.67L137.75,156.6Zm25.28-51.81h0l-.23-.22L125.57,55l9.15-2,30.21,52.33ZM115.75,57.35h0l-.28.15-57.71,21,1-9.31,59.1-12.56ZM57,88.55h0l.06.32,2.14,61.36-8.55-3.8L56.9,86.36Zm11.51,65.54h.33l59,16.93L121.58,178,66.39,153.49Zm65.89,9.31h0l.15-.29L168.9,112.2l4.68,8.11L133.16,165.2Zm35.15-52.12h0l-.2-.25L135.8,52.88l10.3-.72,25,61.78ZM124.89,54.07h0l-.29.11L59,68.18l2.5-10,66.47-4.65ZM56.68,78.85h0v.32l-7,66.73-8.74-5.47L57,75.8Zm2.49,72.52h0l.32.09,61.28,27.28-7.9,6.63-56.49-35.3Zm69.74,20h0l.19-.28L174,121.3l3.86,9.56-51,42.82Zm45.86-50.94h0l-.16-.27-27.46-68,11.33.79,17.76,71.22ZM135.25,51.92h0L135,52,61.79,57.05,66,46.51l73.23,5.13ZM57.84,68.32h-.05v.32L40,139.78l-8.71-7.31,27.5-68ZM49.52,147h0l.3.13L112,186l-9.64,6L46.11,144.89Zm72.27,32.23h0L122,179l56.15-47.11,2.75,11-62.24,38.89Zm57.27-48.06h0l-.12-.29L159.6,53.16l12.24,2.6,8.44,80.36Zm-32.29-80h-.31L66.55,45.55,72.8,34.71l79,16.8Zm-86.09,6h0l-.08.32-30,74.24-8.37-9.3,40.4-70ZM39.75,140.86h0L40,141l61.33,51.47-11.42,5.08-54.06-60Zm73.16,45.77h0l.25-.22,68-42.41,1.31,12.44-73.8,32.86Zm69.15-43.21h0l-.08-.31-9.14-87,12.93,4.71-3.1,88.81ZM159.33,52.08h0L159,52,73.44,33.82,81.91,23l83.52,30.4ZM65.44,45.47h0l-.12.29L21.53,121.52l-7.69-11.41,54.71-70ZM30.13,132.72v.05l.25.21L88.9,198l-13.22,3.79L26,128.11Zm72.08,60.54h0l.28-.17,79.9-35.58L182,171.29l-85.42,24.5Zm81.24-36.17h0v-.31l3.33-95.5,13.36,7.1-17,96.2ZM172.76,55h0l-.31-.06L82.66,22.19,93.54,11.68l86.25,45.86ZM72.35,33.59h0l-.16.28L13.32,109.15,6.69,95.55,77,27.7ZM21,122.48h0l.22.25L74.59,202l-15,2.1L16.81,116.3Zm68.66,76.33h0l.3-.13,91.84-26.33-2.63,14.89-96.7,13.62ZM107.84,1.24l86.81,63.07-7.82-4.16h0l-.28-.1L94.4,11ZM1.18,78.73,88,15.67l-6.35,6.14H81.6l-.2.25L6.31,94.53ZM41.92,204.12l-33.15-102L12.63,110h0l.19.28,45.74,93.78Zm131.84,0H66.48l8.74-1.23h0l.32-.09,103.33-14.52Z"/></g></svg>