<svg id="a2c8b1c9-3342-4477-8f0f-3bd2fb53f6df" data-name="Layer 1" xmlns="http://www.w3.org/2000/svg" viewBox="0 0 212.88 202.49"><defs><style>.a8c1a9c5-ef54-41b2-998d-981400e6b9b4{fill:#000000;}</style></defs><title>03u</title><g id="af854ed2-74af-4eb0-b3f5-1ddba231c13a" data-name="items"><rect class="a8c1a9c5-ef54-41b2-998d-981400e6b9b4" x="40.85" y="200.87" width="1.1" height="0.73" transform="translate(-162.8 178.28) rotate(-71.96)"/><path class="a8c1a9c5-ef54-41b2-998d-981400e6b9b4" d="M105.12,3.92l.69.23-.68,2.09L104.44,6Zm-1.36,4.19.69.23-.68,2.09-.69-.23Zm-1.36,4.18.69.23-.68,2.09-.69-.22ZM101,16.49l.69.23-.68,2.09-.69-.23Zm-1.36,4.18.69.23L99.69,23,99,22.77Zm-1.36,4.19.69.22-.68,2.1L97.64,27ZM97,29l.69.23L97,31.36l-.7-.23ZM95.6,33.23l.7.22-.68,2.1-.7-.23Zm-1.36,4.18.7.23-.68,2.09-.7-.23ZM92.88,41.6l.7.22-.68,2.09-.7-.22Zm-1.36,4.18.7.23-.68,2.09-.7-.23ZM90.16,50l.7.22-.68,2.09-.7-.22ZM88.8,54.15l.7.23-.68,2.09-.7-.23Zm-1.36,4.18.7.23-.68,2.09-.7-.22Zm-1.36,4.19.7.23-.68,2.09-.7-.23ZM84.72,66.7l.7.23L84.74,69,84,68.8Zm-1.36,4.19.7.22-.68,2.1-.7-.23ZM82,75.07l.7.23L82,77.39l-.7-.23Zm-1.36,4.19.7.22-.68,2.1-.7-.23Zm-1.36,4.18.7.23-.68,2.09-.7-.23Zm-1.36,4.19.7.22L77.94,90l-.7-.23Zm-1.36,4.18.7.23-.68,2.09-.7-.23ZM75.2,96l.7.22-.68,2.09-.7-.22Zm-1.35,4.18.69.23-.68,2.09-.7-.23Zm-1.37,4.18.7.23-.68,2.09-.7-.22Zm-1.36,4.13.7.23-.68,2.09-.7-.23Zm-1.35,4.18.69.23L69.78,115l-.69-.22Zm-1.37,4.19.7.22-.68,2.1-.69-.23ZM67.05,121l.69.23-.68,2.09-.69-.22Zm-1.36,4.19.69.22-.68,2.1-.69-.23Zm-1.36,4.26.69.23-.68,2.09-.69-.23Zm-1.39,4.16.69.22L63,136l-.69-.23Zm-1.36,4.18.69.23-.68,2.09-.69-.23ZM60.22,142l.69.22-.67,2.09-.7-.22Zm-1.36,4.18.69.23-.61,2.06-.69-.23Zm-1.36,4.18.7.23-.68,2.09-.7-.22Zm-1.36,4.19.7.23-.68,2.09-.7-.23Zm-1.36,4.18.7.23-.69,2.09-.69-.22Zm-1.36,4.19.7.23-.68,2.09-.7-.23Zm-1.36,4.18.7.23-.68,2.09-.7-.22Zm-1.36,4.19.7.22-.68,2.1-.7-.23Zm-1.33,4.18.7.23-.68,2.09-.7-.23ZM48,179.68l.7.22L48,182l-.7-.23Zm-1.36,4.18.7.23-.68,2.09L46,186Zm-1.36,4.19.7.22-.68,2.09-.7-.22Zm-1.35,4.18.7.23-.7,2.09-.7-.23Zm-1.36,4.19.7.22-.68,2.09-.7-.22Z" transform="translate(-0.03)"/><rect class="a8c1a9c5-ef54-41b2-998d-981400e6b9b4" x="105.89" y="0.85" width="1.1" height="0.73" transform="translate(72.23 102.03) rotate(-71.93)"/><rect class="a8c1a9c5-ef54-41b2-998d-981400e6b9b4" x="41.11" y="201.07" width="1.1" height="0.73" transform="translate(-110.33 62.8) rotate(-35.94)"/><path class="a8c1a9c5-ef54-41b2-998d-981400e6b9b4" d="M209.2,79.26l.43.6-1.78,1.29-.43-.59Zm-3.56,2.59.43.59-1.78,1.3-.43-.6Zm-3.56,2.59.43.59-1.78,1.29-.43-.59ZM198.52,87l.43.59-1.78,1.3-.43-.59Zm-3.58,2.59.43.59-1.76,1.29-.43-.59Zm-3.56,2.58.43.6L190,94.08l-.43-.59Zm-3.56,2.59.43.59-1.78,1.3-.43-.6Zm-3.56,2.59.43.59-1.75,1.29-.43-.59ZM180.7,100l.43.6-1.78,1.29-.43-.59Zm-3.54,2.54.43.59-1.78,1.3-.43-.6Zm-3.56,2.59.43.59L172.25,107l-.43-.59ZM170,107.66l.43.59-1.78,1.3-.43-.59Zm-3.56,2.59.46.64-1.78,1.29-.43-.59Zm-3.54,2.63.43.6-1.78,1.29-.43-.59Zm-3.58,2.61.43.59-1.78,1.3-.43-.6Zm-3.56,2.59.43.59L154.45,120l-.43-.59Zm-3.56,2.58.43.6-1.78,1.23-.43-.59Zm-3.56,2.59.43.59-1.78,1.3-.39-.65Zm-3.56,2.59.43.59-1.78,1.29-.43-.59Zm-3.56,2.58.38.57-1.78,1.3-.43-.59ZM138,131l.43.59-1.78,1.29-.42-.59Zm-3.56,2.58.43.6-1.77,1.3-.43-.59Zm-3.55,2.59.42.59-1.77,1.3-.43-.6Zm-3.56,2.59.43.59-1.82,1.27-.43-.59Zm-3.56,2.58.43.59-1.78,1.3-.43-.59Zm-3.56,2.59.43.55-1.78,1.29-.43-.59Zm-3.56,2.55.43.59-1.78,1.29-.43-.59Zm-3.56,2.58.43.59-1.78,1.3-.43-.6Zm-3.56,2.59.43.59-1.78,1.29-.43-.59Zm-3.59,2.6.43.6-1.78,1.29-.43-.59Zm-3.56,2.59.43.59-1.78,1.3-.43-.6Zm-3.56,2.59.43.59-1.78,1.29-.43-.59ZM95.26,162l.43.6-1.75,1.29-.43-.59Zm-3.56,2.59.43.59-1.75,1.29L90,165.9Zm-3.56,2.59.43.59-1.78,1.29-.43-.59Zm-3.56,2.58.43.59-1.78,1.3-.43-.6ZM81,172.37l.43.59-1.78,1.29-.43-.59ZM77.46,175l.43.6-1.78,1.29-.43-.59Zm-3.52,2.54.43.59-1.78,1.3-.43-.6Zm-3.56,2.59.43.59L69,182l-.43-.59Zm-3.56,2.58.43.59-1.78,1.3L65,184Zm-3.56,2.59.43.59-1.75,1.34-.43-.59Zm-3.56,2.58.43.6-1.78,1.29-.43-.59Zm-3.57,2.66.43.59-1.78,1.3-.43-.6Zm-3.56,2.59.43.59L51.22,195l-.43-.59ZM49,195.66l.42.6-1.78,1.23-.43-.59Zm-3.56,2.59.43.59-1.78,1.3-.43-.6Z" transform="translate(-0.03)"/><rect class="a8c1a9c5-ef54-41b2-998d-981400e6b9b4" x="211.09" y="77.59" width="1.1" height="0.73" transform="translate(-5.5 139.02) rotate(-35.93)"/><rect class="a8c1a9c5-ef54-41b2-998d-981400e6b9b4" x="0.86" y="77.26" width="1.1" height="0.73"/><path class="a8c1a9c5-ef54-41b2-998d-981400e6b9b4" d="M4.19,77.26h2.2V78H4.19Zm4.4,0h2.19V78H8.59Zm4.39,0h2.21V78H12.94Zm4.41,0h2.19V78H17.39Zm4.39,0h2.16V78h-2.2Zm4.41,0h2.19V78H26.19Zm4.39,0h2.2V78h-2.2Zm4.4,0h2.2V78H34.94Zm4.4,0h2.2V78h-2.2Zm4.4,0h2.16V78h-2.2Zm4.4,0h2.2V78h-2.2Zm4.4,0h2.2V78h-2.2Zm4.4,0h2.2V78H56.94Zm4.4,0h2.2V78h-2.2Zm4.4,0h2.16V78h-2.2Zm4.4,0h2.2V78h-2.2Zm4.4,0h2.2V78h-2.2Zm4.4,0h2.2V78H78.94Zm4.4,0h2.2V78h-2.2Zm4.4,0h2.16V78h-2.2Zm4.4,0h2.2V78h-2.2Zm4.4,0h2.2V78h-2.2Zm4.4,0h2.2V78h-2.24Zm4.4,0h2.2V78h-2.2Zm4.4,0h2.16V78h-2.2Zm4.4,0h2.2V78h-2.2Zm4.4,0h2.2V78h-2.2Zm4.4,0h2.2V78h-2.24Zm4.4,0h2.2V78h-2.2Zm4.4,0h2.16V78h-2.2Zm4.4,0h2.2V78h-2.2Zm4.4,0h2.2V78h-2.2Zm4.4,0h2.2V78h-2.24Zm4.4,0h2.2V78h-2.2Zm4.4,0h2.16V78h-2.2Zm4.4,0h2.2V78h-2.2Zm4.4,0h2.2V78h-2.2Zm4.4,0h2.2V78h-2.24Zm4.4,0h2.2V78h-2.2Zm4.4,0h2.16V78h-2.2Zm4.4,0h2.2V78h-2.2Zm4.4,0h2.2V78h-2.2Zm4.4,0h2.2V78h-2.24Zm4.4,0h2.2V78h-2.2Zm4.4,0h2.16V78h-2.2Zm4.4,0h2.2V78h-2.2Zm4.4,0h2.2V78h-2.2Z" transform="translate(-0.03)"/><rect class="a8c1a9c5-ef54-41b2-998d-981400e6b9b4" x="210.95" y="77.26" width="1.1" height="0.73"/><polygon class="a8c1a9c5-ef54-41b2-998d-981400e6b9b4" points="1.07 77.32 1.96 77.97 1.53 78.56 0.64 77.92 1.07 77.32"/><path class="a8c1a9c5-ef54-41b2-998d-981400e6b9b4" d="M3.77,79.26l1.78,1.3-.43.59L3.34,79.86Zm3.56,2.59,1.78,1.29-.43.6L6.9,82.44Zm3.56,2.59,1.78,1.29-.43.59L10.46,85ZM14.45,87l1.78,1.3-.43.59L14,87.62ZM18,89.61l1.78,1.29-.43.59L17.58,90.2Zm3.56,2.59,1.78,1.29-.43.59-1.78-1.29Zm3.56,2.58,1.81,1.29-.43.6-1.78-1.3Zm3.56,2.59,1.78,1.29-.43.59L28.26,98ZM32.25,100l1.78,1.3-.43.59-1.78-1.29Zm3.56,2.54,1.78,1.29-.43.6-1.78-1.3Zm3.56,2.59,1.78,1.29-.43.59-1.78-1.24Zm3.57,2.63,1.78,1.3-.43.59-1.78-1.3Zm3.56,2.59,1.78,1.29-.43.59-1.78-1.29Zm3.56,2.58,1.78,1.3-.43.59-1.79-1.28Zm3.55,2.61,1.78,1.29-.43.6-1.78-1.3Zm3.56,2.59,1.77,1.27-.42.59-1.78-1.29Zm3.56,2.58L62.5,122l-.43.59-1.77-1.29Zm3.55,2.59,1.78,1.24-.43.6-1.77-1.3Zm3.56,2.59,1.78,1.29-.43.59-1.78-1.29Zm3.56,2.58,1.78,1.3-.43.59L70.94,129ZM74.94,131l1.78,1.29-.43.59-1.78-1.29Zm3.56,2.58,1.78,1.3-.43.59-1.78-1.29Zm3.56,2.59,1.8,1.33-.43.6-1.78-1.3Zm3.56,2.59L87.4,140l-.43.59-1.78-1.29Zm3.56,2.58,1.76,1.3-.43.59-1.78-1.29Zm3.56,2.59,1.78,1.29-.43.59-1.76-1.31Zm3.58,2.57,1.78,1.29-.43.59-1.78-1.29Zm3.56,2.58,1.78,1.3-.43.59-1.78-1.3Zm3.56,2.59,1.78,1.29-.43.59L103,152.25Zm3.56,2.58,1.78,1.3-.43.59-1.78-1.29Zm3.56,2.59,1.78,1.29-.43.6-1.78-1.3Zm3.56,2.59,1.82,1.31-.43.59L113.73,160Zm3.56,2.58,1.78,1.3-.43.59-1.78-1.29Zm3.56,2.61L123,165.9l-.43.59-1.78-1.29Zm3.56,2.59,1.78,1.29-.43.59-1.78-1.29Zm3.56,2.58,1.78,1.29-.43.6-1.77-1.3Zm3.58,2.59,1.78,1.29-.43.59L131.51,173ZM135.5,175l1.78,1.3-.43.59-1.78-1.29Zm3.54,2.54,1.78,1.29-.43.6-1.78-1.3Zm3.56,2.59,1.78,1.29L144,182l-1.78-1.29Zm3.55,2.58,1.79,1.35-.43.59-1.78-1.29Zm3.56,2.59,1.78,1.34-.43.59-1.78-1.29Zm3.56,2.58,1.78,1.3-.43.59-1.77-1.23Zm3.56,2.66,1.78,1.29-.43.6-1.78-1.3Zm3.56,2.57,1.78,1.29-.43.59-1.8-1.29Zm3.55,2.58,1.78,1.3-.42.55-1.78-1.29Zm3.57,2.59,1.78,1.26-.43.6-1.78-1.3Z" transform="translate(-0.03)"/><rect class="a8c1a9c5-ef54-41b2-998d-981400e6b9b4" x="170.94" y="200.88" width="0.73" height="1.1" transform="translate(-92.38 221.67) rotate(-54.01)"/><rect class="a8c1a9c5-ef54-41b2-998d-981400e6b9b4" x="106.29" y="0.87" width="0.73" height="1.1" transform="translate(4.73 32.97) rotate(-17.97)"/><path class="a8c1a9c5-ef54-41b2-998d-981400e6b9b4" d="M107.85,3.92l.68,2.1-.7.22-.68-2.09Zm1.36,4.19.68,2.09-.7.23-.68-2.09Zm1.36,4.18.68,2.1-.7.22-.68-2.09Zm1.37,4.2.68,2.09-.7.23-.68-2.09Zm1.36,4.18.68,2.1-.7.22-.68-2.09Zm1.36,4.19.68,2.09-.7.23-.68-2.1ZM116,29l.68,2.09-.7.23-.68-2.09Zm1.36,4.19.68,2.09-.7.23-.68-2.1Zm1.36,4.18.67,2.08-.7.23L118,37.63Zm1.36,4.19.68,2.09-.7.22-.68-2.09Zm1.36,4.18.68,2.09-.7.23L120.76,46ZM122.82,50l.68,2.09-.7.22-.68-2.09Zm1.36,4.18.68,2.09-.7.23-.68-2.09Zm1.36,4.18.68,2.1-.7.22-.68-2.09Zm1.35,4.16.68,2.09-.7.23-.68-2.09Zm1.36,4.18.69,2.12-.7.22-.68-2.09Zm1.36,4.19.67,2.09-.69.23-.68-2.1Zm1.33,4.2.67,2.09-.69.23-.68-2.09Zm1.35,4.19.68,2.09-.69.23-.68-2.1Zm1.36,4.18.71,2.06-.69.23L133,83.63ZM135,87.62l.68,2.09-.69.23-.68-2.1Zm1.36,4.18.68,2.09-.69.23L135.68,92ZM137.73,96l.68,2.09-.69.22L137,96.21Zm1.36,4.18.68,2.09-.69.23-.68-2.09Zm1.36,4.18.71,2.14-.69.22-.68-2.09Zm1.39,4.14.68,2.09-.7.23-.68-2.09Zm1.36,4.18.68,2.1-.7.22-.68-2.09Zm1.36,4.19.68,2.09-.7.23-.68-2.1Zm1.38,4.23.68,2.1-.7.22-.68-2.09Zm1.36,4.19.64,2.09-.7.23-.68-2.1Zm1.34,4.21.68,2.09-.7.23-.68-2.12Zm1.36,4.19.68,2.09-.7.23-.68-2.1Zm1.36,4.18L152,140l-.7.23-.68-2.09Zm1.36,4.19.68,2.09-.7.22-.68-2.09Zm1.36,4.18.68,2.09-.7.23-.68-2.09Zm1.36,4.15.68,2.11-.7.22-.68-2.09Zm1.36,4.19.68,2.09-.7.23-.68-2.09Zm1.36,4.18.68,2.1-.7.22-.68-2.09Zm1.36,4.19.68,2.09-.7.23-.68-2.09Zm1.36,4.18.68,2.1-.7.22-.68-2.09Zm1.36,4.19.7,2.09-.7.23-.7-2.14Zm1.36,4.18.68,2.09-.7.23-.64-2.09Zm1.34,4.19.68,2.09-.7.23-.68-2.1Zm1.36,4.18L167,186l-.7.23-.68-2.09Zm1.36,4.19.68,2.09-.7.22-.7-2.09Zm1.38,4.18.68,2.09-.7.23-.68-2.06Zm1.35,4.19.68,2.07-.69.22-.68-2.09Z" transform="translate(-0.03)"/><rect class="a8c1a9c5-ef54-41b2-998d-981400e6b9b4" x="171.21" y="200.68" width="0.73" height="1.1" transform="translate(-53.74 62.75) rotate(-17.97)"/><path class="a8c1a9c5-ef54-41b2-998d-981400e6b9b4" d="M106.48,0l.43.31,106,77-.16.51L172.28,202.49H40.69l-.17-.51L0,77.34.46,77ZM211.22,77.9,106.48,1.81,1.75,77.9,41.75,201H171.21Z" transform="translate(-0.03)"/></g></svg>