<svg id="f8d466f7-450e-4091-af9a-cbc320537b57" data-name="Layer 1" xmlns="http://www.w3.org/2000/svg" viewBox="0 0 215.67 205.12"><title>07u</title><g id="a5bad50a-a92e-4e24-85e2-8acc39f7ed47" data-name="Layer 1-2"><path d="M180.1,187.83,215.67,78.35,201.25,67.87v-.05l-.28-.15L108.13.21,107.84,0,93.42,10.48h0l-.22.21L.29,78.13,0,78.35l5.51,17h0l.13.27,35.55,109.5H174.48l5.51-17h0Zm34.4-109.1-33.15,102,1.53-8.68h.05v-.33L201.06,69Zm-156.83.81,51.42-18.72-1.2.64h0l-.27.2L58,88Zm51.12-17.42,6.77-3.6,35.6,34.39Zm47.28,35.59L137.65,154.4H78L59.62,97.71l48.23-35ZM59.39,96.64l-1.34-7.55,43.71-23.24ZM77,154.3l-7.6-1.07-8.59-48.76Zm60.26,1.1-3.37,6.89-49-6.89Zm19.67-57,5.51,5.33-21.7,44.5Zm.34-1.05h0l-.27-.2-40.41-39,8-2.89,33.68,43.11Zm-98.78,0h0l.09.3L68.3,153l-8.14-2.33L58.25,96ZM77.3,155.36h.31l55.65,7.82-4.73,7-52.59-15Zm61,0h0l.1-.3L163,104.55l5.22,6.68-30.6,45.37Zm25.27-51.81h0l-.24-.24-37.8-48.37,9.2-1.94,30.21,52.31Zm-47.8-46.22h0l-.29.15-57.7,21,1-9.3,59.09-12.56ZM57,88.53h0l.06.32,2.14,61.37-8.54-3.8,6.31-60.09Zm11.5,65.54v.05h.32l59,16.93L121.59,178l-55.2-24.57Zm65.89,9.31h.05l.14-.28,34.33-50.91,4.68,8.1-40.43,44.9Zm35.14-52.11h0l-.2-.26-33.54-58.1,10.29-.72L171,114ZM124.9,54.06h0l-.31.11L58.94,68.08l2.49-10,66.46-4.65ZM56.7,78.83h-.05v.32l-7,66.73-8.75-5.47L57,75.78Zm2.48,72.52v.05l.3.09,61.31,27.29-7.91,6.63L56.37,150.1Zm69.74,20.05H129l.18-.26L174,121.29l3.87,9.56-51,42.82Zm45.87-50.94h0l-.17-.28-27.45-68L158.5,53l17.76,71.21ZM135.26,51.9h0l-.32.07L61.8,57l4.25-10.53,73.21,5.12ZM57.85,68.31H57.8v.32L40,139.77l-8.7-7.31L58.82,64.4ZM49.53,147v.05l.29.13L112,186l-9.64,6L46.11,144.87Zm72.27,32.23h0L122,179l56.15-47.11,2.75,11-62.25,38.89Zm57.27-48h0l-.12-.31L159.61,53.15l12.24,2.6,8.44,80.35Zm-32.29-80h-.33L66.56,45.54l6.25-10.83,79,16.79Zm-86.09,6h0l-.08.31-30,74.26-8.37-9.3,40.4-70ZM39.76,140.85h0L40,141l61.35,51.48L90,197.59l-54.07-60Zm73.17,45.77h0l.24-.2,68-42.42,1.31,12.44L108.62,189.3Zm69.14-43.2h0l-.08-.32-9.14-87,12.93,4.7-3.11,88.8ZM159.34,52.08h0L159,52,73.45,33.82,81.92,23l83.49,30.4ZM65.45,45.46h0l-.12.29L21.54,121.51l-7.7-11.41,54.72-70ZM30.14,132.72h0l.23.2L88.9,198l-13.23,3.8L26,128.09Zm72.08,60.53h0l.26-.17L182.4,157.5l-.4,13.79L96.54,195.78Zm81.23-36.16h.05v-.32l3.33-95.48,13.35,7.1-17,96.18ZM172.77,55h0l-.32-.07L82.67,22.18l10.88-10.5,86.23,45.85ZM72.36,33.59h0l-.16.27-58.83,75.3L6.69,95.55,77,27.7ZM21,122.48h0l.21.23L74.6,202l-15,2.1L16.8,116.27ZM89.65,198.8h0l.29-.13,91.84-26.34-2.62,14.9-96.7,13.63Zm105-134.51-7.79-4.14h0l-.31-.11L94.4,11l13.44-9.76ZM88,15.66,81.62,21.8h0l-.2.24L6.31,94.53,1.18,78.73ZM8.76,102.07l3.88,8h0l.17.25,45.75,93.81H41.92Zm165,102.05H66.47l8.75-1.23h0l.3-.09,103.34-14.52Z"/></g></svg>