<svg id="a65e3108-19e1-4b26-abe0-811283f9d07f" data-name="Layer 1" xmlns="http://www.w3.org/2000/svg" viewBox="0 0 116.07 115.91"><title>07u</title><g id="b5b7adf4-b95d-4a39-9df9-64784b6b7810" data-name="shapes"><path d="M23.47,102.68a1,1,0,0,0-.81,1.16h0a1,1,0,1,0,.81-1.16Z" transform="translate(-0.02 0.01)"/><path d="M103.8,24.61a1,1,0,1,0-1.16-.81,1,1,0,0,0,1.16.81Z" transform="translate(-0.02 0.01)"/><path d="M29,105.71a1,1,0,0,0-.81,1.16h0a1,1,0,1,0,2-.35A1,1,0,0,0,29,105.7Z" transform="translate(-0.02 0.01)"/><path d="M30.41,9.42a1,1,0,1,0-1.16-.81,1,1,0,0,0,1.16.81Z" transform="translate(-0.02 0.01)"/><path d="M14.55,93.76a1,1,0,0,0-.81,1.16h0a1,1,0,1,0,.81-1.16Z" transform="translate(-0.02 0.01)"/><path d="M94.88,15.69a1,1,0,1,0-1.16-.81,1,1,0,0,0,1.16.81Z" transform="translate(-0.02 0.01)"/><path d="M114.92,56.87a1,1,0,0,0,.33,2,1,1,0,0,0,.82-1.15h0A1,1,0,0,0,114.92,56.87Z" transform="translate(-0.02 0.01)"/><path d="M36,6.52a1,1,0,1,0-1.16-.81A1,1,0,0,0,36,6.52Z" transform="translate(-0.02 0.01)"/><path d="M109.74,35.7a1,1,0,1,0-1.16-.81,1,1,0,0,0,1.16.81Z" transform="translate(-0.02 0.01)"/><path d="M48,3.19a1,1,0,1,0-1.16-.81A1,1,0,0,0,48,3.19Z" transform="translate(-0.02 0.01)"/><path d="M34.57,108.61a1,1,0,1,0,1.16.81,1,1,0,0,0-1.16-.81Z" transform="translate(-0.02 0.01)"/><path d="M46.47,112.31a1,1,0,0,0,.33,2,1,1,0,0,0,.82-1.15h0A1,1,0,0,0,46.47,112.31Z" transform="translate(-0.02 0.01)"/><path d="M99.34,20.14a1,1,0,1,0-1.16-.81,1,1,0,0,0,1.16.81Z" transform="translate(-0.02 0.01)"/><path d="M40.24,111.3a1,1,0,0,0-.81,1.16h0a1,1,0,1,0,2-.35,1,1,0,0,0-1.15-.82Z" transform="translate(-0.02 0.01)"/><path d="M106.84,30.1a1,1,0,0,0-.34-2h0a1,1,0,0,0-.81,1.16h0a1,1,0,0,0,1.14.84Z" transform="translate(-0.02 0.01)"/><path d="M41.8,4.2a1,1,0,1,0-.34-2,1,1,0,0,0-.81,1.16h0a1,1,0,0,0,1.14.84Z" transform="translate(-0.02 0.01)"/><path d="M8.59,31.26a1,1,0,0,0,.81-1.15,1,1,0,0,0-2,.34,1,1,0,0,0,1.15.82Z" transform="translate(-0.02 0.01)"/><path d="M5.69,36.86a1,1,0,1,0-1.16-.81,1,1,0,0,0,1.16.81Z" transform="translate(-0.02 0.01)"/><path d="M2.37,48.89a1,1,0,1,0-1.16-.81,1,1,0,0,0,1.16.81Z" transform="translate(-0.02 0.01)"/><path d="M3.38,42.66a1,1,0,1,0-1.16-.81,1,1,0,0,0,1.16.81Z" transform="translate(-0.02 0.01)"/><path d="M20.23,16.61a1,1,0,1,0-1.16-.81,1,1,0,0,0,1.16.81Z" transform="translate(-0.02 0.01)"/><path d="M15.77,21.07a1,1,0,0,0,.81-1.16h0a1,1,0,1,0-.85,1.17Z" transform="translate(-0.02 0.01)"/><path d="M10.57,89a1,1,0,1,0,1.16.82A1,1,0,0,0,10.58,89Z" transform="translate(-0.02 0.01)"/><path d="M11.48,25.66a1,1,0,0,0-.33-2,1,1,0,0,0-.82,1.15h0A1,1,0,0,0,11.48,25.66Z" transform="translate(-0.02 0.01)"/><path d="M4.78,77.74a1,1,0,1,0,.33,2,1,1,0,0,0,.82-1.15h0A1,1,0,0,0,4.78,77.74Z" transform="translate(-0.02 0.01)"/><path d="M4,72.63a1,1,0,0,0-1.16-.81h0A1,1,0,0,0,2,73v0a1,1,0,1,0,2-.35Z" transform="translate(-0.02 0.01)"/><path d="M7.67,83.34a1,1,0,0,0-.81,1.16h0a1,1,0,1,0,.81-1.16Z" transform="translate(-0.02 0.01)"/><path d="M3,66.41a1,1,0,0,0-1.16-.81h0a1,1,0,0,0,.34,2A1,1,0,0,0,3,66.45Z" transform="translate(-0.02 0.01)"/><path d="M2,60.18a1,1,0,1,0-.81,1.16A1,1,0,0,0,2,60.18Z" transform="translate(-0.02 0.01)"/><path d="M1.37,55.11A1,1,0,1,0,.21,54.3a1,1,0,0,0,1.16.81Z" transform="translate(-0.02 0.01)"/><path d="M19,98.22a1,1,0,0,0-.81,1.16h0A1,1,0,1,0,19,98.22Z" transform="translate(-0.02 0.01)"/><path d="M83,107.44a1,1,0,1,0,1.16.82,1,1,0,0,0-1.16-.82Z" transform="translate(-0.02 0.01)"/><path d="M24.81,12.32a1,1,0,1,0-1.16-.81,1,1,0,0,0,1.16.81Z" transform="translate(-0.02 0.01)"/><path d="M78.86,5.92a1,1,0,1,0-1.16-.81,1,1,0,0,0,1.16.81Z" transform="translate(-0.02 0.01)"/><path d="M60.48,2A1,1,0,0,0,61.29.84h0a1,1,0,0,0-2,.34h0A1,1,0,0,0,60.43,2Z" transform="translate(-0.02 0.01)"/><path d="M112.45,41.37a1,1,0,1,0-1.16-.81,1,1,0,0,0,1.16.81Z" transform="translate(-0.02 0.01)"/><path d="M113.3,53a1,1,0,1,0,2-.35,1,1,0,0,0-2,.35Z" transform="translate(-0.02 0.01)"/><path d="M93.66,100.88a1,1,0,1,0,.35,2,1,1,0,0,0,.81-1.16h0a1,1,0,0,0-1.13-.84Z" transform="translate(-0.02 0.01)"/><path d="M98.12,96.43a1,1,0,1,0,1.16.81,1,1,0,0,0-1.16-.81Z" transform="translate(-0.02 0.01)"/><path d="M102.58,92a1,1,0,0,0-.81,1.16h0a1,1,0,1,0,.81-1.16Z" transform="translate(-0.02 0.01)"/><path d="M72.94,4a1,1,0,1,0-1.16-.81A1,1,0,0,0,72.94,4Z" transform="translate(-0.02 0.01)"/><path d="M108.83,81.09a1,1,0,1,0,1.18.82A1,1,0,0,0,108.83,81.09Z" transform="translate(-0.02 0.01)"/><path d="M88.62,104.55a1,1,0,1,0,1.16.81,1,1,0,0,0-1.16-.81Z" transform="translate(-0.02 0.01)"/><path d="M66.71,3a1,1,0,1,0-1.16-.81A1,1,0,0,0,66.71,3Z" transform="translate(-0.02 0.01)"/><path d="M105.93,86.69a1,1,0,1,0,1.16.81,1,1,0,0,0-1.16-.81Z" transform="translate(-0.02 0.01)"/><path d="M112.29,46.79a1,1,0,1,0,2-.35,1,1,0,0,0-2,.32Z" transform="translate(-0.02 0.01)"/><path d="M90.06,11.72a1,1,0,1,0-1.16-.81,1,1,0,0,0,1.16.81Z" transform="translate(-0.02 0.01)"/><path d="M112.91,69.32a1,1,0,1,0,1.18.82A1,1,0,0,0,112.91,69.32Z" transform="translate(-0.02 0.01)"/><path d="M113.91,63.09a1,1,0,0,0,.35,2,1,1,0,1,0-.35-2Z" transform="translate(-0.02 0.01)"/><path d="M58.92,113.91a1,1,0,1,0,1.16.81,1,1,0,0,0-1.16-.81Z" transform="translate(-0.02 0.01)"/><path d="M84.46,8.82a1,1,0,0,0,.81-1.16h0a1,1,0,1,0-.81,1.16Z" transform="translate(-0.02 0.01)"/><path d="M52.7,113.31a1,1,0,0,0,.33,2,1,1,0,0,0,.82-1.15h0A1,1,0,0,0,52.7,113.31Z" transform="translate(-0.02 0.01)"/><path d="M71.38,111.91a1,1,0,1,0,1.17.83A1,1,0,0,0,71.38,111.91Z" transform="translate(-0.02 0.01)"/><path d="M54.26,2.19A1,1,0,0,0,55.08,1V1a1,1,0,1,0-2,.35h0a1,1,0,0,0,1.13.85Z" transform="translate(-0.02 0.01)"/><path d="M77.42,110.34a1,1,0,1,0,1.18.82,1,1,0,0,0-1.18-.82Z" transform="translate(-0.02 0.01)"/><path d="M65.15,112.91a1,1,0,1,0,1.18.83,1,1,0,0,0-1.18-.83Z" transform="translate(-0.02 0.01)"/><path d="M111.73,75.49a1,1,0,1,0,.33,2,1,1,0,0,0,.82-1.15h0A1,1,0,0,0,111.73,75.49Z" transform="translate(-0.02 0.01)"/><path d="M103.45,81.35a1.75,1.75,0,1,0-2-1.45v0A1.74,1.74,0,0,0,103.45,81.35Z" transform="translate(-0.02 0.01)"/><path d="M108.72,65a1.75,1.75,0,1,0-1.45,2h0A1.75,1.75,0,0,0,108.72,65Z" transform="translate(-0.02 0.01)"/><path d="M110.21,57.61a1.88,1.88,0,0,0-.14-.42,1.74,1.74,0,0,0-3.36.86,1.47,1.47,0,0,0,.13.42,1.74,1.74,0,0,0,3.37-.86Z" transform="translate(-0.02 0.01)"/><path d="M97.09,30.16a1.73,1.73,0,1,0,0-.21A1.55,1.55,0,0,0,97.09,30.16Z" transform="translate(-0.02 0.01)"/><path d="M107.24,72.35a1.75,1.75,0,0,0-3.48.4,1.55,1.55,0,0,0,0,.21,1.75,1.75,0,0,0,3.44-.61Z" transform="translate(-0.02 0.01)"/><path d="M20.91,22.26a1.75,1.75,0,1,0,2,1.45v0A1.74,1.74,0,0,0,20.91,22.26Z" transform="translate(-0.02 0.01)"/><path d="M94.92,25.36a1.75,1.75,0,1,0-2-1.45v0A1.75,1.75,0,0,0,94.92,25.36Z" transform="translate(-0.02 0.01)"/><path d="M82.94,16.54a1.75,1.75,0,1,0-2-1.45v0A1.74,1.74,0,0,0,82.94,16.54Z" transform="translate(-0.02 0.01)"/><path d="M14.55,36.1a1.73,1.73,0,1,0,0,.21A1.55,1.55,0,0,0,14.55,36.1Z" transform="translate(-0.02 0.01)"/><path d="M54.46,10a1.75,1.75,0,1,0-.4-3.48l-.21,0A1.75,1.75,0,0,0,54.46,10Z" transform="translate(-0.02 0.01)"/><path d="M47.11,11.49a1.75,1.75,0,1,0-2-1.45v0A1.74,1.74,0,0,0,47.11,11.49Z" transform="translate(-0.02 0.01)"/><path d="M67.13,10a1.75,1.75,0,1,0,1.45-2h0A1.74,1.74,0,0,0,67.13,10Z" transform="translate(-0.02 0.01)"/><path d="M59.78,8.51a1.75,1.75,0,1,0,1.45-2h0A1.75,1.75,0,0,0,59.78,8.51Z" transform="translate(-0.02 0.01)"/><path d="M89.15,20.73a1.75,1.75,0,1,0-2-1.45v0A1.75,1.75,0,0,0,89.15,20.73Z" transform="translate(-0.02 0.01)"/><path d="M15.3,30.5a1.75,1.75,0,1,0,1.45-2h0A1.74,1.74,0,0,0,15.3,30.5Z" transform="translate(-0.02 0.01)"/><path d="M10.87,74.51a1.75,1.75,0,0,0-.4-3.48l-.21,0a1.75,1.75,0,0,0,.61,3.44Z" transform="translate(-0.02 0.01)"/><path d="M5.88,58.4a1.75,1.75,0,1,0,1.45-2h0A1.75,1.75,0,0,0,5.88,58.4Z" transform="translate(-0.02 0.01)"/><path d="M9.39,67.16a1.75,1.75,0,1,0-2-1.45v0A1.74,1.74,0,0,0,9.39,67.16Z" transform="translate(-0.02 0.01)"/><path d="M7.31,51.05a1.75,1.75,0,1,0,1.45-2h0A1.75,1.75,0,0,0,7.31,51.05Z" transform="translate(-0.02 0.01)"/><path d="M12.23,43.1a1.74,1.74,0,1,0-1.43,2h0A1.75,1.75,0,0,0,12.23,43.1Z" transform="translate(-0.02 0.01)"/><path d="M31.37,15.35a1.74,1.74,0,1,0,1.43-2h0A1.75,1.75,0,0,0,31.37,15.35Z" transform="translate(-0.02 0.01)"/><path d="M39.43,103a1.75,1.75,0,1,0,2,1.45v0A1.75,1.75,0,0,0,39.43,103Z" transform="translate(-0.02 0.01)"/><path d="M105.23,50.65a1.74,1.74,0,1,0,1.43-2h0A1.74,1.74,0,0,0,105.23,50.65Z" transform="translate(-0.02 0.01)"/><path d="M35,100.72a1.75,1.75,0,1,0-1.45,2h0A1.75,1.75,0,0,0,35,100.72Z" transform="translate(-0.02 0.01)"/><path d="M102.7,34.35a1.75,1.75,0,1,0,2,1.45v0A1.74,1.74,0,0,0,102.7,34.35Z" transform="translate(-0.02 0.01)"/><path d="M28.82,96.53a1.75,1.75,0,1,0-1.45,2h0A1.75,1.75,0,0,0,28.82,96.53Z" transform="translate(-0.02 0.01)"/><path d="M46.77,104.49a1.74,1.74,0,1,0,2,1.43v0a1.73,1.73,0,0,0-2-1.41Z" transform="translate(-0.02 0.01)"/><path d="M25.15,19.54a1.75,1.75,0,1,0,1.45-2h0A1.75,1.75,0,0,0,25.15,19.54Z" transform="translate(-0.02 0.01)"/><path d="M39.77,13a1.74,1.74,0,1,0-2-1.43v0a1.73,1.73,0,0,0,2,1.41Z" transform="translate(-0.02 0.01)"/><path d="M105.16,41.28a1.75,1.75,0,1,0,2,1.45v0A1.75,1.75,0,0,0,105.16,41.28Z" transform="translate(-0.02 0.01)"/><path d="M54.12,106a1.75,1.75,0,1,0,2,1.45v0A1.74,1.74,0,0,0,54.12,106Z" transform="translate(-0.02 0.01)"/><path d="M23.08,91.87a1.74,1.74,0,1,0-1.43,2h0A1.74,1.74,0,0,0,23.08,91.87Z" transform="translate(-0.02 0.01)"/><path d="M14.7,79.44a1.74,1.74,0,1,0-1.43,2h0A1.75,1.75,0,0,0,14.7,79.44Z" transform="translate(-0.02 0.01)"/><path d="M18.89,85.65a1.74,1.74,0,1,0-1.43,2h0A1.74,1.74,0,0,0,18.89,85.65Z" transform="translate(-0.02 0.01)"/><path d="M74.48,11.48a1.74,1.74,0,1,0,1.43-2h0a1.73,1.73,0,0,0-1.41,2Z" transform="translate(-0.02 0.01)"/><path d="M76.16,103a1.75,1.75,0,1,0,2,1.45v0A1.75,1.75,0,0,0,76.16,103Z" transform="translate(-0.02 0.01)"/><path d="M88.77,95a1.75,1.75,0,1,0,2,1.45v0A1.74,1.74,0,0,0,88.77,95Z" transform="translate(-0.02 0.01)"/><path d="M94.47,90.34a1.75,1.75,0,1,0,2,1.45v0A1.75,1.75,0,0,0,94.47,90.34Z" transform="translate(-0.02 0.01)"/><path d="M98.66,84.12a1.75,1.75,0,1,0,2,1.45,1.75,1.75,0,0,0-2-1.45Z" transform="translate(-0.02 0.01)"/><path d="M82.56,99.23a1.75,1.75,0,1,0,2,1.45v0A1.75,1.75,0,0,0,82.56,99.23Z" transform="translate(-0.02 0.01)"/><path d="M61.47,105.94a1.75,1.75,0,1,0,2,1.45v0A1.74,1.74,0,0,0,61.47,105.94Z" transform="translate(-0.02 0.01)"/><path d="M70.83,105.87a1.74,1.74,0,1,0-1.43,2h0A1.75,1.75,0,0,0,70.83,105.87Z" transform="translate(-0.02 0.01)"/><path d="M30,50.14A1.43,1.43,0,1,0,28.32,49v0A1.42,1.42,0,0,0,30,50.14Z" transform="translate(-0.02 0.01)"/><path d="M28.14,62a1.43,1.43,0,1,0-1.66-1.15h0A1.42,1.42,0,0,0,28.12,62Z" transform="translate(-0.02 0.01)"/><path d="M29.74,67.92a1.43,1.43,0,1,0-1.66-1.16,1.43,1.43,0,0,0,1.66,1.16Z" transform="translate(-0.02 0.01)"/><path d="M31.34,73.85a1.43,1.43,0,1,0-1.65-1.17h0a1.42,1.42,0,0,0,1.64,1.16Z" transform="translate(-0.02 0.01)"/><path d="M77.69,78.15a1.43,1.43,0,1,0,.5,2.82h0a1.43,1.43,0,0,0-.5-2.82Z" transform="translate(-0.02 0.01)"/><path d="M26.72,54.91a1.43,1.43,0,1,0,1.16-1.66A1.43,1.43,0,0,0,26.72,54.91Z" transform="translate(-0.02 0.01)"/><path d="M39.06,80a1.43,1.43,0,1,0,1.66,1.16A1.43,1.43,0,0,0,39.06,80Z" transform="translate(-0.02 0.01)"/><path d="M50.71,28a1.43,1.43,0,1,0,1.66,1.16A1.43,1.43,0,0,0,50.71,28Z" transform="translate(-0.02 0.01)"/><path d="M50.32,87.91a1.43,1.43,0,1,0-1.66-1.16,1.43,1.43,0,0,0,1.66,1.16Z" transform="translate(-0.02 0.01)"/><path d="M55.75,86.7a1.43,1.43,0,1,0,.32,2.84,1.13,1.13,0,0,0,.18,0,1.43,1.43,0,0,0-.32-2.84A1.13,1.13,0,0,0,55.75,86.7Z" transform="translate(-0.02 0.01)"/><path d="M55.48,28a1.43,1.43,0,1,0,1.16-1.66A1.43,1.43,0,0,0,55.48,28Z" transform="translate(-0.02 0.01)"/><path d="M67.61,84.41a1.43,1.43,0,0,0-1.16,1.66h0a1.42,1.42,0,0,0,1.64,1.16h0a1.43,1.43,0,0,0-.49-2.82Z" transform="translate(-0.02 0.01)"/><path d="M61.41,29.2a1.43,1.43,0,1,0,1.17-1.65h0a1.42,1.42,0,0,0-1.16,1.64Z" transform="translate(-0.02 0.01)"/><path d="M81.53,41.83a1.43,1.43,0,1,0,1.16-1.66,1.43,1.43,0,0,0-1.16,1.66Z" transform="translate(-0.02 0.01)"/><path d="M75.66,32.64A1.43,1.43,0,1,0,74.5,34.3,1.43,1.43,0,0,0,75.66,32.64Z" transform="translate(-0.02 0.01)"/><path d="M82.53,76.62a1.43,1.43,0,1,0-1.65-1.17h0A1.43,1.43,0,0,0,82.53,76.62Z" transform="translate(-0.02 0.01)"/><path d="M73.35,82.49A1.43,1.43,0,1,0,75,83.66h0A1.43,1.43,0,0,0,73.35,82.49Z" transform="translate(-0.02 0.01)"/><path d="M34.72,75.65a1.43,1.43,0,1,0,1.65,1.17h0a1.42,1.42,0,0,0-1.64-1.16Z" transform="translate(-0.02 0.01)"/><path d="M78.84,38.64a1.43,1.43,0,1,0-1.65-1.17h0A1.43,1.43,0,0,0,78.84,38.64Z" transform="translate(-0.02 0.01)"/><path d="M85.43,53.28a1.43,1.43,0,1,0,1.16-1.66,1.43,1.43,0,0,0-1.16,1.66Z" transform="translate(-0.02 0.01)"/><path d="M85,45.7a1.43,1.43,0,1,0,1.65,1.17h0A1.42,1.42,0,0,0,85,45.7Z" transform="translate(-0.02 0.01)"/><path d="M88,63.75a1.43,1.43,0,1,0-2.82.49A1.43,1.43,0,0,0,88,63.75Z" transform="translate(-0.02 0.01)"/><path d="M89.61,57.82a1.43,1.43,0,1,0-1.16,1.66,1.43,1.43,0,0,0,1.16-1.66Z" transform="translate(-0.02 0.01)"/><path d="M85.24,71.33A1.43,1.43,0,0,0,85,68.48l-.21,0A1.43,1.43,0,0,0,85,71.37Z" transform="translate(-0.02 0.01)"/><path d="M31.09,41.39a1.43,1.43,0,1,0,1.65,1.17h0A1.43,1.43,0,0,0,31.09,41.39Z" transform="translate(-0.02 0.01)"/><path d="M44.39,86.31a1.43,1.43,0,1,0-1.66-1.16,1.43,1.43,0,0,0,1.66,1.16Z" transform="translate(-0.02 0.01)"/><path d="M68.5,29.15a1.43,1.43,0,1,0,1.65,1.17h0a1.42,1.42,0,0,0-1.64-1.16Z" transform="translate(-0.02 0.01)"/><path d="M41.37,33.83a1.43,1.43,0,1,0-1.16,1.66,1.43,1.43,0,0,0,1.16-1.66Z" transform="translate(-0.02 0.01)"/><path d="M46.44,30.75a1.43,1.43,0,1,0-1.16,1.66,1.43,1.43,0,0,0,1.16-1.66Z" transform="translate(-0.02 0.01)"/><path d="M60.52,87.67a1.43,1.43,0,0,0,2.81-.52,1.43,1.43,0,0,0-2.82.48Z" transform="translate(-0.02 0.01)"/><path d="M35.87,39.83a1.43,1.43,0,1,0-1.66-1.16,1.43,1.43,0,0,0,1.66,1.16Z" transform="translate(-0.02 0.01)"/><path d="M82.48,22.66a.77.77,0,0,0,.62-.88.78.78,0,0,0-.89-.62.77.77,0,0,0-.61.88h0A.77.77,0,0,0,82.48,22.66Z" transform="translate(-0.02 0.01)"/><path d="M100.8,67.25a.76.76,0,1,0-.62.88.74.74,0,0,0,.62-.86Z" transform="translate(-0.02 0.01)"/><path d="M90.18,28.21a.76.76,0,1,0-1.5.27.76.76,0,0,0,1.5-.27Z" transform="translate(-0.02 0.01)"/><path d="M101,63.38a.76.76,0,0,0-.27-1.5h0a.75.75,0,0,0-.61.87h0a.76.76,0,0,0,.88.62Z" transform="translate(-0.02 0.01)"/><path d="M95,35.19a.76.76,0,0,0-.61.88h0a.75.75,0,0,0,.87.61h0a.76.76,0,0,0,.62-.88h0A.77.77,0,0,0,95,35.19Z" transform="translate(-0.02 0.01)"/><path d="M102.33,57.74a.76.76,0,0,0-.88-.62h0a.78.78,0,0,0-.62.89.77.77,0,0,0,.88.61.74.74,0,0,0,.62-.86Z" transform="translate(-0.02 0.01)"/><path d="M73.1,99.44a.77.77,0,0,0,.61-.88.74.74,0,0,0-.86-.62h0a.76.76,0,0,0,.27,1.5Z" transform="translate(-0.02 0.01)"/><path d="M99.3,43.79a.78.78,0,0,0-.62.89.76.76,0,0,0,.88.61h0a.75.75,0,0,0,.61-.87h0a.76.76,0,0,0-.88-.62Z" transform="translate(-0.02 0.01)"/><path d="M93,32.5a.76.76,0,1,0-.9-.6A.77.77,0,0,0,93,32.5Z" transform="translate(-0.02 0.01)"/><path d="M88.9,88.82a.78.78,0,0,0,.62-.89.76.76,0,0,0-.88-.61h0a.75.75,0,0,0-.61.87h0A.77.77,0,0,0,88.9,88.82Z" transform="translate(-0.02 0.01)"/><path d="M100.07,48.54a.77.77,0,0,0-.64.88.78.78,0,0,0,.89.64.76.76,0,0,0,.63-.88v0A.77.77,0,0,0,100.07,48.54Z" transform="translate(-0.02 0.01)"/><path d="M92.3,85.41a.76.76,0,1,0-.88-.62.74.74,0,0,0,.86.62Z" transform="translate(-0.02 0.01)"/><path d="M94.86,81.39a.76.76,0,0,0-.27-1.5h0a.76.76,0,0,0,.27,1.5Z" transform="translate(-0.02 0.01)"/><path d="M97.24,39.47a.76.76,0,1,0,.88.62.77.77,0,0,0-.88-.62Z" transform="translate(-0.02 0.01)"/><path d="M85.28,25.07a.74.74,0,0,0,.86.62h0a.76.76,0,1,0-.26-1.5.74.74,0,0,0-.62.86Z" transform="translate(-0.02 0.01)"/><path d="M99.28,72.84a.77.77,0,0,0,.64-.88.78.78,0,0,0-.89-.64.76.76,0,0,0-.63.88v0A.77.77,0,0,0,99.28,72.84Z" transform="translate(-0.02 0.01)"/><path d="M100.22,54.18a.77.77,0,0,0,.88.62.78.78,0,0,0,.62-.89.77.77,0,0,0-.88-.61h0A.77.77,0,0,0,100.22,54.18Z" transform="translate(-0.02 0.01)"/><path d="M97.07,77.11a.78.78,0,0,0,.61-.89.76.76,0,0,0-.89-.6.75.75,0,0,0-.61.87A.77.77,0,0,0,97.07,77.11Z" transform="translate(-0.02 0.01)"/><path d="M17.65,74.56a.76.76,0,0,0,.62-.88h0a.76.76,0,1,0-.62.88Z" transform="translate(-0.02 0.01)"/><path d="M25.11,86.78a.76.76,0,1,0-.88-.62A.77.77,0,0,0,25.11,86.78Z" transform="translate(-0.02 0.01)"/><path d="M16.17,70a.76.76,0,0,0-.27-1.5.76.76,0,1,0,.27,1.5Z" transform="translate(-0.02 0.01)"/><path d="M22.07,83.11a.76.76,0,1,0-.88-.62.74.74,0,0,0,.86.62Z" transform="translate(-0.02 0.01)"/><path d="M19.86,78.83a.76.76,0,1,0-.88-.62.77.77,0,0,0,.88.62Z" transform="translate(-0.02 0.01)"/><path d="M15.4,65.29a.76.76,0,1,0-.88-.62.77.77,0,0,0,.88.62Z" transform="translate(-0.02 0.01)"/><path d="M14.64,60.53a.76.76,0,0,0,.6-.89.75.75,0,0,0-.88-.6.76.76,0,0,0,.27,1.49Z" transform="translate(-0.02 0.01)"/><path d="M22.51,33.3a.8.8,0,1,0-.91-.74.59.59,0,0,0,0,.13.76.76,0,0,0,.88.61Z" transform="translate(-0.02 0.01)"/><path d="M73.66,16.74a.78.78,0,0,0-.61.89.76.76,0,0,0,.89.6.75.75,0,0,0,.61-.87.76.76,0,0,0-.88-.62Z" transform="translate(-0.02 0.01)"/><path d="M78.82,19.57a.77.77,0,0,0-.88-.62.78.78,0,0,0-.62.89.77.77,0,0,0,.88.61h0A.77.77,0,0,0,78.82,19.57Z" transform="translate(-0.02 0.01)"/><path d="M58.1,101.55a.75.75,0,0,0,.87.61h0a.76.76,0,0,0,.62-.88h0a.78.78,0,0,0-.89-.62.76.76,0,0,0-.61.88Z" transform="translate(-0.02 0.01)"/><path d="M49.21,99.44a.76.76,0,1,0,.88.62.77.77,0,0,0-.88-.62Z" transform="translate(-0.02 0.01)"/><path d="M45.34,99.29a.76.76,0,0,0-1.5.27h0a.75.75,0,0,0,.87.61h0A.77.77,0,0,0,45.34,99.29Z" transform="translate(-0.02 0.01)"/><path d="M35.85,94.4a.74.74,0,1,0,.89.6A.78.78,0,0,0,35.85,94.4Z" transform="translate(-0.02 0.01)"/><path d="M80.76,94.4a.77.77,0,0,0,.89.63.77.77,0,1,0-.26-1.52h0A.78.78,0,0,0,80.76,94.4Z" transform="translate(-0.02 0.01)"/><path d="M20,36.08a.76.76,0,0,0,.27,1.5.76.76,0,1,0-.27-1.5Z" transform="translate(-0.02 0.01)"/><path d="M85.23,90.72a.76.76,0,1,0,.88.62.77.77,0,0,0-.88-.62Z" transform="translate(-0.02 0.01)"/><path d="M77.11,95.73a.74.74,0,0,0-.62.86v0a.76.76,0,0,0,1.5-.26h0a.74.74,0,0,0-.86-.62Z" transform="translate(-0.02 0.01)"/><path d="M28.51,90.19a.77.77,0,0,0,.64-.88.78.78,0,0,0-.89-.64.76.76,0,0,0-.63.88v0A.77.77,0,0,0,28.51,90.19Z" transform="translate(-0.02 0.01)"/><path d="M31.92,93.59a.76.76,0,0,0-.27-1.5.76.76,0,1,0,.27,1.5Z" transform="translate(-0.02 0.01)"/><path d="M45.38,15.42a.76.76,0,0,0-.61.88h0a.75.75,0,0,0,.87.61h0a.76.76,0,0,0,.62-.88h0A.78.78,0,0,0,45.38,15.42Z" transform="translate(-0.02 0.01)"/><path d="M49.52,15.54a.76.76,0,1,0,1.5-.27h0a.76.76,0,1,0-1.5.27Z" transform="translate(-0.02 0.01)"/><path d="M36.69,19.41a.76.76,0,1,0,.88.62.77.77,0,0,0-.88-.62Z" transform="translate(-0.02 0.01)"/><path d="M40.4,98.12a.77.77,0,0,0,.63-.89.77.77,0,1,0-1.52.26h0A.77.77,0,0,0,40.4,98.12Z" transform="translate(-0.02 0.01)"/><path d="M68.48,100.63a.76.76,0,1,0-.88-.62.77.77,0,0,0,.88.62Z" transform="translate(-0.02 0.01)"/><path d="M28.91,24.9a.75.75,0,0,0-.61.87h0a.76.76,0,0,0,.88.62h0a.78.78,0,0,0,.62-.89.76.76,0,0,0-.88-.61Z" transform="translate(-0.02 0.01)"/><path d="M32.41,21.62a.76.76,0,1,0,.88.62.74.74,0,0,0-.86-.62Z" transform="translate(-0.02 0.01)"/><path d="M41.85,17.82a.75.75,0,1,0-1.47.27.78.78,0,0,0,.89.61A.76.76,0,0,0,41.85,17.82Z" transform="translate(-0.02 0.01)"/><path d="M63.73,101.4a.76.76,0,1,0-.88-.62A.77.77,0,0,0,63.73,101.4Z" transform="translate(-0.02 0.01)"/><path d="M63.77,15.38a.77.77,0,0,0,.88.64.78.78,0,0,0,.64-.89.76.76,0,0,0-.88-.63h0A.77.77,0,0,0,63.77,15.38Z" transform="translate(-0.02 0.01)"/><path d="M55.77,14.51a.76.76,0,1,0-.62.88.77.77,0,0,0,.62-.88Z" transform="translate(-0.02 0.01)"/><path d="M18.7,41a.73.73,0,1,0-1.42.33.78.78,0,0,0,.81.56A.76.76,0,0,0,18.7,41Z" transform="translate(-0.02 0.01)"/><path d="M69.15,15.26a.77.77,0,0,0-.64.88.78.78,0,0,0,.89.64A.76.76,0,0,0,70,15.9v0A.77.77,0,0,0,69.15,15.26Z" transform="translate(-0.02 0.01)"/><path d="M59.91,15.23a.75.75,0,0,0,.61-.87h0a.77.77,0,0,0-.88-.62.78.78,0,0,0-.62.89.77.77,0,0,0,.88.61Z" transform="translate(-0.02 0.01)"/><path d="M16.94,45.4a.77.77,0,1,0-.62.88A.78.78,0,0,0,16.94,45.4Z" transform="translate(-0.02 0.01)"/><path d="M25.51,28.3a.76.76,0,1,0,.26,1.5h0a.76.76,0,0,0-.26-1.5Z" transform="translate(-0.02 0.01)"/><path d="M54.23,101.71a.77.77,0,1,0-.77-.56.78.78,0,0,0,.81.56Z" transform="translate(-0.02 0.01)"/><path d="M13.9,55.17a.73.73,0,1,0,.62-.89A.78.78,0,0,0,13.9,55.17Z" transform="translate(-0.02 0.01)"/><path d="M16.17,50.15a.76.76,0,1,0-.62.88.77.77,0,0,0,.62-.88Z" transform="translate(-0.02 0.01)"/><path d="M76.66,89.3a1.27,1.27,0,1,0,1.54,1.08A1.34,1.34,0,0,0,76.66,89.3Z" transform="translate(-0.02 0.01)"/><path d="M87.7,36.84a1.33,1.33,0,1,0,1.08-1.54A1.34,1.34,0,0,0,87.7,36.84Z" transform="translate(-0.02 0.01)"/><path d="M66.68,95.89a1.34,1.34,0,0,0,1.08-1.54,1.33,1.33,0,0,0-1.54-1.07,1.31,1.31,0,0,0-1.07,1.51v0A1.33,1.33,0,0,0,66.68,95.89Z" transform="translate(-0.02 0.01)"/><path d="M70.53,22.65a1.32,1.32,0,0,0,1.52,1.08h0a1.34,1.34,0,0,0,1.08-1.54,1.33,1.33,0,0,0-1.54-1.07,1.31,1.31,0,0,0-1.07,1.51Z" transform="translate(-0.02 0.01)"/><path d="M75.42,25.42A1.33,1.33,0,0,0,77,26.51h0A1.35,1.35,0,0,0,78,25a1.33,1.33,0,0,0-1.54-1.07A1.31,1.31,0,0,0,75.42,25.42Z" transform="translate(-0.02 0.01)"/><path d="M66,20a1.33,1.33,0,1,0,1.54,1.08A1.33,1.33,0,0,0,66,20Z" transform="translate(-0.02 0.01)"/><path d="M62.18,95.48A1.33,1.33,0,1,0,61.08,97h0A1.32,1.32,0,0,0,62.18,95.48Z" transform="translate(-0.02 0.01)"/><path d="M60.44,18.86a1.33,1.33,0,0,0-1.07,1.54,1.31,1.31,0,0,0,1.51,1.07h0A1.33,1.33,0,0,0,62,19.94h0a1.34,1.34,0,0,0-1.56-1.08Z" transform="translate(-0.02 0.01)"/><path d="M72.26,94.76a1.33,1.33,0,1,0-1.54-1.08A1.34,1.34,0,0,0,72.26,94.76Z" transform="translate(-0.02 0.01)"/><path d="M90.43,78.91a1.33,1.33,0,1,0-1.09,1.53h0A1.33,1.33,0,0,0,90.43,78.91Z" transform="translate(-0.02 0.01)"/><path d="M21.09,64.94a1.31,1.31,0,0,0,1.07-1.51v0a1.33,1.33,0,1,0-1.07,1.53Z" transform="translate(-0.02 0.01)"/><path d="M20,59.37a1.33,1.33,0,1,0-1.54-1.08A1.33,1.33,0,0,0,20,59.37Z" transform="translate(-0.02 0.01)"/><path d="M28.31,79a1.33,1.33,0,1,0-1.08,1.53h0A1.33,1.33,0,0,0,28.31,79Z" transform="translate(-0.02 0.01)"/><path d="M25.13,74.27a1.33,1.33,0,0,0-1.54-1.07,1.31,1.31,0,0,0-1.07,1.51v0a1.33,1.33,0,1,0,2.61-.46Z" transform="translate(-0.02 0.01)"/><path d="M22.21,70.52A1.33,1.33,0,0,0,23.3,69a1.33,1.33,0,0,0-2.62.44v0a1.32,1.32,0,0,0,1.53,1.07Z" transform="translate(-0.02 0.01)"/><path d="M22.4,41.82a1.33,1.33,0,1,0,1.08-1.54h0a1.32,1.32,0,0,0-1.07,1.53Z" transform="translate(-0.02 0.01)"/><path d="M23.25,46.67a1.33,1.33,0,1,0-1.08,1.54,1.32,1.32,0,0,0,1.08-1.52Z" transform="translate(-0.02 0.01)"/><path d="M93.83,45.29a1.33,1.33,0,0,0-1.07,1.54,1.31,1.31,0,0,0,1.51,1.07h0a1.33,1.33,0,1,0-.24-2.65Z" transform="translate(-0.02 0.01)"/><path d="M31.49,83.71a1.33,1.33,0,1,0-2.65.24,1.7,1.7,0,0,0,0,.22,1.33,1.33,0,0,0,2.61-.46Z" transform="translate(-0.02 0.01)"/><path d="M55.06,94.42A1.33,1.33,0,1,0,56.6,95.5a1.32,1.32,0,0,0-1.52-1.08Z" transform="translate(-0.02 0.01)"/><path d="M25.58,37.1a1.33,1.33,0,1,0,1.08-1.54,1.33,1.33,0,0,0-1.08,1.54Z" transform="translate(-0.02 0.01)"/><path d="M49.49,93.3A1.32,1.32,0,1,0,51,94.39v0A1.32,1.32,0,0,0,49.49,93.3Z" transform="translate(-0.02 0.01)"/><path d="M82.92,87.2a1.33,1.33,0,1,0-2.65.24,1.7,1.7,0,0,0,0,.22,1.33,1.33,0,0,0,2.61-.46Z" transform="translate(-0.02 0.01)"/><path d="M34.77,88.79a1.33,1.33,0,1,0-1.54-1.08h0A1.34,1.34,0,0,0,34.77,88.79Z" transform="translate(-0.02 0.01)"/><path d="M45.44,93.24a1.33,1.33,0,1,0-1.08,1.54h0a1.32,1.32,0,0,0,1.07-1.53Z" transform="translate(-0.02 0.01)"/><path d="M42.63,22.71a1.33,1.33,0,0,0,1.53,1.09,1.33,1.33,0,1,0-.44-2.62h0a1.32,1.32,0,0,0-1.07,1.53Z" transform="translate(-0.02 0.01)"/><path d="M19.51,52.71a1.33,1.33,0,0,0,1.54,1.07,1.31,1.31,0,0,0,1.07-1.51v0a1.33,1.33,0,1,0-2.65.24A1.7,1.7,0,0,0,19.51,52.71Z" transform="translate(-0.02 0.01)"/><path d="M97.66,57.69a1.19,1.19,0,0,0-.1-.32A1.32,1.32,0,0,0,95,58a1.21,1.21,0,0,0,.11.32,1.32,1.32,0,0,0,2.55-.65Z" transform="translate(-0.02 0.01)"/><path d="M92,40a1.33,1.33,0,1,0,1.54,1.08A1.34,1.34,0,0,0,92,40Z" transform="translate(-0.02 0.01)"/><path d="M28.76,32.38a1.27,1.27,0,1,0,1.08-1.54A1.34,1.34,0,0,0,28.76,32.38Z" transform="translate(-0.02 0.01)"/><path d="M93.88,52.41A1.33,1.33,0,1,0,95,50.87a1.33,1.33,0,0,0-1.12,1.54Z" transform="translate(-0.02 0.01)"/><path d="M96.53,63.31a1.33,1.33,0,1,0-1.07,1.53,1.31,1.31,0,0,0,1.07-1.51Z" transform="translate(-0.02 0.01)"/><path d="M80.14,28.6a1.33,1.33,0,1,0,1.07-1.53,1.31,1.31,0,0,0-1.07,1.51Z" transform="translate(-0.02 0.01)"/><path d="M94.33,70.42a1.33,1.33,0,0,0,1.09-1.53,1.33,1.33,0,1,0-2.62.44v0a1.31,1.31,0,0,0,1.51,1.07Z" transform="translate(-0.02 0.01)"/><path d="M85.59,30.59a1.31,1.31,0,0,0-1.07,1.51v0a1.33,1.33,0,0,0,1.53,1.09,1.33,1.33,0,0,0-.44-2.62Z" transform="translate(-0.02 0.01)"/><path d="M40.56,90.44A1.33,1.33,0,0,0,39,89.36h0A1.34,1.34,0,0,0,39.49,92a1.31,1.31,0,0,0,1.08-1.51A.43.43,0,0,1,40.56,90.44Z" transform="translate(-0.02 0.01)"/><path d="M37.78,25.59a1.33,1.33,0,1,0,2.65-.24,1.7,1.7,0,0,0,0-.22,1.31,1.31,0,0,0-1.51-1.07h0A1.33,1.33,0,0,0,37.78,25.59Z" transform="translate(-0.02 0.01)"/><path d="M86.17,85.16a1.33,1.33,0,1,0-.24-2.65l-.22,0a1.33,1.33,0,0,0,.46,2.61Z" transform="translate(-0.02 0.01)"/><path d="M33.06,28.78a1.33,1.33,0,1,0,1.08-1.54A1.33,1.33,0,0,0,33.06,28.78Z" transform="translate(-0.02 0.01)"/><path d="M50.82,21.13a1.34,1.34,0,0,0-1.54-1.08,1.27,1.27,0,1,0,1.54,1.08Z" transform="translate(-0.02 0.01)"/><path d="M93.61,74.19a1.33,1.33,0,1,0-1.09,1.53h0A1.33,1.33,0,0,0,93.61,74.19Z" transform="translate(-0.02 0.01)"/><path d="M54.86,18.92A1.33,1.33,0,1,0,56.4,20,1.33,1.33,0,0,0,54.86,18.92Z" transform="translate(-0.02 0.01)"/></g></svg>