<svg id="a925d175-0d7e-4a92-ad04-1713ceba01e9" data-name="Layer 1" xmlns="http://www.w3.org/2000/svg" viewBox="0 0 115.23 115.26"><title>10u</title><g id="f8ae52d2-2bfb-4c49-99ad-f63167a5bf58" data-name="shapes"><path d="M58.54,30.34a.88.88,0,0,1,.85.91h0a.9.9,0,0,1-.91.85h0a.88.88,0,0,1-.85-.91h0a.89.89,0,0,1,.88-.85h0Zm-2.68.91a.89.89,0,0,1-.75,1h0a.89.89,0,0,1-1-.75v0h0a.89.89,0,0,1,.75-1H55A.89.89,0,0,1,55.86,31.25Zm6.31-.56h0a.88.88,0,0,1,.72,1h0a.87.87,0,0,1-1,.72h0a.88.88,0,0,1-.73-1h0a.91.91,0,0,1,.87-.74h.15Zm-9.81,1a.88.88,0,0,1-.65,1.06h0a.88.88,0,0,1-1.06-.65h0A.9.9,0,0,1,51.29,31h.21a.89.89,0,0,1,.86.69Zm13.36-.19h0a.9.9,0,0,1,.58,1.11h0a.89.89,0,0,1-1.1.58h0a.87.87,0,0,1-.59-1.09h0a.89.89,0,0,1,.85-.62h0ZM49,32.65a.89.89,0,0,1-.51,1.14h0a.89.89,0,0,1-1.14-.5h0a.89.89,0,0,1,.5-1.14h0a.7.7,0,0,1,.32-.06h0A.88.88,0,0,1,49,32.65Zm20.18.19A.9.9,0,0,1,69.56,34h0a.9.9,0,0,1-1.18.43h0A.9.9,0,0,1,68,33.27h0a.9.9,0,0,1,.81-.51h0a1.16,1.16,0,0,1,.32.08ZM45.7,34a.88.88,0,0,1-.34,1.2h0a.88.88,0,0,1-1.19-.35h0a.88.88,0,0,1,.34-1.2h0a.92.92,0,0,1,.43-.11h0A.88.88,0,0,1,45.7,34Zm26.63.57a.89.89,0,0,1,.27,1.22h0a.88.88,0,0,1-1.22.26h0a.87.87,0,0,1-.28-1.2h0a.86.86,0,0,1,.74-.41h0a.93.93,0,0,1,.48.17ZM42.66,35.83a.89.89,0,0,1-.18,1.24h0a.89.89,0,0,1-1.23-.19h0a.88.88,0,0,1,.18-1.23h0a.87.87,0,0,1,.52-.17h0A.9.9,0,0,1,42.66,35.83Zm32.6.94A.87.87,0,0,1,75.37,38h0a.88.88,0,0,1-1.24.1h0A.88.88,0,0,1,74,36.87h0a.89.89,0,0,1,.68-.31h0A.83.83,0,0,1,75.26,36.77ZM39.89,38a.87.87,0,0,1,0,1.23h0a.87.87,0,0,1-1.23,0h0a.87.87,0,0,1,0-1.23h0a.86.86,0,0,1,.61-.25h0A.83.83,0,0,1,39.89,38Zm38,1.27h0a.88.88,0,0,1-.06,1.24h0a.89.89,0,0,1-1.25-.06h0a.88.88,0,0,1,.06-1.24h0a.86.86,0,0,1,.59-.23h0a.88.88,0,0,1,.66.32ZM37.44,40.56a.89.89,0,0,1,.14,1.24h0a.87.87,0,0,1-1.22.16h0a.88.88,0,0,1-.15-1.23h0a.88.88,0,0,1,.69-.33h0A.91.91,0,0,1,37.44,40.56Zm42.71,1.6a.87.87,0,0,1-.21,1.21h0a.89.89,0,0,1-1.23-.21h0a.89.89,0,0,1,.23-1.23h0a.89.89,0,0,1,.5-.15h0A.86.86,0,0,1,80.15,42.16ZM35.34,43.41a.87.87,0,0,1,.31,1.2h0a.88.88,0,0,1-1.21.3h0a.87.87,0,0,1-.32-1.19h0a.89.89,0,0,1,.76-.44h0A.9.9,0,0,1,35.34,43.41ZM82,45.29a.89.89,0,0,1-.39,1.19h0a.89.89,0,0,1-1.19-.39h0a.88.88,0,0,1,.39-1.18h0a.79.79,0,0,1,.4-.1h0A.9.9,0,0,1,82,45.29ZM33.64,46.51a.87.87,0,0,1,.48,1.13v0h0a.89.89,0,0,1-1.16.47h0A.87.87,0,0,1,32.49,47h0a.89.89,0,0,1,.81-.53h0A.8.8,0,0,1,33.64,46.51Zm49.81,2.14a.88.88,0,0,1-.55,1.12h0a.88.88,0,0,1-1.12-.54h0a.88.88,0,0,1,.54-1.12h.29A.9.9,0,0,1,83.45,48.65ZM32.37,49.81a.87.87,0,0,1,.64,1v0h0a.89.89,0,0,1-1.09.62h0a.89.89,0,0,1-.61-1.09h0a.89.89,0,0,1,.85-.64h0A.83.83,0,0,1,32.37,49.81Zm52,2.36a.89.89,0,0,1-.69,1h0a.87.87,0,0,1-1-.69h0a.89.89,0,0,1,.69-1h.18a.88.88,0,0,1,.86.69ZM31.55,53.24a.88.88,0,0,1,.76,1h0a.88.88,0,0,1-1,.76h0a.88.88,0,0,1-.76-1h0a.88.88,0,0,1,.88-.76h.12ZM84.9,55.79a.88.88,0,0,1-.82.93h0a.87.87,0,0,1-.94-.8v0h0A.89.89,0,0,1,84,55h0A.88.88,0,0,1,84.9,55.79ZM32.09,57.64h0a.87.87,0,0,1-.87.89h0a.89.89,0,0,1-.89-.88h0a.87.87,0,0,1,.88-.88h0a.87.87,0,0,1,.89.87Zm52,.86a.87.87,0,0,1,.82.92h0a.87.87,0,0,1-.92.82h0a.88.88,0,0,1-.83-.93h0a.89.89,0,0,1,.88-.83h.06ZM32.32,61.1a.88.88,0,0,1-.76,1h0a.88.88,0,0,1-1-.74h0a.88.88,0,0,1,.76-1h.12A.88.88,0,0,1,32.32,61.1Zm51.41.9a.89.89,0,0,1,.69,1h0a.89.89,0,0,1-1,.69h0a.89.89,0,0,1-.7-1h0a.9.9,0,0,1,.87-.71h0ZM33,64.44a.89.89,0,0,1-.6,1.09h0a.89.89,0,0,1-1.09-.62h0a.88.88,0,0,1,.62-1.08h.23A.87.87,0,0,1,33,64.44Zm49.92,1a.88.88,0,0,1,.54,1.12h0a.87.87,0,0,1-1.1.55h0A.87.87,0,0,1,81.8,66h0a.87.87,0,0,1,.83-.6h0a.93.93,0,0,1,.29,0ZM34.13,67.66a.89.89,0,0,1-.47,1.16h0a.88.88,0,0,1-1.15-.46h0A.87.87,0,0,1,33,67.21h0a.84.84,0,0,1,.35-.07h0A.89.89,0,0,1,34.13,67.66Zm47.52,1.09A.88.88,0,0,1,82,69.94h0a.88.88,0,0,1-1.18.38h0a.87.87,0,0,1-.4-1.16v0h0a.86.86,0,0,1,.79-.48h0A.8.8,0,0,1,81.65,68.75Zm-46,2a.89.89,0,0,1-.3,1.21h0a.89.89,0,0,1-1.21-.3h0a.89.89,0,0,1,.3-1.21h0a.76.76,0,0,1,.44-.13h0a.89.89,0,0,1,.78.38ZM80,71.85a.88.88,0,0,1,.24,1.22h0a.88.88,0,0,1-1.21.24l0,0h0a.87.87,0,0,1-.24-1.21h0a.89.89,0,0,1,.73-.39h0A1,1,0,0,1,80,71.85ZM37.61,73.51a.89.89,0,0,1-.14,1.24h0a.89.89,0,0,1-1.24-.14h0a.89.89,0,0,1,.14-1.24h0a.92.92,0,0,1,.55-.19h0A.88.88,0,0,1,37.61,73.51ZM77.86,74.7a.87.87,0,0,1,.07,1.23h0a.87.87,0,0,1-1.23.07h0a.88.88,0,0,1-.07-1.24h0a.92.92,0,0,1,.66-.29h0A.86.86,0,0,1,77.86,74.7ZM39.91,76a.87.87,0,0,1,0,1.23h0a.87.87,0,0,1-1.24,0h0a.87.87,0,0,1,0-1.24h0a.87.87,0,0,1,.63-.27h0A.9.9,0,0,1,39.91,76Zm35.5,1.2a.88.88,0,0,1-.11,1.24h0a.88.88,0,0,1-1.24-.1h0a.9.9,0,0,1,.1-1.25h0a.9.9,0,0,1,.57-.2h0a.9.9,0,0,1,.68.35Zm-32.89,1a.88.88,0,0,1,.18,1.23h0a.88.88,0,0,1-1.23.19h0a.89.89,0,0,1-.19-1.23h0A.88.88,0,0,1,42,78h0a.86.86,0,0,1,.53.21Zm30.12,1.19a.89.89,0,0,1-.27,1.22h0a.89.89,0,0,1-1.22-.27h0a.89.89,0,0,1,.27-1.22h0A.9.9,0,0,1,71.9,79h0a.91.91,0,0,1,.74.43ZM45.4,80h0a.87.87,0,0,1,.35,1.18h0a.86.86,0,0,1-1.16.37l0,0h0a.87.87,0,0,1-.35-1.19h0A.87.87,0,0,1,45,80h0a.78.78,0,0,1,.4.08ZM69.6,81.2a.88.88,0,0,1-.42,1.17h0A.9.9,0,0,1,68,82h0a.88.88,0,0,1,.42-1.17h0a.84.84,0,0,1,.38-.08h0a.86.86,0,0,1,.8.49Zm-21.11.27A.87.87,0,0,1,49,82.58l0,.07h0a.87.87,0,0,1-1.12.51h0A.88.88,0,0,1,47.34,82v0h0a.88.88,0,0,1,.83-.57h0a.84.84,0,0,1,.31.08Zm17.86,1.11a.88.88,0,0,1-.57,1.11h0a.89.89,0,0,1-1.11-.59h0a.89.89,0,0,1,.58-1.1h0a1.13,1.13,0,0,1,.26,0h0a.87.87,0,0,1,.84.62Zm-14.59-.11a.88.88,0,0,1,.65,1.06h0a.88.88,0,0,1-1,.66h0a.88.88,0,0,1-.65-1.06h0a.88.88,0,0,1,.86-.68h0Zm11.19,1a.87.87,0,0,1-.72,1h0a.88.88,0,0,1-1-.72h0a.87.87,0,0,1,.72-1h.15a.89.89,0,0,1,.9.81ZM55.12,83a.87.87,0,0,1,.79,1v0h0a.88.88,0,0,1-.95.81h-.05a.89.89,0,0,1-.79-1v0h0A.89.89,0,0,1,55,83h.12Zm4.33,1a.88.88,0,0,1-.85.91h0a.87.87,0,0,1-.91-.83v0h0a.87.87,0,0,1,.83-.91h0a.88.88,0,0,1,.91.85v0Z" transform="translate(0 0)"/><path d="M58.33,36.4a.67.67,0,0,1,.66.7h0a.67.67,0,0,1-.69.67h0a.7.7,0,0,1-.67-.71h0a.69.69,0,0,1,.69-.67h0Zm-2.08.71a.69.69,0,0,1-.62.75h0a.68.68,0,0,1-.75-.6h0a.69.69,0,0,1,.62-.75h.06A.69.69,0,0,1,56.25,37.11Zm4.9-.42a.68.68,0,0,1,.57.77h0a.68.68,0,0,1-.79.57h0a.68.68,0,0,1-.56-.78h0a.68.68,0,0,1,.67-.58h0Zm-7.62.79a.69.69,0,0,1-.51.82h0a.68.68,0,0,1-.83-.5h0a.69.69,0,0,1,.51-.8h.16A.69.69,0,0,1,53.53,37.48Zm10.38-.14a.68.68,0,0,1,.47.84v0h0a.69.69,0,0,1-.86.45h0a.69.69,0,0,1-.45-.86h0a.67.67,0,0,1,.65-.48h0A.64.64,0,0,1,63.91,37.34Zm-13,.86a.67.67,0,0,1-.38.88h0a.69.69,0,0,1-.89-.39h0a.7.7,0,0,1,.4-.89h0a1,1,0,0,1,.24,0h0a.67.67,0,0,1,.6.39Zm15.7.16a.68.68,0,0,1,.33.9h0a.69.69,0,0,1-.91.33h0a.69.69,0,0,1-.33-.91h0a.68.68,0,0,1,.62-.4h0a.72.72,0,0,1,.25.07Zm-18.22.92a.69.69,0,0,1-.27.93h0a.7.7,0,0,1-.94-.27h0a.68.68,0,0,1,.27-.92h0a.62.62,0,0,1,.32-.09h0a.68.68,0,0,1,.57.36Zm20.7.44a.69.69,0,0,1,.26.94l0,.06h0a.69.69,0,0,1-.94.25l-.06,0h0a.69.69,0,0,1-.25-.94l0-.06h0a.7.7,0,0,1,.58-.32h0a.7.7,0,0,1,.37.11ZM46,40.68a.69.69,0,0,1-.08,1l-.06,0h0a.69.69,0,0,1-1-.11l0,0h0a.68.68,0,0,1,.09-1l.06,0h0a.65.65,0,0,1,.4-.14h0A.69.69,0,0,1,46,40.68Zm25.36.73a.66.66,0,0,1,.13.94l0,.06h0a.66.66,0,0,1-.94.13l-.06,0h0a.66.66,0,0,1-.13-.94l0-.06h0a.67.67,0,0,1,.52-.25h0a.71.71,0,0,1,.46.17Zm-27.51,1a.67.67,0,0,1,0,1s0,0,0,0h0a.68.68,0,0,1-1,0l0,0h0a.69.69,0,0,1,0-1l0,0h0a.71.71,0,0,1,.48-.19h0a.71.71,0,0,1,.5.17Zm29.55,1a.68.68,0,0,1,0,1l0,0h0a.68.68,0,0,1-1,0s0,0,0,0h0a.67.67,0,0,1-.05-1l.05,0h0a.63.63,0,0,1,.45-.18h0a.69.69,0,0,1,.53.2Zm-31.46,1a.68.68,0,0,1,.15,1l0,0h0a.68.68,0,0,1-.95.16l-.05,0h0a.68.68,0,0,1-.15-1l0,0h0a.67.67,0,0,1,.54-.27h0a.68.68,0,0,1,.44.1Zm33.2,1.19a.68.68,0,0,1-.17.95h0a.7.7,0,0,1-1-.12l0,0h0a.7.7,0,0,1,.15-1l0,0h0a.69.69,0,0,1,.39-.12h0A.69.69,0,0,1,75.14,45.6Zm-34.85,1a.69.69,0,0,1,.24.94h0a.69.69,0,0,1-.93.25h0a.69.69,0,0,1-.25-.93h0a.71.71,0,0,1,.59-.33h0a.7.7,0,0,1,.35.06ZM76.59,48a.69.69,0,0,1-.29.92h0a.69.69,0,0,1-.92-.29h0a.69.69,0,0,1,.3-.92h0a.68.68,0,0,1,.31-.08h0A.68.68,0,0,1,76.59,48ZM39,49a.68.68,0,0,1,.36.9h0a.67.67,0,0,1-.89.36h0a.67.67,0,0,1-.37-.87v0h0a.66.66,0,0,1,.63-.42h0A.86.86,0,0,1,39,49Zm38.74,1.67h0a.69.69,0,0,1-.43.87h0a.67.67,0,0,1-.86-.39v0h0a.68.68,0,0,1,.41-.87h.24a.68.68,0,0,1,.62.4ZM38,51.55a.68.68,0,0,1,.48.83h0a.68.68,0,0,1-.83.48h0a.68.68,0,0,1-.48-.83h0a.66.66,0,0,1,.66-.5h0A.55.55,0,0,1,38,51.55Zm40.47,1.84h0a.68.68,0,0,1-.52.81h0a.7.7,0,0,1-.81-.54h0a.7.7,0,0,1,.54-.81h.14a.67.67,0,0,1,.64.54Zm-41.11.83A.69.69,0,0,1,38,55h0a.68.68,0,0,1-.76.59h0a.69.69,0,0,1-.59-.77h0a.69.69,0,0,1,.68-.59Zm41.49,2a.68.68,0,0,1-.63.73h0a.7.7,0,0,1-.74-.64h0a.7.7,0,0,1,.65-.73h0a.68.68,0,0,1,.7.62ZM37.76,57.64h0a.69.69,0,0,1-.69.69h0a.7.7,0,0,1-.68-.68h0a.67.67,0,0,1,.66-.68h0a.67.67,0,0,1,.69.67Zm40.44.67a.68.68,0,0,1,.64.72h0a.7.7,0,0,1-.73.64h0a.69.69,0,0,1-.64-.73h0a.69.69,0,0,1,.68-.65h0Zm-40.26,2a.69.69,0,0,1-.58.77h0a.69.69,0,0,1-.77-.58h0a.7.7,0,0,1,.59-.78h.09a.68.68,0,0,1,.68.61Zm40,.71a.7.7,0,0,1,.54.81h0a.67.67,0,0,1-.78.53h0a.68.68,0,0,1-.54-.8h0a.68.68,0,0,1,.67-.55h.13ZM38.47,62.93a.68.68,0,0,1-.47.84h0a.68.68,0,0,1-.84-.47h0a.69.69,0,0,1,.48-.85h.18A.69.69,0,0,1,38.47,62.93Zm38.82.79a.69.69,0,0,1,.43.87h0a.67.67,0,0,1-.84.43h0a.67.67,0,0,1-.43-.84v0h0a.68.68,0,0,1,.64-.46h0A.54.54,0,0,1,77.29,63.72ZM39.35,65.44a.7.7,0,0,1-.37.9h0a.68.68,0,0,1-.9-.36h0a.69.69,0,0,1,.35-.9h0A.66.66,0,0,1,38.7,65h0A.7.7,0,0,1,39.35,65.44Zm37,.84a.7.7,0,0,1,.3.93h0a.69.69,0,0,1-.92.3h0a.67.67,0,0,1-.3-.91h0a.68.68,0,0,1,.61-.38h0a.64.64,0,0,1,.27.07ZM40.55,67.8a.68.68,0,0,1-.23.93h0a.68.68,0,0,1-.93-.23h0a.69.69,0,0,1,.24-.94h0a.73.73,0,0,1,.35-.09h0A.71.71,0,0,1,40.55,67.8ZM75,68.69a.71.71,0,0,1,.2,1l0,0h0a.71.71,0,0,1-1,.2l0,0h0a.68.68,0,0,1-.2-1l0,0h0a.68.68,0,0,1,.56-.3h0A.67.67,0,0,1,75,68.69ZM42.05,70a.68.68,0,0,1,0,1l0,0h0a.68.68,0,0,1-1-.08l0,0h0a.68.68,0,0,1,.08-1l0,0h0a.66.66,0,0,1,.43-.15h0A.67.67,0,0,1,42.05,70Zm31.31.92a.69.69,0,0,1,0,1l0,0h0a.7.7,0,0,1-1,.06h0a.69.69,0,0,1,0-1l0,0h0a.68.68,0,0,1,.51-.23h0a.69.69,0,0,1,.49.17ZM43.84,72a.69.69,0,0,1,0,1l0,0h0a.69.69,0,0,1-1,0l0,0h0a.69.69,0,0,1,0-1l0,0h0a.71.71,0,0,1,.49-.21h0A.66.66,0,0,1,43.84,72Zm27.61.93a.68.68,0,0,1,0,1l0,0h0a.67.67,0,0,1-1,0l0-.06h0a.68.68,0,0,1,0-1l0,0h0a.7.7,0,0,1,.44-.16h0a.65.65,0,0,1,.56.19Zm-25.58.78h0a.69.69,0,0,1,.18,1l0,0h0a.69.69,0,0,1-1,.18l0,0h0a.69.69,0,0,1-.18-1l0,0h0a.7.7,0,0,1,.55-.28h0a.65.65,0,0,1,.45.08Zm23.43.93a.7.7,0,0,1-.15,1l-.06,0h0a.7.7,0,0,1-1-.15l0-.06h0a.7.7,0,0,1,.15-1l.06,0h0a.69.69,0,0,1,.37-.1h0a.7.7,0,0,1,.63.26Zm-21.19.5a.69.69,0,0,1,.27.93h0a.68.68,0,0,1-.92.27h0a.69.69,0,0,1-.27-.93h0a.68.68,0,0,1,.6-.35h0a.62.62,0,0,1,.33,0ZM66.94,76a.69.69,0,0,1-.33.91h0a.69.69,0,0,1-.91-.32h0a.7.7,0,0,1,.33-.92h0a.72.72,0,0,1,.29-.06h0A.68.68,0,0,1,66.94,76Zm-16.42.21h0a.68.68,0,0,1,.39.88h0a.69.69,0,0,1-.88.4h0a.7.7,0,0,1-.4-.89h0a.7.7,0,0,1,.64-.44h0A.7.7,0,0,1,50.52,76.21Zm13.89.86a.69.69,0,0,1-.45.86h0a.69.69,0,0,1-.86-.45h0a.69.69,0,0,1,.45-.86h0a.74.74,0,0,1,.21,0h0A.69.69,0,0,1,64.41,77.07ZM53.06,77a.69.69,0,0,1,.51.82h0a.69.69,0,0,1-.83.51h0a.69.69,0,0,1-.51-.82h0A.7.7,0,0,1,52.9,77h0A.43.43,0,0,1,53.06,77Zm8.7.81a.68.68,0,0,1-.55.79h0a.69.69,0,0,1-.79-.56h0a.69.69,0,0,1,.56-.79h.12a.68.68,0,0,1,.67.55Zm-6.08-.38h0a.68.68,0,0,1,.61.74h0a.69.69,0,0,1-.75.62h0a.69.69,0,0,1-.61-.75h0a.68.68,0,0,1,.68-.62Zm3.36.75a.69.69,0,0,1-.66.71h0a.69.69,0,0,1-.71-.67h0a.67.67,0,0,1,.66-.7h0a.69.69,0,0,1,.67.65Z" transform="translate(0 0)"/><path d="M58.74,24.27a1.07,1.07,0,0,1,1,1.11h0a1.06,1.06,0,0,1-1.11,1h0a1.07,1.07,0,0,1-1-1.11h0a1.07,1.07,0,0,1,1.08-1h0Zm-3.27,1.12a1.07,1.07,0,0,1-1,1.17h0a1.08,1.08,0,0,1-1.18-1v0h0a1.09,1.09,0,0,1,1-1.18h.12A1.1,1.1,0,0,1,55.47,25.39Zm7.71-.68a1.07,1.07,0,0,1,.89,1.22.17.17,0,0,1,0,.07h0a1.07,1.07,0,0,1-1.23.88h0a1.07,1.07,0,0,1-.89-1.22v0h0a1.07,1.07,0,0,1,1.06-.9h0ZM51.19,26a1.06,1.06,0,0,1-.77,1.28h0a1.07,1.07,0,0,1-1.3-.79h0a1.09,1.09,0,0,1,.8-1.3h.25A1.09,1.09,0,0,1,51.19,26Zm16.33-.23h0a1.08,1.08,0,0,1,.71,1.35h0a1.07,1.07,0,0,1-1.33.72h0a1.07,1.07,0,0,1-.71-1.34h0a1.08,1.08,0,0,1,1-.76h0a1,1,0,0,1,.35,0ZM47,27.1a1.07,1.07,0,0,1-.6,1.39h0a1.09,1.09,0,0,1-1.4-.62h0a1.1,1.1,0,0,1,.62-1.39h0a1,1,0,0,1,.39-.07h0A1.06,1.06,0,0,1,47,27.1Zm24.67.24a1.07,1.07,0,0,1,.52,1.43h0a1.08,1.08,0,0,1-1.42.53h0a1.08,1.08,0,0,1-.53-1.42h0a1.07,1.07,0,0,1,1-.62h0a1,1,0,0,1,.45.1ZM43.05,28.79a1.08,1.08,0,0,1-.41,1.46h0a1.08,1.08,0,0,1-1.46-.43h0a1.08,1.08,0,0,1,.41-1.46h0a1.06,1.06,0,0,1,.52-.13h0A1.07,1.07,0,0,1,43.05,28.79Zm32.55.69A1.07,1.07,0,0,1,76,31l0,.05h0a1.07,1.07,0,0,1-1.48.33h0a1.08,1.08,0,0,1-.33-1.49h0a1.08,1.08,0,0,1,.91-.5h0A1.08,1.08,0,0,1,75.6,29.48ZM39.34,31a1.09,1.09,0,0,1-.22,1.51h0a1.08,1.08,0,0,1-1.51-.23h0a1.08,1.08,0,0,1,.23-1.51h0a1.07,1.07,0,0,1,.64-.21h0A1.05,1.05,0,0,1,39.34,31Zm39.85,1.14h0a1.08,1.08,0,0,1,.12,1.52h0a1.07,1.07,0,0,1-1.51.12h0a1.06,1.06,0,0,1-.15-1.49l0,0h0a1,1,0,0,1,.82-.39h0a1.11,1.11,0,0,1,.7.25ZM36,33.67a1.07,1.07,0,0,1,0,1.51h0a1.07,1.07,0,0,1-1.52,0h0a1.11,1.11,0,0,1,0-1.53h0a1.09,1.09,0,0,1,.75-.3h0A1.09,1.09,0,0,1,36,33.67Zm46.43,1.56a1.08,1.08,0,0,1-.07,1.52h0a1.08,1.08,0,0,1-1.52-.08h0a1.08,1.08,0,0,1,.07-1.52h0a1.09,1.09,0,0,1,.73-.28h0a1,1,0,0,1,.75.36ZM33,36.77a1.09,1.09,0,0,1,.17,1.52h0a1.08,1.08,0,0,1-1.51.17h0A1.07,1.07,0,0,1,31.44,37h0a1.09,1.09,0,0,1,.85-.41h0A1.06,1.06,0,0,1,33,36.77Zm52.2,1.95h0a1.09,1.09,0,0,1-.27,1.5h0a1.09,1.09,0,0,1-1.5-.28h0a1.08,1.08,0,0,1,.27-1.5h0a1.1,1.1,0,0,1,.61-.19h0a1.08,1.08,0,0,1,.85.47ZM30.39,40.25a1.08,1.08,0,0,1,.38,1.47h0a1.09,1.09,0,0,1-1.48.38h0a1.09,1.09,0,0,1-.38-1.48h0a1.1,1.1,0,0,1,.93-.52h0A1.08,1.08,0,0,1,30.39,40.25Zm57.05,2.3A1.08,1.08,0,0,1,87,44h0a1.08,1.08,0,0,1-1.45-.47h0A1.08,1.08,0,0,1,86,42.08h0a1,1,0,0,1,.49-.12h0A1.09,1.09,0,0,1,87.44,42.55ZM28.31,44a1.08,1.08,0,0,1,.57,1.42h0a1.08,1.08,0,0,1-1.41.57h0a1.08,1.08,0,0,1-.57-1.42h0a1.08,1.08,0,0,1,1-.65h0A1.15,1.15,0,0,1,28.31,44Zm60.88,2.62A1.09,1.09,0,0,1,88.52,48h0a1.09,1.09,0,0,1-1.37-.67h0A1.08,1.08,0,0,1,87.82,46h0a1,1,0,0,1,.35-.06h0a1.09,1.09,0,0,1,1,.71ZM26.76,48.07a1.09,1.09,0,0,1,.76,1.32h0a1.09,1.09,0,0,1-1.33.75h0a1.06,1.06,0,0,1-.75-1.31h0a1.07,1.07,0,0,1,1-.79h0A1.12,1.12,0,0,1,26.76,48.07ZM90.37,51a1.08,1.08,0,0,1-.84,1.27h0a1.07,1.07,0,0,1-1.27-.85h0a1.07,1.07,0,0,1,.82-1.26h.23A1.08,1.08,0,0,1,90.37,51ZM25.76,52.27a1.08,1.08,0,0,1,.93,1.21h0a1.06,1.06,0,0,1-1.2.92h0a1.09,1.09,0,0,1-.93-1.21h0a1.09,1.09,0,0,1,1.07-.93h.14ZM91,55.38a1.07,1.07,0,0,1-1,1.14h0a1.08,1.08,0,0,1-1.15-1h0a1.08,1.08,0,0,1,1-1.15h.07A1.08,1.08,0,0,1,91,55.38ZM26.41,57.64h0a1.07,1.07,0,0,1-1.06,1.08h0a1.08,1.08,0,0,1-1.08-1.08h0a1.08,1.08,0,0,1,1.08-1.08h0a1.07,1.07,0,0,1,1.07,1.07Zm63.55,1a1.06,1.06,0,0,1,1,1.12v0h0a1.1,1.1,0,0,1-1.15,1h0a1.08,1.08,0,0,1-1-1.15h0a1.08,1.08,0,0,1,1.07-1H90ZM26.7,61.87a1.08,1.08,0,0,1-.93,1.21h0a1.07,1.07,0,0,1-1.21-.92h0A1.08,1.08,0,0,1,25.49,61h.14A1.08,1.08,0,0,1,26.7,61.87ZM89.54,63a1.08,1.08,0,0,1,.84,1.27h0a1.07,1.07,0,0,1-1.27.85h0a1.08,1.08,0,0,1-.84-1.27h0A1.08,1.08,0,0,1,89.33,63h.21Zm-62,3a1.07,1.07,0,0,1-.74,1.32h0a1.09,1.09,0,0,1-1.33-.75h0a1.09,1.09,0,0,1,.76-1.33h.28a1.08,1.08,0,0,1,1,.76Zm61,1.23a1.08,1.08,0,0,1,.67,1.37h0a1.08,1.08,0,0,1-1.37.67h0a1.08,1.08,0,0,1-.66-1.38h0a1.06,1.06,0,0,1,1-.72h0a.88.88,0,0,1,.36,0Zm-59.63,2.7h0a1.09,1.09,0,0,1-.57,1.42h0a1.08,1.08,0,0,1-1.41-.57h0a1.06,1.06,0,0,1,.54-1.4h0a1,1,0,0,1,.42-.09h0a1.07,1.07,0,0,1,1,.61ZM87,71.22a1.08,1.08,0,0,1,.47,1.45h0a1.08,1.08,0,0,1-1.45.47h0a1.07,1.07,0,0,1-.48-1.42v0h0a1.06,1.06,0,0,1,1-.59h0A1,1,0,0,1,87,71.22ZM30.8,73.61a1.09,1.09,0,0,1-.38,1.48h0A1.08,1.08,0,0,1,29,74.71h0a1.06,1.06,0,0,1,.35-1.46h0a1,1,0,0,1,.55-.16h0A1.11,1.11,0,0,1,30.8,73.61ZM84.92,75a1.08,1.08,0,0,1,.28,1.5h0a1.09,1.09,0,0,1-1.5.28h0a1.09,1.09,0,0,1-.28-1.5h0a1.08,1.08,0,0,1,.89-.47h0A1.1,1.1,0,0,1,84.92,75ZM33.17,77a1.08,1.08,0,0,1-.12,1.52l0,0h0a1.09,1.09,0,0,1-1.51-.18h0a1.07,1.07,0,0,1,.17-1.5h0a1,1,0,0,1,.66-.24h0A1.08,1.08,0,0,1,33.17,77Zm49.19,1.45a1.07,1.07,0,0,1,.1,1.52l0,0h0a1.09,1.09,0,0,1-1.52.08h0a1.09,1.09,0,0,1-.08-1.53h0a1.11,1.11,0,0,1,.8-.35h0a1.06,1.06,0,0,1,.72.29ZM36,80.13a1.07,1.07,0,0,1,0,1.51h0a1.07,1.07,0,0,1-1.51,0h0a1.07,1.07,0,0,1,0-1.51h0a1.07,1.07,0,0,1,.77-.33h0A1.12,1.12,0,0,1,36,80.13ZM79.36,81.6a1.08,1.08,0,0,1-.12,1.51h0A1.08,1.08,0,0,1,77.72,83h0a1.08,1.08,0,0,1,.12-1.52h0a1.06,1.06,0,0,1,.7-.26h0A1.07,1.07,0,0,1,79.36,81.6Zm-40.2,1.22a1.07,1.07,0,0,1,.23,1.5h0a1.06,1.06,0,0,1-1.49.24h0a1.06,1.06,0,0,1-.25-1.48l0,0h0a1.07,1.07,0,0,1,.87-.44h0A1.07,1.07,0,0,1,39.16,82.82ZM76,84.28a1.07,1.07,0,0,1-.33,1.48h0a1.07,1.07,0,0,1-1.48-.32h0a1.09,1.09,0,0,1,.3-1.44h0a1,1,0,0,1,.58-.17h0A1.06,1.06,0,0,1,76,84.28Zm-33.3.78a1.07,1.07,0,0,1,.44,1.45h0a1.07,1.07,0,0,1-1.45.44h0a1.07,1.07,0,0,1-.44-1.45h0a1.09,1.09,0,0,1,1-.56h0a1,1,0,0,1,.44.13Zm29.59,1.42a1.07,1.07,0,0,1-.51,1.42h0a1.07,1.07,0,0,1-1.42-.51h0a1.07,1.07,0,0,1,.5-1.39h0a1,1,0,0,1,.45-.1h0a1.08,1.08,0,0,1,1,.58Zm-25.8.34a1.08,1.08,0,0,1,.62,1.39h0a1.1,1.1,0,0,1-1.39.62h0a1.07,1.07,0,0,1-.62-1.39h0a1.08,1.08,0,0,1,1-.69h0a1,1,0,0,1,.37.08ZM68.3,88.18a1.08,1.08,0,0,1-.71,1.34h0a1.08,1.08,0,0,1-1.35-.69h0A1.08,1.08,0,0,1,67,87.48h0a.86.86,0,0,1,.32,0h0A1.08,1.08,0,0,1,68.3,88.18ZM50.46,88a1.09,1.09,0,0,1,.8,1.3h0a1.08,1.08,0,0,1-1.3.8h0a1.08,1.08,0,0,1-.8-1.3h0a1.09,1.09,0,0,1,1.05-.8h.25Zm13.67,1.28a1.07,1.07,0,0,1-.87,1.24h0A1.08,1.08,0,0,1,62,89.68h0a1.08,1.08,0,0,1,.88-1.24h.18a1.06,1.06,0,0,1,1.07.88Zm-9.56-.59h0a1.08,1.08,0,0,1,1,1.15v0h0a1.08,1.08,0,0,1-1.15,1h0a1.09,1.09,0,0,1-1-1.17h0a1.09,1.09,0,0,1,1.07-1Zm5.29,1.17a1.09,1.09,0,0,1-1,1.11h0a1.08,1.08,0,0,1-1.12-1h0a1.07,1.07,0,0,1,1-1.11h0a1.07,1.07,0,0,1,1.12,1v0Z" transform="translate(0 0)"/><path d="M59,18.2a1.29,1.29,0,0,1,1.23,1.32h0a1.27,1.27,0,0,1-1.31,1.23h0a1.27,1.27,0,0,1-1.24-1.3h0A1.28,1.28,0,0,1,58.9,18.2Zm-3.87,1.32A1.28,1.28,0,0,1,54,20.91h0a1.27,1.27,0,0,1-1.39-1.14h0a1.27,1.27,0,0,1,1.14-1.39h.13a1.27,1.27,0,0,1,1.22,1.14Zm9.11-.8h0a1.29,1.29,0,0,1,1,1.47h0a1.28,1.28,0,0,1-1.47,1h0a1.26,1.26,0,0,1-1-1.46h0a1.27,1.27,0,0,1,1.23-1h0ZM50,20.2a1.27,1.27,0,0,1-.94,1.53h0a1.29,1.29,0,0,1-1.54-.94h0a1.27,1.27,0,0,1,1-1.53h0a1.41,1.41,0,0,1,.29,0h0A1.27,1.27,0,0,1,50,20.2Zm19.3-.26a1.27,1.27,0,0,1,.84,1.59h0a1.27,1.27,0,0,1-1.59.84h0a1.27,1.27,0,0,1-.84-1.59h0a1.27,1.27,0,0,1,1.21-.9h0a1.34,1.34,0,0,1,.4.06ZM45.1,21.55a1.28,1.28,0,0,1-.73,1.64h0a1.28,1.28,0,0,1-1.65-.72h0a1.28,1.28,0,0,1,.73-1.64h0a1.22,1.22,0,0,1,.46-.09h0A1.28,1.28,0,0,1,45.1,21.55Zm29.14.28a1.26,1.26,0,0,1,.62,1.68h0a1.29,1.29,0,0,1-1.69.62h0a1.26,1.26,0,0,1-.62-1.68h0a1.28,1.28,0,0,1,1.16-.74h0A1.24,1.24,0,0,1,74.24,21.83ZM40.4,23.54a1.28,1.28,0,0,1-.49,1.73h0a1.28,1.28,0,0,1-1.73-.5h0A1.27,1.27,0,0,1,38.62,23l.06,0h0a1.21,1.21,0,0,1,.61-.16h0A1.27,1.27,0,0,1,40.4,23.54Zm38.46.82a1.28,1.28,0,0,1,.4,1.75h0a1.28,1.28,0,0,1-1.76.39h0a1.26,1.26,0,0,1-.38-1.75h0a1.26,1.26,0,0,1,1.07-.59h0A1.26,1.26,0,0,1,78.86,24.36ZM36,26.14a1.27,1.27,0,0,1-.27,1.78h0A1.27,1.27,0,0,1,34,27.66h0a1.27,1.27,0,0,1,.27-1.78h0a1.27,1.27,0,0,1,.75-.25h0A1.29,1.29,0,0,1,36,26.14Zm47.09,1.35a1.27,1.27,0,0,1,.15,1.79h0a1.25,1.25,0,0,1-1.77.16h0a1.27,1.27,0,0,1-.16-1.79h0a1.29,1.29,0,0,1,1-.45h0a1.29,1.29,0,0,1,.82.3ZM32,29.31a1.29,1.29,0,0,1,0,1.8h0a1.27,1.27,0,0,1-1.8,0h0a1.27,1.27,0,0,1,0-1.8h0a1.25,1.25,0,0,1,.88-.36h0A1.26,1.26,0,0,1,32,29.31Zm54.9,1.84a1.28,1.28,0,0,1-.09,1.8h0a1.28,1.28,0,0,1-1.8-.09h0a1.28,1.28,0,0,1,.09-1.8h0a1.28,1.28,0,0,1,.85-.33h0A1.27,1.27,0,0,1,86.9,31.15ZM28.47,33a1.27,1.27,0,0,1,.22,1.78h0a1.28,1.28,0,0,1-1.79.21h0a1.28,1.28,0,0,1-.21-1.79h0a1.29,1.29,0,0,1,1-.48h0A1.19,1.19,0,0,1,28.47,33Zm61.7,2.3a1.28,1.28,0,0,1-.32,1.77h0a1.28,1.28,0,0,1-1.77-.32h0A1.27,1.27,0,0,1,88.4,35h0a1.23,1.23,0,0,1,.72-.23h0a1.28,1.28,0,0,1,1,.51ZM25.44,37.09a1.27,1.27,0,0,1,.44,1.74h0a1.26,1.26,0,0,1-1.72.46h0a1.28,1.28,0,0,1-.44-1.75h0a1.25,1.25,0,0,1,1.09-.62h0A1.25,1.25,0,0,1,25.44,37.09Zm67.42,2.72h0a1.27,1.27,0,0,1-.56,1.71h0A1.28,1.28,0,0,1,90.59,41h0a1.27,1.27,0,0,1,.56-1.71h0a1.26,1.26,0,0,1,.57-.14h0A1.27,1.27,0,0,1,92.86,39.81ZM23,41.56a1.28,1.28,0,0,1,.68,1.67h0a1.28,1.28,0,0,1-1.67.68h0a1.28,1.28,0,0,1-.68-1.67h0a1.29,1.29,0,0,1,1.18-.78h0A1.16,1.16,0,0,1,23,41.56Zm72,3.1a1.28,1.28,0,0,1-.78,1.62h0a1.28,1.28,0,0,1-1.62-.78h0a1.29,1.29,0,0,1,.78-1.63h0a1.54,1.54,0,0,1,.42-.07h0a1.28,1.28,0,0,1,1.14.86ZM21.15,46.33A1.27,1.27,0,0,1,22,47.89h0a1.27,1.27,0,0,1-1.54.9h0a1.27,1.27,0,0,1-.9-1.55h0a1.28,1.28,0,0,1,1.23-.94h0A1.58,1.58,0,0,1,21.15,46.33Zm75.17,3.41h0a1.27,1.27,0,0,1-1,1.5h0a1.26,1.26,0,0,1-1.49-1v0h0a1.27,1.27,0,0,1,1-1.5h0a1.13,1.13,0,0,1,.26,0h0A1.28,1.28,0,0,1,96.32,49.74ZM20,51.29a1.27,1.27,0,0,1,1.09,1.43h0a1.26,1.26,0,0,1-1.41,1.09h0a1.27,1.27,0,0,1-1.09-1.42h0a1.28,1.28,0,0,1,1.26-1.1ZM97,55h0a1.27,1.27,0,0,1-1.17,1.36h0a1.28,1.28,0,0,1-1.36-1.19h0a1.28,1.28,0,0,1,1.19-1.35h.08A1.25,1.25,0,0,1,97,55ZM20.74,57.64h0A1.29,1.29,0,0,1,19.52,59h-.05a1.29,1.29,0,0,1-1.28-1.27h0a1.27,1.27,0,0,1,1.27-1.27h0A1.27,1.27,0,0,1,20.74,57.64Zm75.1,1.24A1.27,1.27,0,0,1,97,60.23h0a1.28,1.28,0,0,1-1.35,1.19h0a1.27,1.27,0,0,1-1.19-1.34h0a1.26,1.26,0,0,1,1.27-1.19h.11ZM21.07,62.64h0A1.26,1.26,0,0,1,20,64.07h0A1.27,1.27,0,0,1,18.55,63h0a1.29,1.29,0,0,1,1.09-1.43h.18A1.26,1.26,0,0,1,21.07,62.64ZM95.34,64a1.26,1.26,0,0,1,1,1.49h0a1.27,1.27,0,0,1-1.5,1h0a1.26,1.26,0,0,1-1-1.49h0a1.27,1.27,0,0,1,1.25-1h.25ZM22.06,67.47A1.26,1.26,0,0,1,21.17,69h0a1.26,1.26,0,0,1-1.56-.87h0a1.27,1.27,0,0,1,.88-1.57h0a1,1,0,0,1,.34,0h0A1.27,1.27,0,0,1,22.06,67.47Zm72.11,1.46A1.27,1.27,0,0,1,95,70.52v0h0a1.28,1.28,0,0,1-1.62.78h0a1.28,1.28,0,0,1-.78-1.62h0a1.27,1.27,0,0,1,1.2-.85h0A1.16,1.16,0,0,1,94.17,68.93ZM23.69,72.12A1.28,1.28,0,0,1,23,73.79h0a1.25,1.25,0,0,1-1.65-.64v0h0A1.27,1.27,0,0,1,22,71.45h0a1.24,1.24,0,0,1,.5-.1h0A1.28,1.28,0,0,1,23.69,72.12Zm68.64,1.57a1.26,1.26,0,0,1,.57,1.7h0a1.28,1.28,0,0,1-1.71.57h0a1.27,1.27,0,0,1-.56-1.71h0a1.26,1.26,0,0,1,1.13-.71h0A1.26,1.26,0,0,1,92.33,73.69ZM25.92,76.51a1.28,1.28,0,0,1-.44,1.75h0a1.28,1.28,0,0,1-1.75-.44h0a1.27,1.27,0,0,1,.44-1.74h0a1.25,1.25,0,0,1,.65-.18h0A1.28,1.28,0,0,1,25.92,76.51Zm64,1.66a1.26,1.26,0,0,1,.33,1.76h0a1.26,1.26,0,0,1-1.76.33h0a1.28,1.28,0,0,1-.33-1.77h0a1.27,1.27,0,0,1,1-.5h0a1.25,1.25,0,0,1,.71.17Zm-61.16,2.4a1.26,1.26,0,0,1-.19,1.77l0,0h0a1.26,1.26,0,0,1-1.77-.2h0A1.28,1.28,0,0,1,27,80.36h0a1.32,1.32,0,0,1,.79-.27h0a1.24,1.24,0,0,1,1,.48ZM86.9,82.28a1.28,1.28,0,0,1,.09,1.8h0a1.28,1.28,0,0,1-1.8.09h0a1.28,1.28,0,0,1-.09-1.8h0A1.26,1.26,0,0,1,86,82h0a1.33,1.33,0,0,1,.86.28ZM32,84.22A1.29,1.29,0,0,1,32,86h0a1.27,1.27,0,0,1-1.8,0h0a1.27,1.27,0,0,1,0-1.8h0a1.26,1.26,0,0,1,.91-.39h0A1.28,1.28,0,0,1,32,84.22ZM83.31,86a1.27,1.27,0,0,1-.14,1.79h0a1.28,1.28,0,0,1-1.8-.14h0a1.28,1.28,0,0,1,.15-1.8h0a1.29,1.29,0,0,1,.82-.3h0A1.26,1.26,0,0,1,83.31,86ZM35.8,87.4h0a1.28,1.28,0,0,1,.28,1.78h0a1.27,1.27,0,0,1-1.78.27h0a1.28,1.28,0,0,1-.3-1.78h0a1.26,1.26,0,0,1,1-.52h0A1.27,1.27,0,0,1,35.8,87.4Zm43.52,1.72a1.28,1.28,0,0,1-.39,1.76h0a1.26,1.26,0,0,1-1.75-.38h0a1.28,1.28,0,0,1,.39-1.76h0a1.26,1.26,0,0,1,.68-.2h0A1.28,1.28,0,0,1,79.32,89.12ZM40,90.05a1.27,1.27,0,0,1,.52,1.72h0a1.28,1.28,0,0,1-1.73.5h0a1.28,1.28,0,0,1-.5-1.72h0a1.26,1.26,0,0,1,1.11-.67h0A1.21,1.21,0,0,1,40,90.05Zm35,1.68a1.27,1.27,0,0,1-.61,1.69h0a1.28,1.28,0,0,1-1.7-.62h0a1.29,1.29,0,0,1,.62-1.69h0a1.25,1.25,0,0,1,.54-.12h0a1.24,1.24,0,0,1,1.08.74Zm-30.49.39a1.26,1.26,0,0,1,.73,1.64h0a1.28,1.28,0,0,1-1.64.73h0a1.26,1.26,0,0,1-.73-1.64h0A1.26,1.26,0,0,1,44,92h0a1.16,1.16,0,0,1,.44.12Zm25.8,1.61a1.27,1.27,0,0,1-.84,1.59h0a1.27,1.27,0,0,1-1.59-.83h0a1.28,1.28,0,0,1,.82-1.6h0a1.21,1.21,0,0,1,.38,0h0a1.26,1.26,0,0,1,1.15.84Zm-21.09-.16a1.27,1.27,0,0,1,1,1.49v0h0a1.27,1.27,0,0,1-1.49,1h0a1.29,1.29,0,0,1-1-1.51v0h0a1.27,1.27,0,0,1,1.24-1h.29Zm16.17,1.51a1.28,1.28,0,0,1-1,1.47h0a1.27,1.27,0,0,1-1.47-1h0a1.27,1.27,0,0,1,1-1.47h0a.81.81,0,0,1,.22,0h0a1.28,1.28,0,0,1,1.18,1ZM54,94.38a1.27,1.27,0,0,1,1.14,1.39h0a1.27,1.27,0,0,1-1.39,1.14h0a1.27,1.27,0,0,1-1.14-1.39h0a1.26,1.26,0,0,1,1.26-1.15H54Zm6.24,1.38A1.28,1.28,0,0,1,59,97.08h0a1.27,1.27,0,0,1-1.31-1.23h0a1.27,1.27,0,0,1,1.22-1.32H59a1.28,1.28,0,0,1,1.26,1.23Z" transform="translate(0 0)"/><path d="M59.15,12.13a1.47,1.47,0,0,1,1.42,1.52h0a1.46,1.46,0,0,1-1.5,1.42h0a1.46,1.46,0,0,1-1.42-1.5h0a1.46,1.46,0,0,1,1.47-1.43h0Zm-4.46,1.52a1.47,1.47,0,0,1-1.32,1.61h0A1.47,1.47,0,0,1,51.76,14h0a1.47,1.47,0,0,1,1.32-1.61h.15A1.48,1.48,0,0,1,54.69,13.65Zm10.51-.92a1.48,1.48,0,0,1,1.21,1.69h0a1.45,1.45,0,0,1-1.67,1.21h0a1.47,1.47,0,0,1-1.21-1.69h0A1.48,1.48,0,0,1,65,12.71h0Zm-16.35,1.7a1.47,1.47,0,0,1-1.07,1.77h0A1.47,1.47,0,0,1,46,15.12h0a1.47,1.47,0,0,1,1.09-1.77h.34A1.47,1.47,0,0,1,48.85,14.43Zm22.27-.3a1.48,1.48,0,0,1,1,1.84h0a1.47,1.47,0,0,1-1.82,1h0a1.47,1.47,0,0,1-1-1.82v0h0a1.49,1.49,0,0,1,1.41-1h0A1.55,1.55,0,0,1,71.12,14.13ZM43.17,16a1.47,1.47,0,0,1-.84,1.9h0a1.47,1.47,0,0,1-1.9-.84h0a1.47,1.47,0,0,1,.84-1.9h0a1.39,1.39,0,0,1,.53-.1h0A1.46,1.46,0,0,1,43.17,16Zm33.63.33a1.45,1.45,0,0,1,.72,1.92v0h0A1.45,1.45,0,0,1,75.6,19l-.09,0h0a1.47,1.47,0,0,1-.67-2v0h0a1.46,1.46,0,0,1,1.33-.85h0a1.47,1.47,0,0,1,.62.17Zm-39,2a1.48,1.48,0,0,1-.58,2h0a1.48,1.48,0,0,1-2-.58h0a1.48,1.48,0,0,1,.58-2h0a1.47,1.47,0,0,1,.71-.18h0a1.49,1.49,0,0,1,1.25.72Zm44.37,1a1.46,1.46,0,0,1,.45,2h0a1.48,1.48,0,0,1-2,.45h0a1.47,1.47,0,0,1-.44-2h0A1.46,1.46,0,0,1,81.35,19h0a1.52,1.52,0,0,1,.78.24Zm-49.47,2a1.47,1.47,0,0,1-.31,2.05h0A1.47,1.47,0,0,1,30.34,23h0a1.46,1.46,0,0,1,.31-2h0a1.44,1.44,0,0,1,.87-.29h0A1.49,1.49,0,0,1,32.7,21.3ZM87,22.85a1.46,1.46,0,0,1,.18,2.06h0a1.45,1.45,0,0,1-2,.19l0,0h0A1.47,1.47,0,0,1,85,23h0a1.49,1.49,0,0,1,1.13-.52h0A1.42,1.42,0,0,1,87,22.85ZM28.08,25a1.48,1.48,0,0,1,0,2.08h0A1.47,1.47,0,0,1,26,27h0a1.47,1.47,0,0,1,0-2.07h0a1.51,1.51,0,0,1,1-.42h0A1.44,1.44,0,0,1,28.08,25ZM91.4,27.07a1.47,1.47,0,0,1-.1,2.08h0a1.47,1.47,0,0,1-2.07-.1h0a1.47,1.47,0,0,1,.1-2.08h0a1.47,1.47,0,0,1,1-.38h0A1.45,1.45,0,0,1,91.4,27.07ZM24,29.18a1.49,1.49,0,0,1,.24,2.07h0a1.47,1.47,0,0,1-2.06.24h0a1.48,1.48,0,0,1-.25-2.07h0a1.48,1.48,0,0,1,1.16-.55h0A1.49,1.49,0,0,1,24,29.18Zm71.19,2.66a1.45,1.45,0,0,1-.38,2h0a1.47,1.47,0,0,1-2-.37h0a1.48,1.48,0,0,1,.38-2h0A1.48,1.48,0,0,1,94,31.2h0a1.48,1.48,0,0,1,1.18.64Zm-74.7,2.08a1.47,1.47,0,0,1,.51,2h0a1.47,1.47,0,0,1-2,.51h0a1.47,1.47,0,0,1-.51-2h0a1.45,1.45,0,0,1,1.26-.72h0A1.38,1.38,0,0,1,20.49,33.92Zm77.79,3.14h0a1.48,1.48,0,0,1-.61,2h0a1.48,1.48,0,0,1-2-.64h0a1.47,1.47,0,0,1,.6-2l0,0h0a1.37,1.37,0,0,1,.66-.16h0A1.44,1.44,0,0,1,98.28,37.06Zm-80.62,2A1.46,1.46,0,0,1,18.44,41v0h0a1.44,1.44,0,0,1-1.89.79h0a1.47,1.47,0,0,1-.78-1.93h0A1.49,1.49,0,0,1,17.08,39h0a1.44,1.44,0,0,1,.58.09Zm83,3.57a1.47,1.47,0,0,1-.91,1.87h0a1.47,1.47,0,0,1-1.87-.9h0a1.47,1.47,0,0,1,.91-1.87h0a1.32,1.32,0,0,1,.48-.09h0a1.47,1.47,0,0,1,1.4,1ZM15.54,44.58a1.48,1.48,0,0,1,1,1.81h0a1.47,1.47,0,0,1-1.8,1h0a1.47,1.47,0,0,1-1-1.8h0a1.49,1.49,0,0,1,1.42-1.09h0A1.61,1.61,0,0,1,15.54,44.58Zm86.74,4a1.49,1.49,0,0,1-1.15,1.73h0a1.47,1.47,0,0,1-1.73-1.15h0a1.47,1.47,0,0,1,1.13-1.73h.31a1.47,1.47,0,0,1,1.44,1.1Zm-88.1,1.78A1.46,1.46,0,0,1,15.44,52h0a1.47,1.47,0,0,1-1.65,1.27h0a1.47,1.47,0,0,1-1.26-1.65h0A1.48,1.48,0,0,1,14,50.3h.2Zm88.91,4.24h0a1.47,1.47,0,0,1-1.37,1.56h0a1.45,1.45,0,0,1-1.56-1.33v0h0a1.47,1.47,0,0,1,1.36-1.57h.1a1.48,1.48,0,0,1,1.47,1.32Zm-88,3.09h0a1.47,1.47,0,0,1-1.43,1.51H13.6a1.46,1.46,0,0,1-1.47-1.45h0v-.05h0a1.47,1.47,0,0,1,1.47-1.47h0a1.48,1.48,0,0,1,1.47,1.42Zm86.65,1.43a1.46,1.46,0,0,1,1.37,1.54v0h0A1.47,1.47,0,0,1,101.53,62h0a1.47,1.47,0,0,1-1.37-1.56h0a1.47,1.47,0,0,1,1.47-1.37h.09ZM15.46,63.41h0a1.48,1.48,0,0,1-1.26,1.65h0a1.47,1.47,0,0,1-1.66-1.25h0a1.48,1.48,0,0,1,1.26-1.65H14A1.48,1.48,0,0,1,15.46,63.41Zm85.69,1.52a1.47,1.47,0,0,1,1.15,1.73h0a1.49,1.49,0,0,1-1.73,1.15h0a1.47,1.47,0,0,1-1.15-1.73h0a1.46,1.46,0,0,1,1.43-1.18h0A1.53,1.53,0,0,1,101.15,64.93ZM16.59,69a1.47,1.47,0,0,1-1,1.81h0a1.48,1.48,0,0,1-1.81-1h0a1.48,1.48,0,0,1,1-1.81h0a2.54,2.54,0,0,1,.39,0h0A1.45,1.45,0,0,1,16.59,69Zm83.2,1.68a1.46,1.46,0,0,1,.91,1.87h0a1.46,1.46,0,0,1-1.87.91h0a1.46,1.46,0,0,1-.91-1.87h0a1.46,1.46,0,0,1,1.39-1h0a1.59,1.59,0,0,1,.48.07ZM18.47,74.35a1.48,1.48,0,0,1-.77,1.93h0a1.49,1.49,0,0,1-1.93-.78h0a1.46,1.46,0,0,1,.77-1.93h0a1.43,1.43,0,0,1,.58-.11h0A1.46,1.46,0,0,1,18.47,74.35Zm79.21,1.81a1.49,1.49,0,0,1,.66,2h0a1.47,1.47,0,0,1-2,.67l0,0h0a1.46,1.46,0,0,1-.66-2l0,0h0A1.45,1.45,0,0,1,97,76h0A1.45,1.45,0,0,1,97.68,76.16ZM21.05,79.42a1.48,1.48,0,0,1-.51,2h0a1.48,1.48,0,0,1-2-.51h0a1.49,1.49,0,0,1,.51-2h0a1.53,1.53,0,0,1,.75-.2h0A1.46,1.46,0,0,1,21.05,79.42Zm73.8,1.9a1.48,1.48,0,0,1,.38,2.05h0a1.45,1.45,0,0,1-2,.38h0a1.45,1.45,0,0,1-.38-2h0A1.44,1.44,0,0,1,94,81.07h0A1.51,1.51,0,0,1,94.85,81.32ZM24.28,84.09h0A1.48,1.48,0,0,1,24,86.16h0a1.46,1.46,0,0,1-2-.24h0a1.45,1.45,0,0,1,.22-2h0a1.47,1.47,0,0,1,.92-.32h0A1.5,1.5,0,0,1,24.28,84.09Zm67.08,2a1.46,1.46,0,0,1,.11,2.06h0a1.47,1.47,0,0,1-2.07.11h0a1.48,1.48,0,0,1-.11-2.08h0a1.47,1.47,0,0,1,1.09-.48h0a1.44,1.44,0,0,1,1,.36ZM28.1,88.31a1.46,1.46,0,0,1,0,2.06h0a1.48,1.48,0,0,1-2.08,0h0a1.47,1.47,0,0,1,0-2.07h0a1.47,1.47,0,0,1,1.06-.45h0A1.46,1.46,0,0,1,28.1,88.31Zm59.17,2a1.48,1.48,0,0,1-.17,2.08h0A1.49,1.49,0,0,1,85,92.23v0h0a1.46,1.46,0,0,1,.16-2.07h0a1.46,1.46,0,0,1,1-.35h0a1.51,1.51,0,0,1,1.1.52ZM32.45,92a1.48,1.48,0,0,1,.32,2h0a1.48,1.48,0,0,1-2.06.31h0a1.46,1.46,0,0,1-.31-2h0a1.45,1.45,0,0,1,1.18-.6h0A1.44,1.44,0,0,1,32.45,92Zm50.2,2a1.46,1.46,0,0,1-.44,2h0a1.47,1.47,0,0,1-2-.44h0a1.48,1.48,0,0,1,.44-2h0a1.44,1.44,0,0,1,.8-.24h0A1.44,1.44,0,0,1,82.65,94Zm-45.4,1a1.47,1.47,0,0,1,.58,2h0a1.46,1.46,0,0,1-2,.59h0a1.46,1.46,0,0,1-.59-2v0h0a1.45,1.45,0,0,1,1.29-.77h0A1.48,1.48,0,0,1,37.25,95ZM77.6,97A1.47,1.47,0,0,1,77,99l-.06,0h0a1.46,1.46,0,0,1-2-.62l0-.09h0a1.46,1.46,0,0,1,.7-1.94h0a1.48,1.48,0,0,1,.62-.14h0A1.45,1.45,0,0,1,77.6,97Zm-35.18.45a1.47,1.47,0,0,1,.84,1.9h0a1.47,1.47,0,0,1-1.9.85h0a1.48,1.48,0,0,1-.84-1.9h0a1.47,1.47,0,0,1,1.37-1h0a1.63,1.63,0,0,1,.53.12Zm29.76,1.86a1.46,1.46,0,0,1-1,1.83h0a1.46,1.46,0,0,1-1.83-1v0h0a1.48,1.48,0,0,1,1-1.84h0a1.61,1.61,0,0,1,.44-.06h0a1.45,1.45,0,0,1,1.4,1ZM47.85,99.1a1.46,1.46,0,0,1,1.1,1.73v0h0a1.46,1.46,0,0,1-1.75,1.1h0a1.47,1.47,0,0,1-1.09-1.77h0a1.46,1.46,0,0,1,1.42-1.13h0A1.32,1.32,0,0,1,47.85,99.1Zm18.65,1.74a1.46,1.46,0,0,1-1.19,1.69h0a1.46,1.46,0,0,1-1.69-1.19h0a1.46,1.46,0,0,1,1.19-1.69h0a1,1,0,0,1,.25,0h0A1.49,1.49,0,0,1,66.5,100.84Zm-13-.81a1.47,1.47,0,0,1,1.31,1.6h0A1.46,1.46,0,0,1,53.22,103h0a1.46,1.46,0,0,1-1.32-1.59h0A1.47,1.47,0,0,1,53.32,100h.15Zm7.2,1.6a1.46,1.46,0,0,1-1.41,1.51h0a1.46,1.46,0,0,1-1.52-1.4h0a1.47,1.47,0,0,1,1.42-1.52h0a1.48,1.48,0,0,1,1.44,1.42Z" transform="translate(0 0)"/><path d="M59.36,6.07A1.67,1.67,0,0,1,61,7.77v0h0A1.67,1.67,0,0,1,59.27,9.4h0a1.67,1.67,0,0,1-1.61-1.72h0A1.67,1.67,0,0,1,59.3,6.07ZM54.3,7.79a1.66,1.66,0,0,1-1.48,1.82h0A1.66,1.66,0,0,1,51,8.12h0A1.67,1.67,0,0,1,52.47,6.3h.17A1.67,1.67,0,0,1,54.3,7.79Zm11.91-1A1.66,1.66,0,0,1,67.58,8.7h0A1.66,1.66,0,0,1,65.67,10h0A1.67,1.67,0,0,1,64.3,8.11h0a1.66,1.66,0,0,1,1.64-1.39h0a1.24,1.24,0,0,1,.27,0ZM47.68,8.68a1.66,1.66,0,0,1-1.23,2h0a1.67,1.67,0,0,1-2-1.23h0a1.67,1.67,0,0,1,1.24-2h0a1.74,1.74,0,0,1,.39,0h0A1.67,1.67,0,0,1,47.68,8.68Zm25.24-.35h0A1.68,1.68,0,0,1,74,10.42h0a1.66,1.66,0,0,1-2.07,1.1h0a1.68,1.68,0,0,1-1.1-2.09h0a1.66,1.66,0,0,1,1.59-1.17h0A1.79,1.79,0,0,1,72.92,8.33ZM41.25,10.44a1.66,1.66,0,0,1-1,2.14h0a1.67,1.67,0,0,1-2.15-.95h0a1.66,1.66,0,0,1,1-2.14h0a1.52,1.52,0,0,1,.59-.12h0A1.68,1.68,0,0,1,41.25,10.44Zm38.11.37A1.68,1.68,0,0,1,80.17,13h0a1.68,1.68,0,0,1-2.21.81h0a1.65,1.65,0,0,1-.81-2.2h0a1.65,1.65,0,0,1,1.51-1h0A1.72,1.72,0,0,1,79.36,10.81ZM35.11,13.05a1.67,1.67,0,0,1-.66,2.26h0a1.67,1.67,0,0,1-2.26-.66h0a1.67,1.67,0,0,1,.66-2.26h0a1.72,1.72,0,0,1,.8-.2h0A1.66,1.66,0,0,1,35.11,13.05ZM85.4,14.12a1.67,1.67,0,0,1,.52,2.29h0a1.67,1.67,0,0,1-2.29.52h0a1.65,1.65,0,0,1-.5-2.29h0a1.65,1.65,0,0,1,1.4-.77h0A1.65,1.65,0,0,1,85.4,14.12Zm-56,2.33a1.68,1.68,0,0,1-.4,2.33h0a1.65,1.65,0,0,1-2.32-.34h0A1.65,1.65,0,0,1,27,16.11h0a1.63,1.63,0,0,1,1-.32h0a1.66,1.66,0,0,1,1.36.67ZM91,18.21h0a1.67,1.67,0,0,1,.2,2.35h0a1.66,1.66,0,0,1-2.34.2h0a1.66,1.66,0,0,1-.21-2.34h0a1.68,1.68,0,0,1,1.27-.59h0A1.68,1.68,0,0,1,91,18.21ZM24.14,20.59a1.67,1.67,0,0,1,0,2.36h0a1.66,1.66,0,0,1-2.35,0h0a1.67,1.67,0,0,1,0-2.36h0a1.64,1.64,0,0,1,1.21-.5h0A1.64,1.64,0,0,1,24.14,20.59ZM95.91,23a1.66,1.66,0,0,1-.11,2.34h0a1.67,1.67,0,0,1-2.35-.1h0a1.68,1.68,0,0,1,.12-2.36h0a1.72,1.72,0,0,1,1.12-.43h0A1.64,1.64,0,0,1,95.91,23Zm-76.4,2.39a1.67,1.67,0,0,1,.27,2.34h0a1.67,1.67,0,0,1-2.34.27h0a1.67,1.67,0,0,1-.28-2.33h0A1.68,1.68,0,0,1,18.47,25h0A1.71,1.71,0,0,1,19.51,25.39Zm80.68,3a1.66,1.66,0,0,1-.43,2.31h0a1.65,1.65,0,0,1-2.31-.41h0A1.68,1.68,0,0,1,97.87,28h0a1.69,1.69,0,0,1,.95-.29h0a1.69,1.69,0,0,1,1.37.69ZM15.54,30.76A1.66,1.66,0,0,1,16.12,33h0a1.67,1.67,0,0,1-2.28.59h0a1.67,1.67,0,0,1-.58-2.29h0a1.67,1.67,0,0,1,1.43-.81h0A1.61,1.61,0,0,1,15.54,30.76Zm88.17,3.56a1.67,1.67,0,0,1-.73,2.24h0a1.67,1.67,0,0,1-2.24-.73h0a1.65,1.65,0,0,1,.72-2.23h0a1.63,1.63,0,0,1,.75-.18h0A1.67,1.67,0,0,1,103.71,34.32ZM12.33,36.61a1.67,1.67,0,0,1,.88,2.19h0a1.67,1.67,0,0,1-2.18.88h0a1.66,1.66,0,0,1-.88-2.18h0a1.68,1.68,0,0,1,1.54-1h0A2,2,0,0,1,12.33,36.61Zm94.08,4a1.67,1.67,0,0,1-1,2.12h0a1.67,1.67,0,0,1-2.12-1h0a1.67,1.67,0,0,1,1-2.12h0a1.66,1.66,0,0,1,.54-.1h0a1.69,1.69,0,0,1,1.58,1.15ZM9.93,42.85a1.66,1.66,0,0,1,1.17,2h0A1.67,1.67,0,0,1,9.1,46h0a1.66,1.66,0,0,1-1.21-2h0a1.65,1.65,0,0,1,1.6-1.22h0A1.62,1.62,0,0,1,9.93,42.85Zm98.3,4.46a1.67,1.67,0,0,1-1.25,2h0A1.66,1.66,0,0,1,105,48h0a1.67,1.67,0,0,1,1.27-2h.36A1.66,1.66,0,0,1,108.23,47.31Zm-99.84,2a1.67,1.67,0,0,1,1.43,1.87h0A1.67,1.67,0,0,1,8,52.64H8a1.67,1.67,0,0,1-1.43-1.87h0a1.66,1.66,0,0,1,1.65-1.45h.17Zm100.76,4.8a1.66,1.66,0,0,1-1.54,1.77h0a1.66,1.66,0,0,1-1.77-1.54h0a1.66,1.66,0,0,1,1.54-1.77h.12a1.65,1.65,0,0,1,1.66,1.58ZM9.4,57.64h0v.06h0a1.67,1.67,0,0,1-1.67,1.67h0a1.66,1.66,0,0,1-1.67-1.65h0v-.06h0A1.66,1.66,0,0,1,7.73,56h0A1.66,1.66,0,0,1,9.4,57.64Zm98.2,1.62A1.67,1.67,0,0,1,109.16,61h0a1.66,1.66,0,0,1-1.76,1.55h0a1.65,1.65,0,0,1-1.55-1.74v0h0a1.65,1.65,0,0,1,1.65-1.56h.11ZM9.83,64.18h0a1.66,1.66,0,0,1-1.4,1.87h0a1.68,1.68,0,0,1-1.88-1.43h0A1.67,1.67,0,0,1,8,62.75h.25A1.66,1.66,0,0,1,9.83,64.18ZM107,65.9a1.66,1.66,0,0,1,1.31,1.95v.05h0a1.66,1.66,0,0,1-2,1.31h0a1.66,1.66,0,0,1-1.31-2v0h0a1.67,1.67,0,0,1,1.63-1.33h0A2.31,2.31,0,0,1,107,65.9ZM11.12,70.49A1.67,1.67,0,0,1,10,72.54h0a1.68,1.68,0,0,1-2-1.16H8a1.67,1.67,0,0,1,1.17-2h0a1.61,1.61,0,0,1,.44-.06h0A1.66,1.66,0,0,1,11.12,70.49Zm94.3,1.91a1.67,1.67,0,0,1,1,2.12h0a1.66,1.66,0,0,1-2.11,1h0a1.67,1.67,0,0,1-1-2.12h0a1.66,1.66,0,0,1,1.57-1.12h0A1.63,1.63,0,0,1,105.42,72.4ZM13.25,76.58a1.66,1.66,0,0,1-.88,2.18h0a1.66,1.66,0,0,1-2.18-.88h0a1.66,1.66,0,0,1,.87-2.18h0a1.65,1.65,0,0,1,.66-.13h0A1.65,1.65,0,0,1,13.25,76.58Zm89.77,2a1.68,1.68,0,0,1,.74,2.24h0a1.66,1.66,0,0,1-2.23.74h0a1.66,1.66,0,0,1-.74-2.23h0a1.67,1.67,0,0,1,1.49-.92h0a1.69,1.69,0,0,1,.73.23ZM16.17,82.32h0a1.67,1.67,0,0,1-.57,2.28h0A1.65,1.65,0,0,1,13.32,84h0a1.67,1.67,0,0,1,.57-2.28h0a1.69,1.69,0,0,1,.85-.23h0A1.66,1.66,0,0,1,16.17,82.32Zm83.64,2.16a1.67,1.67,0,0,1,.43,2.32h0a1.66,1.66,0,0,1-2.31.43h0a1.66,1.66,0,0,1-.43-2.31h0a1.65,1.65,0,0,1,1.37-.73h0A1.66,1.66,0,0,1,99.81,84.48Zm-80,3.14A1.67,1.67,0,0,1,19.59,90l0,0h0a1.67,1.67,0,0,1-2.34-.27h0a1.67,1.67,0,0,1,.27-2.34h0a1.68,1.68,0,0,1,1-.36h0a1.68,1.68,0,0,1,1.34.59Zm76,2.24A1.66,1.66,0,0,1,96,92.2h0a1.66,1.66,0,0,1-2.34.13h0A1.65,1.65,0,0,1,93.51,90h0a1.64,1.64,0,0,1,1.23-.55h0a1.63,1.63,0,0,1,1.11.41ZM24.16,92.4a1.65,1.65,0,0,1,.07,2.33l0,0h0a1.66,1.66,0,0,1-2.35,0h0a1.65,1.65,0,0,1-.07-2.33l0,0h0a1.71,1.71,0,0,1,1.2-.51h0A1.61,1.61,0,0,1,24.16,92.4Zm67.06,2.26A1.67,1.67,0,0,1,91,97h0a1.68,1.68,0,0,1-2.35-.19h0a1.67,1.67,0,0,1,.2-2.35h0a1.63,1.63,0,0,1,1.07-.4h0A1.64,1.64,0,0,1,91.22,94.66ZM29.1,96.55a1.66,1.66,0,0,1,.36,2.32h0a1.67,1.67,0,0,1-2.33.36h0a1.66,1.66,0,0,1-.36-2.32h0a1.65,1.65,0,0,1,1.34-.68h0A1.69,1.69,0,0,1,29.1,96.55ZM86,98.8a1.66,1.66,0,0,1-.49,2.3h0a1.66,1.66,0,0,1-2.3-.49h0a1.67,1.67,0,0,1,.5-2.3h0a1.68,1.68,0,0,1,.9-.26h0A1.68,1.68,0,0,1,86,98.8ZM34.53,100a1.65,1.65,0,0,1,.67,2.23v0h0a1.66,1.66,0,0,1-2.24.67h0a1.67,1.67,0,0,1-.67-2.26h0a1.69,1.69,0,0,1,1.47-.86h0A1.66,1.66,0,0,1,34.53,100Zm45.73,2.19a1.67,1.67,0,0,1-.8,2.22h0a1.66,1.66,0,0,1-2.2-.78v0h0a1.66,1.66,0,0,1,.8-2.21h0a1.56,1.56,0,0,1,.7-.16h0a1.67,1.67,0,0,1,1.51,1Zm-39.87.52a1.66,1.66,0,0,1,1,2.14h0a1.66,1.66,0,0,1-2.14,1h0a1.68,1.68,0,0,1-1-2.15h0a1.67,1.67,0,0,1,1.56-1.07h0a1.49,1.49,0,0,1,.59.09Zm33.73,2.1a1.66,1.66,0,0,1-1.06,2.09l-.06,0h0a1.66,1.66,0,0,1-2.08-1.09h0A1.65,1.65,0,0,1,72,103.74h0a1.62,1.62,0,0,1,.49-.08h0a1.67,1.67,0,0,1,1.63,1.17Zm-27.57-.2a1.66,1.66,0,0,1,1.24,2h0a1.67,1.67,0,0,1-2,1.24h0a1.66,1.66,0,0,1-1.24-2h0a1.66,1.66,0,0,1,1.62-1.29h0a1.59,1.59,0,0,1,.38.07Zm21.14,2a1.68,1.68,0,0,1-1.36,1.92h0a1.67,1.67,0,0,1-1.92-1.37h0a1.65,1.65,0,0,1,1.34-1.91h0a1.31,1.31,0,0,1,.28,0h0a1.67,1.67,0,0,1,1.64,1.35Zm-14.78-.92a1.68,1.68,0,0,1,1.5,1.82h0a1.69,1.69,0,0,1-1.82,1.5h0a1.66,1.66,0,0,1-1.5-1.82h0a1.69,1.69,0,0,1,1.66-1.51h.16Zm8.17,1.81a1.67,1.67,0,0,1-1.61,1.72h0a1.67,1.67,0,0,1-1.72-1.61h0a1.66,1.66,0,0,1,1.61-1.71h0a1.67,1.67,0,0,1,1.72,1.59Z" transform="translate(0 0)"/><path d="M59.56,0a1.85,1.85,0,0,1,1.8,1.9v0h0a1.86,1.86,0,0,1-1.92,1.8h0a1.86,1.86,0,0,1-1.8-1.92h0A1.86,1.86,0,0,1,59.5,0ZM53.91,1.92a1.86,1.86,0,0,1-1.67,2h0a1.87,1.87,0,0,1-2-1.67h0a1.86,1.86,0,0,1,1.67-2h.19A1.86,1.86,0,0,1,53.91,1.92ZM67.23.76A1.86,1.86,0,0,1,68.76,2.9h0a1.87,1.87,0,0,1-2.15,1.53h0a1.86,1.86,0,0,1-1.52-2.14h0A1.86,1.86,0,0,1,66.92.73h0ZM46.51,2.91a1.87,1.87,0,0,1-1.37,2.25h0a1.88,1.88,0,0,1-2.25-1.39h0a1.87,1.87,0,0,1,1.39-2.24h0a1.54,1.54,0,0,1,.43-.06h0A1.86,1.86,0,0,1,46.51,2.91Zm28.21-.38A1.85,1.85,0,0,1,76,4.8l0,.06h0a1.86,1.86,0,0,1-2.32,1.23h0a1.86,1.86,0,0,1-1.28-2.3v0h0a1.85,1.85,0,0,1,1.77-1.31h0A2,2,0,0,1,74.72,2.53ZM39.32,4.88a1.87,1.87,0,0,1-1.06,2.41h0a1.87,1.87,0,0,1-2.41-1.07h0a1.85,1.85,0,0,1,1-2.39h0a1.7,1.7,0,0,1,.67-.13h0A1.84,1.84,0,0,1,39.32,4.88Zm42.6.42a1.86,1.86,0,0,1,.9,2.47h0a1.85,1.85,0,0,1-2.45.91h0a1.86,1.86,0,0,1-.9-2.47h0a1.88,1.88,0,0,1,1.69-1.07h0A1.89,1.89,0,0,1,81.92,5.3ZM32.46,7.8a1.86,1.86,0,0,1-.72,2.52h0a1.86,1.86,0,0,1-2.53-.73h0a1.87,1.87,0,0,1,.74-2.53h0a1.83,1.83,0,0,1,.89-.22h0A1.82,1.82,0,0,1,32.46,7.8ZM88.68,9a1.87,1.87,0,0,1,.56,2.57h0a1.86,1.86,0,0,1-2.57.57h0a1.87,1.87,0,0,1-.56-2.57h0a1.85,1.85,0,0,1,1.57-.86h0A1.88,1.88,0,0,1,88.68,9ZM26.05,11.61a1.85,1.85,0,0,1-.38,2.59h0a1.87,1.87,0,0,1-2.6-.39h0a1.88,1.88,0,0,1,.39-2.61h0a1.91,1.91,0,0,1,1.11-.36h0A1.84,1.84,0,0,1,26.05,11.61Zm68.83,2a1.87,1.87,0,0,1,.22,2.62h0a1.85,1.85,0,0,1-2.61.23h0a1.86,1.86,0,0,1-.23-2.62h0a1.88,1.88,0,0,1,1.43-.66h0a1.87,1.87,0,0,1,1.2.4ZM20.21,16.23a1.86,1.86,0,0,1-.05,2.63h0a1.85,1.85,0,0,1-2.62,0h0a1.87,1.87,0,0,1,0-2.63h0a1.82,1.82,0,0,1,1.29-.52h0A1.93,1.93,0,0,1,20.21,16.23Zm80.21,2.69a1.86,1.86,0,0,1-.13,2.63h0a1.86,1.86,0,0,1-2.63-.13h0a1.86,1.86,0,0,1,.13-2.63h0A1.86,1.86,0,0,1,99,18.31h0A1.86,1.86,0,0,1,100.42,18.92ZM15,21.6a1.86,1.86,0,0,1,.31,2.61h0a1.87,1.87,0,0,1-2.62.3h0a1.86,1.86,0,0,1-.3-2.61h0a1.85,1.85,0,0,1,1.46-.71h0A1.86,1.86,0,0,1,15,21.6ZM105.2,25h0a1.86,1.86,0,0,1-.48,2.59h0a1.86,1.86,0,0,1-2.59-.48h0a1.86,1.86,0,0,1,.48-2.59h0a1.86,1.86,0,0,1,1-.33h0A1.9,1.9,0,0,1,105.2,25ZM10.59,27.6a1.85,1.85,0,0,1,.66,2.53v0h0a1.87,1.87,0,0,1-2.55.65h0a1.86,1.86,0,0,1-.64-2.55h0a1.82,1.82,0,0,1,1.6-.91h0A1.82,1.82,0,0,1,10.59,27.6Zm98.54,4a1.86,1.86,0,0,1-.82,2.5h0a1.86,1.86,0,0,1-2.5-.82h0a1.86,1.86,0,0,1,.82-2.5h0a1.89,1.89,0,0,1,.84-.2h0a1.84,1.84,0,0,1,1.66,1ZM7,34.14a1.85,1.85,0,0,1,1,2.43H8a1.84,1.84,0,0,1-2.41,1h0a1.86,1.86,0,0,1-1-2.42h0A1.88,1.88,0,0,1,6.28,34h0A2,2,0,0,1,7,34.14Zm105.15,4.53h0A1.87,1.87,0,0,1,111,41h0a1.86,1.86,0,0,1-2.37-1.14h0a1.87,1.87,0,0,1,1.15-2.37h0a1.81,1.81,0,0,1,.61-.1h0A1.87,1.87,0,0,1,112.15,38.67ZM4.32,41.1a1.87,1.87,0,0,1,1.31,2.29h0a1.86,1.86,0,0,1-2.29,1.3h0A1.85,1.85,0,0,1,2,42.45v0H2A1.85,1.85,0,0,1,3.83,41h0A2,2,0,0,1,4.32,41.1Zm109.87,5a1.87,1.87,0,0,1-1.46,2.2h0a1.87,1.87,0,0,1-2.19-1.46h0a1.87,1.87,0,0,1,1.46-2.2h.38a1.87,1.87,0,0,1,1.81,1.45ZM2.6,48.36a1.87,1.87,0,0,1,1.6,2.09h0a1.87,1.87,0,0,1-2.09,1.6h0a1.87,1.87,0,0,1-1.6-2h0a1.86,1.86,0,0,1,1.84-1.62h0Zm112.61,5.37a1.87,1.87,0,0,1-1.71,2h0a1.87,1.87,0,0,1-2-1.73h0a1.87,1.87,0,0,1,1.71-2h.15A1.85,1.85,0,0,1,115.21,53.73ZM3.72,57.64v.06h0v.06h0a1.87,1.87,0,0,1-1.85,1.86h0A1.87,1.87,0,0,1,0,57.76H0V57.7H0v-.06H0a1.86,1.86,0,0,1,1.86-1.86h0a1.86,1.86,0,0,1,1.86,1.86Zm109.77,1.81a1.84,1.84,0,0,1,1.73,2v0h0a1.85,1.85,0,0,1-2,1.74h0a1.85,1.85,0,0,1-1.74-1.95v-.05h0a1.85,1.85,0,0,1,1.85-1.74h.16ZM4.21,65a1.85,1.85,0,0,1-1.59,2h0A1.85,1.85,0,0,1,.53,65.45h0a1.86,1.86,0,0,1,1.58-2.1h.26A1.85,1.85,0,0,1,4.21,65Zm108.55,1.92a1.87,1.87,0,0,1,1.45,2.19h0A1.85,1.85,0,0,1,112,70.52h0a1.87,1.87,0,0,1-1.46-2.19h0a1.87,1.87,0,0,1,1.83-1.5h0a1.72,1.72,0,0,1,.39,0ZM5.65,72a1.86,1.86,0,0,1-1.27,2.29h0A1.86,1.86,0,0,1,2.07,73h0a1.87,1.87,0,0,1,1.3-2.29h0a2,2,0,0,1,.49-.06h0A1.85,1.85,0,0,1,5.65,72ZM111,74.13a1.85,1.85,0,0,1,1.15,2.36h0a1.87,1.87,0,0,1-2.37,1.15h0a1.87,1.87,0,0,1-1.15-2.37h0a1.88,1.88,0,0,1,1.8-1.28h0A1.82,1.82,0,0,1,111,74.13ZM8,78.8a1.86,1.86,0,0,1-1,2.44H7a1.86,1.86,0,0,1-2.44-1h0a1.86,1.86,0,0,1,1-2.44h0a1.83,1.83,0,0,1,.73-.15h0A1.85,1.85,0,0,1,8,78.8Zm100.33,2.3a1.86,1.86,0,0,1,.83,2.5h0a1.87,1.87,0,0,1-2.5.82h0a1.86,1.86,0,0,1-.83-2.5h0a1.85,1.85,0,0,1,1.67-1h0a1.82,1.82,0,0,1,.86.18Zm-97,4.12a1.86,1.86,0,0,1-.64,2.55h0a1.86,1.86,0,0,1-2.55-.64h0a1.87,1.87,0,0,1,.64-2.56h0a2,2,0,0,1,1-.26h0A1.86,1.86,0,0,1,11.29,85.22Zm93.49,2.42a1.86,1.86,0,0,1,.48,2.59h0a1.86,1.86,0,0,1-2.59.48h0a1.87,1.87,0,0,1-.48-2.59h0a1.89,1.89,0,0,1,1.54-.8h0A1.88,1.88,0,0,1,104.78,87.64ZM15.39,91.15a1.86,1.86,0,0,1-.3,2.61h0a1.86,1.86,0,0,1-2.61-.29h0a1.86,1.86,0,0,1,.3-2.61h0a1.88,1.88,0,0,1,1.16-.4h0A1.88,1.88,0,0,1,15.39,91.15Zm85,2.5a1.86,1.86,0,0,1,.13,2.63h0a1.86,1.86,0,0,1-2.63.13h0a1.86,1.86,0,0,1-.13-2.63h0a1.86,1.86,0,0,1,1.38-.61h0a1.91,1.91,0,0,1,1.22.48ZM20.23,96.48a1.86,1.86,0,0,1,.05,2.63h0a1.85,1.85,0,0,1-2.63,0h0a1.85,1.85,0,0,1,0-2.63h0A1.85,1.85,0,0,1,18.94,96h0A1.85,1.85,0,0,1,20.23,96.48Zm75,2.53a1.88,1.88,0,0,1-.22,2.63h0a1.87,1.87,0,0,1-2.62-.22h0a1.87,1.87,0,0,1,.21-2.62h0a1.86,1.86,0,0,1,1.21-.44h0a1.85,1.85,0,0,1,1.37.64Zm-69.44,2.12h0a1.87,1.87,0,0,1,.4,2.6h0a1.86,1.86,0,0,1-2.6.4h0a1.86,1.86,0,0,1-.4-2.6h0a1.86,1.86,0,0,1,1.5-.76h0a1.9,1.9,0,0,1,1,.36Zm63.59,2.52a1.85,1.85,0,0,1-.54,2.56h0a1.87,1.87,0,0,1-2.57-.56h0a1.87,1.87,0,0,1,.56-2.57h0a1.86,1.86,0,0,1,1-.3h0a1.82,1.82,0,0,1,1.52.86ZM31.82,105a1.87,1.87,0,0,1,.74,2.53h0a1.87,1.87,0,0,1-2.53.74h0a1.87,1.87,0,0,1-.74-2.53h0a1.88,1.88,0,0,1,1.64-1h0A1.88,1.88,0,0,1,31.82,105Zm51.11,2.46a1.86,1.86,0,0,1-.9,2.47h0a1.85,1.85,0,0,1-2.46-.88v0h0a1.83,1.83,0,0,1,.87-2.45l0,0h0a1.75,1.75,0,0,1,.78-.18h0A1.86,1.86,0,0,1,82.93,107.46ZM38.36,108a1.85,1.85,0,0,1,1.07,2.4h0a1.87,1.87,0,0,1-2.4,1.08h0a1.87,1.87,0,0,1-1-2.38h0a1.86,1.86,0,0,1,1.74-1.19h0A2.16,2.16,0,0,1,38.36,108Zm37.71,2.35a1.87,1.87,0,0,1-1.22,2.33h0a1.84,1.84,0,0,1-2.31-1.19v0h0a1.86,1.86,0,0,1,1.22-2.33h0a1.71,1.71,0,0,1,.55-.09h0a1.88,1.88,0,0,1,1.78,1.34Zm-30.82-.22a1.85,1.85,0,0,1,1.39,2.2v0h0a1.85,1.85,0,0,1-2.2,1.39h0a1.86,1.86,0,0,1-1.4-2.2h0a1.87,1.87,0,0,1,1.81-1.44h0a1.61,1.61,0,0,1,.44.06Zm23.63,2.2a1.86,1.86,0,0,1-1.53,2.14h0A1.86,1.86,0,0,1,65.21,113h0a1.86,1.86,0,0,1,1.52-2.15H67a1.87,1.87,0,0,1,1.84,1.51Zm-16.52-1a1.86,1.86,0,0,1,1.67,2h0A1.87,1.87,0,0,1,52,115h0a1.87,1.87,0,0,1-1.66-2h0a1.85,1.85,0,0,1,1.84-1.68h.18Zm9.13,2a1.87,1.87,0,0,1-1.8,1.93h0a1.86,1.86,0,0,1-1.92-1.8h0a1.87,1.87,0,0,1,1.79-1.92h.07a1.86,1.86,0,0,1,1.86,1.81Z" transform="translate(0 0)"/></g></svg>