<svg xmlns="http://www.w3.org/2000/svg" viewBox="0 0 90.29 59.26"><title>05</title><polygon points="35.61 59.24 27.78 46.01 28.64 45.5 35.61 57.28 43.51 43.91 44.37 44.42 35.61 59.24"/><polygon points="27.35 46.26 0 0 71.21 0 62.93 14.01 61.21 12.99 67.71 2 3.51 2 29.07 45.25 27.35 46.26"/><rect x="48.5" y="20.74" width="17.99" height="1" transform="matrix(0.51, -0.86, 0.86, 0.51, 9.94, 59.91)"/><path d="M43.94,44.67a.48.48,0,0,1-.26-.07.51.51,0,0,1-.17-.69l.25-.43a.5.5,0,0,1,.69-.17.49.49,0,0,1,.17.68l-.25.43A.5.5,0,0,1,43.94,44.67Z"/><path d="M45.19,42.55a.45.45,0,0,1-.25-.07.49.49,0,0,1-.18-.68l.5-.85a.5.5,0,0,1,.86.51l-.5.85A.51.51,0,0,1,45.19,42.55ZM46.68,40a.47.47,0,0,1-.25-.07.49.49,0,0,1-.18-.68l.5-.84a.51.51,0,0,1,.69-.18.51.51,0,0,1,.17.69l-.5.84A.49.49,0,0,1,46.68,40Zm1.5-2.52a.59.59,0,0,1-.26-.07.51.51,0,0,1-.17-.69l.5-.84a.49.49,0,0,1,.68-.18.51.51,0,0,1,.18.69l-.5.84A.5.5,0,0,1,48.18,37.5ZM49.67,35a.47.47,0,0,1-.25-.07.51.51,0,0,1-.18-.69l.5-.84a.5.5,0,1,1,.86.51l-.5.84A.5.5,0,0,1,49.67,35Zm1.5-2.53a.48.48,0,0,1-.26-.07.5.5,0,0,1-.17-.68l.5-.85a.5.5,0,0,1,.68-.17.49.49,0,0,1,.18.68l-.5.84A.51.51,0,0,1,51.17,32.44Z"/><path d="M52.66,29.91a.47.47,0,0,1-.25-.07.49.49,0,0,1-.18-.68l.26-.43a.49.49,0,0,1,.68-.18.51.51,0,0,1,.18.69l-.26.43A.51.51,0,0,1,52.66,29.91Z"/><path d="M36.42,32.39a.49.49,0,0,1-.43-.75l.25-.43a.5.5,0,1,1,.86.5l-.25.43A.51.51,0,0,1,36.42,32.39Z"/><path d="M37.66,30.28a.47.47,0,0,1-.25-.07.51.51,0,0,1-.18-.69l.5-.84a.5.5,0,0,1,.86.51L38.1,30A.51.51,0,0,1,37.66,30.28Zm1.5-2.53a.48.48,0,0,1-.26-.07.49.49,0,0,1-.17-.68l.49-.84a.5.5,0,1,1,.86.51l-.49.84A.5.5,0,0,1,39.16,27.75Zm1.49-2.52a.48.48,0,0,1-.26-.07.5.5,0,0,1-.17-.68l.49-.84a.51.51,0,0,1,.69-.18.5.5,0,0,1,.18.68l-.5.85A.51.51,0,0,1,40.65,25.23Zm1.49-2.52a.45.45,0,0,1-.25-.07.51.51,0,0,1-.18-.69l.5-.84a.48.48,0,0,1,.68-.17.49.49,0,0,1,.18.68l-.5.84A.5.5,0,0,1,42.14,22.71Z"/><path d="M43.63,20.18a.47.47,0,0,1-.25-.07.49.49,0,0,1-.18-.68l.26-.43a.49.49,0,0,1,.68-.18.51.51,0,0,1,.18.69l-.26.43A.49.49,0,0,1,43.63,20.18Z"/><rect x="24.26" y="38.32" width="16.11" height="1" transform="translate(-17.55 46.88) rotate(-59.4)"/><polygon points="90.29 59.26 19.07 59.26 27.36 45.25 29.08 46.27 22.58 57.26 86.78 57.26 61.21 14.01 62.93 12.99 90.29 59.26"/><polygon points="44.32 19.51 43.46 19 54.68 0.02 62.5 13.24 61.64 13.75 54.68 1.98 44.32 19.51"/></svg>