<svg xmlns="http://www.w3.org/2000/svg" viewBox="0 0 69.51 55.83"><title>07</title><polygon points="34.76 55.83 26.89 43.2 27.74 42.68 34.76 53.94 55.31 20.94 56.16 21.46 34.76 55.83"/><path d="M56.55,20.39a.51.51,0,0,1-.42-.77l.53-.85a.5.5,0,0,1,.68-.16.51.51,0,0,1,.17.69l-.53.85A.52.52,0,0,1,56.55,20.39Zm1.59-2.55a.54.54,0,0,1-.27-.07.51.51,0,0,1-.16-.69l.53-.85a.5.5,0,1,1,.85.53l-.53.85A.49.49,0,0,1,58.14,17.84Zm1.58-2.55a.48.48,0,0,1-.26-.07.5.5,0,0,1-.16-.69l.53-.85a.5.5,0,0,1,.85.53l-.53.85A.51.51,0,0,1,59.72,15.29Zm1.59-2.54a.51.51,0,0,1-.42-.77l.52-.85A.51.51,0,0,1,62.1,11a.49.49,0,0,1,.16.69l-.52.85A.52.52,0,0,1,61.31,12.75ZM62.9,10.2a.52.52,0,0,1-.27-.07.51.51,0,0,1-.16-.69L63,8.59a.49.49,0,0,1,.69-.16.5.5,0,0,1,.16.69l-.53.85A.49.49,0,0,1,62.9,10.2Z"/><polygon points="17.71 28.46 0 0.03 69.51 0.03 63.85 9.12 63 8.59 67.71 1.03 1.8 1.03 18.56 27.93 17.71 28.46"/><path d="M27.31,43.44a.49.49,0,0,1-.42-.23l-.53-.85a.51.51,0,0,1,.16-.69.49.49,0,0,1,.69.16l.53.85a.51.51,0,0,1-.16.69A.5.5,0,0,1,27.31,43.44Zm-1.58-2.55a.51.51,0,0,1-.43-.23l-.52-.85a.5.5,0,1,1,.84-.53l.53.85a.49.49,0,0,1-.16.69A.48.48,0,0,1,25.73,40.89Zm-1.59-2.54a.5.5,0,0,1-.42-.24l-.53-.85a.5.5,0,0,1,.16-.69.51.51,0,0,1,.69.16l.53.85a.51.51,0,0,1-.16.69A.56.56,0,0,1,24.14,38.35ZM22.56,35.8a.51.51,0,0,1-.43-.23l-.53-.85a.51.51,0,0,1,.16-.69.49.49,0,0,1,.69.16L23,35a.49.49,0,0,1-.16.69A.48.48,0,0,1,22.56,35.8ZM21,33.25a.48.48,0,0,1-.42-.23L20,32.17a.49.49,0,0,1,.16-.69.51.51,0,0,1,.69.16l.53.85a.51.51,0,0,1-.16.69A.54.54,0,0,1,21,33.25Zm-1.59-2.54a.48.48,0,0,1-.42-.24l-.53-.85a.5.5,0,0,1,.16-.68.49.49,0,0,1,.69.16l.53.84a.51.51,0,0,1-.43.77Z"/><rect x="10.82" y="0.13" width="2" height="5.23" transform="translate(0.33 6.67) rotate(-31.93)"/><path d="M21.42,18.66a.5.5,0,0,1-.43-.24l-.52-.84a.5.5,0,0,1,.85-.53l.52.85a.48.48,0,0,1-.16.68A.42.42,0,0,1,21.42,18.66Zm-1.59-2.55a.49.49,0,0,1-.42-.23L18.88,15a.5.5,0,0,1,.85-.53l.53.85a.51.51,0,0,1-.16.69A.54.54,0,0,1,19.83,16.11Zm-1.58-2.54a.52.52,0,0,1-.43-.24l-.53-.85a.5.5,0,0,1,.85-.53l.53.85a.51.51,0,0,1-.42.77ZM16.66,11a.49.49,0,0,1-.42-.23l-.53-.85a.5.5,0,0,1,.85-.53l.52.85a.49.49,0,0,1-.15.68A.47.47,0,0,1,16.66,11ZM15.08,8.47a.51.51,0,0,1-.43-.23l-.53-.85A.5.5,0,0,1,15,6.86l.53.85a.5.5,0,0,1-.16.69A.48.48,0,0,1,15.08,8.47ZM13.49,5.93a.49.49,0,0,1-.42-.24l-.29-.45a.5.5,0,1,1,.85-.53l.28.45a.51.51,0,0,1-.42.77Z"/><rect x="31.85" y="14.89" width="2" height="43.27" transform="matrix(0.85, -0.53, 0.53, 0.85, -14.34, 22.89)"/></svg>