<svg id="ae452663-7946-4e4b-a289-dabca7ef15b3" data-name="Layer 1" xmlns="http://www.w3.org/2000/svg" viewBox="0 0 124.63 124.67"><defs><style>.edafcf0c-d95c-4fe3-bff8-23344c333635{fill:none;stroke:#000;stroke-miterlimit:10;stroke-width:0.46px;}</style></defs><title>03u</title><g id="ba717085-9529-4689-9268-9f1ca3e961bb" data-name="shapes"><path class="edafcf0c-d95c-4fe3-bff8-23344c333635" d="M122,45c-.16-.57-.34-1.12-.51-1.68.15.61.3,1.23.44,1.85A.18.18,0,0,0,122,45Z" transform="translate(-0.02 0)"/><path class="edafcf0c-d95c-4fe3-bff8-23344c333635" d="M122.2,45.75,122,45a.19.19,0,0,1-.07.17C121.86,45.23,122.11,45.56,122.2,45.75Z" transform="translate(-0.02 0)"/><path class="edafcf0c-d95c-4fe3-bff8-23344c333635" d="M123.79,62.41c.24-.59.45-1.16.63-1.72a61.89,61.89,0,0,0-2.22-14.94c-.09-.19-.18-.38-.28-.57A78.06,78.06,0,0,1,123.79,62.41Z" transform="translate(-0.02 0)"/><path class="edafcf0c-d95c-4fe3-bff8-23344c333635" d="M124.42,64.11V60.69c-.18.56-.39,1.13-.63,1.72C124,63,124.24,63.55,124.42,64.11Z" transform="translate(-0.02 0)"/><path class="edafcf0c-d95c-4fe3-bff8-23344c333635" d="M121.88,79.61c.1-.2.2-.4.29-.6a62.1,62.1,0,0,0,2.25-14.9c-.18-.56-.39-1.12-.63-1.7A78.37,78.37,0,0,1,121.88,79.61Z" transform="translate(-0.02 0)"/><path class="edafcf0c-d95c-4fe3-bff8-23344c333635" d="M122,79.8c.08-.26.15-.53.22-.79-.09.2-.19.4-.29.6A1.46,1.46,0,0,1,122,79.8Z" transform="translate(-0.02 0)"/><path class="edafcf0c-d95c-4fe3-bff8-23344c333635" d="M121.41,81.54q.28-.87.54-1.74a1.46,1.46,0,0,0-.07-.19C121.73,80.26,121.58,80.9,121.41,81.54Z" transform="translate(-0.02 0)"/><path class="edafcf0c-d95c-4fe3-bff8-23344c333635" d="M107.16,19.35l-.4-.41.26.39Z" transform="translate(-0.02 0)"/><path class="edafcf0c-d95c-4fe3-bff8-23344c333635" d="M108.13,20.39l-1-1H107A7.11,7.11,0,0,1,108.13,20.39Z" transform="translate(-0.02 0)"/><path class="edafcf0c-d95c-4fe3-bff8-23344c333635" d="M113.28,33l2.86-1.66a61.56,61.56,0,0,0-8-10.91c-.36-.35-.73-.71-1.11-1.06A57.42,57.42,0,0,1,113.28,33Z" transform="translate(-0.02 0)"/><path class="edafcf0c-d95c-4fe3-bff8-23344c333635" d="M121.92,45.18c-.14-.62-.29-1.24-.44-1.85a61.94,61.94,0,0,0-5.34-12L113.28,33A57.49,57.49,0,0,1,121.92,45.18Z" transform="translate(-0.02 0)"/><path class="edafcf0c-d95c-4fe3-bff8-23344c333635" d="M121.92,45.18A57.49,57.49,0,0,0,113.28,33a90.39,90.39,0,0,1,3.83,18.91A25.39,25.39,0,0,0,121.92,45.18Z" transform="translate(-0.02 0)"/><path class="edafcf0c-d95c-4fe3-bff8-23344c333635" d="M123.79,62.41a78.06,78.06,0,0,0-1.87-17.23,25.26,25.26,0,0,1-4.81,6.69A42.84,42.84,0,0,1,123.79,62.41Z" transform="translate(-0.02 0)"/><path class="edafcf0c-d95c-4fe3-bff8-23344c333635" d="M117.08,73a43.13,43.13,0,0,0,6.71-10.57,42.84,42.84,0,0,0-6.68-10.54A106.37,106.37,0,0,1,117.08,73Z" transform="translate(-0.02 0)"/><path class="edafcf0c-d95c-4fe3-bff8-23344c333635" d="M121.88,79.61a78.37,78.37,0,0,0,1.91-17.2A43.06,43.06,0,0,1,117.08,73,25.21,25.21,0,0,1,121.88,79.61Z" transform="translate(-0.02 0)"/><path class="edafcf0c-d95c-4fe3-bff8-23344c333635" d="M113.22,91.84a58.51,58.51,0,0,0,8.66-12.23,24.92,24.92,0,0,0-4.8-6.63A89.86,89.86,0,0,1,113.22,91.84Z" transform="translate(-0.02 0)"/><path class="edafcf0c-d95c-4fe3-bff8-23344c333635" d="M113.22,91.84l2.86,1.64a61.38,61.38,0,0,0,5.33-11.94c.17-.64.32-1.28.47-1.93A58.51,58.51,0,0,1,113.22,91.84Z" transform="translate(-0.02 0)"/><path class="edafcf0c-d95c-4fe3-bff8-23344c333635" d="M107,105.4l1.26-1.2a62.1,62.1,0,0,0,7.87-10.72l-2.86-1.64A57.57,57.57,0,0,1,107,105.4Z" transform="translate(-0.02 0)"/><path class="edafcf0c-d95c-4fe3-bff8-23344c333635" d="M107.11,105.37c.37-.38.74-.78,1.1-1.17L107,105.4Z" transform="translate(-0.02 0)"/><path class="edafcf0c-d95c-4fe3-bff8-23344c333635" d="M106.64,105.86l.47-.49H107C106.84,105.56,106.74,105.7,106.64,105.86Z" transform="translate(-0.02 0)"/><path class="edafcf0c-d95c-4fe3-bff8-23344c333635" d="M94.79,9.38c-.94-.58-1.9-1.14-2.87-1.67.38.43.76.88,1.13,1.37C93.66,9.16,94.23,9.26,94.79,9.38Z" transform="translate(-0.02 0)"/><path class="edafcf0c-d95c-4fe3-bff8-23344c333635" d="M107,19.33l-.26-.39a62.19,62.19,0,0,0-12-9.56c-.56-.12-1.13-.22-1.74-.3A77.32,77.32,0,0,1,107,19.33Z" transform="translate(-0.02 0)"/><path class="edafcf0c-d95c-4fe3-bff8-23344c333635" d="M107,19.33A77.32,77.32,0,0,0,93,9.08a43.17,43.17,0,0,1,5.79,11.1A25.55,25.55,0,0,1,107,19.33Z" transform="translate(-0.02 0)"/><path class="edafcf0c-d95c-4fe3-bff8-23344c333635" d="M98.84,20.18A90.26,90.26,0,0,1,113.28,33,57.79,57.79,0,0,0,107,19.33,25.53,25.53,0,0,0,98.84,20.18Z" transform="translate(-0.02 0)"/><path class="edafcf0c-d95c-4fe3-bff8-23344c333635" d="M98.84,20.18a97.58,97.58,0,0,1,4.64,18.45l9.8-5.67A90.88,90.88,0,0,0,98.84,20.18Z" transform="translate(-0.02 0)"/><path class="edafcf0c-d95c-4fe3-bff8-23344c333635" d="M117.11,51.87A90.66,90.66,0,0,0,113.28,33l-9.8,5.67A97.76,97.76,0,0,1,117.11,51.87Z" transform="translate(-0.02 0)"/><path class="edafcf0c-d95c-4fe3-bff8-23344c333635" d="M117.11,51.87a97.48,97.48,0,0,0-13.63-13.24,149.56,149.56,0,0,1,1.81,23.82A104.93,104.93,0,0,0,117.11,51.87Z" transform="translate(-0.02 0)"/><path class="edafcf0c-d95c-4fe3-bff8-23344c333635" d="M105.29,62.45A104.37,104.37,0,0,1,117.08,73a106.37,106.37,0,0,0,0-21.11A105.44,105.44,0,0,1,105.29,62.45Z" transform="translate(-0.02 0)"/><path class="edafcf0c-d95c-4fe3-bff8-23344c333635" d="M105.29,62.45a150.36,150.36,0,0,1-1.85,23.78A96.94,96.94,0,0,0,117.08,73,104.37,104.37,0,0,0,105.29,62.45Z" transform="translate(-0.02 0)"/><path class="edafcf0c-d95c-4fe3-bff8-23344c333635" d="M103.44,86.23l9.78,5.61A89.68,89.68,0,0,0,117.08,73,96.94,96.94,0,0,1,103.44,86.23Z" transform="translate(-0.02 0)"/><path class="edafcf0c-d95c-4fe3-bff8-23344c333635" d="M98.78,104.6a91.25,91.25,0,0,0,14.44-12.76l-9.78-5.61A97,97,0,0,1,98.78,104.6Z" transform="translate(-0.02 0)"/><path class="edafcf0c-d95c-4fe3-bff8-23344c333635" d="M98.78,104.6a24.74,24.74,0,0,0,8.17.8,57.57,57.57,0,0,0,6.27-13.56A91.25,91.25,0,0,1,98.78,104.6Z" transform="translate(-0.02 0)"/><path class="edafcf0c-d95c-4fe3-bff8-23344c333635" d="M98.78,104.6a42.75,42.75,0,0,1-5.8,11,78,78,0,0,0,14-10.22A24.9,24.9,0,0,1,98.78,104.6Z" transform="translate(-0.02 0)"/><path class="edafcf0c-d95c-4fe3-bff8-23344c333635" d="M93,115.62c.63-.08,1.22-.19,1.79-.31a62.58,62.58,0,0,0,11.87-9.45c.1-.16.2-.3.31-.46A78.26,78.26,0,0,1,93,115.62Z" transform="translate(-0.02 0)"/><path class="edafcf0c-d95c-4fe3-bff8-23344c333635" d="M91.82,117c1-.54,2-1.11,3-1.7-.57.12-1.16.23-1.79.31C92.6,116.12,92.21,116.58,91.82,117Z" transform="translate(-0.02 0)"/><path class="edafcf0c-d95c-4fe3-bff8-23344c333635" d="M77.63,2.13,77.1,2a.39.39,0,0,1,.08.1Z" transform="translate(-0.02 0)"/><path class="edafcf0c-d95c-4fe3-bff8-23344c333635" d="M93.05,9.08c-.37-.49-.75-.94-1.13-1.37A61.55,61.55,0,0,0,77.63,2.13h-.45A78.07,78.07,0,0,1,93.05,9.08Z" transform="translate(-0.02 0)"/><path class="edafcf0c-d95c-4fe3-bff8-23344c333635" d="M93.05,9.08a78,78,0,0,0-15.87-7,25.53,25.53,0,0,1,3.37,7.51A43.31,43.31,0,0,1,93.05,9.08Z" transform="translate(-0.02 0)"/><path class="edafcf0c-d95c-4fe3-bff8-23344c333635" d="M80.55,9.61A108.39,108.39,0,0,1,98.84,20.18a43.17,43.17,0,0,0-5.79-11.1A43.31,43.31,0,0,0,80.55,9.61Z" transform="translate(-0.02 0)"/><path class="edafcf0c-d95c-4fe3-bff8-23344c333635" d="M98.84,20.18A108.39,108.39,0,0,0,80.55,9.61a106.79,106.79,0,0,1,3.23,15.53A104.89,104.89,0,0,1,98.84,20.18Z" transform="translate(-0.02 0)"/><path class="edafcf0c-d95c-4fe3-bff8-23344c333635" d="M103.48,38.63a97.58,97.58,0,0,0-4.64-18.45,103.83,103.83,0,0,0-15.06,5A152.53,152.53,0,0,1,103.48,38.63Z" transform="translate(-0.02 0)"/><path class="edafcf0c-d95c-4fe3-bff8-23344c333635" d="M85.86,48.82l17.62-10.19a152.13,152.13,0,0,0-19.7-13.49C84.79,32.23,85.49,40.2,85.86,48.82Z" transform="translate(-0.02 0)"/><path class="edafcf0c-d95c-4fe3-bff8-23344c333635" d="M105.29,62.45a149.56,149.56,0,0,0-1.81-23.82L85.86,48.82A232.63,232.63,0,0,1,105.29,62.45Z" transform="translate(-0.02 0)"/><path class="edafcf0c-d95c-4fe3-bff8-23344c333635" d="M85.85,76.09c7.28-4.63,13.82-9.22,19.44-13.64-5.62-4.42-12.15-9-19.43-13.63C86.25,57.86,86.24,67.06,85.85,76.09Z" transform="translate(-0.02 0)"/><path class="edafcf0c-d95c-4fe3-bff8-23344c333635" d="M85.85,76.09l17.59,10.14a150.36,150.36,0,0,0,1.85-23.78C99.67,66.87,93.13,71.46,85.85,76.09Z" transform="translate(-0.02 0)"/><path class="edafcf0c-d95c-4fe3-bff8-23344c333635" d="M83.75,99.7a150.89,150.89,0,0,0,19.69-13.47L85.85,76.09C85.47,84.7,84.77,92.64,83.75,99.7Z" transform="translate(-0.02 0)"/><path class="edafcf0c-d95c-4fe3-bff8-23344c333635" d="M98.78,104.6a97,97,0,0,0,4.66-18.37A150.89,150.89,0,0,1,83.75,99.7,101.86,101.86,0,0,0,98.78,104.6Z" transform="translate(-0.02 0)"/><path class="edafcf0c-d95c-4fe3-bff8-23344c333635" d="M80.51,115.13A107.34,107.34,0,0,0,98.78,104.6a102.68,102.68,0,0,1-15-4.9A104,104,0,0,1,80.51,115.13Z" transform="translate(-0.02 0)"/><path class="edafcf0c-d95c-4fe3-bff8-23344c333635" d="M80.51,115.13a43.45,43.45,0,0,0,12.47.49,42.75,42.75,0,0,0,5.8-11A106.57,106.57,0,0,1,80.51,115.13Z" transform="translate(-0.02 0)"/><path class="edafcf0c-d95c-4fe3-bff8-23344c333635" d="M80.51,115.13a25.17,25.17,0,0,1-3.36,7.43A78.43,78.43,0,0,0,93,115.62,43.23,43.23,0,0,1,80.51,115.13Z" transform="translate(-0.02 0)"/><path class="edafcf0c-d95c-4fe3-bff8-23344c333635" d="M77.15,122.56h.56A61.4,61.4,0,0,0,91.82,117c.39-.43.78-.89,1.16-1.39A78.06,78.06,0,0,1,77.15,122.56Z" transform="translate(-0.02 0)"/><path class="edafcf0c-d95c-4fe3-bff8-23344c333635" d="M77.05,122.68l.66-.16h-.56Z" transform="translate(-0.02 0)"/><path class="edafcf0c-d95c-4fe3-bff8-23344c333635" d="M77.1,2l-1.22-.29c.43.13.87.25,1.3.39A.39.39,0,0,0,77.1,2Z" transform="translate(-0.02 0)"/><path class="edafcf0c-d95c-4fe3-bff8-23344c333635" d="M77.18,2.1c-.43-.14-.87-.26-1.3-.39A62.34,62.34,0,0,0,62.34.23h-.08V3.49A57.58,57.58,0,0,1,77.18,2.1Z" transform="translate(-0.02 0)"/><path class="edafcf0c-d95c-4fe3-bff8-23344c333635" d="M77.18,2.1A57.58,57.58,0,0,0,62.26,3.49,91.23,91.23,0,0,1,80.55,9.61,25.53,25.53,0,0,0,77.18,2.1Z" transform="translate(-0.02 0)"/><path class="edafcf0c-d95c-4fe3-bff8-23344c333635" d="M80.55,9.61A91.23,91.23,0,0,0,62.26,3.49V14.82A97.64,97.64,0,0,1,80.55,9.61Z" transform="translate(-0.02 0)"/><path class="edafcf0c-d95c-4fe3-bff8-23344c333635" d="M80.55,9.61a97.84,97.84,0,0,0-18.31,5.21A152.07,152.07,0,0,1,83.78,25.14,106.79,106.79,0,0,0,80.55,9.61Z" transform="translate(-0.02 0)"/><path class="edafcf0c-d95c-4fe3-bff8-23344c333635" d="M83.78,25.14A152.07,152.07,0,0,0,62.24,14.82V35.18C69.89,31.19,77.13,27.81,83.78,25.14Z" transform="translate(-0.02 0)"/><path class="edafcf0c-d95c-4fe3-bff8-23344c333635" d="M83.78,25.14c-6.65,2.67-13.89,6.05-21.54,10,8,4.18,16,8.79,23.62,13.64C85.49,40.2,84.79,32.23,83.78,25.14Z" transform="translate(-0.02 0)"/><path class="edafcf0c-d95c-4fe3-bff8-23344c333635" d="M85.86,48.82C78.23,44,70.26,39.36,62.24,35.18V62.47Z" transform="translate(-0.02 0)"/><path class="edafcf0c-d95c-4fe3-bff8-23344c333635" d="M85.85,76.09c.39-9,.4-18.23,0-27.27L62.23,62.47C70.46,67.22,78.41,71.81,85.85,76.09Z" transform="translate(-0.02 0)"/><path class="edafcf0c-d95c-4fe3-bff8-23344c333635" d="M62.24,89.71c8-4.17,16-8.76,23.61-13.62-7.44-4.28-15.39-8.87-23.62-13.62C62.23,72,62.23,81.14,62.24,89.71Z" transform="translate(-0.02 0)"/><path class="edafcf0c-d95c-4fe3-bff8-23344c333635" d="M83.75,99.7c1-7.06,1.72-15,2.1-23.61C78.22,81,70.25,85.54,62.24,89.71,69.88,93.69,77.11,97.05,83.75,99.7Z" transform="translate(-0.02 0)"/><path class="edafcf0c-d95c-4fe3-bff8-23344c333635" d="M62.24,89.71V110A149,149,0,0,0,83.75,99.7C77.11,97.05,69.88,93.69,62.24,89.71Z" transform="translate(-0.02 0)"/><path class="edafcf0c-d95c-4fe3-bff8-23344c333635" d="M62.24,110a97.52,97.52,0,0,0,18.27,5.16A104.34,104.34,0,0,0,83.75,99.7,149,149,0,0,1,62.24,110Z" transform="translate(-0.02 0)"/><path class="edafcf0c-d95c-4fe3-bff8-23344c333635" d="M62.24,110v11.24a91.6,91.6,0,0,0,18.25-6.08A97.11,97.11,0,0,1,62.24,110Z" transform="translate(-0.02 0)"/><path class="edafcf0c-d95c-4fe3-bff8-23344c333635" d="M62.26,121.21a57.76,57.76,0,0,0,14.89,1.35,25.17,25.17,0,0,0,3.36-7.43A91.6,91.6,0,0,1,62.26,121.21Z" transform="translate(-0.02 0)"/><path class="edafcf0c-d95c-4fe3-bff8-23344c333635" d="M62.26,121.21v3.23h.08A62,62,0,0,0,75.57,123c.52-.14,1.05-.3,1.58-.46A57.74,57.74,0,0,1,62.26,121.21Z" transform="translate(-0.02 0)"/><path class="edafcf0c-d95c-4fe3-bff8-23344c333635" d="M75.57,123c.49-.1,1-.22,1.48-.34l.1-.12C76.62,122.72,76.09,122.88,75.57,123Z" transform="translate(-0.02 0)"/><path class="edafcf0c-d95c-4fe3-bff8-23344c333635" d="M47.34,2.11l1.1-.32L47.4,2Z" transform="translate(-0.02 0)"/><path class="edafcf0c-d95c-4fe3-bff8-23344c333635" d="M62.26,3.49V.23A61.78,61.78,0,0,0,48.44,1.79l-1.1.32A58.45,58.45,0,0,1,62.26,3.49Z" transform="translate(-0.02 0)"/><path class="edafcf0c-d95c-4fe3-bff8-23344c333635" d="M62.26,3.49A58.45,58.45,0,0,0,47.34,2.11,25.63,25.63,0,0,0,44,9.63,91,91,0,0,1,62.26,3.49Z" transform="translate(-0.02 0)"/><path class="edafcf0c-d95c-4fe3-bff8-23344c333635" d="M62.24,14.82V3.49A91.69,91.69,0,0,0,44,9.63,98.07,98.07,0,0,1,62.24,14.82Z" transform="translate(-0.02 0)"/><path class="edafcf0c-d95c-4fe3-bff8-23344c333635" d="M62.24,14.82A98.07,98.07,0,0,0,44,9.63a105.54,105.54,0,0,0-3.25,15.53A150,150,0,0,1,62.24,14.82Z" transform="translate(-0.02 0)"/><path class="edafcf0c-d95c-4fe3-bff8-23344c333635" d="M62.24,35.18V14.82A150.47,150.47,0,0,0,40.71,25.16C47.35,27.82,54.59,31.19,62.24,35.18Z" transform="translate(-0.02 0)"/><path class="edafcf0c-d95c-4fe3-bff8-23344c333635" d="M62.24,35.18a232.13,232.13,0,0,0-21.53-10c-1,7.09-1.72,15-2.09,23.67C46.25,44,54.21,39.37,62.24,35.18Z" transform="translate(-0.02 0)"/><path class="edafcf0c-d95c-4fe3-bff8-23344c333635" d="M62.23,62.47V35.18c-8,4.19-16,8.79-23.62,13.65Z" transform="translate(-0.02 0)"/><path class="edafcf0c-d95c-4fe3-bff8-23344c333635" d="M38.62,48.83c-.39,9-.38,18.23,0,27.26l23.6-13.62Z" transform="translate(-0.02 0)"/><path class="edafcf0c-d95c-4fe3-bff8-23344c333635" d="M38.63,76.09c7.63,4.85,15.59,9.45,23.61,13.62V62.47Z" transform="translate(-0.02 0)"/><path class="edafcf0c-d95c-4fe3-bff8-23344c333635" d="M40.74,99.68a235.53,235.53,0,0,0,21.5-10c-8-4.17-16-8.77-23.61-13.62C39,84.69,39.72,92.62,40.74,99.68Z" transform="translate(-0.02 0)"/><path class="edafcf0c-d95c-4fe3-bff8-23344c333635" d="M40.74,99.68A149,149,0,0,0,62.24,110V89.71A236.53,236.53,0,0,1,40.74,99.68Z" transform="translate(-0.02 0)"/><path class="edafcf0c-d95c-4fe3-bff8-23344c333635" d="M44,115.11A96.34,96.34,0,0,0,62.24,110a149.86,149.86,0,0,1-21.5-10.29A104.9,104.9,0,0,0,44,115.11Z" transform="translate(-0.02 0)"/><path class="edafcf0c-d95c-4fe3-bff8-23344c333635" d="M44,115.11a91.11,91.11,0,0,0,18.26,6.1V110A96.41,96.41,0,0,1,44,115.11Z" transform="translate(-0.02 0)"/><path class="edafcf0c-d95c-4fe3-bff8-23344c333635" d="M47.38,122.55a58.57,58.57,0,0,0,14.88-1.34A91.11,91.11,0,0,1,44,115.11,24.91,24.91,0,0,0,47.38,122.55Z" transform="translate(-0.02 0)"/><path class="edafcf0c-d95c-4fe3-bff8-23344c333635" d="M47.38,122.55l1.36.4a62.1,62.1,0,0,0,13.52,1.49v-3.23A58.57,58.57,0,0,1,47.38,122.55Z" transform="translate(-0.02 0)"/><path class="edafcf0c-d95c-4fe3-bff8-23344c333635" d="M47.46,122.64l1.28.31-1.36-.4Z" transform="translate(-0.02 0)"/><path class="edafcf0c-d95c-4fe3-bff8-23344c333635" d="M47.4,2l-.4.1h.34Z" transform="translate(-0.02 0)"/><path class="edafcf0c-d95c-4fe3-bff8-23344c333635" d="M47.34,2.11H47A61.65,61.65,0,0,0,32.55,7.83c-.36.4-.71.82-1.06,1.28A78.4,78.4,0,0,1,47.34,2.11Z" transform="translate(-0.02 0)"/><path class="edafcf0c-d95c-4fe3-bff8-23344c333635" d="M44,9.63a25.47,25.47,0,0,1,3.38-7.52,78.4,78.4,0,0,0-15.85,7A42.75,42.75,0,0,1,44,9.63Z" transform="translate(-0.02 0)"/><path class="edafcf0c-d95c-4fe3-bff8-23344c333635" d="M44,9.63a42.75,42.75,0,0,0-12.47-.52,42.9,42.9,0,0,0-5.8,11.1A106.17,106.17,0,0,1,44,9.63Z" transform="translate(-0.02 0)"/><path class="edafcf0c-d95c-4fe3-bff8-23344c333635" d="M40.71,25.16A104.37,104.37,0,0,1,44,9.63,106.24,106.24,0,0,0,25.69,20.21,104.35,104.35,0,0,1,40.71,25.16Z" transform="translate(-0.02 0)"/><path class="edafcf0c-d95c-4fe3-bff8-23344c333635" d="M25.69,20.21A96.1,96.1,0,0,0,21,38.65,149.6,149.6,0,0,1,40.71,25.16,104.35,104.35,0,0,0,25.69,20.21Z" transform="translate(-0.02 0)"/><path class="edafcf0c-d95c-4fe3-bff8-23344c333635" d="M40.71,25.16A149.6,149.6,0,0,0,21,38.65L38.62,48.83C39,40.21,39.69,32.25,40.71,25.16Z" transform="translate(-0.02 0)"/><path class="edafcf0c-d95c-4fe3-bff8-23344c333635" d="M38.62,48.83,21,38.65a149.31,149.31,0,0,0-1.81,23.8C24.83,58,31.35,53.46,38.62,48.83Z" transform="translate(-0.02 0)"/><path class="edafcf0c-d95c-4fe3-bff8-23344c333635" d="M38.62,48.83A230,230,0,0,0,19.23,62.45c5.61,4.42,12.13,9,19.4,13.64C38.24,67.06,38.23,57.86,38.62,48.83Z" transform="translate(-0.02 0)"/><path class="edafcf0c-d95c-4fe3-bff8-23344c333635" d="M19.23,62.45a148.85,148.85,0,0,0,1.85,23.76L38.63,76.09C31.36,71.46,24.84,66.87,19.23,62.45Z" transform="translate(-0.02 0)"/><path class="edafcf0c-d95c-4fe3-bff8-23344c333635" d="M38.63,76.09,21.08,86.21A150.58,150.58,0,0,0,40.74,99.68C39.72,92.62,39,84.69,38.63,76.09Z" transform="translate(-0.02 0)"/><path class="edafcf0c-d95c-4fe3-bff8-23344c333635" d="M21.08,86.21a96,96,0,0,0,4.67,18.36,102.64,102.64,0,0,0,15-4.89A150.68,150.68,0,0,1,21.08,86.21Z" transform="translate(-0.02 0)"/><path class="edafcf0c-d95c-4fe3-bff8-23344c333635" d="M25.75,104.57A106.17,106.17,0,0,0,44,115.11a105.29,105.29,0,0,1-3.26-15.43A102.13,102.13,0,0,1,25.75,104.57Z" transform="translate(-0.02 0)"/><path class="edafcf0c-d95c-4fe3-bff8-23344c333635" d="M44,115.11a106.17,106.17,0,0,1-18.25-10.54,42.75,42.75,0,0,0,5.8,11A42.61,42.61,0,0,0,44,115.11Z" transform="translate(-0.02 0)"/><path class="edafcf0c-d95c-4fe3-bff8-23344c333635" d="M31.55,115.59a78.24,78.24,0,0,0,15.83,7A25.13,25.13,0,0,1,44,115.11,42.61,42.61,0,0,1,31.55,115.59Z" transform="translate(-0.02 0)"/><path class="edafcf0c-d95c-4fe3-bff8-23344c333635" d="M31.55,115.59c.36.47.73.9,1.1,1.31a61.49,61.49,0,0,0,14.27,5.61h.46A78.75,78.75,0,0,1,31.55,115.59Z" transform="translate(-0.02 0)"/><path class="edafcf0c-d95c-4fe3-bff8-23344c333635" d="M46.92,122.51l.54.13-.08-.09Z" transform="translate(-0.02 0)"/><path class="edafcf0c-d95c-4fe3-bff8-23344c333635" d="M32.55,7.83c-.91.49-1.8,1-2.68,1.55.52-.1,1.05-.2,1.62-.27C31.84,8.65,32.19,8.23,32.55,7.83Z" transform="translate(-0.02 0)"/><path class="edafcf0c-d95c-4fe3-bff8-23344c333635" d="M31.49,9.11c-.57.07-1.1.17-1.62.27a62.09,62.09,0,0,0-12.24,9.85l-.09.14A77.84,77.84,0,0,1,31.49,9.11Z" transform="translate(-0.02 0)"/><path class="edafcf0c-d95c-4fe3-bff8-23344c333635" d="M25.69,20.21a42.9,42.9,0,0,1,5.8-11.1A77.84,77.84,0,0,0,17.54,19.37,24.91,24.91,0,0,1,25.69,20.21Z" transform="translate(-0.02 0)"/><path class="edafcf0c-d95c-4fe3-bff8-23344c333635" d="M25.69,20.21a24.91,24.91,0,0,0-8.15-.84A57.84,57.84,0,0,0,11.28,33,90.35,90.35,0,0,1,25.69,20.21Z" transform="translate(-0.02 0)"/><path class="edafcf0c-d95c-4fe3-bff8-23344c333635" d="M25.69,20.21A90.35,90.35,0,0,0,11.28,33C13.72,34.43,17,36.3,21,38.67A97.13,97.13,0,0,1,25.69,20.21Z" transform="translate(-0.02 0)"/><path class="edafcf0c-d95c-4fe3-bff8-23344c333635" d="M21,38.65c-4-2.37-7.28-4.24-9.72-5.65A90.94,90.94,0,0,0,7.45,51.9,96.43,96.43,0,0,1,21,38.65Z" transform="translate(-0.02 0)"/><path class="edafcf0c-d95c-4fe3-bff8-23344c333635" d="M19.23,62.45A150.45,150.45,0,0,1,21,38.65,96.84,96.84,0,0,0,7.45,51.88,103.59,103.59,0,0,0,19.23,62.45Z" transform="translate(-0.02 0)"/><path class="edafcf0c-d95c-4fe3-bff8-23344c333635" d="M19.23,62.45A103.59,103.59,0,0,1,7.45,51.88,107.23,107.23,0,0,0,7.47,73,104.08,104.08,0,0,1,19.23,62.45Z" transform="translate(-0.02 0)"/><path class="edafcf0c-d95c-4fe3-bff8-23344c333635" d="M7.47,73A96.58,96.58,0,0,0,21.08,86.21a148.85,148.85,0,0,1-1.85-23.76A104.08,104.08,0,0,0,7.47,73Z" transform="translate(-0.02 0)"/><path class="edafcf0c-d95c-4fe3-bff8-23344c333635" d="M7.47,73a91.21,91.21,0,0,0,3.87,18.85l9.74-5.61A96.79,96.79,0,0,1,7.47,73Z" transform="translate(-0.02 0)"/><path class="edafcf0c-d95c-4fe3-bff8-23344c333635" d="M25.75,104.57a96,96,0,0,1-4.67-18.36l-9.74,5.61A90.48,90.48,0,0,0,25.75,104.57Z" transform="translate(-0.02 0)"/><path class="edafcf0c-d95c-4fe3-bff8-23344c333635" d="M25.75,104.57A90.48,90.48,0,0,1,11.34,91.82a57.9,57.9,0,0,0,6.27,13.55A24.56,24.56,0,0,0,25.75,104.57Z" transform="translate(-0.02 0)"/><path class="edafcf0c-d95c-4fe3-bff8-23344c333635" d="M17.61,105.37a78,78,0,0,0,13.94,10.22,42.75,42.75,0,0,1-5.8-11A24.81,24.81,0,0,1,17.61,105.37Z" transform="translate(-0.02 0)"/><path class="edafcf0c-d95c-4fe3-bff8-23344c333635" d="M17.61,105.37a1.43,1.43,0,0,1,.14.2,63.24,63.24,0,0,0,12.14,9.73c.53.11,1.08.21,1.66.29A78,78,0,0,1,17.61,105.37Z" transform="translate(-0.02 0)"/><path class="edafcf0c-d95c-4fe3-bff8-23344c333635" d="M29.89,115.3c.9.56,1.83,1.09,2.76,1.6-.37-.41-.74-.84-1.1-1.31C31,115.51,30.42,115.41,29.89,115.3Z" transform="translate(-0.02 0)"/><path class="edafcf0c-d95c-4fe3-bff8-23344c333635" d="M17.63,19.23l-.15.15h.06Z" transform="translate(-0.02 0)"/><path class="edafcf0c-d95c-4fe3-bff8-23344c333635" d="M17.48,19.38l-.38.4.44-.41Z" transform="translate(-0.02 0)"/><path class="edafcf0c-d95c-4fe3-bff8-23344c333635" d="M17.54,19.37l-.44.41A62.85,62.85,0,0,0,8.49,31.36L11.28,33A57.84,57.84,0,0,1,17.54,19.37Z" transform="translate(-0.02 0)"/><path class="edafcf0c-d95c-4fe3-bff8-23344c333635" d="M11.28,33,8.49,31.36A62.34,62.34,0,0,0,2.85,44.44l-.18.76A57.48,57.48,0,0,1,11.28,33Z" transform="translate(-0.02 0)"/><path class="edafcf0c-d95c-4fe3-bff8-23344c333635" d="M11.28,33A57.48,57.48,0,0,0,2.67,45.2a25,25,0,0,0,4.78,6.68A90.76,90.76,0,0,1,11.28,33Z" transform="translate(-0.02 0)"/><path class="edafcf0c-d95c-4fe3-bff8-23344c333635" d="M2.67,45.2A77.82,77.82,0,0,0,.8,62.41,42.68,42.68,0,0,1,7.45,51.88,25,25,0,0,1,2.67,45.2Z" transform="translate(-0.02 0)"/><path class="edafcf0c-d95c-4fe3-bff8-23344c333635" d="M7.45,51.88A42.68,42.68,0,0,0,.8,62.41,43.1,43.1,0,0,0,7.47,73,107.23,107.23,0,0,1,7.45,51.88Z" transform="translate(-0.02 0)"/><path class="edafcf0c-d95c-4fe3-bff8-23344c333635" d="M.8,62.41A78.28,78.28,0,0,0,2.71,79.6,24.64,24.64,0,0,1,7.47,73,43.1,43.1,0,0,1,.8,62.41Z" transform="translate(-0.02 0)"/><path class="edafcf0c-d95c-4fe3-bff8-23344c333635" d="M2.71,79.6a58.06,58.06,0,0,0,8.63,12.22A90.93,90.93,0,0,1,7.47,73,24.64,24.64,0,0,0,2.71,79.6Z" transform="translate(-0.02 0)"/><path class="edafcf0c-d95c-4fe3-bff8-23344c333635" d="M2.71,79.6l.21.88A62.15,62.15,0,0,0,8.55,93.41l2.79-1.59A58.06,58.06,0,0,1,2.71,79.6Z" transform="translate(-0.02 0)"/><path class="edafcf0c-d95c-4fe3-bff8-23344c333635" d="M11.34,91.82,8.55,93.41A62.67,62.67,0,0,0,17,104.79l.6.58A57.87,57.87,0,0,1,11.34,91.82Z" transform="translate(-0.02 0)"/><path class="edafcf0c-d95c-4fe3-bff8-23344c333635" d="M17,104.79c.18.19.35.38.53.56h.07Z" transform="translate(-0.02 0)"/><path class="edafcf0c-d95c-4fe3-bff8-23344c333635" d="M17.54,105.35l.21.22a1.43,1.43,0,0,0-.14-.2Z" transform="translate(-0.02 0)"/><path class="edafcf0c-d95c-4fe3-bff8-23344c333635" d="M2.85,44.44l-.21.7v.06Z" transform="translate(-0.02 0)"/><path class="edafcf0c-d95c-4fe3-bff8-23344c333635" d="M2.64,45.14a1.09,1.09,0,0,1-.08.28l.11-.22Z" transform="translate(-0.02 0)"/><path class="edafcf0c-d95c-4fe3-bff8-23344c333635" d="M2.67,45.2l-.11.22A62.48,62.48,0,0,0,.25,60.91c.16.49.34,1,.55,1.5A77.82,77.82,0,0,1,2.67,45.2Z" transform="translate(-0.02 0)"/><path class="edafcf0c-d95c-4fe3-bff8-23344c333635" d="M.25,60.91v3c.16-.49.34-1,.55-1.49C.59,61.9.41,61.4.25,60.91Z" transform="translate(-0.02 0)"/><path class="edafcf0c-d95c-4fe3-bff8-23344c333635" d="M.8,62.41c-.21.51-.39,1-.55,1.49A61.66,61.66,0,0,0,2.59,79.34l.12.26A78.28,78.28,0,0,1,.8,62.41Z" transform="translate(-0.02 0)"/><path class="edafcf0c-d95c-4fe3-bff8-23344c333635" d="M2.59,79.34l.09.33V79.6Z" transform="translate(-0.02 0)"/><path class="edafcf0c-d95c-4fe3-bff8-23344c333635" d="M2.68,79.67l.24.81-.21-.88Z" transform="translate(-0.02 0)"/></g></svg>