<?xml version="1.0" encoding="utf-8"?>
<!-- Generator: Adobe Illustrator 23.0.3, SVG Export Plug-In . SVG Version: 6.00 Build 0)  -->
<svg version="1.1" id="b47927bf-8c8b-420c-a262-95b5f30e1dff"
	 xmlns="http://www.w3.org/2000/svg" xmlns:xlink="http://www.w3.org/1999/xlink" x="0px" y="0px" viewBox="0 0 124.6 124.7"
	 style="enable-background:new 0 0 124.6 124.7;" xml:space="preserve">
<style type="text/css">
	.st0{fill:none;stroke:#000000;stroke-width:0.46;stroke-miterlimit:10;}
</style>
<title>21u</title>
<g id="f3f67edb-b669-42a6-bb94-fb76f7d9a434">
	<path class="st0" d="M19.1,54c-3.2,2.6-6.2,5.4-9,8.4c-2-2.1-3.8-4.3-5.5-6.7c1.6,2.4,3.4,4.6,5.4,6.7C12.9,59.4,15.9,56.6,19.1,54
		z"/>
	<path class="st0" d="M46,52.8c-5.3,3.2-10.3,6.4-15.1,9.6c-4.4-2.9-8.4-5.7-11.9-8.4c3.5,2.6,7.5,5.5,11.9,8.4
		C35.7,59.2,40.7,56,46,52.8z"/>
	<path class="st0" d="M79.2,72c5.3-3.2,10.4-6.4,15.1-9.6c4.4,2.9,8.3,5.7,11.8,8.4c-3.5-2.7-7.4-5.5-11.8-8.4
		C89.6,65.5,84.5,68.7,79.2,72z"/>
	<path class="st0" d="M106.1,70.8c3.2-2.6,6.2-5.4,9-8.4c2,2.1,3.8,4.3,5.4,6.7c-1.6-2.4-3.4-4.6-5.4-6.7
		C112.3,65.3,109.3,68.1,106.1,70.8z"/>
	<path class="st0" d="M4.6,55.7c-1.4,2.1-2.5,4.3-3.4,6.7c-0.4-1.2-0.7-2.4-0.9-3.6l0,0c0.2,1.2,0.5,2.4,0.9,3.6
		C2.1,60,3.2,57.8,4.6,55.7z"/>
	<path class="st0" d="M79.2,72l-16.6-9.6L46,52.8l16.6,9.6L79.2,72z"/>
	<path class="st0" d="M120.5,69.1c1.4-2.1,2.5-4.3,3.4-6.7c0.2,0.6,0.4,1.3,0.6,1.9l0,0c-0.1-0.6-0.3-1.3-0.6-1.9
		C123,64.7,121.9,67,120.5,69.1z"/>
	<path class="st0" d="M79.2,52.8l-16.6,9.6L79.2,72C79.3,65.6,79.3,59.2,79.2,52.8z"/>
	<path class="st0" d="M62.6,43.2v19.2l16.6-9.6C73.8,49.5,68.2,46.3,62.6,43.2z"/>
	<path class="st0" d="M78.5,35c-5.1,2.5-10.4,5.3-15.8,8.3c5.6,3.1,11.1,6.3,16.6,9.6C79.1,46.6,78.8,40.6,78.5,35z"/>
	<path class="st0" d="M62.6,26.6v16.6c5.5-3,10.7-5.8,15.8-8.3C73.2,31.9,67.9,29.1,62.6,26.6z"/>
	<path class="st0" d="M77.1,20.5c-4.6,1.7-9.5,3.7-14.5,6.1c5.3,2.5,10.6,5.3,15.8,8.3C78.1,29.7,77.7,24.9,77.1,20.5z"/>
	<path class="st0" d="M77.1,20.5c-4.7-2.4-9.6-4.5-14.5-6.4v12.5C67.7,24.2,72.5,22.2,77.1,20.5z"/>
	<path class="st0" d="M75.5,10.3c-4.4,1-8.7,2.3-12.9,3.8c5,1.8,9.8,4,14.5,6.4C76.6,16.6,76.1,13.2,75.5,10.3z"/>
	<path class="st0" d="M75.5,10.3C71.3,8.6,67,7.1,62.6,6v8.1C66.8,12.6,71.1,11.3,75.5,10.3z"/>
	<path class="st0" d="M73.8,4.1C70,4.4,66.3,5.1,62.6,6c4.4,1.1,8.7,2.6,12.9,4.3C75.1,8.2,74.5,6.1,73.8,4.1z"/>
	<path class="st0" d="M73.8,4.1c-3.7-1.1-7.4-2-11.2-2.5V6C66.3,5.1,70,4.4,73.8,4.1z"/>
	<path class="st0" d="M72.2,1.1c-3.2-0.1-6.4,0-9.6,0.5c3.8,0.5,7.6,1.4,11.2,2.5C73.5,3,72.9,2,72.2,1.1z"/>
	<path class="st0" d="M72.2,1.1C71.8,1,71.4,0.9,71,0.9c-2.8-0.4-5.6-0.6-8.4-0.6v1.3C65.8,1.1,69,0.9,72.2,1.1z"/>
	<path class="st0" d="M72.2,1L71,0.9C71.4,0.9,71.8,1,72.2,1L72.2,1z"/>
	<path class="st0" d="M79.2,72c5.3-3.2,10.4-6.4,15.1-9.6c-4.7-3.1-9.7-6.3-15.1-9.6C79.3,59.2,79.3,65.6,79.2,72z"/>
	<path class="st0" d="M79.2,52.8c5.3,3.2,10.4,6.4,15.1,9.6c0-6.1-0.2-12.1-0.7-17.9L79.2,52.8z"/>
	<path class="st0" d="M93.6,44.5c-4.8-3.3-9.8-6.5-15.1-9.5c0.4,5.7,0.6,11.6,0.8,17.8L93.6,44.5z"/>
	<path class="st0" d="M93.6,44.5c-0.4-5.5-1.1-10.8-1.9-15.6c-4,1.7-8.4,3.7-13.2,6.1C83.7,38,88.8,41.2,93.6,44.5z"/>
	<path class="st0" d="M78.5,35c4.7-2.3,9.1-4.4,13.2-6.1c-4.7-3.1-9.5-5.9-14.5-8.4C77.7,24.9,78.1,29.7,78.5,35z"/>
	<path class="st0" d="M91.6,28.9c-0.7-4.1-1.6-8.1-2.8-12c-4,1-7.9,2.2-11.7,3.6C82.1,23,86.9,25.8,91.6,28.9z"/>
	<path class="st0" d="M88.9,16.9c-4.3-2.5-8.8-4.7-13.4-6.6c0.6,2.9,1.2,6.3,1.6,10.2C81,19.1,84.9,17.9,88.9,16.9z"/>
	<path class="st0" d="M88.9,16.9c-0.8-2.8-1.8-5.4-3.1-8c-3.5,0.2-6.9,0.6-10.3,1.4C80.1,12.2,84.6,14.4,88.9,16.9z"/>
	<path class="st0" d="M85.8,8.9c-3.9-1.9-7.9-3.5-12-4.8c0.7,2,1.3,4.1,1.7,6.2C78.8,9.5,82.3,9,85.8,8.9z"/>
	<path class="st0" d="M73.8,4.1c4.1,1.3,8.1,2.9,12,4.8c-0.8-1.7-1.8-3.2-3-4.6C79.8,3.9,76.8,3.8,73.8,4.1z"/>
	<path class="st0" d="M82.7,4.2c-3.4-1.3-6.9-2.4-10.5-3.1c0.7,0.9,1.2,1.9,1.6,3C76.8,3.8,79.8,3.9,82.7,4.2z"/>
	<path class="st0" d="M82.7,4.2c-0.3-0.3-0.6-0.6-0.9-0.9c-2.9-1-5.9-1.7-9-2.3h-0.5C75.8,1.9,79.3,2.9,82.7,4.2z"/>
	<path class="st0" d="M72.8,1.1L72.2,1l0.1,0.1L72.8,1.1z"/>
	<path class="st0" d="M106.1,54c-3.5,2.7-7.4,5.5-11.8,8.4c4.4,2.9,8.3,5.7,11.8,8.4C106.4,65.2,106.4,59.6,106.1,54z"/>
	<path class="st0" d="M94.3,62.4c4.4-2.9,8.3-5.7,11.8-8.4c-3.8-3.2-8-6.3-12.5-9.5C94,50.3,94.3,56.3,94.3,62.4z"/>
	<path class="st0" d="M106.1,54c-0.3-5.3-0.9-10.5-1.8-15.7l-10.8,6.2C98.2,47.7,102.3,50.9,106.1,54z"/>
	<path class="st0" d="M104.4,38.3c-4.1-3.4-8.3-6.5-12.7-9.4c0.8,4.8,1.5,10.1,1.9,15.6L104.4,38.3z"/>
	<path class="st0" d="M104.4,38.3c-0.7-4.4-1.8-8.8-3.1-13.1c-2.8,0.9-6,2.2-9.6,3.7C96,31.8,100.3,34.9,104.4,38.3z"/>
	<path class="st0" d="M91.6,28.9c3.6-1.5,6.8-2.8,9.6-3.7c-3.9-3-8.1-5.8-12.4-8.3C90,20.8,90.9,24.8,91.6,28.9z"/>
	<path class="st0" d="M101.2,25.2c-1-3.3-2.3-6.5-3.9-9.6c-2.9,0.2-5.7,0.7-8.5,1.3C93.2,19.4,97.3,22.2,101.2,25.2z"/>
	<path class="st0" d="M97.3,15.6c-3.7-2.5-7.6-4.8-11.6-6.7c1.3,2.6,2.3,5.2,3.1,8C91.6,16.2,94.5,15.7,97.3,15.6z"/>
	<path class="st0" d="M85.8,8.9c4,1.9,7.9,4.2,11.6,6.7c-1.1-2.2-2.5-4.3-4.1-6.3C90.8,8.8,88.3,8.7,85.8,8.9z"/>
	<path class="st0" d="M93.2,9.3c-3.4-1.9-6.9-3.6-10.5-5c1.2,1.4,2.2,2.9,3,4.6C88.2,8.7,90.8,8.9,93.2,9.3z"/>
	<path class="st0" d="M93.2,9.3c-0.5-0.6-1.1-1.2-1.7-1.8c-1.9-1-4-2-6-2.8c-0.9-0.2-1.8-0.4-2.8-0.5C86.4,5.6,89.9,7.3,93.2,9.3z"
		/>
	<path class="st0" d="M85.5,4.7c-1.2-0.5-2.4-0.9-3.7-1.3c0.3,0.3,0.6,0.6,0.9,0.9C83.7,4.4,84.6,4.5,85.5,4.7z"/>
	<path class="st0" d="M106.1,54c0.3,5.6,0.3,11.2,0,16.7c3.2-2.6,6.2-5.4,9-8.4C112.3,59.4,109.3,56.6,106.1,54z"/>
	<path class="st0" d="M115.1,62.4c0-5-0.3-9.9-1-14.9c-2.2,2-4.9,4.2-8,6.5C109.2,56.6,112.2,59.4,115.1,62.4z"/>
	<path class="st0" d="M104.4,38.3c0.9,5.2,1.5,10.5,1.8,15.7c3.1-2.4,5.8-4.5,8-6.5C111.1,44.2,107.8,41.1,104.4,38.3z"/>
	<path class="st0" d="M114.1,47.5c-0.6-4.5-1.5-8.9-2.7-13.3l-7,4.1C107.8,41.1,111.1,44.2,114.1,47.5z"/>
	<path class="st0" d="M111.4,34.2c-3.2-3.2-6.5-6.2-10.1-9c1.3,4.3,2.4,8.7,3.1,13.1L111.4,34.2z"/>
	<path class="st0" d="M111.4,34.2c-1-3.7-2.4-7.2-4-10.7c-2.1,0.4-4.2,1-6.2,1.6C104.8,28,108.2,31,111.4,34.2z"/>
	<path class="st0" d="M101.2,25.2c2-0.7,4.1-1.2,6.2-1.6c-3.2-2.9-6.5-5.6-10.1-8C98.9,18.6,100.2,21.9,101.2,25.2z"/>
	<path class="st0" d="M97.3,15.6c3.6,2.4,6.9,5.1,10.1,8c-1.3-2.7-2.8-5.3-4.6-7.7C101,15.5,99.2,15.4,97.3,15.6z"/>
	<path class="st0" d="M102.8,15.9c-3-2.4-6.2-4.6-9.6-6.6c1.6,1.9,3,4,4.1,6.3C99.2,15.4,101,15.5,102.8,15.9z"/>
	<path class="st0" d="M102.8,15.9c-0.5-0.7-1-1.3-1.6-1.9c-1.8-1.5-3.7-2.9-5.7-4.1c-0.8-0.2-1.5-0.4-2.3-0.6
		C96.6,11.2,99.8,13.4,102.8,15.9z"/>
	<path class="st0" d="M93.2,9.3c0.8,0.1,1.6,0.3,2.3,0.6c-1.3-0.8-2.7-1.6-4-2.4C92.1,8.1,92.7,8.7,93.2,9.3z"/>
	<path class="st0" d="M120.5,55.7c-1.6,2.4-3.4,4.6-5.4,6.7c2,2.1,3.8,4.3,5.4,6.7C120.8,64.6,120.8,60.1,120.5,55.7z"/>
	<path class="st0" d="M120.5,55.7c-1.9-2.9-4-5.6-6.4-8.2c0.7,4.9,1,9.9,1,14.9C117.1,60.3,118.9,58.1,120.5,55.7z"/>
	<path class="st0" d="M114.1,47.5c2.4,2.5,4.5,5.3,6.4,8.2c-0.3-4.3-0.9-8.5-1.9-12.7C117.2,44.6,115.7,46.1,114.1,47.5z"/>
	<path class="st0" d="M114.1,47.5c1.6-1.4,3.1-2.9,4.5-4.5c-2.2-3.1-4.6-6-7.2-8.8C112.6,38.6,113.5,43,114.1,47.5z"/>
	<path class="st0" d="M118.6,43c-0.8-3.8-2-7.4-3.4-11l-3.8,2.2C114,36.9,116.5,39.9,118.6,43z"/>
	<path class="st0" d="M115.2,32c-2.4-3-5-5.8-7.8-8.5c1.6,3.4,3,7,4,10.7L115.2,32z"/>
	<path class="st0" d="M107.4,23.5c2.8,2.6,5.4,5.4,7.8,8.5c-1.1-2.8-2.5-5.5-4.1-8c-0.2-0.2-0.3-0.4-0.4-0.6
		C109.6,23.3,108.5,23.3,107.4,23.5z"/>
	<path class="st0" d="M102.8,15.9c1.8,2.4,3.3,5,4.6,7.7c1.1-0.2,2.2-0.3,3.3-0.2c-0.2-0.3-0.4-0.5-0.6-0.8
		C107.8,20.2,105.4,17.9,102.8,15.9z"/>
	<path class="st0" d="M110.1,22.6c-1.9-2.3-4-4.5-6.2-6.5c-0.3-0.1-0.7-0.2-1-0.3C105.4,17.9,107.8,20.2,110.1,22.6z"/>
	<path class="st0" d="M103.9,16.2c-0.8-0.8-1.7-1.5-2.6-2.2c0.5,0.6,1,1.2,1.6,1.9C103.2,15.9,103.5,16,103.9,16.2z"/>
	<path class="st0" d="M120.5,69.1c1.4-2.1,2.5-4.3,3.4-6.7c-0.9-2.3-2-4.6-3.3-6.7C120.8,60.1,120.8,64.6,120.5,69.1z"/>
	<path class="st0" d="M123.8,62.4c0-3.9-0.3-7.8-0.8-11.6c-0.6,1.8-1.4,3.4-2.5,4.9C121.9,57.8,123,60,123.8,62.4z"/>
	<path class="st0" d="M123,50.8c-1.2-2.7-2.7-5.3-4.4-7.8c0.9,4.2,1.6,8.4,1.9,12.7C121.6,54.2,122.4,52.5,123,50.8z"/>
	<path class="st0" d="M123,50.8c-0.5-3.1-1.2-6.2-2.1-9.2c-0.2-0.5-0.3-0.9-0.5-1.4c-0.4,1-1.1,2-1.8,2.8
		C120.3,45.4,121.8,48,123,50.8z"/>
	<path class="st0" d="M118.6,43c0.7-0.8,1.3-1.7,1.8-2.7c-0.1-0.3-0.2-0.5-0.3-0.8c-1.4-2.6-3-5.1-4.9-7.5
		C116.6,35.6,117.8,39.2,118.6,43z"/>
	<path class="st0" d="M120.1,39.4c-1.1-2.8-2.4-5.4-3.9-8l-1,0.6C117,34.3,118.6,36.8,120.1,39.4z"/>
	<path class="st0" d="M116.2,31.4c-1.5-2.6-3.2-5.1-5.1-7.5c1.6,2.5,2.9,5.2,4.1,8L116.2,31.4z"/>
	<path class="st0" d="M124.4,64.3v-3.9c-0.1,0.7-0.3,1.3-0.6,1.9C124.1,63,124.2,63.6,124.4,64.3z"/>
	<path class="st0" d="M123.8,62.4c0.2-0.6,0.4-1.3,0.6-1.9c-0.1-2.6-0.3-5.2-0.7-7.7c-0.2-0.6-0.5-1.3-0.8-2
		C123.5,54.6,123.8,58.5,123.8,62.4z"/>
	<path class="st0" d="M123.7,52.7c-0.2-1-0.3-1.9-0.5-2.9c-0.1,0.3-0.1,0.6-0.2,0.9C123.2,51.4,123.5,52.1,123.7,52.7z"/>
	<path class="st0" d="M123.2,49.8c-0.6-2.8-1.3-5.6-2.3-8.3c0.9,3,1.6,6.1,2.1,9.2C123.1,50.5,123.1,50.1,123.2,49.8z"/>
	<path class="st0" d="M62.6,81.6c5.6-3.1,11.1-6.3,16.6-9.6l-16.6-9.6V81.6z"/>
	<path class="st0" d="M78.4,89.8c0.4-5.6,0.6-11.6,0.8-17.8c-5.4,3.3-11,6.5-16.6,9.6C68.1,84.5,73.4,87.3,78.4,89.8z"/>
	<path class="st0" d="M78.4,89.8c-5.1-2.5-10.4-5.3-15.8-8.3v16.6C67.9,95.6,73.2,92.8,78.4,89.8z"/>
	<path class="st0" d="M77.1,104.2c0.5-4.3,1-9.2,1.3-14.4c-5.3,3-10.6,5.8-15.8,8.3C67.7,100.5,72.5,102.6,77.1,104.2z"/>
	<path class="st0" d="M62.6,98.1v12.5c5-1.8,9.8-4,14.5-6.4C72.5,102.6,67.7,100.5,62.6,98.1z"/>
	<path class="st0" d="M62.6,110.6c4.2,1.6,8.5,2.8,12.9,3.8c0.6-2.9,1.2-6.3,1.6-10.2C72.4,106.6,67.6,108.8,62.6,110.6z"/>
	<path class="st0" d="M62.6,110.6v8.1c4.4-1.1,8.7-2.6,12.9-4.3C71.1,113.4,66.8,112.2,62.6,110.6z"/>
	<path class="st0" d="M62.6,118.7c3.7,0.9,7.4,1.6,11.2,1.9c0.7-2,1.3-4.1,1.7-6.2C71.3,116.2,67,117.6,62.6,118.7z"/>
	<path class="st0" d="M62.6,118.7v4.4c3.8-0.5,7.5-1.4,11.2-2.5C70,120.3,66.3,119.6,62.6,118.7z"/>
	<path class="st0" d="M62.6,123.1c3.2,0.5,6.4,0.6,9.6,0.5c0.7-0.9,1.2-1.9,1.6-3C70.1,121.7,66.4,122.6,62.6,123.1z"/>
	<path class="st0" d="M62.6,123.1v1.3c2.8,0,5.7-0.2,8.5-0.6l1.1-0.2C69,123.7,65.8,123.6,62.6,123.1z"/>
	<path class="st0" d="M71.1,123.8l1.1-0.2l0.1-0.1L71.1,123.8z"/>
	<path class="st0" d="M94.3,62.4c-4.7,3.1-9.7,6.3-15.1,9.6l14.3,8.3C94,74.5,94.3,68.5,94.3,62.4z"/>
	<path class="st0" d="M93.6,80.3L79.2,72c-0.1,6.2-0.4,12.2-0.8,17.8C83.7,86.8,88.8,83.6,93.6,80.3z"/>
	<path class="st0" d="M91.6,95.9c0.8-4.8,1.5-10.1,2-15.6c-4.8,3.3-9.8,6.5-15.1,9.6C83.2,92.1,87.6,94.2,91.6,95.9z"/>
	<path class="st0" d="M77.1,104.2c5-2.5,9.8-5.3,14.5-8.4c-4-1.7-8.4-3.7-13.2-6.1C78.1,95.1,77.7,99.9,77.1,104.2z"/>
	<path class="st0" d="M88.8,107.8c1.2-3.9,2.1-7.9,2.8-12c-4.7,3.1-9.5,5.9-14.5,8.4C80.9,105.6,84.9,106.8,88.8,107.8z"/>
	<path class="st0" d="M75.5,114.4c4.6-1.9,9.1-4.1,13.4-6.6c-4-1-7.9-2.2-11.7-3.6C76.6,108.1,76.1,111.5,75.5,114.4z"/>
	<path class="st0" d="M75.5,114.4c3.4,0.8,6.8,1.3,10.3,1.4c1.3-2.6,2.3-5.2,3.1-8C84.5,110.3,80.1,112.5,75.5,114.4z"/>
	<path class="st0" d="M73.8,120.6c4.1-1.3,8.1-2.9,12-4.7c-3.5-0.2-6.9-0.7-10.3-1.4C75.1,116.5,74.5,118.6,73.8,120.6z"/>
	<path class="st0" d="M73.8,120.6c3,0.3,6,0.2,8.9-0.1c1.2-1.4,2.2-2.9,3-4.6C81.9,117.7,77.9,119.3,73.8,120.6z"/>
	<path class="st0" d="M73.8,120.6c-0.4,1.1-0.9,2.1-1.6,3c3.6-0.8,7.1-1.8,10.5-3.1C79.8,120.8,76.8,120.9,73.8,120.6z"/>
	<path class="st0" d="M72.2,123.6h0.5c3.1-0.5,6.1-1.3,9.1-2.3c0.3-0.3,0.6-0.6,0.9-0.9C79.3,121.8,75.8,122.9,72.2,123.6z"/>
	<path class="st0" d="M72.2,123.7l0.5-0.1L72.2,123.7L72.2,123.7z"/>
	<path class="st0" d="M93.6,80.3c4.6-3.2,8.8-6.3,12.5-9.5c-3.5-2.7-7.4-5.5-11.8-8.4C94.3,68.5,94,74.5,93.6,80.3z"/>
	<path class="st0" d="M104.3,86.5c0.9-5.2,1.5-10.5,1.8-15.7c-3.8,3.2-7.9,6.3-12.5,9.5L104.3,86.5z"/>
	<path class="st0" d="M104.3,86.5l-10.8-6.2c-0.4,5.2-1.1,10.4-2,15.6C96,93,100.3,89.8,104.3,86.5z"/>
	<path class="st0" d="M91.6,95.9c3.6,1.5,6.8,2.7,9.6,3.7c1.3-4.3,2.4-8.6,3.1-13.1C100.3,89.8,96,93,91.6,95.9z"/>
	<path class="st0" d="M88.8,107.8c4.3-2.5,8.4-5.2,12.4-8.3c-2.8-0.9-6-2.2-9.6-3.7C90.9,99.9,90,103.9,88.8,107.8z"/>
	<path class="st0" d="M97.3,109.2c1.6-3.1,2.9-6.3,3.9-9.6c-3.9,3-8.1,5.8-12.4,8.3C91.6,108.5,94.5,109,97.3,109.2z"/>
	<path class="st0" d="M85.8,115.9c4-1.9,7.9-4.2,11.6-6.7c-2.9-0.2-5.7-0.6-8.5-1.3C88,110.6,87,113.3,85.8,115.9z"/>
	<path class="st0" d="M85.8,115.9c2.5,0.1,5,0,7.5-0.4c1.6-1.9,3-4,4.1-6.3C93.6,111.7,89.8,113.9,85.8,115.9z"/>
	<path class="st0" d="M85.8,115.9c-0.8,1.7-1.8,3.2-3,4.6c3.6-1.4,7.1-3.1,10.5-5C90.8,115.9,88.3,116,85.8,115.9z"/>
	<path class="st0" d="M93.2,115.4c-3.4,1.9-6.9,3.6-10.5,5c1-0.1,1.9-0.3,2.7-0.5c2-0.8,4.1-1.8,6-2.8
		C92.1,116.6,92.7,116,93.2,115.4z"/>
	<path class="st0" d="M81.8,121.3c1.2-0.4,2.4-0.9,3.7-1.3c-0.9,0.2-1.8,0.4-2.7,0.5C82.4,120.8,82.1,121.1,81.8,121.3z"/>
	<path class="st0" d="M115.1,62.4c-2.8,3-5.8,5.8-9,8.4c3.1,2.3,5.8,4.5,8,6.5C114.7,72.3,115.1,67.4,115.1,62.4z"/>
	<path class="st0" d="M114.1,77.2c-2.2-2-4.9-4.2-8-6.5c-0.3,5.3-0.9,10.5-1.8,15.7C107.8,83.6,111.1,80.5,114.1,77.2z"/>
	<path class="st0" d="M104.3,86.5l7,4.1c1.2-4.4,2.1-8.8,2.7-13.3C111,80.5,107.8,83.6,104.3,86.5z"/>
	<path class="st0" d="M101.2,99.5c3.6-2.8,7-5.8,10.1-9l-7-4.1C103.6,90.9,102.6,95.3,101.2,99.5z"/>
	<path class="st0" d="M101.2,99.5c2,0.7,4.1,1.2,6.2,1.6c1.6-3.4,3-7,4-10.6C108.2,93.8,104.8,96.8,101.2,99.5z"/>
	<path class="st0" d="M97.3,109.2c3.6-2.4,6.9-5.1,10.1-8c-2.1-0.4-4.2-0.9-6.2-1.6C100.2,102.8,98.9,106.1,97.3,109.2z"/>
	<path class="st0" d="M102.8,108.8c1.8-2.4,3.3-5,4.6-7.7c-3.2,2.9-6.5,5.6-10.1,8C99.2,109.3,101,109.2,102.8,108.8z"/>
	<path class="st0" d="M97.3,109.2c-1.1,2.2-2.5,4.3-4.1,6.3c3.4-1.9,6.6-4.2,9.6-6.6C101,109.2,99.2,109.3,97.3,109.2z"/>
	<path class="st0" d="M93.2,115.4c0.8-0.2,1.5-0.3,2.3-0.6c2-1.3,3.9-2.6,5.8-4.1c0.5-0.6,1-1.2,1.5-1.9
		C99.8,111.3,96.6,113.5,93.2,115.4z"/>
	<path class="st0" d="M91.5,117.2c1.4-0.7,2.7-1.5,4-2.3c-0.8,0.2-1.5,0.4-2.3,0.6C92.7,116,92.1,116.6,91.5,117.2z"/>
	<path class="st0" d="M114.1,77.2c2.4-2.5,4.5-5.3,6.4-8.2c-1.6-2.4-3.4-4.6-5.4-6.7C115.1,67.4,114.8,72.3,114.1,77.2z"/>
	<path class="st0" d="M118.6,81.8c1-4.2,1.6-8.4,1.9-12.7c-1.9,2.9-4,5.6-6.4,8.2C115.7,78.6,117.2,80.2,118.6,81.8z"/>
	<path class="st0" d="M114.1,77.2c-0.6,4.5-1.5,8.9-2.7,13.3c2.7-2.7,5.1-5.6,7.2-8.8C117.2,80.2,115.7,78.6,114.1,77.2z"/>
	<path class="st0" d="M115.2,92.7c1.4-3.6,2.6-7.2,3.4-11c-2.2,3.1-4.6,6-7.2,8.8L115.2,92.7z"/>
	<path class="st0" d="M107.4,101.2c2.8-2.6,5.4-5.4,7.8-8.4l-3.8-2.2C110.3,94.2,109,97.7,107.4,101.2z"/>
	<path class="st0" d="M107.4,101.2c1.1,0.2,2.2,0.3,3.3,0.2c0.2-0.2,0.3-0.4,0.5-0.6c1.6-2.5,2.9-5.2,4.1-8
		C112.8,95.8,110.2,98.6,107.4,101.2z"/>
	<path class="st0" d="M107.4,101.2c-1.3,2.7-2.8,5.3-4.6,7.7c2.5-2,4.9-4.3,7.2-6.7l0.7-0.8C109.6,101.5,108.5,101.4,107.4,101.2z"
		/>
	<path class="st0" d="M102.8,108.8c0.3-0.1,0.7-0.2,1-0.3c2.2-2,4.3-4.1,6.2-6.4C107.8,104.6,105.4,106.8,102.8,108.8z"/>
	<path class="st0" d="M101.3,110.7c0.9-0.7,1.7-1.4,2.5-2.2c-0.3,0.1-0.7,0.2-1,0.3C102.3,109.5,101.8,110.1,101.3,110.7z"/>
	<path class="st0" d="M123.8,62.4c-0.9,2.4-2,4.6-3.4,6.7c1.1,1.5,1.9,3.2,2.5,4.9C123.5,70.2,123.8,66.3,123.8,62.4z"/>
	<path class="st0" d="M122.9,74c-0.6-1.7-1.4-3.4-2.5-4.9c-0.3,4.3-0.9,8.5-1.9,12.7C120.3,79.4,121.8,76.7,122.9,74z"/>
	<path class="st0" d="M118.6,81.8c0.7,0.8,1.3,1.7,1.8,2.7l0.5-1.4c0.9-3,1.6-6,2.1-9.1C121.8,76.7,120.3,79.3,118.6,81.8z"/>
	<path class="st0" d="M115.2,92.7c1.8-2.3,3.4-4.8,4.8-7.4c0.1-0.3,0.2-0.5,0.3-0.8c-0.4-1-1-1.9-1.8-2.7
		C117.7,85.5,116.6,89.2,115.2,92.7z"/>
	<path class="st0" d="M116.2,93.3c1.5-2.6,2.8-5.2,3.9-8c-1.4,2.6-3,5.1-4.9,7.4L116.2,93.3z"/>
	<path class="st0" d="M111.1,100.8c1.8-2.4,3.5-4.8,5-7.4l-1-0.6C114,95.5,112.7,98.2,111.1,100.8z"/>
	<path class="st0" d="M122.9,74c0.3-0.7,0.5-1.3,0.7-2c0.4-2.6,0.6-5.1,0.7-7.7c-0.1-0.6-0.3-1.3-0.6-1.9
		C123.8,66.2,123.5,70.1,122.9,74z"/>
	<path class="st0" d="M123.2,74.9c0.2-0.9,0.4-1.9,0.5-2.8c-0.2,0.6-0.5,1.3-0.7,2C123,74.3,123.1,74.6,123.2,74.9z"/>
	<path class="st0" d="M120.9,83.1c1-2.7,1.7-5.4,2.3-8.2c-0.1-0.3-0.1-0.6-0.2-0.9C122.5,77.1,121.8,80.1,120.9,83.1z"/>
	<path class="st0" d="M46,72l16.6-9.6L46,52.8C45.9,59.2,45.9,65.6,46,72z"/>
	<path class="st0" d="M62.6,62.4L46,72c5.5,3.3,11,6.5,16.6,9.6L62.6,62.4z"/>
	<path class="st0" d="M62.6,81.6C57,78.5,51.5,75.3,46,72c0.1,6.2,0.4,12.2,0.8,17.8C51.9,87.3,57.2,84.5,62.6,81.6z"/>
	<path class="st0" d="M62.6,98.1V81.6c-5.5,3-10.8,5.8-15.8,8.3C52,92.9,57.4,95.6,62.6,98.1z"/>
	<path class="st0" d="M46.8,89.8c0.3,5.3,0.8,10.1,1.3,14.4c4.6-1.7,9.5-3.7,14.5-6.1C57.4,95.6,52,92.9,46.8,89.8z"/>
	<path class="st0" d="M48.1,104.3c4.7,2.4,9.5,4.5,14.5,6.3V98.1C57.6,100.5,52.7,102.6,48.1,104.3z"/>
	<path class="st0" d="M48.1,104.3c0.5,3.9,1,7.3,1.6,10.2c4.4-1,8.7-2.3,12.9-3.8C57.7,108.8,52.8,106.6,48.1,104.3z"/>
	<path class="st0" d="M49.7,114.4c4.2,1.7,8.5,3.2,12.9,4.3v-8.1C58.4,112.2,54.1,113.4,49.7,114.4z"/>
	<path class="st0" d="M49.7,114.4c0.4,2.1,1,4.2,1.7,6.2c3.8-0.3,7.5-1,11.2-1.9C58.2,117.6,53.9,116.2,49.7,114.4z"/>
	<path class="st0" d="M51.4,120.6c3.7,1.1,7.4,2,11.2,2.5v-4.4C58.9,119.7,55.2,120.3,51.4,120.6z"/>
	<path class="st0" d="M62.6,123.1c-3.8-0.5-7.5-1.4-11.2-2.5c0.4,1.1,0.9,2.1,1.6,3C56.2,123.8,59.4,123.6,62.6,123.1z"/>
	<path class="st0" d="M52.9,123.6l1.9,0.4c2.5,0.3,5,0.5,7.5,0.5h0.2v-1.3C59.4,123.6,56.2,123.8,52.9,123.6z"/>
	<path class="st0" d="M52.9,123.6c0,0,0.1,0.1,0.1,0.1c0.6,0.1,1.2,0.2,1.8,0.2L52.9,123.6z"/>
	<path class="st0" d="M46,52.8c-5.3,3.2-10.3,6.4-15.1,9.6c4.7,3.1,9.8,6.4,15.1,9.6C45.9,65.6,45.9,59.2,46,52.8z"/>
	<path class="st0" d="M46,72c-5.3-3.2-10.4-6.4-15.1-9.6c0,6.1,0.2,12.1,0.7,17.9L46,72z"/>
	<path class="st0" d="M46,72l-14.4,8.3c4.8,3.3,9.9,6.5,15.1,9.6C46.4,84.2,46.2,78.2,46,72z"/>
	<path class="st0" d="M31.6,80.3c0.4,5.2,1.1,10.5,2,15.6c4-1.7,8.5-3.8,13.2-6.1C41.5,86.8,36.4,83.6,31.6,80.3z"/>
	<path class="st0" d="M33.6,95.9c4.7,3.1,9.5,5.8,14.5,8.4c-0.5-4.3-1-9.2-1.3-14.4C42,92.1,37.6,94.2,33.6,95.9z"/>
	<path class="st0" d="M33.6,95.9c0.7,4.1,1.6,8.1,2.8,12c4-1,7.9-2.2,11.8-3.6C43.1,101.8,38.3,99,33.6,95.9z"/>
	<path class="st0" d="M36.3,107.9c4.3,2.5,8.8,4.7,13.4,6.6c-0.6-2.9-1.1-6.3-1.6-10.2C44.3,105.7,40.3,106.9,36.3,107.9z"/>
	<path class="st0" d="M36.3,107.9c0.8,2.8,1.8,5.4,3.1,8c3.5-0.2,6.9-0.7,10.3-1.4C45.1,112.5,40.7,110.3,36.3,107.9z"/>
	<path class="st0" d="M39.4,115.9c3.9,1.9,7.9,3.5,12,4.7c-0.7-2-1.3-4.1-1.7-6.2C46.4,115.2,42.9,115.7,39.4,115.9z"/>
	<path class="st0" d="M51.4,120.6c-4.1-1.3-8.1-2.9-12-4.7c0.8,1.7,1.8,3.2,3,4.6C45.4,120.8,48.4,120.9,51.4,120.6z"/>
	<path class="st0" d="M42.5,120.5c3.4,1.3,6.9,2.4,10.5,3.1c-0.7-0.9-1.2-1.9-1.6-3C48.4,120.9,45.4,120.8,42.5,120.5z"/>
	<path class="st0" d="M42.5,120.5c0.4,0.4,0.8,0.8,1.2,1.1c2.7,0.9,5.4,1.5,8.2,2l1.1,0.1C49.4,122.9,45.9,121.8,42.5,120.5z"/>
	<path class="st0" d="M51.8,123.5l1.3,0.2c0,0-0.1-0.1-0.1-0.1L51.8,123.5z"/>
	<path class="st0" d="M19.1,70.8c3.5-2.6,7.5-5.4,11.9-8.4c-4.4-2.9-8.4-5.8-11.9-8.4C18.8,59.6,18.8,65.2,19.1,70.8z"/>
	<path class="st0" d="M30.9,62.4c-4.4,2.9-8.4,5.7-11.9,8.4c3.8,3.2,8,6.3,12.6,9.5C31.2,74.5,30.9,68.5,30.9,62.4z"/>
	<path class="st0" d="M19.1,70.8c0.3,5.3,0.9,10.5,1.8,15.7l10.8-6.2C27.1,77.1,22.8,73.9,19.1,70.8z"/>
	<path class="st0" d="M31.6,80.3l-10.8,6.2c4.1,3.4,8.3,6.5,12.8,9.4C32.8,91.1,32.1,85.8,31.6,80.3z"/>
	<path class="st0" d="M20.8,86.5c0.7,4.4,1.8,8.8,3.1,13.1c2.8-0.9,6-2.2,9.7-3.7C29.2,93,24.9,89.9,20.8,86.5z"/>
	<path class="st0" d="M23.9,99.6c3.9,3,8.1,5.8,12.4,8.3c-1.2-3.9-2.1-7.9-2.8-12C30,97.4,26.8,98.7,23.9,99.6z"/>
	<path class="st0" d="M23.9,99.6c1,3.3,2.3,6.5,3.9,9.6c2.9-0.2,5.7-0.7,8.5-1.3C32,105.4,27.9,102.6,23.9,99.6z"/>
	<path class="st0" d="M27.8,109.2c3.7,2.5,7.6,4.7,11.6,6.7c-1.3-2.6-2.3-5.2-3.1-8C33.5,108.6,30.7,109,27.8,109.2z"/>
	<path class="st0" d="M39.4,115.9c-4-1.9-7.9-4.2-11.6-6.7c1.1,2.2,2.5,4.3,4.1,6.3C34.4,115.9,36.9,116,39.4,115.9z"/>
	<path class="st0" d="M31.9,115.5c3.4,1.9,6.9,3.6,10.5,5c-1.2-1.4-2.2-2.9-3-4.6C36.9,116,34.4,115.9,31.9,115.5z"/>
	<path class="st0" d="M31.9,115.5c0.7,0.8,1.5,1.6,2.3,2.3c1.5,0.8,3,1.5,4.6,2.1c1.2,0.3,2.4,0.5,3.6,0.7
		C38.8,119.1,35.3,117.4,31.9,115.5z"/>
	<path class="st0" d="M38.8,119.8c1.6,0.6,3.2,1.2,4.8,1.7c-0.4-0.3-0.8-0.7-1.2-1.1C41.2,120.4,40,120.1,38.8,119.8z"/>
	<path class="st0" d="M19.1,70.8c-0.3-5.6-0.3-11.2,0-16.8c-3.2,2.6-6.2,5.4-9,8.4C12.9,65.3,15.9,68.1,19.1,70.8z"/>
	<path class="st0" d="M19.1,70.8c-3.2-2.6-6.2-5.4-9-8.4c0,5,0.3,9.9,1,14.9C13.3,75.3,15.9,73.1,19.1,70.8z"/>
	<path class="st0" d="M11,77.3c3.1,3.3,6.3,6.4,9.8,9.2C19.9,81.3,19.3,76,19,70.8C15.9,73.1,13.3,75.3,11,77.3z"/>
	<path class="st0" d="M11,77.3c0.6,4.5,1.5,8.9,2.7,13.3l7.1-4.1C17.3,83.6,14.1,80.6,11,77.3z"/>
	<path class="st0" d="M20.8,86.5l-7.1,4.1c3.2,3.2,6.6,6.2,10.2,9C22.6,95.3,21.6,90.9,20.8,86.5z"/>
	<path class="st0" d="M13.8,90.6c1,3.7,2.4,7.2,4,10.7c2.1-0.4,4.2-0.9,6.2-1.6C20.4,96.8,17,93.8,13.8,90.6z"/>
	<path class="st0" d="M17.7,101.2c3.2,2.9,6.5,5.6,10.1,8c-1.6-3.1-2.9-6.3-3.9-9.6C21.9,100.3,19.8,100.8,17.7,101.2z"/>
	<path class="st0" d="M27.8,109.2c-3.6-2.4-6.9-5.1-10.1-8c1.3,2.7,2.8,5.3,4.6,7.7C24.1,109.2,26,109.4,27.8,109.2z"/>
	<path class="st0" d="M22.3,108.9c3,2.4,6.3,4.6,9.6,6.6c-1.6-1.9-3-4-4.1-6.3C26,109.4,24.1,109.3,22.3,108.9z"/>
	<path class="st0" d="M22.3,108.9c0.8,1.1,1.7,2.1,2.6,3c1.3,1,2.6,1.9,3.9,2.7c1,0.4,2.1,0.7,3.1,0.9
		C28.6,113.5,25.3,111.3,22.3,108.9z"/>
	<path class="st0" d="M31.9,115.5c-1.1-0.2-2.1-0.5-3.1-0.9c1.8,1.1,3.6,2.2,5.4,3.1C33.4,117,32.6,116.3,31.9,115.5z"/>
	<path class="st0" d="M4.6,69.1c1.6-2.4,3.4-4.6,5.4-6.7c-2-2.1-3.8-4.3-5.5-6.7C4.3,60.1,4.3,64.6,4.6,69.1z"/>
	<path class="st0" d="M10.1,62.4c-2,2.1-3.8,4.3-5.4,6.7c1.9,2.9,4,5.6,6.4,8.2C10.4,72.3,10,67.4,10.1,62.4z"/>
	<path class="st0" d="M11,77.3c-2.4-2.5-4.5-5.3-6.4-8.2c0.3,4.3,1,8.5,1.9,12.7C7.9,80.2,9.4,78.7,11,77.3z"/>
	<path class="st0" d="M6.5,81.8c2.2,3.1,4.6,6.1,7.3,8.8c-1.2-4.4-2.2-8.8-2.8-13.3C9.4,78.7,7.9,80.2,6.5,81.8z"/>
	<path class="st0" d="M6.5,81.8c0.8,3.8,2,7.4,3.4,11l3.9-2.2C11.1,87.9,8.7,84.9,6.5,81.8z"/>
	<path class="st0" d="M17.7,101.2c-1.6-3.4-3-7-4-10.7l-3.8,2.2C12.3,95.8,14.9,98.6,17.7,101.2z"/>
	<path class="st0" d="M17.7,101.2c-2.8-2.6-5.4-5.4-7.8-8.4c1.2,3,2.7,5.9,4.4,8.6C15.5,101.5,16.6,101.5,17.7,101.2z"/>
	<path class="st0" d="M14.3,101.4c2.5,2.7,5.1,5.2,8,7.5c-1.8-2.4-3.3-5-4.6-7.7C16.6,101.5,15.5,101.5,14.3,101.4z"/>
	<path class="st0" d="M14.3,101.4c0.4,0.6,0.8,1.2,1.2,1.7c1.6,1.9,3.3,3.6,5.1,5.3c0.5,0.2,1.1,0.4,1.7,0.6
		C19.4,106.6,16.8,104.1,14.3,101.4z"/>
	<path class="st0" d="M22.3,108.9c-0.6-0.1-1.2-0.3-1.7-0.6c1.4,1.2,2.8,2.4,4.3,3.5C24,110.9,23.1,109.9,22.3,108.9z"/>
	<path class="st0" d="M4.6,55.7c-1.4,2.1-2.5,4.3-3.4,6.7c0.9,2.4,2,4.6,3.4,6.7C4.3,64.6,4.3,60.1,4.6,55.7z"/>
	<path class="st0" d="M1.2,62.4c0,3.9,0.3,7.8,0.9,11.6c0.6-1.7,1.4-3.4,2.5-4.9C3.2,67,2.1,64.7,1.2,62.4z"/>
	<path class="st0" d="M4.6,69.1c-1.1,1.5-1.9,3.2-2.5,4.9c1.2,2.7,2.7,5.4,4.4,7.8C5.5,77.6,4.9,73.4,4.6,69.1z"/>
	<path class="st0" d="M2.1,74c0.6,3.6,1.4,7.2,2.5,10.7c0.4-1.1,1.1-2,1.8-2.9C4.8,79.4,3.3,76.7,2.1,74z"/>
	<path class="st0" d="M4.7,84.7c1.5,2.9,3.3,5.6,5.3,8.1c-1.4-3.6-2.6-7.2-3.4-11C5.7,82.6,5.1,83.6,4.7,84.7z"/>
	<path class="st0" d="M4.7,84.7c0.6,1.7,1.2,3.3,1.8,4.9c0.7,1.3,1.4,2.7,2.2,4l1.3-0.7C7.9,90.3,6.2,87.5,4.7,84.7z"/>
	<path class="st0" d="M9.9,92.8l-1.3,0.7c0.9,1.5,1.8,2.9,2.8,4.3c0.9,1.2,1.9,2.4,2.9,3.5C12.6,98.6,11.1,95.8,9.9,92.8z"/>
	<path class="st0" d="M11.4,97.9c0.8,1.2,1.7,2.3,2.6,3.4c0.1,0,0.2,0.1,0.4,0.1C13.3,100.2,12.3,99,11.4,97.9z"/>
	<path class="st0" d="M14,101.3c0.5,0.6,1,1.2,1.5,1.8c-0.4-0.5-0.8-1.1-1.2-1.7C14.2,101.3,14.1,101.3,14,101.3z"/>
	<path class="st0" d="M0.3,58.8c-0.1,1.2-0.1,2.4-0.1,3.6s0,2.4,0.1,3.6c0.2-1.2,0.5-2.4,0.9-3.6C0.8,61.2,0.5,60,0.3,58.8z"/>
	<path class="st0" d="M1.2,62.4c-0.4,1.2-0.7,2.4-0.9,3.6c0.1,1.3,0.2,2.6,0.3,3.8c0.4,1.4,0.8,2.8,1.4,4.2
		C1.5,70.2,1.2,66.3,1.2,62.4z"/>
	<path class="st0" d="M0.7,69.8c0.2,2.1,0.6,4.1,1,6.2c0.1-0.7,0.2-1.3,0.4-1.9C1.5,72.6,1.1,71.2,0.7,69.8z"/>
	<path class="st0" d="M2.1,74c-0.2,0.6-0.3,1.3-0.4,1.9c0.5,2.1,1.1,4.2,1.7,6.2c0.4,0.8,0.7,1.7,1.2,2.5C3.5,81.2,2.7,77.6,2.1,74z
		"/>
	<path class="st0" d="M3.5,82.2c0.3,1,0.7,2,1.1,2.9c0-0.1,0.1-0.3,0.1-0.4C4.2,83.8,3.8,83,3.5,82.2z"/>
	<path class="st0" d="M4.6,85.1c0.6,1.5,1.2,3,1.9,4.4c-0.7-1.5-1.3-3.2-1.8-4.9C4.6,84.8,4.6,84.9,4.6,85.1z"/>
	<path class="st0" d="M62.6,43.2C57,46.3,51.5,49.5,46,52.8l16.6,9.6L62.6,43.2z"/>
	<path class="st0" d="M46.8,35c-0.4,5.7-0.6,11.6-0.8,17.8c5.5-3.3,11-6.5,16.6-9.6C57.2,40.2,51.9,37.5,46.8,35z"/>
	<path class="st0" d="M46.8,35c5.1,2.5,10.4,5.3,15.8,8.3V26.7C57.4,29.1,52,31.9,46.8,35z"/>
	<path class="st0" d="M48.1,20.5c-0.5,4.4-1,9.2-1.3,14.5c5.3-3,10.6-5.8,15.8-8.3C57.6,24.2,52.7,22.2,48.1,20.5z"/>
	<path class="st0" d="M62.6,26.6V14.1c-5,1.8-9.8,4-14.5,6.3C52.7,22.2,57.6,24.2,62.6,26.6z"/>
	<path class="st0" d="M62.6,14.1c-4.2-1.6-8.5-2.9-12.9-3.9c-0.6,2.9-1.1,6.3-1.6,10.2C52.8,18.1,57.7,16,62.6,14.1z"/>
	<path class="st0" d="M62.6,14.1V6c-4.4,1.1-8.7,2.6-12.9,4.3C54.1,11.3,58.4,12.6,62.6,14.1z"/>
	<path class="st0" d="M62.6,6c-3.7-0.9-7.4-1.6-11.2-1.9c-0.7,2-1.3,4.1-1.7,6.2C53.9,8.6,58.2,7.1,62.6,6z"/>
	<path class="st0" d="M62.6,6V1.6C58.8,2.1,55,2.9,51.4,4.1C55.2,4.4,58.9,5.1,62.6,6z"/>
	<path class="st0" d="M62.6,1.6c-3.2-0.5-6.4-0.6-9.7-0.5c-0.7,0.9-1.2,1.9-1.6,3C55,2.9,58.8,2.1,62.6,1.6z"/>
	<path class="st0" d="M62.6,1.6V0.2h-0.2c-2.5,0-5,0.2-7.4,0.5c-0.7,0.1-1.3,0.2-2,0.4C56.1,0.9,59.4,1.1,62.6,1.6z"/>
	<path class="st0" d="M54.9,0.7c-0.6,0.1-1.2,0.1-1.8,0.2C53,1,53,1,52.9,1.1C53.6,0.9,54.3,0.8,54.9,0.7z"/>
	<path class="st0" d="M30.9,62.4c4.7-3.1,9.8-6.4,15.1-9.6l-14.4-8.3C31.2,50.3,30.9,56.3,30.9,62.4z"/>
	<path class="st0" d="M31.6,44.5L46,52.8c0.1-6.2,0.4-12.2,0.8-17.9C41.5,38,36.4,41.2,31.6,44.5z"/>
	<path class="st0" d="M33.6,28.9c-0.8,4.8-1.5,10.1-1.9,15.6c4.8-3.3,9.9-6.5,15.1-9.5C42,32.6,37.6,30.6,33.6,28.9z"/>
	<path class="st0" d="M33.6,28.9c4.1,1.7,8.5,3.8,13.2,6.1c0.3-5.3,0.8-10.1,1.3-14.5C43.1,23,38.3,25.8,33.6,28.9z"/>
	<path class="st0" d="M48.1,20.5c-3.8-1.4-7.8-2.6-11.8-3.6c-1.2,3.9-2.1,7.9-2.8,12C38.3,25.8,43.1,23,48.1,20.5z"/>
	<path class="st0" d="M49.7,10.3c-4.6,1.9-9.1,4.1-13.4,6.6c4,1,7.9,2.2,11.8,3.6C48.6,16.6,49.1,13.2,49.7,10.3z"/>
	<path class="st0" d="M49.7,10.3C46.3,9.5,42.9,9,39.4,8.8c-1.3,2.6-2.3,5.3-3.1,8.1C40.6,14.4,45.1,12.2,49.7,10.3z"/>
	<path class="st0" d="M51.4,4.1c-4.1,1.3-8.1,2.9-12,4.7c3.5,0.2,6.9,0.7,10.3,1.5C50.1,8.2,50.7,6.1,51.4,4.1z"/>
	<path class="st0" d="M51.4,4.1c-3-0.3-6-0.2-8.9,0.1c-1.2,1.4-2.2,2.9-3,4.6C43.3,6.9,47.3,5.4,51.4,4.1z"/>
	<path class="st0" d="M51.4,4.1c0.4-1.1,0.9-2.1,1.6-3c-3.6,0.8-7.1,1.8-10.5,3.1C45.4,3.9,48.4,3.8,51.4,4.1z"/>
	<path class="st0" d="M52.9,1.1l-1.2,0.1c-2.8,0.5-5.5,1.2-8.1,2c-0.4,0.3-0.8,0.7-1.2,1.1C45.8,2.9,49.4,1.8,52.9,1.1z"/>
	<path class="st0" d="M53.1,0.9l-1.3,0.2l1.2-0.1C53,1,53,1,53.1,0.9z"/>
	<path class="st0" d="M31.6,44.5c-4.6,3.2-8.8,6.3-12.6,9.5c3.5,2.6,7.5,5.5,11.9,8.4C30.9,56.3,31.2,50.3,31.6,44.5z"/>
	<path class="st0" d="M20.8,38.3c-0.9,5.2-1.5,10.5-1.8,15.8c3.8-3.2,8-6.3,12.6-9.5L20.8,38.3z"/>
	<path class="st0" d="M20.8,38.3l10.8,6.3c0.5-5.6,1.1-10.8,1.9-15.6C29.1,31.7,24.9,34.9,20.8,38.3z"/>
	<path class="st0" d="M23.9,25.2c-1.3,4.3-2.4,8.7-3.1,13.1c4.1-3.4,8.3-6.5,12.8-9.4C30,27.3,26.8,26.1,23.9,25.2z"/>
	<path class="st0" d="M36.3,16.9c-4.3,2.5-8.5,5.2-12.4,8.3c2.8,0.9,6,2.2,9.7,3.7C34.3,24.8,35.2,20.8,36.3,16.9z"/>
	<path class="st0" d="M36.3,16.9c-2.8-0.7-5.7-1.2-8.5-1.4c-1.6,3.1-2.9,6.3-3.9,9.6C27.9,22.1,32,19.4,36.3,16.9z"/>
	<path class="st0" d="M39.4,8.8c-4,1.9-7.9,4.2-11.6,6.7c2.9,0.2,5.7,0.7,8.5,1.4C37.1,14.1,38.1,11.4,39.4,8.8z"/>
	<path class="st0" d="M39.4,8.8c-2.5-0.2-5,0-7.5,0.4c-1.6,1.9-3,4-4.1,6.3C31.5,13,35.4,10.8,39.4,8.8z"/>
	<path class="st0" d="M39.4,8.8c0.8-1.7,1.8-3.2,3-4.6c-3.6,1.4-7.1,3.1-10.5,5C34.4,8.8,36.9,8.6,39.4,8.8z"/>
	<path class="st0" d="M31.9,9.2c3.4-1.9,6.9-3.6,10.5-5c-1.2,0.2-2.4,0.4-3.6,0.7c-1.6,0.6-3.1,1.3-4.6,2.1
		C33.4,7.7,32.6,8.4,31.9,9.2z"/>
	<path class="st0" d="M43.6,3.1c-1.6,0.5-3.3,1.1-4.8,1.8c1.2-0.3,2.4-0.5,3.6-0.7C42.8,3.8,43.2,3.4,43.6,3.1z"/>
	<path class="st0" d="M10.1,62.4c2.8-3,5.8-5.8,9-8.4c-3.1-2.4-5.8-4.5-8-6.5C10.4,52.4,10.1,57.4,10.1,62.4z"/>
	<path class="st0" d="M11,47.5c2.2,2,4.9,4.2,8,6.5c0.3-5.3,0.9-10.5,1.8-15.8C17.3,41.1,14,44.2,11,47.5z"/>
	<path class="st0" d="M20.8,38.3l-7.1-4.1c-1.2,4.4-2.1,8.8-2.8,13.3C14.1,44.2,17.3,41.1,20.8,38.3z"/>
	<path class="st0" d="M23.9,25.2c-3.6,2.8-7,5.8-10.2,9l7.1,4.1C21.6,33.8,22.6,29.4,23.9,25.2z"/>
	<path class="st0" d="M17.7,23.5c-1.6,3.4-2.9,7-3.9,10.7c3.2-3.2,6.6-6.2,10.2-9C21.9,24.5,19.8,23.9,17.7,23.5z"/>
	<path class="st0" d="M27.8,15.5c-3.6,2.4-6.9,5.1-10.1,8c2.1,0.4,4.2,1,6.2,1.7C24.9,21.8,26.2,18.6,27.8,15.5z"/>
	<path class="st0" d="M27.8,15.5c-1.8-0.1-3.7,0-5.5,0.3c-1.8,2.4-3.3,5-4.6,7.7C20.9,20.6,24.2,17.9,27.8,15.5z"/>
	<path class="st0" d="M27.8,15.5c1.1-2.2,2.5-4.3,4.1-6.3c-3.4,1.9-6.6,4.1-9.6,6.6C24.1,15.5,26,15.4,27.8,15.5z"/>
	<path class="st0" d="M22.3,15.8c3-2.4,6.3-4.6,9.6-6.6c-1.1,0.2-2.1,0.5-3.2,0.9c-1.3,0.9-2.6,1.8-3.9,2.7
		C23.9,13.8,23.1,14.8,22.3,15.8z"/>
	<path class="st0" d="M34.2,7c-1.9,1-3.7,2-5.5,3.1c1-0.4,2.1-0.7,3.2-0.9C32.6,8.4,33.4,7.7,34.2,7z"/>
	<path class="st0" d="M11,47.5c-2.4,2.5-4.5,5.3-6.4,8.2c1.6,2.4,3.4,4.6,5.4,6.7C10,57.4,10.4,52.4,11,47.5z"/>
	<path class="st0" d="M6.5,42.9c-1,4.2-1.6,8.5-1.9,12.7c1.9-2.9,4-5.6,6.4-8.2C9.4,46.1,7.9,44.6,6.5,42.9z"/>
	<path class="st0" d="M6.5,42.9c1.4,1.6,2.9,3.1,4.5,4.6c0.6-4.5,1.5-9,2.7-13.3C11.1,36.9,8.6,39.8,6.5,42.9z"/>
	<path class="st0" d="M13.8,34.2l-3.9-2.2c-1.4,3.6-2.6,7.2-3.4,11C8.7,39.8,11.1,36.9,13.8,34.2z"/>
	<path class="st0" d="M17.7,23.5c-2.8,2.6-5.4,5.4-7.8,8.4l3.9,2.2C14.8,30.5,16.1,26.9,17.7,23.5z"/>
	<path class="st0" d="M17.7,23.5c-1.1-0.2-2.3-0.3-3.4-0.1c-1.7,2.7-3.2,5.6-4.4,8.6C12.3,28.9,14.9,26.1,17.7,23.5z"/>
	<path class="st0" d="M17.7,23.5c1.3-2.7,2.8-5.3,4.6-7.7c-2.9,2.3-5.5,4.8-8,7.5C15.4,23.2,16.6,23.3,17.7,23.5z"/>
	<path class="st0" d="M22.3,15.8c-0.6,0.1-1.2,0.3-1.7,0.5c-1.8,1.6-3.5,3.4-5.1,5.2c-0.4,0.6-0.8,1.1-1.2,1.7
		C16.7,20.6,19.4,18.1,22.3,15.8z"/>
	<path class="st0" d="M24.9,12.8c-1.5,1.1-2.9,2.3-4.3,3.6c0.5-0.2,1.1-0.4,1.7-0.6C23.1,14.8,23.9,13.8,24.9,12.8z"/>
	<path class="st0" d="M1.2,62.4c0.9-2.4,2-4.6,3.4-6.7c-1-1.5-1.9-3.2-2.5-4.9C1.5,54.6,1.2,58.5,1.2,62.4z"/>
	<path class="st0" d="M2.1,50.7c0.6,1.8,1.4,3.4,2.5,4.9c0.3-4.3,0.9-8.5,1.9-12.7C4.8,45.4,3.3,48,2.1,50.7z"/>
	<path class="st0" d="M4.6,40.1c-1.1,3.5-2,7.1-2.5,10.7c1.2-2.7,2.7-5.4,4.4-7.8C5.7,42.1,5.1,41.1,4.6,40.1z"/>
	<path class="st0" d="M9.9,31.9c-2,2.5-3.7,5.3-5.3,8.1c0.5,1.1,1.1,2,1.8,2.9C7.3,39.2,8.5,35.5,9.9,31.9z"/>
	<path class="st0" d="M9.9,31.9l-1.3-0.7c-0.8,1.3-1.4,2.6-2.1,4c-0.7,1.6-1.3,3.2-1.8,4.9C6.1,37.2,7.9,34.5,9.9,31.9z"/>
	<path class="st0" d="M14.3,23.3c-1.1,1.2-2,2.4-3,3.5c-1,1.4-1.9,2.8-2.8,4.3l1.3,0.7C11.1,28.9,12.6,26.1,14.3,23.3z"/>
	<path class="st0" d="M13.9,23.4c-0.9,1.1-1.8,2.3-2.6,3.5c0.9-1.2,1.9-2.4,3-3.5C14.2,23.4,14.1,23.4,13.9,23.4z"/>
	<path class="st0" d="M15.5,21.6c-0.5,0.6-1,1.2-1.5,1.8c0.1,0,0.2-0.1,0.4-0.1C14.7,22.7,15.1,22.2,15.5,21.6z"/>
	<path class="st0" d="M2.1,50.7C1.5,52.1,1,53.5,0.7,55c-0.2,1.2-0.3,2.5-0.3,3.8c0.2,1.2,0.5,2.4,0.9,3.6
		C1.2,58.5,1.5,54.6,2.1,50.7z"/>
	<path class="st0" d="M1.7,48.8c-0.4,2-0.8,4.1-1,6.2c0.4-1.4,0.8-2.9,1.4-4.2C1.9,50.1,1.8,49.5,1.7,48.8z"/>
	<path class="st0" d="M4.6,40.1c-0.4,0.8-0.8,1.7-1.2,2.5c-0.7,2-1.2,4.1-1.7,6.2c0.1,0.7,0.2,1.3,0.4,1.9
		C2.7,47.1,3.5,43.5,4.6,40.1z"/>
	<path class="st0" d="M4.5,39.6c-0.4,1-0.7,2-1.1,2.9c0.4-0.8,0.7-1.7,1.2-2.5C4.6,39.9,4.6,39.8,4.5,39.6z"/>
	<path class="st0" d="M6.5,35.2c-0.7,1.5-1.3,3-2,4.5c0,0.1,0.1,0.3,0.1,0.4C5.2,38.4,5.8,36.7,6.5,35.2z"/>
</g>
</svg>
