<svg xmlns="http://www.w3.org/2000/svg"><symbol id="m5Uwm1TIU2AybYYSfMaSQ" viewBox="0 0 163.03 68.67"><path d="M0 43.22l.1-.76L2 41.9l5.75-15.02 1.34-.3 5.27 15.4 1.77.4-.1.84H9.97l.13-.76 2.22-.56-1.63-4.64H5.12l-1.72 4.7 2.43.42-.13.83H0zm5.48-7h4.9L8 29.3l-2.53 6.9zm22.74 7l.1-.76 2.2-.5v-13.8l-2.36-.5.12-.76h6.6l-.1.76-2.3.45v14.13h6.4l1.38-3.5.84.13-.45 4.34h-12.4zm24.82-15.58l.1-.75h6.57l-.12.75-2.26.4v14l2.45.35-.13.83h-6.52l.1-.76 2.13-.5V28.08l-2.3-.44zm18.86 7.52c0-1.67.34-3.16 1-4.47s1.64-2.34 2.9-3.08 2.7-1.1 4.32-1.1c1.12 0 2.14.22 3.06.66s1.68 1.05 2.28 1.82 1.06 1.67 1.38 2.7a10.95 10.95 0 0 1 .49 3.29c0 1.26-.23 2.46-.7 3.6-.46 1.15-1.17 2.15-2.13 3.02a7.41 7.41 0 0 1-3.35 1.75c.55 1.22 1.24 2.1 2.07 2.63s2.05.9 3.65 1.1c-.03.38-.07.65-.13.8-.55.26-1.27.4-2.15.4-1.17 0-2.18-.45-3-1.34s-1.34-2.04-1.52-3.44a5.58 5.58 0 0 1-.94.08 6.49 6.49 0 0 1-3.72-1.12c-1.1-.75-1.97-1.76-2.58-3.04s-.92-2.7-.92-4.25zm2.06-.73a10.71 10.71 0 0 0 .25 2.35 9.11 9.11 0 0 0 .77 2.18c.35.7.78 1.3 1.28 1.82s1.1.95 1.82 1.27 1.5.5 2.33.54c1.06-.24 1.96-.7 2.7-1.4s1.3-1.52 1.63-2.45.5-1.92.5-2.98c0-1.5-.23-2.85-.7-4.1-.46-1.24-1.15-2.23-2.05-3a4.7 4.7 0 0 0-3.1-1.13c-1.7 0-3.05.62-4 1.87-.95 1.27-1.43 2.94-1.43 5.02zm25.3-6.8l.12-.75h6.53l-.1.75-2.22.4v8.57c0 3.76 1.57 5.64 4.72 5.64 1.43 0 2.54-.43 3.33-1.3s1.17-2.15 1.17-3.86v-9.03l-2.4-.43.1-.75h5.92l-.12.75-2.18.4-.07 8.57c-.02 2.3-.52 4.05-1.52 5.2s-2.6 1.75-4.78 1.75c-4.08 0-6.13-2.15-6.13-6.46v-9.04l-2.38-.44zm29.13 0l.1-.75h6.57l-.12.75-2.26.4v14l2.45.35-.13.83h-6.52l.1-.76 2.13-.5V28.08l-2.3-.44zm18.8 15.58l.14-.76 2.24-.56V28.42l-2.27-.34.13-.73c2.72-.43 4.88-.64 6.47-.64 1.36 0 2.57.15 3.63.45 1.07.3 1.94.7 2.62 1.18a6.55 6.55 0 0 1 1.7 1.78c.46.7.75 1.4.93 2.15s.27 1.53.27 2.38c0 .9-.12 1.78-.37 2.62a7.73 7.73 0 0 1-1.15 2.34 7.84 7.84 0 0 1-1.92 1.89c-.76.53-1.68.96-2.77 1.27s-2.3.47-3.6.47h-6.05zm4.3-1.04h2.13c2.27 0 4.06-.63 5.35-1.9 1.3-1.26 1.94-2.9 1.94-4.93 0-1.1-.16-2.13-.48-3.05s-.78-1.73-1.4-2.4c-.6-.7-1.4-1.22-2.35-1.6s-2.04-.57-3.26-.57l-1.94.07v14.4zM20.08 0H139.6v3.32H20.08zm0 65.35H139.6v3.32H20.08z"/></symbol></svg>