<svg xmlns="http://www.w3.org/2000/svg" xmlns:xlink="http://www.w3.org/1999/xlink" viewBox="0 0 262.49 72.65"><path d="M34.8 40a4.2 4.2 0 0 1-.35 1.07c-.15.32-.35.6-.58.88a5.27 5.27 0 0 1-.8.76c-.57.43-1.22.76-1.95 1-.73.22-1.53.33-2.38.33-2.24 0-3.9-.6-5.03-1.84-1.1-1.23-1.67-3.18-1.67-5.85 0-2.56.57-4.5 1.7-5.77s2.8-1.92 4.98-1.92c1.02 0 1.9.08 2.67.24s1.4.44 1.9.82.88.9 1.13 1.55c.25.64.38 1.44.38 2.4v.53c0 .15-.03.28-.1.4a.31.31 0 0 1-.28.16h-4.1c-.07 0-.14-.05-.22-.15s-.14-.2-.16-.32c-.04-.4-.1-.66-.17-.8a5.2 5.2 0 0 0-.23-.4 1.1 1.1 0 0 0-.81-.33c-.6 0-1.04.3-1.33.92s-.44 1.5-.44 2.7.15 2.08.44 2.7.74.92 1.35.92a2.93 2.93 0 0 0 .53-.04.91.91 0 0 0 .42-.2c.12-.1.2-.27.28-.5s.12-.52.13-.9v.02c0-.18.04-.3.1-.4s.17-.13.27-.13h4.05c.1 0 .2.05.27.16a.72.72 0 0 1 .1.4v.3a7.69 7.69 0 0 1-.11 1.33zm16.13 2.54C49.9 43.52 48.4 44 46.45 44c-1.98 0-3.5-.5-4.52-1.5-1.03-1-1.55-2.58-1.55-4.74v-8.22c0-.18.04-.3.12-.4.1-.1.2-.13.3-.13h3.85c.1 0 .2.05.27.14.07.1.1.23.1.4v7.6c0 .9.12 1.58.35 2 .23.44.6.65 1.14.65.5 0 .86-.2 1.1-.64.22-.43.34-1.1.34-1.98v-7.65c0-.18.04-.3.1-.4.07-.1.16-.14.25-.14h3.8c.1 0 .2.05.28.14.08.1.12.23.12.4v8.4c0 2.08-.52 3.6-1.57 4.6zm16.1.96c-.07.1-.17.16-.27.16H58.4c-.1 0-.2-.05-.28-.16s-.12-.24-.12-.4V29.55c0-.18.04-.3.12-.4a.35.35 0 0 1 .28-.14h4c.1 0 .2.05.27.14.07.1.1.23.1.4v10.3h4c.1 0 .2.06.27.17.07.12.1.25.1.4v2.7a.56.56 0 0 1-.1.38zm16.08-5.53c-.64.88-1.6 1.32-2.88 1.32h-2.8v3.8c0 .15-.04.28-.1.4s-.17.16-.27.16h-4c-.1 0-.2-.05-.27-.16a.72.72 0 0 1-.1-.4V29.55c0-.18.04-.3.1-.4a.32.32 0 0 1 .27-.14H80c1.34 0 2.37.43 3.07 1.3s1.06 2.14 1.06 3.8c0 1.7-.33 2.98-.97 3.86zm-4-4.77c-.2-.17-.48-.25-.88-.25h-.8v2.38h.5c.52 0 .9-.1 1.13-.26s.36-.5.36-.98c0-.43-.1-.72-.3-.9zm25.24 10.18c-.07.18-.18.27-.33.27H99.6a.26.26 0 0 1-.2-.1c-.07-.07-.12-.14-.14-.22l-.62-1.94h-4.38a1.18 1.18 0 0 1-.1.25l-.1.25-.24.7a5.4 5.4 0 0 0-.24.71c-.05.22-.16.33-.33.33h-3.93c-.15 0-.26-.1-.34-.27-.07-.18-.08-.36-.01-.55l4.84-13.55a.61.61 0 0 1 .14-.2c.07-.07.15-.08.22-.08h4.97a.26.26 0 0 1 .2.1.5.5 0 0 1 .15.19l4.82 13.55c.07.2.07.38.01.55zm-7.2-6.85l-.24-.77-.12-.37c-.03-.08-.05-.16-.07-.23l-.08-.24-.13-.42-.4 1.2-.4 1.23-.04.16c0 .01-.03.1-.08.22h1.83l-.27-.8zm29.66 1.44c-.64.88-1.6 1.32-2.88 1.32h-2.8v3.8c0 .15-.04.28-.1.4s-.17.16-.27.16h-4c-.1 0-.2-.05-.27-.16a.72.72 0 0 1-.1-.4V29.55c0-.18.04-.3.1-.4a.32.32 0 0 1 .27-.14h6.92c1.34 0 2.37.43 3.07 1.3s1.06 2.14 1.06 3.8c-.01 1.7-.33 2.98-.97 3.86zm-4-4.77c-.2-.17-.48-.25-.88-.25h-.8v2.38h.5c.52 0 .9-.1 1.13-.26s.36-.5.36-.98c-.01-.43-.1-.72-.3-.9z"/><use xlink:href="#X3vh6mp3GkuAnw8wXxVYXg"/><path d="M164.15 43.45c-.07.14-.16.2-.3.2h-4c-.1 0-.18-.06-.25-.17a1.01 1.01 0 0 1-.15-.4l-.35-3.66c-.07-.4-.17-.67-.32-.83-.14-.16-.37-.24-.68-.24h-1.14v4.76c0 .15-.04.28-.1.4-.08.1-.17.16-.28.16h-3.97c-.1 0-.2-.05-.28-.16s-.1-.24-.1-.4V29.55c0-.37.13-.55.4-.55h7c1.46 0 2.55.34 3.27 1 .7.67 1.07 1.78 1.07 3.33a4.48 4.48 0 0 1-.35 1.8c-.23.53-.54.98-.94 1.33a1.99 1.99 0 0 1 .59.6 2.42 2.42 0 0 1 .33.8v-.02l.32 1.98.34 3.2c0 .15-.03.3-.1.43zm-6.06-10.63H157v2.58h1.26a.61.61 0 0 0 .4-.14 1.25 1.25 0 0 0 .32-.36 1.53 1.53 0 0 0 .2-.49c.05-.18.07-.37.07-.56 0-.68-.4-1.03-1.18-1.03zm23.56 10.63c-.07.14-.16.2-.3.2h-4c-.1 0-.18-.06-.25-.17-.08-.12-.13-.25-.15-.4l-.35-3.66c-.07-.4-.17-.67-.32-.83-.14-.16-.37-.24-.68-.24h-1.14v4.76c0 .15-.04.28-.1.4s-.17.16-.27.16h-3.97c-.1 0-.2-.05-.27-.16-.08-.1-.1-.24-.1-.4V29.55c0-.37.13-.55.4-.55h7c1.47 0 2.55.34 3.27 1 .7.67 1.07 1.78 1.07 3.33a4.48 4.48 0 0 1-.35 1.8c-.23.54-.54.98-.94 1.33a1.99 1.99 0 0 1 .59.6 2.42 2.42 0 0 1 .33.8v-.02l.32 1.98.34 3.2c-.02.15-.05.3-.12.43zm-6.06-10.63h-1.08v2.58h1.26a.61.61 0 0 0 .4-.14 1.25 1.25 0 0 0 .32-.36 1.53 1.53 0 0 0 .2-.49 2.6 2.6 0 0 0 .07-.56c0-.68-.4-1.03-1.18-1.03z"/><use xlink:href="#X3vh6mp3GkuAnw8wXxVYXg" x="53.96"/><path d="M238 55.42l.02-.01c.66-.01 1.16.18 1.5.56s.5.93.5 1.63c0 .72-.22 1.3-.66 1.73s-1 .65-1.72.65h-1.2c-.7 0-1.28-.2-1.72-.63s-.66-.97-.66-1.66c0-.74.17-1.3.5-1.7.34-.4.84-.6 1.5-.6h.02v1.3c-.36 0-.6.08-.76.23s-.23.4-.23.74c0 .3.12.54.36.7s.57.24.97.24h1.22c.4 0 .73-.1.97-.27s.37-.43.37-.76c0-.3-.08-.53-.23-.67s-.4-.2-.77-.2v-1.3zm-.4-7.2c.7 0 1.3.23 1.77.68.46.45.7 1.04.7 1.77s-.23 1.33-.7 1.8-1.05.68-1.77.68h-1.04c-.7 0-1.3-.23-1.76-.68-.46-.46-.7-1.05-.7-1.78s.23-1.32.7-1.78c.46-.46 1.05-.68 1.76-.68h1.04zm-1.05 1.34c-.4 0-.75.1-1.02.3s-.4.47-.4.83.13.64.4.83c.26.2.6.3 1.02.3h1.05c.42 0 .76-.1 1.03-.3.26-.2.4-.47.4-.84 0-.35-.13-.63-.4-.82s-.6-.3-1.03-.3h-1.05zm1.67-6.86l-4.06-1.3v-1.8h5.8v1.35h-3.73v.02l3.74 1.28v.9l-3.68 1.25v.02h3.68v1.35h-5.8V44l4.05-1.3zm0-8.72v-.02l-4.06-1.3v-1.78h5.8v1.35h-3.73v.02l3.74 1.28v.9l-3.68 1.25v.02h3.68v1.35h-5.8V35.3l4.05-1.3zm-.62-10.48c.7 0 1.3.23 1.77.68.46.45.7 1.04.7 1.77 0 .74-.23 1.33-.7 1.8s-1.05.68-1.77.68h-1.04c-.7 0-1.3-.23-1.76-.68s-.7-1.05-.7-1.78.23-1.32.7-1.78c.46-.46 1.05-.68 1.76-.68h1.04zm-1.05 1.34c-.4 0-.75.1-1.02.3s-.4.47-.4.83.13.64.4.83c.26.2.6.3 1.02.3h1.05c.42 0 .76-.1 1.03-.3.26-.2.4-.47.4-.84 0-.35-.13-.63-.4-.82s-.6-.3-1.03-.3h-1.05zm3.4-3.8h-5.8v-2.12c0-.68.22-1.25.67-1.7.44-.46 1-.7 1.7-.7h1.04c.7 0 1.27.23 1.7.7a2.43 2.43 0 0 1 .66 1.7v2.12zm-4.76-1.35h3.73v-.78a.9.9 0 0 0-.38-.75c-.25-.2-.57-.3-.97-.3h-1.05c-.4 0-.7.1-.96.3a.89.89 0 0 0-.37.75v.78zm4.76-7.03V14h-5.8v-1.34h5.8zm9.27 35.5v1.24h.88v-1.5h.63v2.3h-3.53v-2.3h.63v1.5h.76v-1.24h.63zm.57-3.52a.39.39 0 0 0-.3.12c-.08.08-.14.23-.2.45-.14.44-.3.76-.45.98-.16.2-.4.32-.7.32a.84.84 0 0 1-.72-.37c-.18-.25-.27-.56-.27-.94 0-.4.1-.73.28-.97.2-.25.45-.36.8-.36h.01v.8c-.17 0-.3.04-.36.14-.08.1-.1.23-.1.4 0 .15.04.27.1.35.07.1.16.13.27.13.1 0 .2-.04.25-.13s.14-.25.23-.5c.12-.4.27-.72.44-.93s.4-.3.72-.3a.86.86 0 0 1 .73.36c.17.24.26.56.26.96s-.1.74-.28 1c-.2.28-.48.4-.9.4h-.01v-.8c.2 0 .35-.05.44-.15s.13-.26.13-.46c0-.17-.03-.3-.1-.38-.08-.1-.17-.14-.28-.14zm-1.96-4.72v.93h2.9v.82h-2.9v.92h-.63v-2.67h.63zm2.9-5.97v2.45h-.53l-1.2-1.1c-.17-.15-.3-.25-.44-.32s-.24-.1-.34-.1c-.14 0-.25.03-.33.1s-.12.16-.12.3a.33.33 0 0 0 .16.3.7.7 0 0 0 .4.11v.8h-.01a1.1 1.1 0 0 1-.83-.32c-.23-.22-.34-.52-.34-.9 0-.4.1-.68.3-.9.2-.2.45-.32.78-.32a1.13 1.13 0 0 1 .6.17c.17.12.43.33.76.64l.5.43h.01v-1.36h.63zm-1.3-3.84c.42 0 .75.1 1 .34s.36.52.36.9-.12.67-.36.9-.57.34-1 .34h-.94c-.42 0-.75-.1-1-.33s-.36-.52-.36-.9.12-.67.36-.9.57-.34 1-.34h.94zm-1 .82c-.2 0-.38.04-.5.1a.34.34 0 0 0-.17.3.34.34 0 0 0 .17.3c.1.07.28.1.5.1h1.04c.22 0 .4-.04.5-.1a.35.35 0 0 0 .17-.3.34.34 0 0 0-.17-.3c-.1-.07-.28-.1-.5-.1h-1.04zm2.3-4.05v.82h-2.83v.7h-.63l-.13-1.53h3.6zm-.58-3.17a.46.46 0 0 0-.18-.37c-.12-.1-.28-.14-.5-.14h-.2a.74.74 0 0 1 .22.28c.05.1.07.22.07.34 0 .32-.1.57-.32.75s-.5.28-.87.28c-.35 0-.64-.1-.88-.34s-.36-.53-.36-.9.12-.65.37-.88.6-.35 1.02-.35h.9c.4 0 .73.13.98.38s.37.57.37.95c0 .12-.01.25-.04.38a2.26 2.26 0 0 1-.11.37l-.58-.14c.04-.1.06-.2.08-.3a1.76 1.76 0 0 0 .03-.33zm-1.16-.07c0-.1-.02-.18-.05-.25-.04-.07-.08-.13-.15-.18h-.4c-.2 0-.35.04-.46.12s-.16.18-.16.3a.33.33 0 0 0 .18.3.82.82 0 0 0 .42.11c.18 0 .33-.03.44-.1.12-.08.18-.17.18-.3zm-26.26 49H0V0h222.74v72.65zM3.43 69.22H219.3V3.43H3.43v65.8z"/><path d="M210.74 0v3.43h48.32v65.8h-48.32v3.43h51.75V0z"/><defs><path id="X3vh6mp3GkuAnw8wXxVYXg" d="M145 42.08c-1.17 1.3-2.83 1.93-4.98 1.93s-3.8-.64-4.98-1.93c-1.17-1.3-1.76-3.2-1.76-5.76 0-2.54.6-4.45 1.76-5.75s2.83-1.94 4.98-1.94 3.8.65 4.98 1.94c1.17 1.3 1.76 3.2 1.76 5.75 0 2.55-.6 4.47-1.76 5.76zm-3.58-8.34c-.32-.62-.78-.94-1.4-.94s-1.08.3-1.4.94c-.32.62-.48 1.5-.48 2.58 0 1.1.16 1.96.48 2.58s.78.93 1.4.93 1.08-.3 1.4-.93c.32-.62.48-1.48.48-2.58s-.16-1.96-.48-2.58z"/></defs></svg>