<svg xmlns="http://www.w3.org/2000/svg" viewBox="0 0 195.45 80.95"><path d="M122 15.17s-1.3-3.9-4.4-2.08c-.9.53-2.65 2.14-4.65 4.14-4-5.78-10.32-14.64-12.56-16.4-3.4-2.63-5.54 1.75-5.54 1.75l-13.9 13.1c-1.3-1.25-2.4-2.2-3.07-2.6-3.12-1.82-4.4 2.08-4.4 2.08L59.06 33h8.27l.7-.68c4.4-4.4.52-2.86.78-3.63.26-.78 1.56-2.86 3.12-2.6s3.64-.26 4.67-1.56c1.04-1.3.26-1.56 2.33-3.38 2.08-1.82 2.86 1.04 5.7 4.67 2.86 3.63 9.1 3.37 9.1 3.37l-7.27-7.9c4.7-3.78.35-2.73.76-3.57.43-.88 2.3-3.1 4.08-2.56 1.8.56 4.32.28 5.75-1.08s.56-1.8 3.3-3.6 3.2 1.68 5.97 6.42c.9 1.5 2.25 2.6 3.68 3.4-4.1 4.3-8.2 8.9-8.2 8.9s6.23.26 9.1-3.37 3.63-6.5 5.7-4.67 1.3 2.08 2.34 3.38 3.12 1.82 4.67 1.56c1.56-.26 2.86 1.82 3.12 2.6s-3.64-.78.78 3.63l.7.68h8.26L122 15.17zM4.5 49.9c1.78 0 3.36.7 4.54 1.87s1.87 2.76 1.87 4.54-.7 3.42-1.87 4.6C7.86 62 6.28 62.76 4.5 62.76H0V49.88h4.5zm0 10.64c2.3 0 4.12-1.87 4.12-4.23 0-2.3-1.82-4.17-4.12-4.17H2.48v8.4H4.5zM36.53 49.9v2.33H29.6v2.68h4.6v2.33h-4.6v3.2h7.07v2.33H27.1V49.9h9.43zm16.8 0h2.57v10.55h5.62v2.33h-8.2V49.9zm33.8 0v2.33H80.2v2.68h4.6v2.33h-4.6v3.2h7.07v2.33H77.7V49.9h9.42zm28.27 11.23c-1.27 1.3-2.96 1.93-4.87 1.93-3.62 0-6.6-2.98-6.6-6.6 0-3.58 2.98-6.8 6.6-6.8 1.9 0 3.6.86 4.87 2.1l-1.7 1.5c-.86-.64-1.87-1.27-3.18-1.27-2.35 0-4.24 2.1-4.24 4.45a4.23 4.23 0 0 0 4.24 4.24c1.27 0 2.33-.42 3.18-1.27l1.7 1.7zm25.85-11.23v2.24h-3.75v10.64h-2.6V52.13h-3.78V49.9h10.12zm25.87 8.04c0 1.47-.6 2.72-1.5 3.66-.94.94-2.24 1.5-3.66 1.5-1.47 0-2.72-.57-3.66-1.5s-1.5-2.2-1.5-3.66v-8.06h2.33v8.06c0 .8.33 1.45.85 1.97.46.5 1.18.8 1.97.8a2.8 2.8 0 0 0 1.96-.8c.5-.5.8-1.18.8-1.97v-8.06h2.4v8.06zm26.9-4.72c-1.75-.66-3.3-1.12-4.68-1.18-.8 0-1.73.18-2.44.6a1.32 1.32 0 0 0-.64 1.08c0 .24.04.44.13.57.15.2.4.3.6.37.94.24 1.84.22 2.87.28h.88c1.1.05 2.17.24 3.05.75 1.03.66 1.78 1.7 1.65 3.33-.3 2.94-2.5 4-5.22 4-2.6 0-4.76-.75-6.98-1.87l.94-2.24c1.9.88 3.62 1.5 5.62 1.58.57.06 1.08 0 1.6-.13.66-.2 1.32-.57 1.42-1.5.05-.57-.2-.88-.48-1.03-.42-.28-1.07-.37-1.78-.42h-.8l-2.44-.24c-1.08-.15-2.22-.42-2.94-1.36-.5-.57-.75-1.3-.66-2.2.05-1.4.84-2.4 1.87-3 1.12-.72 2.6-.94 3.84-.88.8 0 1.54.13 2.44.37.88.24 1.73.5 2.9 1l-.77 2.14zM73.92 79.2h-.6v1.7h-.92v-4.3h1.72a1.81 1.81 0 0 1 .58.09c.17.06.32.14.44.25s.2.25.28.42.1.36.1.58c0 .25-.06.47-.2.66a1.03 1.03 0 0 1-.55.4l.93 1.9h-1l-.78-1.7zm.06-1.8h-.64v1.03h.82a.61.61 0 0 0 .24-.07c.07-.03.13-.08.17-.15.04-.06.06-.15.06-.26 0-.1-.01-.18-.04-.25s-.07-.12-.12-.16c-.1-.1-.27-.13-.5-.13zm8.9 2.6h-1.22l-.25.9h-.92l1.24-4.3h1.08l1.22 4.3h-.93l-.22-.9zm-1-.8h.8l-.4-1.52-.42 1.52zm8.43 1.7h-.92v-3.5H88.3v-.78h3.1v.78h-1.1v3.5zm6.26-4.3h.92v4.3h-.92v-4.3zm7.97 4.35c-.33 0-.62-.06-.85-.18s-.42-.28-.56-.48a2.02 2.02 0 0 1-.31-.7 3.88 3.88 0 0 1-.1-.85c0-.3.03-.58.1-.85a1.94 1.94 0 0 1 .31-.7c.14-.2.33-.36.56-.48s.5-.18.85-.18c.33 0 .62.06.84.18s.42.28.56.48a2.02 2.02 0 0 1 .31.7 3.82 3.82 0 0 1 .09.85c0 .7-.15 1.23-.46 1.62-.3.4-.75.6-1.34.6zm0-3.63c-.3 0-.54.12-.68.35-.15.24-.22.6-.22 1.07s.07.83.22 1.07c.14.23.36.35.68.35.3 0 .53-.12.67-.35.15-.24.22-.6.22-1.07s-.07-.83-.22-1.07c-.14-.23-.36-.35-.67-.35zm7.82.75v2.82h-.88v-4.3h.93l1.55 2.7v-2.7h.88v4.3h-.86l-1.62-2.82zm7.73-1.47h2.88v.78H121v.88h1.43v.8H121v1.06h2.03v.8h-2.95v-4.3z"/></svg>