<svg xmlns="http://www.w3.org/2000/svg" xmlns:xlink="http://www.w3.org/1999/xlink" viewBox="0 0 223.16 44.42"><path d="M.6 24.68l.34-2.07 2.7-1.54V9.64l-2.6-.7.1-2.35 4.7-.56 4.2-.22c1.4 0 2.68.1 3.84.26 1.16.18 2.16.42 3 .73s1.58.7 2.23 1.14 1.17.93 1.57 1.44.73 1.08 1 1.7a8.13 8.13 0 0 1 .53 1.86c.1.6.15 1.27.15 1.96 0 1.28-.3 2.5-.9 3.7s-1.42 2.22-2.47 3.12-2.37 1.62-3.96 2.16c-1.58.54-3.3.8-5.17.8H.6zm8.6-3.03h1.12a8.43 8.43 0 0 0 2.02-.23c.6-.15 1.1-.34 1.5-.58s.76-.53 1.06-.88.54-.7.7-1.03.3-.72.4-1.13.17-.77.2-1.1.04-.65.04-1c0-.6-.08-1.22-.23-1.84a7.55 7.55 0 0 0-.76-1.84c-.35-.6-.78-1.16-1.3-1.63s-1.16-.85-1.94-1.14c-.8-.3-1.65-.43-2.6-.43l-.17.01c.01 0 .03.01.06.03.1.03.08.04-.04.04h-.1v12.73z"/><use xlink:href="#D1qeMtcla0S83s08RcO5yA"/><path d="M47.05 24.68l.24-2.07 2.4-1.18V9.7L47.1 8.2 47.4 6h11.14l-.3 2.2-2.94 1.47v12l4.05.33 2.6-4.12 2.5.34-.7 6.45H47.05z"/><use xlink:href="#D1qeMtcla0S83s08RcO5yA" x="42.01"/><path d="M89 24.68l.3-2.07 2.85-1.18V9.75l-2.88-.7.18-2.4c1.1-.18 2.7-.35 4.8-.52L99 5.88c2.97 0 5.17.4 6.62 1.2 1.44.8 2.17 2.13 2.17 4 0 .65-.14 1.28-.4 1.88-.28.6-.63 1.12-1.06 1.54a8.83 8.83 0 0 1-1.33 1.09c-.46.3-.9.52-1.34.67v.02l1.8 2.4 1 1.26a13.51 13.51 0 0 0 1.02 1.08c.42.4.84.73 1.3.97a5.71 5.71 0 0 0 1.48.55l.58.13-.46 1.96c-.96.3-2.04.43-3.25.43-1.73 0-3.13-.4-4.2-1.18-1.07-.8-2-1.94-2.77-3.46l-1.35-2.64h-1.1v3.45l2.14 1.1-.18 2.32H89zm8.68-10.02h2.3c.6-.33 1.05-.72 1.34-1.17s.44-1.02.44-1.7a3.01 3.01 0 0 0-1-2.28c-.67-.63-1.53-.94-2.6-.94l-.5.02v6.08zm14.48-6.46l.3-2.16h17.6l-.45 6.27-2.56-.4-1.24-3.3h-5.17V14l2-.17.48-.03 3.8-.3-.5 4.14-3.6-.66-.48-.1-1.7-.3v4.95l5.44.6 2.2-3.87 2.47.25-.45 6.16h-17.9l.15-2.07 2.46-1.18V9.24l-2.85-1.05zm29.34 7.2c0-2.93 1-5.28 3.04-7.07 2.02-1.78 4.78-2.68 8.25-2.68 1.27 0 2.43.1 3.5.33s2.03.58 2.92 1.07a7.77 7.77 0 0 1 2.26 1.87c.6.75 1.1 1.68 1.44 2.8.34 1.1.52 2.37.52 3.78 0 1.53-.3 2.9-.9 4.13-.6 1.22-1.43 2.23-2.5 3.02-1.05.8-2.3 1.4-3.7 1.8s-2.94.63-4.58.63c-1.73 0-3.25-.23-4.57-.7s-2.38-1.14-3.2-2a8.39 8.39 0 0 1-1.85-3.05c-.4-1.17-.6-2.48-.6-3.93zm6.72-.78a13.55 13.55 0 0 0 .1 1.63c.06.58.2 1.24.4 1.97s.44 1.4.74 1.96.72 1.06 1.26 1.45c.54.4 1.15.6 1.83.6 1.3 0 2.3-.5 2.95-1.5s.98-2.55.98-4.65a13.05 13.05 0 0 0-.07-1.36l-.22-1.64c-.1-.62-.26-1.2-.47-1.74a9.45 9.45 0 0 0-.78-1.52 3.39 3.39 0 0 0-1.19-1.13 3.27 3.27 0 0 0-1.63-.42c-1.37 0-2.36.54-2.97 1.63-.62 1.1-.92 2.66-.92 4.72zm16.5 10.06l.34-2.07 2.7-1.54V9.64l-2.6-.7.1-2.35 4.7-.56 4.2-.22c1.4 0 2.68.1 3.84.26 1.16.18 2.16.42 3 .73s1.58.7 2.23 1.14 1.17.93 1.57 1.44.73 1.08 1 1.7a8.13 8.13 0 0 1 .53 1.86c.1.62.15 1.27.15 1.96 0 1.28-.3 2.5-.9 3.7s-1.42 2.22-2.47 3.12-2.37 1.62-3.96 2.16-3.3.8-5.17.8h-9.27zm8.6-3.03h1.12a8.43 8.43 0 0 0 2.02-.23c.6-.15 1.1-.34 1.5-.58s.76-.53 1.06-.88.54-.7.7-1.03a5.76 5.76 0 0 0 .4-1.13c.1-.4.17-.77.2-1.1s.04-.65.04-1c0-.6-.08-1.22-.23-1.84s-.4-1.23-.76-1.84-.78-1.16-1.3-1.63-1.16-.85-1.94-1.14c-.8-.3-1.65-.43-2.6-.43l-.2.01c.01 0 .03.01.06.03.1.03.08.04-.04.04h-.1v12.73zM187.9 8.28l.3-2.25h10.9l-.24 2.4-2.68 1v11.9l2.7.94-.2 2.4h-10.75l.15-2.13 2.64-1.18V9.4l-2.83-1.1zm12.65 7.12c0-2.93 1-5.28 3.04-7.07 2.02-1.78 4.77-2.68 8.25-2.68 1.27 0 2.43.1 3.5.33s2.03.58 2.92 1.07a7.77 7.77 0 0 1 2.26 1.87c.62.75 1.1 1.68 1.44 2.8s.52 2.37.52 3.78c0 1.53-.3 2.9-.9 4.13-.6 1.22-1.43 2.23-2.5 3.02-1.05.8-2.3 1.4-3.7 1.8s-2.94.63-4.58.63c-1.73 0-3.25-.23-4.56-.7s-2.38-1.14-3.2-2a8.39 8.39 0 0 1-1.85-3.05c-.4-1.17-.62-2.48-.62-3.93zm6.72-.78a13.55 13.55 0 0 0 .1 1.63 15.13 15.13 0 0 0 .39 1.97c.2.73.44 1.4.74 1.96s.72 1.06 1.26 1.45c.54.4 1.15.6 1.83.6 1.3 0 2.3-.5 2.95-1.5s.98-2.55.98-4.65a13.05 13.05 0 0 0-.07-1.36l-.22-1.64c-.1-.62-.26-1.2-.47-1.74s-.47-1.05-.78-1.52a3.48 3.48 0 0 0-1.19-1.13c-.5-.28-1.03-.42-1.63-.42-1.37 0-2.36.54-2.97 1.63s-.92 2.66-.92 4.72zM74.2 39.53v.03c.01.78-.2 1.37-.66 1.77s-1.1.6-1.92.6c-.84 0-1.52-.26-2.03-.77s-.77-1.2-.77-2.02v-1.42c0-.83.25-1.5.74-2.02s1.14-.77 1.95-.77c.86 0 1.53.2 2 .6s.7 1 .7 1.76v.03h-1.54c0-.42-.1-.72-.27-.9s-.47-.27-.88-.27c-.36 0-.63.14-.82.43s-.3.67-.3 1.14v1.43c0 .48.1.86.3 1.15s.5.43.9.43c.36 0 .62-.1.78-.27s.24-.48.24-.9h1.56zm10.38-.5c0 .84-.27 1.53-.8 2.08s-1.23.82-2.1.82-1.57-.27-2.1-.82-.8-1.24-.8-2.08V37.8c0-.84.27-1.53.8-2.07.54-.55 1.23-.82 2.1-.82.85 0 1.55.27 2.1.82s.8 1.24.8 2.07v1.23zM83 37.8c0-.5-.1-.9-.34-1.2s-.55-.47-.97-.47c-.43 0-.75.15-.98.46s-.34.7-.34 1.2v1.24c0 .5.1.9.34 1.2s.56.47 1 .47c.42 0 .74-.16.96-.47.23-.3.34-.7.34-1.2V37.8zm7.97 1.4v2.6H89.4V35h2.37c.8 0 1.42.18 1.88.55s.7.86.7 1.5c0 .35-.1.66-.28.9s-.46.46-.82.62c.42.12.72.32.9.6s.27.62.27 1.03v.43c0 .18.03.38.08.6s.15.4.28.5v.1h-1.63c-.12-.1-.2-.27-.24-.5a4.2 4.2 0 0 1-.06-.69v-.4c0-.32-.1-.57-.26-.74s-.42-.26-.75-.26H91zm0-1.2h.8c.32 0 .56-.07.73-.22s.25-.35.25-.63-.1-.5-.26-.67-.42-.26-.73-.26h-.8V38zm9.93 1.2v2.6h-1.58V35h2.37c.8 0 1.42.18 1.88.55s.7.86.7 1.5c0 .35-.1.66-.28.9s-.46.46-.82.62c.42.12.72.32.9.6s.27.62.27 1.03v.43c0 .18.03.38.08.6s.15.4.28.5v.1h-1.63c-.12-.1-.2-.27-.24-.5a4.2 4.2 0 0 1-.06-.69v-.4c0-.32-.1-.57-.26-.74s-.42-.26-.75-.26h-.85zm0-1.2h.8c.32 0 .56-.07.73-.22s.25-.35.25-.63-.1-.5-.26-.67-.42-.26-.73-.26h-.8V38zm13.97-3v4.42c0 .78-.26 1.4-.78 1.83s-1.2.66-2.03.66-1.52-.22-2.04-.66-.78-1.05-.78-1.83V35h1.6v4.42c0 .42.1.74.33.96s.52.32.9.32.68-.1.9-.32c.2-.2.32-.53.32-.96V35h1.58zm6.46 4.5v2.34h-1.58V35h2.6c.8 0 1.45.2 1.92.62s.7.95.7 1.62-.24 1.2-.7 1.62-1.12.62-1.92.62h-1.02zm0-1.22h1.02c.34 0 .6-.1.8-.28s.27-.43.27-.73-.1-.55-.27-.74-.44-.3-.8-.3h-1.02v2.04zm13.1-2.05h-1.8v5.6h-1.58v-5.6h-1.77V35h5.15v1.22zm6.16 5.6H139V35h1.58v6.82z"/><defs><path id="D1qeMtcla0S83s08RcO5yA" d="M23.73 15.4c0-2.93 1-5.28 3.04-7.07s4.77-2.68 8.25-2.68c1.27 0 2.43.1 3.5.33s2.03.58 2.92 1.07a7.77 7.77 0 0 1 2.26 1.87c.62.75 1.1 1.68 1.44 2.8.34 1.1.52 2.37.52 3.78 0 1.53-.3 2.9-.9 4.13-.6 1.22-1.43 2.23-2.5 3.02-1.05.8-2.3 1.4-3.7 1.8s-2.94.63-4.58.63c-1.73 0-3.25-.23-4.56-.7s-2.38-1.14-3.2-2a8.39 8.39 0 0 1-1.85-3.05c-.4-1.17-.62-2.48-.62-3.93zm6.72-.78a13.55 13.55 0 0 0 .1 1.63c.06.58.2 1.24.4 1.97s.44 1.4.74 1.96.72 1.06 1.26 1.45c.54.4 1.15.6 1.83.6 1.3 0 2.3-.5 2.95-1.5.65-1 .98-2.55.98-4.65a13.05 13.05 0 0 0-.07-1.36l-.22-1.64c-.1-.62-.26-1.2-.47-1.74a9.45 9.45 0 0 0-.78-1.52 3.48 3.48 0 0 0-1.19-1.13c-.5-.28-1.03-.42-1.63-.42-1.37 0-2.36.54-2.97 1.63-.62 1.1-.92 2.66-.92 4.72z"/></defs></svg>