<svg xmlns="http://www.w3.org/2000/svg" viewBox="0 0 132.36 102.69"><path d="M30.1 45.24v2.37h-6.2v3.1h3.8v2.4h-3.8v5.22h-2.6v-13.1h8.8zm8.7 0h3.32L46.8 58.3h-2.74L43 55.1h-4.7l-1.06 3.2h-2.7l4.27-13.07zm3.36 7.72l-1.64-5.15-1.58 5.15h3.22zm20.46 3.7c-1.3 1.32-3 1.96-4.94 1.96-3.67 0-6.7-3.02-6.7-6.7 0-3.64 3.02-6.9 6.7-6.9 1.94 0 3.65.88 4.94 2.14L60.9 48.7c-.88-.65-1.9-1.3-3.23-1.3-2.4 0-4.3 2.14-4.3 4.5a4.3 4.3 0 0 0 4.31 4.31c1.3 0 2.37-.43 3.23-1.3l1.72 1.72zm5.56-11.4h2.6V58.3h-2.6V45.24zm8.8 0h2.6v10.7h5.7v2.37h-8.32V45.24zm13.52 0h2.6V58.3h-2.6V45.24zm19.12 3.36c-1.77-.67-3.36-1.14-4.75-1.2-.8 0-1.75.2-2.48.62-.37.24-.6.58-.65 1.1 0 .24.04.45.13.58.15.2.4.32.62.37.95.24 1.86.22 2.9.28h.9c1.12.06 2.2.24 3.1.76 1.04.67 1.8 1.72 1.68 3.38-.3 2.98-2.54 4.04-5.3 4.04-2.63 0-4.83-.76-7.1-1.9l.95-2.27c1.92.9 3.67 1.5 5.7 1.6.58.06 1.1 0 1.62-.13.67-.2 1.34-.58 1.44-1.53.06-.58-.2-.9-.48-1.04-.43-.28-1.08-.37-1.8-.43h-.8l-2.48-.24c-1.1-.15-2.26-.43-2.98-1.38-.5-.58-.76-1.32-.67-2.24.06-1.42.86-2.42 1.9-3.04 1.14-.73 2.65-.95 3.9-.9.8 0 1.57.13 2.48.37a20.76 20.76 0 0 1 2.95 1.01l-.8 2.18zm10.24-29.7L78.05 2c-3.2-1.3-7.4-2-11.87-2S57.5.7 54.3 2L12.5 18.9C5.6 21.67 0 29.98 0 37.42v27.86c0 7.44 5.6 15.75 12.5 18.53l41.8 16.88c3.2 1.3 7.4 2 11.87 2s8.67-.7 11.87-2l41.8-16.88c6.9-2.78 12.5-11.1 12.5-18.53V37.42c0-7.44-5.6-15.75-12.5-18.53zm7.43 18.53V65.3c0 5.46-4.27 11.8-9.33 13.83L76.15 96c-2.6 1.05-6.15 1.63-9.97 1.63s-7.36-.58-9.97-1.63L14.4 79.1c-5.06-2.04-9.33-8.37-9.33-13.83V37.42c0-5.46 4.27-11.8 9.33-13.83L56.2 6.7c2.6-1.05 6.15-1.63 9.97-1.63s7.36.58 9.97 1.63l41.8 16.9c5.06 2.04 9.33 8.37 9.33 13.83z"/></svg>