<svg xmlns="http://www.w3.org/2000/svg" viewBox="0 0 257.88 49.75"><path d="M31.3 2.88l.24 30.58-16-30.58H0v44h10.53l-.3-31 16.08 31h15.6V12.6h10.87v34.28h11.9V12.6h9.26L85.1 46.88h14l14.42-44h-13.3l-8.06 32.65L84.1 2.88m72.17 3.77v6.76h-2.1V3.1h2.23l3.73 6.46V3.1h2.1v10.3h-2.06zm17.1 6.9a4.45 4.45 0 0 1-2-.43A3.67 3.67 0 0 1 170 12a4.82 4.82 0 0 1-.75-1.69 8.9 8.9 0 0 1-.22-2 9 9 0 0 1 .22-2 4.9 4.9 0 0 1 .75-1.78 3.87 3.87 0 0 1 1.35-1.15 5.12 5.12 0 0 1 4.06 0 3.84 3.84 0 0 1 1.34 1.15 4.72 4.72 0 0 1 .75 1.69 9 9 0 0 1 .23 2 6 6 0 0 1-1.11 3.88 3.91 3.91 0 0 1-3.26 1.45zm0-8.7a1.73 1.73 0 0 0-1.62.83 5 5 0 0 0-.53 2.57 4.9 4.9 0 0 0 .53 2.57 2 2 0 0 0 3.23 0 4.9 4.9 0 0 0 .53-2.57 5 5 0 0 0-.5-2.57 1.72 1.72 0 0 0-1.64-.83zm14.38 8.7a4.41 4.41 0 0 1-2.19-.6 3.6 3.6 0 0 1-1-.78 4.76 4.76 0 0 1-.73-1.23l1.84-.8a5.14 5.14 0 0 0 .36.66 2.4 2.4 0 0 0 .45.5 1.78 1.78 0 0 0 .57.33 2.4 2.4 0 0 0 .74.11 2.69 2.69 0 0 0 .57-.05 1.52 1.52 0 0 0 .49-.19 1 1 0 0 0 .34-.36 1.2 1.2 0 0 0 .13-.57 1 1 0 0 0-.53-.86 7.3 7.3 0 0 0-1.4-.7A8.47 8.47 0 0 1 185 7.75a2.43 2.43 0 0 1-.83-1.95 2.57 2.57 0 0 1 1-2 3.72 3.72 0 0 1 2.43-.8 4.09 4.09 0 0 1 2.19.6 3.31 3.31 0 0 1 .85.74 4.94 4.94 0 0 1 .68 1.17l-2 .62a2.86 2.86 0 0 0-.63-1 1.49 1.49 0 0 0-1.08-.37 2.3 2.3 0 0 0-.45 0 1.34 1.34 0 0 0-.41.15.86.86 0 0 0-.31.29.84.84 0 0 0-.12.45.79.79 0 0 0 .13.41 1.42 1.42 0 0 0 .46.37 8.91 8.91 0 0 0 1.49.66 7.24 7.24 0 0 1 2.11 1.13 2.51 2.51 0 0 1 1 2.13 2.89 2.89 0 0 1-1 2.34 4.11 4.11 0 0 1-2.77.86zm14.74-.15h-2.2V5h-2.6V3.1h7.42V5h-2.6zm12.82-4.07h-1.4v4.08h-2.2V3.1h4.13a4.25 4.25 0 0 1 1.38.21 2.92 2.92 0 0 1 1.06.61 2.63 2.63 0 0 1 .67 1 3.75 3.75 0 0 1 .24 1.39 2.73 2.73 0 0 1-.46 1.59 2.63 2.63 0 0 1-1.31 1l2.23 4.53h-2.45zm.13-4.33h-1.53v2.45h1.95a2 2 0 0 0 .57-.16 1 1 0 0 0 .4-.35 1.15 1.15 0 0 0 .15-.63 1.49 1.49 0 0 0-.1-.59.86.86 0 0 0-.27-.39 1.76 1.76 0 0 0-1.17-.33zm14.84 8.55a4.05 4.05 0 0 1-3-1 3.94 3.94 0 0 1-1-2.93V3.1h2.2v6.37a2.69 2.69 0 0 0 .4 1.69 1.61 1.61 0 0 0 1.36.5 2.68 2.68 0 0 0 .87-.12 1.3 1.3 0 0 0 .53-.37 2.65 2.65 0 0 0 .4-1.68V3.1h2.2v6.4a4.14 4.14 0 0 1-1 3 4 4 0 0 1-2.96 1.05zm18.67-7.17l-2 7h-1.67l-2-7v7h-2V3.1h2.95l1.83 6.62 1.84-6.62h3v10.3h-2zM158.14 30h-2.2v-8.4h-2.6v-1.9h7.42v1.9h-2.62zm9.3-10.28h6.92v1.9h-4.7v2.1h3.43v1.9h-3.43v2.54h4.87V30h-7.08zm16.07 3.55V30h-2.1V19.72h2.23l3.73 6.46v-6.46h2.1V30h-2.06zm13.03-3.55h6.9v1.9h-4.7v2.1h3.44v1.9h-3.44v2.54h4.88V30h-7.08zM214.5 30h-2.2v-8.4h-2.6v-1.9h7.43v1.9h-2.62zm13.3.17a4.05 4.05 0 0 1-2.95-1 3.92 3.92 0 0 1-1-2.93v-6.5H226v6.37a2.72 2.72 0 0 0 .4 1.7 1.61 1.61 0 0 0 1.36.5 2.66 2.66 0 0 0 .87-.13 1.19 1.19 0 0 0 .53-.36 2.69 2.69 0 0 0 .4-1.68v-6.4h2.2v6.4a4.11 4.11 0 0 1-1 3 4 4 0 0 1-2.97 1.03zM242.44 26H241v4h-2.2V19.72h4.2a4.34 4.34 0 0 1 1.38.21 2.88 2.88 0 0 1 1 .61 2.69 2.69 0 0 1 .68 1 3.71 3.71 0 0 1 .24 1.39 2.68 2.68 0 0 1-.46 1.58 2.6 2.6 0 0 1-1.32 1l2.25 4.5h-2.46zm.13-4.35H241v2.46h1.32q.32 0 .63 0a1.41 1.41 0 0 0 .57-.16 1 1 0 0 0 .56-.97 1.71 1.71 0 0 0-.1-.6.93.93 0 0 0-.28-.39 1.75 1.75 0 0 0-1.13-.38zm-86.7 25l-2.73-10.3h2.2L157 43.3l1.74-6.94H161l-2.74 10.3z"/><path d="M171.06 46.8a4.45 4.45 0 0 1-2-.42 3.67 3.67 0 0 1-1.35-1.15 4.82 4.82 0 0 1-.75-1.69 9.48 9.48 0 0 1 0-4.06 4.9 4.9 0 0 1 .75-1.69 3.77 3.77 0 0 1 1.29-1.15 5.12 5.12 0 0 1 4.06 0 3.74 3.74 0 0 1 1.34 1.15 4.72 4.72 0 0 1 .75 1.69 8.89 8.89 0 0 1 .23 2 6 6 0 0 1-1.11 3.88 3.9 3.9 0 0 1-3.21 1.44zm0-8.7a1.73 1.73 0 0 0-1.62.84 5 5 0 0 0-.53 2.57 4.9 4.9 0 0 0 .53 2.57 2 2 0 0 0 3.23 0 4.9 4.9 0 0 0 .53-2.57 5 5 0 0 0-.53-2.57 1.73 1.73 0 0 0-1.61-.84zm11.1-1.75h2.2v8.42h4.35v1.9h-6.56zm17.32 10.45a4 4 0 0 1-2.94-1 3.9 3.9 0 0 1-1.05-2.93v-6.5h2.2v6.36a2.77 2.77 0 0 0 .4 1.7 1.62 1.62 0 0 0 1.36.5 2.68 2.68 0 0 0 .87-.12 1.3 1.3 0 0 0 .53-.37 2.65 2.65 0 0 0 .4-1.68v-6.4h2.2v6.4a4.14 4.14 0 0 1-1 3 4 4 0 0 1-2.98 1.04zm14.83-4.2h-1.58v4h-2.2V36.35h3.8a6 6 0 0 1 1.45.16 3.33 3.33 0 0 1 1.17.55 2.5 2.5 0 0 1 .78 1 3.4 3.4 0 0 1 .28 1.46 2.81 2.81 0 0 1-1 2.33 4.12 4.12 0 0 1-2.7.76zm-.17-4.38h-1.4v2.5h1.4a4.23 4.23 0 0 0 .63 0 1.44 1.44 0 0 0 .53-.18.91.91 0 0 0 .37-.36 1.26 1.26 0 0 0 .14-.62 1.58 1.58 0 0 0-.1-.62.87.87 0 0 0-.28-.37 2.15 2.15 0 0 0-1.29-.35zm14.54 8.44h-2.2v-8.43h-2.6v-1.88h7.42v1.88h-2.62zm13-2.16h-2.92l-.6 2.17H236l3-10.3h2.6l2.94 10.3h-2.23zm-2.42-1.88h1.94l-.94-3.6zm14.94 4.18a4.42 4.42 0 0 1-2.19-.59 3.71 3.71 0 0 1-1-.78 4.5 4.5 0 0 1-.73-1.23l1.84-.8a4.41 4.41 0 0 0 .36.65 2.45 2.45 0 0 0 .44.51 1.94 1.94 0 0 0 .58.33 2.35 2.35 0 0 0 .74.11 3.66 3.66 0 0 0 .57-.05 1.52 1.52 0 0 0 .49-.19 1.07 1.07 0 0 0 .34-.36 1.2 1.2 0 0 0 .12-.57 1 1 0 0 0-.52-.86 7.3 7.3 0 0 0-1.4-.7 8.47 8.47 0 0 1-2.4-1.26 2.43 2.43 0 0 1-.83-2 2.54 2.54 0 0 1 1-2 3.69 3.69 0 0 1 2.42-.8 4 4 0 0 1 2.19.6 3.19 3.19 0 0 1 .86.74 4.94 4.94 0 0 1 .68 1.17l-2 .62a2.59 2.59 0 0 0-.63-1A1.45 1.45 0 0 0 254 38a2.3 2.3 0 0 0-.45.05 1.5 1.5 0 0 0-.42.15.92.92 0 0 0-.3.29.84.84 0 0 0-.12.45.66.66 0 0 0 .13.4 1.36 1.36 0 0 0 .45.38 9 9 0 0 0 1.5.66 7.19 7.19 0 0 1 2.1 1.13 2.49 2.49 0 0 1 1 2.13 2.92 2.92 0 0 1-1 2.34 4.12 4.12 0 0 1-2.7.81zM133.08 0h1.38v49.75h-1.38z"/></svg>