<svg xmlns="http://www.w3.org/2000/svg" viewBox="0 0 74.1 128.5"><path d="M17.8 125.7l.1.4.1-.3 2-7.4h2.5l-3.3 10.2h-2.5l-3.3-10.2h2.5l1.9 7.3zm22.8-1.6H37v2.5h4.3v1.8h-6.7v-10.2h6.7v1.8H37v2.2h3.6v1.9zm15.9 2.6h4.4v1.8h-6.7v-10.2h2.4v8.4zM23 50.6h-1.6v3.7H23c.7 0 1.2-.2 1.5-.5s.5-.7.5-1.3-.2-1-.5-1.4c-.3-.3-.8-.5-1.5-.5zM0 0v106.1h74.1V0H0zm29.3 62.2h-3.4c-.3-.2-.4-.5-.5-1.1-.1-.5-.1-1-.1-1.4v-.8c0-.7-.2-1.2-.5-1.5s-.9-.5-1.6-.5h-1.8v5.4h-3.3V48.1H23c1.6 0 2.9.4 3.9 1.1 1 .8 1.4 1.8 1.4 3.1 0 .7-.2 1.4-.6 1.9s-1 .9-1.7 1.3c.9.3 1.5.7 1.9 1.2s.6 1.3.6 2.1v.9c0 .4 0 .8.2 1.3.1.5.3.8.6 1v.2zM40 50.6h-6v3h5v2.5h-5v3.5h6v2.5h-9.3v-14H40v2.5zm16.9 11.6h-3.3v-9.1h-.1l-3.1 9.1h-2.2l-3.1-9H45v9h-3.3V48.1H46l3.2 9.9h.1l3.2-9.9h4.3v14.1z"/></svg>