<svg xmlns="http://www.w3.org/2000/svg" xmlns:xlink="http://www.w3.org/1999/xlink" viewBox="0 0 205.64 99.91"><path d="M66.8 94.3h1.08v5.48H66.8l-2.5-3.84v3.84h-1.08V94.3h1.14l2.43 3.73V94.3z"/><use xlink:href="#fbbf2369-fad4-45e9-b59b-29933556be05"/><use xlink:href="#46fd30b6-cd7a-489b-bc08-d696cbc782f6"/><path d="M105.28 99.8l-.52-.54c-.48.38-1.1.6-1.73.6a2.8 2.8 0 0 1-2.02-.84c-.52-.5-.84-1.2-.84-2a2.8 2.8 0 0 1 .84-2.02c.53-.53 1.2-.84 2.02-.84.78 0 1.5.3 2 .84.52.52.84 1.2.84 2.02 0 .54-.13 1.02-.4 1.45l.55.58-.73.74zm-.44-2.76c0-1.03-.8-1.85-1.8-1.85-1.02 0-1.84.82-1.84 1.85a1.82 1.82 0 0 0 1.84 1.83c1 0 1.8-.82 1.8-1.83z"/><use xlink:href="#fbbf2369-fad4-45e9-b59b-29933556be05" x="37.81"/><path d="M125.52 94.3h1.4l1.96 5.48h-1.15l-.45-1.34h-1.98l-.45 1.34h-1.13l1.8-5.48zm1.4 3.23l-.7-2.16-.66 2.16h1.35z"/><use xlink:href="#46fd30b6-cd7a-489b-bc08-d696cbc782f6" x="49.29"/><path d="M11.63 72.63c-1.88-.7-3.57-1.2-5.05-1.27-.85 0-1.86.2-2.63.65-.4.26-.63.6-.7 1.17 0 .26.04.47.14.6.16.22.42.34.65.4 1 .26 1.98.24 3.1.3h.95c1.2.06 2.34.26 3.3.8 1.1.7 1.92 1.82 1.78 3.58-.32 3.17-2.7 4.3-5.63 4.3-2.8 0-5.13-.8-7.53-2.02l1-2.42c2.04.95 3.9 1.6 6.06 1.7.6.06 1.17 0 1.72-.14.7-.22 1.43-.6 1.53-1.62.06-.6-.22-.95-.52-1.1-.46-.3-1.15-.4-1.92-.46h-.85l-2.63-.26C3.23 76.7 2 76.4 1.23 75.4c-.54-.6-.8-1.4-.7-2.38.06-1.5.9-2.57 2.02-3.23 1.2-.77 2.8-1 4.14-.95.85 0 1.66.14 2.63.4.95.26 1.86.53 3.13 1.07l-.8 2.32zm22.97-3.6h3.53l4.97 13.88h-2.9l-1.13-3.4h-5l-1.13 3.4H30.1l4.53-13.88zm3.57 8.2l-1.74-5.47-1.68 5.47h3.42zm22.53-8.2h5.64c2.44 0 4.4 1.96 4.4 4.4 0 2.42-1.96 4.44-4.4 4.44H63.4v5.05h-2.7v-13.9zm2.7 2.42v4h2.93c1.07 0 1.98-.9 1.98-2.02a2 2 0 0 0-1.98-1.98H63.4zm24.97-2.42h2.77v13.88h-2.77V69.04zm31.2 0v2.52h-7.5v2.9h4.95v2.5h-4.95v3.45h7.63v2.52h-10.3v-13.9h10.16zm27.18 0h2.73v13.88h-2.73l-6.32-9.74v9.74h-2.73V69.04h2.9l6.16 9.45v-9.45zm30.7 0v2.42h-4.04v11.47h-2.8V71.46h-4.08v-2.42h10.9zm28.06 0v2.52H198v2.9h4.95v2.5H198v3.45h7.63v2.52h-10.3v-13.9h10.16zM86.47 45.14h-.34V25.47h.34c0 5.7 2.9 11.2 6.94 14.9 3.18 2.96 7.1 4.78 10.92 4.78 5.9 0 7.45-4.83 7.45-7.85 0-5.97-6.08-7.62-9.78-8.64l-3.3-.9c-6.03-1.65-12.9-4.95-12.9-13.13a13.06 13.06 0 0 1 1.7-6.43C89.66 4.4 96.7.13 102.85.13c2.67 0 4.38.5 5.8 1.08 1.7.68 3.07 1.36 5.3 1.36 1.76 0 3.53-.28 3.7-2.56h.4v16.32h-.34c0-3.53-1.08-6.82-4.72-11.2-2.84-3.47-6.48-4.6-9.55-4.6-2.4 0-4.15.57-5.8 2.96-.63.97-.9 2.4-.9 3.7 0 6.77 6.77 7.96 8.93 8.47l2.67.63c3.4.8 13.93 2.73 13.93 13.76 0 3.58-1.3 7.45-4.55 10.52-3.92 3.75-7.16 5.06-12.34 5.06-6.7 0-12.68-3.07-15.64-3.07-1.43-.02-2.68.55-3.25 2.6zm-22.85-18.6l15.6 15.6V33.6l-9.18-9.18 9.18-9.18V6.66l-15.6 15.6c-1.18 1.2-1.18 3.1 0 4.3zM142 22.27l-15.6-15.6v8.56l9.18 9.18-9.18 9.18v8.56l15.6-15.6a3.03 3.03 0 0 0 0-4.28z"/><defs><path id="fbbf2369-fad4-45e9-b59b-29933556be05" d="M79.32 97.7c0 .63-.26 1.16-.64 1.55-.4.4-.95.64-1.55.64-.63 0-1.16-.24-1.55-.64s-.63-.93-.63-1.55v-3.43h1v3.43c0 .34.14.62.36.84.2.22.5.34.84.34.32 0 .62-.13.84-.34.2-.22.34-.5.34-.84v-3.43h1.02v3.43z"/><path id="46fd30b6-cd7a-489b-bc08-d696cbc782f6" d="M87.76 96.12l-.34 3.65h-1.05l.55-5.48h1.32l1.5 4.4 1.48-4.4h1.3l.6 5.48h-1.05l-.38-3.65-1.3 3.65h-1.23l-1.37-3.65z"/></defs></svg>