<svg xmlns="http://www.w3.org/2000/svg" viewBox="0 0 149.49 97.84"><path d="M8.5 86.8v1.88H5.36v8.94H3.18v-8.94H0V86.8h8.5zm21.87 0v1.96h-5.84V91h3.86v1.96h-3.86v2.7h5.95v1.96h-8.03V86.8h7.92zm16.9 3.6l-.66 7.2h-2.08l1.1-10.83h2.6l2.95 8.7 2.92-8.7h2.56l1.17 10.83h-2.08L55 90.4l-2.6 7.2h-2.44l-2.7-7.2zm24.53-3.6h4.4c1.9 0 3.43 1.53 3.43 3.43 0 1.88-1.53 3.46-3.43 3.46h-2.3v3.94h-2.12V86.8zm2.1 1.88v3.12h2.3c.83 0 1.54-.7 1.54-1.58a1.55 1.55 0 0 0-1.54-1.54h-2.3zm30.25 3.57c0 3.07-2.5 5.6-5.64 5.6-3.07 0-5.6-2.52-5.6-5.6 0-3.13 2.52-5.64 5.6-5.64 3.14 0 5.64 2.5 5.64 5.64zm-2.02 0c0-2-1.6-3.6-3.6-3.6s-3.57 1.6-3.57 3.6c0 2.02 1.56 3.55 3.57 3.55 2 0 3.6-1.53 3.6-3.55zm15.9-5.45h4.9c.94 0 1.8.4 2.44 1.02s1 1.45 1 2.44c0 .94-.36 1.8-1 2.4a3.8 3.8 0 0 1-1.27.82l2.4 4.14h-2.25l-2.32-3.97h-1.78v3.97h-2.13V86.8zm2.13 1.88v3.12h2.76c.4 0 .8-.15 1.1-.48.3-.3.43-.65.43-1.07a1.49 1.49 0 0 0-.43-1.1c-.3-.3-.66-.48-1.1-.48h-2.76zm22.7-1.88h2.75l3.88 10.83h-2.27l-.88-2.66h-3.9l-.88 2.66h-2.22l3.53-10.83zm2.78 6.4l-1.36-4.26-1.3 4.26h2.67zM44.62 0h58.24l-1.47 20.64-8.43-1.43L90 7.92h-8.48v39.8l9.3 2.53-.74 7.05H56.14l.6-6.45 8.16-3.18V7.92h-8.3l-4 13.18-7.83-1.2L44.62 0z"/></svg>