<svg xmlns="http://www.w3.org/2000/svg" viewBox="0 0 259.1 77.6"><path d="M155.3 77.4h-2.5l-4-6.8v6.8h-2.5V66.6h2.5l4 6.8v-6.8h2.5v10.8zm11.1-4.6h-3.8v2.7h4.6v1.9h-7.1V66.6h7.1v1.9h-4.6v2.3h3.8v2zm10.9 1.4l2.5-7.6h3.3v10.8h-2.5v-7l-2.4 7h-1.7l-2.3-6.9v6.9h-2.5V66.6h3.3l2.3 7.6zm19.5-1.2c0 1.3-.4 2.4-1.3 3.3-.8.9-1.9 1.3-3.3 1.3s-2.5-.4-3.3-1.3c-.9-.9-1.3-2-1.3-3.3v-2c0-1.3.4-2.4 1.3-3.3s2-1.3 3.3-1.3 2.5.4 3.3 1.3 1.3 2 1.3 3.3v2zm-2.5-2c0-.8-.2-1.4-.5-1.9s-.9-.7-1.5-.7c-.7 0-1.2.3-1.6.7-.4.5-.5 1.1-.5 1.9v2c0 .8.2 1.4.5 1.9s.9.7 1.6.7 1.2-.3 1.5-.7c.4-.5.5-1.1.5-1.9v-2zM67.1 74.5l.1.4.1-.4 2.1-7.9H72l-3.5 10.8h-2.7l-3.5-10.8h2.6l2.2 7.9zm15.1-1.7h-3.8v2.7H83v1.9h-7.1V66.6H83v1.9h-4.6v2.3h3.8v2zm14.2 4.6h-2.5l-4-6.8v6.8h-2.5V66.6h2.5l4 6.8v-6.8h2.5v10.8zm7.5 0h-2.5V66.6h2.5v10.8zm10.7-2.1h-3.2l-.6 2.1h-2.6l3.5-10.8h2.6l3.5 10.8h-2.6l-.6-2.1zm-2.7-1.9h2.1l-1-3.3-1.1 3.3zm15.5.8l2.5-7.6h3.3v10.8h-2.5v-7l-2.4 7h-1.7l-2.3-6.9v6.9h-2.5V66.6h3.3l2.3 7.6zM165 23l-2.1 7.2h4.4l-2.2-7.2zm20.3-3.2h-2.7v6h2.7c1.1 0 1.9-.3 2.5-.7.6-.5.9-1.2.9-2.1s-.3-1.7-.9-2.3c-.5-.6-1.4-.9-2.5-.9zM119.3 0v53.4h139.8V0H119.3zm33.1 38.9H147v-9.4h-8.6v9.4H133V15.6h5.4v9.7h8.6v-9.7h5.4v23.3zm17.5 0l-1.4-4.5h-6.9l-1.3 4.5h-5.7l7.6-23.2h5.8l7.6 23.2h-5.7zm25.7 0H190c-.4-.3-.7-.9-.8-1.7l-.2-2.3v-1.4c0-1.1-.3-2-.9-2.5-.6-.6-1.4-.9-2.6-.9h-2.9V39h-5.4V15.6h8.1c2.7 0 4.8.6 6.4 1.9 1.6 1.2 2.4 3 2.4 5.1 0 1.2-.3 2.2-.9 3.1s-1.6 1.6-2.8 2.1c1.4.4 2.5 1.1 3.1 2s.9 2.1.9 3.5v1.5c0 .6.1 1.3.3 2.1s.5 1.3.9 1.7v.3zm21.5-8.2c0 2.7-.9 4.7-2.6 6.2-1.8 1.5-4.1 2.3-6.9 2.3-2.9 0-5.2-.8-7-2.3s-2.7-3.6-2.7-6.2V15.6h5.4v15.1c0 1.4.4 2.5 1.1 3.3.7.7 1.8 1.1 3.1 1.1s2.3-.4 3-1.1 1.1-1.8 1.1-3.3V15.6h5.4v15.1zm28.3 8.2H240v-15h-.1l-5.1 15h-3.6l-5-14.8h-.1v14.7h-5.4V15.6h7.1l5.2 16.3h.1l5.3-16.3h7.1v23.3zM62.2 19.8h-2.7v6h2.7c1.1 0 1.9-.3 2.5-.7.6-.5.9-1.2.9-2.1s-.3-1.7-.9-2.3c-.5-.6-1.4-.9-2.5-.9zm25.5 1.3c-.8-1.1-1.9-1.6-3.3-1.6-1.5 0-2.6.5-3.3 1.6s-1.2 2.4-1.2 4.1v4.2c0 1.7.4 3 1.2 4.1s1.9 1.6 3.4 1.6c1.4 0 2.5-.5 3.3-1.6s1.2-2.4 1.2-4.1v-4.2c-.1-1.7-.5-3.1-1.3-4.1zM0 0v53.4h108.9V0H0zm26.5 38.9h-5.8l-7.5-23.2h5.6l4.7 17.7h.1l.2-.8 4.6-17h5.7l-7.6 23.3zm24.6-19.1h-9.8v5h8.2V29h-8.2v5.8h9.8V39H35.9V15.6h15.2v4.2zm21.4 19.1h-5.6c-.4-.3-.7-.9-.8-1.7l-.2-2.3v-1.4c0-1.1-.3-2-.9-2.5-.6-.6-1.4-.9-2.6-.9h-2.9V39h-5.4V15.6h8.1c2.7 0 4.8.6 6.4 1.9 1.6 1.2 2.4 3 2.4 5.1 0 1.2-.3 2.2-1 3.1-.6.9-1.6 1.6-2.8 2.1 1.4.4 2.5 1.1 3.1 2s.9 2.1.9 3.5v1.5c0 .6.1 1.3.3 2.1s.5 1.3.9 1.7v.3zm19.1-2.5c-1.8 1.8-4.2 2.8-7.1 2.8-3 0-5.3-.9-7.2-2.8-1.8-1.8-2.7-4.2-2.7-7.1v-4.2c0-2.8.9-5.2 2.7-7.1s4.2-2.8 7.1-2.8 5.3.9 7.1 2.8 2.7 4.2 2.7 7.1v4.2c.1 2.9-.8 5.3-2.6 7.1z"/></svg>