<svg xmlns="http://www.w3.org/2000/svg" viewBox="0 0 62 87.81"><title>27</title><path d="M31,75A31,31,0,0,1,10.37,20.88l1,1.11a29.38,29.38,0,1,0,6.49-4.4l-.66-1.33A31,31,0,1,1,31,75Z"/><path d="M31,70.36A26.53,26.53,0,0,1,5.33,49.91l.85-.2A25.46,25.46,0,1,0,47.91,25l.58-.65A26.32,26.32,0,0,1,31,70.36Z"/><polygon points="48.15 27.13 43.17 21.08 50.51 23.83 48.15 27.13"/><path d="M7.08,49.59a1.31,1.31,0,1,0-1,1.57A1.32,1.32,0,0,0,7.08,49.59Z"/><rect x="13.91" y="73.19" width="0.87" height="8.43"/><polygon points="12.4 80.24 14.43 87.81 16.46 80.24 12.4 80.24"/><rect x="13.91" y="12.09" width="0.87" height="46.26"/><path d="M14.34,2.62a1.31,1.31,0,1,1,1.31-1.31A1.31,1.31,0,0,1,14.34,2.62Z"/><path d="M14.34,6.65a1.31,1.31,0,1,1,1.31-1.31A1.31,1.31,0,0,1,14.34,6.65Z"/><path d="M14.34,10.68a1.31,1.31,0,1,1,1.31-1.31A1.31,1.31,0,0,1,14.34,10.68Z"/></svg>