<svg xmlns="http://www.w3.org/2000/svg" viewBox="0 0 74.37 103.38"><title>39</title><path d="M37.19,0l9.34,16.11c3.1,5.39,6.23,10.75,9.29,16.15L74.26,64.63a.84.84,0,0,1-.12,1h0L37.9,103.08a1,1,0,0,1-1.41,0l0,0L.24,65.64h0a.83.83,0,0,1-.13-1L18.55,32.26c3.06-5.4,6.19-10.76,9.29-16.15L37.19,0,28.37,16.41c-3,5.46-5.88,10.94-8.88,16.38L1.6,65.46l-.14-1L37.9,101.68H36.47L72.91,64.45l-.13,1L54.88,32.79C51.89,27.35,49,21.87,46,16.41Z"/><path d="M54.59,37.34A29,29,0,0,1,65.1,51.82a29.32,29.32,0,1,1-55.83,0A29,29,0,0,1,19.79,37.34,29,29,0,0,0,10,69.6,28.9,28.9,0,0,0,20.5,83.7a28.71,28.71,0,0,0,33.38,0A28.78,28.78,0,0,0,64.64,52,29.25,29.25,0,0,0,54.59,37.34Z"/><path d="M21.77,36a.59.59,0,0,1-.18.82.6.6,0,1,1,.18-.82Z"/><path d="M23.86,34.78a.6.6,0,0,1-1.06.58.6.6,0,1,1,1.06-.58Z"/><path d="M26,33.77a.59.59,0,0,1-.31.78.6.6,0,0,1-.79-.3.6.6,0,0,1,.31-.8A.59.59,0,0,1,26,33.77Z"/><path d="M28.3,32.93a.6.6,0,0,1-1.14.4.6.6,0,1,1,1.14-.4Z"/><path d="M30.62,32.29a.6.6,0,1,1-.73-.44A.6.6,0,0,1,30.62,32.29Z"/><path d="M33,31.85a.61.61,0,0,1-.5.68.6.6,0,1,1-.2-1.18A.61.61,0,0,1,33,31.85Z"/><path d="M35.38,31.6a.6.6,0,1,1-.65-.55A.59.59,0,0,1,35.38,31.6Z"/><path d="M37.79,31.55a.61.61,0,0,1-1.21,0,.6.6,0,0,1,.61-.6A.59.59,0,0,1,37.79,31.55Z"/><path d="M40.19,31.7a.6.6,0,0,1-.65.54A.6.6,0,0,1,39,31.6a.6.6,0,0,1,1.2.1Z"/><path d="M42.57,32.05a.6.6,0,0,1-.69.48.6.6,0,1,1,.69-.48Z"/><path d="M44.92,32.59a.6.6,0,0,1-1.17-.3.6.6,0,0,1,.73-.44A.61.61,0,0,1,44.92,32.59Z"/><path d="M47.21,33.33a.6.6,0,0,1-1.14-.4.6.6,0,1,1,1.14.4Z"/><path d="M49.43,34.25a.6.6,0,0,1-1.1-.48.6.6,0,1,1,1.1.48Z"/><path d="M51.57,35.36a.6.6,0,0,1-1.06-.58.6.6,0,1,1,1.06.58Z"/><path d="M53.61,36.64a.6.6,0,1,1-.17-.84A.61.61,0,0,1,53.61,36.64Z"/><path d="M37.19,54.71a17.48,17.48,0,0,1-12.55-5,17.76,17.76,0,0,1-.15-25.24,17.83,17.83,0,0,1,25.39,0,17.76,17.76,0,0,1-.15,25.24,17.47,17.47,0,0,1-12.54,5,17.49,17.49,0,0,0,12.2-5.3,17.15,17.15,0,0,0-12.21-29.2,17,17,0,0,0-12,4.95A17.24,17.24,0,0,0,25,49.41,17.51,17.51,0,0,0,37.19,54.71Z"/><path d="M17,78.34a.61.61,0,0,1-.24.81.6.6,0,0,1-.81-.23.59.59,0,0,1,.23-.82A.6.6,0,0,1,17,78.34Z"/><path d="M19.17,77.29a.59.59,0,0,1-.29.79.6.6,0,0,1-.79-.28.6.6,0,1,1,1.08-.51Z"/><path d="M21.38,76.35a.6.6,0,1,1-1.11.45.59.59,0,0,1,.32-.78A.6.6,0,0,1,21.38,76.35Z"/><path d="M23.63,75.54a.62.62,0,0,1-.37.76.6.6,0,0,1-.39-1.14A.59.59,0,0,1,23.63,75.54Z"/><path d="M25.93,74.85a.6.6,0,1,1-.74-.42A.6.6,0,0,1,25.93,74.85Z"/><path d="M28.26,74.3a.6.6,0,0,1-1.17.26.59.59,0,0,1,.45-.72A.6.6,0,0,1,28.26,74.3Z"/><path d="M30.62,73.87a.61.61,0,0,1-.5.69.6.6,0,1,1,.5-.69Z"/><path d="M33,73.58a.6.6,0,1,1-.67-.54A.6.6,0,0,1,33,73.58Z"/><path d="M35.39,73.41a.6.6,0,1,1-.63-.57A.6.6,0,0,1,35.39,73.41Z"/><path d="M37.78,73.38a.6.6,0,1,1-1.19,0,.6.6,0,1,1,1.19,0Z"/><path d="M40.18,73.48a.6.6,0,0,1-1.2-.07.6.6,0,0,1,.63-.57A.6.6,0,0,1,40.18,73.48Z"/><path d="M42.56,73.71A.6.6,0,1,1,42,73,.59.59,0,0,1,42.56,73.71Z"/><path d="M44.93,74.07a.6.6,0,1,1-.49-.7A.6.6,0,0,1,44.93,74.07Z"/><path d="M47.28,74.56a.6.6,0,1,1-1.17-.27.6.6,0,0,1,1.17.27Z"/><path d="M49.59,75.18a.6.6,0,0,1-.73.41.61.61,0,0,1-.42-.74.6.6,0,0,1,.74-.42A.59.59,0,0,1,49.59,75.18Z"/><path d="M51.87,75.93a.6.6,0,1,1-.37-.77A.59.59,0,0,1,51.87,75.93Z"/><path d="M54.1,76.8a.59.59,0,0,1-.78.32.6.6,0,0,1-.33-.77.61.61,0,0,1,.79-.34A.6.6,0,0,1,54.1,76.8Z"/><path d="M56.28,77.8A.6.6,0,1,1,56,77,.61.61,0,0,1,56.28,77.8Z"/><path d="M58.4,78.91a.6.6,0,0,1-.81.24.61.61,0,0,1-.24-.81.6.6,0,1,1,1,.57Z"/></svg>