<svg xmlns="http://www.w3.org/2000/svg" viewBox="0 0 67.07 105.47"><title>48</title><path d="M45.53,83.42a.59.59,0,1,1,.77.34A.59.59,0,0,1,45.53,83.42Z"/><path d="M43.33,84.2a.59.59,0,0,1,.36-.75.61.61,0,0,1,.75.38.6.6,0,0,1-.37.76A.58.58,0,0,1,43.33,84.2Z"/><path d="M41.07,84.82a.58.58,0,1,1,.72.44A.6.6,0,0,1,41.07,84.82Z"/><path d="M38.78,85.27a.58.58,0,1,1,.68.49A.57.57,0,0,1,38.78,85.27Z"/><path d="M36.46,85.56a.58.58,0,1,1,.64.54A.58.58,0,0,1,36.46,85.56Z"/><path d="M34.12,85.68a.6.6,0,0,1,.56-.61.6.6,0,1,1-.56.61Z"/><path d="M31.78,85.64a.59.59,0,1,1,.57.63A.6.6,0,0,1,31.78,85.64Z"/><path d="M29.45,85.44a.59.59,0,1,1,.52.66A.59.59,0,0,1,29.45,85.44Z"/><path d="M27.14,85.07a.58.58,0,1,1,1.15.2.57.57,0,0,1-.68.49A.59.59,0,0,1,27.14,85.07Z"/><path d="M24.87,84.53a.59.59,0,0,1,.71-.43.6.6,0,1,1-.71.43Z"/><path d="M22.64,83.83a.6.6,0,0,1,.74-.38.61.61,0,0,1,.37.75.59.59,0,1,1-1.11-.37Z"/><path d="M20.46,83a.6.6,0,0,1,.77-.32.6.6,0,1,1-.77.32Z"/><path d="M14.63,26.2a.61.61,0,0,1-1,.72.61.61,0,0,1,1-.72Z"/><path d="M16.65,24.87a.61.61,0,0,1-.19.83.62.62,0,0,1-.83-.18.6.6,0,0,1,.19-.84A.59.59,0,0,1,16.65,24.87Z"/><path d="M18.78,23.7a.63.63,0,0,1-.26.81.62.62,0,0,1-.82-.25.61.61,0,0,1,1.08-.56Z"/><path d="M21,22.68a.62.62,0,0,1-.32.79.6.6,0,1,1-.48-1.1A.61.61,0,0,1,21,22.68Z"/><path d="M23.25,21.84a.61.61,0,0,1-1.15.4.61.61,0,0,1,1.15-.4Z"/><path d="M25.58,21.16a.63.63,0,0,1-.44.74.6.6,0,0,1-.73-.42.59.59,0,0,1,.42-.74A.6.6,0,0,1,25.58,21.16Z"/><path d="M28,20.67a.61.61,0,0,1-.49.69.6.6,0,0,1-.7-.47.59.59,0,0,1,.48-.7A.6.6,0,0,1,28,20.67Z"/><path d="M30.35,20.34a.6.6,0,0,1-.54.66.6.6,0,1,1-.13-1.19A.6.6,0,0,1,30.35,20.34Z"/><path d="M32.77,20.2a.62.62,0,0,1-.58.62.61.61,0,0,1-.63-.57.59.59,0,0,1,.58-.63A.6.6,0,0,1,32.77,20.2Z"/><path d="M35.19,20.23a.61.61,0,0,1-1.21,0,.61.61,0,1,1,1.21,0Z"/><path d="M37.6,20.44a.6.6,0,0,1-1.2-.13.59.59,0,0,1,.67-.53A.58.58,0,0,1,37.6,20.44Z"/><path d="M40,20.83a.61.61,0,0,1-1.2-.22.61.61,0,0,1,1.2.22Z"/><path d="M42.35,21.39a.6.6,0,0,1-1.17-.3.6.6,0,1,1,1.17.3Z"/><path d="M44.66,22.13a.6.6,0,0,1-.76.37.61.61,0,0,1-.39-.76.6.6,0,0,1,.77-.38A.59.59,0,0,1,44.66,22.13Z"/><path d="M46.91,23a.61.61,0,0,1-1.12-.48.61.61,0,0,1,.8-.32A.62.62,0,0,1,46.91,23Z"/><path d="M49.08,24.11a.61.61,0,0,1-.81.25.6.6,0,1,1,.55-1.07A.61.61,0,0,1,49.08,24.11Z"/><path d="M51.17,25.34a.61.61,0,0,1-.83.19.6.6,0,0,1-.2-.82.6.6,0,0,1,1,.63Z"/><path d="M53.16,26.72a.6.6,0,0,1-.84.13.61.61,0,0,1-.14-.84.61.61,0,0,1,1,.71Z"/><path d="M54.12,27.47A20.35,20.35,0,0,1,51.51,34a21.69,21.69,0,0,1-4.69,5.29,21.18,21.18,0,0,1-31.19-5.18A20.34,20.34,0,0,1,13,27.6a21.86,21.86,0,0,0,7.84,11.13,21.32,21.32,0,0,0,25.53-.07A21.91,21.91,0,0,0,54.12,27.47Z"/><path d="M33.53.94a21.26,21.26,0,0,0-16.6,8.48,20.66,20.66,0,0,0-3.8,8.67,21.54,21.54,0,0,0-.34,4.75,18.54,18.54,0,0,0,.44,4.69l-.18.56A32.08,32.08,0,0,0,19.8,81.66l.38.34,14.2,22.41H32.69L46.89,82l.38-.34a32.13,32.13,0,0,0,16-40.82,32.27,32.27,0,0,0-9.45-12.94l.49-.94h0l-.68.38A21.47,21.47,0,0,0,53.91,18a20.79,20.79,0,0,0-3.83-8.61A21.28,21.28,0,0,0,33.53.94,21.1,21.1,0,0,1,43,3,21.58,21.58,0,0,1,54.65,27.6L54,28h0l.5-.95a33.43,33.43,0,0,1-6.38,56.28l.38-.34L34.38,105.47H32.69L18.61,83l.39.34A33.78,33.78,0,0,1,6.22,72.57a33.35,33.35,0,0,1,6.14-45.32l-.18.56a19.59,19.59,0,0,1-.4-5,22.69,22.69,0,0,1,.49-4.92A21.58,21.58,0,0,1,24.07,3,21.11,21.11,0,0,1,33.53.94Z"/><path d="M47.67,82.49C53.79,72.58,59.86,62.65,66,52.78v.32L49.53,27.18l-16.42-26H34l-16.43,26L1,53.1v-.32c6.17,9.87,12.24,19.8,18.35,29.71C13.1,72.7,6.76,62.93.52,53.1l-.1-.16.1-.16L16.78,26.7,33.11.67,33.53,0,34,.67l16.32,26L66.54,52.78l.11.16-.11.16C60.31,62.93,54,72.7,47.67,82.49Z"/></svg>