<svg xmlns="http://www.w3.org/2000/svg" viewBox="0 0 78.11 95.99"><title>09</title><path d="M39.16,94h-.11a.5.5,0,0,1-.37-.61l.23-1a.5.5,0,0,1,.6-.37.49.49,0,0,1,.37.6l-.23,1A.51.51,0,0,1,39.16,94Zm.7-2.92h-.11a.5.5,0,0,1-.37-.6l.23-1a.5.5,0,1,1,1,.24l-.23,1A.5.5,0,0,1,39.86,91.05Zm.7-2.92h-.11a.49.49,0,0,1-.37-.6l.23-1a.5.5,0,0,1,.6-.37.49.49,0,0,1,.37.6l-.23,1A.5.5,0,0,1,40.56,88.13Zm.7-2.91-.11,0a.49.49,0,0,1-.37-.6l.23-1a.5.5,0,0,1,.6-.37.49.49,0,0,1,.37.6l-.23,1A.5.5,0,0,1,41.26,85.22ZM42,82.3h-.11a.5.5,0,0,1-.37-.61l.23-1a.51.51,0,0,1,.61-.37.51.51,0,0,1,.36.61l-.23,1A.49.49,0,0,1,42,82.3Zm.71-2.92h-.12a.49.49,0,0,1-.37-.6l.23-1a.52.52,0,0,1,.61-.37.51.51,0,0,1,.36.61l-.23,1A.49.49,0,0,1,42.67,79.38Zm.7-2.91-.12,0a.5.5,0,0,1-.37-.6l.23-1a.5.5,0,0,1,1,.23l-.24,1A.5.5,0,0,1,43.37,76.47Zm.7-2.92H44a.51.51,0,0,1-.37-.61l.23-1a.51.51,0,0,1,.61-.37.51.51,0,0,1,.37.6l-.24,1A.49.49,0,0,1,44.07,73.55Zm.7-2.92h-.12a.51.51,0,0,1-.37-.6l.23-1a.52.52,0,0,1,.61-.37.51.51,0,0,1,.37.61l-.24,1A.49.49,0,0,1,44.77,70.63Zm.7-2.92h-.12a.5.5,0,0,1-.37-.6l.23-1a.51.51,0,0,1,.61-.37.5.5,0,0,1,.37.6l-.24,1A.49.49,0,0,1,45.47,67.71Zm.7-2.91-.12,0a.5.5,0,0,1-.37-.6l.24-1a.5.5,0,1,1,1,.23l-.24,1A.5.5,0,0,1,46.17,64.8Zm.7-2.92h-.12a.51.51,0,0,1-.37-.61l.24-1a.5.5,0,0,1,.6-.37.51.51,0,0,1,.37.61l-.24,1A.49.49,0,0,1,46.87,61.88Zm.7-2.92h-.12a.5.5,0,0,1-.37-.6l.24-1a.5.5,0,0,1,1,.23l-.23,1A.51.51,0,0,1,47.57,59Zm.7-2.91-.12,0a.5.5,0,0,1-.37-.6l.24-1a.5.5,0,0,1,1,.23l-.23,1A.51.51,0,0,1,48.27,56.05Zm.7-2.92h-.12a.51.51,0,0,1-.37-.61l.24-1a.5.5,0,0,1,.6-.37.51.51,0,0,1,.37.6l-.23,1A.5.5,0,0,1,49,53.13Zm.7-2.92h-.12a.51.51,0,0,1-.37-.6l.24-1a.5.5,0,1,1,1,.24l-.23,1A.5.5,0,0,1,49.67,50.21Zm.7-2.91-.12,0a.5.5,0,0,1-.37-.6l.24-1a.5.5,0,0,1,1,.23l-.23,1A.51.51,0,0,1,50.37,47.3Zm.7-2.92H51a.5.5,0,0,1-.37-.61l.23-1a.5.5,0,0,1,1,.23l-.23,1A.51.51,0,0,1,51.07,44.38Zm.7-2.92h-.11a.5.5,0,0,1-.37-.6l.23-1a.5.5,0,0,1,.6-.37.5.5,0,0,1,.37.61l-.23,1A.5.5,0,0,1,51.77,41.46Zm.7-2.92h-.11a.49.49,0,0,1-.37-.6l.23-1a.51.51,0,0,1,.6-.37.49.49,0,0,1,.37.6l-.23,1A.5.5,0,0,1,52.47,38.54Zm.7-2.91-.11,0a.49.49,0,0,1-.37-.6l.23-1a.5.5,0,0,1,1,.23l-.23,1A.51.51,0,0,1,53.17,35.63Zm.7-2.92h-.11a.5.5,0,0,1-.37-.61l.23-1a.5.5,0,1,1,1,.23l-.23,1A.49.49,0,0,1,53.87,32.71Z"/><path d="M21.17,19.91a.5.5,0,0,1-.48-.35.5.5,0,0,1,.33-.63l18-5.64.15,0,17.89,5.6a.51.51,0,0,1,.33.63.5.5,0,0,1-.63.32L39.05,14.33,21.32,19.88A.4.4,0,0,1,21.17,19.91Z"/><polygon points="39.05 95.99 0 24.98 20.87 18.45 21.46 20.36 2.93 26.16 39.05 91.84 75.18 26.16 56.64 20.36 57.24 18.45 78.11 24.98 39.05 95.99"/><path d="M39.05,95.22,14.94,37,39.05,13.11,63.17,37Zm-22.93-58L39.05,92.61,62,37.2,39.05,14.51Z"/><path d="M39,94a.51.51,0,0,1-.49-.38l-.23-1a.49.49,0,0,1,.37-.6.5.5,0,0,1,.6.37l.23,1a.5.5,0,0,1-.37.61Zm-.7-2.92a.5.5,0,0,1-.49-.38l-.23-1a.5.5,0,1,1,1-.24l.23,1a.5.5,0,0,1-.37.61Zm-.7-2.92a.49.49,0,0,1-.49-.38l-.23-1a.49.49,0,0,1,.37-.6.51.51,0,0,1,.6.37l.23,1a.49.49,0,0,1-.37.6Zm-.71-2.91a.5.5,0,0,1-.48-.39l-.23-1a.49.49,0,0,1,.37-.6.5.5,0,0,1,.6.37l.23,1a.49.49,0,0,1-.37.6Zm-.7-2.92a.49.49,0,0,1-.48-.38l-.24-1a.5.5,0,0,1,1-.23l.23,1a.5.5,0,0,1-.37.61Zm-.7-2.92A.49.49,0,0,1,35,79l-.24-1a.5.5,0,0,1,1-.24l.23,1a.49.49,0,0,1-.37.6Zm-.7-2.91a.5.5,0,0,1-.48-.39l-.24-1a.5.5,0,0,1,.37-.6.51.51,0,0,1,.61.37l.23,1a.5.5,0,0,1-.37.6ZM34,73.55a.49.49,0,0,1-.48-.38l-.24-1a.51.51,0,0,1,.37-.6.51.51,0,0,1,.61.37l.23,1a.51.51,0,0,1-.37.61Zm-.7-2.92a.49.49,0,0,1-.48-.38l-.24-1a.51.51,0,0,1,.37-.61.52.52,0,0,1,.61.37l.23,1a.51.51,0,0,1-.37.61Zm-.7-2.92a.49.49,0,0,1-.48-.38l-.24-1a.5.5,0,1,1,1-.23l.24,1a.5.5,0,0,1-.37.6Zm-.7-2.91a.5.5,0,0,1-.48-.38l-.24-1a.5.5,0,1,1,1-.23l.24,1a.5.5,0,0,1-.37.6Zm-.7-2.92a.5.5,0,0,1-.49-.38l-.23-1a.51.51,0,0,1,.37-.61.5.5,0,0,1,.6.37l.24,1a.51.51,0,0,1-.37.61ZM30.54,59a.5.5,0,0,1-.49-.38l-.23-1a.5.5,0,1,1,1-.23l.24,1a.5.5,0,0,1-.37.6Zm-.7-2.91a.51.51,0,0,1-.49-.39l-.23-1a.5.5,0,1,1,1-.23l.24,1A.5.5,0,0,1,30,56Zm-.7-2.92a.5.5,0,0,1-.49-.38l-.23-1a.5.5,0,1,1,1-.23l.24,1a.52.52,0,0,1-.37.61Zm-.7-2.92a.5.5,0,0,1-.49-.38l-.23-1a.5.5,0,1,1,1-.24l.23,1a.5.5,0,0,1-.36.6Zm-.7-2.91a.51.51,0,0,1-.49-.39l-.23-1a.49.49,0,0,1,.37-.6.5.5,0,0,1,.6.37l.23,1a.49.49,0,0,1-.37.6ZM27,44.38a.51.51,0,0,1-.49-.38l-.23-1a.49.49,0,0,1,.37-.6.5.5,0,0,1,.6.37l.23,1a.5.5,0,0,1-.37.61Zm-.7-2.92a.5.5,0,0,1-.49-.38l-.23-1a.5.5,0,1,1,1-.24l.23,1a.5.5,0,0,1-.37.61Zm-.7-2.92a.5.5,0,0,1-.49-.38l-.23-1a.5.5,0,1,1,1-.23l.23,1a.49.49,0,0,1-.37.6Zm-.7-2.91a.5.5,0,0,1-.49-.39l-.23-1a.49.49,0,0,1,.37-.6.51.51,0,0,1,.6.37l.23,1a.49.49,0,0,1-.37.6Zm-.71-2.92a.49.49,0,0,1-.48-.38l-.23-1a.5.5,0,0,1,.36-.6.51.51,0,0,1,.61.37l.23,1a.5.5,0,0,1-.37.61Z"/><path d="M54.11,31.74l-.12,0a.5.5,0,0,1-.37-.6L56.49,19.2a.5.5,0,1,1,1,.23L54.59,31.36A.5.5,0,0,1,54.11,31.74Z"/><polygon points="21.84 20.02 20.43 18.61 39.05 0 57.68 18.61 56.27 20.02 39.05 2.83 21.84 20.02"/><path d="M24,31.74a.5.5,0,0,1-.48-.38L20.65,19.43a.5.5,0,0,1,1-.23l2.87,11.92a.5.5,0,0,1-.37.6Z"/></svg>