<svg xmlns="http://www.w3.org/2000/svg" viewBox="0 0 51.4 93.82"><title>03</title><path d="M25.7,93.82,0,57.39,25.7,0,51.4,57.39ZM2.29,57.17,25.7,90.35,49.11,57.17,25.7,4.89Z"/><polygon points="44.74 64.64 25.7 18.93 6.66 64.64 5.74 64.26 25.7 16.32 45.66 64.26 44.74 64.64"/><path d="M45.39,65.41a.5.5,0,0,1-.46-.3l-.19-.47a.5.5,0,0,1,.92-.38l.2.46a.5.5,0,0,1-.27.65A.48.48,0,0,1,45.39,65.41Z"/><path d="M48.78,73.53a.5.5,0,0,1-.47-.3l-.37-.91a.5.5,0,1,1,.92-.38l.38.9a.52.52,0,0,1-.27.66A.63.63,0,0,1,48.78,73.53Zm-1.13-2.7a.5.5,0,0,1-.46-.31l-.38-.9a.5.5,0,1,1,.92-.39l.38.9a.5.5,0,0,1-.27.66A.43.43,0,0,1,47.65,70.83Zm-1.13-2.71a.51.51,0,0,1-.46-.31l-.38-.9a.51.51,0,0,1,.27-.65.5.5,0,0,1,.66.27l.37.9a.49.49,0,0,1-.27.65A.41.41,0,0,1,46.52,68.12Z"/><path d="M49.31,76.09a.5.5,0,0,1-.41-.22.5.5,0,0,1,.12-.69l.08-.06,0-.09a.49.49,0,0,1,.26-.65.5.5,0,0,1,.66.27l.35.83L49.6,76A.52.52,0,0,1,49.31,76.09Z"/><path d="M27.71,91.18A.49.49,0,0,1,27.3,91a.5.5,0,0,1,.13-.7l.8-.55a.49.49,0,0,1,.69.12.51.51,0,0,1-.12.7l-.8.55A.45.45,0,0,1,27.71,91.18Zm2.4-1.67a.5.5,0,0,1-.41-.22.5.5,0,0,1,.12-.69l.8-.56a.5.5,0,0,1,.7.12.51.51,0,0,1-.12.7l-.8.56A.52.52,0,0,1,30.11,89.51Zm2.4-1.68a.49.49,0,0,1-.41-.21.5.5,0,0,1,.13-.7l.8-.56a.5.5,0,0,1,.69.12.51.51,0,0,1-.12.7l-.8.56A.52.52,0,0,1,32.51,87.83Zm2.4-1.68a.49.49,0,0,1-.41-.21.51.51,0,0,1,.12-.7l.8-.56a.51.51,0,0,1,.7.13.5.5,0,0,1-.12.69l-.8.56A.52.52,0,0,1,34.91,86.15Zm2.4-1.68a.5.5,0,0,1-.29-.9l.81-.56a.49.49,0,0,1,.69.12.5.5,0,0,1-.12.69l-.8.56A.45.45,0,0,1,37.31,84.47Zm2.4-1.67a.5.5,0,0,1-.41-.22.5.5,0,0,1,.12-.69l.8-.56a.5.5,0,0,1,.7.12.51.51,0,0,1-.12.7l-.8.56A.52.52,0,0,1,39.71,82.8Zm2.4-1.68a.49.49,0,0,1-.41-.21.51.51,0,0,1,.12-.7l.8-.56a.5.5,0,1,1,.58.82l-.8.56A.52.52,0,0,1,42.11,81.12Zm2.4-1.68a.49.49,0,0,1-.41-.21.51.51,0,0,1,.12-.7L45,78a.51.51,0,0,1,.7.13.5.5,0,0,1-.12.69l-.8.56A.52.52,0,0,1,44.51,79.44Zm2.4-1.68a.49.49,0,0,1-.41-.21.51.51,0,0,1,.12-.7l.8-.55a.5.5,0,1,1,.58.81l-.8.56A.52.52,0,0,1,46.91,77.76Z"/><path d="M25.7,92.7,25,92.21a.49.49,0,0,1-.13-.69.51.51,0,0,1,.7-.13l.12.09.13-.09a.5.5,0,0,1,.57.82Z"/><path d="M23.69,91.18a.41.41,0,0,1-.28-.09l-.8-.55a.5.5,0,1,1,.57-.82l.8.55a.51.51,0,0,1,.12.7A.49.49,0,0,1,23.69,91.18Zm-2.4-1.67a.47.47,0,0,1-.28-.09l-.8-.56a.5.5,0,1,1,.57-.82l.8.56a.5.5,0,0,1-.29.91Zm-2.4-1.68a.47.47,0,0,1-.28-.09l-.8-.56a.5.5,0,0,1-.13-.7.51.51,0,0,1,.7-.12l.8.56a.5.5,0,0,1-.29.91Zm-2.4-1.68a.47.47,0,0,1-.28-.09l-.8-.56a.49.49,0,0,1-.13-.69.51.51,0,0,1,.7-.13l.8.56a.5.5,0,0,1,.12.7A.48.48,0,0,1,16.49,86.15Zm-2.4-1.68a.41.41,0,0,1-.28-.09l-.8-.56a.49.49,0,0,1-.13-.69.5.5,0,0,1,.7-.12l.8.56a.49.49,0,0,1,.12.69A.48.48,0,0,1,14.09,84.47Zm-2.4-1.67a.47.47,0,0,1-.28-.09l-.8-.56a.5.5,0,1,1,.57-.82l.8.56a.5.5,0,0,1-.29.91Zm-2.4-1.68A.47.47,0,0,1,9,81l-.8-.56a.5.5,0,0,1-.13-.7.51.51,0,0,1,.7-.12l.8.56a.5.5,0,0,1,.12.7A.48.48,0,0,1,9.29,81.12Zm-2.4-1.68a.47.47,0,0,1-.28-.09l-.8-.56a.49.49,0,0,1-.13-.69.51.51,0,0,1,.7-.13l.8.56a.5.5,0,0,1,.12.7A.48.48,0,0,1,6.89,79.44Zm-2.4-1.68a.47.47,0,0,1-.28-.09l-.8-.56a.49.49,0,0,1-.13-.69A.5.5,0,0,1,4,76.3l.8.55a.5.5,0,0,1,.12.7A.48.48,0,0,1,4.49,77.76Z"/><path d="M2.09,76.09A.47.47,0,0,1,1.81,76l-.74-.52.34-.83a.5.5,0,0,1,.93.38l0,.09.08.06a.5.5,0,0,1-.29.91Z"/><path d="M2.63,73.53a.69.69,0,0,1-.2,0,.52.52,0,0,1-.27-.66l.38-.9a.5.5,0,1,1,.92.38l-.37.91A.5.5,0,0,1,2.63,73.53Zm1.12-2.7a.65.65,0,0,1-.19,0,.52.52,0,0,1-.27-.66l.38-.9A.51.51,0,0,1,4.32,69a.5.5,0,0,1,.27.66l-.37.9A.51.51,0,0,1,3.75,70.83Zm1.13-2.71a.43.43,0,0,1-.19,0,.49.49,0,0,1-.27-.65l.37-.91a.5.5,0,0,1,.93.39l-.38.9A.5.5,0,0,1,4.88,68.12Z"/><path d="M6,65.41a.41.41,0,0,1-.19,0,.49.49,0,0,1-.27-.65l.19-.46a.5.5,0,0,1,.92.38l-.19.46A.49.49,0,0,1,6,65.41Z"/><path d="M12,73.13a.57.57,0,0,1-.18,0,.49.49,0,0,1-.29-.64l.17-.47a.5.5,0,0,1,.65-.29.5.5,0,0,1,.29.64l-.17.47A.51.51,0,0,1,12,73.13Z"/><path d="M12.86,70.78a.57.57,0,0,1-.18,0,.5.5,0,0,1-.29-.65l.35-.94a.5.5,0,0,1,.64-.3.52.52,0,0,1,.3.65l-.36.94A.49.49,0,0,1,12.86,70.78ZM13.91,68a.33.33,0,0,1-.17,0,.5.5,0,0,1-.3-.64l.35-.94a.52.52,0,0,1,.65-.3.5.5,0,0,1,.29.65l-.35.94A.52.52,0,0,1,13.91,68ZM15,65.11a.57.57,0,0,1-.18,0,.49.49,0,0,1-.29-.64l.35-.94a.5.5,0,1,1,.94.34l-.35,1A.51.51,0,0,1,15,65.11Zm1-2.83a.5.5,0,0,1-.47-.67l.36-1a.5.5,0,1,1,.93.35l-.35,1A.49.49,0,0,1,16,62.28Zm1.06-2.83-.18,0a.51.51,0,0,1-.29-.65l.35-.94a.5.5,0,0,1,.65-.29.49.49,0,0,1,.29.64l-.35.94A.5.5,0,0,1,17.08,59.45Zm1.06-2.83-.18,0a.5.5,0,0,1-.29-.65L18,55a.5.5,0,0,1,.64-.3.52.52,0,0,1,.3.65l-.36.94A.49.49,0,0,1,18.14,56.62Zm1.05-2.83a.47.47,0,0,1-.17,0,.5.5,0,0,1-.3-.64l.36-.94a.5.5,0,1,1,.93.35l-.35.94A.52.52,0,0,1,19.19,53.79ZM20.25,51l-.18,0a.49.49,0,0,1-.29-.64l.35-1a.5.5,0,0,1,.64-.29.5.5,0,0,1,.3.64l-.35,1A.51.51,0,0,1,20.25,51Zm1.05-2.83-.17,0a.5.5,0,0,1-.3-.64l.36-1a.5.5,0,1,1,.93.35l-.35.95A.49.49,0,0,1,21.3,48.12Zm1.06-2.83a.57.57,0,0,1-.18,0,.51.51,0,0,1-.29-.65l.35-.94a.5.5,0,0,1,.65-.29.49.49,0,0,1,.29.64l-.35.94A.5.5,0,0,1,22.36,45.29Zm1.06-2.83a.57.57,0,0,1-.18,0,.5.5,0,0,1-.29-.65l.35-.94a.5.5,0,0,1,.64-.3.52.52,0,0,1,.3.65l-.36.94A.49.49,0,0,1,23.42,42.46Zm1-2.83a.47.47,0,0,1-.17,0A.5.5,0,0,1,24,39l.36-.94a.5.5,0,1,1,.93.35l-.35.94A.51.51,0,0,1,24.47,39.63Z"/><path d="M25.88,36.79a.57.57,0,0,1-.18,0,.53.53,0,0,1-.35,0,.49.49,0,0,1-.29-.64l.64-1.73.65,1.73a.5.5,0,0,1-.47.67Z"/><path d="M38.55,70.78a.51.51,0,0,1-.47-.32l-.35-.95a.49.49,0,0,1,.29-.64.5.5,0,0,1,.65.29l.35,1a.5.5,0,0,1-.29.64A.57.57,0,0,1,38.55,70.78ZM37.49,68a.49.49,0,0,1-.46-.33l-.36-.94A.5.5,0,0,1,37,66a.49.49,0,0,1,.64.29l.35.94a.5.5,0,0,1-.29.65A.57.57,0,0,1,37.49,68Zm-1.05-2.83a.51.51,0,0,1-.47-.33l-.35-.94a.5.5,0,1,1,.93-.35l.36.94a.5.5,0,0,1-.3.64A.33.33,0,0,1,36.44,65.12Zm-1.06-2.84a.51.51,0,0,1-.47-.32l-.35-1a.5.5,0,0,1,.94-.34l.35.94a.49.49,0,0,1-.29.64A.57.57,0,0,1,35.38,62.28Zm-1.05-2.83a.49.49,0,0,1-.47-.32l-.36-1a.5.5,0,0,1,.3-.64.49.49,0,0,1,.64.29l.35,1a.49.49,0,0,1-.29.64Zm-1.06-2.83a.5.5,0,0,1-.47-.33l-.35-.94a.49.49,0,0,1,.29-.64.5.5,0,0,1,.65.29l.35.94a.52.52,0,0,1-.3.65A.47.47,0,0,1,33.27,56.62Zm-1.06-2.83a.49.49,0,0,1-.46-.33l-.36-.94a.52.52,0,0,1,.3-.65.51.51,0,0,1,.64.3l.35.94a.5.5,0,0,1-.29.65A.57.57,0,0,1,32.21,53.79ZM31.16,51a.49.49,0,0,1-.47-.32l-.35-.94a.5.5,0,1,1,.93-.35l.36.94a.5.5,0,0,1-.3.64ZM30.1,48.12a.51.51,0,0,1-.47-.32l-.35-.95a.5.5,0,0,1,.94-.35l.35,1a.49.49,0,0,1-.29.64ZM29,45.29a.48.48,0,0,1-.46-.33L28.22,44a.5.5,0,0,1,.3-.64.49.49,0,0,1,.64.29l.35.95a.5.5,0,0,1-.29.64A.57.57,0,0,1,29,45.29ZM28,42.46a.52.52,0,0,1-.47-.33l-.35-.94a.49.49,0,0,1,.29-.64.5.5,0,0,1,.65.29l.35.94a.52.52,0,0,1-.3.65A.47.47,0,0,1,28,42.46Zm-1.06-2.83a.52.52,0,0,1-.47-.33l-.35-.94a.52.52,0,0,1,.3-.65.5.5,0,0,1,.64.3l.35.94a.49.49,0,0,1-.29.64A.39.39,0,0,1,26.93,39.63Z"/><path d="M39.43,73.14a.52.52,0,0,1-.47-.33l-.17-.47a.5.5,0,1,1,.93-.35l.18.47a.52.52,0,0,1-.3.65A.47.47,0,0,1,39.43,73.14Z"/><polygon points="47.4 92.59 4 92.59 11.51 72.46 12.45 72.81 5.44 91.59 45.96 91.59 38.96 72.81 39.9 72.46 47.4 92.59"/></svg>