<?xml version="1.0" encoding="utf-8"?>
<!-- Generator: Adobe Illustrator 23.0.3, SVG Export Plug-In . SVG Version: 6.00 Build 0)  -->
<svg version="1.1" id="Layer_1" xmlns="http://www.w3.org/2000/svg" xmlns:xlink="http://www.w3.org/1999/xlink" x="0px" y="0px"
	 viewBox="0 0 215.32 186.48" style="enable-background:new 0 0 215.32 186.48;" xml:space="preserve">
<style type="text/css">
	.st0{fill:#231F20;}
</style>
<g>
	<polygon class="st0" points="12.64,186.48 0,186.48 6.32,175.53 7.46,176.19 2.28,185.16 12.64,185.16 	"/>
	<path class="st0" d="M18.02,157.9l-1.14-0.66l10.56-18.29l1.14,0.66L18.02,157.9z M39.13,121.33l-1.14-0.66l10.56-18.29l1.14,0.66
		L39.13,121.33z M60.25,84.75l-1.14-0.66l10.56-18.29l1.14,0.66L60.25,84.75z M81.36,48.18l-1.14-0.66l10.56-18.29l1.14,0.66
		L81.36,48.18z"/>
	<polygon class="st0" points="112.84,11.6 107.66,2.63 102.48,11.6 101.34,10.95 107.66,0 113.98,10.95 	"/>
	<path class="st0" d="M197.31,157.9l-10.56-18.29l1.14-0.66l10.56,18.29L197.31,157.9z M176.19,121.33l-10.56-18.29l1.14-0.66
		l10.56,18.29L176.19,121.33z M155.08,84.75l-10.56-18.29l1.14-0.66l10.56,18.29L155.08,84.75z M133.96,48.18L123.4,29.89l1.14-0.66
		l10.56,18.29L133.96,48.18z"/>
	<polygon class="st0" points="215.32,186.48 202.68,186.48 202.68,185.16 213.05,185.16 207.87,176.19 209,175.53 	"/>
	<path class="st0" d="M181.57,186.48h-21.12v-1.31h21.12V186.48z M139.34,186.48h-21.12v-1.31h21.12V186.48z M97.1,186.48H75.99
		v-1.31H97.1V186.48z M54.87,186.48H33.76v-1.31h21.12V186.48z"/>
	
		<rect x="150.19" y="95.78" transform="matrix(0.8661 -0.4998 0.4998 0.8661 -27.3273 90.8495)" class="st0" width="11.5" height="1.31"/>
	<path class="st0" d="M31.41,169.1l-0.66-1.14l19.98-11.54l0.66,1.14L31.41,169.1z M71.37,146.03l-0.66-1.14l19.98-11.54l0.66,1.14
		L71.37,146.03z M111.33,122.96l-0.66-1.14l19.98-11.54l0.66,1.14L111.33,122.96z"/>
	
		<rect x="0.37" y="182.29" transform="matrix(0.8662 -0.4998 0.4998 0.8662 -90.6095 27.5428)" class="st0" width="11.5" height="1.31"/>
	<rect x="58.72" y="90.69" transform="matrix(0.5 -0.866 0.866 0.5 -53.8311 99.6475)" class="st0" width="1.31" height="11.5"/>
	<path class="st0" d="M183.92,169.1l-19.98-11.54l0.66-1.14l19.98,11.54L183.92,169.1z M143.95,146.03l-19.98-11.54l0.66-1.14
		l19.98,11.54L143.95,146.03z M103.99,122.96l-19.98-11.54l0.66-1.14l19.98,11.54L103.99,122.96z"/>
	<rect x="208.55" y="177.19" transform="matrix(0.5 -0.866 0.866 0.5 -53.8319 272.6454)" class="st0" width="1.31" height="11.5"/>
</g>
</svg>
