<?xml version="1.0" encoding="utf-8"?>
<!-- Generator: Adobe Illustrator 23.0.3, SVG Export Plug-In . SVG Version: 6.00 Build 0)  -->
<svg version="1.1" id="Layer_1" xmlns="http://www.w3.org/2000/svg" xmlns:xlink="http://www.w3.org/1999/xlink" x="0px" y="0px"
	 viewBox="0 0 214.55 186.01" style="enable-background:new 0 0 214.55 186.01;" xml:space="preserve">
<style type="text/css">
	.st0{fill:#231F20;}
</style>
<g>
	<path class="st0" d="M203.96,18.54c-0.13,0-0.27-0.03-0.39-0.1c-0.38-0.22-0.5-0.7-0.29-1.07l9.12-15.8h-18.24
		c-0.43,0-0.78-0.35-0.78-0.78c0-0.43,0.35-0.78,0.78-0.78h19.6c0.28,0,0.54,0.15,0.68,0.39s0.14,0.54,0,0.78l-9.8,16.97
		C204.5,18.4,204.24,18.54,203.96,18.54z"/>
	<path class="st0" d="M107.27,186.01c-0.28,0-0.54-0.15-0.68-0.39l-9.8-16.97c-0.22-0.38-0.09-0.85,0.29-1.07
		c0.37-0.22,0.85-0.09,1.07,0.29l9.12,15.8l9.12-15.8c0.22-0.38,0.7-0.5,1.07-0.29c0.38,0.22,0.5,0.7,0.29,1.07l-9.8,16.97
		C107.81,185.87,107.55,186.01,107.27,186.01z"/>
	<path class="st0" d="M10.58,18.54c-0.27,0-0.53-0.14-0.68-0.39L0.1,1.18c-0.14-0.24-0.14-0.54,0-0.78C0.24,0.15,0.5,0,0.78,0h19.6
		c0.43,0,0.78,0.35,0.78,0.78c0,0.43-0.35,0.78-0.78,0.78H2.14l9.12,15.8c0.22,0.38,0.09,0.85-0.29,1.07
		C10.85,18.51,10.72,18.54,10.58,18.54z"/>
	<path class="st0" d="M73.63,93.79h-19.6c-0.28,0-0.54-0.15-0.68-0.39c-0.14-0.24-0.14-0.54,0-0.78l9.8-16.97
		c0.22-0.38,0.7-0.5,1.07-0.29c0.38,0.22,0.5,0.7,0.29,1.07l-9.12,15.8h18.24c0.43,0,0.78,0.35,0.78,0.78
		C74.41,93.44,74.06,93.79,73.63,93.79z"/>
	<path class="st0" d="M117.07,18.54c-0.27,0-0.53-0.14-0.68-0.39l-9.12-15.8l-9.12,15.8c-0.22,0.37-0.7,0.5-1.07,0.29
		c-0.38-0.22-0.5-0.7-0.29-1.07l9.8-16.97c0.28-0.49,1.08-0.49,1.36,0l9.8,16.97c0.22,0.38,0.09,0.85-0.29,1.07
		C117.34,18.51,117.21,18.54,117.07,18.54z"/>
	<path class="st0" d="M160.52,93.79h-19.6c-0.43,0-0.78-0.35-0.78-0.78c0-0.43,0.35-0.78,0.78-0.78h18.24l-9.12-15.8
		c-0.22-0.38-0.09-0.85,0.29-1.07c0.37-0.22,0.85-0.09,1.07,0.29l9.8,16.97c0.14,0.24,0.14,0.54,0,0.78
		C161.06,93.64,160.8,93.79,160.52,93.79z"/>
	<path class="st0" d="M107.27,93.79c-0.28,0-0.54-0.15-0.68-0.39L79.97,47.29c-0.14-0.24-0.14-0.54,0-0.78s0.4-0.39,0.68-0.39h53.25
		c0.28,0,0.54,0.15,0.68,0.39s0.14,0.54,0,0.78L107.95,93.4C107.81,93.64,107.55,93.79,107.27,93.79z M82.01,47.68l25.26,43.76
		l25.26-43.76H82.01z"/>
	<path class="st0" d="M133.9,139.9H80.65c-0.28,0-0.54-0.15-0.68-0.39c-0.14-0.24-0.14-0.54,0-0.78l26.62-46.11
		c0.28-0.49,1.08-0.49,1.36,0l26.62,46.11c0.14,0.24,0.14,0.54,0,0.78C134.44,139.75,134.18,139.9,133.9,139.9z M82.01,138.33h50.53
		l-25.26-43.76L82.01,138.33z"/>
	<path class="st0" d="M80.65,47.69H27.41c-0.28,0-0.54-0.15-0.68-0.39c-0.14-0.24-0.14-0.54,0-0.78L53.35,0.4
		c0.28-0.49,1.08-0.49,1.36,0l26.62,46.11c0.14,0.24,0.14,0.54,0,0.78C81.19,47.54,80.93,47.69,80.65,47.69z M28.76,46.12h50.53
		L54.03,2.36L28.76,46.12z"/>
	<path class="st0" d="M187.14,47.69H133.9c-0.28,0-0.54-0.15-0.68-0.39c-0.14-0.24-0.14-0.54,0-0.78L159.84,0.4
		c0.28-0.49,1.08-0.49,1.36,0l26.62,46.11c0.14,0.24,0.14,0.54,0,0.78C187.68,47.54,187.42,47.69,187.14,47.69z M135.26,46.12h50.53
		L160.52,2.36L135.26,46.12z"/>
</g>
</svg>
