<svg id="f92cc423-b76c-4000-b047-2e378ce35618" data-name="Layer 1" xmlns="http://www.w3.org/2000/svg" viewBox="0 0 199.16 199.16"><defs><style>.f71cc1e8-f4c6-469b-9027-e4c30035e81d{fill:#000000;}</style></defs><title>06u</title><g id="bf9c496f-1cd2-48f2-9739-79159e0666eb" data-name="items"><rect class="f71cc1e8-f4c6-469b-9027-e4c30035e81d" x="140.37" y="0.69" width="0.73" height="1.1" transform="translate(10.26 54) rotate(-22.52)"/><path class="f71cc1e8-f4c6-469b-9027-e4c30035e81d" d="M196.81,137.59l-.85-2.05.68-.29.85,2.06Zm-1.7-4.11-.85-2.06.68-.28.85,2.06Zm-1.7-4.11-.85-2.06.67-.28.85,2.06Zm-1.71-4.12-.85-2,.68-.28.85,2Zm-1.7-4.11-.85-2,.68-.28.85,2ZM188.3,117l-.85-2.06.67-.28.85,2.06Zm-1.71-4.11-.85-2.06.68-.28.85,2.06Zm-1.7-4.11-.85-2.06.67-.28.86,2.06Zm-1.7-4.12-.85-2,.67-.28.85,2Zm-1.71-4.11-.85-2.06.68-.28.85,2.06Zm-1.7-4.11-.85-2.06.68-.28.85,2.06Zm-1.7-4.11-.85-2.06.67-.28.85,2.06Zm-1.71-4.12-.85-2,.68-.28.85,2Zm-1.7-4.11-.85-2,.68-.28.85,2ZM173,80l-.88-2,.67-.28.85,2.06Zm-1.71-4.11-.85-2.06.68-.28.85,2.06Zm-1.7-4.11-.85-2.06.67-.28.86,2.06Zm-1.7-4.12-.89-2,.67-.28.85,2.05Zm-1.71-4.11-.85-2.06.68-.28.85,2.06Zm-1.7-4.11-.85-2.06.68-.28.85,2.06Zm-1.7-4.11-.85-2.06.67-.28.85,2.06ZM161,51.23l-.85-2,.68-.28.85,2Zm-1.7-4.11-.85-2,.68-.28.85,2ZM157.64,43l-.85-2,.67-.28.85,2.06Zm-1.71-4.11-.85-2.06.68-.28.85,2.06Zm-1.7-4.11-.85-2.06.68-.28.85,2Zm-1.7-4.12-.85-2.05.67-.28.85,2.05Zm-1.71-4.11L150,24.5l.68-.28.85,2.06Zm-1.7-4.11-.85-2.06.68-.28.85,2.06Zm-1.7-4.11-.85-2.06.67-.28.85,2.06Zm-1.71-4.12-.85-2.05.68-.28.85,2ZM144,10.11l-.85-2,.67-.28.86,2.05ZM142.31,6l-.85-2.06.67-.28L143,5.72Z"/><rect class="f71cc1e8-f4c6-469b-9027-e4c30035e81d" x="197.85" y="139.47" width="0.73" height="1.1" transform="translate(-38.52 86.64) rotate(-22.53)"/><rect class="f71cc1e8-f4c6-469b-9027-e4c30035e81d" x="140.16" y="0.73" width="0.73" height="1.1"/><path class="f71cc1e8-f4c6-469b-9027-e4c30035e81d" d="M140.89,195.13h-.73v-2.2h.73Zm0-4.39h-.73v-2.2h.73Zm0-4.4h-.73v-2.19h.73Zm0-4.39h-.73v-2.2h.73Zm0-4.39h-.73v-2.2h.73Zm0-4.4h-.73V171h.73Zm0-4.39h-.73v-2.2h.73Zm0-4.39h-.73v-2.2h.73Zm0-4.4h-.73v-2.19h.73Zm0-4.39h-.73v-2.2h.73Zm0-4.39h-.73V149h.73Zm0-4.4h-.73v-2.19h.73Zm0-4.39h-.73v-2.2h.73Zm0-4.39h-.73v-2.2h.73Zm0-4.39h-.73v-2.2h.73Zm0-4.4h-.73V127h.73Zm0-4.39h-.73v-2.2h.73Zm0-4.39h-.73v-2.2h.73Zm0-4.4h-.73v-2.19h.73Zm0-4.39h-.73v-2.2h.73Zm0-4.39h-.73v-2.2h.73Zm0-4.4h-.73v-2.19h.73Zm0-4.39h-.73v-2.2h.73Zm0-4.39h-.73v-2.2h.73Zm0-4.4h-.73V87.5h.73Zm0-4.39h-.73V83.1h.73Zm0-4.39h-.73v-2.2h.73Zm0-4.4h-.73V74.32h.73Zm0-4.39h-.73v-2.2h.73Zm0-4.39h-.73v-2.2h.73Zm0-4.4h-.73V61.14h.73Zm0-4.39h-.73v-2.2h.73Zm0-4.39h-.73v-2.2h.73Zm0-4.4h-.73V48h.73Zm0-4.39h-.73V43.57h.73Zm0-4.39h-.73v-2.2h.73Zm0-4.39h-.73v-2.2h.73Zm0-4.4h-.73V30.39h.73Zm0-4.39h-.73V26h.73Zm0-4.39h-.73V21.6h.73Zm0-4.4h-.73V17.21h.73Zm0-4.39h-.73v-2.2h.73Zm0-4.39h-.73V8.42h.73Zm0-4.4h-.73V4h.73Z"/><rect class="f71cc1e8-f4c6-469b-9027-e4c30035e81d" x="140.16" y="197.33" width="0.73" height="1.1"/><rect class="f71cc1e8-f4c6-469b-9027-e4c30035e81d" x="139.75" y="0.87" width="1.1" height="0.73" transform="translate(85.43 130.36) rotate(-67.48)"/><path class="f71cc1e8-f4c6-469b-9027-e4c30035e81d" d="M60.23,195.53l-.68-.28.84-2,.67.28Zm1.67-4-.68-.28.84-2,.67.28Zm1.67-4-.68-.28.84-2,.68.28Zm1.67-4-.67-.28.83-2,.68.28Zm1.67-4-.67-.28.83-2,.68.28Zm1.67-4-.67-.28.83-2,.68.28Zm1.67-4-.67-.28.83-2,.68.28Zm1.68-4-.68-.28.83-2,.68.28Zm1.67-4-.68-.28.84-2,.67.28Zm1.67-4-.68-.28.84-2,.67.28Zm1.67-4-.68-.28.84-2,.67.28Zm1.67-4-.68-.28.84-2,.68.28Zm1.67-4-.67-.28.83-2,.68.28Zm1.67-4-.67-.28.83-2,.68.28Zm1.67-4-.67-.28.83-2,.68.28Zm1.67-4-.67-.28.83-2,.68.28ZM87,131l-.67-.28.84-2,.67.28Zm1.68-4-.68-.28.84-2,.67.28Zm1.67-4-.68-.28.84-2,.67.28ZM92,119l-.68-.28.84-2,.67.28Zm1.67-4-.68-.28.84-2,.68.28Zm1.67-4-.68-.28.84-2,.68.28ZM97,107l-.67-.28.83-2,.68.28Zm1.67-4-.67-.28.83-2,.68.28Zm1.67-4-.67-.28.83-2,.68.28ZM102,95l-.67-.28.83-2,.68.28Zm1.68-4-.68-.28.84-2,.67.28Zm1.67-4-.68-.28.84-2,.67.28Zm1.67-4-.68-.28.84-2,.67.28Zm1.67-4-.68-.28.84-2,.67.28Zm1.67-4-.68-.28.84-2,.68.28Zm1.67-4-.67-.28.83-2,.68.28Zm1.67-4-.67-.28.83-2,.68.28Zm1.67-4-.67-.28.83-2,.68.28Zm1.67-4-.67-.28.83-2,.68.28Zm1.67-4-.67-.28.84-2,.67.28Zm1.68-4-.68-.28.84-2,.67.28Zm1.67-4-.68-.28.84-2,.67.28Zm1.67-4-.68-.28.84-2,.67.28Zm1.67-4-.68-.28.84-2,.68.28Zm1.67-4-.68-.28.84-2L128,33Zm1.67-4-.67-.28.83-2,.68.28Zm1.67-4-.67-.28.83-2,.68.28Zm1.67-4-.67-.28.83-2L133,21Zm1.67-4-.67-.28.84-2,.67.28Zm1.68-4-.68-.28.84-2,.67.28Zm1.67-4-.68-.28.84-2L138,9Zm1.67-4-.68-.28.84-2,.67.28Z"/><rect class="f71cc1e8-f4c6-469b-9027-e4c30035e81d" x="58.3" y="197.55" width="1.1" height="0.73" transform="matrix(0.38, -0.92, 0.92, 0.38, -146.51, 176.44)"/><rect class="f71cc1e8-f4c6-469b-9027-e4c30035e81d" x="139.58" y="0.76" width="1.1" height="0.73" transform="translate(40.25 99.41) rotate(-45)"/><path class="f71cc1e8-f4c6-469b-9027-e4c30035e81d" d="M3.32,138.45l-.52-.52,1.56-1.55.51.52Zm3.11-3.11-.52-.51,1.55-1.56.52.52Zm3.1-3.1L9,131.72l1.55-1.55.52.51Zm3.11-3.11-.52-.52,1.56-1.55.51.52ZM15.75,126l-.52-.51L16.78,124l.52.52Zm3.1-3.1-.52-.52,1.56-1.55.52.52ZM22,119.81l-.52-.52L23,117.74l.51.52Zm3.11-3.1-.52-.52,1.55-1.56.52.52Zm3.1-3.11-.52-.52,1.56-1.55.52.52Zm3.11-3.11L30.8,110l1.55-1.56.52.52Zm3.1-3.1-.51-.52,1.55-1.55.52.51Zm3.11-3.11-.52-.52,1.56-1.55.51.52Zm3.11-3.11-.52-.51,1.55-1.56.52.52Zm3.1-3.1-.51-.52L44.74,96l.52.51ZM46.81,95l-.52-.52,1.56-1.55.51.52Zm3.11-3.11-.52-.51,1.6-1.6.52.52Zm3.1-3.1-.51-.52,1.55-1.55.52.51Zm3.11-3.11-.52-.52,1.56-1.55.51.52Zm3.11-3.11L58.72,82l1.55-1.56.52.52Zm3.1-3.1L61.83,79l1.55-1.55.52.52Zm3.11-3.11-.52-.52,1.55-1.55.52.52Zm3.11-3.1L68,72.7l1.55-1.56.52.52Zm3.1-3.11-.52-.52L72.7,68l.51.52ZM74.77,67l-.52-.52,1.55-1.55.52.52Zm3.11-3.1-.52-.52,1.55-1.55.52.51ZM81,60.79l-.52-.52L82,58.72l.51.52Zm3.11-3.11-.52-.51,1.55-1.56.52.52Zm3.1-3.1-.51-.52,1.55-1.55.52.51Zm3.11-3.11L89.78,51l1.56-1.55.51.52Zm3.11-3.11-.52-.51,1.55-1.56.52.52Zm3.1-3.1L96,44.74l1.55-1.55.52.51Zm3.11-3.11-.52-.52,1.56-1.55.51.52ZM102.73,39l-.52-.51L103.76,37l.52.52Zm3.1-3.1-.51-.52,1.55-1.55.52.52Zm3.11-3.11-.52-.52L110,30.76l.52.52Zm3.11-3.1-.52-.52,1.55-1.56.52.52Zm3.1-3.11-.52-.52,1.56-1.55.52.52Zm3.11-3.11-.52-.51,1.55-1.56.52.52Zm3.11-3.1-.52-.52,1.55-1.55.52.51Zm3.1-3.11-.52-.52,1.56-1.55.51.52Zm3.11-3.11-.52-.51,1.55-1.56.52.52Zm3.1-3.1-.51-.52L131.72,9l.52.51ZM133.79,8l-.52-.52,1.56-1.55.51.52Zm3.11-3.11-.52-.51,1.55-1.56.52.52Z"/><rect class="f71cc1e8-f4c6-469b-9027-e4c30035e81d" x="0.57" y="139.77" width="1.1" height="0.73" transform="translate(-98.76 41.84) rotate(-45)"/><rect class="f71cc1e8-f4c6-469b-9027-e4c30035e81d" x="139.46" y="0.57" width="1.1" height="0.73" transform="translate(10.36 53.81) rotate(-22.57)"/><path class="f71cc1e8-f4c6-469b-9027-e4c30035e81d" d="M3.94,57.7,3.66,57l2.06-.85.28.68ZM8.06,56l-.28-.68,2.05-.85.28.68Zm4.11-1.71-.28-.67,2-.85.28.67Zm4.11-1.7L16,51.91l2.06-.85.28.68Zm4.11-1.7-.28-.68,2.06-.85.28.68Zm4.11-1.71-.28-.67,2.06-.85.28.67Zm4.12-1.7-.28-.68,2.05-.8.28.68Zm4.11-1.7-.28-.68,2.06-.85.28.68Zm4.11-1.71-.28-.67,2.06-.85.28.67ZM41,42.37l-.28-.68,2.06-.85.28.68Zm4.12-1.7L44.79,40l2.05-.85.28.68ZM49.18,39l-.28-.67,2.1-.89.28.67Zm4.11-1.7L53,36.58l2.06-.85.28.68Zm4.11-1.7-.28-.68L59.18,34l.28.68Zm4.11-1.71-.27-.67,2-.85.28.67Zm4.12-1.7-.28-.68,2.05-.85.28.68Zm4.11-1.7-.28-.68L71.52,29l.27.68Zm4.11-1.71-.28-.67,2.06-.85.28.67ZM78,27l-.28-.68,2.06-.85.28.68Zm4.12-1.7-.28-.68,2-.85.28.68Zm4.11-1.71L85.91,23l2-.85.28.67Zm4.11-1.7L90,21.25l2.06-.85.28.68Zm4.11-1.7-.28-.68,2.06-.85.28.68Zm4.11-1.71-.27-.67,2-.85.28.67Zm4.12-1.7-.28-.68,2-.85.28.68Zm4.11-1.7-.28-.68,2.06-.85.27.68Zm4.11-1.71-.28-.67,2.06-.85.28.67Zm4.11-1.7-.28-.68,2.06-.85.28.68Zm4.12-1.7-.28-.68,2-.85.28.68ZM123.2,8.3l-.28-.67,2-.85.28.67Zm4.11-1.7L127,5.92l2.06-.85.28.68Zm4.11-1.7-.28-.68,2.06-.85.28.68Zm4.12-1.71-.28-.67,2.05-.85.28.67Z"/><rect class="f71cc1e8-f4c6-469b-9027-e4c30035e81d" x="0.69" y="58.06" width="1.1" height="0.73" transform="translate(-22.32 4.95) rotate(-22.56)"/><rect class="f71cc1e8-f4c6-469b-9027-e4c30035e81d" x="197.67" y="58.78" width="1.1" height="0.73" transform="translate(67.64 219.57) rotate(-67.47)"/><path class="f71cc1e8-f4c6-469b-9027-e4c30035e81d" d="M142.13,195.49l-.67-.28.85-2.05.67.28Zm1.7-4.11-.67-.28L144,189l.68.29Zm1.71-4.11-.68-.28.85-2.06.68.28Zm1.7-4.11-.67-.28.85-2.06.67.28ZM149,179l-.68-.28.85-2,.68.28Zm1.7-4.11-.68-.28.85-2.05.68.28Zm1.7-4.11-.67-.28.85-2.06.67.28Zm1.7-4.11-.67-.28.85-2.06.68.28Zm1.71-4.11-.68-.28.85-2.06.68.28Zm1.7-4.12-.67-.28.85-2,.67.28Zm1.71-4.11-.68-.28.85-2.06.68.28Zm1.7-4.11-.68-.28.85-2.06.68.28Zm1.7-4.11-.67-.28.85-2.06.67.28Zm1.71-4.12-.68-.28.85-2.05.68.28Zm1.7-4.11-.68-.28.85-2,.68.28Zm1.7-4.11-.67-.28.85-2.06.67.28Zm1.7-4.11-.67-.28.85-2.06.68.28Zm1.71-4.11-.68-.28.85-2.06.68.28Zm1.7-4.12-.67-.28.85-2,.67.28Zm1.71-4.11-.68-.28.85-2.06.68.28Zm1.7-4.11-.68-.28.85-2.06.68.28Zm1.7-4.11-.67-.28.85-2.06.67.28Zm1.71-4.12-.68-.28.85-2,.68.28Zm1.7-4.11-.68-.28.85-2,.68.28ZM183,96.8l-.67-.28.85-2.06.67.28Zm1.7-4.11-.67-.28.85-2.06.68.28Zm1.71-4.11-.68-.29.85-2.05.68.28Zm1.7-4.12-.67-.28.85-2.05.67.28Zm1.71-4.11-.68-.28L190,78l.68.28Zm1.7-4.11-.68-.28.85-2.06.68.28Zm1.7-4.11-.67-.28.85-2.06.67.28ZM194.94,68l-.68-.28.85-2,.68.28Zm1.7-4.11-.68-.28.85-2,.68.28Z"/><rect class="f71cc1e8-f4c6-469b-9027-e4c30035e81d" x="140.18" y="197.56" width="1.1" height="0.73" transform="translate(-96.01 252.08) rotate(-67.47)"/><rect class="f71cc1e8-f4c6-469b-9027-e4c30035e81d" x="197.5" y="58.67" width="1.1" height="0.73" transform="translate(16.16 157.14) rotate(-44.94)"/><path class="f71cc1e8-f4c6-469b-9027-e4c30035e81d" d="M61.22,196.35l-.51-.51,1.55-1.56.52.52Zm3.11-3.1-.52-.52,1.56-1.55.51.51Zm3.11-3.11-.52-.52,1.55-1.55.52.52Zm3.1-3.11-.51-.51L71.58,185l.52.52Zm3.11-3.1-.52-.52,1.56-1.55.51.51Zm3.11-3.11-.52-.52,1.55-1.55.52.52Zm3.1-3.11-.52-.51,1.56-1.56.52.52Zm3.11-3.1-.52-.52L84,172.54l.52.52Zm3.11-3.11-.52-.52,1.55-1.55.52.52Zm3.1-3.1-.52-.52,1.56-1.56.52.52Zm3.11-3.11-.52-.52,1.55-1.55.52.52Zm3.1-3.11-.51-.51,1.55-1.56.52.52Zm3.11-3.1-.52-.52L99.54,157l.51.51Zm3.11-3.11-.52-.52,1.55-1.55.52.52Zm3.1-3.11-.51-.51,1.55-1.56.52.52Zm3.11-3.1-.52-.52,1.56-1.55.51.51Zm3.11-3.11-.52-.52,1.55-1.55.52.52Zm3.1-3.11-.51-.51,1.55-1.56.52.52Zm3.11-3.1-.52-.52,1.55-1.55.52.51Zm3.11-3.11-.52-.52,1.55-1.55.52.52Zm3.1-3.11-.52-.51,1.56-1.56.52.52Zm3.11-3.1-.52-.52,1.55-1.55.52.51Zm3.11-3.11-.52-.52,1.55-1.55.52.52Zm3.1-3.1-.52-.52,1.56-1.56.51.52Zm3.11-3.11-.52-.52,1.55-1.55.52.52Zm3.1-3.11-.51-.52,1.55-1.55.52.52Zm3.11-3.1-.52-.52,1.56-1.55.51.51Zm3.11-3.11-.52-.52,1.55-1.55.52.52Zm3.1-3.11-.51-.51,1.55-1.56.52.52Zm3.11-3.1-.52-.52,1.56-1.55.51.51Zm3.11-3.11-.52-.52,1.55-1.55.52.52Zm3.1-3.11-.51-.51L158.56,98l.52.52Zm3.11-3.1-.52-.52,1.56-1.55.51.51Zm3.11-3.11-.52-.52,1.55-1.55.52.52Zm3.1-3.11-.51-.51,1.55-1.56.52.52Zm3.11-3.1-.52-.52L171,85.56l.52.52Zm3.11-3.11-.52-.52,1.55-1.55.52.52Zm3.1-3.1-.52-.52,1.56-1.56.51.52Zm3.11-3.11-.52-.52,1.55-1.55.52.52Zm3.11-3.11-.52-.51,1.55-1.56.52.52Zm3.1-3.1-.52-.52L186.52,70l.51.51Zm3.11-3.1-.52-.52,1.55-1.55.52.52Zm3.1-3.11-.51-.51,1.55-1.56.52.52Zm3.11-3.1-.52-.52,1.56-1.55.51.51Z"/><rect class="f71cc1e8-f4c6-469b-9027-e4c30035e81d" x="58.46" y="197.68" width="1.1" height="0.73" transform="translate(-122.65 99.54) rotate(-44.94)"/><polygon class="f71cc1e8-f4c6-469b-9027-e4c30035e81d" points="197.55 59.39 197.27 58.72 198.28 58.3 198.56 58.97 197.55 59.39"/><path class="f71cc1e8-f4c6-469b-9027-e4c30035e81d" d="M3.9,139.6l-.28-.67,2-.84.28.68Zm4-1.67-.28-.67,2-.84.28.68Zm4-1.67-.28-.67,2-.84.28.68Zm4-1.67-.28-.68,2-.83.28.68Zm4-1.67-.28-.68,2-.83.28.67Zm4-1.67-.28-.68,2-.83.28.67Zm4-1.67-.28-.68,2-.83.28.67Zm4-1.67-.28-.68,2-.84.28.68Zm4-1.67-.28-.68,2-.84.28.68Zm4-1.68-.28-.67,2-.84.28.68Zm4-1.67-.28-.67,2-.84.28.68Zm4-1.67-.28-.67,2-.84.28.68Zm4-1.67-.28-.67,2-.84.28.68Zm4-1.67-.28-.68,2-.83.28.68Zm4-1.67-.28-.68,2-.83.28.67Zm4-1.67-.28-.68,2-.83.28.67Zm4-1.67-.28-.68,2-.83.28.67Zm4-1.67-.28-.68,2-.84.28.68Zm4-1.67-.28-.68,2-.84.28.68Zm4-1.68-.27-.67,2-.84.28.68Zm4-1.67-.28-.67,2-.84.28.68Zm4-1.67-.28-.67,2-.84.28.68Zm4-1.67-.28-.68,2-.83.27.68Zm4-1.67-.28-.68,2-.83.28.67Zm4-1.67-.28-.68,2-.83.28.67Zm4-1.67-.28-.68,2-.83.28.67Zm4-1.67-.27-.68,2-.84.28.68Zm4-1.67-.28-.68,2-.84.28.68Zm4-1.68-.28-.67,2-.84.28.68Zm4-1.67-.28-.67,2-.84.28.68Zm4-1.67-.28-.67,2-.84.28.68Zm4-1.67-.28-.67,2-.84L131,87Zm4-1.67-.28-.68,2-.83.28.68Zm4-1.67-.28-.68,2-.83.28.67Zm4-1.67-.28-.68,2-.83.28.67Zm4-1.67-.28-.68,2-.83.28.67Zm4-1.67-.28-.68,2-.84.28.68Zm4-1.67-.28-.68,2-.84.28.68Zm4-1.68-.28-.67,2-.84.28.68Zm4-1.67-.28-.67,2-.84.28.68Zm4-1.67-.28-.67,2-.84.28.68Zm4-1.67-.28-.68,2-.83.28.68Zm4-1.67-.28-.68,2-.83.28.68Zm4-1.67-.28-.68,2-.83.28.67Zm4-1.67-.28-.68,2-.83.28.67Zm4-1.67-.28-.68,2-.84.28.68Zm4-1.67-.28-.68,2-.84.28.68Zm4-1.68-.27-.67,2-.84.28.68Z"/><rect class="f71cc1e8-f4c6-469b-9027-e4c30035e81d" x="0.69" y="139.95" width="1.1" height="0.73" transform="translate(-53.74 11.21) rotate(-22.56)"/><rect class="f71cc1e8-f4c6-469b-9027-e4c30035e81d" x="197.33" y="58.27" width="1.1" height="0.73"/><path class="f71cc1e8-f4c6-469b-9027-e4c30035e81d" d="M195.13,59h-2.2v-.73h2.2Zm-4.39,0h-2.2v-.73h2.2Zm-4.4,0h-2.19v-.73h2.19ZM182,59h-2.2v-.73H182Zm-4.39,0h-2.2v-.73h2.2Zm-4.4,0H171v-.73h2.19Zm-4.39,0h-2.2v-.73h2.2Zm-4.39,0h-2.2v-.73h2.2ZM160,59h-2.19v-.73H160Zm-4.39,0h-2.2v-.73h2.2Zm-4.39,0H149v-.73h2.2Zm-4.4,0h-2.19v-.73h2.19Zm-4.39,0h-2.19v-.73h2.19ZM138,59h-2.2v-.73H138Zm-4.39,0h-2.2v-.73h2.2Zm-4.4,0H127v-.73h2.19Zm-4.39,0h-2.2v-.73h2.2Zm-4.39,0h-2.2v-.73h2.2ZM116,59h-2.19v-.73H116Zm-4.39,0h-2.2v-.73h2.2Zm-4.39,0h-2.2v-.73h2.2Zm-4.4,0h-2.19v-.73h2.19Zm-4.39,0h-2.2v-.73h2.2Zm-4.39,0h-2.2v-.73h2.2Zm-4.4,0H87.5v-.73h2.19ZM85.3,59H83.1v-.73h2.2Zm-4.39,0h-2.2v-.73h2.2Zm-4.4,0H74.32v-.73h2.19Zm-4.39,0h-2.2v-.73h2.2Zm-4.39,0h-2.2v-.73h2.2Zm-4.4,0H61.14v-.73h2.19Zm-4.39,0H56.75v-.73h2.19Zm-4.39,0h-2.2v-.73h2.2Zm-4.39,0H48v-.73h2.2Zm-4.4,0H43.57v-.73h2.19Zm-4.39,0h-2.2v-.73h2.2ZM37,59H34.8v-.73H37Zm-4.4,0H30.39v-.73h2.19Zm-4.39,0H26v-.73h2.2ZM23.8,59H21.6v-.73h2.2Zm-4.4,0H17.21v-.73H19.4ZM15,59H12.8v-.73H15Zm-4.39,0H8.42v-.73h2.2Zm-4.4,0H4v-.73H6.22Z"/><rect class="f71cc1e8-f4c6-469b-9027-e4c30035e81d" x="0.73" y="58.27" width="1.1" height="0.73"/><rect class="f71cc1e8-f4c6-469b-9027-e4c30035e81d" x="197.56" y="57.88" width="0.73" height="1.1" transform="translate(68.12 218.86) rotate(-67.47)"/><path class="f71cc1e8-f4c6-469b-9027-e4c30035e81d" d="M195.21,57.7l-2.05-.85.28-.68,2.05.85ZM191.1,56l-2.1-.85.29-.68,2,.85ZM187,54.29l-2.06-.85.28-.67,2.06.85Zm-4.11-1.7-2.06-.85.28-.68,2.06.85Zm-4.12-1.7-2-.85.28-.68,2,.85Zm-4.11-1.71-2-.85.28-.67,2.05.85Zm-4.11-1.7-2.06-.85.28-.68,2.06.85Zm-4.11-1.7-2.06-.85.28-.68,2.06.85Zm-4.11-1.71-2.06-.85.28-.67,2.06.85Zm-4.12-1.7-2-.85.28-.68,2,.85Zm-4.11-1.7-2.1-.85.27-.68,2.06.85ZM150,39l-2.06-.85.28-.67,2.06.85Zm-4.11-1.7-2.06-.85.28-.68,2.06.85Zm-4.12-1.7-2.05-.85L140,34l2.05.85Zm-4.11-1.71-2-.85.28-.67,2,.85Zm-4.11-1.7-2.06-.85.28-.68,2.06.85Zm-4.11-1.7-2.06-.85.28-.68,2.06.85Zm-4.12-1.71-2-.85.28-.67,2.06.85ZM121.19,27l-2-.85.28-.68,2,.85Zm-4.11-1.7-2-.85.27-.68,2.06.85ZM113,23.63l-2.06-.85.28-.67,2.06.85Zm-4.11-1.7-2.06-.85.28-.68,2.06.85Zm-4.12-1.7-2-.85.28-.68,2,.85Zm-4.11-1.71-2-.85.28-.67,2,.85Zm-4.11-1.7L94.46,16l.28-.68,2.06.85Zm-4.11-1.7-2.06-.85.28-.68,2.06.85ZM88.3,13.41l-2.06-.85.28-.67,2.06.85Zm-4.12-1.7-2.05-.85.28-.68,2,.85ZM80.07,10,78,9.16l.28-.68,2.06.85ZM76,8.3l-2.1-.85.28-.67,2.06.85ZM71.85,6.6l-2.06-.85.28-.68,2.06.85ZM67.73,4.9l-2-.85L66,3.37l2,.85ZM63.62,3.19l-2-.85.28-.67,2,.85Z"/><rect class="f71cc1e8-f4c6-469b-9027-e4c30035e81d" x="58.78" y="0.39" width="0.73" height="1.1" transform="translate(35.61 55.21) rotate(-67.47)"/><polygon class="f71cc1e8-f4c6-469b-9027-e4c30035e81d" points="197.55 141.28 197.27 140.6 198.28 140.18 198.56 140.86 197.55 141.28"/><path class="f71cc1e8-f4c6-469b-9027-e4c30035e81d" d="M61.85,197.49l-.28-.68,2-.85.28.68Zm4.11-1.7-.28-.68,2-.85.28.68Zm4.11-1.71-.28-.67,2.06-.85.28.67Zm4.11-1.7-.28-.68,2.06-.85.28.68Zm4.11-1.7L78,190l2.06-.85.28.68ZM82.41,189l-.28-.67,2.05-.85.28.67Zm4.11-1.7-.28-.68,2.06-.85.28.68Zm4.11-1.7-.28-.68,2.06-.85.28.68Zm4.11-1.71-.28-.67,2.06-.85.28.67Zm4.12-1.7-.28-.68,2-.85.28.68Zm4.11-1.7-.28-.68,2.06-.85.27.68Zm4.11-1.71-.28-.67,2.06-.85.28.67Zm4.11-1.7-.28-.68,2.06-.85.28.68Zm4.11-1.7-.27-.68,2-.85.28.68Zm4.12-1.71-.28-.67,2-.85.28.67Zm4.11-1.7-.28-.68,2.06-.85.27.68Zm4.11-1.7-.28-.68,2.06-.85.28.68Zm4.11-1.71-.28-.67,2.06-.85.28.67Zm4.12-1.7-.28-.68,2-.85.28.68Zm4.11-1.7-.28-.68,2.05-.85.28.68Zm4.11-1.71-.28-.67,2.06-.86.28.68Zm4.11-1.7-.28-.68,2.06-.85.28.68Zm4.11-1.7-.27-.68,2.05-.85.28.68Zm4.12-1.71-.28-.67,2-.85.28.67Zm4.11-1.7-.28-.68,2.06-.85.28.68Zm4.11-1.7-.28-.68,2.06-.85.28.68Zm4.11-1.71-.28-.67,2.06-.85.28.67Zm4.12-1.7-.28-.68,2.05-.85.28.68Zm4.11-1.7-.28-.68,2-.85.28.68Zm4.11-1.71-.28-.67,2.06-.86.28.68Zm4.11-1.7-.28-.68,2.06-.85.28.68Zm4.12-1.7L189,144l2.06-.85.28.68Zm4.11-1.71-.28-.67,2.05-.85.28.67Z"/><rect class="f71cc1e8-f4c6-469b-9027-e4c30035e81d" x="58.59" y="197.85" width="1.1" height="0.73" transform="translate(-71.35 37.72) rotate(-22.5)"/><rect class="f71cc1e8-f4c6-469b-9027-e4c30035e81d" x="197.33" y="140.16" width="1.1" height="0.73"/><path class="f71cc1e8-f4c6-469b-9027-e4c30035e81d" d="M195.13,140.89h-2.2v-.73h2.2Zm-4.39,0h-2.2v-.73h2.2Zm-4.4,0h-2.19v-.73h2.19Zm-4.39,0h-2.2v-.73H182Zm-4.39,0h-2.2v-.73h2.2Zm-4.4,0H171v-.73h2.19Zm-4.39,0h-2.2v-.73h2.2Zm-4.39,0h-2.2v-.73h2.2Zm-4.4,0h-2.19v-.73H160Zm-4.39,0h-2.2v-.73h2.2Zm-4.39,0H149v-.73h2.2Zm-4.4,0h-2.19v-.73h2.19Zm-4.39,0h-2.19v-.73h2.19Zm-4.39,0h-2.2v-.73H138Zm-4.39,0h-2.2v-.73h2.2Zm-4.4,0H127v-.73h2.19Zm-4.39,0h-2.2v-.73h2.2Zm-4.39,0h-2.2v-.73h2.2Zm-4.4,0h-2.19v-.73h2.19Zm-4.39,0h-2.2v-.73h2.2Zm-4.39,0h-2.2v-.73h2.2Zm-4.4,0h-2.19v-.73h2.19Zm-4.39,0h-2.2v-.73h2.2Zm-4.39,0h-2.2v-.73h2.2Zm-4.4,0H87.5v-.73h2.19Zm-4.39,0H83.1v-.73h2.2Zm-4.39,0h-2.2v-.73h2.2Zm-4.4,0H74.32v-.73h2.19Zm-4.39,0h-2.2v-.73h2.2Zm-4.39,0h-2.2v-.73h2.2Zm-4.4,0H61.14v-.73h2.19Zm-4.39,0H56.75v-.73h2.19Zm-4.39,0h-2.2v-.73h2.2Zm-4.39,0H48v-.73h2.2Zm-4.4,0H43.57v-.73h2.19Zm-4.39,0h-2.2v-.73h2.2Zm-4.39,0h-2.2v-.73H37Zm-4.4,0H30.39v-.73h2.19Zm-4.39,0H26v-.73h2.2Zm-4.39,0H21.6v-.73h2.2Zm-4.4,0H17.21v-.73H19.4Zm-4.39,0h-2.2v-.73H15Zm-4.39,0H8.42v-.73h2.2Zm-4.4,0H4v-.73H6.22Z"/><rect class="f71cc1e8-f4c6-469b-9027-e4c30035e81d" x="0.73" y="140.16" width="1.1" height="0.73"/><rect class="f71cc1e8-f4c6-469b-9027-e4c30035e81d" x="197.55" y="139.77" width="0.73" height="1.1" transform="translate(-7.53 269.37) rotate(-67.47)"/><path class="f71cc1e8-f4c6-469b-9027-e4c30035e81d" d="M195.25,139.6l-2-.83.27-.68,2,.84Zm-4-1.67-2-.83.28-.68,2,.84Zm-4-1.67-2-.83.28-.68,2,.84Zm-4-1.67-2-.83.28-.68,2,.83Zm-4-1.67-2-.83.28-.68,2,.83Zm-4-1.67-2-.84.28-.67,2,.83Zm-4-1.67-2-.84.28-.67,2,.83Zm-4-1.67-2-.84.28-.68,2,.84Zm-4-1.67-2-.84.28-.68,2,.84Zm-4-1.68-2-.83.28-.68,2,.84Zm-4-1.67-2-.83.28-.68,2,.84Zm-4-1.67-2-.83.28-.68,2,.84Zm-4-1.67-2-.83.28-.68,2,.84Zm-4-1.67-2-.83.28-.68,2,.83Zm-4-1.67-2-.84.28-.67,2,.83Zm-4-1.67-2-.84L133,113l2,.83Zm-4-1.67-2-.84.28-.67,2,.83Zm-4-1.67-2-.84.28-.68,2,.84Zm-4-1.67-2-.84.28-.68,2,.84Zm-4-1.68-2-.83.28-.68,2,.84Zm-4-1.67-2-.83.28-.68,2,.84Zm-4-1.67-2-.83.27-.68,2,.84Zm-4-1.67-2-.83.28-.68,2,.83Zm-4-1.67-2-.84.28-.67,2,.83Zm-4-1.67-2-.84.28-.67,2,.83Zm-4-1.67-2-.84.28-.67,2,.83Zm-4-1.67-2-.84.28-.68,2,.84Zm-4-1.67-2-.84.28-.68,2,.84Zm-4-1.68-2-.83.28-.68,2,.84Zm-4-1.67-2-.83.28-.68,2,.84Zm-4-1.67-2-.83.28-.68,2,.84Zm-4-1.67-2-.83.28-.68,2,.84Zm-4-1.67-2-.84.28-.67,2,.83Zm-4-1.67-2-.84.28-.67,2,.83Zm-4-1.67-2-.84.28-.67,2,.83Zm-4-1.67-2-.84.28-.67,2,.83Zm-4-1.67-2-.84.28-.68,2,.84Zm-4-1.67-2-.84.28-.68,2,.84ZM42,76.1l-2-.83.28-.68,2,.84Zm-4-1.67-2-.83.28-.68,2,.84Zm-4-1.67-2-.83.28-.68,2,.84Zm-4-1.67-2-.83.28-.68,2,.83Zm-4-1.67-2-.84.28-.67,2,.83Zm-4-1.67-2-.84.28-.67,2,.83Zm-4-1.67-2-.84.28-.67,2,.83Zm-4-1.67-2-.84.28-.68,2,.84Zm-4-1.67L8,61.9l.28-.68,2,.84ZM6,61.06l-2-.83.28-.68,2,.84Z"/><rect class="f71cc1e8-f4c6-469b-9027-e4c30035e81d" x="0.88" y="58.3" width="0.73" height="1.1" transform="translate(-53.61 37.49) rotate(-67.52)"/><rect class="f71cc1e8-f4c6-469b-9027-e4c30035e81d" x="197.67" y="139.6" width="0.73" height="1.1" transform="translate(-41.09 181.12) rotate(-45.01)"/><path class="f71cc1e8-f4c6-469b-9027-e4c30035e81d" d="M195.84,138.45l-1.56-1.55.52-.52,1.55,1.55Zm-3.11-3.11-1.55-1.55.51-.52,1.56,1.56Zm-3.11-3.1-1.55-1.56.52-.51,1.55,1.55Zm-3.1-3.11L185,127.58l.52-.52,1.55,1.55ZM183.41,126l-1.55-1.55.52-.52,1.55,1.56Zm-3.11-3.1-1.55-1.55.52-.52,1.55,1.55Zm-3.1-3.11-1.56-1.55.52-.52,1.55,1.55Zm-3.11-3.1-1.55-1.56.52-.52,1.55,1.56ZM171,113.6l-1.55-1.55.52-.52,1.55,1.55Zm-3.1-3.11-1.55-1.55.51-.52L168.4,110Zm-3.11-3.1-1.55-1.56.52-.51,1.55,1.55Zm-3.1-3.11-1.56-1.55.52-.52,1.55,1.55Zm-3.11-3.11L157,99.62l.51-.52,1.56,1.56Zm-3.11-3.1-1.55-1.56.52-.51L156,97.55ZM152.35,95l-1.56-1.55.52-.52,1.55,1.55Zm-3.11-3.11-1.55-1.55.51-.52,1.56,1.56Zm-3.11-3.1-1.55-1.56.52-.51,1.55,1.55ZM143,85.64l-1.56-1.55.52-.52,1.55,1.55Zm-3.11-3.1L138.37,81l.51-.52L140.44,82Zm-3.11-3.11-1.55-1.55.52-.52,1.55,1.55Zm-3.1-3.11-1.56-1.55.52-.52,1.55,1.55Zm-3.11-3.1L129,71.66l.52-.52,1.55,1.56Zm-3.11-3.11-1.55-1.55.52-.52L128,69.59ZM124.39,67l-1.56-1.55.52-.52,1.56,1.56Zm-3.11-3.1-1.55-1.56.52-.51,1.55,1.55Zm-3.11-3.11-1.55-1.55.52-.52,1.55,1.55Zm-3.1-3.11-1.55-1.55.51-.52,1.56,1.56ZM112,54.58,110.41,53l.52-.51L112.48,54Zm-3.1-3.11-1.56-1.55.52-.52,1.51,1.6Zm-3.11-3.11-1.55-1.55.51-.52,1.56,1.56Zm-3.11-3.1-1.55-1.56.52-.51,1.55,1.55Zm-3.1-3.11L98,40.6l.52-.52,1.55,1.55ZM96.43,39l-1.55-1.55.51-.52L97,38.53Zm-3.11-3.1-1.55-1.55.52-.52,1.55,1.55Zm-3.1-3.11-1.56-1.55.52-.52,1.56,1.55Zm-3.11-3.1-1.55-1.56.52-.52,1.55,1.56ZM84,26.62l-1.55-1.55.52-.52,1.55,1.55Zm-3.1-3.11L79.34,22l.52-.52L81.42,23Zm-3.11-3.1-1.55-1.56.52-.51,1.55,1.55Zm-3.1-3.11-1.56-1.55.52-.52,1.55,1.55Zm-3.11-3.11L70,12.64l.51-.52,1.56,1.56Zm-3.11-3.1L66.92,9.53,67.44,9,69,10.57ZM65.37,8,63.81,6.43l.52-.52,1.55,1.55ZM62.26,4.87,60.71,3.32l.51-.52,1.56,1.56Z"/><rect class="f71cc1e8-f4c6-469b-9027-e4c30035e81d" x="58.67" y="0.57" width="0.73" height="1.1" transform="translate(16.51 42.08) rotate(-45.01)"/><rect class="f71cc1e8-f4c6-469b-9027-e4c30035e81d" x="139.65" y="197.68" width="0.73" height="1.1" transform="translate(-96.71 251.68) rotate(-67.49)"/><path class="f71cc1e8-f4c6-469b-9027-e4c30035e81d" d="M137.31,197.49l-2.05-.85.28-.68,2.05.85Zm-4.11-1.7-2.06-.85.28-.68,2.06.85Zm-4.11-1.71-2.06-.85.28-.67,2.06.85Zm-4.12-1.7-2-.85.28-.68,2,.85Zm-4.11-1.7-2-.85.28-.68,2,.85ZM116.75,189l-2.06-.85.28-.67,2.06.85Zm-4.11-1.7-2.06-.85.28-.68,2.06.85Zm-4.11-1.7-2.06-.85.28-.68,2,.85Zm-4.12-1.71-2-.85.28-.67,2,.85Zm-4.11-1.7-2-.85.27-.68,2.06.85Zm-4.11-1.7-2.06-.85.28-.68,2.06.85Zm-4.11-1.71L90,177.9l.28-.67,2.06.85ZM88,177.05l-2-.85.28-.68,2,.85Zm-4.11-1.7-2-.85.28-.68,2,.85Zm-4.11-1.71-2.06-.85.28-.67,2,.88Zm-4.11-1.7-2.06-.85.28-.68,2.06.85Zm-4.12-1.7-2-.85.28-.68,2.06.85Zm-4.11-1.71-2-.85.28-.67,2,.85Zm-4.11-1.7-2-.85.27-.68,2.06.85Zm-4.11-1.7-2.06-.85.28-.68,2.06.85Zm-4.11-1.71L53,162.57l.28-.67,2.06.85ZM51,161.72l-2-.85.28-.68,2,.85ZM46.84,160l-2.05-.85.28-.68,2,.85Zm-4.11-1.71-2.06-.85.28-.67,2.06.85Zm-4.11-1.7-2.06-.85.28-.68,2.06.85Zm-4.11-1.7L32.45,154l.28-.68,2.06.85Zm-4.12-1.71-2.05-.85.28-.67,2.05.85Zm-4.11-1.7-2.06-.85.28-.68,2.06.85Zm-4.11-1.7L20.11,149l.28-.68,2.06.85Zm-4.11-1.71L16,147.24l.28-.68,2.06.86Zm-4.12-1.7-2-.85.28-.68,2,.85Zm-4.11-1.7-2-.85.28-.68,2,.85ZM5.72,143l-2.06-.85.28-.67,2.06.85Z"/><rect class="f71cc1e8-f4c6-469b-9027-e4c30035e81d" x="0.87" y="140.18" width="0.73" height="1.1" transform="translate(-129.27 88.06) rotate(-67.52)"/><rect class="f71cc1e8-f4c6-469b-9027-e4c30035e81d" x="139.77" y="197.51" width="0.73" height="1.1" transform="translate(-99 157.1) rotate(-45)"/><path class="f71cc1e8-f4c6-469b-9027-e4c30035e81d" d="M137.93,196.35l-1.55-1.55.52-.52,1.55,1.56Zm-3.1-3.1-1.56-1.56.52-.51,1.55,1.55Zm-3.11-3.11-1.55-1.55.51-.52,1.56,1.55ZM128.61,187l-1.55-1.55.52-.52,1.55,1.56Zm-3.1-3.1L124,182.37l.52-.51,1.55,1.55Zm-3.11-3.11-1.55-1.55.52-.52,1.55,1.55Zm-3.11-3.11-1.55-1.55.52-.52,1.55,1.56Zm-3.1-3.1L114.63,173l.52-.51,1.56,1.55Zm-3.11-3.11L111.53,170l.52-.52L113.6,171ZM110,168.39l-1.55-1.55.52-.52,1.55,1.56Zm-3.1-3.1-1.55-1.55.51-.52,1.56,1.55Zm-3.11-3.11-1.55-1.55.52-.52,1.55,1.55Zm-3.1-3.1-1.56-1.56.52-.52,1.55,1.56ZM97.55,156,96,154.42l.51-.52,1.56,1.55Zm-3.11-3.11-1.55-1.55.52-.52L95,152.35Zm-3.1-3.1-1.56-1.56.52-.51,1.55,1.55Zm-3.11-3.11-1.55-1.55.51-.52,1.56,1.55Zm-3.11-3.11L83.57,142l.52-.52L85.64,143Zm-3.1-3.1-1.56-1.56.52-.51L82.53,140Zm-3.11-3.11-1.55-1.55.52-.52,1.55,1.55Zm-3.11-3.11-1.55-1.55.52-.52,1.55,1.56Zm-3.1-3.1-1.56-1.56.52-.51,1.55,1.55ZM69.59,128,68,126.46l.52-.52,1.55,1.55Zm-3.11-3.1-1.55-1.56.52-.52L67,124.39Zm-3.1-3.11-1.55-1.55.51-.52,1.56,1.55Zm-3.11-3.11-1.55-1.55.52-.52,1.55,1.55Zm-3.1-3.1L55.61,114l.52-.51L57.68,115Zm-3.11-3.11-1.55-1.55.51-.52,1.56,1.6ZM51,109.37l-1.55-1.55.52-.52,1.55,1.56Zm-3.1-3.1-1.56-1.56.52-.51,1.55,1.55Zm-3.11-3.11-1.55-1.55.51-.52,1.56,1.55Zm-3.11-3.11-1.6-1.55.52-.5,1.55,1.56Zm-3.15-3L37,95.39l.52-.51L39,96.43Zm-3.11-3.11-1.55-1.55.51-.52,1.56,1.55Zm-3.11-3.11-1.55-1.55.52-.52,1.55,1.56Zm-3.1-3.1-1.56-1.56.52-.51,1.56,1.55ZM26.1,84.52,24.55,83l.52-.52L26.62,84ZM23,81.42l-1.56-1.56.52-.52,1.55,1.56Zm-3.11-3.11-1.56-1.55.52-.52,1.56,1.55ZM16.78,75.2l-1.55-1.55.52-.52,1.55,1.55Zm-3.1-3.1-1.56-1.56.52-.52,1.55,1.56ZM10.57,69,9,67.44l.51-.52,1.56,1.55ZM7.46,65.88,5.91,64.33l.52-.52L8,65.37Zm-3.1-3.1L2.8,61.22l.52-.51,1.55,1.55Z"/><rect class="f71cc1e8-f4c6-469b-9027-e4c30035e81d" x="0.75" y="58.48" width="0.73" height="1.1" transform="translate(-41.41 18.07) rotate(-45)"/><rect class="f71cc1e8-f4c6-469b-9027-e4c30035e81d" x="139.94" y="197.37" width="0.73" height="1.1" transform="translate(-65.02 68.69) rotate(-22.48)"/><path class="f71cc1e8-f4c6-469b-9027-e4c30035e81d" d="M138.93,195.53l-.84-2,.68-.28.83,2Zm-1.67-4-.84-2,.68-.28.83,2Zm-1.67-4-.84-2,.68-.28.83,2Zm-1.67-4-.84-2,.67-.28.84,2Zm-1.68-4-.83-2,.67-.28.84,2Zm-1.67-4-.83-2,.67-.28.84,2Zm-1.67-4-.83-2,.67-.28.84,2Zm-1.67-4-.84-2,.68-.28.84,2Zm-1.67-4-.84-2,.68-.28.84,2Zm-1.67-4-.84-2,.68-.28.83,2Zm-1.67-4-.84-2,.68-.28.83,2Zm-1.67-4-.84-2,.68-.28.83,2Zm-1.67-4-.84-2,.67-.28.84,2Zm-1.68-4-.83-2,.67-.28.84,2Zm-1.67-4-.83-2,.67-.28.84,2Zm-1.67-4-.83-2,.67-.28.84,2Zm-1.67-4-.83-2,.67-.28.84,2Zm-1.67-4-.84-2,.68-.28.84,2Zm-1.67-4-.84-2,.68-.28.83,2Zm-1.67-4-.84-2,.68-.28.83,2Zm-1.67-4-.84-2,.68-.28.83,2Zm-1.67-4-.84-2,.68-.28.83,2Zm-1.68-4-.83-2,.67-.28.84,2Zm-1.67-4-.83-2,.67-.28.84,2Zm-1.67-4-.83-2,.67-.28.84,2Zm-1.67-4-.83-2,.67-.28.84,2Zm-1.67-4-.84-2,.68-.28.84,2Zm-1.67-4-.84-2,.68-.28.84,2Zm-1.67-4-.84-2,.68-.28.83,2Zm-1.67-4-.84-2,.68-.28.83,2Zm-1.67-4-.84-2,.68-.28.83,2Zm-1.67-4-.84-2,.67-.28.84,2Zm-1.68-4-.83-2,.67-.28.84,2Zm-1.67-4-.83-2,.67-.28.84,2Zm-1.67-4-.83-2,.67-.28.84,2Zm-1.67-4-.83-2,.67-.28.84,2Zm-1.67-4-.84-2,.68-.28.84,2Zm-1.67-4-.84-2,.68-.28.83,2Zm-1.67-4-.84-2,.68-.28.83,2Zm-1.67-4-.84-2,.68-.28.83,2Zm-1.67-4-.84-2,.68-.28.83,2Zm-1.68-4-.83-2,.67-.28.84,2Zm-1.67-4-.83-2,.67-.28.84,2Zm-1.67-4-.83-2,.67-.28.84,2ZM65.4,18l-.83-2,.67-.28.84,2Zm-1.67-4-.84-2,.68-.28.84,2Zm-1.67-4-.84-2,.68-.28.84,2ZM60.39,6l-.84-2,.68-.28.83,2Z"/><rect class="f71cc1e8-f4c6-469b-9027-e4c30035e81d" x="58.48" y="0.69" width="0.73" height="1.1" transform="translate(4.01 22.63) rotate(-22.52)"/><rect class="f71cc1e8-f4c6-469b-9027-e4c30035e81d" x="58.08" y="197.36" width="0.73" height="1.1" transform="translate(-71.26 37.41) rotate(-22.49)"/><path class="f71cc1e8-f4c6-469b-9027-e4c30035e81d" d="M57,195.49l-.86-2.05.68-.28.85,2.05Zm-1.71-4.11-.85-2,.68-.29.88,2Zm-1.7-4.11-.85-2.06.67-.28.85,2.06Zm-1.7-4.11L51,181.1l.68-.28.85,2.06ZM50.21,179l-.85-2,.68-.28.85,2Zm-1.7-4.11-.85-2,.67-.28.85,2.05Zm-1.7-4.11-.81-2,.68-.28.85,2.06Zm-1.71-4.11-.85-2.06.68-.28.85,2.06Zm-1.7-4.11-.85-2.06.67-.28.85,2.06Zm-1.7-4.12-.86-2,.68-.28.85,2ZM40,154.37l-.85-2.05.68-.28.85,2.05Zm-1.7-4.11-.85-2.06.67-.28L39,150Zm-1.71-4.11-.85-2.06.68-.28.85,2.06ZM34.88,142,34,140l.68-.28.85,2.05Zm-1.7-4.11-.85-2,.67-.28.85,2Zm-1.71-4.11-.85-2.06.68-.28.85,2.06Zm-1.7-4.11-.85-2.06.68-.28.85,2.06Zm-1.7-4.11-.85-2.06.67-.28.85,2.06Zm-1.7-4.12-.86-2,.68-.28.85,2Zm-1.71-4.11-.85-2,.68-.29.85,2.06ZM23,113.25l-.85-2.06.67-.28.85,2.06Zm-1.71-4.11-.85-2.06.68-.28.85,2.06ZM19.55,105l-.85-2,.68-.28.85,2Zm-1.7-4.11-.85-2,.67-.28.85,2ZM16.14,96.8l-.85-2.06.68-.28.85,2.06Zm-1.7-4.11-.85-2.06.68-.28.85,2.06Zm-1.7-4.11-.85-2.06.67-.28.85,2.06ZM11,84.46l-.85-2,.68-.28.85,2ZM9.3,80.35l-.85-2.06L9.16,78,10,80.07ZM7.6,76.24l-.85-2.06.67-.28L8.3,76ZM5.92,72.13l-.85-2.06.68-.28.85,2.06ZM4.22,68l-.85-2L4,65.68l.86,2Zm-1.7-4.1-.85-2,.67-.28.85,2Z"/><rect class="f71cc1e8-f4c6-469b-9027-e4c30035e81d" x="0.58" y="58.58" width="0.73" height="1.1" transform="translate(-22.54 4.86) rotate(-22.48)"/><rect class="f71cc1e8-f4c6-469b-9027-e4c30035e81d" x="58.27" y="197.33" width="0.73" height="1.1"/><path class="f71cc1e8-f4c6-469b-9027-e4c30035e81d" d="M59,195.13h-.73v-2.2H59Zm0-4.39h-.73v-2.2H59Zm0-4.4h-.73v-2.19H59ZM59,182h-.73v-2.2H59Zm0-4.39h-.73v-2.2H59Zm0-4.4h-.73V171H59Zm0-4.39h-.73v-2.2H59Zm0-4.39h-.73v-2.2H59Zm0-4.4h-.73v-2.19H59Zm0-4.39h-.73v-2.2H59Zm0-4.39h-.73V149H59Zm0-4.4h-.73v-2.19H59Zm0-4.39h-.73v-2.2H59ZM59,138h-.73v-2.2H59Zm0-4.39h-.73v-2.2H59Zm0-4.4h-.73V127H59Zm0-4.39h-.73v-2.2H59Zm0-4.39h-.73v-2.2H59Zm0-4.4h-.73v-2.19H59Zm0-4.39h-.73v-2.2H59Zm0-4.39h-.73v-2.2H59Zm0-4.4h-.73v-2.19H59Zm0-4.39h-.73v-2.2H59Zm0-4.39h-.73v-2.2H59Zm0-4.4h-.73V87.5H59Zm0-4.39h-.73V83.1H59Zm0-4.39h-.73v-2.2H59Zm0-4.4h-.73V74.32H59Zm0-4.39h-.73V69.9H59Zm0-4.39h-.73v-2.2H59Zm0-4.4h-.73V61.14H59Zm0-4.39h-.73V56.75H59Zm0-4.39h-.73v-2.2H59Zm0-4.39h-.73V48H59Zm0-4.4h-.73V43.57H59Zm0-4.39h-.73v-2.2H59ZM59,37h-.73V34.8H59Zm0-4.4h-.73V30.39H59Zm0-4.39h-.73V26H59Zm0-4.39h-.73V21.6H59Zm0-4.4h-.73V17.21H59ZM59,15h-.73V12.8H59Zm0-4.39h-.73V8.42H59Zm0-4.4h-.73V4H59Z"/><rect class="f71cc1e8-f4c6-469b-9027-e4c30035e81d" x="58.27" y="0.73" width="0.73" height="1.1"/><rect class="f71cc1e8-f4c6-469b-9027-e4c30035e81d" x="0.39" y="139.65" width="1.1" height="0.73" transform="translate(-128.76 87.26) rotate(-67.48)"/><path class="f71cc1e8-f4c6-469b-9027-e4c30035e81d" d="M2.34,137.59l-.67-.28.85-2.06.67.28ZM4,133.48l-.67-.28.85-2.06.68.28Zm1.71-4.11L5,129.09,5.92,127l.68.28Zm1.7-4.12L6.78,125l.85-2,.67.28Zm1.71-4.11-.68-.28.85-2,.68.28Zm1.7-4.11-.68-.28.85-2.06.68.28Zm1.7-4.11-.67-.28.85-2.06.67.28Zm1.71-4.11-.68-.29.85-2,.68.28Zm1.7-4.12-.68-.28.85-2,.68.28Zm1.7-4.11L17,100.3l.85-2.06.67.28Zm1.71-4.11-.68-.28.85-2.06.68.28ZM21,92.36l-.68-.28L21.25,90l.68.28Zm1.7-4.12L22.11,88,23,86l.67.28Zm1.71-4.11-.68-.28.85-2,.68.28ZM26.19,80l-.68-.28.86-2.06L27,78Zm1.7-4.11-.67-.28.85-2.06.67.28Zm1.71-4.12-.68-.28.85-2,.68.28Zm1.7-4.11-.68-.28.85-2,.68.28ZM33,63.57l-.67-.28.85-2.06.67.28Zm1.71-4.11L34,59.18l.85-2.06.68.28Zm1.7-4.11-.68-.28L36.58,53l.68.28Zm1.7-4.12L37.44,51l.85-2,.67.28Zm1.71-4.11-.68-.28L40,44.79l.68.28ZM41.52,43l-.68-.28.86-2.06.67.28Zm1.7-4.11-.67-.28.85-2.06.67.28Zm1.71-4.11-.68-.29.85-2,.68.28Zm1.7-4.12L46,30.39l.85-2.05.68.28Zm1.7-4.11-.67-.28.85-2.06.67.28ZM50,22.45l-.68-.28.85-2.06.68.28Zm1.7-4.11L51,18.06l.9-2.06.67.28Zm1.7-4.12-.67-.28.85-2,.67.28Zm1.71-4.11-.68-.28.85-2,.68.28ZM56.85,6l-.68-.28L57,3.66l.67.28Z"/><rect class="f71cc1e8-f4c6-469b-9027-e4c30035e81d" x="57.87" y="0.86" width="1.1" height="0.73" transform="translate(34.91 54.72) rotate(-67.48)"/><path class="f71cc1e8-f4c6-469b-9027-e4c30035e81d" d="M140.83,199.16H58.33l-.21-.22L0,140.82V58.33l.21-.21L58.33,0h82.5l.21.21,58.12,58.12v82.49l-.22.22Zm-81.89-1.47h81.28l57.47-57.47V58.94L140.22,1.46H58.94L1.46,58.94v81.28Z"/></g></svg>