<svg xmlns="http://www.w3.org/2000/svg" viewBox="0 0 58.61 116.41"><title>43</title><path d="M49.93,29.86q.81-2.55,1.55-5.13L53,19.6a.53.53,0,0,0-.16-.55l0,0c-1.88-1.59-3.74-3.21-5.63-4.78s-3.77-3.16-5.69-4.71-3.79-3.14-5.72-4.67L30,.24a1.1,1.1,0,0,0-1.37,0L22.86,4.86C20.93,6.39,19,8,17.13,9.52c-3.8,3.12-7.57,6.3-11.31,9.5l0,0a.53.53,0,0,0-.16.55l1.51,5.14q.74,2.57,1.55,5.13c-.29-1.77-.61-3.52-1-5.28l-1-5.26-.2.58q6-4.38,11.82-8.87c1.95-1.5,3.92-3,5.84-4.51L30,2H28.62l5.81,4.56c1.93,1.52,3.9,3,5.84,4.51s3.92,3,5.89,4.46,4,2.94,5.93,4.41l-.2-.58-1,5.26Q50.38,27.22,49.93,29.86Z"/><path d="M49.93,29.86l-5.41,21.3L39.21,72.49,28.77,115.18h1.07L19.41,72.49,14.1,51.16,8.68,29.87l4.9,21.42,5,21.4,10.19,42.75a.55.55,0,0,0,.66.41.57.57,0,0,0,.41-.41L40,72.68l5-21.4Z"/><path d="M57.84,75.94a.67.67,0,0,0-.61.71.67.67,0,0,0,.7.61.65.65,0,0,0,.62-.7A.66.66,0,0,0,57.84,75.94Z"/><path d="M57.47,73.32a.66.66,0,0,0,.22,1.31.66.66,0,1,0-.22-1.31Z"/><path d="M56.87,70.74A.67.67,0,0,0,57.2,72a.67.67,0,0,0-.33-1.29Z"/><path d="M56,68.23a.66.66,0,0,0,.45,1.25A.66.66,0,0,0,56,68.23Z"/><path d="M55,65.81a.67.67,0,0,0-.31.88.66.66,0,0,0,.87.32.65.65,0,0,0,.33-.88A.67.67,0,0,0,55,65.81Z"/><path d="M53.67,63.5a.66.66,0,0,0,.67,1.14.64.64,0,0,0,.24-.91A.66.66,0,0,0,53.67,63.5Z"/><path d="M52.17,61.32A.66.66,0,0,0,53,62.39a.65.65,0,0,0,.15-.92A.65.65,0,0,0,52.17,61.32Z"/><path d="M50.48,59.28a.66.66,0,0,0,.87,1,.66.66,0,1,0-.87-1Z"/><path d="M48.61,57.41a.66.66,0,0,0,0,.93.67.67,0,0,0,.93,0,.66.66,0,1,0-1-.92Z"/><path d="M46.57,55.72a.66.66,0,0,0,.12.92.66.66,0,1,0-.12-.92Z"/><path d="M44.39,54.22a.67.67,0,0,0,.2.91A.66.66,0,0,0,45.5,55a.66.66,0,0,0-1.11-.73Z"/><path d="M42.08,52.93a.68.68,0,0,0,.28.89.67.67,0,0,0,.89-.27.65.65,0,0,0-.27-.9A.66.66,0,0,0,42.08,52.93Z"/><path d="M39.66,51.86a.66.66,0,0,0,1.22.51.66.66,0,1,0-1.22-.51Z"/><path d="M37.15,51a.67.67,0,0,0,.44.82.66.66,0,1,0-.44-.82Z"/><path d="M34.57,50.42a.66.66,0,1,0,.79-.52A.66.66,0,0,0,34.57,50.42Z"/><path d="M32,50.06a.67.67,0,0,0,.58.72.66.66,0,0,0,.73-.57A.66.66,0,1,0,32,50.06Z"/><path d="M29.31,49.93a.66.66,0,0,0,.64.67.67.67,0,0,0,.68-.64.66.66,0,1,0-1.32,0Z"/><path d="M26.66,50.06a.67.67,0,0,0,.71.6.66.66,0,0,0-.09-1.32A.67.67,0,0,0,26.66,50.06Z"/><path d="M24,50.42a.66.66,0,0,0,1.31-.21.66.66,0,1,0-1.31.21Z"/><path d="M21.46,51a.67.67,0,0,0,.81.47.66.66,0,0,0,.47-.8.66.66,0,1,0-1.28.33Z"/><path d="M19,51.86a.66.66,0,0,0,1.25-.45.65.65,0,0,0-.85-.4A.66.66,0,0,0,19,51.86Z"/><path d="M16.53,52.93a.67.67,0,0,0,.88.31.66.66,0,0,0,.32-.87.66.66,0,1,0-1.2.56Z"/><path d="M14.22,54.22a.66.66,0,0,0,1.14-.67.66.66,0,1,0-1.14.67Z"/><path d="M12,55.72a.67.67,0,0,0,.92.14.66.66,0,0,0-.78-1.07A.66.66,0,0,0,12,55.72Z"/><path d="M10,57.41a.66.66,0,0,0,.93.06.66.66,0,1,0-.87-1A.66.66,0,0,0,10,57.41Z"/><path d="M8.13,59.28a.66.66,0,1,0,0-.94A.66.66,0,0,0,8.13,59.28Z"/><path d="M6.44,61.32a.66.66,0,0,0,.82-1,.66.66,0,0,0-.82,1Z"/><path d="M4.94,63.5a.67.67,0,0,0,.91-.19.68.68,0,0,0-.18-.92.66.66,0,1,0-.73,1.11Z"/><path d="M3.65,65.81a.66.66,0,0,0,.89-.28.67.67,0,0,0-.27-.89.65.65,0,0,0-.9.28A.64.64,0,0,0,3.65,65.81Z"/><path d="M2.58,68.23A.66.66,0,0,0,3.09,67a.65.65,0,0,0-.87.36A.64.64,0,0,0,2.58,68.23Z"/><path d="M1.74,70.74a.66.66,0,1,0-.44-.83A.66.66,0,0,0,1.74,70.74Z"/><path d="M1.14,73.32A.66.66,0,0,0,1.41,72a.66.66,0,1,0-.27,1.29Z"/><path d="M.78,75.94a.66.66,0,0,0,.15-1.31.65.65,0,0,0-.74.58A.64.64,0,0,0,.78,75.94Z"/><path d="M.65,78.59A.67.67,0,1,0,0,77.91.66.66,0,0,0,.65,78.59Z"/><path d="M.78,81.23a.66.66,0,1,0-.72-.61A.65.65,0,0,0,.78,81.23Z"/><path d="M1.14,83.85a.66.66,0,0,0-.21-1.3.66.66,0,1,0,.21,1.3Z"/><path d="M1.74,86.43a.66.66,0,0,0-.33-1.28.66.66,0,1,0,.33,1.28Z"/><path d="M2.58,88.94a.66.66,0,0,0-.45-1.24.64.64,0,0,0-.4.84A.65.65,0,0,0,2.58,88.94Z"/><path d="M3.65,91.36A.67.67,0,0,0,4,90.48a.67.67,0,0,0-.87-.32.66.66,0,1,0,.56,1.2Z"/><path d="M4.94,93.67a.66.66,0,0,0-.67-1.14.66.66,0,0,0-.24.91A.64.64,0,0,0,4.94,93.67Z"/><path d="M6.44,95.85a.66.66,0,1,0-.93-.14A.66.66,0,0,0,6.44,95.85Z"/><path d="M8.13,97.89A.66.66,0,0,0,8.19,97a.66.66,0,1,0-1,.87A.66.66,0,0,0,8.13,97.89Z"/><path d="M10,99.76a.66.66,0,1,0-.94,0A.66.66,0,0,0,10,99.76Z"/><path d="M12,101.45a.65.65,0,0,0-.12-.92.66.66,0,1,0,.12.92Z"/><path d="M14.22,103a.66.66,0,0,0-1.11-.72.66.66,0,1,0,1.11.72Z"/><path d="M16.53,104.24a.66.66,0,0,0-1.17-.62.66.66,0,1,0,1.17.62Z"/><path d="M19,105.31a.66.66,0,0,0-1.22-.51.66.66,0,0,0,.36.88A.66.66,0,0,0,19,105.31Z"/><path d="M21.46,106.15a.66.66,0,0,0-1.26-.39.66.66,0,1,0,1.26.39Z"/><path d="M24,106.76a.67.67,0,0,0-.51-.78.68.68,0,0,0-.79.5.66.66,0,1,0,1.3.28Z"/><path d="M26.66,107.12a.66.66,0,0,0-1.31-.15.65.65,0,0,0,.58.74A.66.66,0,0,0,26.66,107.12Z"/><path d="M29.31,107.24a.69.69,0,0,0-.65-.67.67.67,0,0,0-.68.64.67.67,0,1,0,1.33,0Z"/><path d="M32,107.12a.66.66,0,0,0-1.32.09.65.65,0,0,0,.71.62A.65.65,0,0,0,32,107.12Z"/><path d="M34.57,106.76a.66.66,0,0,0-.76-.54.67.67,0,0,0-.55.75.65.65,0,0,0,.77.55A.64.64,0,0,0,34.57,106.76Z"/><path d="M37.15,106.15a.66.66,0,1,0-.47.82A.66.66,0,0,0,37.15,106.15Z"/><path d="M39.66,105.31a.66.66,0,0,0-1.25.45.66.66,0,1,0,1.25-.45Z"/><path d="M42.08,104.24a.66.66,0,0,0-1.2.56.66.66,0,1,0,1.2-.56Z"/><path d="M44.39,103a.66.66,0,0,0-1.14.67.66.66,0,1,0,1.14-.67Z"/><path d="M46.57,101.45a.66.66,0,0,0-1.07.78.66.66,0,1,0,1.07-.78Z"/><path d="M48.61,99.76a.68.68,0,0,0-.93-.06.67.67,0,0,0-.07.93.66.66,0,1,0,1-.87Z"/><path d="M50.48,97.89a.67.67,0,0,0-.93,0,.66.66,0,1,0,.93,0Z"/><path d="M52.17,95.85a.67.67,0,0,0-.92.12.66.66,0,1,0,.92-.12Z"/><path d="M53.67,93.67A.66.66,0,0,0,53,94.78a.66.66,0,1,0,.72-1.11Z"/><path d="M55,91.36a.68.68,0,0,0-.89.28.67.67,0,0,0,.27.89A.66.66,0,1,0,55,91.36Z"/><path d="M56,88.94a.66.66,0,0,0-.51,1.22A.66.66,0,1,0,56,88.94Z"/><path d="M56.87,86.43a.66.66,0,0,0-.39,1.27.66.66,0,0,0,.39-1.27Z"/><path d="M57.47,83.85a.66.66,0,0,0-.27,1.3.66.66,0,1,0,.27-1.3Z"/><path d="M57.84,81.23a.66.66,0,0,0-.15,1.32.66.66,0,0,0,.15-1.32Z"/><path d="M58,78.59a.66.66,0,0,0-.67.64.67.67,0,0,0,.64.68.65.65,0,0,0,.68-.65A.65.65,0,0,0,58,78.59Z"/><path d="M8.68,29.87q-3.79,5-7.54,10a.29.29,0,0,0,0,.27v0q3.27,9.48,6.64,18.94L14.48,78l13.79,37.7a1.1,1.1,0,0,0,1.41.66,1.13,1.13,0,0,0,.66-.66L44.13,78l6.73-18.91c2.27-6.3,4.47-12.62,6.65-18.94v0a.26.26,0,0,0,0-.27q-3.75-5-7.54-10,3.48,5.2,7,10.35l0-.29q-3.7,9.33-7.31,18.7L42.39,77.35,28.27,114.93h2.07L16.22,77.35,9,58.62c-2.39-6.25-4.85-12.48-7.31-18.7l0,.29Q5.19,35.05,8.68,29.87Z"/><path d="M49.93,29.86c-3.26-4.92-6.61-9.78-10-14.62C38.3,12.8,36.57,10.41,34.87,8L29.75.78A.55.55,0,0,0,29,.65a.53.53,0,0,0-.13.13L23.74,8c-1.69,2.41-3.43,4.8-5.09,7.24l-5,7.28C12,25,10.3,27.4,8.68,29.87c1.82-2.33,3.59-4.7,5.38-7l5.28-7.1c1.77-2.36,3.48-4.76,5.22-7.15l5.19-7.16h-.89l5.19,7.16c1.74,2.39,3.45,4.79,5.22,7.15C42.78,20.47,46.31,25.2,49.93,29.86Z"/></svg>