<svg xmlns="http://www.w3.org/2000/svg" viewBox="0 0 61.66 125.49"><title>51</title><rect x="13.88" y="68.99" width="57.39" height="1" transform="translate(-34.17 96.89) rotate(-78.16)"/><rect x="18.58" y="40.79" width="1" height="57.39" transform="translate(-13.84 5.39) rotate(-11.83)"/><path d="M30.83,14.49a.65.65,0,0,0-.2,0l-7.52,3.24.39.92,7.33-3.15,7.32,3.15.39-.92L31,14.53A.71.71,0,0,0,30.83,14.49Z"/><path d="M44.18,84.39a.59.59,0,1,0-1.07.5.59.59,0,1,0,1.07-.5Z"/><path d="M46.26,83.26a.59.59,0,0,0-.8-.22.61.61,0,0,0-.23.81.6.6,0,0,0,.82.23A.59.59,0,0,0,46.26,83.26Z"/><path d="M48.25,82a.59.59,0,1,0-1,.67.59.59,0,0,0,.83.17A.6.6,0,0,0,48.25,82Z"/><path d="M50.13,80.54a.59.59,0,1,0-.08.84A.59.59,0,0,0,50.13,80.54Z"/><path d="M51.89,79a.61.61,0,0,0-.83,0,.6.6,0,1,0,.83,0Z"/><path d="M53.53,77.24a.59.59,0,1,0-.8.87.59.59,0,1,0,.8-.87Z"/><path d="M55,75.4a.6.6,0,0,0-.73.94A.6.6,0,1,0,55,75.4Z"/><path d="M56.37,73.46a.59.59,0,0,0-.82.16.6.6,0,1,0,.82-.16Z"/><path d="M57.56,71.41a.59.59,0,0,0-.57,1,.59.59,0,0,0,.81-.23A.58.58,0,0,0,57.56,71.41Z"/><path d="M58.59,69.28a.61.61,0,0,0-.79.29.6.6,0,0,0,.3.78.59.59,0,1,0,.49-1.07Z"/><path d="M59.45,67.07A.59.59,0,0,0,59,68.18a.59.59,0,1,0,.41-1.11Z"/><path d="M60.13,64.8a.59.59,0,0,0-.32,1.14.58.58,0,0,0,.74-.41A.59.59,0,0,0,60.13,64.8Z"/><path d="M60.63,62.49a.6.6,0,0,0-.7.46.6.6,0,0,0,1.18.23A.59.59,0,0,0,60.63,62.49Z"/><path d="M60.94,60.14a.6.6,0,0,0-.66.52.62.62,0,0,0,.53.66.59.59,0,1,0,.13-1.18Z"/><path d="M61.07,57.77a.6.6,0,1,0,.59.62A.6.6,0,0,0,61.07,57.77Z"/><path d="M61,55.41a.6.6,0,0,0-.57.61.61.61,0,0,0,.62.57.59.59,0,0,0,.58-.62A.58.58,0,0,0,61,55.41Z"/><path d="M60.79,53.05a.59.59,0,1,0,.14,1.18.59.59,0,1,0-.14-1.18Z"/><path d="M60.37,50.72a.59.59,0,1,0,.71.46A.59.59,0,0,0,60.37,50.72Z"/><path d="M59.77,48.43a.6.6,0,0,0-.41.73.61.61,0,0,0,.74.41.59.59,0,1,0-.33-1.14Z"/><path d="M59,46.19a.59.59,0,1,0,.42,1.11.59.59,0,0,0,.36-.76A.6.6,0,0,0,59,46.19Z"/><path d="M58,44a.62.62,0,0,0-.29.79.61.61,0,0,0,.79.29.59.59,0,0,0,.3-.79A.59.59,0,0,0,58,44Z"/><path d="M56.93,41.94a.59.59,0,0,0,.57,1,.58.58,0,0,0,.24-.81A.58.58,0,0,0,56.93,41.94Z"/><path d="M55.65,39.94a.61.61,0,0,0-.17.83.6.6,0,0,0,.82.16.59.59,0,1,0-.65-1Z"/><path d="M54.22,38.06A.59.59,0,1,0,55,39a.6.6,0,0,0,.11-.84A.59.59,0,0,0,54.22,38.06Z"/><path d="M52.64,36.29a.6.6,0,0,0,0,.84.61.61,0,0,0,.84,0,.59.59,0,0,0,0-.85A.6.6,0,0,0,52.64,36.29Z"/><path d="M50.94,34.65a.59.59,0,0,0,0,.83.6.6,0,0,0,.84,0,.59.59,0,0,0,0-.85A.58.58,0,0,0,50.94,34.65Z"/><path d="M9.85,35.45a.59.59,0,1,0,0-.85A.6.6,0,0,0,9.85,35.45Z"/><path d="M8.21,37.16a.61.61,0,0,0,.84,0,.6.6,0,0,0,0-.84.59.59,0,1,0-.8.87Z"/><path d="M6.71,39a.6.6,0,0,0,.83-.1.6.6,0,0,0-.94-.74A.59.59,0,0,0,6.71,39Z"/><path d="M5.35,40.93A.59.59,0,0,0,6,40a.58.58,0,0,0-.83.15A.59.59,0,0,0,5.35,40.93Z"/><path d="M4.15,43a.59.59,0,1,0,.58-1,.59.59,0,1,0-.58,1Z"/><path d="M3.12,45.1A.59.59,0,0,0,3.61,44a.58.58,0,0,0-.79.29A.58.58,0,0,0,3.12,45.1Z"/><path d="M2.25,47.3A.6.6,0,0,0,3,47a.61.61,0,0,0-.35-.77.58.58,0,0,0-.77.35A.57.57,0,0,0,2.25,47.3Z"/><path d="M1.56,49.57a.59.59,0,1,0,.33-1.14.59.59,0,1,0-.33,1.14Z"/><path d="M1.05,51.88a.59.59,0,1,0-.48-.7A.6.6,0,0,0,1.05,51.88Z"/><path d="M.73,54.23a.59.59,0,1,0-.53-.66A.59.59,0,0,0,.73,54.23Z"/><path d="M.59,56.59a.59.59,0,1,0,0-1.18.59.59,0,1,0,0,1.18Z"/><path d="M.63,59a.59.59,0,1,0-.05-1.18.58.58,0,0,0-.58.61A.6.6,0,0,0,.63,59Z"/><path d="M.85,61.32a.6.6,0,0,0,.52-.66.59.59,0,0,0-.65-.52.59.59,0,1,0,.13,1.18Z"/><path d="M1.26,63.65a.61.61,0,0,0,.47-.7.6.6,0,0,0-.7-.46.58.58,0,0,0-.48.69A.6.6,0,0,0,1.26,63.65Z"/><path d="M1.85,65.94a.59.59,0,1,0-.32-1.14.59.59,0,0,0-.42.73A.58.58,0,0,0,1.85,65.94Z"/><path d="M2.62,68.18A.61.61,0,0,0,3,67.42a.59.59,0,0,0-.76-.35.59.59,0,1,0,.41,1.11Z"/><path d="M3.56,70.35a.59.59,0,0,0-.49-1.07.59.59,0,1,0,.49,1.07Z"/><path d="M4.67,72.45a.6.6,0,1,0-.58-1,.6.6,0,1,0,.58,1Z"/><path d="M5.94,74.44a.6.6,0,0,0,.17-.82.6.6,0,0,0-.83-.16.59.59,0,0,0-.17.83A.59.59,0,0,0,5.94,74.44Z"/><path d="M7.36,76.34a.6.6,0,1,0-.73-.94.59.59,0,0,0-.11.84A.58.58,0,0,0,7.36,76.34Z"/><path d="M8.93,78.11a.59.59,0,1,0-.8-.87.59.59,0,0,0-.05.85A.6.6,0,0,0,8.93,78.11Z"/><path d="M10.63,79.76A.59.59,0,1,0,9.76,79a.6.6,0,0,0,0,.85A.59.59,0,0,0,10.63,79.76Z"/><path d="M12.45,81.27a.6.6,0,0,0-.09-.83.6.6,0,0,0-.84.1.59.59,0,1,0,.93.73Z"/><path d="M14.39,82.64a.62.62,0,0,0-.16-.83.6.6,0,0,0-.82.16.59.59,0,1,0,1,.67Z"/><path d="M16.42,83.85A.6.6,0,0,0,16.2,83a.6.6,0,0,0-.81.22.59.59,0,0,0,.22.82A.58.58,0,0,0,16.42,83.85Z"/><path d="M18.55,84.89a.6.6,0,1,0-1.08-.5.6.6,0,1,0,1.08.5Z"/><rect x="5.61" y="29.32" width="25.28" height="1" transform="translate(-16.38 34.62) rotate(-66.42)"/><path d="M36.23,97.36l-5.4,12.37-5.4-12.36-.92.4,5.86,13.41a.52.52,0,0,0,.92,0l5.85-13.42Z"/><rect x="42.9" y="17.17" width="1" height="25.28" transform="translate(-8.31 19.88) rotate(-23.61)"/><path d="M30.83,125.49,34,111.57l3.11-13.94,0,.09c3.13-6.88,6.19-13.79,9.27-20.7l9.23-20.71a.79.79,0,0,0,0-.62h0L49.26,41.05l.05.53L53,24.33a.92.92,0,0,0-.53-1L38.72,17.36l.5.49L31.74.6A1,1,0,0,0,30.43.08a1.05,1.05,0,0,0-.52.52L22.43,17.85l1.83.39h0a.95.95,0,0,0-1.33-.87L9.22,23.3a.92.92,0,0,0-.54,1L10.51,33l.92,4.32.46,2.15.23,1.08.11.54.06.27,0,.13v.12h0a1,1,0,0,1,0-.25.85.85,0,0,1,.25-.52l-.18.26L6.1,55.67h0a.77.77,0,0,0,0,.63L15.33,77c3.09,6.9,6.14,13.81,9.27,20.7l0-.08c2.07,9.28,4.12,18.57,6.25,27.84-1.78-9.34-3.63-18.67-5.46-28,0,0,0,0,0-.06v0c-2.92-7-5.91-13.91-8.87-20.87L7.56,55.67v.64L14,41.75l-.18.26a.88.88,0,0,0,.25-.53.74.74,0,0,0,0-.27h0v-.12L14,41l-.06-.27-.11-.54-.22-1.08-.45-2.16-.89-4.31L10.47,24l-.53,1,13.74-5.87-1.33-.88h0a1,1,0,0,0,.95,1,1,1,0,0,0,.88-.57L31.74,1.4H29.91l7.57,17.21a.9.9,0,0,0,.49.49L51.72,25l-.53-1L47.61,41.22h0a.84.84,0,0,0,.06.52L54.1,56.31v-.63L45.19,76.53c-3,7-5.95,13.9-8.87,20.87a.32.32,0,0,0,0,.09h0l-2.75,14Z"/></svg>