<svg xmlns="http://www.w3.org/2000/svg" viewBox="0 0 176.62 176.62"><defs><style>.a{fill-rule:evenodd;}</style></defs><title>01</title><path d="M88.31,127.87a.5.5,0,0,1-.5-.49V109.09a.5.5,0,0,1,1,0v18.29A.5.5,0,0,1,88.31,127.87ZM78.2,126.55l-.13,0a.49.49,0,0,1-.35-.61l4.54-17a.5.5,0,0,1,1,.25l-4.54,17A.5.5,0,0,1,78.2,126.55Zm20.22,0a.49.49,0,0,1-.48-.36l-4.54-17a.5.5,0,0,1,1-.25l4.54,17a.5.5,0,0,1-.35.61Zm9.42-3.9a.51.51,0,0,1-.43-.25l-7.53-13a.5.5,0,0,1,.18-.68.51.51,0,0,1,.68.19l7.53,13.05a.48.48,0,0,1-.18.67A.45.45,0,0,1,107.84,122.64Zm-39.07,0a.42.42,0,0,1-.24-.07.49.49,0,0,1-.19-.67l7.54-13.05a.49.49,0,0,1,.67-.19.51.51,0,0,1,.19.68l-7.54,13A.5.5,0,0,1,68.77,122.64Zm47.16-6.21a.5.5,0,0,1-.35-.15l-6.84-6.84a.5.5,0,0,1,0-.7.51.51,0,0,1,.71,0l6.83,6.84a.48.48,0,0,1,0,.7A.47.47,0,0,1,115.93,116.43Zm-55.24,0a.51.51,0,0,1-.36-.15.5.5,0,0,1,0-.7l6.84-6.84a.51.51,0,0,1,.71,0,.5.5,0,0,1,0,.7L61,116.28A.5.5,0,0,1,60.69,116.43Zm61.45-8.09a.42.42,0,0,1-.24-.07l-2.66-1.53a.51.51,0,0,1-.18-.68.5.5,0,0,1,.68-.18l2.65,1.53a.49.49,0,0,1,.18.68A.48.48,0,0,1,122.14,108.34Zm-67.67,0a.5.5,0,0,1-.43-.25.51.51,0,0,1,.18-.68l2.66-1.53a.5.5,0,0,1,.68.18.51.51,0,0,1-.18.68l-2.66,1.53A.45.45,0,0,1,54.47,108.34Zm-3.9-9.42a.5.5,0,0,1-.13-1l12.75-3.41a.49.49,0,1,1,.26,1L50.7,98.9Zm75.48,0-.13,0-12.75-3.42a.5.5,0,0,1,.26-1l12.75,3.42a.5.5,0,0,1-.13,1Zm1.32-10.11H109.63a.5.5,0,0,1,0-1h17.74a.5.5,0,0,1,0,1ZM67,88.81H49.24a.5.5,0,0,1,0-1H67a.5.5,0,0,1,0,1Zm39.91-5a.49.49,0,0,1-.48-.36.5.5,0,0,1,.35-.61l19.15-5.13a.48.48,0,0,1,.61.35.5.5,0,0,1-.35.61L107,83.81Zm-37.18,0h-.13L50.44,78.68a.5.5,0,0,1-.35-.61.48.48,0,0,1,.61-.35l19.15,5.13a.5.5,0,0,1,.35.61A.49.49,0,0,1,69.72,83.82Zm34.79-4.37a.49.49,0,0,1-.43-.24.49.49,0,0,1,.18-.68L121.9,68.34a.51.51,0,0,1,.68.19.49.49,0,0,1-.19.67L104.76,79.39A.57.57,0,0,1,104.51,79.45Zm-32.4,0a.57.57,0,0,1-.25-.06L54.22,69.2a.5.5,0,0,1-.18-.67.51.51,0,0,1,.68-.19L72.36,78.53a.49.49,0,0,1,.18.68A.49.49,0,0,1,72.11,79.45Zm30-4.42a.51.51,0,0,1-.36-.15.5.5,0,0,1,0-.7l13.85-13.85a.5.5,0,0,1,.7,0,.5.5,0,0,1,0,.71L102.44,74.88A.5.5,0,0,1,102.09,75ZM74.53,75a.49.49,0,0,1-.35-.15L60.33,61a.5.5,0,0,1,.71-.71L74.88,74.18a.48.48,0,0,1,0,.7A.47.47,0,0,1,74.53,75Zm24.72-5.18a.47.47,0,0,1-.25-.07.5.5,0,0,1-.18-.67l8.6-14.89a.48.48,0,0,1,.67-.18.51.51,0,0,1,.19.68L99.68,69.6A.5.5,0,0,1,99.25,69.85Zm-21.88,0a.5.5,0,0,1-.43-.25l-8.6-14.88a.51.51,0,0,1,.19-.68.48.48,0,0,1,.67.18l8.6,14.89a.5.5,0,0,1-.18.67A.47.47,0,0,1,77.37,69.85Zm17.94-7.19h-.13a.5.5,0,0,1-.35-.61l3.11-11.6a.5.5,0,0,1,1,.25L95.79,62.3A.49.49,0,0,1,95.31,62.66Zm-14,0a.48.48,0,0,1-.47-.36L77.72,50.69a.49.49,0,1,1,1-.25L81.78,62a.5.5,0,0,1-.35.61Zm7-12.78a.51.51,0,0,1-.5-.5v-.14a.5.5,0,0,1,1,0v.14A.51.51,0,0,1,88.31,49.88Z"/><path d="M83.21,127.54h-.06a.5.5,0,0,1-.43-.56l2.36-18a.49.49,0,1,1,1,.13l-2.36,18A.49.49,0,0,1,83.21,127.54Zm10.2,0a.49.49,0,0,1-.49-.43l-2.37-18a.51.51,0,0,1,.43-.56.5.5,0,0,1,.56.43l2.36,18a.5.5,0,0,1-.43.56Zm-20-2.63a.71.71,0,0,1-.2,0,.5.5,0,0,1-.26-.65l6.34-15.32a.5.5,0,0,1,.92.38L73.81,124.6A.5.5,0,0,1,73.36,124.91Zm29.9,0a.5.5,0,0,1-.46-.3l-6.34-15.32a.5.5,0,0,1,.92-.38l6.34,15.32a.49.49,0,0,1-.27.64A.43.43,0,0,1,103.26,124.9Zm8.83-5.1a.47.47,0,0,1-.39-.2l-7.84-10.2a.51.51,0,0,1,.1-.7.48.48,0,0,1,.69.09L112.48,119a.48.48,0,0,1-.09.69A.5.5,0,0,1,112.09,119.8Zm-47.56,0a.53.53,0,0,1-.31-.11.5.5,0,0,1-.09-.69L72,108.79a.5.5,0,1,1,.79.61l-7.83,10.2A.49.49,0,0,1,64.53,119.8Zm54.77-7.21a.5.5,0,0,1-.3-.11l-3.9-3a.51.51,0,0,1-.1-.7.5.5,0,0,1,.7-.09l3.9,3a.49.49,0,0,1,.1.69A.51.51,0,0,1,119.3,112.59Zm-62,0a.51.51,0,0,1-.4-.2.5.5,0,0,1,.09-.69l3.91-3a.48.48,0,0,1,.69.09.5.5,0,0,1-.09.7l-3.9,3A.5.5,0,0,1,57.32,112.59Zm-5.11-8.83a.5.5,0,0,1-.19-1l8.52-3.53a.51.51,0,0,1,.65.27.5.5,0,0,1-.27.65l-8.52,3.53A.43.43,0,0,1,52.21,103.76Zm72.2,0a.41.41,0,0,1-.19,0l-8.52-3.53a.5.5,0,1,1,.38-.92l8.52,3.53a.5.5,0,0,1,.26.65A.49.49,0,0,1,124.41,103.76ZM127,93.91H127l-15.76-2.07a.5.5,0,0,1-.42-.56.48.48,0,0,1,.55-.43l15.76,2.08a.49.49,0,0,1,.43.55A.51.51,0,0,1,127,93.91Zm-77.46,0a.51.51,0,0,1-.5-.44.49.49,0,0,1,.43-.55l15.76-2.08a.48.48,0,0,1,.55.43.5.5,0,0,1-.42.56L49.64,93.9Zm58.62-7.72a.51.51,0,0,1-.5-.43.51.51,0,0,1,.43-.56L127,82.72a.49.49,0,0,1,.56.42.5.5,0,0,1-.43.56l-18.85,2.49Zm-39.78,0h-.06L49.51,83.7a.49.49,0,0,1-.43-.56.48.48,0,0,1,.56-.42L68.49,85.2a.5.5,0,0,1,.42.56A.49.49,0,0,1,68.42,86.19Zm37.27-4.58a.5.5,0,0,1-.46-.31.49.49,0,0,1,.27-.65l18.72-7.75a.49.49,0,0,1,.65.26.5.5,0,0,1-.27.65l-18.72,7.76A.65.65,0,0,1,105.69,81.61Zm-34.76,0a.65.65,0,0,1-.19,0L52,73.81a.49.49,0,1,1,.38-.91l18.72,7.75a.5.5,0,0,1-.19,1Zm32.39-4.32a.49.49,0,0,1-.39-.2.5.5,0,0,1,.09-.7l16-12.26a.51.51,0,0,1,.7.1.49.49,0,0,1-.1.69l-16,12.26A.48.48,0,0,1,103.32,77.29Zm-30,0a.48.48,0,0,1-.3-.11L57,64.92a.49.49,0,0,1-.09-.69.51.51,0,0,1,.7-.1l16,12.26a.5.5,0,0,1,.09.7A.49.49,0,0,1,73.3,77.29Zm27.45-4.7a.47.47,0,0,1-.3-.1.5.5,0,0,1-.09-.7L111.7,57a.5.5,0,0,1,.79.61L101.14,72.4A.49.49,0,0,1,100.75,72.59Zm-24.88,0a.53.53,0,0,1-.4-.19L64.13,57.62a.51.51,0,0,1,.09-.7.51.51,0,0,1,.7.09L76.26,71.79a.49.49,0,0,1-.39.8Zm21.62-6a.43.43,0,0,1-.19,0A.5.5,0,0,1,97,66L102.8,52a.5.5,0,1,1,.92.38L98,66.33A.51.51,0,0,1,97.49,66.64Zm-18.36,0a.5.5,0,0,1-.46-.31L72.9,52.4a.49.49,0,1,1,.91-.38L79.58,66a.49.49,0,0,1-.26.65A.46.46,0,0,1,79.13,66.64Zm13.31-9.22h-.06a.5.5,0,0,1-.43-.56l1-7.35a.48.48,0,0,1,.55-.43.5.5,0,0,1,.43.56l-1,7.35A.49.49,0,0,1,92.44,57.42Zm-8.26,0a.51.51,0,0,1-.5-.44l-1-7.34a.5.5,0,0,1,.43-.56.49.49,0,0,1,.55.43l1,7.35a.49.49,0,0,1-.43.55Z"/><path d="M85.79,127.79h0a.5.5,0,0,1-.46-.53l1.17-18.2a.49.49,0,0,1,.53-.46.49.49,0,0,1,.46.53l-1.17,18.19A.5.5,0,0,1,85.79,127.79Zm5.11,0a.49.49,0,0,1-.49-.46L89.2,109.13a.5.5,0,1,1,1-.07l1.21,18.19a.5.5,0,0,1-.47.53Zm-10.18-.65h-.09a.5.5,0,0,1-.4-.58L83.71,109a.49.49,0,1,1,1,.19l-3.47,17.54A.5.5,0,0,1,80.72,127.13Zm15.25,0a.49.49,0,0,1-.49-.4L92,109.19a.48.48,0,0,1,.39-.58A.48.48,0,0,1,93,109l3.5,17.53a.49.49,0,0,1-.39.58Zm-20.19-1.3a.45.45,0,0,1-.16,0,.49.49,0,0,1-.31-.63l5.49-16.23a.5.5,0,0,1,.94.32l-5.49,16.23A.49.49,0,0,1,75.78,125.82Zm25.12,0a.49.49,0,0,1-.47-.33l-5.51-16.21a.5.5,0,0,1,.94-.32l5.51,16.21a.5.5,0,0,1-.31.63A.41.41,0,0,1,100.9,125.79Zm-29.84-1.93a.44.44,0,0,1-.22,0,.49.49,0,0,1-.23-.66l7-14.28a.5.5,0,0,1,.89.44l-7,14.28A.51.51,0,0,1,71.06,123.86Zm34.56,0a.48.48,0,0,1-.44-.28l-7-14.24a.5.5,0,0,1,.22-.66.5.5,0,0,1,.67.22l7,14.24a.5.5,0,0,1-.23.67A.54.54,0,0,1,105.62,123.83Zm-39-2.52a.53.53,0,0,1-.27-.08.5.5,0,0,1-.14-.69L74,108.82a.5.5,0,0,1,.83.55l-7.81,11.72A.52.52,0,0,1,66.63,121.31Zm43.41,0a.5.5,0,0,1-.41-.22l-7.82-11.68a.5.5,0,1,1,.83-.55l7.82,11.68a.5.5,0,0,1-.14.69A.57.57,0,0,1,110,121.27ZM62.58,118.2a.52.52,0,0,1-.33-.12.5.5,0,0,1,0-.7l7.53-8.61a.5.5,0,1,1,.75.65L63,118A.5.5,0,0,1,62.58,118.2Zm51.51,0a.5.5,0,0,1-.37-.17l-7.52-8.56a.5.5,0,1,1,.75-.65l7.52,8.56a.49.49,0,0,1-.38.82ZM59,114.59a.51.51,0,0,1-.37-.17.49.49,0,0,1,0-.7l5.68-5a.49.49,0,0,1,.7,0,.5.5,0,0,1,0,.7l-5.69,5A.5.5,0,0,1,59,114.59Zm58.74-.06a.49.49,0,0,1-.32-.12l-5.65-4.94a.5.5,0,0,1,.65-.75l5.65,4.94a.49.49,0,0,1,0,.7A.48.48,0,0,1,117.7,114.53Zm-61.85-4a.52.52,0,0,1-.42-.22.5.5,0,0,1,.14-.69l1.42-.95a.49.49,0,0,1,.68.14.48.48,0,0,1-.13.68l-1.42,1A.46.46,0,0,1,55.85,110.54Zm65-.06a.53.53,0,0,1-.27-.08l-1.34-.89a.51.51,0,0,1-.13-.69.5.5,0,0,1,.69-.14l1.33.89a.5.5,0,0,1,.14.69A.52.52,0,0,1,120.81,110.48Zm-67.53-4.36a.48.48,0,0,1-.44-.28.5.5,0,0,1,.22-.66l5.79-2.86a.49.49,0,0,1,.67.22.5.5,0,0,1-.23.67l-5.79,2.86A.54.54,0,0,1,53.28,106.12Zm70.09-.07a.42.42,0,0,1-.22,0l-5.87-2.89a.49.49,0,0,1,.43-.89l5.88,2.89a.5.5,0,0,1,.22.67A.49.49,0,0,1,123.37,106.05ZM51.32,101.4a.5.5,0,0,1-.16-1l10.78-3.67a.5.5,0,0,1,.32.94l-10.78,3.67Zm74-.07-.16,0-10.84-3.67a.5.5,0,0,1,.32-.94l10.84,3.67a.48.48,0,0,1,.31.62A.49.49,0,0,1,125.32,101.33ZM50,96.46a.49.49,0,0,1-.48-.4.48.48,0,0,1,.39-.58l14.37-2.87a.49.49,0,1,1,.19,1L50.09,96.45Zm76.65-.07h-.1l-14.41-2.85a.49.49,0,0,1-.39-.58.5.5,0,0,1,.58-.4l14.41,2.86a.49.49,0,0,1-.09,1Zm-77.31-5a.5.5,0,0,1-.5-.47.49.49,0,0,1,.47-.52l16.85-1.13a.49.49,0,0,1,.53.47.49.49,0,0,1-.46.52L49.36,91.4Zm78-.07h0l-16.88-1.09a.49.49,0,0,1-.46-.52.47.47,0,0,1,.52-.47l16.88,1.09a.5.5,0,0,1,.47.53A.51.51,0,0,1,127.29,91.33ZM67.72,87.47h0l-18.4-1.18a.5.5,0,0,1-.46-.53.49.49,0,0,1,.53-.46l18.39,1.18a.49.49,0,0,1,.46.53A.49.49,0,0,1,67.72,87.47Zm41.16,0a.49.49,0,0,1-.49-.47.49.49,0,0,1,.46-.52l18.4-1.23a.49.49,0,0,1,.53.47.49.49,0,0,1-.46.52l-18.4,1.23ZM69.07,85H69l-19.1-3.78a.51.51,0,0,1-.39-.58.51.51,0,0,1,.59-.4L69.17,84a.49.49,0,0,1,.39.58A.5.5,0,0,1,69.07,85Zm38.46,0a.49.49,0,0,1-.1-1l19.1-3.82a.49.49,0,0,1,.58.39.51.51,0,0,1-.39.59L107.62,85ZM70.32,82.72a.45.45,0,0,1-.16,0l-19-6.44a.51.51,0,0,1-.32-.63.5.5,0,0,1,.63-.31l19,6.44a.5.5,0,0,1-.16,1Zm36,0a.5.5,0,0,1-.16-1l19-6.48a.5.5,0,0,1,.32.94l-19,6.48A.45.45,0,0,1,106.28,82.69ZM71.51,80.54a.47.47,0,0,1-.22-.05L53,71.51a.5.5,0,0,1-.23-.67.52.52,0,0,1,.67-.23l18.26,9a.49.49,0,0,1-.22.94Zm33.58,0a.51.51,0,0,1-.45-.27.5.5,0,0,1,.23-.67l18.25-9a.5.5,0,0,1,.66.22.5.5,0,0,1-.22.67l-18.25,9A.44.44,0,0,1,105.09,80.51Zm-32.4-2.12a.57.57,0,0,1-.28-.08L55.53,67.05a.5.5,0,1,1,.55-.83L73,77.48a.5.5,0,0,1-.27.91Zm31.22,0a.49.49,0,0,1-.41-.22.51.51,0,0,1,.13-.69L120.5,66.16a.5.5,0,0,1,.55.83L104.19,78.28A.57.57,0,0,1,103.91,78.36Zm-30-2.17a.5.5,0,0,1-.33-.12L58.59,63a.5.5,0,1,1,.65-.75l15,13.12a.49.49,0,0,1,0,.7A.51.51,0,0,1,73.9,76.19Zm28.8,0a.51.51,0,0,1-.37-.17.49.49,0,0,1,0-.7l15-13.14a.5.5,0,0,1,.65.75L103,76A.46.46,0,0,1,102.7,76.16Zm-27.53-2.3a.51.51,0,0,1-.37-.17L62.15,59.29a.49.49,0,0,1,.05-.7.5.5,0,0,1,.7,0L75.55,73a.49.49,0,0,1,0,.7A.46.46,0,0,1,75.17,73.86Zm26.25,0a.49.49,0,0,1-.37-.82l12.62-14.41a.49.49,0,0,1,.7-.05.5.5,0,0,1,0,.7L101.8,73.65A.52.52,0,0,1,101.42,73.82ZM76.58,71.29a.49.49,0,0,1-.41-.22l-10-14.95a.51.51,0,0,1,.13-.69.5.5,0,0,1,.69.14L77,70.52a.5.5,0,0,1-.41.77Zm23.43,0a.53.53,0,0,1-.27-.08.5.5,0,0,1-.14-.69l10-15a.5.5,0,0,1,.83.55l-10,15A.52.52,0,0,1,100,71.25ZM78.19,68.34a.5.5,0,0,1-.44-.27L70.55,53.5a.51.51,0,0,1,.22-.67.5.5,0,0,1,.67.23l7.2,14.57a.49.49,0,0,1-.23.66A.42.42,0,0,1,78.19,68.34Zm20.21,0a.54.54,0,0,1-.22,0,.5.5,0,0,1-.23-.67L105.11,53a.52.52,0,0,1,.67-.23.5.5,0,0,1,.22.67L98.84,68A.5.5,0,0,1,98.4,68.3ZM80.14,64.8a.49.49,0,0,1-.47-.34l-4.43-13a.5.5,0,0,1,.31-.63.49.49,0,0,1,.63.31l4.43,13a.5.5,0,0,1-.31.63Zm16.31-.06-.16,0a.5.5,0,0,1-.31-.63l4.39-13a.48.48,0,0,1,.62-.32.51.51,0,0,1,.32.63l-4.39,13A.49.49,0,0,1,96.45,64.74ZM82.61,60.28a.49.49,0,0,1-.49-.4l-2-9.79a.49.49,0,0,1,.39-.58.5.5,0,0,1,.59.39l2,9.79a.48.48,0,0,1-.39.58ZM94,60.21h-.1a.49.49,0,0,1-.39-.58l1.93-9.73a.49.49,0,0,1,.58-.4.5.5,0,0,1,.39.59l-1.92,9.73A.5.5,0,0,1,94,60.21Zm-8-6.12a.49.49,0,0,1-.49-.47l-.29-4.26a.51.51,0,0,1,.47-.53.49.49,0,0,1,.52.47l.29,4.26a.49.49,0,0,1-.47.52ZM90.56,54h0a.49.49,0,0,1-.47-.52l.27-4.17a.48.48,0,0,1,.53-.46.49.49,0,0,1,.46.53l-.27,4.16A.49.49,0,0,1,90.56,54Z"/><path d="M88.31,176.62a88.31,88.31,0,1,1,88.31-88.31A88.42,88.42,0,0,1,88.31,176.62ZM88.31,1a87.32,87.32,0,1,0,87.31,87.32A87.42,87.42,0,0,0,88.31,1Z"/><path d="M88.31,176.51a.5.5,0,0,1-.5-.5V172.1a.5.5,0,1,1,1,0V176A.5.5,0,0,1,88.31,176.51Zm22.7-3a.49.49,0,0,1-.48-.36l-1-3.78a.48.48,0,0,1,.35-.6.49.49,0,0,1,.61.35l1,3.77a.5.5,0,0,1-.35.61Zm-45.4,0h-.13a.5.5,0,0,1-.35-.61l1-3.77a.5.5,0,0,1,1,.25l-1,3.78A.49.49,0,0,1,65.61,173.52Zm66.55-8.76a.5.5,0,0,1-.43-.25l-1.95-3.38a.5.5,0,0,1,.86-.5l2,3.39a.48.48,0,0,1-.18.67A.45.45,0,0,1,132.16,164.76Zm-87.7,0a.45.45,0,0,1-.25-.07A.48.48,0,0,1,44,164L46,160.63a.5.5,0,0,1,.68-.18.49.49,0,0,1,.18.68l-2,3.38A.5.5,0,0,1,44.46,164.76Zm105.87-13.94a.5.5,0,0,1-.35-.14l-2.77-2.77a.5.5,0,0,1,0-.71.5.5,0,0,1,.7,0l2.77,2.77a.5.5,0,0,1-.35.85Zm-124,0a.49.49,0,0,1-.35-.15.5.5,0,0,1,0-.7l2.77-2.76a.49.49,0,1,1,.7.7l-2.77,2.77A.5.5,0,0,1,26.29,150.82ZM12.35,132.66a.48.48,0,0,1-.42-.25.49.49,0,0,1,.18-.68l3.38-1.95a.5.5,0,0,1,.68.18.51.51,0,0,1-.18.68l-3.39,2A.45.45,0,0,1,12.35,132.66Zm151.92,0a.45.45,0,0,1-.25-.07l-3.39-2a.5.5,0,0,1,.5-.86l3.38,1.95a.49.49,0,0,1,.18.68A.48.48,0,0,1,164.27,132.66ZM173,111.51l-.13,0-3.77-1a.5.5,0,0,1-.35-.61.48.48,0,0,1,.6-.35l3.78,1a.5.5,0,0,1,.35.61A.51.51,0,0,1,173,111.51Zm-169.44,0a.5.5,0,0,1-.13-1l3.77-1a.48.48,0,0,1,.61.35.5.5,0,0,1-.35.61l-3.77,1ZM176,88.81H172.1a.5.5,0,1,1,0-1H176a.5.5,0,0,1,0,1Zm-171.5,0H.6a.5.5,0,0,1,0-1H4.52a.5.5,0,0,1,0,1Zm164.74-21.7a.49.49,0,0,1-.13-1l3.77-1a.5.5,0,0,1,.26,1l-3.78,1Zm-161.9,0H7.23l-3.77-1a.5.5,0,0,1,.26-1l3.77,1a.5.5,0,0,1,.35.61A.49.49,0,0,1,7.36,67.11ZM160.88,46.9a.49.49,0,0,1-.43-.24.51.51,0,0,1,.18-.68L164,44a.49.49,0,0,1,.49.85l-3.38,2A.54.54,0,0,1,160.88,46.9Zm-145.14,0a.54.54,0,0,1-.25-.06l-3.38-2A.49.49,0,0,1,12.6,44L16,46a.51.51,0,0,1,.19.68A.5.5,0,0,1,15.74,46.9ZM147.56,29.56a.47.47,0,0,1-.35-.15.48.48,0,0,1,0-.7L150,25.94a.49.49,0,0,1,.7.7l-2.77,2.77A.5.5,0,0,1,147.56,29.56Zm-118.5,0a.49.49,0,0,1-.35-.15l-2.77-2.77a.49.49,0,1,1,.7-.7l2.77,2.77a.5.5,0,0,1,0,.7A.49.49,0,0,1,29.06,29.56ZM130.21,16.23a.54.54,0,0,1-.25-.06.49.49,0,0,1-.18-.68l1.95-3.39a.51.51,0,0,1,.68-.18.49.49,0,0,1,.18.68l-2,3.38A.5.5,0,0,1,130.21,16.23Zm-83.8,0A.5.5,0,0,1,46,16L44,12.6a.49.49,0,0,1,.18-.68.5.5,0,0,1,.67.18l2,3.39a.5.5,0,0,1-.18.67A.47.47,0,0,1,46.41,16.23ZM66.62,7.86a.5.5,0,0,1-.48-.37l-1-3.77a.49.49,0,0,1,.35-.61.5.5,0,0,1,.61.35l1,3.77a.5.5,0,0,1-.35.61Zm43.38,0-.13,0a.5.5,0,0,1-.35-.61l1-3.77a.5.5,0,1,1,1,.26l-1,3.77A.5.5,0,0,1,110,7.86ZM88.31,5a.51.51,0,0,1-.5-.5V.6a.5.5,0,0,1,1,0V4.52A.51.51,0,0,1,88.31,5Z"/><path d="M99.76,175.76a.49.49,0,0,1-.49-.43l-.52-3.88a.51.51,0,0,1,.43-.56.5.5,0,0,1,.56.43l.51,3.88a.5.5,0,0,1-.43.56Zm-22.9,0H76.8a.5.5,0,0,1-.43-.56l.51-3.88a.49.49,0,0,1,.56-.43.51.51,0,0,1,.43.56l-.52,3.88A.49.49,0,0,1,76.86,175.76Zm45-5.92a.49.49,0,0,1-.45-.31l-1.5-3.61a.5.5,0,0,1,.92-.38l1.49,3.61a.49.49,0,0,1-.27.65A.58.58,0,0,1,121.87,169.84Zm-67.12,0a.58.58,0,0,1-.19,0,.49.49,0,0,1-.27-.65l1.49-3.61a.5.5,0,0,1,.92.38l-1.5,3.61A.49.49,0,0,1,54.75,169.84Zm86.95-11.45a.49.49,0,0,1-.39-.2l-2.39-3.11a.48.48,0,0,1,.09-.69.5.5,0,0,1,.7.09l2.39,3.11a.51.51,0,0,1-.09.7A.6.6,0,0,1,141.7,158.39Zm-106.78,0a.57.57,0,0,1-.31-.1.51.51,0,0,1-.09-.7l2.39-3.11a.5.5,0,0,1,.7-.09.5.5,0,0,1,.09.69l-2.39,3.11A.49.49,0,0,1,34.92,158.39ZM18.73,142.2a.51.51,0,0,1-.4-.2.49.49,0,0,1,.1-.69l3.11-2.39a.5.5,0,0,1,.69.09.5.5,0,0,1-.09.7L19,142.09A.5.5,0,0,1,18.73,142.2Zm139.16,0a.5.5,0,0,1-.3-.11l-3.11-2.38a.5.5,0,0,1-.09-.7.48.48,0,0,1,.69-.09l3.11,2.39a.49.49,0,0,1,.1.69A.51.51,0,0,1,157.89,142.2Zm11.45-19.83a.41.41,0,0,1-.19,0l-3.61-1.49a.5.5,0,0,1-.26-.65.48.48,0,0,1,.64-.27l3.61,1.5a.49.49,0,0,1,.27.64A.51.51,0,0,1,169.34,122.37Zm-162.06,0a.5.5,0,0,1-.19-1l3.6-1.49a.49.49,0,0,1,.65.27.5.5,0,0,1-.26.65l-3.61,1.49A.65.65,0,0,1,7.28,122.37ZM1.35,100.25a.5.5,0,0,1-.49-.43.49.49,0,0,1,.43-.55l3.88-.52a.5.5,0,0,1,.56.43.51.51,0,0,1-.43.56l-3.88.51Zm173.91,0h-.06l-3.88-.51a.51.51,0,0,1-.43-.56.5.5,0,0,1,.56-.43l3.88.51a.51.51,0,0,1,.43.56A.51.51,0,0,1,175.26,100.25ZM5.23,77.87H5.17l-3.88-.51a.49.49,0,1,1,.13-1l3.88.51a.5.5,0,0,1-.07,1Zm166.16,0a.51.51,0,0,1-.5-.43.5.5,0,0,1,.43-.56l3.88-.51a.49.49,0,1,1,.13,1l-3.88.51Zm-5.66-21.14a.48.48,0,0,1-.45-.3.49.49,0,0,1,.26-.65l3.61-1.5a.5.5,0,1,1,.38.92l-3.61,1.5A.58.58,0,0,1,165.73,56.73Zm-154.85,0-.19,0-3.6-1.5a.49.49,0,1,1,.38-.91l3.6,1.49a.49.49,0,0,1-.19.95Zm11-18.93a.57.57,0,0,1-.31-.1l-3.1-2.39a.51.51,0,0,1-.1-.7.51.51,0,0,1,.7-.09l3.11,2.39a.5.5,0,0,1-.3.89Zm132.94,0a.5.5,0,0,1-.3-.89l3.11-2.39a.51.51,0,0,1,.7.09.51.51,0,0,1-.1.7l-3.11,2.39A.54.54,0,0,1,154.78,37.8ZM37.3,22.33a.48.48,0,0,1-.39-.19L34.52,19a.5.5,0,0,1,.79-.61l2.39,3.11a.51.51,0,0,1-.1.7A.47.47,0,0,1,37.3,22.33Zm102,0a.49.49,0,0,1-.4-.8l2.39-3.11a.5.5,0,0,1,.79.61l-2.39,3.11A.49.49,0,0,1,139.32,22.33ZM120.38,11.38a.43.43,0,0,1-.19,0,.5.5,0,0,1-.27-.65l1.5-3.6a.48.48,0,0,1,.64-.27.49.49,0,0,1,.27.65l-1.49,3.6A.49.49,0,0,1,120.38,11.38Zm-64.14,0a.51.51,0,0,1-.46-.31l-1.49-3.6a.49.49,0,0,1,.27-.65.48.48,0,0,1,.64.27l1.5,3.6a.51.51,0,0,1-.27.65A.65.65,0,0,1,56.24,11.38Zm43-5.65h-.07a.49.49,0,0,1-.43-.55l.52-3.88a.48.48,0,0,1,.55-.43.5.5,0,0,1,.43.56L99.74,5.3A.5.5,0,0,1,99.25,5.73Zm-21.88,0a.5.5,0,0,1-.49-.43l-.51-3.88A.5.5,0,0,1,76.8.86a.49.49,0,0,1,.55.43l.52,3.88a.49.49,0,0,1-.43.55Z"/><path d="M82.65,176.33h0a.5.5,0,0,1-.46-.53l.25-3.92a.46.46,0,0,1,.53-.46.49.49,0,0,1,.46.53l-.25,3.92A.5.5,0,0,1,82.65,176.33Zm11.48,0a.5.5,0,0,1-.5-.46l-.26-3.92a.5.5,0,0,1,.46-.53.49.49,0,0,1,.53.46l.26,3.92a.5.5,0,0,1-.46.53Zm-22.85-1.48h-.1a.49.49,0,0,1-.39-.58l.76-3.84a.51.51,0,0,1,.58-.39.5.5,0,0,1,.39.59l-.75,3.83A.5.5,0,0,1,71.28,174.84Zm34.22,0a.5.5,0,0,1-.49-.4l-.76-3.83a.5.5,0,0,1,.39-.59.49.49,0,0,1,.58.39l.77,3.84a.49.49,0,0,1-.39.58Zm-45.3-2.93-.16,0a.51.51,0,0,1-.32-.63L61,167.54a.51.51,0,0,1,.63-.32.5.5,0,0,1,.31.63l-1.24,3.69A.5.5,0,0,1,60.2,171.88Zm56.38,0a.49.49,0,0,1-.47-.34l-1.26-3.69a.5.5,0,0,1,.31-.63.5.5,0,0,1,.63.31l1.26,3.69a.5.5,0,0,1-.31.63Zm-67-4.33a.44.44,0,0,1-.22-.05.49.49,0,0,1-.23-.66l1.73-3.51a.5.5,0,0,1,.89.44L50,167.22A.5.5,0,0,1,49.59,167.5Zm77.59-.07a.5.5,0,0,1-.45-.27L125,163.65a.49.49,0,1,1,.88-.44l1.74,3.5a.5.5,0,0,1-.22.67A.63.63,0,0,1,127.18,167.43Zm-87.53-5.66a.48.48,0,0,1-.28-.08.5.5,0,0,1-.13-.69l2.17-3.25a.49.49,0,1,1,.82.55l-2.17,3.25A.47.47,0,0,1,39.65,161.77Zm97.45-.09a.48.48,0,0,1-.41-.22l-2.17-3.25a.48.48,0,0,1,.13-.68.49.49,0,0,1,.69.13l2.18,3.25a.5.5,0,0,1-.14.69A.46.46,0,0,1,137.1,161.68ZM30.54,154.8a.49.49,0,0,1-.32-.12.51.51,0,0,1,0-.71L32.75,151a.5.5,0,0,1,.7,0,.49.49,0,0,1,0,.7l-2.58,2.95A.52.52,0,0,1,30.54,154.8Zm115.66-.11a.45.45,0,0,1-.37-.17l-2.59-3a.5.5,0,0,1,0-.7.49.49,0,0,1,.7,0l2.59,3a.5.5,0,0,1,0,.7A.52.52,0,0,1,146.2,154.69Zm-123.78-8a.46.46,0,0,1-.37-.17.5.5,0,0,1,0-.7L25,143.23a.49.49,0,0,1,.7.05.5.5,0,0,1,0,.7l-2.95,2.59A.5.5,0,0,1,22.42,146.69Zm131.89-.12a.5.5,0,0,1-.33-.12l-3-2.58a.5.5,0,0,1,0-.7.49.49,0,0,1,.7,0l2.95,2.58a.49.49,0,0,1,.05.7A.48.48,0,0,1,154.31,146.57Zm-138.88-9a.49.49,0,0,1-.41-.22.5.5,0,0,1,.13-.69l3.26-2.18a.49.49,0,0,1,.68.14.5.5,0,0,1-.13.69l-3.26,2.17A.44.44,0,0,1,15.43,137.6Zm145.85-.14a.45.45,0,0,1-.27-.08l-3.26-2.17a.5.5,0,1,1,.55-.83l3.26,2.17a.5.5,0,0,1,.13.69A.47.47,0,0,1,161.28,137.46ZM9.68,127.67a.49.49,0,0,1-.44-.28.5.5,0,0,1,.22-.66L13,125a.48.48,0,0,1,.66.22.51.51,0,0,1-.22.67l-3.5,1.73A.64.64,0,0,1,9.68,127.67ZM167,127.52a.42.42,0,0,1-.22,0l-3.51-1.72a.5.5,0,0,1-.22-.67.5.5,0,0,1,.66-.22l3.5,1.72a.49.49,0,0,1-.21.94ZM5.28,117.07a.49.49,0,0,1-.16-1l3.69-1.26a.48.48,0,0,1,.63.31.5.5,0,0,1-.31.63l-3.69,1.26A.41.41,0,0,1,5.28,117.07Zm166.11-.15a.45.45,0,0,1-.16,0l-3.69-1.24a.5.5,0,0,1,.31-1l3.7,1.25a.5.5,0,0,1,.31.63A.5.5,0,0,1,171.39,116.92ZM2.31,106a.5.5,0,0,1-.1-1L6,104.25a.48.48,0,0,1,.58.39.48.48,0,0,1-.39.58L2.4,106Zm172-.16h-.1l-3.84-.76a.5.5,0,0,1,.2-1l3.83.76a.5.5,0,0,1,.39.59A.49.49,0,0,1,174.35,105.84ZM.8,94.62a.5.5,0,0,1,0-1l3.92-.26a.48.48,0,0,1,.52.46.49.49,0,0,1-.46.53l-3.91.26Zm175-.16h0l-3.91-.25a.51.51,0,0,1-.47-.53.47.47,0,0,1,.53-.46l3.91.25a.5.5,0,0,1,.47.53A.5.5,0,0,1,175.83,94.46ZM4.7,83.4h0L.75,83.15a.5.5,0,0,1-.46-.53.49.49,0,0,1,.53-.46l3.91.25a.51.51,0,0,1,.47.53A.5.5,0,0,1,4.7,83.4Zm167.21-.15a.5.5,0,0,1-.5-.47.49.49,0,0,1,.46-.52l3.92-.26a.48.48,0,0,1,.53.46.51.51,0,0,1-.46.53l-3.92.26ZM6.11,72.53H6l-3.83-.76a.49.49,0,1,1,.19-1l3.83.76a.49.49,0,0,1-.09,1Zm164.37-.15a.49.49,0,0,1-.09-1l3.83-.77a.48.48,0,0,1,.58.39.49.49,0,0,1-.39.58l-3.83.77ZM8.92,61.94a.45.45,0,0,1-.16,0L5.07,60.66a.5.5,0,0,1,.32-.94L9.08,61a.5.5,0,0,1-.16,1Zm158.73-.15a.5.5,0,0,1-.16-1l3.69-1.25a.5.5,0,0,1,.32.94l-3.69,1.26Zm-154.54-10a.54.54,0,0,1-.21-.05L9.4,50a.5.5,0,0,1-.23-.67.49.49,0,0,1,.66-.23l3.5,1.73a.49.49,0,0,1-.22.94Zm150.32-.14a.49.49,0,0,1-.44-.27.5.5,0,0,1,.22-.67l3.5-1.73a.5.5,0,1,1,.44.89l-3.5,1.73A.42.42,0,0,1,163.43,51.67ZM18.59,42.31a.45.45,0,0,1-.27-.08l-3.26-2.17a.49.49,0,0,1,.55-.82l3.26,2.16a.5.5,0,0,1-.28.91Zm139.35-.12a.5.5,0,0,1-.28-.91l3.25-2.18a.5.5,0,0,1,.69.14.51.51,0,0,1-.13.69l-3.26,2.18A.53.53,0,0,1,157.94,42.19ZM25.26,33.62a.49.49,0,0,1-.32-.12l-3-2.59a.49.49,0,0,1,0-.7.5.5,0,0,1,.7,0l2.95,2.58a.49.49,0,0,1,.05.7A.52.52,0,0,1,25.26,33.62Zm126-.12a.45.45,0,0,1-.37-.17.5.5,0,0,1,0-.7l3-2.59a.5.5,0,1,1,.65.75l-2.94,2.59A.52.52,0,0,1,151.25,33.5ZM33,25.86a.52.52,0,0,1-.38-.17l-2.58-2.94a.5.5,0,0,1,.74-.66L33.38,25a.5.5,0,0,1,0,.7A.54.54,0,0,1,33,25.86Zm110.48-.1a.49.49,0,0,1-.37-.82l2.58-3a.5.5,0,1,1,.75.65l-2.58,2.95A.52.52,0,0,1,143.49,25.76ZM41.69,19.18a.49.49,0,0,1-.41-.22L39.1,15.7a.49.49,0,0,1,.14-.68.51.51,0,0,1,.69.13L42.1,18.4a.51.51,0,0,1-.13.69A.49.49,0,0,1,41.69,19.18Zm93.11-.09a.57.57,0,0,1-.28-.08.49.49,0,0,1-.13-.69l2.17-3.26a.5.5,0,0,1,.69-.13.49.49,0,0,1,.13.68l-2.17,3.26A.49.49,0,0,1,134.8,19.09ZM51.18,13.68a.49.49,0,0,1-.45-.28L49,9.9a.5.5,0,0,1,.22-.66.5.5,0,0,1,.67.22L51.62,13a.5.5,0,0,1-.22.67A.59.59,0,0,1,51.18,13.68Zm74.12-.07a.47.47,0,0,1-.22,0,.5.5,0,0,1-.22-.66l1.72-3.51a.52.52,0,0,1,.67-.23.51.51,0,0,1,.22.67l-1.72,3.5A.49.49,0,0,1,125.3,13.61Zm-64-4.14a.49.49,0,0,1-.47-.34L59.57,5.44a.5.5,0,1,1,.94-.32l1.26,3.69a.5.5,0,0,1-.31.63Zm53.88-.05a.45.45,0,0,1-.16,0,.5.5,0,0,1-.31-.63L116,5.07a.5.5,0,0,1,.63-.31.51.51,0,0,1,.32.63l-1.25,3.69A.5.5,0,0,1,115.18,9.42ZM71.88,6.63a.48.48,0,0,1-.48-.4L70.63,2.4A.49.49,0,0,1,71,1.82a.48.48,0,0,1,.58.39L72.37,6a.49.49,0,0,1-.39.58Zm32.7,0h-.1a.5.5,0,0,1-.39-.58l.76-3.84a.5.5,0,0,1,.59-.39.51.51,0,0,1,.39.59l-.76,3.83A.5.5,0,0,1,104.58,6.6ZM82.75,5.21a.49.49,0,0,1-.49-.47L82,.83a.5.5,0,1,1,1-.07l.26,3.92a.49.49,0,0,1-.47.52Zm11,0h0a.49.49,0,0,1-.46-.52L93.47.75A.48.48,0,0,1,94,.29a.49.49,0,0,1,.46.53l-.25,3.91A.51.51,0,0,1,93.71,5.2Z"/><path d="M88.31,173.09a84.78,84.78,0,1,1,84.78-84.78A84.87,84.87,0,0,1,88.31,173.09Zm0-167.58a82.8,82.8,0,1,0,82.79,82.8A82.89,82.89,0,0,0,88.31,5.51Z"/><path d="M88.31,162.92a74.62,74.62,0,1,1,74.61-74.61A74.69,74.69,0,0,1,88.31,162.92Zm0-148.23a73.62,73.62,0,1,0,73.62,73.62A73.7,73.7,0,0,0,88.31,14.69Z"/><path class="a" d="M88.31,11.8a2.67,2.67,0,1,0-2.68-2.67A2.68,2.68,0,0,0,88.31,11.8Z"/><path class="a" d="M88.31,170.07a2.68,2.68,0,1,0-2.68-2.67A2.68,2.68,0,0,0,88.31,170.07Z"/><path d="M108.79,14.76a3.3,3.3,0,0,1-.76-.1,2.92,2.92,0,0,1-1.78-1.37,2.87,2.87,0,0,1-.29-2.22,2.94,2.94,0,0,1,2.83-2.18,2.85,2.85,0,0,1,.76.11,2.93,2.93,0,0,1-.76,5.76Zm0-5.35A2.42,2.42,0,0,0,106.7,13a2.39,2.39,0,0,0,1.46,1.12,2.72,2.72,0,0,0,.63.08,2.42,2.42,0,0,0,.63-4.75A2.72,2.72,0,0,0,108.79,9.41Z"/><path d="M67.83,167.63a2.84,2.84,0,0,1-.76-.1A2.92,2.92,0,0,1,65,163.94a2.92,2.92,0,0,1,2.83-2.17,2.84,2.84,0,0,1,.76.1,2.93,2.93,0,0,1-.76,5.76Zm0-5.35a2.44,2.44,0,0,0-2.34,1.79,2.41,2.41,0,0,0,.25,1.84A2.35,2.35,0,0,0,67.2,167a2.28,2.28,0,0,0,.63.09,2.42,2.42,0,0,0,.62-4.75A2.16,2.16,0,0,0,67.83,162.28Z"/><path d="M127.87,22.67a2.89,2.89,0,0,1-1.46-.4,2.93,2.93,0,0,1,1.47-5.47,2.89,2.89,0,0,1,1.46.4,2.92,2.92,0,0,1,1.08,4A3,3,0,0,1,127.87,22.67Zm0-5.35a2.41,2.41,0,0,0-1.21,4.51,2.4,2.4,0,0,0,1.2.32,2.43,2.43,0,0,0,2.1-1.21,2.41,2.41,0,0,0-2.09-3.62Z"/><path d="M48.74,159.73a3,3,0,0,1-2.83-2.18,2.93,2.93,0,0,1,4.3-3.29,2.94,2.94,0,0,1,1.07,4A2.94,2.94,0,0,1,48.74,159.73Zm0-5.35a2.42,2.42,0,0,0,0,4.83,2.42,2.42,0,1,0,0-4.83Z"/><path class="a" d="M146.16,30.42a2.68,2.68,0,1,1-3.79,0A2.68,2.68,0,0,1,146.16,30.42Z"/><path class="a" d="M34.24,142.33a2.67,2.67,0,1,1-3.78,0A2.66,2.66,0,0,1,34.24,142.33Z"/><path d="M156.84,51.63a2.94,2.94,0,0,1-2.54-1.47,2.87,2.87,0,0,1-.29-2.22,2.94,2.94,0,0,1,2.83-2.18,2.94,2.94,0,0,1,1.47,5.48A3,3,0,0,1,156.84,51.63Zm0-5.35a2.43,2.43,0,0,0-1.21.32,2.4,2.4,0,0,0-1.12,1.47,2.37,2.37,0,0,0,.24,1.84,2.42,2.42,0,0,0,2.09,1.2,2.46,2.46,0,0,0,1.21-.32,2.42,2.42,0,0,0,.88-3.3A2.41,2.41,0,0,0,156.84,46.28Z"/><path d="M19.78,130.76a2.93,2.93,0,0,1-1.47-5.47,2.9,2.9,0,0,1,1.46-.39,3,3,0,0,1,2.55,1.47,2.93,2.93,0,0,1-1.08,4A2.88,2.88,0,0,1,19.78,130.76Zm0-5.35a2.43,2.43,0,0,0-1.2.33,2.4,2.4,0,0,0-.88,3.3,2.43,2.43,0,0,0,2.09,1.21,2.47,2.47,0,0,0,1.21-.33,2.35,2.35,0,0,0,1.12-1.46,2.42,2.42,0,0,0-2.34-3.05Z"/><path d="M164.74,70.72a3,3,0,0,1-2.83-2.18A2.94,2.94,0,0,1,164,65a3.23,3.23,0,0,1,.76-.1,2.93,2.93,0,0,1,.75,5.76A2.74,2.74,0,0,1,164.74,70.72Zm0-5.35a2.72,2.72,0,0,0-.63.08,2.42,2.42,0,0,0,.62,4.75,2.65,2.65,0,0,0,.63-.08,2.42,2.42,0,0,0-.62-4.75Z"/><path d="M11.87,111.68a2.94,2.94,0,0,1-.76-5.77,3.3,3.3,0,0,1,.76-.1,2.94,2.94,0,0,1,.76,5.77A3.23,3.23,0,0,1,11.87,111.68Zm0-5.35a2.57,2.57,0,0,0-.62.08,2.42,2.42,0,0,0,.62,4.75,2.72,2.72,0,0,0,.63-.08,2.42,2.42,0,0,0-.63-4.75Z"/><path class="a" d="M170.12,88.26a2.68,2.68,0,1,1-2.68-2.67A2.68,2.68,0,0,1,170.12,88.26Z"/><path class="a" d="M11.85,88.26a2.68,2.68,0,1,1-2.67-2.67A2.68,2.68,0,0,1,11.85,88.26Z"/><path d="M164.74,111.68a3.22,3.22,0,0,1-.75-.1,2.93,2.93,0,0,1,.75-5.77,3.17,3.17,0,0,1,.76.1,2.93,2.93,0,0,1-.76,5.77Zm0-5.35a2.41,2.41,0,0,0-2.33,1.79,2.42,2.42,0,0,0,1.71,3,2.64,2.64,0,0,0,.62.08,2.42,2.42,0,0,0,.63-4.75A2.65,2.65,0,0,0,164.74,106.33Z"/><path d="M11.87,70.72a2.85,2.85,0,0,1-.76-.11,2.93,2.93,0,0,1,.76-5.76,3.23,3.23,0,0,1,.76.1,2.93,2.93,0,0,1,2.07,3.59A2.93,2.93,0,0,1,11.87,70.72Zm0-5.35a2.42,2.42,0,0,0-.62,4.75,2.57,2.57,0,0,0,.62.08,2.44,2.44,0,0,0,2.34-1.79A2.41,2.41,0,0,0,14,66.57a2.39,2.39,0,0,0-1.46-1.12A2.72,2.72,0,0,0,11.87,65.37Z"/><path d="M156.84,130.76a2.94,2.94,0,0,1-1.47-.39,2.91,2.91,0,0,1-1.36-1.78,2.87,2.87,0,0,1,.29-2.22,2.94,2.94,0,0,1,4-1.08,2.9,2.9,0,0,1,1.36,1.78,2.92,2.92,0,0,1-2.83,3.69Zm0-5.35a2.43,2.43,0,0,0-2.09,1.21,2.42,2.42,0,0,0,.88,3.3,2.47,2.47,0,0,0,1.21.33,2.43,2.43,0,0,0,2.09-1.21,2.42,2.42,0,0,0-.88-3.3A2.47,2.47,0,0,0,156.84,125.41Z"/><path d="M19.78,51.63a3,3,0,0,1-1.47-.39,3,3,0,0,1-1.37-1.78,2.95,2.95,0,0,1,2.84-3.7,2.89,2.89,0,0,1,1.46.4,2.93,2.93,0,0,1-1.46,5.47Zm0-5.35a2.42,2.42,0,0,0-1.21,4.51,2.46,2.46,0,0,0,1.21.32A2.42,2.42,0,0,0,21,46.6,2.46,2.46,0,0,0,19.78,46.28Z"/><path class="a" d="M146.16,146.11a2.68,2.68,0,1,1,0-3.78A2.67,2.67,0,0,1,146.16,146.11Z"/><path class="a" d="M34.24,34.2a2.67,2.67,0,1,1,0-3.78A2.68,2.68,0,0,1,34.24,34.2Z"/><path d="M127.88,159.73a2.93,2.93,0,0,1-1.47-5.47,2.89,2.89,0,0,1,1.46-.4,2.93,2.93,0,0,1,1.47,5.47A2.89,2.89,0,0,1,127.88,159.73Zm0-5.35a2.4,2.4,0,0,0-1.2.32,2.42,2.42,0,0,0,1.21,4.51,2.4,2.4,0,0,0,1.2-.32,2.42,2.42,0,0,0-1.21-4.51Z"/><path d="M48.75,22.67A3,3,0,0,1,46.2,21.2a2.94,2.94,0,0,1,1.08-4,3,3,0,0,1,1.46-.39,2.92,2.92,0,0,1,2.54,1.47,2.94,2.94,0,0,1-1.07,4A2.91,2.91,0,0,1,48.75,22.67Zm0-5.35a2.42,2.42,0,1,0,0,4.83,2.42,2.42,0,0,0,1.2-.32,2.41,2.41,0,0,0-1.21-4.51Z"/><path d="M108.79,167.63a2.93,2.93,0,0,1-.76-5.76,2.84,2.84,0,0,1,.76-.1,2.93,2.93,0,0,1,.76,5.76A2.84,2.84,0,0,1,108.79,167.63Zm0-5.35a2.28,2.28,0,0,0-.63.09,2.42,2.42,0,0,0,.63,4.75,2.28,2.28,0,0,0,.63-.09,2.35,2.35,0,0,0,1.46-1.12,2.42,2.42,0,0,0-2.09-3.63Z"/><path d="M67.83,14.76a2.94,2.94,0,0,1-2.54-4.4,3,3,0,0,1,2.54-1.47,2.94,2.94,0,0,1,.76,5.77A3.3,3.3,0,0,1,67.83,14.76Zm0-5.35a2.72,2.72,0,0,0-.63.08,2.44,2.44,0,0,0-1.71,3,2.43,2.43,0,0,0,2.34,1.79,2.57,2.57,0,0,0,.62-.08A2.44,2.44,0,0,0,69.92,13a2.42,2.42,0,0,0-2.09-3.63Z"/><path d="M88.31,164.1A75.79,75.79,0,1,1,164.1,88.31,75.88,75.88,0,0,1,88.31,164.1ZM88.31,13a75.28,75.28,0,1,0,75.27,75.28A75.36,75.36,0,0,0,88.31,13Z"/><path d="M156.75,86a.48.48,0,0,0-.37-.47l-13.16-3.36L155.46,77a.49.49,0,0,0,.3-.53.5.5,0,0,0-.44-.42l-13.5-1.49,11.41-6.79a.51.51,0,0,0,.22-.57.49.49,0,0,0-.49-.36l-13.58.41L149.73,59a.48.48,0,0,0,.14-.59.5.5,0,0,0-.53-.28L136,60.39,145,50.71a.49.49,0,0,0-.51-.81L131.58,54l7.58-10.73.08-.12a.49.49,0,0,0-.62-.73l-12.24,5.89,6.08-11.81a.5.5,0,0,0-.72-.64l-11.3,7.54,4.37-12.54a.49.49,0,0,0-.2-.57.48.48,0,0,0-.6,0l-10.14,9,2.58-13a.49.49,0,0,0-.27-.54.48.48,0,0,0-.59.13L106.8,36.32l.75-13.26a.5.5,0,0,0-.35-.5.51.51,0,0,0-.57.21L99.37,34.25,98.27,21a.5.5,0,0,0-1-.16L91.73,33.24l-2.94-13a.5.5,0,0,0-.47-.39.49.49,0,0,0-.49.36L84,33.3,79.31,20.89a.49.49,0,0,0-.52-.32.51.51,0,0,0-.44.42l-2,13.44L70,22.8a.5.5,0,0,0-.55-.25.51.51,0,0,0-.38.48L69,36.62,61.05,26a.48.48,0,0,0-.58-.16.5.5,0,0,0-.31.53L62,39.81l-9.35-9.43a.5.5,0,0,0-.83.49l3.68,13.07-10.57-8a.51.51,0,0,0-.61,0,.5.5,0,0,0-.15.59l5.46,12.43L38,42.46a.5.5,0,0,0-.6.09.51.51,0,0,0-.06.61L44.5,54.71l-12.38-4.8a.5.5,0,0,0-.56.78l8.68,10.45-12.93-3a.5.5,0,0,0-.55.25.5.5,0,0,0,.11.6l10,9.14-13.22-1.2a.5.5,0,0,0-.51.32.49.49,0,0,0,.19.58l11.22,7.66-13.26.64a.48.48,0,0,0-.46.39.49.49,0,0,0,.26.55l12.18,6-13,2.48a.5.5,0,0,0-.41.46.51.51,0,0,0,.34.5l12.9,4.27L20.53,95a.5.5,0,0,0,.07,1L34,98.41l-11.85,6a.48.48,0,0,0-.26.54.5.5,0,0,0,.47.4l13.57.54L25,113.45a.49.49,0,0,0-.19.58.5.5,0,0,0,.52.32L38.83,113l-9.74,9a.49.49,0,0,0-.1.6.5.5,0,0,0,.55.25l13.2-3.22-8.39,10.29a.5.5,0,0,0,0,.61.48.48,0,0,0,.58.16l12.63-5L40.66,137a.49.49,0,0,0,.67.69L53.12,131l-5.23,12.2a.5.5,0,0,0,.76.59l10.74-8.3-3.48,12.8a.5.5,0,0,0,.84.48l9.48-9.72-1.67,13.17a.5.5,0,0,0,.31.52.5.5,0,0,0,.59-.16l8-11,.18,13.27a.49.49,0,0,0,.38.48.51.51,0,0,0,.55-.25l6.44-12,2,13.12a.49.49,0,0,0,1,.1l4.71-12.74,3.84,12.71a.48.48,0,0,0,.47.35h0a.5.5,0,0,0,.47-.39l2.89-13.27,5.57,12a.47.47,0,0,0,.54.28.48.48,0,0,0,.4-.45l1-13.54,7.19,11.16a.49.49,0,0,0,.91-.3l-.88-13.55,8.67,10.05a.5.5,0,0,0,.6.12.52.52,0,0,0,.27-.55L118,135l10,8.75a.48.48,0,0,0,.6,0,.49.49,0,0,0,.19-.58l-4.58-12.79,11.11,7.28a.5.5,0,0,0,.6-.05.5.5,0,0,0,.11-.6l-6.32-12,12,5.66a.5.5,0,0,0,.62-.74l-7.93-11L147,122.86a.49.49,0,0,0,.57-.21.5.5,0,0,0-.06-.61l-9.39-9.82,13.11,2.13a.5.5,0,0,0,.54-.29.5.5,0,0,0-.15-.59L141,105.05l13.27.29a.47.47,0,0,0,.49-.36.5.5,0,0,0-.23-.57l-11.72-6.85L156,96a.5.5,0,0,0,.13-.95l-12.57-5.15,12.84-3.39A.5.5,0,0,0,156.75,86Zm-3.44-9.14-11.68,4.91-8.3-2.12,7.07-4.22Zm-2.24-8.94-10.89,6.49-8.51-.94,6.43-5.16Zm-3.45-8.53-9.88,7.94-8.56.25,5.64-6Zm-4.61-8-8.69,9.23-8.44,1.45,4.76-6.74Zm-5.68-7.26L130,54.53l-8.16,2.6,3.77-7.33Zm-6.63-6.39-5.8,11.27-7.72,3.72L119.9,45Zm-7.46-5.4-4.17,12-7.13,4.75L113.55,41ZM106.71,38l8.4-9.9-2.47,12.43-6.4,5.7Zm-.26-13-.72,12.65L100.2,44.1l-.69-8.21Zm-9-1.91,1,12.63-4.57,7.24-1.83-8Zm-9.19-.63,2.8,12.36-3.52,7.8-2.93-7.7ZM79.06,23l4.5,11.85-2.4,8.22-4-7.23Zm-9,1.92,6.1,11.11-1.24,8.47L70,37.93ZM61.4,28.11,69,38.26l0,8.56L63.14,41Zm-8.13,4.33,8.93,9,1.15,8.48-6.56-5Zm-7.44,5.42,10.09,7.67,2.32,8.24-7.19-4Zm-6.62,6.4,11.06,6.19,3.44,7.84-7.68-3Zm-5.67,7.27,11.82,4.58,4.5,7.29-8-1.88Zm-4.59,8,12.34,2.9L46.76,69l-8.21-.75Zm-3.44,8.54L38.13,69.2,44.46,75l-8.23.4ZM23.29,77,36,76.37,43,81.2l-8.1,1.54Zm-1,9.16,12.45-2.37,7.68,3.79-7.8,2.65Zm.33,9.2,12-4.08L42.79,94l-7.36,3.71Zm1.61,9.07,11.31-5.71L44,100.24l-6.77,4.7Zm2.85,8.76L37.53,106l8.56.34L40,111.89Zm4.05,8.27,9.3-8.61L49,112l-5.21,6.39Zm5.16,7.63,8-9.82,8.32-2-4.27,7Zm6.17,6.84,6.56-10.84,8-3.16-3.25,7.57Zm7.06,5.92,5-11.66L62,125.94l-2.16,8Zm7.81,4.87,3.33-12.23,6.77-5.24-1,8.17Zm8.42,3.74,1.59-12.58,6-6.13.11,8.25ZM74.64,153l-.17-12.68,5.07-6.9,1.26,8.15Zm9.13,1.27-1.94-12.53,4.06-7.54,2.38,7.89Zm9.21,0L89.31,142.1l3-8,3.45,7.49ZM102.1,153l-5.32-11.5,1.83-8.37,4.46,6.92Zm1.72-23-.63,8.42-4.4-6.82a.47.47,0,0,0-.5-.22.48.48,0,0,0-.4.38L96.09,140l-3.4-7.38a.52.52,0,0,0-.47-.29.51.51,0,0,0-.45.33l-2.93,7.92-2.34-7.78a.51.51,0,0,0-.43-.35h0a.51.51,0,0,0-.44.26l-4,7.44-1.24-8a.49.49,0,0,0-.89-.22l-5,6.81-.11-8.13a.49.49,0,0,0-.31-.45.51.51,0,0,0-.54.11l-5.9,6.05,1-8.06a.49.49,0,0,0-.25-.49.5.5,0,0,0-.55,0l-6.68,5.17,2.13-7.84a.51.51,0,0,0-.17-.52.48.48,0,0,0-.55,0l-7.34,4.18,3.2-7.46a.49.49,0,0,0-.1-.54.48.48,0,0,0-.53-.12l-7.85,3.12,4.21-6.94a.52.52,0,0,0,0-.56.48.48,0,0,0-.51-.18l-8.21,2,5.14-6.3a.47.47,0,0,0,0-.54.49.49,0,0,0-.49-.26l-8.4.83,6-5.51a.5.5,0,0,0,.13-.54.49.49,0,0,0-.44-.32L38.89,105l6.67-4.64a.5.5,0,0,0,.2-.51.48.48,0,0,0-.39-.38L37.05,98l7.26-3.66a.5.5,0,0,0-.07-.92l-8-2.65,7.69-2.61a.52.52,0,0,0,.34-.44.51.51,0,0,0-.28-.48L36.4,83.47l8-1.52a.49.49,0,0,0,.39-.39.51.51,0,0,0-.2-.51l-7-4.76,8.11-.39a.51.51,0,0,0,.45-.33A.5.5,0,0,0,46,75l-6.24-5.69,8.09.74h.06a.47.47,0,0,0,.51-.49.5.5,0,0,0-.22-.41l-5.32-6.41,7.91,1.86h.13a.49.49,0,0,0,.5-.49.53.53,0,0,0-.16-.38L46.9,56.71l7.57,2.94a.65.65,0,0,0,.19,0,.46.46,0,0,0,.51-.5.48.48,0,0,0-.12-.33l-3.34-7.61,7.09,4a.37.37,0,0,0,.25.06.47.47,0,0,0,.51-.49.54.54,0,0,0-.08-.28l-2.25-8,6.47,4.92a.52.52,0,0,0,.82-.4.36.36,0,0,0,0-.21L63.36,42.6l5.73,5.77a.49.49,0,0,0,.84-.35l0-8.44,4.86,6.5a.49.49,0,0,0,.89-.22L77,37.5l3.91,7.12a.53.53,0,0,0,.49.26.48.48,0,0,0,.42-.36l2.37-8.1L87,44a.47.47,0,0,0,.44.32.45.45,0,0,0,.47-.29l3.48-7.7,1.79,7.93a.5.5,0,0,0,.91.15l4.51-7.14.68,8.1a.48.48,0,0,0,.34.43.5.5,0,0,0,.53-.15l5.46-6.44-.45,8.11a.5.5,0,0,0,.28.47.47.47,0,0,0,.54-.08l6.31-5.61-1.58,8a.5.5,0,0,0,.21.51.52.52,0,0,0,.55,0l7-4.69-2.68,7.67a.5.5,0,0,0,.14.53.47.47,0,0,0,.54.08l7.62-3.66-3.72,7.22a.49.49,0,0,0,.59.7l8-2.57-4.68,6.64a.48.48,0,0,0,0,.55.53.53,0,0,0,.5.23l8.33-1.43-5.57,5.92a.5.5,0,0,0,.38.84l8.44-.25-6.33,5.09A.49.49,0,0,0,130,74a.5.5,0,0,0,.43.36l8.39.92-7,4.16a.5.5,0,0,0,.13.91l8.19,2.08-7.49,3.15a.5.5,0,0,0,0,.92l7.81,3.2-7.85,2.07a.52.52,0,0,0-.37.42.5.5,0,0,0,.25.49l7.29,4.26-8.07,1a.52.52,0,0,0-.42.36.53.53,0,0,0,.17.53l6.63,5.23-8.12-.18a.51.51,0,0,0-.47.3.49.49,0,0,0,.1.54l5.83,6.11-8-1.3a.49.49,0,0,0-.5.23.5.5,0,0,0,0,.55l4.93,6.86-7.76-2.41a.53.53,0,0,0-.53.16.5.5,0,0,0-.06.55l3.93,7.47-7.35-3.46a.5.5,0,0,0-.68.62l2.85,7.95-6.8-4.45a.49.49,0,0,0-.75.52l1.71,8.27L110.28,127a.5.5,0,0,0-.55-.07.49.49,0,0,0-.27.48l.54,8.43-5.31-6.15a.48.48,0,0,0-.53-.15A.5.5,0,0,0,103.82,129.94Zm.26,9.81.64-8.54,5.39,6.24.84,13Zm15.28,6.9-8.28-9.6-.56-8.54,6.2,5.43Zm7.8-4.89-9.53-8.35L115.89,125l6.89,4.51Zm7.05-5.92-10.6-7-2.89-8.06,7.45,3.51Zm6.16-6.85-11.47-5.4-4-7.59,7.87,2.44Zm5.14-7.64-12.11-3.76-5-7,8.13,1.32Zm4-8.28L137,111l-5.92-6.19,8.24.18Zm2.84-8.77L139.71,104,133,98.73l8.18-1ZM154,95.23l-12.59,1.5L134,92.41l8-2.1Zm-11.95-6L134.1,86l7.6-3.19L154.28,86Z"/><path d="M88.31,128.36a40.06,40.06,0,1,1,40.06-40.05A40.1,40.1,0,0,1,88.31,128.36Zm0-78.12a38.07,38.07,0,1,0,38.07,38.07A38.11,38.11,0,0,0,88.31,50.24Z"/><path d="M88.31,130.8a42.49,42.49,0,1,1,42.48-42.49A42.54,42.54,0,0,1,88.31,130.8Zm0-84a41.5,41.5,0,1,0,41.49,41.5A41.54,41.54,0,0,0,88.31,46.81Z"/><path d="M88.31,160.31c-1.18,0-2.39,0-3.6-.09a.27.27,0,0,1-.2-.12.24.24,0,0,1,0-.23l3.84-10.38a.23.23,0,0,1,.25-.17.26.26,0,0,1,.24.18l3.13,10.39a.27.27,0,0,1,0,.23.24.24,0,0,1-.19.1C90.56,160.28,89.42,160.31,88.31,160.31Zm-3.22-.59c2.1.09,4.16.09,6.26,0l-2.81-9.33Zm9.63.3a.28.28,0,0,1-.2-.08.32.32,0,0,1-.06-.23l2.36-10.82a.27.27,0,0,1,.23-.2.29.29,0,0,1,.26.15l4.55,9.87a.24.24,0,0,1,0,.22.31.31,0,0,1-.18.14c-2.3.43-4.63.75-6.94,1Zm2.44-10.27L95,159.48c2.07-.2,4.16-.49,6.21-.86ZM81.7,160h0c-2.32-.21-4.66-.54-6.94-1a.26.26,0,0,1-.18-.14.26.26,0,0,1,0-.24l5.26-9.75a.27.27,0,0,1,.27-.14.27.27,0,0,1,.21.22L82,159.71a.26.26,0,0,1-.07.21A.27.27,0,0,1,81.7,160Zm-6.52-1.41c2,.38,4.14.67,6.22.87l-1.5-9.64Zm29.41-.14a.26.26,0,0,1-.26-.28l.83-11a.27.27,0,0,1,.19-.23.26.26,0,0,1,.28.11l5.89,9.14a.24.24,0,0,1,0,.23.31.31,0,0,1-.16.16c-2.18.74-4.46,1.38-6.75,1.91Zm1-10.53-.75,9.94c2-.49,4.08-1.06,6-1.72ZM71.83,158.4h0c-2.26-.53-4.53-1.19-6.75-1.94a.3.3,0,0,1-.16-.17.28.28,0,0,1,0-.23l6.57-8.94a.28.28,0,0,1,.29-.09.26.26,0,0,1,.17.24l.15,10.87a.27.27,0,0,1-.09.21A.34.34,0,0,1,71.83,158.4Zm-6.29-2.31c2,.66,4,1.24,6,1.73l-.13-9.77Zm48.6-.58a.25.25,0,0,1-.14,0,.26.26,0,0,1-.11-.2l-.72-11.07a.26.26,0,0,1,.45-.18l7.11,8.23a.25.25,0,0,1,0,.22.23.23,0,0,1-.13.18c-2.08,1-4.24,2-6.41,2.85Zm-.41-10.57.65,9.95c1.94-.77,3.87-1.62,5.74-2.55Zm-51.45,10.5-.09,0c-2.17-.84-4.32-1.81-6.4-2.86a.27.27,0,0,1-.14-.19.26.26,0,0,1,.07-.22l7.75-7.94a.24.24,0,0,1,.29-.05.27.27,0,0,1,.15.27l-1.37,10.78a.28.28,0,0,1-.12.19A.23.23,0,0,1,62.28,155.44Zm-5.94-3.18c1.86.93,3.79,1.79,5.73,2.56l1.23-9.7Zm66.86-1a.22.22,0,0,1-.11,0,.27.27,0,0,1-.15-.18L120.7,140.2a.25.25,0,0,1,.12-.28.27.27,0,0,1,.3,0l8.18,7.17a.24.24,0,0,1,.08.21.21.21,0,0,1-.11.19c-1.91,1.33-3.92,2.58-6,3.71A.27.27,0,0,1,123.2,151.26Zm-1.84-10.41,2,9.76q2.73-1.55,5.33-3.32ZM53.24,151.17a.19.19,0,0,1-.12,0c-2-1.13-4-2.38-5.94-3.72a.26.26,0,0,1-.11-.21.25.25,0,0,1,.1-.21l8.77-6.78a.26.26,0,0,1,.3,0,.25.25,0,0,1,.11.28L53.49,151a.25.25,0,0,1-.15.17Zm-5.48-4c1.73,1.2,3.52,2.32,5.32,3.34l2.57-9.43Zm83.81-1.38h-.07a.3.3,0,0,1-.17-.16l-3.74-10.44a.26.26,0,0,1,.08-.29.26.26,0,0,1,.3,0l9.1,6a.28.28,0,0,1,.12.2.3.3,0,0,1-.09.21c-1.71,1.57-3.51,3.09-5.37,4.5A.3.3,0,0,1,131.57,145.8Zm-3.24-10.06,3.37,9.38c1.65-1.27,3.27-2.62,4.81-4Zm-83.44,9.94a.25.25,0,0,1-.16-.06c-1.86-1.41-3.66-2.93-5.37-4.51a.27.27,0,0,1-.08-.22.26.26,0,0,1,.13-.19l9.64-5.5a.26.26,0,0,1,.3,0,.28.28,0,0,1,.06.3l-4.29,10a.26.26,0,0,1-.17.15ZM40,141c1.54,1.41,3.15,2.77,4.81,4l3.85-9Zm99.13-1.75h0a.23.23,0,0,1-.19-.13l-5.16-9.83a.24.24,0,0,1,0-.29.26.26,0,0,1,.3-.06l9.84,4.64a.25.25,0,0,1,.15.18.23.23,0,0,1-.06.22c-1.48,1.8-3.06,3.55-4.7,5.2A.26.26,0,0,1,139.1,139.22Zm-4.57-9.51,4.64,8.82c1.46-1.48,2.88-3,4.22-4.65Zm-97.16,9.37a.29.29,0,0,1-.18-.07c-1.65-1.67-3.23-3.42-4.7-5.22a.28.28,0,0,1-.05-.23.25.25,0,0,1,.16-.17l10.31-4.11a.25.25,0,0,1,.29.08.24.24,0,0,1,0,.3L37.59,139a.28.28,0,0,1-.19.12Zm-4.25-5.35c1.32,1.61,2.73,3.18,4.2,4.68l5.07-8.36Zm112.54-2.06h0a.25.25,0,0,1-.2-.1l-6.48-9a.24.24,0,0,1,0-.3.25.25,0,0,1,.28-.1l10.42,3.23a.26.26,0,0,1,.14.38c-1.22,2-2.55,4-3.95,5.81A.23.23,0,0,1,145.66,131.67Zm-5.83-8.8,5.83,8.11c1.25-1.67,2.43-3.42,3.54-5.21Zm-109,8.64h0a.26.26,0,0,1-.2-.1c-1.4-1.87-2.72-3.83-3.93-5.83a.26.26,0,0,1,0-.23.25.25,0,0,1,.18-.15l10.8-2.64a.25.25,0,0,1,.28.12.26.26,0,0,1,0,.3L31,131.42A.25.25,0,0,1,30.84,131.51Zm-3.51-5.89c1.09,1.78,2.27,3.53,3.52,5.21L37,123.25Zm123.77-2.33a.27.27,0,0,1-.19-.08l-7.68-8a.26.26,0,0,1,0-.3.27.27,0,0,1,.27-.13l10.78,1.75a.29.29,0,0,1,.19.13.27.27,0,0,1,0,.23,69.74,69.74,0,0,1-3.11,6.32.26.26,0,0,1-.19.13Zm-7-7.93L151,122.6c1-1.85,2-3.75,2.78-5.66ZM25.42,123.11h0a.28.28,0,0,1-.19-.12c-1.13-2.07-2.17-4.2-3.08-6.33a.23.23,0,0,1,0-.23.26.26,0,0,1,.2-.13l11.08-1.1a.25.25,0,0,1,.26.15.24.24,0,0,1-.06.29l-8,7.41A.26.26,0,0,1,25.42,123.11Zm-2.7-6.34c.83,1.91,1.76,3.81,2.77,5.67l7.2-6.66Zm132.6-2.55a.33.33,0,0,1-.16,0l-8.74-6.91a.27.27,0,0,1-.09-.29.27.27,0,0,1,.25-.17h0l10.93.23a.26.26,0,0,1,.2.11.25.25,0,0,1,0,.22c-.62,2.26-1.36,4.51-2.2,6.7a.27.27,0,0,1-.17.16Zm-8-6.89,7.87,6.22c.74-2,1.4-4,2-6ZM21.22,114h-.07a.27.27,0,0,1-.17-.16,69.87,69.87,0,0,1-2.17-6.7.26.26,0,0,1,0-.23.35.35,0,0,1,.22-.1l11.14.45a.26.26,0,0,1,.13.47l-9,6.23A.25.25,0,0,1,21.22,114Zm-1.82-6.67c.56,2,1.22,4.06,2,6l8.06-5.6Zm138.84-2.71a.2.2,0,0,1-.13,0L148.48,99a.26.26,0,0,1,.1-.48l10.86-1.29a.28.28,0,0,1,.21.07.26.26,0,0,1,.07.22c-.29,2.32-.71,4.65-1.23,6.94a.3.3,0,0,1-.15.18Zm-8.84-5.72,8.66,5.06c.46-2,.83-4.14,1.11-6.22ZM18.33,104.45l-.11,0a.28.28,0,0,1-.14-.18c-.51-2.28-.92-4.62-1.21-7a.27.27,0,0,1,.08-.22.25.25,0,0,1,.22-.06l11,2a.26.26,0,0,1,.07.49l-9.76,4.92A.27.27,0,0,1,18.33,104.45Zm-.9-6.86c.27,2.08.63,4.17,1.08,6.22l8.78-4.43Zm142.35-2.83h-.09l-10.32-4.24a.24.24,0,0,1-.16-.25.27.27,0,0,1,.19-.24L160,87.23a.26.26,0,0,1,.32.25c0,.28,0,.55,0,.83,0,2-.09,4.14-.27,6.22a.28.28,0,0,1-.12.2A.32.32,0,0,1,159.78,94.76Zm-9.5-4.43,9.28,3.8c.15-1.94.23-3.9.23-5.82v-.49ZM16.82,94.56a.33.33,0,0,1-.14,0,.28.28,0,0,1-.12-.2c-.16-2-.25-4-.25-6,0-.35,0-.69,0-1a.24.24,0,0,1,.11-.2.27.27,0,0,1,.23,0l10.59,3.51a.25.25,0,0,1,0,.48L16.9,94.55Zm0-6.93v.68c0,1.89.07,3.79.22,5.64l9.31-3.17ZM160,84.76h-.07L149.07,82a.27.27,0,0,1-.19-.24.24.24,0,0,1,.16-.25l10.1-4.25a.24.24,0,0,1,.22,0,.26.26,0,0,1,.13.18c.35,2.31.59,4.67.72,7a.25.25,0,0,1-.1.21A.23.23,0,0,1,160,84.76Zm-10-3.07,9.72,2.47c-.12-2.11-.33-4.22-.64-6.29ZM16.68,84.55a.27.27,0,0,1-.17-.06.24.24,0,0,1-.08-.21,68.32,68.32,0,0,1,.73-7,.23.23,0,0,1,.13-.18.24.24,0,0,1,.23,0l10,5a.26.26,0,0,1,.14.26.27.27,0,0,1-.21.22l-10.75,2Zm.93-6.87c-.31,2.07-.52,4.19-.65,6.3l9.67-1.84Zm141.12-2.85h0L147.59,73.6a.24.24,0,0,1-.22-.2.26.26,0,0,1,.11-.28l9.44-5.62a.3.3,0,0,1,.23,0,.28.28,0,0,1,.15.17c.67,2.26,1.24,4.57,1.69,6.87a.28.28,0,0,1-.07.23A.26.26,0,0,1,158.73,74.83Zm-10.32-1.66,10,1.11c-.41-2.07-.92-4.14-1.51-6.16ZM17.92,74.63a.26.26,0,0,1-.25-.31c.45-2.3,1-4.61,1.71-6.87a.3.3,0,0,1,.16-.17.23.23,0,0,1,.23,0L29,73.62a.25.25,0,0,1,.11.28.26.26,0,0,1-.24.19l-10.95.53Zm1.85-6.69c-.6,2-1.11,4.1-1.53,6.15l9.86-.48Zm11.71-2h0L20.52,65a.24.24,0,0,1-.19-.11.27.27,0,0,1,0-.23C21.07,62.4,22,60.2,23,58.05a.26.26,0,0,1,.18-.14.31.31,0,0,1,.23.06l8.29,7.54a.28.28,0,0,1,.06.3A.27.27,0,0,1,31.48,66ZM20.9,64.48l9.84.9-7.46-6.79C22.4,60.51,21.6,62.49,20.9,64.48Zm124,1a.27.27,0,0,1-.25-.18.28.28,0,0,1,.09-.29l8.56-6.88a.25.25,0,0,1,.22,0,.26.26,0,0,1,.18.14c1,2.14,1.87,4.35,2.64,6.58a.31.31,0,0,1,0,.23.26.26,0,0,1-.21.11L145,65.5Zm8.47-6.74L145.71,65l10.07-.3C155.08,62.66,154.29,60.68,153.42,58.76ZM35.19,58.28h-.06l-10.7-2.51a.26.26,0,0,1-.17-.15.24.24,0,0,1,0-.22c1.09-2.11,2.28-4.17,3.56-6.14a.22.22,0,0,1,.2-.11.21.21,0,0,1,.21.09l7.16,8.62a.26.26,0,0,1,0,.3A.25.25,0,0,1,35.19,58.28Zm-10.32-3,9.63,2.26-6.44-7.76C26.92,51.6,25.85,53.45,24.87,55.33Zm116.3,2.51a.24.24,0,0,1-.22-.14.24.24,0,0,1,0-.3l7.52-8a.31.31,0,0,1,.21-.08.28.28,0,0,1,.2.12c1.27,2,2.46,4,3.53,6.14a.24.24,0,0,1,0,.23.23.23,0,0,1-.19.14l-11,1.89ZM148.66,50l-6.77,7.21,9.94-1.71C150.86,53.62,149.8,51.77,148.66,50ZM39.94,51.18a.15.15,0,0,1-.09,0l-10.25-4a.25.25,0,0,1-.16-.16.27.27,0,0,1,0-.23c1.36-1.92,2.83-3.8,4.37-5.58a.29.29,0,0,1,.22-.09.32.32,0,0,1,.2.12l5.89,9.55a.26.26,0,0,1,0,.3A.27.27,0,0,1,39.94,51.18Zm-9.85-4.36,9.22,3.58L34,41.82C32.64,43.42,31.32,45.1,30.09,46.82Zm106.28,4a.28.28,0,0,1-.21-.1.27.27,0,0,1,0-.31l6.34-9a.26.26,0,0,1,.2-.11.23.23,0,0,1,.21.09c1.54,1.79,3,3.67,4.35,5.6a.23.23,0,0,1,0,.23.25.25,0,0,1-.16.16l-10.68,3.41ZM142.73,42,137,50,146.64,47C145.42,45.26,144.1,43.57,142.73,42ZM45.62,44.81l-.12,0-9.6-5.37a.26.26,0,0,1-.13-.19.23.23,0,0,1,.07-.21c1.63-1.73,3.34-3.39,5.1-4.92a.26.26,0,0,1,.41.09l4.51,10.27a.26.26,0,0,1-.06.29A.24.24,0,0,1,45.62,44.81Zm-9.18-5.69L45.08,44,41,34.71C39.45,36.09,37.91,37.58,36.44,39.12Zm94.19,5.34a.25.25,0,0,1-.18-.08.26.26,0,0,1,0-.3l5-9.78a.26.26,0,0,1,.19-.13.21.21,0,0,1,.21,0c1.78,1.57,3.49,3.23,5.09,4.94a.28.28,0,0,1,.07.23.26.26,0,0,1-.14.18l-10.11,4.86A.2.2,0,0,1,130.63,44.46Zm5.11-9.63-4.53,8.8,9.09-4.37C138.86,37.73,137.33,36.24,135.74,34.83ZM52.14,39.3a.3.3,0,0,1-.16,0l-8.76-6.66a.28.28,0,0,1-.1-.21.27.27,0,0,1,.09-.2A70.64,70.64,0,0,1,49,28a.24.24,0,0,1,.23,0,.25.25,0,0,1,.16.17l3,10.82a.26.26,0,0,1-.11.29A.23.23,0,0,1,52.14,39.3Zm-8.35-6.92,7.89,6L49,28.63C47.18,29.8,45.45,31.05,43.79,32.38ZM124.07,39a.3.3,0,0,1-.16,0,.25.25,0,0,1-.08-.29l3.62-10.41a.31.31,0,0,1,.16-.16.31.31,0,0,1,.23,0c2,1.29,3.89,2.7,5.73,4.19a.3.3,0,0,1,.1.22.28.28,0,0,1-.12.2L124.21,39A.23.23,0,0,1,124.07,39Zm3.76-10.26-3.26,9.36,8.4-5.6C131.32,31.17,129.59,29.91,127.83,28.74Zm-68.47,6a.25.25,0,0,1-.18-.08l-7.77-7.83a.26.26,0,0,1-.07-.21.25.25,0,0,1,.12-.19c2-1.21,4.15-2.34,6.28-3.34a.29.29,0,0,1,.24,0,.26.26,0,0,1,.13.19l1.51,11.15a.28.28,0,0,1-.15.27A.2.2,0,0,1,59.36,34.75Zm-7.35-8,7,7-1.36-10C55.73,24.63,53.84,25.64,52,26.71Zm64.8,7.8a.22.22,0,0,1-.13,0,.24.24,0,0,1-.12-.27l2.14-10.82a.26.26,0,0,1,.14-.18.26.26,0,0,1,.23,0c2.14,1,4.24,2.15,6.26,3.36a.24.24,0,0,1,.13.2.24.24,0,0,1-.09.21L117,34.44A.28.28,0,0,1,116.81,34.51Zm2.34-10.71-1.94,9.74,7.56-6.73C123,25.73,121.06,24.72,119.15,23.8Zm-52,7.44a.26.26,0,0,1-.21-.11L60.33,22.3a.27.27,0,0,1,0-.23.28.28,0,0,1,.15-.17c2.17-.91,4.42-1.72,6.69-2.42a.24.24,0,0,1,.23,0,.27.27,0,0,1,.1.21L67.4,31a.25.25,0,0,1-.17.24Zm-6.21-9,6,8,0-10.13C64.91,20.71,62.89,21.44,60.94,22.25ZM109,31.07l-.1,0a.26.26,0,0,1-.16-.26l.62-11a.27.27,0,0,1,.11-.19.27.27,0,0,1,.23,0c2.25.7,4.49,1.52,6.68,2.45a.27.27,0,0,1,.15.18.23.23,0,0,1-.06.22L109.19,31A.26.26,0,0,1,109,31.07Zm.86-10.94-.56,9.92,6.55-7.72C113.89,21.51,111.88,20.77,109.86,20.13ZM75.34,28.85a.25.25,0,0,1-.22-.13L69.8,19a.24.24,0,0,1,0-.22.23.23,0,0,1,.17-.15,71,71,0,0,1,7-1.46.24.24,0,0,1,.23.07.26.26,0,0,1,.07.22L75.6,28.63a.27.27,0,0,1-.21.22Zm-4.93-9.76L75.2,27.8l1.46-10C74.56,18.12,72.46,18.56,70.41,19.09Zm30.37,9.66h-.06a.25.25,0,0,1-.19-.23l-.92-11a.24.24,0,0,1,.08-.21.26.26,0,0,1,.22-.07c2.32.38,4.66.88,7,1.49a.25.25,0,0,1,.18.15.26.26,0,0,1,0,.23l-6,9.52A.27.27,0,0,1,100.78,28.75Zm-.63-10.94L101,27.7l5.41-8.57C104.33,18.6,102.24,18.15,100.15,17.81ZM83.79,27.63a.25.25,0,0,1-.24-.17L79.64,17.15a.24.24,0,0,1,0-.22.26.26,0,0,1,.19-.13c2.34-.27,4.73-.43,7.09-.47a.24.24,0,0,1,.21.1.26.26,0,0,1,0,.23L84,27.44a.26.26,0,0,1-.24.19ZM80.23,17.28l3.53,9.28,2.84-9.71C84.48,16.9,82.34,17,80.23,17.28Zm12.1,10.31h0a.27.27,0,0,1-.23-.2L89.64,16.65a.25.25,0,0,1,0-.22.24.24,0,0,1,.2-.1c2.35.05,4.74.22,7.09.5a.26.26,0,0,1,.2.13.27.27,0,0,1,0,.23L92.56,27.44A.24.24,0,0,1,92.33,27.59ZM90.21,16.85l2.2,9.68,4.16-9.23C94.46,17.06,92.32,16.91,90.21,16.85Z"/><path class="a" d="M83.19,89a9.2,9.2,0,0,1,7.23-9,9.53,9.53,0,0,0-1.94-.2,9.19,9.19,0,1,0,0,18.37A8.87,8.87,0,0,0,90.42,98,9.18,9.18,0,0,1,83.19,89Z"/><path class="a" d="M93.09,79.09l-.49-.23-.5-.19-.51-.18-.09,0L92,76.76v0h0v-.06h0v0h0v0h0v0h0v0h0v0h0v0h-.53v0h0v0h0v0h0v0l-.46,1.71-.3-.07-.54-.1-.55-.07-.56,0h-.22V76.23a.35.35,0,0,0-.7,0V78h-.22l-.56,0-.55.07-.54.1-.3.07-.46-1.71v0h0v0h0v0h0v0h-.53l0,0h0v0h0v0h0v0h0v0h0v0h0v.06h0v0l.46,1.71-.09,0-.52.18-.5.19-.49.23-.43.22-.88-1.53v0h0v0h0l0,0h-.5v0h0v0h0v0h0v0h0v0h0v0h0v0h0v0h0v0h0v0h0v0l.89,1.53-.36.23-.43.31-.42.33-.4.34-.14.13L79.5,79.74h0v0h-.41v0H79v0h0v0h0v0h0v0h0v0h0v0h0v0h0v0h0v0h0v0h0l1.26,1.26-.13.13-.35.41-.33.41-.3.43-.23.36-1.54-.88H77v0h0v0h0v0h0v0h0v0h0v0h0v0h0v0h0v0h0v0h0v0h0v0h.08l1.53.89-.22.43-.22.49-.2.5-.17.51,0,.1L76,85.39h-.34v0h0v0h0v0h0v0h0v.06h0v.06h0v0h0v0h0v0h0v0h0v0h0v0h.17l1.71.46-.06.3-.1.55-.07.55,0,.56v.22H75.5a.35.35,0,0,0,0,.69h1.78v.22l0,.56.07.55.1.55.06.3L75.85,92h-.18v0h0v0h0v0h0v0h0v0h0v.06h0v0h0v0h0v0h0v0h0v0H76l1.71-.46,0,.1.17.51.2.5.22.49.22.43-1.53.89H77v0h0v0h0v0h0v0h0v0h0v0h0v.06h0v0h0v0h0v0h0v0h0v0h.43l1.54-.88.23.36.3.43.33.41.35.41.13.13L79,97.85h0v0h0v0h0v0h0v0h0v0h0v0h0v0h0v0h0v0h0v0h0v0h0v0h.51l1.25-1.25.14.13.4.34.42.33.43.31.36.22L81.61,100v0h0v0h0v0h0v.06h0v0h0v0h0v0h0v0h0v0h0v0h0l0,0h.47v0h0v0h0v0l.88-1.53.43.22.49.23.5.19.52.18.09,0-.46,1.71v0h0v.06h0v0h0v0h0v0h0v0h0v0h0v0h.54v0h0v0h0v0l.46-1.71.3.07.54.1.55.06.56,0H88v1.78a.35.35,0,0,0,.7,0v-1.78h.22l.56,0L90,100l.54-.1.3-.07.46,1.71v0h0v0h0v0h.53v0h0v0h0v0h0v0h0v0h0v0h0v-.06h0v0L91.5,99.6l.09,0,.51-.18.5-.19.49-.23.44-.22.88,1.53v0h0v0h0v0H95l0,0h0v0h0v0h0v0h0v0h0v0h0v0h0V100h0v0h0v0h0v0l-.89-1.54.36-.22.43-.31.42-.33.4-.34.14-.13,1.25,1.25h0v0h.38l0,0h.06v0h0v0h0v0h0v0h0v0h0v0h0v0h0v0h0v0h0v0h0v0h0v0h0l0,0-1.25-1.25.13-.13.35-.41.32-.41.31-.43.23-.36,1.53.88h.43v0h0v0h0v0h0v0h0v0h0v-.06h0v0h0v0h0v0h0v0h0v0h0v0h-.09L98,94.25l.23-.43.22-.49.2-.5.17-.51,0-.1,1.71.46h.34v0h0v0h0v0h0v0h0v0h0v-.06h0v0h0v0h0v0h0v0h0l0,0h-.18l-1.71-.46.07-.3.1-.55.07-.55,0-.56v-.22h1.77a.35.35,0,1,0,0-.69H99.34v-.22l0-.56-.07-.55-.1-.55-.07-.3,1.71-.46h.17v0h0v0h0v0h0v0h0v0h0v0h0v-.06h0v-.06h0v0h0v0h0v0h0v0h-.34l-1.71.46,0-.1-.17-.51-.2-.5-.22-.49L98,83.82l1.54-.89h.08v0h0v0h0v0h0v0h0v0h0v0h0v0h0v0h0v0h0v0h0v0h0v0h-.43l-1.53.88-.23-.36-.31-.43L96.83,82l-.35-.41-.13-.13,1.26-1.26h0v0h0v0h0v0h0v0h0v0h0v0h0v0h0v0h0v0h0v0h0v0h0v0h-.41l0,0h0L95.86,81l-.13-.13-.4-.34-.42-.33-.43-.31-.36-.23L95,78.12v0h0v0h0v0h0v0h0v0h0v0h0v0h0v0h0v0h-.52v0h0v0h0l-.88,1.54Zm.46,1h0l.08,0,.42.26.41.29.39.31.38.32.26.26h0v0h0v0h0l0,0h.1l.26.27.32.37.31.4.29.4.27.42,0,.08h0v0h0v0h0v0h0v0h0v0h0l0,0h0l.08.13.23.45.2.46.19.47.16.48.08.28h0v0h0v.06h0v0h0v0h0v0h0l.11.46.09.51.06.52,0,.52V89s0,0,0,0a.15.15,0,0,0,0,.07l0,.47,0,.52-.06.52-.09.51-.11.46h0v0h0v0h0v0h0v0h0v.06h0v0h0l-.08.28-.16.48-.19.47-.2.46-.23.45-.08.13h0v0h0v0h0v0h0v0h0v0h0v0h0l0,.08-.27.42-.29.4-.31.4L96,96l-.26.27h-.12v0h0v0h0v0h0l-.26.26-.38.33-.39.31-.41.29-.42.26-.07.05h-.2v0h0l-.13.07-.45.23-.45.21-.47.18-.48.17-.27.07h-.27l-.46.1-.5.09-.52.07-.53,0h-.46s0,0-.07,0,0,0-.07,0h-.46l-.53,0-.52-.07-.51-.09-.45-.1H85.5l-.27-.07-.48-.17-.47-.18-.46-.21-.44-.23-.14-.07h0v0H83l-.09-.05-.42-.26-.4-.29L81.73,97l-.38-.33-.27-.25h0v0h0l0,0h0v0h-.1L80.65,96l-.32-.37-.31-.4-.29-.4-.27-.42,0-.08h0v0h0v0h0v0h0v0h0v0h0v0h0L79.21,94,79,93.52l-.21-.46-.18-.47-.16-.48-.08-.28h0v0h0v-.06h0v0h0v0h0v0h0v0h0l-.11-.46-.09-.51L78,90.09l0-.52v-.48s0,0,0-.06,0,0,0,0V88.5L78,88l.07-.52.09-.51.11-.46h0v0h0v0h0v0h0v-.06h0v0h0l.08-.28.16-.48.18-.47.21-.46.23-.45.07-.13h0l0,0h0v0h0v0h0v0h0v0h0v0l0-.07.27-.42.29-.4.31-.4.32-.37.26-.27H81v0h0l0,0h0v0h0l.27-.26.38-.32.39-.31.4-.29.42-.26.08,0h.17l0,0h0l.13-.08.44-.22.46-.21.47-.18.48-.17.28-.08h.25l.46-.1.51-.09.52-.07.53,0h.46s.05,0,.07,0,0,0,.07,0h.46l.53,0,.52.07.5.09.47.1h.25l.28.08.48.17.47.18.45.21.45.22.13.08h0l0,0h.12Z"/><path class="a" d="M90.05,81.81a.17.17,0,0,0,.14.2l.14,0h-.18a.18.18,0,0,0-.17.17.18.18,0,0,0,.17.18h1.4a7.78,7.78,0,0,1,.93.42H90.85a.17.17,0,0,0-.17.18.17.17,0,0,0,.17.17H93a6.91,6.91,0,0,1,.62.44H91.46a.18.18,0,0,0-.18.17.17.17,0,0,0,.18.17h2.42l.05,0c.15.15.31.29.45.45H91.93a.18.18,0,0,0-.17.18.18.18,0,0,0,.17.17h2.64s0,0,.05,0a4.73,4.73,0,0,1,.32.46H92.31a.17.17,0,1,0,0,.34h2.78a.15.15,0,0,0,.07,0c.08.15.14.31.22.46H92.61a.17.17,0,0,0-.17.17.16.16,0,0,0,.17.17h2.92c.06.15.13.29.18.44H92.83a.18.18,0,0,0-.17.18.18.18,0,0,0,.17.17h3c0,.14.08.29.11.44H93a.17.17,0,0,0,0,.34h3c0,.14,0,.29,0,.44h-3a.17.17,0,0,0-.17.17.17.17,0,0,0,.17.18h3c0,.14,0,.28,0,.42h-3a.18.18,0,0,0-.17.18.18.18,0,0,0,.17.17h3c0,.14,0,.28,0,.43h-3a.17.17,0,1,0,0,.34H96a3,3,0,0,1-.09.43H93a.18.18,0,0,0-.18.17.18.18,0,0,0,.18.18h2.83c0,.14-.07.29-.12.42H92.86a.18.18,0,0,0-.17.18.18.18,0,0,0,.17.17H95.6c-.06.15-.14.29-.2.43H92.65a.17.17,0,0,0-.17.17.16.16,0,0,0,.17.17h2.58c-.08.15-.17.29-.26.43h-2.6a.17.17,0,0,0-.17.17.17.17,0,0,0,.17.18h2.36c-.11.14-.2.29-.31.42H92a.18.18,0,0,0-.18.18A.18.18,0,0,0,92,94h2.06a5.81,5.81,0,0,1-.43.43H91.55a.18.18,0,0,0-.18.17.17.17,0,0,0,.18.17h1.63a5.27,5.27,0,0,1-.62.43H91a.18.18,0,0,0-.17.18.18.18,0,0,0,.17.17h.86a7.62,7.62,0,0,1-1.33.42h-.28a.17.17,0,0,0-.17.18s0,0,0,0,0,0,0,0a.17.17,0,0,0,.17.15h0a2.29,2.29,0,0,0,.28-.07h.64a.18.18,0,0,0,.17-.17s0,0,0,0a7.59,7.59,0,0,0,1.31-.56h.09a.17.17,0,0,0,.16-.15,8,8,0,0,0,.94-.67v0a7.47,7.47,0,0,0-3.59-13A.17.17,0,0,0,90.05,81.81Z"/><path class="a" d="M93.06,80.28l-.43-.22-.45-.2-.45-.18-.46-.16-.47-.13-.49-.11-.48-.09-.5-.06-.51,0-.51,0-.51,0-.51,0-.5.06-.49.09-.48.11-.47.13-.46.16-.46.18-.44.2-.43.22-.42.24-.4.26-.39.28-.38.29-.36.31-.34.33-.33.35-.31.36-.3.38-.28.39-.26.4-.24.42-.22.43-.2.44-.18.45-.15.46-.14.48-.1.48-.1.49-.06.5,0,.5v1l0,.5.06.5.1.49.1.48.14.47.15.47.18.45.2.44.22.43.24.42.26.4.28.39.3.38.31.36.33.35.34.32.36.32.38.29.39.28.4.26.42.24L84,98l.44.2.46.18.46.16.47.13.48.11.49.09.5.06.51,0h1l.51,0,.5-.06.48-.09.49-.11.47-.13.46-.16.45-.18.45-.2.43-.22.41-.24.41-.26.39-.28.37-.29L95,96.4l.35-.32.33-.35.31-.36.3-.38.28-.39.26-.4.24-.42.21-.43.2-.44.18-.45.16-.47.13-.47.11-.48.09-.49.06-.5,0-.5,0-.52,0-.51,0-.5-.06-.5L98.06,87,98,86.55l-.13-.48-.16-.46-.18-.45-.2-.44-.21-.43-.24-.42-.26-.4-.28-.39L96,82.7l-.31-.36L95.35,82,95,81.66l-.36-.31-.37-.29-.39-.28-.41-.26Zm1,1,.36.29.35.3.33.32.32.33.31.35.28.36.27.38.25.39.23.4.21.42.2.42.17.44.15.45.13.45.11.47.08.47.06.48,0,.49v1l0,.49-.06.48-.08.47-.11.47-.13.45-.15.45-.17.44-.2.42-.21.42-.23.4-.25.39-.27.38-.28.36-.31.35-.32.33-.33.32-.35.3-.36.29-.38.27-.39.24-.4.24-.41.21-.43.19-.44.17-.44.15-.46.14-.46.1-.48.09-.48.06-.49,0h-1l-.49,0-.47-.06-.48-.09-.46-.1-.46-.14L85,98.06l-.43-.17-.43-.19-.41-.21-.41-.24L82.93,97l-.37-.27-.36-.29-.35-.3-.34-.32-.32-.33-.3-.35-.28-.36-.27-.38L80.09,94l-.23-.4-.22-.42-.19-.42-.17-.44-.15-.45L79,91.44,78.89,91l-.08-.47L78.75,90l0-.49v-1l0-.49.06-.48.08-.47.11-.47.13-.45.15-.45.17-.44.19-.42.22-.42.23-.4.25-.39.27-.38.28-.36.3-.35.32-.33.34-.32.35-.3.36-.29.37-.27.39-.25.41-.23.41-.21.43-.19L85,80l.45-.15.46-.13.46-.1.48-.09.47-.06.49,0h1l.49,0,.48.06.48.09.46.1.46.13.44.15.44.18.43.19.41.21.4.23.39.25Z"/><path class="a" d="M121.79,108.44,89.18,48.9a1,1,0,0,0-1.74,0L54.73,108.62a1,1,0,0,0,0,1,1,1,0,0,0,.85.49H121a1,1,0,0,0,.75-1.65Zm-64.51-.34,31-56.66,31,56.66Z"/><path class="a" d="M87.87,57.69,61.82,105.27a.46.46,0,0,0,0,.49.48.48,0,0,0,.42.24h52.14a.5.5,0,0,0,.5-.5.51.51,0,0,0-.15-.35l-26-47.46A.51.51,0,0,0,87.87,57.69ZM113.53,105H63.09L88.31,59Z"/><path class="a" d="M82.83,70.11a.48.48,0,0,0,0,.65,7.46,7.46,0,0,0,11,0,.48.48,0,0,0,0-.65,7.46,7.46,0,0,0-11,0Zm1,.32a6.18,6.18,0,0,1,2.89-1.53,2.16,2.16,0,0,0,0,3.07A6.2,6.2,0,0,1,83.88,70.43Zm8.85,0A6.12,6.12,0,0,1,89.85,72a2.16,2.16,0,0,0,0-3.07A6.1,6.1,0,0,1,92.73,70.43Zm-2.76,0a1.66,1.66,0,1,1-1.66-1.65A1.66,1.66,0,0,1,90,70.43Z"/><path class="a" d="M87.22,70.43a1.09,1.09,0,1,0,1.09-1.08A1.09,1.09,0,0,0,87.22,70.43Z"/><path class="a" d="M71.57,96.75A3.24,3.24,0,1,0,74.81,100,3.23,3.23,0,0,0,71.57,96.75Zm0,5.92a2.64,2.64,0,0,1-1.06-.22,2.69,2.69,0,0,0,0-4.93,2.64,2.64,0,0,1,1.06-.22,2.69,2.69,0,1,1,0,5.37Z"/><path class="a" d="M101.94,102.27a3.23,3.23,0,1,0,0-4.57A3.24,3.24,0,0,0,101.94,102.27Zm.39-4.18a2.69,2.69,0,0,1,3.8,0,2.65,2.65,0,0,1,.59.9,2.69,2.69,0,0,0-3.49,3.49,2.86,2.86,0,0,1-.9-.59A2.69,2.69,0,0,1,102.33,98.09Z"/></svg>