<svg xmlns="http://www.w3.org/2000/svg" viewBox="0 0 52.95 106.34"><title>01</title><polygon points="5.14 55.92 0 49.4 26.48 14.32 52.95 49.4 47.81 55.92 46.24 54.68 50.42 49.38 26.48 17.64 2.53 49.38 6.71 54.68 5.14 55.92"/><polygon points="26.48 82.15 5.54 55.61 6.32 54.99 26.48 80.54 46.63 54.99 47.42 55.61 26.48 82.15"/><path d="M26.48,17,22,8.71,26.48,0,31,8.71ZM23.12,8.7l3.36,6.22L29.83,8.7,26.48,2.18Z"/><polygon points="6.33 55.6 5.53 55 26.48 27.25 47.42 55 46.62 55.6 26.48 28.91 6.33 55.6"/><polygon points="26.48 95.05 0 61.5 5.13 54.7 6.73 55.91 2.53 61.47 26.48 91.82 50.42 61.47 46.22 55.9 47.82 54.7 52.95 61.5 26.48 95.05"/><path d="M30.91,23.17a.47.47,0,0,1-.31-.12.49.49,0,0,1-.07-.7l.32-.39a.49.49,0,0,1,.7-.06.5.5,0,0,1,.07.7L31.3,23A.5.5,0,0,1,30.91,23.17Z"/><path d="M27.82,26.93a.45.45,0,0,1-.31-.11.49.49,0,0,1-.07-.7l.51-.63a.5.5,0,0,1,.78.63l-.52.63A.5.5,0,0,1,27.82,26.93Zm1.55-1.88a.56.56,0,0,1-.32-.11.52.52,0,0,1-.07-.71l.52-.62a.5.5,0,1,1,.77.63l-.51.63A.51.51,0,0,1,29.37,25.05Z"/><path d="M26.48,28.86,25.77,28a.5.5,0,0,1,.71-.71.5.5,0,0,1,.63,0,.51.51,0,0,1,.07.71Z"/><path d="M25.13,26.93a.5.5,0,0,1-.39-.18l-.51-.63a.49.49,0,0,1,.07-.7.5.5,0,0,1,.7.07l.51.63a.49.49,0,0,1-.38.81Zm-1.55-1.88a.49.49,0,0,1-.38-.18l-.52-.63a.5.5,0,0,1,.07-.7.49.49,0,0,1,.7.07l.52.62a.52.52,0,0,1-.07.71A.54.54,0,0,1,23.58,25.05Z"/><path d="M22,23.17a.5.5,0,0,1-.39-.18l-.32-.39a.5.5,0,0,1,.78-.64l.31.39a.49.49,0,0,1-.07.7A.47.47,0,0,1,22,23.17Z"/><path d="M31.23,87.64a.49.49,0,0,1-.38-.19l-.32-.38a.5.5,0,0,1,.07-.71.5.5,0,0,1,.7.07l.32.39a.5.5,0,0,1-.07.7A.49.49,0,0,1,31.23,87.64Z"/><path d="M29.88,86a.49.49,0,0,1-.38-.18L29,85.18a.5.5,0,0,1,.78-.63l.51.63a.49.49,0,0,1-.07.7A.46.46,0,0,1,29.88,86Zm-1.54-1.88a.5.5,0,0,1-.39-.18l-.51-.63a.5.5,0,1,1,.77-.63l.52.62a.52.52,0,0,1-.07.71A.56.56,0,0,1,28.34,84.11Z"/><path d="M26.79,82.23a.51.51,0,0,1-.31-.11.53.53,0,0,1-.64,0,.52.52,0,0,1-.07-.71l.71-.85.7.85a.51.51,0,0,1-.07.71A.52.52,0,0,1,26.79,82.23Z"/><path d="M23.07,86a.48.48,0,0,1-.32-.11.5.5,0,0,1-.07-.7l.52-.63a.49.49,0,0,1,.7-.07.5.5,0,0,1,.07.7l-.52.63A.48.48,0,0,1,23.07,86Zm1.54-1.88A.51.51,0,0,1,24.3,84a.5.5,0,0,1-.07-.71l.51-.62a.5.5,0,1,1,.77.63l-.51.63A.5.5,0,0,1,24.61,84.11Z"/><path d="M21.72,87.64a.51.51,0,0,1-.32-.12.5.5,0,0,1-.07-.7l.32-.39a.5.5,0,0,1,.7-.07.5.5,0,0,1,.07.71l-.31.38A.52.52,0,0,1,21.72,87.64Z"/><path d="M28.15,98a1.68,1.68,0,1,0-1.67,1.68A1.67,1.67,0,0,0,28.15,98Z"/><path d="M27.73,102.15a1.26,1.26,0,1,0-1.25,1.26A1.25,1.25,0,0,0,27.73,102.15Z"/><path d="M27.31,105.5a.84.84,0,1,0-.83.84A.84.84,0,0,0,27.31,105.5Z"/></svg>