<svg xmlns="http://www.w3.org/2000/svg" viewBox="0 0 54.47 98.19"><title>02</title><polygon points="4.9 52.44 0 45.31 27.24 0 54.47 45.31 49.57 52.44 47.92 51.31 52.09 45.24 27.24 3.88 2.38 45.24 6.55 51.31 4.9 52.44"/><polygon points="27.24 84.04 5.31 52.16 6.14 51.59 27.24 82.28 48.33 51.59 49.16 52.16 27.24 84.04"/><polygon points="27.24 17.56 21.97 9.9 23.62 8.77 27.24 14.03 30.85 8.77 32.5 9.9 27.24 17.56"/><polygon points="27.24 71.07 4.93 38.63 5.76 38.07 27.24 69.3 48.71 38.07 49.54 38.63 27.24 71.07"/><path d="M27.24,98.19l-.7-1a.5.5,0,0,1,.13-.7.51.51,0,0,1,.57,0,.5.5,0,0,1,.69.7Z"/><path d="M25.79,95.71a.52.52,0,0,1-.41-.22l-.58-.84a.5.5,0,0,1,.13-.69.51.51,0,0,1,.7.12l.58.85a.5.5,0,0,1-.13.69A.52.52,0,0,1,25.79,95.71Zm-1.73-2.53a.51.51,0,0,1-.42-.21l-.57-.85a.5.5,0,0,1,.12-.69.5.5,0,0,1,.7.13l.58.84a.5.5,0,0,1-.41.78Zm-1.74-2.52a.49.49,0,0,1-.41-.22l-.58-.84a.5.5,0,0,1,.13-.7.49.49,0,0,1,.69.13l.58.84a.5.5,0,0,1-.13.7A.47.47,0,0,1,22.32,90.66Zm-1.74-2.53a.5.5,0,0,1-.41-.22l-.58-.84a.51.51,0,0,1,.13-.7.52.52,0,0,1,.7.13l.57.85a.5.5,0,0,1-.12.69A.52.52,0,0,1,20.58,88.13ZM18.85,85.6a.5.5,0,0,1-.42-.22l-.58-.84a.5.5,0,0,1,.83-.56l.58.84a.5.5,0,0,1-.13.69A.51.51,0,0,1,18.85,85.6Zm-1.74-2.53a.48.48,0,0,1-.41-.21L16.12,82a.5.5,0,0,1,.13-.7.49.49,0,0,1,.69.13l.58.84a.5.5,0,0,1-.13.7A.48.48,0,0,1,17.11,83.07Zm-1.74-2.52a.5.5,0,0,1-.41-.22l-.58-.84a.5.5,0,1,1,.82-.57l.58.84a.5.5,0,0,1-.13.7A.47.47,0,0,1,15.37,80.55ZM13.63,78a.5.5,0,0,1-.41-.22L12.64,77a.5.5,0,0,1,.83-.56l.58.84a.51.51,0,0,1-.13.69A.52.52,0,0,1,13.63,78ZM11.9,75.49a.51.51,0,0,1-.42-.21l-.58-.85a.51.51,0,0,1,.13-.69.5.5,0,0,1,.7.13l.58.84a.51.51,0,0,1-.13.7A.5.5,0,0,1,11.9,75.49ZM10.16,73a.49.49,0,0,1-.41-.22l-.58-.84a.5.5,0,1,1,.82-.57l.58.84a.5.5,0,0,1-.13.7A.49.49,0,0,1,10.16,73ZM8.42,70.44A.5.5,0,0,1,8,70.22l-.58-.84a.49.49,0,0,1,.13-.69.49.49,0,0,1,.69.12l.58.85a.49.49,0,0,1-.13.69A.47.47,0,0,1,8.42,70.44ZM6.68,67.91a.49.49,0,0,1-.41-.21l-.58-.85a.5.5,0,0,1,.83-.56l.58.84a.52.52,0,0,1-.13.7A.6.6,0,0,1,6.68,67.91ZM5,65.39a.52.52,0,0,1-.42-.22L4,64.33a.5.5,0,1,1,.82-.57l.58.84a.51.51,0,0,1-.41.79ZM3.21,62.86a.49.49,0,0,1-.41-.22l-.58-.84a.5.5,0,0,1,.13-.7.51.51,0,0,1,.69.13l.58.85a.49.49,0,0,1-.13.69A.47.47,0,0,1,3.21,62.86Z"/><path d="M1.47,60.33a.49.49,0,0,1-.41-.21l-.47-.68L1,58.73a.5.5,0,0,1,.68-.17.5.5,0,0,1,.17.69l-.09.15.1.15a.49.49,0,0,1-.13.69A.47.47,0,0,1,1.47,60.33Z"/><path d="M2.47,57.79a.48.48,0,0,1-.26-.07A.5.5,0,0,1,2,57l.51-.85a.5.5,0,1,1,.86.52l-.51.85A.5.5,0,0,1,2.47,57.79ZM4,55.24a.48.48,0,0,1-.26-.07.49.49,0,0,1-.17-.68l.51-.85a.49.49,0,0,1,.69-.17.5.5,0,0,1,.17.68L4.43,55A.5.5,0,0,1,4,55.24ZM5.53,52.7a.5.5,0,0,1-.26-.08.5.5,0,0,1-.17-.68l.51-.85a.5.5,0,0,1,.86.51L6,52.45A.5.5,0,0,1,5.53,52.7Zm1.53-2.55a.55.55,0,0,1-.25-.07.51.51,0,0,1-.18-.69l.51-.85a.5.5,0,1,1,.86.52l-.51.84A.5.5,0,0,1,7.06,50.15ZM8.59,47.6a.47.47,0,0,1-.25-.07.49.49,0,0,1-.17-.69L8.68,46a.5.5,0,1,1,.85.52L9,47.36A.51.51,0,0,1,8.59,47.6Zm1.54-2.55A.48.48,0,0,1,9.87,45a.5.5,0,0,1-.17-.69l.51-.85a.5.5,0,0,1,.86.52l-.51.85A.52.52,0,0,1,10.13,45.05Zm1.53-2.55a.48.48,0,0,1-.26-.07.5.5,0,0,1-.17-.69l.51-.85a.5.5,0,0,1,.86.52l-.51.85A.52.52,0,0,1,11.66,42.5ZM13.19,40a.48.48,0,0,1-.26-.07.5.5,0,0,1-.17-.68l.51-.85a.5.5,0,1,1,.86.51l-.51.85A.49.49,0,0,1,13.19,40Zm1.53-2.55a.51.51,0,0,1-.26-.07.5.5,0,0,1-.17-.68l.52-.85a.48.48,0,0,1,.68-.17.49.49,0,0,1,.17.68l-.51.85A.49.49,0,0,1,14.72,37.4Zm1.53-2.54a.49.49,0,0,1-.25-.08.48.48,0,0,1-.17-.68l.51-.85a.49.49,0,0,1,.68-.17.48.48,0,0,1,.17.68l-.51.85A.5.5,0,0,1,16.25,34.86Zm1.54-2.55a.59.59,0,0,1-.26-.07.5.5,0,0,1-.17-.69l.51-.85a.5.5,0,0,1,.69-.17.51.51,0,0,1,.17.69l-.51.85A.52.52,0,0,1,17.79,32.31Zm1.53-2.55a.48.48,0,0,1-.26-.07.5.5,0,0,1-.17-.69l.51-.85a.5.5,0,0,1,.69-.17.51.51,0,0,1,.17.69l-.51.85A.52.52,0,0,1,19.32,29.76Zm1.53-2.55a.48.48,0,0,1-.26-.07.51.51,0,0,1-.17-.69l.51-.85a.51.51,0,0,1,.69-.17.5.5,0,0,1,.17.69l-.51.85A.51.51,0,0,1,20.85,27.21Zm1.53-2.55A.5.5,0,0,1,22,23.9l.51-.85a.51.51,0,0,1,.69-.17.5.5,0,0,1,.17.69l-.51.85A.49.49,0,0,1,22.38,24.66Zm1.53-2.55a.47.47,0,0,1-.25-.07.48.48,0,0,1-.17-.68l.51-.85a.5.5,0,1,1,.85.51l-.51.85A.49.49,0,0,1,23.91,22.11Zm1.54-2.55a.48.48,0,0,1-.26-.07.49.49,0,0,1-.17-.68l.51-.85a.48.48,0,0,1,.68-.17.5.5,0,0,1,.18.68l-.52.85A.47.47,0,0,1,25.45,19.56Z"/><path d="M27.49,17a.52.52,0,0,1-.25-.07.53.53,0,0,1-.52,0,.5.5,0,0,1-.17-.69l.69-1.14.68,1.14a.5.5,0,0,1-.17.69A.59.59,0,0,1,27.49,17Z"/><path d="M52,57.79a.5.5,0,0,1-.43-.24l-.51-.85a.5.5,0,1,1,.86-.52l.51.85a.5.5,0,0,1-.17.69A.48.48,0,0,1,52,57.79Zm-1.53-2.55A.5.5,0,0,1,50,55l-.51-.85a.5.5,0,0,1,.17-.68.49.49,0,0,1,.69.17l.51.85a.49.49,0,0,1-.17.68A.48.48,0,0,1,50.47,55.24ZM48.94,52.7a.5.5,0,0,1-.43-.25L48,51.6a.5.5,0,0,1,.17-.68.49.49,0,0,1,.69.17l.51.85a.5.5,0,0,1-.17.68A.5.5,0,0,1,48.94,52.7Zm-1.53-2.55A.5.5,0,0,1,47,49.9l-.51-.84a.5.5,0,1,1,.86-.52l.51.85a.51.51,0,0,1-.17.69A.63.63,0,0,1,47.41,50.15ZM45.88,47.6a.51.51,0,0,1-.43-.24l-.51-.85a.5.5,0,1,1,.85-.52l.51.85a.5.5,0,0,1-.17.69A.47.47,0,0,1,45.88,47.6Zm-1.54-2.55a.49.49,0,0,1-.42-.24L43.4,44a.5.5,0,0,1,.86-.52l.51.85a.5.5,0,0,1-.17.69A.48.48,0,0,1,44.34,45.05ZM42.81,42.5a.52.52,0,0,1-.43-.24l-.51-.85a.5.5,0,0,1,.86-.52l.51.85a.5.5,0,0,1-.17.69A.48.48,0,0,1,42.81,42.5ZM41.28,40a.5.5,0,0,1-.43-.24l-.51-.85a.5.5,0,0,1,.86-.51l.51.84a.51.51,0,0,1-.17.69A.48.48,0,0,1,41.28,40ZM39.75,37.4a.49.49,0,0,1-.43-.24l-.51-.85a.5.5,0,0,1,.86-.51l.51.85a.5.5,0,0,1-.17.68A.48.48,0,0,1,39.75,37.4Zm-1.53-2.54a.5.5,0,0,1-.43-.25l-.51-.85a.5.5,0,1,1,.85-.51l.51.85a.48.48,0,0,1-.17.68A.49.49,0,0,1,38.22,34.86Zm-1.53-2.55a.5.5,0,0,1-.43-.25l-.51-.84a.5.5,0,1,1,.85-.52l.51.85a.5.5,0,0,1-.17.69A.59.59,0,0,1,36.69,32.31Zm-1.54-2.55a.52.52,0,0,1-.43-.24l-.51-.85a.51.51,0,0,1,.17-.69.5.5,0,0,1,.69.17l.51.85a.5.5,0,0,1-.17.69A.48.48,0,0,1,35.15,29.76Zm-1.53-2.55a.52.52,0,0,1-.43-.24l-.51-.85a.5.5,0,0,1,.86-.52l.51.85a.5.5,0,0,1-.17.69A.48.48,0,0,1,33.62,27.21Zm-1.53-2.55a.49.49,0,0,1-.43-.24l-.51-.85a.5.5,0,1,1,.86-.51l.51.84a.51.51,0,0,1-.17.69A.48.48,0,0,1,32.09,24.66Zm-1.53-2.55a.49.49,0,0,1-.43-.24L29.62,21a.5.5,0,0,1,.17-.69.51.51,0,0,1,.69.18l.51.85a.5.5,0,0,1-.18.68A.45.45,0,0,1,30.56,22.11ZM29,19.56a.49.49,0,0,1-.43-.24l-.51-.85a.5.5,0,1,1,.85-.51l.51.85a.48.48,0,0,1-.17.68A.47.47,0,0,1,29,19.56Z"/><path d="M53,60.33a.47.47,0,0,1-.28-.09.49.49,0,0,1-.13-.69l.1-.15-.09-.15a.5.5,0,0,1,.17-.69.5.5,0,0,1,.68.17l.43.71-.47.68A.49.49,0,0,1,53,60.33Z"/><path d="M28.68,95.71a.52.52,0,0,1-.29-.09.5.5,0,0,1-.12-.69l.57-.85a.51.51,0,0,1,.7-.12.5.5,0,0,1,.13.69l-.58.84A.5.5,0,0,1,28.68,95.71Zm1.73-2.53a.51.51,0,0,1-.28-.09A.5.5,0,0,1,30,92.4l.58-.84a.5.5,0,0,1,.7-.13.51.51,0,0,1,.13.69l-.58.85A.51.51,0,0,1,30.41,93.18Zm1.74-2.52a.49.49,0,0,1-.28-.09.5.5,0,0,1-.13-.7l.58-.84A.49.49,0,0,1,33,88.9a.5.5,0,0,1,.13.7l-.58.84A.49.49,0,0,1,32.15,90.66Zm1.74-2.53a.47.47,0,0,1-.28-.09.49.49,0,0,1-.13-.69l.58-.85a.51.51,0,0,1,.69-.13.5.5,0,0,1,.13.7l-.58.84A.5.5,0,0,1,33.89,88.13Zm1.74-2.53a.52.52,0,0,1-.29-.09.51.51,0,0,1-.13-.69l.58-.84a.5.5,0,0,1,.83.56l-.58.84A.48.48,0,0,1,35.63,85.6Zm1.73-2.53a.5.5,0,0,1-.28-.08.51.51,0,0,1-.13-.7l.58-.84a.5.5,0,0,1,.7-.13.51.51,0,0,1,.12.7l-.57.84A.51.51,0,0,1,37.36,83.07Zm1.74-2.52a.47.47,0,0,1-.28-.09.5.5,0,0,1-.13-.7l.58-.84a.51.51,0,0,1,.69-.13.5.5,0,0,1,.13.7l-.58.84A.49.49,0,0,1,39.1,80.55ZM40.84,78a.52.52,0,0,1-.29-.09.5.5,0,0,1-.12-.69L41,76.4a.5.5,0,0,1,.7-.13.49.49,0,0,1,.13.69l-.58.84A.5.5,0,0,1,40.84,78Zm1.73-2.53a.5.5,0,0,1-.28-.08.51.51,0,0,1-.13-.7l.58-.84a.5.5,0,0,1,.83.56l-.58.85A.51.51,0,0,1,42.57,75.49ZM44.31,73a.49.49,0,0,1-.28-.09.5.5,0,0,1-.13-.7l.58-.84a.5.5,0,1,1,.82.57l-.58.84A.49.49,0,0,1,44.31,73Zm1.74-2.53a.47.47,0,0,1-.28-.09.49.49,0,0,1-.13-.69l.58-.85a.5.5,0,0,1,.69-.12.49.49,0,0,1,.13.69l-.58.84A.5.5,0,0,1,46.05,70.44Zm1.74-2.53a.6.6,0,0,1-.29-.08.52.52,0,0,1-.13-.7l.58-.84a.5.5,0,0,1,.83.56l-.58.85A.49.49,0,0,1,47.79,67.91Zm1.73-2.52a.51.51,0,0,1-.41-.79l.58-.84a.51.51,0,0,1,.7-.13.52.52,0,0,1,.13.7l-.58.84A.52.52,0,0,1,49.52,65.39Zm1.74-2.53a.47.47,0,0,1-.28-.09.49.49,0,0,1-.13-.69l.58-.85a.51.51,0,0,1,.69-.13.5.5,0,0,1,.13.7l-.58.84A.49.49,0,0,1,51.26,62.86Z"/></svg>