<svg xmlns="http://www.w3.org/2000/svg" viewBox="0 0 70.82 92.24"><title>04</title><path d="M1.08,46.62a.47.47,0,0,1-.3-.1.5.5,0,0,1-.1-.7L35.41,0,70.14,45.82a.5.5,0,0,1-.1.7.51.51,0,0,1-.7-.1L35.41,1.66,1.48,46.42A.51.51,0,0,1,1.08,46.62Z"/><path d="M44.93,26.18a.49.49,0,0,1-.46-.32l-9.06-23-9.06,23a.5.5,0,0,1-.65.28.51.51,0,0,1-.28-.65l10-25.4,10,25.4a.51.51,0,0,1-.28.65A.65.65,0,0,1,44.93,26.18Z"/><path d="M35.41,18.17a.5.5,0,0,1-.5-.5v-1a.5.5,0,0,1,1,0v1A.5.5,0,0,1,35.41,18.17Zm0-3a.5.5,0,0,1-.5-.5v-1a.5.5,0,0,1,1,0v1A.5.5,0,0,1,35.41,15.17Zm0-3a.5.5,0,0,1-.5-.5v-1a.5.5,0,0,1,1,0v1A.5.5,0,0,1,35.41,12.17Zm0-3a.5.5,0,0,1-.5-.5v-1a.5.5,0,0,1,1,0v1A.5.5,0,0,1,35.41,9.17Zm0-3a.5.5,0,0,1-.5-.5v-1a.5.5,0,0,1,1,0v1A.5.5,0,0,1,35.41,6.17Zm0-3a.5.5,0,0,1-.5-.5v-1a.5.5,0,0,1,1,0v1A.5.5,0,0,1,35.41,3.17Z"/><path d="M44.93,67.06a.57.57,0,0,1-.18,0,.5.5,0,0,1-.28-.65l.18-.46a.5.5,0,1,1,.93.36l-.18.47A.51.51,0,0,1,44.93,67.06Z"/><path d="M45.83,64.78a.57.57,0,0,1-.18,0,.49.49,0,0,1-.28-.65l.35-.91a.5.5,0,0,1,.65-.28.5.5,0,0,1,.28.65l-.35.9A.51.51,0,0,1,45.83,64.78Zm1.07-2.72a.39.39,0,0,1-.18,0,.49.49,0,0,1-.28-.64l.35-.91a.51.51,0,0,1,.65-.29.49.49,0,0,1,.28.65l-.35.91A.51.51,0,0,1,46.9,62.06ZM48,59.33a.57.57,0,0,1-.18,0,.5.5,0,0,1-.28-.65l.35-.91a.51.51,0,0,1,.94.37l-.36.91A.51.51,0,0,1,48,59.33ZM49,56.61a.39.39,0,0,1-.18,0,.49.49,0,0,1-.28-.64l.36-.91a.49.49,0,0,1,.64-.28.5.5,0,0,1,.29.64l-.36.91A.51.51,0,0,1,49,56.61Zm1.08-2.73a.58.58,0,0,1-.19,0,.5.5,0,0,1-.28-.65l.36-.91a.5.5,0,0,1,.93.37l-.36.91A.51.51,0,0,1,50.12,53.88Zm1.07-2.72a.58.58,0,0,1-.19,0,.51.51,0,0,1-.28-.65l.36-.91a.5.5,0,0,1,.93.36l-.36.91A.49.49,0,0,1,51.19,51.16Zm1.07-2.72a.65.65,0,0,1-.19,0,.51.51,0,0,1-.28-.65l.36-.91a.51.51,0,0,1,.65-.28.5.5,0,0,1,.28.65l-.36.91A.48.48,0,0,1,52.26,48.44Zm.35-2.73a.49.49,0,0,1-.46-.32l-.36-.9a.5.5,0,0,1,.29-.65.49.49,0,0,1,.64.28l.36.91a.51.51,0,0,1-.28.65A.63.63,0,0,1,52.61,45.71ZM51.54,43a.49.49,0,0,1-.46-.32l-.36-.91a.5.5,0,1,1,.93-.36l.36.9a.51.51,0,0,1-.28.65A.43.43,0,0,1,51.54,43Zm-1.07-2.73A.49.49,0,0,1,50,40L49.65,39a.5.5,0,1,1,.93-.37l.36.91a.51.51,0,0,1-.28.65A.63.63,0,0,1,50.47,40.26ZM49.4,37.54a.48.48,0,0,1-.46-.32l-.36-.91a.5.5,0,1,1,.93-.36l.36.9a.5.5,0,0,1-.29.65A.39.39,0,0,1,49.4,37.54Zm-1.07-2.73a.49.49,0,0,1-.46-.31l-.36-.91a.5.5,0,0,1,.28-.65.51.51,0,0,1,.65.28l.35.91a.49.49,0,0,1-.28.65Zm-1.07-2.72a.51.51,0,0,1-.47-.32l-.35-.91a.48.48,0,0,1,.28-.64.5.5,0,0,1,.65.28l.35.91a.48.48,0,0,1-.28.64A.39.39,0,0,1,47.26,32.09Zm-1.07-2.72a.51.51,0,0,1-.47-.32l-.35-.91a.49.49,0,0,1,.28-.65.5.5,0,0,1,.64.28l.36.91a.5.5,0,0,1-.28.65A.58.58,0,0,1,46.19,29.37Z"/><path d="M45.12,26.64a.51.51,0,0,1-.47-.32l-.18-.46a.5.5,0,0,1,.28-.65.51.51,0,0,1,.65.28l.18.47a.5.5,0,0,1-.28.65A.57.57,0,0,1,45.12,26.64Z"/><path d="M35.41,92.24.68,46.42a.5.5,0,0,1,.1-.7.51.51,0,0,1,.7.1L35.41,90.58,69.34,45.82a.51.51,0,0,1,.7-.1.5.5,0,0,1,.1.7Z"/><path d="M35.41,75.88,0,46.12,35.41,16.36,70.82,46.12ZM3.11,46.12l32.3,27.14,32.3-27.14L35.41,19Z"/><path d="M25.89,67.06a.51.51,0,0,1-.47-.31l-.18-.47a.5.5,0,1,1,.93-.36l.18.46a.5.5,0,0,1-.28.65A.57.57,0,0,1,25.89,67.06Z"/><path d="M25,64.78a.51.51,0,0,1-.47-.32l-.35-.9a.5.5,0,1,1,.93-.37l.35.91a.49.49,0,0,1-.28.65A.57.57,0,0,1,25,64.78Zm-1.07-2.72a.51.51,0,0,1-.47-.32l-.35-.91a.5.5,0,0,1,.28-.65.51.51,0,0,1,.65.29l.35.9a.5.5,0,0,1-.28.65A.39.39,0,0,1,23.92,62.06Zm-1.07-2.73a.51.51,0,0,1-.47-.31L22,58.11a.51.51,0,0,1,.94-.37l.35.91a.5.5,0,0,1-.28.65A.57.57,0,0,1,22.85,59.33Zm-1.08-2.72a.5.5,0,0,1-.46-.32L21,55.38a.5.5,0,0,1,.93-.36l.36.91a.5.5,0,0,1-.28.64A.41.41,0,0,1,21.77,56.61ZM20.7,53.88a.5.5,0,0,1-.46-.31l-.36-.91a.5.5,0,0,1,.93-.37l.36.91a.51.51,0,0,1-.28.65A.63.63,0,0,1,20.7,53.88Zm-1.07-2.72a.48.48,0,0,1-.46-.32l-.36-.91a.49.49,0,0,1,.28-.64.5.5,0,0,1,.65.28l.36.91a.51.51,0,0,1-.28.65Zm-1.07-2.72a.51.51,0,0,1-.47-.32l-.35-.91a.5.5,0,0,1,.28-.65.51.51,0,0,1,.65.28l.36.91a.5.5,0,0,1-.29.65A.58.58,0,0,1,18.56,48.44Zm-.36-2.73a.57.57,0,0,1-.18,0,.5.5,0,0,1-.28-.65l.36-.91a.49.49,0,0,1,.64-.28.5.5,0,0,1,.29.65l-.36.9A.51.51,0,0,1,18.2,45.71ZM19.27,43a.39.39,0,0,1-.18,0,.5.5,0,0,1-.28-.65l.36-.9a.5.5,0,0,1,.65-.29.51.51,0,0,1,.28.65l-.36.91A.51.51,0,0,1,19.27,43Zm1.08-2.73a.58.58,0,0,1-.19,0,.51.51,0,0,1-.28-.65l.36-.91a.5.5,0,0,1,.65-.28.51.51,0,0,1,.28.65l-.36.91A.51.51,0,0,1,20.35,40.26Zm1.07-2.72a.37.37,0,0,1-.18,0,.5.5,0,0,1-.29-.64l.36-.91a.5.5,0,0,1,.65-.29.51.51,0,0,1,.28.65l-.36.91A.48.48,0,0,1,21.42,37.54Zm1.07-2.73-.18,0a.5.5,0,0,1-.29-.65l.36-.91a.51.51,0,0,1,.65-.28.5.5,0,0,1,.28.65L23,34.5A.49.49,0,0,1,22.49,34.81Zm1.07-2.72-.18,0a.5.5,0,0,1-.28-.65l.35-.91a.5.5,0,0,1,.65-.28.49.49,0,0,1,.28.64l-.35.91A.51.51,0,0,1,23.56,32.09Zm1.07-2.72a.58.58,0,0,1-.18,0,.5.5,0,0,1-.28-.65l.35-.91a.51.51,0,0,1,.65-.28.5.5,0,0,1,.29.65l-.36.91A.51.51,0,0,1,24.63,29.37Z"/><path d="M25.7,26.64a.57.57,0,0,1-.18,0,.5.5,0,0,1-.28-.65l.18-.47a.51.51,0,0,1,.65-.28.5.5,0,0,1,.28.65l-.18.46A.51.51,0,0,1,25.7,26.64Z"/><path d="M35.41,92.15l-10-25.4a.51.51,0,0,1,.28-.65.5.5,0,0,1,.65.28l9.06,23,9.06-23a.5.5,0,0,1,.65-.28.51.51,0,0,1,.28.65Z"/><path d="M35.41,91.07a.5.5,0,0,1-.5-.5v-1a.5.5,0,0,1,1,0v1A.5.5,0,0,1,35.41,91.07Zm0-3a.5.5,0,0,1-.5-.5v-1a.5.5,0,0,1,1,0v1A.5.5,0,0,1,35.41,88.07Zm0-3a.5.5,0,0,1-.5-.5v-1a.5.5,0,0,1,1,0v1A.5.5,0,0,1,35.41,85.07Zm0-3a.5.5,0,0,1-.5-.5v-1a.5.5,0,0,1,1,0v1A.5.5,0,0,1,35.41,82.07Zm0-3a.5.5,0,0,1-.5-.5v-1a.5.5,0,0,1,1,0v1A.5.5,0,0,1,35.41,79.07Zm0-3a.5.5,0,0,1-.5-.5v-1a.5.5,0,0,1,1,0v1A.5.5,0,0,1,35.41,76.07Z"/><path d="M69,46.62H68a.5.5,0,0,1,0-1h1a.5.5,0,0,1,0,1Zm-3,0H65a.5.5,0,0,1,0-1h1a.5.5,0,0,1,0,1Zm-3,0H62a.5.5,0,0,1,0-1h1a.5.5,0,0,1,0,1Zm-3,0H59a.5.5,0,0,1,0-1h1a.5.5,0,0,1,0,1Zm-3,0H56a.5.5,0,0,1,0-1h1a.5.5,0,0,1,0,1Zm-3,0H53a.5.5,0,0,1,0-1h1a.5.5,0,0,1,0,1Z"/><path d="M17.85,46.62h-1a.5.5,0,0,1,0-1h1a.5.5,0,0,1,0,1Zm-3,0h-1a.5.5,0,0,1,0-1h1a.5.5,0,1,1,0,1Zm-3,0h-1a.5.5,0,0,1,0-1h1a.5.5,0,1,1,0,1Zm-3,0h-1a.5.5,0,0,1,0-1h1a.5.5,0,1,1,0,1Zm-3,0h-1a.5.5,0,0,1,0-1h1a.5.5,0,1,1,0,1Zm-3,0h-1a.5.5,0,0,1,0-1h1a.5.5,0,1,1,0,1Z"/></svg>