<svg xmlns="http://www.w3.org/2000/svg" viewBox="0 0 85.11 80.78"><title>06</title><polygon points="85.11 51.73 72.44 51.73 42.56 1.94 12.68 51.73 0 51.73 0 50.73 12.11 50.73 42.56 0 73 50.73 85.11 50.73 85.11 51.73"/><polygon points="79.33 63.47 72.15 63.47 42.56 14.16 12.96 63.47 5.78 63.47 5.78 61.47 11.83 61.47 42.56 10.27 73.28 61.47 79.33 61.47 79.33 63.47"/><path d="M66.24,63.35H18.88L42.56,23.9Zm-45.6-1H64.47L42.56,25.84Z"/><polygon points="62.43 70.56 22.68 70.56 27.61 62.34 29.33 63.37 26.21 68.56 58.9 68.56 55.78 63.37 57.5 62.34 62.43 70.56"/><path d="M28.47,63.35a.48.48,0,0,1-.26-.07A.5.5,0,0,1,28,62.6l.26-.43A.49.49,0,0,1,29,62a.5.5,0,0,1,.17.68l-.26.43A.49.49,0,0,1,28.47,63.35Z"/><path d="M29.77,61.19a.52.52,0,0,1-.26-.08.5.5,0,0,1-.17-.68l.53-.87a.5.5,0,1,1,.85.51l-.52.87A.5.5,0,0,1,29.77,61.19Zm1.57-2.61a.5.5,0,0,1-.26-.08.49.49,0,0,1-.17-.68l.52-.87a.5.5,0,0,1,.86.51l-.52.87A.51.51,0,0,1,31.34,58.58ZM32.9,56a.59.59,0,0,1-.25-.07.5.5,0,0,1-.17-.69l.52-.87a.49.49,0,0,1,.68-.17.48.48,0,0,1,.17.68l-.52.87A.5.5,0,0,1,32.9,56Zm1.57-2.61a.48.48,0,0,1-.26-.07A.51.51,0,0,1,34,52.6l.52-.87a.5.5,0,0,1,.86.52l-.52.87A.52.52,0,0,1,34.47,53.36ZM36,50.75a.48.48,0,0,1-.26-.07.49.49,0,0,1-.17-.69l.52-.87a.5.5,0,0,1,.86.52l-.53.87A.49.49,0,0,1,36,50.75Zm1.56-2.61a.48.48,0,0,1-.26-.07.51.51,0,0,1-.17-.69l.52-.87a.51.51,0,0,1,.69-.17.5.5,0,0,1,.17.69L38,47.9A.51.51,0,0,1,37.6,48.14Zm1.57-2.61a.48.48,0,0,1-.26-.07.5.5,0,0,1-.17-.69l.52-.87a.5.5,0,1,1,.86.52l-.52.87A.52.52,0,0,1,39.17,45.53Zm1.56-2.61a.47.47,0,0,1-.25-.07.5.5,0,0,1-.18-.68l.53-.87a.5.5,0,1,1,.85.51l-.52.87A.49.49,0,0,1,40.73,42.92Z"/><path d="M42.81,40.31a.43.43,0,0,1-.25-.07.51.51,0,0,1-.52,0,.5.5,0,0,1-.17-.68l.69-1.15.68,1.15a.49.49,0,0,1-.17.68A.48.48,0,0,1,42.81,40.31Z"/><path d="M55.34,61.19a.51.51,0,0,1-.43-.25l-.52-.87a.49.49,0,0,1,.17-.68.5.5,0,0,1,.69.17l.52.87a.5.5,0,0,1-.17.68A.5.5,0,0,1,55.34,61.19Zm-1.57-2.61a.48.48,0,0,1-.42-.25l-.53-.87a.5.5,0,0,1,.86-.51l.52.87a.48.48,0,0,1-.17.68A.5.5,0,0,1,53.77,58.58ZM52.21,56a.5.5,0,0,1-.43-.25l-.52-.87a.49.49,0,0,1,.17-.68.5.5,0,0,1,.69.17l.52.87a.51.51,0,0,1-.17.69A.59.59,0,0,1,52.21,56Zm-1.57-2.61a.52.52,0,0,1-.43-.24l-.52-.87a.51.51,0,0,1,.17-.69.5.5,0,0,1,.69.17l.52.87a.5.5,0,0,1-.17.69A.48.48,0,0,1,50.64,53.36Zm-1.56-2.61a.51.51,0,0,1-.43-.24l-.52-.87A.49.49,0,0,1,48.3,49a.5.5,0,0,1,.68.17l.53.87a.51.51,0,0,1-.18.69A.45.45,0,0,1,49.08,50.75Zm-1.57-2.61a.52.52,0,0,1-.43-.24L46.56,47a.5.5,0,0,1,.86-.52l.52.87a.5.5,0,0,1-.17.69A.48.48,0,0,1,47.51,48.14ZM46,45.53a.51.51,0,0,1-.43-.24L45,44.42a.5.5,0,0,1,.17-.69.5.5,0,0,1,.68.17l.52.87a.49.49,0,0,1-.17.69A.47.47,0,0,1,46,45.53Zm-1.57-2.61a.49.49,0,0,1-.43-.24l-.52-.87a.5.5,0,1,1,.86-.51l.52.87a.5.5,0,0,1-.17.68A.48.48,0,0,1,44.38,42.92Z"/><path d="M56.64,63.35a.5.5,0,0,1-.43-.24L56,62.68a.5.5,0,0,1,.85-.51l.26.43a.49.49,0,0,1-.17.68A.48.48,0,0,1,56.64,63.35Z"/><path d="M45.83,77.5a3.28,3.28,0,1,1-3.27-3.27A3.27,3.27,0,0,1,45.83,77.5Z"/></svg>