<svg xmlns="http://www.w3.org/2000/svg" viewBox="0 0 73.59 83.09"><title>08</title><rect x="49.43" y="67.79" width="12.87" height="1"/><polygon points="73.03 69.29 62.18 69.29 36.8 20.94 11.41 69.29 0.56 69.29 0.56 67.29 10.2 67.29 36.8 16.64 63.39 67.29 73.03 67.29 73.03 69.29"/><polygon points="72.59 68.52 36.8 2.11 1 68.52 0.12 68.05 36.8 0 73.47 68.05 72.59 68.52"/><polygon points="36.8 80.32 23.28 69.05 24.56 67.52 36.8 77.71 49.03 67.52 50.31 69.05 36.8 80.32"/><rect x="11.29" y="67.79" width="12.87" height="1"/><path d="M6.48,57.8a.52.52,0,0,1-.42-.22l-.27-.43a.5.5,0,0,1,.84-.54L6.9,57a.51.51,0,0,1-.14.7A.57.57,0,0,1,6.48,57.8Z"/><path d="M5.17,55.67a.49.49,0,0,1-.43-.26c-.17-.29-.33-.59-.49-.89a.49.49,0,0,1,.21-.67.49.49,0,0,1,.67.2c.16.3.32.58.48.87a.5.5,0,0,1-.19.68A.45.45,0,0,1,5.17,55.67Zm63.29-.08a.5.5,0,0,1-.24-.06.51.51,0,0,1-.2-.68c.17-.29.32-.58.48-.87a.49.49,0,0,1,.67-.21.5.5,0,0,1,.21.68l-.48.89A.5.5,0,0,1,68.46,55.59ZM3.8,53a.48.48,0,0,1-.45-.29c-.14-.3-.28-.61-.41-.93a.5.5,0,0,1,.26-.65.5.5,0,0,1,.66.26c.13.31.26.61.4.9A.51.51,0,0,1,4,53,.52.52,0,0,1,3.8,53Zm66-.08a.45.45,0,0,1-.2,0,.5.5,0,0,1-.25-.66c.14-.3.27-.6.4-.91a.5.5,0,0,1,.92.39c-.13.32-.27.63-.41.93A.49.49,0,0,1,69.82,52.91ZM2.66,50.22a.51.51,0,0,1-.47-.33l-.33-1a.49.49,0,0,1,.31-.63.5.5,0,0,1,.64.31c.1.32.21.63.32.94a.5.5,0,0,1-.3.64A.47.47,0,0,1,2.66,50.22ZM71,50.13a.51.51,0,0,1-.17,0,.5.5,0,0,1-.3-.64c.11-.31.22-.62.32-.93a.5.5,0,0,1,.63-.32.49.49,0,0,1,.32.63c-.1.32-.22.64-.33,1A.48.48,0,0,1,71,50.13ZM1.76,47.35A.5.5,0,0,1,1.27,47c-.09-.32-.17-.65-.25-1a.5.5,0,0,1,.37-.6.48.48,0,0,1,.6.37c.08.32.16.63.25.95a.52.52,0,0,1-.35.62Zm70.1-.08-.13,0a.49.49,0,0,1-.35-.61l.24-1a.49.49,0,0,1,.6-.37.5.5,0,0,1,.37.6c-.08.33-.16.66-.25,1A.5.5,0,0,1,71.86,47.27ZM1.09,44.42A.5.5,0,0,1,.6,44c-.06-.33-.12-.66-.17-1a.51.51,0,0,1,.42-.57.5.5,0,0,1,.57.42c.05.33.11.65.16,1a.5.5,0,0,1-.4.59Zm71.42-.09h-.09a.49.49,0,0,1-.4-.58c.06-.32.11-.64.16-1a.51.51,0,0,1,.57-.42.5.5,0,0,1,.42.57c0,.34-.1.67-.16,1A.51.51,0,0,1,72.51,44.33ZM.67,41.45A.49.49,0,0,1,.18,41L.09,40a.5.5,0,0,1,.47-.54.52.52,0,0,1,.53.47c0,.33,0,.66.08,1a.5.5,0,0,1-.45.55Zm72.25-.09h0a.49.49,0,0,1-.45-.54c0-.33,0-.66.08-1a.54.54,0,0,1,.53-.46.5.5,0,0,1,.46.53c0,.34,0,.68-.08,1A.5.5,0,0,1,72.92,41.36ZM.5,38.45A.51.51,0,0,1,0,38V37a.5.5,0,0,1,.5-.5h0A.5.5,0,0,1,1,37v1a.49.49,0,0,1-.49.5Zm72.59-.09h0a.5.5,0,0,1-.49-.51v-1a.5.5,0,0,1,.49-.51h0a.51.51,0,0,1,.5.5v1A.51.51,0,0,1,73.09,38.36ZM.58,35.45h0a.5.5,0,0,1-.47-.53c0-.34.05-.68.08-1a.48.48,0,0,1,.54-.45.5.5,0,0,1,.46.54c0,.33-.06.65-.08,1A.5.5,0,0,1,.58,35.45ZM73,35.35a.5.5,0,0,1-.5-.46c0-.33-.05-.66-.08-1a.5.5,0,0,1,1-.09l.09,1a.5.5,0,0,1-.47.53ZM.9,32.47H.82a.5.5,0,0,1-.42-.57c0-.33.11-.67.17-1a.5.5,0,1,1,1,.17c-.06.33-.11.65-.16,1A.5.5,0,0,1,.9,32.47Zm71.78-.1a.5.5,0,0,1-.49-.43c0-.32-.11-.65-.17-1a.5.5,0,0,1,1-.18c.06.33.11.67.16,1a.49.49,0,0,1-.41.57ZM1.46,29.52l-.11,0A.5.5,0,0,1,1,28.9c.08-.33.16-.66.25-1a.5.5,0,0,1,1,.25q-.13.48-.24,1A.51.51,0,0,1,1.46,29.52Zm70.65-.1a.5.5,0,0,1-.49-.39l-.24-1a.5.5,0,0,1,.35-.61.48.48,0,0,1,.61.35c.09.33.17.65.25,1a.5.5,0,0,1-.37.61ZM2.27,26.62a.39.39,0,0,1-.15,0A.51.51,0,0,1,1.79,26l.33-1a.51.51,0,0,1,.64-.31.49.49,0,0,1,.3.64c-.11.31-.21.62-.31.94A.5.5,0,0,1,2.27,26.62Zm69-.09a.48.48,0,0,1-.47-.34c-.11-.32-.21-.63-.32-.94a.5.5,0,0,1,.3-.64.5.5,0,0,1,.64.3l.33,1a.5.5,0,0,1-.32.63A.45.45,0,0,1,71.29,26.53Zm-68-2.73a.41.41,0,0,1-.19,0,.49.49,0,0,1-.27-.65l.4-.93a.5.5,0,0,1,.67-.25.49.49,0,0,1,.24.66l-.39.91A.5.5,0,0,1,3.32,23.8Zm66.92-.08a.49.49,0,0,1-.46-.3c-.13-.31-.26-.61-.4-.91a.5.5,0,0,1,.91-.41c.14.31.28.62.41.93a.49.49,0,0,1-.27.65A.43.43,0,0,1,70.24,23.72ZM4.6,21.08A.46.46,0,0,1,4.37,21a.5.5,0,0,1-.22-.67c.16-.3.32-.6.49-.9a.5.5,0,0,1,.68-.19.49.49,0,0,1,.19.68c-.16.29-.32.58-.47.87A.5.5,0,0,1,4.6,21.08ZM69,21a.51.51,0,0,1-.45-.27c-.15-.29-.3-.58-.46-.86a.5.5,0,0,1,.87-.49l.48.89a.51.51,0,0,1-.21.68A.59.59,0,0,1,69,21ZM6.1,18.47a.52.52,0,0,1-.27-.07.5.5,0,0,1-.15-.69c.18-.29.36-.57.55-.85a.5.5,0,0,1,.7-.14.5.5,0,0,1,.13.69l-.54.83A.49.49,0,0,1,6.1,18.47Zm61.36,0a.52.52,0,0,1-.43-.24c-.17-.27-.35-.55-.54-.82a.5.5,0,0,1,.14-.69.49.49,0,0,1,.69.13c.19.28.38.56.56.85a.51.51,0,0,1-.42.77ZM7.81,16a.47.47,0,0,1-.3-.1.5.5,0,0,1-.1-.7c.2-.27.41-.54.62-.8a.5.5,0,0,1,.7-.08.49.49,0,0,1,.08.7l-.6.78A.51.51,0,0,1,7.81,16ZM65.74,16a.47.47,0,0,1-.39-.2c-.2-.26-.4-.52-.61-.77a.51.51,0,0,1,.08-.71.5.5,0,0,1,.7.08c.21.26.42.53.62.8a.49.49,0,0,1-.4.8Zm-56-2.27a.5.5,0,0,1-.38-.83L10,12.1a.5.5,0,1,1,.73.69l-.67.72A.51.51,0,0,1,9.72,13.68Zm54.11,0a.51.51,0,0,1-.37-.17c-.22-.24-.44-.49-.67-.73a.49.49,0,0,1,0-.7.5.5,0,0,1,.71,0l.69.74a.51.51,0,0,1,0,.71A.55.55,0,0,1,63.83,13.64Zm-52-2.12a.51.51,0,0,1-.37-.15.5.5,0,0,1,0-.71l.75-.69a.51.51,0,0,1,.71,0,.51.51,0,0,1,0,.71l-.73.67A.5.5,0,0,1,11.81,11.52Zm49.93,0a.48.48,0,0,1-.34-.13l-.73-.67a.5.5,0,0,1,0-.71.51.51,0,0,1,.71,0l.74.69a.5.5,0,0,1-.34.86ZM14.07,9.55a.51.51,0,0,1-.39-.19.49.49,0,0,1,.07-.7l.8-.63a.51.51,0,0,1,.7.1.5.5,0,0,1-.09.7l-.78.61A.51.51,0,0,1,14.07,9.55Zm45.41,0a.54.54,0,0,1-.32-.11c-.25-.21-.51-.41-.78-.61A.5.5,0,1,1,59,8l.8.62a.5.5,0,0,1,.08.7A.49.49,0,0,1,59.48,9.51Zm-43-1.74a.49.49,0,0,1-.41-.22.5.5,0,0,1,.13-.7l.85-.55a.5.5,0,0,1,.69.15.49.49,0,0,1-.16.69l-.82.54A.47.47,0,0,1,16.48,7.77Zm40.57,0a.53.53,0,0,1-.27-.08L56,7.1a.5.5,0,1,1,.53-.84l.85.55a.51.51,0,0,1,.14.7A.52.52,0,0,1,57.05,7.73ZM19,6.19a.49.49,0,0,1-.43-.26.5.5,0,0,1,.19-.68l.89-.48a.5.5,0,0,1,.46.88c-.29.16-.58.31-.86.48A.54.54,0,0,1,19,6.19Zm35.47,0a.54.54,0,0,1-.25-.06l-.87-.47a.5.5,0,0,1,.46-.89l.9.49a.5.5,0,0,1-.24.93ZM21.71,4.83a.5.5,0,0,1-.21-1l.92-.41a.5.5,0,1,1,.39.92l-.9.39A.35.35,0,0,1,21.71,4.83Zm30.1,0a.54.54,0,0,1-.21,0l-.9-.4a.49.49,0,0,1-.27-.65.51.51,0,0,1,.66-.27l.93.41a.5.5,0,0,1,.25.66A.51.51,0,0,1,51.81,4.8ZM24.48,3.7a.5.5,0,0,1-.17-1q.48-.18,1-.33a.5.5,0,0,1,.63.31.51.51,0,0,1-.32.64l-.93.32A.51.51,0,0,1,24.48,3.7ZM49,3.66a.52.52,0,0,1-.17,0l-.93-.33a.49.49,0,0,1-.32-.63.5.5,0,0,1,.63-.32l1,.33a.5.5,0,0,1,.3.64A.48.48,0,0,1,49,3.66ZM27.34,2.8a.5.5,0,0,1-.48-.37.52.52,0,0,1,.35-.62l1-.25a.5.5,0,0,1,.6.37.51.51,0,0,1-.37.61q-.48.1-1,.24Zm18.81,0a.32.32,0,0,1-.13,0l-1-.24a.5.5,0,1,1,.23-1l1,.25a.5.5,0,0,1,.36.61A.51.51,0,0,1,46.15,2.77ZM30.27,2.14a.5.5,0,0,1-.09-1l1-.17a.49.49,0,0,1,.57.42.49.49,0,0,1-.42.57l-1,.16Zm13,0h-.09l-1-.16a.49.49,0,0,1-.42-.57A.51.51,0,0,1,42.31,1l1,.17a.5.5,0,0,1-.09,1Zm-10-.39a.5.5,0,0,1-.5-.46A.49.49,0,0,1,33.2.73c.33,0,.67-.06,1-.09a.52.52,0,0,1,.53.47.5.5,0,0,1-.46.53l-1,.08Zm7,0h0l-1-.08a.49.49,0,0,1-.46-.53.52.52,0,0,1,.53-.46l1,.08a.49.49,0,0,1,.45.54A.5.5,0,0,1,40.25,1.72Zm-4-.16a.49.49,0,0,1-.5-.49.49.49,0,0,1,.49-.51h1a.5.5,0,0,1,.5.5.51.51,0,0,1-.5.5h-1Z"/><path d="M67.11,57.8a.53.53,0,0,1-.27-.08.5.5,0,0,1-.14-.7l.26-.41a.5.5,0,0,1,.69-.15.49.49,0,0,1,.16.69l-.28.43A.52.52,0,0,1,67.11,57.8Z"/><path d="M36.8,83.09l-1.1,0a.5.5,0,0,1-.48-.52.52.52,0,0,1,.52-.48,29,29,0,0,0,2.95,0,.52.52,0,0,1,.53.47.51.51,0,0,1-.47.53Q37.78,83.09,36.8,83.09Zm-4.07-.26h-.06a29.88,29.88,0,0,1-3-.54.5.5,0,1,1,.22-1c1,.22,1.93.39,2.91.52a.5.5,0,0,1-.07,1Zm9-.12a.51.51,0,0,1-.5-.43.51.51,0,0,1,.42-.57c1-.15,1.94-.36,2.89-.6a.5.5,0,1,1,.25,1,30.34,30.34,0,0,1-3,.63ZM26.9,81.48a.41.41,0,0,1-.16,0c-1-.32-1.91-.7-2.84-1.11a.5.5,0,0,1-.25-.66.49.49,0,0,1,.66-.25c.9.4,1.82.76,2.75,1.07a.51.51,0,0,1,.31.64A.49.49,0,0,1,26.9,81.48Zm20.6-.29a.49.49,0,0,1-.47-.32.51.51,0,0,1,.3-.65A27.86,27.86,0,0,0,50,79.07a.51.51,0,0,1,.67.23.5.5,0,0,1-.23.67c-.92.44-1.86.84-2.81,1.19A.51.51,0,0,1,47.5,81.19ZM21.44,79a.54.54,0,0,1-.25-.06c-.88-.5-1.75-1.06-2.57-1.64a.5.5,0,0,1-.12-.7.52.52,0,0,1,.7-.12c.8.57,1.63,1.1,2.48,1.59a.5.5,0,0,1-.24.93Zm31.45-.43a.5.5,0,0,1-.26-.93c.84-.51,1.66-1.06,2.45-1.65a.49.49,0,0,1,.7.1.51.51,0,0,1-.1.7c-.82.61-1.67,1.18-2.53,1.71A.59.59,0,0,1,52.89,78.59Zm-36.34-3a.52.52,0,0,1-.33-.12c-.76-.66-1.51-1.36-2.21-2.1a.5.5,0,0,1,.73-.69,29.46,29.46,0,0,0,2.14,2,.5.5,0,0,1,.05.7A.48.48,0,0,1,16.55,75.56ZM57.69,75a.49.49,0,0,1-.37-.16.5.5,0,0,1,0-.71A27.34,27.34,0,0,0,59.43,72a.5.5,0,0,1,.71,0,.49.49,0,0,1,0,.7A29.21,29.21,0,0,1,58,74.86.46.46,0,0,1,57.69,75ZM12.41,71.23A.48.48,0,0,1,12,71c-.63-.8-1.22-1.64-1.77-2.48a.51.51,0,0,1,.16-.7.5.5,0,0,1,.69.16,28.31,28.31,0,0,0,1.71,2.4.5.5,0,0,1-.09.7A.45.45,0,0,1,12.41,71.23Zm49.29-.68a.5.5,0,0,1-.4-.8c.42-.56.82-1.14,1.2-1.73a.5.5,0,0,1,.69-.16.51.51,0,0,1,.15.7c-.39.6-.81,1.21-1.24,1.79A.51.51,0,0,1,61.7,70.55Z"/></svg>