<svg xmlns="http://www.w3.org/2000/svg" viewBox="0 0 83.65 85.85"><title>10</title><polygon points="41.83 71.14 9.14 12.85 33.11 12.85 33.11 13.85 10.85 13.85 41.83 69.09 72.81 13.85 50.54 13.85 50.54 12.85 74.51 12.85 41.83 71.14"/><polygon points="22.82 48.42 0 7.72 23.69 7.72 23.69 9.72 3.41 9.72 24.56 47.44 22.82 48.42"/><polygon points="60.83 48.42 59.09 47.44 80.24 9.72 59.96 9.72 59.96 7.72 83.65 7.72 60.83 48.42"/><path d="M41.83,29.91,25.06,0H58.59ZM26.77,1,41.83,27.86,56.89,1Z"/><path d="M44,74.17A2.15,2.15,0,1,1,41.83,72,2.14,2.14,0,0,1,44,74.17Z"/><path d="M43.5,79.89a1.67,1.67,0,1,1-1.67-1.67A1.67,1.67,0,0,1,43.5,79.89Z"/><path d="M43,84.66a1.2,1.2,0,1,1-1.19-1.19A1.19,1.19,0,0,1,43,84.66Z"/></svg>