<svg xmlns="http://www.w3.org/2000/svg" viewBox="0 0 73.84 96.02"><title>15</title><path d="M36.92,96A36.93,36.93,0,0,1,16,28.65l1.13,1.65a34.92,34.92,0,1,0,39.28-.16l1.12-1.66A36.93,36.93,0,0,1,36.92,96Z"/><path d="M36.92,89.16h-.78a.51.51,0,0,1-.49-.51.53.53,0,0,1,.52-.49h1a.5.5,0,0,1,0,1Zm2.23-.08a.5.5,0,0,1-.5-.46.49.49,0,0,1,.47-.53l1-.09a.52.52,0,0,1,.55.45.51.51,0,0,1-.45.55l-1,.08Zm-5,0h0c-.34,0-.68-.06-1-.1a.49.49,0,0,1-.44-.55.5.5,0,0,1,.55-.44l1,.1a.5.5,0,0,1,0,1Zm8-.29a.5.5,0,0,1-.08-1c.33,0,.65-.1,1-.17a.5.5,0,0,1,.19,1l-1,.17Zm-10.94-.09H31.1l-1-.19a.5.5,0,1,1,.21-1l1,.19a.5.5,0,0,1,.41.58A.51.51,0,0,1,31.19,88.66Zm13.88-.52a.5.5,0,0,1-.13-1l1-.25a.49.49,0,0,1,.62.34.51.51,0,0,1-.34.62l-1,.26ZM28.26,88a.3.3,0,0,1-.13,0c-.33-.08-.65-.18-1-.28a.5.5,0,0,1-.33-.62.49.49,0,0,1,.63-.33l.94.27a.5.5,0,0,1,.35.61A.49.49,0,0,1,28.26,88Zm19.67-.74a.52.52,0,0,1-.47-.33.5.5,0,0,1,.3-.64l.93-.34a.48.48,0,0,1,.64.28.49.49,0,0,1-.28.65l-.95.35A.51.51,0,0,1,47.93,87.26ZM25.4,87.08a.38.38,0,0,1-.17,0l-.95-.37a.5.5,0,0,1,.38-.92l.92.36a.5.5,0,0,1-.18,1Zm25.3-1a.5.5,0,0,1-.21-1c.3-.13.59-.28.89-.42a.49.49,0,0,1,.67.22.51.51,0,0,1-.22.67l-.92.44A.5.5,0,0,1,50.7,86.13Zm-28.06-.24a.41.41,0,0,1-.21,0l-.91-.46A.5.5,0,0,1,22,84.5l.88.44a.5.5,0,0,1,.23.67A.48.48,0,0,1,22.64,85.89Zm30.72-1.15a.5.5,0,0,1-.25-.93c.28-.17.56-.33.84-.51a.5.5,0,1,1,.53.85l-.87.52A.47.47,0,0,1,53.36,84.74ZM20,84.46a.59.59,0,0,1-.26-.07l-.86-.54a.5.5,0,1,1,.54-.84l.84.52a.5.5,0,0,1,.16.69A.49.49,0,0,1,20,84.46Zm35.87-1.34a.52.52,0,0,1-.41-.21.5.5,0,0,1,.12-.7l.79-.58a.49.49,0,0,1,.7.1.5.5,0,0,1-.1.7l-.81.6A.52.52,0,0,1,55.88,83.12Zm-38.37-.33a.45.45,0,0,1-.29-.1c-.28-.2-.55-.4-.81-.61a.5.5,0,0,1-.09-.7.51.51,0,0,1,.71-.09l.78.6a.5.5,0,0,1,.1.7A.48.48,0,0,1,17.51,82.79Zm40.73-1.52a.5.5,0,0,1-.33-.88l.74-.65a.49.49,0,0,1,.7,0,.5.5,0,0,1,0,.71l-.76.67A.49.49,0,0,1,58.24,81.27ZM15.18,80.9a.46.46,0,0,1-.33-.13l-.75-.68a.5.5,0,1,1,.69-.73l.72.67a.5.5,0,0,1-.33.87Zm45.24-1.68a.52.52,0,0,1-.35-.14.5.5,0,0,1,0-.71l.68-.72a.5.5,0,1,1,.73.68c-.22.25-.46.49-.69.74A.51.51,0,0,1,60.42,79.22ZM13,78.81a.48.48,0,0,1-.36-.16c-.23-.25-.46-.49-.68-.75a.48.48,0,0,1,0-.7.5.5,0,0,1,.71,0c.21.25.43.49.66.73a.48.48,0,0,1,0,.7A.48.48,0,0,1,13,78.81ZM62.41,77a.49.49,0,0,1-.39-.81c.2-.26.41-.51.6-.78a.51.51,0,0,1,.71-.09.49.49,0,0,1,.09.7c-.2.27-.41.53-.62.8A.51.51,0,0,1,62.41,77Zm-51.33-.44a.49.49,0,0,1-.39-.19l-.61-.81a.5.5,0,0,1,.81-.59c.19.26.39.53.59.78a.51.51,0,0,1-.09.71A.5.5,0,0,1,11.08,76.53Zm53.1-2a.45.45,0,0,1-.27-.08.49.49,0,0,1-.14-.69c.18-.28.36-.55.53-.83a.5.5,0,0,1,.85.53c-.18.29-.36.57-.55.85A.5.5,0,0,1,64.18,74.55ZM9.35,74.09a.51.51,0,0,1-.42-.23c-.18-.29-.36-.57-.53-.86a.49.49,0,0,1,.17-.69.51.51,0,0,1,.69.17c.16.29.34.56.51.84a.49.49,0,0,1-.15.69A.5.5,0,0,1,9.35,74.09ZM65.73,72a.46.46,0,0,1-.23-.06.49.49,0,0,1-.21-.67c.16-.29.31-.58.46-.88a.5.5,0,0,1,.89.45c-.15.31-.31.6-.47.9A.49.49,0,0,1,65.73,72ZM7.85,71.5a.5.5,0,0,1-.44-.27c-.16-.3-.31-.6-.45-.91a.48.48,0,0,1,.23-.66.5.5,0,0,1,.67.23c.14.29.28.59.43.88a.49.49,0,0,1-.21.67A.46.46,0,0,1,7.85,71.5ZM67,69.28a.48.48,0,0,1-.2,0,.5.5,0,0,1-.26-.66c.13-.3.25-.6.37-.91a.5.5,0,0,1,.65-.28.49.49,0,0,1,.28.65c-.12.31-.25.63-.38.94A.5.5,0,0,1,67,69.28Zm-60.45-.5a.51.51,0,0,1-.46-.31c-.13-.31-.25-.63-.37-1a.5.5,0,0,1,.3-.64.5.5,0,0,1,.64.3c.11.3.23.61.36.91a.5.5,0,0,1-.28.65A.41.41,0,0,1,6.59,68.78Zm61.5-2.31a.4.4,0,0,1-.15,0,.51.51,0,0,1-.33-.63c.1-.31.2-.62.29-.94a.51.51,0,0,1,.62-.34.49.49,0,0,1,.34.62c-.09.32-.19.65-.29,1A.51.51,0,0,1,68.09,66.47ZM5.59,66a.51.51,0,0,1-.48-.36c-.1-.32-.19-.65-.28-1a.5.5,0,1,1,1-.27c.08.32.17.64.27,1a.5.5,0,0,1-.33.62A.4.4,0,0,1,5.59,66Zm63.29-2.39h-.11a.5.5,0,0,1-.38-.6c.07-.31.14-.64.2-1a.5.5,0,0,1,.58-.4.51.51,0,0,1,.4.59c-.06.33-.13.66-.2,1A.5.5,0,0,1,68.88,63.57Zm-64-.52a.5.5,0,0,1-.49-.4c-.07-.33-.13-.66-.19-1a.5.5,0,0,1,1-.17c0,.33.12.65.18,1A.5.5,0,0,1,5,63ZM69.4,60.62h-.07a.5.5,0,0,1-.43-.56c0-.33.08-.65.11-1a.52.52,0,0,1,.54-.45.5.5,0,0,1,.45.55c0,.33-.07.67-.11,1A.5.5,0,0,1,69.4,60.62Zm-65-.53a.49.49,0,0,1-.49-.44c0-.34-.07-.68-.1-1a.49.49,0,0,1,.46-.53.52.52,0,0,1,.54.46c0,.32,0,.65.09,1a.51.51,0,0,1-.44.56Zm65.26-2.46h0a.5.5,0,0,1-.48-.52c0-.32,0-.65,0-1a.51.51,0,0,1,.5-.5h0a.51.51,0,0,1,.5.51c0,.34,0,.67,0,1A.5.5,0,0,1,69.64,57.63ZM4.19,57.1a.49.49,0,0,1-.5-.49c0-.23,0-.46,0-.69V55.6a.5.5,0,0,1,.5-.5h0a.5.5,0,0,1,.49.5v.32c0,.22,0,.44,0,.67a.52.52,0,0,1-.49.51Zm65.42-2.47a.49.49,0,0,1-.49-.47c0-.33,0-.65-.07-1a.49.49,0,0,1,.45-.54.5.5,0,0,1,.54.45c0,.34.06.68.07,1a.49.49,0,0,1-.47.52ZM4.26,54.1h0a.5.5,0,0,1-.47-.53c0-.34.05-.68.09-1a.5.5,0,0,1,.55-.44.49.49,0,0,1,.44.54c0,.33-.06.66-.08,1A.5.5,0,0,1,4.26,54.1Zm65.06-2.45a.51.51,0,0,1-.5-.43l-.15-1a.5.5,0,0,1,.4-.58.51.51,0,0,1,.58.41c.06.33.11.66.16,1a.5.5,0,0,1-.42.56ZM4.61,51.12H4.53a.5.5,0,0,1-.42-.57l.18-1a.5.5,0,1,1,1,.19c-.06.32-.12.65-.17,1A.49.49,0,0,1,4.61,51.12Zm64.14-2.41a.5.5,0,0,1-.49-.38c-.07-.32-.15-.64-.24-.95a.5.5,0,0,1,.35-.62.5.5,0,0,1,.61.35c.09.33.18.65.26,1a.51.51,0,0,1-.37.61ZM5.22,48.18H5.1a.5.5,0,0,1-.36-.61c.09-.33.17-.66.27-1a.49.49,0,0,1,.62-.34.5.5,0,0,1,.34.62c-.09.31-.18.63-.26,1A.49.49,0,0,1,5.22,48.18Zm62.69-2.35a.5.5,0,0,1-.47-.34l-.33-.92a.5.5,0,1,1,.93-.35c.12.31.24.63.35,1a.51.51,0,0,1-.31.64Zm-61.8-.51a.51.51,0,0,1-.17,0,.5.5,0,0,1-.3-.64c.11-.32.23-.64.36-.95a.49.49,0,0,1,.65-.28.5.5,0,0,1,.28.64c-.12.31-.24.62-.35.93A.51.51,0,0,1,6.11,45.32ZM66.81,43a.49.49,0,0,1-.45-.29c-.14-.3-.27-.6-.42-.89a.51.51,0,0,1,.23-.67.5.5,0,0,1,.67.23c.15.3.29.61.43.92A.5.5,0,0,1,67,43,.52.52,0,0,1,66.81,43Zm-59.56-.5a.52.52,0,0,1-.21,0,.5.5,0,0,1-.24-.67c.15-.3.29-.61.45-.91a.5.5,0,1,1,.89.45c-.15.29-.29.59-.43.89A.51.51,0,0,1,7.25,42.54Zm58.21-2.17a.49.49,0,0,1-.43-.26l-.5-.85a.5.5,0,0,1,.86-.51l.51.87a.49.49,0,0,1-.19.68A.45.45,0,0,1,65.46,40.37ZM8.65,39.89a.47.47,0,0,1-.25-.07.49.49,0,0,1-.18-.68c.17-.3.35-.59.53-.87a.49.49,0,0,1,.69-.16.5.5,0,0,1,.15.69l-.51.84A.5.5,0,0,1,8.65,39.89Zm55.23-2.06a.49.49,0,0,1-.41-.22c-.19-.27-.38-.54-.58-.8a.51.51,0,0,1,.11-.7.5.5,0,0,1,.7.11l.59.82a.51.51,0,0,1-.41.79Zm-53.6-.46a.52.52,0,0,1-.29-.09.51.51,0,0,1-.11-.7c.2-.27.4-.55.6-.81a.5.5,0,0,1,.7-.1.51.51,0,0,1,.1.7c-.2.26-.4.53-.59.8A.51.51,0,0,1,10.28,37.37Zm51.78-1.93a.49.49,0,0,1-.38-.18L61,34.51a.48.48,0,0,1,0-.7.49.49,0,0,1,.7,0c.23.25.45.51.67.77a.52.52,0,0,1-.07.71A.54.54,0,0,1,62.06,35.44ZM12.14,35a.52.52,0,0,1-.33-.12.51.51,0,0,1-.05-.71c.22-.26.45-.51.68-.76a.5.5,0,1,1,.73.68l-.65.73A.49.49,0,0,1,12.14,35ZM60,33.23a.51.51,0,0,1-.36-.15L59,32.4a.5.5,0,1,1,.69-.73l.73.7a.51.51,0,0,1,0,.71A.5.5,0,0,1,60,33.23ZM14.2,32.84a.5.5,0,0,1-.34-.86c.24-.23.49-.47.74-.69a.49.49,0,0,1,.7,0,.5.5,0,0,1,0,.71l-.72.67A.52.52,0,0,1,14.2,32.84Zm43.62-1.63a.49.49,0,0,1-.32-.12c-.25-.21-.51-.41-.77-.61a.5.5,0,0,1-.09-.7.51.51,0,0,1,.71-.09l.79.64a.5.5,0,0,1-.32.88Zm-41.37-.35a.52.52,0,0,1-.39-.19.5.5,0,0,1,.08-.7l.35-.28a.52.52,0,0,1,.71.08.51.51,0,0,1-.09.71l-.35.27A.51.51,0,0,1,16.45,30.86Z"/><path d="M36.92,82.8A30.64,30.64,0,1,1,67.56,52.16,30.67,30.67,0,0,1,36.92,82.8Zm0-60.28A29.64,29.64,0,1,0,66.56,52.16,29.68,29.68,0,0,0,36.92,22.52Z"/><polygon points="58.19 29.81 56.3 29.16 61.13 15.08 36.92 2.26 12.71 15.08 17.54 29.15 15.65 29.8 10.26 14.11 36.92 0 63.58 14.11 58.19 29.81"/><path d="M36.92,89.22,16.12,29.64a.51.51,0,0,1,.31-.64.5.5,0,0,1,.63.31L36.92,86.19,56.77,29.32a.5.5,0,1,1,.95.33Z"/></svg>