<svg xmlns="http://www.w3.org/2000/svg" viewBox="0 0 66.9 84.6"><title>16</title><polygon points="11.24 41.36 9.52 40.34 33.45 0 57.38 40.34 55.66 41.36 33.45 3.92 11.24 41.36"/><path d="M56.28,41.79a.53.53,0,0,1-.24-.06.51.51,0,0,1-.2-.68l.24-.44a.5.5,0,0,1,.68-.2.51.51,0,0,1,.2.68l-.24.44A.5.5,0,0,1,56.28,41.79Z"/><path d="M34.65,81.43a.53.53,0,0,1-.24-.06.51.51,0,0,1-.2-.68l.48-.88a.5.5,0,1,1,.88.48l-.48.88A.49.49,0,0,1,34.65,81.43Zm1.44-2.64a.53.53,0,0,1-.24-.06.51.51,0,0,1-.2-.68l.48-.88a.5.5,0,0,1,.88.48l-.48.88A.51.51,0,0,1,36.09,78.79Zm1.45-2.64a.4.4,0,0,1-.24-.07.48.48,0,0,1-.2-.67l.48-.88a.49.49,0,1,1,.87.47l-.48.88A.5.5,0,0,1,37.54,76.15ZM39,73.5a.5.5,0,0,1-.44-.74l.48-.88a.5.5,0,0,1,.68-.2.51.51,0,0,1,.2.68l-.49.88A.47.47,0,0,1,39,73.5Zm1.44-2.64a.53.53,0,0,1-.24-.06.51.51,0,0,1-.2-.68l.48-.88a.5.5,0,0,1,.88.48l-.48.88A.49.49,0,0,1,40.42,70.86Zm1.44-2.64a.53.53,0,0,1-.24-.06.51.51,0,0,1-.2-.68l.48-.88a.5.5,0,0,1,.68-.2.5.5,0,0,1,.2.68L42.3,68A.51.51,0,0,1,41.86,68.22Zm1.44-2.65a.53.53,0,0,1-.24-.06.5.5,0,0,1-.2-.68l.48-.88a.51.51,0,0,1,.68-.2.5.5,0,0,1,.2.68l-.48.88A.49.49,0,0,1,43.3,65.57Zm1.44-2.64a.53.53,0,0,1-.24-.06.49.49,0,0,1-.19-.68l.48-.88a.49.49,0,0,1,.67-.2.49.49,0,0,1,.2.68l-.48.88A.49.49,0,0,1,44.74,62.93Zm1.45-2.64a.48.48,0,0,1-.24-.06.49.49,0,0,1-.2-.68l.48-.88a.5.5,0,1,1,.87.48l-.48.88A.49.49,0,0,1,46.19,60.29Zm1.44-2.64a.42.42,0,0,1-.24-.07.49.49,0,0,1-.2-.67l.48-.88a.49.49,0,0,1,.68-.2.49.49,0,0,1,.2.67l-.48.89A.52.52,0,0,1,47.63,57.65ZM49.07,55a.53.53,0,0,1-.24-.06.5.5,0,0,1-.2-.68l.48-.88a.5.5,0,0,1,.88.48l-.48.88A.49.49,0,0,1,49.07,55Zm1.44-2.64a.53.53,0,0,1-.24-.06.51.51,0,0,1-.2-.68l.48-.88a.5.5,0,0,1,.88.48L51,52.1A.49.49,0,0,1,50.51,52.36ZM52,49.72a.53.53,0,0,1-.24-.06.51.51,0,0,1-.2-.68L52,48.1a.49.49,0,0,1,.67-.2.5.5,0,0,1,.2.68l-.48.88A.49.49,0,0,1,52,49.72Zm1.44-2.64a.44.44,0,0,1-.24-.07.48.48,0,0,1-.19-.67l.48-.88a.49.49,0,0,1,.68-.2.49.49,0,0,1,.19.68l-.48.88A.51.51,0,0,1,53.39,47.08Zm1.45-2.65a.5.5,0,0,1-.44-.74l.48-.88a.5.5,0,0,1,.68-.2.51.51,0,0,1,.2.68l-.48.88A.5.5,0,0,1,54.84,44.43Z"/><path d="M33.45,84.18l-.68-1.25a.51.51,0,0,1,.2-.68.54.54,0,0,1,.48,0,.54.54,0,0,1,.48,0,.51.51,0,0,1,.2.68Z"/><path d="M32.25,81.43a.49.49,0,0,1-.44-.26l-.48-.88a.5.5,0,0,1,.88-.48l.48.88a.51.51,0,0,1-.2.68A.53.53,0,0,1,32.25,81.43Zm-1.44-2.64a.49.49,0,0,1-.44-.26l-.48-.88a.49.49,0,0,1,.2-.68.49.49,0,0,1,.67.2l.49.88a.51.51,0,0,1-.2.68A.53.53,0,0,1,30.81,78.79Zm-1.44-2.64a.51.51,0,0,1-.44-.26L28.45,75a.49.49,0,0,1,.87-.47l.48.88a.48.48,0,0,1-.2.67A.39.39,0,0,1,29.37,76.15ZM27.92,73.5a.49.49,0,0,1-.43-.26L27,72.36a.5.5,0,1,1,.88-.48l.48.88a.49.49,0,0,1-.2.68A.5.5,0,0,1,27.92,73.5Zm-1.44-2.64A.49.49,0,0,1,26,70.6l-.48-.88a.5.5,0,1,1,.88-.48l.48.88a.51.51,0,0,1-.2.68A.53.53,0,0,1,26.48,70.86ZM25,68.22A.49.49,0,0,1,24.6,68l-.48-.88a.5.5,0,0,1,.2-.68.5.5,0,0,1,.68.2l.48.88a.51.51,0,0,1-.2.68A.53.53,0,0,1,25,68.22ZM23.6,65.58a.5.5,0,0,1-.44-.27l-.48-.88a.5.5,0,0,1,.88-.47l.48.88a.49.49,0,0,1-.2.67A.44.44,0,0,1,23.6,65.58Zm-1.44-2.65a.49.49,0,0,1-.44-.26l-.48-.88a.5.5,0,1,1,.87-.48l.48.88a.49.49,0,0,1-.19.68A.53.53,0,0,1,22.16,62.93Zm-1.45-2.64a.49.49,0,0,1-.43-.26l-.49-.88a.5.5,0,0,1,.88-.48l.48.88a.49.49,0,0,1-.2.68A.5.5,0,0,1,20.71,60.29Zm-1.44-2.64a.52.52,0,0,1-.44-.26l-.48-.88a.5.5,0,0,1,.2-.68.5.5,0,0,1,.68.2l.48.88a.51.51,0,0,1-.2.68A.5.5,0,0,1,19.27,57.65ZM17.83,55a.49.49,0,0,1-.44-.26l-.48-.88a.5.5,0,0,1,.88-.48l.48.89a.49.49,0,0,1-.2.67A.43.43,0,0,1,17.83,55Zm-1.44-2.64A.49.49,0,0,1,16,52.1l-.48-.88a.5.5,0,0,1,.88-.48l.48.88a.5.5,0,0,1-.2.68A.53.53,0,0,1,16.39,52.36ZM15,49.72a.49.49,0,0,1-.44-.26L14,48.58a.49.49,0,0,1,.2-.68.49.49,0,0,1,.67.2l.49.88a.51.51,0,0,1-.2.68A.53.53,0,0,1,15,49.72ZM13.5,47.08a.51.51,0,0,1-.43-.26l-.48-.88a.5.5,0,1,1,.87-.48l.48.88a.49.49,0,0,1-.2.68A.48.48,0,0,1,13.5,47.08Zm-1.44-2.65a.5.5,0,0,1-.44-.26l-.48-.88a.5.5,0,0,1,.88-.48l.48.89a.49.49,0,0,1-.2.67A.5.5,0,0,1,12.06,44.43Z"/><path d="M10.62,41.79a.49.49,0,0,1-.44-.26l-.24-.44a.5.5,0,1,1,.88-.48l.24.44a.51.51,0,0,1-.2.68A.53.53,0,0,1,10.62,41.79Z"/><path d="M22.87,20.29a.5.5,0,0,1-.16-1l.48-.16a.5.5,0,1,1,.31,1l-.47.16A.45.45,0,0,1,22.87,20.29Z"/><path d="M25.32,19.56a.5.5,0,0,1-.49-.38.49.49,0,0,1,.36-.6l1-.25a.5.5,0,0,1,.21,1l-1,.23A.25.25,0,0,1,25.32,19.56Zm16.25,0-.12,0-1-.23a.52.52,0,0,1-.38-.6.5.5,0,0,1,.6-.38l1,.24a.51.51,0,0,1,.36.61A.5.5,0,0,1,41.57,19.56Zm-13.24-.62a.5.5,0,0,1-.08-1l1-.15a.49.49,0,0,1,.55.44.5.5,0,0,1-.43.56l-1,.14Zm10.23,0h-.08c-.33-.06-.67-.1-1-.14a.51.51,0,0,1-.44-.56.5.5,0,0,1,.56-.44c.35.05.69.09,1,.15a.5.5,0,0,1-.07,1Zm-7.17-.33a.5.5,0,0,1,0-1l1-.05a.53.53,0,0,1,.52.49.5.5,0,0,1-.49.51l-1,.05Zm4.11,0h0l-1-.05a.5.5,0,0,1-.48-.51.51.51,0,0,1,.52-.49l1,.05a.49.49,0,0,1,.46.53A.49.49,0,0,1,35.5,18.61Z"/><path d="M44,20.28a.5.5,0,0,1-.17,0l-.46-.16a.49.49,0,0,1-.32-.63.49.49,0,0,1,.62-.32l.49.16a.5.5,0,0,1-.16,1Z"/><path d="M33.45,84.35a33.41,33.41,0,0,1-10.74-65,.5.5,0,0,1,.32,1,32.4,32.4,0,1,0,20.84,0,.5.5,0,1,1,.32-1,33.41,33.41,0,0,1-10.74,65Z"/><path d="M10.44,41.43a.48.48,0,0,1-.38-.17.49.49,0,0,1,0-.7l23.34-20.4L56.78,40.55a.5.5,0,0,1-.65.76L33.45,21.49,10.77,41.31A.54.54,0,0,1,10.44,41.43Z"/><polygon points="33.45 84.6 0 48.73 9.78 40.18 11.1 41.69 2.87 48.87 33.45 81.67 64.03 48.87 55.8 41.68 57.11 40.18 66.9 48.73 33.45 84.6"/></svg>