<svg xmlns="http://www.w3.org/2000/svg" viewBox="0 0 52.89 87.82"><defs><style>.a{fill:gray;}</style></defs><title>18</title><path class="a" d="M108.73,44.2a.52.52,0,1,1-1,0,.52.52,0,1,1,1,0Z" transform="translate(-55.85)"/><path class="a" d="M56.89,44.2a.52.52,0,1,1-1,0,.52.52,0,1,1,1,0Z" transform="translate(-55.85)"/><path class="a" d="M82.86.52a.52.52,0,1,1-1,0,.52.52,0,1,1,1,0Z" transform="translate(-55.85)"/><rect class="a" x="11.35" y="68.59" width="30.29" height="1.47"/><rect class="a" x="7.87" y="62.75" width="36.59" height="0.87"/><rect class="a" x="14.41" y="71.56" width="24.18" height="0.87"/><path class="a" d="M107.49,45.23a.51.51,0,0,1,.17.7.51.51,0,1,1-.86-.53A.5.5,0,0,1,107.49,45.23Z" transform="translate(-55.85)"/><path class="a" d="M107.1,42.18a.51.51,0,0,1,.7.17.52.52,0,0,1-.18.7.51.51,0,0,1-.69-.18A.5.5,0,0,1,107.1,42.18Z" transform="translate(-55.85)"/><path class="a" d="M106.15,40.59a.5.5,0,0,1,.69.17.51.51,0,0,1-.17.7.51.51,0,1,1-.52-.87Z" transform="translate(-55.85)"/><path class="a" d="M105.19,39a.5.5,0,1,1,.52.86.5.5,0,1,1-.52-.86Z" transform="translate(-55.85)"/><path class="a" d="M104.24,37.42a.5.5,0,0,1,.69.17.51.51,0,1,1-.87.52A.51.51,0,0,1,104.24,37.42Z" transform="translate(-55.85)"/><path class="a" d="M103.28,35.83A.51.51,0,0,1,104,36a.51.51,0,1,1-.69-.17Z" transform="translate(-55.85)"/><path class="a" d="M102.32,34.25a.51.51,0,0,1,.7.17.5.5,0,0,1-.17.69.51.51,0,0,1-.7-.17A.5.5,0,0,1,102.32,34.25Z" transform="translate(-55.85)"/><path class="a" d="M101.37,32.66a.49.49,0,0,1,.69.17.5.5,0,1,1-.86.52A.49.49,0,0,1,101.37,32.66Z" transform="translate(-55.85)"/><path class="a" d="M100.41,31.07a.52.52,0,0,1,.7.17.53.53,0,0,1-.17.7.51.51,0,0,1-.53-.87Z" transform="translate(-55.85)"/><path class="a" d="M99.46,29.49a.5.5,0,1,1,.52.86.5.5,0,1,1-.52-.86Z" transform="translate(-55.85)"/><path class="a" d="M98.5,27.9a.51.51,0,0,1,.7.17.52.52,0,0,1-.18.7.51.51,0,0,1-.69-.18A.49.49,0,0,1,98.5,27.9Z" transform="translate(-55.85)"/><path class="a" d="M97.55,26.31a.51.51,0,0,1,.52.87.51.51,0,1,1-.52-.87Z" transform="translate(-55.85)"/><path class="a" d="M96.59,24.73a.5.5,0,1,1-.17.69A.49.49,0,0,1,96.59,24.73Z" transform="translate(-55.85)"/><path class="a" d="M95.63,23.14a.51.51,0,0,1,.53.87.52.52,0,0,1-.7-.18A.51.51,0,0,1,95.63,23.14Z" transform="translate(-55.85)"/><path class="a" d="M94.68,21.55a.51.51,0,0,1,.69.17.51.51,0,1,1-.69-.17Z" transform="translate(-55.85)"/><path class="a" d="M93.72,20a.51.51,0,0,1,.7.17.5.5,0,0,1-.17.69.51.51,0,0,1-.7-.17A.5.5,0,0,1,93.72,20Z" transform="translate(-55.85)"/><path class="a" d="M92.77,18.38a.5.5,0,0,1,.69.17.5.5,0,1,1-.86.52A.5.5,0,0,1,92.77,18.38Z" transform="translate(-55.85)"/><path class="a" d="M91.81,16.79a.53.53,0,0,1,.7.17.51.51,0,0,1-.18.7.5.5,0,0,1-.69-.17A.52.52,0,0,1,91.81,16.79Z" transform="translate(-55.85)"/><path class="a" d="M90.86,15.21a.5.5,0,0,1,.52.86.5.5,0,1,1-.52-.86Z" transform="translate(-55.85)"/><path class="a" d="M89.9,13.62a.51.51,0,1,1,.52.87.51.51,0,0,1-.69-.18A.5.5,0,0,1,89.9,13.62Z" transform="translate(-55.85)"/><path class="a" d="M89,12a.51.51,0,0,1,.52.87A.51.51,0,1,1,89,12Z" transform="translate(-55.85)"/><path class="a" d="M88,10.45a.5.5,0,1,1-.17.69A.49.49,0,0,1,88,10.45Z" transform="translate(-55.85)"/><path class="a" d="M87,8.86a.51.51,0,1,1-.17.69A.5.5,0,0,1,87,8.86Z" transform="translate(-55.85)"/><path class="a" d="M86.08,7.27a.51.51,0,0,1,.69.18.49.49,0,0,1-.17.69A.5.5,0,0,1,85.91,8,.51.51,0,0,1,86.08,7.27Z" transform="translate(-55.85)"/><path class="a" d="M85.12,5.69a.51.51,0,1,1-.17.69A.5.5,0,0,1,85.12,5.69Z" transform="translate(-55.85)"/><path class="a" d="M84.17,4.1a.5.5,0,0,1,.69.17.51.51,0,0,1-.17.7.52.52,0,0,1-.7-.18A.51.51,0,0,1,84.17,4.1Z" transform="translate(-55.85)"/><path class="a" d="M83.21,2.51a.52.52,0,0,1,.7.18.51.51,0,0,1-.18.69A.49.49,0,0,1,83,3.21.51.51,0,0,1,83.21,2.51Z" transform="translate(-55.85)"/><path class="a" d="M81,3.38a.51.51,0,0,1-.17-.7.53.53,0,0,1,.7-.17.51.51,0,1,1-.53.87Z" transform="translate(-55.85)"/><path class="a" d="M80,5a.51.51,0,0,1,.53-.87.51.51,0,0,1,.17.69A.52.52,0,0,1,80,5Z" transform="translate(-55.85)"/><path class="a" d="M79,6.55a.5.5,0,0,1-.17-.69.51.51,0,0,1,.7-.17.5.5,0,0,1,.17.69A.51.51,0,0,1,79,6.55Z" transform="translate(-55.85)"/><path class="a" d="M78.07,8.14a.51.51,0,0,1-.17-.7.53.53,0,0,1,.7-.17.51.51,0,0,1-.53.87Z" transform="translate(-55.85)"/><path class="a" d="M77.11,9.73a.52.52,0,0,1-.17-.7.51.51,0,0,1,.7-.17.51.51,0,0,1,.17.7A.53.53,0,0,1,77.11,9.73Z" transform="translate(-55.85)"/><path class="a" d="M76.15,11.31a.5.5,0,0,1-.17-.69.51.51,0,0,1,.7-.17.5.5,0,0,1,.17.69A.51.51,0,0,1,76.15,11.31Z" transform="translate(-55.85)"/><path class="a" d="M75.19,12.9a.51.51,0,1,1,.7-.17A.52.52,0,0,1,75.19,12.9Z" transform="translate(-55.85)"/><path class="a" d="M74.24,14.49a.52.52,0,0,1-.18-.7.51.51,0,1,1,.18.7Z" transform="translate(-55.85)"/><path class="a" d="M73.28,16.07A.5.5,0,1,1,74,15.9.5.5,0,0,1,73.28,16.07Z" transform="translate(-55.85)"/><path class="a" d="M72.32,17.66a.51.51,0,1,1,.52-.87.51.51,0,0,1-.52.87Z" transform="translate(-55.85)"/><path class="a" d="M71.36,19.25a.52.52,0,0,1-.18-.7.51.51,0,0,1,.7-.17.5.5,0,0,1,.17.69A.51.51,0,0,1,71.36,19.25Z" transform="translate(-55.85)"/><path class="a" d="M70.4,20.83a.5.5,0,1,1,.69-.17A.49.49,0,0,1,70.4,20.83Z" transform="translate(-55.85)"/><path class="a" d="M69.44,22.42a.51.51,0,0,1-.17-.7.5.5,0,0,1,.69-.17.51.51,0,0,1,.17.7A.5.5,0,0,1,69.44,22.42Z" transform="translate(-55.85)"/><path class="a" d="M68.48,24a.5.5,0,1,1,.69-.17A.49.49,0,0,1,68.48,24Z" transform="translate(-55.85)"/><path class="a" d="M67.52,25.59a.5.5,0,1,1,.69-.17A.49.49,0,0,1,67.52,25.59Z" transform="translate(-55.85)"/><path class="a" d="M66.56,27.18a.51.51,0,0,1-.17-.7.5.5,0,0,1,.69-.17.51.51,0,0,1,.17.7A.5.5,0,0,1,66.56,27.18Z" transform="translate(-55.85)"/><path class="a" d="M65.6,28.76a.5.5,0,1,1,.69-.17A.49.49,0,0,1,65.6,28.76Z" transform="translate(-55.85)"/><path class="a" d="M64.64,30.35a.5.5,0,1,1,.69-.17A.49.49,0,0,1,64.64,30.35Z" transform="translate(-55.85)"/><path class="a" d="M63.68,31.94a.51.51,0,0,1-.17-.7.5.5,0,0,1,.69-.17.51.51,0,0,1,.17.7A.5.5,0,0,1,63.68,31.94Z" transform="translate(-55.85)"/><path class="a" d="M62.72,33.52a.5.5,0,1,1,.69-.17A.49.49,0,0,1,62.72,33.52Z" transform="translate(-55.85)"/><path class="a" d="M61.76,35.11a.5.5,0,1,1,.52-.86.5.5,0,1,1-.52.86Z" transform="translate(-55.85)"/><path class="a" d="M60.8,36.7a.52.52,0,0,1-.17-.7.5.5,0,0,1,.69-.17.51.51,0,1,1-.52.87Z" transform="translate(-55.85)"/><path class="a" d="M59.84,38.28a.5.5,0,0,1-.17-.69.5.5,0,0,1,.69-.17.5.5,0,1,1-.52.86Z" transform="translate(-55.85)"/><path class="a" d="M58.88,39.87a.5.5,0,0,1-.17-.69.52.52,0,0,1,.7-.18.53.53,0,0,1,.17.7A.51.51,0,0,1,58.88,39.87Z" transform="translate(-55.85)"/><path class="a" d="M57.92,41.46a.51.51,0,1,1,.53-.87.53.53,0,0,1,.17.7A.52.52,0,0,1,57.92,41.46Z" transform="translate(-55.85)"/><path class="a" d="M57,43a.5.5,0,0,1-.17-.69.51.51,0,0,1,.7-.17.5.5,0,0,1,.17.69A.51.51,0,0,1,57,43Z" transform="translate(-55.85)"/><path class="a" d="M57.64,46.12a.51.51,0,0,1-.7-.17.5.5,0,0,1,.17-.69.51.51,0,1,1,.53.86Z" transform="translate(-55.85)"/><polygon class="a" points="11.53 63.56 1.58 47.05 26.5 5.71 51.41 47.04 41.46 63.56 40.2 62.8 49.69 47.04 26.5 8.56 3.3 47.05 12.79 62.8 11.53 63.56"/><polygon class="a" points="31.67 78.39 26.5 86.98 21.32 78.39 31.67 78.39"/><path class="a" d="M82.34,87.82,76.4,78H88.29Zm-4.4-9,4.4,7.31,4.41-7.31Z" transform="translate(-55.85)"/><rect class="a" x="84.96" y="73.43" width="10.59" height="0.86" transform="translate(-75.39 113.18) rotate(-59)"/><rect class="a" x="74.01" y="68.57" width="0.86" height="10.59" transform="matrix(0.86, -0.52, 0.52, 0.86, -83.28, 48.98)"/></svg>