<svg xmlns="http://www.w3.org/2000/svg" viewBox="0 0 64.48 88.12"><title>19</title><polygon points="32.24 79.37 16.11 49.35 23.82 35.02 24.78 35.53 17.34 49.35 32.24 77.08 47.14 49.35 39.71 35.53 40.66 35.02 48.37 49.35 32.24 79.37"/><path d="M32.24,48.09,0,0H64.48ZM2,1.08,32.24,46.14,62.45,1.08Z"/><path d="M40.42,68.26a.61.61,0,0,1-1.22,0,.61.61,0,0,1,1.22,0Z"/><path d="M41.26,71.48a.62.62,0,0,1-.23-.83.61.61,0,0,1,1.07.6A.63.63,0,0,1,41.26,71.48Z"/><path d="M40,73.79a.61.61,0,1,1,.84-.23A.63.63,0,0,1,40,73.79Z"/><path d="M38.67,76.1a.61.61,0,0,1-.24-.83.61.61,0,1,1,1.07.59A.61.61,0,0,1,38.67,76.1Z"/><path d="M37.37,78.4a.61.61,0,0,1-.24-.83.63.63,0,0,1,.84-.23.62.62,0,0,1,.23.83A.6.6,0,0,1,37.37,78.4Z"/><path d="M36.07,80.71a.62.62,0,0,1-.24-.83.63.63,0,0,1,.84-.23.62.62,0,0,1,.23.83A.61.61,0,0,1,36.07,80.71Z"/><path d="M34.77,83a.61.61,0,1,1,.6-1.06.62.62,0,0,1,.23.83A.61.61,0,0,1,34.77,83Z"/><path d="M33.47,85.33a.61.61,0,1,1,.83-.23A.62.62,0,0,1,33.47,85.33Z"/><path d="M30.41,84.27a.61.61,0,0,1,.83.23.61.61,0,1,1-1.06.6A.6.6,0,0,1,30.41,84.27Z"/><path d="M29.11,82a.61.61,0,0,1,.83.23.62.62,0,0,1-.23.83.61.61,0,1,1-.6-1.06Z"/><path d="M27.81,79.65a.61.61,0,1,1,.6,1.06.61.61,0,0,1-.6-1.06Z"/><path d="M26.51,77.34a.62.62,0,0,1,.83.23.61.61,0,1,1-.83-.23Z"/><path d="M25.21,75a.61.61,0,1,1-.23.83A.61.61,0,0,1,25.21,75Z"/><path d="M23.91,72.72a.61.61,0,0,1,.6,1.07.61.61,0,0,1-.6-1.07Z"/><path d="M22.61,70.42a.61.61,0,1,1,.6,1.06.61.61,0,0,1-.6-1.06Z"/><path d="M25.27,68.26a.61.61,0,0,1-.61.61.61.61,0,0,1-.61-.61.62.62,0,0,1,.61-.61A.61.61,0,0,1,25.27,68.26Z"/><path d="M14,21.16a.6.6,0,0,1-.75-.39.6.6,0,1,1,1.14-.37A.59.59,0,0,1,14,21.16Z"/><path d="M14.77,23.51a.6.6,0,0,1-.75-.39.6.6,0,1,1,1.14-.37A.59.59,0,0,1,14.77,23.51Z"/><path d="M15.52,25.86a.6.6,0,0,1-.75-.39.61.61,0,0,1,.39-.76.6.6,0,0,1,.75.4A.59.59,0,0,1,15.52,25.86Z"/><path d="M16.28,28.21a.6.6,0,0,1-.76-.39.59.59,0,0,1,.39-.75.6.6,0,1,1,.37,1.14Z"/><path d="M17,30.56a.6.6,0,0,1-.76-.39.6.6,0,0,1,.39-.75A.6.6,0,1,1,17,30.56Z"/><path d="M17.78,32.91a.6.6,0,0,1-.76-.39.6.6,0,0,1,.39-.75.6.6,0,1,1,.37,1.14Z"/><path d="M18.53,35.26a.6.6,0,0,1-.76-.39.6.6,0,0,1,.39-.75.6.6,0,1,1,.37,1.14Z"/><path d="M19.28,37.61a.6.6,0,0,1-.76-.39.6.6,0,0,1,.39-.75.6.6,0,1,1,.37,1.14Z"/><path d="M20,40a.6.6,0,1,1-.37-1.14A.6.6,0,1,1,20,40Z"/><path d="M20.78,42.31a.6.6,0,1,1-.37-1.14.6.6,0,1,1,.37,1.14Z"/><path d="M21.53,44.66a.6.6,0,0,1-.76-.38.61.61,0,0,1,.39-.76.6.6,0,1,1,.37,1.14Z"/><path d="M22.28,47a.6.6,0,1,1-.37-1.15.6.6,0,0,1,.76.39A.61.61,0,0,1,22.28,47Z"/><path d="M23,49.37a.6.6,0,1,1-.37-1.15.6.6,0,0,1,.76.39A.61.61,0,0,1,23,49.37Z"/><path d="M23.78,51.72a.6.6,0,1,1-.37-1.15.6.6,0,0,1,.76.39A.61.61,0,0,1,23.78,51.72Z"/><path d="M24.53,54.07a.6.6,0,1,1,.39-.76A.61.61,0,0,1,24.53,54.07Z"/><path d="M25.28,56.42a.6.6,0,1,1,.39-.76A.6.6,0,0,1,25.28,56.42Z"/><path d="M26,58.77a.6.6,0,0,1-.76-.39A.6.6,0,1,1,26.42,58,.6.6,0,0,1,26,58.77Z"/><path d="M26.78,61.12a.6.6,0,0,1-.76-.39.6.6,0,1,1,1.15-.37A.6.6,0,0,1,26.78,61.12Z"/><path d="M27.53,63.47a.6.6,0,1,1,.39-.76A.61.61,0,0,1,27.53,63.47Z"/><path d="M28.28,65.82a.6.6,0,0,1-.76-.39.6.6,0,1,1,1.15-.37A.6.6,0,0,1,28.28,65.82Z"/><path d="M29,68.17a.61.61,0,0,1-.76-.39.6.6,0,1,1,.76.39Z"/><path d="M29.78,70.52a.61.61,0,0,1-.76-.39.6.6,0,1,1,.76.39Z"/><path d="M30.53,72.87a.6.6,0,0,1-.75-.39.59.59,0,0,1,.39-.75.6.6,0,0,1,.36,1.14Z"/><path d="M31.28,75.22a.6.6,0,0,1-.75-.39.59.59,0,0,1,.39-.75.6.6,0,0,1,.36,1.14Z"/><path d="M33.56,74.08a.6.6,0,1,1-.75.39A.6.6,0,0,1,33.56,74.08Z"/><path d="M34.31,71.73A.6.6,0,1,1,34,72.87a.59.59,0,0,1-.39-.75A.6.6,0,0,1,34.31,71.73Z"/><path d="M35.06,69.38a.6.6,0,1,1-.75.39A.59.59,0,0,1,35.06,69.38Z"/><path d="M35.81,67a.6.6,0,1,1-.36,1.14.6.6,0,0,1-.39-.76A.59.59,0,0,1,35.81,67Z"/><path d="M36.56,64.67a.61.61,0,0,1,.39.76.6.6,0,0,1-.75.39.6.6,0,0,1,.36-1.15Z"/><path d="M37.31,62.32A.6.6,0,0,1,37,63.47a.6.6,0,0,1,.36-1.15Z"/><path d="M38.06,60a.6.6,0,0,1,.39.76.59.59,0,0,1-.75.39A.6.6,0,0,1,38.06,60Z"/><path d="M38.82,57.62a.6.6,0,1,1-.76.39A.61.61,0,0,1,38.82,57.62Z"/><path d="M39.56,55.27A.59.59,0,0,1,40,56a.6.6,0,1,1-.39-.76Z"/><path d="M40.32,52.92A.6.6,0,0,1,40,54.07a.6.6,0,0,1-.39-.76A.61.61,0,0,1,40.32,52.92Z"/><path d="M41.07,50.57a.6.6,0,1,1-.76.39A.6.6,0,0,1,41.07,50.57Z"/><path d="M41.82,48.22a.6.6,0,0,1-.37,1.15.6.6,0,1,1,.37-1.15Z"/><path d="M42.57,45.87a.6.6,0,1,1-.76.39A.6.6,0,0,1,42.57,45.87Z"/><path d="M43.32,43.52a.61.61,0,0,1,.39.76.6.6,0,1,1-.39-.76Z"/><path d="M44.07,41.17a.6.6,0,0,1,.39.75.6.6,0,0,1-1.15-.36A.6.6,0,0,1,44.07,41.17Z"/><path d="M44.82,38.82a.6.6,0,0,1,.39.75.6.6,0,0,1-1.15-.36A.6.6,0,0,1,44.82,38.82Z"/><path d="M45.57,36.47a.6.6,0,1,1-.37,1.14.6.6,0,0,1-.39-.75A.6.6,0,0,1,45.57,36.47Z"/><path d="M46.32,34.12a.6.6,0,1,1-.76.39A.6.6,0,0,1,46.32,34.12Z"/><path d="M47.07,31.77a.6.6,0,0,1,.39.75.6.6,0,1,1-.39-.75Z"/><path d="M47.82,29.42a.6.6,0,0,1,.39.75.6.6,0,1,1-.39-.75Z"/><path d="M48.57,27.07a.59.59,0,0,1,.39.75.6.6,0,0,1-1.15-.36A.59.59,0,0,1,48.57,27.07Z"/><path d="M49.32,24.71a.6.6,0,1,1-.76.4A.61.61,0,0,1,49.32,24.71Z"/><path d="M50.07,22.36a.6.6,0,0,1-.37,1.15.6.6,0,1,1,.37-1.15Z"/><path d="M50.82,20a.6.6,0,1,1-.37,1.15A.6.6,0,0,1,50.82,20Z"/><path d="M32.84,87.52a.6.6,0,1,1-.6-.6A.6.6,0,0,1,32.84,87.52Z"/><path d="M22,68.26a.6.6,0,1,1-1.2,0,.6.6,0,0,1,1.2,0Z"/><path d="M43.67,68.26a.6.6,0,1,1-1.19,0,.6.6,0,0,1,1.19,0Z"/></svg>