<svg xmlns="http://www.w3.org/2000/svg" viewBox="0 0 153.27 87.81"><title>21c</title><path d="M152.16,48.43l-1.06,0c0-.62.06-1.25.06-1.88a37,37,0,0,0-4.08-16.9l.94-.49a38,38,0,0,1,4.19,17.39C152.21,47.14,152.19,47.8,152.16,48.43Z"/><path d="M114,80.5A33.85,33.85,0,0,1,95.39,75l.58-.89A32.94,32.94,0,0,0,146.4,40.65l1-.19A34,34,0,0,1,114,80.5Z"/><path d="M86.48,51.74a.79.79,0,1,1-.25-1.56.79.79,0,0,1,.25,1.56Z"/><path d="M87.25,54.83a.79.79,0,1,1-.43-1.52.79.79,0,0,1,.43,1.52Z"/><path d="M88.37,57.81a.79.79,0,1,1,.42-1A.79.79,0,0,1,88.37,57.81Z"/><path d="M89.82,60.65a.79.79,0,1,1-.77-1.39.79.79,0,0,1,.77,1.39Z"/><path d="M91.58,63.3a.79.79,0,0,1-1.11-.18.78.78,0,0,1,.2-1.11.79.79,0,0,1,1.09.19A.81.81,0,0,1,91.58,63.3Z"/><path d="M93.63,65.73a.79.79,0,1,1-1-1.18.79.79,0,0,1,1,1.18Z"/><path d="M96,67.92a.79.79,0,0,1-1.13.07.78.78,0,0,1,0-1.13A.79.79,0,0,1,96,67.92Z"/><path d="M98.49,69.83a.79.79,0,1,1-1.29-.91.79.79,0,0,1,1.29.91Z"/><path d="M101.24,71.44a.79.79,0,1,1-1.39-.76.79.79,0,0,1,1.39.76Z"/><path d="M104.15,72.73a.79.79,0,0,1-1,.45.79.79,0,1,1,1-.45Z"/><path d="M107.19,73.68a.79.79,0,1,1-1.52-.43.79.79,0,0,1,1.52.43Z"/><path d="M110.32,74.27a.79.79,0,1,1-1.57-.25.82.82,0,0,1,.91-.65A.81.81,0,0,1,110.32,74.27Z"/><path d="M114,75.41c-.71,0-1.43,0-2.14-.08l.13-1.79c.66,0,1.34.07,2,.07a27.11,27.11,0,1,0-27.1-27.1c0,.66,0,1.34.07,2l-1.79.13c0-.71-.08-1.43-.08-2.14A28.9,28.9,0,1,1,114,75.41Z"/><path d="M146.19,37.4a.79.79,0,0,1,1,.57.78.78,0,0,1-.58,1,.79.79,0,0,1-.4-1.53Z"/><path d="M145.16,34.32a.78.78,0,0,1,1,.47.77.77,0,0,1-.48,1,.8.8,0,0,1-1-.47A.82.82,0,0,1,145.16,34.32Z"/><path d="M143.83,31.37a.79.79,0,1,1,.68,1.43.82.82,0,0,1-1-.38A.8.8,0,0,1,143.83,31.37Z"/><path d="M142.22,28.55a.78.78,0,0,1,1.09.26.79.79,0,0,1-.27,1.1.79.79,0,0,1-.82-1.36Z"/><path d="M140.34,25.91a.79.79,0,1,1,.95,1.27.79.79,0,0,1-.95-1.27Z"/><path d="M138.22,23.45a.8.8,0,1,1,1.07,1.18.8.8,0,0,1-1.07-1.18Z"/><path d="M135.88,21.21a.78.78,0,0,1,1.12-.06.79.79,0,0,1,.05,1.13.79.79,0,1,1-1.17-1.07Z"/><path d="M133.33,19.21a.78.78,0,0,1,1.11-.17.79.79,0,0,1,.16,1.12.81.81,0,0,1-1.11.15A.79.79,0,0,1,133.33,19.21Z"/><path d="M130.59,17.46a.79.79,0,0,1,1.1-.27.78.78,0,0,1,.26,1.09.79.79,0,0,1-1.36-.82Z"/><path d="M127.71,16a.79.79,0,1,1,.37,1A.79.79,0,0,1,127.71,16Z"/><path d="M124.69,14.8a.79.79,0,1,1,1.49.54.81.81,0,0,1-1,.47A.8.8,0,0,1,124.69,14.8Z"/><path d="M121.57,13.91a.79.79,0,1,1,1.53.4.79.79,0,0,1-1.53-.4Z"/><path d="M85.55,65.1A34,34,0,0,1,114,12.52a35,35,0,0,1,6.05.53l-.19,1a33.69,33.69,0,0,0-5.86-.52A32.93,32.93,0,0,0,86.43,64.52Z"/><path d="M133.75,14.43a.79.79,0,1,1-.27-1.1A.79.79,0,0,1,133.75,14.43Z"/><path d="M136.37,16.2a.79.79,0,1,1-.18-1.11A.8.8,0,0,1,136.37,16.2Z"/><path d="M138.83,18.19a.8.8,0,0,1-1.11.09.81.81,0,0,1-.1-1.11.78.78,0,0,1,1.12-.1A.78.78,0,0,1,138.83,18.19Z"/><path d="M141.12,20.37a.78.78,0,0,1-1.11,0,.8.8,0,0,1,0-1.11.79.79,0,1,1,1.12,1.11Z"/><path d="M143.22,22.74a.79.79,0,1,1-1-1.2.79.79,0,1,1,1,1.2Z"/><path d="M145.12,25.28A.79.79,0,0,1,144.2,24a.79.79,0,1,1,.92,1.29Z"/><path d="M146.79,28a.79.79,0,0,1-1.08-.28A.81.81,0,0,1,146,26.6a.79.79,0,1,1,.81,1.36Z"/><path d="M130.75,13.35a36.26,36.26,0,0,0-7.39-2.8A37.4,37.4,0,0,0,112.12,9.4l-.06-1.05a38,38,0,0,1,19.17,4.05Z"/><path d="M92.83,70.93a3.17,3.17,0,1,1-3.17-3.17A3.17,3.17,0,0,1,92.83,70.93Z"/><circle cx="144.92" cy="15.67" r="2.64"/><path d="M150.93,11.5a1.85,1.85,0,1,1-1.85-1.85A1.85,1.85,0,0,1,150.93,11.5Z"/><path d="M153.27,8.37a1.06,1.06,0,1,1-2.11,0,1.06,1.06,0,0,1,2.11,0Z"/><circle cx="83.74" cy="76.84" r="2.11"/><path d="M31,75A31,31,0,0,1,10.37,20.88l1,1.11a29.38,29.38,0,1,0,6.49-4.4l-.66-1.33A31,31,0,1,1,31,75Z"/><path d="M31,70.36A26.53,26.53,0,0,1,5.33,49.91l.85-.2A25.46,25.46,0,1,0,47.91,25l.58-.65A26.32,26.32,0,0,1,31,70.36Z"/><polygon points="48.15 27.13 43.17 21.08 50.51 23.83 48.15 27.13"/><path d="M7.08,49.59a1.31,1.31,0,1,0-1,1.57A1.32,1.32,0,0,0,7.08,49.59Z"/><rect x="13.91" y="73.19" width="0.87" height="8.43"/><polygon points="12.4 80.24 14.43 87.81 16.46 80.24 12.4 80.24"/><rect x="13.91" y="12.09" width="0.87" height="46.26"/><path d="M14.34,2.62a1.31,1.31,0,1,1,1.31-1.31A1.31,1.31,0,0,1,14.34,2.62Z"/><path d="M14.34,6.65a1.31,1.31,0,1,1,1.31-1.31A1.31,1.31,0,0,1,14.34,6.65Z"/><path d="M14.34,10.68a1.31,1.31,0,1,1,1.31-1.31A1.31,1.31,0,0,1,14.34,10.68Z"/></svg>