<svg xmlns="http://www.w3.org/2000/svg" viewBox="0 0 73.27 73.18"><title>21</title><path d="M72.16,41.11l-1.06,0c0-.61.06-1.25.06-1.88a37,37,0,0,0-4.08-16.9L68,21.8a37.95,37.95,0,0,1,4.19,17.38C72.21,39.83,72.19,40.48,72.16,41.11Z"/><path d="M34,73.18a33.85,33.85,0,0,1-18.6-5.55l.58-.89A32.94,32.94,0,0,0,66.4,33.33l1-.18A34,34,0,0,1,34,73.18Z"/><path d="M6.48,44.43a.79.79,0,1,1-.25-1.57.8.8,0,0,1,.25,1.57Z"/><path d="M7.25,47.52A.79.79,0,1,1,6.82,46a.79.79,0,0,1,.43,1.53Z"/><path d="M8.37,50.5A.79.79,0,1,1,7.77,49a.8.8,0,0,1,1,.44A.81.81,0,0,1,8.37,50.5Z"/><path d="M9.82,53.33a.79.79,0,1,1-.77-1.39.81.81,0,0,1,1.07.32A.8.8,0,0,1,9.82,53.33Z"/><path d="M11.58,56a.79.79,0,1,1-.91-1.29A.79.79,0,0,1,11.58,56Z"/><path d="M13.63,58.41a.77.77,0,0,1-1.12,0,.78.78,0,0,1,.07-1.13.79.79,0,0,1,1.05,1.18Z"/><path d="M16,60.6a.78.78,0,0,1-1.13.07.77.77,0,0,1-.05-1.12A.79.79,0,0,1,16,60.6Z"/><path d="M18.49,62.51a.79.79,0,1,1-1.29-.91.79.79,0,0,1,1.29.91Z"/><path d="M21.24,64.12a.79.79,0,1,1-1.39-.76.79.79,0,0,1,1.39.76Z"/><path d="M24.15,65.41a.79.79,0,0,1-1,.45.8.8,0,0,1-.43-1,.81.81,0,0,1,1-.42A.8.8,0,0,1,24.15,65.41Z"/><path d="M27.19,66.36a.79.79,0,1,1-1.52-.43.79.79,0,0,1,1.52.43Z"/><path d="M30.32,67a.79.79,0,1,1-1.57-.25.79.79,0,0,1,1.57.25Z"/><path d="M34,68.09c-.71,0-1.43,0-2.14-.08L32,66.22c.66,0,1.34.07,2,.07a27.11,27.11,0,1,0-27.1-27.1c0,.67,0,1.34.07,2l-1.79.12c0-.71-.08-1.43-.08-2.14A28.9,28.9,0,1,1,34,68.09Z"/><path d="M66.19,30.08a.8.8,0,1,1,.4,1.54.82.82,0,0,1-1-.58A.8.8,0,0,1,66.19,30.08Z"/><path d="M65.16,27a.79.79,0,1,1,.54,1.49.82.82,0,0,1-1-.48A.8.8,0,0,1,65.16,27Z"/><path d="M63.83,24.05a.79.79,0,1,1,.68,1.43.79.79,0,0,1-.68-1.43Z"/><path d="M62.22,21.23A.79.79,0,0,1,63,22.59a.79.79,0,0,1-.82-1.36Z"/><path d="M60.34,18.59a.79.79,0,1,1,.95,1.27.79.79,0,0,1-.95-1.27Z"/><path d="M58.22,16.13a.8.8,0,1,1,1.07,1.18.8.8,0,0,1-1.07-1.18Z"/><path d="M55.88,13.89A.78.78,0,0,1,57,13.83a.8.8,0,0,1,0,1.13.79.79,0,0,1-1.17-1.07Z"/><path d="M53.33,11.89a.78.78,0,0,1,1.11-.17.79.79,0,0,1,.16,1.12.81.81,0,0,1-1.11.15A.79.79,0,0,1,53.33,11.89Z"/><path d="M50.59,10.14a.8.8,0,1,1,.28,1.08A.79.79,0,0,1,50.59,10.14Z"/><path d="M47.71,8.67a.79.79,0,1,1,1.42.68.79.79,0,0,1-1.42-.68Z"/><path d="M44.69,7.48a.77.77,0,0,1,1-.48.78.78,0,0,1,.47,1,.81.81,0,0,1-1,.47A.8.8,0,0,1,44.69,7.48Z"/><path d="M41.57,6.59a.79.79,0,1,1,.57,1A.8.8,0,0,1,41.57,6.59Z"/><path d="M5.55,57.79A34,34,0,0,1,40,5.74l-.19,1A32.93,32.93,0,0,0,6.43,57.21Z"/><path d="M53.75,7.11a.79.79,0,0,1-1.36-.81.79.79,0,1,1,1.36.81Z"/><path d="M56.37,8.88A.79.79,0,1,1,55.08,8a.79.79,0,1,1,1.29.91Z"/><path d="M58.83,10.87a.8.8,0,0,1-1.11.09.81.81,0,0,1-.1-1.11.78.78,0,0,1,1.12-.1A.78.78,0,0,1,58.83,10.87Z"/><path d="M61.12,13.06a.79.79,0,0,1-1.11,0,.79.79,0,1,1,1.11,0Z"/><path d="M63.22,15.43a.81.81,0,0,1-1.11-.1.8.8,0,0,1,.09-1.11.78.78,0,0,1,1.12.08A.8.8,0,0,1,63.22,15.43Z"/><path d="M65.12,18a.79.79,0,1,1,.19-1.11A.79.79,0,0,1,65.12,18Z"/><path d="M66.79,20.64A.79.79,0,1,1,66,19.29a.79.79,0,1,1,.81,1.35Z"/><path d="M50.75,6a36.26,36.26,0,0,0-7.39-2.8A37.4,37.4,0,0,0,32.12,2.08l-.06-1A38.23,38.23,0,0,1,43.62,2.21a37.6,37.6,0,0,1,7.61,2.88Z"/><path d="M12.83,63.61a3.17,3.17,0,1,1-3.17-3.17A3.17,3.17,0,0,1,12.83,63.61Z"/><circle cx="64.92" cy="8.35" r="2.64"/><path d="M70.93,4.18a1.85,1.85,0,1,1-1.85-1.84A1.85,1.85,0,0,1,70.93,4.18Z"/><path d="M73.27,1.06A1.06,1.06,0,1,1,72.21,0,1.06,1.06,0,0,1,73.27,1.06Z"/><circle cx="3.74" cy="69.52" r="2.11"/></svg>