<svg xmlns="http://www.w3.org/2000/svg" viewBox="0 0 76.3 88"><title>24</title><path d="M41.08,79.93,20.59,48.81,41.08,3.65l20.5,45.16ZM21.7,48.72,41.08,78.16,60.46,48.72,41.08,6Z"/><path d="M35.88.83a.55.55,0,1,0-1.09,0,.55.55,0,1,0,1.09,0Z"/><path d="M38.06.83a.57.57,0,0,0-.54-.59A.58.58,0,0,0,37,.83a.57.57,0,0,0,.55.58A.56.56,0,0,0,38.06.83Z"/><path d="M40.24.83A.57.57,0,0,0,39.7.24a.58.58,0,0,0-.55.59.57.57,0,0,0,.55.58A.56.56,0,0,0,40.24.83Z"/><polygon points="19.41 42.15 0 0 33.7 0 33.7 1.66 2.59 1.66 20.92 41.46 19.41 42.15"/><path d="M42.05,76.94a.58.58,0,1,0,.29.77A.57.57,0,0,0,42.05,76.94Z"/><path d="M43,74.84a.58.58,0,1,0-.48,1,.58.58,0,1,0,.48-1Z"/><path d="M44,72.73a.58.58,0,1,0,.29.77A.59.59,0,0,0,44,72.73Z"/><path d="M45,70.62a.59.59,0,0,0-.77.29.57.57,0,0,0,.29.77.58.58,0,0,0,.77-.28A.6.6,0,0,0,45,70.62Z"/><path d="M45.93,68.52a.6.6,0,0,0-.78.28.59.59,0,1,0,.78-.28Z"/><path d="M46.9,66.42a.58.58,0,1,0-.49,1,.59.59,0,0,0,.78-.28A.59.59,0,0,0,46.9,66.42Z"/><path d="M47.87,64.31a.59.59,0,0,0-.78.28.59.59,0,1,0,.78-.28Z"/><path d="M48.84,62.21a.58.58,0,1,0-.49,1,.6.6,0,0,0,.78-.28A.59.59,0,0,0,48.84,62.21Z"/><path d="M49.81,60.1a.59.59,0,0,0-.78.28.59.59,0,1,0,.78-.28Z"/><path d="M50.78,58a.58.58,0,1,0-.49,1,.59.59,0,0,0,.78-.28A.59.59,0,0,0,50.78,58Z"/><path d="M51.75,55.89a.59.59,0,0,0-.78.28.59.59,0,1,0,.78-.28Z"/><path d="M52.71,53.79a.57.57,0,0,0-.77.28.59.59,0,0,0,.29.77.58.58,0,1,0,.48-1.05Z"/><path d="M53.68,51.68a.58.58,0,0,0-.77.28.6.6,0,0,0,.29.78.58.58,0,1,0,.48-1.06Z"/><path d="M54.65,49.58a.58.58,0,1,0,.29.77A.57.57,0,0,0,54.65,49.58Z"/><path d="M55.62,47.48a.57.57,0,0,0-.77.28.58.58,0,0,0,1.06.49A.57.57,0,0,0,55.62,47.48Z"/><path d="M56.59,45.37a.58.58,0,1,0-.48,1.05.58.58,0,1,0,.48-1.05Z"/><path d="M57.56,43.27a.58.58,0,1,0-.48,1,.58.58,0,1,0,.48-1Z"/><path d="M25.09,44.32a.59.59,0,0,0,.29-.77.59.59,0,1,0-.29.77Z"/><path d="M26.06,46.42a.58.58,0,1,0-.78-.28A.59.59,0,0,0,26.06,46.42Z"/><path d="M27,48.53a.58.58,0,1,0-.49-1.06.6.6,0,0,0-.29.78A.59.59,0,0,0,27,48.53Z"/><path d="M28,50.63a.58.58,0,0,0-.49-1.05A.58.58,0,1,0,28,50.63Z"/><path d="M29,52.74a.58.58,0,1,0-.48-1.06.6.6,0,0,0-.29.78A.58.58,0,0,0,29,52.74Z"/><path d="M29.93,54.84a.58.58,0,1,0-.48-1.05.59.59,0,0,0-.29.77A.57.57,0,0,0,29.93,54.84Z"/><path d="M30.9,57a.58.58,0,1,0-.77-.29A.58.58,0,0,0,30.9,57Z"/><path d="M31.87,59.05a.58.58,0,1,0-.77-.28A.58.58,0,0,0,31.87,59.05Z"/><path d="M32.84,61.15a.57.57,0,0,0,.29-.77.58.58,0,0,0-1.06.49A.57.57,0,0,0,32.84,61.15Z"/><path d="M33.81,63.26A.58.58,0,1,0,33,63,.58.58,0,0,0,33.81,63.26Z"/><path d="M34.78,65.36a.58.58,0,1,0-.48-1,.58.58,0,1,0,.48,1Z"/><path d="M35.75,67.47A.59.59,0,0,0,36,66.7a.58.58,0,0,0-1.06.49A.58.58,0,0,0,35.75,67.47Z"/><path d="M36.72,69.57A.59.59,0,0,0,37,68.8a.58.58,0,1,0-.29.77Z"/><path d="M37.69,71.68a.59.59,0,0,0,.29-.77.6.6,0,0,0-.78-.29.59.59,0,0,0-.28.78A.58.58,0,0,0,37.69,71.68Z"/><path d="M38.66,73.78a.58.58,0,1,0-.78-.28A.59.59,0,0,0,38.66,73.78Z"/><path d="M39.63,75.89a.59.59,0,0,0,.29-.77.59.59,0,1,0-.29.77Z"/><path d="M40.6,78a.58.58,0,1,0-.78-.28A.59.59,0,0,0,40.6,78Z"/><polygon points="58.49 42.42 57.6 42.01 74.77 4.73 7.39 4.73 24.56 42.01 23.68 42.42 5.87 3.76 76.3 3.76 58.49 42.42"/><path d="M45.89,84.4a.57.57,0,0,0,.82,0,.58.58,0,0,0-.06-.82.59.59,0,0,0-.82,0A.58.58,0,0,0,45.89,84.4Z"/><path d="M44.37,86.12a.57.57,0,0,0,.82,0,.58.58,0,0,0-.88-.77A.56.56,0,0,0,44.37,86.12Z"/><path d="M42.84,87.85a.58.58,0,0,0,.82,0,.58.58,0,0,0-.87-.77A.58.58,0,0,0,42.84,87.85Z"/><polygon points="48.03 83.23 46.79 82.13 57.99 69.45 52.4 69.45 52.4 67.8 61.67 67.8 48.03 83.23"/><polygon points="41.08 86.16 27.74 71.07 36.15 71.07 36.15 72.04 29.91 72.04 41.08 84.68 52.26 72.04 46.02 72.04 46.02 71.07 54.42 71.07 41.08 86.16"/></svg>