<svg xmlns="http://www.w3.org/2000/svg" viewBox="0 0 59.07 87.82"><title>26</title><path d="M35.81,75.38a.81.81,0,1,1-1.08.31A.79.79,0,0,1,35.81,75.38Z"/><path d="M37.44,72.56a.78.78,0,0,1,.27,1.09.8.8,0,0,1-1.08.32.81.81,0,0,1-.27-1.1A.79.79,0,0,1,37.44,72.56Z"/><path d="M39.07,69.74a.78.78,0,0,1,.27,1.09.8.8,0,0,1-1.08.32.81.81,0,0,1-.27-1.1A.79.79,0,0,1,39.07,69.74Z"/><polygon points="29.54 87.81 24.22 78.59 25.57 77.81 29.54 84.69 33.51 77.81 34.86 78.59 29.54 87.81"/><path d="M20.82,71.15a.81.81,0,0,1-1.09-.32A.8.8,0,0,1,20,69.74a.79.79,0,0,1,1.08.31A.8.8,0,0,1,20.82,71.15Z"/><path d="M22.45,74a.81.81,0,0,1-1.09-.32.8.8,0,0,1,.27-1.09.79.79,0,0,1,1.08.31A.8.8,0,0,1,22.45,74Z"/><path d="M24.08,76.79A.81.81,0,0,1,23,76.47a.8.8,0,0,1,.27-1.09.79.79,0,0,1,1.08.31A.8.8,0,0,1,24.08,76.79Z"/><path d="M29.54,46.23,2.85,0H56.22ZM4.65,1,29.54,44.15,54.42,1Z"/><polygon points="29.54 77.94 0 26.78 19.21 26.78 19.21 27.82 1.8 27.82 29.54 75.86 57.27 27.82 39.85 27.82 39.85 26.78 59.07 26.78 29.54 77.94"/><polygon points="29.54 79.65 7.01 13.15 11.54 13.15 11.54 14.91 9.47 14.91 29.54 74.14 49.6 14.91 47.52 14.91 47.52 13.15 52.06 13.15 29.54 79.65"/></svg>