<svg xmlns="http://www.w3.org/2000/svg" viewBox="0 0 55.65 87.81"><title>30</title><polygon points="7.52 66.09 0 58.16 0.2 57.71 21.03 10.22 22.39 10.81 1.74 57.86 8.59 65.07 7.52 66.09"/><rect x="43.8" y="-1.89" width="1.47" height="51.96" transform="translate(-5.93 19.92) rotate(-23.69)"/><path d="M30.15,82.84,6,57.34l.12-.26L30.15,2.2,54.34,57.34l-.2.21ZM7,57.16,30.15,81.58,53.31,57.16,30.15,4.35Z"/><path d="M30.15,87.81l-19.65-20L30.15,32.49,49.79,67.76ZM11.57,67.61l18.58,19,18.57-19L30.15,34.27Z"/><polygon points="30.14 82.75 10.77 68.03 11.29 67.34 30.14 81.67 49 67.34 49.52 68.03 30.14 82.75"/><path d="M11,67.68c1.65.46,3.27,1,4.91,1.48s3.24,1.06,4.85,1.62c3.23,1.1,6.43,2.28,9.62,3.48h-.53c3.19-1.2,6.39-2.38,9.62-3.48,1.61-.56,3.23-1.09,4.85-1.62s3.26-1,4.91-1.48c-1.53.77-3.1,1.44-4.65,2.16s-3.13,1.36-4.7,2c-3.15,1.32-6.32,2.56-9.5,3.79l-.26.1-.27-.1c-3.18-1.23-6.35-2.47-9.5-3.79-1.57-.65-3.14-1.33-4.7-2S12.57,68.45,11,67.68Z"/></svg>