<svg xmlns="http://www.w3.org/2000/svg" viewBox="0 0 54.47 88.4"><title>31</title><rect x="40.91" y="11.87" width="0.97" height="17.71" transform="translate(-4.33 27.98) rotate(-35.61)"/><path d="M32.17,7.85a.72.72,0,0,1-1-.16.74.74,0,0,1,.17-1,.73.73,0,0,1,1,.17A.72.72,0,0,1,32.17,7.85Z"/><path d="M33.81,10.13a.72.72,0,1,1,.17-1A.72.72,0,0,1,33.81,10.13Z"/><path d="M35.45,12.42a.73.73,0,1,1-.85-1.18.72.72,0,0,1,1,.17A.73.73,0,0,1,35.45,12.42Z"/><polygon points="30.14 5.86 27.15 1.68 24.16 5.86 23.37 5.29 27.15 0 30.93 5.29 30.14 5.86"/><path d="M19.71,11.24a.73.73,0,0,1,.16,1,.72.72,0,0,1-1,.17.73.73,0,1,1,.85-1.18Z"/><path d="M21.34,9a.72.72,0,1,1-.84,1.17A.72.72,0,1,1,21.34,9Z"/><path d="M23,6.67a.73.73,0,0,1,.16,1,.72.72,0,0,1-1,.16.73.73,0,0,1-.17-1A.74.74,0,0,1,23,6.67Z"/><rect x="4.06" y="20.24" width="17.71" height="0.98" transform="translate(-11.46 19.17) rotate(-54.42)"/><path d="M21.76,79.94a.65.65,0,0,1-.91-.16.65.65,0,1,1,.91.16Z"/><path d="M23.18,82a.65.65,0,1,1,.16-.9A.63.63,0,0,1,23.18,82Z"/><path d="M24.6,84a.65.65,0,0,1-.74-1.07.63.63,0,0,1,.9.16A.65.65,0,0,1,24.6,84Z"/><path d="M26,86a.65.65,0,1,1,.15-.91A.65.65,0,0,1,26,86Z"/><path d="M29.19,85a.65.65,0,1,1-.91.16A.66.66,0,0,1,29.19,85Z"/><path d="M30.61,82.94a.65.65,0,1,1-.9.16A.63.63,0,0,1,30.61,82.94Z"/><path d="M32,80.91a.65.65,0,1,1-.9.16A.63.63,0,0,1,32,80.91Z"/><path d="M33.46,78.87a.67.67,0,0,1,.16.91.65.65,0,0,1-.91.16.66.66,0,0,1-.16-.91A.66.66,0,0,1,33.46,78.87Z"/><path d="M32.71,75.13a.66.66,0,0,1,.91.16.65.65,0,0,1-1.07.75A.66.66,0,0,1,32.71,75.13Z"/><path d="M31.29,73.1a.65.65,0,1,1-.16.9A.63.63,0,0,1,31.29,73.1Z"/><path d="M29.87,71.06a.65.65,0,0,1,.74,1.07.65.65,0,0,1-.74-1.07Z"/><path d="M28.44,69a.65.65,0,1,1,.75,1.07A.65.65,0,0,1,28.44,69Z"/><path d="M25.28,70.1a.65.65,0,0,1-.16-.91.65.65,0,1,1,.16.91Z"/><path d="M23.86,72.13a.65.65,0,1,1,.9-.16A.65.65,0,0,1,23.86,72.13Z"/><path d="M22.43,74.16a.65.65,0,1,1,.75-1.06.63.63,0,0,1,.16.9A.65.65,0,0,1,22.43,74.16Z"/><path d="M21,76.2a.67.67,0,0,1-.16-.91.66.66,0,0,1,.91-.16A.65.65,0,0,1,21,76.2Z"/><polygon points="52.69 40.94 39.1 40.94 39.1 39.28 49.46 39.28 27.15 8.13 4.85 39.28 15.2 39.28 15.2 40.94 1.63 40.94 27.15 5.28 52.69 40.94"/><path d="M3.18,36.23a.61.61,0,0,1,.71,1,.61.61,0,1,1-.71-1Z"/><path d="M1.76,34.24a.61.61,0,1,1,.71,1,.6.6,0,0,1-.85-.14A.61.61,0,0,1,1.76,34.24Z"/><path d="M3.68,32.29a.61.61,0,0,1-.61.61.61.61,0,0,1-.62-.61.62.62,0,0,1,.62-.62A.61.61,0,0,1,3.68,32.29Z"/><path d="M5.81,32.29a.61.61,0,0,1-.61.61.61.61,0,0,1-.62-.61.62.62,0,0,1,.62-.62A.61.61,0,0,1,5.81,32.29Z"/><path d="M7.94,32.29a.62.62,0,0,1-1.23,0,.62.62,0,1,1,1.23,0Z"/><path d="M8.16,43.18a.61.61,0,0,1,.71,1,.61.61,0,1,1-.71-1Z"/><path d="M6.7,41.15a.61.61,0,1,1-.14.85A.6.6,0,0,1,6.7,41.15Z"/><path d="M46.9,42.14a.61.61,0,1,1,.71-1,.61.61,0,1,1-.71,1Z"/><path d="M45.44,44.18a.61.61,0,0,1-.14-.86.62.62,0,0,1,.86-.14.63.63,0,0,1,.14.86A.62.62,0,0,1,45.44,44.18Z"/><path d="M47.61,32.29a.61.61,0,0,1-.62.61.61.61,0,0,1-.61-.61.61.61,0,0,1,.61-.62A.62.62,0,0,1,47.61,32.29Z"/><path d="M49.73,32.29a.61.61,0,0,1-.61.61.61.61,0,0,1-.62-.61.62.62,0,0,1,.62-.62A.61.61,0,0,1,49.73,32.29Z"/><path d="M51.86,32.29a.62.62,0,0,1-1.23,0,.62.62,0,1,1,1.23,0Z"/><path d="M51.84,35.24a.61.61,0,0,1,.71-1,.62.62,0,0,1,.15.86A.61.61,0,0,1,51.84,35.24Z"/><path d="M50.42,37.22a.61.61,0,1,1,.85-.14A.6.6,0,0,1,50.42,37.22Z"/><path d="M1.27,32.43a.64.64,0,0,1-.64.63A.63.63,0,0,1,0,32.43a.64.64,0,0,1,.63-.64A.64.64,0,0,1,1.27,32.43Z"/><path d="M54.47,32.29a.64.64,0,0,1-.64.63.63.63,0,0,1-.63-.63.64.64,0,0,1,.63-.64A.64.64,0,0,1,54.47,32.29Z"/><path d="M27.87,67.3a.64.64,0,0,1-.64.63.63.63,0,1,1,0-1.26A.64.64,0,0,1,27.87,67.3Z"/><path d="M27.87,87.77a.64.64,0,0,1-.64.63.63.63,0,0,1-.63-.63.64.64,0,0,1,.63-.64A.64.64,0,0,1,27.87,87.77Z"/><path d="M20.71,77.54a.64.64,0,1,1-.63-.64A.64.64,0,0,1,20.71,77.54Z"/><path d="M35,77.54a.64.64,0,0,1-.64.63.64.64,0,1,1,.64-.63Z"/><polygon points="27.15 80.05 1.63 44.39 15.2 44.39 15.2 46.04 4.85 46.04 27.15 77.2 49.46 46.04 39.1 46.04 39.1 44.39 52.69 44.39 27.15 80.05"/><path d="M6.71,53a.62.62,0,1,1,1.23,0,.62.62,0,0,1-1.23,0Z"/><path d="M4.58,53a.62.62,0,0,1,.62-.62.61.61,0,0,1,.61.62.61.61,0,0,1-.61.61A.61.61,0,0,1,4.58,53Z"/><path d="M2.45,53a.62.62,0,0,1,.62-.62.61.61,0,0,1,.61.62.61.61,0,0,1-.61.61A.61.61,0,0,1,2.45,53Z"/><path d="M2.47,50.08a.62.62,0,0,1,.15.86.61.61,0,0,1-.86.14.6.6,0,0,1-.14-.85A.61.61,0,0,1,2.47,50.08Z"/><path d="M3.89,48.1a.61.61,0,0,1-.71,1,.61.61,0,1,1,.71-1Z"/><path d="M7.42,43.18a.63.63,0,0,1,.14.86.62.62,0,0,1-.86.14.61.61,0,0,1-.14-.86A.62.62,0,0,1,7.42,43.18Z"/><path d="M8.87,41.15a.61.61,0,1,1-.71,1,.61.61,0,1,1,.71-1Z"/><path d="M46.16,42.14A.61.61,0,0,1,45.3,42a.6.6,0,0,1,.14-.85.61.61,0,1,1,.72,1Z"/><path d="M47.61,44.18a.61.61,0,1,1-.71-1,.61.61,0,0,1,.71,1Z"/><path d="M51.13,49.1a.61.61,0,1,1,.14-.86A.61.61,0,0,1,51.13,49.1Z"/><path d="M52.55,51.08a.6.6,0,0,1-.85-.14.61.61,0,0,1,.14-.86.63.63,0,0,1,.86.14A.62.62,0,0,1,52.55,51.08Z"/><path d="M50.63,53a.62.62,0,1,1,1.23,0,.62.62,0,0,1-1.23,0Z"/><path d="M48.5,53a.62.62,0,0,1,.62-.62.61.61,0,0,1,.61.62.61.61,0,0,1-.61.61A.61.61,0,0,1,48.5,53Z"/><path d="M46.38,53a.61.61,0,0,1,.61-.62.62.62,0,0,1,.62.62.61.61,0,0,1-.62.61A.61.61,0,0,1,46.38,53Z"/><path d="M1.27,52.9a.64.64,0,0,0-.64-.64A.64.64,0,0,0,0,52.9a.63.63,0,0,0,.63.63A.64.64,0,0,0,1.27,52.9Z"/><path d="M54.47,53a.64.64,0,0,0-.64-.63.63.63,0,0,0,0,1.26A.64.64,0,0,0,54.47,53Z"/></svg>