<svg xmlns="http://www.w3.org/2000/svg" viewBox="0 0 54.97 87.81"><title>33</title><path d="M55,56.67H0L27.48,9.06Zm-53.27-1H53.27L27.48,11Z"/><path d="M10.62,58a.59.59,0,0,1-.8-.22.58.58,0,0,1,1-.58A.59.59,0,0,1,10.62,58Z"/><path d="M11.68,59.84a.58.58,0,1,1-.58-1,.58.58,0,0,1,.58,1Z"/><path d="M12.74,61.67a.58.58,0,1,1-.59-1,.59.59,0,0,1,.8.21A.57.57,0,0,1,12.74,61.67Z"/><path d="M13.8,63.51a.59.59,0,0,1-.8-.21.58.58,0,1,1,.8.21Z"/><path d="M14.85,65.34a.58.58,0,1,1,.22-.79A.58.58,0,0,1,14.85,65.34Z"/><path d="M15.91,67.18a.58.58,0,0,1-.58-1,.58.58,0,1,1,.58,1Z"/><path d="M17,69a.57.57,0,0,1-.79-.21.58.58,0,1,1,1-.58A.58.58,0,0,1,17,69Z"/><path d="M18,70.85a.58.58,0,0,1-.58-1,.58.58,0,0,1,.58,1Z"/><path d="M19.09,72.68a.58.58,0,1,1,.21-.79A.57.57,0,0,1,19.09,72.68Z"/><path d="M20.15,74.52a.59.59,0,0,1-.8-.22.58.58,0,0,1,1-.58A.59.59,0,0,1,20.15,74.52Z"/><path d="M21.21,76.35a.58.58,0,1,1-.58-1,.58.58,0,0,1,.58,1Z"/><path d="M22.27,78.19a.59.59,0,0,1-.8-.22.58.58,0,0,1,1-.58A.59.59,0,0,1,22.27,78.19Z"/><path d="M23.33,80a.59.59,0,0,1-.8-.21.58.58,0,1,1,1-.58A.58.58,0,0,1,23.33,80Z"/><path d="M24.39,81.86a.59.59,0,0,1-.8-.22.58.58,0,0,1,.21-.79.59.59,0,0,1,.8.21A.59.59,0,0,1,24.39,81.86Z"/><path d="M25.44,83.69a.58.58,0,0,1-.79-.21.58.58,0,1,1,1-.58A.58.58,0,0,1,25.44,83.69Z"/><path d="M26.5,85.53a.58.58,0,0,1-.58-1,.58.58,0,1,1,.58,1Z"/><path d="M29.05,84.52a.58.58,0,0,1-.58,1,.58.58,0,1,1,.58-1Z"/><path d="M30.11,82.68a.58.58,0,1,1-.8.22A.59.59,0,0,1,30.11,82.68Z"/><path d="M31.17,80.85a.58.58,0,0,1-.59,1,.59.59,0,0,1-.21-.8A.59.59,0,0,1,31.17,80.85Z"/><path d="M32.23,79a.59.59,0,0,1,.21.8.59.59,0,0,1-.8.21.58.58,0,0,1-.21-.79A.59.59,0,0,1,32.23,79Z"/><path d="M33.28,77.18a.58.58,0,0,1,.22.79.58.58,0,1,1-1-.58A.58.58,0,0,1,33.28,77.18Z"/><path d="M34.34,75.34a.58.58,0,1,1-.58,1,.58.58,0,0,1,.58-1Z"/><path d="M35.4,73.51a.57.57,0,0,1,.21.79.58.58,0,0,1-.79.22.59.59,0,0,1-.21-.8A.57.57,0,0,1,35.4,73.51Z"/><path d="M36.46,71.67a.58.58,0,0,1-.58,1,.57.57,0,0,1-.21-.79A.58.58,0,0,1,36.46,71.67Z"/><path d="M37.52,69.84a.58.58,0,1,1-.8.21A.59.59,0,0,1,37.52,69.84Z"/><path d="M38.58,68a.59.59,0,0,1,.21.8.58.58,0,0,1-1-.58A.59.59,0,0,1,38.58,68Z"/><path d="M39.64,66.17a.58.58,0,0,1-.58,1,.58.58,0,1,1,.58-1Z"/><path d="M40.7,64.34a.57.57,0,0,1,.21.79.58.58,0,0,1-1-.58A.58.58,0,0,1,40.7,64.34Z"/><path d="M41.76,62.5a.59.59,0,0,1,.21.8.59.59,0,0,1-.8.21.58.58,0,1,1,.59-1Z"/><path d="M42.81,60.67a.58.58,0,1,1-.79.21A.58.58,0,0,1,42.81,60.67Z"/><path d="M43.87,58.83a.58.58,0,1,1-.58,1,.58.58,0,0,1,.58-1Z"/><path d="M44.93,57a.58.58,0,0,1,.22.79.58.58,0,1,1-1-.58A.57.57,0,0,1,44.93,57Z"/><path d="M4.1,46.71a.58.58,0,0,1,.58,1,.58.58,0,1,1-.58-1Z"/><path d="M3,44.79a.59.59,0,0,1,.8.22.58.58,0,0,1-1,.58A.59.59,0,0,1,3,44.79Z"/><path d="M1.88,42.87a.59.59,0,0,1,.8.22.58.58,0,0,1-1,.58A.59.59,0,0,1,1.88,42.87Z"/><path d="M4.08,41.09a.59.59,0,0,1-1.17,0,.59.59,0,1,1,1.17,0Z"/><path d="M6.29,41.09a.58.58,0,0,1-1.16,0,.58.58,0,1,1,1.16,0Z"/><path d="M8.51,41.09a.59.59,0,0,1-1.17,0,.59.59,0,1,1,1.17,0Z"/><path d="M47.63,41.09a.59.59,0,0,1-.59.58.58.58,0,0,1-.58-.58A.59.59,0,0,1,47,40.5.6.6,0,0,1,47.63,41.09Z"/><path d="M49.84,41.09a.58.58,0,0,1-1.16,0,.58.58,0,1,1,1.16,0Z"/><path d="M52.06,41.09a.59.59,0,0,1-1.17,0,.59.59,0,1,1,1.17,0Z"/><path d="M52.5,43.88a.58.58,0,1,1,.8-.21A.59.59,0,0,1,52.5,43.88Z"/><path d="M51.4,45.8a.58.58,0,0,1-.22-.79.58.58,0,1,1,1,.58A.58.58,0,0,1,51.4,45.8Z"/><path d="M50.29,47.72a.57.57,0,0,1-.21-.79.58.58,0,0,1,.79-.22.59.59,0,0,1,.21.8A.57.57,0,0,1,50.29,47.72Z"/><polygon points="27.48 69.26 17.57 56.69 18.88 55.66 27.48 66.56 36.09 55.66 37.41 56.69 27.48 69.26"/><path d="M44.37,37.19a.58.58,0,1,1-.58-.59A.58.58,0,0,1,44.37,37.19Z"/><path d="M46.57,37.19A.58.58,0,1,1,46,36.6.58.58,0,0,1,46.57,37.19Z"/><path d="M47,34.42a.58.58,0,0,1,.79.22.57.57,0,0,1-.21.79.57.57,0,0,1-.79-.21A.59.59,0,0,1,47,34.42Z"/><path d="M45.93,32.54a.58.58,0,1,1-.21.79A.57.57,0,0,1,45.93,32.54Z"/><path d="M44.84,30.65a.58.58,0,1,1-.21.8A.59.59,0,0,1,44.84,30.65Z"/><path d="M43.75,28.76a.59.59,0,0,1,.8.22.58.58,0,0,1-1,.58A.59.59,0,0,1,43.75,28.76Z"/><path d="M42.66,26.88a.59.59,0,0,1,.8.21.58.58,0,1,1-.8-.21Z"/><path d="M41.57,25a.58.58,0,1,1,.58,1,.58.58,0,0,1-.58-1Z"/><path d="M40.48,23.1a.58.58,0,1,1,.58,1,.58.58,0,0,1-.79-.21A.59.59,0,0,1,40.48,23.1Z"/><path d="M39.39,21.21a.59.59,0,0,1,.8.22.58.58,0,0,1-1,.58A.59.59,0,0,1,39.39,21.21Z"/><path d="M38.3,19.33a.58.58,0,1,1,.58,1,.58.58,0,0,1-.58-1Z"/><path d="M37.21,17.44a.59.59,0,0,1,.8.21.58.58,0,1,1-1,.58A.58.58,0,0,1,37.21,17.44Z"/><path d="M36.12,15.55a.58.58,0,1,1-.21.8A.59.59,0,0,1,36.12,15.55Z"/><path d="M35,13.67a.58.58,0,1,1-.21.79A.58.58,0,0,1,35,13.67Z"/><path d="M33.94,11.78a.59.59,0,0,1,.8.21.58.58,0,1,1-1,.58A.58.58,0,0,1,33.94,11.78Z"/><path d="M32.85,9.89a.58.58,0,0,1,.59,1,.58.58,0,0,1-.59-1Z"/><path d="M31.76,8a.59.59,0,0,1,.8.22.58.58,0,0,1-.21.79.59.59,0,0,1-.8-.21A.59.59,0,0,1,31.76,8Z"/><path d="M30.68,6.12a.57.57,0,0,1,.79.21.57.57,0,0,1-.21.79.59.59,0,0,1-.8-.21A.58.58,0,0,1,30.68,6.12Z"/><path d="M29.59,4.23a.58.58,0,0,1,.79.21.58.58,0,1,1-1,.58A.58.58,0,0,1,29.59,4.23Z"/><path d="M28.5,2.34a.58.58,0,1,1-.22.8A.59.59,0,0,1,28.5,2.34Z"/><path d="M25.89,3.35a.58.58,0,1,1,.8-.21A.59.59,0,0,1,25.89,3.35Z"/><path d="M24.8,5.24a.59.59,0,0,1-.21-.8.58.58,0,0,1,1,.58A.59.59,0,0,1,24.8,5.24Z"/><path d="M23.71,7.12a.57.57,0,0,1-.21-.79.57.57,0,0,1,.79-.21.58.58,0,0,1,.22.79A.59.59,0,0,1,23.71,7.12Z"/><path d="M22.62,9a.58.58,0,0,1,.58-1,.58.58,0,1,1-.58,1Z"/><path d="M21.53,10.9a.59.59,0,0,1-.21-.8.58.58,0,0,1,.79-.21.58.58,0,1,1-.58,1Z"/><path d="M20.44,12.79a.59.59,0,0,1-.21-.8.58.58,0,0,1,1,.58A.59.59,0,0,1,20.44,12.79Z"/><path d="M19.35,14.67a.58.58,0,1,1,.59-1,.58.58,0,1,1-.59,1Z"/><path d="M18.26,16.56a.58.58,0,0,1-.21-.79.58.58,0,1,1,.21.79Z"/><path d="M17.17,18.45a.59.59,0,0,1-.21-.8.58.58,0,1,1,.21.8Z"/><path d="M16.08,20.34a.6.6,0,0,1-.21-.8.58.58,0,1,1,.21.8Z"/><path d="M15,22.22a.58.58,0,0,1-.21-.79.58.58,0,1,1,.21.79Z"/><path d="M13.9,24.11a.58.58,0,0,1,.59-1,.58.58,0,1,1-.59,1Z"/><path d="M12.82,26a.58.58,0,1,1,.58-1,.58.58,0,0,1-.58,1Z"/><path d="M11.73,27.88a.58.58,0,0,1-.22-.79.59.59,0,0,1,.8-.21.58.58,0,0,1-.58,1Z"/><path d="M10.64,29.77a.58.58,0,0,1-.22-.79.58.58,0,1,1,1,.58A.58.58,0,0,1,10.64,29.77Z"/><path d="M9.55,31.66a.58.58,0,1,1,.79-.21A.58.58,0,0,1,9.55,31.66Z"/><path d="M8.46,33.55a.58.58,0,1,1,.58-1,.58.58,0,0,1-.58,1Z"/><path d="M7.37,35.43a.58.58,0,0,1-.22-.79.58.58,0,1,1,1,.58A.57.57,0,0,1,7.37,35.43Z"/><path d="M9.56,37.19A.58.58,0,1,1,9,36.6.58.58,0,0,1,9.56,37.19Z"/><path d="M11.76,37.19a.58.58,0,1,1-.58-.59A.58.58,0,0,1,11.76,37.19Z"/><path d="M28.07,67.91a.59.59,0,1,1-1.17,0,.59.59,0,1,1,1.17,0Z"/><path d="M28.07.59a.59.59,0,1,1-1.17,0,.59.59,0,1,1,1.17,0Z"/><path d="M49.2,37.19a.59.59,0,0,1-.59.59.6.6,0,0,1-.59-.59.59.59,0,0,1,.59-.59A.58.58,0,0,1,49.2,37.19Z"/><path d="M7,37.18a.6.6,0,0,1-.59.6.59.59,0,0,1-.59-.6.58.58,0,0,1,.59-.58A.59.59,0,0,1,7,37.18Z"/><path d="M28.07,87.22a.59.59,0,1,1-.59-.59A.59.59,0,0,1,28.07,87.22Z"/><path d="M1.44,41.09a.59.59,0,0,1-1.18,0,.58.58,0,0,1,.59-.59A.58.58,0,0,1,1.44,41.09Z"/><path d="M54.71,41.09a.6.6,0,0,1-.6.59.59.59,0,0,1-.58-.59.58.58,0,0,1,.58-.59A.59.59,0,0,1,54.71,41.09Z"/></svg>