<svg xmlns="http://www.w3.org/2000/svg" viewBox="0 0 44.86 92.69"><title>35</title><path d="M22.43,82.21l-22.1-38,22.1-38,22.09,38Zm-21.16-38L22.43,80.6,43.59,44.17,22.43,7.74Z"/><polygon points="22.43 82.56 0 52.35 2.3 47.52 3.54 48.12 1.6 52.19 22.43 80.25 43.26 52.19 41.31 48.12 42.55 47.52 44.86 52.35 22.43 82.56"/><polygon points="3.29 48 2.56 47.65 22.43 5.99 42.3 47.65 41.57 47.99 22.43 7.87 3.29 48"/><path d="M36.35,63.26a.5.5,0,0,1-.24-.68A.51.51,0,1,1,37,63,.5.5,0,0,1,36.35,63.26Z"/><path d="M35.53,65a.5.5,0,0,1-.24-.68.51.51,0,1,1,.92.45A.5.5,0,0,1,35.53,65Z"/><path d="M34.71,66.66a.51.51,0,0,1-.24-.68.5.5,0,0,1,.68-.23.51.51,0,1,1-.44.91Z"/><path d="M33.89,68.36a.51.51,0,0,1-.24-.68.52.52,0,1,1,.93.45A.51.51,0,0,1,33.89,68.36Z"/><path d="M33.08,70.07a.51.51,0,0,1-.24-.69.52.52,0,0,1,.68-.24.53.53,0,0,1,.24.69A.52.52,0,0,1,33.08,70.07Z"/><path d="M32.26,71.76a.51.51,0,1,1,.68-.23A.5.5,0,0,1,32.26,71.76Z"/><path d="M31.44,73.46a.51.51,0,0,1-.24-.68.51.51,0,1,1,.24.68Z"/><path d="M30.62,75.17a.53.53,0,0,1-.24-.69.51.51,0,0,1,.69-.23.5.5,0,0,1,.23.68A.51.51,0,0,1,30.62,75.17Z"/><path d="M29.8,76.87a.51.51,0,0,1-.23-.68.5.5,0,0,1,.68-.24.51.51,0,0,1,.24.68A.52.52,0,0,1,29.8,76.87Z"/><path d="M29,78.57a.51.51,0,1,1,.44-.92.51.51,0,1,1-.44.92Z"/><path d="M28.17,80.27a.52.52,0,0,1-.24-.68.51.51,0,1,1,.92.44A.52.52,0,0,1,28.17,80.27Z"/><path d="M27.35,82a.51.51,0,1,1,.45-.92.5.5,0,0,1,.23.68A.51.51,0,0,1,27.35,82Z"/><path d="M26.54,83.67A.5.5,0,0,1,26.3,83a.5.5,0,0,1,.68-.24.51.51,0,1,1-.44.92Z"/><path d="M25.72,85.37a.51.51,0,1,1,.68-.24A.52.52,0,0,1,25.72,85.37Z"/><path d="M24.9,87.07a.52.52,0,0,1-.24-.68.51.51,0,1,1,.92.44A.51.51,0,0,1,24.9,87.07Z"/><path d="M24.08,88.77a.51.51,0,1,1,.45-.92.51.51,0,0,1-.45.92Z"/><path d="M23.26,90.47a.5.5,0,0,1-.23-.68.51.51,0,0,1,.92.44A.53.53,0,0,1,23.26,90.47Z"/><path d="M21.15,89.55a.5.5,0,0,1,.68.24.5.5,0,0,1-.24.68.51.51,0,1,1-.44-.92Z"/><path d="M20.33,87.85a.51.51,0,0,1,.45.92.51.51,0,0,1-.68-.24A.5.5,0,0,1,20.33,87.85Z"/><path d="M19.52,86.15a.5.5,0,0,1,.68.24.51.51,0,1,1-.92.44A.5.5,0,0,1,19.52,86.15Z"/><path d="M18.7,84.45a.5.5,0,0,1,.68.23.51.51,0,0,1-.24.68.51.51,0,1,1-.44-.91Z"/><path d="M17.88,82.74a.52.52,0,0,1,.68.24.5.5,0,0,1-.24.68.5.5,0,0,1-.68-.24A.52.52,0,0,1,17.88,82.74Z"/><path d="M17.06,81a.52.52,0,0,1,.68.24.5.5,0,0,1-.24.68.51.51,0,0,1-.68-.24A.52.52,0,0,1,17.06,81Z"/><path d="M16.24,79.34a.51.51,0,0,1,.68.24.5.5,0,0,1-.23.68.51.51,0,1,1-.45-.92Z"/><path d="M15.42,77.64a.53.53,0,0,1,.69.24.52.52,0,0,1-.24.68.51.51,0,0,1-.45-.92Z"/><path d="M14.61,75.94a.51.51,0,0,1,.68.24.51.51,0,1,1-.92.44A.51.51,0,0,1,14.61,75.94Z"/><path d="M13.79,74.24a.51.51,0,0,1,.44.92.51.51,0,1,1-.44-.92Z"/><path d="M13,72.54a.5.5,0,0,1,.68.24.51.51,0,0,1-.24.68.51.51,0,1,1-.44-.92Z"/><path d="M12.15,70.83a.53.53,0,0,1,.69.24.52.52,0,0,1-.93.45A.53.53,0,0,1,12.15,70.83Z"/><path d="M11.34,69.13a.52.52,0,0,1,.68.24.51.51,0,0,1-.24.68.5.5,0,0,1-.68-.23A.51.51,0,0,1,11.34,69.13Z"/><path d="M10.52,67.43a.51.51,0,0,1,.44.92.51.51,0,1,1-.44-.92Z"/><path d="M9.7,65.73a.52.52,0,0,1,.68.24.51.51,0,1,1-.68-.24Z"/><path d="M8.88,64a.51.51,0,1,1-.24.68A.52.52,0,0,1,8.88,64Z"/><path d="M8.06,62.33a.5.5,0,0,1,.68.24.5.5,0,0,1-.24.68.51.51,0,1,1-.44-.92Z"/><path d="M24.67,70.94a2.24,2.24,0,1,1-2.24-2.24A2.24,2.24,0,0,1,24.67,70.94Z"/><path d="M24.67,2.24A2.24,2.24,0,1,1,22.43,0,2.24,2.24,0,0,1,24.67,2.24Z"/><path d="M22.92,92.21a.49.49,0,0,1-1,0,.49.49,0,0,1,1,0Z"/></svg>