<svg xmlns="http://www.w3.org/2000/svg" viewBox="0 0 55.64 92.66"><title>36</title><polygon points="48.48 46.54 27.82 2.31 7.16 46.54 6.28 46.12 27.82 0 49.36 46.12 48.48 46.54"/><path d="M28.35,82.34a.54.54,0,1,1-.53-.54A.54.54,0,0,1,28.35,82.34Z"/><path d="M27.82,92.66l-.44-.94-7-15L0,59.57,27.82,0,55.64,59.57,35.27,76.7Zm-6.76-16.6a19.08,19.08,0,0,1,1.25,2.5l5.51,11.8L34.56,76,54.44,59.3l-26.62-57L1.2,59.3,21.08,76Z"/><path d="M7.69,48.21a.56.56,0,0,1-.51-1,.55.55,0,0,1,.75.24A.56.56,0,0,1,7.69,48.21Z"/><path d="M8.66,50.08a.55.55,0,0,1-.75-.24.54.54,0,0,1,.24-.74.55.55,0,1,1,.51,1Z"/><path d="M9.62,52a.54.54,0,0,1-.74-.24.55.55,0,1,1,1-.51A.54.54,0,0,1,9.62,52Z"/><path d="M10.59,53.84a.56.56,0,0,1-.51-1,.56.56,0,1,1,.51,1Z"/><path d="M11.56,55.71a.55.55,0,1,1-.51-1,.55.55,0,1,1,.51,1Z"/><path d="M12.53,57.59a.56.56,0,1,1,.24-.75A.56.56,0,0,1,12.53,57.59Z"/><path d="M13.5,59.47a.56.56,0,0,1-.51-1,.55.55,0,0,1,.75.24A.56.56,0,0,1,13.5,59.47Z"/><path d="M14.47,61.34a.55.55,0,1,1,.24-.75A.56.56,0,0,1,14.47,61.34Z"/><path d="M15.44,63.22a.56.56,0,0,1-.75-.24.55.55,0,0,1,.24-.75.56.56,0,1,1,.51,1Z"/><path d="M16.41,65.1a.56.56,0,0,1-.75-.24.56.56,0,0,1,1-.51A.56.56,0,0,1,16.41,65.1Z"/><path d="M17.37,67a.54.54,0,0,1-.74-.24.56.56,0,0,1,.24-.75.55.55,0,0,1,.5,1Z"/><path d="M18.34,68.85a.56.56,0,1,1-.51-1,.56.56,0,0,1,.75.24A.55.55,0,0,1,18.34,68.85Z"/><path d="M19.31,70.73a.56.56,0,1,1-.51-1,.56.56,0,0,1,.51,1Z"/><path d="M20.28,72.6a.55.55,0,0,1-.75-.24.56.56,0,1,1,.75.24Z"/><path d="M21.25,74.48a.56.56,0,1,1,.24-.75A.56.56,0,0,1,21.25,74.48Z"/><path d="M23.37,77.28a.55.55,0,1,1-.73-.83.55.55,0,0,1,.78,0A.54.54,0,0,1,23.37,77.28Z"/><path d="M25,79.09A.56.56,0,1,1,25,78.3.56.56,0,0,1,25,79.09Z"/><path d="M26.55,80.89a.56.56,0,1,1-.74-.83.57.57,0,0,1,.79,0A.55.55,0,0,1,26.55,80.89Z"/><path d="M29.57,80.35a.55.55,0,0,1-.73.83.55.55,0,1,1,.73-.83Z"/><path d="M30.91,78.83a.56.56,0,1,1-.79,0A.56.56,0,0,1,30.91,78.83Z"/><path d="M32.24,77.31a.56.56,0,1,1-.79,0A.57.57,0,0,1,32.24,77.31Z"/><path d="M33.57,75.79a.56.56,0,1,1-.78,0A.56.56,0,0,1,33.57,75.79Z"/><path d="M34.6,74.07a.56.56,0,0,1-.51,1,.56.56,0,0,1-.24-.75A.55.55,0,0,1,34.6,74.07Z"/><path d="M35.53,72.27a.56.56,0,1,1-.75.24A.56.56,0,0,1,35.53,72.27Z"/><path d="M36.45,70.48a.55.55,0,0,1,.24.75.56.56,0,0,1-.75.24.56.56,0,0,1-.24-.75A.54.54,0,0,1,36.45,70.48Z"/><path d="M37.38,68.68a.56.56,0,1,1-.75.24A.56.56,0,0,1,37.38,68.68Z"/><path d="M38.31,66.89a.55.55,0,0,1,.24.74.56.56,0,1,1-1-.51A.55.55,0,0,1,38.31,66.89Z"/><path d="M39.23,65.09a.55.55,0,0,1,.24.75.56.56,0,1,1-.24-.75Z"/><path d="M40.16,63.3a.55.55,0,1,1-.51,1,.56.56,0,0,1-.24-.75A.55.55,0,0,1,40.16,63.3Z"/><path d="M41.09,61.5a.56.56,0,1,1-.51,1,.55.55,0,0,1-.24-.75A.56.56,0,0,1,41.09,61.5Z"/><path d="M42,59.71a.54.54,0,0,1,.24.74.55.55,0,0,1-.75.24.56.56,0,0,1-.24-.75A.55.55,0,0,1,42,59.71Z"/><path d="M42.94,57.91a.56.56,0,1,1-.75.24A.56.56,0,0,1,42.94,57.91Z"/><path d="M43.87,56.12a.55.55,0,0,1,.24.74.56.56,0,1,1-.24-.74Z"/><path d="M44.79,54.32a.54.54,0,0,1,.24.75.56.56,0,0,1-.75.24.57.57,0,0,1-.24-.75A.56.56,0,0,1,44.79,54.32Z"/><path d="M45.72,52.52a.56.56,0,0,1-.51,1,.56.56,0,1,1,.51-1Z"/><path d="M46.65,50.73a.56.56,0,1,1-.75.24A.56.56,0,0,1,46.65,50.73Z"/><path d="M47.58,48.93a.55.55,0,0,1,.23.75.54.54,0,0,1-.74.24.55.55,0,0,1-.24-.75A.56.56,0,0,1,47.58,48.93Z"/><path d="M48.5,47.14a.55.55,0,0,1,.24.75.56.56,0,1,1-1-.51A.55.55,0,0,1,48.5,47.14Z"/></svg>