<svg xmlns="http://www.w3.org/2000/svg" viewBox="0 0 81.52 93.69"><title>37</title><path d="M40.76,19.28c3,4.07,6,8.17,9,12.27s6,8.19,8.89,12.32c5.87,8.25,11.81,16.44,17.62,24.73A.86.86,0,0,1,76,69.81a.82.82,0,0,1-.49.16h0l-34.76.13L6,70a.87.87,0,0,1-.87-.87,1,1,0,0,1,.15-.5C11.09,60.31,17,52.11,22.91,43.86c2.93-4.12,5.91-8.22,8.89-12.31s5.95-8.2,9-12.27c-2.78,4.23-5.6,8.44-8.42,12.64s-5.63,8.42-8.5,12.6C18.13,52.87,12.49,61.28,6.71,69.6L6,68.23l34.76-.13,34.76.13-.71,1.37C69,61.28,63.39,52.87,57.68,44.51c-2.87-4.17-5.68-8.38-8.5-12.59S43.54,23.51,40.76,19.28Z"/><path d="M6.27,64.17a.66.66,0,0,1,1,.84.64.64,0,0,1-.89,0A.63.63,0,0,1,6.27,64.17Z"/><path d="M4.27,62.49a.66.66,0,0,1,1,.84.64.64,0,0,1-.89,0A.62.62,0,0,1,4.27,62.49Z"/><path d="M2.26,60.81a.64.64,0,0,1,.89,0,.62.62,0,0,1,.11.88.63.63,0,0,1-.88,0A.63.63,0,0,1,2.26,60.81Z"/><path d="M4,58.91a.58.58,0,1,1-.58-.6A.59.59,0,0,1,4,58.91Z"/><path d="M6.3,58.91a.59.59,0,0,1-.58.6.6.6,0,0,1,0-1.2A.59.59,0,0,1,6.3,58.91Z"/><path d="M8.62,58.91a.58.58,0,1,1-.58-.6A.59.59,0,0,1,8.62,58.91Z"/><path d="M11,58.91a.59.59,0,1,1-.58-.6A.59.59,0,0,1,11,58.91Z"/><path d="M71.73,58.91a.58.58,0,1,1-.58-.6A.59.59,0,0,1,71.73,58.91Z"/><path d="M74.06,58.91a.58.58,0,1,1-.58-.6A.59.59,0,0,1,74.06,58.91Z"/><path d="M76.38,58.91a.58.58,0,1,1-.58-.6A.59.59,0,0,1,76.38,58.91Z"/><path d="M78.71,58.91a.58.58,0,1,1-.58-.6A.59.59,0,0,1,78.71,58.91Z"/><path d="M78.25,61.65a.63.63,0,0,1,.12-.88.64.64,0,0,1,.89,0,.63.63,0,0,1-.12.88A.64.64,0,0,1,78.25,61.65Z"/><path d="M76.25,63.33a.66.66,0,0,1,1-.84.62.62,0,0,1-.11.88A.64.64,0,0,1,76.25,63.33Z"/><path d="M74.25,65a.66.66,0,0,1,1-.84.66.66,0,0,1-1,.84Z"/><path d="M14,70.63a.6.6,0,0,1-.84.08.61.61,0,0,1-.07-.85.6.6,0,0,1,.91.77Z"/><path d="M15.79,72.16a.6.6,0,1,1-.07-.85A.61.61,0,0,1,15.79,72.16Z"/><path d="M17.61,73.68a.59.59,0,0,1-.84.08.6.6,0,0,1-.07-.84.59.59,0,1,1,.91.76Z"/><path d="M19.43,75.21a.59.59,0,1,1-.91-.76.59.59,0,1,1,.91.76Z"/><path d="M21.25,76.74a.6.6,0,0,1-.84.08.61.61,0,0,1-.07-.85.6.6,0,0,1,.84-.07A.58.58,0,0,1,21.25,76.74Z"/><path d="M23.07,78.27a.6.6,0,1,1-.91-.77.61.61,0,0,1,.85-.08A.6.6,0,0,1,23.07,78.27Z"/><path d="M24.9,79.79a.59.59,0,0,1-.84.08A.58.58,0,0,1,24,79a.59.59,0,0,1,.84-.08A.6.6,0,0,1,24.9,79.79Z"/><path d="M26.72,81.32a.6.6,0,0,1-.84.08.58.58,0,0,1-.07-.84.59.59,0,0,1,.84-.08A.6.6,0,0,1,26.72,81.32Z"/><path d="M28.54,82.85a.6.6,0,1,1-.91-.77.59.59,0,0,1,.84-.07A.6.6,0,0,1,28.54,82.85Z"/><path d="M30.36,84.38a.6.6,0,1,1-.07-.85A.61.61,0,0,1,30.36,84.38Z"/><path d="M32.18,85.9a.59.59,0,0,1-.84.08.6.6,0,0,1-.07-.84.59.59,0,0,1,.84-.08A.6.6,0,0,1,32.18,85.9Z"/><path d="M34,87.43a.59.59,0,1,1-.91-.76.59.59,0,0,1,.84-.08A.6.6,0,0,1,34,87.43Z"/><path d="M35.82,89A.6.6,0,0,1,35,89a.61.61,0,0,1-.07-.85.6.6,0,0,1,.91.77Z"/><path d="M37.64,90.49a.6.6,0,1,1-.07-.85A.6.6,0,0,1,37.64,90.49Z"/><path d="M39.46,92a.59.59,0,0,1-.84.08.6.6,0,0,1-.07-.84.59.59,0,0,1,.84-.08A.58.58,0,0,1,39.46,92Z"/><path d="M43,91.25a.6.6,0,0,1-.07.84.59.59,0,0,1-.84-.08.58.58,0,0,1,.07-.84A.59.59,0,0,1,43,91.25Z"/><path d="M44.79,89.72a.6.6,0,1,1-.84-.08A.6.6,0,0,1,44.79,89.72Z"/><path d="M46.61,88.19a.61.61,0,0,1-.07.85A.6.6,0,0,1,45.7,89a.59.59,0,0,1,.07-.84A.6.6,0,0,1,46.61,88.19Z"/><path d="M48.43,86.67a.59.59,0,1,1-.91.76.59.59,0,1,1,.91-.76Z"/><path d="M50.25,85.14a.6.6,0,0,1-.07.84.59.59,0,0,1-.84-.08.6.6,0,0,1,.07-.84A.59.59,0,0,1,50.25,85.14Z"/><path d="M52.07,83.61a.6.6,0,0,1-.91.77.61.61,0,0,1,.07-.85A.6.6,0,0,1,52.07,83.61Z"/><path d="M53.89,82.08a.61.61,0,0,1-.07.85.6.6,0,1,1,.07-.85Z"/><path d="M55.71,80.56a.59.59,0,0,1-.07.84.6.6,0,0,1-.77-.92A.59.59,0,0,1,55.71,80.56Z"/><path d="M57.53,79a.59.59,0,1,1-.91.76.6.6,0,0,1,.07-.84A.59.59,0,0,1,57.53,79Z"/><path d="M59.35,77.5a.58.58,0,0,1-.07.84.6.6,0,0,1-.84-.07.61.61,0,0,1,.07-.85A.6.6,0,0,1,59.35,77.5Z"/><path d="M61.17,76a.6.6,0,0,1-.06.85.61.61,0,0,1-.85-.08.6.6,0,1,1,.91-.77Z"/><path d="M63,74.45a.59.59,0,1,1-.91.76.58.58,0,0,1,.07-.84A.59.59,0,0,1,63,74.45Z"/><path d="M64.82,72.92a.6.6,0,0,1-.07.84.59.59,0,0,1-.84-.08.58.58,0,0,1,.07-.84A.59.59,0,0,1,64.82,72.92Z"/><path d="M66.64,71.39a.6.6,0,1,1-.84-.08A.6.6,0,0,1,66.64,71.39Z"/><path d="M68.46,69.86a.61.61,0,0,1-.07.85.6.6,0,1,1,.07-.85Z"/><path d="M17.13,49.07a.6.6,0,0,1,.84.09.61.61,0,0,1-.08.84.59.59,0,0,1-.85-.08A.59.59,0,0,1,17.13,49.07Z"/><path d="M15.71,47.11a.62.62,0,0,1,.84.16.6.6,0,0,1-.15.83.59.59,0,0,1-.84-.15A.6.6,0,0,1,15.71,47.11Z"/><path d="M14.47,45a.6.6,0,0,1,.6,1.05.6.6,0,1,1-.6-1.05Z"/><path d="M13.39,42.88a.61.61,0,0,1,.79.29.6.6,0,0,1-.28.8.59.59,0,0,1-.8-.28A.6.6,0,0,1,13.39,42.88Z"/><path d="M12.49,40.64a.6.6,0,0,1,.42,1.13.59.59,0,0,1-.78-.35A.6.6,0,0,1,12.49,40.64Z"/><path d="M11.77,38.34a.6.6,0,0,1,.74.41.62.62,0,0,1-.4.75.6.6,0,0,1-.75-.42A.58.58,0,0,1,11.77,38.34Z"/><path d="M11.24,36a.6.6,0,1,1,.24,1.18.59.59,0,0,1-.71-.47A.6.6,0,0,1,11.24,36Z"/><path d="M10.91,33.59a.6.6,0,0,1,.66.53.61.61,0,0,1-.52.67.6.6,0,1,1-.14-1.2Z"/><path d="M10.77,31.18a.59.59,0,0,1,.61.58.6.6,0,0,1-.57.62.6.6,0,1,1,0-1.2Z"/><path d="M10.82,28.76A.61.61,0,0,1,10.77,30a.61.61,0,1,1,.05-1.21Z"/><path d="M11.06,26.36a.6.6,0,0,1-.15,1.2.6.6,0,1,1,.15-1.2Z"/><path d="M11.49,24a.6.6,0,0,1,.46.71.6.6,0,1,1-.46-.71Z"/><path d="M12.12,21.65a.62.62,0,0,1,.4.75.6.6,0,0,1-.74.41.59.59,0,0,1-.41-.75A.6.6,0,0,1,12.12,21.65Z"/><path d="M12.93,19.38a.6.6,0,0,1,.34.77.61.61,0,0,1-.77.36.6.6,0,0,1-.35-.78A.59.59,0,0,1,12.93,19.38Z"/><path d="M13.92,17.18a.6.6,0,0,1,.28.8.62.62,0,0,1-.8.29.6.6,0,0,1-.28-.81A.59.59,0,0,1,13.92,17.18Z"/><path d="M15.09,15.06a.6.6,0,0,1,.21.82.59.59,0,0,1-.81.23.6.6,0,0,1-.23-.83A.61.61,0,0,1,15.09,15.06Z"/><path d="M16.43,13.05a.63.63,0,0,1,.14.84.6.6,0,0,1-1-.69A.61.61,0,0,1,16.43,13.05Z"/><path d="M17.92,11.15a.61.61,0,0,1-.77.94.61.61,0,0,1,.77-.94Z"/><path d="M19.56,9.38a.6.6,0,1,1-.86,0A.61.61,0,0,1,19.56,9.38Z"/><path d="M21.33,7.74a.6.6,0,0,1-.06.85.61.61,0,0,1-.84-.05.58.58,0,0,1,.05-.85A.59.59,0,0,1,21.33,7.74Z"/><path d="M23.23,6.25a.6.6,0,1,1-.85-.12A.59.59,0,0,1,23.23,6.25Z"/><path d="M25.25,4.92a.61.61,0,0,1-.2.82.6.6,0,0,1-.64-1A.6.6,0,0,1,25.25,4.92Z"/><path d="M27.36,3.75a.6.6,0,0,1-1.07.56.59.59,0,0,1,.25-.81A.61.61,0,0,1,27.36,3.75Z"/><path d="M29.56,2.76a.59.59,0,0,1-.32.78.61.61,0,0,1-.79-.31.6.6,0,1,1,1.11-.47Z"/><path d="M31.84,2a.61.61,0,0,1-.39.75A.6.6,0,1,1,31.84,2Z"/><path d="M34.17,1.33A.6.6,0,0,1,33,1.62a.6.6,0,1,1,1.17-.29Z"/><path d="M36.55.9a.62.62,0,0,1-.51.68.61.61,0,0,1-.69-.49A.61.61,0,1,1,36.55.9Z"/><path d="M39,.66a.59.59,0,0,1-.56.63.61.61,0,0,1-.65-.54A.61.61,0,1,1,39,.66Z"/><path d="M41.36.61a.6.6,0,0,1-1.2,0,.6.6,0,1,1,1.2,0Z"/><path d="M43.77.75A.6.6,0,1,1,43.22.1.59.59,0,0,1,43.77.75Z"/><path d="M46.17,1.09A.61.61,0,0,1,45,.9a.61.61,0,1,1,1.2.19Z"/><path d="M48.52,1.62a.6.6,0,0,1-1.17-.29.6.6,0,1,1,1.17.29Z"/><path d="M50.83,2.33a.59.59,0,0,1-.76.37A.61.61,0,0,1,49.68,2a.61.61,0,0,1,1.15.38Z"/><path d="M53.07,3.23a.61.61,0,0,1-.79.31.6.6,0,1,1,.79-.31Z"/><path d="M55.23,4.31a.6.6,0,0,1-1.07-.56A.59.59,0,0,1,55,3.5.58.58,0,0,1,55.23,4.31Z"/><path d="M57.29,5.56a.59.59,0,0,1-.82.18.6.6,0,1,1,.64-1A.58.58,0,0,1,57.29,5.56Z"/><path d="M59.25,7a.6.6,0,0,1-1-.73.58.58,0,0,1,.84-.12A.6.6,0,0,1,59.25,7Z"/><path d="M61.09,8.54a.61.61,0,0,1-.84.05.6.6,0,0,1-.06-.85.59.59,0,0,1,.85,0A.58.58,0,0,1,61.09,8.54Z"/><path d="M62.8,10.25A.6.6,0,0,1,62,9.38a.6.6,0,1,1,.84.87Z"/><path d="M64.37,12.09a.61.61,0,0,1-.77-.94.61.61,0,0,1,.77.94Z"/><path d="M65.78,14a.6.6,0,0,1-.83-.15.62.62,0,0,1,.14-.84.6.6,0,0,1,.84.15A.59.59,0,0,1,65.78,14Z"/><path d="M67,16.11a.59.59,0,0,1-.81-.23.6.6,0,0,1,.21-.82.6.6,0,0,1,.6,1Z"/><path d="M68.12,18.27a.62.62,0,0,1-.8-.29.61.61,0,0,1,.27-.8.61.61,0,1,1,.53,1.09Z"/><path d="M69,20.51a.61.61,0,0,1-.77-.36.6.6,0,1,1,.77.36Z"/><path d="M69.74,22.81A.6.6,0,0,1,69,22.4a.62.62,0,0,1,.4-.75.6.6,0,0,1,.75.41A.59.59,0,0,1,69.74,22.81Z"/><path d="M70.27,25.17a.61.61,0,1,1,.47-.71A.6.6,0,0,1,70.27,25.17Z"/><path d="M70.61,27.56a.6.6,0,0,1-.15-1.2.6.6,0,0,1,.15,1.2Z"/><path d="M70.75,30a.61.61,0,0,1,0-1.21.61.61,0,1,1,0,1.21Z"/><path d="M70.7,32.38a.6.6,0,0,1,0-1.2.58.58,0,0,1,.58.62A.59.59,0,0,1,70.7,32.38Z"/><path d="M70.47,34.79a.61.61,0,0,1-.52-.67.6.6,0,0,1,.66-.53.6.6,0,1,1-.14,1.2Z"/><path d="M70,37.16A.6.6,0,0,1,70.27,36a.6.6,0,0,1,.48.71A.59.59,0,0,1,70,37.16Z"/><path d="M69.41,39.5a.62.62,0,0,1-.4-.75.6.6,0,0,1,.74-.41.58.58,0,0,1,.41.74A.6.6,0,0,1,69.41,39.5Z"/><path d="M68.61,41.77a.6.6,0,1,1,.78-.35A.6.6,0,0,1,68.61,41.77Z"/><path d="M67.61,44a.6.6,0,0,1,.52-1.09A.6.6,0,1,1,67.61,44Z"/><path d="M66.45,46.09a.6.6,0,1,1,.83-.22A.61.61,0,0,1,66.45,46.09Z"/><path d="M65.12,48.1a.6.6,0,0,1,.68-1A.6.6,0,0,1,66,48,.59.59,0,0,1,65.12,48.1Z"/><path d="M63.63,50a.6.6,0,0,1,.76-.93.6.6,0,1,1-.76.93Z"/><path d="M80.56,59.36a.6.6,0,0,1-.1-.83.6.6,0,1,1,.1.83Z"/><path d="M.23,59.36a.59.59,0,0,1-.11-.83A.59.59,0,0,1,1,58.46a.59.59,0,0,1,.11.83A.59.59,0,0,1,.23,59.36Z"/><path d="M40.4,93.55a.59.59,0,0,1-.11-.83.59.59,0,0,1,.83-.07.59.59,0,0,1,.11.83A.59.59,0,0,1,40.4,93.55Z"/></svg>