<svg xmlns="http://www.w3.org/2000/svg" viewBox="0 0 54.48 104.9"><title>42</title><path d="M45.81,63.92a.65.65,0,1,1-.65-.65A.65.65,0,0,1,45.81,63.92Z"/><path d="M25.05,104.25a.65.65,0,1,1-.65-.65A.65.65,0,0,1,25.05,104.25Z"/><path d="M4.29,63.92a.65.65,0,1,1-.65-.65A.65.65,0,0,1,4.29,63.92Z"/><path d="M29,9.17c-1.61-2.93-3.22-5.86-4.8-8.8h.44L19,11.9,13.25,23.4,7.52,34.89,1.7,46.33v-.82L13.53,68.3,25.18,91.18H23.61c2-3.79,3.93-7.6,5.95-11.38l6-11.34c2-3.77,4-7.57,6-11.33l6.11-11.29V46L45,40.34l3,5.5a.14.14,0,0,1,0,.15h0L42.42,57.54c-1.87,3.85-3.81,7.67-5.71,11.5L31,80.53c-1.89,3.84-3.86,7.64-5.8,11.46a.88.88,0,0,1-1.18.39.87.87,0,0,1-.38-.38h0L11.76,69.21.1,46.33h0a.86.86,0,0,1,0-.81L6,34.12l6-11.34,6-11.34L24.18.14h0a.24.24,0,0,1,.34-.1.27.27,0,0,1,.1.11Q26.83,4.64,29,9.17Z"/><path d="M40.86,63.92a.56.56,0,1,1-.56-.6A.58.58,0,0,1,40.86,63.92Z"/><path d="M43.07,63.92a.56.56,0,1,1-.55-.6A.58.58,0,0,1,43.07,63.92Z"/><path d="M43.64,66.87a.59.59,0,1,1,.54-1,.6.6,0,0,1,.26.8A.59.59,0,0,1,43.64,66.87Z"/><path d="M42.57,69a.59.59,0,1,1,.54-1,.59.59,0,1,1-.54,1Z"/><path d="M41.5,71a.59.59,0,0,1-.26-.79A.58.58,0,0,1,42,70a.59.59,0,0,1,.26.79A.58.58,0,0,1,41.5,71Z"/><path d="M40.43,73.1a.59.59,0,1,1,.54-1,.59.59,0,1,1-.54,1Z"/><path d="M39.37,75.18a.59.59,0,0,1-.27-.8.6.6,0,0,1,.8-.24.58.58,0,1,1-.53,1Z"/><path d="M38.3,77.25a.58.58,0,0,1-.27-.79A.6.6,0,0,1,39.1,77,.58.58,0,0,1,38.3,77.25Z"/><path d="M37.23,79.33a.58.58,0,0,1-.27-.79.6.6,0,1,1,.27.79Z"/><path d="M36.16,81.41a.59.59,0,0,1-.27-.8.6.6,0,0,1,.8-.24.58.58,0,0,1,.27.79A.59.59,0,0,1,36.16,81.41Z"/><path d="M35.09,83.49a.61.61,0,0,1-.27-.8.6.6,0,0,1,1.07.55A.59.59,0,0,1,35.09,83.49Z"/><path d="M34,85.56a.6.6,0,0,1-.27-.79.6.6,0,1,1,.27.79Z"/><path d="M33,87.64a.59.59,0,1,1,.54-1,.59.59,0,1,1-.54,1Z"/><path d="M31.88,89.71a.59.59,0,0,1-.26-.79.58.58,0,0,1,.8-.24.59.59,0,0,1,.26.79A.58.58,0,0,1,31.88,89.71Z"/><path d="M30.81,91.79a.59.59,0,1,1,.54-1,.6.6,0,0,1,.26.8A.59.59,0,0,1,30.81,91.79Z"/><path d="M29.74,93.87a.59.59,0,1,1,.81-.25A.6.6,0,0,1,29.74,93.87Z"/><path d="M28.68,96a.6.6,0,0,1-.27-.8.58.58,0,0,1,.8-.24.58.58,0,1,1-.53,1Z"/><path d="M27.61,98a.58.58,0,0,1-.27-.79.59.59,0,0,1,.8-.25.58.58,0,1,1-.53,1Z"/><path d="M26.54,100.1a.59.59,0,0,1-.27-.8.6.6,0,0,1,.8-.24.58.58,0,0,1,.27.79A.59.59,0,0,1,26.54,100.1Z"/><path d="M25.47,102.17a.58.58,0,0,1-.27-.79.59.59,0,0,1,.8-.24.58.58,0,1,1-.53,1Z"/><path d="M22.8,101.14a.59.59,0,0,1,.8.24.6.6,0,0,1-1.07.55A.59.59,0,0,1,22.8,101.14Z"/><path d="M21.73,99.06a.6.6,0,0,1,.8.24.6.6,0,1,1-.8-.24Z"/><path d="M20.66,97a.59.59,0,0,1,.8.25.58.58,0,0,1-.27.79.6.6,0,0,1-.8-.24A.61.61,0,0,1,20.66,97Z"/><path d="M19.59,94.91a.58.58,0,0,1,.8.24.6.6,0,1,1-.8-.24Z"/><path d="M18.52,92.83a.59.59,0,1,1-.26.79A.59.59,0,0,1,18.52,92.83Z"/><path d="M17.45,90.75a.59.59,0,1,1-.26.8A.6.6,0,0,1,17.45,90.75Z"/><path d="M16.39,88.68a.57.57,0,0,1,.79.24.59.59,0,0,1-.26.79.58.58,0,1,1-.53-1Z"/><path d="M15.31,86.6a.59.59,0,1,1,.54,1,.59.59,0,1,1-.54-1Z"/><path d="M14.25,84.52a.58.58,0,1,1-.27.8A.59.59,0,0,1,14.25,84.52Z"/><path d="M13.18,82.45a.58.58,0,0,1,.8.24.6.6,0,0,1-1.07.55A.58.58,0,0,1,13.18,82.45Z"/><path d="M12.11,80.37a.6.6,0,0,1,.8.24.6.6,0,0,1-1.07.55A.58.58,0,0,1,12.11,80.37Z"/><path d="M11,78.29a.59.59,0,0,1,.8.25.58.58,0,0,1-.27.79.58.58,0,1,1-.53-1Z"/><path d="M10,76.22A.58.58,0,1,1,9.7,77,.6.6,0,0,1,10,76.22Z"/><path d="M8.9,74.14a.59.59,0,1,1,.54,1,.59.59,0,1,1-.54-1Z"/><path d="M7.83,72.06a.59.59,0,1,1-.26.8A.6.6,0,0,1,7.83,72.06Z"/><path d="M6.76,70a.58.58,0,0,1,.8.24A.59.59,0,0,1,7.3,71a.58.58,0,0,1-.8-.24A.59.59,0,0,1,6.76,70Z"/><path d="M5.69,67.91a.59.59,0,1,1,.54,1,.59.59,0,1,1-.54-1Z"/><path d="M4.63,65.83a.59.59,0,0,1,.8.25.6.6,0,0,1-1.07.55A.6.6,0,0,1,4.63,65.83Z"/><path d="M6.84,63.92a.56.56,0,1,1-.55-.6A.58.58,0,0,1,6.84,63.92Z"/><path d="M9.05,63.92a.58.58,0,0,1-.55.6.6.6,0,0,1,0-1.2A.58.58,0,0,1,9.05,63.92Z"/><path d="M53.69,25.29a.59.59,0,0,1,.15-1.18.59.59,0,1,1-.15,1.18Z"/><path d="M53.08,27.59a.59.59,0,1,1,.76-.38A.58.58,0,0,1,53.08,27.59Z"/><path d="M52.06,29.75a.6.6,0,0,1,.56-1.05.58.58,0,0,1,.27.81A.59.59,0,0,1,52.06,29.75Z"/><path d="M50.7,31.7a.59.59,0,0,1,.72-.94.59.59,0,1,1-.72.94Z"/><path d="M49,33.39a.6.6,0,0,1,.88-.81.6.6,0,0,1,0,.86A.6.6,0,0,1,49,33.39Z"/><path d="M47.06,34.75a.6.6,0,0,1,1-.64.6.6,0,1,1-1,.64Z"/><path d="M44.91,35.76a.59.59,0,0,1,1.1-.45.59.59,0,0,1-.32.79A.58.58,0,0,1,44.91,35.76Z"/><path d="M42.6,36.38a.6.6,0,0,1,1.17-.26.59.59,0,0,1-.45.73A.6.6,0,0,1,42.6,36.38Z"/><path d="M40.23,36.59a.6.6,0,0,1,1.19-.06.6.6,0,1,1-1.19.06Z"/><path d="M37.86,36.38a.61.61,0,0,1,.66-.51.63.63,0,0,1,.52.66.59.59,0,1,1-1.18-.15Z"/><path d="M35.55,35.76a.62.62,0,0,1,.75-.38.6.6,0,0,1,.39.74.59.59,0,0,1-.75.41A.6.6,0,0,1,35.55,35.76Z"/><path d="M33.4,34.75a.61.61,0,0,1,.8-.24.63.63,0,0,1,.26.8.59.59,0,0,1-.82.26A.58.58,0,0,1,33.4,34.75Z"/><path d="M31.45,33.39a.61.61,0,0,1,.83-.11.62.62,0,0,1,.11.83.59.59,0,1,1-.94-.72Z"/><path d="M29.76,31.7a.6.6,0,0,1,.81.88.6.6,0,0,1-.86,0A.6.6,0,0,1,29.76,31.7Z"/><path d="M28.4,29.75a.6.6,0,0,1,.64,1,.6.6,0,1,1-.64-1Z"/><path d="M27.39,27.59a.6.6,0,0,1,.45,1.11.6.6,0,1,1-.45-1.11Z"/><path d="M26.77,25.29A.6.6,0,0,1,27,26.46.59.59,0,0,1,26.3,26,.6.6,0,0,1,26.77,25.29Z"/><path d="M26.56,22.92a.6.6,0,0,1,.06,1.19.6.6,0,1,1-.06-1.19Z"/><path d="M26.77,20.55a.61.61,0,0,1,.51.66.63.63,0,0,1-.66.52.59.59,0,0,1-.53-.67A.58.58,0,0,1,26.77,20.55Z"/><path d="M27.39,18.24a.61.61,0,0,1,.38.75.6.6,0,0,1-.74.39.59.59,0,0,1-.41-.75A.6.6,0,0,1,27.39,18.24Z"/><path d="M28.4,16.09a.61.61,0,0,1,.24.8.62.62,0,0,1-.8.25.6.6,0,1,1,.56-1.05Z"/><path d="M29.76,14.14a.61.61,0,0,1,.11.83.62.62,0,0,1-.83.11.59.59,0,1,1,.72-.94Z"/><path d="M31.45,12.45a.6.6,0,0,1-.88.81.6.6,0,0,1,0-.86A.6.6,0,0,1,31.45,12.45Z"/><path d="M33.4,11.08a.62.62,0,0,1-.19.82.61.61,0,0,1-.82-.17.6.6,0,1,1,1-.65Z"/><path d="M35.55,10.07a.59.59,0,1,1-1.09.46.59.59,0,1,1,1.09-.46Z"/><path d="M37.86,9.46a.61.61,0,0,1-.46.7.62.62,0,0,1-.71-.44A.59.59,0,0,1,37.14,9,.6.6,0,0,1,37.86,9.46Z"/><path d="M40.23,9.25A.6.6,0,0,1,39,9.31a.6.6,0,1,1,1.19-.06Z"/><path d="M42.6,9.46a.61.61,0,0,1-.66.51.63.63,0,0,1-.52-.66.59.59,0,0,1,.67-.53A.58.58,0,0,1,42.6,9.46Z"/><path d="M44.91,10.07a.62.62,0,0,1-.75.39.6.6,0,0,1-.39-.74.6.6,0,1,1,1.14.35Z"/><path d="M47.06,11.08a.6.6,0,0,1-.8.25.62.62,0,0,1-.25-.8.59.59,0,1,1,1.05.55Z"/><path d="M49,12.45a.61.61,0,0,1-.83.11.62.62,0,0,1-.11-.83.59.59,0,1,1,.94.72Z"/><path d="M50.7,14.14a.62.62,0,0,1-.84-.05.61.61,0,0,1,0-.83.6.6,0,0,1,.86,0A.6.6,0,0,1,50.7,14.14Z"/><path d="M52.06,16.09a.6.6,0,0,1-.64-1,.6.6,0,1,1,.64,1Z"/><path d="M53.08,18.24a.6.6,0,0,1-.46-1.1.59.59,0,0,1,.79.32A.58.58,0,0,1,53.08,18.24Z"/><path d="M53.69,20.55a.6.6,0,0,1-.26-1.17.59.59,0,0,1,.73.45A.6.6,0,0,1,53.69,20.55Z"/><path d="M53.9,22.92a.6.6,0,0,1-.06-1.19.6.6,0,1,1,.06,1.19Z"/><circle cx="45.03" cy="40.34" r="1.75"/><circle cx="29.07" cy="9.25" r="1.75"/></svg>