<svg xmlns="http://www.w3.org/2000/svg" viewBox="0 0 69.45 115.12"><title>44</title><path d="M.73,48.61c5.49-8.07,11.08-16.09,16.68-24.09l8.45-12,8.46-12L34.73,0l.4.58,8.47,12c2.81,4,5.65,8,8.44,12l8.38,12,8.31,12.07L60,36.82,51.41,25C48.53,21,45.71,17,42.85,13.07L34.32,1.15h.81L26.6,13.07,18,25C12.31,32.87,6.56,40.78.73,48.61Z"/><path d="M50.06,12.27a.62.62,0,0,1-.76-.38.63.63,0,0,1,.36-.77.61.61,0,0,1,.78.38A.6.6,0,0,1,50.06,12.27Z"/><path d="M50.57,14.65a.61.61,0,1,1,.5-.71A.6.6,0,0,1,50.57,14.65Z"/><path d="M50.72,17.07a.61.61,0,0,1,0-1.21.61.61,0,1,1,0,1.21Z"/><path d="M50.51,19.5a.62.62,0,0,1-.51-.68.61.61,0,0,1,.66-.53.61.61,0,1,1-.15,1.21Z"/><path d="M49.93,21.86a.62.62,0,0,1-.4-.75.61.61,0,0,1,.73-.42.59.59,0,0,1,.43.75A.61.61,0,0,1,49.93,21.86Z"/><path d="M49,24.1a.61.61,0,0,1-.28-.8.61.61,0,0,1,.79-.3A.61.61,0,1,1,49,24.1Z"/><path d="M47.74,26.18a.61.61,0,0,1-.16-.83.62.62,0,0,1,.83-.19.61.61,0,0,1-.67,1Z"/><path d="M46.17,28a.61.61,0,0,1,.82-.9A.59.59,0,0,1,47,28,.61.61,0,0,1,46.17,28Z"/><path d="M44.35,29.65a.61.61,0,0,1,.1-.84.6.6,0,1,1-.1.84Z"/><path d="M42.3,31a.63.63,0,0,1,.23-.82.61.61,0,0,1,.82.2.6.6,0,0,1-.21.84A.61.61,0,0,1,42.3,31Z"/><path d="M40.08,31.94a.61.61,0,0,1,.35-.77.62.62,0,0,1,.78.32.61.61,0,1,1-1.13.45Z"/><path d="M37.74,32.58a.61.61,0,0,1,1.18-.27.61.61,0,1,1-1.18.27Z"/><path d="M35.32,32.85a.61.61,0,0,1,.56-.63.62.62,0,0,1,.65.54.61.61,0,1,1-1.21.09Z"/><path d="M32.89,32.76a.61.61,0,1,1,.56.66A.6.6,0,0,1,32.89,32.76Z"/><path d="M30.5,32.3A.61.61,0,1,1,31,33,.62.62,0,0,1,30.5,32.3Z"/><path d="M28.22,31.48a.61.61,0,0,1,1.12.46.59.59,0,0,1-.79.34A.6.6,0,0,1,28.22,31.48Z"/><path d="M26.08,30.33a.61.61,0,0,1,1,.62.61.61,0,1,1-1-.62Z"/><path d="M24.14,28.86a.62.62,0,0,1,.84-.07.61.61,0,0,1,.1.84.61.61,0,1,1-.94-.77Z"/><path d="M22.44,27.12a.61.61,0,0,1,.82.9.59.59,0,0,1-.86,0A.59.59,0,0,1,22.44,27.12Z"/><path d="M21,25.14a.61.61,0,0,1,.67,1,.61.61,0,0,1-.67-1Z"/><path d="M19.93,23a.62.62,0,0,1,.79.31.6.6,0,1,1-.79-.31Z"/><path d="M19.18,20.66a.62.62,0,0,1,.73.43.6.6,0,0,1-.4.74.59.59,0,0,1-.75-.42A.6.6,0,0,1,19.18,20.66Z"/><path d="M18.79,18.26a.63.63,0,0,1,.66.53.62.62,0,0,1-.51.68.6.6,0,0,1-.69-.53A.61.61,0,0,1,18.79,18.26Z"/><path d="M18.76,15.83a.62.62,0,0,1,.57.63.61.61,0,0,1-.6.59.59.59,0,0,1-.6-.62A.61.61,0,0,1,18.76,15.83Z"/><path d="M19.1,13.43a.61.61,0,0,1,.47.7.61.61,0,0,1-.69.49.61.61,0,1,1,.22-1.19Z"/><path d="M19.8,11.1a.61.61,0,0,1-.4,1.15.59.59,0,0,1-.38-.77A.6.6,0,0,1,19.8,11.1Z"/><path d="M66.11,49.62a.61.61,0,1,1,.79.33A.61.61,0,0,1,66.11,49.62Z"/><path d="M63.83,50.47A.61.61,0,0,1,65,50.05a.61.61,0,0,1-1.15.42Z"/><path d="M61.53,51.26a.61.61,0,1,1,.76.38A.6.6,0,0,1,61.53,51.26Z"/><path d="M59.2,52a.6.6,0,0,1,.41-.75.59.59,0,0,1,.75.4.6.6,0,0,1-.41.75A.59.59,0,0,1,59.2,52Z"/><path d="M56.85,52.64A.61.61,0,0,1,58,52.32a.62.62,0,0,1-.43.74A.6.6,0,0,1,56.85,52.64Z"/><path d="M54.49,53.23a.6.6,0,0,1,.45-.73.6.6,0,1,1,.28,1.17A.6.6,0,0,1,54.49,53.23Z"/><path d="M52.1,53.75a.61.61,0,0,1,1.2-.26.61.61,0,0,1-1.2.26Z"/><path d="M49.71,54.2a.61.61,0,1,1,.71.48A.6.6,0,0,1,49.71,54.2Z"/><path d="M47.3,54.58a.62.62,0,0,1,.52-.68A.6.6,0,1,1,48,55.09.61.61,0,0,1,47.3,54.58Z"/><path d="M44.89,54.9a.61.61,0,0,1,.53-.67.61.61,0,0,1,.68.52.6.6,0,0,1-.53.67A.59.59,0,0,1,44.89,54.9Z"/><path d="M42.46,55.15A.61.61,0,0,1,43.67,55a.59.59,0,0,1-.54.65A.6.6,0,0,1,42.46,55.15Z"/><path d="M40,55.33a.61.61,0,1,1,.65.56A.6.6,0,0,1,40,55.33Z"/><path d="M37.6,55.45a.61.61,0,0,1,1.21-.05.61.61,0,0,1-1.21.05Z"/><path d="M35.16,55.49a.61.61,0,1,1,.62.6A.61.61,0,0,1,35.16,55.49Z"/><path d="M32.72,55.47a.62.62,0,0,1,.62-.59.61.61,0,0,1,.6.61.61.61,0,0,1-1.22,0Z"/><path d="M30.29,55.38a.61.61,0,0,1,1.21.06.59.59,0,0,1-.63.57A.6.6,0,0,1,30.29,55.38Z"/><path d="M27.86,55.23a.61.61,0,1,1,.56.64A.59.59,0,0,1,27.86,55.23Z"/><path d="M25.43,55a.59.59,0,0,1,.66-.53.6.6,0,0,1,.55.65.61.61,0,0,1-.67.54A.6.6,0,0,1,25.43,55Z"/><path d="M23,54.71a.61.61,0,1,1,.53.67A.6.6,0,0,1,23,54.71Z"/><path d="M20.6,54.34a.61.61,0,0,1,1.2.19.61.61,0,0,1-1.2-.19Z"/><path d="M18.2,53.92a.61.61,0,1,1,.49.7A.61.61,0,0,1,18.2,53.92Z"/><path d="M15.81,53.42a.61.61,0,0,1,1.19.26.6.6,0,0,1-.72.46A.62.62,0,0,1,15.81,53.42Z"/><path d="M13.44,52.85a.61.61,0,1,1,.45.73A.61.61,0,0,1,13.44,52.85Z"/><path d="M11.09,52.22a.61.61,0,0,1,1.17.33.58.58,0,0,1-.74.41A.6.6,0,0,1,11.09,52.22Z"/><path d="M8.75,51.52a.61.61,0,1,1,.41.76A.61.61,0,0,1,8.75,51.52Z"/><path d="M6.44,50.76a.61.61,0,0,1,.77-.37.6.6,0,0,1,.38.76.61.61,0,0,1-1.15-.39Z"/><path d="M4.15,49.93a.6.6,0,0,1,.78-.35.6.6,0,1,1-.78.35Z"/><path d="M1.88,49a.61.61,0,1,1,.34.78A.6.6,0,0,1,1.88,49Z"/><path d="M34.73.86a16,16,0,0,0-14.2,9.24.32.32,0,0,1-.11.12h0A34.21,34.21,0,0,0,12,17.44a42.07,42.07,0,0,0-6,9.33A49.53,49.53,0,0,0,1.45,48.3v-.08l0,.26a.68.68,0,0,1-.09.45h0l0,.05,0-.71L10,64.6,18.53,81l17.08,32.7H33.84L50.92,80.79l8.55-16.43L68.08,48,68,48.3a49.62,49.62,0,0,0-4.6-21.51,43.22,43.22,0,0,0-6-9.32A34.59,34.59,0,0,0,49,10.24h0a.32.32,0,0,1-.11-.12A16,16,0,0,0,34.73.86a16.05,16.05,0,0,1,14.7,9l-.11-.12A38.34,38.34,0,0,1,64.38,26.32a50.76,50.76,0,0,1,5.07,22,.88.88,0,0,1-.07.32h0L61,65.14,52.53,81.62,35.61,114.57a1,1,0,0,1-1.34.44,1,1,0,0,1-.43-.44L16.93,81.78,8.47,65.38.08,49h0a.7.7,0,0,1,0-.7l0-.05-.1.46,0-.27V48.3a50.87,50.87,0,0,1,5.06-22A38.24,38.24,0,0,1,20.14,9.74L20,9.86A16.32,16.32,0,0,1,26.1,3.2,16.15,16.15,0,0,1,34.73.86Z"/></svg>