<svg xmlns="http://www.w3.org/2000/svg" viewBox="0 0 70.77 135.93"><title>45</title><path d="M36,123.6a.6.6,0,1,1-.6-.6A.6.6,0,0,1,36,123.6Z"/><path d="M36,65.93a.6.6,0,1,1-.6-.6A.6.6,0,0,1,36,65.93Z"/><path d="M36,.6a.6.6,0,1,1-1.19,0A.6.6,0,1,1,36,.6Z"/><polygon points="42.75 47.34 35.38 33.5 28.02 47.33 27.14 46.86 35.38 31.37 43.63 46.87 42.75 47.34"/><path d="M52,82.9C49.4,85.81,46.7,88.63,44,91.44c-1.35,1.42-2.74,2.79-4.11,4.18l-4.13,4.17-.36.35L35,99.79,30.9,95.62c-1.37-1.39-2.77-2.76-4.11-4.18l-4.06-4.23c-1.33-1.43-2.69-2.85-4-4.3,1.47,1.29,2.89,2.64,4.33,4l4.26,4c1.43,1.33,2.81,2.72,4.21,4.08l4.2,4.1H35l4.2-4.1c1.4-1.36,2.78-2.75,4.21-4.08C46.27,88.2,49.11,85.51,52,82.9Z"/><path d="M27.87,15.65a.6.6,0,1,1-.54,1.08.62.62,0,0,1-.27-.81A.61.61,0,0,1,27.87,15.65Z"/><path d="M28.94,13.5a.6.6,0,0,1,.27.81.59.59,0,0,1-.8.27.6.6,0,0,1,.53-1.08Z"/><path d="M30,11.35a.62.62,0,0,1,.27.81.6.6,0,1,1-1.08-.54A.61.61,0,0,1,30,11.35Z"/><path d="M31.09,9.2a.6.6,0,0,1,.27.81.62.62,0,0,1-.81.27.61.61,0,0,1-.26-.81A.59.59,0,0,1,31.09,9.2Z"/><path d="M32.16,7.05a.6.6,0,0,1,.27.81.61.61,0,0,1-.8.27.6.6,0,0,1-.27-.81A.59.59,0,0,1,32.16,7.05Z"/><path d="M33.24,4.9A.6.6,0,1,1,32.7,6a.6.6,0,0,1,.54-1.08Z"/><path d="M34.31,2.75a.6.6,0,0,1,.27.81.62.62,0,0,1-.81.27A.61.61,0,0,1,33.51,3,.59.59,0,0,1,34.31,2.75Z"/><path d="M37,3.83a.62.62,0,0,1-.81-.27.6.6,0,0,1,.27-.81.59.59,0,0,1,.8.27A.61.61,0,0,1,37,3.83Z"/><path d="M38.07,6a.6.6,0,0,1-.54-1.08A.6.6,0,1,1,38.07,6Z"/><path d="M39.14,8.13a.61.61,0,0,1-.8-.27.6.6,0,0,1,.27-.81.59.59,0,0,1,.8.27A.6.6,0,0,1,39.14,8.13Z"/><path d="M40.22,10.28a.62.62,0,0,1-.81-.27.6.6,0,0,1,.27-.81.59.59,0,0,1,.8.27A.61.61,0,0,1,40.22,10.28Z"/><path d="M41.29,12.43a.61.61,0,0,1-.81-.27.62.62,0,0,1,.27-.81.61.61,0,0,1,.81.27A.6.6,0,0,1,41.29,12.43Z"/><path d="M42.36,14.58a.59.59,0,0,1-.8-.27.6.6,0,1,1,.8.27Z"/><path d="M43.44,16.73a.6.6,0,1,1-.54-1.08.61.61,0,0,1,.81.27A.62.62,0,0,1,43.44,16.73Z"/><path d="M44,17.8l7.52,14.53a.22.22,0,0,1,0,.21h0L43.57,47.31l0-.47h0l0,0h0l15.76,29a.7.7,0,0,1-.12.82h0l-6.63,6.68V82.36l9,9,8.94,9.07a.88.88,0,0,1,0,1.25h0L36.08,135.65a1,1,0,0,1-1.39,0L.27,101.73a.88.88,0,0,1,0-1.25h0l9-9.07,9-9h0a.76.76,0,0,1,.65-.21h0l-.66,1.32-6.64-6.69h0a.7.7,0,0,1-.12-.83L19.3,61.41l3.93-7.26,2-3.63,1-1.82.49-.9.25-.45.13-.23.06-.11,0-.06v0h0c-.5-.51.57.87.7.51l-.7-.1L19.28,32.55h0a.22.22,0,0,1,0-.21L26.79,17.8,19.7,32.54v-.22L28,46.89l-.69-.1c.12-.35,1.19,1,.69.52h0v0l0,.06-.06.12-.12.22-.24.46-.47.92L26.07,51l-1.91,3.66L20.33,62,12.67,76.6l-.12-.83,6.73,6.59a.76.76,0,0,1,0,1.09.79.79,0,0,1-.66.23h0l.66-.22L10.42,92.6l-8.9,9.12,0-1.25,34.58,33.75H34.69l34.58-33.75v1.25L60.35,92.6l-8.86-9.15h0a.76.76,0,0,1,0-1.08l6.73-6.59-.12.83L42.81,47.31l0,0h0a.41.41,0,0,1,0-.46l8.26-14.57v.22Z"/><path d="M20.44,81.17a.59.59,0,0,1,0,.85.6.6,0,1,1-.85-.84A.59.59,0,0,1,20.44,81.17Z"/><path d="M22.15,79.42a.6.6,0,0,1,0,.86.59.59,0,0,1-.85,0,.6.6,0,0,1,0-.85A.61.61,0,0,1,22.15,79.42Z"/><path d="M23.86,77.68a.62.62,0,0,1,0,.86.6.6,0,0,1-.86,0,.61.61,0,0,1,.86-.87Z"/><path d="M25.56,75.94a.61.61,0,0,1,0,.86.6.6,0,0,1-.86,0,.59.59,0,0,1,0-.85A.6.6,0,0,1,25.56,75.94Z"/><path d="M27.27,74.2a.61.61,0,0,1-.85.87.59.59,0,0,1,0-.85A.6.6,0,0,1,27.27,74.2Z"/><path d="M29,72.46a.61.61,0,0,1-.85.87.59.59,0,0,1,0-.85A.6.6,0,0,1,29,72.46Z"/><path d="M30.69,70.72a.62.62,0,0,1,0,.86.6.6,0,1,1,0-.86Z"/><path d="M32.39,69a.61.61,0,0,1-.85.87.59.59,0,0,1,0-.85A.6.6,0,0,1,32.39,69Z"/><path d="M34.1,67.24a.61.61,0,1,1-.85,0A.6.6,0,0,1,34.1,67.24Z"/><path d="M37.52,68.11a.61.61,0,1,1,0-.86A.6.6,0,0,1,37.52,68.11Z"/><path d="M39.23,69.85a.61.61,0,1,1-.85-.87.59.59,0,0,1,.85,0A.61.61,0,0,1,39.23,69.85Z"/><path d="M40.94,71.59a.61.61,0,1,1,0-.85A.61.61,0,0,1,40.94,71.59Z"/><path d="M42.64,73.33a.61.61,0,1,1,0-.85A.59.59,0,0,1,42.64,73.33Z"/><path d="M44.35,75.07a.61.61,0,1,1,0-.85A.59.59,0,0,1,44.35,75.07Z"/><path d="M46.06,76.81a.6.6,0,0,1-.86,0,.61.61,0,0,1,0-.86.61.61,0,0,1,.85.87Z"/><path d="M47.77,78.55a.6.6,0,0,1-.86,0,.6.6,0,1,1,.86,0Z"/><path d="M49.47,80.29a.59.59,0,0,1-.85,0,.6.6,0,1,1,.85-.84A.59.59,0,0,1,49.47,80.29Z"/><path d="M51.18,82a.6.6,0,0,1-.85,0,.6.6,0,1,1,.85-.84A.6.6,0,0,1,51.18,82Z"/><path d="M3,102.45a.62.62,0,0,1-.85.17.6.6,0,1,1,.66-1A.62.62,0,0,1,3,102.45Z"/><path d="M5,103.8a.62.62,0,0,1-.85.17.6.6,0,1,1,.66-1A.62.62,0,0,1,5,103.8Z"/><path d="M7.1,105.15a.62.62,0,1,1-.19-.84A.62.62,0,0,1,7.1,105.15Z"/><path d="M9.17,106.5a.62.62,0,1,1-.19-.84A.62.62,0,0,1,9.17,106.5Z"/><path d="M11.24,107.85a.62.62,0,0,1-1-.67.62.62,0,0,1,.85-.17A.61.61,0,0,1,11.24,107.85Z"/><path d="M13.31,109.2a.61.61,0,1,1-.19-.84A.61.61,0,0,1,13.31,109.2Z"/><path d="M15.38,110.55a.6.6,0,0,1-.84.17.6.6,0,1,1,.84-.17Z"/><path d="M17.45,111.91a.62.62,0,0,1-1-.68.6.6,0,0,1,.84-.16A.6.6,0,0,1,17.45,111.91Z"/><path d="M19.52,113.26a.62.62,0,0,1-1-.68.62.62,0,0,1,1,.68Z"/><path d="M21.6,114.61a.62.62,0,0,1-.85.16.6.6,0,0,1-.19-.84.6.6,0,0,1,.84-.16A.61.61,0,0,1,21.6,114.61Z"/><path d="M23.67,116a.62.62,0,1,1-.19-.84A.61.61,0,0,1,23.67,116Z"/><path d="M25.74,117.31a.62.62,0,1,1-.19-.84A.61.61,0,0,1,25.74,117.31Z"/><path d="M27.81,118.66a.62.62,0,0,1-1-.68.62.62,0,0,1,1,.68Z"/><path d="M29.88,120a.62.62,0,1,1-.19-.84A.62.62,0,0,1,29.88,120Z"/><path d="M32,121.36a.62.62,0,1,1-.19-.84A.61.61,0,0,1,32,121.36Z"/><path d="M34,122.71a.61.61,0,0,1-.84.17.6.6,0,1,1,.65-1A.61.61,0,0,1,34,122.71Z"/><path d="M37.78,122a.61.61,0,1,1-.84-.17A.6.6,0,0,1,37.78,122Z"/><path d="M39.85,120.68a.62.62,0,1,1-.84-.16A.61.61,0,0,1,39.85,120.68Z"/><path d="M41.93,119.34a.62.62,0,1,1-.85-.17A.61.61,0,0,1,41.93,119.34Z"/><path d="M44,118a.62.62,0,1,1-.85-.16A.61.61,0,0,1,44,118Z"/><path d="M46.07,116.63a.62.62,0,1,1-.85-.16A.61.61,0,0,1,46.07,116.63Z"/><path d="M48.14,115.28a.62.62,0,1,1-.85-.16A.61.61,0,0,1,48.14,115.28Z"/><path d="M50.21,113.93a.6.6,0,0,1-.19.84.62.62,0,0,1-.85-.16.61.61,0,0,1,.2-.84A.6.6,0,0,1,50.21,113.93Z"/><path d="M52.28,112.58a.62.62,0,0,1-1,.68.62.62,0,0,1,1-.68Z"/><path d="M54.35,111.23a.62.62,0,0,1-1,.68.62.62,0,0,1,1-.68Z"/><path d="M56.42,109.88a.61.61,0,0,1-.19.84.6.6,0,0,1-.84-.17.61.61,0,0,1,1-.67Z"/><path d="M58.49,108.53a.61.61,0,0,1-1,.67.61.61,0,0,1,1-.67Z"/><path d="M60.57,107.18a.62.62,0,0,1-1,.67.61.61,0,0,1,.19-.84A.62.62,0,0,1,60.57,107.18Z"/><path d="M62.64,105.83a.62.62,0,0,1-1,.67.61.61,0,0,1,.19-.84A.62.62,0,0,1,62.64,105.83Z"/><path d="M64.71,104.48a.62.62,0,1,1-.85-.17A.62.62,0,0,1,64.71,104.48Z"/><path d="M66.78,103.13a.61.61,0,0,1-.19.84.6.6,0,1,1-.66-1A.61.61,0,0,1,66.78,103.13Z"/><path d="M68.85,101.78a.61.61,0,0,1-.19.84.6.6,0,1,1-.66-1A.61.61,0,0,1,68.85,101.78Z"/></svg>