<svg xmlns="http://www.w3.org/2000/svg" viewBox="0 0 74.87 125.61"><title>50</title><path d="M37.44,112.33c5.92-9.4,12-18.73,17.93-28.1l18.1-28v.84C67.25,47.88,61.16,38.59,55,29.33L36.6,1.55h1.67L19.87,29.33C13.71,38.59,7.63,47.88,1.41,57.09v-.85l18.1,28c6,9.37,12,18.7,17.93,28.1C31.14,103.18,25,94,18.7,84.77L.13,57.09a.76.76,0,0,1,0-.83v0c6-9.34,12.14-18.6,18.21-27.91L36.6.45a1,1,0,0,1,1.67,0L56.53,28.33c6.07,9.31,12.2,18.57,18.22,27.92h0a.76.76,0,0,1,0,.83L56.18,84.77C49.93,94,43.74,103.18,37.44,112.33Z"/><polygon points="49.08 94.66 57.64 94.47 57.8 94.77 52.86 102.51 47.9 110.23 37.86 125.61 37.02 125.61 26.98 110.23 22.02 102.51 17.08 94.77 17.24 94.47 25.8 94.66 17.24 94.85 17.4 94.56 22.56 102.15 27.7 109.76 37.86 125.06 37.02 125.06 47.19 109.76 52.32 102.15 57.48 94.56 57.64 94.85 49.08 94.66"/><path d="M25.8,94.66c3.88-.2,7.76-.22,11.64-.25s7.76,0,11.64.25c-3.88.21-7.76.22-11.64.25S29.68,94.87,25.8,94.66Z"/><path d="M72.42,58.41a.6.6,0,0,1,.84-.87.6.6,0,0,1-.84.87Z"/><path d="M70.73,60.16a.61.61,0,0,1,.85-.87.6.6,0,0,1,0,.85A.61.61,0,0,1,70.73,60.16Z"/><path d="M69.05,61.91a.61.61,0,0,1,0-.86.6.6,0,1,1,0,.86Z"/><path d="M67.36,63.65a.61.61,0,0,1,.85-.87.6.6,0,0,1,0,.85A.61.61,0,0,1,67.36,63.65Z"/><path d="M65.68,65.4a.6.6,0,0,1,0-.85.59.59,0,0,1,.85,0,.6.6,0,0,1-.84.87Z"/><path d="M64,67.15a.61.61,0,1,1,.86,0A.61.61,0,0,1,64,67.15Z"/><path d="M62.31,68.89a.59.59,0,0,1,0-.85.6.6,0,1,1,0,.85Z"/><path d="M60.62,70.64a.6.6,0,0,1,0-.85.59.59,0,0,1,.85,0,.6.6,0,0,1,0,.85A.61.61,0,0,1,60.62,70.64Z"/><path d="M58.94,72.39a.61.61,0,0,1,.84-.88.61.61,0,0,1,0,.86A.6.6,0,0,1,58.94,72.39Z"/><path d="M57.25,74.13a.6.6,0,0,1,.84-.87.59.59,0,0,1,0,.85A.6.6,0,0,1,57.25,74.13Z"/><path d="M55.57,75.88a.6.6,0,0,1,0-.86.59.59,0,0,1,.85,0,.6.6,0,0,1-.84.87Z"/><path d="M53.88,77.62a.6.6,0,0,1,.84-.87.6.6,0,0,1-.84.87Z"/><path d="M52.2,79.37a.59.59,0,0,1,0-.85.6.6,0,1,1,0,.85Z"/><path d="M50.51,81.12a.61.61,0,0,1,0-.86.6.6,0,1,1,0,.86Z"/><path d="M48.83,82.86a.6.6,0,0,1,0-.85.61.61,0,0,1,.86,0,.6.6,0,0,1,0,.85A.59.59,0,0,1,48.83,82.86Z"/><path d="M47.14,84.61a.6.6,0,0,1,.84-.87.59.59,0,0,1,0,.85A.6.6,0,0,1,47.14,84.61Z"/><path d="M45.45,86.36a.62.62,0,0,1,0-.86.6.6,0,1,1,0,.86Z"/><path d="M43.77,88.1a.6.6,0,1,1,.85,0A.6.6,0,0,1,43.77,88.1Z"/><path d="M42.08,89.85a.61.61,0,0,1,.85-.87.6.6,0,0,1,0,.85A.61.61,0,0,1,42.08,89.85Z"/><path d="M40.4,91.6a.61.61,0,0,1,0-.86.6.6,0,0,1,.85,0,.61.61,0,0,1,0,.86A.6.6,0,0,1,40.4,91.6Z"/><path d="M38.71,93.34a.6.6,0,0,1,0-.85.6.6,0,1,1,0,.85Z"/><path d="M35.32,92.47a.6.6,0,0,1,.85,0,.59.59,0,0,1,0,.85.6.6,0,0,1-.84-.87Z"/><path d="M33.64,90.72a.6.6,0,0,1,.85,0,.61.61,0,0,1,0,.86.61.61,0,0,1-.84-.88Z"/><path d="M32,89a.6.6,0,0,1,.85,0,.59.59,0,0,1,0,.85A.6.6,0,0,1,32,89Z"/><path d="M30.27,87.23a.6.6,0,0,1,.84.87.61.61,0,0,1-.86,0A.6.6,0,0,1,30.27,87.23Z"/><path d="M28.58,85.48a.61.61,0,1,1,0,.86A.61.61,0,0,1,28.58,85.48Z"/><path d="M26.89,83.74a.61.61,0,0,1,.86,0,.6.6,0,0,1,0,.85.61.61,0,0,1-.85-.87Z"/><path d="M25.21,82a.6.6,0,0,1,.84.87.59.59,0,0,1-.85,0A.6.6,0,0,1,25.21,82Z"/><path d="M23.52,80.24a.61.61,0,0,1,.86,0,.62.62,0,0,1,0,.86.61.61,0,0,1-.86,0A.62.62,0,0,1,23.52,80.24Z"/><path d="M21.84,78.5a.6.6,0,1,1,0,.85A.6.6,0,0,1,21.84,78.5Z"/><path d="M20.15,76.75a.61.61,0,0,1,.85.87.61.61,0,0,1-.85-.87Z"/><path d="M18.47,75a.59.59,0,0,1,.85,0,.61.61,0,0,1,0,.86.6.6,0,0,1-.85,0A.59.59,0,0,1,18.47,75Z"/><path d="M16.78,73.26a.61.61,0,1,1,0,.85A.6.6,0,0,1,16.78,73.26Z"/><path d="M15.1,71.51a.6.6,0,0,1,.85,0,.61.61,0,0,1,0,.86.61.61,0,0,1-.84-.88Z"/><path d="M13.41,69.77a.6.6,0,0,1,.84.87.6.6,0,0,1-.84-.87Z"/><path d="M11.73,68a.6.6,0,1,1,0,.85A.59.59,0,0,1,11.73,68Z"/><path d="M10,66.27a.61.61,0,1,1,0,.86A.61.61,0,0,1,10,66.27Z"/><path d="M8.36,64.53a.59.59,0,0,1,.85,0,.6.6,0,0,1,0,.85.61.61,0,0,1-.86,0A.6.6,0,0,1,8.36,64.53Z"/><path d="M6.67,62.78a.6.6,0,0,1,.85,0,.59.59,0,0,1,0,.85.6.6,0,0,1-.84-.87Z"/><path d="M5,61a.6.6,0,0,1,.85,0A.6.6,0,1,1,5,61Z"/><path d="M3.3,59.29a.6.6,0,0,1,.85,0,.59.59,0,0,1,0,.85.6.6,0,0,1-.84-.87Z"/><path d="M1.61,57.54a.61.61,0,0,1,.86,0,.6.6,0,1,1-.87.83A.61.61,0,0,1,1.61,57.54Z"/><path d="M71.85,57.47a.6.6,0,1,1,1.13-.4.6.6,0,0,1-1.13.4Z"/><path d="M69.59,58.27A.6.6,0,0,1,70,57.5a.6.6,0,0,1,.4,1.13A.6.6,0,0,1,69.59,58.27Z"/><path d="M67.34,59.07a.6.6,0,0,1,.36-.77.6.6,0,1,1-.36.77Z"/><path d="M65.08,59.87a.6.6,0,0,1,.36-.77.61.61,0,0,1,.77.37.6.6,0,0,1-1.13.4Z"/><path d="M62.82,60.67a.61.61,0,0,1,.37-.77.6.6,0,1,1-.37.77Z"/><path d="M60.57,61.47a.6.6,0,0,1,.36-.77.61.61,0,0,1,.77.37.6.6,0,0,1-1.13.4Z"/><path d="M58.31,62.27a.6.6,0,0,1,.36-.77.6.6,0,1,1-.36.77Z"/><path d="M56.05,63.07a.61.61,0,0,1,.37-.77.6.6,0,0,1,.4,1.13A.61.61,0,0,1,56.05,63.07Z"/><path d="M53.8,63.87a.6.6,0,0,1,.36-.77.61.61,0,0,1,.77.37.6.6,0,0,1-1.13.4Z"/><path d="M51.54,64.67a.6.6,0,1,1,1.13-.4.59.59,0,0,1-.36.76A.6.6,0,0,1,51.54,64.67Z"/><path d="M49.29,65.47a.59.59,0,1,1,.76.36A.6.6,0,0,1,49.29,65.47Z"/><path d="M47,66.27a.6.6,0,1,1,.76.36A.59.59,0,0,1,47,66.27Z"/><path d="M44.77,67.07a.6.6,0,0,1,.37-.77.6.6,0,0,1,.4,1.13A.6.6,0,0,1,44.77,67.07Z"/><path d="M42.52,67.87a.59.59,0,0,1,.36-.77.6.6,0,1,1-.36.77Z"/><path d="M40.26,68.67a.6.6,0,0,1,.36-.77.61.61,0,0,1,.77.37.6.6,0,0,1-1.13.4Z"/><path d="M38,69.47a.6.6,0,1,1,1.13-.4.59.59,0,0,1-.36.76A.6.6,0,0,1,38,69.47Z"/><path d="M35.75,69.07a.59.59,0,1,1,.36.76A.59.59,0,0,1,35.75,69.07Z"/><path d="M33.49,68.27a.6.6,0,1,1,.36.76A.6.6,0,0,1,33.49,68.27Z"/><path d="M31.23,67.47A.61.61,0,0,1,32,67.1a.6.6,0,0,1,.36.77.6.6,0,0,1-1.13-.4Z"/><path d="M29,66.67a.59.59,0,0,1,.76-.37.6.6,0,1,1-.4,1.13A.59.59,0,0,1,29,66.67Z"/><path d="M26.72,65.87a.6.6,0,0,1,.77-.37.6.6,0,0,1-.41,1.13A.59.59,0,0,1,26.72,65.87Z"/><path d="M24.46,65.07a.6.6,0,1,1,1.13.4.6.6,0,0,1-1.13-.4Z"/><path d="M22.21,64.27A.6.6,0,0,1,23,63.9a.6.6,0,1,1-.4,1.13A.59.59,0,0,1,22.21,64.27Z"/><path d="M20,63.47a.6.6,0,1,1,.36.76A.59.59,0,0,1,20,63.47Z"/><path d="M17.69,62.67a.6.6,0,1,1,1.13.4.6.6,0,0,1-1.13-.4Z"/><path d="M15.44,61.87a.59.59,0,0,1,.76-.37.6.6,0,1,1-.4,1.13A.59.59,0,0,1,15.44,61.87Z"/><path d="M13.18,61.07a.6.6,0,1,1,1.13.4.6.6,0,0,1-1.13-.4Z"/><path d="M10.93,60.27a.59.59,0,1,1,.36.76A.59.59,0,0,1,10.93,60.27Z"/><path d="M8.67,59.47a.6.6,0,1,1,.36.76A.6.6,0,0,1,8.67,59.47Z"/><path d="M6.41,58.67a.6.6,0,1,1,1.13.4.6.6,0,0,1-1.13-.4Z"/><path d="M4.16,57.87a.59.59,0,1,1,.36.76A.59.59,0,0,1,4.16,57.87Z"/><path d="M1.9,57.07a.6.6,0,1,1,.36.76A.6.6,0,0,1,1.9,57.07Z"/></svg>