<svg xmlns="http://www.w3.org/2000/svg" viewBox="0 0 62.49 98.78"><title>52</title><path d="M55.17,49.41c-3.81,8.15-7.72,16.26-11.64,24.35-2,4-4,8.07-5.93,12.11l-3,6-1.49,3-.74,1.52-.37.75-.19.38-.09.19-.05.09,0,0v0c.06-.47.14.85-.89-.25l.06.26-5.95-12.1c-2-4-4-8.06-5.92-12.11L13.09,61.61,7.31,49.4l6.18,12,6.1,12c2.05,4,4,8,6.05,12l6,12,.21.42-.15-.16c-1-1.11-.95.21-.89-.27h0v0l0,0,0-.1.1-.19.18-.37.38-.75.75-1.51,1.51-3,3-6c2-4,4-8,6-12C47,65.35,51,57.35,55.17,49.41Z"/><path d="M7.31,49.4c-2.47-4.49-4.83-9-7.25-13.57a.57.57,0,0,1,.06-.6h0l7.54-8.81,7.59-8.73L22.9,9,30.57.34a.88.88,0,0,1,1.34,0L39.59,9l7.63,8.68q7.62,8.71,15.13,17.54l0,0a.55.55,0,0,1,.05.6c-2.41,4.53-4.78,9.09-7.25,13.58,2.1-4.73,4.31-9.39,6.46-14.08l.07.62Q53.83,27.55,46.05,19l-7.76-8.54-7.72-8.6h1.34l-7.72,8.59L16.43,19l-7.8,8.5L.78,36l.08-.62C3,40,5.21,44.68,7.31,49.4Z"/><path d="M7.31,49.4C5.21,54.13,3,58.79.86,63.48l-.08-.61L8.63,71.3l7.8,8.5,7.76,8.55,7.72,8.59H30.57l7.72-8.59,7.76-8.55q7.77-8.53,15.65-16.94l-.07.62c-2.15-4.69-4.36-9.35-6.46-14.08C57.64,53.9,60,58.45,62.42,63a.55.55,0,0,1-.05.6l0,0q-7.51,8.82-15.13,17.54l-7.63,8.68-7.68,8.65a.88.88,0,0,1-1.34,0L22.9,89.82l-7.63-8.69L7.68,72.4.14,63.6l0,0A.55.55,0,0,1,.06,63C2.48,58.45,4.84,53.89,7.31,49.4Z"/><path d="M55.17,49.4C51,41.46,47,33.46,42.89,25.46c-2-4-4-8-6-12l-6-12h.83l-6,12.05c-2,4-4,8-6.05,12l-6.09,12L7.31,49.4l5.78-12.2L19,25.05C20.9,21,22.91,17,24.88,12.94L30.83.84,31.24,0l.42.84,5.94,12.1c2,4,4,8.06,5.93,12.11C47.45,33.14,51.36,41.25,55.17,49.4Z"/></svg>