<?xml version="1.0" encoding="utf-8"?>
<!-- Generator: Adobe Illustrator 23.0.3, SVG Export Plug-In . SVG Version: 6.00 Build 0)  -->
<svg version="1.1" id="Layer_1" xmlns="http://www.w3.org/2000/svg" xmlns:xlink="http://www.w3.org/1999/xlink" x="0px" y="0px"
	 viewBox="0 0 198.42 198.43" style="enable-background:new 0 0 198.42 198.43;" xml:space="preserve">
<style type="text/css">
	.st0{fill:#231F20;}
</style>
<g>
	<path class="st0" d="M47.58,175.98c-7.8,0-14.11-2.21-18.52-6.61c-8.33-8.33-8.81-23.46-1.36-42.61
		C35.11,107.7,49.49,86.9,68.2,68.2c38.68-38.68,84.07-56.24,101.17-39.14c17.1,17.1-0.46,62.48-39.14,101.17
		c-18.7,18.7-39.5,33.09-58.56,40.5C62.65,174.23,54.52,175.98,47.58,175.98z M150.84,23.19c-21.53,0-53.62,17.02-82.13,45.52
		c-18.64,18.64-32.96,39.34-40.33,58.3c-7.34,18.87-6.91,33.72,1.2,41.83c8.11,8.11,22.96,8.53,41.83,1.19
		c18.96-7.37,39.67-21.7,58.3-40.33c38.4-38.4,55.96-83.32,39.14-100.13C164.52,25.25,158.31,23.19,150.84,23.19z"/>
	<path class="st0" d="M150.92,175.91c-21.79,0-54.09-17.06-82.72-45.69c-18.7-18.7-33.09-39.5-40.5-58.56
		c-7.45-19.15-6.97-34.29,1.36-42.61c17.1-17.1,62.48,0.46,101.17,39.14c18.71,18.71,33.09,39.5,40.5,58.55
		c7.45,19.15,6.97,34.29-1.36,42.61C164.92,173.81,158.56,175.91,150.92,175.91z M47.58,23.19c-7.47,0-13.67,2.05-18,6.38
		c-8.11,8.11-8.53,22.96-1.19,41.83c7.38,18.96,21.7,39.67,40.33,58.3c28.5,28.5,60.6,45.52,82.13,45.52c7.47,0,13.67-2.05,18-6.38
		c8.11-8.11,8.53-22.96,1.2-41.83c-7.38-18.96-21.7-39.67-40.34-58.3C101.21,40.21,69.11,23.19,47.58,23.19z"/>
	<path class="st0" d="M99.21,143.07C44.51,143.07,0,123.4,0,99.22c0-24.19,44.51-43.86,99.21-43.86l0,0
		c54.71,0,99.21,19.68,99.21,43.86C198.42,123.4,153.92,143.07,99.21,143.07z M99.21,56.08c-54.3,0-98.48,19.35-98.48,43.13
		c0,23.78,44.18,43.13,98.48,43.13c54.3,0,98.48-19.35,98.48-43.13C197.69,75.44,153.51,56.09,99.21,56.08L99.21,56.08z"/>
	<path class="st0" d="M99.21,198.43c-24.18,0-43.86-44.51-43.86-99.21C55.35,44.51,75.03,0,99.21,0c24.19,0,43.86,44.51,43.86,99.21
		C143.07,153.92,123.4,198.43,99.21,198.43z M99.21,0.73c-23.78,0-43.13,44.18-43.13,98.48c0,54.3,19.35,98.48,43.13,98.48
		c23.78,0,43.13-44.18,43.13-98.48C142.34,44.91,122.99,0.73,99.21,0.73z"/>
	<path class="st0" d="M70.04,192.41l-0.02-0.73c0.7-0.02,1.43-0.08,2.15-0.17l0.09,0.73C71.51,192.33,70.76,192.38,70.04,192.41z
		 M67.81,192.38c-0.74-0.05-1.49-0.13-2.21-0.25l0.12-0.72c0.7,0.12,1.42,0.2,2.14,0.25L67.81,192.38z M74.44,191.88l-0.14-0.72
		c0.69-0.14,1.39-0.31,2.1-0.5l0.2,0.71C75.86,191.56,75.14,191.74,74.44,191.88z M63.43,191.63c-0.71-0.2-1.42-0.45-2.11-0.73
		l0.28-0.68c0.66,0.27,1.34,0.51,2.03,0.7L63.43,191.63z M78.7,190.71l-0.24-0.69c0.67-0.23,1.35-0.49,2.03-0.77l0.28,0.68
		C80.08,190.21,79.38,190.47,78.7,190.71z M59.31,189.94c-0.65-0.35-1.28-0.75-1.89-1.17l0.42-0.6c0.59,0.41,1.2,0.79,1.82,1.13
		L59.31,189.94z M82.78,189.03l-0.31-0.66c0.64-0.3,1.29-0.63,1.94-0.97l0.34,0.65C84.1,188.4,83.44,188.73,82.78,189.03z
		 M55.66,187.4c-0.55-0.48-1.09-0.99-1.61-1.54l0.53-0.5c0.5,0.53,1.02,1.03,1.55,1.49L55.66,187.4z M86.68,186.98l-0.37-0.63
		c0.62-0.36,1.24-0.74,1.86-1.13l0.39,0.62C87.94,186.23,87.31,186.61,86.68,186.98z M90.4,184.62l-0.41-0.6
		c0.59-0.4,1.18-0.82,1.78-1.26l0.43,0.59C91.6,183.79,91,184.22,90.4,184.62z M52.6,184.19c-0.45-0.56-0.89-1.16-1.31-1.79
		l0.61-0.41c0.41,0.61,0.84,1.2,1.27,1.74L52.6,184.19z M93.96,182.03l-0.45-0.58c0.57-0.44,1.14-0.89,1.71-1.36l0.46,0.57
		C95.11,181.13,94.53,181.59,93.96,182.03z M50.13,180.52c-0.36-0.62-0.71-1.28-1.04-1.95l0.66-0.32c0.33,0.66,0.67,1.3,1.02,1.91
		L50.13,180.52z M97.37,179.25l-0.48-0.55c0.55-0.47,1.09-0.95,1.64-1.44l0.49,0.54C98.46,178.29,97.92,178.77,97.37,179.25z
		 M48.18,176.55c-0.28-0.67-0.55-1.35-0.81-2.06l0.69-0.25c0.25,0.69,0.52,1.37,0.79,2.02L48.18,176.55z M100.63,176.3l-0.5-0.53
		c0.52-0.49,1.05-1,1.57-1.52l0.51,0.52C101.68,175.29,101.15,175.8,100.63,176.3z M103.76,173.22l-0.52-0.51
		c0.5-0.52,1.01-1.04,1.51-1.58l0.53,0.5C104.77,172.17,104.27,172.7,103.76,173.22z M46.66,172.41c-0.22-0.69-0.42-1.4-0.61-2.12
		l0.71-0.19c0.19,0.71,0.39,1.41,0.61,2.09L46.66,172.41z M106.77,170.02l-0.54-0.49c0.49-0.54,0.97-1.08,1.45-1.63l0.55,0.48
		C107.75,168.93,107.26,169.48,106.77,170.02z M45.52,168.15c-0.16-0.71-0.31-1.42-0.45-2.16l0.72-0.14
		c0.14,0.72,0.29,1.43,0.45,2.13L45.52,168.15z M109.67,166.71l-0.56-0.47c0.47-0.55,0.93-1.11,1.4-1.68l0.57,0.46
		C110.61,165.6,110.14,166.16,109.67,166.71z M44.69,163.82c-0.11-0.72-0.22-1.44-0.31-2.18l0.73-0.09c0.09,0.73,0.2,1.45,0.31,2.16
		L44.69,163.82z M112.45,163.32l-0.57-0.46c0.45-0.57,0.9-1.14,1.35-1.72l0.58,0.45C113.36,162.18,112.91,162.75,112.45,163.32z
		 M115.14,159.85l-0.59-0.44c0.43-0.58,0.87-1.16,1.3-1.76l0.59,0.43C116.02,158.68,115.58,159.27,115.14,159.85z M44.13,159.46
		c-0.07-0.72-0.14-1.45-0.19-2.19l0.73-0.06c0.06,0.73,0.12,1.46,0.19,2.17L44.13,159.46z M117.73,156.31l-0.6-0.42
		c0.42-0.59,0.84-1.19,1.26-1.79l0.6,0.42C118.57,155.11,118.15,155.71,117.73,156.31z M43.79,155.08c-0.04-0.72-0.07-1.46-0.09-2.2
		l0.73-0.02c0.02,0.73,0.05,1.46,0.09,2.18L43.79,155.08z M120.23,152.7l-0.61-0.41c0.4-0.6,0.81-1.21,1.21-1.82l0.61,0.4
		C121.04,151.48,120.64,152.09,120.23,152.7z M43.66,150.68l-0.01-1.01c0-0.4,0-0.79,0.01-1.19l0.73,0.01c0,0.4-0.01,0.79-0.01,1.18
		l0.01,1L43.66,150.68z M122.64,149.03l-0.62-0.39c0.39-0.61,0.78-1.23,1.17-1.85l0.62,0.39
		C123.42,147.8,123.03,148.41,122.64,149.03z M44.44,146.31l-0.73-0.02c0.02-0.73,0.05-1.46,0.08-2.19l0.73,0.03
		C44.49,144.86,44.46,145.59,44.44,146.31z M124.96,145.3l-0.63-0.38c0.38-0.62,0.75-1.25,1.12-1.88l0.63,0.37
		C125.71,144.05,125.33,144.68,124.96,145.3z M44.64,141.95l-0.73-0.05c0.05-0.72,0.1-1.45,0.16-2.19l0.73,0.06
		C44.74,140.5,44.69,141.23,44.64,141.95z M127.19,141.53l-0.63-0.37c0.36-0.63,0.72-1.26,1.08-1.9l0.64,0.36
		C127.92,140.26,127.56,140.89,127.19,141.53z M129.34,137.7l-0.64-0.35c0.35-0.64,0.7-1.28,1.04-1.92l0.65,0.35
		C130.04,136.42,129.69,137.06,129.34,137.7z M45,137.6l-0.73-0.07c0.07-0.72,0.14-1.45,0.23-2.18l0.73,0.08
		C45.14,136.15,45.06,136.88,45,137.6z M131.41,133.83l-0.65-0.34c0.34-0.64,0.67-1.29,1-1.94l0.65,0.33
		C132.09,132.54,131.75,133.19,131.41,133.83z M45.48,133.25l-0.73-0.09c0.09-0.72,0.19-1.45,0.29-2.18l0.72,0.1
		C45.67,131.81,45.57,132.53,45.48,133.25z M133.41,129.92l-0.66-0.33c0.32-0.65,0.64-1.31,0.96-1.96l0.66,0.32
		C134.05,128.61,133.73,129.27,133.41,129.92z M46.09,128.93l-0.72-0.11c0.11-0.72,0.23-1.44,0.35-2.17l0.72,0.12
		C46.31,127.49,46.2,128.21,46.09,128.93z M135.32,125.98l-0.66-0.31c0.31-0.66,0.62-1.32,0.92-1.98l0.67,0.31
		C135.94,124.65,135.63,125.32,135.32,125.98z M46.81,124.62l-0.72-0.13c0.13-0.72,0.27-1.43,0.41-2.16l0.72,0.14
		C47.08,123.19,46.94,123.9,46.81,124.62z M137.15,121.99l-0.67-0.3c0.3-0.66,0.59-1.33,0.88-2l0.67,0.29
		C137.75,120.66,137.45,121.32,137.15,121.99z M47.65,120.33l-0.72-0.15c0.15-0.71,0.3-1.43,0.46-2.15l0.71,0.16
		C47.95,118.9,47.79,119.62,47.65,120.33z M138.91,117.97l-0.67-0.29c0.28-0.65,0.55-1.31,0.83-1.97l0.7,0.23l-0.02,0.06
		C139.46,116.66,139.18,117.31,138.91,117.97z M48.58,116.06l-0.71-0.17c0.16-0.71,0.33-1.42,0.51-2.13l0.71,0.17
		C48.92,114.64,48.75,115.35,48.58,116.06z M140.58,113.92l-0.68-0.27c0.27-0.68,0.54-1.36,0.81-2.03l0.68,0.27
		C141.13,112.56,140.86,113.24,140.58,113.92z M49.62,111.81l-0.71-0.18c0.18-0.71,0.36-1.41,0.55-2.12l0.71,0.19
		C49.98,110.4,49.8,111.11,49.62,111.81z M142.18,109.83l-0.68-0.26c0.26-0.68,0.52-1.37,0.77-2.05l0.69,0.25
		C142.7,108.46,142.45,109.15,142.18,109.83z M50.75,107.59l-0.71-0.2c0.2-0.7,0.4-1.4,0.6-2.11l0.7,0.2
		C51.14,106.19,50.94,106.89,50.75,107.59z M143.7,105.72l-0.69-0.25c0.25-0.69,0.49-1.38,0.73-2.06l0.69,0.24
		C144.19,104.34,143.95,105.02,143.7,105.72z M51.96,103.39l-0.7-0.21c0.21-0.7,0.43-1.4,0.64-2.1l0.7,0.22
		C52.39,102,52.17,102.69,51.96,103.39z M145.14,101.57l-0.69-0.23c0.23-0.69,0.46-1.38,0.68-2.08l0.7,0.23
		C145.6,100.18,145.38,100.88,145.14,101.57z M53.27,99.22l-0.7-0.23c0.23-0.69,0.45-1.39,0.69-2.08l0.69,0.23
		C53.72,97.83,53.5,98.52,53.27,99.22z M146.5,97.4l-0.7-0.22c0.22-0.7,0.43-1.39,0.64-2.09l0.7,0.21
		C146.93,96,146.72,96.7,146.5,97.4z M54.66,95.07l-0.69-0.24c0.24-0.69,0.48-1.38,0.73-2.07l0.69,0.25
		C55.14,93.7,54.9,94.38,54.66,95.07z M147.77,93.2l-0.7-0.21c0.21-0.7,0.4-1.4,0.6-2.1l0.71,0.2
		C148.17,91.79,147.97,92.49,147.77,93.2z M56.14,90.95l-0.69-0.25c0.25-0.68,0.51-1.37,0.77-2.05l0.68,0.26
		C56.64,89.59,56.39,90.27,56.14,90.95z M148.95,88.97l-0.71-0.19c0.19-0.71,0.37-1.41,0.55-2.11l0.71,0.18
		C149.32,87.56,149.13,88.26,148.95,88.97z M57.69,86.87l-0.68-0.27c0.27-0.68,0.54-1.36,0.81-2.04l0.68,0.27
		C58.23,85.51,57.96,86.19,57.69,86.87z M150.03,84.72l-0.71-0.17c0.17-0.71,0.34-1.42,0.51-2.13l0.71,0.17
		C150.38,83.3,150.21,84.01,150.03,84.72z M59.33,82.81l-0.68-0.27l0.05-0.11c0.28-0.67,0.56-1.35,0.85-2.02l0.67,0.29
		c-0.29,0.67-0.57,1.34-0.85,2.02L59.33,82.81z M151.02,80.45l-0.71-0.16c0.16-0.71,0.31-1.43,0.46-2.14l0.72,0.15
		C151.34,79.01,151.18,79.73,151.02,80.45z M61.08,78.68l-0.67-0.29c0.29-0.67,0.59-1.34,0.89-2.01l0.67,0.3
		C61.67,77.35,61.37,78.01,61.08,78.68z M151.91,76.15l-0.72-0.14c0.14-0.72,0.27-1.43,0.4-2.15l0.72,0.13
		C152.19,74.71,152.06,75.43,151.91,76.15z M62.87,74.69l-0.67-0.31c0.31-0.67,0.62-1.33,0.93-1.99l0.66,0.31
		C63.48,73.37,63.17,74.03,62.87,74.69z M152.7,71.83l-0.72-0.12c0.12-0.72,0.24-1.44,0.35-2.16l0.72,0.11
		C152.94,70.38,152.82,71.11,152.7,71.83z M64.74,70.74l-0.66-0.32c0.32-0.66,0.64-1.32,0.97-1.97l0.66,0.33
		C65.38,69.43,65.05,70.08,64.74,70.74z M153.37,67.49l-0.72-0.1c0.1-0.73,0.2-1.45,0.29-2.17l0.73,0.09
		C153.57,66.04,153.47,66.76,153.37,67.49z M66.68,66.82l-0.65-0.33c0.33-0.65,0.67-1.3,1.01-1.95l0.65,0.34
		C67.35,65.52,67.01,66.17,66.68,66.82z M153.92,63.14l-0.73-0.08c0.08-0.73,0.16-1.45,0.23-2.17l0.73,0.07
		C154.08,61.68,154,62.41,153.92,63.14z M68.71,62.95l-0.65-0.35c0.35-0.65,0.7-1.29,1.05-1.93l0.64,0.35
		C69.4,61.66,69.05,62.3,68.71,62.95z M70.81,59.11l-0.64-0.36c0.36-0.64,0.72-1.28,1.09-1.91l0.63,0.37
		C71.53,57.84,71.17,58.48,70.81,59.11z M154.35,58.77l-0.73-0.06c0.06-0.73,0.11-1.46,0.16-2.18l0.73,0.05
		C154.46,57.3,154.41,58.03,154.35,58.77z M73,55.33l-0.63-0.37c0.37-0.63,0.75-1.26,1.13-1.88l0.63,0.38
		C73.74,54.07,73.37,54.7,73,55.33z M154.63,54.38l-0.73-0.04c0.03-0.73,0.06-1.46,0.08-2.18l0.73,0.02
		C154.69,52.92,154.66,53.65,154.63,54.38z M75.26,51.59l-0.62-0.39c0.39-0.62,0.78-1.24,1.17-1.86l0.62,0.39
		C76.04,50.35,75.65,50.97,75.26,51.59z M154.76,49.99l-0.73-0.01c0-0.41,0.01-0.83,0.01-1.24l0-0.95l0.73-0.01l0,0.95
		C154.77,49.16,154.76,49.58,154.76,49.99z M77.62,47.91l-0.61-0.4c0.4-0.61,0.81-1.22,1.21-1.83l0.61,0.41
		C78.43,46.69,78.02,47.3,77.62,47.91z M153.99,45.62c-0.02-0.73-0.05-1.46-0.09-2.18l0.73-0.04c0.04,0.72,0.07,1.46,0.09,2.2
		L153.99,45.62z M80.06,44.28l-0.6-0.42c0.42-0.6,0.84-1.2,1.26-1.8l0.6,0.42C80.9,43.09,80.48,43.68,80.06,44.28z M153.76,41.26
		c-0.06-0.73-0.12-1.46-0.19-2.17l0.73-0.07c0.07,0.72,0.14,1.45,0.19,2.19L153.76,41.26z M82.6,40.72L82,40.29
		c0.43-0.59,0.87-1.18,1.31-1.76l0.58,0.44C83.46,39.55,83.03,40.13,82.6,40.72z M85.22,37.23l-0.58-0.45
		c0.45-0.58,0.9-1.16,1.36-1.73l0.57,0.46C86.12,36.08,85.67,36.65,85.22,37.23z M153.32,36.93c-0.09-0.73-0.2-1.45-0.31-2.16
		l0.72-0.11c0.11,0.72,0.22,1.44,0.31,2.18L153.32,36.93z M87.95,33.81l-0.57-0.46c0.47-0.57,0.94-1.13,1.41-1.69l0.56,0.47
		C88.88,32.69,88.42,33.25,87.95,33.81z M152.64,32.62c-0.14-0.72-0.29-1.43-0.44-2.13l0.71-0.16c0.16,0.71,0.31,1.43,0.45,2.16
		L152.64,32.62z M90.78,30.49L90.23,30c0.49-0.55,0.97-1.1,1.46-1.64l0.54,0.49C91.75,29.39,91.26,29.94,90.78,30.49z M151.68,28.38
		c-0.19-0.71-0.39-1.41-0.6-2.09l0.7-0.22c0.21,0.69,0.42,1.4,0.61,2.12L151.68,28.38z M93.71,27.25l-0.53-0.5
		c0.51-0.54,1.01-1.07,1.52-1.59l0.52,0.51C94.72,26.19,94.22,26.72,93.71,27.25z M150.38,24.23c-0.25-0.69-0.51-1.37-0.79-2.02
		l0.68-0.28c0.28,0.67,0.55,1.35,0.8,2.06L150.38,24.23z M96.77,24.13l-0.51-0.52c0.53-0.52,1.05-1.03,1.58-1.52l0.5,0.53
		C97.81,23.11,97.29,23.62,96.77,24.13z M99.94,21.14l-0.49-0.54c0.55-0.5,1.1-0.98,1.65-1.45l0.48,0.55
		C101.03,20.16,100.49,20.65,99.94,21.14z M148.7,20.24c-0.32-0.66-0.66-1.3-1.01-1.92l0.64-0.36c0.36,0.62,0.7,1.28,1.03,1.96
		L148.7,20.24z M103.25,18.29l-0.46-0.57c0.57-0.47,1.15-0.93,1.72-1.37l0.45,0.58C104.38,17.38,103.82,17.83,103.25,18.29z
		 M146.55,16.48c-0.41-0.61-0.83-1.2-1.27-1.75l0.57-0.45c0.45,0.57,0.89,1.17,1.3,1.79L146.55,16.48z M106.7,15.63l-0.43-0.59
		c0.6-0.44,1.2-0.86,1.8-1.27l0.41,0.61C107.88,14.78,107.29,15.19,106.7,15.63z M110.29,13.18l-0.39-0.62
		c0.63-0.4,1.26-0.78,1.88-1.14l0.37,0.63C111.54,12.41,110.92,12.78,110.29,13.18z M143.87,13.1c-0.5-0.53-1.02-1.03-1.55-1.49
		l0.48-0.55c0.55,0.48,1.09,1,1.6,1.54L143.87,13.1z M114.06,11l-0.34-0.65c0.66-0.35,1.32-0.68,1.97-0.98l0.31,0.66
		C115.36,10.33,114.71,10.65,114.06,11z M140.63,10.28c-0.59-0.41-1.2-0.79-1.82-1.14l0.35-0.64c0.65,0.36,1.28,0.75,1.89,1.18
		L140.63,10.28z M117.99,9.16l-0.28-0.68c0.69-0.28,1.38-0.54,2.07-0.78l0.24,0.69C119.35,8.62,118.66,8.88,117.99,9.16z
		 M136.88,8.22c-0.66-0.27-1.34-0.51-2.03-0.71l0.2-0.7c0.71,0.21,1.42,0.45,2.1,0.73L136.88,8.22z M122.08,7.75l-0.19-0.71
		c0.72-0.2,1.45-0.37,2.15-0.51l0.14,0.72C123.5,7.39,122.79,7.56,122.08,7.75z M132.75,7.03c-0.69-0.12-1.41-0.2-2.14-0.25
		l0.05-0.73c0.75,0.05,1.49,0.14,2.21,0.26L132.75,7.03z M126.31,6.91l-0.09-0.73c0.75-0.09,1.49-0.14,2.21-0.17l0.02,0.73
		C127.76,6.77,127.04,6.82,126.31,6.91z"/>
	<path class="st0" d="M149.67,154.77c-0.41,0-0.83,0-1.24-0.01l0.01-0.73c0.41,0,0.82,0.01,1.23,0.01l0.95,0l0.01,0.73
		L149.67,154.77z M152.83,154.72l-0.02-0.73c0.73-0.02,1.46-0.05,2.18-0.09l0.04,0.73C154.3,154.67,153.57,154.7,152.83,154.72z
		 M146.23,154.71c-0.73-0.02-1.46-0.05-2.2-0.08l0.04-0.73c0.73,0.03,1.46,0.06,2.18,0.08L146.23,154.71z M141.85,154.5
		c-0.72-0.05-1.46-0.1-2.19-0.16l0.06-0.73c0.73,0.06,1.46,0.11,2.18,0.16L141.85,154.5z M157.21,154.49l-0.05-0.73
		c0.73-0.06,1.46-0.12,2.17-0.19l0.07,0.73C158.68,154.37,157.95,154.44,157.21,154.49z M137.47,154.15
		c-0.72-0.07-1.45-0.15-2.18-0.23l0.08-0.73c0.73,0.08,1.45,0.16,2.17,0.23L137.47,154.15z M161.59,154.05l-0.09-0.73
		c0.73-0.09,1.45-0.2,2.16-0.31l0.11,0.72C163.05,153.85,162.33,153.95,161.59,154.05z M133.11,153.66
		c-0.72-0.09-1.45-0.19-2.18-0.29l0.1-0.72c0.73,0.1,1.45,0.2,2.17,0.29L133.11,153.66z M165.94,153.36l-0.14-0.72
		c0.72-0.14,1.43-0.29,2.13-0.44l0.16,0.71C167.39,153.07,166.67,153.22,165.94,153.36z M128.76,153.05
		c-0.72-0.11-1.44-0.23-2.17-0.35l0.12-0.72c0.72,0.12,1.44,0.24,2.16,0.35L128.76,153.05z M170.23,152.39l-0.19-0.71
		c0.71-0.19,1.41-0.39,2.09-0.6l0.22,0.7C171.66,151.99,170.95,152.19,170.23,152.39z M124.43,152.32
		c-0.72-0.13-1.44-0.27-2.16-0.41l0.14-0.72c0.72,0.14,1.43,0.27,2.15,0.4L124.43,152.32z M120.12,151.48
		c-0.71-0.15-1.43-0.3-2.15-0.46l0.16-0.71c0.71,0.16,1.43,0.31,2.14,0.46L120.12,151.48z M174.44,151.07l-0.25-0.69
		c0.69-0.25,1.36-0.51,2.02-0.79l0.28,0.67C175.83,150.55,175.15,150.82,174.44,151.07z M115.84,150.54
		c-0.71-0.16-1.42-0.33-2.13-0.51l0.17-0.71c0.71,0.17,1.42,0.34,2.13,0.51L115.84,150.54z M111.57,149.5
		c-0.71-0.18-1.41-0.37-2.12-0.56l0.19-0.71c0.71,0.19,1.41,0.37,2.11,0.55L111.57,149.5z M178.51,149.35l-0.32-0.66
		c0.66-0.32,1.3-0.66,1.91-1.01l0.36,0.64C179.84,148.68,179.19,149.02,178.51,149.35z M107.34,148.37c-0.7-0.2-1.4-0.4-2.11-0.6
		l0.21-0.7c0.7,0.2,1.4,0.4,2.1,0.6L107.34,148.37z M182.35,147.16l-0.41-0.61c0.61-0.4,1.19-0.83,1.75-1.27l0.46,0.57
		C183.58,146.3,182.97,146.74,182.35,147.16z M103.12,147.14c-0.7-0.21-1.4-0.43-2.1-0.65l0.22-0.7c0.7,0.22,1.39,0.43,2.09,0.64
		L103.12,147.14z M98.94,145.83c-0.69-0.23-1.39-0.45-2.08-0.69l0.23-0.69c0.69,0.23,1.39,0.46,2.08,0.69L98.94,145.83z
		 M94.78,144.43c-0.69-0.24-1.38-0.48-2.07-0.73l0.25-0.69c0.69,0.25,1.38,0.49,2.06,0.73L94.78,144.43z M185.82,144.4l-0.5-0.53
		c0.53-0.5,1.03-1.02,1.49-1.55l0.55,0.48C186.89,143.35,186.37,143.89,185.82,144.4z M90.65,142.95c-0.68-0.25-1.37-0.51-2.05-0.77
		l0.26-0.68c0.68,0.26,1.37,0.52,2.05,0.77L90.65,142.95z M86.55,141.39c-0.68-0.27-1.36-0.54-2.04-0.81l0.27-0.68
		c0.68,0.27,1.36,0.54,2.03,0.81L86.55,141.39z M188.74,141.05l-0.6-0.42c0.41-0.59,0.8-1.2,1.14-1.82l0.64,0.35
		C189.57,139.81,189.17,140.44,188.74,141.05z M82.48,139.75l-0.05-0.02c-0.66-0.27-1.32-0.55-1.97-0.83l0.29-0.67
		c0.65,0.28,1.31,0.55,1.96,0.82L82.48,139.75z M78.44,138.04c-0.67-0.29-1.34-0.59-2.01-0.89l0.3-0.67c0.66,0.3,1.33,0.59,2,0.88
		L78.44,138.04z M190.88,137.15l-0.68-0.28c0.27-0.66,0.51-1.34,0.71-2.03l0.7,0.2C191.41,135.76,191.16,136.47,190.88,137.15z
		 M74.44,136.24c-0.67-0.31-1.33-0.62-1.99-0.93l0.31-0.66c0.66,0.31,1.32,0.62,1.98,0.92L74.44,136.24z M70.47,134.37
		c-0.66-0.32-1.32-0.64-1.97-0.97l0.33-0.66c0.65,0.32,1.3,0.64,1.96,0.96L70.47,134.37z M192.11,132.88l-0.72-0.12
		c0.12-0.69,0.2-1.41,0.25-2.14l0.73,0.05C192.32,131.41,192.23,132.16,192.11,132.88z M66.54,132.42c-0.65-0.33-1.3-0.67-1.95-1.01
		l0.34-0.65c0.64,0.34,1.29,0.67,1.94,1L66.54,132.42z M62.65,130.39c-0.65-0.35-1.29-0.69-1.93-1.05l0.35-0.64
		c0.64,0.35,1.28,0.7,1.92,1.04L62.65,130.39z M191.68,128.46c-0.02-0.71-0.08-1.43-0.16-2.15l0.73-0.09
		c0.09,0.74,0.14,1.48,0.17,2.21L191.68,128.46z M58.8,128.28c-0.64-0.36-1.28-0.72-1.91-1.09l0.37-0.63
		c0.63,0.36,1.26,0.72,1.9,1.08L58.8,128.28z M55,126.09c-0.63-0.37-1.26-0.75-1.88-1.13l0.38-0.63c0.62,0.38,1.25,0.75,1.88,1.12
		L55,126.09z M191.17,124.18c-0.14-0.69-0.31-1.4-0.5-2.1l0.71-0.19c0.2,0.72,0.37,1.45,0.51,2.15L191.17,124.18z M51.25,123.81
		c-0.62-0.39-1.24-0.78-1.86-1.17l0.39-0.62c0.61,0.39,1.23,0.78,1.85,1.17L51.25,123.81z M47.55,121.44
		c-0.61-0.4-1.22-0.81-1.83-1.21l0.41-0.61c0.6,0.4,1.21,0.81,1.82,1.21L47.55,121.44z M190.03,120.02
		c-0.23-0.66-0.48-1.34-0.76-2.03l0.68-0.28c0.29,0.7,0.55,1.39,0.78,2.07L190.03,120.02z M43.91,118.99
		c-0.61-0.42-1.2-0.84-1.8-1.26l0.42-0.6c0.59,0.42,1.19,0.84,1.79,1.25L43.91,118.99z M40.34,116.45
		c-0.59-0.43-1.18-0.87-1.76-1.31l0.44-0.58c0.58,0.44,1.17,0.87,1.76,1.3L40.34,116.45z M188.4,116c-0.3-0.65-0.63-1.29-0.97-1.94
		l0.65-0.34c0.35,0.66,0.68,1.32,0.98,1.97L188.4,116z M36.83,113.81c-0.58-0.45-1.16-0.9-1.73-1.36l0.46-0.57
		c0.57,0.45,1.14,0.9,1.72,1.35L36.83,113.81z M186.38,112.16c-0.36-0.62-0.74-1.24-1.13-1.86l0.62-0.39
		c0.4,0.63,0.78,1.26,1.14,1.88L186.38,112.16z M33.39,111.07c-0.57-0.47-1.13-0.94-1.69-1.41l0.47-0.56
		c0.55,0.47,1.11,0.94,1.68,1.4L33.39,111.07z M184.05,108.48c-0.4-0.59-0.82-1.19-1.25-1.78l0.59-0.43c0.44,0.6,0.86,1.2,1.27,1.8
		L184.05,108.48z M30.05,108.23c-0.55-0.49-1.1-0.97-1.64-1.46l0.49-0.54c0.53,0.49,1.08,0.97,1.63,1.45L30.05,108.23z
		 M26.79,105.28c-0.54-0.51-1.07-1.01-1.59-1.52l0.51-0.52c0.52,0.5,1.04,1.01,1.58,1.51L26.79,105.28z M181.49,104.95
		c-0.44-0.57-0.89-1.14-1.36-1.71l0.57-0.46c0.47,0.57,0.93,1.15,1.37,1.72L181.49,104.95z M23.65,102.21
		c-0.52-0.53-1.03-1.05-1.53-1.58l0.53-0.5c0.5,0.52,1,1.05,1.52,1.57L23.65,102.21z M178.73,101.58c-0.47-0.55-0.95-1.09-1.44-1.64
		l0.54-0.49c0.5,0.55,0.98,1.1,1.45,1.65L178.73,101.58z M20.63,99.01c-0.5-0.55-0.98-1.1-1.46-1.65l0.55-0.48
		c0.47,0.54,0.95,1.09,1.44,1.64L20.63,99.01z M175.81,98.34c-0.5-0.52-1-1.05-1.52-1.57l0.52-0.51c0.52,0.53,1.03,1.05,1.53,1.58
		L175.81,98.34z M17.76,95.68c-0.47-0.57-0.93-1.15-1.37-1.72l0.58-0.45c0.44,0.57,0.89,1.14,1.36,1.7L17.76,95.68z M172.75,95.23
		c-0.52-0.5-1.04-1.01-1.58-1.51l0.5-0.53c0.54,0.51,1.07,1.01,1.59,1.52L172.75,95.23z M169.57,92.23
		c-0.53-0.49-1.08-0.97-1.63-1.45l0.48-0.55c0.55,0.49,1.1,0.97,1.64,1.46L169.57,92.23z M15.07,92.2c-0.44-0.6-0.86-1.2-1.27-1.8
		l0.6-0.41c0.41,0.59,0.82,1.18,1.26,1.78L15.07,92.2z M166.28,89.35c-0.55-0.47-1.11-0.94-1.68-1.4l0.46-0.57
		c0.57,0.47,1.13,0.94,1.69,1.41L166.28,89.35z M12.59,88.57c-0.4-0.63-0.78-1.26-1.14-1.88l0.63-0.37
		c0.36,0.62,0.74,1.24,1.13,1.86L12.59,88.57z M162.91,86.57c-0.57-0.45-1.14-0.9-1.72-1.35l0.45-0.58c0.58,0.45,1.16,0.9,1.73,1.36
		L162.91,86.57z M10.38,84.76c-0.35-0.66-0.68-1.32-0.99-1.97l0.66-0.31c0.3,0.64,0.63,1.29,0.97,1.94L10.38,84.76z M159.46,83.9
		c-0.58-0.44-1.16-0.87-1.75-1.3l0.43-0.59c0.59,0.43,1.18,0.87,1.76,1.31L159.46,83.9z M155.93,81.32
		c-0.59-0.42-1.19-0.84-1.79-1.25l0.42-0.6c0.61,0.42,1.2,0.84,1.8,1.26L155.93,81.32z M8.5,80.76c-0.29-0.7-0.55-1.39-0.78-2.07
		l0.69-0.24c0.23,0.66,0.49,1.34,0.77,2.03L8.5,80.76z M152.34,78.83c-0.6-0.4-1.21-0.81-1.82-1.21l0.4-0.61
		c0.61,0.4,1.22,0.81,1.83,1.21L152.34,78.83z M7.06,76.59c-0.2-0.72-0.37-1.44-0.52-2.15l0.72-0.14c0.14,0.69,0.31,1.4,0.5,2.1
		L7.06,76.59z M148.68,76.43c-0.61-0.39-1.23-0.78-1.85-1.17l0.39-0.62c0.62,0.39,1.24,0.78,1.86,1.17L148.68,76.43z M144.97,74.12
		c-0.62-0.38-1.24-0.75-1.87-1.12l0.37-0.63c0.63,0.37,1.26,0.75,1.88,1.13L144.97,74.12z M6.19,72.25
		c-0.09-0.74-0.15-1.49-0.17-2.21l0.73-0.02c0.02,0.71,0.08,1.43,0.17,2.15L6.19,72.25z M141.21,71.89
		c-0.63-0.36-1.26-0.72-1.9-1.08l0.36-0.64c0.64,0.36,1.27,0.72,1.91,1.09L141.21,71.89z M137.4,69.75
		c-0.64-0.35-1.28-0.7-1.92-1.04l0.35-0.65c0.65,0.35,1.29,0.7,1.93,1.05L137.4,69.75z M6.78,67.86l-0.73-0.05
		c0.05-0.75,0.13-1.49,0.25-2.21l0.72,0.12C6.91,66.42,6.83,67.14,6.78,67.86z M133.54,67.68c-0.64-0.34-1.29-0.67-1.94-1l0.33-0.65
		c0.65,0.33,1.3,0.67,1.95,1.01L133.54,67.68z M129.65,65.7c-0.65-0.32-1.31-0.64-1.96-0.96l0.32-0.66
		c0.66,0.32,1.32,0.64,1.97,0.97L129.65,65.7z M125.71,63.79c-0.66-0.31-1.32-0.62-1.98-0.92l0.31-0.67
		c0.67,0.31,1.33,0.62,1.99,0.93L125.71,63.79z M7.5,63.63l-0.7-0.2c0.2-0.71,0.45-1.42,0.73-2.11L8.2,61.6
		C7.93,62.26,7.69,62.94,7.5,63.63z M121.74,61.96c-0.66-0.3-1.33-0.59-2-0.88l0.29-0.67c0.67,0.29,1.34,0.59,2.01,0.89
		L121.74,61.96z M117.73,60.21c-0.67-0.28-1.34-0.57-2.02-0.85l-0.1-0.04l0.28-0.68l0.1,0.04c0.68,0.28,1.35,0.56,2.02,0.85
		L117.73,60.21z M9.12,59.66l-0.64-0.35c0.35-0.65,0.75-1.28,1.17-1.89l0.6,0.42C9.84,58.42,9.46,59.04,9.12,59.66z M113.59,58.5
		c-0.68-0.27-1.36-0.54-2.03-0.81l0.27-0.68c0.68,0.27,1.36,0.54,2.04,0.81L113.59,58.5z M109.52,56.91
		c-0.68-0.26-1.37-0.52-2.05-0.77l0.25-0.69c0.68,0.25,1.37,0.51,2.05,0.77L109.52,56.91z M11.58,56.14l-0.55-0.48
		c0.48-0.55,0.99-1.09,1.54-1.61l0.5,0.53C12.54,55.09,12.04,55.61,11.58,56.14z M105.42,55.39c-0.69-0.25-1.38-0.49-2.06-0.73
		l0.24-0.69c0.69,0.24,1.38,0.48,2.07,0.73L105.42,55.39z M101.29,53.96c-0.69-0.23-1.39-0.46-2.08-0.69l0.23-0.7
		c0.69,0.23,1.39,0.45,2.08,0.69L101.29,53.96z M14.69,53.18l-0.46-0.57c0.57-0.45,1.17-0.89,1.79-1.31l0.41,0.61
		C15.83,52.31,15.24,52.74,14.69,53.18z M97.13,52.61c-0.7-0.22-1.39-0.43-2.09-0.64l0.21-0.7c0.7,0.21,1.4,0.43,2.1,0.65
		L97.13,52.61z M92.94,51.35c-0.7-0.2-1.4-0.4-2.1-0.6l0.2-0.71c0.7,0.2,1.4,0.4,2.11,0.6L92.94,51.35z M18.27,50.76l-0.36-0.64
		c0.62-0.36,1.28-0.71,1.95-1.04l0.32,0.66C19.53,50.07,18.88,50.42,18.27,50.76z M88.73,50.17c-0.71-0.19-1.41-0.37-2.11-0.55
		l0.18-0.71c0.71,0.18,1.41,0.37,2.12,0.56L88.73,50.17z M84.49,49.09c-0.71-0.17-1.42-0.34-2.13-0.51l0.17-0.71
		c0.71,0.16,1.42,0.33,2.13,0.51L84.49,49.09z M22.16,48.85l-0.29-0.67c0.67-0.28,1.35-0.55,2.06-0.81l0.25,0.69
		C23.49,48.31,22.81,48.57,22.16,48.85z M80.24,48.1c-0.72-0.16-1.43-0.31-2.14-0.46l0.15-0.72c0.71,0.15,1.43,0.3,2.15,0.46
		L80.24,48.1z M26.24,47.36l-0.22-0.7c0.69-0.22,1.4-0.42,2.12-0.61l0.19,0.71C27.62,46.95,26.92,47.15,26.24,47.36z M75.96,47.22
		c-0.72-0.14-1.43-0.27-2.15-0.4l0.13-0.72c0.72,0.13,1.44,0.26,2.16,0.41L75.96,47.22z M71.65,46.44
		c-0.72-0.12-1.44-0.24-2.16-0.35l0.11-0.72c0.72,0.11,1.44,0.23,2.17,0.35L71.65,46.44z M30.44,46.24l-0.16-0.71
		c0.71-0.16,1.42-0.31,2.16-0.45l0.14,0.72C31.85,45.93,31.14,46.08,30.44,46.24z M67.34,45.77c-0.73-0.1-1.45-0.2-2.17-0.29
		l0.09-0.73c0.72,0.09,1.45,0.19,2.18,0.29L67.34,45.77z M34.71,45.42l-0.12-0.72c0.72-0.11,1.44-0.22,2.18-0.31l0.09,0.73
		C36.14,45.2,35.42,45.3,34.71,45.42z M63,45.22c-0.73-0.08-1.45-0.16-2.17-0.23l0.07-0.73c0.72,0.07,1.45,0.15,2.18,0.23L63,45.22z
		 M39.04,44.86l-0.07-0.73c0.72-0.07,1.45-0.14,2.19-0.19l0.05,0.73C40.48,44.72,39.75,44.78,39.04,44.86z M58.65,44.8
		c-0.73-0.06-1.46-0.11-2.18-0.16l0.05-0.73c0.72,0.05,1.46,0.1,2.19,0.16L58.65,44.8z M43.38,44.53l-0.04-0.73
		c0.72-0.04,1.46-0.07,2.2-0.09l0.02,0.73C44.83,44.46,44.1,44.49,43.38,44.53z M54.29,44.52c-0.73-0.03-1.46-0.06-2.18-0.08
		l0.02-0.73c0.73,0.02,1.46,0.05,2.2,0.08L54.29,44.52z M49.93,44.4c-0.4,0-0.79-0.01-1.18-0.01l-1,0l-0.01-0.73l1.01,0
		c0.39,0,0.79,0,1.19,0.01L49.93,44.4z"/>
	<path class="st0" d="M47.91,154.76c-0.74-0.01-1.47-0.02-2.2-0.04l0.02-0.73c0.72,0.02,1.45,0.03,2.18,0.04L47.91,154.76z
		 M50.1,154.76l-0.01-0.73c0.72-0.01,1.45-0.02,2.18-0.05l0.02,0.73C51.56,154.73,50.83,154.75,50.1,154.76z M43.51,154.64
		c-0.74-0.04-1.47-0.08-2.19-0.14l0.05-0.73c0.72,0.05,1.44,0.1,2.18,0.14L43.51,154.64z M54.5,154.62l-0.04-0.73
		c0.72-0.04,1.45-0.08,2.18-0.12l0.05,0.73C55.95,154.55,55.22,154.59,54.5,154.62z M58.88,154.34l-0.06-0.73
		c0.72-0.06,1.45-0.12,2.18-0.2l0.07,0.73C60.33,154.21,59.6,154.28,58.88,154.34z M39.13,154.31c-0.74-0.07-1.47-0.16-2.19-0.25
		l0.09-0.73c0.71,0.09,1.43,0.17,2.17,0.24L39.13,154.31z M63.25,153.91l-0.08-0.73c0.72-0.08,1.44-0.17,2.17-0.26l0.09,0.73
		C64.7,153.74,63.97,153.83,63.25,153.91z M34.76,153.76c-0.73-0.11-1.46-0.24-2.17-0.37l0.14-0.72c0.7,0.13,1.42,0.26,2.15,0.37
		L34.76,153.76z M67.6,153.36l-0.1-0.72c0.72-0.1,1.44-0.21,2.16-0.32l0.11,0.72C69.05,153.15,68.32,153.25,67.6,153.36z
		 M30.44,152.94c-0.73-0.16-1.44-0.34-2.14-0.52l0.19-0.71c0.69,0.18,1.4,0.35,2.11,0.52L30.44,152.94z M71.94,152.68l-0.12-0.72
		c0.71-0.12,1.43-0.25,2.15-0.38l0.13,0.72C73.38,152.43,72.66,152.56,71.94,152.68z M76.26,151.89l-0.14-0.72
		c0.71-0.14,1.43-0.28,2.14-0.43l0.15,0.72C77.69,151.61,76.97,151.75,76.26,151.89z M26.18,151.81c-0.71-0.22-1.41-0.45-2.09-0.7
		l0.25-0.69c0.67,0.24,1.36,0.47,2.06,0.69L26.18,151.81z M80.56,151l-0.16-0.71c0.71-0.16,1.42-0.32,2.13-0.48l0.17,0.71
		C81.98,150.68,81.27,150.85,80.56,151z M22.03,150.31c-0.69-0.29-1.37-0.59-2.01-0.91l0.32-0.66c0.64,0.31,1.3,0.61,1.98,0.89
		L22.03,150.31z M84.83,150.01l-0.17-0.71c0.71-0.17,1.41-0.35,2.12-0.53l0.18,0.71C86.25,149.66,85.54,149.84,84.83,150.01z
		 M89.08,148.92l-0.19-0.71c0.7-0.19,1.4-0.38,2.11-0.58l0.2,0.71C90.49,148.54,89.78,148.73,89.08,148.92z M18.05,148.38
		c-0.65-0.37-1.29-0.76-1.89-1.16l0.4-0.61c0.59,0.39,1.21,0.77,1.84,1.13L18.05,148.38z M93.3,147.74l-0.21-0.7
		c0.7-0.2,1.4-0.41,2.1-0.62l0.21,0.7C94.71,147.32,94,147.53,93.3,147.74z M97.5,146.46l-0.22-0.7c0.69-0.22,1.39-0.44,2.08-0.67
		l0.23,0.7C98.9,146.02,98.2,146.25,97.5,146.46z M14.37,145.92c-0.59-0.46-1.16-0.95-1.69-1.44l0.5-0.53
		c0.51,0.48,1.06,0.95,1.64,1.4L14.37,145.92z M101.67,145.11l-0.23-0.69c0.69-0.23,1.38-0.47,2.07-0.71l0.24,0.69
		C103.06,144.64,102.37,144.88,101.67,145.11z M105.82,143.67l-0.25-0.69c0.68-0.25,1.37-0.5,2.05-0.75l0.25,0.69
		C107.19,143.17,106.51,143.42,105.82,143.67z M11.13,142.89c-0.49-0.56-0.96-1.14-1.38-1.74l0.6-0.42
		c0.41,0.58,0.86,1.14,1.34,1.68L11.13,142.89z M109.94,142.15l-0.26-0.68c0.68-0.26,1.36-0.52,2.04-0.79l0.27,0.68
		C111.3,141.62,110.62,141.89,109.94,142.15z M114.02,140.54l-0.27-0.68c0.66-0.27,1.32-0.53,1.97-0.81l0.19,0.32l0.09,0.36
		C115.34,140.01,114.68,140.28,114.02,140.54z M8.56,139.26c-0.36-0.65-0.69-1.32-0.98-2l0.68-0.28c0.28,0.66,0.59,1.31,0.94,1.93
		L8.56,139.26z M118.07,138.86l-0.29-0.67c0.67-0.29,1.34-0.58,2.01-0.87l0.29,0.67C119.42,138.29,118.75,138.58,118.07,138.86z
		 M122.09,137.11l-0.3-0.67c0.67-0.3,1.33-0.6,1.99-0.91l0.31,0.66C123.43,136.5,122.76,136.81,122.09,137.11z M126.07,135.27
		l-0.31-0.66c0.66-0.31,1.32-0.63,1.97-0.94l0.32,0.66C127.4,134.64,126.74,134.96,126.07,135.27z M6.84,135.16
		c-0.21-0.71-0.38-1.44-0.51-2.17l0.72-0.13c0.13,0.71,0.29,1.41,0.49,2.09L6.84,135.16z M130.02,133.36l-0.33-0.66
		c0.65-0.33,1.31-0.65,1.95-0.98l0.33,0.65C131.33,132.7,130.68,133.03,130.02,133.36z M133.93,131.37l-0.34-0.65
		c0.65-0.34,1.29-0.68,1.93-1.02l0.35,0.65C135.23,130.68,134.58,131.02,133.93,131.37z M6.06,130.78C6.02,130.25,6,129.71,6,129.17
		c0-0.2,0-0.41,0.01-0.61l0.73,0.02c0,0.2-0.01,0.4-0.01,0.6c0,0.52,0.02,1.04,0.06,1.56L6.06,130.78z M137.8,129.29l-0.35-0.64
		c0.64-0.35,1.28-0.71,1.91-1.06l0.36,0.64C139.08,128.58,138.44,128.94,137.8,129.29z M141.62,127.14l-0.37-0.63
		c0.63-0.37,1.26-0.73,1.89-1.1l0.37,0.63C142.89,126.4,142.26,126.77,141.62,127.14z M6.9,126.43l-0.73-0.08
		c0.08-0.72,0.2-1.45,0.34-2.19l0.72,0.14C7.09,125.01,6.98,125.73,6.9,126.43z M145.4,124.9l-0.38-0.63
		c0.63-0.38,1.25-0.76,1.86-1.15l0.39,0.62C146.65,124.14,146.03,124.52,145.4,124.9z M149.12,122.58l-0.39-0.62
		c0.62-0.39,1.23-0.79,1.83-1.19l0.4,0.61C150.35,121.79,149.74,122.18,149.12,122.58z M7.72,122.19L7.01,122
		c0.19-0.7,0.41-1.41,0.65-2.11l0.69,0.24C8.12,120.81,7.91,121.51,7.72,122.19z M152.79,120.17l-0.41-0.61
		c0.61-0.41,1.21-0.82,1.8-1.23l0.42,0.6C154,119.35,153.4,119.76,152.79,120.17z M9.11,118.09l-0.68-0.28
		c0.27-0.67,0.57-1.35,0.88-2.02l0.66,0.31C9.67,116.77,9.38,117.43,9.11,118.09z M156.4,117.67l-0.43-0.6
		c0.6-0.42,1.19-0.85,1.77-1.28l0.43,0.59C157.59,116.82,157,117.24,156.4,117.67z M159.94,115.08l-0.44-0.58
		c0.58-0.44,1.16-0.88,1.74-1.33l0.45,0.58C161.11,114.19,160.53,114.64,159.94,115.08z M10.95,114.16l-0.65-0.34
		c0.33-0.64,0.69-1.29,1.06-1.93l0.63,0.37C11.63,112.89,11.28,113.52,10.95,114.16z M163.41,112.39l-0.46-0.57
		c0.57-0.46,1.14-0.92,1.7-1.38l0.46,0.57C164.56,111.47,163.99,111.93,163.41,112.39z M13.12,110.39L12.5,110
		c0.39-0.61,0.79-1.23,1.21-1.84l0.61,0.41C13.9,109.18,13.5,109.78,13.12,110.39z M166.8,109.6l-0.47-0.56
		c0.56-0.48,1.11-0.95,1.65-1.43l0.48,0.55C167.92,108.64,167.36,109.12,166.8,109.6z M15.56,106.79l-0.59-0.43
		c0.43-0.59,0.87-1.17,1.32-1.76l0.58,0.45C16.42,105.62,15.98,106.2,15.56,106.79z M170.1,106.7l-0.49-0.54
		c0.54-0.49,1.08-0.99,1.6-1.48l0.5,0.53C171.18,105.7,170.64,106.2,170.1,106.7z M173.3,103.68l-0.51-0.52
		c0.53-0.51,1.04-1.03,1.55-1.54l0.52,0.51C174.34,102.65,173.83,103.17,173.3,103.68z M18.22,103.33l-0.57-0.46
		c0.46-0.56,0.93-1.12,1.41-1.69l0.55,0.48C19.14,102.22,18.68,102.78,18.22,103.33z M176.38,100.55l-0.53-0.5
		c0.5-0.54,1-1.07,1.48-1.6l0.54,0.49C177.38,99.47,176.88,100.01,176.38,100.55z M21.06,100.02l-0.54-0.49
		c0.49-0.54,0.98-1.08,1.49-1.62l0.53,0.5C22.04,98.95,21.55,99.49,21.06,100.02z M179.32,97.28l-0.55-0.48
		c0.48-0.56,0.95-1.11,1.4-1.67l0.57,0.46C180.27,96.16,179.8,96.72,179.32,97.28z M24.05,96.84l-0.52-0.51
		c0.51-0.52,1.03-1.04,1.55-1.55l0.51,0.52C25.08,95.82,24.56,96.33,24.05,96.84z M182.1,93.87l-0.58-0.45
		c0.45-0.58,0.89-1.16,1.31-1.74l0.59,0.43C182.99,92.7,182.55,93.29,182.1,93.87z M27.17,93.79l-0.5-0.53
		c0.53-0.5,1.06-1,1.61-1.49l0.49,0.54C28.23,92.8,27.7,93.29,27.17,93.79z M30.4,90.85l-0.48-0.55c0.55-0.48,1.1-0.96,1.66-1.44
		l0.47,0.56C31.5,89.9,30.95,90.37,30.4,90.85z M184.69,90.31l-0.61-0.41c0.41-0.61,0.81-1.21,1.19-1.82l0.62,0.39
		C185.51,89.08,185.11,89.7,184.69,90.31z M33.73,88.02l-0.46-0.57c0.56-0.46,1.13-0.92,1.71-1.38l0.46,0.57
		C34.86,87.1,34.29,87.56,33.73,88.02z M187.03,86.59l-0.63-0.37c0.37-0.64,0.72-1.27,1.05-1.9l0.65,0.34
		C187.76,85.3,187.41,85.94,187.03,86.59z M37.14,85.29l-0.45-0.58c0.58-0.45,1.16-0.89,1.75-1.33l0.44,0.58
		C38.29,84.41,37.71,84.85,37.14,85.29z M189.08,82.68l-0.66-0.31c0.31-0.67,0.6-1.33,0.87-1.99l0.68,0.28
		C189.7,81.33,189.4,82,189.08,82.68z M40.63,82.66l-0.43-0.59c0.59-0.43,1.18-0.86,1.78-1.28l0.43,0.6
		C41.81,81.81,41.22,82.23,40.63,82.66z M44.19,80.13l-0.42-0.6c0.6-0.41,1.2-0.83,1.81-1.24L46,78.89
		C45.39,79.3,44.79,79.71,44.19,80.13z M190.74,78.59l-0.69-0.24c0.24-0.68,0.45-1.38,0.64-2.07l0.71,0.19
		C191.2,77.18,190.98,77.89,190.74,78.59z M47.82,77.68l-0.4-0.61c0.61-0.4,1.22-0.8,1.84-1.19l0.39,0.62
		C49.03,76.89,48.42,77.28,47.82,77.68z M51.5,75.32l-0.39-0.62c0.62-0.39,1.24-0.77,1.87-1.15l0.38,0.63
		C52.74,74.56,52.11,74.94,51.5,75.32z M191.9,74.32l-0.72-0.14c0.14-0.72,0.26-1.44,0.34-2.13l0.73,0.08
		C192.17,72.85,192.05,73.58,191.9,74.32z M55.23,73.05l-0.37-0.63c0.63-0.37,1.26-0.74,1.89-1.11l0.37,0.63
		C56.49,72.31,55.86,72.68,55.23,73.05z M59.02,70.86l-0.36-0.64c0.63-0.36,1.27-0.71,1.92-1.07l0.35,0.64
		C60.29,70.15,59.65,70.51,59.02,70.86z M192.41,69.93l-0.73-0.02c0.01-0.22,0.01-0.43,0.01-0.65c0-0.5-0.02-1.01-0.05-1.5
		l0.73-0.05c0.04,0.51,0.05,1.03,0.05,1.55C192.42,69.48,192.42,69.7,192.41,69.93z M62.85,68.76l-0.35-0.65
		c0.64-0.34,1.29-0.69,1.94-1.03l0.34,0.65C64.13,68.07,63.49,68.41,62.85,68.76z M66.72,66.73l-0.33-0.65
		c0.65-0.33,1.3-0.66,1.96-0.99l0.33,0.66C68.02,66.07,67.37,66.4,66.72,66.73z M191.38,65.62c-0.12-0.71-0.29-1.41-0.48-2.09
		l0.7-0.2c0.21,0.71,0.37,1.44,0.5,2.17L191.38,65.62z M70.64,64.78l-0.32-0.66c0.66-0.32,1.32-0.63,1.98-0.95l0.31,0.66
		C71.95,64.15,71.29,64.47,70.64,64.78z M74.59,62.91l-0.31-0.67c0.66-0.31,1.33-0.61,2-0.91l0.3,0.67
		C75.92,62.31,75.25,62.61,74.59,62.91z M190.19,61.5c-0.28-0.66-0.59-1.31-0.93-1.93l0.64-0.35c0.36,0.65,0.68,1.32,0.97,2
		L190.19,61.5z M78.58,61.12l-0.29-0.67c0.67-0.29,1.34-0.58,2.01-0.87l0.29,0.67C79.92,60.54,79.25,60.83,78.58,61.12z
		 M82.61,59.41l-0.28-0.68l0.1-0.04c0.68-0.28,1.36-0.56,2.03-0.83l0.27,0.68c-0.67,0.27-1.35,0.55-2.02,0.83L82.61,59.41z
		 M188.11,57.75c-0.41-0.58-0.85-1.14-1.33-1.69l0.55-0.48c0.49,0.56,0.96,1.15,1.38,1.75L188.11,57.75z M86.76,57.73l-0.27-0.68
		c0.68-0.27,1.37-0.53,2.05-0.79l0.26,0.68C88.12,57.2,87.44,57.47,86.76,57.73z M90.85,56.18l-0.25-0.69
		c0.69-0.25,1.37-0.5,2.06-0.75l0.25,0.69C92.22,55.67,91.53,55.92,90.85,56.18z M94.96,54.7l-0.24-0.69
		c0.69-0.24,1.38-0.48,2.08-0.71l0.23,0.69C96.34,54.23,95.65,54.46,94.96,54.7z M185.28,54.51c-0.51-0.48-1.06-0.95-1.63-1.41
		l0.45-0.58c0.59,0.46,1.16,0.95,1.68,1.45L185.28,54.51z M99.11,53.31l-0.23-0.7c0.7-0.23,1.39-0.45,2.09-0.67l0.22,0.7
		C100.5,52.86,99.8,53.08,99.11,53.31z M103.28,52l-0.21-0.7c0.7-0.21,1.4-0.42,2.1-0.62l0.21,0.7
		C104.68,51.58,103.98,51.79,103.28,52z M181.9,51.84c-0.59-0.39-1.21-0.77-1.84-1.13l0.36-0.64c0.65,0.37,1.28,0.76,1.89,1.16
		L181.9,51.84z M107.48,50.78l-0.2-0.71c0.71-0.2,1.41-0.39,2.12-0.58l0.19,0.71C108.89,50.39,108.18,50.58,107.48,50.78z
		 M178.14,49.7c-0.63-0.31-1.3-0.61-1.98-0.89l0.28-0.67c0.69,0.29,1.37,0.6,2.01,0.91L178.14,49.7z M111.7,49.65l-0.18-0.71
		c0.71-0.18,1.42-0.36,2.13-0.53l0.17,0.71C113.12,49.29,112.41,49.46,111.7,49.65z M115.95,48.61l-0.17-0.71
		c0.72-0.17,1.43-0.33,2.14-0.48l0.16,0.71C117.37,48.28,116.66,48.44,115.95,48.61z M174.14,48.02c-0.67-0.24-1.36-0.47-2.06-0.69
		l0.22-0.7c0.71,0.22,1.41,0.45,2.09,0.7L174.14,48.02z M120.22,47.67l-0.15-0.72c0.72-0.15,1.44-0.29,2.15-0.43l0.14,0.72
		C121.65,47.38,120.93,47.52,120.22,47.67z M124.51,46.83l-0.13-0.72c0.72-0.13,1.44-0.26,2.16-0.38l0.12,0.72
		C125.95,46.58,125.23,46.7,124.51,46.83z M169.99,46.73c-0.69-0.18-1.4-0.36-2.11-0.52l0.16-0.71c0.73,0.16,1.44,0.34,2.14,0.52
		L169.99,46.73z M128.82,46.11l-0.11-0.72c0.73-0.11,1.45-0.22,2.17-0.32l0.1,0.72C130.26,45.89,129.54,45.99,128.82,46.11z
		 M165.75,45.77c-0.7-0.13-1.42-0.26-2.15-0.37l0.11-0.72c0.73,0.12,1.46,0.24,2.17,0.38L165.75,45.77z M133.14,45.5l-0.09-0.73
		c0.73-0.09,1.46-0.18,2.18-0.26l0.08,0.73C134.59,45.32,133.87,45.4,133.14,45.5z M161.44,45.09c-0.71-0.09-1.44-0.17-2.17-0.25
		l0.07-0.73c0.74,0.07,1.47,0.16,2.19,0.25L161.44,45.09z M137.48,45.01l-0.07-0.73c0.73-0.07,1.46-0.14,2.19-0.2l0.06,0.73
		C138.94,44.87,138.21,44.94,137.48,45.01z M157.11,44.66c-0.72-0.05-1.44-0.1-2.18-0.14l0.04-0.73c0.74,0.04,1.47,0.08,2.19,0.14
		L157.11,44.66z M141.84,44.65l-0.05-0.73c0.74-0.05,1.47-0.09,2.19-0.12l0.04,0.73C143.3,44.56,142.57,44.61,141.84,44.65z
		 M146.2,44.44l-0.02-0.73c0.74-0.02,1.47-0.04,2.2-0.05l0.01,0.73C147.66,44.41,146.93,44.42,146.2,44.44z M152.75,44.43
		c-0.72-0.02-1.45-0.03-2.18-0.04l0.01-0.73c0.74,0.01,1.47,0.02,2.2,0.04L152.75,44.43z"/>
	<path class="st0" d="M129.17,192.42c-0.22,0-0.45,0-0.67-0.01l0.02-0.73c0.72,0.02,1.44,0.01,2.15-0.04l0.05,0.73
		C130.21,192.4,129.69,192.42,129.17,192.42z M126.29,192.25c-0.72-0.08-1.46-0.2-2.19-0.35l0.14-0.72
		c0.71,0.14,1.43,0.25,2.13,0.34L126.29,192.25z M132.93,192.1l-0.13-0.72c0.71-0.12,1.41-0.29,2.09-0.48l0.2,0.7
		C134.4,191.81,133.67,191.97,132.93,192.1z M121.94,191.4c-0.7-0.19-1.41-0.41-2.11-0.65l0.24-0.69c0.69,0.24,1.38,0.45,2.07,0.64
		L121.94,191.4z M137.21,190.86l-0.28-0.68c0.66-0.27,1.31-0.59,1.93-0.93l0.36,0.64C138.57,190.25,137.89,190.58,137.21,190.86z
		 M117.76,189.97c-0.67-0.27-1.34-0.57-2.02-0.89l0.31-0.66c0.67,0.31,1.33,0.6,1.99,0.87L117.76,189.97z M141.1,188.71l-0.42-0.6
		c0.58-0.41,1.14-0.86,1.69-1.33l0.48,0.55C142.28,187.82,141.7,188.28,141.1,188.71z M113.77,188.1c-0.64-0.34-1.28-0.69-1.93-1.07
		l0.37-0.63c0.64,0.37,1.27,0.72,1.9,1.05L113.77,188.1z M109.95,185.9c-0.61-0.39-1.23-0.79-1.84-1.21l0.41-0.61
		c0.61,0.41,1.21,0.81,1.82,1.19L109.95,185.9z M144.44,185.78l-0.53-0.5c0.48-0.51,0.96-1.06,1.41-1.63l0.57,0.45
		C145.42,184.69,144.94,185.26,144.44,185.78z M106.31,183.42c-0.59-0.43-1.17-0.87-1.76-1.32l0.45-0.58
		c0.58,0.45,1.16,0.89,1.74,1.31L106.31,183.42z M147.19,182.3l-0.61-0.41c0.39-0.59,0.78-1.21,1.13-1.84l0.64,0.36
		C147.98,181.06,147.59,181.7,147.19,182.3z M102.83,180.73c-0.56-0.46-1.12-0.93-1.69-1.41l0.48-0.55c0.56,0.48,1.12,0.95,1.67,1.4
		L102.83,180.73z M149.38,178.46l-0.66-0.32c0.31-0.63,0.61-1.3,0.89-1.98l0.68,0.28C150,177.14,149.7,177.82,149.38,178.46z
		 M99.49,177.87c-0.54-0.49-1.08-0.98-1.62-1.49l0.5-0.53c0.53,0.5,1.07,1,1.6,1.48L99.49,177.87z M96.29,174.85
		c-0.52-0.51-1.03-1.03-1.55-1.56l0.52-0.51c0.51,0.52,1.03,1.04,1.54,1.55L96.29,174.85z M151.09,174.39l-0.69-0.25
		c0.24-0.67,0.47-1.36,0.69-2.06l0.7,0.22C151.57,173.01,151.34,173.71,151.09,174.39z M93.22,171.71c-0.5-0.53-1-1.07-1.49-1.61
		l0.54-0.49c0.49,0.54,0.99,1.08,1.48,1.6L93.22,171.71z M152.4,170.18l-0.71-0.19c0.18-0.69,0.35-1.4,0.52-2.11l0.71,0.16
		C152.76,168.77,152.59,169.48,152.4,170.18z M90.26,168.46c-0.48-0.55-0.96-1.1-1.44-1.66l0.56-0.47c0.47,0.56,0.95,1.11,1.43,1.65
		L90.26,168.46z M153.37,165.88l-0.72-0.14c0.13-0.7,0.26-1.42,0.37-2.15l0.72,0.11C153.63,164.45,153.51,165.17,153.37,165.88z
		 M87.42,165.12c-0.46-0.56-0.92-1.13-1.38-1.71l0.57-0.46c0.46,0.57,0.92,1.14,1.38,1.7L87.42,165.12z M84.68,161.69
		c-0.45-0.57-0.89-1.16-1.33-1.75l0.59-0.44c0.44,0.59,0.88,1.16,1.33,1.74L84.68,161.69z M154.06,161.54l-0.73-0.09
		c0.09-0.71,0.17-1.43,0.25-2.17l0.73,0.07C154.23,160.09,154.15,160.82,154.06,161.54z M82.04,158.18
		c-0.43-0.59-0.86-1.18-1.28-1.78l0.6-0.42c0.43,0.6,0.85,1.19,1.28,1.77L82.04,158.18z M154.5,157.16l-0.73-0.05
		c0.05-0.72,0.1-1.44,0.14-2.18l0.73,0.04C154.6,155.71,154.55,156.44,154.5,157.16z M79.49,154.6c-0.41-0.6-0.83-1.2-1.24-1.81
		l0.61-0.41c0.41,0.61,0.82,1.21,1.23,1.8L79.49,154.6z M154.72,152.77l-0.73-0.02c0.02-0.72,0.04-1.45,0.04-2.18l0.73,0.01
		C154.76,151.31,154.74,152.05,154.72,152.77z M77.04,150.96c-0.4-0.61-0.8-1.22-1.19-1.84l0.62-0.39c0.39,0.62,0.79,1.23,1.19,1.83
		L77.04,150.96z M154.03,148.39c-0.01-0.72-0.02-1.45-0.05-2.18l0.73-0.02c0.02,0.74,0.04,1.47,0.05,2.2L154.03,148.39z
		 M74.67,147.27c-0.39-0.62-0.77-1.24-1.15-1.87l0.63-0.38c0.38,0.63,0.76,1.25,1.15,1.86L74.67,147.27z M153.9,144.02
		c-0.04-0.72-0.08-1.45-0.12-2.18l0.73-0.05c0.05,0.74,0.09,1.47,0.12,2.19L153.9,144.02z M72.39,143.52
		c-0.37-0.63-0.74-1.26-1.11-1.89l0.63-0.37c0.37,0.63,0.73,1.26,1.1,1.89L72.39,143.52z M70.2,139.72
		c-0.36-0.63-0.71-1.27-1.07-1.92l0.64-0.35c0.35,0.64,0.71,1.28,1.06,1.91L70.2,139.72z M153.61,139.66
		c-0.06-0.72-0.12-1.45-0.19-2.18l0.73-0.07c0.07,0.73,0.14,1.46,0.2,2.19L153.61,139.66z M68.08,135.87
		c-0.34-0.64-0.69-1.29-1.03-1.94l0.65-0.34c0.34,0.65,0.68,1.29,1.02,1.93L68.08,135.87z M153.19,135.31
		c-0.08-0.72-0.17-1.44-0.26-2.17l0.73-0.09c0.09,0.73,0.18,1.46,0.26,2.18L153.19,135.31z M66.05,131.98
		c-0.33-0.65-0.66-1.3-0.99-1.96l0.66-0.33c0.33,0.66,0.65,1.31,0.98,1.95L66.05,131.98z M152.64,130.98
		c-0.1-0.72-0.21-1.44-0.32-2.16l0.72-0.11c0.11,0.73,0.22,1.45,0.32,2.17L152.64,130.98z M64.1,128.05
		c-0.32-0.66-0.63-1.32-0.95-1.98l0.66-0.31c0.31,0.66,0.63,1.32,0.94,1.97L64.1,128.05z M151.97,126.66
		c-0.12-0.71-0.25-1.43-0.38-2.15l0.72-0.13c0.13,0.72,0.26,1.44,0.38,2.16L151.97,126.66z M62.22,124.09
		c-0.31-0.66-0.61-1.33-0.91-2l0.67-0.3c0.3,0.67,0.6,1.33,0.9,1.99L62.22,124.09z M151.19,122.36c-0.14-0.71-0.28-1.43-0.43-2.14
		l0.72-0.15c0.15,0.72,0.29,1.44,0.43,2.15L151.19,122.36z M60.43,120.08c-0.29-0.67-0.58-1.34-0.87-2.01l0.67-0.29
		c0.29,0.67,0.58,1.34,0.87,2.01L60.43,120.08z M150.3,118.08c-0.16-0.71-0.32-1.42-0.48-2.13l0.71-0.17
		c0.17,0.72,0.33,1.43,0.48,2.14L150.3,118.08z M58.71,116.04l0.34-0.14l-0.35,0.11c-0.28-0.68-0.55-1.34-0.82-2l0.68-0.27
		c0.26,0.66,0.53,1.31,0.81,1.97l-0.32,0.19L58.71,116.04z M149.31,113.82c-0.17-0.71-0.35-1.41-0.53-2.12l0.71-0.18
		c0.18,0.71,0.36,1.42,0.53,2.13L149.31,113.82z M57.07,111.98c-0.27-0.68-0.53-1.36-0.79-2.05l0.68-0.26
		c0.26,0.68,0.52,1.36,0.79,2.04L57.07,111.98z M148.23,109.59c-0.19-0.7-0.38-1.4-0.58-2.11l0.71-0.2c0.2,0.71,0.39,1.41,0.58,2.12
		L148.23,109.59z M55.51,107.88c-0.25-0.69-0.5-1.38-0.75-2.06l0.69-0.25c0.25,0.68,0.49,1.37,0.75,2.05L55.51,107.88z
		 M147.05,105.38c-0.2-0.7-0.41-1.4-0.62-2.1l0.7-0.21c0.21,0.7,0.42,1.4,0.62,2.1L147.05,105.38z M54.03,103.75
		c-0.24-0.69-0.48-1.38-0.71-2.08l0.69-0.23c0.23,0.69,0.47,1.38,0.71,2.07L54.03,103.75z M145.78,101.19
		c-0.22-0.69-0.44-1.39-0.67-2.08l0.7-0.23c0.23,0.7,0.45,1.39,0.67,2.09L145.78,101.19z M52.63,99.59
		c-0.23-0.7-0.45-1.39-0.67-2.09l0.7-0.22c0.22,0.69,0.44,1.39,0.67,2.08L52.63,99.59z M144.43,97.04
		c-0.23-0.69-0.47-1.38-0.71-2.07l0.69-0.24c0.24,0.69,0.48,1.39,0.71,2.08L144.43,97.04z M51.31,95.41c-0.21-0.7-0.42-1.4-0.62-2.1
		l0.7-0.2c0.2,0.7,0.41,1.4,0.62,2.1L51.31,95.41z M143,92.9c-0.25-0.68-0.49-1.37-0.75-2.05l0.69-0.25
		c0.25,0.69,0.5,1.38,0.75,2.06L143,92.9z M50.09,91.19c-0.2-0.71-0.39-1.41-0.58-2.12l0.71-0.19c0.19,0.7,0.38,1.4,0.58,2.11
		L50.09,91.19z M141.48,88.8c-0.26-0.68-0.52-1.36-0.79-2.04l0.68-0.27c0.27,0.68,0.53,1.36,0.79,2.05L141.48,88.8z M48.95,86.96
		c-0.18-0.71-0.36-1.42-0.53-2.13l0.71-0.17c0.17,0.71,0.35,1.41,0.53,2.12L48.95,86.96z M139.88,84.73
		c-0.27-0.67-0.55-1.35-0.83-2.02l-0.04-0.1l0.67-0.29l0.05,0.11c0.28,0.67,0.56,1.35,0.83,2.03L139.88,84.73z M47.91,82.69
		c-0.17-0.72-0.33-1.43-0.48-2.14l0.71-0.16c0.16,0.71,0.32,1.42,0.48,2.13L47.91,82.69z M138.17,80.59
		c-0.29-0.67-0.58-1.34-0.87-2.01l0.67-0.29c0.29,0.67,0.58,1.34,0.87,2.01L138.17,80.59z M46.96,78.41
		c-0.15-0.72-0.29-1.44-0.43-2.15l0.72-0.14c0.14,0.71,0.28,1.42,0.43,2.14L46.96,78.41z M136.42,76.58
		c-0.3-0.67-0.6-1.33-0.91-1.99l0.66-0.31c0.31,0.66,0.61,1.33,0.91,2L136.42,76.58z M46.12,74.1c-0.13-0.72-0.26-1.44-0.38-2.16
		l0.72-0.12c0.12,0.71,0.25,1.43,0.38,2.15L46.12,74.1z M134.59,72.61c-0.31-0.66-0.63-1.32-0.94-1.97l0.66-0.32
		c0.32,0.66,0.63,1.32,0.95,1.98L134.59,72.61z M45.39,69.77c-0.11-0.73-0.22-1.45-0.32-2.17l0.72-0.1c0.1,0.72,0.21,1.44,0.32,2.16
		L45.39,69.77z M132.68,68.68c-0.33-0.66-0.65-1.31-0.98-1.95l0.65-0.33c0.33,0.65,0.66,1.3,0.99,1.96L132.68,68.68z M44.77,65.43
		c-0.09-0.73-0.18-1.46-0.26-2.18l0.73-0.08c0.08,0.72,0.17,1.44,0.26,2.17L44.77,65.43z M130.69,64.78
		c-0.34-0.65-0.68-1.29-1.02-1.93l0.64-0.35c0.34,0.64,0.69,1.29,1.03,1.94L130.69,64.78z M44.28,61.06
		c-0.07-0.73-0.14-1.46-0.2-2.19l0.73-0.06c0.06,0.72,0.12,1.45,0.19,2.18L44.28,61.06z M128.62,60.93
		c-0.35-0.64-0.71-1.28-1.06-1.91l0.64-0.36c0.36,0.63,0.71,1.27,1.07,1.92L128.62,60.93z M126.48,57.12
		c-0.37-0.63-0.73-1.26-1.1-1.89l0.63-0.37c0.37,0.63,0.74,1.26,1.11,1.89L126.48,57.12z M43.93,56.69
		c-0.05-0.74-0.09-1.47-0.13-2.19l0.73-0.04c0.04,0.72,0.08,1.45,0.13,2.18L43.93,56.69z M124.25,53.36
		c-0.38-0.63-0.76-1.25-1.15-1.86l0.62-0.39c0.39,0.62,0.77,1.24,1.15,1.87L124.25,53.36z M43.71,52.3
		c-0.02-0.74-0.04-1.47-0.05-2.2l0.73-0.01c0.01,0.72,0.02,1.45,0.05,2.18L43.71,52.3z M121.93,49.65
		c-0.39-0.62-0.79-1.23-1.19-1.83l0.61-0.4c0.4,0.61,0.8,1.22,1.19,1.84L121.93,49.65z M44.39,47.91l-0.73-0.01
		c0.01-0.74,0.02-1.47,0.04-2.2l0.73,0.02C44.41,46.45,44.4,47.18,44.39,47.91z M119.53,46c-0.41-0.61-0.82-1.21-1.23-1.8l0.6-0.42
		c0.42,0.6,0.83,1.2,1.24,1.81L119.53,46z M44.52,43.55l-0.73-0.04c0.04-0.74,0.08-1.47,0.14-2.19l0.73,0.05
		C44.6,42.09,44.56,42.82,44.52,43.55z M117.04,42.41c-0.42-0.6-0.85-1.19-1.28-1.77l0.59-0.43c0.43,0.59,0.86,1.18,1.29,1.78
		L117.04,42.41z M44.84,39.2l-0.73-0.07c0.07-0.74,0.16-1.47,0.25-2.18l0.73,0.09C45,37.75,44.92,38.47,44.84,39.2z M114.46,38.88
		c-0.44-0.59-0.88-1.16-1.33-1.74l0.58-0.45c0.45,0.57,0.89,1.16,1.33,1.74L114.46,38.88z M111.78,35.43
		c-0.46-0.57-0.92-1.14-1.38-1.7l0.56-0.47c0.46,0.56,0.92,1.13,1.38,1.71L111.78,35.43z M45.39,34.88l-0.72-0.11
		c0.11-0.73,0.24-1.46,0.37-2.17l0.72,0.14C45.63,33.44,45.5,34.15,45.39,34.88z M109,32.06c-0.47-0.56-0.95-1.11-1.43-1.65
		l0.55-0.48c0.48,0.55,0.96,1.1,1.44,1.66L109,32.06z M46.2,30.6l-0.71-0.16c0.16-0.73,0.34-1.44,0.52-2.14l0.71,0.19
		C46.53,29.18,46.36,29.88,46.2,30.6z M106.12,28.78c-0.49-0.54-0.99-1.08-1.48-1.6l0.53-0.5c0.5,0.53,1,1.07,1.49,1.61
		L106.12,28.78z M47.31,26.39l-0.7-0.22c0.22-0.71,0.45-1.41,0.7-2.09L48,24.33C47.76,25,47.53,25.69,47.31,26.39z M103.12,25.6
		c-0.51-0.52-1.03-1.04-1.54-1.54l0.51-0.52c0.52,0.51,1.04,1.03,1.55,1.55L103.12,25.6z M100.01,22.54c-0.54-0.5-1.07-1-1.61-1.48
		l0.49-0.54c0.54,0.48,1.08,0.98,1.62,1.49L100.01,22.54z M48.79,22.31l-0.68-0.28c0.29-0.69,0.59-1.36,0.91-2.01l0.66,0.32
		C49.37,20.97,49.07,21.63,48.79,22.31z M96.76,19.62c-0.56-0.48-1.11-0.95-1.67-1.4l0.46-0.57c0.56,0.46,1.12,0.93,1.69,1.41
		L96.76,19.62z M50.68,18.41l-0.64-0.36c0.37-0.65,0.76-1.29,1.16-1.89l0.61,0.41C51.43,17.15,51.05,17.77,50.68,18.41z
		 M93.38,16.87c-0.58-0.45-1.16-0.88-1.74-1.31l0.43-0.59c0.59,0.43,1.17,0.87,1.76,1.32L93.38,16.87z M53.08,14.82l-0.58-0.45
		c0.46-0.59,0.95-1.15,1.44-1.69l0.54,0.5C53.99,13.7,53.52,14.25,53.08,14.82z M89.86,14.31c-0.61-0.41-1.22-0.81-1.82-1.19
		l0.39-0.62c0.61,0.39,1.23,0.79,1.84,1.21L89.86,14.31z M86.17,11.99c-0.64-0.37-1.27-0.72-1.91-1.05l0.34-0.65
		c0.64,0.34,1.29,0.69,1.93,1.06L86.17,11.99z M56.02,11.68l-0.48-0.55c0.56-0.49,1.15-0.96,1.74-1.38l0.42,0.6
		C57.13,10.75,56.56,11.2,56.02,11.68z M82.32,9.98c-0.67-0.31-1.33-0.6-1.99-0.87l0.28-0.68c0.67,0.27,1.34,0.57,2.02,0.88
		L82.32,9.98z M59.52,9.2l-0.36-0.64c0.65-0.36,1.32-0.69,2-0.97l0.28,0.68C60.79,8.54,60.14,8.85,59.52,9.2z M78.3,8.35
		c-0.69-0.24-1.39-0.45-2.07-0.63l0.19-0.71c0.7,0.19,1.41,0.41,2.11,0.65L78.3,8.35z M63.47,7.54l-0.21-0.7
		c0.71-0.21,1.44-0.38,2.17-0.51l0.13,0.72C64.86,7.18,64.15,7.34,63.47,7.54z M74.13,7.23C73.42,7.09,72.7,6.98,72,6.9l0.08-0.73
		c0.72,0.08,1.46,0.2,2.19,0.34L74.13,7.23z M67.7,6.79l-0.05-0.73c0.73-0.05,1.47-0.07,2.22-0.05l-0.02,0.73
		C69.12,6.72,68.41,6.74,67.7,6.79z"/>
</g>
</svg>
