<?xml version="1.0" encoding="utf-8"?>
<!-- Generator: Adobe Illustrator 23.0.3, SVG Export Plug-In . SVG Version: 6.00 Build 0)  -->
<svg version="1.1" id="Layer_1" xmlns="http://www.w3.org/2000/svg" xmlns:xlink="http://www.w3.org/1999/xlink" x="0px" y="0px"
	 viewBox="0 0 199.16 199.16" style="enable-background:new 0 0 199.16 199.16;" xml:space="preserve">
<style type="text/css">
	.st0{fill:#231F20;}
</style>
<g>
	<path class="st0" d="M47.76,176.33c-0.75,0-1.49-0.03-2.21-0.07l0.04-0.73c0.71,0.04,1.44,0.07,2.17,0.07L47.76,176.33z
		 M49.97,176.28l-0.04-0.73c0.71-0.03,1.43-0.08,2.17-0.15l0.07,0.73C51.43,176.2,50.7,176.25,49.97,176.28z M43.35,176.05
		c-0.74-0.09-1.48-0.21-2.19-0.35l0.14-0.72c0.69,0.14,1.41,0.25,2.14,0.34L43.35,176.05z M54.36,175.88l-0.1-0.73
		c0.71-0.09,1.43-0.2,2.15-0.33l0.13,0.72C55.81,175.67,55.08,175.78,54.36,175.88z M39.01,175.19c-0.72-0.2-1.43-0.44-2.11-0.69
		l0.26-0.68c0.66,0.25,1.35,0.48,2.05,0.67L39.01,175.19z M58.7,175.13l-0.15-0.72c0.7-0.15,1.41-0.31,2.13-0.48l0.17,0.71
		C60.13,174.82,59.41,174.98,58.7,175.13z M62.98,174.1l-0.19-0.71c0.69-0.19,1.39-0.39,2.1-0.6l0.21,0.7
		C64.39,173.71,63.68,173.91,62.98,174.1z M34.86,173.61c-0.67-0.33-1.32-0.7-1.94-1.09l0.39-0.62c0.6,0.38,1.23,0.73,1.88,1.05
		L34.86,173.61z M67.19,172.83l-0.23-0.7c0.68-0.23,1.37-0.46,2.06-0.71l0.25,0.69C68.58,172.37,67.88,172.6,67.19,172.83z
		 M71.34,171.36l-0.26-0.68c0.67-0.26,1.35-0.52,2.03-0.8l0.28,0.68C72.7,170.83,72.01,171.1,71.34,171.36z M31.1,171.23
		c-0.58-0.46-1.14-0.96-1.66-1.48l0.52-0.52c0.5,0.5,1.04,0.98,1.6,1.43L31.1,171.23z M75.41,169.71l-0.29-0.67
		c0.66-0.28,1.33-0.58,2-0.88l0.3,0.67C76.75,169.13,76.08,169.43,75.41,169.71z M27.95,168.08c-0.46-0.57-0.89-1.18-1.29-1.81
		l0.62-0.39c0.38,0.61,0.8,1.2,1.25,1.75L27.95,168.08z M79.42,167.91l-0.31-0.66c0.65-0.31,1.31-0.62,1.97-0.95l0.32,0.66
		C80.73,167.28,80.07,167.6,79.42,167.91z M83.36,165.97l-0.33-0.65c0.64-0.33,1.29-0.67,1.94-1.01l0.34,0.65
		C84.65,165.3,84.01,165.64,83.36,165.97z M25.57,164.33c-0.33-0.66-0.63-1.34-0.89-2.04l0.69-0.26c0.25,0.67,0.55,1.34,0.86,1.97
		L25.57,164.33z M87.23,163.9l-0.35-0.64c0.63-0.35,1.27-0.71,1.9-1.07l0.36,0.64C88.51,163.2,87.87,163.55,87.23,163.9z
		 M91.05,161.73l-0.37-0.63c0.62-0.37,1.25-0.74,1.87-1.12l0.38,0.63C92.3,160.98,91.67,161.36,91.05,161.73z M23.98,160.18
		c-0.2-0.7-0.37-1.42-0.52-2.16l0.72-0.14c0.14,0.72,0.31,1.42,0.5,2.1L23.98,160.18z M94.8,159.45l-0.39-0.62
		c0.61-0.38,1.23-0.78,1.84-1.17l0.4,0.62C96.03,158.67,95.41,159.06,94.8,159.45z M98.48,157.07l-0.4-0.61
		c0.6-0.4,1.21-0.81,1.81-1.22l0.41,0.61C99.7,156.26,99.09,156.66,98.48,157.07z M23.11,155.84c-0.09-0.71-0.16-1.45-0.21-2.2
		l0.73-0.04c0.05,0.73,0.11,1.46,0.2,2.16L23.11,155.84z M102.11,154.6l-0.42-0.6c0.59-0.42,1.19-0.84,1.79-1.26l0.43,0.6
		C103.31,153.76,102.71,154.18,102.11,154.6z M105.68,152.04l-0.43-0.59c0.58-0.43,1.17-0.86,1.76-1.3l0.44,0.59
		C106.86,151.18,106.27,151.61,105.68,152.04z M23.56,151.42h-0.73l0-0.21c0-0.66,0.02-1.32,0.05-2l0.73,0.03
		c-0.03,0.66-0.05,1.31-0.05,1.96L23.56,151.42z M109.19,149.41l-0.45-0.58c0.58-0.44,1.15-0.89,1.73-1.34l0.45,0.58
		C110.35,148.52,109.77,148.97,109.19,149.41z M23.76,147.09l-0.73-0.07c0.07-0.72,0.15-1.45,0.25-2.19l0.73,0.1
		C23.9,145.65,23.82,146.37,23.76,147.09z M112.65,146.7l-0.46-0.57c0.57-0.45,1.13-0.91,1.7-1.38l0.46,0.57
		C113.78,145.79,113.21,146.25,112.65,146.7z M116.04,143.92l-0.47-0.56c0.56-0.47,1.11-0.94,1.67-1.41l0.48,0.56
		C117.16,142.98,116.6,143.46,116.04,143.92z M24.33,142.77l-0.72-0.12c0.12-0.71,0.26-1.44,0.41-2.16l0.72,0.15
		C24.59,141.36,24.45,142.07,24.33,142.77z M119.37,141.07l-0.48-0.55c0.55-0.48,1.09-0.96,1.64-1.45l0.49,0.55
		C120.47,140.11,119.92,140.59,119.37,141.07z M25.21,138.51l-0.71-0.17c0.17-0.7,0.35-1.41,0.55-2.13l0.71,0.19
		C25.56,137.11,25.38,137.81,25.21,138.51z M122.65,138.16l-0.49-0.54c0.54-0.49,1.08-0.98,1.61-1.48l0.5,0.54
		C123.73,137.17,123.19,137.67,122.65,138.16z M125.87,135.18l-0.5-0.53c0.53-0.5,1.06-1,1.58-1.51l0.51,0.53
		C126.93,134.17,126.4,134.68,125.87,135.18z M26.36,134.3l-0.7-0.21c0.21-0.69,0.43-1.39,0.66-2.1l0.7,0.23
		C26.78,132.92,26.56,133.62,26.36,134.3z M129.03,132.14l-0.51-0.52c0.52-0.51,1.04-1.02,1.55-1.54l0.31,0.21l0.22,0.3
		C130.07,131.11,129.55,131.63,129.03,132.14z M27.72,130.16l-0.69-0.25c0.24-0.68,0.5-1.37,0.76-2.06l0.68,0.26
		C28.21,128.8,27.96,129.48,27.72,130.16z M132.18,128.99l-0.52-0.51c0.51-0.52,1.02-1.04,1.52-1.57l0.53,0.51
		C133.21,127.94,132.7,128.46,132.18,128.99z M29.27,126.08l-0.68-0.27c0.27-0.67,0.55-1.35,0.84-2.03l0.67,0.29
		C29.82,124.74,29.54,125.41,29.27,126.08z M135.23,125.82l-0.53-0.5c0.5-0.53,1-1.06,1.49-1.6l0.54,0.5
		C136.23,124.76,135.73,125.29,135.23,125.82z M138.21,122.6l-0.54-0.49c0.49-0.54,0.98-1.08,1.46-1.63l0.55,0.49
		C139.19,121.51,138.7,122.06,138.21,122.6z M30.98,122.07l-0.67-0.3c0.3-0.66,0.6-1.33,0.92-2l0.66,0.31
		C31.58,120.75,31.28,121.41,30.98,122.07z M141.12,119.32l-0.55-0.48c0.48-0.55,0.96-1.1,1.43-1.66l0.56,0.48
		C142.08,118.22,141.6,118.77,141.12,119.32z M32.84,118.12l-0.66-0.32c0.32-0.65,0.65-1.31,0.99-1.96l0.65,0.33
		C33.49,116.82,33.16,117.47,32.84,118.12z M143.97,115.99l-0.56-0.47c0.47-0.56,0.93-1.12,1.39-1.68l0.57,0.46
		C144.9,114.86,144.44,115.42,143.97,115.99z M34.84,114.23l-0.65-0.34c0.34-0.64,0.69-1.29,1.05-1.93l0.64,0.35
		C35.52,112.95,35.18,113.59,34.84,114.23z M146.75,112.59l-0.57-0.46c0.46-0.57,0.91-1.14,1.36-1.71l0.58,0.45
		C147.66,111.45,147.21,112.02,146.75,112.59z M36.95,110.4l-0.64-0.36c0.36-0.63,0.73-1.26,1.1-1.9l0.63,0.37
		C37.67,109.14,37.3,109.77,36.95,110.4z M149.45,109.14l-0.58-0.45c0.45-0.58,0.89-1.16,1.32-1.74l0.59,0.44
		C150.34,107.97,149.9,108.56,149.45,109.14z M39.17,106.64l-0.63-0.38c0.38-0.62,0.76-1.24,1.15-1.87l0.62,0.39
		C39.93,105.4,39.54,106.02,39.17,106.64z M152.09,105.63l-0.59-0.43c0.43-0.59,0.86-1.18,1.28-1.77l0.6,0.43
		C152.95,104.44,152.52,105.03,152.09,105.63z M41.49,102.93l-0.62-0.4c0.39-0.61,0.79-1.22,1.2-1.84l0.61,0.4
		C42.28,101.72,41.88,102.33,41.49,102.93z M154.64,102.06l-0.6-0.42c0.42-0.6,0.83-1.2,1.24-1.8l0.61,0.41
		C155.47,100.85,155.06,101.45,154.64,102.06z M43.9,99.29l-0.61-0.41c0.41-0.6,0.82-1.2,1.25-1.81l0.6,0.42
		C44.72,98.09,44.31,98.69,43.9,99.29z M157.11,98.43l-0.61-0.4c0.4-0.61,0.8-1.22,1.2-1.83l0.62,0.4
		C157.91,97.2,157.51,97.81,157.11,98.43z M46.4,95.71l-0.6-0.43c0.42-0.59,0.85-1.18,1.29-1.78l0.59,0.43
		C47.25,94.52,46.82,95.11,46.4,95.71z M159.48,94.74l-0.62-0.39c0.39-0.62,0.77-1.24,1.15-1.86l0.63,0.38
		C160.26,93.49,159.87,94.11,159.48,94.74z M48.98,92.18l-0.59-0.44c0.44-0.58,0.88-1.17,1.33-1.75l0.58,0.45
		C49.86,91.02,49.42,91.6,48.98,92.18z M161.76,90.99l-0.63-0.37c0.37-0.63,0.74-1.26,1.1-1.89l0.64,0.36
		C162.5,89.72,162.14,90.35,161.76,90.99z M51.64,88.71l-0.58-0.45c0.45-0.57,0.9-1.15,1.36-1.72L53,87
		C52.54,87.57,52.09,88.14,51.64,88.71z M163.94,87.17l-0.64-0.35c0.35-0.64,0.7-1.28,1.04-1.92l0.65,0.34
		C164.64,85.88,164.29,86.53,163.94,87.17z M54.38,85.3l-0.57-0.46c0.46-0.56,0.93-1.13,1.4-1.69l0.56,0.47
		C55.3,84.17,54.84,84.74,54.38,85.3z M166,83.3l-0.65-0.33c0.33-0.65,0.66-1.3,0.98-1.95l0.66,0.32
		C166.67,81.99,166.34,82.64,166,83.3z M57.18,81.94l-0.56-0.48c0.47-0.55,0.95-1.11,1.43-1.66l0.55,0.48
		C58.13,80.84,57.66,81.39,57.18,81.94z M167.94,79.36l-0.66-0.31c0.31-0.66,0.62-1.33,0.91-1.98l0.67,0.3
		C168.56,78.02,168.25,78.69,167.94,79.36z M60.06,78.65l-0.55-0.49c0.48-0.54,0.97-1.09,1.47-1.63l0.54,0.49
		C61.03,77.56,60.54,78.1,60.06,78.65z M62.99,75.41l-0.54-0.5c0.5-0.54,0.99-1.07,1.5-1.6l0.53,0.5
		C63.98,74.34,63.49,74.88,62.99,75.41z M169.74,75.35l-0.67-0.29c0.29-0.68,0.57-1.35,0.84-2.02l0.68,0.27
		C170.31,73.99,170.03,74.67,169.74,75.35z M66,72.23l-0.53-0.51c0.51-0.53,1.02-1.05,1.53-1.57l0.52,0.51
		C67.01,71.18,66.5,71.7,66,72.23z M171.38,71.27l-0.68-0.26c0.26-0.69,0.51-1.37,0.75-2.05l0.69,0.24
		C171.9,69.89,171.65,70.58,171.38,71.27z M69.08,69.08l-0.53-0.51c0.52-0.52,1.03-1.02,1.54-1.53l0.51,0.52
		C70.1,68.07,69.59,68.57,69.08,69.08z M172.85,67.13l-0.7-0.23c0.23-0.7,0.45-1.39,0.65-2.08l0.7,0.21
		C173.3,65.73,173.09,66.43,172.85,67.13z M72.18,66.04l-0.51-0.53c0.53-0.51,1.06-1.01,1.59-1.51l0.5,0.53
		C73.23,65.03,72.7,65.54,72.18,66.04z M75.36,63.04l-0.5-0.54c0.54-0.5,1.08-0.99,1.62-1.48l0.49,0.54
		C76.43,62.05,75.89,62.54,75.36,63.04z M174.12,62.92l-0.71-0.19c0.19-0.71,0.37-1.41,0.54-2.11l0.71,0.17
		C174.5,61.49,174.31,62.2,174.12,62.92z M78.59,60.1l-0.49-0.55c0.55-0.49,1.1-0.97,1.65-1.45l0.48,0.55
		C79.69,59.13,79.14,59.62,78.59,60.1z M175.14,58.64l-0.72-0.15c0.15-0.72,0.28-1.43,0.41-2.14l0.72,0.12
		C175.43,57.19,175.3,57.91,175.14,58.64z M81.89,57.23l-0.48-0.56c0.56-0.48,1.12-0.95,1.68-1.42l0.47,0.56
		C83,56.28,82.45,56.75,81.89,57.23z M85.24,54.42l-0.46-0.57c0.57-0.47,1.14-0.93,1.71-1.38l0.46,0.57
		C86.38,53.5,85.81,53.96,85.24,54.42z M175.89,54.3l-0.73-0.1c0.1-0.73,0.18-1.45,0.24-2.16l0.73,0.07
		C176.07,52.83,175.98,53.56,175.89,54.3z M88.66,51.69l-0.45-0.58c0.58-0.45,1.16-0.9,1.73-1.35l0.45,0.58
		C89.81,50.79,89.23,51.23,88.66,51.69z M176.28,49.9l-0.73-0.03c0.03-0.65,0.04-1.29,0.04-1.92l0-0.25l0.73-0.01l0,0.26
		C176.33,48.59,176.31,49.24,176.28,49.9z M92.12,49.02l-0.44-0.59c0.59-0.44,1.18-0.88,1.76-1.31l0.43,0.59
		C93.29,48.15,92.71,48.59,92.12,49.02z M95.65,46.44l-0.43-0.6c0.6-0.43,1.19-0.85,1.79-1.27l0.42,0.6
		C96.84,45.59,96.24,46.01,95.65,46.44z M175.52,45.53c-0.05-0.73-0.11-1.46-0.2-2.16l0.73-0.09c0.09,0.72,0.16,1.46,0.21,2.2
		L175.52,45.53z M99.23,43.94l-0.41-0.61c0.61-0.41,1.21-0.82,1.82-1.22l0.4,0.61C100.44,43.12,99.84,43.53,99.23,43.94z
		 M102.88,41.52l-0.4-0.62c0.62-0.4,1.24-0.79,1.85-1.18l0.39,0.62C104.11,40.74,103.49,41.13,102.88,41.52z M174.97,41.24
		c-0.14-0.71-0.31-1.42-0.51-2.1l0.71-0.2c0.2,0.7,0.37,1.42,0.52,2.16L174.97,41.24z M106.58,39.2l-0.38-0.63
		c0.63-0.38,1.26-0.76,1.88-1.13l0.37,0.63C107.83,38.45,107.21,38.82,106.58,39.2z M173.78,37.1c-0.26-0.67-0.55-1.34-0.86-1.97
		l0.66-0.33c0.33,0.66,0.63,1.34,0.89,2.04L173.78,37.1z M110.34,36.98l-0.36-0.64c0.64-0.37,1.28-0.72,1.91-1.08l0.35,0.64
		C111.61,36.26,110.98,36.62,110.34,36.98z M114.17,34.87l-0.34-0.65c0.65-0.35,1.3-0.69,1.95-1.02l0.33,0.65
		C115.46,34.19,114.81,34.52,114.17,34.87z M171.86,33.25c-0.39-0.61-0.81-1.2-1.25-1.75l0.57-0.46c0.46,0.57,0.9,1.18,1.3,1.81
		L171.86,33.25z M118.05,32.87l-0.32-0.66c0.66-0.33,1.32-0.64,1.98-0.95l0.31,0.66C119.37,32.23,118.71,32.55,118.05,32.87z
		 M122,31.01l-0.3-0.67c0.67-0.3,1.34-0.6,2.01-0.88l0.29,0.67C123.34,30.42,122.67,30.71,122,31.01z M169.18,29.91
		c-0.51-0.5-1.05-0.98-1.6-1.43l0.46-0.57c0.58,0.46,1.14,0.96,1.67,1.48L169.18,29.91z M126.02,29.29l-0.28-0.68
		c0.69-0.28,1.37-0.55,2.05-0.8l0.26,0.68C127.38,28.75,126.7,29.02,126.02,29.29z M130.1,27.74l-0.25-0.69
		c0.7-0.25,1.39-0.49,2.08-0.71l0.23,0.7C131.48,27.26,130.79,27.49,130.1,27.74z M165.82,27.24c-0.6-0.38-1.23-0.73-1.88-1.05
		l0.32-0.66c0.67,0.33,1.33,0.7,1.94,1.09L165.82,27.24z M134.24,26.38l-0.21-0.7c0.71-0.21,1.41-0.42,2.11-0.61l0.19,0.71
		C135.64,25.96,134.94,26.16,134.24,26.38z M161.97,25.34c-0.66-0.25-1.35-0.48-2.05-0.67l0.2-0.71c0.72,0.2,1.43,0.43,2.11,0.69
		L161.97,25.34z M138.44,25.23l-0.17-0.71c0.72-0.17,1.44-0.34,2.15-0.48l0.15,0.72C139.87,24.9,139.16,25.06,138.44,25.23z
		 M142.71,24.34l-0.13-0.72c0.73-0.13,1.46-0.24,2.18-0.34l0.1,0.73C144.15,24.11,143.43,24.22,142.71,24.34z M157.81,24.17
		c-0.69-0.14-1.41-0.25-2.14-0.34l0.09-0.73c0.74,0.09,1.48,0.21,2.19,0.35L157.81,24.17z M147.02,23.76l-0.07-0.73
		c0.74-0.07,1.48-0.12,2.2-0.16l0.04,0.73C148.47,23.64,147.75,23.7,147.02,23.76z M153.52,23.63c-0.71-0.04-1.44-0.07-2.17-0.07
		l0-0.73c0.74,0,1.49,0.03,2.21,0.07L153.52,23.63z"/>
	<path class="st0" d="M151.2,176.33c-0.64,0-1.29-0.01-1.95-0.04l0.03-0.73c0.65,0.03,1.29,0.04,1.92,0.04l0.25,0l0,0.73
		L151.2,176.33z M153.67,176.25l-0.05-0.73c0.73-0.05,1.46-0.11,2.16-0.2l0.09,0.73C155.16,176.13,154.42,176.2,153.67,176.25z
		 M147.05,176.13c-0.72-0.07-1.45-0.15-2.19-0.25l0.1-0.73c0.73,0.1,1.45,0.18,2.16,0.24L147.05,176.13z M158.06,175.69l-0.14-0.72
		c0.72-0.14,1.42-0.31,2.1-0.51l0.2,0.7C159.52,175.37,158.79,175.54,158.06,175.69z M142.68,175.56c-0.71-0.12-1.44-0.26-2.16-0.41
		l0.15-0.72c0.72,0.15,1.43,0.28,2.14,0.41L142.68,175.56z M138.37,174.66c-0.7-0.17-1.42-0.35-2.13-0.55l0.19-0.71
		c0.71,0.19,1.41,0.37,2.11,0.54L138.37,174.66z M162.32,174.47l-0.26-0.68c0.68-0.26,1.34-0.55,1.97-0.86l0.33,0.66
		C163.71,173.9,163.02,174.2,162.32,174.47z M134.12,173.51c-0.69-0.21-1.39-0.43-2.1-0.66l0.23-0.7c0.7,0.23,1.39,0.45,2.08,0.65
		L134.12,173.51z M166.3,172.48l-0.39-0.62c0.61-0.39,1.19-0.81,1.75-1.25l0.46,0.57C167.54,171.65,166.93,172.08,166.3,172.48z
		 M129.95,172.14c-0.68-0.24-1.37-0.5-2.06-0.76l0.26-0.68c0.69,0.26,1.37,0.51,2.05,0.75L129.95,172.14z M125.84,170.58
		c-0.67-0.27-1.35-0.55-2.03-0.84l0.29-0.67c0.68,0.29,1.35,0.57,2.02,0.84L125.84,170.58z M169.77,169.69l-0.52-0.52
		c0.5-0.51,0.98-1.04,1.43-1.6l0.57,0.46C170.79,168.61,170.29,169.17,169.77,169.69z M121.79,168.86c-0.66-0.3-1.33-0.6-2-0.92
		l0.31-0.66c0.67,0.31,1.33,0.62,1.99,0.91L121.79,168.86z M117.82,166.99c-0.65-0.32-1.31-0.65-1.96-0.99l0.33-0.65
		c0.65,0.33,1.3,0.66,1.95,0.98L117.82,166.99z M172.54,166.21l-0.62-0.39c0.38-0.6,0.73-1.23,1.05-1.88l0.66,0.32
		C173.29,164.93,172.93,165.59,172.54,166.21z M113.91,164.98c-0.64-0.34-1.28-0.69-1.93-1.05l0.35-0.64
		c0.64,0.35,1.28,0.7,1.92,1.04L113.91,164.98z M110.07,162.86c-0.63-0.36-1.26-0.73-1.9-1.1l0.37-0.63
		c0.63,0.37,1.26,0.74,1.89,1.1L110.07,162.86z M174.51,162.23l-0.69-0.26c0.25-0.66,0.47-1.35,0.67-2.05l0.71,0.2
		C174.99,160.84,174.76,161.55,174.51,162.23z M106.29,160.63c-0.62-0.38-1.24-0.76-1.87-1.15l0.39-0.62
		c0.62,0.39,1.24,0.77,1.86,1.15L106.29,160.63z M102.57,158.3c-0.61-0.39-1.22-0.79-1.84-1.2l0.4-0.61c0.61,0.4,1.22,0.8,1.83,1.2
		L102.57,158.3z M175.71,157.96l-0.72-0.14c0.14-0.69,0.25-1.41,0.34-2.14l0.73,0.09C175.96,156.52,175.85,157.25,175.71,157.96z
		 M98.91,155.88c-0.6-0.41-1.2-0.82-1.81-1.24l0.42-0.6c0.6,0.42,1.2,0.83,1.8,1.24L98.91,155.88z M176.26,153.57l-0.73-0.04
		c0.04-0.7,0.06-1.43,0.07-2.17l0.73,0C176.32,152.11,176.3,152.85,176.26,153.57z M95.31,153.37c-0.59-0.42-1.18-0.85-1.78-1.29
		l0.43-0.59c0.59,0.43,1.18,0.86,1.77,1.28L95.31,153.37z M91.76,150.78c-0.58-0.44-1.17-0.88-1.75-1.33l0.45-0.58
		c0.58,0.45,1.16,0.89,1.74,1.32L91.76,150.78z M175.55,149.18c-0.03-0.71-0.09-1.43-0.15-2.17l0.73-0.07
		c0.07,0.74,0.12,1.48,0.16,2.2L175.55,149.18z M88.28,148.11c-0.57-0.45-1.15-0.9-1.72-1.36l0.46-0.57
		c0.57,0.46,1.14,0.91,1.71,1.36L88.28,148.11z M84.86,145.37c-0.56-0.46-1.13-0.93-1.69-1.4l0.47-0.56
		c0.56,0.47,1.12,0.93,1.69,1.39L84.86,145.37z M175.15,144.86c-0.1-0.71-0.21-1.43-0.33-2.15l0.72-0.13
		c0.13,0.73,0.24,1.46,0.34,2.18L175.15,144.86z M81.49,142.55c-0.55-0.47-1.11-0.95-1.66-1.43l0.48-0.55
		c0.55,0.48,1.1,0.96,1.66,1.43L81.49,142.55z M174.41,140.57c-0.15-0.7-0.31-1.41-0.48-2.12l0.71-0.17
		c0.17,0.72,0.34,1.44,0.48,2.15L174.41,140.57z M78.19,139.67c-0.54-0.48-1.09-0.97-1.63-1.47l0.49-0.54
		c0.54,0.49,1.08,0.98,1.63,1.46L78.19,139.67z M74.94,136.72c-0.53-0.49-1.07-0.99-1.6-1.5l0.5-0.53c0.53,0.5,1.06,1,1.6,1.49
		L74.94,136.72z M173.38,136.33c-0.19-0.69-0.39-1.39-0.6-2.09l0.7-0.21c0.21,0.71,0.42,1.42,0.61,2.11L173.38,136.33z
		 M71.75,133.71c-0.53-0.51-1.05-1.02-1.57-1.53l0.51-0.52c0.52,0.51,1.05,1.02,1.57,1.52L71.75,133.71z M172.13,132.16
		c-0.23-0.68-0.46-1.37-0.71-2.06l0.69-0.25c0.25,0.7,0.49,1.39,0.71,2.08L172.13,132.16z M68.61,130.64l0.26-0.25l-0.3,0.22
		c-0.53-0.53-1.04-1.05-1.55-1.57l0.52-0.51c0.51,0.52,1.02,1.04,1.54,1.55l-0.21,0.31L68.61,130.64z M170.66,128.05
		c-0.26-0.67-0.52-1.35-0.8-2.03l0.68-0.27c0.28,0.69,0.54,1.37,0.8,2.04L170.66,128.05z M65.49,127.46
		c-0.51-0.53-1.01-1.06-1.51-1.59l0.53-0.5c0.5,0.53,1,1.06,1.51,1.58L65.49,127.46z M62.48,124.27c-0.5-0.54-0.99-1.08-1.48-1.62
		l0.54-0.49c0.49,0.54,0.98,1.08,1.48,1.61L62.48,124.27z M169.03,124c-0.28-0.66-0.58-1.33-0.88-2l0.67-0.3
		c0.3,0.67,0.6,1.34,0.88,2.01L169.03,124z M59.53,121.02c-0.49-0.55-0.97-1.1-1.45-1.65l0.55-0.48c0.48,0.55,0.96,1.09,1.45,1.64
		L59.53,121.02z M167.23,120.02c-0.31-0.65-0.62-1.31-0.95-1.97l0.66-0.32c0.33,0.66,0.64,1.32,0.95,1.98L167.23,120.02z
		 M56.65,117.71c-0.48-0.56-0.95-1.12-1.42-1.68l0.56-0.47c0.47,0.56,0.94,1.11,1.41,1.67L56.65,117.71z M165.3,116.1
		c-0.33-0.64-0.67-1.29-1.01-1.94l0.65-0.34c0.35,0.65,0.69,1.3,1.02,1.95L165.3,116.1z M53.83,114.35
		c-0.47-0.57-0.93-1.14-1.38-1.7l0.57-0.46c0.46,0.57,0.91,1.13,1.38,1.7L53.83,114.35z M163.25,112.25
		c-0.35-0.63-0.71-1.27-1.07-1.9l0.64-0.36c0.36,0.64,0.72,1.28,1.08,1.91L163.25,112.25z M51.09,110.93
		c-0.45-0.58-0.9-1.16-1.34-1.73l0.58-0.45c0.44,0.58,0.89,1.15,1.34,1.73L51.09,110.93z M161.08,108.46
		c-0.37-0.62-0.74-1.25-1.12-1.87l0.63-0.38c0.38,0.63,0.76,1.26,1.13,1.88L161.08,108.46z M48.42,107.44
		c-0.44-0.59-0.88-1.18-1.31-1.76l0.59-0.43c0.43,0.59,0.86,1.17,1.3,1.76L48.42,107.44z M158.8,104.72
		c-0.38-0.61-0.78-1.23-1.17-1.84l0.62-0.4c0.4,0.62,0.79,1.24,1.18,1.85L158.8,104.72z M45.83,103.91
		c-0.43-0.6-0.85-1.19-1.27-1.79l0.6-0.42c0.42,0.59,0.84,1.19,1.26,1.79L45.83,103.91z M156.44,101.05
		c-0.4-0.6-0.81-1.21-1.22-1.81l0.61-0.41c0.41,0.61,0.82,1.22,1.22,1.82L156.44,101.05z M43.31,100.31
		c-0.41-0.61-0.82-1.22-1.22-1.82l0.61-0.4c0.4,0.6,0.81,1.21,1.22,1.81L43.31,100.31z M153.98,97.44
		c-0.42-0.59-0.84-1.19-1.26-1.79l0.6-0.43c0.43,0.6,0.85,1.19,1.27,1.79L153.98,97.44z M40.89,96.65c-0.4-0.62-0.79-1.24-1.18-1.85
		l0.62-0.39c0.38,0.61,0.78,1.23,1.17,1.84L40.89,96.65z M151.43,93.88c-0.43-0.58-0.86-1.17-1.3-1.76l0.59-0.44
		c0.44,0.59,0.88,1.17,1.31,1.76L151.43,93.88z M38.56,92.93c-0.38-0.63-0.76-1.26-1.13-1.88l0.63-0.37
		c0.37,0.62,0.74,1.25,1.12,1.87L38.56,92.93z M148.81,90.38c-0.44-0.58-0.89-1.15-1.34-1.73l0.58-0.45
		c0.45,0.58,0.9,1.16,1.34,1.73L148.81,90.38z M36.33,89.15c-0.36-0.64-0.72-1.28-1.08-1.91l0.64-0.35
		c0.35,0.63,0.71,1.27,1.07,1.91L36.33,89.15z M146.11,86.94c-0.46-0.57-0.91-1.13-1.38-1.7l0.57-0.46c0.47,0.57,0.93,1.14,1.38,1.7
		L146.11,86.94z M34.2,85.3c-0.35-0.65-0.69-1.3-1.02-1.95l0.65-0.33c0.33,0.64,0.67,1.29,1.01,1.94L34.2,85.3z M143.34,83.56
		c-0.47-0.56-0.94-1.11-1.41-1.67l0.56-0.48c0.48,0.56,0.95,1.12,1.42,1.68L143.34,83.56z M32.2,81.4
		c-0.33-0.66-0.64-1.32-0.95-1.98l0.66-0.31c0.31,0.65,0.62,1.31,0.95,1.97L32.2,81.4z M140.5,80.24c-0.48-0.55-0.96-1.09-1.45-1.64
		l0.55-0.49c0.49,0.55,0.97,1.1,1.45,1.65L140.5,80.24z M30.33,77.42c-0.3-0.67-0.6-1.34-0.88-2.01l0.67-0.29
		c0.28,0.66,0.58,1.33,0.88,2L30.33,77.42z M137.59,76.97c-0.49-0.54-0.98-1.08-1.48-1.61l0.54-0.5c0.5,0.54,0.99,1.08,1.48,1.62
		L137.59,76.97z M134.62,73.76c-0.5-0.53-1-1.06-1.51-1.58l0.53-0.51c0.51,0.53,1.01,1.06,1.51,1.59L134.62,73.76z M28.6,73.38
		c-0.28-0.69-0.54-1.37-0.8-2.05l0.68-0.26c0.26,0.67,0.52,1.35,0.8,2.03L28.6,73.38z M131.59,70.61c-0.5-0.51-1.01-1.02-1.51-1.53
		l0.49-0.54l-0.26,0.26l0.28-0.24c0.52,0.52,1.03,1.03,1.53,1.54L131.59,70.61z M27.04,69.27c-0.25-0.7-0.49-1.39-0.71-2.08
		l0.7-0.23c0.23,0.68,0.46,1.37,0.71,2.06L27.04,69.27z M128.5,67.52c-0.52-0.51-1.05-1.02-1.57-1.52l0.51-0.53
		c0.53,0.51,1.05,1.02,1.57,1.53L128.5,67.52z M25.66,65.1c-0.21-0.71-0.42-1.41-0.61-2.11l0.71-0.19c0.19,0.69,0.39,1.39,0.6,2.1
		L25.66,65.1z M125.34,64.49c-0.53-0.5-1.06-1-1.6-1.49l0.5-0.54c0.53,0.49,1.07,0.99,1.6,1.5L125.34,64.49z M122.14,61.52
		c-0.54-0.49-1.08-0.98-1.63-1.46l0.49-0.55c0.54,0.48,1.09,0.97,1.63,1.47L122.14,61.52z M24.51,60.85
		c-0.17-0.72-0.34-1.44-0.48-2.15l0.72-0.15c0.15,0.7,0.3,1.41,0.48,2.12L24.51,60.85z M118.87,58.61c-0.55-0.48-1.1-0.96-1.66-1.43
		l0.47-0.56c0.55,0.47,1.11,0.95,1.66,1.43L118.87,58.61z M23.61,56.54c-0.13-0.73-0.24-1.46-0.33-2.18l0.72-0.1
		c0.1,0.71,0.21,1.43,0.33,2.15L23.61,56.54z M115.54,55.77c-0.56-0.47-1.12-0.93-1.69-1.39l0.46-0.57c0.56,0.46,1.13,0.93,1.69,1.4
		L115.54,55.77z M112.16,53c-0.57-0.46-1.14-0.91-1.71-1.36l0.45-0.58c0.57,0.45,1.15,0.9,1.72,1.36L112.16,53z M23.03,52.17
		c-0.07-0.74-0.12-1.48-0.15-2.2l0.73-0.03c0.03,0.71,0.08,1.43,0.15,2.17L23.03,52.17z M108.72,50.31
		c-0.58-0.45-1.16-0.89-1.74-1.32l0.44-0.59c0.58,0.44,1.17,0.88,1.75,1.33L108.72,50.31z M23.56,47.77l-0.73,0
		c0-0.75,0.03-1.49,0.07-2.21l0.73,0.04C23.59,46.31,23.56,47.04,23.56,47.77z M105.22,47.68c-0.59-0.43-1.18-0.86-1.77-1.28
		l0.43-0.6c0.59,0.42,1.18,0.85,1.78,1.29L105.22,47.68z M101.67,45.14c-0.6-0.42-1.2-0.83-1.8-1.24l0.41-0.61
		c0.6,0.41,1.2,0.82,1.81,1.25L101.67,45.14z M23.83,43.44l-0.73-0.09c0.09-0.75,0.21-1.48,0.35-2.19l0.72,0.14
		C24.04,42,23.92,42.72,23.83,43.44z M98.05,42.68c-0.61-0.4-1.22-0.8-1.83-1.2l0.4-0.62c0.61,0.39,1.22,0.79,1.84,1.2L98.05,42.68z
		 M94.38,40.32c-0.62-0.39-1.24-0.77-1.86-1.15l0.38-0.63c0.62,0.38,1.24,0.76,1.87,1.15L94.38,40.32z M24.67,39.21l-0.7-0.2
		c0.2-0.72,0.44-1.43,0.69-2.11l0.68,0.26C25.1,37.82,24.87,38.5,24.67,39.21z M90.64,38.04c-0.63-0.37-1.26-0.74-1.89-1.1
		l0.36-0.64c0.63,0.36,1.26,0.73,1.9,1.1L90.64,38.04z M86.85,35.88c-0.64-0.35-1.28-0.7-1.92-1.04l0.34-0.65
		c0.64,0.34,1.28,0.69,1.93,1.05L86.85,35.88z M26.21,35.18l-0.66-0.32c0.33-0.67,0.7-1.32,1.09-1.94l0.62,0.39
		C26.88,33.91,26.53,34.54,26.21,35.18z M82.99,33.82c-0.65-0.33-1.3-0.66-1.95-0.98l0.32-0.66c0.65,0.32,1.31,0.65,1.96,0.99
		L82.99,33.82z M79.07,31.9c-0.66-0.31-1.33-0.62-1.98-0.91l0.3-0.67c0.66,0.3,1.33,0.6,2,0.92L79.07,31.9z M28.5,31.56l-0.57-0.46
		c0.46-0.58,0.96-1.14,1.48-1.66l0.52,0.52C29.42,30.46,28.94,31,28.5,31.56z M75.09,30.11c-0.67-0.29-1.35-0.57-2.01-0.84
		l0.27-0.68c0.67,0.27,1.35,0.55,2.03,0.84L75.09,30.11z M31.53,28.52l-0.46-0.57c0.58-0.46,1.19-0.9,1.81-1.29l0.39,0.62
		C32.67,27.66,32.09,28.08,31.53,28.52z M71.04,28.47c-0.69-0.26-1.37-0.51-2.05-0.75l0.24-0.69c0.68,0.24,1.37,0.5,2.06,0.76
		L71.04,28.47z M66.93,27.01c-0.7-0.23-1.39-0.45-2.08-0.66l0.21-0.7c0.69,0.21,1.39,0.43,2.1,0.66L66.93,27.01z M35.15,26.22
		l-0.33-0.66c0.65-0.32,1.33-0.62,2.04-0.89l0.26,0.68C36.44,25.62,35.78,25.91,35.15,26.22z M62.76,25.76
		c-0.71-0.19-1.41-0.37-2.11-0.54l0.17-0.71c0.7,0.17,1.41,0.35,2.13,0.55L62.76,25.76z M58.52,24.74
		c-0.72-0.15-1.43-0.29-2.14-0.41l0.13-0.72c0.71,0.12,1.43,0.26,2.16,0.41L58.52,24.74z M39.17,24.68l-0.2-0.7
		c0.69-0.2,1.42-0.37,2.16-0.52l0.14,0.72C40.56,24.32,39.85,24.49,39.17,24.68z M54.23,24c-0.73-0.1-1.45-0.18-2.16-0.24l0.07-0.73
		c0.72,0.07,1.45,0.15,2.19,0.25L54.23,24z M43.41,23.84l-0.09-0.73c0.72-0.09,1.46-0.16,2.2-0.21l0.04,0.73
		C44.84,23.68,44.11,23.75,43.41,23.84z M49.9,23.61c-0.66-0.03-1.32-0.05-1.96-0.05l-0.21,0l-0.01-0.73l0.22,0
		c0.66,0,1.32,0.02,1.99,0.05L49.9,23.61z"/>
	<path class="st0" d="M99.79,143.44h-0.21c-0.73,0-1.46,0-2.19-0.01l0.01-0.73c0.73,0.01,1.46,0.01,2.19,0.01h0.21V143.44z
		 M101.98,143.43l-0.01-0.73c0.73-0.01,1.46-0.02,2.19-0.03l0.02,0.73C103.45,143.41,102.72,143.42,101.98,143.43z M95.19,143.4
		c-0.73-0.01-1.46-0.03-2.19-0.05l0.02-0.73c0.73,0.02,1.46,0.04,2.19,0.05L95.19,143.4z M106.37,143.34l-0.02-0.73
		c0.73-0.02,1.46-0.05,2.18-0.08l0.03,0.73C107.83,143.29,107.1,143.32,106.37,143.34z M90.81,143.27c-0.73-0.03-1.46-0.06-2.19-0.1
		l0.04-0.73c0.73,0.04,1.46,0.07,2.18,0.1L90.81,143.27z M110.75,143.16l-0.04-0.73c0.73-0.04,1.46-0.08,2.18-0.12l0.04,0.73
		C112.22,143.09,111.49,143.13,110.75,143.16z M86.42,143.06c-0.73-0.04-1.46-0.09-2.19-0.14l0.05-0.73
		c0.72,0.05,1.45,0.1,2.18,0.14L86.42,143.06z M115.13,142.9l-0.05-0.73c0.73-0.05,1.46-0.11,2.18-0.16l0.06,0.73
		C116.59,142.8,115.86,142.85,115.13,142.9z M82.05,142.76c-0.73-0.06-1.46-0.12-2.19-0.18l0.06-0.73c0.72,0.06,1.45,0.13,2.18,0.18
		L82.05,142.76z M119.51,142.56l-0.06-0.73c0.73-0.07,1.45-0.13,2.17-0.21l0.07,0.73C120.96,142.42,120.24,142.49,119.51,142.56z
		 M77.68,142.37c-0.73-0.07-1.46-0.15-2.18-0.23l0.08-0.73c0.72,0.08,1.45,0.16,2.17,0.23L77.68,142.37z M123.87,142.12l-0.08-0.73
		c0.73-0.08,1.45-0.17,2.17-0.25l0.09,0.73C125.33,141.95,124.6,142.04,123.87,142.12z M73.32,141.89
		c-0.73-0.09-1.46-0.18-2.18-0.27l0.1-0.73c0.72,0.09,1.44,0.19,2.17,0.27L73.32,141.89z M128.23,141.59l-0.1-0.73
		c0.72-0.1,1.45-0.2,2.17-0.3l0.1,0.72C129.68,141.39,128.96,141.49,128.23,141.59z M68.96,141.32c-0.73-0.1-1.45-0.21-2.17-0.32
		l0.11-0.72c0.72,0.11,1.44,0.22,2.16,0.32L68.96,141.32z M132.57,140.96l-0.11-0.72c0.72-0.11,1.44-0.23,2.16-0.35l0.12,0.72
		C134.02,140.73,133.3,140.85,132.57,140.96z M64.63,140.65c-0.73-0.12-1.45-0.24-2.16-0.37l0.13-0.72
		c0.71,0.13,1.43,0.25,2.15,0.37L64.63,140.65z M136.9,140.24l-0.13-0.72c0.72-0.13,1.44-0.26,2.15-0.4l0.14,0.72
		C138.34,139.98,137.62,140.11,136.9,140.24z M60.31,139.88c-0.72-0.14-1.44-0.28-2.15-0.42l0.15-0.72
		c0.71,0.15,1.42,0.29,2.14,0.42L60.31,139.88z M141.21,139.41l-0.15-0.72c0.72-0.15,1.43-0.3,2.14-0.45l0.16,0.72
		C142.65,139.12,141.93,139.27,141.21,139.41z M56,139c-0.72-0.16-1.43-0.31-2.14-0.48l0.16-0.71c0.71,0.16,1.42,0.32,2.13,0.48
		L56,139z M145.5,138.48l-0.16-0.71c0.71-0.16,1.42-0.33,2.13-0.5l0.17,0.71C146.93,138.15,146.22,138.32,145.5,138.48z
		 M51.73,138.02c-0.71-0.17-1.42-0.35-2.13-0.53l0.18-0.71c0.7,0.18,1.41,0.36,2.12,0.53L51.73,138.02z M149.76,137.44l-0.18-0.71
		c0.71-0.18,1.41-0.37,2.11-0.56l0.19,0.71C151.19,137.06,150.48,137.25,149.76,137.44z M47.47,136.93
		c-0.71-0.19-1.42-0.39-2.11-0.59l0.2-0.7c0.7,0.2,1.4,0.4,2.1,0.59L47.47,136.93z M154,136.28l-0.2-0.7
		c0.71-0.2,1.4-0.41,2.09-0.62l0.21,0.7C155.41,135.86,154.71,136.07,154,136.28z M43.26,135.71c-0.71-0.21-1.4-0.43-2.1-0.66
		l0.22-0.7c0.69,0.22,1.38,0.44,2.08,0.65L43.26,135.71z M158.2,134.99l-0.22-0.7c0.7-0.23,1.39-0.46,2.07-0.69l0.24,0.69
		C159.59,134.53,158.9,134.76,158.2,134.99z M39.08,134.36c-0.7-0.24-1.39-0.48-2.07-0.72l0.25-0.69c0.68,0.24,1.37,0.48,2.06,0.72
		L39.08,134.36z M162.35,133.57l-0.25-0.69c0.69-0.25,1.37-0.5,2.05-0.76l0.26,0.68C163.74,133.06,163.05,133.32,162.35,133.57z
		 M34.94,132.88c-0.69-0.26-1.37-0.53-2.05-0.8l0.27-0.68c0.67,0.27,1.35,0.53,2.04,0.79L34.94,132.88z M166.46,132l-0.27-0.68
		c0.68-0.27,1.35-0.55,2.02-0.84l0.29,0.67C167.82,131.45,167.14,131.73,166.46,132z M30.86,131.24c-0.68-0.29-1.35-0.58-2.01-0.88
		l0.3-0.67c0.66,0.29,1.33,0.59,2,0.87L30.86,131.24z M170.5,130.28l-0.3-0.67c0.67-0.3,1.33-0.61,1.98-0.92l0.32,0.66
		C171.84,129.67,171.18,129.97,170.5,130.28z M26.85,129.44c-0.67-0.32-1.33-0.64-1.97-0.97l0.33-0.65c0.64,0.32,1.3,0.64,1.96,0.96
		L26.85,129.44z M174.47,128.38l-0.33-0.65c0.66-0.33,1.3-0.67,1.93-1.01l0.35,0.64C175.78,127.7,175.13,128.04,174.47,128.38z
		 M22.93,127.46c-0.65-0.35-1.3-0.71-1.92-1.07l0.36-0.64c0.62,0.36,1.26,0.71,1.91,1.06L22.93,127.46z M178.34,126.29l-0.37-0.63
		c0.64-0.37,1.26-0.74,1.87-1.11l0.38,0.62C179.61,125.54,178.98,125.92,178.34,126.29z M19.11,125.28
		c-0.63-0.39-1.25-0.78-1.86-1.18l0.4-0.61c0.6,0.39,1.21,0.78,1.84,1.16L19.11,125.28z M182.09,123.98l-0.4-0.61
		c0.61-0.41,1.21-0.82,1.8-1.23l0.42,0.6C183.31,123.16,182.71,123.57,182.09,123.98z M15.43,122.86c-0.61-0.43-1.2-0.86-1.78-1.3
		l0.44-0.58c0.57,0.43,1.15,0.86,1.75,1.29L15.43,122.86z M185.67,121.43l-0.45-0.58c0.58-0.45,1.15-0.9,1.7-1.36l0.47,0.56
		C186.84,120.51,186.26,120.97,185.67,121.43z M11.93,120.18c-0.57-0.48-1.13-0.96-1.66-1.45l0.49-0.54
		c0.53,0.48,1.07,0.96,1.64,1.43L11.93,120.18z M189.05,118.59l-0.5-0.54c0.54-0.5,1.06-1,1.56-1.51l0.52,0.51
		C190.13,117.57,189.6,118.08,189.05,118.59z M8.67,117.21c-0.53-0.53-1.04-1.07-1.51-1.61l0.55-0.49c0.46,0.53,0.96,1.06,1.48,1.58
		L8.67,117.21z M192.14,115.44l-0.55-0.48c0.48-0.55,0.94-1.12,1.37-1.67l0.58,0.45C193.1,114.3,192.63,114.87,192.14,115.44z
		 M5.75,113.9c-0.46-0.59-0.9-1.2-1.3-1.79l0.61-0.41c0.39,0.58,0.81,1.17,1.27,1.75L5.75,113.9z M194.83,111.92l-0.61-0.4
		c0.4-0.61,0.78-1.23,1.11-1.84l0.64,0.35C195.62,110.66,195.24,111.3,194.83,111.92z M3.29,110.22c-0.37-0.65-0.7-1.32-1-1.98
		l0.67-0.3c0.29,0.64,0.61,1.28,0.97,1.92L3.29,110.22z M196.95,108.04l-0.67-0.3c0.29-0.66,0.55-1.33,0.77-2l0.7,0.23
		C197.52,106.67,197.25,107.36,196.95,108.04z M1.48,106.18c-0.24-0.7-0.44-1.42-0.61-2.14l0.71-0.16c0.16,0.69,0.35,1.38,0.58,2.06
		L1.48,106.18z M198.33,103.83l-0.71-0.16c0.15-0.7,0.26-1.41,0.34-2.11l0.73,0.08C198.61,102.37,198.49,103.1,198.33,103.83z
		 M0.5,101.86c-0.08-0.73-0.13-1.48-0.13-2.22l0.73,0c0,0.72,0.04,1.44,0.13,2.14L0.5,101.86z M198.06,99.42
		c-0.01-0.71-0.05-1.43-0.14-2.14l0.73-0.09c0.09,0.74,0.14,1.48,0.14,2.22L198.06,99.42z M1.21,97.49l-0.73-0.08
		c0.08-0.73,0.2-1.46,0.36-2.19l0.71,0.16C1.4,96.08,1.29,96.79,1.21,97.49z M197.55,95.17c-0.16-0.69-0.36-1.38-0.59-2.06
		l0.69-0.24c0.24,0.7,0.45,1.42,0.62,2.13L197.55,95.17z M2.13,93.32l-0.7-0.23c0.23-0.69,0.5-1.38,0.8-2.07l0.67,0.3
		C2.62,91.98,2.36,92.65,2.13,93.32z M196.15,91.12c-0.29-0.63-0.62-1.28-0.98-1.92l0.64-0.36c0.37,0.66,0.71,1.32,1.01,1.97
		L196.15,91.12z M3.88,89.39l-0.64-0.36c0.35-0.63,0.74-1.26,1.15-1.89L5,87.55C4.59,88.16,4.21,88.78,3.88,89.39z M194.04,87.37
		c-0.39-0.58-0.82-1.17-1.27-1.75l0.58-0.45c0.46,0.59,0.9,1.19,1.3,1.79L194.04,87.37z M6.26,85.79l-0.58-0.45
		c0.44-0.57,0.91-1.14,1.41-1.7l0.55,0.48C7.15,84.68,6.69,85.24,6.26,85.79z M191.38,83.96c-0.47-0.53-0.97-1.06-1.49-1.58
		l0.52-0.52c0.53,0.53,1.03,1.07,1.51,1.61L191.38,83.96z M9.11,82.54l-0.52-0.51c0.51-0.52,1.04-1.03,1.59-1.53l0.49,0.54
		C10.13,81.53,9.61,82.03,9.11,82.54z M188.32,80.89c-0.53-0.48-1.08-0.95-1.64-1.42l0.47-0.56c0.58,0.48,1.13,0.96,1.67,1.44
		L188.32,80.89z M12.31,79.61l-0.47-0.56c0.56-0.46,1.13-0.92,1.72-1.38l0.45,0.58C13.43,78.69,12.86,79.15,12.31,79.61z
		 M184.97,78.12c-0.57-0.43-1.15-0.86-1.76-1.28l0.42-0.6c0.61,0.43,1.2,0.86,1.78,1.3L184.97,78.12z M15.76,76.96l-0.42-0.6
		c0.59-0.42,1.2-0.83,1.82-1.24l0.4,0.61C16.95,76.13,16.35,76.54,15.76,76.96z M181.42,75.61c-0.6-0.39-1.21-0.78-1.84-1.16
		l0.38-0.63c0.63,0.39,1.26,0.78,1.86,1.17L181.42,75.61z M19.4,74.56l-0.38-0.62c0.62-0.38,1.25-0.75,1.89-1.12l0.36,0.64
		C20.64,73.82,20.01,74.19,19.4,74.56z M177.7,73.34c-0.62-0.36-1.26-0.71-1.91-1.05l0.35-0.65c0.65,0.35,1.3,0.7,1.93,1.06
		L177.7,73.34z M23.18,72.39l-0.35-0.64c0.64-0.34,1.29-0.68,1.95-1.02l0.33,0.65C24.46,71.71,23.81,72.05,23.18,72.39z
		 M173.85,71.29c-0.64-0.32-1.3-0.64-1.96-0.96l0.31-0.66c0.67,0.32,1.33,0.64,1.98,0.97L173.85,71.29z M27.07,70.42l-0.31-0.66
		c0.65-0.31,1.32-0.62,1.99-0.92l0.3,0.67C28.38,69.81,27.72,70.11,27.07,70.42z M169.91,69.42c-0.66-0.29-1.33-0.58-2-0.87
		l0.29-0.67c0.68,0.29,1.35,0.58,2.01,0.88L169.91,69.42z M31.05,68.63l-0.29-0.67c0.67-0.28,1.35-0.56,2.03-0.84l0.27,0.68
		C32.39,68.07,31.71,68.35,31.05,68.63z M165.89,67.72c-0.67-0.27-1.35-0.53-2.04-0.79l0.26-0.68c0.69,0.26,1.37,0.53,2.05,0.8
		L165.89,67.72z M35.1,67l-0.26-0.68c0.68-0.26,1.37-0.51,2.06-0.76l0.25,0.69C36.46,66.49,35.78,66.74,35.1,67z M161.81,66.17
		c-0.68-0.24-1.37-0.48-2.06-0.72l0.23-0.69c0.7,0.24,1.39,0.48,2.08,0.72L161.81,66.17z M39.21,65.52l-0.24-0.69
		c0.69-0.23,1.38-0.46,2.08-0.69l0.22,0.7C40.58,65.06,39.89,65.29,39.21,65.52z M157.67,64.77c-0.69-0.22-1.38-0.44-2.08-0.65
		l0.21-0.7c0.71,0.21,1.4,0.43,2.1,0.65L157.67,64.77z M43.37,64.18l-0.21-0.7c0.7-0.21,1.4-0.42,2.11-0.63l0.2,0.7
		C44.76,63.76,44.06,63.97,43.37,64.18z M153.49,63.5c-0.7-0.2-1.4-0.4-2.1-0.59l0.19-0.71c0.71,0.19,1.42,0.39,2.12,0.59
		L153.49,63.5z M47.57,62.96l-0.19-0.71c0.7-0.19,1.41-0.38,2.12-0.56l0.18,0.71C48.97,62.59,48.26,62.77,47.57,62.96z
		 M149.28,62.35c-0.7-0.18-1.41-0.36-2.12-0.53l0.17-0.71c0.72,0.17,1.43,0.35,2.13,0.53L149.28,62.35z M51.8,61.87l-0.17-0.71
		c0.71-0.17,1.42-0.34,2.14-0.51l0.16,0.71C53.21,61.53,52.5,61.7,51.8,61.87z M145.03,61.32c-0.71-0.16-1.42-0.32-2.13-0.47
		l0.15-0.72c0.72,0.15,1.43,0.31,2.14,0.48L145.03,61.32z M56.05,60.89l-0.15-0.72c0.71-0.15,1.43-0.3,2.15-0.45l0.15,0.72
		C57.48,60.59,56.76,60.74,56.05,60.89z M140.75,60.4c-0.71-0.14-1.43-0.28-2.15-0.42l0.14-0.72c0.72,0.14,1.44,0.28,2.15,0.42
		L140.75,60.4z M60.34,60.02L60.2,59.3c0.71-0.14,1.43-0.27,2.16-0.4l0.13,0.72C61.77,59.75,61.05,59.88,60.34,60.02z M136.46,59.58
		c-0.71-0.13-1.43-0.25-2.16-0.37l0.12-0.72c0.73,0.12,1.45,0.24,2.16,0.37L136.46,59.58z M64.64,59.25l-0.12-0.72
		c0.72-0.12,1.44-0.24,2.17-0.35l0.11,0.72C66.08,59.01,65.36,59.13,64.64,59.25z M132.15,58.87c-0.72-0.11-1.44-0.22-2.16-0.32
		l0.1-0.72c0.73,0.1,1.45,0.21,2.17,0.32L132.15,58.87z M68.96,58.58l-0.1-0.72c0.72-0.1,1.45-0.2,2.17-0.3l0.1,0.73
		C70.4,58.38,69.68,58.48,68.96,58.58z M127.82,58.25c-0.72-0.09-1.44-0.19-2.17-0.27l0.09-0.73c0.73,0.09,1.46,0.18,2.18,0.27
		L127.82,58.25z M73.3,58l-0.09-0.73c0.72-0.09,1.45-0.17,2.18-0.25l0.08,0.73C74.74,57.83,74.02,57.92,73.3,58z M123.48,57.73
		c-0.72-0.08-1.45-0.15-2.17-0.23l0.07-0.73c0.73,0.07,1.46,0.15,2.18,0.23L123.48,57.73z M77.64,57.53l-0.07-0.73
		c0.72-0.07,1.45-0.14,2.18-0.21l0.06,0.73C79.09,57.38,78.37,57.45,77.64,57.53z M119.13,57.3c-0.72-0.06-1.45-0.13-2.18-0.18
		l0.06-0.73c0.73,0.06,1.46,0.12,2.19,0.18L119.13,57.3z M82,57.14l-0.06-0.73c0.73-0.06,1.46-0.11,2.19-0.16l0.05,0.73
		C83.45,57.02,82.72,57.08,82,57.14z M114.77,56.96c-0.72-0.05-1.45-0.1-2.18-0.14l0.04-0.73c0.73,0.04,1.46,0.09,2.19,0.14
		L114.77,56.96z M86.36,56.83l-0.04-0.73c0.73-0.04,1.46-0.08,2.19-0.12l0.04,0.73C87.81,56.75,87.09,56.79,86.36,56.83z
		 M110.4,56.71c-0.73-0.04-1.46-0.07-2.18-0.09l0.03-0.73c0.73,0.03,1.46,0.06,2.19,0.09L110.4,56.71z M90.73,56.62l-0.03-0.73
		c0.73-0.03,1.46-0.05,2.19-0.08l0.02,0.73C92.18,56.57,91.45,56.59,90.73,56.62z M106.03,56.54c-0.73-0.02-1.45-0.04-2.19-0.05
		l0.01-0.73c0.73,0.01,1.46,0.03,2.19,0.05L106.03,56.54z M95.1,56.49l-0.01-0.73c0.73-0.01,1.46-0.02,2.19-0.03l0.01,0.73
		C96.55,56.47,95.83,56.48,95.1,56.49z M101.66,56.46c-0.69-0.01-1.38-0.01-2.08-0.01h-0.11v-0.73h0.11c0.7,0,1.39,0,2.09,0.01
		L101.66,56.46z"/>
	<path class="st0" d="M99.74,198.79l-0.01-0.73c0.71-0.01,1.43-0.05,2.14-0.14l0.09,0.73C101.22,198.74,100.48,198.78,99.74,198.79z
		 M97.52,198.68c-0.73-0.08-1.47-0.19-2.19-0.35l0.15-0.72c0.7,0.15,1.41,0.27,2.12,0.34L97.52,198.68z M104.15,198.26l-0.17-0.71
		c0.68-0.16,1.38-0.36,2.06-0.59l0.24,0.69C105.57,197.89,104.85,198.1,104.15,198.26z M93.18,197.75c-0.69-0.23-1.39-0.5-2.07-0.8
		l0.29-0.67c0.66,0.29,1.33,0.55,2,0.77L93.18,197.75z M108.34,196.82l-0.3-0.67c0.64-0.29,1.28-0.62,1.92-0.98l0.36,0.64
		C109.66,196.18,108.99,196.52,108.34,196.82z M89.12,195.97c-0.63-0.35-1.27-0.73-1.9-1.15l0.4-0.61c0.61,0.4,1.23,0.78,1.85,1.12
		L89.12,195.97z M112.19,194.65l-0.41-0.61c0.59-0.4,1.17-0.82,1.75-1.27l0.45,0.58C113.4,193.8,112.79,194.24,112.19,194.65z
		 M85.43,193.54c-0.57-0.43-1.14-0.91-1.71-1.4l0.48-0.55c0.55,0.49,1.12,0.95,1.67,1.37L85.43,193.54z M115.67,191.93l-0.49-0.55
		c0.52-0.46,1.05-0.96,1.58-1.49l0.52,0.52C116.75,190.95,116.21,191.46,115.67,191.93z M82.1,190.63
		c-0.52-0.51-1.03-1.04-1.54-1.59l0.54-0.5c0.5,0.54,1,1.06,1.51,1.56L82.1,190.63z M118.81,188.82l-0.54-0.49
		c0.48-0.53,0.95-1.08,1.42-1.64l0.56,0.47C119.77,187.72,119.29,188.28,118.81,188.82z M79.11,187.39
		c-0.47-0.55-0.93-1.13-1.38-1.72l0.58-0.45c0.45,0.58,0.9,1.15,1.36,1.7L79.11,187.39z M121.62,185.42l-0.58-0.44
		c0.43-0.57,0.86-1.15,1.28-1.76l0.6,0.42C122.49,184.25,122.06,184.85,121.62,185.42z M76.42,183.9c-0.42-0.59-0.83-1.2-1.24-1.82
		l0.61-0.4c0.41,0.61,0.82,1.21,1.23,1.8L76.42,183.9z M124.15,181.82l-0.61-0.4c0.39-0.6,0.78-1.21,1.16-1.84l0.63,0.38
		C124.94,180.59,124.55,181.21,124.15,181.82z M73.99,180.23c-0.38-0.62-0.75-1.25-1.13-1.89l0.63-0.37
		c0.37,0.64,0.74,1.26,1.11,1.87L73.99,180.23z M126.45,178.06l-0.64-0.36c0.36-0.62,0.71-1.26,1.05-1.91l0.65,0.35
		C127.16,176.79,126.8,177.43,126.45,178.06z M71.79,176.41c-0.34-0.64-0.68-1.29-1.02-1.95l0.65-0.33c0.33,0.66,0.67,1.3,1.01,1.93
		L71.79,176.41z M128.52,174.18l-0.65-0.33c0.32-0.64,0.64-1.3,0.96-1.96l0.66,0.31C129.17,172.88,128.85,173.54,128.52,174.18z
		 M69.8,172.49c-0.31-0.65-0.62-1.32-0.93-1.99l0.67-0.3c0.3,0.67,0.61,1.33,0.92,1.98L69.8,172.49z M130.41,170.21l-0.67-0.3
		c0.29-0.66,0.59-1.33,0.87-2l0.67,0.29C131,168.88,130.7,169.55,130.41,170.21z M67.99,168.49c-0.28-0.67-0.56-1.34-0.84-2.03
		l0.68-0.27c0.27,0.68,0.55,1.35,0.83,2.02L67.99,168.49z M132.12,166.17l-0.68-0.27c0.27-0.67,0.53-1.35,0.79-2.04l0.69,0.26
		C132.65,164.81,132.39,165.49,132.12,166.17z M66.35,164.41c-0.26-0.68-0.51-1.36-0.76-2.06l0.69-0.25
		c0.25,0.69,0.5,1.37,0.76,2.05L66.35,164.41z M133.67,162.06l-0.69-0.25c0.24-0.68,0.48-1.37,0.72-2.06l0.69,0.24
		C134.16,160.68,133.92,161.37,133.67,162.06z M64.86,160.28c-0.23-0.69-0.47-1.38-0.69-2.08l0.7-0.23c0.23,0.7,0.46,1.39,0.69,2.07
		L64.86,160.28z M135.09,157.9l-0.7-0.22c0.22-0.69,0.44-1.38,0.65-2.08l0.7,0.21C135.53,156.51,135.31,157.21,135.09,157.9z
		 M63.51,156.1c-0.21-0.69-0.42-1.4-0.63-2.1l0.7-0.2c0.2,0.7,0.41,1.4,0.62,2.09L63.51,156.1z M136.36,153.7l-0.7-0.2
		c0.2-0.69,0.4-1.4,0.59-2.1l0.71,0.19C136.76,152.29,136.56,153,136.36,153.7z M62.28,151.88c-0.19-0.7-0.38-1.41-0.57-2.12
		l0.71-0.18c0.18,0.71,0.37,1.41,0.56,2.11L62.28,151.88z M137.51,149.46l-0.71-0.18c0.18-0.7,0.36-1.41,0.53-2.12l0.71,0.17
		C137.87,148.04,137.7,148.76,137.51,149.46z M61.18,147.63c-0.17-0.71-0.34-1.42-0.51-2.14l0.71-0.16
		c0.17,0.71,0.33,1.42,0.51,2.13L61.18,147.63z M138.55,145.19l-0.71-0.16c0.16-0.71,0.32-1.42,0.47-2.13l0.72,0.15
		C138.87,143.77,138.71,144.48,138.55,145.19z M60.2,143.36c-0.16-0.71-0.31-1.43-0.45-2.15l0.72-0.15c0.15,0.72,0.3,1.43,0.45,2.14
		L60.2,143.36z M139.48,140.9l-0.72-0.14c0.14-0.71,0.28-1.43,0.42-2.15l0.72,0.14C139.76,139.47,139.62,140.19,139.48,140.9z
		 M59.32,139.06c-0.14-0.71-0.27-1.43-0.4-2.16l0.72-0.13c0.13,0.72,0.26,1.44,0.4,2.15L59.32,139.06z M140.29,136.59l-0.72-0.13
		c0.13-0.71,0.25-1.43,0.37-2.15l0.72,0.12C140.54,135.15,140.42,135.87,140.29,136.59z M58.54,134.74
		c-0.12-0.72-0.24-1.44-0.35-2.17l0.72-0.11c0.11,0.72,0.23,1.44,0.35,2.16L58.54,134.74z M141.01,132.26l-0.72-0.11
		c0.11-0.72,0.22-1.44,0.32-2.16l0.72,0.1C141.23,130.82,141.12,131.54,141.01,132.26z M57.87,130.4c-0.1-0.72-0.2-1.45-0.3-2.17
		l0.73-0.1c0.1,0.73,0.2,1.45,0.3,2.17L57.87,130.4z M141.63,127.92l-0.73-0.1c0.09-0.72,0.19-1.44,0.27-2.17l0.73,0.09
		C141.81,126.47,141.72,127.19,141.63,127.92z M57.29,126.05c-0.09-0.72-0.17-1.45-0.25-2.18l0.73-0.08
		c0.08,0.73,0.16,1.45,0.25,2.17L57.29,126.05z M142.15,123.56l-0.73-0.08c0.08-0.72,0.15-1.45,0.23-2.17l0.73,0.07
		C142.31,122.11,142.23,122.83,142.15,123.56z M56.81,121.69c-0.07-0.72-0.14-1.45-0.21-2.18l0.73-0.07
		c0.07,0.73,0.13,1.45,0.21,2.18L56.81,121.69z M142.59,119.19l-0.73-0.06c0.06-0.72,0.12-1.45,0.18-2.18l0.73,0.06
		C142.71,117.74,142.65,118.47,142.59,119.19z M56.41,117.32c-0.06-0.73-0.11-1.46-0.16-2.19l0.73-0.05
		c0.05,0.73,0.1,1.46,0.16,2.18L56.41,117.32z M142.93,114.82l-0.73-0.05c0.05-0.73,0.1-1.45,0.14-2.18l0.73,0.04
		C143.02,113.36,142.98,114.09,142.93,114.82z M56.11,112.94c-0.04-0.73-0.08-1.46-0.12-2.19l0.73-0.04
		c0.04,0.73,0.08,1.46,0.12,2.18L56.11,112.94z M143.18,110.44l-0.73-0.04c0.03-0.73,0.07-1.45,0.09-2.18l0.73,0.03
		C143.25,108.98,143.21,109.71,143.18,110.44z M55.89,108.56c-0.03-0.73-0.05-1.46-0.08-2.19l0.73-0.02
		c0.02,0.73,0.05,1.46,0.08,2.19L55.89,108.56z M143.35,106.05l-0.73-0.02c0.02-0.73,0.04-1.46,0.05-2.19l0.73,0.01
		C143.39,104.59,143.37,105.33,143.35,106.05z M55.76,104.17c-0.01-0.73-0.03-1.46-0.03-2.19l0.73-0.01
		c0.01,0.73,0.02,1.46,0.03,2.19L55.76,104.17z M143.43,101.67l-0.73-0.01c0.01-0.69,0.01-1.39,0.01-2.08v-0.1h0.73v0.1
		C143.44,100.28,143.44,100.97,143.43,101.67z M56.45,99.79h-0.73v-0.21c0-0.73,0-1.46,0.01-2.19l0.73,0.01
		c-0.01,0.73-0.01,1.46-0.01,2.19V99.79z M142.7,97.29c-0.01-0.73-0.02-1.46-0.03-2.19l0.73-0.01c0.01,0.73,0.03,1.46,0.03,2.19
		L142.7,97.29z M56.49,95.2l-0.73-0.01c0.01-0.73,0.03-1.46,0.05-2.19l0.73,0.02C56.52,93.74,56.5,94.47,56.49,95.2z M142.61,92.92
		c-0.02-0.73-0.05-1.46-0.07-2.19l0.73-0.03c0.03,0.73,0.05,1.46,0.07,2.19L142.61,92.92z M56.62,90.83l-0.73-0.03
		c0.03-0.73,0.06-1.46,0.1-2.19l0.73,0.04C56.68,89.37,56.65,90.1,56.62,90.83z M142.44,88.55c-0.04-0.73-0.07-1.46-0.12-2.18
		l0.73-0.04c0.04,0.73,0.08,1.46,0.12,2.19L142.44,88.55z M56.83,86.46l-0.73-0.04c0.04-0.73,0.09-1.46,0.14-2.19l0.73,0.05
		C56.92,85.01,56.87,85.73,56.83,86.46z M142.18,84.18c-0.05-0.73-0.1-1.46-0.16-2.18l0.73-0.06c0.06,0.73,0.11,1.46,0.16,2.19
		L142.18,84.18z M57.13,82.1l-0.73-0.06c0.06-0.73,0.12-1.46,0.18-2.19l0.73,0.06C57.25,80.65,57.19,81.37,57.13,82.1z
		 M141.84,79.82c-0.07-0.73-0.13-1.45-0.21-2.18l0.73-0.07c0.07,0.73,0.14,1.45,0.21,2.18L141.84,79.82z M57.51,77.75l-0.73-0.07
		c0.07-0.73,0.15-1.46,0.23-2.18l0.73,0.08C57.66,76.29,57.59,77.02,57.51,77.75z M141.4,75.47c-0.08-0.73-0.16-1.45-0.25-2.17
		l0.73-0.09c0.09,0.72,0.17,1.45,0.25,2.18L141.4,75.47z M57.99,73.4l-0.73-0.09c0.09-0.73,0.18-1.45,0.27-2.18l0.73,0.1
		C58.17,71.95,58.08,72.67,57.99,73.4z M140.88,71.13c-0.09-0.73-0.19-1.45-0.3-2.17l0.72-0.1c0.1,0.72,0.2,1.45,0.3,2.17
		L140.88,71.13z M58.56,69.07l-0.72-0.1c0.1-0.73,0.21-1.45,0.32-2.17l0.72,0.11C58.77,67.62,58.67,68.34,58.56,69.07z M140.25,66.8
		c-0.11-0.72-0.23-1.44-0.35-2.16l0.72-0.12c0.12,0.72,0.24,1.44,0.35,2.17L140.25,66.8z M59.23,64.74l-0.72-0.12
		c0.12-0.73,0.25-1.45,0.37-2.16l0.72,0.13C59.47,63.3,59.35,64.02,59.23,64.74z M139.54,62.49c-0.13-0.72-0.26-1.44-0.4-2.15
		l0.72-0.14c0.14,0.71,0.27,1.43,0.4,2.16L139.54,62.49z M60,60.44l-0.72-0.14c0.14-0.72,0.28-1.44,0.42-2.15l0.72,0.15
		C60.27,59.01,60.13,59.72,60,60.44z M138.72,58.2c-0.15-0.72-0.3-1.43-0.45-2.14l0.71-0.15c0.15,0.71,0.3,1.43,0.45,2.15
		L138.72,58.2z M60.87,56.16L60.15,56c0.16-0.72,0.31-1.43,0.48-2.14l0.71,0.16C61.18,54.73,61.02,55.44,60.87,56.16z M137.79,53.93
		c-0.17-0.71-0.33-1.42-0.5-2.13l0.71-0.17c0.17,0.71,0.34,1.42,0.51,2.13L137.79,53.93z M61.84,51.9l-0.71-0.17
		c0.17-0.72,0.35-1.43,0.53-2.13l0.71,0.18C62.19,50.48,62.02,51.18,61.84,51.9z M136.75,49.68c-0.18-0.71-0.37-1.41-0.56-2.11
		l0.71-0.19c0.19,0.7,0.38,1.41,0.56,2.12L136.75,49.68z M62.93,47.67l-0.71-0.19c0.19-0.71,0.39-1.42,0.59-2.11l0.7,0.2
		C63.32,46.26,63.13,46.96,62.93,47.67z M135.6,45.46c-0.2-0.7-0.41-1.4-0.62-2.09l0.7-0.21c0.21,0.7,0.42,1.4,0.63,2.1L135.6,45.46
		z M64.15,43.47l-0.7-0.21c0.21-0.71,0.43-1.4,0.66-2.1l0.7,0.22C64.58,42.07,64.36,42.77,64.15,43.47z M134.32,41.29
		c-0.23-0.7-0.46-1.39-0.69-2.07l0.69-0.24c0.23,0.69,0.46,1.38,0.69,2.08L134.32,41.29z M65.49,39.31l-0.69-0.24
		c0.24-0.7,0.48-1.39,0.72-2.07l0.69,0.25C65.96,37.93,65.72,38.61,65.49,39.31z M132.92,37.15c-0.25-0.69-0.5-1.37-0.76-2.05
		l0.68-0.26c0.26,0.68,0.51,1.37,0.76,2.06L132.92,37.15z M66.96,35.2l-0.69-0.26c0.26-0.69,0.53-1.37,0.8-2.05l0.68,0.27
		C67.49,33.83,67.22,34.51,66.96,35.2z M131.36,33.07c-0.27-0.68-0.55-1.35-0.83-2.02l0.67-0.29c0.28,0.67,0.56,1.35,0.84,2.03
		L131.36,33.07z M68.59,31.15l-0.67-0.29c0.29-0.68,0.58-1.35,0.88-2.01l0.67,0.3C69.17,29.8,68.87,30.47,68.59,31.15z
		 M129.65,29.05c-0.3-0.67-0.61-1.33-0.92-1.98l0.66-0.32c0.31,0.65,0.62,1.32,0.92,2L129.65,29.05z M70.38,27.17l-0.66-0.31
		c0.32-0.67,0.64-1.33,0.97-1.97l0.65,0.33C71.01,25.85,70.69,26.5,70.38,27.17z M127.78,25.12c-0.33-0.65-0.67-1.3-1.01-1.93
		l0.64-0.35c0.34,0.64,0.68,1.29,1.02,1.95L127.78,25.12z M72.34,23.27l-0.64-0.35c0.35-0.65,0.71-1.3,1.07-1.92l0.63,0.36
		C73.04,21.99,72.69,22.62,72.34,23.27z M125.71,21.28c-0.37-0.64-0.74-1.26-1.11-1.87l0.63-0.38c0.38,0.62,0.75,1.25,1.12,1.89
		L125.71,21.28z M74.51,19.49l-0.63-0.38c0.39-0.63,0.78-1.25,1.18-1.86l0.61,0.4C75.28,18.25,74.89,18.86,74.51,19.49z
		 M123.43,17.56c-0.41-0.61-0.81-1.21-1.23-1.8l0.6-0.42c0.42,0.59,0.83,1.2,1.24,1.82L123.43,17.56z M76.89,15.85l-0.6-0.42
		c0.43-0.61,0.86-1.2,1.3-1.78l0.58,0.44C77.75,14.66,77.32,15.25,76.89,15.85z M120.91,14.01c-0.45-0.58-0.9-1.15-1.36-1.7
		l0.56-0.47c0.46,0.56,0.92,1.13,1.38,1.72L120.91,14.01z M79.54,12.39l-0.56-0.47c0.48-0.57,0.96-1.13,1.45-1.66l0.54,0.49
		C80.48,11.28,80.01,11.83,79.54,12.39z M118.12,10.68c-0.5-0.54-1-1.06-1.5-1.56l0.51-0.52c0.52,0.51,1.03,1.04,1.53,1.59
		L118.12,10.68z M82.46,9.19l-0.52-0.52c0.53-0.53,1.07-1.03,1.61-1.51l0.48,0.55C83.52,8.17,82.98,8.67,82.46,9.19z M115.03,7.64
		c-0.55-0.48-1.11-0.95-1.67-1.38l0.45-0.58c0.57,0.44,1.14,0.91,1.71,1.41L115.03,7.64z M85.71,6.33l-0.45-0.58
		c0.59-0.46,1.19-0.89,1.79-1.3l0.41,0.61C86.87,5.45,86.28,5.88,85.71,6.33z M111.61,5c-0.61-0.41-1.23-0.78-1.84-1.12l0.36-0.64
		c0.63,0.35,1.26,0.74,1.89,1.15L111.61,5z M89.29,3.93l-0.36-0.64c0.65-0.37,1.32-0.7,1.98-1l0.3,0.67
		C90.58,3.25,89.93,3.57,89.29,3.93z M107.84,2.91c-0.66-0.29-1.34-0.56-2-0.78l0.23-0.69c0.69,0.23,1.38,0.5,2.07,0.81L107.84,2.91
		z M93.21,2.17l-0.24-0.69c0.7-0.24,1.42-0.44,2.14-0.6l0.16,0.71C94.59,1.74,93.89,1.94,93.21,2.17z M103.78,1.56
		c-0.7-0.15-1.41-0.27-2.11-0.35l0.08-0.73c0.73,0.08,1.46,0.2,2.19,0.36L103.78,1.56z M97.39,1.22L97.3,0.5
		c0.73-0.08,1.48-0.13,2.22-0.13l0,0.73C98.81,1.1,98.09,1.14,97.39,1.22z"/>
	<path class="st0" d="M70.35,192.78l-0.02-0.73c0.7-0.02,1.42-0.08,2.15-0.16l0.09,0.73C71.82,192.7,71.07,192.75,70.35,192.78z
		 M68.13,192.74c-0.75-0.05-1.49-0.14-2.21-0.26l0.12-0.72c0.7,0.12,1.41,0.2,2.14,0.25L68.13,192.74z M74.75,192.26l-0.14-0.72
		c0.69-0.14,1.4-0.31,2.1-0.5l0.19,0.71C76.18,191.95,75.46,192.12,74.75,192.26z M63.74,191.98c-0.71-0.21-1.42-0.45-2.11-0.73
		l0.28-0.68c0.66,0.27,1.34,0.51,2.03,0.71L63.74,191.98z M79.01,191.09l-0.24-0.69c0.67-0.23,1.35-0.49,2.03-0.76l0.28,0.68
		C80.39,190.6,79.7,190.86,79.01,191.09z M59.63,190.29c-0.65-0.36-1.28-0.75-1.89-1.18l0.42-0.6c0.59,0.41,1.2,0.79,1.82,1.14
		L59.63,190.29z M83.1,189.43l-0.31-0.66c0.65-0.3,1.29-0.63,1.94-0.97l0.34,0.65C84.41,188.79,83.75,189.12,83.1,189.43z
		 M55.99,187.73c-0.55-0.48-1.09-1-1.6-1.54l0.53-0.5c0.5,0.53,1.02,1.03,1.55,1.49L55.99,187.73z M87,187.37l-0.37-0.63
		c0.62-0.36,1.24-0.74,1.86-1.13l0.39,0.62C88.26,186.63,87.63,187.01,87,187.37z M90.73,185.02l-0.41-0.61
		c0.59-0.4,1.19-0.82,1.78-1.25l0.43,0.59C91.92,184.19,91.33,184.62,90.73,185.02z M52.94,184.51c-0.45-0.57-0.89-1.17-1.3-1.79
		l0.61-0.41c0.41,0.61,0.83,1.2,1.27,1.75L52.94,184.51z M94.28,182.43l-0.45-0.58c0.57-0.44,1.14-0.89,1.71-1.36l0.46,0.57
		C95.43,181.53,94.86,181.99,94.28,182.43z M50.47,180.83c-0.36-0.62-0.7-1.28-1.03-1.96l0.66-0.32c0.32,0.66,0.66,1.3,1.01,1.92
		L50.47,180.83z M97.69,179.65l-0.48-0.55c0.54-0.47,1.09-0.95,1.64-1.44l0.49,0.54C98.79,178.69,98.24,179.18,97.69,179.65z
		 M48.52,176.87c-0.28-0.67-0.55-1.35-0.8-2.06l0.69-0.25c0.25,0.69,0.51,1.37,0.79,2.02L48.52,176.87z M100.96,176.71l-0.5-0.53
		c0.52-0.49,1.05-1,1.57-1.51l0.51,0.52C102.01,175.7,101.48,176.21,100.96,176.71z M104.09,173.62l-0.52-0.51
		c0.5-0.52,1.01-1.04,1.51-1.58l0.53,0.5C105.1,172.58,104.6,173.11,104.09,173.62z M47.01,172.72c-0.21-0.69-0.42-1.4-0.61-2.12
		l0.71-0.19c0.19,0.71,0.39,1.41,0.6,2.09L47.01,172.72z M107.1,170.43l-0.54-0.49c0.49-0.54,0.97-1.08,1.46-1.63l0.55,0.48
		C108.08,169.34,107.59,169.89,107.1,170.43z M45.88,168.46c-0.16-0.71-0.31-1.43-0.45-2.16l0.72-0.14
		c0.14,0.72,0.29,1.43,0.44,2.13L45.88,168.46z M110,167.13l-0.56-0.47c0.47-0.55,0.94-1.11,1.4-1.68l0.57,0.46
		C110.94,166.01,110.47,166.57,110,167.13z M45.05,164.14c-0.11-0.72-0.22-1.44-0.31-2.18l0.73-0.09c0.09,0.73,0.2,1.45,0.31,2.16
		L45.05,164.14z M112.79,163.73l-0.57-0.46c0.45-0.57,0.9-1.14,1.35-1.72l0.58,0.45C113.69,162.59,113.24,163.17,112.79,163.73z
		 M115.48,160.26l-0.58-0.44c0.44-0.58,0.87-1.16,1.3-1.75l0.59,0.43C116.35,159.09,115.92,159.68,115.48,160.26z M44.49,159.77
		c-0.07-0.72-0.14-1.45-0.19-2.19l0.73-0.06c0.06,0.73,0.12,1.46,0.19,2.17L44.49,159.77z M118.07,156.72l-0.6-0.42
		c0.42-0.59,0.84-1.19,1.25-1.79l0.6,0.42C118.91,155.53,118.49,156.13,118.07,156.72z M44.16,155.39c-0.04-0.72-0.07-1.46-0.09-2.2
		l0.73-0.02c0.02,0.73,0.05,1.46,0.09,2.18L44.16,155.39z M120.57,153.11l-0.61-0.41c0.41-0.6,0.81-1.21,1.21-1.82l0.61,0.4
		C121.38,151.9,120.97,152.51,120.57,153.11z M44.03,151l0-0.95c0-0.41,0-0.83,0.01-1.24l0.73,0.01c0,0.41-0.01,0.82-0.01,1.23
		l0,0.95L44.03,151z M122.97,149.44l-0.62-0.39c0.39-0.61,0.78-1.23,1.17-1.85l0.62,0.39C123.76,148.21,123.37,148.83,122.97,149.44
		z M44.81,146.62l-0.73-0.02c0.02-0.73,0.05-1.46,0.09-2.2l0.73,0.04C44.86,145.18,44.83,145.9,44.81,146.62z M125.29,145.72
		l-0.63-0.38c0.38-0.62,0.75-1.25,1.13-1.87l0.63,0.37C126.05,144.47,125.67,145.09,125.29,145.72z M45.01,142.26l-0.73-0.05
		c0.05-0.73,0.1-1.46,0.16-2.19l0.73,0.06C45.11,140.81,45.06,141.54,45.01,142.26z M127.53,141.94l-0.63-0.37
		c0.36-0.63,0.72-1.26,1.08-1.9l0.64,0.36C128.26,140.67,127.9,141.31,127.53,141.94z M129.69,138.12l-0.64-0.35
		c0.35-0.64,0.7-1.28,1.04-1.92l0.65,0.35C130.38,136.84,130.04,137.48,129.69,138.12z M45.37,137.91l-0.73-0.07
		c0.07-0.72,0.15-1.45,0.23-2.18l0.73,0.08C45.51,136.46,45.44,137.19,45.37,137.91z M131.76,134.25l-0.65-0.34
		c0.34-0.64,0.67-1.29,1-1.94l0.65,0.33C132.43,132.95,132.09,133.6,131.76,134.25z M45.85,133.57l-0.73-0.09
		c0.09-0.72,0.19-1.45,0.29-2.18l0.72,0.1C46.04,132.13,45.94,132.85,45.85,133.57z M133.75,130.34l-0.66-0.33
		c0.32-0.65,0.64-1.3,0.96-1.96l0.66,0.32C134.39,129.03,134.07,129.69,133.75,130.34z M46.46,129.24l-0.72-0.11
		c0.11-0.72,0.23-1.44,0.35-2.17l0.72,0.12C46.69,127.8,46.58,128.52,46.46,129.24z M135.66,126.39l-0.66-0.31
		c0.31-0.66,0.62-1.32,0.92-1.98l0.67,0.31C136.28,125.07,135.97,125.73,135.66,126.39z M47.19,124.93l-0.72-0.13
		c0.13-0.72,0.27-1.43,0.41-2.16l0.72,0.14C47.45,123.5,47.32,124.22,47.19,124.93z M137.5,122.41l-0.67-0.3
		c0.3-0.66,0.59-1.33,0.88-2l0.67,0.29C138.09,121.07,137.79,121.74,137.5,122.41z M48.02,120.64l-0.72-0.15
		c0.15-0.71,0.3-1.43,0.46-2.15l0.71,0.16C48.32,119.22,48.17,119.93,48.02,120.64z M139.25,118.39l-0.67-0.29
		c0.29-0.67,0.57-1.34,0.85-2.02l0.04-0.1l0.68,0.27l-0.04,0.11C139.82,117.04,139.54,117.72,139.25,118.39z M48.96,116.37
		l-0.71-0.17c0.16-0.71,0.33-1.42,0.51-2.13l0.71,0.17C49.29,114.96,49.13,115.66,48.96,116.37z M140.97,114.23l-0.68-0.27
		c0.27-0.68,0.54-1.36,0.81-2.03l0.68,0.27C141.51,112.87,141.24,113.55,140.97,114.23z M50,112.12l-0.71-0.18
		c0.18-0.71,0.37-1.41,0.56-2.12l0.71,0.19C50.36,110.72,50.18,111.42,50,112.12z M142.57,110.15l-0.68-0.26
		c0.26-0.68,0.51-1.37,0.77-2.05l0.69,0.25C143.09,108.78,142.83,109.46,142.57,110.15z M51.13,107.9l-0.71-0.2
		c0.2-0.7,0.4-1.41,0.6-2.11l0.7,0.21C51.52,106.5,51.32,107.2,51.13,107.9z M144.09,106.03l-0.69-0.25
		c0.25-0.69,0.49-1.38,0.73-2.06l0.69,0.24C144.58,104.65,144.34,105.34,144.09,106.03z M52.35,103.7l-0.7-0.21
		c0.21-0.7,0.43-1.4,0.64-2.1l0.7,0.22C52.77,102.31,52.56,103.01,52.35,103.7z M145.53,101.89l-0.69-0.23
		c0.23-0.69,0.46-1.39,0.68-2.08l0.7,0.23C145.99,100.5,145.76,101.19,145.53,101.89z M53.66,99.53l-0.7-0.23
		c0.23-0.69,0.45-1.39,0.69-2.08l0.69,0.23C54.11,98.15,53.88,98.84,53.66,99.53z M146.88,97.71l-0.7-0.22
		c0.22-0.7,0.43-1.39,0.64-2.09l0.7,0.21C147.32,96.31,147.1,97.01,146.88,97.71z M55.05,95.38l-0.69-0.24
		c0.24-0.69,0.48-1.38,0.73-2.07l0.69,0.25C55.53,94.01,55.29,94.7,55.05,95.38z M148.15,93.51l-0.7-0.2c0.2-0.7,0.4-1.4,0.6-2.1
		l0.71,0.2C148.55,92.1,148.35,92.81,148.15,93.51z M56.52,91.27l-0.69-0.25c0.25-0.68,0.51-1.37,0.77-2.05l0.68,0.26
		C57.03,89.9,56.77,90.59,56.52,91.27z M149.33,89.29l-0.71-0.19c0.19-0.71,0.37-1.41,0.55-2.11l0.71,0.18
		C149.7,87.87,149.52,88.58,149.33,89.29z M58.08,87.18l-0.68-0.27c0.27-0.68,0.54-1.36,0.81-2.04l0.68,0.27
		C58.61,85.83,58.34,86.51,58.08,87.18z M150.41,85.03l-0.71-0.17c0.17-0.71,0.34-1.42,0.51-2.13l0.71,0.17
		C150.76,83.61,150.59,84.32,150.41,85.03z M59.73,83.07l-0.7-0.22l0.03-0.07c0.27-0.64,0.54-1.3,0.82-1.95l0.67,0.29
		C60.28,81.76,60,82.42,59.73,83.07z M151.4,80.76l-0.71-0.16c0.16-0.71,0.31-1.43,0.46-2.14l0.72,0.15
		C151.71,79.33,151.56,80.04,151.4,80.76z M61.42,79.1l-0.67-0.29c0.29-0.67,0.59-1.34,0.89-2.01l0.67,0.3
		C62.01,77.77,61.71,78.43,61.42,79.1z M152.29,76.46l-0.72-0.14c0.14-0.72,0.27-1.43,0.4-2.15l0.72,0.13
		C152.57,75.02,152.43,75.74,152.29,76.46z M63.21,75.11l-0.67-0.31c0.31-0.67,0.62-1.33,0.93-1.99l0.66,0.31
		C63.82,73.79,63.52,74.45,63.21,75.11z M153.08,72.14l-0.72-0.12c0.12-0.72,0.24-1.44,0.35-2.16l0.72,0.11
		C153.31,70.7,153.2,71.42,153.08,72.14z M65.08,71.16l-0.66-0.32c0.32-0.66,0.64-1.32,0.96-1.97l0.66,0.33
		C65.72,69.84,65.4,70.5,65.08,71.16z M153.75,67.8l-0.72-0.1c0.1-0.73,0.2-1.45,0.29-2.17l0.73,0.09
		C153.95,66.35,153.85,67.08,153.75,67.8z M67.02,67.24l-0.65-0.33c0.33-0.65,0.67-1.3,1.01-1.95l0.65,0.34
		C67.69,65.94,67.35,66.59,67.02,67.24z M154.3,63.45l-0.73-0.08c0.08-0.73,0.16-1.45,0.23-2.17l0.73,0.07
		C154.45,61.99,154.38,62.72,154.3,63.45z M69.04,63.36l-0.65-0.35c0.35-0.65,0.7-1.29,1.04-1.93l0.64,0.35
		C69.74,62.08,69.39,62.72,69.04,63.36z M71.15,59.53l-0.64-0.36c0.36-0.64,0.72-1.27,1.09-1.91l0.63,0.37
		C71.87,58.26,71.51,58.89,71.15,59.53z M154.72,59.08l-0.73-0.06c0.06-0.73,0.11-1.46,0.16-2.18l0.73,0.05
		C154.83,57.61,154.78,58.34,154.72,59.08z M73.33,55.74l-0.63-0.37c0.37-0.63,0.75-1.26,1.13-1.88l0.63,0.38
		C74.08,54.49,73.71,55.11,73.33,55.74z M155,54.7l-0.73-0.03c0.03-0.73,0.06-1.46,0.08-2.18l0.73,0.02
		C155.06,53.23,155.03,53.96,155,54.7z M75.6,52.01l-0.62-0.39c0.39-0.62,0.78-1.24,1.17-1.86l0.62,0.39
		C76.38,50.77,75.99,51.39,75.6,52.01z M155.13,50.3l-0.73-0.01c0-0.4,0.01-0.79,0.01-1.18l0-1l0.73-0.01l0,1.01
		C155.13,49.51,155.13,49.91,155.13,50.3z M77.96,48.32l-0.61-0.4c0.4-0.62,0.81-1.22,1.21-1.83l0.61,0.41
		C78.76,47.1,78.36,47.71,77.96,48.32z M154.35,45.93c-0.02-0.73-0.05-1.46-0.09-2.18l0.73-0.04c0.04,0.72,0.07,1.46,0.09,2.2
		L154.35,45.93z M80.4,44.7l-0.6-0.42c0.42-0.6,0.84-1.2,1.26-1.8l0.6,0.42C81.23,43.5,80.81,44.1,80.4,44.7z M154.12,41.58
		c-0.06-0.73-0.12-1.46-0.19-2.17l0.73-0.07c0.07,0.72,0.14,1.45,0.19,2.19L154.12,41.58z M82.93,41.14l-0.59-0.43
		c0.43-0.59,0.87-1.18,1.31-1.76l0.59,0.44C83.8,39.96,83.36,40.54,82.93,41.14z M85.56,37.64l-0.58-0.45
		c0.45-0.58,0.9-1.16,1.36-1.73l0.57,0.46C86.46,36.49,86.01,37.06,85.56,37.64z M153.68,37.24c-0.09-0.73-0.2-1.45-0.31-2.16
		l0.72-0.12c0.11,0.72,0.22,1.44,0.31,2.18L153.68,37.24z M88.28,34.23l-0.57-0.46c0.47-0.57,0.94-1.13,1.41-1.69l0.56,0.47
		C89.21,33.1,88.75,33.66,88.28,34.23z M153,32.94c-0.14-0.72-0.29-1.43-0.45-2.13l0.71-0.16c0.16,0.71,0.31,1.42,0.45,2.16
		L153,32.94z M91.11,30.9l-0.55-0.48c0.49-0.56,0.97-1.1,1.46-1.64l0.54,0.49C92.08,29.8,91.59,30.34,91.11,30.9z M152.03,28.69
		c-0.19-0.71-0.39-1.41-0.61-2.09l0.7-0.22c0.22,0.69,0.42,1.4,0.61,2.12L152.03,28.69z M94.04,27.66l-0.53-0.5
		c0.51-0.54,1.01-1.07,1.52-1.59l0.52,0.51C95.05,26.6,94.55,27.13,94.04,27.66z M150.73,24.55c-0.25-0.69-0.52-1.37-0.79-2.02
		l0.67-0.29c0.28,0.67,0.55,1.35,0.81,2.06L150.73,24.55z M97.09,24.54l-0.51-0.52c0.53-0.52,1.05-1.03,1.58-1.53l0.5,0.53
		C98.14,23.52,97.62,24.02,97.09,24.54z M100.27,21.54L99.78,21c0.55-0.5,1.1-0.98,1.65-1.46l0.48,0.55
		C101.36,20.57,100.81,21.05,100.27,21.54z M149.04,20.55c-0.33-0.66-0.67-1.3-1.02-1.91l0.63-0.36c0.36,0.62,0.71,1.28,1.04,1.95
		L149.04,20.55z M103.57,18.7l-0.46-0.57c0.57-0.47,1.15-0.93,1.72-1.37l0.45,0.58C104.71,17.78,104.14,18.23,103.57,18.7z
		 M146.89,16.8c-0.41-0.61-0.84-1.2-1.27-1.74l0.57-0.46c0.45,0.56,0.89,1.16,1.31,1.79L146.89,16.8z M107.02,16.03l-0.43-0.59
		c0.6-0.44,1.2-0.86,1.8-1.27l0.41,0.6C108.21,15.18,107.61,15.59,107.02,16.03z M110.62,13.58l-0.39-0.62
		c0.63-0.4,1.26-0.78,1.88-1.14l0.37,0.63C111.86,12.81,111.24,13.18,110.62,13.58z M144.2,13.43c-0.5-0.53-1.02-1.03-1.55-1.49
		l0.48-0.55c0.55,0.48,1.09,0.99,1.61,1.54L144.2,13.43z M114.38,11.39l-0.34-0.65c0.66-0.35,1.32-0.68,1.97-0.99l0.31,0.66
		C115.67,10.72,115.03,11.05,114.38,11.39z M140.95,10.62c-0.59-0.41-1.2-0.79-1.82-1.13l0.35-0.64c0.65,0.35,1.28,0.75,1.89,1.17
		L140.95,10.62z M118.3,9.54l-0.28-0.68c0.68-0.28,1.38-0.55,2.06-0.78l0.24,0.69C119.66,9.01,118.98,9.27,118.3,9.54z M137.19,8.57
		c-0.66-0.27-1.35-0.51-2.03-0.7l0.2-0.7c0.71,0.2,1.42,0.45,2.11,0.73L137.19,8.57z M122.4,8.13l-0.2-0.71
		c0.72-0.2,1.44-0.37,2.15-0.52l0.14,0.72C123.81,7.77,123.1,7.94,122.4,8.13z M133.06,7.39c-0.69-0.12-1.41-0.2-2.14-0.25
		l0.05-0.73c0.75,0.05,1.49,0.13,2.21,0.25L133.06,7.39z M126.63,7.28l-0.09-0.73c0.74-0.09,1.49-0.15,2.21-0.17l0.02,0.73
		C128.07,7.14,127.35,7.19,126.63,7.28z"/>
	<path class="st0" d="M150.04,155.13c-0.4,0-0.79,0-1.19-0.01l0.01-0.73c0.4,0,0.79,0.01,1.18,0.01l1,0l0.01,0.73L150.04,155.13z
		 M153.25,155.09l-0.02-0.73c0.73-0.02,1.46-0.05,2.18-0.09l0.04,0.73C154.72,155.03,153.99,155.06,153.25,155.09z M146.66,155.08
		c-0.73-0.02-1.46-0.05-2.2-0.08l0.04-0.73c0.73,0.03,1.46,0.06,2.18,0.08L146.66,155.08z M142.27,154.88
		c-0.72-0.05-1.46-0.1-2.19-0.16l0.06-0.73c0.73,0.06,1.46,0.11,2.18,0.16L142.27,154.88z M157.63,154.86l-0.05-0.73
		c0.73-0.06,1.46-0.12,2.17-0.19l0.07,0.73C159.11,154.74,158.37,154.8,157.63,154.86z M137.89,154.52
		c-0.72-0.07-1.45-0.15-2.18-0.23l0.08-0.73c0.73,0.08,1.45,0.16,2.17,0.23L137.89,154.52z M162.01,154.41l-0.09-0.73
		c0.73-0.09,1.45-0.2,2.16-0.31l0.12,0.72C163.47,154.21,162.75,154.32,162.01,154.41z M133.53,154.04
		c-0.72-0.09-1.45-0.19-2.18-0.29l0.1-0.72c0.73,0.1,1.45,0.2,2.17,0.29L133.53,154.04z M166.36,153.72l-0.14-0.72
		c0.72-0.14,1.43-0.29,2.13-0.45l0.16,0.71C167.81,153.43,167.09,153.58,166.36,153.72z M129.18,153.43
		c-0.72-0.11-1.44-0.23-2.17-0.35l0.12-0.72c0.72,0.12,1.44,0.24,2.16,0.35L129.18,153.43z M170.65,152.74l-0.19-0.71
		c0.71-0.19,1.41-0.39,2.09-0.6l0.22,0.7C172.08,152.34,171.37,152.55,170.65,152.74z M124.85,152.7c-0.72-0.13-1.44-0.26-2.16-0.41
		l0.14-0.72c0.72,0.14,1.43,0.27,2.15,0.4L124.85,152.7z M120.54,151.86c-0.71-0.15-1.43-0.3-2.15-0.46l0.16-0.71
		c0.72,0.16,1.43,0.31,2.14,0.46L120.54,151.86z M174.86,151.42l-0.25-0.69c0.69-0.25,1.37-0.52,2.02-0.79l0.29,0.67
		C176.25,150.9,175.56,151.17,174.86,151.42z M116.26,150.92c-0.71-0.16-1.42-0.33-2.13-0.51l0.17-0.71
		c0.71,0.17,1.42,0.34,2.13,0.51L116.26,150.92z M111.99,149.88c-0.71-0.18-1.41-0.37-2.12-0.56l0.19-0.71
		c0.71,0.19,1.41,0.37,2.12,0.55L111.99,149.88z M178.93,149.7l-0.32-0.66c0.66-0.32,1.3-0.67,1.91-1.02l0.36,0.64
		C180.26,149.02,179.6,149.37,178.93,149.7z M107.75,148.75c-0.7-0.2-1.4-0.4-2.11-0.6l0.21-0.7c0.7,0.2,1.4,0.4,2.1,0.6
		L107.75,148.75z M103.54,147.52c-0.7-0.21-1.4-0.43-2.1-0.65l0.22-0.7c0.7,0.22,1.39,0.43,2.09,0.64L103.54,147.52z M182.76,147.5
		l-0.41-0.61c0.6-0.4,1.19-0.83,1.74-1.27l0.46,0.57C183.98,146.64,183.38,147.08,182.76,147.5z M99.35,146.21
		c-0.69-0.23-1.39-0.45-2.08-0.69l0.23-0.69c0.69,0.23,1.39,0.46,2.08,0.69L99.35,146.21z M95.2,144.82
		c-0.69-0.24-1.38-0.48-2.07-0.73l0.25-0.69c0.69,0.25,1.38,0.49,2.06,0.73L95.2,144.82z M186.23,144.73l-0.5-0.53
		c0.53-0.5,1.03-1.02,1.49-1.55l0.55,0.48C187.29,143.68,186.77,144.22,186.23,144.73z M91.06,143.34
		c-0.68-0.25-1.37-0.51-2.05-0.77l0.26-0.68c0.68,0.26,1.37,0.52,2.05,0.77L91.06,143.34z M86.96,141.78
		c-0.68-0.27-1.36-0.54-2.04-0.81l0.27-0.68c0.68,0.27,1.36,0.54,2.03,0.81L86.96,141.78z M189.14,141.37l-0.6-0.42
		c0.41-0.59,0.79-1.2,1.13-1.82l0.64,0.35C189.96,140.13,189.56,140.76,189.14,141.37z M82.9,140.14l-0.1-0.04
		c-0.68-0.28-1.35-0.56-2.02-0.85l0.29-0.67c0.67,0.28,1.34,0.57,2.02,0.85l0.1,0.04L82.9,140.14z M78.76,138.38
		c-0.67-0.29-1.34-0.59-2.01-0.89l0.3-0.67c0.66,0.3,1.33,0.59,2,0.88L78.76,138.38z M191.27,137.47l-0.68-0.28
		c0.27-0.66,0.51-1.34,0.7-2.03l0.71,0.2C191.79,136.08,191.55,136.79,191.27,137.47z M74.75,136.59c-0.67-0.31-1.33-0.62-1.99-0.93
		l0.31-0.66c0.66,0.31,1.32,0.62,1.98,0.92L74.75,136.59z M70.79,134.71c-0.66-0.32-1.32-0.64-1.97-0.97l0.33-0.66
		c0.65,0.32,1.31,0.64,1.96,0.96L70.79,134.71z M192.49,133.19l-0.72-0.12c0.12-0.69,0.2-1.41,0.25-2.14l0.73,0.05
		C192.69,131.73,192.61,132.47,192.49,133.19z M66.86,132.76c-0.65-0.33-1.3-0.67-1.95-1.01l0.34-0.65c0.64,0.34,1.29,0.67,1.94,1
		L66.86,132.76z M62.97,130.73c-0.65-0.35-1.29-0.7-1.93-1.05l0.35-0.64c0.64,0.35,1.28,0.7,1.92,1.04L62.97,130.73z M192.04,128.78
		c-0.02-0.71-0.08-1.43-0.17-2.15l0.73-0.09c0.09,0.74,0.15,1.49,0.17,2.21L192.04,128.78z M59.12,128.62
		c-0.64-0.36-1.27-0.72-1.91-1.09l0.37-0.63c0.63,0.36,1.26,0.72,1.9,1.08L59.12,128.62z M55.32,126.42
		c-0.63-0.37-1.26-0.75-1.88-1.13l0.38-0.63c0.62,0.38,1.24,0.75,1.87,1.12L55.32,126.42z M191.53,124.5
		c-0.14-0.69-0.31-1.4-0.5-2.1l0.71-0.2c0.2,0.72,0.37,1.44,0.52,2.15L191.53,124.5z M51.57,124.15c-0.62-0.39-1.24-0.78-1.86-1.17
		l0.39-0.62c0.61,0.39,1.23,0.78,1.85,1.17L51.57,124.15z M47.87,121.78c-0.61-0.4-1.22-0.81-1.83-1.21l0.41-0.61
		c0.6,0.4,1.21,0.81,1.82,1.21L47.87,121.78z M190.38,120.33c-0.23-0.66-0.49-1.34-0.77-2.03l0.68-0.28
		c0.29,0.7,0.55,1.39,0.78,2.07L190.38,120.33z M44.23,119.33c-0.61-0.42-1.2-0.84-1.8-1.26l0.42-0.6c0.59,0.42,1.19,0.84,1.79,1.25
		L44.23,119.33z M40.66,116.79c-0.59-0.43-1.18-0.87-1.76-1.31l0.44-0.58c0.58,0.44,1.16,0.87,1.75,1.3L40.66,116.79z
		 M188.74,116.32c-0.3-0.64-0.63-1.29-0.97-1.94l0.65-0.34c0.35,0.66,0.68,1.32,0.99,1.97L188.74,116.32z M37.15,114.15
		c-0.58-0.45-1.16-0.9-1.73-1.36l0.46-0.57c0.57,0.45,1.14,0.9,1.72,1.35L37.15,114.15z M186.71,112.48
		c-0.36-0.62-0.74-1.24-1.13-1.86l0.62-0.39c0.4,0.63,0.78,1.26,1.14,1.88L186.71,112.48z M33.72,111.41
		c-0.57-0.47-1.13-0.94-1.69-1.41l0.47-0.56c0.55,0.47,1.11,0.94,1.68,1.4L33.72,111.41z M184.39,108.8
		c-0.41-0.59-0.82-1.19-1.26-1.78l0.59-0.43c0.44,0.6,0.86,1.2,1.27,1.8L184.39,108.8z M30.37,108.56c-0.55-0.49-1.1-0.97-1.64-1.46
		l0.49-0.54c0.53,0.49,1.08,0.97,1.63,1.45L30.37,108.56z M27.12,105.61c-0.54-0.51-1.07-1.01-1.59-1.52l0.51-0.52
		c0.52,0.5,1.04,1.01,1.58,1.51L27.12,105.61z M181.82,105.28c-0.44-0.57-0.89-1.14-1.36-1.7l0.57-0.46
		c0.47,0.57,0.93,1.15,1.37,1.72L181.82,105.28z M23.98,102.54c-0.52-0.53-1.03-1.05-1.53-1.58l0.53-0.5c0.5,0.52,1,1.05,1.52,1.57
		L23.98,102.54z M179.06,101.9c-0.47-0.54-0.95-1.09-1.44-1.64l0.54-0.49c0.5,0.55,0.98,1.1,1.46,1.65L179.06,101.9z M20.96,99.34
		c-0.5-0.55-0.98-1.1-1.45-1.65l0.55-0.48c0.47,0.55,0.95,1.09,1.44,1.64L20.96,99.34z M176.13,98.67c-0.5-0.52-1-1.05-1.52-1.57
		l0.52-0.51c0.52,0.53,1.03,1.05,1.53,1.58L176.13,98.67z M18.09,96.01c-0.47-0.57-0.93-1.15-1.37-1.72l0.58-0.45
		c0.44,0.57,0.89,1.14,1.36,1.71L18.09,96.01z M173.07,95.56c-0.52-0.5-1.04-1.01-1.58-1.51l0.5-0.53c0.54,0.51,1.07,1.01,1.59,1.52
		L173.07,95.56z M169.89,92.56c-0.53-0.49-1.08-0.97-1.63-1.45l0.48-0.55c0.55,0.49,1.1,0.97,1.64,1.46L169.89,92.56z M15.4,92.53
		c-0.44-0.6-0.86-1.2-1.27-1.8l0.61-0.41c0.4,0.59,0.82,1.19,1.25,1.78L15.4,92.53z M166.61,89.68c-0.55-0.47-1.11-0.94-1.68-1.4
		l0.46-0.57c0.57,0.47,1.13,0.94,1.69,1.41L166.61,89.68z M12.92,88.89c-0.4-0.63-0.78-1.26-1.14-1.88l0.63-0.37
		c0.36,0.62,0.74,1.24,1.13,1.86L12.92,88.89z M163.23,86.91c-0.57-0.45-1.14-0.9-1.72-1.35l0.45-0.58c0.58,0.45,1.16,0.9,1.73,1.36
		L163.23,86.91z M10.71,85.08c-0.35-0.66-0.68-1.32-0.98-1.97l0.66-0.31c0.3,0.65,0.63,1.29,0.97,1.94L10.71,85.08z M159.78,84.23
		c-0.58-0.44-1.17-0.87-1.76-1.3l0.43-0.59c0.59,0.43,1.18,0.87,1.76,1.31L159.78,84.23z M156.25,81.65
		c-0.59-0.42-1.19-0.84-1.79-1.25l0.42-0.6c0.61,0.42,1.2,0.84,1.8,1.26L156.25,81.65z M8.84,81.08c-0.29-0.7-0.55-1.39-0.78-2.07
		l0.69-0.24c0.23,0.66,0.48,1.34,0.76,2.03L8.84,81.08z M152.66,79.17c-0.6-0.4-1.21-0.81-1.82-1.21l0.4-0.61
		c0.61,0.4,1.22,0.81,1.83,1.21L152.66,79.17z M7.41,76.9c-0.2-0.72-0.37-1.45-0.51-2.15l0.72-0.14c0.14,0.69,0.31,1.4,0.5,2.1
		L7.41,76.9z M149,76.77c-0.61-0.39-1.23-0.78-1.85-1.17l0.39-0.62c0.62,0.39,1.24,0.78,1.86,1.17L149,76.77z M145.29,74.46
		c-0.62-0.38-1.25-0.75-1.88-1.12l0.37-0.63c0.63,0.37,1.26,0.75,1.88,1.13L145.29,74.46z M6.55,72.56
		c-0.09-0.74-0.14-1.48-0.17-2.21l0.73-0.02c0.02,0.71,0.08,1.43,0.16,2.15L6.55,72.56z M141.52,72.23
		c-0.63-0.36-1.26-0.72-1.9-1.08l0.36-0.64c0.64,0.36,1.28,0.72,1.91,1.09L141.52,72.23z M137.72,70.09
		c-0.64-0.35-1.28-0.7-1.92-1.04l0.35-0.65c0.65,0.35,1.29,0.69,1.93,1.05L137.72,70.09z M7.15,68.17l-0.73-0.05
		c0.05-0.75,0.14-1.49,0.26-2.21l0.72,0.12C7.28,66.73,7.2,67.45,7.15,68.17z M133.86,68.03c-0.64-0.34-1.29-0.67-1.94-1l0.33-0.65
		c0.65,0.33,1.3,0.67,1.95,1.01L133.86,68.03z M129.96,66.04c-0.65-0.32-1.3-0.64-1.96-0.96l0.32-0.66
		c0.66,0.32,1.32,0.64,1.97,0.97L129.96,66.04z M126.03,64.14c-0.66-0.31-1.32-0.62-1.98-0.92l0.31-0.67
		c0.67,0.31,1.33,0.62,1.99,0.93L126.03,64.14z M7.88,63.94l-0.7-0.2c0.2-0.71,0.45-1.42,0.73-2.1l0.68,0.28
		C8.31,62.58,8.08,63.26,7.88,63.94z M122.06,62.31c-0.66-0.3-1.33-0.59-2-0.88l0.29-0.67c0.67,0.29,1.34,0.59,2.01,0.89
		L122.06,62.31z M118.05,60.56c-0.65-0.28-1.31-0.55-1.96-0.82l0.23-0.7l0.05,0.02c0.66,0.27,1.32,0.55,1.97,0.83L118.05,60.56z
		 M9.51,59.98l-0.64-0.35c0.35-0.64,0.75-1.28,1.18-1.89l0.6,0.42C10.24,58.75,9.85,59.36,9.51,59.98z M114.01,58.89
		c-0.68-0.27-1.36-0.54-2.03-0.81l0.27-0.68c0.68,0.27,1.36,0.54,2.04,0.81L114.01,58.89z M109.94,57.29
		c-0.68-0.26-1.37-0.52-2.05-0.77l0.25-0.69c0.68,0.25,1.37,0.51,2.05,0.77L109.94,57.29z M11.98,56.47l-0.55-0.48
		c0.48-0.55,1-1.09,1.54-1.6l0.5,0.53C12.94,55.42,12.44,55.94,11.98,56.47z M105.83,55.78c-0.69-0.25-1.38-0.49-2.06-0.73
		l0.24-0.69c0.69,0.24,1.38,0.48,2.07,0.73L105.83,55.78z M101.7,54.34c-0.69-0.23-1.39-0.46-2.08-0.69l0.23-0.7
		c0.69,0.23,1.39,0.45,2.08,0.69L101.7,54.34z M15.1,53.51l-0.46-0.57c0.57-0.45,1.17-0.89,1.8-1.3l0.41,0.61
		C16.24,52.65,15.65,53.07,15.1,53.51z M97.55,52.99c-0.7-0.22-1.39-0.43-2.09-0.64l0.21-0.7c0.7,0.21,1.4,0.43,2.1,0.65
		L97.55,52.99z M93.36,51.73c-0.7-0.2-1.4-0.4-2.1-0.6l0.2-0.71c0.7,0.2,1.4,0.4,2.11,0.6L93.36,51.73z M18.69,51.1l-0.36-0.64
		c0.62-0.36,1.28-0.7,1.96-1.03l0.32,0.66C19.94,50.42,19.3,50.76,18.69,51.1z M89.15,50.55c-0.71-0.19-1.41-0.37-2.11-0.55
		l0.18-0.71c0.71,0.18,1.41,0.37,2.12,0.56L89.15,50.55z M84.91,49.47c-0.71-0.17-1.42-0.34-2.13-0.51l0.17-0.71
		c0.71,0.16,1.42,0.33,2.13,0.51L84.91,49.47z M22.57,49.2l-0.28-0.67c0.67-0.28,1.35-0.55,2.05-0.8l0.25,0.69
		C23.91,48.66,23.23,48.92,22.57,49.2z M80.66,48.48c-0.71-0.16-1.43-0.31-2.14-0.46l0.15-0.72c0.71,0.15,1.43,0.3,2.15,0.46
		L80.66,48.48z M26.66,47.72l-0.22-0.7c0.69-0.21,1.4-0.42,2.12-0.61l0.19,0.71C28.03,47.3,27.34,47.5,26.66,47.72z M76.38,47.6
		c-0.72-0.14-1.43-0.27-2.15-0.4l0.13-0.72c0.72,0.13,1.44,0.27,2.16,0.41L76.38,47.6z M72.08,46.81c-0.72-0.12-1.44-0.24-2.16-0.35
		l0.11-0.72c0.72,0.11,1.44,0.23,2.17,0.35L72.08,46.81z M30.86,46.59l-0.16-0.71c0.71-0.16,1.43-0.31,2.16-0.45l0.14,0.72
		C32.27,46.29,31.56,46.43,30.86,46.59z M67.76,46.15c-0.73-0.1-1.45-0.2-2.17-0.29l0.09-0.73c0.72,0.09,1.45,0.19,2.18,0.29
		L67.76,46.15z M35.13,45.78l-0.11-0.72c0.71-0.11,1.44-0.22,2.18-0.31l0.09,0.73C36.56,45.56,35.84,45.67,35.13,45.78z M63.42,45.6
		c-0.73-0.08-1.45-0.16-2.17-0.23l0.07-0.73c0.72,0.07,1.45,0.15,2.18,0.23L63.42,45.6z M39.46,45.22l-0.07-0.73
		c0.72-0.07,1.45-0.14,2.19-0.19l0.05,0.73C40.9,45.09,40.17,45.15,39.46,45.22z M59.07,45.18c-0.73-0.06-1.46-0.11-2.18-0.16
		l0.05-0.73c0.72,0.05,1.46,0.1,2.19,0.16L59.07,45.18z M54.72,44.89c-0.73-0.03-1.46-0.06-2.18-0.08l0.02-0.73
		c0.73,0.02,1.46,0.05,2.2,0.08L54.72,44.89z M43.81,44.89l-0.04-0.73c0.72-0.04,1.46-0.07,2.2-0.09l0.02,0.73
		C45.25,44.83,44.53,44.85,43.81,44.89z M50.35,44.77c-0.41,0-0.83-0.01-1.24-0.01l-0.95,0l-0.01-0.73l0.95,0
		c0.41,0,0.83,0,1.24,0.01L50.35,44.77z"/>
	<path class="st0" d="M48.22,155.13c-0.74-0.01-1.47-0.02-2.2-0.04l0.02-0.73c0.72,0.02,1.45,0.03,2.18,0.04L48.22,155.13z
		 M50.42,155.13l-0.01-0.73c0.72-0.01,1.45-0.02,2.18-0.05l0.02,0.73C51.87,155.1,51.14,155.12,50.42,155.13z M43.82,155
		c-0.74-0.04-1.47-0.08-2.19-0.14l0.05-0.73c0.72,0.05,1.44,0.1,2.18,0.14L43.82,155z M54.81,154.99l-0.04-0.73
		c0.72-0.03,1.45-0.08,2.18-0.12l0.05,0.73C56.26,154.92,55.53,154.96,54.81,154.99z M59.19,154.71l-0.06-0.73
		c0.72-0.06,1.45-0.12,2.18-0.19l0.07,0.73C60.64,154.58,59.91,154.65,59.19,154.71z M39.44,154.67c-0.74-0.07-1.47-0.16-2.19-0.25
		l0.09-0.73c0.71,0.09,1.44,0.17,2.17,0.25L39.44,154.67z M63.56,154.28l-0.08-0.73c0.72-0.08,1.44-0.17,2.17-0.26l0.09,0.73
		C65.01,154.12,64.28,154.2,63.56,154.28z M35.08,154.11c-0.73-0.12-1.46-0.24-2.17-0.38l0.14-0.72c0.7,0.13,1.42,0.26,2.15,0.37
		L35.08,154.11z M67.92,153.73l-0.1-0.72c0.72-0.1,1.44-0.21,2.16-0.32l0.11,0.72C69.36,153.52,68.64,153.63,67.92,153.73z
		 M30.75,153.29c-0.73-0.16-1.44-0.34-2.14-0.52l0.19-0.71c0.69,0.18,1.4,0.36,2.11,0.52L30.75,153.29z M72.25,153.06l-0.12-0.72
		c0.71-0.12,1.43-0.25,2.15-0.38l0.13,0.72C73.69,152.81,72.97,152.93,72.25,153.06z M76.57,152.27l-0.14-0.72
		c0.71-0.14,1.43-0.28,2.14-0.43l0.15,0.72C78,151.99,77.28,152.13,76.57,152.27z M26.49,152.16c-0.71-0.22-1.41-0.45-2.09-0.7
		l0.25-0.69c0.67,0.24,1.36,0.47,2.06,0.69L26.49,152.16z M80.87,151.38l-0.16-0.71c0.71-0.16,1.42-0.32,2.13-0.48l0.17,0.71
		C82.29,151.06,81.58,151.22,80.87,151.38z M22.34,150.66c-0.69-0.29-1.37-0.6-2.01-0.91l0.32-0.66c0.63,0.31,1.3,0.61,1.98,0.89
		L22.34,150.66z M85.14,150.39l-0.17-0.71c0.71-0.17,1.41-0.35,2.12-0.53l0.18,0.71C86.56,150.04,85.85,150.21,85.14,150.39z
		 M89.39,149.3l-0.19-0.71c0.7-0.19,1.4-0.38,2.11-0.58l0.2,0.71C90.8,148.92,90.09,149.11,89.39,149.3z M18.37,148.72
		c-0.65-0.37-1.28-0.76-1.89-1.16l0.41-0.61c0.59,0.39,1.21,0.77,1.84,1.13L18.37,148.72z M93.62,148.12l-0.21-0.7
		c0.7-0.2,1.4-0.41,2.1-0.62l0.21,0.7C95.02,147.7,94.32,147.91,93.62,148.12z M97.82,146.85l-0.22-0.7
		c0.69-0.22,1.39-0.44,2.08-0.66l0.23,0.7C99.21,146.41,98.51,146.63,97.82,146.85z M14.69,146.26c-0.59-0.46-1.16-0.95-1.68-1.45
		l0.5-0.53c0.51,0.48,1.06,0.95,1.63,1.41L14.69,146.26z M101.99,145.49l-0.23-0.69c0.69-0.23,1.38-0.47,2.07-0.71l0.24,0.69
		C103.37,145.02,102.68,145.26,101.99,145.49z M106.13,144.05l-0.25-0.69c0.69-0.25,1.37-0.49,2.06-0.75l0.25,0.69
		C107.51,143.55,106.82,143.8,106.13,144.05z M11.46,143.21c-0.49-0.56-0.96-1.15-1.38-1.75l0.6-0.42c0.41,0.58,0.85,1.14,1.33,1.69
		L11.46,143.21z M110.25,142.53l-0.26-0.68c0.68-0.26,1.36-0.52,2.04-0.79l0.27,0.68C111.61,142.01,110.93,142.27,110.25,142.53z
		 M114.33,140.93l-0.27-0.68c0.67-0.27,1.35-0.55,2.02-0.83l0.1-0.04l0.28,0.68l-0.1,0.04
		C115.69,140.38,115.01,140.66,114.33,140.93z M8.9,139.58c-0.36-0.65-0.68-1.32-0.97-2l0.68-0.28c0.28,0.66,0.59,1.31,0.93,1.93
		L8.9,139.58z M118.49,139.21l-0.29-0.67c0.67-0.29,1.34-0.58,2.01-0.87l0.29,0.67C119.83,138.63,119.16,138.92,118.49,139.21z
		 M122.51,137.45l-0.3-0.67c0.67-0.3,1.33-0.6,1.99-0.91l0.31,0.66C123.84,136.85,123.18,137.15,122.51,137.45z M126.49,135.61
		l-0.31-0.66c0.66-0.31,1.32-0.63,1.97-0.94l0.32,0.66C127.81,134.98,127.15,135.3,126.49,135.61z M7.19,135.47
		c-0.21-0.71-0.37-1.44-0.5-2.17l0.72-0.13c0.12,0.71,0.29,1.41,0.48,2.09L7.19,135.47z M130.44,133.7l-0.33-0.66
		c0.65-0.33,1.31-0.65,1.95-0.98l0.33,0.65C131.75,133.04,131.09,133.37,130.44,133.7z M134.35,131.71l-0.34-0.65
		c0.65-0.34,1.29-0.68,1.93-1.02l0.35,0.65C135.64,131.02,135,131.37,134.35,131.71z M6.42,131.09c-0.04-0.51-0.05-1.03-0.05-1.55
		c0-0.22,0-0.45,0.01-0.67l0.73,0.02c-0.01,0.22-0.01,0.43-0.01,0.65c0,0.5,0.02,1.01,0.05,1.5L6.42,131.09z M138.21,129.63
		l-0.35-0.64c0.64-0.35,1.28-0.71,1.91-1.06l0.36,0.64C139.5,128.92,138.86,129.28,138.21,129.63z M142.04,127.48l-0.37-0.63
		c0.63-0.37,1.26-0.73,1.89-1.1l0.37,0.63C143.3,126.74,142.67,127.11,142.04,127.48z M7.27,126.74l-0.73-0.08
		c0.08-0.71,0.2-1.45,0.34-2.19l0.72,0.14C7.46,125.33,7.35,126.05,7.27,126.74z M145.81,125.24l-0.38-0.63
		c0.63-0.38,1.25-0.76,1.86-1.15l0.39,0.62C147.06,124.47,146.44,124.86,145.81,125.24z M149.53,122.92l-0.39-0.62
		c0.62-0.39,1.23-0.79,1.83-1.19l0.4,0.61C150.77,122.12,150.15,122.52,149.53,122.92z M8.1,122.51l-0.71-0.19
		c0.19-0.7,0.41-1.41,0.65-2.11l0.69,0.24C8.5,121.12,8.29,121.82,8.1,122.51z M153.2,120.51l-0.41-0.61
		c0.61-0.41,1.21-0.82,1.8-1.23l0.42,0.6C154.42,119.68,153.81,120.09,153.2,120.51z M9.5,118.41l-0.68-0.28
		c0.27-0.67,0.57-1.34,0.89-2.02l0.66,0.31C10.06,117.09,9.77,117.75,9.5,118.41z M156.81,118.01l-0.43-0.6
		c0.6-0.43,1.19-0.85,1.77-1.28l0.43,0.59C158,117.15,157.41,117.58,156.81,118.01z M160.35,115.41l-0.44-0.58
		c0.58-0.44,1.16-0.88,1.74-1.33l0.45,0.58C161.52,114.52,160.94,114.97,160.35,115.41z M11.34,114.47l-0.65-0.34
		c0.34-0.64,0.69-1.28,1.07-1.93l0.63,0.37C12.02,113.21,11.67,113.84,11.34,114.47z M163.82,112.72l-0.46-0.57
		c0.57-0.46,1.14-0.92,1.7-1.38l0.46,0.57C164.96,111.8,164.4,112.26,163.82,112.72z M13.51,110.71l-0.62-0.39
		c0.39-0.61,0.79-1.23,1.21-1.84l0.61,0.41C14.29,109.5,13.9,110.1,13.51,110.71z M167.21,109.93l-0.47-0.56
		c0.56-0.48,1.11-0.95,1.65-1.43l0.48,0.55C168.32,108.97,167.77,109.45,167.21,109.93z M15.96,107.11l-0.59-0.43
		c0.43-0.59,0.87-1.17,1.32-1.76l0.58,0.45C16.82,105.95,16.38,106.53,15.96,107.11z M170.51,107.03l-0.49-0.54
		c0.54-0.49,1.08-0.99,1.6-1.48l0.5,0.53C171.59,106.03,171.05,106.53,170.51,107.03z M173.7,104.01l-0.51-0.52
		c0.52-0.51,1.04-1.03,1.54-1.54l0.52,0.51C174.75,102.98,174.23,103.49,173.7,104.01z M18.63,103.66l-0.57-0.46
		c0.46-0.56,0.93-1.12,1.41-1.69l0.55,0.48C19.55,102.54,19.08,103.1,18.63,103.66z M176.78,100.88l-0.53-0.5
		c0.5-0.53,1-1.07,1.48-1.6l0.54,0.49C177.79,99.8,177.29,100.34,176.78,100.88z M21.47,100.35l-0.54-0.49
		c0.49-0.54,0.98-1.08,1.49-1.62l0.53,0.5C22.44,99.28,21.95,99.81,21.47,100.35z M179.72,97.61l-0.55-0.48
		c0.48-0.56,0.95-1.12,1.4-1.67l0.57,0.46C180.68,96.48,180.21,97.04,179.72,97.61z M24.46,97.17l-0.52-0.51
		c0.51-0.52,1.03-1.04,1.56-1.55l0.51,0.52C25.48,96.14,24.97,96.66,24.46,97.17z M182.5,94.2l-0.58-0.45
		c0.45-0.58,0.88-1.16,1.31-1.75l0.59,0.43C183.39,93.02,182.96,93.61,182.5,94.2z M27.58,94.12l-0.5-0.53
		c0.53-0.5,1.07-1,1.61-1.49l0.49,0.54C28.64,93.13,28.11,93.62,27.58,94.12z M30.81,91.18l-0.48-0.55c0.54-0.48,1.1-0.96,1.66-1.44
		l0.47,0.56C31.9,90.23,31.35,90.7,30.81,91.18z M185.08,90.63l-0.61-0.41c0.41-0.61,0.81-1.22,1.19-1.82l0.62,0.39
		C185.9,89.4,185.5,90.02,185.08,90.63z M34.14,88.35l-0.46-0.57c0.56-0.46,1.13-0.92,1.71-1.38l0.46,0.57
		C35.26,87.43,34.7,87.89,34.14,88.35z M187.43,86.91l-0.63-0.37c0.37-0.64,0.72-1.27,1.05-1.9l0.65,0.34
		C188.16,85.62,187.8,86.26,187.43,86.91z M37.55,85.62l-0.45-0.58c0.58-0.45,1.16-0.89,1.75-1.33l0.44,0.58
		C38.7,84.74,38.13,85.18,37.55,85.62z M189.47,83l-0.66-0.31c0.31-0.67,0.6-1.33,0.87-1.99l0.68,0.28
		C190.08,81.65,189.79,82.32,189.47,83z M41.04,83l-0.43-0.59c0.59-0.43,1.18-0.86,1.78-1.28l0.43,0.6
		C42.22,82.14,41.63,82.57,41.04,83z M44.61,80.46l-0.42-0.6c0.6-0.41,1.2-0.83,1.81-1.24l0.41,0.61
		C45.8,79.64,45.2,80.05,44.61,80.46z M191.13,78.91l-0.69-0.24c0.24-0.69,0.45-1.39,0.63-2.07l0.71,0.19
		C191.59,77.49,191.37,78.2,191.13,78.91z M48.23,78.02l-0.4-0.61c0.61-0.4,1.22-0.8,1.84-1.19l0.39,0.62
		C49.45,77.22,48.84,77.62,48.23,78.02z M51.91,75.66l-0.39-0.62c0.62-0.39,1.24-0.77,1.87-1.15l0.38,0.63
		C53.15,74.9,52.53,75.28,51.91,75.66z M192.28,74.64l-0.72-0.14c0.14-0.72,0.25-1.44,0.33-2.13l0.73,0.08
		C192.54,73.16,192.42,73.9,192.28,74.64z M55.65,73.39l-0.37-0.63c0.63-0.37,1.26-0.74,1.89-1.11l0.37,0.63
		C56.9,72.65,56.27,73.02,55.65,73.39z M59.43,71.2l-0.36-0.64c0.63-0.36,1.27-0.71,1.92-1.07l0.35,0.64
		C60.7,70.49,60.07,70.85,59.43,71.2z M192.78,70.23l-0.73-0.02c0-0.2,0.01-0.4,0.01-0.6c0-0.52-0.02-1.04-0.06-1.56l0.73-0.05
		c0.04,0.53,0.06,1.07,0.06,1.61C192.79,69.83,192.78,70.03,192.78,70.23z M63.26,69.1l-0.35-0.65c0.64-0.34,1.29-0.69,1.94-1.03
		l0.34,0.65C64.55,68.41,63.91,68.75,63.26,69.1z M67.14,67.07l-0.33-0.65c0.65-0.33,1.3-0.66,1.96-0.99l0.33,0.66
		C68.44,66.41,67.79,66.74,67.14,67.07z M191.74,65.93c-0.13-0.71-0.29-1.41-0.49-2.09l0.7-0.21c0.21,0.71,0.38,1.44,0.51,2.17
		L191.74,65.93z M71.05,65.13l-0.32-0.66c0.66-0.32,1.32-0.63,1.98-0.95l0.31,0.66C72.37,64.49,71.71,64.81,71.05,65.13z
		 M75.01,63.26l-0.31-0.67c0.66-0.31,1.33-0.61,2-0.91l0.3,0.67C76.33,62.65,75.67,62.95,75.01,63.26z M190.53,61.81
		c-0.28-0.66-0.59-1.31-0.94-1.93l0.64-0.36c0.36,0.65,0.69,1.32,0.98,2L190.53,61.81z M79,61.47l-0.29-0.67
		c0.67-0.29,1.34-0.58,2.01-0.87l0.29,0.67C80.33,60.89,79.67,61.18,79,61.47z M83.07,59.73l-0.19-0.32l-0.09-0.36
		c0.66-0.27,1.32-0.54,1.98-0.81l0.27,0.68C84.39,59.19,83.73,59.46,83.07,59.73z M87.08,58.12l-0.27-0.68
		c0.68-0.27,1.36-0.53,2.04-0.79l0.26,0.68C88.44,57.59,87.76,57.85,87.08,58.12z M188.44,58.07c-0.41-0.58-0.86-1.14-1.34-1.68
		l0.55-0.48c0.49,0.56,0.96,1.14,1.38,1.74L188.44,58.07z M91.16,56.56l-0.25-0.69c0.69-0.25,1.37-0.5,2.06-0.75l0.25,0.69
		C92.53,56.06,91.85,56.31,91.16,56.56z M95.28,55.08l-0.24-0.69c0.69-0.24,1.38-0.48,2.08-0.71l0.23,0.69
		C96.66,54.61,95.97,54.84,95.28,55.08z M185.61,54.84c-0.51-0.48-1.06-0.95-1.64-1.4l0.45-0.58c0.59,0.46,1.16,0.95,1.69,1.44
		L185.61,54.84z M99.42,53.69l-0.23-0.7c0.7-0.23,1.39-0.45,2.09-0.67l0.22,0.7C100.81,53.24,100.12,53.46,99.42,53.69z
		 M103.59,52.38l-0.21-0.7c0.7-0.21,1.4-0.42,2.1-0.62l0.21,0.7C104.99,51.96,104.29,52.17,103.59,52.38z M182.22,52.18
		c-0.59-0.39-1.21-0.77-1.84-1.13l0.36-0.64c0.65,0.37,1.29,0.76,1.89,1.16L182.22,52.18z M107.79,51.16l-0.2-0.71
		c0.71-0.2,1.41-0.39,2.12-0.58l0.19,0.71C109.2,50.77,108.5,50.96,107.79,51.16z M178.46,50.04c-0.64-0.31-1.3-0.61-1.98-0.89
		l0.28-0.68c0.69,0.29,1.37,0.59,2.01,0.91L178.46,50.04z M112.01,50.02l-0.18-0.71c0.71-0.18,1.42-0.36,2.13-0.53l0.17,0.71
		C113.43,49.67,112.72,49.84,112.01,50.02z M116.26,48.99l-0.17-0.71c0.71-0.17,1.43-0.33,2.14-0.48l0.16,0.71
		C117.68,48.66,116.97,48.82,116.26,48.99z M174.46,48.37c-0.67-0.24-1.36-0.47-2.06-0.69l0.22-0.7c0.71,0.22,1.41,0.45,2.09,0.7
		L174.46,48.37z M120.53,48.05l-0.15-0.72c0.72-0.15,1.44-0.29,2.15-0.43l0.14,0.72C121.96,47.75,121.25,47.9,120.53,48.05z
		 M124.82,47.21l-0.13-0.72c0.72-0.13,1.44-0.26,2.16-0.38l0.12,0.72C126.26,46.95,125.54,47.08,124.82,47.21z M170.3,47.08
		c-0.69-0.18-1.4-0.35-2.11-0.52l0.16-0.71c0.73,0.16,1.44,0.34,2.14,0.52L170.3,47.08z M129.13,46.48l-0.11-0.72
		c0.73-0.11,1.45-0.22,2.17-0.32l0.1,0.72C130.57,46.26,129.85,46.37,129.13,46.48z M166.06,46.13c-0.7-0.13-1.42-0.26-2.15-0.37
		l0.11-0.72c0.73,0.11,1.46,0.24,2.17,0.37L166.06,46.13z M133.45,45.87l-0.09-0.73c0.73-0.09,1.46-0.18,2.18-0.26l0.08,0.73
		C134.9,45.69,134.18,45.77,133.45,45.87z M161.75,45.45c-0.71-0.09-1.43-0.17-2.17-0.24l0.07-0.73c0.74,0.07,1.47,0.16,2.19,0.25
		L161.75,45.45z M137.8,45.38l-0.07-0.73c0.73-0.07,1.46-0.14,2.19-0.2l0.06,0.73C139.25,45.24,138.53,45.31,137.8,45.38z
		 M142.15,45.02l-0.05-0.73c0.74-0.05,1.47-0.09,2.19-0.13l0.04,0.73C143.61,44.93,142.88,44.97,142.15,45.02z M157.42,45.02
		c-0.72-0.05-1.44-0.1-2.18-0.14l0.04-0.73c0.74,0.04,1.47,0.08,2.19,0.14L157.42,45.02z M146.51,44.81l-0.02-0.73
		c0.74-0.02,1.47-0.04,2.2-0.05l0.01,0.73C147.97,44.77,147.25,44.79,146.51,44.81z M153.06,44.8c-0.72-0.02-1.45-0.03-2.18-0.04
		l0.01-0.73c0.74,0.01,1.47,0.02,2.2,0.04L153.06,44.8z"/>
	<path class="st0" d="M129.56,192.79c-0.26,0-0.42,0-0.64-0.01l0.02-0.73c0.21,0.01,0.4,0.01,0.62,0.01c0.51,0,1.03-0.02,1.53-0.05
		l0.05,0.73C130.62,192.77,130.09,192.79,129.56,192.79z M126.71,192.62c-0.72-0.08-1.46-0.2-2.19-0.34l0.14-0.72
		c0.71,0.14,1.43,0.25,2.13,0.33L126.71,192.62z M133.35,192.46l-0.13-0.72c0.71-0.13,1.41-0.29,2.09-0.49l0.21,0.7
		C134.82,192.16,134.09,192.33,133.35,192.46z M122.36,191.78c-0.7-0.19-1.41-0.41-2.11-0.65l0.24-0.69
		c0.69,0.24,1.39,0.45,2.07,0.63L122.36,191.78z M137.62,191.21l-0.28-0.68c0.66-0.27,1.3-0.59,1.93-0.94l0.36,0.64
		C138.98,190.59,138.3,190.92,137.62,191.21z M118.18,190.36c-0.67-0.27-1.35-0.57-2.02-0.88l0.31-0.66
		c0.67,0.31,1.33,0.6,1.99,0.87L118.18,190.36z M141.51,189.04l-0.42-0.6c0.58-0.41,1.14-0.86,1.68-1.34l0.48,0.55
		C142.69,188.15,142.11,188.62,141.51,189.04z M114.18,188.49c-0.64-0.34-1.29-0.69-1.93-1.06l0.37-0.63
		c0.64,0.37,1.27,0.72,1.91,1.05L114.18,188.49z M110.36,186.29c-0.61-0.39-1.23-0.79-1.84-1.21l0.41-0.61
		c0.61,0.41,1.22,0.81,1.82,1.19L110.36,186.29z M144.85,186.11l-0.54-0.5c0.48-0.52,0.96-1.07,1.4-1.64l0.58,0.45
		C145.83,185.01,145.34,185.58,144.85,186.11z M106.72,183.82c-0.59-0.43-1.17-0.87-1.76-1.32l0.45-0.58
		c0.58,0.45,1.16,0.88,1.74,1.31L106.72,183.82z M147.59,182.63l-0.61-0.41c0.39-0.58,0.77-1.2,1.13-1.84l0.64,0.36
		C148.37,181.39,147.98,182.03,147.59,182.63z M103.23,181.13c-0.56-0.46-1.12-0.93-1.69-1.41l0.48-0.56
		c0.56,0.48,1.11,0.95,1.67,1.4L103.23,181.13z M149.77,178.78l-0.66-0.32c0.31-0.64,0.61-1.3,0.89-1.98l0.68,0.28
		C150.39,177.46,150.09,178.13,149.77,178.78z M99.9,178.27c-0.54-0.48-1.08-0.98-1.62-1.49l0.5-0.53c0.54,0.5,1.07,1,1.61,1.48
		L99.9,178.27z M96.7,175.26c-0.52-0.51-1.04-1.03-1.55-1.56l0.52-0.51c0.51,0.52,1.03,1.04,1.54,1.54L96.7,175.26z M151.48,174.71
		l-0.69-0.25c0.24-0.67,0.47-1.36,0.69-2.06l0.7,0.22C151.95,173.33,151.72,174.03,151.48,174.71z M93.62,172.12
		c-0.5-0.53-1-1.07-1.49-1.61l0.54-0.49c0.49,0.54,0.99,1.08,1.48,1.6L93.62,172.12z M152.78,170.49l-0.71-0.19
		c0.18-0.69,0.35-1.4,0.51-2.11l0.71,0.16C153.14,169.08,152.97,169.79,152.78,170.49z M90.67,168.87c-0.48-0.55-0.96-1.1-1.44-1.66
		l0.56-0.47c0.47,0.56,0.95,1.11,1.43,1.65L90.67,168.87z M153.75,166.2l-0.72-0.14c0.13-0.7,0.26-1.42,0.37-2.15l0.72,0.11
		C154.01,164.76,153.88,165.49,153.75,166.2z M87.82,165.52c-0.46-0.56-0.92-1.13-1.38-1.71l0.57-0.46c0.46,0.57,0.92,1.14,1.38,1.7
		L87.82,165.52z M85.08,162.09c-0.45-0.57-0.89-1.16-1.33-1.74l0.58-0.44c0.44,0.59,0.88,1.16,1.33,1.74L85.08,162.09z
		 M154.43,161.85l-0.73-0.09c0.09-0.71,0.17-1.44,0.24-2.17l0.73,0.07C154.6,160.4,154.52,161.13,154.43,161.85z M82.44,158.59
		c-0.43-0.59-0.86-1.18-1.29-1.78l0.6-0.42c0.42,0.6,0.85,1.19,1.28,1.77L82.44,158.59z M154.87,157.47l-0.73-0.05
		c0.05-0.72,0.1-1.44,0.14-2.18l0.73,0.04C154.96,156.02,154.92,156.75,154.87,157.47z M79.89,155.01c-0.42-0.6-0.83-1.2-1.24-1.81
		l0.61-0.41c0.41,0.61,0.82,1.21,1.23,1.8L79.89,155.01z M155.09,153.08l-0.73-0.02c0.02-0.72,0.03-1.45,0.04-2.18l0.73,0.01
		C155.12,151.62,155.11,152.36,155.09,153.08z M77.43,151.37c-0.4-0.61-0.8-1.22-1.19-1.84l0.62-0.39c0.39,0.62,0.79,1.23,1.19,1.83
		L77.43,151.37z M154.39,148.7c-0.01-0.72-0.02-1.45-0.05-2.18l0.73-0.02c0.02,0.74,0.04,1.47,0.05,2.2L154.39,148.7z M75.07,147.68
		c-0.39-0.62-0.77-1.24-1.15-1.87l0.63-0.38c0.38,0.63,0.76,1.25,1.15,1.86L75.07,147.68z M154.26,144.33
		c-0.04-0.72-0.08-1.45-0.13-2.18l0.73-0.05c0.05,0.74,0.09,1.47,0.13,2.19L154.26,144.33z M72.79,143.93
		c-0.37-0.63-0.74-1.26-1.11-1.89l0.63-0.37c0.37,0.63,0.73,1.26,1.1,1.89L72.79,143.93z M70.59,140.13
		c-0.36-0.63-0.71-1.27-1.07-1.92l0.64-0.35c0.35,0.64,0.71,1.28,1.06,1.91L70.59,140.13z M153.97,139.98
		c-0.06-0.72-0.12-1.45-0.19-2.18l0.73-0.07c0.07,0.73,0.14,1.46,0.2,2.19L153.97,139.98z M68.48,136.28
		c-0.34-0.64-0.69-1.29-1.03-1.94l0.65-0.34c0.34,0.65,0.68,1.29,1.02,1.93L68.48,136.28z M153.55,135.63
		c-0.08-0.72-0.17-1.44-0.26-2.17l0.73-0.09c0.09,0.73,0.18,1.46,0.26,2.18L153.55,135.63z M66.44,132.4
		c-0.33-0.65-0.66-1.3-0.99-1.96l0.66-0.33c0.33,0.66,0.65,1.31,0.98,1.95L66.44,132.4z M153,131.29c-0.1-0.72-0.21-1.44-0.32-2.16
		l0.72-0.11c0.11,0.73,0.22,1.45,0.32,2.17L153,131.29z M64.49,128.47c-0.32-0.66-0.63-1.32-0.95-1.98l0.66-0.31
		c0.31,0.66,0.63,1.32,0.94,1.97L64.49,128.47z M152.33,126.97c-0.12-0.71-0.25-1.43-0.38-2.15l0.72-0.13
		c0.13,0.72,0.26,1.44,0.38,2.16L152.33,126.97z M62.62,124.5c-0.31-0.66-0.61-1.33-0.91-2l0.67-0.3c0.3,0.67,0.6,1.33,0.91,1.99
		L62.62,124.5z M151.54,122.67c-0.14-0.71-0.28-1.42-0.43-2.14l0.72-0.15c0.15,0.72,0.29,1.44,0.43,2.15L151.54,122.67z
		 M60.82,120.5c-0.29-0.67-0.58-1.34-0.87-2.01l0.67-0.29c0.29,0.67,0.58,1.34,0.87,2.01L60.82,120.5z M150.65,118.39
		c-0.16-0.71-0.32-1.42-0.48-2.13l0.71-0.17c0.17,0.72,0.33,1.43,0.48,2.14L150.65,118.39z M59.1,116.46l-0.04-0.09
		c-0.28-0.68-0.56-1.36-0.83-2.04l0.68-0.27c0.27,0.67,0.55,1.35,0.83,2.02l0.04,0.11L59.1,116.46z M149.66,114.14
		c-0.17-0.71-0.35-1.41-0.53-2.12l0.71-0.18c0.18,0.71,0.36,1.42,0.53,2.13L149.66,114.14z M57.42,112.29
		c-0.27-0.68-0.53-1.36-0.79-2.05l0.68-0.26c0.26,0.68,0.52,1.36,0.79,2.04L57.42,112.29z M148.58,109.9
		c-0.19-0.7-0.38-1.4-0.58-2.11l0.71-0.2c0.2,0.71,0.39,1.41,0.58,2.12L148.58,109.9z M55.85,108.19c-0.25-0.69-0.5-1.38-0.75-2.06
		l0.69-0.25c0.25,0.68,0.49,1.37,0.75,2.05L55.85,108.19z M147.4,105.69c-0.2-0.7-0.41-1.4-0.62-2.1l0.7-0.21
		c0.21,0.7,0.42,1.4,0.62,2.1L147.4,105.69z M54.37,104.06c-0.24-0.69-0.48-1.39-0.71-2.08l0.69-0.23c0.23,0.69,0.47,1.38,0.71,2.07
		L54.37,104.06z M146.13,101.51c-0.22-0.69-0.44-1.39-0.67-2.08l0.7-0.23c0.23,0.7,0.45,1.39,0.67,2.09L146.13,101.51z M52.98,99.91
		c-0.23-0.7-0.45-1.39-0.67-2.09l0.7-0.22c0.22,0.69,0.44,1.39,0.67,2.08L52.98,99.91z M144.78,97.35
		c-0.23-0.69-0.47-1.38-0.71-2.07l0.69-0.24c0.24,0.69,0.48,1.38,0.71,2.08L144.78,97.35z M51.66,95.72c-0.21-0.7-0.42-1.4-0.62-2.1
		l0.7-0.2c0.2,0.7,0.41,1.4,0.62,2.1L51.66,95.72z M143.34,93.22c-0.25-0.68-0.49-1.37-0.75-2.05l0.69-0.25
		c0.25,0.69,0.5,1.38,0.75,2.06L143.34,93.22z M50.44,91.51c-0.2-0.71-0.39-1.41-0.58-2.12l0.71-0.19c0.19,0.7,0.38,1.4,0.58,2.11
		L50.44,91.51z M141.83,89.12c-0.26-0.68-0.52-1.36-0.79-2.04l0.68-0.27c0.27,0.68,0.53,1.36,0.79,2.05L141.83,89.12z M49.3,87.27
		c-0.18-0.71-0.36-1.42-0.53-2.13l0.71-0.17c0.17,0.71,0.35,1.41,0.53,2.12L49.3,87.27z M140.23,85.05
		c-0.26-0.66-0.53-1.31-0.81-1.97l0.32-0.19l0.34-0.14l0.02,0.05c0.27,0.66,0.54,1.32,0.81,1.98L140.23,85.05z M48.26,83.01
		c-0.17-0.72-0.33-1.43-0.48-2.14l0.71-0.16c0.16,0.71,0.32,1.42,0.48,2.13L48.26,83.01z M138.56,81.01
		c-0.29-0.67-0.58-1.34-0.87-2.01l0.67-0.29c0.29,0.67,0.58,1.34,0.87,2.01L138.56,81.01z M47.32,78.72
		c-0.15-0.72-0.29-1.44-0.43-2.15l0.72-0.14c0.14,0.71,0.28,1.43,0.43,2.14L47.32,78.72z M136.8,77c-0.3-0.67-0.6-1.33-0.9-1.99
		l0.66-0.31c0.31,0.66,0.61,1.33,0.91,2L136.8,77z M46.48,74.41c-0.13-0.72-0.26-1.44-0.38-2.16l0.72-0.12
		c0.12,0.71,0.25,1.43,0.38,2.15L46.48,74.41z M134.98,73.03c-0.31-0.66-0.63-1.32-0.94-1.97l0.66-0.32
		c0.32,0.66,0.63,1.32,0.95,1.98L134.98,73.03z M45.75,70.08c-0.11-0.73-0.22-1.45-0.32-2.17l0.72-0.1c0.1,0.72,0.21,1.44,0.32,2.16
		L45.75,70.08z M133.07,69.1c-0.33-0.66-0.65-1.31-0.98-1.95l0.65-0.33c0.33,0.65,0.66,1.3,0.99,1.96L133.07,69.1z M45.13,65.74
		c-0.09-0.73-0.18-1.46-0.26-2.18l0.73-0.08c0.08,0.72,0.17,1.44,0.26,2.17L45.13,65.74z M131.09,65.2
		c-0.34-0.65-0.68-1.29-1.02-1.93l0.64-0.35c0.34,0.64,0.69,1.29,1.03,1.94L131.09,65.2z M44.64,61.37
		c-0.07-0.73-0.14-1.46-0.2-2.19l0.73-0.06c0.06,0.72,0.12,1.45,0.19,2.18L44.64,61.37z M129.02,61.35
		c-0.35-0.64-0.71-1.28-1.06-1.91l0.64-0.36c0.36,0.63,0.71,1.27,1.07,1.92L129.02,61.35z M126.87,57.54
		c-0.37-0.63-0.73-1.26-1.1-1.89l0.63-0.37c0.37,0.63,0.74,1.26,1.11,1.89L126.87,57.54z M44.29,57c-0.05-0.74-0.09-1.47-0.12-2.19
		l0.73-0.04c0.04,0.72,0.08,1.45,0.12,2.18L44.29,57z M124.64,53.77c-0.38-0.63-0.76-1.25-1.15-1.86l0.62-0.39
		c0.39,0.62,0.77,1.24,1.15,1.87L124.64,53.77z M44.08,52.61c-0.02-0.74-0.04-1.47-0.05-2.2l0.73-0.01
		c0.01,0.72,0.02,1.45,0.05,2.18L44.08,52.61z M122.33,50.07c-0.39-0.62-0.79-1.23-1.19-1.83l0.61-0.4c0.4,0.61,0.8,1.22,1.19,1.84
		L122.33,50.07z M44.76,48.22l-0.73-0.01c0.01-0.74,0.02-1.47,0.04-2.2l0.73,0.02C44.78,46.76,44.76,47.49,44.76,48.22z
		 M119.93,46.41c-0.41-0.61-0.82-1.21-1.23-1.8l0.6-0.42c0.41,0.6,0.83,1.2,1.24,1.81L119.93,46.41z M44.89,43.86l-0.73-0.04
		c0.04-0.74,0.08-1.47,0.14-2.19l0.73,0.05C44.97,42.4,44.92,43.13,44.89,43.86z M117.44,42.82c-0.43-0.6-0.85-1.19-1.28-1.77
		l0.59-0.43c0.43,0.59,0.86,1.18,1.28,1.78L117.44,42.82z M45.21,39.51l-0.73-0.07c0.07-0.74,0.16-1.47,0.25-2.19l0.73,0.09
		C45.37,38.06,45.29,38.78,45.21,39.51z M114.86,39.29c-0.44-0.59-0.88-1.16-1.33-1.74l0.58-0.45c0.45,0.57,0.89,1.16,1.33,1.75
		L114.86,39.29z M112.18,35.84c-0.46-0.57-0.92-1.14-1.38-1.7l0.56-0.47c0.46,0.56,0.92,1.13,1.38,1.71L112.18,35.84z M45.76,35.19
		l-0.72-0.11c0.12-0.73,0.24-1.46,0.38-2.17l0.72,0.14C46,33.75,45.88,34.46,45.76,35.19z M109.4,32.47
		c-0.47-0.56-0.95-1.11-1.43-1.65l0.55-0.48c0.48,0.55,0.96,1.1,1.44,1.66L109.4,32.47z M46.58,30.91l-0.71-0.16
		c0.16-0.73,0.34-1.44,0.52-2.14l0.71,0.19C46.91,29.49,46.74,30.19,46.58,30.91z M106.52,29.18c-0.49-0.54-0.99-1.08-1.48-1.6
		l0.53-0.5c0.5,0.53,1,1.07,1.49,1.61L106.52,29.18z M47.7,26.71L47,26.49c0.22-0.71,0.45-1.41,0.7-2.09l0.69,0.25
		C48.14,25.32,47.91,26,47.7,26.71z M103.53,26.01c-0.51-0.52-1.03-1.04-1.54-1.55l0.51-0.52c0.52,0.51,1.03,1.03,1.55,1.56
		L103.53,26.01z M100.41,22.95c-0.53-0.5-1.07-1-1.6-1.48l0.49-0.54c0.54,0.49,1.08,0.98,1.62,1.49L100.41,22.95z M49.17,22.62
		l-0.68-0.28c0.29-0.69,0.6-1.37,0.91-2.01l0.66,0.32C49.76,21.28,49.46,21.94,49.17,22.62z M97.17,20.03
		c-0.56-0.48-1.12-0.95-1.67-1.4l0.46-0.57c0.56,0.46,1.12,0.93,1.69,1.41L97.17,20.03z M51.08,18.73l-0.64-0.36
		c0.37-0.65,0.76-1.28,1.16-1.89l0.61,0.41C51.82,17.48,51.43,18.1,51.08,18.73z M93.79,17.27c-0.58-0.45-1.16-0.89-1.74-1.31
		l0.43-0.59c0.59,0.43,1.17,0.87,1.76,1.32L93.79,17.27z M53.48,15.14l-0.57-0.45c0.46-0.59,0.95-1.15,1.45-1.68l0.53,0.5
		C54.4,14.02,53.93,14.57,53.48,15.14z M90.27,14.71c-0.61-0.41-1.21-0.81-1.82-1.19l0.39-0.62c0.61,0.39,1.23,0.79,1.84,1.21
		L90.27,14.71z M86.59,12.39c-0.64-0.37-1.27-0.72-1.9-1.05l0.34-0.65c0.64,0.34,1.28,0.69,1.93,1.07L86.59,12.39z M56.43,12.01
		l-0.48-0.55c0.56-0.49,1.15-0.96,1.75-1.38l0.42,0.6C57.54,11.09,56.97,11.54,56.43,12.01z M82.74,10.37
		c-0.67-0.31-1.33-0.6-1.99-0.87l0.28-0.68c0.67,0.27,1.34,0.57,2.02,0.89L82.74,10.37z M59.93,9.54L59.58,8.9
		c0.65-0.36,1.32-0.68,2-0.97l0.28,0.68C61.21,8.88,60.56,9.19,59.93,9.54z M78.72,8.74c-0.69-0.24-1.38-0.45-2.07-0.64l0.19-0.71
		c0.7,0.19,1.41,0.41,2.11,0.65L78.72,8.74z M63.89,7.89l-0.2-0.7c0.71-0.21,1.44-0.37,2.17-0.5l0.13,0.72
		C65.28,7.53,64.57,7.7,63.89,7.89z M74.55,7.6c-0.71-0.14-1.43-0.25-2.13-0.34l0.09-0.73c0.72,0.08,1.46,0.2,2.19,0.35L74.55,7.6z
		 M68.12,7.15l-0.05-0.73c0.73-0.05,1.47-0.07,2.22-0.04l-0.02,0.73C69.55,7.09,68.83,7.1,68.12,7.15z"/>
	<path class="st0" d="M99.58,199.16C44.67,199.16,0,154.49,0,99.58C0,44.67,44.67,0,99.58,0c54.91,0,99.58,44.67,99.58,99.58
		C199.16,154.49,154.49,199.16,99.58,199.16z M99.58,1.46c-54.1,0-98.11,44.01-98.11,98.11s44.01,98.11,98.11,98.11
		c54.1,0,98.11-44.01,98.11-98.11S153.68,1.46,99.58,1.46z"/>
</g>
</svg>
