<?xml version="1.0" encoding="utf-8"?>
<!-- Generator: Adobe Illustrator 23.0.3, SVG Export Plug-In . SVG Version: 6.00 Build 0)  -->
<svg version="1.1" id="Layer_1" xmlns="http://www.w3.org/2000/svg" xmlns:xlink="http://www.w3.org/1999/xlink" x="0px" y="0px"
	 viewBox="0 0 199.76 199.76" style="enable-background:new 0 0 199.76 199.76;" xml:space="preserve">
<style type="text/css">
	.st0{fill:#231F20;}
</style>
<g>
	<g>
		<rect x="99.52" y="197.63" class="st0" width="0.73" height="1.1"/>
		<path class="st0" d="M100.25,195.43h-0.73v-2.2h0.73V195.43z M100.25,191.04h-0.73v-2.2h0.73V191.04z M100.25,186.65h-0.73v-2.2
			h0.73V186.65z M100.25,182.25h-0.73v-2.2h0.73V182.25z M100.25,177.86h-0.73v-2.2h0.73V177.86z M100.25,173.47h-0.73v-2.2h0.73
			V173.47z M100.25,169.07h-0.73v-2.2h0.73V169.07z M100.25,164.68h-0.73v-2.2h0.73V164.68z M100.25,160.29h-0.73v-2.2h0.73V160.29z
			 M100.25,155.89h-0.73v-2.2h0.73V155.89z M100.25,151.5h-0.73v-2.2h0.73V151.5z M100.25,147.11h-0.73v-2.2h0.73V147.11z
			 M100.25,142.71h-0.73v-2.2h0.73V142.71z M100.25,138.32h-0.73v-2.2h0.73V138.32z M100.25,133.93h-0.73v-2.2h0.73V133.93z
			 M100.25,129.54h-0.73v-2.2h0.73V129.54z M100.25,125.14h-0.73v-2.2h0.73V125.14z M100.25,120.75h-0.73v-2.2h0.73V120.75z
			 M100.25,116.36h-0.73v-2.2h0.73V116.36z M100.25,111.96h-0.73v-2.2h0.73V111.96z M100.25,107.57h-0.73v-2.2h0.73V107.57z
			 M100.25,103.18h-0.73v-2.2h0.73V103.18z M100.25,98.78h-0.73v-2.2h0.73V98.78z M100.25,94.39h-0.73v-2.2h0.73V94.39z M100.25,90
			h-0.73v-2.2h0.73V90z M100.25,85.6h-0.73v-2.2h0.73V85.6z M100.25,81.21h-0.73v-2.2h0.73V81.21z M100.25,76.82h-0.73v-2.2h0.73
			V76.82z M100.25,72.42h-0.73v-2.2h0.73V72.42z M100.25,68.03h-0.73v-2.2h0.73V68.03z M100.25,63.64h-0.73v-2.2h0.73V63.64z
			 M100.25,59.24h-0.73v-2.2h0.73V59.24z M100.25,54.85h-0.73v-2.2h0.73V54.85z M100.25,50.46h-0.73v-2.2h0.73V50.46z M100.25,46.07
			h-0.73v-2.2h0.73V46.07z M100.25,41.67h-0.73v-2.2h0.73V41.67z M100.25,37.28h-0.73v-2.2h0.73V37.28z M100.25,32.89h-0.73v-2.2
			h0.73V32.89z M100.25,28.49h-0.73v-2.2h0.73V28.49z M100.25,24.1h-0.73v-2.2h0.73V24.1z M100.25,19.71h-0.73v-2.2h0.73V19.71z
			 M100.25,15.31h-0.73v-2.2h0.73V15.31z M100.25,10.92h-0.73v-2.2h0.73V10.92z M100.25,6.53h-0.73v-2.2h0.73V6.53z"/>
		<rect x="99.52" y="1.04" class="st0" width="0.73" height="1.1"/>
	</g>
	<g>
		<rect x="1.04" y="99.52" class="st0" width="1.1" height="0.73"/>
		<path class="st0" d="M195.43,100.25h-2.2v-0.73h2.2V100.25z M191.04,100.25h-2.2v-0.73h2.2V100.25z M186.65,100.25h-2.2v-0.73h2.2
			V100.25z M182.25,100.25h-2.2v-0.73h2.2V100.25z M177.86,100.25h-2.2v-0.73h2.2V100.25z M173.47,100.25h-2.2v-0.73h2.2V100.25z
			 M169.07,100.25h-2.2v-0.73h2.2V100.25z M164.68,100.25h-2.2v-0.73h2.2V100.25z M160.29,100.25h-2.2v-0.73h2.2V100.25z
			 M155.89,100.25h-2.2v-0.73h2.2V100.25z M151.5,100.25h-2.2v-0.73h2.2V100.25z M147.11,100.25h-2.2v-0.73h2.2V100.25z
			 M142.71,100.25h-2.2v-0.73h2.2V100.25z M138.32,100.25h-2.2v-0.73h2.2V100.25z M133.93,100.25h-2.2v-0.73h2.2V100.25z
			 M129.54,100.25h-2.2v-0.73h2.2V100.25z M125.14,100.25h-2.2v-0.73h2.2V100.25z M120.75,100.25h-2.2v-0.73h2.2V100.25z
			 M116.36,100.25h-2.2v-0.73h2.2V100.25z M111.96,100.25h-2.2v-0.73h2.2V100.25z M107.57,100.25h-2.2v-0.73h2.2V100.25z
			 M103.18,100.25h-2.2v-0.73h2.2V100.25z M98.78,100.25h-2.2v-0.73h2.2V100.25z M94.39,100.25h-2.2v-0.73h2.2V100.25z M90,100.25
			h-2.2v-0.73H90V100.25z M85.6,100.25h-2.2v-0.73h2.2V100.25z M81.21,100.25h-2.2v-0.73h2.2V100.25z M76.82,100.25h-2.2v-0.73h2.2
			V100.25z M72.42,100.25h-2.2v-0.73h2.2V100.25z M68.03,100.25h-2.2v-0.73h2.2V100.25z M63.64,100.25h-2.2v-0.73h2.2V100.25z
			 M59.24,100.25h-2.2v-0.73h2.2V100.25z M54.85,100.25h-2.2v-0.73h2.2V100.25z M50.46,100.25h-2.2v-0.73h2.2V100.25z M46.07,100.25
			h-2.2v-0.73h2.2V100.25z M41.67,100.25h-2.2v-0.73h2.2V100.25z M37.28,100.25h-2.2v-0.73h2.2V100.25z M32.89,100.25h-2.2v-0.73
			h2.2V100.25z M28.49,100.25h-2.2v-0.73h2.2V100.25z M24.1,100.25h-2.2v-0.73h2.2V100.25z M19.71,100.25h-2.2v-0.73h2.2V100.25z
			 M15.31,100.25h-2.2v-0.73h2.2V100.25z M10.92,100.25h-2.2v-0.73h2.2V100.25z M6.53,100.25h-2.2v-0.73h2.2V100.25z"/>
		<rect x="197.63" y="99.52" class="st0" width="1.1" height="0.73"/>
	</g>
	<g>
		
			<rect x="50.3" y="148.55" transform="matrix(0.7071 -0.7071 0.7071 0.7071 -90.4071 79.571)" class="st0" width="1.1" height="0.73"/>
		<path class="st0" d="M53.04,147.24l-0.52-0.52l1.54-1.54l0.52,0.52L53.04,147.24z M56.13,144.15l-0.52-0.52l1.54-1.54l0.52,0.52
			L56.13,144.15z M59.22,141.07l-0.52-0.52l1.54-1.54l0.52,0.52L59.22,141.07z M62.3,137.98l-0.52-0.52l1.54-1.54l0.52,0.52
			L62.3,137.98z M65.39,134.89l-0.52-0.52l1.54-1.54l0.52,0.52L65.39,134.89z M68.48,131.8l-0.52-0.52l1.54-1.54l0.52,0.52
			L68.48,131.8z M71.57,128.71l-0.52-0.52l1.54-1.54l0.52,0.52L71.57,128.71z M74.66,125.62l-0.52-0.52l1.54-1.54l0.52,0.52
			L74.66,125.62z M77.75,122.53l-0.52-0.52l1.54-1.54l0.52,0.52L77.75,122.53z M80.84,119.44l-0.52-0.52l1.54-1.54l0.52,0.52
			L80.84,119.44z M83.92,116.36l-0.52-0.52l1.54-1.54l0.52,0.52L83.92,116.36z M87.01,113.27l-0.52-0.52l1.54-1.54l0.52,0.52
			L87.01,113.27z M90.1,110.18l-0.52-0.52l1.54-1.54l0.52,0.52L90.1,110.18z M93.19,107.09l-0.52-0.52l1.54-1.54l0.52,0.52
			L93.19,107.09z M96.28,104l-0.52-0.52l1.54-1.54l0.52,0.52L96.28,104z M99.37,100.91l-0.52-0.52l1.54-1.54l0.52,0.52L99.37,100.91
			z M102.46,97.82l-0.52-0.52l1.54-1.54l0.52,0.52L102.46,97.82z M105.55,94.73l-0.52-0.52l1.54-1.54l0.52,0.52L105.55,94.73z
			 M108.63,91.65l-0.52-0.52l1.54-1.54l0.52,0.52L108.63,91.65z M111.72,88.56l-0.52-0.52l1.54-1.54l0.52,0.52L111.72,88.56z
			 M114.81,85.47l-0.52-0.52l1.54-1.54l0.52,0.52L114.81,85.47z M117.9,82.38l-0.52-0.52l1.54-1.54l0.52,0.52L117.9,82.38z
			 M120.99,79.29l-0.52-0.52l1.54-1.54l0.52,0.52L120.99,79.29z M124.08,76.2l-0.52-0.52l1.54-1.54l0.52,0.52L124.08,76.2z
			 M127.17,73.11l-0.52-0.52l1.54-1.54l0.52,0.52L127.17,73.11z M130.25,70.03l-0.52-0.52l1.54-1.54l0.52,0.52L130.25,70.03z
			 M133.34,66.94l-0.52-0.52l1.54-1.54l0.52,0.52L133.34,66.94z M136.43,63.85l-0.52-0.52l1.54-1.54l0.52,0.52L136.43,63.85z
			 M139.52,60.76L139,60.24l1.54-1.54l0.52,0.52L139.52,60.76z M142.61,57.67l-0.52-0.52l1.54-1.54l0.52,0.52L142.61,57.67z
			 M145.7,54.58l-0.52-0.52l1.54-1.54l0.52,0.52L145.7,54.58z"/>
		
			<rect x="148.37" y="50.48" transform="matrix(0.7072 -0.707 0.707 0.7072 7.6557 120.179)" class="st0" width="1.1" height="0.73"/>
	</g>
	<g>
		
			<rect x="50.48" y="50.3" transform="matrix(0.7073 -0.7069 0.7069 0.7073 -21.0614 50.824)" class="st0" width="0.73" height="1.1"/>
		<path class="st0" d="M146.72,147.24l-1.54-1.54l0.52-0.52l1.54,1.54L146.72,147.24z M143.64,144.15l-1.54-1.54l0.52-0.52
			l1.54,1.54L143.64,144.15z M140.55,141.07l-1.54-1.54l0.52-0.52l1.55,1.54L140.55,141.07z M137.46,137.98l-1.54-1.54l0.52-0.52
			l1.54,1.54L137.46,137.98z M134.37,134.89l-1.54-1.54l0.52-0.52l1.54,1.54L134.37,134.89z M131.28,131.8l-1.54-1.54l0.52-0.52
			l1.54,1.54L131.28,131.8z M128.19,128.71l-1.54-1.54l0.52-0.52l1.54,1.54L128.19,128.71z M125.1,125.62l-1.54-1.54l0.52-0.52
			l1.54,1.54L125.1,125.62z M122.02,122.53l-1.54-1.54l0.52-0.52l1.54,1.54L122.02,122.53z M118.93,119.44l-1.54-1.54l0.52-0.52
			l1.54,1.54L118.93,119.44z M115.84,116.36l-1.54-1.54l0.52-0.52l1.54,1.54L115.84,116.36z M112.75,113.27l-1.54-1.54l0.52-0.52
			l1.54,1.54L112.75,113.27z M109.66,110.18l-1.54-1.54l0.52-0.52l1.54,1.54L109.66,110.18z M106.57,107.09l-1.54-1.54l0.52-0.52
			l1.54,1.54L106.57,107.09z M103.48,104l-1.54-1.54l0.52-0.52l1.54,1.54L103.48,104z M100.39,100.91l-1.54-1.54l0.52-0.52
			l1.54,1.54L100.39,100.91z M97.31,97.82l-1.54-1.54l0.52-0.52l1.54,1.54L97.31,97.82z M94.22,94.73l-1.54-1.54l0.52-0.52
			l1.54,1.54L94.22,94.73z M91.13,91.65l-1.54-1.54l0.52-0.52l1.54,1.54L91.13,91.65z M88.04,88.56l-1.54-1.54l0.52-0.52l1.54,1.54
			L88.04,88.56z M84.95,85.47l-1.54-1.54l0.52-0.52l1.54,1.54L84.95,85.47z M81.86,82.38l-1.54-1.54l0.52-0.52l1.54,1.54
			L81.86,82.38z M78.77,79.29l-1.54-1.54l0.52-0.52l1.54,1.54L78.77,79.29z M75.69,76.2l-1.54-1.54l0.52-0.52l1.54,1.54L75.69,76.2z
			 M72.6,73.11l-1.54-1.54l0.52-0.52l1.54,1.54L72.6,73.11z M69.51,70.03l-1.54-1.54l0.52-0.52l1.54,1.54L69.51,70.03z M66.42,66.94
			l-1.54-1.54l0.52-0.52l1.54,1.54L66.42,66.94z M63.33,63.85l-1.54-1.54l0.52-0.52l1.55,1.54L63.33,63.85z M60.24,60.76l-1.54-1.54
			l0.52-0.52l1.54,1.54L60.24,60.76z M57.15,57.67l-1.54-1.54l0.52-0.52l1.54,1.54L57.15,57.67z M54.06,54.58l-1.54-1.54l0.52-0.52
			l1.54,1.54L54.06,54.58z"/>
		
			<rect x="148.55" y="148.37" transform="matrix(0.7072 -0.7071 0.7071 0.7072 -61.6832 148.903)" class="st0" width="0.73" height="1.1"/>
	</g>
	<path class="st0" d="M99.88,199.76l-0.52-0.52L0,99.88L99.88,0l0.52,0.52l99.36,99.36L99.88,199.76z M2.07,99.88l97.81,97.81
		l97.81-97.81L99.88,2.07L2.07,99.88z"/>
</g>
</svg>
