<svg id="b313fac2-bc20-4c2d-b38f-f58fdf8eb49d" data-name="Layer 1" xmlns="http://www.w3.org/2000/svg" viewBox="0 0 290.61 335.16"><defs><style>.a1e0ce57-de41-4e9c-a170-bfd11df7b74c,.a488d87b-78e2-4d75-a668-47609cd9521e,.a4e381ec-0262-4a07-aa00-3c00fd710585,.b0c8c330-6f07-4275-b646-f65275007205,.ba9595d1-0c6b-4f71-8bff-a9e1d5db7c61{fill:none;stroke:#000000;;stroke-linecap:round;stroke-linejoin:round;stroke-width:2.66px;}.ba9595d1-0c6b-4f71-8bff-a9e1d5db7c61{stroke-dasharray:0 22.97;}.a4e381ec-0262-4a07-aa00-3c00fd710585{stroke-dasharray:34.46 22.97 0 22.97;}.b0c8c330-6f07-4275-b646-f65275007205{stroke-dasharray:0 23.41;}.a1e0ce57-de41-4e9c-a170-bfd11df7b74c{stroke-dasharray:35.11 23.41 0 23.41;}</style></defs><title>06u</title><g id="a5447550-aef1-4e3e-8224-39cc459e2aed" data-name="EXTRA"><line class="a488d87b-78e2-4d75-a668-47609cd9521e" x1="1.33" y1="84.45" x2="18.61" y2="74.48"/><line class="ba9595d1-0c6b-4f71-8bff-a9e1d5db7c61" x1="38.5" y1="62.99" x2="48.45" y2="57.25"/><line class="a4e381ec-0262-4a07-aa00-3c00fd710585" x1="58.4" y1="51.51" x2="118.08" y2="17.05"/><line class="a488d87b-78e2-4d75-a668-47609cd9521e" x1="128.03" y1="11.31" x2="145.31" y2="1.33"/><line class="a488d87b-78e2-4d75-a668-47609cd9521e" x1="1.33" y1="84.45" x2="18.61" y2="94.43"/><line class="b0c8c330-6f07-4275-b646-f65275007205" x1="38.88" y1="106.13" x2="49.02" y2="111.99"/><line class="a1e0ce57-de41-4e9c-a170-bfd11df7b74c" x1="59.15" y1="117.84" x2="261.87" y2="234.88"/><line class="a488d87b-78e2-4d75-a668-47609cd9521e" x1="272.01" y1="240.73" x2="289.28" y2="250.7"/><line class="a488d87b-78e2-4d75-a668-47609cd9521e" x1="1.33" y1="84.45" x2="1.33" y2="104.4"/><line class="ba9595d1-0c6b-4f71-8bff-a9e1d5db7c61" x1="1.33" y1="127.38" x2="1.33" y2="138.86"/><line class="a4e381ec-0262-4a07-aa00-3c00fd710585" x1="1.33" y1="150.35" x2="1.33" y2="219.27"/><line class="a488d87b-78e2-4d75-a668-47609cd9521e" x1="1.33" y1="230.76" x2="1.33" y2="250.7"/><line class="a488d87b-78e2-4d75-a668-47609cd9521e" x1="145.31" y1="1.33" x2="162.58" y2="11.31"/><line class="ba9595d1-0c6b-4f71-8bff-a9e1d5db7c61" x1="182.48" y1="22.79" x2="192.43" y2="28.53"/><line class="a4e381ec-0262-4a07-aa00-3c00fd710585" x1="202.37" y1="34.28" x2="262.06" y2="68.74"/><line class="a488d87b-78e2-4d75-a668-47609cd9521e" x1="272.01" y1="74.48" x2="289.28" y2="84.45"/><line class="a488d87b-78e2-4d75-a668-47609cd9521e" x1="145.31" y1="1.33" x2="145.31" y2="21.28"/><line class="b0c8c330-6f07-4275-b646-f65275007205" x1="145.31" y1="44.69" x2="145.31" y2="56.39"/><line class="a1e0ce57-de41-4e9c-a170-bfd11df7b74c" x1="145.31" y1="68.1" x2="145.31" y2="302.18"/><line class="a488d87b-78e2-4d75-a668-47609cd9521e" x1="145.31" y1="313.88" x2="145.31" y2="333.83"/><line class="a488d87b-78e2-4d75-a668-47609cd9521e" x1="289.28" y1="84.45" x2="289.28" y2="104.4"/><line class="ba9595d1-0c6b-4f71-8bff-a9e1d5db7c61" x1="289.28" y1="127.38" x2="289.28" y2="138.86"/><line class="a4e381ec-0262-4a07-aa00-3c00fd710585" x1="289.28" y1="150.35" x2="289.28" y2="219.27"/><line class="a488d87b-78e2-4d75-a668-47609cd9521e" x1="289.28" y1="230.76" x2="289.28" y2="250.7"/><line class="a488d87b-78e2-4d75-a668-47609cd9521e" x1="289.28" y1="84.45" x2="272.01" y2="94.43"/><line class="b0c8c330-6f07-4275-b646-f65275007205" x1="251.73" y1="106.13" x2="241.6" y2="111.99"/><line class="a1e0ce57-de41-4e9c-a170-bfd11df7b74c" x1="231.46" y1="117.84" x2="28.74" y2="234.88"/><line class="a488d87b-78e2-4d75-a668-47609cd9521e" x1="18.61" y1="240.73" x2="1.33" y2="250.7"/><line class="a488d87b-78e2-4d75-a668-47609cd9521e" x1="289.28" y1="250.7" x2="272.01" y2="260.68"/><line class="ba9595d1-0c6b-4f71-8bff-a9e1d5db7c61" x1="252.11" y1="272.17" x2="242.16" y2="277.91"/><line class="a4e381ec-0262-4a07-aa00-3c00fd710585" x1="232.22" y1="283.65" x2="172.53" y2="318.11"/><line class="a488d87b-78e2-4d75-a668-47609cd9521e" x1="162.58" y1="323.85" x2="145.31" y2="333.83"/><line class="a488d87b-78e2-4d75-a668-47609cd9521e" x1="145.31" y1="333.83" x2="128.03" y2="323.85"/><line class="ba9595d1-0c6b-4f71-8bff-a9e1d5db7c61" x1="108.13" y1="312.37" x2="98.19" y2="306.63"/><line class="a4e381ec-0262-4a07-aa00-3c00fd710585" x1="88.24" y1="300.88" x2="28.55" y2="266.42"/><line class="a488d87b-78e2-4d75-a668-47609cd9521e" x1="18.61" y1="260.68" x2="1.33" y2="250.7"/></g></svg>