<svg id="a939980e-3bc3-472d-badd-e7110fd3b98b" data-name="Layer 1" xmlns="http://www.w3.org/2000/svg" viewBox="0 0 326 376"><defs><style>.a2c285d6-9c86-4063-89f9-486573e61510,.a69cbf87-cff6-4595-a5d0-7ab03d862495,.ad8c54d6-eabb-442b-aa0f-ce5f42cb1e5e,.b9e690e9-9187-4962-abcd-e3745cdf14c4,.bf8dd656-ece9-4e8e-ae95-e00d68854fbb,.f05e4189-9a01-4f39-bb8e-02d96b0b3beb,.f95075e6-c0b9-48f2-947b-8ede788b62a5,.fb0fbce0-fb46-4bf5-b998-bb806ad91f8b{fill:none;}.a2c285d6-9c86-4063-89f9-486573e61510,.a69cbf87-cff6-4595-a5d0-7ab03d862495,.b9e690e9-9187-4962-abcd-e3745cdf14c4,.bf8dd656-ece9-4e8e-ae95-e00d68854fbb,.f05e4189-9a01-4f39-bb8e-02d96b0b3beb,.f95075e6-c0b9-48f2-947b-8ede788b62a5,.fb0fbce0-fb46-4bf5-b998-bb806ad91f8b{stroke:#000;}.f05e4189-9a01-4f39-bb8e-02d96b0b3beb{stroke-linecap:round;stroke-linejoin:round;stroke-width:2px;}.a2c285d6-9c86-4063-89f9-486573e61510,.a69cbf87-cff6-4595-a5d0-7ab03d862495,.b9e690e9-9187-4962-abcd-e3745cdf14c4,.bf8dd656-ece9-4e8e-ae95-e00d68854fbb,.f95075e6-c0b9-48f2-947b-8ede788b62a5,.fb0fbce0-fb46-4bf5-b998-bb806ad91f8b{stroke-miterlimit:10;}.bf8dd656-ece9-4e8e-ae95-e00d68854fbb{stroke-dasharray:1.95 1.95;}.f95075e6-c0b9-48f2-947b-8ede788b62a5{stroke-dasharray:1.94 1.94;}.a69cbf87-cff6-4595-a5d0-7ab03d862495{stroke-dasharray:2.03 2.03;}.b9e690e9-9187-4962-abcd-e3745cdf14c4{stroke-dasharray:2.02 2.02;}.fb0fbce0-fb46-4bf5-b998-bb806ad91f8b{stroke-dasharray:2 2;}</style></defs><title>03u</title><g id="ad1aba85-e44e-4c56-be4f-fa67e6900e11" data-name="straight"><path class="f05e4189-9a01-4f39-bb8e-02d96b0b3beb" d="M163,1,1,94.48v187H1L163,188h0V1Z"/><path class="f05e4189-9a01-4f39-bb8e-02d96b0b3beb" d="M163,188h0L1,281.52,163,375l20.25-11.71,20.28-11.68L223.72,340,244,328.27l20.27-11.69,20.23-11.7,20.23-11.66L325,281.52Z"/><path class="f05e4189-9a01-4f39-bb8e-02d96b0b3beb" d="M325,94.52,163,1V188l162,93.5h0Z"/><line class="a2c285d6-9c86-4063-89f9-486573e61510" x1="162.98" y1="281.54" x2="163.85" y2="281.04"/><polyline class="bf8dd656-ece9-4e8e-ae95-e00d68854fbb" points="165.53 280.06 183.22 269.83 203.47 258.13 203.49 258.13 222.01 247.46"/><polyline class="a2c285d6-9c86-4063-89f9-486573e61510" points="222.85 246.97 223.72 246.47 224.58 246.97"/><line class="f95075e6-c0b9-48f2-947b-8ede788b62a5" x1="226.26" y1="247.94" x2="242.24" y2="257.17"/><polyline class="a2c285d6-9c86-4063-89f9-486573e61510" points="243.08 257.65 243.95 258.15 243.08 258.65"/><polyline class="a69cbf87-cff6-4595-a5d0-7ab03d862495" points="241.32 259.67 223.72 269.83 203.49 281.54 183.22 293.22 164.71 303.89"/><polyline class="a2c285d6-9c86-4063-89f9-486573e61510" points="163.83 304.4 162.96 304.9 162.1 304.4"/><line class="a69cbf87-cff6-4595-a5d0-7ab03d862495" x1="160.34" y1="303.38" x2="83.75" y2="259.16"/><polyline class="a2c285d6-9c86-4063-89f9-486573e61510" points="82.87 258.65 82 258.15 82.87 257.65"/><line class="f95075e6-c0b9-48f2-947b-8ede788b62a5" x1="84.55" y1="256.68" x2="100.54" y2="247.46"/><polyline class="a2c285d6-9c86-4063-89f9-486573e61510" points="101.39 246.97 102.25 246.47 103.12 246.97"/><line class="bf8dd656-ece9-4e8e-ae95-e00d68854fbb" x1="104.8" y1="247.94" x2="161.28" y2="280.55"/><line class="a2c285d6-9c86-4063-89f9-486573e61510" x1="162.12" y1="281.04" x2="162.98" y2="281.54"/><line class="a2c285d6-9c86-4063-89f9-486573e61510" x1="162.98" y1="328.29" x2="163.85" y2="327.79"/><polyline class="b9e690e9-9187-4962-abcd-e3745cdf14c4" points="165.6 326.78 183.24 316.6 223.72 293.22 243.97 281.54 262.46 270.86"/><polyline class="a2c285d6-9c86-4063-89f9-486573e61510" points="263.33 270.36 264.2 269.86 265.06 270.36"/><line class="f95075e6-c0b9-48f2-947b-8ede788b62a5" x1="266.75" y1="271.33" x2="282.74" y2="280.55"/><polyline class="a2c285d6-9c86-4063-89f9-486573e61510" points="283.58 281.04 284.45 281.54 283.58 282.04"/><polyline class="fb0fbce0-fb46-4bf5-b998-bb806ad91f8b" points="281.85 283.04 264.22 293.22 223.72 316.6 203.47 328.29 183.24 339.97 164.72 350.67"/><polyline class="a2c285d6-9c86-4063-89f9-486573e61510" points="163.85 351.17 162.98 351.67 162.12 351.17"/><line class="fb0fbce0-fb46-4bf5-b998-bb806ad91f8b" x1="160.38" y1="350.17" x2="43.23" y2="282.52"/><polyline class="a2c285d6-9c86-4063-89f9-486573e61510" points="42.37 282.02 41.5 281.52 42.37 281.02"/><line class="f95075e6-c0b9-48f2-947b-8ede788b62a5" x1="44.05" y1="280.05" x2="60.04" y2="270.82"/><polyline class="a2c285d6-9c86-4063-89f9-486573e61510" points="60.89 270.33 61.75 269.83 62.62 270.33"/><line class="b9e690e9-9187-4962-abcd-e3745cdf14c4" x1="64.36" y1="271.34" x2="161.25" y2="327.26"/><line class="a2c285d6-9c86-4063-89f9-486573e61510" x1="162.12" y1="327.77" x2="162.98" y2="328.27"/><polyline class="a2c285d6-9c86-4063-89f9-486573e61510" points="162.12 211.9 162.98 211.4 163.85 211.9"/><line class="bf8dd656-ece9-4e8e-ae95-e00d68854fbb" x1="165.54" y1="212.88" x2="201.76" y2="233.78"/><polyline class="a2c285d6-9c86-4063-89f9-486573e61510" points="202.6 234.27 203.47 234.77 202.6 235.27"/><polyline class="bf8dd656-ece9-4e8e-ae95-e00d68854fbb" points="200.91 236.24 183.24 246.45 164.67 257.15"/><polyline class="a2c285d6-9c86-4063-89f9-486573e61510" points="163.83 257.63 162.96 258.13 162.1 257.63"/><line class="bf8dd656-ece9-4e8e-ae95-e00d68854fbb" x1="160.41" y1="256.66" x2="124.19" y2="235.75"/><polyline class="a2c285d6-9c86-4063-89f9-486573e61510" points="123.35 235.27 122.48 234.77 123.35 234.27"/><polyline class="bf8dd656-ece9-4e8e-ae95-e00d68854fbb" points="125.03 233.29 142.73 223.06 161.28 212.39"/><line class="a2c285d6-9c86-4063-89f9-486573e61510" x1="162.98" y1="328.27" x2="162.98" y2="329.27"/><line class="f95075e6-c0b9-48f2-947b-8ede788b62a5" x1="162.98" y1="331.21" x2="162.98" y2="349.68"/><line class="a2c285d6-9c86-4063-89f9-486573e61510" x1="162.98" y1="350.65" x2="162.98" y2="351.65"/><line class="a2c285d6-9c86-4063-89f9-486573e61510" x1="162.98" y1="281.54" x2="162.98" y2="282.54"/><line class="f95075e6-c0b9-48f2-947b-8ede788b62a5" x1="162.98" y1="284.48" x2="162.97" y2="302.93"/><line class="a2c285d6-9c86-4063-89f9-486573e61510" x1="162.96" y1="303.9" x2="162.96" y2="304.9"/><line class="a2c285d6-9c86-4063-89f9-486573e61510" x1="162.98" y1="211.4" x2="162.98" y2="212.4"/><line class="f95075e6-c0b9-48f2-947b-8ede788b62a5" x1="162.98" y1="214.35" x2="162.96" y2="256.16"/><line class="a2c285d6-9c86-4063-89f9-486573e61510" x1="162.96" y1="257.13" x2="162.96" y2="258.13"/><line class="a2c285d6-9c86-4063-89f9-486573e61510" x1="243.98" y1="141.25" x2="243.11" y2="140.76"/><polyline class="bf8dd656-ece9-4e8e-ae95-e00d68854fbb" points="241.43 139.78 223.73 129.59 203.47 117.9 203.46 117.88 184.95 107.18"/><polyline class="a2c285d6-9c86-4063-89f9-486573e61510" points="184.11 106.69 183.25 106.19 183.25 105.19"/><line class="f95075e6-c0b9-48f2-947b-8ede788b62a5" x1="183.25" y1="103.25" x2="183.25" y2="84.8"/><polyline class="a2c285d6-9c86-4063-89f9-486573e61510" points="183.25 83.83 183.25 82.83 184.11 83.33"/><polyline class="a69cbf87-cff6-4595-a5d0-7ab03d862495" points="185.87 84.35 203.48 94.51 223.73 106.18 243.98 117.89 262.48 128.58"/><polyline class="a2c285d6-9c86-4063-89f9-486573e61510" points="263.36 129.09 264.22 129.59 264.22 130.59"/><line class="a69cbf87-cff6-4595-a5d0-7ab03d862495" x1="264.22" y1="132.62" x2="264.22" y2="221.06"/><polyline class="a2c285d6-9c86-4063-89f9-486573e61510" points="264.22 222.08 264.22 223.08 263.35 222.58"/><line class="f95075e6-c0b9-48f2-947b-8ede788b62a5" x1="261.67" y1="221.61" x2="245.68" y2="212.37"/><polyline class="a2c285d6-9c86-4063-89f9-486573e61510" points="244.84 211.88 243.98 211.38 243.98 210.38"/><line class="bf8dd656-ece9-4e8e-ae95-e00d68854fbb" x1="243.98" y1="208.44" x2="243.98" y2="143.23"/><line class="a2c285d6-9c86-4063-89f9-486573e61510" x1="243.98" y1="142.25" x2="243.98" y2="141.25"/><line class="a2c285d6-9c86-4063-89f9-486573e61510" x1="284.47" y1="117.88" x2="283.6" y2="117.38"/><polyline class="b9e690e9-9187-4962-abcd-e3745cdf14c4" points="281.86 116.37 264.22 106.18 223.73 82.82 203.49 71.12 185 60.45"/><polyline class="a2c285d6-9c86-4063-89f9-486573e61510" points="184.12 59.94 183.26 59.44 183.26 58.44"/><line class="f95075e6-c0b9-48f2-947b-8ede788b62a5" x1="183.26" y1="56.5" x2="183.25" y2="38.04"/><polyline class="a2c285d6-9c86-4063-89f9-486573e61510" points="183.25 37.06 183.25 36.06 184.11 36.56"/><polyline class="fb0fbce0-fb46-4bf5-b998-bb806ad91f8b" points="185.85 37.57 203.48 47.74 243.98 71.13 264.23 82.82 284.46 94.5 302.98 105.19"/><polyline class="a2c285d6-9c86-4063-89f9-486573e61510" points="303.85 105.69 304.72 106.19 304.72 107.19"/><line class="fb0fbce0-fb46-4bf5-b998-bb806ad91f8b" x1="304.72" y1="109.19" x2="304.7" y2="244.47"/><polyline class="a2c285d6-9c86-4063-89f9-486573e61510" points="304.7 245.47 304.7 246.47 303.84 245.97"/><line class="f95075e6-c0b9-48f2-947b-8ede788b62a5" x1="302.15" y1="245" x2="286.17" y2="235.76"/><polyline class="a2c285d6-9c86-4063-89f9-486573e61510" points="285.33 235.28 284.46 234.78 284.46 233.78"/><line class="b9e690e9-9187-4962-abcd-e3745cdf14c4" x1="284.46" y1="231.76" x2="284.45" y2="119.9"/><line class="a2c285d6-9c86-4063-89f9-486573e61510" x1="284.45" y1="118.89" x2="284.45" y2="117.89"/><polyline class="a2c285d6-9c86-4063-89f9-486573e61510" points="184.11 176.82 183.24 176.32 183.24 175.32"/><line class="bf8dd656-ece9-4e8e-ae95-e00d68854fbb" x1="183.24" y1="173.38" x2="183.24" y2="131.55"/><polyline class="a2c285d6-9c86-4063-89f9-486573e61510" points="183.24 130.58 183.24 129.58 184.1 130.08"/><polyline class="bf8dd656-ece9-4e8e-ae95-e00d68854fbb" points="185.79 131.06 203.47 141.26 222.01 151.99"/><polyline class="a2c285d6-9c86-4063-89f9-486573e61510" points="222.85 152.47 223.72 152.97 223.72 153.97"/><line class="bf8dd656-ece9-4e8e-ae95-e00d68854fbb" x1="223.72" y1="155.92" x2="223.73" y2="197.74"/><polyline class="a2c285d6-9c86-4063-89f9-486573e61510" points="223.73 198.72 223.73 199.72 222.86 199.22"/><polyline class="bf8dd656-ece9-4e8e-ae95-e00d68854fbb" points="221.18 198.24 203.47 188.03 184.95 177.31"/><line class="ad8c54d6-eabb-442b-aa0f-ce5f42cb1e5e" x1="284.45" y1="117.89" x2="304.7" y2="106.2"/><line class="a2c285d6-9c86-4063-89f9-486573e61510" x1="284.45" y1="117.89" x2="285.31" y2="117.39"/><line class="f95075e6-c0b9-48f2-947b-8ede788b62a5" x1="287" y1="116.42" x2="302.99" y2="107.18"/><line class="a2c285d6-9c86-4063-89f9-486573e61510" x1="303.83" y1="106.7" x2="304.7" y2="106.2"/><line class="a2c285d6-9c86-4063-89f9-486573e61510" x1="243.98" y1="141.25" x2="244.85" y2="140.76"/><line class="f95075e6-c0b9-48f2-947b-8ede788b62a5" x1="246.53" y1="139.79" x2="262.52" y2="130.57"/><line class="a2c285d6-9c86-4063-89f9-486573e61510" x1="263.36" y1="130.09" x2="264.22" y2="129.59"/><line class="a2c285d6-9c86-4063-89f9-486573e61510" x1="183.24" y1="176.32" x2="184.11" y2="175.82"/><line class="f95075e6-c0b9-48f2-947b-8ede788b62a5" x1="185.79" y1="174.85" x2="222.01" y2="153.96"/><line class="a2c285d6-9c86-4063-89f9-486573e61510" x1="222.85" y1="153.47" x2="223.72" y2="152.97"/><line class="a2c285d6-9c86-4063-89f9-486573e61510" x1="81.98" y1="141.26" x2="81.98" y2="142.26"/><polyline class="bf8dd656-ece9-4e8e-ae95-e00d68854fbb" points="81.98 144.21 82 164.63 82.01 188.02 82 188.04 81.98 209.42"/><polyline class="a2c285d6-9c86-4063-89f9-486573e61510" points="81.98 210.39 81.98 211.39 81.12 211.89"/><line class="f95075e6-c0b9-48f2-947b-8ede788b62a5" x1="79.43" y1="212.86" x2="63.46" y2="222.08"/><polyline class="a2c285d6-9c86-4063-89f9-486573e61510" points="62.62 222.57 61.75 223.07 61.75 222.07"/><polyline class="a69cbf87-cff6-4595-a5d0-7ab03d862495" points="61.75 220.04 61.75 199.71 61.73 176.34 61.75 152.94 61.76 131.58"/><polyline class="a2c285d6-9c86-4063-89f9-486573e61510" points="61.76 130.56 61.76 129.56 62.62 129.06"/><line class="a69cbf87-cff6-4595-a5d0-7ab03d862495" x1="64.38" y1="128.05" x2="140.98" y2="83.83"/><polyline class="a2c285d6-9c86-4063-89f9-486573e61510" points="141.86 83.32 142.72 82.82 142.72 83.82"/><line class="f95075e6-c0b9-48f2-947b-8ede788b62a5" x1="142.72" y1="85.77" x2="142.71" y2="104.23"/><polyline class="a2c285d6-9c86-4063-89f9-486573e61510" points="142.71 105.2 142.71 106.2 141.85 106.7"/><line class="bf8dd656-ece9-4e8e-ae95-e00d68854fbb" x1="140.16" y1="107.67" x2="83.69" y2="140.28"/><line class="a2c285d6-9c86-4063-89f9-486573e61510" x1="82.85" y1="140.76" x2="81.98" y2="141.26"/><line class="a2c285d6-9c86-4063-89f9-486573e61510" x1="41.49" y1="117.89" x2="41.49" y2="118.89"/><polyline class="b9e690e9-9187-4962-abcd-e3745cdf14c4" points="41.49 120.9 41.48 141.27 41.5 188.02 41.49 211.4 41.49 232.75"/><polyline class="a2c285d6-9c86-4063-89f9-486573e61510" points="41.49 233.75 41.49 234.75 40.62 235.26"/><line class="f95075e6-c0b9-48f2-947b-8ede788b62a5" x1="38.94" y1="236.23" x2="22.96" y2="245.47"/><polyline class="a2c285d6-9c86-4063-89f9-486573e61510" points="22.11 245.95 21.25 246.45 21.25 245.45"/><polyline class="fb0fbce0-fb46-4bf5-b998-bb806ad91f8b" points="21.25 243.45 21.25 223.09 21.25 176.32 21.25 152.94 21.25 129.58 21.24 108.2"/><polyline class="a2c285d6-9c86-4063-89f9-486573e61510" points="21.24 107.19 21.24 106.19 22.11 105.69"/><line class="fb0fbce0-fb46-4bf5-b998-bb806ad91f8b" x1="23.84" y1="104.69" x2="141" y2="37.07"/><polyline class="a2c285d6-9c86-4063-89f9-486573e61510" points="141.87 36.56 142.74 36.06 142.74 37.06"/><line class="f95075e6-c0b9-48f2-947b-8ede788b62a5" x1="142.74" y1="39.01" x2="142.73" y2="57.47"/><polyline class="a2c285d6-9c86-4063-89f9-486573e61510" points="142.73 58.44 142.73 59.44 141.86 59.94"/><line class="b9e690e9-9187-4962-abcd-e3745cdf14c4" x1="140.12" y1="60.95" x2="43.25" y2="116.89"/><line class="a2c285d6-9c86-4063-89f9-486573e61510" x1="42.38" y1="117.4" x2="41.51" y2="117.9"/><polyline class="a2c285d6-9c86-4063-89f9-486573e61510" points="142.72 175.33 142.72 176.33 141.85 176.83"/><line class="bf8dd656-ece9-4e8e-ae95-e00d68854fbb" x1="140.17" y1="177.8" x2="103.95" y2="198.72"/><polyline class="a2c285d6-9c86-4063-89f9-486573e61510" points="103.11 199.2 102.24 199.7 102.24 198.7"/><polyline class="bf8dd656-ece9-4e8e-ae95-e00d68854fbb" points="102.24 196.76 102.24 176.34 102.26 154.92"/><polyline class="a2c285d6-9c86-4063-89f9-486573e61510" points="102.26 153.95 102.26 152.95 103.13 152.45"/><line class="bf8dd656-ece9-4e8e-ae95-e00d68854fbb" x1="104.81" y1="151.47" x2="141.03" y2="130.56"/><polyline class="a2c285d6-9c86-4063-89f9-486573e61510" points="141.87 130.07 142.73 129.57 142.73 130.57"/><polyline class="bf8dd656-ece9-4e8e-ae95-e00d68854fbb" points="142.74 132.52 142.74 152.96 142.72 174.36"/><line class="a2c285d6-9c86-4063-89f9-486573e61510" x1="41.51" y1="117.9" x2="40.64" y2="117.4"/><line class="f95075e6-c0b9-48f2-947b-8ede788b62a5" x1="38.96" y1="116.43" x2="22.97" y2="107.19"/><line class="a2c285d6-9c86-4063-89f9-486573e61510" x1="22.13" y1="106.71" x2="21.26" y2="106.21"/><line class="a2c285d6-9c86-4063-89f9-486573e61510" x1="81.98" y1="141.26" x2="81.11" y2="140.76"/><line class="f95075e6-c0b9-48f2-947b-8ede788b62a5" x1="79.43" y1="139.79" x2="63.46" y2="130.55"/><line class="a2c285d6-9c86-4063-89f9-486573e61510" x1="62.62" y1="130.06" x2="61.76" y2="129.56"/><line class="a2c285d6-9c86-4063-89f9-486573e61510" x1="142.72" y1="176.33" x2="141.85" y2="175.83"/><line class="f95075e6-c0b9-48f2-947b-8ede788b62a5" x1="140.17" y1="174.86" x2="103.97" y2="153.93"/><line class="a2c285d6-9c86-4063-89f9-486573e61510" x1="103.12" y1="153.45" x2="102.26" y2="152.95"/></g></svg>