<svg id="b7e2d63e-dd55-4e3a-92e9-b96f6a2a3e9c" data-name="Layer 1" xmlns="http://www.w3.org/2000/svg" viewBox="0 0 124.63 143.79"><defs><style>.a0743e93-35b0-4ff1-9333-0362eafc451e{fill:none;stroke:#000;stroke-miterlimit:10;stroke-width:0.21px;}</style></defs><title>18u</title><g id="bfed40a0-03a4-4e95-b769-1c53f494ca70" data-name="shapes"><polygon class="a0743e93-35b0-4ff1-9333-0362eafc451e" points="0.21 107.75 0.21 36.04 62.32 71.9 0.21 107.75"/><polygon class="a0743e93-35b0-4ff1-9333-0362eafc451e" points="3.17 41.17 56.02 71.68 3.17 102.2 3.17 41.17"/><polygon class="a0743e93-35b0-4ff1-9333-0362eafc451e" points="6.13 46.3 49.73 71.47 6.13 96.64 6.13 46.3"/><polygon class="a0743e93-35b0-4ff1-9333-0362eafc451e" points="9.09 51.42 43.44 71.25 9.09 91.08 9.09 51.42"/><polygon class="a0743e93-35b0-4ff1-9333-0362eafc451e" points="12.05 56.55 37.14 71.04 12.05 85.52 12.05 56.55"/><polygon class="a0743e93-35b0-4ff1-9333-0362eafc451e" points="15.01 61.68 30.85 70.82 15.01 79.96 15.01 61.68"/><polygon class="a0743e93-35b0-4ff1-9333-0362eafc451e" points="17.97 66.81 24.55 70.61 17.97 74.41 17.97 66.81"/><polygon class="a0743e93-35b0-4ff1-9333-0362eafc451e" points="124.42 36.04 124.42 107.75 62.32 71.9 124.42 36.04"/><polygon class="a0743e93-35b0-4ff1-9333-0362eafc451e" points="121.46 102.63 68.61 72.11 121.46 41.6 121.46 102.63"/><polygon class="a0743e93-35b0-4ff1-9333-0362eafc451e" points="118.5 97.5 74.91 72.33 118.5 47.16 118.5 97.5"/><polygon class="a0743e93-35b0-4ff1-9333-0362eafc451e" points="115.54 92.37 81.2 72.54 115.54 52.71 115.54 92.37"/><polygon class="a0743e93-35b0-4ff1-9333-0362eafc451e" points="112.58 87.24 87.49 72.76 112.58 58.27 112.58 87.24"/><polygon class="a0743e93-35b0-4ff1-9333-0362eafc451e" points="109.62 82.12 93.79 72.97 109.62 63.83 109.62 82.12"/><polygon class="a0743e93-35b0-4ff1-9333-0362eafc451e" points="106.66 76.99 100.08 73.19 106.66 69.39 106.66 76.99"/><polygon class="a0743e93-35b0-4ff1-9333-0362eafc451e" points="124.42 107.75 62.32 143.61 62.32 71.9 124.42 107.75"/><polygon class="a0743e93-35b0-4ff1-9333-0362eafc451e" points="65.28 138.49 65.28 77.45 118.13 107.97 65.28 138.49"/><polygon class="a0743e93-35b0-4ff1-9333-0362eafc451e" points="68.24 133.36 68.24 83.01 111.84 108.19 68.24 133.36"/><polygon class="a0743e93-35b0-4ff1-9333-0362eafc451e" points="71.2 128.23 71.2 88.57 105.54 108.4 71.2 128.23"/><polygon class="a0743e93-35b0-4ff1-9333-0362eafc451e" points="74.16 123.1 74.16 94.13 99.25 108.62 74.16 123.1"/><polygon class="a0743e93-35b0-4ff1-9333-0362eafc451e" points="77.12 117.97 77.12 99.69 92.95 108.83 77.12 117.97"/><polygon class="a0743e93-35b0-4ff1-9333-0362eafc451e" points="80.08 112.85 80.08 105.25 86.66 109.05 80.08 112.85"/><polygon class="a0743e93-35b0-4ff1-9333-0362eafc451e" points="0.21 36.04 62.32 0.18 62.32 71.9 0.21 36.04"/><polygon class="a0743e93-35b0-4ff1-9333-0362eafc451e" points="59.36 5.31 59.36 66.34 6.5 35.82 59.36 5.31"/><polygon class="a0743e93-35b0-4ff1-9333-0362eafc451e" points="56.4 10.44 56.4 60.78 12.8 35.61 56.4 10.44"/><polygon class="a0743e93-35b0-4ff1-9333-0362eafc451e" points="53.44 15.56 53.44 55.22 19.09 35.39 53.44 15.56"/><polygon class="a0743e93-35b0-4ff1-9333-0362eafc451e" points="50.48 20.69 50.48 49.66 25.39 35.18 50.48 20.69"/><polygon class="a0743e93-35b0-4ff1-9333-0362eafc451e" points="47.51 25.82 47.51 44.1 31.68 34.96 47.51 25.82"/><polygon class="a0743e93-35b0-4ff1-9333-0362eafc451e" points="44.55 30.95 44.55 38.55 37.97 34.75 44.55 30.95"/><polygon class="a0743e93-35b0-4ff1-9333-0362eafc451e" points="62.32 0.18 124.42 36.04 62.32 71.9 62.32 0.18"/><polygon class="a0743e93-35b0-4ff1-9333-0362eafc451e" points="118.5 36.04 65.65 66.55 65.65 5.53 118.5 36.04"/><polygon class="a0743e93-35b0-4ff1-9333-0362eafc451e" points="112.58 36.04 68.98 61.21 68.98 10.87 112.58 36.04"/><polygon class="a0743e93-35b0-4ff1-9333-0362eafc451e" points="106.66 36.04 72.32 55.87 72.32 16.21 106.66 36.04"/><polygon class="a0743e93-35b0-4ff1-9333-0362eafc451e" points="100.74 36.04 75.65 50.52 75.65 21.55 100.74 36.04"/><polygon class="a0743e93-35b0-4ff1-9333-0362eafc451e" points="94.82 36.04 78.98 45.18 78.98 26.9 94.82 36.04"/><polygon class="a0743e93-35b0-4ff1-9333-0362eafc451e" points="88.9 36.04 82.32 39.84 82.32 32.24 88.9 36.04"/><polygon class="a0743e93-35b0-4ff1-9333-0362eafc451e" points="62.32 143.61 0.21 107.75 62.32 71.9 62.32 143.61"/><polygon class="a0743e93-35b0-4ff1-9333-0362eafc451e" points="6.13 107.75 58.98 77.24 58.98 138.27 6.13 107.75"/><polygon class="a0743e93-35b0-4ff1-9333-0362eafc451e" points="12.05 107.75 55.65 82.58 55.65 132.93 12.05 107.75"/><polygon class="a0743e93-35b0-4ff1-9333-0362eafc451e" points="17.97 107.75 52.32 87.93 52.32 127.58 17.97 107.75"/><polygon class="a0743e93-35b0-4ff1-9333-0362eafc451e" points="23.89 107.75 48.98 93.27 48.98 122.24 23.89 107.75"/><polygon class="a0743e93-35b0-4ff1-9333-0362eafc451e" points="29.82 107.75 45.65 98.61 45.65 116.9 29.82 107.75"/><polygon class="a0743e93-35b0-4ff1-9333-0362eafc451e" points="35.74 107.75 42.32 103.95 42.32 111.55 35.74 107.75"/></g></svg>