<svg id="f77dc393-9af3-4216-8ebe-4d3bc299b34a" data-name="Layer 1" xmlns="http://www.w3.org/2000/svg" viewBox="0 0 329.85 379.87"><defs><style>.a126db94-e3f1-4d16-aafc-cd2f7c2c7bd8,.e5367dd5-d6cf-4bcb-bc3e-45f0461f1b3f,.e5ab620d-2d58-441e-8d10-cc391429f400,.ea2a9974-4177-43e6-a2db-441b75b23e3c{fill:none;stroke:#000000;;stroke-width:2px;}.a126db94-e3f1-4d16-aafc-cd2f7c2c7bd8,.e5ab620d-2d58-441e-8d10-cc391429f400{stroke-linecap:round;stroke-linejoin:round;}.e5ab620d-2d58-441e-8d10-cc391429f400{stroke-dasharray:131.25 17.5;}.e5367dd5-d6cf-4bcb-bc3e-45f0461f1b3f,.ea2a9974-4177-43e6-a2db-441b75b23e3c{stroke-miterlimit:10;}.ea2a9974-4177-43e6-a2db-441b75b23e3c{stroke-dasharray:41.05 41.05;}</style></defs><title>01u</title><g id="b85a329e-10f8-4212-b29a-2d7e1ac45ac3" data-name="EXTRA"><line class="a126db94-e3f1-4d16-aafc-cd2f7c2c7bd8" x1="20.95" y1="106.81" x2="20.95" y2="106.81"/><line class="e5ab620d-2d58-441e-8d10-cc391429f400" x1="36.11" y1="98.06" x2="156.49" y2="28.56"/><line class="a126db94-e3f1-4d16-aafc-cd2f7c2c7bd8" x1="164.93" y1="23.68" x2="164.93" y2="23.68"/><line class="e5367dd5-d6cf-4bcb-bc3e-45f0461f1b3f" x1="0.87" y1="95.22" x2="21.25" y2="95.22"/><line class="ea2a9974-4177-43e6-a2db-441b75b23e3c" x1="62.3" y1="95.22" x2="288.08" y2="95.22"/><line class="e5367dd5-d6cf-4bcb-bc3e-45f0461f1b3f" x1="308.61" y1="95.22" x2="328.99" y2="95.22"/><line class="e5367dd5-d6cf-4bcb-bc3e-45f0461f1b3f" x1="0.87" y1="95.22" x2="11.06" y2="112.86"/><line class="ea2a9974-4177-43e6-a2db-441b75b23e3c" x1="31.59" y1="148.41" x2="144.48" y2="343.95"/><line class="e5367dd5-d6cf-4bcb-bc3e-45f0461f1b3f" x1="154.74" y1="361.72" x2="164.93" y2="379.37"/><line class="a126db94-e3f1-4d16-aafc-cd2f7c2c7bd8" x1="20.95" y1="106.81" x2="20.95" y2="106.81"/><line class="e5ab620d-2d58-441e-8d10-cc391429f400" x1="20.95" y1="124.31" x2="20.95" y2="263.31"/><line class="a126db94-e3f1-4d16-aafc-cd2f7c2c7bd8" x1="20.95" y1="273.06" x2="20.95" y2="273.06"/><line class="a126db94-e3f1-4d16-aafc-cd2f7c2c7bd8" x1="164.93" y1="23.68" x2="164.93" y2="23.68"/><line class="e5ab620d-2d58-441e-8d10-cc391429f400" x1="180.08" y1="32.43" x2="300.46" y2="101.93"/><line class="a126db94-e3f1-4d16-aafc-cd2f7c2c7bd8" x1="308.91" y1="106.81" x2="308.91" y2="106.81"/><line class="e5367dd5-d6cf-4bcb-bc3e-45f0461f1b3f" x1="164.93" y1="0.5" x2="175.12" y2="18.14"/><line class="ea2a9974-4177-43e6-a2db-441b75b23e3c" x1="195.64" y1="53.7" x2="308.53" y2="249.23"/><line class="e5367dd5-d6cf-4bcb-bc3e-45f0461f1b3f" x1="318.8" y1="267.01" x2="328.99" y2="284.65"/><line class="e5367dd5-d6cf-4bcb-bc3e-45f0461f1b3f" x1="164.93" y1="0.5" x2="154.74" y2="18.14"/><line class="ea2a9974-4177-43e6-a2db-441b75b23e3c" x1="134.22" y1="53.7" x2="21.32" y2="249.23"/><line class="e5367dd5-d6cf-4bcb-bc3e-45f0461f1b3f" x1="11.06" y1="267.01" x2="0.87" y2="284.65"/><line class="a126db94-e3f1-4d16-aafc-cd2f7c2c7bd8" x1="308.91" y1="106.81" x2="308.91" y2="106.81"/><line class="e5ab620d-2d58-441e-8d10-cc391429f400" x1="308.91" y1="124.31" x2="308.91" y2="263.31"/><line class="a126db94-e3f1-4d16-aafc-cd2f7c2c7bd8" x1="308.91" y1="273.06" x2="308.91" y2="273.06"/><line class="e5367dd5-d6cf-4bcb-bc3e-45f0461f1b3f" x1="328.99" y1="95.22" x2="318.8" y2="112.86"/><line class="ea2a9974-4177-43e6-a2db-441b75b23e3c" x1="298.27" y1="148.41" x2="185.38" y2="343.95"/><line class="e5367dd5-d6cf-4bcb-bc3e-45f0461f1b3f" x1="175.12" y1="361.72" x2="164.93" y2="379.37"/><line class="a126db94-e3f1-4d16-aafc-cd2f7c2c7bd8" x1="308.91" y1="273.06" x2="308.91" y2="273.06"/><line class="e5ab620d-2d58-441e-8d10-cc391429f400" x1="293.75" y1="281.81" x2="173.37" y2="351.31"/><line class="a126db94-e3f1-4d16-aafc-cd2f7c2c7bd8" x1="164.93" y1="356.18" x2="164.93" y2="356.18"/><line class="e5367dd5-d6cf-4bcb-bc3e-45f0461f1b3f" x1="328.99" y1="284.65" x2="308.61" y2="284.65"/><line class="ea2a9974-4177-43e6-a2db-441b75b23e3c" x1="267.56" y1="284.65" x2="41.78" y2="284.65"/><line class="e5367dd5-d6cf-4bcb-bc3e-45f0461f1b3f" x1="21.25" y1="284.65" x2="0.87" y2="284.65"/><line class="a126db94-e3f1-4d16-aafc-cd2f7c2c7bd8" x1="164.93" y1="356.18" x2="164.93" y2="356.18"/><line class="e5ab620d-2d58-441e-8d10-cc391429f400" x1="149.77" y1="347.43" x2="29.4" y2="277.93"/><line class="a126db94-e3f1-4d16-aafc-cd2f7c2c7bd8" x1="20.95" y1="273.06" x2="20.95" y2="273.06"/></g></svg>