<svg id="e5adc6b4-e3a4-46ea-ab43-408a625f8478" data-name="Layer 1" xmlns="http://www.w3.org/2000/svg" viewBox="0 0 289.95 334.5"><defs><style>.b2b019cc-586c-416b-90e0-cd21ed2a107f,.b6700c38-692e-4afc-b54e-ac00eeedf8d6,.f59465eb-d35a-4aa9-9e61-72d3e33415a5{fill:none;stroke:#000000;;stroke-linecap:round;stroke-linejoin:round;stroke-width:2px;}.b2b019cc-586c-416b-90e0-cd21ed2a107f{stroke-dasharray:124 35.43;}.f59465eb-d35a-4aa9-9e61-72d3e33415a5{stroke-dasharray:83.79 23.94;}</style></defs><title>02u</title><g id="b7124a2d-f7d6-4e57-a478-9ccfe50ab0ec" data-name="EXTRA"><line class="b6700c38-692e-4afc-b54e-ac00eeedf8d6" x1="1" y1="84.12" x2="47.55" y2="84.12"/><line class="b2b019cc-586c-416b-90e0-cd21ed2a107f" x1="82.98" y1="84.12" x2="224.69" y2="84.12"/><line class="b6700c38-692e-4afc-b54e-ac00eeedf8d6" x1="242.4" y1="84.12" x2="288.95" y2="84.12"/><line class="b6700c38-692e-4afc-b54e-ac00eeedf8d6" x1="1" y1="84.12" x2="24.27" y2="124.44"/><line class="b2b019cc-586c-416b-90e0-cd21ed2a107f" x1="41.99" y1="155.12" x2="112.84" y2="277.84"/><line class="b6700c38-692e-4afc-b54e-ac00eeedf8d6" x1="121.7" y1="293.18" x2="144.97" y2="333.5"/><line class="b6700c38-692e-4afc-b54e-ac00eeedf8d6" x1="144.97" y1="1" x2="168.25" y2="41.31"/><line class="b2b019cc-586c-416b-90e0-cd21ed2a107f" x1="185.96" y1="71.99" x2="256.82" y2="194.72"/><line class="b6700c38-692e-4afc-b54e-ac00eeedf8d6" x1="265.68" y1="210.06" x2="288.95" y2="250.37"/><line class="b6700c38-692e-4afc-b54e-ac00eeedf8d6" x1="144.97" y1="1" x2="121.7" y2="41.31"/><line class="b2b019cc-586c-416b-90e0-cd21ed2a107f" x1="103.99" y1="71.99" x2="33.13" y2="194.72"/><line class="b6700c38-692e-4afc-b54e-ac00eeedf8d6" x1="24.27" y1="210.06" x2="1" y2="250.37"/><line class="b6700c38-692e-4afc-b54e-ac00eeedf8d6" x1="288.95" y1="84.12" x2="265.68" y2="124.44"/><line class="b2b019cc-586c-416b-90e0-cd21ed2a107f" x1="247.96" y1="155.12" x2="177.11" y2="277.84"/><line class="b6700c38-692e-4afc-b54e-ac00eeedf8d6" x1="168.25" y1="293.18" x2="144.97" y2="333.5"/><line class="b6700c38-692e-4afc-b54e-ac00eeedf8d6" x1="288.95" y1="250.37" x2="242.4" y2="250.37"/><line class="b2b019cc-586c-416b-90e0-cd21ed2a107f" x1="206.97" y1="250.37" x2="65.26" y2="250.37"/><line class="b6700c38-692e-4afc-b54e-ac00eeedf8d6" x1="47.55" y1="250.37" x2="1" y2="250.37"/><line class="b6700c38-692e-4afc-b54e-ac00eeedf8d6" x1="144.97" y1="333.5" x2="144.97" y2="286.95"/><line class="f59465eb-d35a-4aa9-9e61-72d3e33415a5" x1="144.97" y1="263.01" x2="144.97" y2="59.52"/><line class="b6700c38-692e-4afc-b54e-ac00eeedf8d6" x1="144.97" y1="47.55" x2="144.97" y2="1"/><line class="b6700c38-692e-4afc-b54e-ac00eeedf8d6" x1="288.95" y1="84.12" x2="248.64" y2="107.4"/><line class="f59465eb-d35a-4aa9-9e61-72d3e33415a5" x1="227.9" y1="119.37" x2="51.68" y2="221.11"/><line class="b6700c38-692e-4afc-b54e-ac00eeedf8d6" x1="41.31" y1="227.1" x2="1" y2="250.37"/><line class="b6700c38-692e-4afc-b54e-ac00eeedf8d6" x1="1" y1="84.12" x2="41.31" y2="107.4"/><line class="f59465eb-d35a-4aa9-9e61-72d3e33415a5" x1="62.04" y1="119.37" x2="238.27" y2="221.11"/><line class="b6700c38-692e-4afc-b54e-ac00eeedf8d6" x1="248.64" y1="227.1" x2="288.95" y2="250.37"/><line class="b6700c38-692e-4afc-b54e-ac00eeedf8d6" x1="288.95" y1="167.25" x2="242.4" y2="167.25"/><line class="b2b019cc-586c-416b-90e0-cd21ed2a107f" x1="206.97" y1="167.25" x2="65.26" y2="167.25"/><line class="b6700c38-692e-4afc-b54e-ac00eeedf8d6" x1="47.55" y1="167.25" x2="1" y2="167.25"/><line class="b6700c38-692e-4afc-b54e-ac00eeedf8d6" x1="72.99" y1="42.56" x2="96.26" y2="82.87"/><line class="b2b019cc-586c-416b-90e0-cd21ed2a107f" x1="113.97" y1="113.55" x2="184.83" y2="236.28"/><line class="b6700c38-692e-4afc-b54e-ac00eeedf8d6" x1="193.69" y1="251.62" x2="216.96" y2="291.93"/><line class="b6700c38-692e-4afc-b54e-ac00eeedf8d6" x1="72.99" y1="291.93" x2="96.26" y2="251.62"/><line class="b2b019cc-586c-416b-90e0-cd21ed2a107f" x1="113.97" y1="220.94" x2="184.83" y2="98.21"/><line class="b6700c38-692e-4afc-b54e-ac00eeedf8d6" x1="193.69" y1="82.87" x2="216.96" y2="42.56"/></g></svg>