<svg id="fa1b9444-7ec6-49f0-8433-3f06d0dcd980" data-name="Layer 1" xmlns="http://www.w3.org/2000/svg" viewBox="0 0 289.95 334.5"><defs><style>.afd68f4e-9b1c-4cd5-a2b9-beecd2608f79,.b47b3a20-1bb3-4e28-8f49-fcf7af72681d,.b51bf8f8-9d06-46f7-9b96-8117483bdfca,.b533958a-bc30-451e-88ac-6f0a0305b837,.e89345c7-d07c-42a7-a14b-2d6739050bd1,.ed4b2da6-6657-48ff-a571-c02cfed10277{fill:none;stroke:#000000;;stroke-linecap:round;stroke-linejoin:round;stroke-width:2px;}.e89345c7-d07c-42a7-a14b-2d6739050bd1{stroke-dasharray:0 33.25 0 33.25;}.b533958a-bc30-451e-88ac-6f0a0305b837{stroke-dasharray:0 26.05 0 26.05;}.b47b3a20-1bb3-4e28-8f49-fcf7af72681d{stroke-dasharray:65.13 26.05 0 26.05 0 26.05;}.afd68f4e-9b1c-4cd5-a2b9-beecd2608f79{stroke-dasharray:0 31.29 0 31.29;}.ed4b2da6-6657-48ff-a571-c02cfed10277{stroke-dasharray:78.24 31.29 0 31.29 0 31.29;}</style></defs><title>03u</title><g id="ab7eb46a-da40-4f37-93f2-145382c585f7" data-name="EXTRA"><line class="b51bf8f8-9d06-46f7-9b96-8117483bdfca" x1="1" y1="84.12" x2="29.79" y2="67.5"/><line class="e89345c7-d07c-42a7-a14b-2d6739050bd1" x1="58.59" y1="50.87" x2="101.78" y2="25.93"/><line class="b51bf8f8-9d06-46f7-9b96-8117483bdfca" x1="116.18" y1="17.62" x2="144.97" y2="1"/><line class="b51bf8f8-9d06-46f7-9b96-8117483bdfca" x1="1" y1="84.12" x2="34.25" y2="84.12"/><line class="b533958a-bc30-451e-88ac-6f0a0305b837" x1="60.3" y1="84.12" x2="99.38" y2="84.12"/><line class="b47b3a20-1bb3-4e28-8f49-fcf7af72681d" x1="112.41" y1="84.12" x2="242.67" y2="84.12"/><line class="b51bf8f8-9d06-46f7-9b96-8117483bdfca" x1="255.7" y1="84.12" x2="288.95" y2="84.12"/><line class="b51bf8f8-9d06-46f7-9b96-8117483bdfca" x1="1" y1="84.12" x2="17.62" y2="112.92"/><line class="b533958a-bc30-451e-88ac-6f0a0305b837" x1="30.65" y1="135.48" x2="50.19" y2="169.32"/><line class="b47b3a20-1bb3-4e28-8f49-fcf7af72681d" x1="56.7" y1="180.61" x2="121.84" y2="293.42"/><line class="b51bf8f8-9d06-46f7-9b96-8117483bdfca" x1="128.35" y1="304.7" x2="144.97" y2="333.5"/><line class="b51bf8f8-9d06-46f7-9b96-8117483bdfca" x1="1" y1="84.12" x2="1" y2="117.37"/><line class="e89345c7-d07c-42a7-a14b-2d6739050bd1" x1="1" y1="150.62" x2="1" y2="200.5"/><line class="b51bf8f8-9d06-46f7-9b96-8117483bdfca" x1="1" y1="217.12" x2="1" y2="250.37"/><line class="b51bf8f8-9d06-46f7-9b96-8117483bdfca" x1="144.97" y1="1" x2="173.77" y2="17.62"/><line class="e89345c7-d07c-42a7-a14b-2d6739050bd1" x1="202.56" y1="34.25" x2="245.76" y2="59.18"/><line class="b51bf8f8-9d06-46f7-9b96-8117483bdfca" x1="260.16" y1="67.5" x2="288.95" y2="84.12"/><line class="b51bf8f8-9d06-46f7-9b96-8117483bdfca" x1="144.97" y1="1" x2="161.6" y2="29.79"/><line class="b533958a-bc30-451e-88ac-6f0a0305b837" x1="174.63" y1="52.36" x2="194.17" y2="86.2"/><line class="b47b3a20-1bb3-4e28-8f49-fcf7af72681d" x1="200.68" y1="97.48" x2="265.81" y2="210.3"/><line class="b51bf8f8-9d06-46f7-9b96-8117483bdfca" x1="272.33" y1="221.58" x2="288.95" y2="250.37"/><line class="b51bf8f8-9d06-46f7-9b96-8117483bdfca" x1="144.97" y1="1" x2="128.35" y2="29.79"/><line class="b533958a-bc30-451e-88ac-6f0a0305b837" x1="115.32" y1="52.36" x2="95.78" y2="86.2"/><line class="b47b3a20-1bb3-4e28-8f49-fcf7af72681d" x1="89.27" y1="97.48" x2="24.14" y2="210.3"/><line class="b51bf8f8-9d06-46f7-9b96-8117483bdfca" x1="17.62" y1="221.58" x2="1" y2="250.37"/><line class="b51bf8f8-9d06-46f7-9b96-8117483bdfca" x1="288.95" y1="84.12" x2="288.95" y2="117.37"/><line class="e89345c7-d07c-42a7-a14b-2d6739050bd1" x1="288.95" y1="150.62" x2="288.95" y2="200.5"/><line class="b51bf8f8-9d06-46f7-9b96-8117483bdfca" x1="288.95" y1="217.12" x2="288.95" y2="250.37"/><line class="b51bf8f8-9d06-46f7-9b96-8117483bdfca" x1="288.95" y1="84.12" x2="272.33" y2="112.92"/><line class="b533958a-bc30-451e-88ac-6f0a0305b837" x1="259.3" y1="135.48" x2="239.76" y2="169.32"/><line class="b47b3a20-1bb3-4e28-8f49-fcf7af72681d" x1="233.25" y1="180.61" x2="168.11" y2="293.42"/><line class="b51bf8f8-9d06-46f7-9b96-8117483bdfca" x1="161.6" y1="304.7" x2="144.97" y2="333.5"/><line class="b51bf8f8-9d06-46f7-9b96-8117483bdfca" x1="288.95" y1="250.37" x2="260.16" y2="267"/><line class="e89345c7-d07c-42a7-a14b-2d6739050bd1" x1="231.36" y1="283.62" x2="188.17" y2="308.56"/><line class="b51bf8f8-9d06-46f7-9b96-8117483bdfca" x1="173.77" y1="316.87" x2="144.97" y2="333.5"/><line class="b51bf8f8-9d06-46f7-9b96-8117483bdfca" x1="288.95" y1="250.37" x2="255.7" y2="250.37"/><line class="b533958a-bc30-451e-88ac-6f0a0305b837" x1="229.65" y1="250.37" x2="190.57" y2="250.37"/><line class="b47b3a20-1bb3-4e28-8f49-fcf7af72681d" x1="177.54" y1="250.37" x2="47.27" y2="250.37"/><line class="b51bf8f8-9d06-46f7-9b96-8117483bdfca" x1="34.25" y1="250.37" x2="1" y2="250.37"/><line class="b51bf8f8-9d06-46f7-9b96-8117483bdfca" x1="144.97" y1="333.5" x2="116.18" y2="316.87"/><line class="e89345c7-d07c-42a7-a14b-2d6739050bd1" x1="87.38" y1="300.25" x2="44.19" y2="275.31"/><line class="b51bf8f8-9d06-46f7-9b96-8117483bdfca" x1="29.79" y1="267" x2="1" y2="250.37"/><line class="b51bf8f8-9d06-46f7-9b96-8117483bdfca" x1="144.97" y1="333.5" x2="144.97" y2="300.25"/><line class="afd68f4e-9b1c-4cd5-a2b9-beecd2608f79" x1="144.97" y1="268.95" x2="144.97" y2="222.01"/><line class="ed4b2da6-6657-48ff-a571-c02cfed10277" x1="144.97" y1="206.37" x2="144.97" y2="49.89"/><line class="b51bf8f8-9d06-46f7-9b96-8117483bdfca" x1="144.97" y1="34.25" x2="144.97" y2="1"/><line class="b51bf8f8-9d06-46f7-9b96-8117483bdfca" x1="288.95" y1="84.12" x2="260.16" y2="100.75"/><line class="afd68f4e-9b1c-4cd5-a2b9-beecd2608f79" x1="233.05" y1="116.39" x2="192.4" y2="139.87"/><line class="ed4b2da6-6657-48ff-a571-c02cfed10277" x1="178.85" y1="147.69" x2="43.34" y2="225.92"/><line class="b51bf8f8-9d06-46f7-9b96-8117483bdfca" x1="29.79" y1="233.75" x2="1" y2="250.37"/><line class="b51bf8f8-9d06-46f7-9b96-8117483bdfca" x1="1" y1="84.12" x2="29.79" y2="100.75"/><line class="afd68f4e-9b1c-4cd5-a2b9-beecd2608f79" x1="56.89" y1="116.39" x2="97.55" y2="139.87"/><line class="ed4b2da6-6657-48ff-a571-c02cfed10277" x1="111.1" y1="147.69" x2="246.6" y2="225.92"/><line class="b51bf8f8-9d06-46f7-9b96-8117483bdfca" x1="260.16" y1="233.75" x2="288.95" y2="250.37"/><line class="b51bf8f8-9d06-46f7-9b96-8117483bdfca" x1="288.95" y1="167.25" x2="255.7" y2="167.25"/><line class="b533958a-bc30-451e-88ac-6f0a0305b837" x1="229.65" y1="167.25" x2="190.57" y2="167.25"/><line class="b47b3a20-1bb3-4e28-8f49-fcf7af72681d" x1="177.54" y1="167.25" x2="47.27" y2="167.25"/><line class="b51bf8f8-9d06-46f7-9b96-8117483bdfca" x1="34.25" y1="167.25" x2="1" y2="167.25"/><line class="b51bf8f8-9d06-46f7-9b96-8117483bdfca" x1="72.99" y1="42.56" x2="89.61" y2="71.36"/><line class="b533958a-bc30-451e-88ac-6f0a0305b837" x1="102.64" y1="93.92" x2="122.18" y2="127.76"/><line class="b47b3a20-1bb3-4e28-8f49-fcf7af72681d" x1="128.69" y1="139.04" x2="193.82" y2="251.86"/><line class="b51bf8f8-9d06-46f7-9b96-8117483bdfca" x1="200.34" y1="263.14" x2="216.96" y2="291.93"/><line class="b51bf8f8-9d06-46f7-9b96-8117483bdfca" x1="72.99" y1="291.93" x2="89.61" y2="263.14"/><line class="b533958a-bc30-451e-88ac-6f0a0305b837" x1="102.64" y1="240.58" x2="122.18" y2="206.73"/><line class="b47b3a20-1bb3-4e28-8f49-fcf7af72681d" x1="128.69" y1="195.45" x2="193.82" y2="82.64"/><line class="b51bf8f8-9d06-46f7-9b96-8117483bdfca" x1="200.34" y1="71.36" x2="216.96" y2="42.56"/></g></svg>