<svg id="adf4ced5-02b3-4184-a0ed-51008ab974d7" data-name="Layer 1" xmlns="http://www.w3.org/2000/svg" viewBox="0 0 228.94 198.3"><defs><style>.a826f7dc-a56b-40d3-88ef-084db6129b42{fill:#000000;}</style></defs><title>04u</title><g id="aeee2855-f46b-4dda-aa58-f527b8d15fec" data-name="items"><rect class="a826f7dc-a56b-40d3-88ef-084db6129b42" x="57.3" y="196.46" width="0.73" height="1.1"/><path class="a826f7dc-a56b-40d3-88ef-084db6129b42" d="M58,194.28h-.7v-2.19H58Zm0-4.38h-.7v-2.18H58Zm0-4.37h-.7v-2.19H58Zm0-4.37h-.7V179H58Zm0-4.38h-.7V174.6H58Zm0-4.37h-.7v-2.19H58ZM58,168h-.7v-2.19H58Zm0-4.38h-.7v-2.19H58Zm0-4.37h-.7V157.1H58Zm0-4.38h-.7v-2.18H58Zm0-4.37h-.7v-2.19H58Zm0-4.37h-.7V144H58Zm0-4.38h-.7v-2.18H58Zm0-4.37h-.7v-2.19H58ZM58,133h-.7v-2.18H58Zm0-4.37h-.7v-2.19H58Zm0-4.37h-.7v-2.19H58Zm0-4.38h-.7V117.7H58Zm0-4.37h-.7v-2.19H58Zm0-4.37h-.7V109H58Zm0-4.38h-.7v-2.18H58Zm0-4.37h-.7V100.2H58ZM58,98h-.7V95.87H58Zm0-4.37h-.7V91.49H58Zm0-4.37h-.7V87.12H58Zm0-4.38h-.7V82.75H58Zm0-4.37h-.7V78.37H58Zm0-4.37h-.7V74H58Zm0-4.38h-.7V69.63H58Zm0-4.37h-.7V65.25H58ZM58,63h-.7V60.88H58Zm0-4.37h-.7V56.5H58Zm0-4.37h-.7V52.13H58Zm0-4.38h-.7V47.76H58Zm0-4.37h-.7V43.38H58Zm0-4.37h-.7V39H58Zm0-4.38h-.7V34.63H58Zm0-4.37h-.7V30.26H58ZM58,28h-.7V25.89H58Zm0-4.37h-.7V21.51H58Zm0-4.37h-.7V17.14H58ZM58,15h-.7V12.77H58Zm0-4.37h-.7V8.39H58Zm0-4.37h-.7V4H58Z"/><rect class="a826f7dc-a56b-40d3-88ef-084db6129b42" x="57.3" y="0.73" width="0.73" height="1.1"/><rect class="a826f7dc-a56b-40d3-88ef-084db6129b42" x="57.39" y="196.72" width="1.1" height="0.73" transform="translate(-141.73 148.79) rotate(-60.02)"/><path class="a826f7dc-a56b-40d3-88ef-084db6129b42" d="M59.63,194.9l-.64-.36,1.09-1.9.64.37Zm2.18-3.78-.63-.37,1.09-1.89.63.36ZM64,187.33l-.64-.36,1.09-1.9.64.37Zm2.18-3.78-.63-.37,1.09-1.89.63.36Zm2.19-3.79-.64-.36,1.09-1.9.64.37ZM70.55,176l-.63-.37L71,173.72l.63.37Zm2.19-3.79-.64-.36,1.09-1.9.64.37Zm2.18-3.78-.63-.37,1.09-1.89.63.36Zm2.19-3.79-.64-.36,1.1-1.9.63.37Zm2.18-3.78-.63-.37,1.09-1.89.63.36Zm2.19-3.79-.64-.36,1.1-1.9.63.37Zm2.18-3.78L83,152.9l1.12-1.9.64.36Zm2.19-3.79-.64-.36,1.1-1.9.63.37ZM88,145.7l-.63-.37,1.09-1.89.64.36Zm2.19-3.79-.64-.36,1.1-1.9.63.37Zm2.18-3.78-.63-.37,1.09-1.89.64.36Zm2.19-3.79L94,134l1.1-1.9.63.37Zm2.18-3.78-.63-.37,1.09-1.89.64.36ZM99,126.77l-.63-.36,1.09-1.9.63.37Zm2.19-3.78-.64-.37,1.09-1.89.64.36Zm2.18-3.79-.63-.36,1.09-1.9.63.37Zm2.19-3.78-.64-.37,1.09-1.89.64.36Zm2.18-3.79-.63-.36,1.09-1.9.63.37Zm2.19-3.78-.64-.37,1.09-1.89.64.36Zm2.18-3.79-.63-.36,1.09-1.9.63.37Zm2.19-3.78-.64-.37,1-1.91.64.36Zm2.18-3.79-.63-.36,1.09-1.9.63.37Zm2.19-3.78-.64-.37,1.09-1.89.64.36Zm2.18-3.79-.63-.36,1.09-1.9L122,87ZM123,85.14l-.64-.37,1.1-1.89.63.36Zm2.18-3.79-.63-.36,1.09-1.9.64.37Zm2.19-3.78-.64-.37,1.1-1.89.63.36Zm2.18-3.79-.63-.36,1.09-1.9.64.37ZM131.74,70l-.64-.37,1.1-1.89.63.36Zm2.18-3.79-.63-.36,1.09-1.9.64.37Zm2.19-3.78-.64-.37,1.1-1.89.63.36Zm2.18-3.79-.63-.36,1.09-1.9.64.37Zm2.19-3.78-.63-.37,1.09-1.89.63.36Zm2.18-3.79-.63-.36,1.09-1.9.64.37Zm2.19-3.78-.63-.37L145.31,45l.63.36ZM147,43.5l-.64-.36,1.09-1.9.64.37Zm2.18-3.78-.63-.37,1.09-1.89.63.36Zm2.19-3.79-.64-.36,1.09-1.9.64.37Zm2.18-3.78-.63-.37L154,29.89l.63.36Zm2.19-3.79L155.1,28l1.09-1.9.64.37ZM158,24.58l-.63-.37,1.09-1.89.63.36Zm2.19-3.79-.64-.36,1.1-1.9.63.37ZM162.33,17l-.63-.37,1.09-1.89.64.36Zm2.19-3.79-.64-.36L165,11l.63.37Zm2.18-3.78-.63-.37,1.09-1.89.64.36Zm2.19-3.79-.64-.36,1.1-1.9.63.37Z"/><rect class="a826f7dc-a56b-40d3-88ef-084db6129b42" x="170.48" y="0.84" width="1.1" height="0.73" transform="translate(84.52 148.75) rotate(-60.02)"/><rect class="a826f7dc-a56b-40d3-88ef-084db6129b42" x="57.59" y="196.92" width="1.1" height="0.73" transform="translate(-90.73 55.37) rotate(-29.95)"/><path class="a826f7dc-a56b-40d3-88ef-084db6129b42" d="M60.69,196.24l-.36-.64,1.89-1.09.37.63Zm3.79-2.19-.36-.63,1.89-1.1.37.64Zm3.79-2.19-.37-.63,1.9-1.09.36.63Zm3.79-2.18-.37-.64,1.9-1.09.36.63Zm3.78-2.19-.36-.63,1.89-1.1.37.64Zm3.79-2.19-.36-.63,1.89-1.09.37.63Zm3.79-2.18-.37-.64,1.9-1.09.36.63Zm3.79-2.19-.37-.63,1.9-1.1.36.64ZM91,178.74l-.37-.63,1.89-1.1.37.64Zm3.78-2.18-.36-.64,1.89-1.09.37.63Zm3.79-2.19-.36-.64,1.89-1.09.37.63Zm3.79-2.19-.37-.63,1.9-1.1.36.64Zm3.79-2.19-.37-.63,1.89-1.09.37.63Zm3.78-2.18-.36-.64,1.89-1.09.37.63Zm3.79-2.19-.36-.63,1.89-1.1.37.64Zm3.79-2.19-.36-.63,1.89-1.09.36.63Zm3.79-2.18-.37-.64,1.9-1.09.36.63Zm3.79-2.19-.37-.63,1.9-1.1.36.64Zm3.78-2.19-.36-.63,1.89-1.09.37.63Zm3.79-2.18-.36-.64,1.89-1.09.37.63Zm3.79-2.19-.37-.63,1.9-1.1.36.64Zm3.79-2.19-.37-.63,1.9-1.09.36.63Zm3.79-2.18-.37-.64,1.89-1.09.37.63Zm3.78-2.19-.36-.64,1.89-1.09.37.64Zm3.79-2.19-.36-.63,1.89-1.1.37.64Zm3.79-2.19-.37-.63,1.9-1.09.36.63Zm3.79-2.18-.37-.64,1.9-1.09.36.63Zm3.78-2.19-.36-.63,1.89-1.1.37.64Zm3.79-2.19-.36-.63,1.89-1.09.37.63Zm3.79-2.18-.37-.64,1.9-1.09.36.63Zm3.79-2.19L174,130l1.9-1.1.36.64Zm3.79-2.19-.37-.63,1.89-1.09.37.63Zm3.78-2.18-.36-.64,1.89-1.09.37.63Zm3.79-2.19-.36-.63,1.89-1.1.36.64Zm3.79-2.19-.37-.63,1.9-1.09.36.63Zm3.79-2.18-.37-.64,1.9-1.09.36.63Zm3.78-2.19-.36-.63,1.89-1.1.37.64Zm3.79-2.19-.36-.63,1.89-1.1.37.64Zm3.79-2.18-.37-.64,1.9-1.09.36.63Zm3.79-2.19-.37-.64,1.9-1.09.36.63Zm3.79-2.19-.37-.63,1.89-1.1.37.64Zm3.78-2.19-.36-.63,1.89-1.09.37.63Zm3.79-2.18-.36-.64,1.89-1.09.37.63Zm3.79-2.19-.37-.63,1.9-1.1.36.64Z"/><rect class="a826f7dc-a56b-40d3-88ef-084db6129b42" x="227.1" y="99.06" width="1.1" height="0.73" transform="translate(-19.24 126.93) rotate(-29.95)"/><polygon class="a826f7dc-a56b-40d3-88ef-084db6129b42" points="1.03 99.47 0.66 98.83 1.61 98.28 1.98 98.92 1.03 99.47"/><path class="a826f7dc-a56b-40d3-88ef-084db6129b42" d="M3.87,97.82l-.36-.63L5.4,96.1l.37.63Zm3.79-2.18L7.3,95l1.89-1.09.36.63Zm3.79-2.19-.37-.64L13,91.72l.36.63Zm3.79-2.19-.37-.63,1.9-1.1.36.64ZM19,89.07l-.36-.63,1.89-1.09.37.63Zm3.79-2.18-.36-.64,1.89-1.09.37.63ZM26.6,84.7l-.37-.63,1.9-1.1.36.64Zm3.79-2.19L30,81.88l1.9-1.09.36.63Zm3.79-2.18-.37-.64L35.7,78.6l.37.63ZM38,78.14l-.36-.63,1.89-1.1.37.64ZM41.75,76l-.36-.63,1.89-1.09.37.63Zm3.79-2.18-.37-.64L47.07,72l.36.63Zm3.79-2.19L49,71l1.89-1.1.37.64Zm3.78-2.19-.36-.63,1.89-1.09.37.63Zm3.79-2.18-.36-.64,1.89-1.09.37.63ZM60.69,65l-.36-.64,1.89-1.09.36.64Zm3.79-2.19-.37-.63L66,61.1l.36.64Zm3.79-2.18L67.9,60l1.89-1.09.37.63Zm3.78-2.19-.36-.64,1.89-1.09.37.63Zm3.79-2.19-.36-.63,1.89-1.1.37.64Zm3.79-2.19-.37-.63,1.9-1.09.36.63Zm3.79-2.18-.37-.64,2-1.07.36.63Zm3.79-2.19-.37-.63L88.73,48l.37.64ZM91,47.52l-.36-.63,1.89-1.09.37.63Zm3.79-2.18-.37-.64,1.9-1.09.36.63Zm3.79-2.19-.37-.63,1.9-1.1.36.64ZM102.36,41l-.37-.63,1.89-1.09.37.63Zm3.78-2.18-.36-.64,1.89-1.09.37.63Zm3.79-2.19-.36-.63,1.89-1.1.37.64Zm3.79-2.19-.37-.63,1.9-1.1.36.64Zm3.79-2.18-.37-.64,1.9-1.09.36.63ZM121.29,30l-.36-.64,1.89-1.09.37.63Zm3.79-2.19-.36-.63,1.89-1.1.37.64Zm3.79-2.19L128.5,25l1.9-1.09.36.63Zm3.79-2.18-.37-.64,1.9-1.09.36.63Zm3.79-2.19-.37-.63,1.9-1.1.36.64Zm3.78-2.19-.36-.63,1.89-1.09.37.63ZM144,16.91l-.36-.64,1.89-1.09.37.63Zm3.79-2.19-.37-.63,1.9-1.1.36.64Zm3.79-2.19-.37-.63,1.9-1.09.36.63Zm3.79-2.18L155,9.71l1.89-1.09.37.63Zm3.78-2.19-.36-.63,1.89-1.1.37.64ZM163,6l-.36-.63,1.89-1.09.37.63Zm3.79-2.18-.37-.64,1.9-1.09.36.63Z"/><rect class="a826f7dc-a56b-40d3-88ef-084db6129b42" x="170.28" y="0.64" width="1.1" height="0.73" transform="translate(22.31 85.42) rotate(-29.95)"/><rect class="a826f7dc-a56b-40d3-88ef-084db6129b42" x="0.85" y="98.78" width="1.1" height="0.73"/><path class="a826f7dc-a56b-40d3-88ef-084db6129b42" d="M224.84,99.51h-2.18v-.73h2.18Zm-4.37,0h-2.18v-.73h2.18Zm-4.37,0h-2.18v-.73h2.18Zm-4.37,0h-2.19v-.73h2.19Zm-4.37,0h-2.19v-.73h2.19Zm-4.37,0H200.8v-.73H203Zm-4.37,0h-2.19v-.73h2.19Zm-4.37,0h-2.19v-.73h2.19Zm-4.37,0h-2.19v-.73h2.19Zm-4.37,0h-2.19v-.73h2.19Zm-4.37,0H179v-.73h2.19Zm-4.37,0h-2.19v-.73h2.19Zm-4.37,0h-2.19v-.73h2.19Zm-4.38,0h-2.18v-.73H168Zm-4.37,0h-2.18v-.73h2.18Zm-4.37,0H157.1v-.73h2.18Zm-4.37,0h-2.18v-.73h2.18Zm-4.37,0h-2.18v-.73h2.18Zm-4.37,0H144v-.73h2.18Zm-4.37,0h-2.18v-.73h2.18Zm-4.37,0h-2.18v-.73h2.18Zm-4.37,0h-2.18v-.73h2.18Zm-4.37,0H126.5v-.73h2.19Zm-4.37,0h-2.19v-.73h2.19Zm-4.37,0h-2.19v-.73H120Zm-4.37,0h-2.19v-.73h2.19Zm-4.37,0H109v-.73h2.19Zm-4.37,0h-2.19v-.73h2.19Zm-4.37,0h-2.19v-.73h2.19Zm-4.37,0H95.91v-.73H98.1Zm-4.37,0H91.54v-.73h2.19Zm-4.38,0H87.17v-.73h2.18Zm-4.37,0H82.8v-.73H85Zm-4.37,0H78.43v-.73h2.18Zm-4.37,0H74.06v-.73h2.18Zm-4.37,0H69.69v-.73h2.18Zm-4.37,0H65.32v-.73H67.5Zm-4.37,0H61v-.73h2.18Zm-4.37,0H56.58v-.73h2.18Zm-4.37,0H52.21v-.73h2.18Zm-4.37,0H47.83v-.73H50Zm-4.37,0H43.46v-.73h2.19Zm-4.37,0H39.09v-.73h2.19Zm-4.37,0H34.72v-.73h2.19Zm-4.37,0H30.35v-.73h2.19Zm-4.37,0H26v-.73h2.19Zm-4.37,0H21.61v-.73H23.8Zm-4.37,0H17.24v-.73h2.19Zm-4.37,0H12.87v-.73h2.19Zm-4.38,0H8.5v-.73h2.18Zm-4.37,0H4.13v-.73H6.31Z"/><rect class="a826f7dc-a56b-40d3-88ef-084db6129b42" x="227.03" y="98.78" width="1.1" height="0.73"/><rect class="a826f7dc-a56b-40d3-88ef-084db6129b42" x="0.96" y="98.87" width="0.73" height="1.1" transform="translate(-85.45 50.87) rotate(-60.01)"/><path class="a826f7dc-a56b-40d3-88ef-084db6129b42" d="M168.28,196.24l-1.9-1.1.37-.63,1.89,1.09Zm-3.79-2.19L162.6,193l.36-.64,1.9,1.1Zm-3.79-2.19-1.89-1.09.36-.63,1.9,1.09Zm-3.79-2.18-1.89-1.1.37-.63,1.89,1.09Zm-3.78-2.19-1.9-1.09.37-.64,1.89,1.1Zm-3.79-2.19-1.9-1.09.37-.63,1.89,1.09Zm-3.79-2.18-1.89-1.1.36-.63,1.9,1.09Zm-3.79-2.19-1.89-1.09.36-.64,1.9,1.1ZM138,178.74l-1.9-1.09.37-.63,1.89,1.09Zm-3.79-2.18-1.9-1.1.37-.63,1.89,1.09Zm-3.79-2.19-1.9-1.1.37-.63,1.89,1.09Zm-3.79-2.19-1.89-1.09.36-.64,1.9,1.1ZM122.82,170l-1.89-1.09.36-.63,1.9,1.09ZM119,167.81l-1.9-1.1.37-.63,1.89,1.09Zm-3.79-2.19-1.9-1.09.37-.64,1.89,1.1Zm-3.79-2.19-1.89-1.09.36-.63,1.9,1.09Zm-3.79-2.18-1.89-1.1.36-.63,1.9,1.09Zm-3.79-2.19L102,158l.37-.64,1.89,1.1Zm-3.78-2.19-1.9-1.09.37-.63,1.89,1.09Zm-3.79-2.18-1.9-1.1.37-.63,1.89,1.09Zm-3.79-2.19-1.89-1.09.36-.64,1.9,1.1Zm-3.79-2.19-1.89-1.09.37-.63,1.89,1.09ZM85,148.13,83.1,147l.37-.63,1.89,1.09Zm-3.79-2.19-1.9-1.09.37-.64,1.89,1.1Zm-3.79-2.19-1.89-1.09.36-.64,1.9,1.1Zm-3.79-2.19-1.89-1.09.36-.63,1.9,1.09Zm-3.79-2.18L68,138.28l.37-.63,1.89,1.09ZM66,137.19l-1.9-1.09.37-.64,1.89,1.1ZM62.22,135l-1.89-1.09.36-.63,1.89,1.09Zm-3.79-2.18-1.89-1.1.36-.63,1.9,1.09Zm-3.79-2.19-1.89-1.09.36-.64L55,130Zm-3.79-2.19L49,127.35l.37-.63,1.89,1.09Zm-3.78-2.18-1.9-1.1.37-.63,1.89,1.09Zm-3.79-2.19L41.39,123l.36-.64,1.9,1.1Zm-3.79-2.19-1.89-1.09.36-.63,1.9,1.09ZM35.7,119.7l-1.89-1.1.37-.63,1.89,1.09Zm-3.78-2.19L30,116.42l.37-.64,1.89,1.1Zm-3.79-2.19-1.9-1.09.37-.63,1.89,1.09Zm-3.79-2.18L22.45,112l.36-.63,1.9,1.09ZM20.55,111l-1.89-1.1.36-.63,1.9,1.09Zm-3.78-2.19-1.9-1.09.37-.64,1.89,1.1ZM13,106.57l-1.9-1.09.37-.63,1.89,1.09Zm-3.79-2.18-1.89-1.1.36-.63,1.89,1.09ZM5.4,102.2l-1.89-1.09.36-.64,1.9,1.1Z"/><rect class="a826f7dc-a56b-40d3-88ef-084db6129b42" x="170.46" y="196.75" width="0.73" height="1.1" transform="matrix(0.5, -0.87, 0.87, 0.5, -85.46, 246.55)"/><rect class="a826f7dc-a56b-40d3-88ef-084db6129b42" x="57.78" y="0.46" width="0.73" height="1.1" transform="translate(28.19 50.85) rotate(-59.99)"/><path class="a826f7dc-a56b-40d3-88ef-084db6129b42" d="M225.1,97.82l-1.9-1.09.37-.64,1.89,1.1Zm-3.79-2.18-1.89-1.1.36-.63,1.9,1.09Zm-3.79-2.19-1.89-1.1.36-.63,1.9,1.09Zm-3.79-2.19-1.89-1.09.37-.64,1.89,1.1ZM210,89.07,208.05,88l.37-.63,1.89,1.09Zm-3.79-2.18-1.9-1.1.37-.63,1.89,1.09Zm-3.79-2.19-1.89-1.09.36-.64,1.9,1.1Zm-3.79-2.19-1.89-1.09.36-.63,1.9,1.09Zm-3.78-2.18-1.9-1.1.37-.63,1.89,1.09ZM191,78.14l-1.9-1.09.37-.64,1.89,1.1ZM187.22,76l-1.89-1.09.36-.63,1.89,1.09Zm-3.79-2.18-1.89-1.1.36-.63,1.9,1.09Zm-3.79-2.19-1.89-1.09.37-.64L180,71Zm-3.78-2.19L174,68.3l.37-.64,1.89,1.1Zm-3.79-2.18-1.9-1.1.37-.63,1.89,1.09ZM168.28,65l-1.89-1.1.36-.63,1.9,1.09Zm-3.79-2.19-1.89-1.09.36-.64,1.9,1.1Zm-3.78-2.19-1.9-1.09.37-.63,1.89,1.1Zm-3.79-2.18-1.9-1.1.37-.63,1.89,1.09Zm-3.79-2.19-1.89-1.09.36-.64,1.9,1.1Zm-3.79-2.19L147.45,53l.36-.63,1.9,1.09Zm-3.79-2.18-1.89-1.1.37-.63,1.89,1.09Zm-3.78-2.19-1.9-1.09.37-.64,1.89,1.1ZM138,47.52l-1.9-1.09.37-.63,1.89,1.09Zm-3.79-2.18-1.89-1.1.36-.63,1.9,1.09Zm-3.79-2.19-1.89-1.09.36-.64,1.9,1.1ZM126.62,41l-1.9-1.09.37-.63,1.91,1Zm-3.79-2.18-1.9-1.1.37-.63,1.89,1.09ZM119,36.59l-1.9-1.09.37-.64,1.9,1.1Zm-3.79-2.19-1.89-1.09.36-.64,1.9,1.1Zm-3.79-2.19-1.89-1.09.36-.63,1.9,1.09ZM107.67,30l-1.89-1.1.37-.63L108,29.39Zm-3.78-2.19L102,26.75l.37-.64,1.89,1.1Zm-3.79-2.19-1.89-1.09.36-.63,1.9,1.09Zm-3.79-2.18-1.89-1.1.36-.63,1.9,1.09Zm-3.79-2.19-1.89-1.09.37-.64,1.89,1.1Zm-3.78-2.19L86.84,18l.37-.63,1.89,1.09ZM85,16.91l-1.9-1.1.37-.63,1.89,1.09Zm-3.79-2.19-1.89-1.09.36-.64,1.9,1.1Zm-3.79-2.19-1.89-1.09.36-.63,1.9,1.09Zm-3.78-2.18-1.9-1.1.37-.63L74,9.71ZM69.8,8.16,67.9,7.07l.37-.64,1.89,1.1ZM66,6,64.12,4.88l.36-.63,1.9,1.09ZM62.22,3.79l-1.89-1.1.36-.63,1.9,1.09Z"/><polygon class="a826f7dc-a56b-40d3-88ef-084db6129b42" points="227.94 99.47 226.99 98.92 227.36 98.28 228.31 98.83 227.94 99.47"/><rect class="a826f7dc-a56b-40d3-88ef-084db6129b42" x="57.57" y="0.67" width="0.73" height="1.1" transform="translate(7.14 29.11) rotate(-29.98)"/><path class="a826f7dc-a56b-40d3-88ef-084db6129b42" d="M169.35,194.9l-1.1-1.89.64-.37,1.09,1.9Zm-2.19-3.78-1.09-1.89.63-.37,1.1,1.89ZM165,187.33l-1.1-1.89.64-.37,1.09,1.9Zm-2.19-3.78-1.09-1.89.63-.37,1.1,1.89Zm-2.18-3.79-1.1-1.89.64-.37,1.09,1.9ZM158.42,176l-1.09-1.89.63-.37,1.09,1.89Zm-2.19-3.79-1.09-1.89.64-.37,1.09,1.9Zm-2.18-3.78L153,166.52l.63-.37,1.09,1.89Zm-2.19-3.79-1.09-1.89.64-.37,1.09,1.9Zm-2.18-3.78-1.09-1.9.63-.36,1.09,1.89Zm-2.19-3.79-1.09-1.89.64-.37,1.09,1.9Zm-2.18-3.78-1.09-1.89.63-.37,1.09,1.89Zm-2.19-3.79L142,147.59l.63-.37,1.1,1.9Zm-2.18-3.78-1.09-1.9.63-.36,1.09,1.89Zm-2.19-3.79L137.66,140l.63-.37,1.1,1.9Zm-2.18-3.78-1.1-1.9.64-.36,1.09,1.89Zm-2.19-3.79-1.09-1.89.63-.37L135,134Zm-2.18-3.78-1.1-1.9.64-.36,1.09,1.89Zm-2.2-3.81-1.09-1.89.63-.37,1.1,1.9ZM127.83,123l-1.1-1.9.64-.36,1.09,1.89Zm-2.19-3.79-1.09-1.89.63-.37,1.1,1.9Zm-2.18-3.78-1.1-1.9.64-.36,1.09,1.89Zm-2.19-3.79-1.09-1.89.63-.37,1.1,1.9Zm-2.19-3.78L118,106l.64-.36,1.09,1.89Zm-2.18-3.79-1.09-1.89.63-.37,1.09,1.9Zm-2.19-3.78-1.09-1.9.64-.36,1.09,1.89Zm-2.18-3.79-1.09-1.89.63-.37,1.09,1.9Zm-2.19-3.78-1.09-1.9.64-.36L111,92.34Zm-2.18-3.79L107.07,87l.63-.37,1.09,1.9ZM106,85.14l-1.09-1.9.64-.36,1.09,1.89Zm-2.18-3.79-1.09-1.89.63-.37,1.09,1.9Zm-2.19-3.78-1.09-1.9.64-.36,1.09,1.89Zm-2.18-3.79-1.09-1.89.63-.37,1.09,1.9ZM97.23,70l-1.09-1.9.63-.36,1.1,1.89Zm-2.18-3.79-1-1.89.64-.37,1.09,1.9Zm-2.19-3.78-1.09-1.9.63-.36,1.1,1.89Zm-2.18-3.79-1.1-1.89.64-.37,1.09,1.9Zm-2.19-3.78L87.4,53l.6-.4,1.1,1.89Zm-2.18-3.79-1.1-1.89.64-.37,1.09,1.9Zm-2.19-3.78L83,45.39l.63-.36,1.1,1.89ZM81.94,43.5l-1.1-1.89.64-.37,1.09,1.9Zm-2.19-3.78-1.09-1.9.63-.36,1.09,1.89Zm-2.18-3.79L76.47,34l.64-.37,1.09,1.9Zm-2.19-3.78-1.09-1.9.63-.36L76,31.78Zm-2.19-3.79L72.1,26.47l.64-.37L73.83,28ZM71,24.58l-1.09-1.9.63-.36,1.09,1.89Zm-2.19-3.79L67.73,18.9l.64-.37,1.09,1.9ZM66.64,17l-1.09-1.9.63-.36,1.09,1.89Zm-2.19-3.79-1.09-1.89L64,11l1.09,1.9ZM62.27,9.44l-1.09-1.9.63-.36L62.9,9.07ZM60.08,5.65,59,3.76l.64-.37,1.09,1.9Z"/><rect class="a826f7dc-a56b-40d3-88ef-084db6129b42" x="170.67" y="196.54" width="0.73" height="1.1" transform="translate(-75.61 111.88) rotate(-29.99)"/><rect class="a826f7dc-a56b-40d3-88ef-084db6129b42" x="170.94" y="0.73" width="0.73" height="1.1"/><path class="a826f7dc-a56b-40d3-88ef-084db6129b42" d="M171.67,194.28h-.73v-2.19h.73Zm0-4.38h-.73v-2.18h.73Zm0-4.37h-.73v-2.19h.73Zm0-4.37h-.73V179h.73Zm0-4.38h-.73V174.6h.73Zm0-4.37h-.73v-2.19h.73Zm0-4.38h-.73v-2.18h.73Zm0-4.37h-.73v-2.19h.73Zm0-4.37h-.73V157.1h.73Zm0-4.38h-.73v-2.18h.73Zm0-4.37h-.73v-2.19h.73Zm0-4.37h-.73V144h.73Zm0-4.38h-.73V139.6h.73Zm0-4.37h-.73v-2.19h.73Zm0-4.38h-.73v-2.18h.73Zm0-4.37h-.73v-2.19h.73Zm0-4.37h-.73v-2.19h.73Zm0-4.38h-.73v-2.18h.73Zm0-4.37h-.73v-2.19h.73Zm0-4.37h-.73V109h.73Zm0-4.38h-.73v-2.19h.73Zm0-4.37h-.73v-2.19h.73Zm0-4.38h-.73V95.87h.73Zm0-4.37h-.73V91.49h.73Zm0-4.37h-.73V87.12h.73Zm0-4.38h-.73V82.75h.73Zm0-4.37h-.73V78.37h.73Zm0-4.38h-.73V74h.73Zm0-4.37h-.73V69.62h.73Zm0-4.37h-.73V65.25h.73Zm0-4.38h-.73V60.88h.73Zm0-4.37h-.73V56.5h.73Zm0-4.37h-.73V52.13h.73Zm0-4.38h-.73V47.76h.73Zm0-4.37h-.73V43.38h.73Zm0-4.38h-.73V39h.73Zm0-4.37h-.73V34.63h.73Zm0-4.37h-.73V30.26h.73Zm0-4.38h-.73V25.89h.73Zm0-4.37h-.73V21.51h.73Zm0-4.37h-.73V17.14h.73Zm0-4.38h-.73V12.77h.73Zm0-4.37h-.73V8.39h.73Zm0-4.38h-.73V4h.73Z"/><rect class="a826f7dc-a56b-40d3-88ef-084db6129b42" x="170.94" y="196.46" width="0.73" height="1.1"/><path class="a826f7dc-a56b-40d3-88ef-084db6129b42" d="M171.73,198.3H57.24l-.21-.37L0,99.15l.21-.37L57.24,0H171.73l.21.37,57,98.78-.21.36ZM58.09,196.83H170.88l56.4-97.68L170.88,1.46H58.09L1.69,99.15Z"/></g></svg>