<svg id="fa5d5133-89f2-453c-a2c0-20f0e311d708" data-name="Layer 1" xmlns="http://www.w3.org/2000/svg" viewBox="0 0 290.61 335.16"><defs><style>.a0743432-df62-45e5-b0a3-0a90cb54f04a{fill:none;stroke:#000000;;stroke-linecap:round;stroke-linejoin:round;stroke-width:2.66px;}</style></defs><title>05u</title><g id="ad4e1b64-9adb-49cc-8331-9e602ecb7fc1" data-name="EXTRA"><line class="a0743432-df62-45e5-b0a3-0a90cb54f04a" x1="1.33" y1="84.45" x2="47.4" y2="57.85"/><line class="a0743432-df62-45e5-b0a3-0a90cb54f04a" x1="99.23" y1="27.93" x2="145.31" y2="1.33"/><line class="a0743432-df62-45e5-b0a3-0a90cb54f04a" x1="1.33" y1="84.45" x2="54.53" y2="84.45"/><line class="a0743432-df62-45e5-b0a3-0a90cb54f04a" x1="236.08" y1="84.45" x2="289.28" y2="84.45"/><line class="a0743432-df62-45e5-b0a3-0a90cb54f04a" x1="1.33" y1="84.45" x2="32.92" y2="139.17"/><line class="a0743432-df62-45e5-b0a3-0a90cb54f04a" x1="113.72" y1="279.12" x2="145.31" y2="333.83"/><line class="a0743432-df62-45e5-b0a3-0a90cb54f04a" x1="1.33" y1="84.45" x2="1.33" y2="137.65"/><line class="a0743432-df62-45e5-b0a3-0a90cb54f04a" x1="1.33" y1="197.51" x2="1.33" y2="250.7"/><line class="a0743432-df62-45e5-b0a3-0a90cb54f04a" x1="145.31" y1="1.33" x2="191.38" y2="27.93"/><line class="a0743432-df62-45e5-b0a3-0a90cb54f04a" x1="243.21" y1="57.85" x2="289.28" y2="84.45"/><line class="a0743432-df62-45e5-b0a3-0a90cb54f04a" x1="145.31" y1="1.33" x2="176.89" y2="56.04"/><line class="a0743432-df62-45e5-b0a3-0a90cb54f04a" x1="257.7" y1="195.99" x2="289.28" y2="250.7"/><line class="a0743432-df62-45e5-b0a3-0a90cb54f04a" x1="145.31" y1="1.33" x2="113.72" y2="56.04"/><line class="a0743432-df62-45e5-b0a3-0a90cb54f04a" x1="32.92" y1="195.99" x2="1.33" y2="250.7"/><line class="a0743432-df62-45e5-b0a3-0a90cb54f04a" x1="289.28" y1="84.45" x2="289.28" y2="137.65"/><line class="a0743432-df62-45e5-b0a3-0a90cb54f04a" x1="289.28" y1="197.51" x2="289.28" y2="250.7"/><line class="a0743432-df62-45e5-b0a3-0a90cb54f04a" x1="289.28" y1="84.45" x2="257.7" y2="139.17"/><line class="a0743432-df62-45e5-b0a3-0a90cb54f04a" x1="176.89" y1="279.12" x2="145.31" y2="333.83"/><line class="a0743432-df62-45e5-b0a3-0a90cb54f04a" x1="289.28" y1="250.7" x2="243.21" y2="277.31"/><line class="a0743432-df62-45e5-b0a3-0a90cb54f04a" x1="191.38" y1="307.23" x2="145.31" y2="333.83"/><line class="a0743432-df62-45e5-b0a3-0a90cb54f04a" x1="289.28" y1="250.7" x2="226.11" y2="250.7"/><line class="a0743432-df62-45e5-b0a3-0a90cb54f04a" x1="64.5" y1="250.7" x2="1.33" y2="250.7"/><line class="a0743432-df62-45e5-b0a3-0a90cb54f04a" x1="145.31" y1="333.83" x2="99.23" y2="307.23"/><line class="a0743432-df62-45e5-b0a3-0a90cb54f04a" x1="47.4" y1="277.31" x2="1.33" y2="250.7"/><line class="a0743432-df62-45e5-b0a3-0a90cb54f04a" x1="193.44" y1="84.2" x2="208.85" y2="110.88"/><line class="a0743432-df62-45e5-b0a3-0a90cb54f04a" x1="226.18" y1="140.9" x2="241.58" y2="167.58"/><line class="a0743432-df62-45e5-b0a3-0a90cb54f04a" x1="193.44" y1="84.2" x2="193.44" y2="120.78"/><line class="a0743432-df62-45e5-b0a3-0a90cb54f04a" x1="193.44" y1="214.38" x2="193.44" y2="250.96"/><line class="a0743432-df62-45e5-b0a3-0a90cb54f04a" x1="193.44" y1="84.2" x2="161.77" y2="102.49"/><line class="a0743432-df62-45e5-b0a3-0a90cb54f04a" x1="80.71" y1="149.29" x2="49.03" y2="167.58"/><line class="a0743432-df62-45e5-b0a3-0a90cb54f04a" x1="193.44" y1="84.2" x2="162.64" y2="84.2"/><line class="a0743432-df62-45e5-b0a3-0a90cb54f04a" x1="127.98" y1="84.2" x2="97.17" y2="84.2"/><line class="a0743432-df62-45e5-b0a3-0a90cb54f04a" x1="241.58" y1="167.58" x2="226.18" y2="194.26"/><line class="a0743432-df62-45e5-b0a3-0a90cb54f04a" x1="208.85" y1="224.28" x2="193.44" y2="250.96"/><line class="a0743432-df62-45e5-b0a3-0a90cb54f04a" x1="241.58" y1="167.58" x2="214.9" y2="182.98"/><line class="a0743432-df62-45e5-b0a3-0a90cb54f04a" x1="123.85" y1="235.55" x2="97.17" y2="250.96"/><line class="a0743432-df62-45e5-b0a3-0a90cb54f04a" x1="241.58" y1="167.58" x2="214.9" y2="152.18"/><line class="a0743432-df62-45e5-b0a3-0a90cb54f04a" x1="123.85" y1="99.61" x2="97.17" y2="84.2"/><line class="a0743432-df62-45e5-b0a3-0a90cb54f04a" x1="193.44" y1="250.96" x2="162.64" y2="250.96"/><line class="a0743432-df62-45e5-b0a3-0a90cb54f04a" x1="127.98" y1="250.96" x2="97.17" y2="250.96"/><line class="a0743432-df62-45e5-b0a3-0a90cb54f04a" x1="193.44" y1="250.96" x2="161.77" y2="232.67"/><line class="a0743432-df62-45e5-b0a3-0a90cb54f04a" x1="80.71" y1="185.87" x2="49.03" y2="167.58"/><line class="a0743432-df62-45e5-b0a3-0a90cb54f04a" x1="97.17" y1="250.96" x2="81.76" y2="224.28"/><line class="a0743432-df62-45e5-b0a3-0a90cb54f04a" x1="64.43" y1="194.26" x2="49.03" y2="167.58"/><line class="a0743432-df62-45e5-b0a3-0a90cb54f04a" x1="97.17" y1="250.96" x2="97.17" y2="220.15"/><line class="a0743432-df62-45e5-b0a3-0a90cb54f04a" x1="97.17" y1="115.01" x2="97.17" y2="84.2"/><line class="a0743432-df62-45e5-b0a3-0a90cb54f04a" x1="49.03" y1="167.58" x2="64.43" y2="140.9"/><line class="a0743432-df62-45e5-b0a3-0a90cb54f04a" x1="81.76" y1="110.88" x2="97.17" y2="84.2"/><line class="a0743432-df62-45e5-b0a3-0a90cb54f04a" x1="97.75" y1="140.12" x2="112.97" y2="131.34"/><line class="a0743432-df62-45e5-b0a3-0a90cb54f04a" x1="130.09" y1="121.45" x2="145.31" y2="112.67"/><line class="a0743432-df62-45e5-b0a3-0a90cb54f04a" x1="97.75" y1="140.12" x2="97.75" y2="157.7"/><line class="a0743432-df62-45e5-b0a3-0a90cb54f04a" x1="97.75" y1="177.46" x2="97.75" y2="195.04"/><line class="a0743432-df62-45e5-b0a3-0a90cb54f04a" x1="145.31" y1="112.67" x2="160.52" y2="121.45"/><line class="a0743432-df62-45e5-b0a3-0a90cb54f04a" x1="177.64" y1="131.34" x2="192.86" y2="140.12"/><line class="a0743432-df62-45e5-b0a3-0a90cb54f04a" x1="192.86" y1="140.12" x2="192.86" y2="157.7"/><line class="a0743432-df62-45e5-b0a3-0a90cb54f04a" x1="192.86" y1="177.46" x2="192.86" y2="195.04"/><line class="a0743432-df62-45e5-b0a3-0a90cb54f04a" x1="192.86" y1="195.04" x2="177.64" y2="203.82"/><line class="a0743432-df62-45e5-b0a3-0a90cb54f04a" x1="160.52" y1="213.71" x2="145.31" y2="222.49"/><line class="a0743432-df62-45e5-b0a3-0a90cb54f04a" x1="145.31" y1="222.49" x2="130.09" y2="213.71"/><line class="a0743432-df62-45e5-b0a3-0a90cb54f04a" x1="112.97" y1="203.82" x2="97.75" y2="195.04"/></g></svg>