<svg id="f56b94c5-dc90-48f8-8960-51142be80b02" data-name="Layer 1" xmlns="http://www.w3.org/2000/svg" viewBox="0 0 334.63 290.08"><defs><style>.a3897053-264d-4801-9bb9-b684b4bd401a,.abbb572b-4809-4222-9230-32371477f2fe,.b638f969-d50a-40de-899c-306da330585a{fill:none;stroke:#000000;;stroke-linecap:round;stroke-linejoin:round;stroke-width:2.13px;}.abbb572b-4809-4222-9230-32371477f2fe{stroke-dasharray:54.76 17.8;}.a3897053-264d-4801-9bb9-b684b4bd401a{stroke-dasharray:71.28 23.17;}</style></defs><title>07u</title><g id="be60bd5b-554a-4b13-82d0-a8333fe0d5b9" data-name="EXTRA"><line class="b638f969-d50a-40de-899c-306da330585a" x1="84.19" y1="289.01" x2="65.22" y2="256.16"/><line class="abbb572b-4809-4222-9230-32371477f2fe" x1="56.31" y1="240.74" x2="24.48" y2="185.61"/><line class="b638f969-d50a-40de-899c-306da330585a" x1="20.04" y1="177.91" x2="1.07" y2="145.03"/><line class="b638f969-d50a-40de-899c-306da330585a" x1="84.19" y1="289.01" x2="84.19" y2="251.07"/><line class="a3897053-264d-4801-9bb9-b684b4bd401a" x1="84.19" y1="227.91" x2="84.19" y2="50.59"/><line class="b638f969-d50a-40de-899c-306da330585a" x1="84.19" y1="39" x2="84.19" y2="1.07"/><line class="b638f969-d50a-40de-899c-306da330585a" x1="84.19" y1="289.01" x2="117.05" y2="270.04"/><line class="a3897053-264d-4801-9bb9-b684b4bd401a" x1="137.11" y1="258.45" x2="290.67" y2="169.8"/><line class="b638f969-d50a-40de-899c-306da330585a" x1="300.7" y1="164.02" x2="333.57" y2="145.03"/><line class="b638f969-d50a-40de-899c-306da330585a" x1="84.19" y1="289.01" x2="122.13" y2="289.01"/><line class="abbb572b-4809-4222-9230-32371477f2fe" x1="139.94" y1="289.01" x2="203.6" y2="289.01"/><line class="b638f969-d50a-40de-899c-306da330585a" x1="212.5" y1="289.01" x2="250.44" y2="289.01"/><line class="b638f969-d50a-40de-899c-306da330585a" x1="1.07" y1="145.03" x2="20.04" y2="112.18"/><line class="abbb572b-4809-4222-9230-32371477f2fe" x1="28.94" y1="96.76" x2="60.77" y2="41.63"/><line class="b638f969-d50a-40de-899c-306da330585a" x1="65.22" y1="33.93" x2="84.19" y2="1.07"/><line class="b638f969-d50a-40de-899c-306da330585a" x1="1.07" y1="145.03" x2="33.93" y2="126.06"/><line class="a3897053-264d-4801-9bb9-b684b4bd401a" x1="53.99" y1="114.48" x2="207.55" y2="25.82"/><line class="b638f969-d50a-40de-899c-306da330585a" x1="217.58" y1="20.04" x2="250.44" y2="1.07"/><line class="b638f969-d50a-40de-899c-306da330585a" x1="1.07" y1="145.03" x2="33.93" y2="164.02"/><line class="a3897053-264d-4801-9bb9-b684b4bd401a" x1="53.99" y1="175.6" x2="207.55" y2="264.26"/><line class="b638f969-d50a-40de-899c-306da330585a" x1="217.58" y1="270.04" x2="250.44" y2="289.01"/><line class="b638f969-d50a-40de-899c-306da330585a" x1="84.19" y1="1.07" x2="122.13" y2="1.07"/><line class="abbb572b-4809-4222-9230-32371477f2fe" x1="139.94" y1="1.07" x2="203.6" y2="1.07"/><line class="b638f969-d50a-40de-899c-306da330585a" x1="212.5" y1="1.07" x2="250.44" y2="1.07"/><line class="b638f969-d50a-40de-899c-306da330585a" x1="84.19" y1="1.07" x2="117.05" y2="20.04"/><line class="a3897053-264d-4801-9bb9-b684b4bd401a" x1="137.11" y1="31.62" x2="290.67" y2="120.27"/><line class="b638f969-d50a-40de-899c-306da330585a" x1="300.7" y1="126.06" x2="333.57" y2="145.03"/><line class="b638f969-d50a-40de-899c-306da330585a" x1="250.44" y1="1.07" x2="269.41" y2="33.93"/><line class="abbb572b-4809-4222-9230-32371477f2fe" x1="278.3" y1="49.34" x2="310.14" y2="104.47"/><line class="b638f969-d50a-40de-899c-306da330585a" x1="314.58" y1="112.18" x2="333.57" y2="145.03"/><line class="b638f969-d50a-40de-899c-306da330585a" x1="250.44" y1="1.07" x2="250.44" y2="39"/><line class="a3897053-264d-4801-9bb9-b684b4bd401a" x1="250.44" y1="62.18" x2="250.44" y2="239.49"/><line class="b638f969-d50a-40de-899c-306da330585a" x1="250.44" y1="251.07" x2="250.44" y2="289.01"/><line class="b638f969-d50a-40de-899c-306da330585a" x1="333.57" y1="145.03" x2="314.58" y2="177.91"/><line class="abbb572b-4809-4222-9230-32371477f2fe" x1="305.69" y1="193.32" x2="273.85" y2="248.44"/><line class="b638f969-d50a-40de-899c-306da330585a" x1="269.41" y1="256.16" x2="250.44" y2="289.01"/></g></svg>