<svg id="a3f80a84-bac1-49bd-93cb-562c9bb17be1" data-name="Layer 1" xmlns="http://www.w3.org/2000/svg" viewBox="0 0 221.19 191.57"><title>08u</title><g id="bcd1989e-8331-4c45-91c9-b89faea6ea81" data-name="Layer 1-2"><path d="M176.19,173.68l45-77.87L211,78.15V78.1l-.16-.19L165.87,0H55.29L45.1,17.69H45l-.08.24L0,95.81l10.19,17.65v.05l.16.19,45,77.87H165.83L176,173.92h0ZM220,95.81l-41.84,72.46,4.38-12h.05V156l27.89-76.61ZM36.51,74.38,38,83h0l.08.23,11,62.61-12.6-7.27Zm148.14,42.85-1.52-8.58h0l-.09-.23L172,45.81,184.65,53Zm-28.88-10.51-.53-3h0l-.09-.23-6.65-38,7.27,4.19ZM65.39,84.89l.52,3h0l.08.23,6.69,37.94-7.26-4.19ZM138,105.8l-14,11.75,13.29-15.83Zm-54.91-20,14-11.75L83.84,89.89Zm10.85,4,6.8-5.71-6.46,7.69Zm33.22,12.09-6.8,5.71,6.45-7.69Zm-25.33,6.7-1.73-.3L97.5,101ZM95.65,95.81l7.46-12.93H118l7.46,12.93L118,108.73H103.11Zm21.61,13.92-1.13,1.34-7.59-1.34ZM126,97l.6,1.65-5,5.9Zm-6.7-13.94,1.72.3,2.64,7.25Zm-15.4-1.18,1.1-1.34,7.6,1.34ZM95.18,94.63,94.58,93l5-5.9Zm3.75,13.23L97,107.17l-1.55-8.74Zm16.26,4.06-1.54,1.29-8.34-3Zm7-28.17,1.89.69,1.54,8.75ZM106,79.69l1.54-1.29,8.34,3ZM94,95.28l2,11.29-2-1.15Zm18.65,18.61-2,1.15-8.86-5Zm14.66-10.77v2.3l-8.78,5.07Zm0-6.79-2-11.29,2,1.15ZM108.58,77.72l2-1.15,8.78,5.08ZM93.92,88.49v-2.3l8.79-5.07Zm-1,3.13v13l-2-1.68Zm16.48,23.89-2.45.89L98.12,109Zm17.65-8.83-.45,2.57-10.82,3.94Zm1.18-6.69V87l2,1.68ZM111.76,76.1l2.45-.89,8.82,7.4ZM94.1,84.93l.46-2.57,10.82-3.94ZM90.1,102l-1.89-2.26,4.45-12.22Zm15.63,14.65-2.9.52-8.36-10Zm20.51-6.2-1,2.77-12.81,2.26Zm4.87-20.86,1.9,2.26-4.45,12.22ZM115.45,75l2.91-.52,8.36,10ZM95,81.15l1-2.77,12.81-2.26ZM87.51,98.68l-1.66-2.87,7.31-12.67Zm14,18.54h-3.3L90.9,104.55Zm23.07-2.87-1.66,2.87h-14.6Zm9-21.42,1.65,2.88L128,108.47Zm-14-18.54h3.31l7.31,12.67ZM96.56,77.26l1.65-2.87h14.63ZM85.38,94.63l-1.27-3.49L94.63,78.59ZM97,117l-3.66-.64L87.7,101Zm25.2,1.18L119.81,121l-16.13-2.84ZM135.78,97l1.27,3.49L126.52,113ZM124.2,74.57l3.66.64,5.6,15.4ZM99,73.39l2.38-2.84,16.13,2.84ZM92.09,116l-3.89-1.41-3.2-18Zm26.74,5.91-3.18,2.67-17.18-6.26Zm10.23-46.3L133,77l3.17,18ZM102.33,69.7,105.5,67l17.18,6.26ZM83.08,84.54V79.93L100.7,69.76Zm0,6.79,4,22.66-4-2.31Zm31.49,33.92-4,2.31L93,117.38Zm23.5-18.18v4.61l-17.62,10.18Zm0-6.79-4-22.66,4,2.31ZM106.58,66.36l4-2.3L128.2,74.23Zm-1.22-.44Zm-.25.14L83.26,78.67l.89-5L105.23,66Zm-23,19.32Zm0,.13V110.9l-3.92-3.29Zm5.25,29.76Zm.24.14L109.4,128l-4.81,1.75L87.4,115.36Zm28.2,10.29Zm.24-.14,21.86-12.62-.89,5-21.09,7.68Zm23-19.33Zm0-.13V80.71L143,84Zm-5.25-29.76Zm-.23-.14L111.75,63.58l4.82-1.75,17.19,14.42Zm-23-13.27h0l-.21.12-25.83,9.4,1.94-5.33,24.64-4.34ZM82.13,79.33h0v.25l-4.77,27.06-3.65-4.35L82.22,78.8Zm0,32.87v.06l.21.12,21,17.66-5.58,1L81.67,111.86Zm28.45,16.48h0l.21-.12,25.82-9.4-1.94,5.33L110,128.86ZM139,112.29h0V112l4.85-27,3.64,4.35-8.56,23.51Zm0-32.88v-.06l-.21-.12-21-17.66,5.59-1,16.08,19.17ZM116.81,60.73h0l-.23.09L87.08,66l3.14-5.43h27.66ZM83.32,72.87h-.06v.24L73,101.24l-3.13-5.43,13.83-24ZM77.08,108h0l.19.16L96.5,131.07H90.22l-13.83-24Zm27.26,22.93h0l.23-.09L134,125.65l-3.13,5.43H103.28Zm33.5-12.14h0v-.24l10.23-28.1,3.14,5.43-13.83,24Zm6.23-35.07v-.06l-.18-.15-19.22-23h6.27l13.83,23.95ZM123.83,59.54H91l4.45-5.3,30.06,5.3Zm-38,6.66h-.06l-.08.23L69.38,94.63,67,88.13,86.64,64.74ZM72.55,102.46v.05l.15.19L89,130.89l-6.82-1.2L71.7,101Zm24.78,29.61h32.79l-4.44,5.3-30.07-5.3Zm38-6.66h0l.09-.23L151.77,97l2.37,6.51-19.62,23.38Zm13.25-36.26V89.1l-.16-.19L132.2,60.72l6.81,1.2,10.44,28.69Zm-17-29.56v-.05h-.25l-34.9-6.15,5.84-4.9L133.84,60Zm-41.85-.05h0l-.12.21L66.75,86.88l-1.32-7.51L91.19,57.75Zm-21,36.22h0l.12.21L80.94,129.3l-7.17-2.61L67.93,93.57ZM89.61,132h.24l34.88,6.15-5.84,4.9-31.6-11.5Zm41.85,0h.06l.12-.21,22.76-27.13,1.33,7.51L130,133.86Zm21-36.22h0l-.12-.22L140.22,62.31l7.16,2.61,5.84,33.13ZM139.77,61.09V61h-.24l-36.2-13.17,7.27-4.2,32,18.51ZM95.11,53.16h-.06l-.16.19L65.39,78.1V69.71l32.05-18.5ZM81.38,130.52v.06h.25l36.19,13.17-7.26,4.2-32-18.51Zm44.67,7.93h0l.16-.19,29.51-24.76v8.39l-32,18.5Zm22.23-74.22h0L148,64.1,111.76,43.15,120.42,40l31.15,26.14ZM102.09,47.37H102l-.18.16L65.56,68.46l1.61-9.08,38.21-13.91ZM64.39,78.94h0v42.13l-7.06-5.92,7.06-40Zm8.49,48.44v.05l.23.08,36.28,21-8.66,3.15L69.59,125.48Zm46.19,16.86h.05l.19-.16,36.28-21-1.6,9.08-38.21,13.91Zm37.7-31.57h0V70.5l7.06,5.92-7.06,40.05Zm0-43.48h0l-.22-.13L121.66,39.73l10-1.75,28.68,34.19ZM110.63,42.5h0l-.22.12L67.56,58.17,71,48.66l44-7.75ZM64.43,69.11h0v.24l-7.91,44.86L50,106.49,65.24,64.55Zm0,53.31h0l.21.13,34.89,29.28-10,1.75L60.84,119.44Zm46.14,26.69h0l.21-.12,42.8-15.58L150.13,143l-43.95,7.75Zm46.19-26.61h.05v-.24l7.91-44.86,6.5,7.75L156,127.09Zm8.18-46.42h0l-.18-.16-31.87-38H144l24.47,42.39ZM120.66,38.89h0l-.23.08-48.77,8.6L77.21,38h48.94ZM66.33,58.62h0v.24l-17,46.55-5.55-9.6L68.23,53.42ZM56.25,115.53h0l.19.16,31.83,37.94H77.17L52.7,111.29Zm44.24,37.19h.05l.22-.08,48.78-8.6L144,153.68H95.05ZM154.82,133h.05v-.24l17-46.56,5.55,9.61-24.47,42.38ZM172.3,85h0l-.16-.19-26.89-46.7,12,2.11,18.33,50.39ZM132.06,37H78l7.81-9.3,52.8,9.3ZM70.33,47.77h0l-.09.23-27,46.63L39.12,83.21,73.59,42.14ZM48.85,106.64h0l.15.19L75.91,153.5l-12-2.11L45.6,101Zm40.25,48h54.1L135.39,164l-52.8-9.31Zm61.72-10.84h.06l.08-.23L177.87,97,182,108.4l-34.46,41.07Zm27.71-48h0l-.12-.22-20-55,12.5,4.55L181.11,103ZM144.59,37h-.25L86.71,26.78,96.9,18.22,152.05,38.3ZM76.64,37h0l-.12.22L38.86,82,36.55,68.9l45-37.72Zm-34,58.83h0l.12.21,20,55-12.5-4.55L40,88.65ZM76.57,154.7v.05h.24l57.62,10.15-10.19,8.56L69.11,153.31Zm68,.05h.06l.12-.22,37.6-44.81,2.31,13.1-45,37.72ZM158,39.39h-.24L98,17.55l12.6-7.27,55.59,32.09ZM85.42,26.55h0l-.16.19L36.51,67.59V53L92.1,21ZM63.18,152.22v.05h.24L123.16,174l-12.6,7.27L55,149.24Zm72.55,12.84h.06l.16-.19L184.65,124v14.55l-55.6,32.09Zm49.92-41.88h0V53.83l12.18,10.22-12.18,69.09Zm-13.83-78.7h0l-.23-.09L111.76,9.8,126.7,4.36l53.75,45.1ZM96.75,17.11h0l-.19.15L36.69,51.78l2.76-15.66,65.93-24ZM35.51,68.43h0v69.32L23.33,127.56,35.51,58.47Zm13.83,78.7v.05l.23.09,59.82,34.54-15,5.44-53.74-45.1Zm75.07,27.37h0l.18-.15,59.83-34.54-2.76,15.66-65.94,24Zm61.19-35.33h.05v-.25l13-73.91L209.84,78.3l-26.21,72Zm.05-86.65v-.06l-.22-.12L127.94,4.1l17.11-3,49.26,58.7Zm-75-43.37h0l-.22.13L39.84,34.91l5.94-16.32L121.26,5.28ZM35.56,52.44h-.05v.25l-13,73.91-11.2-13.29,26.21-72Zm-.05,86.65v.06l.21.12,57.49,48.24-17.11,3L26.84,131.82Zm75,43.37h0l.21-.12,70.52-25.67L175.37,173,99.9,186.33Zm96.59-109-8.22-9.79v-.06l-.18-.15L146.32,1h19ZM55.87,1h83.66L126.94,3.26h0l-.23.08L46.38,17.47ZM1.15,95.81,43,23.35l-4.37,12h-.06v.24L10.64,112.23ZM14,118.11l8.22,9.79v.1l.19.15,52.4,62.46h-19Zm151.26,72.46H81.62l12.59-2.22h0l.23-.08,80.29-14.16Z"/></g></svg>