<svg id="a88a4229-06df-435b-9be6-f2abd55fb3f2" data-name="Layer 1" xmlns="http://www.w3.org/2000/svg" viewBox="0 0 334.5 289.95"><defs><style>.a9f675e9-e35c-40e4-896f-cd5222af4c72,.ab5ee990-03c1-436e-b587-aa976b5899eb,.ae9bacc0-958d-4d9c-abe5-417e98df1548,.b4050a31-1d76-4fc2-95ca-fd8804af8167,.bc2d9186-dc23-4403-b6e4-b5ead0f3cf1f,.e7596e9a-5a07-4b9d-ad9e-8dcca6d82117,.fb85c10a-0d4c-4aaa-adfc-b281e70d3e80{fill:none;stroke:#000000;;stroke-linecap:round;stroke-linejoin:round;stroke-width:2px;}.b4050a31-1d76-4fc2-95ca-fd8804af8167{stroke-dasharray:0 10.27 0 10.27;}.ab5ee990-03c1-436e-b587-aa976b5899eb{stroke-dasharray:51.33 10.27 0 10.27 0 10.27;}.fb85c10a-0d4c-4aaa-adfc-b281e70d3e80{stroke-dasharray:0 12.35 0 12.35;}.ae9bacc0-958d-4d9c-abe5-417e98df1548{stroke-dasharray:61.74 12.35 0 12.35 0 12.35;}.bc2d9186-dc23-4403-b6e4-b5ead0f3cf1f{stroke-dasharray:0 10.34 0 10.34;}.a9f675e9-e35c-40e4-896f-cd5222af4c72{stroke-dasharray:51.7 10.34 0 10.34 0 10.34;}</style></defs><title>08u</title><g id="a9ca6fb5-5bb4-481d-b38f-5b11a33c2c8e" data-name="EXTRA"><line class="e7596e9a-5a07-4b9d-ad9e-8dcca6d82117" x1="84.12" y1="288.95" x2="70.79" y2="265.86"/><line class="b4050a31-1d76-4fc2-95ca-fd8804af8167" x1="65.66" y1="256.97" x2="57.96" y2="243.63"/><line class="ab5ee990-03c1-436e-b587-aa976b5899eb" x1="55.39" y1="239.19" x2="16.9" y2="172.51"/><line class="e7596e9a-5a07-4b9d-ad9e-8dcca6d82117" x1="14.33" y1="168.06" x2="1" y2="144.97"/><line class="e7596e9a-5a07-4b9d-ad9e-8dcca6d82117" x1="84.12" y1="288.95" x2="84.12" y2="262.29"/><line class="fb85c10a-0d4c-4aaa-adfc-b281e70d3e80" x1="84.12" y1="249.94" x2="84.12" y2="231.42"/><line class="ae9bacc0-958d-4d9c-abe5-417e98df1548" x1="84.12" y1="225.24" x2="84.12" y2="33.83"/><line class="e7596e9a-5a07-4b9d-ad9e-8dcca6d82117" x1="84.12" y1="27.66" x2="84.12" y2="1"/><line class="e7596e9a-5a07-4b9d-ad9e-8dcca6d82117" x1="84.12" y1="288.95" x2="97.45" y2="265.86"/><line class="bc2d9186-dc23-4403-b6e4-b5ead0f3cf1f" x1="102.62" y1="256.91" x2="110.38" y2="243.47"/><line class="a9f675e9-e35c-40e4-896f-cd5222af4c72" x1="112.96" y1="239" x2="234.46" y2="28.57"/><line class="e7596e9a-5a07-4b9d-ad9e-8dcca6d82117" x1="237.04" y1="24.09" x2="250.37" y2="1"/><line class="e7596e9a-5a07-4b9d-ad9e-8dcca6d82117" x1="84.12" y1="288.95" x2="107.21" y2="275.62"/><line class="fb85c10a-0d4c-4aaa-adfc-b281e70d3e80" x1="117.91" y1="269.45" x2="133.95" y2="260.18"/><line class="ae9bacc0-958d-4d9c-abe5-417e98df1548" x1="139.3" y1="257.1" x2="305.06" y2="161.39"/><line class="e7596e9a-5a07-4b9d-ad9e-8dcca6d82117" x1="310.41" y1="158.31" x2="333.5" y2="144.97"/><line class="e7596e9a-5a07-4b9d-ad9e-8dcca6d82117" x1="84.12" y1="288.95" x2="110.78" y2="288.95"/><line class="b4050a31-1d76-4fc2-95ca-fd8804af8167" x1="121.05" y1="288.95" x2="136.45" y2="288.95"/><line class="ab5ee990-03c1-436e-b587-aa976b5899eb" x1="141.58" y1="288.95" x2="218.58" y2="288.95"/><line class="e7596e9a-5a07-4b9d-ad9e-8dcca6d82117" x1="223.71" y1="288.95" x2="250.37" y2="288.95"/><line class="e7596e9a-5a07-4b9d-ad9e-8dcca6d82117" x1="1" y1="144.97" x2="14.33" y2="121.88"/><line class="b4050a31-1d76-4fc2-95ca-fd8804af8167" x1="19.46" y1="112.99" x2="27.16" y2="99.66"/><line class="ab5ee990-03c1-436e-b587-aa976b5899eb" x1="29.73" y1="95.21" x2="68.22" y2="28.53"/><line class="e7596e9a-5a07-4b9d-ad9e-8dcca6d82117" x1="70.79" y1="24.09" x2="84.12" y2="1"/><line class="e7596e9a-5a07-4b9d-ad9e-8dcca6d82117" x1="1" y1="144.97" x2="24.09" y2="131.64"/><line class="fb85c10a-0d4c-4aaa-adfc-b281e70d3e80" x1="34.78" y1="125.47" x2="50.82" y2="116.21"/><line class="ae9bacc0-958d-4d9c-abe5-417e98df1548" x1="56.17" y1="113.12" x2="221.93" y2="17.42"/><line class="e7596e9a-5a07-4b9d-ad9e-8dcca6d82117" x1="227.28" y1="14.33" x2="250.37" y2="1"/><line class="e7596e9a-5a07-4b9d-ad9e-8dcca6d82117" x1="1" y1="144.97" x2="27.66" y2="144.97"/><line class="bc2d9186-dc23-4403-b6e4-b5ead0f3cf1f" x1="38" y1="144.97" x2="53.51" y2="144.97"/><line class="a9f675e9-e35c-40e4-896f-cd5222af4c72" x1="58.68" y1="144.97" x2="301.67" y2="144.97"/><line class="e7596e9a-5a07-4b9d-ad9e-8dcca6d82117" x1="306.84" y1="144.97" x2="333.5" y2="144.97"/><line class="e7596e9a-5a07-4b9d-ad9e-8dcca6d82117" x1="1" y1="144.97" x2="24.09" y2="158.31"/><line class="fb85c10a-0d4c-4aaa-adfc-b281e70d3e80" x1="34.78" y1="164.48" x2="50.82" y2="173.74"/><line class="ae9bacc0-958d-4d9c-abe5-417e98df1548" x1="56.17" y1="176.83" x2="221.93" y2="272.53"/><line class="e7596e9a-5a07-4b9d-ad9e-8dcca6d82117" x1="227.28" y1="275.62" x2="250.37" y2="288.95"/><line class="e7596e9a-5a07-4b9d-ad9e-8dcca6d82117" x1="84.12" y1="1" x2="110.78" y2="1"/><line class="b4050a31-1d76-4fc2-95ca-fd8804af8167" x1="121.05" y1="1" x2="136.45" y2="1"/><line class="ab5ee990-03c1-436e-b587-aa976b5899eb" x1="141.58" y1="1" x2="218.58" y2="1"/><line class="e7596e9a-5a07-4b9d-ad9e-8dcca6d82117" x1="223.71" y1="1" x2="250.37" y2="1"/><line class="e7596e9a-5a07-4b9d-ad9e-8dcca6d82117" x1="84.12" y1="1" x2="107.21" y2="14.33"/><line class="fb85c10a-0d4c-4aaa-adfc-b281e70d3e80" x1="117.91" y1="20.5" x2="133.95" y2="29.76"/><line class="ae9bacc0-958d-4d9c-abe5-417e98df1548" x1="139.3" y1="32.85" x2="305.06" y2="128.56"/><line class="e7596e9a-5a07-4b9d-ad9e-8dcca6d82117" x1="310.41" y1="131.64" x2="333.5" y2="144.97"/><line class="e7596e9a-5a07-4b9d-ad9e-8dcca6d82117" x1="84.12" y1="1" x2="97.45" y2="24.09"/><line class="bc2d9186-dc23-4403-b6e4-b5ead0f3cf1f" x1="102.62" y1="33.04" x2="110.38" y2="46.47"/><line class="a9f675e9-e35c-40e4-896f-cd5222af4c72" x1="112.96" y1="50.95" x2="234.46" y2="261.38"/><line class="e7596e9a-5a07-4b9d-ad9e-8dcca6d82117" x1="237.04" y1="265.86" x2="250.37" y2="288.95"/><line class="e7596e9a-5a07-4b9d-ad9e-8dcca6d82117" x1="250.37" y1="1" x2="263.7" y2="24.09"/><line class="b4050a31-1d76-4fc2-95ca-fd8804af8167" x1="268.84" y1="32.98" x2="276.54" y2="46.31"/><line class="ab5ee990-03c1-436e-b587-aa976b5899eb" x1="279.1" y1="50.76" x2="317.6" y2="117.44"/><line class="e7596e9a-5a07-4b9d-ad9e-8dcca6d82117" x1="320.17" y1="121.88" x2="333.5" y2="144.97"/><line class="e7596e9a-5a07-4b9d-ad9e-8dcca6d82117" x1="250.37" y1="1" x2="250.37" y2="27.66"/><line class="fb85c10a-0d4c-4aaa-adfc-b281e70d3e80" x1="250.37" y1="40.01" x2="250.37" y2="58.53"/><line class="ae9bacc0-958d-4d9c-abe5-417e98df1548" x1="250.37" y1="64.71" x2="250.37" y2="256.11"/><line class="e7596e9a-5a07-4b9d-ad9e-8dcca6d82117" x1="250.37" y1="262.29" x2="250.37" y2="288.95"/><line class="e7596e9a-5a07-4b9d-ad9e-8dcca6d82117" x1="333.5" y1="144.97" x2="320.17" y2="168.06"/><line class="b4050a31-1d76-4fc2-95ca-fd8804af8167" x1="315.03" y1="176.96" x2="307.33" y2="190.29"/><line class="ab5ee990-03c1-436e-b587-aa976b5899eb" x1="304.77" y1="194.74" x2="266.27" y2="261.42"/><line class="e7596e9a-5a07-4b9d-ad9e-8dcca6d82117" x1="263.7" y1="265.86" x2="250.37" y2="288.95"/></g></svg>