<svg id="bb36c531-7b44-4823-a996-b7a7f573889d" data-name="Layer 1" xmlns="http://www.w3.org/2000/svg" viewBox="0 0 334.5 289.95"><defs><style>.aafdebc1-b2c7-432d-aac9-fff9333d260c,.ab8423f8-1e78-41f5-9ed7-74b7a68ba06b,.b581d24d-049e-43c1-b842-388deece5b28,.b93109ea-150f-4a0a-ae9b-7cb9659e624c,.e2c5ad6f-744b-4151-a401-921beaace098{fill:none;stroke:#000000;;stroke-linecap:round;stroke-linejoin:round;stroke-width:2px;}.b581d24d-049e-43c1-b842-388deece5b28{stroke-dasharray:17.19 17.19;}.b93109ea-150f-4a0a-ae9b-7cb9659e624c{stroke-dasharray:0 17.19 17.19 17.19;}.e2c5ad6f-744b-4151-a401-921beaace098{stroke-dasharray:19.85 19.85;}.ab8423f8-1e78-41f5-9ed7-74b7a68ba06b{stroke-dasharray:0 19.85 19.85 19.85;}</style></defs><title>09u</title><g id="adf7e2c8-556c-4151-aba5-533ac2317b97" data-name="EXTRA"><line class="aafdebc1-b2c7-432d-aac9-fff9333d260c" x1="84.12" y1="288.95" x2="1" y2="144.97"/><line class="aafdebc1-b2c7-432d-aac9-fff9333d260c" x1="92.81" y1="273.9" x2="92.81" y2="273.9"/><line class="b581d24d-049e-43c1-b842-388deece5b28" x1="92.81" y1="256.71" x2="92.81" y2="230.92"/><line class="b93109ea-150f-4a0a-ae9b-7cb9659e624c" x1="92.81" y1="222.33" x2="92.81" y2="24.65"/><line class="aafdebc1-b2c7-432d-aac9-fff9333d260c" x1="92.81" y1="16.05" x2="92.81" y2="16.05"/><line class="aafdebc1-b2c7-432d-aac9-fff9333d260c" x1="92.81" y1="273.9" x2="92.81" y2="273.9"/><line class="e2c5ad6f-744b-4151-a401-921beaace098" x1="102.74" y1="256.71" x2="117.63" y2="230.92"/><line class="ab8423f8-1e78-41f5-9ed7-74b7a68ba06b" x1="122.59" y1="222.33" x2="236.72" y2="24.65"/><line class="aafdebc1-b2c7-432d-aac9-fff9333d260c" x1="241.68" y1="16.05" x2="241.68" y2="16.05"/><line class="aafdebc1-b2c7-432d-aac9-fff9333d260c" x1="92.81" y1="273.9" x2="92.81" y2="273.9"/><line class="b581d24d-049e-43c1-b842-388deece5b28" x1="107.7" y1="265.3" x2="130.03" y2="252.41"/><line class="b93109ea-150f-4a0a-ae9b-7cb9659e624c" x1="137.47" y1="248.11" x2="308.67" y2="149.27"/><line class="aafdebc1-b2c7-432d-aac9-fff9333d260c" x1="316.11" y1="144.97" x2="316.11" y2="144.97"/><line class="aafdebc1-b2c7-432d-aac9-fff9333d260c" x1="84.12" y1="288.95" x2="250.37" y2="288.95"/><line class="aafdebc1-b2c7-432d-aac9-fff9333d260c" x1="1" y1="144.97" x2="84.12" y2="1"/><line class="aafdebc1-b2c7-432d-aac9-fff9333d260c" x1="18.38" y1="144.97" x2="18.38" y2="144.97"/><line class="b581d24d-049e-43c1-b842-388deece5b28" x1="33.27" y1="136.38" x2="55.6" y2="123.49"/><line class="b93109ea-150f-4a0a-ae9b-7cb9659e624c" x1="63.04" y1="119.19" x2="234.24" y2="20.35"/><line class="aafdebc1-b2c7-432d-aac9-fff9333d260c" x1="241.68" y1="16.05" x2="241.68" y2="16.05"/><line class="aafdebc1-b2c7-432d-aac9-fff9333d260c" x1="18.38" y1="144.97" x2="18.38" y2="144.97"/><line class="e2c5ad6f-744b-4151-a401-921beaace098" x1="38.23" y1="144.97" x2="68" y2="144.97"/><line class="ab8423f8-1e78-41f5-9ed7-74b7a68ba06b" x1="77.93" y1="144.97" x2="306.19" y2="144.97"/><line class="aafdebc1-b2c7-432d-aac9-fff9333d260c" x1="316.11" y1="144.97" x2="316.11" y2="144.97"/><line class="aafdebc1-b2c7-432d-aac9-fff9333d260c" x1="18.38" y1="144.97" x2="18.38" y2="144.97"/><line class="b581d24d-049e-43c1-b842-388deece5b28" x1="33.27" y1="153.57" x2="55.6" y2="166.46"/><line class="b93109ea-150f-4a0a-ae9b-7cb9659e624c" x1="63.04" y1="170.76" x2="234.24" y2="269.6"/><line class="aafdebc1-b2c7-432d-aac9-fff9333d260c" x1="241.68" y1="273.9" x2="241.68" y2="273.9"/><line class="aafdebc1-b2c7-432d-aac9-fff9333d260c" x1="84.12" y1="1" x2="250.37" y2="1"/><line class="aafdebc1-b2c7-432d-aac9-fff9333d260c" x1="92.81" y1="16.05" x2="92.81" y2="16.05"/><line class="b581d24d-049e-43c1-b842-388deece5b28" x1="107.7" y1="24.65" x2="130.03" y2="37.54"/><line class="b93109ea-150f-4a0a-ae9b-7cb9659e624c" x1="137.47" y1="41.84" x2="308.67" y2="140.68"/><line class="aafdebc1-b2c7-432d-aac9-fff9333d260c" x1="316.11" y1="144.97" x2="316.11" y2="144.97"/><line class="aafdebc1-b2c7-432d-aac9-fff9333d260c" x1="92.81" y1="16.05" x2="92.81" y2="16.05"/><line class="e2c5ad6f-744b-4151-a401-921beaace098" x1="102.74" y1="33.24" x2="117.63" y2="59.03"/><line class="ab8423f8-1e78-41f5-9ed7-74b7a68ba06b" x1="122.59" y1="67.62" x2="236.72" y2="265.3"/><line class="aafdebc1-b2c7-432d-aac9-fff9333d260c" x1="241.68" y1="273.9" x2="241.68" y2="273.9"/><line class="aafdebc1-b2c7-432d-aac9-fff9333d260c" x1="250.37" y1="1" x2="333.5" y2="144.97"/><line class="aafdebc1-b2c7-432d-aac9-fff9333d260c" x1="241.68" y1="16.05" x2="241.68" y2="16.05"/><line class="b581d24d-049e-43c1-b842-388deece5b28" x1="241.68" y1="33.24" x2="241.68" y2="59.03"/><line class="b93109ea-150f-4a0a-ae9b-7cb9659e624c" x1="241.68" y1="67.62" x2="241.68" y2="265.3"/><line class="aafdebc1-b2c7-432d-aac9-fff9333d260c" x1="241.68" y1="273.9" x2="241.68" y2="273.9"/><line class="aafdebc1-b2c7-432d-aac9-fff9333d260c" x1="333.5" y1="144.97" x2="250.37" y2="288.95"/></g></svg>