<svg id="f4153206-8ed7-416f-8e3d-831cc062138a" data-name="Layer 1" xmlns="http://www.w3.org/2000/svg" viewBox="0 0 361.73 313.27"><defs><style>.a438e3b5-51be-4d5a-ab10-e4f3d8ffac56,.a7ee3c8d-c16a-4776-ba58-57231761d1ee,.b1d20c65-3ab5-49ed-93d0-898ce367dc6b,.b68f667d-c0c4-4225-adc4-09f5bc893bbb,.be5bdc2d-3709-4923-9005-73598236174f,.fa4972a3-602a-4779-850a-44de3b81d6ea{fill:none;stroke:#000;}.a438e3b5-51be-4d5a-ab10-e4f3d8ffac56,.a7ee3c8d-c16a-4776-ba58-57231761d1ee,.b68f667d-c0c4-4225-adc4-09f5bc893bbb,.be5bdc2d-3709-4923-9005-73598236174f{stroke-miterlimit:10;}.a438e3b5-51be-4d5a-ab10-e4f3d8ffac56,.b68f667d-c0c4-4225-adc4-09f5bc893bbb,.be5bdc2d-3709-4923-9005-73598236174f{stroke-width:0.75px;}.a438e3b5-51be-4d5a-ab10-e4f3d8ffac56{stroke-dasharray:2 2;}.a7ee3c8d-c16a-4776-ba58-57231761d1ee,.b1d20c65-3ab5-49ed-93d0-898ce367dc6b,.fa4972a3-602a-4779-850a-44de3b81d6ea{stroke-width:1.5px;}.fa4972a3-602a-4779-850a-44de3b81d6ea{stroke-linecap:round;}.b1d20c65-3ab5-49ed-93d0-898ce367dc6b,.fa4972a3-602a-4779-850a-44de3b81d6ea{stroke-linejoin:bevel;}.b68f667d-c0c4-4225-adc4-09f5bc893bbb{stroke-dasharray:2.05 2.05;}</style></defs><title>10u</title><g id="f792ddc4-1f11-4ab4-9875-2b860378a7d8" data-name="circles"><circle class="a438e3b5-51be-4d5a-ab10-e4f3d8ffac56" cx="180.87" cy="156.64" r="89.67"/><circle class="a438e3b5-51be-4d5a-ab10-e4f3d8ffac56" cx="180.86" cy="156.63" r="155.88"/><circle class="a438e3b5-51be-4d5a-ab10-e4f3d8ffac56" cx="180.86" cy="156.63" r="155.88"/></g><g id="bd0ea1bb-b625-4211-8de2-e2f51432e240" data-name="straight"><polygon class="a7ee3c8d-c16a-4776-ba58-57231761d1ee" points="270.87 0.75 360.87 156.63 270.87 312.52 90.87 312.52 0.87 156.63 90.87 0.75 270.87 0.75"/><polygon class="fa4972a3-602a-4779-850a-44de3b81d6ea" points="90.87 0.75 360.87 156.63 90.87 312.52 90.87 0.75"/><polygon class="b1d20c65-3ab5-49ed-93d0-898ce367dc6b" points="225.87 234.58 90.87 156.63 225.87 78.69 225.87 234.58"/><polyline class="be5bdc2d-3709-4923-9005-73598236174f" points="158.37 118.66 158.37 117.66 159.23 118.16"/><line class="b68f667d-c0c4-4225-adc4-09f5bc893bbb" x1="161.01" y1="119.19" x2="224.11" y2="155.62"/><polyline class="be5bdc2d-3709-4923-9005-73598236174f" points="225 156.13 225.87 156.63 225 157.13"/><line class="b68f667d-c0c4-4225-adc4-09f5bc893bbb" x1="223.22" y1="158.16" x2="160.12" y2="194.59"/><polyline class="be5bdc2d-3709-4923-9005-73598236174f" points="159.23 195.11 158.37 195.61 158.37 194.61"/><line class="b68f667d-c0c4-4225-adc4-09f5bc893bbb" x1="158.37" y1="192.55" x2="158.37" y2="119.69"/><polygon class="fa4972a3-602a-4779-850a-44de3b81d6ea" points="0.87 156.63 270.87 0.75 270.87 312.52 0.87 156.63"/><polygon class="b1d20c65-3ab5-49ed-93d0-898ce367dc6b" points="270.87 156.63 135.87 234.58 135.87 78.69 270.87 156.63"/><polyline class="be5bdc2d-3709-4923-9005-73598236174f" points="136.73 157.13 135.87 156.63 136.73 156.13"/><line class="b68f667d-c0c4-4225-adc4-09f5bc893bbb" x1="138.51" y1="155.11" x2="201.61" y2="118.68"/><polyline class="be5bdc2d-3709-4923-9005-73598236174f" points="202.5 118.16 203.37 117.66 203.37 118.66"/><line class="b68f667d-c0c4-4225-adc4-09f5bc893bbb" x1="203.37" y1="120.72" x2="203.37" y2="193.58"/><polyline class="be5bdc2d-3709-4923-9005-73598236174f" points="203.37 194.6 203.37 195.6 202.5 195.1"/><line class="b68f667d-c0c4-4225-adc4-09f5bc893bbb" x1="200.72" y1="194.08" x2="137.62" y2="157.65"/><line class="be5bdc2d-3709-4923-9005-73598236174f" x1="0.87" y1="156.63" x2="1.87" y2="156.63"/><line class="a438e3b5-51be-4d5a-ab10-e4f3d8ffac56" x1="3.87" y1="156.63" x2="358.87" y2="156.63"/><line class="be5bdc2d-3709-4923-9005-73598236174f" x1="359.87" y1="156.63" x2="360.87" y2="156.63"/><line class="be5bdc2d-3709-4923-9005-73598236174f" x1="270.87" y1="312.52" x2="270.37" y2="311.65"/><line class="a438e3b5-51be-4d5a-ab10-e4f3d8ffac56" x1="269.37" y1="309.92" x2="91.87" y2="2.48"/><line class="be5bdc2d-3709-4923-9005-73598236174f" x1="91.37" y1="1.62" x2="90.87" y2="0.75"/><line class="be5bdc2d-3709-4923-9005-73598236174f" x1="270.87" y1="0.75" x2="270.37" y2="1.62"/><line class="a438e3b5-51be-4d5a-ab10-e4f3d8ffac56" x1="269.37" y1="3.35" x2="91.87" y2="310.79"/><line class="be5bdc2d-3709-4923-9005-73598236174f" x1="91.37" y1="311.65" x2="90.87" y2="312.52"/></g><g id="afb095a3-67ae-49d2-ab19-355adf15e342" data-name="EXTRA"><circle cx="135.87" cy="78.69" r="3.81"/><circle cx="90.87" cy="156.63" r="3.81"/><circle cx="90.87" cy="105" r="3.81"/><circle cx="90.87" cy="208.27" r="3.81"/><circle cx="270.87" cy="105" r="3.81"/><circle cx="270.87" cy="208.27" r="3.81"/><circle cx="135.87" cy="234.58" r="3.81"/><circle cx="225.87" cy="234.58" r="3.81"/><circle cx="270.87" cy="156.63" r="3.81"/><circle cx="225.87" cy="78.69" r="3.81"/><circle cx="180.87" cy="52.74" r="3.81"/><circle cx="180.87" cy="260.33" r="3.81"/></g></svg>