<svg id="b336f11b-4c53-472d-b9ef-d179ce8c1ad6" data-name="Layer 1" xmlns="http://www.w3.org/2000/svg" viewBox="0 0 334.81 289.95"><defs><style>.adcb711d-9559-4048-b242-1cb8b4f88902,.b958d311-765e-44d5-b395-fef9f61364da,.f88f3335-927d-4c20-9419-e68a132d8a26,.f96157aa-3ba0-4e29-8462-417ea520f1e2{fill:none;stroke:#000000;;stroke-miterlimit:10;stroke-width:2px;}.b958d311-765e-44d5-b395-fef9f61364da{stroke-dasharray:17.34 17.34;}.adcb711d-9559-4048-b242-1cb8b4f88902{stroke-dasharray:33.58 33.58;}.f96157aa-3ba0-4e29-8462-417ea520f1e2{stroke-dasharray:3.61 3.61;}</style></defs><title>10u</title><g id="e9b60ec3-889a-4301-82a2-ad03bcbf4a72" data-name="EXTRA"><line class="f88f3335-927d-4c20-9419-e68a132d8a26" x1="89.24" y1="280.37" x2="93.71" y2="272.63"/><line class="b958d311-765e-44d5-b395-fef9f61364da" x1="102.38" y1="257.61" x2="236.78" y2="24.83"/><line class="f88f3335-927d-4c20-9419-e68a132d8a26" x1="241.11" y1="17.32" x2="245.58" y2="9.58"/><line class="f88f3335-927d-4c20-9419-e68a132d8a26" x1="11.07" y1="144.97" x2="20.01" y2="144.97"/><line class="b958d311-765e-44d5-b395-fef9f61364da" x1="37.35" y1="144.97" x2="306.14" y2="144.97"/><line class="f88f3335-927d-4c20-9419-e68a132d8a26" x1="314.81" y1="144.97" x2="323.75" y2="144.97"/><polyline class="f88f3335-927d-4c20-9419-e68a132d8a26" points="308.27 153.91 323.75 144.97 308.27 136.03"/><line class="adcb711d-9559-4048-b242-1cb8b4f88902" x1="279.19" y1="119.25" x2="119.27" y2="26.91"/><polyline class="f88f3335-927d-4c20-9419-e68a132d8a26" points="104.73 18.52 89.24 9.58 89.24 27.46"/><line class="adcb711d-9559-4048-b242-1cb8b4f88902" x1="89.24" y1="61.04" x2="89.24" y2="245.7"/><polyline class="f88f3335-927d-4c20-9419-e68a132d8a26" points="89.24 262.49 89.24 280.37 104.73 271.43"/><line class="adcb711d-9559-4048-b242-1cb8b4f88902" x1="133.8" y1="254.64" x2="293.73" y2="162.31"/><line class="f88f3335-927d-4c20-9419-e68a132d8a26" x1="89.24" y1="9.58" x2="93.71" y2="17.32"/><line class="b958d311-765e-44d5-b395-fef9f61364da" x1="102.38" y1="32.34" x2="236.78" y2="265.12"/><line class="f88f3335-927d-4c20-9419-e68a132d8a26" x1="241.11" y1="272.63" x2="245.58" y2="280.37"/><polyline class="f88f3335-927d-4c20-9419-e68a132d8a26" points="26.56 136.03 11.07 144.97 26.56 153.91"/><line class="adcb711d-9559-4048-b242-1cb8b4f88902" x1="55.63" y1="170.7" x2="215.56" y2="263.03"/><polyline class="f88f3335-927d-4c20-9419-e68a132d8a26" points="230.1 271.43 245.58 280.37 245.58 262.49"/><line class="adcb711d-9559-4048-b242-1cb8b4f88902" x1="245.58" y1="228.91" x2="245.58" y2="44.25"/><polyline class="f88f3335-927d-4c20-9419-e68a132d8a26" points="245.58 27.46 245.58 9.58 230.1 18.52"/><line class="adcb711d-9559-4048-b242-1cb8b4f88902" x1="201.02" y1="35.31" x2="41.1" y2="127.64"/><polyline class="f88f3335-927d-4c20-9419-e68a132d8a26" points="248.75 288.95 250.54 288.95 251.43 287.4"/><line class="f96157aa-3ba0-4e29-8462-417ea520f1e2" x1="253.24" y1="284.27" x2="331.86" y2="148.09"/><polyline class="f88f3335-927d-4c20-9419-e68a132d8a26" points="332.77 146.52 333.66 144.97 332.77 143.43"/><line class="f96157aa-3ba0-4e29-8462-417ea520f1e2" x1="330.96" y1="140.3" x2="252.33" y2="4.11"/><polyline class="f88f3335-927d-4c20-9419-e68a132d8a26" points="251.43 2.55 250.54 1 248.75 1"/><line class="f96157aa-3ba0-4e29-8462-417ea520f1e2" x1="245.13" y1="1" x2="87.88" y2="1"/><polyline class="f88f3335-927d-4c20-9419-e68a132d8a26" points="86.07 1 84.29 1 83.39 2.55"/><line class="f96157aa-3ba0-4e29-8462-417ea520f1e2" x1="81.59" y1="5.68" x2="2.96" y2="141.86"/><polyline class="f88f3335-927d-4c20-9419-e68a132d8a26" points="2.06 143.43 1.16 144.97 2.06 146.52"/><line class="f96157aa-3ba0-4e29-8462-417ea520f1e2" x1="3.86" y1="149.65" x2="82.49" y2="285.84"/><polyline class="f88f3335-927d-4c20-9419-e68a132d8a26" points="83.39 287.4 84.29 288.95 86.07 288.95"/><line class="f96157aa-3ba0-4e29-8462-417ea520f1e2" x1="89.69" y1="288.95" x2="246.94" y2="288.95"/></g></svg>