<svg id="abf63c51-4aec-4f93-98ec-c7c460495466" data-name="Layer 1" xmlns="http://www.w3.org/2000/svg" viewBox="0 0 333.83 289.28"><defs><style>.a41114c8-05c0-46f1-adef-b0e1f10ed7c0,.acc30e3c-c155-49d1-b9b0-706c1e9e8842,.af1c26ab-5ccb-4a47-9110-41fa53b49d38,.b2953ab3-eb77-4f09-be73-54cf79abaa4f,.b50ffe7d-c542-4aa5-9fc4-229cb2b142ee{fill:none;stroke:#000000;;stroke-linecap:round;stroke-linejoin:round;stroke-width:1.33px;}.af1c26ab-5ccb-4a47-9110-41fa53b49d38{stroke-dasharray:31.17 0 31.17 10.39;}.b50ffe7d-c542-4aa5-9fc4-229cb2b142ee{stroke-dasharray:0 10.39 31.17 0 31.17 10.39;}.a41114c8-05c0-46f1-adef-b0e1f10ed7c0{stroke-dasharray:35.99 0 35.99 12;}.acc30e3c-c155-49d1-b9b0-706c1e9e8842{stroke-dasharray:0 12 35.99 0 35.99 12;}</style></defs><title>11u</title><g id="a6a36a77-96cb-43bc-b27a-0481a43794d2" data-name="EXTRA"><line class="b2953ab3-eb77-4f09-be73-54cf79abaa4f" x1="250.03" y1="0.67" x2="250.03" y2="0.67"/><line class="af1c26ab-5ccb-4a47-9110-41fa53b49d38" x1="255.24" y1="9.65" x2="289" y2="68.15"/><line class="b50ffe7d-c542-4aa5-9fc4-229cb2b142ee" x1="291.6" y1="72.65" x2="330.57" y2="140.13"/><line class="b2953ab3-eb77-4f09-be73-54cf79abaa4f" x1="333.17" y1="144.63" x2="333.17" y2="144.63"/><line class="b2953ab3-eb77-4f09-be73-54cf79abaa4f" x1="250.03" y1="0.67" x2="250.03" y2="0.67"/><line class="a41114c8-05c0-46f1-adef-b0e1f10ed7c0" x1="250.03" y1="12.65" x2="250.03" y2="90.65"/><line class="acc30e3c-c155-49d1-b9b0-706c1e9e8842" x1="250.03" y1="96.65" x2="250.03" y2="282.61"/><line class="b2953ab3-eb77-4f09-be73-54cf79abaa4f" x1="250.03" y1="288.61" x2="250.03" y2="288.61"/><line class="b2953ab3-eb77-4f09-be73-54cf79abaa4f" x1="250.03" y1="0.67" x2="250.03" y2="0.67"/><line class="af1c26ab-5ccb-4a47-9110-41fa53b49d38" x1="244.83" y1="9.65" x2="211.08" y2="68.15"/><line class="b50ffe7d-c542-4aa5-9fc4-229cb2b142ee" x1="208.47" y1="72.65" x2="86.38" y2="284.11"/><line class="b2953ab3-eb77-4f09-be73-54cf79abaa4f" x1="83.79" y1="288.61" x2="83.79" y2="288.61"/><line class="b2953ab3-eb77-4f09-be73-54cf79abaa4f" x1="250.03" y1="0.67" x2="250.03" y2="0.67"/><line class="a41114c8-05c0-46f1-adef-b0e1f10ed7c0" x1="239.64" y1="6.65" x2="172.11" y2="45.65"/><line class="acc30e3c-c155-49d1-b9b0-706c1e9e8842" x1="166.91" y1="48.65" x2="5.86" y2="141.63"/><line class="b2953ab3-eb77-4f09-be73-54cf79abaa4f" x1="0.67" y1="144.63" x2="0.67" y2="144.63"/><line class="b2953ab3-eb77-4f09-be73-54cf79abaa4f" x1="250.03" y1="0.67" x2="250.03" y2="0.67"/><line class="af1c26ab-5ccb-4a47-9110-41fa53b49d38" x1="239.64" y1="0.67" x2="172.11" y2="0.67"/><line class="b50ffe7d-c542-4aa5-9fc4-229cb2b142ee" x1="166.91" y1="0.67" x2="88.98" y2="0.67"/><line class="b2953ab3-eb77-4f09-be73-54cf79abaa4f" x1="83.79" y1="0.67" x2="83.79" y2="0.67"/><line class="b2953ab3-eb77-4f09-be73-54cf79abaa4f" x1="333.17" y1="144.63" x2="333.17" y2="144.63"/><line class="af1c26ab-5ccb-4a47-9110-41fa53b49d38" x1="327.97" y1="153.63" x2="294.2" y2="212.13"/><line class="b50ffe7d-c542-4aa5-9fc4-229cb2b142ee" x1="291.6" y1="216.63" x2="252.63" y2="284.11"/><line class="b2953ab3-eb77-4f09-be73-54cf79abaa4f" x1="250.03" y1="288.61" x2="250.03" y2="288.61"/><line class="b2953ab3-eb77-4f09-be73-54cf79abaa4f" x1="333.17" y1="144.63" x2="333.17" y2="144.63"/><line class="a41114c8-05c0-46f1-adef-b0e1f10ed7c0" x1="322.76" y1="150.63" x2="255.24" y2="189.63"/><line class="acc30e3c-c155-49d1-b9b0-706c1e9e8842" x1="250.03" y1="192.63" x2="88.98" y2="285.61"/><line class="b2953ab3-eb77-4f09-be73-54cf79abaa4f" x1="83.79" y1="288.61" x2="83.79" y2="288.61"/><line class="b2953ab3-eb77-4f09-be73-54cf79abaa4f" x1="333.17" y1="144.63" x2="333.17" y2="144.63"/><line class="af1c26ab-5ccb-4a47-9110-41fa53b49d38" x1="322.76" y1="144.63" x2="255.24" y2="144.63"/><line class="b50ffe7d-c542-4aa5-9fc4-229cb2b142ee" x1="250.03" y1="144.63" x2="5.86" y2="144.63"/><line class="b2953ab3-eb77-4f09-be73-54cf79abaa4f" x1="0.67" y1="144.63" x2="0.67" y2="144.63"/><line class="b2953ab3-eb77-4f09-be73-54cf79abaa4f" x1="333.17" y1="144.63" x2="333.17" y2="144.63"/><line class="a41114c8-05c0-46f1-adef-b0e1f10ed7c0" x1="322.76" y1="138.63" x2="255.24" y2="99.65"/><line class="acc30e3c-c155-49d1-b9b0-706c1e9e8842" x1="250.03" y1="96.65" x2="88.98" y2="3.66"/><line class="b2953ab3-eb77-4f09-be73-54cf79abaa4f" x1="83.79" y1="0.67" x2="83.79" y2="0.67"/><line class="b2953ab3-eb77-4f09-be73-54cf79abaa4f" x1="250.03" y1="288.61" x2="250.03" y2="288.61"/><line class="af1c26ab-5ccb-4a47-9110-41fa53b49d38" x1="239.64" y1="288.61" x2="172.11" y2="288.61"/><line class="b50ffe7d-c542-4aa5-9fc4-229cb2b142ee" x1="166.91" y1="288.61" x2="88.98" y2="288.61"/><line class="b2953ab3-eb77-4f09-be73-54cf79abaa4f" x1="83.79" y1="288.61" x2="83.79" y2="288.61"/><line class="b2953ab3-eb77-4f09-be73-54cf79abaa4f" x1="250.03" y1="288.61" x2="250.03" y2="288.61"/><line class="a41114c8-05c0-46f1-adef-b0e1f10ed7c0" x1="239.64" y1="282.61" x2="172.11" y2="243.63"/><line class="acc30e3c-c155-49d1-b9b0-706c1e9e8842" x1="166.91" y1="240.63" x2="5.86" y2="147.63"/><line class="b2953ab3-eb77-4f09-be73-54cf79abaa4f" x1="0.67" y1="144.63" x2="0.67" y2="144.63"/><line class="b2953ab3-eb77-4f09-be73-54cf79abaa4f" x1="250.03" y1="288.61" x2="250.03" y2="288.61"/><line class="af1c26ab-5ccb-4a47-9110-41fa53b49d38" x1="244.83" y1="279.61" x2="211.08" y2="221.13"/><line class="b50ffe7d-c542-4aa5-9fc4-229cb2b142ee" x1="208.47" y1="216.63" x2="86.38" y2="5.15"/><line class="b2953ab3-eb77-4f09-be73-54cf79abaa4f" x1="83.79" y1="0.67" x2="83.79" y2="0.67"/><line class="b2953ab3-eb77-4f09-be73-54cf79abaa4f" x1="83.79" y1="288.61" x2="83.79" y2="288.61"/><line class="af1c26ab-5ccb-4a47-9110-41fa53b49d38" x1="78.58" y1="279.61" x2="44.83" y2="221.13"/><line class="b50ffe7d-c542-4aa5-9fc4-229cb2b142ee" x1="42.22" y1="216.63" x2="3.25" y2="149.13"/><line class="b2953ab3-eb77-4f09-be73-54cf79abaa4f" x1="0.67" y1="144.63" x2="0.67" y2="144.63"/><line class="b2953ab3-eb77-4f09-be73-54cf79abaa4f" x1="83.79" y1="288.61" x2="83.79" y2="288.61"/><line class="a41114c8-05c0-46f1-adef-b0e1f10ed7c0" x1="83.79" y1="276.61" x2="83.79" y2="198.63"/><line class="acc30e3c-c155-49d1-b9b0-706c1e9e8842" x1="83.79" y1="192.63" x2="83.79" y2="6.65"/><line class="b2953ab3-eb77-4f09-be73-54cf79abaa4f" x1="83.79" y1="0.67" x2="83.79" y2="0.67"/><line class="b2953ab3-eb77-4f09-be73-54cf79abaa4f" x1="0.67" y1="144.63" x2="0.67" y2="144.63"/><line class="af1c26ab-5ccb-4a47-9110-41fa53b49d38" x1="5.86" y1="135.63" x2="39.63" y2="77.15"/><line class="b50ffe7d-c542-4aa5-9fc4-229cb2b142ee" x1="42.22" y1="72.65" x2="81.19" y2="5.15"/><line class="b2953ab3-eb77-4f09-be73-54cf79abaa4f" x1="83.79" y1="0.67" x2="83.79" y2="0.67"/></g></svg>