<svg id="bef8f570-6fc0-41cb-9b87-5e6070ed97f2" data-name="Layer 1" xmlns="http://www.w3.org/2000/svg" viewBox="0 0 334.63 290.08"><defs><style>.a95f8646-ce71-4925-9512-3648d26fff54,.b8b8ee18-ea1b-449c-8987-e4c34d03d058,.bed5cbfd-8fc5-4717-9b94-420d22b35b03,.e6e7c0d7-9797-4270-8f0c-cb7fa33a3fee,.ec939ee2-5737-4913-97ef-d8a7f51405db{fill:none;stroke:#000000;;stroke-linecap:round;stroke-linejoin:round;stroke-width:2.13px;}.b8b8ee18-ea1b-449c-8987-e4c34d03d058{stroke-dasharray:20.78 0 20.78 20.78;}.a95f8646-ce71-4925-9512-3648d26fff54{stroke-dasharray:0 20.78 20.78 0 20.78 20.78;}.bed5cbfd-8fc5-4717-9b94-420d22b35b03{stroke-dasharray:35.99 0 35.99 35.99;}.ec939ee2-5737-4913-97ef-d8a7f51405db{stroke-dasharray:0 35.99 35.99 0 35.99 35.99;}</style></defs><title>12u</title><g id="e3421b28-b50f-400d-9b93-6e46158f5ab7" data-name="EXTRA"><line class="e6e7c0d7-9797-4270-8f0c-cb7fa33a3fee" x1="250.44" y1="1.07" x2="250.44" y2="1.07"/><line class="b8b8ee18-ea1b-449c-8987-e4c34d03d058" x1="260.82" y1="19.05" x2="286.8" y2="64.05"/><line class="a95f8646-ce71-4925-9512-3648d26fff54" x1="292" y1="73.05" x2="328.36" y2="136.03"/><line class="e6e7c0d7-9797-4270-8f0c-cb7fa33a3fee" x1="333.57" y1="145.03" x2="333.57" y2="145.03"/><line class="e6e7c0d7-9797-4270-8f0c-cb7fa33a3fee" x1="250.44" y1="1.07" x2="250.44" y2="1.07"/><line class="bed5cbfd-8fc5-4717-9b94-420d22b35b03" x1="250.44" y1="37.06" x2="250.44" y2="127.05"/><line class="ec939ee2-5737-4913-97ef-d8a7f51405db" x1="250.44" y1="145.03" x2="250.44" y2="271.01"/><line class="e6e7c0d7-9797-4270-8f0c-cb7fa33a3fee" x1="250.44" y1="289.01" x2="250.44" y2="289.01"/><line class="e6e7c0d7-9797-4270-8f0c-cb7fa33a3fee" x1="250.44" y1="1.07" x2="250.44" y2="1.07"/><line class="bed5cbfd-8fc5-4717-9b94-420d22b35b03" x1="219.27" y1="19.05" x2="141.33" y2="64.05"/><line class="ec939ee2-5737-4913-97ef-d8a7f51405db" x1="125.75" y1="73.05" x2="16.64" y2="136.03"/><line class="e6e7c0d7-9797-4270-8f0c-cb7fa33a3fee" x1="1.07" y1="145.03" x2="1.07" y2="145.03"/><line class="e6e7c0d7-9797-4270-8f0c-cb7fa33a3fee" x1="250.44" y1="1.07" x2="250.44" y2="1.07"/><line class="b8b8ee18-ea1b-449c-8987-e4c34d03d058" x1="229.66" y1="1.07" x2="177.71" y2="1.07"/><line class="a95f8646-ce71-4925-9512-3648d26fff54" x1="167.32" y1="1.07" x2="94.58" y2="1.07"/><line class="e6e7c0d7-9797-4270-8f0c-cb7fa33a3fee" x1="84.19" y1="1.07" x2="84.19" y2="1.07"/><line class="e6e7c0d7-9797-4270-8f0c-cb7fa33a3fee" x1="333.57" y1="145.03" x2="333.57" y2="145.03"/><line class="b8b8ee18-ea1b-449c-8987-e4c34d03d058" x1="323.17" y1="163.03" x2="297.2" y2="208.02"/><line class="a95f8646-ce71-4925-9512-3648d26fff54" x1="292" y1="217.02" x2="255.63" y2="280.01"/><line class="e6e7c0d7-9797-4270-8f0c-cb7fa33a3fee" x1="250.44" y1="289.01" x2="250.44" y2="289.01"/><line class="e6e7c0d7-9797-4270-8f0c-cb7fa33a3fee" x1="333.57" y1="145.03" x2="333.57" y2="145.03"/><line class="bed5cbfd-8fc5-4717-9b94-420d22b35b03" x1="302.39" y1="163.03" x2="224.46" y2="208.02"/><line class="ec939ee2-5737-4913-97ef-d8a7f51405db" x1="208.88" y1="217.02" x2="99.77" y2="280.01"/><line class="e6e7c0d7-9797-4270-8f0c-cb7fa33a3fee" x1="84.19" y1="289.01" x2="84.19" y2="289.01"/><line class="e6e7c0d7-9797-4270-8f0c-cb7fa33a3fee" x1="333.57" y1="145.03" x2="333.57" y2="145.03"/><line class="bed5cbfd-8fc5-4717-9b94-420d22b35b03" x1="302.39" y1="127.05" x2="224.46" y2="82.05"/><line class="ec939ee2-5737-4913-97ef-d8a7f51405db" x1="208.88" y1="73.05" x2="99.77" y2="10.06"/><line class="e6e7c0d7-9797-4270-8f0c-cb7fa33a3fee" x1="84.19" y1="1.07" x2="84.19" y2="1.07"/><line class="e6e7c0d7-9797-4270-8f0c-cb7fa33a3fee" x1="250.44" y1="289.01" x2="250.44" y2="289.01"/><line class="b8b8ee18-ea1b-449c-8987-e4c34d03d058" x1="229.66" y1="289.01" x2="177.71" y2="289.01"/><line class="a95f8646-ce71-4925-9512-3648d26fff54" x1="167.32" y1="289.01" x2="94.58" y2="289.01"/><line class="e6e7c0d7-9797-4270-8f0c-cb7fa33a3fee" x1="84.19" y1="289.01" x2="84.19" y2="289.01"/><line class="e6e7c0d7-9797-4270-8f0c-cb7fa33a3fee" x1="250.44" y1="289.01" x2="250.44" y2="289.01"/><line class="bed5cbfd-8fc5-4717-9b94-420d22b35b03" x1="219.27" y1="271.01" x2="141.33" y2="226.02"/><line class="ec939ee2-5737-4913-97ef-d8a7f51405db" x1="125.75" y1="217.02" x2="16.64" y2="154.03"/><line class="e6e7c0d7-9797-4270-8f0c-cb7fa33a3fee" x1="1.07" y1="145.03" x2="1.07" y2="145.03"/><line class="e6e7c0d7-9797-4270-8f0c-cb7fa33a3fee" x1="84.19" y1="289.01" x2="84.19" y2="289.01"/><line class="b8b8ee18-ea1b-449c-8987-e4c34d03d058" x1="73.8" y1="271.01" x2="47.81" y2="226.02"/><line class="a95f8646-ce71-4925-9512-3648d26fff54" x1="42.63" y1="217.02" x2="6.26" y2="154.03"/><line class="e6e7c0d7-9797-4270-8f0c-cb7fa33a3fee" x1="1.07" y1="145.03" x2="1.07" y2="145.03"/><line class="e6e7c0d7-9797-4270-8f0c-cb7fa33a3fee" x1="84.19" y1="289.01" x2="84.19" y2="289.01"/><line class="bed5cbfd-8fc5-4717-9b94-420d22b35b03" x1="84.19" y1="253.02" x2="84.19" y2="163.03"/><line class="ec939ee2-5737-4913-97ef-d8a7f51405db" x1="84.19" y1="145.03" x2="84.19" y2="19.05"/><line class="e6e7c0d7-9797-4270-8f0c-cb7fa33a3fee" x1="84.19" y1="1.07" x2="84.19" y2="1.07"/><line class="e6e7c0d7-9797-4270-8f0c-cb7fa33a3fee" x1="1.07" y1="145.03" x2="1.07" y2="145.03"/><line class="b8b8ee18-ea1b-449c-8987-e4c34d03d058" x1="11.46" y1="127.05" x2="37.43" y2="82.05"/><line class="a95f8646-ce71-4925-9512-3648d26fff54" x1="42.63" y1="73.05" x2="79" y2="10.06"/><line class="e6e7c0d7-9797-4270-8f0c-cb7fa33a3fee" x1="84.19" y1="1.07" x2="84.19" y2="1.07"/></g></svg>