<svg id="a301acb0-f64c-40e4-bb44-1cedf8df2fc4" data-name="Layer 1" xmlns="http://www.w3.org/2000/svg" viewBox="0 0 289.38 334.15"><defs><style>.a2834672-7bc0-44b9-bea1-f6ecedffe0b7,.b6448c48-ebda-4eb1-bb14-3d20226ab34e,.bc03bbe0-28a6-4d4f-a168-15c7583051d4{fill:none;stroke:#000000;;stroke-miterlimit:10;stroke-width:2.1px;}.bc03bbe0-28a6-4d4f-a168-15c7583051d4{stroke-dasharray:43.37 43.37;}.a2834672-7bc0-44b9-bea1-f6ecedffe0b7{stroke-dasharray:33.16 33.16;}</style></defs><title>13u</title><g id="ef67fbcc-b1b2-41c7-9520-3ef370f83eba" data-name="EXTRA"><polyline class="b6448c48-ebda-4eb1-bb14-3d20226ab34e" points="272.84 75.2 288.33 84.14 288.33 102.03"/><line class="bc03bbe0-28a6-4d4f-a168-15c7583051d4" x1="288.33" y1="145.39" x2="288.33" y2="210.44"/><polyline class="b6448c48-ebda-4eb1-bb14-3d20226ab34e" points="288.33 232.12 288.33 250 272.84 258.94"/><line class="bc03bbe0-28a6-4d4f-a168-15c7583051d4" x1="235.29" y1="280.63" x2="178.95" y2="313.15"/><polyline class="b6448c48-ebda-4eb1-bb14-3d20226ab34e" points="160.18 323.99 144.69 332.94 129.2 323.99"/><line class="bc03bbe0-28a6-4d4f-a168-15c7583051d4" x1="91.65" y1="302.31" x2="35.31" y2="269.79"/><polyline class="b6448c48-ebda-4eb1-bb14-3d20226ab34e" points="16.54 258.94 1.05 250 1.05 232.12"/><line class="bc03bbe0-28a6-4d4f-a168-15c7583051d4" x1="1.05" y1="188.76" x2="1.05" y2="123.71"/><polyline class="b6448c48-ebda-4eb1-bb14-3d20226ab34e" points="1.05 102.03 1.05 84.14 16.54 75.2"/><line class="bc03bbe0-28a6-4d4f-a168-15c7583051d4" x1="54.09" y1="53.52" x2="110.43" y2="20.99"/><polyline class="b6448c48-ebda-4eb1-bb14-3d20226ab34e" points="129.2 10.15 144.69 1.21 160.18 10.15"/><line class="bc03bbe0-28a6-4d4f-a168-15c7583051d4" x1="197.73" y1="31.84" x2="254.07" y2="64.36"/><line class="b6448c48-ebda-4eb1-bb14-3d20226ab34e" x1="144.69" y1="332.93" x2="144.69" y2="316.31"/><line class="a2834672-7bc0-44b9-bea1-f6ecedffe0b7" x1="144.69" y1="283.15" x2="144.69" y2="34.42"/><line class="b6448c48-ebda-4eb1-bb14-3d20226ab34e" x1="144.69" y1="17.84" x2="144.69" y2="1.21"/><line class="b6448c48-ebda-4eb1-bb14-3d20226ab34e" x1="288.33" y1="84.14" x2="273.93" y2="92.46"/><line class="a2834672-7bc0-44b9-bea1-f6ecedffe0b7" x1="245.21" y1="109.04" x2="29.81" y2="233.4"/><line class="b6448c48-ebda-4eb1-bb14-3d20226ab34e" x1="15.45" y1="241.69" x2="1.05" y2="250"/><line class="b6448c48-ebda-4eb1-bb14-3d20226ab34e" x1="1.05" y1="84.14" x2="15.45" y2="92.46"/><line class="a2834672-7bc0-44b9-bea1-f6ecedffe0b7" x1="44.17" y1="109.04" x2="259.57" y2="233.4"/><line class="b6448c48-ebda-4eb1-bb14-3d20226ab34e" x1="273.93" y1="241.69" x2="288.33" y2="250"/><line class="b6448c48-ebda-4eb1-bb14-3d20226ab34e" x1="91.65" y1="167.07" x2="54.86" y2="167.07"/><line class="b6448c48-ebda-4eb1-bb14-3d20226ab34e" x1="18.93" y1="167.07" x2="1.05" y2="167.07"/><line class="b6448c48-ebda-4eb1-bb14-3d20226ab34e" x1="197.73" y1="167.07" x2="234.52" y2="167.07"/><line class="b6448c48-ebda-4eb1-bb14-3d20226ab34e" x1="270.45" y1="167.07" x2="288.33" y2="167.07"/><line class="b6448c48-ebda-4eb1-bb14-3d20226ab34e" x1="171.21" y1="213.01" x2="189.6" y2="244.87"/><line class="b6448c48-ebda-4eb1-bb14-3d20226ab34e" x1="207.57" y1="275.98" x2="216.51" y2="291.47"/><line class="b6448c48-ebda-4eb1-bb14-3d20226ab34e" x1="118.17" y1="121.14" x2="99.78" y2="89.28"/><line class="b6448c48-ebda-4eb1-bb14-3d20226ab34e" x1="81.81" y1="58.16" x2="72.87" y2="42.68"/><line class="b6448c48-ebda-4eb1-bb14-3d20226ab34e" x1="171.21" y1="121.14" x2="189.6" y2="89.28"/><line class="b6448c48-ebda-4eb1-bb14-3d20226ab34e" x1="207.57" y1="58.16" x2="216.51" y2="42.68"/><line class="b6448c48-ebda-4eb1-bb14-3d20226ab34e" x1="118.17" y1="213.01" x2="99.78" y2="244.87"/><line class="b6448c48-ebda-4eb1-bb14-3d20226ab34e" x1="81.81" y1="275.98" x2="72.87" y2="291.47"/></g></svg>