<svg id="f20706e7-c82d-4f1e-bfa7-8837f3047c5c" data-name="Layer 1" xmlns="http://www.w3.org/2000/svg" viewBox="0 0 291.06 335.38"><defs><style>.a20f9cd3-4eb4-4c1a-8a7c-9af20918a92c,.afd6f22e-7215-448b-88b0-2aa0b98f67d2,.b95c7ec8-720a-46f7-9f5d-6c756172cb52,.fa18226a-7369-424c-a605-9a34c1a75880{fill:none;stroke:#000000;;stroke-linejoin:round;stroke-width:4.59px;}.afd6f22e-7215-448b-88b0-2aa0b98f67d2,.b95c7ec8-720a-46f7-9f5d-6c756172cb52,.fa18226a-7369-424c-a605-9a34c1a75880{stroke-linecap:round;}.fa18226a-7369-424c-a605-9a34c1a75880{stroke-dasharray:0 31.65;}.b95c7ec8-720a-46f7-9f5d-6c756172cb52{stroke-dasharray:47.48 31.65 0 31.65;}</style></defs><title>14u</title><g id="f4a2ac4e-1f33-45a4-b9db-38ed67736014" data-name="EXTRA"><polyline class="a20f9cd3-4eb4-4c1a-8a7c-9af20918a92c" points="229.09 246.12 209.96 279.26 171.66 279.26"/><polyline class="a20f9cd3-4eb4-4c1a-8a7c-9af20918a92c" points="119.39 279.26 81.11 279.26 61.97 246.12"/><polyline class="a20f9cd3-4eb4-4c1a-8a7c-9af20918a92c" points="35.84 200.84 16.68 167.69 35.84 134.53"/><polyline class="a20f9cd3-4eb4-4c1a-8a7c-9af20918a92c" points="61.97 89.27 81.11 56.12 119.39 56.12"/><polyline class="a20f9cd3-4eb4-4c1a-8a7c-9af20918a92c" points="171.66 56.12 209.96 56.12 229.09 89.27"/><polyline class="a20f9cd3-4eb4-4c1a-8a7c-9af20918a92c" points="255.22 134.53 274.38 167.69 255.22 200.84"/><polyline class="a20f9cd3-4eb4-4c1a-8a7c-9af20918a92c" points="229.09 246.12 209.96 279.26 171.66 279.26"/><polyline class="a20f9cd3-4eb4-4c1a-8a7c-9af20918a92c" points="119.39 279.26 81.11 279.26 61.97 246.12"/><polyline class="a20f9cd3-4eb4-4c1a-8a7c-9af20918a92c" points="35.84 200.84 16.68 167.69 35.84 134.53"/><polyline class="a20f9cd3-4eb4-4c1a-8a7c-9af20918a92c" points="61.97 89.27 81.11 56.12 119.39 56.12"/><polyline class="a20f9cd3-4eb4-4c1a-8a7c-9af20918a92c" points="171.66 56.12 209.96 56.12 229.09 89.27"/><polyline class="a20f9cd3-4eb4-4c1a-8a7c-9af20918a92c" points="255.22 134.53 274.38 167.69 255.22 200.84"/><line class="afd6f22e-7215-448b-88b0-2aa0b98f67d2" x1="145.53" y1="2.3" x2="145.53" y2="25.27"/><line class="fa18226a-7369-424c-a605-9a34c1a75880" x1="145.53" y1="56.91" x2="145.53" y2="72.73"/><line class="b95c7ec8-720a-46f7-9f5d-6c756172cb52" x1="145.53" y1="88.56" x2="145.53" y2="294.29"/><line class="afd6f22e-7215-448b-88b0-2aa0b98f67d2" x1="145.53" y1="310.11" x2="145.53" y2="333.08"/><line class="afd6f22e-7215-448b-88b0-2aa0b98f67d2" x1="2.3" y1="250.38" x2="22.19" y2="238.91"/><line class="fa18226a-7369-424c-a605-9a34c1a75880" x1="49.59" y1="223.08" x2="63.31" y2="215.16"/><line class="b95c7ec8-720a-46f7-9f5d-6c756172cb52" x1="77.01" y1="207.25" x2="255.16" y2="104.38"/><line class="afd6f22e-7215-448b-88b0-2aa0b98f67d2" x1="268.88" y1="96.48" x2="288.76" y2="85"/><line class="afd6f22e-7215-448b-88b0-2aa0b98f67d2" x1="288.76" y1="250.38" x2="268.88" y2="238.91"/><line class="fa18226a-7369-424c-a605-9a34c1a75880" x1="241.47" y1="223.08" x2="227.75" y2="215.16"/><line class="b95c7ec8-720a-46f7-9f5d-6c756172cb52" x1="214.05" y1="207.25" x2="35.9" y2="104.38"/><line class="afd6f22e-7215-448b-88b0-2aa0b98f67d2" x1="22.19" y1="96.48" x2="2.3" y2="85"/></g></svg>