<svg id="e3d2f98e-46f4-4002-b92c-1704f49200a2" data-name="Layer 1" xmlns="http://www.w3.org/2000/svg" viewBox="0 0 319.39 367.62"><defs><style>.a579f779-0369-446d-b824-b6e0686b4b90,.ac8755f8-40d7-4b7f-bc30-cfd207967e7b,.ae7f8c31-872e-4324-9ed0-1cad998b6cb7,.b78eefe1-dcb2-4c7e-a6e9-34f3e72bae3e,.f5290eb5-80ae-4559-bef1-613c1b84a03f,.fe109916-fa9a-4e48-ac95-49681cd2aa6a,.ff2e547a-4db5-4b1a-88d9-90a8bc7ee33b{fill:none;stroke:#000;}.a579f779-0369-446d-b824-b6e0686b4b90,.ae7f8c31-872e-4324-9ed0-1cad998b6cb7,.f5290eb5-80ae-4559-bef1-613c1b84a03f,.fe109916-fa9a-4e48-ac95-49681cd2aa6a,.ff2e547a-4db5-4b1a-88d9-90a8bc7ee33b{stroke-miterlimit:10;}.a579f779-0369-446d-b824-b6e0686b4b90,.ae7f8c31-872e-4324-9ed0-1cad998b6cb7,.f5290eb5-80ae-4559-bef1-613c1b84a03f,.ff2e547a-4db5-4b1a-88d9-90a8bc7ee33b{stroke-width:0.75px;}.f5290eb5-80ae-4559-bef1-613c1b84a03f{stroke-dasharray:2 2;}.ac8755f8-40d7-4b7f-bc30-cfd207967e7b,.b78eefe1-dcb2-4c7e-a6e9-34f3e72bae3e,.fe109916-fa9a-4e48-ac95-49681cd2aa6a{stroke-width:2px;}.ac8755f8-40d7-4b7f-bc30-cfd207967e7b{stroke-linecap:round;}.ac8755f8-40d7-4b7f-bc30-cfd207967e7b,.b78eefe1-dcb2-4c7e-a6e9-34f3e72bae3e{stroke-linejoin:bevel;}.ae7f8c31-872e-4324-9ed0-1cad998b6cb7{stroke-dasharray:2.05 2.05;}.ff2e547a-4db5-4b1a-88d9-90a8bc7ee33b{stroke-dasharray:1.96 1.96;}</style></defs><title>15u</title><g id="ea3ad651-bc5a-4d97-afd0-94b45164c4ee" data-name="circles"><circle class="f5290eb5-80ae-4559-bef1-613c1b84a03f" cx="159.7" cy="183.81" r="89.67"/><circle class="f5290eb5-80ae-4559-bef1-613c1b84a03f" cx="159.7" cy="183.81" r="155.88"/></g><g id="fab98204-f52c-4540-87f6-f25ad25270ad" data-name="straight"><polygon class="fe109916-fa9a-4e48-ac95-49681cd2aa6a" points="3.81 93.81 159.7 3.81 315.58 93.81 315.58 273.81 159.7 363.81 3.81 273.81 3.81 93.81"/><polygon class="ac8755f8-40d7-4b7f-bc30-cfd207967e7b" points="3.81 273.81 159.7 3.81 315.58 273.81 3.81 273.81"/><polyline class="a579f779-0369-446d-b824-b6e0686b4b90" points="314.58 93.81 315.58 93.81 315.08 94.68"/><line class="f5290eb5-80ae-4559-bef1-613c1b84a03f" x1="314.08" y1="96.41" x2="160.7" y2="362.08"/><polyline class="a579f779-0369-446d-b824-b6e0686b4b90" points="160.2 362.95 159.7 363.81 159.2 362.95"/><line class="f5290eb5-80ae-4559-bef1-613c1b84a03f" x1="158.2" y1="361.22" x2="4.81" y2="95.55"/><polyline class="a579f779-0369-446d-b824-b6e0686b4b90" points="4.31 94.68 3.81 93.81 4.81 93.81"/><line class="f5290eb5-80ae-4559-bef1-613c1b84a03f" x1="6.81" y1="93.81" x2="313.58" y2="93.81"/><polygon class="b78eefe1-dcb2-4c7e-a6e9-34f3e72bae3e" points="237.64 138.81 159.7 273.81 81.76 138.81 237.64 138.81"/><polyline class="a579f779-0369-446d-b824-b6e0686b4b90" points="82.76 228.81 81.76 228.81 82.26 227.95"/><line class="f5290eb5-80ae-4559-bef1-613c1b84a03f" x1="83.26" y1="226.22" x2="158.7" y2="95.55"/><polyline class="a579f779-0369-446d-b824-b6e0686b4b90" points="159.2 94.68 159.7 93.81 160.2 94.68"/><line class="f5290eb5-80ae-4559-bef1-613c1b84a03f" x1="161.2" y1="96.41" x2="236.64" y2="227.08"/><polyline class="a579f779-0369-446d-b824-b6e0686b4b90" points="237.14 227.95 237.64 228.81 236.64 228.81"/><line class="f5290eb5-80ae-4559-bef1-613c1b84a03f" x1="234.64" y1="228.81" x2="83.76" y2="228.81"/><polygon class="b78eefe1-dcb2-4c7e-a6e9-34f3e72bae3e" points="120.73 206.31 159.7 138.81 198.67 206.31 120.73 206.31"/><polyline class="a579f779-0369-446d-b824-b6e0686b4b90" points="197.67 161.31 198.67 161.31 198.17 162.18"/><line class="ae7f8c31-872e-4324-9ed0-1cad998b6cb7" x1="197.14" y1="163.96" x2="160.71" y2="227.06"/><polyline class="a579f779-0369-446d-b824-b6e0686b4b90" points="160.2 227.95 159.7 228.81 159.2 227.95"/><line class="ae7f8c31-872e-4324-9ed0-1cad998b6cb7" x1="158.17" y1="226.17" x2="121.74" y2="163.07"/><polyline class="a579f779-0369-446d-b824-b6e0686b4b90" points="121.23 162.18 120.73 161.31 121.73 161.31"/><line class="ae7f8c31-872e-4324-9ed0-1cad998b6cb7" x1="123.78" y1="161.31" x2="196.64" y2="161.31"/><line class="ac8755f8-40d7-4b7f-bc30-cfd207967e7b" x1="237.64" y1="138.81" x2="315.58" y2="93.81"/><line class="ac8755f8-40d7-4b7f-bc30-cfd207967e7b" x1="159.7" y1="273.81" x2="159.7" y2="363.81"/><line class="ac8755f8-40d7-4b7f-bc30-cfd207967e7b" x1="81.76" y1="138.81" x2="3.81" y2="93.81"/><line class="a579f779-0369-446d-b824-b6e0686b4b90" x1="81.76" y1="228.81" x2="80.89" y2="229.31"/><line class="ff2e547a-4db5-4b1a-88d9-90a8bc7ee33b" x1="79.2" y1="230.29" x2="5.53" y2="272.82"/><line class="a579f779-0369-446d-b824-b6e0686b4b90" x1="4.68" y1="273.31" x2="3.81" y2="273.81"/><line class="a579f779-0369-446d-b824-b6e0686b4b90" x1="159.7" y1="93.81" x2="159.7" y2="92.81"/><line class="ff2e547a-4db5-4b1a-88d9-90a8bc7ee33b" x1="159.7" y1="90.86" x2="159.7" y2="5.79"/><line class="a579f779-0369-446d-b824-b6e0686b4b90" x1="159.7" y1="4.81" x2="159.7" y2="3.81"/><line class="a579f779-0369-446d-b824-b6e0686b4b90" x1="237.64" y1="228.81" x2="238.51" y2="229.31"/><line class="ff2e547a-4db5-4b1a-88d9-90a8bc7ee33b" x1="240.2" y1="230.29" x2="313.87" y2="272.82"/><line class="a579f779-0369-446d-b824-b6e0686b4b90" x1="314.72" y1="273.31" x2="315.58" y2="273.81"/></g><g id="e5ec0542-045f-4a18-a388-f8c7ca321d3a" data-name="EXTRA"><circle cx="81.76" cy="138.81" r="3.81"/><circle cx="159.7" cy="138.81" r="3.81"/><circle cx="159.7" cy="3.81" r="3.81"/><circle cx="159.7" cy="363.81" r="3.81"/><circle cx="3.81" cy="273.81" r="3.81"/><circle cx="315.58" cy="93.81" r="3.81"/><circle cx="315.58" cy="273.81" r="3.81"/><circle cx="3.81" cy="93.81" r="3.81"/><circle cx="159.7" cy="273.48" r="3.81"/><circle cx="120.73" cy="206.31" r="3.81"/><circle cx="198.67" cy="206.31" r="3.81"/><circle cx="237.64" cy="138.81" r="3.81"/></g></svg>