<svg id="afb2572d-0480-4e01-8227-025f3b454a29" data-name="Layer 1" xmlns="http://www.w3.org/2000/svg" viewBox="0 0 289.29 333.65"><defs><style>.ac07edaf-0ff2-44e8-858f-8b3c8e77b820,.ae5b0c75-424e-4d96-8f1e-234a69ffdafd,.e572b845-feeb-4780-881d-e4bffd278428,.f854fe9f-053f-4d63-9fd9-ddeee158b3a9{fill:none;stroke:#000000;;stroke-miterlimit:10;stroke-width:1.33px;}.ae5b0c75-424e-4d96-8f1e-234a69ffdafd{stroke-dasharray:42.12 42.12;}.ac07edaf-0ff2-44e8-858f-8b3c8e77b820{stroke-dasharray:35.44 35.44;}.e572b845-feeb-4780-881d-e4bffd278428{stroke-dasharray:41.8 41.8;}</style></defs><title>15u</title><g id="fd51ecf4-8dec-4072-9971-0aaffd2b92bb" data-name="EXTRA"><line class="f854fe9f-053f-4d63-9fd9-ddeee158b3a9" x1="0.67" y1="83.7" x2="17.95" y2="73.73"/><line class="ae5b0c75-424e-4d96-8f1e-234a69ffdafd" x1="54.42" y1="52.67" x2="109.13" y2="21.08"/><line class="f854fe9f-053f-4d63-9fd9-ddeee158b3a9" x1="127.37" y1="10.55" x2="144.64" y2="0.58"/><line class="f854fe9f-053f-4d63-9fd9-ddeee158b3a9" x1="0.67" y1="83.7" x2="20.63" y2="83.7"/><line class="ac07edaf-0ff2-44e8-858f-8b3c8e77b820" x1="56.05" y1="83.7" x2="250.95" y2="83.7"/><line class="f854fe9f-053f-4d63-9fd9-ddeee158b3a9" x1="268.68" y1="83.7" x2="288.62" y2="83.7"/><line class="f854fe9f-053f-4d63-9fd9-ddeee158b3a9" x1="0.67" y1="83.7" x2="10.65" y2="100.98"/><line class="ac07edaf-0ff2-44e8-858f-8b3c8e77b820" x1="28.37" y1="131.67" x2="125.81" y2="300.45"/><line class="f854fe9f-053f-4d63-9fd9-ddeee158b3a9" x1="134.67" y1="315.8" x2="144.64" y2="333.08"/><line class="f854fe9f-053f-4d63-9fd9-ddeee158b3a9" x1="0.67" y1="83.7" x2="0.67" y2="103.65"/><line class="ae5b0c75-424e-4d96-8f1e-234a69ffdafd" x1="0.67" y1="145.77" x2="0.67" y2="208.94"/><line class="f854fe9f-053f-4d63-9fd9-ddeee158b3a9" x1="0.67" y1="230" x2="0.67" y2="249.95"/><line class="f854fe9f-053f-4d63-9fd9-ddeee158b3a9" x1="144.64" y1="0.58" x2="161.92" y2="10.55"/><line class="ae5b0c75-424e-4d96-8f1e-234a69ffdafd" x1="198.39" y1="31.61" x2="253.11" y2="63.2"/><line class="f854fe9f-053f-4d63-9fd9-ddeee158b3a9" x1="271.34" y1="73.73" x2="288.62" y2="83.7"/><line class="f854fe9f-053f-4d63-9fd9-ddeee158b3a9" x1="144.64" y1="0.58" x2="154.62" y2="17.85"/><line class="ac07edaf-0ff2-44e8-858f-8b3c8e77b820" x1="172.34" y1="48.54" x2="269.78" y2="217.33"/><line class="f854fe9f-053f-4d63-9fd9-ddeee158b3a9" x1="278.65" y1="232.67" x2="288.62" y2="249.95"/><line class="f854fe9f-053f-4d63-9fd9-ddeee158b3a9" x1="144.64" y1="0.58" x2="134.67" y2="17.85"/><line class="ac07edaf-0ff2-44e8-858f-8b3c8e77b820" x1="116.95" y1="48.54" x2="19.5" y2="217.33"/><line class="f854fe9f-053f-4d63-9fd9-ddeee158b3a9" x1="10.65" y1="232.67" x2="0.67" y2="249.95"/><line class="f854fe9f-053f-4d63-9fd9-ddeee158b3a9" x1="288.62" y1="83.7" x2="288.62" y2="103.65"/><line class="ae5b0c75-424e-4d96-8f1e-234a69ffdafd" x1="288.62" y1="145.77" x2="288.62" y2="208.94"/><line class="f854fe9f-053f-4d63-9fd9-ddeee158b3a9" x1="288.62" y1="230" x2="288.62" y2="249.95"/><line class="f854fe9f-053f-4d63-9fd9-ddeee158b3a9" x1="288.62" y1="83.7" x2="278.65" y2="100.98"/><line class="ac07edaf-0ff2-44e8-858f-8b3c8e77b820" x1="260.93" y1="131.67" x2="163.48" y2="300.45"/><line class="f854fe9f-053f-4d63-9fd9-ddeee158b3a9" x1="154.62" y1="315.8" x2="144.64" y2="333.08"/><line class="f854fe9f-053f-4d63-9fd9-ddeee158b3a9" x1="288.62" y1="249.95" x2="271.34" y2="259.93"/><line class="ae5b0c75-424e-4d96-8f1e-234a69ffdafd" x1="234.87" y1="280.98" x2="180.17" y2="312.57"/><line class="f854fe9f-053f-4d63-9fd9-ddeee158b3a9" x1="161.92" y1="323.1" x2="144.64" y2="333.08"/><line class="f854fe9f-053f-4d63-9fd9-ddeee158b3a9" x1="288.62" y1="249.95" x2="268.68" y2="249.95"/><line class="ac07edaf-0ff2-44e8-858f-8b3c8e77b820" x1="233.23" y1="249.95" x2="38.34" y2="249.95"/><line class="f854fe9f-053f-4d63-9fd9-ddeee158b3a9" x1="20.63" y1="249.95" x2="0.67" y2="249.95"/><line class="f854fe9f-053f-4d63-9fd9-ddeee158b3a9" x1="144.64" y1="333.08" x2="127.37" y2="323.1"/><line class="ae5b0c75-424e-4d96-8f1e-234a69ffdafd" x1="90.89" y1="302.04" x2="36.19" y2="270.46"/><line class="f854fe9f-053f-4d63-9fd9-ddeee158b3a9" x1="17.95" y1="259.93" x2="0.67" y2="249.95"/><line class="f854fe9f-053f-4d63-9fd9-ddeee158b3a9" x1="144.64" y1="333.08" x2="144.64" y2="313.13"/><line class="e572b845-feeb-4780-881d-e4bffd278428" x1="144.64" y1="271.33" x2="144.64" y2="41.43"/><line class="f854fe9f-053f-4d63-9fd9-ddeee158b3a9" x1="144.64" y1="20.53" x2="144.64" y2="0.58"/><line class="f854fe9f-053f-4d63-9fd9-ddeee158b3a9" x1="288.62" y1="83.7" x2="271.34" y2="93.68"/><line class="e572b845-feeb-4780-881d-e4bffd278428" x1="235.14" y1="114.58" x2="36.05" y2="229.53"/><line class="f854fe9f-053f-4d63-9fd9-ddeee158b3a9" x1="17.95" y1="239.98" x2="0.67" y2="249.95"/><line class="f854fe9f-053f-4d63-9fd9-ddeee158b3a9" x1="0.67" y1="83.7" x2="17.95" y2="93.68"/><line class="e572b845-feeb-4780-881d-e4bffd278428" x1="54.14" y1="114.58" x2="253.25" y2="229.53"/><line class="f854fe9f-053f-4d63-9fd9-ddeee158b3a9" x1="271.34" y1="239.98" x2="288.62" y2="249.95"/><line class="f854fe9f-053f-4d63-9fd9-ddeee158b3a9" x1="288.62" y1="166.83" x2="268.68" y2="166.83"/><line class="ac07edaf-0ff2-44e8-858f-8b3c8e77b820" x1="233.23" y1="166.83" x2="38.34" y2="166.83"/><line class="f854fe9f-053f-4d63-9fd9-ddeee158b3a9" x1="20.63" y1="166.83" x2="0.67" y2="166.83"/><line class="f854fe9f-053f-4d63-9fd9-ddeee158b3a9" x1="72.66" y1="42.14" x2="82.63" y2="59.42"/><line class="ac07edaf-0ff2-44e8-858f-8b3c8e77b820" x1="100.35" y1="90.1" x2="197.81" y2="258.89"/><line class="f854fe9f-053f-4d63-9fd9-ddeee158b3a9" x1="206.67" y1="274.24" x2="216.64" y2="291.51"/><line class="f854fe9f-053f-4d63-9fd9-ddeee158b3a9" x1="72.66" y1="291.51" x2="82.63" y2="274.24"/><line class="ac07edaf-0ff2-44e8-858f-8b3c8e77b820" x1="100.35" y1="243.55" x2="197.81" y2="74.76"/><line class="f854fe9f-053f-4d63-9fd9-ddeee158b3a9" x1="206.67" y1="59.42" x2="216.64" y2="42.14"/></g></svg>