<svg id="acb09c84-2979-4aa3-af15-a30a857065c4" data-name="Layer 1" xmlns="http://www.w3.org/2000/svg" viewBox="0 0 289.95 334.5"><defs><style>.a85ab1a8-1bd8-4973-8330-076f22d196a9,.b494ffb8-0d8c-4e0f-8a8b-6e72df6de321,.b75d654c-014c-411a-bb8e-832a48716979,.eb349c58-d929-48b0-b7ed-66de4880863f{fill:none;stroke:#000000;;stroke-linecap:round;stroke-linejoin:round;stroke-width:2px;}.b494ffb8-0d8c-4e0f-8a8b-6e72df6de321{stroke-dasharray:48.81 15.86;}.eb349c58-d929-48b0-b7ed-66de4880863f{stroke-dasharray:67.98 22.09;}.a85ab1a8-1bd8-4973-8330-076f22d196a9{stroke-dasharray:82.95 26.96;}</style></defs><title>16u</title><g id="fbd41607-3fc3-4b4e-95c9-b79452d5c74e" data-name="EXTRA"><line class="b75d654c-014c-411a-bb8e-832a48716979" x1="1" y1="84.12" x2="38.11" y2="62.69"/><line class="b494ffb8-0d8c-4e0f-8a8b-6e72df6de321" x1="51.85" y1="54.76" x2="100.99" y2="26.39"/><line class="b75d654c-014c-411a-bb8e-832a48716979" x1="107.86" y1="22.43" x2="144.97" y2="1"/><line class="b75d654c-014c-411a-bb8e-832a48716979" x1="1" y1="84.12" x2="43.85" y2="84.12"/><line class="eb349c58-d929-48b0-b7ed-66de4880863f" x1="65.95" y1="84.12" x2="235.05" y2="84.12"/><line class="b75d654c-014c-411a-bb8e-832a48716979" x1="246.09" y1="84.12" x2="288.95" y2="84.12"/><line class="b75d654c-014c-411a-bb8e-832a48716979" x1="1" y1="84.12" x2="38.11" y2="105.55"/><line class="a85ab1a8-1bd8-4973-8330-076f22d196a9" x1="61.46" y1="119.03" x2="240.16" y2="222.2"/><line class="b75d654c-014c-411a-bb8e-832a48716979" x1="251.84" y1="228.94" x2="288.95" y2="250.37"/><line class="b75d654c-014c-411a-bb8e-832a48716979" x1="1" y1="84.12" x2="22.43" y2="121.24"/><line class="eb349c58-d929-48b0-b7ed-66de4880863f" x1="33.47" y1="140.37" x2="118.02" y2="286.82"/><line class="b75d654c-014c-411a-bb8e-832a48716979" x1="123.55" y1="296.38" x2="144.97" y2="333.5"/><line class="b75d654c-014c-411a-bb8e-832a48716979" x1="1" y1="84.12" x2="1" y2="126.98"/><line class="b494ffb8-0d8c-4e0f-8a8b-6e72df6de321" x1="1" y1="142.84" x2="1" y2="199.58"/><line class="b75d654c-014c-411a-bb8e-832a48716979" x1="1" y1="207.52" x2="1" y2="250.37"/><line class="b75d654c-014c-411a-bb8e-832a48716979" x1="144.97" y1="1" x2="182.09" y2="22.43"/><line class="b494ffb8-0d8c-4e0f-8a8b-6e72df6de321" x1="195.83" y1="30.36" x2="244.97" y2="58.73"/><line class="b75d654c-014c-411a-bb8e-832a48716979" x1="251.84" y1="62.69" x2="288.95" y2="84.12"/><line class="b75d654c-014c-411a-bb8e-832a48716979" x1="144.97" y1="1" x2="166.4" y2="38.11"/><line class="eb349c58-d929-48b0-b7ed-66de4880863f" x1="177.45" y1="57.25" x2="262" y2="203.69"/><line class="b75d654c-014c-411a-bb8e-832a48716979" x1="267.52" y1="213.26" x2="288.95" y2="250.37"/><line class="b75d654c-014c-411a-bb8e-832a48716979" x1="144.97" y1="1" x2="144.97" y2="43.85"/><line class="a85ab1a8-1bd8-4973-8330-076f22d196a9" x1="144.97" y1="70.81" x2="144.97" y2="277.16"/><line class="b75d654c-014c-411a-bb8e-832a48716979" x1="144.97" y1="290.64" x2="144.97" y2="333.5"/><line class="b75d654c-014c-411a-bb8e-832a48716979" x1="144.97" y1="1" x2="123.55" y2="38.11"/><line class="eb349c58-d929-48b0-b7ed-66de4880863f" x1="112.5" y1="57.25" x2="27.95" y2="203.69"/><line class="b75d654c-014c-411a-bb8e-832a48716979" x1="22.43" y1="213.26" x2="1" y2="250.37"/><line class="b75d654c-014c-411a-bb8e-832a48716979" x1="288.95" y1="84.12" x2="288.95" y2="126.98"/><line class="b494ffb8-0d8c-4e0f-8a8b-6e72df6de321" x1="288.95" y1="142.84" x2="288.95" y2="199.58"/><line class="b75d654c-014c-411a-bb8e-832a48716979" x1="288.95" y1="207.52" x2="288.95" y2="250.37"/><line class="b75d654c-014c-411a-bb8e-832a48716979" x1="288.95" y1="84.12" x2="267.52" y2="121.24"/><line class="eb349c58-d929-48b0-b7ed-66de4880863f" x1="256.48" y1="140.37" x2="171.93" y2="286.82"/><line class="b75d654c-014c-411a-bb8e-832a48716979" x1="166.4" y1="296.38" x2="144.97" y2="333.5"/><line class="b75d654c-014c-411a-bb8e-832a48716979" x1="288.95" y1="84.12" x2="251.84" y2="105.55"/><line class="a85ab1a8-1bd8-4973-8330-076f22d196a9" x1="228.49" y1="119.03" x2="49.79" y2="222.2"/><line class="b75d654c-014c-411a-bb8e-832a48716979" x1="38.11" y1="228.94" x2="1" y2="250.37"/><line class="b75d654c-014c-411a-bb8e-832a48716979" x1="288.95" y1="250.37" x2="251.84" y2="271.8"/><line class="b494ffb8-0d8c-4e0f-8a8b-6e72df6de321" x1="238.1" y1="279.73" x2="188.96" y2="308.1"/><line class="b75d654c-014c-411a-bb8e-832a48716979" x1="182.09" y1="312.07" x2="144.97" y2="333.5"/><line class="b75d654c-014c-411a-bb8e-832a48716979" x1="288.95" y1="250.37" x2="246.09" y2="250.37"/><line class="eb349c58-d929-48b0-b7ed-66de4880863f" x1="224" y1="250.37" x2="54.9" y2="250.37"/><line class="b75d654c-014c-411a-bb8e-832a48716979" x1="43.85" y1="250.37" x2="1" y2="250.37"/><line class="b75d654c-014c-411a-bb8e-832a48716979" x1="144.97" y1="333.5" x2="107.86" y2="312.07"/><line class="b494ffb8-0d8c-4e0f-8a8b-6e72df6de321" x1="94.12" y1="304.14" x2="44.98" y2="275.77"/><line class="b75d654c-014c-411a-bb8e-832a48716979" x1="38.11" y1="271.8" x2="1" y2="250.37"/></g></svg>