<svg id="b04faf0f-cfb9-48d8-8aaa-c976112d23b9" data-name="Layer 1" xmlns="http://www.w3.org/2000/svg" viewBox="0 0 289.95 334.5"><defs><style>.a205261c-dc5d-4415-a429-a86c976f93f7,.a91bbc31-f9e3-4bf8-a440-d0be71a85402,.b1fca49c-8a55-44c6-aad5-b5d18e5dbb20,.bbbdc66c-e849-4af4-b3a5-35118b6dfc37,.bdf51d4e-a2f7-4e22-8106-20deeae44953,.be68c33f-7448-4041-a5b3-a7b6d9d82cff,.e26cf8c0-df72-45db-beee-7f6447949041{fill:none;stroke:#000000;;stroke-linecap:round;stroke-linejoin:round;stroke-width:2px;}.e26cf8c0-df72-45db-beee-7f6447949041{stroke-dasharray:0 9.36;}.b1fca49c-8a55-44c6-aad5-b5d18e5dbb20{stroke-dasharray:36.39 9.36 0 9.36;}.a91bbc31-f9e3-4bf8-a440-d0be71a85402{stroke-dasharray:0 9.81;}.be68c33f-7448-4041-a5b3-a7b6d9d82cff{stroke-dasharray:38.14 9.81 0 9.81;}.bbbdc66c-e849-4af4-b3a5-35118b6dfc37{stroke-dasharray:0 9.39;}.a205261c-dc5d-4415-a429-a86c976f93f7{stroke-dasharray:36.51 9.39 0 9.39;}</style></defs><title>17u</title><g id="b3bab240-c761-4539-a0e9-05f533eb6eec" data-name="EXTRA"><line class="bdf51d4e-a2f7-4e22-8106-20deeae44953" x1="1" y1="84.12" x2="17.16" y2="74.79"/><line class="e26cf8c0-df72-45db-beee-7f6447949041" x1="25.26" y1="70.11" x2="29.32" y2="67.77"/><line class="b1fca49c-8a55-44c6-aad5-b5d18e5dbb20" x1="33.37" y1="65.43" x2="124.76" y2="12.67"/><line class="bdf51d4e-a2f7-4e22-8106-20deeae44953" x1="128.81" y1="10.33" x2="144.97" y2="1"/><line class="bdf51d4e-a2f7-4e22-8106-20deeae44953" x1="1" y1="84.12" x2="19.66" y2="84.12"/><line class="a91bbc31-f9e3-4bf8-a440-d0be71a85402" x1="29.47" y1="84.12" x2="34.37" y2="84.12"/><line class="be68c33f-7448-4041-a5b3-a7b6d9d82cff" x1="39.28" y1="84.12" x2="265.38" y2="84.12"/><line class="bdf51d4e-a2f7-4e22-8106-20deeae44953" x1="270.29" y1="84.12" x2="288.95" y2="84.12"/><line class="bdf51d4e-a2f7-4e22-8106-20deeae44953" x1="1" y1="84.12" x2="17.16" y2="93.45"/><line class="bbbdc66c-e849-4af4-b3a5-35118b6dfc37" x1="25.29" y1="98.15" x2="29.35" y2="100.49"/><line class="a205261c-dc5d-4415-a429-a86c976f93f7" x1="33.42" y1="102.84" x2="268.72" y2="238.69"/><line class="bdf51d4e-a2f7-4e22-8106-20deeae44953" x1="272.79" y1="241.04" x2="288.95" y2="250.37"/><line class="bdf51d4e-a2f7-4e22-8106-20deeae44953" x1="1" y1="84.12" x2="10.33" y2="100.29"/><line class="a91bbc31-f9e3-4bf8-a440-d0be71a85402" x1="15.23" y1="108.78" x2="17.68" y2="113.03"/><line class="be68c33f-7448-4041-a5b3-a7b6d9d82cff" x1="20.14" y1="117.27" x2="133.19" y2="313.09"/><line class="bdf51d4e-a2f7-4e22-8106-20deeae44953" x1="135.64" y1="317.33" x2="144.97" y2="333.5"/><line class="bdf51d4e-a2f7-4e22-8106-20deeae44953" x1="1" y1="84.12" x2="1" y2="102.79"/><line class="e26cf8c0-df72-45db-beee-7f6447949041" x1="1" y1="112.14" x2="1" y2="116.82"/><line class="b1fca49c-8a55-44c6-aad5-b5d18e5dbb20" x1="1" y1="121.5" x2="1" y2="227.03"/><line class="bdf51d4e-a2f7-4e22-8106-20deeae44953" x1="1" y1="231.71" x2="1" y2="250.37"/><line class="bdf51d4e-a2f7-4e22-8106-20deeae44953" x1="144.97" y1="1" x2="161.14" y2="10.33"/><line class="e26cf8c0-df72-45db-beee-7f6447949041" x1="169.24" y1="15.01" x2="173.29" y2="17.35"/><line class="b1fca49c-8a55-44c6-aad5-b5d18e5dbb20" x1="177.34" y1="19.69" x2="268.74" y2="72.45"/><line class="bdf51d4e-a2f7-4e22-8106-20deeae44953" x1="272.79" y1="74.79" x2="288.95" y2="84.12"/><line class="bdf51d4e-a2f7-4e22-8106-20deeae44953" x1="144.97" y1="1" x2="154.31" y2="17.16"/><line class="a91bbc31-f9e3-4bf8-a440-d0be71a85402" x1="159.21" y1="25.65" x2="161.66" y2="29.9"/><line class="be68c33f-7448-4041-a5b3-a7b6d9d82cff" x1="164.11" y1="34.15" x2="277.17" y2="229.96"/><line class="bdf51d4e-a2f7-4e22-8106-20deeae44953" x1="279.62" y1="234.21" x2="288.95" y2="250.37"/><line class="bdf51d4e-a2f7-4e22-8106-20deeae44953" x1="144.97" y1="1" x2="144.97" y2="19.66"/><line class="bbbdc66c-e849-4af4-b3a5-35118b6dfc37" x1="144.97" y1="29.05" x2="144.97" y2="33.74"/><line class="a205261c-dc5d-4415-a429-a86c976f93f7" x1="144.97" y1="38.44" x2="144.97" y2="310.14"/><line class="bdf51d4e-a2f7-4e22-8106-20deeae44953" x1="144.97" y1="314.83" x2="144.97" y2="333.5"/><line class="bdf51d4e-a2f7-4e22-8106-20deeae44953" x1="144.97" y1="1" x2="135.64" y2="17.16"/><line class="a91bbc31-f9e3-4bf8-a440-d0be71a85402" x1="130.74" y1="25.65" x2="128.29" y2="29.9"/><line class="be68c33f-7448-4041-a5b3-a7b6d9d82cff" x1="125.84" y1="34.15" x2="12.78" y2="229.96"/><line class="bdf51d4e-a2f7-4e22-8106-20deeae44953" x1="10.33" y1="234.21" x2="1" y2="250.37"/><line class="bdf51d4e-a2f7-4e22-8106-20deeae44953" x1="288.95" y1="84.12" x2="288.95" y2="102.79"/><line class="e26cf8c0-df72-45db-beee-7f6447949041" x1="288.95" y1="112.14" x2="288.95" y2="116.82"/><line class="b1fca49c-8a55-44c6-aad5-b5d18e5dbb20" x1="288.95" y1="121.5" x2="288.95" y2="227.03"/><line class="bdf51d4e-a2f7-4e22-8106-20deeae44953" x1="288.95" y1="231.71" x2="288.95" y2="250.37"/><line class="bdf51d4e-a2f7-4e22-8106-20deeae44953" x1="288.95" y1="84.12" x2="279.62" y2="100.29"/><line class="a91bbc31-f9e3-4bf8-a440-d0be71a85402" x1="274.72" y1="108.78" x2="272.26" y2="113.03"/><line class="be68c33f-7448-4041-a5b3-a7b6d9d82cff" x1="269.81" y1="117.27" x2="156.76" y2="313.09"/><line class="bdf51d4e-a2f7-4e22-8106-20deeae44953" x1="154.31" y1="317.33" x2="144.97" y2="333.5"/><line class="bdf51d4e-a2f7-4e22-8106-20deeae44953" x1="288.95" y1="84.12" x2="272.79" y2="93.45"/><line class="bbbdc66c-e849-4af4-b3a5-35118b6dfc37" x1="264.66" y1="98.15" x2="260.59" y2="100.49"/><line class="a205261c-dc5d-4415-a429-a86c976f93f7" x1="256.53" y1="102.84" x2="21.23" y2="238.69"/><line class="bdf51d4e-a2f7-4e22-8106-20deeae44953" x1="17.16" y1="241.04" x2="1" y2="250.37"/><line class="bdf51d4e-a2f7-4e22-8106-20deeae44953" x1="288.95" y1="250.37" x2="272.79" y2="259.7"/><line class="e26cf8c0-df72-45db-beee-7f6447949041" x1="264.68" y1="264.38" x2="260.63" y2="266.72"/><line class="b1fca49c-8a55-44c6-aad5-b5d18e5dbb20" x1="256.58" y1="269.06" x2="165.19" y2="321.83"/><line class="bdf51d4e-a2f7-4e22-8106-20deeae44953" x1="161.14" y1="324.17" x2="144.97" y2="333.5"/><line class="bdf51d4e-a2f7-4e22-8106-20deeae44953" x1="288.95" y1="250.37" x2="270.29" y2="250.37"/><line class="a91bbc31-f9e3-4bf8-a440-d0be71a85402" x1="260.48" y1="250.37" x2="255.58" y2="250.37"/><line class="be68c33f-7448-4041-a5b3-a7b6d9d82cff" x1="250.67" y1="250.37" x2="24.56" y2="250.37"/><line class="bdf51d4e-a2f7-4e22-8106-20deeae44953" x1="19.66" y1="250.37" x2="1" y2="250.37"/><line class="bdf51d4e-a2f7-4e22-8106-20deeae44953" x1="144.97" y1="333.5" x2="128.81" y2="324.17"/><line class="e26cf8c0-df72-45db-beee-7f6447949041" x1="120.71" y1="319.49" x2="116.66" y2="317.15"/><line class="b1fca49c-8a55-44c6-aad5-b5d18e5dbb20" x1="112.6" y1="314.81" x2="21.21" y2="262.04"/><line class="bdf51d4e-a2f7-4e22-8106-20deeae44953" x1="17.16" y1="259.7" x2="1" y2="250.37"/></g></svg>