<svg id="ad514900-e2af-4769-aea9-9001d314e308" data-name="Layer 1" xmlns="http://www.w3.org/2000/svg" viewBox="0 0 289.75 334.29"><defs><style>.a0f0c751-df82-4262-8060-1a93f09716e2,.acb14971-17ac-4a40-9663-95c985a8a866,.b2633550-6c3a-40f4-a5b5-411e3e1010b0,.bc01b28e-0850-4a6b-88d9-12fda50164f3,.bf254f29-e6e0-4577-907e-05e5ccd153a3{fill:none;stroke:#000000;;stroke-linecap:round;stroke-linejoin:round;stroke-width:1.79px;}.bf254f29-e6e0-4577-907e-05e5ccd153a3{stroke-dasharray:47.16 0 47.16 24.82;}.b2633550-6c3a-40f4-a5b5-411e3e1010b0{stroke-dasharray:0 24.82 47.16 0 47.16 24.82;}.a0f0c751-df82-4262-8060-1a93f09716e2{stroke-dasharray:54.46 0 54.46 28.66;}.bc01b28e-0850-4a6b-88d9-12fda50164f3{stroke-dasharray:0 28.66 54.46 0 54.46 28.66;}</style></defs><title>18u</title><g id="a50089c4-028f-4859-b8f4-870d48738875" data-name="EXTRA"><line class="acb14971-17ac-4a40-9663-95c985a8a866" x1="0.89" y1="84.02" x2="0.89" y2="84.02"/><line class="bf254f29-e6e0-4577-907e-05e5ccd153a3" x1="25.72" y1="84.02" x2="132.47" y2="84.02"/><line class="b2633550-6c3a-40f4-a5b5-411e3e1010b0" x1="144.87" y1="84.02" x2="276.45" y2="84.02"/><line class="acb14971-17ac-4a40-9663-95c985a8a866" x1="288.86" y1="84.02" x2="288.86" y2="84.02"/><line class="acb14971-17ac-4a40-9663-95c985a8a866" x1="0.89" y1="84.02" x2="0.89" y2="84.02"/><line class="a0f0c751-df82-4262-8060-1a93f09716e2" x1="25.72" y1="98.35" x2="132.47" y2="159.98"/><line class="bc01b28e-0850-4a6b-88d9-12fda50164f3" x1="144.87" y1="167.14" x2="276.45" y2="243.11"/><line class="acb14971-17ac-4a40-9663-95c985a8a866" x1="288.86" y1="250.28" x2="288.86" y2="250.28"/><line class="acb14971-17ac-4a40-9663-95c985a8a866" x1="0.89" y1="84.02" x2="0.89" y2="84.02"/><line class="bf254f29-e6e0-4577-907e-05e5ccd153a3" x1="13.32" y1="105.52" x2="66.69" y2="197.97"/><line class="b2633550-6c3a-40f4-a5b5-411e3e1010b0" x1="72.88" y1="208.72" x2="138.67" y2="322.65"/><line class="acb14971-17ac-4a40-9663-95c985a8a866" x1="144.87" y1="333.4" x2="144.87" y2="333.4"/><line class="acb14971-17ac-4a40-9663-95c985a8a866" x1="144.87" y1="0.89" x2="144.87" y2="0.89"/><line class="bf254f29-e6e0-4577-907e-05e5ccd153a3" x1="157.28" y1="22.39" x2="210.65" y2="114.84"/><line class="b2633550-6c3a-40f4-a5b5-411e3e1010b0" x1="216.87" y1="125.59" x2="282.65" y2="239.53"/><line class="acb14971-17ac-4a40-9663-95c985a8a866" x1="288.86" y1="250.28" x2="288.86" y2="250.28"/><line class="acb14971-17ac-4a40-9663-95c985a8a866" x1="144.87" y1="0.89" x2="144.87" y2="0.89"/><line class="a0f0c751-df82-4262-8060-1a93f09716e2" x1="144.87" y1="29.56" x2="144.87" y2="152.81"/><line class="bc01b28e-0850-4a6b-88d9-12fda50164f3" x1="144.87" y1="167.14" x2="144.87" y2="319.06"/><line class="acb14971-17ac-4a40-9663-95c985a8a866" x1="144.87" y1="333.4" x2="144.87" y2="333.4"/><line class="acb14971-17ac-4a40-9663-95c985a8a866" x1="144.87" y1="0.89" x2="144.87" y2="0.89"/><line class="bf254f29-e6e0-4577-907e-05e5ccd153a3" x1="132.47" y1="22.39" x2="79.09" y2="114.84"/><line class="b2633550-6c3a-40f4-a5b5-411e3e1010b0" x1="72.88" y1="125.59" x2="7.1" y2="239.53"/><line class="acb14971-17ac-4a40-9663-95c985a8a866" x1="0.89" y1="250.28" x2="0.89" y2="250.28"/><line class="acb14971-17ac-4a40-9663-95c985a8a866" x1="288.86" y1="84.02" x2="288.86" y2="84.02"/><line class="bf254f29-e6e0-4577-907e-05e5ccd153a3" x1="276.45" y1="105.52" x2="223.06" y2="197.97"/><line class="b2633550-6c3a-40f4-a5b5-411e3e1010b0" x1="216.87" y1="208.72" x2="151.09" y2="322.65"/><line class="acb14971-17ac-4a40-9663-95c985a8a866" x1="144.87" y1="333.4" x2="144.87" y2="333.4"/><line class="acb14971-17ac-4a40-9663-95c985a8a866" x1="288.86" y1="84.02" x2="288.86" y2="84.02"/><line class="a0f0c751-df82-4262-8060-1a93f09716e2" x1="264.02" y1="98.35" x2="157.28" y2="159.98"/><line class="bc01b28e-0850-4a6b-88d9-12fda50164f3" x1="144.87" y1="167.14" x2="13.32" y2="243.11"/><line class="acb14971-17ac-4a40-9663-95c985a8a866" x1="0.89" y1="250.28" x2="0.89" y2="250.28"/><line class="acb14971-17ac-4a40-9663-95c985a8a866" x1="288.86" y1="250.28" x2="288.86" y2="250.28"/><line class="bf254f29-e6e0-4577-907e-05e5ccd153a3" x1="264.02" y1="250.28" x2="157.28" y2="250.28"/><line class="b2633550-6c3a-40f4-a5b5-411e3e1010b0" x1="144.87" y1="250.28" x2="13.32" y2="250.28"/><line class="acb14971-17ac-4a40-9663-95c985a8a866" x1="0.89" y1="250.28" x2="0.89" y2="250.28"/><line class="acb14971-17ac-4a40-9663-95c985a8a866" x1="0.89" y1="84.02" x2="0.89" y2="84.02"/><line class="a0f0c751-df82-4262-8060-1a93f09716e2" x1="25.72" y1="69.7" x2="131.59" y2="8.57"/><line class="acb14971-17ac-4a40-9663-95c985a8a866" x1="144.87" y1="0.89" x2="144.87" y2="0.89"/><line class="a0f0c751-df82-4262-8060-1a93f09716e2" x1="169.7" y1="15.23" x2="275.58" y2="76.35"/><line class="acb14971-17ac-4a40-9663-95c985a8a866" x1="288.86" y1="84.02" x2="288.86" y2="84.02"/><line class="a0f0c751-df82-4262-8060-1a93f09716e2" x1="288.86" y1="112.69" x2="288.86" y2="234.95"/><line class="acb14971-17ac-4a40-9663-95c985a8a866" x1="288.86" y1="250.28" x2="288.86" y2="250.28"/><line class="a0f0c751-df82-4262-8060-1a93f09716e2" x1="264.02" y1="264.61" x2="158.15" y2="325.74"/><line class="acb14971-17ac-4a40-9663-95c985a8a866" x1="144.87" y1="333.4" x2="144.87" y2="333.4"/><line class="a0f0c751-df82-4262-8060-1a93f09716e2" x1="120.06" y1="319.06" x2="14.18" y2="257.93"/><line class="acb14971-17ac-4a40-9663-95c985a8a866" x1="0.89" y1="250.28" x2="0.89" y2="250.28"/><line class="a0f0c751-df82-4262-8060-1a93f09716e2" x1="0.89" y1="221.61" x2="0.89" y2="99.35"/></g></svg>