<svg id="b573d7e8-b580-4c01-a217-41f1a93cd280" data-name="Layer 1" xmlns="http://www.w3.org/2000/svg" viewBox="0 0 334.38 289.94"><defs><style>.a0fbb9e0-7c72-4ca6-9f53-b5681bde9a11,.a5dbbab9-3d95-44ec-a912-a1d117850b1b,.a8c1810f-1fc6-4b02-9961-f1b3fe53fa4b,.a9f3cef4-d321-4a4d-9778-5343208cf9c8,.ed461f0e-9071-4b0d-b284-835b1329531f,.f2e2ef03-6ebf-4951-82b4-8e7bfa94e750,.f7530dcf-5924-47f8-8d3e-7fc4958024ba{fill:none;stroke:#000000;;stroke-linecap:round;stroke-linejoin:round;stroke-width:2.66px;}.a8c1810f-1fc6-4b02-9961-f1b3fe53fa4b{stroke-dasharray:0 22.9;}.a9f3cef4-d321-4a4d-9778-5343208cf9c8{stroke-dasharray:34.35 22.9 0 22.9;}.ed461f0e-9071-4b0d-b284-835b1329531f{stroke-dasharray:0 27.49;}.a0fbb9e0-7c72-4ca6-9f53-b5681bde9a11{stroke-dasharray:41.23 27.49 0 27.49;}.f7530dcf-5924-47f8-8d3e-7fc4958024ba{stroke-dasharray:0 23.35;}.a5dbbab9-3d95-44ec-a912-a1d117850b1b{stroke-dasharray:35.02 23.35 0 23.35;}</style></defs><title>19u</title><g id="fee25aeb-f67c-4a0b-82ca-b3fa028ce040" data-name="EXTRA"><polyline class="f2e2ef03-6ebf-4951-82b4-8e7bfa94e750" points="260.1 271.33 250.12 288.61 230.17 288.61"/><line class="a8c1810f-1fc6-4b02-9961-f1b3fe53fa4b" x1="207.27" y1="288.61" x2="195.82" y2="288.61"/><line class="a9f3cef4-d321-4a4d-9778-5343208cf9c8" x1="184.37" y1="288.61" x2="115.66" y2="288.61"/><polyline class="f2e2ef03-6ebf-4951-82b4-8e7bfa94e750" points="104.21 288.61 84.26 288.61 74.29 271.33"/><line class="a8c1810f-1fc6-4b02-9961-f1b3fe53fa4b" x1="62.83" y1="251.5" x2="57.11" y2="241.58"/><line class="a9f3cef4-d321-4a4d-9778-5343208cf9c8" x1="51.38" y1="231.67" x2="17.03" y2="172.16"/><polyline class="f2e2ef03-6ebf-4951-82b4-8e7bfa94e750" points="11.3 162.25 1.33 144.97 11.3 127.69"/><line class="a8c1810f-1fc6-4b02-9961-f1b3fe53fa4b" x1="22.76" y1="107.86" x2="28.48" y2="97.94"/><line class="a9f3cef4-d321-4a4d-9778-5343208cf9c8" x1="34.21" y1="88.03" x2="68.56" y2="28.52"/><polyline class="f2e2ef03-6ebf-4951-82b4-8e7bfa94e750" points="74.29 18.61 84.26 1.33 104.21 1.33"/><line class="a8c1810f-1fc6-4b02-9961-f1b3fe53fa4b" x1="127.11" y1="1.33" x2="138.56" y2="1.33"/><line class="a9f3cef4-d321-4a4d-9778-5343208cf9c8" x1="150.01" y1="1.33" x2="218.72" y2="1.33"/><polyline class="f2e2ef03-6ebf-4951-82b4-8e7bfa94e750" points="230.17 1.33 250.12 1.33 260.1 18.61"/><line class="a8c1810f-1fc6-4b02-9961-f1b3fe53fa4b" x1="271.55" y1="38.44" x2="277.27" y2="48.36"/><line class="a9f3cef4-d321-4a4d-9778-5343208cf9c8" x1="283" y1="58.27" x2="317.35" y2="117.78"/><polyline class="f2e2ef03-6ebf-4951-82b4-8e7bfa94e750" points="323.08 127.69 333.05 144.97 323.08 162.25"/><line class="a8c1810f-1fc6-4b02-9961-f1b3fe53fa4b" x1="311.63" y1="182.08" x2="305.9" y2="192"/><line class="a9f3cef4-d321-4a4d-9778-5343208cf9c8" x1="300.18" y1="201.91" x2="265.82" y2="261.42"/><line class="f2e2ef03-6ebf-4951-82b4-8e7bfa94e750" x1="167.19" y1="1.33" x2="167.19" y2="21.28"/><line class="ed461f0e-9071-4b0d-b284-835b1329531f" x1="167.19" y1="48.77" x2="167.19" y2="62.51"/><line class="a0fbb9e0-7c72-4ca6-9f53-b5681bde9a11" x1="167.19" y1="76.25" x2="167.19" y2="254.92"/><line class="f2e2ef03-6ebf-4951-82b4-8e7bfa94e750" x1="167.19" y1="268.66" x2="167.19" y2="288.61"/><line class="f2e2ef03-6ebf-4951-82b4-8e7bfa94e750" x1="42.8" y1="216.79" x2="60.07" y2="206.81"/><line class="ed461f0e-9071-4b0d-b284-835b1329531f" x1="83.88" y1="193.07" x2="95.78" y2="186.2"/><line class="a0fbb9e0-7c72-4ca6-9f53-b5681bde9a11" x1="107.68" y1="179.33" x2="262.41" y2="90"/><line class="f2e2ef03-6ebf-4951-82b4-8e7bfa94e750" x1="274.31" y1="83.12" x2="291.59" y2="73.15"/><line class="f2e2ef03-6ebf-4951-82b4-8e7bfa94e750" x1="291.59" y1="216.79" x2="274.31" y2="206.81"/><line class="ed461f0e-9071-4b0d-b284-835b1329531f" x1="250.51" y1="193.07" x2="238.6" y2="186.2"/><line class="a0fbb9e0-7c72-4ca6-9f53-b5681bde9a11" x1="226.7" y1="179.33" x2="71.97" y2="90"/><line class="f2e2ef03-6ebf-4951-82b4-8e7bfa94e750" x1="60.07" y1="83.12" x2="42.8" y2="73.15"/><line class="f2e2ef03-6ebf-4951-82b4-8e7bfa94e750" x1="1.33" y1="144.97" x2="21.28" y2="144.97"/><line class="f7530dcf-5924-47f8-8d3e-7fc4958024ba" x1="44.63" y1="144.97" x2="56.3" y2="144.97"/><line class="a5dbbab9-3d95-44ec-a912-a1d117850b1b" x1="67.97" y1="144.97" x2="301.43" y2="144.97"/><line class="f2e2ef03-6ebf-4951-82b4-8e7bfa94e750" x1="313.1" y1="144.97" x2="333.05" y2="144.97"/><line class="f2e2ef03-6ebf-4951-82b4-8e7bfa94e750" x1="250.12" y1="288.61" x2="240.15" y2="271.33"/><line class="f7530dcf-5924-47f8-8d3e-7fc4958024ba" x1="228.47" y1="251.11" x2="222.64" y2="241.01"/><line class="a5dbbab9-3d95-44ec-a912-a1d117850b1b" x1="216.8" y1="230.9" x2="100.07" y2="28.72"/><line class="f2e2ef03-6ebf-4951-82b4-8e7bfa94e750" x1="94.24" y1="18.61" x2="84.26" y2="1.33"/><line class="f2e2ef03-6ebf-4951-82b4-8e7bfa94e750" x1="250.12" y1="1.33" x2="240.15" y2="18.61"/><line class="f7530dcf-5924-47f8-8d3e-7fc4958024ba" x1="228.47" y1="38.83" x2="222.64" y2="48.93"/><line class="a5dbbab9-3d95-44ec-a912-a1d117850b1b" x1="216.8" y1="59.04" x2="100.07" y2="261.22"/><line class="f2e2ef03-6ebf-4951-82b4-8e7bfa94e750" x1="94.24" y1="271.33" x2="84.26" y2="288.61"/></g></svg>