<svg id="bc74786a-c240-413e-8877-02c76613a578" data-name="Layer 1" xmlns="http://www.w3.org/2000/svg" viewBox="0 0 334.52 290.08"><defs><style>.a35e1b2d-5e5c-4e9e-b724-1f64ccc47594,.ad3faab8-7e70-48cc-b447-123d620a9db8,.b351aad9-f0d3-4be6-adb0-fde821cf83eb,.b441b1e0-c347-45e9-881f-52642320a26b,.bd079c10-3a5b-4d7a-b326-4cc27e387cc8,.bdfa7a83-3f31-4739-b027-8d3aa446c39d,.f6fcb7d4-5698-4d19-b4cd-141e52ac1ad9{fill:none;stroke:#000000;;stroke-linecap:round;stroke-linejoin:round;stroke-width:2.8px;}.b441b1e0-c347-45e9-881f-52642320a26b{stroke-dasharray:0 10.23 0 10.23;}.bdfa7a83-3f31-4739-b027-8d3aa446c39d{stroke-dasharray:51.15 10.23 0 10.23 0 10.23;}.f6fcb7d4-5698-4d19-b4cd-141e52ac1ad9{stroke-dasharray:35.91 0 35.91 35.91;}.bd079c10-3a5b-4d7a-b326-4cc27e387cc8{stroke-dasharray:0 35.91 35.91 0 35.91 35.91;}.b351aad9-f0d3-4be6-adb0-fde821cf83eb{stroke-dasharray:0 23.7 0 23.7;}.ad3faab8-7e70-48cc-b447-123d620a9db8{stroke-dasharray:23.7 23.7 0 23.7 0 23.7;}</style></defs><title>20u</title><g id="ff546972-143c-4432-8858-0c87cc0df5af" data-name="EXTRA"><polyline class="a35e1b2d-5e5c-4e9e-b724-1f64ccc47594" points="263.52 265.59 250.19 288.68 223.53 288.68"/><line class="b441b1e0-c347-45e9-881f-52642320a26b" x1="213.3" y1="288.68" x2="197.95" y2="288.68"/><line class="bdfa7a83-3f31-4739-b027-8d3aa446c39d" x1="192.84" y1="288.68" x2="116.11" y2="288.68"/><polyline class="a35e1b2d-5e5c-4e9e-b724-1f64ccc47594" points="110.99 288.68 84.33 288.68 71 265.59"/><line class="b441b1e0-c347-45e9-881f-52642320a26b" x1="65.88" y1="256.73" x2="58.21" y2="243.44"/><line class="bdfa7a83-3f31-4739-b027-8d3aa446c39d" x1="55.65" y1="239.01" x2="17.29" y2="172.56"/><polyline class="a35e1b2d-5e5c-4e9e-b724-1f64ccc47594" points="14.73 168.13 1.4 145.04 14.73 121.95"/><line class="b441b1e0-c347-45e9-881f-52642320a26b" x1="19.85" y1="113.09" x2="27.52" y2="99.8"/><line class="bdfa7a83-3f31-4739-b027-8d3aa446c39d" x1="30.08" y1="95.37" x2="68.44" y2="28.92"/><polyline class="a35e1b2d-5e5c-4e9e-b724-1f64ccc47594" points="71 24.49 84.33 1.4 110.99 1.4"/><line class="b441b1e0-c347-45e9-881f-52642320a26b" x1="121.22" y1="1.4" x2="136.57" y2="1.4"/><line class="bdfa7a83-3f31-4739-b027-8d3aa446c39d" x1="141.68" y1="1.4" x2="218.41" y2="1.4"/><polyline class="a35e1b2d-5e5c-4e9e-b724-1f64ccc47594" points="223.53 1.4 250.19 1.4 263.52 24.49"/><line class="b441b1e0-c347-45e9-881f-52642320a26b" x1="268.64" y1="33.35" x2="276.31" y2="46.64"/><line class="bdfa7a83-3f31-4739-b027-8d3aa446c39d" x1="278.87" y1="51.07" x2="317.23" y2="117.52"/><polyline class="a35e1b2d-5e5c-4e9e-b724-1f64ccc47594" points="319.79 121.95 333.12 145.04 319.79 168.13"/><line class="b441b1e0-c347-45e9-881f-52642320a26b" x1="314.68" y1="176.99" x2="307" y2="190.28"/><line class="bdfa7a83-3f31-4739-b027-8d3aa446c39d" x1="304.45" y1="194.71" x2="266.08" y2="261.16"/><line class="a35e1b2d-5e5c-4e9e-b724-1f64ccc47594" x1="167.26" y1="1.4" x2="167.26" y2="1.4"/><line class="f6fcb7d4-5698-4d19-b4cd-141e52ac1ad9" x1="167.26" y1="37.31" x2="167.26" y2="127.08"/><line class="bd079c10-3a5b-4d7a-b326-4cc27e387cc8" x1="167.26" y1="145.04" x2="167.26" y2="270.72"/><line class="a35e1b2d-5e5c-4e9e-b724-1f64ccc47594" x1="167.26" y1="288.68" x2="167.26" y2="288.68"/><line class="a35e1b2d-5e5c-4e9e-b724-1f64ccc47594" x1="42.87" y1="216.86" x2="42.87" y2="216.86"/><line class="f6fcb7d4-5698-4d19-b4cd-141e52ac1ad9" x1="73.96" y1="198.9" x2="151.71" y2="154.02"/><line class="bd079c10-3a5b-4d7a-b326-4cc27e387cc8" x1="167.26" y1="145.04" x2="276.11" y2="82.2"/><line class="a35e1b2d-5e5c-4e9e-b724-1f64ccc47594" x1="291.66" y1="73.22" x2="291.66" y2="73.22"/><line class="a35e1b2d-5e5c-4e9e-b724-1f64ccc47594" x1="291.66" y1="216.86" x2="291.66" y2="216.86"/><line class="f6fcb7d4-5698-4d19-b4cd-141e52ac1ad9" x1="260.56" y1="198.9" x2="182.81" y2="154.02"/><line class="bd079c10-3a5b-4d7a-b326-4cc27e387cc8" x1="167.26" y1="145.04" x2="58.41" y2="82.2"/><line class="a35e1b2d-5e5c-4e9e-b724-1f64ccc47594" x1="42.87" y1="73.22" x2="42.87" y2="73.22"/><line class="a35e1b2d-5e5c-4e9e-b724-1f64ccc47594" x1="310.9" y1="145.04" x2="297.6" y2="145.04"/><line class="b351aad9-f0d3-4be6-adb0-fde821cf83eb" x1="273.9" y1="145.04" x2="238.36" y2="145.04"/><line class="ad3faab8-7e70-48cc-b447-123d620a9db8" x1="226.51" y1="145.04" x2="48.77" y2="145.04"/><line class="a35e1b2d-5e5c-4e9e-b724-1f64ccc47594" x1="36.92" y1="145.04" x2="23.62" y2="145.04"/><line class="a35e1b2d-5e5c-4e9e-b724-1f64ccc47594" x1="95.44" y1="20.64" x2="102.09" y2="32.16"/><line class="b351aad9-f0d3-4be6-adb0-fde821cf83eb" x1="113.94" y1="52.69" x2="131.71" y2="83.47"/><line class="ad3faab8-7e70-48cc-b447-123d620a9db8" x1="137.64" y1="93.73" x2="226.51" y2="247.66"/><line class="a35e1b2d-5e5c-4e9e-b724-1f64ccc47594" x1="232.43" y1="257.92" x2="239.08" y2="269.44"/><line class="a35e1b2d-5e5c-4e9e-b724-1f64ccc47594" x1="95.44" y1="269.44" x2="102.09" y2="257.92"/><line class="b351aad9-f0d3-4be6-adb0-fde821cf83eb" x1="113.94" y1="237.39" x2="131.71" y2="206.61"/><line class="ad3faab8-7e70-48cc-b447-123d620a9db8" x1="137.64" y1="196.35" x2="226.51" y2="42.42"/><line class="a35e1b2d-5e5c-4e9e-b724-1f64ccc47594" x1="232.43" y1="32.16" x2="239.08" y2="20.64"/></g></svg>