<svg id="b02ac495-aebe-4777-b646-844358450c5c" data-name="Layer 1" xmlns="http://www.w3.org/2000/svg" viewBox="0 0 334.79 289.94"><defs><style>.a6f90b72-8f2c-444d-a20b-a87a233fac61,.e5d171a5-541f-45da-9ef0-88323aca0330,.eee74757-5628-44c9-9fcf-646a42b5c11c{fill:none;stroke:#000000;;stroke-miterlimit:10;stroke-width:2.66px;}.eee74757-5628-44c9-9fcf-646a42b5c11c{stroke-dasharray:43.37 43.37;}.e5d171a5-541f-45da-9ef0-88323aca0330{stroke-dasharray:35.93 35.93;}</style></defs><title>21u</title><g id="efebd1eb-8b67-4e8e-8334-6ce5793bd63b" data-name="EXTRA"><polyline class="a6f90b72-8f2c-444d-a20b-a87a233fac61" points="75.53 16.82 84.47 1.33 102.35 1.33"/><line class="eee74757-5628-44c9-9fcf-646a42b5c11c" x1="145.71" y1="1.33" x2="210.76" y2="1.33"/><polyline class="a6f90b72-8f2c-444d-a20b-a87a233fac61" points="232.45 1.33 250.33 1.33 259.27 16.82"/><line class="eee74757-5628-44c9-9fcf-646a42b5c11c" x1="280.95" y1="54.37" x2="313.48" y2="110.71"/><polyline class="a6f90b72-8f2c-444d-a20b-a87a233fac61" points="324.32 129.48 333.26 144.97 324.32 160.46"/><line class="eee74757-5628-44c9-9fcf-646a42b5c11c" x1="302.63" y1="198.01" x2="270.11" y2="254.35"/><polyline class="a6f90b72-8f2c-444d-a20b-a87a233fac61" points="259.27 273.12 250.33 288.61 232.45 288.61"/><line class="eee74757-5628-44c9-9fcf-646a42b5c11c" x1="189.08" y1="288.61" x2="124.03" y2="288.61"/><polyline class="a6f90b72-8f2c-444d-a20b-a87a233fac61" points="102.35 288.61 84.47 288.61 75.53 273.12"/><line class="eee74757-5628-44c9-9fcf-646a42b5c11c" x1="53.84" y1="235.57" x2="21.32" y2="179.23"/><polyline class="a6f90b72-8f2c-444d-a20b-a87a233fac61" points="10.48 160.46 1.54 144.97 10.48 129.48"/><line class="eee74757-5628-44c9-9fcf-646a42b5c11c" x1="32.16" y1="91.93" x2="64.68" y2="35.59"/><line class="a6f90b72-8f2c-444d-a20b-a87a233fac61" x1="167.4" y1="288.61" x2="167.4" y2="270.73"/><line class="e5d171a5-541f-45da-9ef0-88323aca0330" x1="167.4" y1="234.8" x2="167.4" y2="37.18"/><line class="a6f90b72-8f2c-444d-a20b-a87a233fac61" x1="167.4" y1="19.21" x2="167.4" y2="1.33"/><line class="a6f90b72-8f2c-444d-a20b-a87a233fac61" x1="291.79" y1="73.15" x2="276.31" y2="82.09"/><line class="e5d171a5-541f-45da-9ef0-88323aca0330" x1="245.19" y1="100.06" x2="74.05" y2="198.87"/><line class="a6f90b72-8f2c-444d-a20b-a87a233fac61" x1="58.49" y1="207.85" x2="43" y2="216.79"/><line class="a6f90b72-8f2c-444d-a20b-a87a233fac61" x1="43" y1="73.15" x2="58.49" y2="82.09"/><line class="e5d171a5-541f-45da-9ef0-88323aca0330" x1="89.6" y1="100.06" x2="260.75" y2="198.87"/><line class="a6f90b72-8f2c-444d-a20b-a87a233fac61" x1="276.31" y1="207.85" x2="291.79" y2="216.79"/></g></svg>