<svg id="ef1bf930-6c91-4b9a-8395-3fc7f41a7f67" data-name="Layer 1" xmlns="http://www.w3.org/2000/svg" viewBox="0 0 289.28 333.83"><defs><style>.a0de2773-659c-4edc-a6a7-28dc2718f2a7,.a56409fe-f42b-4b46-ae1c-00e55fcc5b9e,.a6393299-9bcb-40ab-a4c8-6c9e9b959f9e,.a8d8c199-c2e1-443b-a695-752f944fc65a,.b245fa8c-dcdb-4254-8bf8-cdbad1641022,.ba407c90-3433-45f4-b71b-42452e37f4db,.bb2bc82c-6b70-49a1-8000-7afa5621a691{fill:none;stroke:#000000;;stroke-linecap:round;stroke-linejoin:round;stroke-width:1.33px;}.b245fa8c-dcdb-4254-8bf8-cdbad1641022{stroke-dasharray:127.88 19.18;}.a56409fe-f42b-4b46-ae1c-00e55fcc5b9e{stroke-dasharray:110.75 16.61;}.ba407c90-3433-45f4-b71b-42452e37f4db{stroke-dasharray:0 16.61 110.75 16.61;}.bb2bc82c-6b70-49a1-8000-7afa5621a691{stroke-dasharray:0 27.93;}.a8d8c199-c2e1-443b-a695-752f944fc65a{stroke-dasharray:55.86 27.93 0 27.93;}.a6393299-9bcb-40ab-a4c8-6c9e9b959f9e{stroke-dasharray:191.97 47.99;}</style></defs><title>22u</title><g id="a2e4c019-6b3b-4c2a-a28b-777088efebb7" data-name="EXTRA"><line class="a0de2773-659c-4edc-a6a7-28dc2718f2a7" x1="288.61" y1="250.03" x2="288.61" y2="250.03"/><line class="b245fa8c-dcdb-4254-8bf8-cdbad1641022" x1="272.01" y1="259.63" x2="153.8" y2="327.86"/><line class="a0de2773-659c-4edc-a6a7-28dc2718f2a7" x1="144.63" y1="333.17" x2="144.63" y2="333.17"/><line class="a0de2773-659c-4edc-a6a7-28dc2718f2a7" x1="288.61" y1="250.03" x2="288.61" y2="250.03"/><line class="a56409fe-f42b-4b46-ae1c-00e55fcc5b9e" x1="272.01" y1="250.03" x2="152.94" y2="250.03"/><line class="ba407c90-3433-45f4-b71b-42452e37f4db" x1="144.63" y1="250.03" x2="8.97" y2="250.03"/><line class="a0de2773-659c-4edc-a6a7-28dc2718f2a7" x1="0.67" y1="250.03" x2="0.67" y2="250.03"/><line class="a0de2773-659c-4edc-a6a7-28dc2718f2a7" x1="288.61" y1="250.03" x2="288.61" y2="250.03"/><line class="a56409fe-f42b-4b46-ae1c-00e55fcc5b9e" x1="280.3" y1="235.64" x2="220.77" y2="132.55"/><line class="ba407c90-3433-45f4-b71b-42452e37f4db" x1="216.63" y1="125.34" x2="148.78" y2="7.86"/><line class="a0de2773-659c-4edc-a6a7-28dc2718f2a7" x1="144.63" y1="0.67" x2="144.63" y2="0.67"/><line class="a0de2773-659c-4edc-a6a7-28dc2718f2a7" x1="288.61" y1="250.03" x2="288.61" y2="250.03"/><line class="b245fa8c-dcdb-4254-8bf8-cdbad1641022" x1="288.61" y1="230.86" x2="288.61" y2="94.37"/><line class="a0de2773-659c-4edc-a6a7-28dc2718f2a7" x1="288.61" y1="83.79" x2="288.61" y2="83.79"/><line class="a0de2773-659c-4edc-a6a7-28dc2718f2a7" x1="144.63" y1="333.17" x2="144.63" y2="333.17"/><line class="b245fa8c-dcdb-4254-8bf8-cdbad1641022" x1="128.02" y1="323.57" x2="9.84" y2="255.33"/><line class="a0de2773-659c-4edc-a6a7-28dc2718f2a7" x1="0.67" y1="250.03" x2="0.67" y2="250.03"/><line class="a0de2773-659c-4edc-a6a7-28dc2718f2a7" x1="144.63" y1="333.17" x2="144.63" y2="333.17"/><line class="a56409fe-f42b-4b46-ae1c-00e55fcc5b9e" x1="136.33" y1="318.77" x2="76.8" y2="215.66"/><line class="ba407c90-3433-45f4-b71b-42452e37f4db" x1="72.65" y1="208.47" x2="4.82" y2="90.98"/><line class="a0de2773-659c-4edc-a6a7-28dc2718f2a7" x1="0.67" y1="83.79" x2="0.67" y2="83.79"/><line class="a0de2773-659c-4edc-a6a7-28dc2718f2a7" x1="144.63" y1="333.17" x2="144.63" y2="333.17"/><line class="a56409fe-f42b-4b46-ae1c-00e55fcc5b9e" x1="152.94" y1="318.77" x2="212.47" y2="215.66"/><line class="ba407c90-3433-45f4-b71b-42452e37f4db" x1="216.63" y1="208.47" x2="284.47" y2="90.98"/><line class="a0de2773-659c-4edc-a6a7-28dc2718f2a7" x1="288.61" y1="83.79" x2="288.61" y2="83.79"/><line class="a0de2773-659c-4edc-a6a7-28dc2718f2a7" x1="0.67" y1="250.03" x2="0.67" y2="250.03"/><line class="b245fa8c-dcdb-4254-8bf8-cdbad1641022" x1="0.67" y1="230.86" x2="0.67" y2="94.37"/><line class="a0de2773-659c-4edc-a6a7-28dc2718f2a7" x1="0.67" y1="83.79" x2="0.67" y2="83.79"/><line class="a0de2773-659c-4edc-a6a7-28dc2718f2a7" x1="0.67" y1="250.03" x2="0.67" y2="250.03"/><line class="a56409fe-f42b-4b46-ae1c-00e55fcc5b9e" x1="8.97" y1="235.64" x2="68.5" y2="132.55"/><line class="ba407c90-3433-45f4-b71b-42452e37f4db" x1="72.65" y1="125.34" x2="140.49" y2="7.86"/><line class="a0de2773-659c-4edc-a6a7-28dc2718f2a7" x1="144.63" y1="0.67" x2="144.63" y2="0.67"/><line class="a0de2773-659c-4edc-a6a7-28dc2718f2a7" x1="0.67" y1="83.79" x2="0.67" y2="83.79"/><line class="b245fa8c-dcdb-4254-8bf8-cdbad1641022" x1="17.28" y1="74.19" x2="135.47" y2="5.96"/><line class="a0de2773-659c-4edc-a6a7-28dc2718f2a7" x1="144.63" y1="0.67" x2="144.63" y2="0.67"/><line class="a0de2773-659c-4edc-a6a7-28dc2718f2a7" x1="0.67" y1="83.79" x2="0.67" y2="83.79"/><line class="a56409fe-f42b-4b46-ae1c-00e55fcc5b9e" x1="17.28" y1="83.79" x2="136.33" y2="83.79"/><line class="ba407c90-3433-45f4-b71b-42452e37f4db" x1="144.63" y1="83.79" x2="280.3" y2="83.79"/><line class="a0de2773-659c-4edc-a6a7-28dc2718f2a7" x1="288.61" y1="83.79" x2="288.61" y2="83.79"/><line class="a0de2773-659c-4edc-a6a7-28dc2718f2a7" x1="144.63" y1="0.67" x2="144.63" y2="0.67"/><line class="b245fa8c-dcdb-4254-8bf8-cdbad1641022" x1="161.25" y1="10.26" x2="279.45" y2="78.48"/><line class="a0de2773-659c-4edc-a6a7-28dc2718f2a7" x1="288.61" y1="83.79" x2="288.61" y2="83.79"/><line class="a0de2773-659c-4edc-a6a7-28dc2718f2a7" x1="144.63" y1="0.67" x2="144.63" y2="27.27"/><line class="bb2bc82c-6b70-49a1-8000-7afa5621a691" x1="144.63" y1="55.2" x2="144.63" y2="69.16"/><line class="a8d8c199-c2e1-443b-a695-752f944fc65a" x1="144.63" y1="83.12" x2="144.63" y2="292.6"/><line class="a0de2773-659c-4edc-a6a7-28dc2718f2a7" x1="144.63" y1="306.55" x2="144.63" y2="333.17"/><line class="a0de2773-659c-4edc-a6a7-28dc2718f2a7" x1="0.67" y1="250.03" x2="23.7" y2="236.74"/><line class="bb2bc82c-6b70-49a1-8000-7afa5621a691" x1="47.88" y1="222.77" x2="59.97" y2="215.78"/><line class="a8d8c199-c2e1-443b-a695-752f944fc65a" x1="72.08" y1="208.8" x2="253.49" y2="104.06"/><line class="a0de2773-659c-4edc-a6a7-28dc2718f2a7" x1="265.57" y1="97.08" x2="288.61" y2="83.79"/><line class="a0de2773-659c-4edc-a6a7-28dc2718f2a7" x1="288.61" y1="250.03" x2="265.57" y2="236.74"/><line class="bb2bc82c-6b70-49a1-8000-7afa5621a691" x1="241.38" y1="222.77" x2="229.3" y2="215.78"/><line class="a8d8c199-c2e1-443b-a695-752f944fc65a" x1="217.21" y1="208.8" x2="35.79" y2="104.06"/><line class="a0de2773-659c-4edc-a6a7-28dc2718f2a7" x1="23.7" y1="97.08" x2="0.67" y2="83.79"/><line class="a0de2773-659c-4edc-a6a7-28dc2718f2a7" x1="0.67" y1="166.91" x2="0.67" y2="166.91"/><line class="a6393299-9bcb-40ab-a4c8-6c9e9b959f9e" x1="48.65" y1="166.91" x2="263.61" y2="166.91"/><line class="a0de2773-659c-4edc-a6a7-28dc2718f2a7" x1="288.61" y1="166.91" x2="288.61" y2="166.91"/><line class="a0de2773-659c-4edc-a6a7-28dc2718f2a7" x1="216.63" y1="291.6" x2="216.63" y2="291.6"/><line class="a6393299-9bcb-40ab-a4c8-6c9e9b959f9e" x1="192.63" y1="250.03" x2="85.15" y2="63.86"/><line class="a0de2773-659c-4edc-a6a7-28dc2718f2a7" x1="72.65" y1="42.22" x2="72.65" y2="42.22"/><line class="a0de2773-659c-4edc-a6a7-28dc2718f2a7" x1="216.63" y1="42.22" x2="216.63" y2="42.22"/><line class="a6393299-9bcb-40ab-a4c8-6c9e9b959f9e" x1="192.63" y1="83.79" x2="85.15" y2="269.95"/><line class="a0de2773-659c-4edc-a6a7-28dc2718f2a7" x1="72.65" y1="291.6" x2="72.65" y2="291.6"/></g></svg>