<svg id="bdcc7241-dabd-4449-8c65-e5fad2bb4e53" data-name="Layer 1" xmlns="http://www.w3.org/2000/svg" viewBox="0 0 337.32 292.88"><defs><style>.a8df4e72-6ac7-4b89-a549-6532e01b42c3,.acbae570-c31c-44e8-9ad4-4e89d39bf971{fill:none;stroke:#000000;;stroke-linejoin:round;stroke-width:5.6px;}.acbae570-c31c-44e8-9ad4-4e89d39bf971{stroke-linecap:square;}</style></defs><title>23u</title><g id="bd1f8adf-1bfd-47fb-8131-8964bd6d47f6" data-name="EXTRA"><polyline class="a8df4e72-6ac7-4b89-a549-6532e01b42c3" points="59.13 48.87 85.73 2.8 138.93 2.8"/><polyline class="a8df4e72-6ac7-4b89-a549-6532e01b42c3" points="198.39 2.8 251.59 2.8 278.19 48.87"/><polyline class="a8df4e72-6ac7-4b89-a549-6532e01b42c3" points="307.92 100.37 334.52 146.44 307.92 192.51"/><polyline class="a8df4e72-6ac7-4b89-a549-6532e01b42c3" points="278.19 244.01 251.59 290.08 198.39 290.08"/><polyline class="a8df4e72-6ac7-4b89-a549-6532e01b42c3" points="138.93 290.08 85.73 290.08 59.13 244.01"/><polyline class="a8df4e72-6ac7-4b89-a549-6532e01b42c3" points="29.4 192.51 2.8 146.44 29.4 100.37"/><line class="acbae570-c31c-44e8-9ad4-4e89d39bf971" x1="168.66" y1="290.08" x2="168.66" y2="236.88"/><line class="acbae570-c31c-44e8-9ad4-4e89d39bf971" x1="168.66" y1="56" x2="168.66" y2="2.8"/><line class="acbae570-c31c-44e8-9ad4-4e89d39bf971" x1="293.06" y1="74.62" x2="246.98" y2="101.22"/><line class="acbae570-c31c-44e8-9ad4-4e89d39bf971" x1="90.34" y1="191.66" x2="44.27" y2="218.26"/><line class="acbae570-c31c-44e8-9ad4-4e89d39bf971" x1="44.27" y1="74.62" x2="90.34" y2="101.22"/><line class="acbae570-c31c-44e8-9ad4-4e89d39bf971" x1="246.98" y1="191.66" x2="293.06" y2="218.26"/></g></svg>