<svg id="e53e40df-ca6c-4eb7-9798-de38045eb329" data-name="Layer 1" xmlns="http://www.w3.org/2000/svg" viewBox="0 0 289.35 333.65"><defs><style>.a68a6cb3-4d4b-4e8d-9696-609ef4263102,.aba0d578-2af5-40e9-80a2-5cd1f9929615,.f9b2279c-6b08-4f2d-b7d0-b680ea634a75,.fbdb06e1-4a12-4aef-bdb0-335dd8cc552e{fill:none;stroke:#000000;;stroke-miterlimit:10;stroke-width:1.33px;}.fbdb06e1-4a12-4aef-bdb0-335dd8cc552e{stroke-dasharray:41.67 41.67;}.a68a6cb3-4d4b-4e8d-9696-609ef4263102{stroke-dasharray:39.17 18.28;}.f9b2279c-6b08-4f2d-b7d0-b680ea634a75{stroke-dasharray:41.23 46.55 106.4;}</style></defs><title>24u</title><g id="f0186b3d-679e-43a1-a61f-4ffe0f9e1902" data-name="EXTRA"><line class="aba0d578-2af5-40e9-80a2-5cd1f9929615" x1="288.68" y1="249.95" x2="270.82" y2="260.26"/><line class="fbdb06e1-4a12-4aef-bdb0-335dd8cc552e" x1="234.73" y1="281.1" x2="180.6" y2="312.35"/><line class="aba0d578-2af5-40e9-80a2-5cd1f9929615" x1="162.55" y1="322.77" x2="144.7" y2="333.08"/><line class="aba0d578-2af5-40e9-80a2-5cd1f9929615" x1="288.68" y1="249.95" x2="268.73" y2="249.95"/><line class="a68a6cb3-4d4b-4e8d-9696-609ef4263102" x1="250.45" y1="249.95" x2="29.81" y2="249.95"/><line class="aba0d578-2af5-40e9-80a2-5cd1f9929615" x1="20.67" y1="249.95" x2="0.72" y2="249.95"/><line class="aba0d578-2af5-40e9-80a2-5cd1f9929615" x1="288.68" y1="249.95" x2="278.7" y2="232.67"/><line class="a68a6cb3-4d4b-4e8d-9696-609ef4263102" x1="269.56" y1="216.84" x2="159.24" y2="25.77"/><line class="aba0d578-2af5-40e9-80a2-5cd1f9929615" x1="154.67" y1="17.85" x2="144.7" y2="0.58"/><line class="aba0d578-2af5-40e9-80a2-5cd1f9929615" x1="288.68" y1="249.95" x2="288.68" y2="229.34"/><line class="fbdb06e1-4a12-4aef-bdb0-335dd8cc552e" x1="288.68" y1="187.66" x2="288.68" y2="125.15"/><line class="aba0d578-2af5-40e9-80a2-5cd1f9929615" x1="288.68" y1="104.32" x2="288.68" y2="83.7"/><line class="aba0d578-2af5-40e9-80a2-5cd1f9929615" x1="144.7" y1="333.08" x2="126.85" y2="322.77"/><line class="fbdb06e1-4a12-4aef-bdb0-335dd8cc552e" x1="90.76" y1="301.93" x2="36.62" y2="270.68"/><line class="aba0d578-2af5-40e9-80a2-5cd1f9929615" x1="18.58" y1="260.26" x2="0.72" y2="249.95"/><line class="aba0d578-2af5-40e9-80a2-5cd1f9929615" x1="144.7" y1="333.08" x2="134.72" y2="315.8"/><line class="a68a6cb3-4d4b-4e8d-9696-609ef4263102" x1="125.59" y1="299.97" x2="15.27" y2="108.89"/><line class="aba0d578-2af5-40e9-80a2-5cd1f9929615" x1="10.7" y1="100.98" x2="0.72" y2="83.7"/><line class="aba0d578-2af5-40e9-80a2-5cd1f9929615" x1="144.7" y1="333.08" x2="154.67" y2="315.8"/><line class="a68a6cb3-4d4b-4e8d-9696-609ef4263102" x1="163.81" y1="299.97" x2="274.13" y2="108.89"/><line class="aba0d578-2af5-40e9-80a2-5cd1f9929615" x1="278.7" y1="100.98" x2="288.68" y2="83.7"/><line class="aba0d578-2af5-40e9-80a2-5cd1f9929615" x1="0.72" y1="249.95" x2="0.72" y2="229.34"/><line class="fbdb06e1-4a12-4aef-bdb0-335dd8cc552e" x1="0.72" y1="187.66" x2="0.72" y2="125.15"/><line class="aba0d578-2af5-40e9-80a2-5cd1f9929615" x1="0.72" y1="104.32" x2="0.72" y2="83.7"/><line class="aba0d578-2af5-40e9-80a2-5cd1f9929615" x1="0.72" y1="249.95" x2="10.7" y2="232.67"/><line class="a68a6cb3-4d4b-4e8d-9696-609ef4263102" x1="19.84" y1="216.84" x2="130.15" y2="25.77"/><line class="aba0d578-2af5-40e9-80a2-5cd1f9929615" x1="134.72" y1="17.85" x2="144.7" y2="0.58"/><line class="aba0d578-2af5-40e9-80a2-5cd1f9929615" x1="0.72" y1="83.7" x2="18.58" y2="73.39"/><line class="fbdb06e1-4a12-4aef-bdb0-335dd8cc552e" x1="54.67" y1="52.56" x2="108.8" y2="21.3"/><line class="aba0d578-2af5-40e9-80a2-5cd1f9929615" x1="126.85" y1="10.88" x2="144.7" y2="0.58"/><line class="aba0d578-2af5-40e9-80a2-5cd1f9929615" x1="0.72" y1="83.7" x2="20.67" y2="83.7"/><line class="a68a6cb3-4d4b-4e8d-9696-609ef4263102" x1="38.95" y1="83.7" x2="259.59" y2="83.7"/><line class="aba0d578-2af5-40e9-80a2-5cd1f9929615" x1="268.73" y1="83.7" x2="288.68" y2="83.7"/><line class="aba0d578-2af5-40e9-80a2-5cd1f9929615" x1="144.7" y1="0.58" x2="162.55" y2="10.88"/><line class="fbdb06e1-4a12-4aef-bdb0-335dd8cc552e" x1="198.64" y1="31.72" x2="252.78" y2="62.98"/><line class="aba0d578-2af5-40e9-80a2-5cd1f9929615" x1="270.82" y1="73.39" x2="288.68" y2="83.7"/><polyline class="f9b2279c-6b08-4f2d-b7d0-b680ea634a75" points="144.32 333.46 144.32 250.33 144.32 223.13"/><polyline class="f9b2279c-6b08-4f2d-b7d0-b680ea634a75" points="144.32 111.28 144.32 84.08 144.32 0.96"/><polyline class="f9b2279c-6b08-4f2d-b7d0-b680ea634a75" points="288.29 84.08 216.3 125.64 192.76 139.24"/><polyline class="f9b2279c-6b08-4f2d-b7d0-b680ea634a75" points="95.87 195.18 72.33 208.77 0.33 250.33"/><polyline class="f9b2279c-6b08-4f2d-b7d0-b680ea634a75" points="0.33 84.08 72.33 125.64 95.87 139.24"/><polyline class="f9b2279c-6b08-4f2d-b7d0-b680ea634a75" points="192.76 195.18 216.3 208.77 288.29 250.33"/><line class="aba0d578-2af5-40e9-80a2-5cd1f9929615" x1="288.29" y1="167.21" x2="267.68" y2="167.21"/><line class="aba0d578-2af5-40e9-80a2-5cd1f9929615" x1="220.86" y1="167.21" x2="200.24" y2="167.21"/><line class="aba0d578-2af5-40e9-80a2-5cd1f9929615" x1="88.38" y1="167.21" x2="67.76" y2="167.21"/><line class="aba0d578-2af5-40e9-80a2-5cd1f9929615" x1="20.95" y1="167.21" x2="0.33" y2="167.21"/><line class="aba0d578-2af5-40e9-80a2-5cd1f9929615" x1="72.33" y1="42.52" x2="82.63" y2="60.37"/><line class="aba0d578-2af5-40e9-80a2-5cd1f9929615" x1="106.04" y1="100.92" x2="116.35" y2="118.77"/><line class="aba0d578-2af5-40e9-80a2-5cd1f9929615" x1="172.27" y1="215.65" x2="182.58" y2="233.5"/><line class="aba0d578-2af5-40e9-80a2-5cd1f9929615" x1="205.99" y1="274.04" x2="216.3" y2="291.89"/><line class="aba0d578-2af5-40e9-80a2-5cd1f9929615" x1="72.33" y1="291.89" x2="82.63" y2="274.04"/><line class="aba0d578-2af5-40e9-80a2-5cd1f9929615" x1="106.04" y1="233.5" x2="116.35" y2="215.65"/><line class="aba0d578-2af5-40e9-80a2-5cd1f9929615" x1="172.27" y1="118.77" x2="182.58" y2="100.92"/><line class="aba0d578-2af5-40e9-80a2-5cd1f9929615" x1="205.99" y1="60.37" x2="216.3" y2="42.52"/></g></svg>