<svg id="bddc25f0-c9ca-4504-9a25-4c8f065c8e11" data-name="Layer 1" xmlns="http://www.w3.org/2000/svg" viewBox="0 0 289.94 334.38"><defs><style>.a045893d-8978-4463-9abd-9b5735c53b05,.a18972ce-dada-416f-a44d-1e5d06bc6c7f,.be5859df-cb2a-432e-90ef-0350d94c8dbe,.bf93fbb0-0573-455b-b338-0ff76eb13925,.e0e5e9a4-bcf2-4d3a-ac7f-7c52b8994ea8,.e2088de4-912c-4111-bd40-ef3fa58153ed,.e42b01fd-3c10-476a-aea7-57a66eb2476b{fill:none;stroke:#000000;;stroke-linecap:round;stroke-linejoin:round;stroke-width:2.66px;}.a18972ce-dada-416f-a44d-1e5d06bc6c7f{stroke-dasharray:0 19.89 0 19.89;}.a045893d-8978-4463-9abd-9b5735c53b05{stroke-dasharray:19.89 19.89 0 19.89 0 19.89;}.bf93fbb0-0573-455b-b338-0ff76eb13925{stroke-dasharray:0 23.7 0 23.7;}.be5859df-cb2a-432e-90ef-0350d94c8dbe{stroke-dasharray:23.7 23.7 0 23.7 0 23.7;}.e2088de4-912c-4111-bd40-ef3fa58153ed{stroke-dasharray:0 27.74 0 27.74;}.e0e5e9a4-bcf2-4d3a-ac7f-7c52b8994ea8{stroke-dasharray:27.74 27.74 0 27.74 0 27.74;}</style></defs><title>25u</title><g id="a6137465-efe7-463d-bb72-1b9f279be38a" data-name="EXTRA"><polyline class="e42b01fd-3c10-476a-aea7-57a66eb2476b" points="12.85 256.77 1.33 250.12 1.33 236.82"/><line class="a18972ce-dada-416f-a44d-1e5d06bc6c7f" x1="1.33" y1="216.93" x2="1.33" y2="187.09"/><line class="a045893d-8978-4463-9abd-9b5735c53b05" x1="1.33" y1="177.14" x2="1.33" y2="107.51"/><polyline class="e42b01fd-3c10-476a-aea7-57a66eb2476b" points="1.33 97.56 1.33 84.26 12.85 77.61"/><line class="a18972ce-dada-416f-a44d-1e5d06bc6c7f" x1="30.08" y1="67.66" x2="55.92" y2="52.74"/><line class="a045893d-8978-4463-9abd-9b5735c53b05" x1="64.54" y1="47.77" x2="124.84" y2="12.95"/><polyline class="e42b01fd-3c10-476a-aea7-57a66eb2476b" points="133.45 7.98 144.97 1.33 156.49 7.98"/><line class="a18972ce-dada-416f-a44d-1e5d06bc6c7f" x1="173.72" y1="17.93" x2="199.56" y2="32.85"/><line class="a045893d-8978-4463-9abd-9b5735c53b05" x1="208.18" y1="37.82" x2="268.48" y2="72.64"/><polyline class="e42b01fd-3c10-476a-aea7-57a66eb2476b" points="277.09 77.61 288.61 84.26 288.61 97.56"/><line class="a18972ce-dada-416f-a44d-1e5d06bc6c7f" x1="288.61" y1="117.45" x2="288.61" y2="147.3"/><line class="a045893d-8978-4463-9abd-9b5735c53b05" x1="288.61" y1="157.24" x2="288.61" y2="226.87"/><polyline class="e42b01fd-3c10-476a-aea7-57a66eb2476b" points="288.61 236.82 288.61 250.12 277.09 256.77"/><line class="a18972ce-dada-416f-a44d-1e5d06bc6c7f" x1="259.86" y1="266.72" x2="234.02" y2="281.64"/><line class="a045893d-8978-4463-9abd-9b5735c53b05" x1="225.4" y1="286.61" x2="165.1" y2="321.43"/><polyline class="e42b01fd-3c10-476a-aea7-57a66eb2476b" points="156.49 326.4 144.97 333.05 133.45 326.4"/><line class="a18972ce-dada-416f-a44d-1e5d06bc6c7f" x1="116.22" y1="316.46" x2="90.38" y2="301.53"/><line class="a045893d-8978-4463-9abd-9b5735c53b05" x1="81.76" y1="296.56" x2="21.46" y2="261.75"/><line class="e42b01fd-3c10-476a-aea7-57a66eb2476b" x1="288.61" y1="167.19" x2="275.31" y2="167.19"/><line class="bf93fbb0-0573-455b-b338-0ff76eb13925" x1="251.61" y1="167.19" x2="216.06" y2="167.19"/><line class="be5859df-cb2a-432e-90ef-0350d94c8dbe" x1="204.22" y1="167.19" x2="26.48" y2="167.19"/><line class="e42b01fd-3c10-476a-aea7-57a66eb2476b" x1="14.63" y1="167.19" x2="1.33" y2="167.19"/><line class="e42b01fd-3c10-476a-aea7-57a66eb2476b" x1="73.15" y1="42.8" x2="79.8" y2="54.31"/><line class="bf93fbb0-0573-455b-b338-0ff76eb13925" x1="91.65" y1="74.84" x2="109.42" y2="105.62"/><line class="be5859df-cb2a-432e-90ef-0350d94c8dbe" x1="115.35" y1="115.88" x2="204.22" y2="269.81"/><line class="e42b01fd-3c10-476a-aea7-57a66eb2476b" x1="210.14" y1="280.07" x2="216.79" y2="291.59"/><line class="e42b01fd-3c10-476a-aea7-57a66eb2476b" x1="73.15" y1="291.59" x2="79.8" y2="280.07"/><line class="bf93fbb0-0573-455b-b338-0ff76eb13925" x1="91.65" y1="259.55" x2="109.42" y2="228.76"/><line class="be5859df-cb2a-432e-90ef-0350d94c8dbe" x1="115.35" y1="218.5" x2="204.22" y2="64.57"/><line class="e42b01fd-3c10-476a-aea7-57a66eb2476b" x1="210.14" y1="54.31" x2="216.79" y2="42.8"/><line class="e42b01fd-3c10-476a-aea7-57a66eb2476b" x1="144.97" y1="1.33" x2="144.97" y2="14.63"/><line class="e2088de4-912c-4111-bd40-ef3fa58153ed" x1="144.97" y1="42.37" x2="144.97" y2="83.98"/><line class="e0e5e9a4-bcf2-4d3a-ac7f-7c52b8994ea8" x1="144.97" y1="97.85" x2="144.97" y2="305.88"/><line class="e42b01fd-3c10-476a-aea7-57a66eb2476b" x1="144.97" y1="319.75" x2="144.97" y2="333.05"/><line class="e42b01fd-3c10-476a-aea7-57a66eb2476b" x1="1.33" y1="250.12" x2="12.85" y2="243.47"/><line class="e2088de4-912c-4111-bd40-ef3fa58153ed" x1="36.87" y1="229.6" x2="72.9" y2="208.8"/><line class="e0e5e9a4-bcf2-4d3a-ac7f-7c52b8994ea8" x1="84.91" y1="201.86" x2="265.08" y2="97.85"/><line class="e42b01fd-3c10-476a-aea7-57a66eb2476b" x1="277.09" y1="90.91" x2="288.61" y2="84.26"/><line class="e42b01fd-3c10-476a-aea7-57a66eb2476b" x1="288.61" y1="250.12" x2="277.09" y2="243.47"/><line class="e2088de4-912c-4111-bd40-ef3fa58153ed" x1="253.07" y1="229.6" x2="217.04" y2="208.8"/><line class="e0e5e9a4-bcf2-4d3a-ac7f-7c52b8994ea8" x1="205.03" y1="201.86" x2="24.86" y2="97.85"/><line class="e42b01fd-3c10-476a-aea7-57a66eb2476b" x1="12.85" y1="90.91" x2="1.33" y2="84.26"/></g></svg>