<svg id="f7464538-95b6-4ed4-aabc-07fad9d5bdd5" data-name="Layer 1" xmlns="http://www.w3.org/2000/svg" viewBox="0 0 290.61 335.16"><defs><style>.a2d8b219-c3e3-4536-be43-24381212a4d1,.b16b2840-1ad7-42eb-93c0-713b454a37cd,.bab1ce13-8955-4eaf-8f0f-7e2033f9e1c4,.e8b19752-c48d-4d0b-892a-e92e1c5660e0,.faf642d4-b703-42c6-9e07-72b2fba06426{fill:none;stroke:#000000;;stroke-linecap:round;stroke-linejoin:round;stroke-width:2.66px;}.b16b2840-1ad7-42eb-93c0-713b454a37cd{stroke-dasharray:13.85 0 13.85 27.71;}.faf642d4-b703-42c6-9e07-72b2fba06426{stroke-dasharray:0 27.71 13.85 0 13.85 27.71;}.bab1ce13-8955-4eaf-8f0f-7e2033f9e1c4{stroke-dasharray:12 0 12 24;}.e8b19752-c48d-4d0b-892a-e92e1c5660e0{stroke-dasharray:0 24 12 0 12 24;}</style></defs><title>28u</title><g id="aaf7e14f-8c7e-474d-848f-7427699cffe9" data-name="EXTRA"><line class="a2d8b219-c3e3-4536-be43-24381212a4d1" x1="1.33" y1="84.45" x2="1.33" y2="84.45"/><line class="b16b2840-1ad7-42eb-93c0-713b454a37cd" x1="25.33" y1="70.6" x2="61.32" y2="49.82"/><line class="faf642d4-b703-42c6-9e07-72b2fba06426" x1="73.32" y1="42.89" x2="133.31" y2="8.26"/><line class="a2d8b219-c3e3-4536-be43-24381212a4d1" x1="145.31" y1="1.33" x2="145.31" y2="1.33"/><line class="a2d8b219-c3e3-4536-be43-24381212a4d1" x1="1.33" y1="84.45" x2="1.33" y2="84.45"/><line class="bab1ce13-8955-4eaf-8f0f-7e2033f9e1c4" x1="25.33" y1="84.45" x2="61.32" y2="84.45"/><line class="e8b19752-c48d-4d0b-892a-e92e1c5660e0" x1="73.32" y1="84.45" x2="277.29" y2="84.45"/><line class="a2d8b219-c3e3-4536-be43-24381212a4d1" x1="289.28" y1="84.45" x2="289.28" y2="84.45"/><line class="a2d8b219-c3e3-4536-be43-24381212a4d1" x1="1.33" y1="84.45" x2="1.33" y2="84.45"/><line class="bab1ce13-8955-4eaf-8f0f-7e2033f9e1c4" x1="13.33" y1="105.24" x2="31.33" y2="136.41"/><line class="e8b19752-c48d-4d0b-892a-e92e1c5660e0" x1="37.32" y1="146.8" x2="139.31" y2="323.44"/><line class="a2d8b219-c3e3-4536-be43-24381212a4d1" x1="145.31" y1="333.83" x2="145.31" y2="333.83"/><line class="a2d8b219-c3e3-4536-be43-24381212a4d1" x1="1.33" y1="84.45" x2="1.33" y2="84.45"/><line class="b16b2840-1ad7-42eb-93c0-713b454a37cd" x1="1.33" y1="112.16" x2="1.33" y2="153.73"/><line class="faf642d4-b703-42c6-9e07-72b2fba06426" x1="1.33" y1="167.58" x2="1.33" y2="236.85"/><line class="a2d8b219-c3e3-4536-be43-24381212a4d1" x1="1.33" y1="250.7" x2="1.33" y2="250.7"/><line class="a2d8b219-c3e3-4536-be43-24381212a4d1" x1="145.31" y1="1.33" x2="145.31" y2="1.33"/><line class="b16b2840-1ad7-42eb-93c0-713b454a37cd" x1="169.3" y1="15.18" x2="205.3" y2="35.97"/><line class="faf642d4-b703-42c6-9e07-72b2fba06426" x1="217.3" y1="42.89" x2="277.29" y2="77.53"/><line class="a2d8b219-c3e3-4536-be43-24381212a4d1" x1="289.28" y1="84.45" x2="289.28" y2="84.45"/><line class="a2d8b219-c3e3-4536-be43-24381212a4d1" x1="145.31" y1="1.33" x2="145.31" y2="1.33"/><line class="bab1ce13-8955-4eaf-8f0f-7e2033f9e1c4" x1="157.3" y1="22.11" x2="175.3" y2="53.28"/><line class="e8b19752-c48d-4d0b-892a-e92e1c5660e0" x1="181.3" y1="63.67" x2="283.28" y2="240.31"/><line class="a2d8b219-c3e3-4536-be43-24381212a4d1" x1="289.28" y1="250.7" x2="289.28" y2="250.7"/><line class="a2d8b219-c3e3-4536-be43-24381212a4d1" x1="145.31" y1="1.33" x2="145.31" y2="1.33"/><line class="bab1ce13-8955-4eaf-8f0f-7e2033f9e1c4" x1="133.31" y1="22.11" x2="115.31" y2="53.28"/><line class="e8b19752-c48d-4d0b-892a-e92e1c5660e0" x1="109.31" y1="63.67" x2="7.33" y2="240.31"/><line class="a2d8b219-c3e3-4536-be43-24381212a4d1" x1="1.33" y1="250.7" x2="1.33" y2="250.7"/><line class="a2d8b219-c3e3-4536-be43-24381212a4d1" x1="289.28" y1="84.45" x2="289.28" y2="84.45"/><line class="b16b2840-1ad7-42eb-93c0-713b454a37cd" x1="289.28" y1="112.16" x2="289.28" y2="153.73"/><line class="faf642d4-b703-42c6-9e07-72b2fba06426" x1="289.28" y1="167.58" x2="289.28" y2="236.85"/><line class="a2d8b219-c3e3-4536-be43-24381212a4d1" x1="289.28" y1="250.7" x2="289.28" y2="250.7"/><line class="a2d8b219-c3e3-4536-be43-24381212a4d1" x1="289.28" y1="84.45" x2="289.28" y2="84.45"/><line class="bab1ce13-8955-4eaf-8f0f-7e2033f9e1c4" x1="277.29" y1="105.24" x2="259.29" y2="136.41"/><line class="e8b19752-c48d-4d0b-892a-e92e1c5660e0" x1="253.29" y1="146.8" x2="151.31" y2="323.44"/><line class="a2d8b219-c3e3-4536-be43-24381212a4d1" x1="145.31" y1="333.83" x2="145.31" y2="333.83"/><line class="a2d8b219-c3e3-4536-be43-24381212a4d1" x1="289.28" y1="250.7" x2="289.28" y2="250.7"/><line class="b16b2840-1ad7-42eb-93c0-713b454a37cd" x1="265.29" y1="264.56" x2="229.29" y2="285.34"/><line class="faf642d4-b703-42c6-9e07-72b2fba06426" x1="217.3" y1="292.27" x2="157.3" y2="326.9"/><line class="a2d8b219-c3e3-4536-be43-24381212a4d1" x1="145.31" y1="333.83" x2="145.31" y2="333.83"/><line class="a2d8b219-c3e3-4536-be43-24381212a4d1" x1="289.28" y1="250.7" x2="289.28" y2="250.7"/><line class="bab1ce13-8955-4eaf-8f0f-7e2033f9e1c4" x1="265.29" y1="250.7" x2="229.29" y2="250.7"/><line class="e8b19752-c48d-4d0b-892a-e92e1c5660e0" x1="217.3" y1="250.7" x2="13.33" y2="250.7"/><line class="a2d8b219-c3e3-4536-be43-24381212a4d1" x1="1.33" y1="250.7" x2="1.33" y2="250.7"/><line class="a2d8b219-c3e3-4536-be43-24381212a4d1" x1="145.31" y1="333.83" x2="145.31" y2="333.83"/><line class="b16b2840-1ad7-42eb-93c0-713b454a37cd" x1="121.31" y1="319.98" x2="85.32" y2="299.19"/><line class="faf642d4-b703-42c6-9e07-72b2fba06426" x1="73.32" y1="292.27" x2="13.33" y2="257.63"/><line class="a2d8b219-c3e3-4536-be43-24381212a4d1" x1="1.33" y1="250.7" x2="1.33" y2="250.7"/><line class="a2d8b219-c3e3-4536-be43-24381212a4d1" x1="145.31" y1="333.83" x2="145.31" y2="333.83"/><line class="b16b2840-1ad7-42eb-93c0-713b454a37cd" x1="145.31" y1="306.12" x2="145.31" y2="264.56"/><line class="faf642d4-b703-42c6-9e07-72b2fba06426" x1="145.31" y1="250.7" x2="145.31" y2="15.18"/><line class="a2d8b219-c3e3-4536-be43-24381212a4d1" x1="145.31" y1="1.33" x2="145.31" y2="1.33"/><line class="a2d8b219-c3e3-4536-be43-24381212a4d1" x1="289.28" y1="84.45" x2="289.28" y2="84.45"/><line class="b16b2840-1ad7-42eb-93c0-713b454a37cd" x1="265.29" y1="98.31" x2="229.29" y2="119.09"/><line class="faf642d4-b703-42c6-9e07-72b2fba06426" x1="217.3" y1="126.02" x2="13.33" y2="243.78"/><line class="a2d8b219-c3e3-4536-be43-24381212a4d1" x1="1.33" y1="250.7" x2="1.33" y2="250.7"/><line class="a2d8b219-c3e3-4536-be43-24381212a4d1" x1="1.33" y1="84.45" x2="1.33" y2="84.45"/><line class="b16b2840-1ad7-42eb-93c0-713b454a37cd" x1="25.33" y1="98.31" x2="61.32" y2="119.09"/><line class="faf642d4-b703-42c6-9e07-72b2fba06426" x1="73.32" y1="126.02" x2="277.29" y2="243.78"/><line class="a2d8b219-c3e3-4536-be43-24381212a4d1" x1="289.28" y1="250.7" x2="289.28" y2="250.7"/><line class="a2d8b219-c3e3-4536-be43-24381212a4d1" x1="289.28" y1="167.58" x2="289.28" y2="167.58"/><line class="bab1ce13-8955-4eaf-8f0f-7e2033f9e1c4" x1="265.29" y1="167.58" x2="229.29" y2="167.58"/><line class="e8b19752-c48d-4d0b-892a-e92e1c5660e0" x1="217.3" y1="167.58" x2="13.33" y2="167.58"/><line class="a2d8b219-c3e3-4536-be43-24381212a4d1" x1="1.33" y1="167.58" x2="1.33" y2="167.58"/><line class="a2d8b219-c3e3-4536-be43-24381212a4d1" x1="73.32" y1="42.89" x2="73.32" y2="42.89"/><line class="bab1ce13-8955-4eaf-8f0f-7e2033f9e1c4" x1="85.32" y1="63.67" x2="103.31" y2="94.85"/><line class="e8b19752-c48d-4d0b-892a-e92e1c5660e0" x1="109.31" y1="105.24" x2="211.3" y2="281.88"/><line class="a2d8b219-c3e3-4536-be43-24381212a4d1" x1="217.3" y1="292.27" x2="217.3" y2="292.27"/><line class="a2d8b219-c3e3-4536-be43-24381212a4d1" x1="73.32" y1="292.27" x2="73.32" y2="292.27"/><line class="bab1ce13-8955-4eaf-8f0f-7e2033f9e1c4" x1="85.32" y1="271.49" x2="103.31" y2="240.31"/><line class="e8b19752-c48d-4d0b-892a-e92e1c5660e0" x1="109.31" y1="229.92" x2="211.3" y2="53.28"/><line class="a2d8b219-c3e3-4536-be43-24381212a4d1" x1="217.3" y1="42.89" x2="217.3" y2="42.89"/></g></svg>