<svg id="a818505f-92a6-4b57-8e86-93c9bf48db7e" data-name="Layer 1" xmlns="http://www.w3.org/2000/svg" viewBox="0 0 291.26 335.71"><defs><style>.a1bf88aa-3e33-465d-a8b5-6077b5015bbb,.b11935cf-e46c-482a-a299-a0c9aae5f864,.b9429456-71f8-4215-99a4-3c2256edd16b,.bcd1017c-8d99-4f59-9f68-4aac21cb5276,.bff60946-9c7c-46f8-b05a-2c32cb16a61c,.ffe8e09b-57d7-498c-8ed5-1a8d3cc4472d{fill:none;stroke:#000000;;stroke-linecap:round;stroke-linejoin:round;stroke-width:3.99px;}.bcd1017c-8d99-4f59-9f68-4aac21cb5276{stroke-dasharray:0 49.68;}.ffe8e09b-57d7-498c-8ed5-1a8d3cc4472d{stroke-dasharray:0 44.16;}.b9429456-71f8-4215-99a4-3c2256edd16b{stroke-dasharray:44.16 44.16 0 44.16;}.b11935cf-e46c-482a-a299-a0c9aae5f864{stroke-dasharray:0 53.04;}.a1bf88aa-3e33-465d-a8b5-6077b5015bbb{stroke-dasharray:53.04 53.04 0 53.04;}</style></defs><title>29u</title><g id="af229e50-66d6-46f0-8f95-a996720df3bd" data-name="EXTRA"><polyline class="bff60946-9c7c-46f8-b05a-2c32cb16a61c" points="260.48 68.3 289.26 84.92 289.26 118.17"/><line class="bcd1017c-8d99-4f59-9f68-4aac21cb5276" x1="289.26" y1="167.86" x2="289.26" y2="192.69"/><polyline class="bff60946-9c7c-46f8-b05a-2c32cb16a61c" points="289.26 217.53 289.26 250.78 260.48 267.4"/><line class="bcd1017c-8d99-4f59-9f68-4aac21cb5276" x1="217.44" y1="292.25" x2="195.94" y2="304.67"/><polyline class="bff60946-9c7c-46f8-b05a-2c32cb16a61c" points="174.43 317.08 145.63 333.71 116.83 317.08"/><line class="bcd1017c-8d99-4f59-9f68-4aac21cb5276" x1="73.8" y1="292.25" x2="52.29" y2="279.82"/><polyline class="bff60946-9c7c-46f8-b05a-2c32cb16a61c" points="30.79 267.4 2 250.78 2 217.53"/><line class="bcd1017c-8d99-4f59-9f68-4aac21cb5276" x1="2" y1="167.86" x2="2" y2="143.02"/><polyline class="bff60946-9c7c-46f8-b05a-2c32cb16a61c" points="2 118.17 2 84.92 30.79 68.3"/><line class="bcd1017c-8d99-4f59-9f68-4aac21cb5276" x1="73.8" y1="43.45" x2="95.33" y2="31.04"/><polyline class="bff60946-9c7c-46f8-b05a-2c32cb16a61c" points="116.83 18.61 145.63 2 174.43 18.61"/><line class="bcd1017c-8d99-4f59-9f68-4aac21cb5276" x1="217.44" y1="43.45" x2="238.97" y2="55.88"/><line class="bff60946-9c7c-46f8-b05a-2c32cb16a61c" x1="2" y1="167.86" x2="35.25" y2="167.86"/><line class="ffe8e09b-57d7-498c-8ed5-1a8d3cc4472d" x1="79.4" y1="167.86" x2="101.48" y2="167.86"/><line class="b9429456-71f8-4215-99a4-3c2256edd16b" x1="123.55" y1="167.86" x2="233.94" y2="167.86"/><line class="bff60946-9c7c-46f8-b05a-2c32cb16a61c" x1="256.01" y1="167.86" x2="289.26" y2="167.86"/><line class="bff60946-9c7c-46f8-b05a-2c32cb16a61c" x1="217.44" y1="292.25" x2="200.83" y2="263.45"/><line class="ffe8e09b-57d7-498c-8ed5-1a8d3cc4472d" x1="178.75" y1="225.22" x2="167.71" y2="206.1"/><line class="b9429456-71f8-4215-99a4-3c2256edd16b" x1="156.66" y1="186.97" x2="101.48" y2="91.37"/><line class="bff60946-9c7c-46f8-b05a-2c32cb16a61c" x1="90.44" y1="72.26" x2="73.8" y2="43.45"/><line class="bff60946-9c7c-46f8-b05a-2c32cb16a61c" x1="217.44" y1="43.45" x2="200.83" y2="72.26"/><line class="ffe8e09b-57d7-498c-8ed5-1a8d3cc4472d" x1="178.75" y1="110.5" x2="167.71" y2="129.61"/><line class="b9429456-71f8-4215-99a4-3c2256edd16b" x1="156.66" y1="148.74" x2="101.48" y2="244.33"/><line class="bff60946-9c7c-46f8-b05a-2c32cb16a61c" x1="90.44" y1="263.45" x2="73.8" y2="292.25"/><line class="bff60946-9c7c-46f8-b05a-2c32cb16a61c" x1="145.63" y1="333.72" x2="145.63" y2="300.47"/><line class="b11935cf-e46c-482a-a299-a0c9aae5f864" x1="145.63" y1="247.41" x2="145.63" y2="220.89"/><line class="a1bf88aa-3e33-465d-a8b5-6077b5015bbb" x1="145.63" y1="194.38" x2="145.63" y2="61.77"/><line class="bff60946-9c7c-46f8-b05a-2c32cb16a61c" x1="145.63" y1="35.25" x2="145.63" y2="2"/><line class="bff60946-9c7c-46f8-b05a-2c32cb16a61c" x1="289.26" y1="84.93" x2="260.48" y2="101.55"/><line class="b11935cf-e46c-482a-a299-a0c9aae5f864" x1="214.53" y1="128.07" x2="191.57" y2="141.33"/><line class="a1bf88aa-3e33-465d-a8b5-6077b5015bbb" x1="168.6" y1="154.6" x2="53.75" y2="220.89"/><line class="bff60946-9c7c-46f8-b05a-2c32cb16a61c" x1="30.79" y1="234.16" x2="2" y2="250.78"/><line class="bff60946-9c7c-46f8-b05a-2c32cb16a61c" x1="2" y1="84.93" x2="30.79" y2="101.55"/><line class="b11935cf-e46c-482a-a299-a0c9aae5f864" x1="76.73" y1="128.07" x2="99.69" y2="141.33"/><line class="a1bf88aa-3e33-465d-a8b5-6077b5015bbb" x1="122.66" y1="154.6" x2="237.5" y2="220.89"/><line class="bff60946-9c7c-46f8-b05a-2c32cb16a61c" x1="260.48" y1="234.16" x2="289.26" y2="250.78"/></g></svg>