<svg xmlns="http://www.w3.org/2000/svg" viewBox="0 0 67.08 110"><title>01</title><path d="M1.72,36.52.87,36A35.45,35.45,0,0,1,31,19.45v1A34.45,34.45,0,0,0,1.72,36.52Z"/><path d="M31,90.7A35.45,35.45,0,0,1,.87,74.16l.85-.54A34.43,34.43,0,0,0,31,89.7Z"/><path d="M58.06,57.48a.6.6,0,1,1,.08-1.2.6.6,0,1,1-.08,1.2Z"/><path d="M57.74,59.87a.61.61,0,0,1-.49-.69.6.6,0,0,1,1.19.19A.61.61,0,0,1,57.74,59.87Z"/><path d="M57.22,62.22a.6.6,0,0,1-.43-.73.6.6,0,1,1,1.16.29A.6.6,0,0,1,57.22,62.22Z"/><path d="M56.48,64.51a.6.6,0,0,1,.4-1.14.6.6,0,0,1-.4,1.14Z"/><path d="M55.55,66.73a.6.6,0,0,1,.49-1.1.6.6,0,1,1-.49,1.1Z"/><path d="M54.42,68.85A.6.6,0,0,1,54.2,68,.61.61,0,0,1,55,67.8a.6.6,0,0,1,.23.83A.59.59,0,0,1,54.42,68.85Z"/><path d="M53.11,70.87A.6.6,0,0,1,53,70a.6.6,0,1,1,1,.68A.59.59,0,0,1,53.11,70.87Z"/><path d="M51.63,72.77a.59.59,0,0,1-.08-.84.6.6,0,1,1,.08.84Z"/><path d="M50,74.53a.61.61,0,0,1,0-.85.6.6,0,0,1,.84,0,.6.6,0,0,1-.84.86Z"/><path d="M48.19,76.13a.6.6,0,1,1,.85.07A.59.59,0,0,1,48.19,76.13Z"/><path d="M46.26,77.58a.61.61,0,0,1,.14-.84.61.61,0,0,1,.84.14.6.6,0,1,1-1,.7Z"/><path d="M44.21,78.84a.6.6,0,0,1,1-.61.6.6,0,1,1-1,.61Z"/><path d="M42.06,79.92a.6.6,0,0,1,1.09-.51.6.6,0,0,1-1.09.51Z"/><path d="M39.82,80.81A.6.6,0,0,1,41,80.39a.6.6,0,0,1-.35.78A.61.61,0,0,1,39.82,80.81Z"/><path d="M37.51,81.49a.61.61,0,0,1,.43-.73.6.6,0,1,1-.43.73Z"/><path d="M35.15,82a.6.6,0,1,1,.7.5A.61.61,0,0,1,35.15,82Z"/><path d="M32.76,82.22a.6.6,0,0,1,.55-.64.61.61,0,0,1,.65.54.6.6,0,1,1-1.2.1Z"/><path d="M30.35,82.28a.61.61,0,0,1,1.21,0,.62.62,0,0,1-.61.61A.6.6,0,0,1,30.35,82.28Z"/><path d="M28,82.12a.6.6,0,0,1,1.2.1.6.6,0,1,1-1.2-.1Z"/><path d="M25.57,81.75a.61.61,0,0,1,.7-.48.62.62,0,0,1,.49.69.61.61,0,0,1-.7.5A.6.6,0,0,1,25.57,81.75Z"/><path d="M23.23,81.17a.61.61,0,0,1,.74-.41.62.62,0,0,1,.43.73.6.6,0,0,1-.74.43A.61.61,0,0,1,23.23,81.17Z"/><path d="M21,80.39a.6.6,0,0,1,.77-.35.6.6,0,1,1-.42,1.13A.59.59,0,0,1,21,80.39Z"/><path d="M18.76,79.41a.6.6,0,0,1,.8-.28.61.61,0,0,1,.29.79.6.6,0,0,1-.81.29A.59.59,0,0,1,18.76,79.41Z"/><path d="M16.66,78.23a.6.6,0,0,1,1,.61.6.6,0,0,1-.83.22A.6.6,0,0,1,16.66,78.23Z"/><path d="M14.67,76.88a.6.6,0,0,1,.83-.14.61.61,0,0,1,.15.84.6.6,0,0,1-1-.7Z"/><path d="M12.81,75.35a.6.6,0,0,1,.91.78.6.6,0,1,1-.91-.78Z"/><path d="M11.09,73.67a.6.6,0,0,1,.84,0,.6.6,0,1,1-.86.84A.58.58,0,0,1,11.09,73.67Z"/><path d="M9.52,71.84a.6.6,0,1,1-.09.85A.59.59,0,0,1,9.52,71.84Z"/><path d="M8.12,69.88A.6.6,0,0,1,9,70a.61.61,0,0,1-.15.83A.59.59,0,0,1,8,70.72.6.6,0,0,1,8.12,69.88Z"/><path d="M6.9,67.8a.61.61,0,0,1,.81.24.6.6,0,0,1-1,.59A.62.62,0,0,1,6.9,67.8Z"/><path d="M5.87,65.63a.59.59,0,0,1,.78.31.6.6,0,1,1-.78-.31Z"/><path d="M5,63.37a.6.6,0,0,1,.39,1.14.6.6,0,0,1-.77-.37A.61.61,0,0,1,5,63.37Z"/><path d="M4.4,61.05a.6.6,0,1,1-.44.73A.6.6,0,0,1,4.4,61.05Z"/><path d="M4,58.68a.6.6,0,0,1,.68.5.61.61,0,0,1-.5.69.6.6,0,0,1-.69-.51A.59.59,0,0,1,4,58.68Z"/><path d="M3.77,56.28a.6.6,0,0,1,.08,1.2.6.6,0,0,1-.08-1.2Z"/><path d="M3.77,53.87a.61.61,0,0,1,.58.62.6.6,0,0,1-.61.58.59.59,0,0,1-.59-.61A.6.6,0,0,1,3.77,53.87Z"/><path d="M4,51.47a.62.62,0,0,1,.53.67.61.61,0,0,1-.66.53A.6.6,0,1,1,4,51.47Z"/><path d="M4.4,49.1a.6.6,0,0,1-.24,1.18A.6.6,0,1,1,4.4,49.1Z"/><path d="M5,46.78a.6.6,0,0,1-.34,1.15.59.59,0,0,1-.41-.75A.6.6,0,0,1,5,46.78Z"/><path d="M5.87,44.52a.6.6,0,0,1-.45,1.12.6.6,0,1,1,.45-1.12Z"/><path d="M6.9,42.35a.6.6,0,0,1-.54,1.07.6.6,0,1,1,.54-1.07Z"/><path d="M8.12,40.27a.61.61,0,0,1,.19.83.62.62,0,0,1-.82.2.6.6,0,0,1-.2-.84A.59.59,0,0,1,8.12,40.27Z"/><path d="M9.52,38.31a.6.6,0,1,1-.85.12A.6.6,0,0,1,9.52,38.31Z"/><path d="M11.09,36.48a.61.61,0,0,1-.81.9.59.59,0,0,1,0-.85A.61.61,0,0,1,11.09,36.48Z"/><path d="M12.81,34.8a.6.6,0,0,1-.88.82.59.59,0,0,1,0-.85A.6.6,0,0,1,12.81,34.8Z"/><path d="M14.67,33.27a.6.6,0,0,1-.11.84.61.61,0,0,1-.84-.09.6.6,0,0,1,.1-.85A.6.6,0,0,1,14.67,33.27Z"/><path d="M16.66,31.92a.6.6,0,0,1-1,.65.59.59,0,0,1,.17-.83A.6.6,0,0,1,16.66,31.92Z"/><path d="M18.76,30.74a.61.61,0,0,1-.25.81.6.6,0,0,1-.81-.24.59.59,0,0,1,.24-.82A.6.6,0,0,1,18.76,30.74Z"/><path d="M21,29.76a.61.61,0,0,1-.33.78.6.6,0,1,1-.46-1.11A.61.61,0,0,1,21,29.76Z"/><path d="M23.23,29a.6.6,0,0,1-.39.75.62.62,0,0,1-.75-.39.59.59,0,0,1,.39-.76A.59.59,0,0,1,23.23,29Z"/><path d="M25.57,28.4a.6.6,0,0,1-1.17.26.6.6,0,1,1,1.17-.26Z"/><path d="M28,28a.6.6,0,0,1-1.19.16A.6.6,0,1,1,28,28Z"/><path d="M30.35,27.87a.6.6,0,1,1-.63-.58A.59.59,0,0,1,30.35,27.87Z"/><path d="M32.76,27.93a.6.6,0,0,1-1.2-.06.59.59,0,0,1,.62-.58A.6.6,0,0,1,32.76,27.93Z"/><path d="M35.15,28.19A.6.6,0,0,1,34,28a.6.6,0,1,1,1.19.16Z"/><path d="M37.51,28.66a.6.6,0,0,1-1.17-.26.58.58,0,0,1,.72-.46A.59.59,0,0,1,37.51,28.66Z"/><path d="M39.82,29.34A.6.6,0,0,1,38.67,29a.6.6,0,1,1,1.15.36Z"/><path d="M42.06,30.23A.6.6,0,0,1,41,29.76a.6.6,0,1,1,1.11.47Z"/><path d="M44.21,31.31a.6.6,0,0,1-.81.24.61.61,0,0,1-.25-.81.6.6,0,1,1,1.06.57Z"/><path d="M46.26,32.57a.6.6,0,0,1-1-.65.6.6,0,0,1,1,.65Z"/><path d="M48.19,34a.61.61,0,0,1-.84.09.6.6,0,1,1,.84-.09Z"/><path d="M50,35.62a.6.6,0,0,1-.88-.82.6.6,0,0,1,.86,0A.59.59,0,0,1,50,35.62Z"/><path d="M51.63,37.38a.61.61,0,0,1-.81-.9.61.61,0,1,1,.81.9Z"/><path d="M53.11,39.28a.6.6,0,0,1-.72-1,.6.6,0,1,1,.72,1Z"/><path d="M54.42,41.3a.6.6,0,0,1-.63-1,.59.59,0,0,1,.83.19A.6.6,0,0,1,54.42,41.3Z"/><path d="M55.55,43.42a.6.6,0,0,1-.8-.27.6.6,0,1,1,.8.27Z"/><path d="M56.48,45.64A.6.6,0,0,1,56,44.52a.6.6,0,0,1,.79.34A.59.59,0,0,1,56.48,45.64Z"/><path d="M57.22,47.93a.6.6,0,1,1,.41-.74A.58.58,0,0,1,57.22,47.93Z"/><path d="M57.74,50.28a.6.6,0,0,1-.7-.47.61.61,0,0,1,.47-.71.6.6,0,1,1,.23,1.18Z"/><path d="M58.06,52.67a.61.61,0,0,1-.66-.53.62.62,0,0,1,.53-.67.61.61,0,0,1,.67.54A.6.6,0,0,1,58.06,52.67Z"/><path d="M58.17,55.08a.61.61,0,0,1-.61-.59.6.6,0,1,1,.61.59Z"/><path d="M31,108.49c-.22-6.1-.32-12.19-.48-18.29a.47.47,0,0,1,.45-.48h0A34.94,34.94,0,0,0,55.18,79.3a34.56,34.56,0,0,0,0-48.44A34.8,34.8,0,0,0,31,20.46v-1h0l-.51.52.23-10c.08-3.32.17-6.65.28-10,.12,3.32.21,6.65.29,10l.23,10a.5.5,0,0,1-.49.51h0a.52.52,0,1,1,0-1h0A35.55,35.55,0,0,1,64.31,41.26a35.71,35.71,0,0,1-7.9,39.27A35.31,35.31,0,0,1,31,90.68l.48-.48C31.27,96.3,31.17,102.39,31,108.49Z"/><path d="M32.46,108.49A1.51,1.51,0,1,1,31,107,1.51,1.51,0,0,1,32.46,108.49Z"/><path d="M2.59,35.85a1.3,1.3,0,1,1-1.3-1.29A1.3,1.3,0,0,1,2.59,35.85Z"/><path d="M2.59,74.15a1.3,1.3,0,1,1-1.3-1.29A1.3,1.3,0,0,1,2.59,74.15Z"/></svg>