<svg xmlns="http://www.w3.org/2000/svg" viewBox="0 0 72.71 123.75"><title>40</title><polygon points="69.14 56.82 54.23 46.46 69.69 55.98 69.14 56.82"/><path d="M36.35,27.25l9,5.77,9,5.81q9,5.79,18,11.67a.6.6,0,0,1,.21.76h0l-8.78,18L55,87.27,37.25,123.19a1,1,0,0,1-1.34.46,1.05,1.05,0,0,1-.45-.46L17.69,87.27c-3-6-5.94-12-8.85-18l-8.77-18h0a.59.59,0,0,1,.21-.76q9-5.88,18-11.67c6-3.87,12-7.75,18.07-11.58-5.87,4.09-11.77,8.12-17.68,12.17S6.87,47.5.94,51.5l.2-.77,9.1,17.86c3,5.94,6,11.92,9,17.89l18,35.82H35.46l18-35.82,9-17.89,9.1-17.86.2.77Q62.88,45.5,54,39.42l-8.85-6.07Z"/><polygon points="3.02 55.98 18.48 46.46 3.57 56.82 3.02 55.98"/><path d="M21.29,87.68a.6.6,0,1,1-.6-.6A.6.6,0,0,1,21.29,87.68Z"/><path d="M23.7,87.68a.6.6,0,1,1-.6-.6A.6.6,0,0,1,23.7,87.68Z"/><path d="M26.11,87.68a.6.6,0,1,1-.6-.6A.6.6,0,0,1,26.11,87.68Z"/><path d="M28.52,87.68a.6.6,0,1,1-.6-.6A.6.6,0,0,1,28.52,87.68Z"/><path d="M30.93,87.68a.6.6,0,1,1-.6-.6A.6.6,0,0,1,30.93,87.68Z"/><path d="M33.34,87.68a.6.6,0,1,1-.6-.6A.6.6,0,0,1,33.34,87.68Z"/><path d="M35.75,87.68a.6.6,0,1,1-.6-.6A.6.6,0,0,1,35.75,87.68Z"/><path d="M38.16,87.68a.6.6,0,1,1-.6-.6A.6.6,0,0,1,38.16,87.68Z"/><path d="M40.57,87.68a.6.6,0,1,1-.6-.6A.6.6,0,0,1,40.57,87.68Z"/><path d="M43,87.68a.6.6,0,1,1-.6-.6A.6.6,0,0,1,43,87.68Z"/><path d="M45.39,87.68a.6.6,0,1,1-.6-.6A.6.6,0,0,1,45.39,87.68Z"/><path d="M47.8,87.68a.6.6,0,1,1-.6-.6A.6.6,0,0,1,47.8,87.68Z"/><path d="M50.21,87.68a.6.6,0,1,1-.6-.6A.6.6,0,0,1,50.21,87.68Z"/><path d="M52.62,87.68a.6.6,0,1,1-.6-.6A.6.6,0,0,1,52.62,87.68Z"/><path d="M14.59,41.92A25.68,25.68,0,0,1,9.66,28.67,26.28,26.28,0,0,1,12.47,14.6a26.83,26.83,0,0,1,47.69-.17,26.35,26.35,0,0,1,2.9,14.05,25.78,25.78,0,0,1-4.84,13.3,26.55,26.55,0,0,0,.56-26.61A25.83,25.83,0,0,0,49.29,5.5a25.65,25.65,0,0,0-26,.09,25.86,25.86,0,0,0-9.43,9.74A26.52,26.52,0,0,0,14.59,41.92Z"/><path d="M56.81,43.71a.6.6,0,0,1,.72-1,.6.6,0,0,1,.12.85A.59.59,0,0,1,56.81,43.71Z"/><path d="M55.22,45.5a.6.6,0,1,1,.85,0A.59.59,0,0,1,55.22,45.5Z"/><path d="M53.48,47.14a.6.6,0,0,1,0-.84.62.62,0,0,1,.85,0,.6.6,0,0,1,0,.85A.58.58,0,0,1,53.48,47.14Z"/><path d="M51.59,48.62a.6.6,0,1,1,.85.13A.6.6,0,0,1,51.59,48.62Z"/><path d="M49.58,49.92a.6.6,0,0,1,1-.63.6.6,0,1,1-1,.63Z"/><path d="M47.46,51a.62.62,0,0,1,.28-.8.61.61,0,0,1,.8.26.6.6,0,1,1-1.08.54Z"/><path d="M45.25,52a.6.6,0,0,1,.34-.77.61.61,0,0,1,.78.34.6.6,0,1,1-1.12.43Z"/><path d="M43,52.66a.62.62,0,0,1,.42-.74.6.6,0,0,1,.73.41.6.6,0,1,1-1.15.33Z"/><path d="M40.62,53.15a.6.6,0,0,1,.48-.69.58.58,0,0,1,.69.47.6.6,0,1,1-1.17.22Z"/><path d="M38.24,53.43a.6.6,0,1,1,1.19-.11.6.6,0,1,1-1.19.11Z"/><path d="M35.85,53.49a.59.59,0,0,1,.59-.59.6.6,0,1,1-.59.59Z"/><path d="M33.46,53.34a.59.59,0,0,1,.64-.54.6.6,0,0,1,.55.64A.59.59,0,0,1,34,54,.58.58,0,0,1,33.46,53.34Z"/><path d="M31.09,53a.6.6,0,0,1,1.18.21A.6.6,0,1,1,31.09,53Z"/><path d="M28.77,52.38a.6.6,0,0,1,1.15.32.6.6,0,1,1-1.15-.32Z"/><path d="M26.51,51.59a.6.6,0,0,1,1.12.42.6.6,0,1,1-1.12-.42Z"/><path d="M24.33,50.59a.6.6,0,0,1,.8-.27.6.6,0,0,1,.28.79.6.6,0,1,1-1.08-.52Z"/><path d="M22.26,49.39a.6.6,0,0,1,1,.62.6.6,0,1,1-1-.62Z"/><path d="M20.3,48a.6.6,0,0,1,1,.72.59.59,0,0,1-.84.13A.61.61,0,0,1,20.3,48Z"/><path d="M18.47,46.46a.62.62,0,0,1,.85,0,.61.61,0,0,1,.05.84.59.59,0,0,1-.85.06A.61.61,0,0,1,18.47,46.46Z"/><path d="M16.8,44.75a.6.6,0,0,1,.84,0,.6.6,0,1,1-.84,0Z"/><path d="M15.28,42.9a.6.6,0,1,1-.11.85A.6.6,0,0,1,15.28,42.9Z"/><path d="M53.82,87.67A20.19,20.19,0,0,1,57,97.93a20.53,20.53,0,0,1-10.12,18.34,20.63,20.63,0,0,1-21.06,0A20.48,20.48,0,0,1,15.7,97.93a20.17,20.17,0,0,1,3.18-10.25,20.38,20.38,0,0,0,7.41,27.81,20.26,20.26,0,0,0,20.14,0,20.41,20.41,0,0,0,7.39-27.82Z"/></svg>