<svg xmlns="http://www.w3.org/2000/svg" viewBox="0 0 62.71 88.79"><title>13</title><path d="M31.35,88.79,4.3,62.08l.14-.31L31.35,0,58.41,62.08l-.25.24ZM5.49,61.85,31.35,87.38,57.22,61.85,31.35,2.5Z"/><path d="M4.9,62.47a.45.45,0,0,1-.25-.07.51.51,0,0,1-.19-.68l.25-.43a.49.49,0,0,1,.68-.19.5.5,0,0,1,.19.68l-.25.44A.5.5,0,0,1,4.9,62.47Z"/><path d="M6.12,60.33a.51.51,0,0,1-.24-.07.5.5,0,0,1-.19-.68l.49-.86a.5.5,0,0,1,.87.5l-.49.86A.5.5,0,0,1,6.12,60.33Zm1.47-2.57a.5.5,0,0,1-.24-.06A.51.51,0,0,1,7.16,57l.49-.85a.5.5,0,0,1,.87.5L8,57.51A.5.5,0,0,1,7.59,57.76ZM9.06,55.2a.5.5,0,0,1-.24-.06.51.51,0,0,1-.19-.69l.49-.85a.5.5,0,1,1,.87.5L9.5,55A.5.5,0,0,1,9.06,55.2Zm1.47-2.56a.47.47,0,0,1-.25-.07.49.49,0,0,1-.18-.68l.49-.85a.5.5,0,0,1,.68-.19.52.52,0,0,1,.19.69l-.49.85A.51.51,0,0,1,10.53,52.64ZM12,50.08a.47.47,0,0,1-.25-.07.49.49,0,0,1-.18-.68l.49-.86a.49.49,0,0,1,.68-.18.51.51,0,0,1,.19.68l-.49.86A.51.51,0,0,1,12,50.08Zm1.47-2.56a.59.59,0,0,1-.25-.07.49.49,0,0,1-.18-.68l.49-.86a.49.49,0,0,1,.68-.18.5.5,0,0,1,.19.68l-.49.85A.51.51,0,0,1,13.47,47.52ZM14.94,45a.57.57,0,0,1-.25-.06.51.51,0,0,1-.18-.69l.49-.85a.5.5,0,1,1,.86.5l-.48.85A.52.52,0,0,1,14.94,45Zm1.47-2.56a.57.57,0,0,1-.25-.06.51.51,0,0,1-.18-.69l.49-.85a.5.5,0,1,1,.86.5l-.49.85A.5.5,0,0,1,16.41,42.39Zm1.47-2.56a.47.47,0,0,1-.25-.07.49.49,0,0,1-.18-.68l.49-.85a.49.49,0,1,1,.86.49l-.49.86A.5.5,0,0,1,17.88,39.83Zm1.47-2.56a.45.45,0,0,1-.25-.07.49.49,0,0,1-.18-.68l.49-.86a.5.5,0,1,1,.86.5l-.49.86A.5.5,0,0,1,19.35,37.27Zm1.47-2.56a.55.55,0,0,1-.25-.07.49.49,0,0,1-.18-.68l.49-.86a.5.5,0,1,1,.86.5l-.49.85A.49.49,0,0,1,20.82,34.71Zm1.47-2.57a.54.54,0,0,1-.25-.06.52.52,0,0,1-.19-.69l.49-.85a.52.52,0,0,1,.69-.19.51.51,0,0,1,.18.69l-.49.85A.5.5,0,0,1,22.29,32.14Zm1.47-2.56a.45.45,0,0,1-.25-.07.5.5,0,0,1-.19-.68l.49-.85a.52.52,0,0,1,.69-.19.51.51,0,0,1,.18.69l-.49.85A.5.5,0,0,1,23.76,29.58ZM25.23,27A.45.45,0,0,1,25,27a.5.5,0,0,1-.19-.68l.49-.85a.5.5,0,0,1,.69-.19.49.49,0,0,1,.18.68l-.49.86A.5.5,0,0,1,25.23,27Zm1.47-2.56a.55.55,0,0,1-.25-.07.51.51,0,0,1-.19-.68l.49-.86a.5.5,0,0,1,.87.5l-.49.86A.5.5,0,0,1,26.7,24.46Zm1.47-2.57a.54.54,0,0,1-.25-.06.51.51,0,0,1-.19-.69l.49-.85a.5.5,0,0,1,.87.5l-.49.85A.5.5,0,0,1,28.17,21.89Zm1.46-2.56a.5.5,0,0,1-.24-.06.51.51,0,0,1-.19-.69l.49-.85a.5.5,0,1,1,.87.5l-.49.85A.5.5,0,0,1,29.63,19.33Z"/><path d="M31.6,16.77a.47.47,0,0,1-.25-.07.48.48,0,0,1-.49,0,.49.49,0,0,1-.19-.68l.68-1.19L32,16a.5.5,0,0,1-.19.68A.45.45,0,0,1,31.6,16.77Z"/><path d="M56.58,60.33a.5.5,0,0,1-.43-.25l-.49-.86a.49.49,0,0,1,.18-.68.51.51,0,0,1,.69.18l.49.86a.51.51,0,0,1-.19.68A.55.55,0,0,1,56.58,60.33Zm-1.47-2.57a.5.5,0,0,1-.43-.25l-.49-.85a.49.49,0,0,1,.18-.68.51.51,0,0,1,.69.18l.49.85a.52.52,0,0,1-.19.69A.54.54,0,0,1,55.11,57.76ZM53.64,55.2a.5.5,0,0,1-.43-.25l-.49-.85a.51.51,0,0,1,.18-.69.52.52,0,0,1,.69.19l.49.85a.5.5,0,0,1-.19.68A.45.45,0,0,1,53.64,55.2Zm-1.47-2.56a.5.5,0,0,1-.43-.25l-.49-.86a.5.5,0,1,1,.87-.49l.49.85a.49.49,0,0,1-.19.68A.45.45,0,0,1,52.17,52.64Zm-1.46-2.56a.5.5,0,0,1-.44-.25L49.78,49a.5.5,0,0,1,.87-.5l.49.86A.5.5,0,0,1,51,50,.44.44,0,0,1,50.71,50.08Zm-1.47-2.56a.49.49,0,0,1-.44-.26l-.49-.85a.5.5,0,0,1,.87-.5l.49.86a.5.5,0,0,1-.19.68A.51.51,0,0,1,49.24,47.52ZM47.77,45a.5.5,0,0,1-.44-.25l-.49-.85a.5.5,0,0,1,.87-.5l.49.85a.51.51,0,0,1-.19.69A.5.5,0,0,1,47.77,45ZM46.3,42.39a.51.51,0,0,1-.44-.25l-.49-.85a.52.52,0,0,1,.19-.69.51.51,0,0,1,.68.19l.49.85a.5.5,0,0,1-.18.68A.47.47,0,0,1,46.3,42.39Zm-1.47-2.56a.51.51,0,0,1-.44-.25l-.49-.86a.51.51,0,0,1,.19-.68.5.5,0,0,1,.68.19l.49.85a.49.49,0,0,1-.18.68A.47.47,0,0,1,44.83,39.83Zm-1.47-2.56a.51.51,0,0,1-.44-.25l-.49-.86a.51.51,0,0,1,.19-.68.49.49,0,0,1,.68.18l.49.86a.49.49,0,0,1-.18.68A.47.47,0,0,1,43.36,37.27ZM41.89,34.7a.52.52,0,0,1-.44-.25L41,33.6a.5.5,0,0,1,.19-.68.49.49,0,0,1,.68.18l.49.86a.5.5,0,0,1-.18.68A.57.57,0,0,1,41.89,34.7Zm-1.47-2.56a.5.5,0,0,1-.43-.25L39.5,31a.5.5,0,1,1,.86-.5l.49.85a.51.51,0,0,1-.18.69A.57.57,0,0,1,40.42,32.14ZM39,29.58a.5.5,0,0,1-.43-.25L38,28.48a.5.5,0,1,1,.86-.5l.49.85a.49.49,0,0,1-.18.68A.47.47,0,0,1,39,29.58ZM37.48,27a.5.5,0,0,1-.43-.25l-.49-.86a.49.49,0,0,1,.18-.68.49.49,0,0,1,.68.19l.49.85a.49.49,0,0,1-.18.68A.47.47,0,0,1,37.48,27ZM36,24.46a.5.5,0,0,1-.43-.25l-.49-.86a.5.5,0,0,1,.86-.5l.49.86a.49.49,0,0,1-.18.68A.55.55,0,0,1,36,24.46Zm-1.47-2.57a.5.5,0,0,1-.43-.25l-.49-.85a.5.5,0,0,1,.86-.5l.49.85a.51.51,0,0,1-.18.69A.54.54,0,0,1,34.54,21.89Zm-1.47-2.56a.5.5,0,0,1-.43-.25l-.49-.85a.51.51,0,0,1,.18-.69.52.52,0,0,1,.69.19l.49.85a.52.52,0,0,1-.19.69A.54.54,0,0,1,33.07,19.33Z"/><path d="M57.81,62.47a.5.5,0,0,1-.43-.25l-.25-.44a.49.49,0,0,1,.18-.68.5.5,0,0,1,.69.19l.24.43a.49.49,0,0,1-.18.68A.45.45,0,0,1,57.81,62.47Z"/><path d="M31.35,77.54A31.35,31.35,0,1,1,62.71,46.19,31.38,31.38,0,0,1,31.35,77.54Zm0-60.7A29.35,29.35,0,1,0,60.71,46.19,29.38,29.38,0,0,0,31.35,16.84Z"/></svg>