<svg xmlns="http://www.w3.org/2000/svg" viewBox="0 0 57 87.81"><title>32</title><polygon points="28.61 87.81 20.96 81.01 21.92 79.94 28.61 85.9 35.3 79.94 36.25 81.01 28.61 87.81"/><polygon points="18.45 23.62 17.69 23.26 28.61 0 39.53 23.26 38.77 23.62 28.61 1.98 18.45 23.62"/><polygon points="57 60.95 52.7 60.95 28.61 9.63 4.51 60.95 0 60.95 0 59.51 3.6 59.51 28.61 6.26 53.61 59.51 57 59.51 57 60.95"/><polygon points="28.61 82.64 17.4 72.66 17.96 72.03 28.61 81.51 39.27 72.03 39.82 72.66 28.61 82.64"/><polygon points="28.61 77.86 8.2 59.69 11.01 53.7 11.78 54.05 9.23 59.48 28.61 76.73 48 59.48 45.45 54.05 46.21 53.7 49.03 59.69 28.61 77.86"/></svg>