<svg xmlns="http://www.w3.org/2000/svg" viewBox="0 0 59.87 87.82"><title>20</title><polygon points="33.31 83.79 32 82.89 56.85 46.54 0 46.54 26.89 7.2 28.2 8.1 3.02 44.95 59.87 44.95 33.31 83.79"/><polygon points="18.93 17.14 15.98 17.14 27.69 0 31.77 5.98 31 6.51 27.69 1.66 17.75 16.2 18.93 16.2 18.93 17.14"/><path d="M53,42.93H6.83l23.1-33.8ZM8.6,42H51.27L29.93,10.79Z"/><polygon points="28.61 87.81 18.65 72.37 21.58 72.37 21.58 73.31 20.37 73.31 28.64 86.12 30.23 83.8 31 84.33 28.61 87.81"/><path d="M29.93,82.6,6.83,48.8H53ZM8.6,49.73,29.93,80.94,51.27,49.73Z"/></svg>