<svg xmlns="http://www.w3.org/2000/svg" viewBox="0 0 58.61 97.57"><title>28</title><polygon points="29.38 95.48 21.13 80.12 22.31 79.48 29.38 92.64 36.45 79.48 37.63 80.12 29.38 95.48"/><rect x="40.26" y="0.65" width="0.79" height="47.65" transform="translate(-6.74 22.16) rotate(-28.25)"/><polygon points="7.18 45.64 6.48 45.27 27.24 6.63 27.94 7 7.18 45.64"/><path d="M29.38,88.23,8.18,48.77,29.38,9.32l21.2,39.45ZM9.07,48.77,29.38,86.56l20.3-37.79L29.38,11Z"/><rect x="13.8" y="44.42" width="1.34" height="17.11" transform="translate(-23.35 13.16) rotate(-28.25)"/><rect x="35.73" y="52.3" width="17.12" height="1.34" transform="translate(-23.33 66.92) rotate(-61.75)"/><path d="M57.1,60.91H1.66L29.38,9.32ZM3,60.12H55.79L29.38,11Z"/><rect x="49.99" y="48.5" width="7.8" height="0.79" transform="translate(-14.7 73.17) rotate(-61.71)"/><rect x="4.48" y="44.99" width="0.79" height="7.8" transform="translate(-22.56 8.13) rotate(-28.25)"/><rect y="44.67" width="58.61" height="1.58"/><rect x="39.84" y="-3.89" width="0.79" height="68.49" transform="translate(-9.57 22.66) rotate(-28.25)"/><rect x="28.71" y="94.06" width="1.34" height="3.51"/></svg>