<svg xmlns="http://www.w3.org/2000/svg" viewBox="0 0 496 483.61"><path d="M244.8,0C106.1,0,0,105.3,0,244,0,354.9,69.8,449.8,169.5,483.2c12.8,2.3,17.3-5.6,17.3-12.1,0-6.2-.3-40.4-.3-61.4,0,0-70,15-84.7-29.8,0,0-11.4-29.1-27.8-36.6,0,0-22.9-15.7,1.6-15.4,0,0,24.9,2,38.6,25.8,21.9,38.6,58.6,27.5,72.9,20.9,2.3-16,8.8-27.1,16-33.7-55.9-6.2-112.3-14.3-112.3-110.5,0-27.5,7.6-41.3,23.6-58.9-2.6-6.5-11.1-33.3,2.6-67.9,20.9-6.5,69,27,69,27a236.24,236.24,0,0,1,125.6,0s48.1-33.6,69-27c13.7,34.7,5.2,61.4,2.6,67.9,16,17.7,25.8,31.5,25.8,58.9,0,96.5-58.9,104.2-114.8,110.5,9.2,7.9,17,22.9,17,46.4,0,33.7-.3,75.4-.3,83.6,0,6.5,4.6,14.4,17.3,12.1C428.2,449.8,496,354.9,496,244,496,105.3,383.5,0,244.8,0Z"/></svg>