<svg xmlns="http://www.w3.org/2000/svg" viewBox="0 0 52.89 87.82"><title>01</title><path d="M52.89,44.2a.53.53,0,0,1-.52.52.52.52,0,0,1-.52-.52.52.52,0,0,1,.52-.52A.52.52,0,0,1,52.89,44.2Z"/><path d="M1,44.2a.52.52,0,0,1-.52.52A.52.52,0,0,1,0,44.2a.52.52,0,0,1,.52-.52A.52.52,0,0,1,1,44.2Z"/><path d="M27,.52A.52.52,0,0,1,26.5,1,.52.52,0,0,1,26,.52.52.52,0,0,1,26.5,0,.52.52,0,0,1,27,.52Z"/><rect x="11.35" y="68.59" width="30.29" height="1.47"/><rect x="7.87" y="62.75" width="36.59" height="0.87"/><rect x="14.41" y="71.56" width="24.18" height="0.87"/><path d="M51.64,45.23a.51.51,0,0,1,.17.7A.51.51,0,1,1,51,45.4.5.5,0,0,1,51.64,45.23Z"/><path d="M51.25,42.18a.51.51,0,0,1,.7.17.51.51,0,1,1-.87.52A.5.5,0,0,1,51.25,42.18Z"/><path d="M50.3,40.59a.5.5,0,0,1,.69.17.51.51,0,0,1-.17.7.51.51,0,1,1-.52-.87Z"/><path d="M49.34,39a.5.5,0,1,1,.52.86.49.49,0,0,1-.69-.17A.5.5,0,0,1,49.34,39Z"/><path d="M48.39,37.42a.49.49,0,0,1,.69.17.51.51,0,0,1-.17.7.52.52,0,0,1-.7-.18A.51.51,0,0,1,48.39,37.42Z"/><path d="M47.43,35.83a.53.53,0,0,1,.7.17.52.52,0,0,1-.18.7.5.5,0,0,1-.69-.17A.51.51,0,0,1,47.43,35.83Z"/><path d="M46.48,34.25a.5.5,0,0,1,.69.17.5.5,0,0,1-.17.69.5.5,0,1,1-.52-.86Z"/><path d="M45.52,32.66a.49.49,0,0,1,.69.17.5.5,0,1,1-.86.52A.49.49,0,0,1,45.52,32.66Z"/><path d="M44.56,31.07a.51.51,0,1,1-.17.7A.52.52,0,0,1,44.56,31.07Z"/><path d="M43.61,29.49a.5.5,0,1,1-.17.69A.49.49,0,0,1,43.61,29.49Z"/><path d="M42.65,27.9a.51.51,0,0,1,.7.17.53.53,0,0,1-.17.7.52.52,0,0,1-.7-.18A.5.5,0,0,1,42.65,27.9Z"/><path d="M41.7,26.31a.51.51,0,0,1,.69.18.5.5,0,0,1-.17.69.51.51,0,1,1-.52-.87Z"/><path d="M40.74,24.73a.5.5,0,1,1,.52.86.5.5,0,1,1-.52-.86Z"/><path d="M39.79,23.14a.5.5,0,0,1,.69.17.51.51,0,1,1-.87.52A.51.51,0,0,1,39.79,23.14Z"/><path d="M38.83,21.55a.51.51,0,0,1,.69.17.51.51,0,1,1-.69-.17Z"/><path d="M37.87,20a.51.51,0,1,1-.17.69A.51.51,0,0,1,37.87,20Z"/><path d="M36.92,18.38a.5.5,0,0,1,.69.17.5.5,0,1,1-.86.52A.5.5,0,0,1,36.92,18.38Z"/><path d="M36,16.79a.51.51,0,1,1,.53.87.51.51,0,1,1-.53-.87Z"/><path d="M35,15.21a.5.5,0,1,1-.17.69A.49.49,0,0,1,35,15.21Z"/><path d="M34.05,13.62a.51.51,0,1,1,.52.87.51.51,0,0,1-.52-.87Z"/><path d="M33.1,12a.51.51,0,0,1,.69.18.5.5,0,0,1-.17.69A.51.51,0,1,1,33.1,12Z"/><path d="M32.14,10.45a.5.5,0,1,1,.52.86.5.5,0,0,1-.52-.86Z"/><path d="M31.19,8.86a.5.5,0,0,1,.69.17.51.51,0,1,1-.87.52A.51.51,0,0,1,31.19,8.86Z"/><path d="M30.23,7.27a.51.51,0,0,1,.69.18.49.49,0,0,1-.17.69A.5.5,0,0,1,30.06,8,.51.51,0,0,1,30.23,7.27Z"/><path d="M29.27,5.69a.51.51,0,0,1,.7.17.5.5,0,0,1-.17.69.51.51,0,0,1-.7-.17A.5.5,0,0,1,29.27,5.69Z"/><path d="M28.32,4.1a.5.5,0,0,1,.69.17.5.5,0,1,1-.86.52A.5.5,0,0,1,28.32,4.1Z"/><path d="M27.36,2.51a.52.52,0,0,1,.7.18.51.51,0,0,1-.17.69.51.51,0,0,1-.7-.17A.52.52,0,0,1,27.36,2.51Z"/><path d="M25.1,3.38a.51.51,0,0,1-.17-.7.53.53,0,0,1,.7-.17.51.51,0,1,1-.53.87Z"/><path d="M24.14,5a.51.51,0,1,1,.53-.87.51.51,0,0,1,.17.69A.52.52,0,0,1,24.14,5Z"/><path d="M23.18,6.55A.5.5,0,0,1,23,5.86a.51.51,0,0,1,.7-.17.5.5,0,0,1,.17.69A.51.51,0,0,1,23.18,6.55Z"/><path d="M22.22,8.14a.51.51,0,0,1-.17-.7.53.53,0,0,1,.7-.17.51.51,0,1,1-.53.87Z"/><path d="M21.26,9.73a.53.53,0,0,1-.17-.7.51.51,0,0,1,.7-.17.51.51,0,0,1,.17.7A.53.53,0,0,1,21.26,9.73Z"/><path d="M20.31,11.31a.5.5,0,1,1,.69-.17A.5.5,0,0,1,20.31,11.31Z"/><path d="M19.35,12.9a.51.51,0,0,1-.18-.69.52.52,0,0,1,.7-.18.51.51,0,0,1-.52.87Z"/><path d="M18.39,14.49a.52.52,0,0,1-.18-.7.51.51,0,0,1,.7-.17.5.5,0,0,1,.17.69A.51.51,0,0,1,18.39,14.49Z"/><path d="M17.43,16.07a.5.5,0,1,1,.52-.86.5.5,0,0,1-.52.86Z"/><path d="M16.47,17.66a.51.51,0,0,1-.17-.7.5.5,0,0,1,.69-.17.51.51,0,0,1,.17.7A.5.5,0,0,1,16.47,17.66Z"/><path d="M15.51,19.25a.51.51,0,0,1-.17-.7.5.5,0,0,1,.86.52A.51.51,0,0,1,15.51,19.25Z"/><path d="M14.55,20.83a.5.5,0,1,1,.69-.17A.49.49,0,0,1,14.55,20.83Z"/><path d="M13.59,22.42a.51.51,0,0,1-.17-.7.5.5,0,0,1,.69-.17.51.51,0,0,1,.17.7A.5.5,0,0,1,13.59,22.42Z"/><path d="M12.63,24a.5.5,0,1,1,.69-.17A.49.49,0,0,1,12.63,24Z"/><path d="M11.67,25.59a.5.5,0,1,1,.69-.17A.49.49,0,0,1,11.67,25.59Z"/><path d="M10.71,27.18a.51.51,0,0,1-.17-.7.5.5,0,0,1,.69-.17.51.51,0,0,1,.17.7A.5.5,0,0,1,10.71,27.18Z"/><path d="M9.75,28.76a.5.5,0,1,1,.69-.17A.49.49,0,0,1,9.75,28.76Z"/><path d="M8.79,30.35a.5.5,0,1,1,.69-.17A.49.49,0,0,1,8.79,30.35Z"/><path d="M7.83,31.94a.51.51,0,0,1,.52-.87.51.51,0,1,1-.52.87Z"/><path d="M6.87,33.52a.5.5,0,0,1-.17-.69.5.5,0,0,1,.69-.17.5.5,0,1,1-.52.86Z"/><path d="M5.91,35.11a.5.5,0,0,1-.17-.69.51.51,0,1,1,.17.69Z"/><path d="M5,36.7a.51.51,0,0,1,.53-.87.53.53,0,0,1,.17.7A.52.52,0,0,1,5,36.7Z"/><path d="M4,38.28a.5.5,0,0,1-.17-.69.51.51,0,1,1,.17.69Z"/><path d="M3,39.87a.5.5,0,0,1-.17-.69.51.51,0,1,1,.87.52A.51.51,0,0,1,3,39.87Z"/><path d="M2.07,41.46a.51.51,0,1,1,.7-.17A.52.52,0,0,1,2.07,41.46Z"/><path d="M1.11,43a.5.5,0,0,1-.17-.69.51.51,0,0,1,.7-.17.5.5,0,0,1,.17.69A.51.51,0,0,1,1.11,43Z"/><path d="M1.79,46.12a.51.51,0,0,1-.7-.17.5.5,0,0,1,.17-.69.51.51,0,0,1,.7.17A.5.5,0,0,1,1.79,46.12Z"/><polygon points="11.53 63.56 1.58 47.05 26.5 5.71 51.41 47.04 41.46 63.56 40.2 62.8 49.69 47.04 26.5 8.56 3.3 47.05 12.79 62.8 11.53 63.56"/><polygon points="31.67 78.39 26.5 86.98 21.32 78.39 31.67 78.39"/><path d="M26.5,87.82,20.56,78H32.44Zm-4.41-9,4.41,7.31,4.4-7.31Z"/><rect x="29.11" y="73.43" width="10.59" height="0.86" transform="translate(-46.63 65.31) rotate(-59)"/><rect x="18.16" y="68.57" width="0.86" height="10.59" transform="matrix(0.86, -0.52, 0.52, 0.86, -35.43, 20.17)"/></svg>