<svg xmlns="http://www.w3.org/2000/svg" viewBox="0 0 44.86 86.7"><title>02</title><path d="M22.43,76.22l-22.1-38,22.1-38L44.52,38.18Zm-21.16-38L22.43,74.61,43.59,38.18,22.43,1.75Z"/><polygon points="22.43 76.57 0 46.35 2.3 41.53 3.54 42.13 1.6 46.2 22.43 74.26 43.26 46.2 41.31 42.12 42.55 41.53 44.86 46.35 22.43 76.57"/><polygon points="3.29 42.01 2.56 41.66 22.43 0 42.3 41.65 41.57 42 22.43 1.88 3.29 42.01"/><path d="M36.35,57.27a.5.5,0,0,1-.24-.68A.51.51,0,1,1,37,57,.51.51,0,0,1,36.35,57.27Z"/><path d="M35.53,59a.5.5,0,0,1-.24-.68.52.52,0,0,1,.68-.24.51.51,0,0,1-.44.92Z"/><path d="M34.71,60.67a.51.51,0,1,1,.68-.24A.5.5,0,0,1,34.71,60.67Z"/><path d="M33.89,62.37a.51.51,0,0,1-.24-.68.53.53,0,0,1,.69-.24.52.52,0,0,1,.24.68A.51.51,0,0,1,33.89,62.37Z"/><path d="M33.08,64.07a.5.5,0,0,1-.24-.68.52.52,0,0,1,.68-.24.53.53,0,0,1,.24.69A.5.5,0,0,1,33.08,64.07Z"/><path d="M32.26,65.77a.5.5,0,0,1-.24-.68.51.51,0,1,1,.92.45A.5.5,0,0,1,32.26,65.77Z"/><path d="M31.44,67.47a.51.51,0,0,1,.44-.92.52.52,0,0,1,.24.69A.5.5,0,0,1,31.44,67.47Z"/><path d="M30.62,69.17a.51.51,0,0,1-.24-.68.53.53,0,0,1,.69-.24.51.51,0,0,1,.23.69A.5.5,0,0,1,30.62,69.17Z"/><path d="M29.8,70.88a.51.51,0,0,1-.23-.69.5.5,0,0,1,.68-.23.51.51,0,0,1,.24.68A.52.52,0,0,1,29.8,70.88Z"/><path d="M29,72.58a.52.52,0,0,1-.24-.69.5.5,0,0,1,.68-.23.51.51,0,0,1-.44.92Z"/><path d="M28.17,74.28a.53.53,0,0,1-.24-.69.51.51,0,0,1,.92.45A.52.52,0,0,1,28.17,74.28Z"/><path d="M27.35,76a.53.53,0,0,1-.24-.69.51.51,0,0,1,.69-.23.5.5,0,0,1,.23.68A.51.51,0,0,1,27.35,76Z"/><path d="M26.54,77.68A.5.5,0,0,1,26.3,77a.5.5,0,0,1,.68-.24.51.51,0,0,1,.24.68A.52.52,0,0,1,26.54,77.68Z"/><path d="M25.72,79.38a.51.51,0,0,1-.24-.68.5.5,0,0,1,.68-.24.5.5,0,0,1,.24.68A.52.52,0,0,1,25.72,79.38Z"/><path d="M24.9,81.08a.52.52,0,0,1-.24-.68.51.51,0,0,1,.92.44A.51.51,0,0,1,24.9,81.08Z"/><path d="M24.08,82.78a.51.51,0,1,1,.45-.92.5.5,0,0,1,.23.68A.51.51,0,0,1,24.08,82.78Z"/><path d="M23.26,84.48a.51.51,0,0,1,.45-.92.52.52,0,0,1,.24.68A.53.53,0,0,1,23.26,84.48Z"/><path d="M21.15,83.56a.51.51,0,1,1,.44.92.52.52,0,0,1-.68-.24A.51.51,0,0,1,21.15,83.56Z"/><path d="M20.33,81.86a.5.5,0,0,1,.68.23.51.51,0,1,1-.91.45A.5.5,0,0,1,20.33,81.86Z"/><path d="M19.52,80.15a.52.52,0,0,1,.68.24.53.53,0,0,1-.24.69.52.52,0,0,1-.68-.24A.51.51,0,0,1,19.52,80.15Z"/><path d="M18.7,78.45a.51.51,0,1,1,.44.92.5.5,0,0,1-.68-.24A.51.51,0,0,1,18.7,78.45Z"/><path d="M17.88,76.75a.52.52,0,0,1,.68.24.51.51,0,0,1-.92.44A.52.52,0,0,1,17.88,76.75Z"/><path d="M17.06,75.05a.52.52,0,0,1,.68.24.51.51,0,1,1-.92.44A.52.52,0,0,1,17.06,75.05Z"/><path d="M16.24,73.35a.51.51,0,0,1,.45.92A.53.53,0,0,1,16,74,.52.52,0,0,1,16.24,73.35Z"/><path d="M15.42,71.65a.51.51,0,1,1,.45.92.51.51,0,0,1-.68-.24A.5.5,0,0,1,15.42,71.65Z"/><path d="M14.61,70a.51.51,0,0,1,.68.24.51.51,0,0,1-.92.44A.5.5,0,0,1,14.61,70Z"/><path d="M13.79,68.25a.5.5,0,0,1,.68.24.51.51,0,0,1-.24.68.51.51,0,1,1-.44-.92Z"/><path d="M13,66.55a.51.51,0,1,1-.24.68A.51.51,0,0,1,13,66.55Z"/><path d="M12.15,64.84a.53.53,0,0,1,.69.24.51.51,0,0,1-.25.68.5.5,0,0,1-.68-.24A.52.52,0,0,1,12.15,64.84Z"/><path d="M11.34,63.14a.52.52,0,0,1,.68.24.51.51,0,0,1-.24.68.5.5,0,0,1-.68-.24A.5.5,0,0,1,11.34,63.14Z"/><path d="M10.52,61.44a.51.51,0,0,1,.44.92.51.51,0,0,1-.44-.92Z"/><path d="M9.7,59.74a.51.51,0,1,1,.44.92.52.52,0,0,1-.68-.24A.51.51,0,0,1,9.7,59.74Z"/><path d="M8.88,58a.51.51,0,0,1,.44.92A.51.51,0,0,1,8.88,58Z"/><path d="M8.06,56.34a.5.5,0,0,1,.68.24.5.5,0,0,1-.24.68A.52.52,0,0,1,7.82,57,.51.51,0,0,1,8.06,56.34Z"/><path d="M24.67,65a2.24,2.24,0,1,1-2.24-2.24A2.24,2.24,0,0,1,24.67,65Z"/><path d="M22.92,86.22a.49.49,0,1,1-.49-.49A.49.49,0,0,1,22.92,86.22Z"/></svg>