<svg xmlns="http://www.w3.org/2000/svg" viewBox="0 0 63.21 97.92"><title>01</title><path d="M31.61,75.22,11.67,37.38l.13-.24L31.61,0,51.54,37.38ZM12.8,37.38,31.61,73.07l18.8-35.69L31.61,2.13Z"/><path d="M31.61,97.92,14,66.31l6.44-12.18a1,1,0,0,1,1.36-.42,1,1,0,0,1,.41,1.35L16.25,66.28,31.61,93.82,47,66.28,41,55.06a1,1,0,0,1,.41-1.35,1,1,0,0,1,1.36.42l6.44,12.18Z"/><path d="M34,82.65a2.36,2.36,0,1,1-2.35-2.35A2.36,2.36,0,0,1,34,82.65Z"/><path d="M44.92,60.79a.49.49,0,0,1-.45-.28.5.5,0,0,1,.24-.67l.44-.21a.5.5,0,1,1,.44.9l-.45.22A.57.57,0,0,1,44.92,60.79Z"/><path d="M47.13,59.63a.5.5,0,0,1-.25-.93c.29-.16.57-.33.85-.5a.48.48,0,0,1,.68.16.49.49,0,0,1-.16.69l-.87.52A.54.54,0,0,1,47.13,59.63ZM16,59.59a.47.47,0,0,1-.25-.07L14.88,59a.51.51,0,0,1-.16-.69.5.5,0,0,1,.69-.16l.84.51a.5.5,0,0,1-.25.93ZM49.65,58a.48.48,0,0,1-.4-.21.5.5,0,0,1,.11-.69c.27-.19.53-.39.79-.59a.5.5,0,1,1,.61.8l-.82.6A.5.5,0,0,1,49.65,58ZM13.48,58a.52.52,0,0,1-.29-.09l-.81-.6a.5.5,0,0,1,.61-.8c.26.2.52.4.79.59a.5.5,0,0,1-.3.9ZM52,56.16a.52.52,0,0,1-.38-.17.51.51,0,0,1,0-.71c.25-.21.49-.43.73-.66a.51.51,0,0,1,.71,0,.5.5,0,0,1,0,.71l-.75.68A.54.54,0,0,1,52,56.16ZM11.14,56.1a.5.5,0,0,1-.33-.12c-.26-.23-.51-.45-.75-.68a.5.5,0,0,1,0-.71.5.5,0,0,1,.71,0l.73.66a.5.5,0,0,1-.33.87Zm43-2a.49.49,0,0,1-.34-.14.5.5,0,0,1,0-.71l.67-.72a.5.5,0,0,1,.74.66c-.22.26-.45.51-.68.75A.54.54,0,0,1,54.17,54.09ZM9,54a.51.51,0,0,1-.37-.15l-.68-.75a.5.5,0,0,1,.75-.67c.21.25.44.49.66.73A.49.49,0,0,1,9,54Zm47.15-2.2a.51.51,0,0,1-.31-.11.49.49,0,0,1-.08-.7c.2-.26.4-.52.59-.79a.5.5,0,0,1,.7-.1.51.51,0,0,1,.11.7c-.2.27-.41.54-.62.8A.47.47,0,0,1,56.13,51.82ZM7,51.75a.53.53,0,0,1-.4-.19c-.21-.27-.41-.54-.61-.82a.51.51,0,0,1,.11-.7.5.5,0,0,1,.7.12l.59.78a.5.5,0,0,1-.09.7A.48.48,0,0,1,7,51.75Zm50.83-2.38a.53.53,0,0,1-.27-.08.5.5,0,0,1-.15-.69c.17-.27.35-.55.51-.84a.51.51,0,0,1,.69-.17.49.49,0,0,1,.17.68c-.17.3-.35.58-.53.87A.49.49,0,0,1,57.86,49.37ZM5.3,49.3a.52.52,0,0,1-.42-.24c-.18-.28-.36-.57-.53-.86a.51.51,0,0,1,.18-.69.5.5,0,0,1,.68.18c.17.28.34.56.52.84a.51.51,0,0,1-.16.69A.5.5,0,0,1,5.3,49.3Zm54.05-2.53a.46.46,0,0,1-.23-.06A.5.5,0,0,1,58.9,46c.15-.29.29-.58.43-.88a.5.5,0,0,1,.91.42l-.45.92A.5.5,0,0,1,59.35,46.77ZM3.82,46.69a.48.48,0,0,1-.44-.28c-.16-.3-.3-.6-.45-.91a.5.5,0,1,1,.91-.42c.14.3.28.59.43.88a.5.5,0,0,1-.22.67A.46.46,0,0,1,3.82,46.69ZM60.57,44a.58.58,0,0,1-.18,0,.5.5,0,0,1-.28-.65c.12-.3.23-.61.34-.92a.5.5,0,1,1,.94.34c-.11.32-.23.63-.35.95A.51.51,0,0,1,60.57,44ZM2.6,44a.48.48,0,0,1-.46-.32c-.13-.31-.24-.63-.36-1a.5.5,0,0,1,1-.33c.1.31.22.61.34.92a.5.5,0,0,1-.29.65ZM61.53,41.2l-.13,0a.51.51,0,0,1-.35-.62c.09-.31.17-.63.25-1a.5.5,0,1,1,1,.25c-.08.32-.16.65-.26,1A.5.5,0,0,1,61.53,41.2ZM1.65,41.11a.5.5,0,0,1-.48-.37c-.09-.32-.18-.65-.26-1a.5.5,0,1,1,1-.24c.08.32.16.64.25.95a.5.5,0,0,1-.34.62Zm60.56-2.83h-.09a.5.5,0,0,1-.4-.58c.06-.32.11-.64.16-1a.5.5,0,0,1,.57-.42.51.51,0,0,1,.42.57c0,.33-.11.67-.17,1A.49.49,0,0,1,62.21,38.28ZM1,38.18a.49.49,0,0,1-.49-.41c-.06-.33-.11-.67-.16-1a.5.5,0,0,1,.42-.57.51.51,0,0,1,.57.42c0,.33.1.65.15,1a.49.49,0,0,1-.4.58ZM62.6,35.31h0a.49.49,0,0,1-.45-.54l.06-1a.5.5,0,0,1,.53-.48.51.51,0,0,1,.47.53c0,.34,0,.68-.07,1A.5.5,0,0,1,62.6,35.31Zm-62-.1a.5.5,0,0,1-.5-.46c0-.34,0-.67-.07-1a.51.51,0,0,1,.48-.53.5.5,0,0,1,.52.48c0,.33,0,.65.07,1a.52.52,0,0,1-.46.54Zm62.11-2.89a.5.5,0,0,1-.5-.5c0-.33,0-.65,0-1a.5.5,0,0,1,1-.05q0,.51,0,1a.51.51,0,0,1-.49.51ZM.5,32.21h0a.5.5,0,0,1-.49-.5c0-.34,0-.68,0-1a.49.49,0,0,1,.52-.47.5.5,0,0,1,.48.52c0,.32,0,.65,0,1A.49.49,0,0,1,.5,32.21Zm62-2.89a.49.49,0,0,1-.49-.44l-.12-1a.5.5,0,0,1,.42-.56.51.51,0,0,1,.57.42c0,.34.09.67.12,1a.5.5,0,0,1-.44.55ZM.69,29.22H.63a.5.5,0,0,1-.44-.55c0-.34.08-.67.13-1a.49.49,0,0,1,.56-.42.5.5,0,0,1,.43.56c-.05.33-.09.65-.13,1A.5.5,0,0,1,.69,29.22Zm61.38-2.86a.5.5,0,0,1-.49-.4q-.09-.48-.21-1a.5.5,0,0,1,1-.23c.08.33.15.66.22,1a.49.49,0,0,1-.39.59Zm-60.91-.1h-.1a.49.49,0,0,1-.39-.59c.07-.33.14-.66.22-1a.51.51,0,0,1,.61-.37.5.5,0,0,1,.36.61c-.07.32-.15.64-.21,1A.5.5,0,0,1,1.16,26.26Zm60.17-2.8a.5.5,0,0,1-.48-.35c-.1-.31-.2-.63-.31-.94a.5.5,0,0,1,1-.32c.11.32.21.64.31,1a.49.49,0,0,1-.33.63A.36.36,0,0,1,61.33,23.46ZM1.91,23.37a.4.4,0,0,1-.15,0,.49.49,0,0,1-.32-.63c.1-.32.2-.64.32-1a.48.48,0,0,1,.63-.3.5.5,0,0,1,.31.63c-.11.31-.21.62-.31.94A.5.5,0,0,1,1.91,23.37ZM60.3,20.64a.5.5,0,0,1-.46-.31c-.13-.3-.26-.6-.4-.9a.5.5,0,0,1,.25-.66.49.49,0,0,1,.66.24c.14.31.28.62.41.94a.49.49,0,0,1-.27.65A.43.43,0,0,1,60.3,20.64ZM3,20.56a.65.65,0,0,1-.2,0,.52.52,0,0,1-.27-.66c.14-.31.27-.62.42-.93a.5.5,0,1,1,.9.42c-.13.3-.27.6-.39.9A.51.51,0,0,1,3,20.56ZM59,17.93a.52.52,0,0,1-.45-.26c-.15-.29-.31-.58-.48-.86a.5.5,0,0,1,.18-.68.51.51,0,0,1,.69.18c.17.29.33.59.49.88a.49.49,0,0,1-.2.68A.46.46,0,0,1,59,17.93ZM4.24,17.86A.53.53,0,0,1,4,17.8a.51.51,0,0,1-.2-.68l.5-.88A.5.5,0,0,1,5,16.06a.51.51,0,0,1,.19.68l-.49.86A.49.49,0,0,1,4.24,17.86Zm53.22-2.5a.48.48,0,0,1-.42-.22l-.56-.81a.5.5,0,0,1,.11-.69.51.51,0,0,1,.7.11l.58.83a.51.51,0,0,1-.14.7A.45.45,0,0,1,57.46,15.36ZM5.79,15.3a.53.53,0,0,1-.27-.08.51.51,0,0,1-.14-.7c.19-.28.38-.56.58-.83a.5.5,0,0,1,.81.59c-.19.26-.38.53-.56.8A.51.51,0,0,1,5.79,15.3ZM55.67,13a.51.51,0,0,1-.39-.19L54.65,12a.48.48,0,0,1,0-.7.51.51,0,0,1,.71,0l.65.78a.49.49,0,0,1-.07.7A.47.47,0,0,1,55.67,13ZM7.59,12.9a.5.5,0,0,1-.39-.82l.66-.77a.49.49,0,0,1,.7-.05.51.51,0,0,1,0,.71L8,12.72A.49.49,0,0,1,7.59,12.9Zm46.07-2.17a.51.51,0,0,1-.36-.15c-.23-.23-.46-.46-.7-.68a.5.5,0,1,1,.69-.73l.72.71a.5.5,0,0,1,0,.71A.52.52,0,0,1,53.66,10.73ZM9.6,10.68a.52.52,0,0,1-.35-.14.5.5,0,0,1,0-.71c.24-.24.48-.48.73-.71a.48.48,0,0,1,.7,0,.49.49,0,0,1,0,.7c-.24.23-.47.45-.7.69A.54.54,0,0,1,9.6,10.68Zm41.85-2a.52.52,0,0,1-.32-.11L50.36,8A.5.5,0,0,1,51,7.19l.79.64a.49.49,0,0,1,.07.7A.49.49,0,0,1,51.45,8.71Zm-39.63,0a.5.5,0,0,1-.32-.89l.79-.63a.49.49,0,0,1,.7.09.5.5,0,0,1-.08.7c-.26.2-.52.4-.77.61A.51.51,0,0,1,11.82,8.67ZM49.05,6.91a.57.57,0,0,1-.28-.08c-.27-.19-.54-.37-.82-.54a.5.5,0,0,1,.53-.85c.29.18.57.37.85.56a.49.49,0,0,1,.13.69A.47.47,0,0,1,49.05,6.91Zm-34.83,0a.52.52,0,0,1-.42-.22A.5.5,0,0,1,13.94,6c.28-.19.56-.38.85-.56a.5.5,0,0,1,.69.16.49.49,0,0,1-.16.69c-.27.17-.55.35-.82.54A.57.57,0,0,1,14.22,6.87ZM46.5,5.35a.5.5,0,0,1-.24-.06l-.87-.46a.49.49,0,0,1-.22-.67.5.5,0,0,1,.67-.22l.9.47a.5.5,0,0,1-.24.94Zm-29.72,0a.53.53,0,0,1-.44-.26.5.5,0,0,1,.2-.68c.3-.17.6-.32.91-.48a.5.5,0,1,1,.44.9L17,5.25A.42.42,0,0,1,16.78,5.32Zm27-1.27a.65.65,0,0,1-.19,0l-.91-.37A.5.5,0,0,1,42.42,3a.48.48,0,0,1,.64-.28l.94.38a.5.5,0,0,1-.2,1ZM19.49,4a.49.49,0,0,1-.46-.3.5.5,0,0,1,.26-.66l.95-.38a.5.5,0,0,1,.35.93L19.68,4A.43.43,0,0,1,19.49,4ZM41,3a.4.4,0,0,1-.15,0l-.94-.28a.49.49,0,0,1-.35-.62.5.5,0,0,1,.62-.34l1,.29A.5.5,0,0,1,41,3ZM22.3,3a.49.49,0,0,1-.47-.35A.5.5,0,0,1,22.15,2l1-.29a.51.51,0,0,1,.62.35.52.52,0,0,1-.35.62c-.32.08-.63.18-.95.28Zm15.8-.74H38L37,2a.49.49,0,0,1-.4-.58.49.49,0,0,1,.58-.4l1,.19a.5.5,0,0,1-.11,1Zm-12.9,0a.5.5,0,0,1-.49-.4.51.51,0,0,1,.39-.59l1-.19a.5.5,0,0,1,.58.41.51.51,0,0,1-.41.58l-1,.18Zm9.94-.46h0l-1-.1a.5.5,0,1,1,.08-1c.34,0,.67.06,1,.09a.51.51,0,0,1,.44.56A.5.5,0,0,1,35.14,1.76Zm-7,0a.49.49,0,0,1-.49-.44.5.5,0,0,1,.44-.56l1-.09a.5.5,0,0,1,.54.46.52.52,0,0,1-.46.54c-.33,0-.66.05-1,.09Zm4-.18h-1a.51.51,0,0,1-.5-.5.5.5,0,0,1,.5-.5h1a.49.49,0,0,1,.49.51A.49.49,0,0,1,32.15,1.57Z"/><path d="M18.29,60.79a.57.57,0,0,1-.22,0l-.45-.22a.51.51,0,0,1-.23-.67.5.5,0,0,1,.67-.23l.44.21a.5.5,0,0,1,.24.67A.49.49,0,0,1,18.29,60.79Z"/></svg>