<svg xmlns="http://www.w3.org/2000/svg" viewBox="0 0 65.67 114.48"><title>46</title><path d="M45.88,30.5c-2.34-3-4.59-6-6.84-9.08-1.13-1.51-2.21-3.07-3.32-4.6l-3.3-4.62h.82l-3.3,4.62c-1.11,1.53-2.18,3.09-3.32,4.6L23.25,26c-1.16,1.5-2.29,3-3.47,4.51,1-1.62,2-3.2,3.06-4.79L26,21c1-1.58,2.14-3.12,3.21-4.69l3.22-4.67a.5.5,0,0,1,.69-.12.38.38,0,0,1,.13.12l3.23,4.68c1.07,1.56,2.16,3.1,3.2,4.68C41.78,24.13,43.88,27.28,45.88,30.5Z"/><path d="M50,21.82a.58.58,0,1,1-.1.83A.6.6,0,0,1,50,21.82Z"/><path d="M48.54,20a.58.58,0,1,1-.1.82A.58.58,0,0,1,48.54,20Z"/><path d="M47.09,18.23a.59.59,0,0,1,.83.07.6.6,0,0,1-.1.83.59.59,0,0,1-.83-.08A.58.58,0,0,1,47.09,18.23Z"/><path d="M45.64,16.43a.58.58,0,1,1,.73.9.58.58,0,1,1-.73-.9Z"/><path d="M44.19,14.64a.59.59,0,0,1,.83.07.58.58,0,0,1-.11.82.59.59,0,0,1-.83-.07A.58.58,0,0,1,44.19,14.64Z"/><path d="M42.74,12.84a.59.59,0,0,1,.83.07.59.59,0,0,1-.11.83.58.58,0,1,1-.72-.9Z"/><path d="M41.29,11a.58.58,0,1,1,.72.9.59.59,0,0,1-.83-.07A.59.59,0,0,1,41.29,11Z"/><path d="M39.83,9.25a.58.58,0,1,1,.73.9.6.6,0,0,1-.83-.08A.59.59,0,0,1,39.83,9.25Z"/><path d="M38.38,7.45a.58.58,0,1,1,.73.9.58.58,0,1,1-.73-.9Z"/><path d="M36.93,5.65a.6.6,0,0,1,.83.08.6.6,0,1,1-.83-.08Z"/><path d="M35.48,3.86a.59.59,0,0,1,.83.07.6.6,0,0,1-.93.75A.57.57,0,0,1,35.48,3.86Z"/><path d="M34,2.06a.59.59,0,0,1,.83.07.59.59,0,0,1-.11.83.59.59,0,0,1-.83-.07A.59.59,0,0,1,34,2.06Z"/><path d="M30.92,3a.59.59,0,0,1-.11-.83.61.61,0,0,1,.94.76A.59.59,0,0,1,30.92,3Z"/><path d="M29.47,4.76a.59.59,0,0,1-.11-.83.6.6,0,0,1,.94.75A.6.6,0,0,1,29.47,4.76Z"/><path d="M28,6.55a.59.59,0,0,1-.1-.82.6.6,0,0,1,.93.75A.59.59,0,0,1,28,6.55Z"/><path d="M26.56,8.35a.6.6,0,0,1-.1-.83.6.6,0,0,1,.93.76A.59.59,0,0,1,26.56,8.35Z"/><path d="M25.11,10.15a.58.58,0,1,1,.73-.9.58.58,0,0,1,.1.82A.6.6,0,0,1,25.11,10.15Z"/><path d="M23.66,11.94a.58.58,0,0,1-.1-.82.59.59,0,0,1,.83-.08.6.6,0,0,1,.1.83A.59.59,0,0,1,23.66,11.94Z"/><path d="M22.21,13.74a.58.58,0,1,1,.72-.9.58.58,0,1,1-.72.9Z"/><path d="M20.76,15.53a.58.58,0,0,1-.11-.82.59.59,0,0,1,.83-.07.58.58,0,0,1,.11.82A.59.59,0,0,1,20.76,15.53Z"/><path d="M19.31,17.33a.59.59,0,0,1-.11-.83.59.59,0,0,1,.83-.07.58.58,0,1,1-.72.9Z"/><path d="M17.85,19.13a.6.6,0,0,1-.1-.83.6.6,0,1,1,.1.83Z"/><path d="M16.4,20.92a.58.58,0,1,1,.73-.89.58.58,0,0,1,.1.82A.59.59,0,0,1,16.4,20.92Z"/><path d="M15,22.72a.58.58,0,1,1,.73-.9.58.58,0,1,1-.73.9Z"/><path d="M32.47.14a.59.59,0,0,1,.83.07.6.6,0,0,1-.93.75A.58.58,0,0,1,32.47.14Z"/><path d="M32.47,113.45a.59.59,0,0,1,.83.07.6.6,0,0,1-.93.75A.58.58,0,0,1,32.47,113.45Z"/><path d="M50,92.66a.58.58,0,1,1,.73-.89.58.58,0,0,1,.1.82A.59.59,0,0,1,50,92.66Z"/><path d="M48.54,94.46a.58.58,0,1,1,.83-.07A.59.59,0,0,1,48.54,94.46Z"/><path d="M47.09,96.26a.58.58,0,1,1,.73-.9.58.58,0,0,1,.1.82A.6.6,0,0,1,47.09,96.26Z"/><path d="M45.64,98.05a.57.57,0,0,1-.1-.82.6.6,0,0,1,.93.75A.59.59,0,0,1,45.64,98.05Z"/><path d="M44.19,99.85a.59.59,0,0,1-.11-.83.59.59,0,0,1,.83-.07.58.58,0,1,1-.72.9Z"/><path d="M42.74,101.64a.58.58,0,0,1-.11-.82.59.59,0,0,1,.83-.07.58.58,0,0,1,.11.82A.59.59,0,0,1,42.74,101.64Z"/><path d="M41.29,103.44a.58.58,0,1,1,.72-.9.58.58,0,0,1,.1.83A.57.57,0,0,1,41.29,103.44Z"/><path d="M39.83,105.24a.6.6,0,0,1-.1-.83.6.6,0,1,1,.1.83Z"/><path d="M38.38,107a.58.58,0,0,1-.1-.82.6.6,0,0,1,.93.75A.59.59,0,0,1,38.38,107Z"/><path d="M36.93,108.83a.58.58,0,1,1,.83-.07A.59.59,0,0,1,36.93,108.83Z"/><path d="M35.48,110.62a.57.57,0,0,1-.1-.82.6.6,0,1,1,.1.82Z"/><path d="M34,112.42a.58.58,0,1,1,.72-.9.59.59,0,0,1,.11.83A.59.59,0,0,1,34,112.42Z"/><path d="M30.92,111.52a.58.58,0,1,1-.11.83A.59.59,0,0,1,30.92,111.52Z"/><path d="M29.47,109.73a.59.59,0,0,1,.83.07.58.58,0,0,1-.11.82.57.57,0,1,1-.72-.89Z"/><path d="M28,107.93a.58.58,0,1,1-.1.83A.6.6,0,0,1,28,107.93Z"/><path d="M26.56,106.13a.6.6,0,0,1,.83.08.6.6,0,0,1-.93.75A.59.59,0,0,1,26.56,106.13Z"/><path d="M25.11,104.34a.59.59,0,0,1,.83.07.6.6,0,0,1-.1.83.59.59,0,0,1-.83-.08A.58.58,0,0,1,25.11,104.34Z"/><path d="M23.66,102.54a.58.58,0,1,1,.73.9.58.58,0,1,1-.73-.9Z"/><path d="M22.21,100.75a.59.59,0,0,1,.83.07.58.58,0,0,1-.11.82.59.59,0,0,1-.83-.07A.58.58,0,0,1,22.21,100.75Z"/><path d="M20.76,99a.59.59,0,0,1,.83.07.61.61,0,1,1-.83-.07Z"/><path d="M19.31,97.15a.6.6,0,0,1,.83.08.6.6,0,0,1-.94.75A.59.59,0,0,1,19.31,97.15Z"/><path d="M17.85,95.36a.58.58,0,1,1,.73.9.6.6,0,0,1-.83-.08A.59.59,0,0,1,17.85,95.36Z"/><path d="M16.4,93.56a.58.58,0,1,1-.1.83A.59.59,0,0,1,16.4,93.56Z"/><path d="M15,91.77a.58.58,0,1,1-.1.82A.58.58,0,0,1,15,91.77Z"/><path d="M51.45,90.87c-2-2.18-3.93-4.41-5.89-6.62l.51-.64a.41.41,0,0,0-.39,0,.88.88,0,0,0-.13.11h0l0,0,0,0,.07-.11.14-.22.27-.43.56-.85,1.12-1.71L50,76.9l4.56-6.78c3-4.51,6.16-9,9.28-13.45v1.15c-3.12-4.47-6.23-8.94-9.28-13.45L50,37.58c-1.5-2.27-3-4.54-4.47-6.84l0,0a.42.42,0,0,1,.12-.58.48.48,0,0,1,.33-.05h0l-.41.15c2-2.21,3.88-4.44,5.89-6.61C49.74,26,48,28.38,46.22,30.76a.41.41,0,0,1-.38.16h0l.43-.66c1.67,2.16,3.28,4.35,4.92,6.53L56,43.37c3.21,4.41,6.36,8.85,9.5,13.3a1,1,0,0,1,0,1.15c-3.14,4.45-6.29,8.89-9.5,13.29L51.15,77.7,48.7,81l-1.23,1.64-.62.81-.31.4-.15.21-.08.1,0,.05,0,0h0a.43.43,0,0,1-.14.12.44.44,0,0,1-.41,0l.51-.65C48,86.1,49.74,88.45,51.45,90.87Z"/><path d="M19.78,84c2.34,3,4.6,6,6.84,9.07,1.14,1.52,2.21,3.07,3.32,4.61l3.3,4.62h-.82l3.3-4.62c1.11-1.54,2.19-3.09,3.32-4.61l3.38-4.57c1.16-1.5,2.29-3,3.47-4.5-1,1.61-2,3.19-3.07,4.79L39.67,93.5c-1,1.59-2.13,3.13-3.2,4.69l-3.23,4.68a.5.5,0,0,1-.69.12.74.74,0,0,1-.13-.12L29.2,98.19C28.13,96.63,27,95.09,26,93.5,23.88,90.36,21.79,87.21,19.78,84Z"/><path d="M14.23,23.62c2,2.17,3.93,4.4,5.88,6.61a.42.42,0,0,1-.45.67l0,0h0l.51-.14c-1.46,2.3-3,4.56-4.48,6.84L11.1,44.37c-3.06,4.51-6.17,9-9.28,13.45V56.67C4.93,61.14,8,65.61,11.1,70.12l4.56,6.78c1.49,2.28,3,4.55,4.47,6.85l-.53-.15h0a.42.42,0,0,1,.54.23.4.4,0,0,1-.08.43c-1.95,2.21-3.88,4.44-5.88,6.62,1.7-2.42,3.48-4.77,5.23-7.15l.5.65h0a.4.4,0,0,1-.5-.11l0,0c-1.66-2.15-3.28-4.35-4.91-6.53L9.68,71.11c-3.2-4.4-6.35-8.84-9.5-13.29a1,1,0,0,1,0-1.15c3.15-4.45,6.3-8.89,9.5-13.3l4.84-6.59c1.64-2.17,3.25-4.37,4.92-6.53l0,0a.4.4,0,0,1,.49-.11h0l-.49.65C17.71,28.38,15.93,26,14.23,23.62Z"/></svg>