<svg xmlns="http://www.w3.org/2000/svg" viewBox="0 0 59.61 87.82"><title>23</title><path d="M42.6,79.55a.56.56,0,0,1,0,.79.56.56,0,1,1,0-.79Z"/><path d="M44.32,77.84a.56.56,0,0,1,0,.79.56.56,0,0,1-.79,0,.55.55,0,0,1,0-.78A.54.54,0,0,1,44.32,77.84Z"/><path d="M46,76.13a.55.55,0,1,1-.78,0A.54.54,0,0,1,46,76.13Z"/><path d="M43.85,19.56a.57.57,0,1,1-.26.77A.57.57,0,0,1,43.85,19.56Z"/><path d="M42.69,17.2a.57.57,0,0,1,.76.27.56.56,0,0,1-.26.76.57.57,0,0,1-.76-.26A.58.58,0,0,1,42.69,17.2Z"/><path d="M41.54,14.84a.57.57,0,1,1-.27.77A.58.58,0,0,1,41.54,14.84Z"/><path d="M14.36,76.91a.55.55,0,1,1,0-.78A.54.54,0,0,1,14.36,76.91Z"/><path d="M16.08,78.62a.55.55,0,1,1-.78-.78.55.55,0,0,1,.78.78Z"/><path d="M17.81,80.34a.57.57,0,0,1-.79,0,.56.56,0,0,1,0-.79.56.56,0,0,1,.79.79Z"/><polygon points="35.34 87.81 32.32 84.81 33.36 83.76 35.34 85.73 40.36 80.74 41.4 81.79 35.34 87.81"/><path d="M28.64,82.43a.59.59,0,0,1,0,.83.59.59,0,0,1-.83,0,.57.57,0,0,1,0-.82A.59.59,0,0,1,28.64,82.43Z"/><path d="M32,83.39a.59.59,0,0,1-.83,0,.58.58,0,1,1,.82-.82A.58.58,0,0,1,32,83.39Z"/><polygon points="24.27 87.81 18.22 81.79 19.26 80.74 24.27 85.73 26.53 83.48 27.58 84.53 24.27 87.81"/><polygon points="29.81 15.25 24.27 3.48 19.41 13.82 18.07 13.19 24.27 0 29.81 11.77 35.34 0 41.55 13.19 40.21 13.82 35.34 3.48 29.81 15.25"/><path d="M17.58,15.87a.57.57,0,1,1,.76-.26A.57.57,0,0,1,17.58,15.87Z"/><path d="M16.42,18.23a.57.57,0,0,1,.51-1,.59.59,0,0,1,.26.77A.58.58,0,0,1,16.42,18.23Z"/><path d="M15.27,20.59a.56.56,0,0,1-.26-.76.57.57,0,0,1,.76-.27.58.58,0,0,1,.26.77A.57.57,0,0,1,15.27,20.59Z"/><path d="M24.27,83.29,0,59.16,24.27,7.53l5.54,11.78L35.34,7.53,59.61,59.16,35.34,83.29l-5.53-5.5Zm5.54-6.89,5.53,5.5L58.43,59,35.34,9.85,29.81,21.63,24.27,9.85,1.19,59l23.08,23Z"/><path d="M32,74.28a.63.63,0,1,1-.9.88.63.63,0,0,1,.9-.88Z"/><path d="M33.83,72.5a.64.64,0,0,1,0,.89.65.65,0,0,1-.9,0,.63.63,0,0,1,0-.89A.62.62,0,0,1,33.83,72.5Z"/><path d="M35.62,70.72a.63.63,0,0,1,0,.89.63.63,0,1,1-.88-.9A.63.63,0,0,1,35.62,70.72Z"/><path d="M37.41,68.94a.63.63,0,0,1,0,.89.64.64,0,0,1-.89,0,.63.63,0,0,1,0-.89A.62.62,0,0,1,37.41,68.94Z"/><path d="M39.2,67.16a.63.63,0,0,1,0,.89.64.64,0,0,1-.89,0,.63.63,0,0,1,0-.89A.62.62,0,0,1,39.2,67.16Z"/><path d="M41,65.38a.63.63,0,0,1,0,.89.64.64,0,0,1-.89,0,.63.63,0,0,1,0-.89A.62.62,0,0,1,41,65.38Z"/><path d="M42.78,63.6a.63.63,0,0,1,0,.89.62.62,0,0,1-.89,0,.63.63,0,0,1,0-.89A.62.62,0,0,1,42.78,63.6Z"/><path d="M44.57,61.82a.63.63,0,0,1,0,.89.62.62,0,0,1-.89,0,.63.63,0,0,1,0-.89A.62.62,0,0,1,44.57,61.82Z"/><path d="M46.36,60a.63.63,0,0,1,0,.89.62.62,0,0,1-.89,0,.63.63,0,0,1,0-.89A.62.62,0,0,1,46.36,60Z"/><path d="M46.28,56.1a.65.65,0,0,1,.55,1.17A.63.63,0,0,1,46,57,.64.64,0,0,1,46.28,56.1Z"/><path d="M45.18,53.77a.64.64,0,0,1,.85.32.63.63,0,1,1-.85-.32Z"/><path d="M44.09,51.44a.63.63,0,0,1,.84.31.63.63,0,1,1-1.14.54A.64.64,0,0,1,44.09,51.44Z"/><path d="M43,49.11a.63.63,0,0,1,.84.31.64.64,0,0,1-.29.85A.64.64,0,0,1,43,49.11Z"/><path d="M41.89,46.77a.65.65,0,0,1,.85.32.64.64,0,0,1-.3.85.63.63,0,0,1-.84-.32A.64.64,0,0,1,41.89,46.77Z"/><path d="M40.8,44.44a.63.63,0,0,1,.84.32.64.64,0,0,1-.3.85.64.64,0,0,1-.84-.32A.64.64,0,0,1,40.8,44.44Z"/><path d="M39.7,42.11a.64.64,0,1,1-.29.85A.63.63,0,0,1,39.7,42.11Z"/><path d="M38.6,39.78a.64.64,0,0,1,.55,1.16.64.64,0,0,1-.55-1.16Z"/><path d="M37.51,37.44a.65.65,0,1,1-.3.85A.64.64,0,0,1,37.51,37.44Z"/><path d="M36.41,35.11a.63.63,0,0,1,.84.32.62.62,0,1,1-1.13.53A.63.63,0,0,1,36.41,35.11Z"/><path d="M35.31,32.78a.64.64,0,0,1,.85.31.63.63,0,1,1-.85-.31Z"/><path d="M34.22,30.44a.65.65,0,0,1,.55,1.17.65.65,0,0,1-.55-1.17Z"/><path d="M33.12,28.11a.65.65,0,1,1-.29.85A.64.64,0,0,1,33.12,28.11Z"/><path d="M32,25.78a.65.65,0,1,1-.29.85A.64.64,0,0,1,32,25.78Z"/><path d="M30.93,23.45a.63.63,0,0,1,.84.31.63.63,0,1,1-1.14.54A.63.63,0,0,1,30.93,23.45Z"/><path d="M28.14,24.61a.64.64,0,0,1-.29-.85A.63.63,0,1,1,29,24.3.64.64,0,0,1,28.14,24.61Z"/><path d="M27.05,27a.64.64,0,0,1-.3-.86.63.63,0,1,1,1.14.54A.64.64,0,0,1,27.05,27Z"/><path d="M26,29.28a.65.65,0,1,1,.84-.32A.64.64,0,0,1,26,29.28Z"/><path d="M24.85,31.61a.65.65,0,1,1,.85-.32A.64.64,0,0,1,24.85,31.61Z"/><path d="M23.76,33.94a.64.64,0,1,1,.84-.31A.63.63,0,0,1,23.76,33.94Z"/><path d="M22.66,36.28A.65.65,0,1,1,23.5,36,.64.64,0,0,1,22.66,36.28Z"/><path d="M21.56,38.61a.65.65,0,0,1,.55-1.17.65.65,0,0,1-.55,1.17Z"/><path d="M20.46,40.94a.64.64,0,0,1-.29-.85.63.63,0,1,1,1.14.54A.64.64,0,0,1,20.46,40.94Z"/><path d="M19.37,43.27a.63.63,0,0,1-.3-.85.63.63,0,1,1,1.14.54A.63.63,0,0,1,19.37,43.27Z"/><path d="M18.27,45.61a.63.63,0,0,1-.29-.85.62.62,0,0,1,.84-.32.63.63,0,0,1,.29.85A.64.64,0,0,1,18.27,45.61Z"/><path d="M17.17,47.94a.65.65,0,1,1,.85-.32A.64.64,0,0,1,17.17,47.94Z"/><path d="M16.08,50.27a.64.64,0,1,1,.84-.31A.64.64,0,0,1,16.08,50.27Z"/><path d="M15,52.61a.65.65,0,0,1-.3-.86.63.63,0,1,1,.3.86Z"/><path d="M13.88,54.94a.65.65,0,1,1,.85-.32A.64.64,0,0,1,13.88,54.94Z"/><path d="M12.79,57.27a.64.64,0,0,1-.3-.85.63.63,0,1,1,1.14.54A.63.63,0,0,1,12.79,57.27Z"/><path d="M14.15,60.93a.63.63,0,1,1,0-.89A.62.62,0,0,1,14.15,60.93Z"/><path d="M15.94,62.71a.63.63,0,1,1,0-.89A.63.63,0,0,1,15.94,62.71Z"/><path d="M17.73,64.49a.63.63,0,1,1,0-.89A.63.63,0,0,1,17.73,64.49Z"/><path d="M19.52,66.27a.64.64,0,0,1-.89,0,.63.63,0,1,1,.89-.89A.63.63,0,0,1,19.52,66.27Z"/><path d="M21.31,68.05a.64.64,0,0,1-.89,0,.63.63,0,1,1,.89-.89A.63.63,0,0,1,21.31,68.05Z"/><path d="M23.1,69.83a.64.64,0,0,1-.89,0,.63.63,0,1,1,.89-.89A.63.63,0,0,1,23.1,69.83Z"/><path d="M24.89,71.61a.64.64,0,0,1-.89,0,.62.62,0,0,1,0-.89.63.63,0,0,1,.89,0A.65.65,0,0,1,24.89,71.61Z"/><path d="M26.68,73.39a.64.64,0,0,1-.89,0,.63.63,0,1,1,.89-.89A.64.64,0,0,1,26.68,73.39Z"/><path d="M28.47,75.16a.63.63,0,1,1,0-.89A.63.63,0,0,1,28.47,75.16Z"/><path d="M48.18,58.85a.62.62,0,1,1-.61-.62A.61.61,0,0,1,48.18,58.85Z"/><path d="M30.42,81.27a.61.61,0,0,1-.61.61.61.61,0,0,1-.62-.61.62.62,0,0,1,.62-.62A.61.61,0,0,1,30.42,81.27Z"/><path d="M12.67,58.85a.62.62,0,1,1-.62-.62A.62.62,0,0,1,12.67,58.85Z"/></svg>