<svg id="e7a57139-9a92-4a2e-a1b0-a75eba1807fa" data-name="Layer 1" xmlns="http://www.w3.org/2000/svg" viewBox="0 0 124.68 124.68"><defs><style>.f708d9dc-d5d1-4f1a-9419-55b289978583{fill:none;stroke:#000;stroke-miterlimit:10;stroke-width:0.46px;}</style></defs><title>05u</title><g id="a644b9bb-5e80-417b-bdce-8b7f9ba1efb5" data-name="shapes"><circle class="f708d9dc-d5d1-4f1a-9419-55b289978583" cx="62.34" cy="62.34" r="62.11"/><circle class="f708d9dc-d5d1-4f1a-9419-55b289978583" cx="68.41" cy="62.34" r="55.9"/><circle class="f708d9dc-d5d1-4f1a-9419-55b289978583" cx="73.77" cy="61.4" r="50.31"/><circle class="f708d9dc-d5d1-4f1a-9419-55b289978583" cx="78.38" cy="59.71" r="45.28"/><circle class="f708d9dc-d5d1-4f1a-9419-55b289978583" cx="82.16" cy="57.52" r="40.75"/><circle class="f708d9dc-d5d1-4f1a-9419-55b289978583" cx="85.18" cy="54.99" r="36.67"/><circle class="f708d9dc-d5d1-4f1a-9419-55b289978583" cx="87.45" cy="52.29" r="33.01"/><circle class="f708d9dc-d5d1-4f1a-9419-55b289978583" cx="89.03" cy="49.55" r="29.71"/><circle class="f708d9dc-d5d1-4f1a-9419-55b289978583" cx="90" cy="46.89" r="26.74"/><circle class="f708d9dc-d5d1-4f1a-9419-55b289978583" cx="90.44" cy="44.4" r="24.06"/><circle class="f708d9dc-d5d1-4f1a-9419-55b289978583" cx="90.44" cy="42.13" r="21.66"/><circle class="f708d9dc-d5d1-4f1a-9419-55b289978583" cx="90.09" cy="40.14" r="19.49"/><circle class="f708d9dc-d5d1-4f1a-9419-55b289978583" cx="89.47" cy="38.44" r="17.54"/><circle class="f708d9dc-d5d1-4f1a-9419-55b289978583" cx="88.71" cy="37.13" r="15.79"/><circle class="f708d9dc-d5d1-4f1a-9419-55b289978583" cx="87.74" cy="35.93" r="14.21"/><circle class="f708d9dc-d5d1-4f1a-9419-55b289978583" cx="86.76" cy="35.11" r="12.79"/><circle class="f708d9dc-d5d1-4f1a-9419-55b289978583" cx="85.73" cy="34.71" r="11.49"/><circle class="f708d9dc-d5d1-4f1a-9419-55b289978583" cx="84.82" cy="34.2" r="10.36"/><circle class="f708d9dc-d5d1-4f1a-9419-55b289978583" cx="83.94" cy="34.04" r="9.32"/><circle class="f708d9dc-d5d1-4f1a-9419-55b289978583" cx="83.14" cy="34.04" r="8.39"/><circle class="f708d9dc-d5d1-4f1a-9419-55b289978583" cx="82.46" cy="34.16" r="7.55"/><circle class="f708d9dc-d5d1-4f1a-9419-55b289978583" cx="81.88" cy="34.38" r="6.8"/></g></svg>