<?xml version="1.0" encoding="utf-8"?>
<!-- Generator: Adobe Illustrator 23.0.3, SVG Export Plug-In . SVG Version: 6.00 Build 0)  -->
<svg version="1.1" id="b2b2bb53-1237-430a-991f-dc6110a11fb5"
	 xmlns="http://www.w3.org/2000/svg" xmlns:xlink="http://www.w3.org/1999/xlink" x="0px" y="0px" viewBox="0 0 111.3 128.2"
	 style="enable-background:new 0 0 111.3 128.2;" xml:space="preserve">
<style type="text/css">
	.st0{fill:none;stroke:#000000;stroke-width:0.84;stroke-linecap:round;stroke-linejoin:round;}
</style>
<title>08u</title>
<g id="fb952123-a981-40e9-9536-00e73953a3c8">
	<polygon class="st0" points="94.8,41.6 110.8,32.3 110.8,96 	"/>
	<polygon class="st0" points="94.8,41.6 55.7,109.3 16.6,41.6 	"/>
	<polygon class="st0" points="16.6,41.6 55.7,0.4 94.8,41.6 	"/>
	<polygon class="st0" points="55.7,109.3 0.5,96 16.6,41.6 	"/>
	<polygon class="st0" points="55.7,109.3 110.8,96 94.8,41.6 	"/>
	<polygon class="st0" points="55.7,109.3 55.8,127.8 0.5,96 	"/>
	<polygon class="st0" points="55.7,109.3 55.8,127.8 110.8,96 	"/>
	<polygon class="st0" points="94.8,41.6 110.8,32.3 55.7,0.4 	"/>
	<polygon class="st0" points="16.6,41.6 0.4,32.3 0.5,96 	"/>
	<polygon class="st0" points="16.6,41.6 0.4,32.3 55.7,0.4 	"/>
</g>
</svg>
