<svg id="b66af34f-59ae-48c6-b495-764fc2496ac2" data-name="Layer 1" xmlns="http://www.w3.org/2000/svg" viewBox="0 0 313.68 361.5"><defs><style>.a63b1738-ba37-44df-97ff-37b8f8b2cfe5,.bc7f5654-2f01-45f0-8a9c-588fb4fee114,.bdc38a42-01bd-40e1-bcc1-a9f3f0e4a66b,.eb8de6c2-8829-46e9-bf84-b819a86de610,.ed610588-818c-44ce-bbf9-64f61adeff44,.f74063d7-e886-42ac-a2c3-77f38008fdf1,.f9b77bb8-707c-48ef-800c-e8664497b3ac,.fb328eae-9fd4-4380-916f-62cf2a7e6b50{fill:none;stroke:#000;stroke-linecap:round;stroke-linejoin:round;}.a63b1738-ba37-44df-97ff-37b8f8b2cfe5,.bc7f5654-2f01-45f0-8a9c-588fb4fee114,.bdc38a42-01bd-40e1-bcc1-a9f3f0e4a66b,.eb8de6c2-8829-46e9-bf84-b819a86de610,.ed610588-818c-44ce-bbf9-64f61adeff44,.f74063d7-e886-42ac-a2c3-77f38008fdf1,.fb328eae-9fd4-4380-916f-62cf2a7e6b50{stroke-width:0.75px;}.ed610588-818c-44ce-bbf9-64f61adeff44{stroke-dasharray:2.9 2.9;}.f74063d7-e886-42ac-a2c3-77f38008fdf1{stroke-dasharray:3 3;}.bc7f5654-2f01-45f0-8a9c-588fb4fee114{stroke-dasharray:2.97 2.97;}.bdc38a42-01bd-40e1-bcc1-a9f3f0e4a66b{stroke-dasharray:2.99 2.99;}.eb8de6c2-8829-46e9-bf84-b819a86de610{stroke-dasharray:3.01 3.01;}.a63b1738-ba37-44df-97ff-37b8f8b2cfe5{stroke-dasharray:2.92 2.92;}.f9b77bb8-707c-48ef-800c-e8664497b3ac{stroke-width:1.5px;}</style></defs><title>06u</title><g id="e84c2496-3bc8-4ab0-b851-5873b451d69d" data-name="straight"><polyline class="fb328eae-9fd4-4380-916f-62cf2a7e6b50" points="45.8 243.01 46.22 244.45 44.92 245.2"/><line class="ed610588-818c-44ce-bbf9-64f61adeff44" x1="42.41" y1="246.65" x2="3.52" y2="269.1"/><polyline class="fb328eae-9fd4-4380-916f-62cf2a7e6b50" points="2.27 269.83 0.97 270.58 0.97 269.08"/><line class="f74063d7-e886-42ac-a2c3-77f38008fdf1" x1="0.96" y1="266.08" x2="0.76" y2="93.57"/><polyline class="fb328eae-9fd4-4380-916f-62cf2a7e6b50" points="0.76 92.07 0.76 90.57 1.18 92.01"/><line class="bc7f5654-2f01-45f0-8a9c-588fb4fee114" x1="2.03" y1="94.86" x2="45.37" y2="241.59"/><polyline class="fb328eae-9fd4-4380-916f-62cf2a7e6b50" points="47.72 244.45 46.22 244.45 46.97 243.15"/><line class="bdc38a42-01bd-40e1-bcc1-a9f3f0e4a66b" x1="48.46" y1="240.57" x2="155.25" y2="55.6"/><polyline class="fb328eae-9fd4-4380-916f-62cf2a7e6b50" points="156 54.31 156.75 53.01 157.5 54.31"/><line class="bdc38a42-01bd-40e1-bcc1-a9f3f0e4a66b" x1="158.99" y1="56.89" x2="265.77" y2="241.85"/><polyline class="fb328eae-9fd4-4380-916f-62cf2a7e6b50" points="266.52 243.14 267.27 244.44 265.77 244.44"/><line class="bdc38a42-01bd-40e1-bcc1-a9f3f0e4a66b" x1="262.78" y1="244.44" x2="49.21" y2="244.45"/><polyline class="fb328eae-9fd4-4380-916f-62cf2a7e6b50" points="158.2 53.36 156.75 53.01 156.73 51.51"/><line class="ed610588-818c-44ce-bbf9-64f61adeff44" x1="156.71" y1="48.61" x2="156.36" y2="3.7"/><polyline class="fb328eae-9fd4-4380-916f-62cf2a7e6b50" points="156.35 2.25 156.34 0.75 157.64 1.5"/><line class="eb8de6c2-8829-46e9-bf84-b819a86de610" x1="160.25" y1="2.99" x2="310.12" y2="89.09"/><polyline class="fb328eae-9fd4-4380-916f-62cf2a7e6b50" points="311.43 89.84 312.73 90.58 311.27 90.23"/><line class="bc7f5654-2f01-45f0-8a9c-588fb4fee114" x1="308.38" y1="89.54" x2="159.65" y2="53.71"/><polyline class="fb328eae-9fd4-4380-916f-62cf2a7e6b50" points="155.29 53.36 156.75 53.01 156.73 51.51"/><line class="ed610588-818c-44ce-bbf9-64f61adeff44" x1="156.71" y1="48.61" x2="156.36" y2="3.7"/><polyline class="fb328eae-9fd4-4380-916f-62cf2a7e6b50" points="156.35 2.25 156.34 0.75 155.04 1.5"/><line class="bdc38a42-01bd-40e1-bcc1-a9f3f0e4a66b" x1="152.45" y1="3" x2="3.35" y2="89.08"/><polyline class="fb328eae-9fd4-4380-916f-62cf2a7e6b50" points="2.05 89.83 0.75 90.58 2.21 90.23"/><line class="bc7f5654-2f01-45f0-8a9c-588fb4fee114" x1="5.1" y1="89.53" x2="153.84" y2="53.71"/><polyline class="fb328eae-9fd4-4380-916f-62cf2a7e6b50" points="47.25 245.54 46.22 244.45 44.92 245.2"/><line class="ed610588-818c-44ce-bbf9-64f61adeff44" x1="42.41" y1="246.65" x2="3.52" y2="269.1"/><polyline class="fb328eae-9fd4-4380-916f-62cf2a7e6b50" points="2.27 269.83 0.97 270.58 2.27 271.33"/><line class="f74063d7-e886-42ac-a2c3-77f38008fdf1" x1="4.86" y1="272.83" x2="154.14" y2="359.25"/><polyline class="fb328eae-9fd4-4380-916f-62cf2a7e6b50" points="155.44 360 156.73 360.75 155.7 359.66"/><line class="bc7f5654-2f01-45f0-8a9c-588fb4fee114" x1="153.65" y1="357.51" x2="48.28" y2="246.62"/><polyline class="fb328eae-9fd4-4380-916f-62cf2a7e6b50" points="267.69 243 267.27 244.44 268.57 245.19"/><line class="a63b1738-ba37-44df-97ff-37b8f8b2cfe5" x1="271.1" y1="246.63" x2="310.36" y2="269.1"/><polyline class="fb328eae-9fd4-4380-916f-62cf2a7e6b50" points="311.63 269.83 312.93 270.57 312.93 269.07"/><line class="f74063d7-e886-42ac-a2c3-77f38008fdf1" x1="312.92" y1="266.07" x2="312.73" y2="93.58"/><polyline class="fb328eae-9fd4-4380-916f-62cf2a7e6b50" points="312.73 92.08 312.73 90.58 312.3 92.02"/><line class="bc7f5654-2f01-45f0-8a9c-588fb4fee114" x1="311.46" y1="94.87" x2="268.12" y2="241.58"/><polyline class="fb328eae-9fd4-4380-916f-62cf2a7e6b50" points="266.24 245.53 267.27 244.44 268.57 245.19"/><line class="a63b1738-ba37-44df-97ff-37b8f8b2cfe5" x1="271.1" y1="246.63" x2="310.36" y2="269.1"/><polyline class="fb328eae-9fd4-4380-916f-62cf2a7e6b50" points="311.63 269.83 312.93 270.57 311.63 271.32"/><line class="eb8de6c2-8829-46e9-bf84-b819a86de610" x1="309.03" y1="272.82" x2="159.33" y2="359.25"/><polyline class="fb328eae-9fd4-4380-916f-62cf2a7e6b50" points="158.03 360 156.73 360.75 157.77 359.66"/><line class="bc7f5654-2f01-45f0-8a9c-588fb4fee114" x1="159.81" y1="357.51" x2="265.21" y2="246.6"/><polygon class="f9b77bb8-707c-48ef-800c-e8664497b3ac" points="267.46 117.05 312.71 90.92 312.92 270.93 267.46 117.05"/><polygon class="f9b77bb8-707c-48ef-800c-e8664497b3ac" points="267.46 117.05 156.93 308.49 46.41 117.06 267.46 117.05"/><polygon class="f9b77bb8-707c-48ef-800c-e8664497b3ac" points="156.93 308.49 157.34 360.75 0.95 270.92 156.93 308.49"/><polygon class="f9b77bb8-707c-48ef-800c-e8664497b3ac" points="156.93 308.49 157.34 360.75 312.93 270.92 156.93 308.49"/><polygon class="f9b77bb8-707c-48ef-800c-e8664497b3ac" points="267.46 117.05 312.71 90.92 156.94 0.75 267.46 117.05"/><polygon class="f9b77bb8-707c-48ef-800c-e8664497b3ac" points="46.41 117.06 0.75 90.93 0.95 270.92 46.41 117.06"/><polygon class="f9b77bb8-707c-48ef-800c-e8664497b3ac" points="46.41 117.06 0.75 90.93 156.94 0.75 46.41 117.06"/></g><g id="ba34d453-c449-407a-9ab3-0ee92318ab66" data-name="EXTRA"><circle cx="156.34" cy="53.02" r="3.74"/><circle cx="266.86" cy="244.44" r="3.74" transform="translate(-94.68 260.29) rotate(-45)"/><circle cx="46.22" cy="244.45" r="3.74"/><circle cx="46.41" cy="117.05" r="6.37"/><circle cx="267.46" cy="117.03" r="6.37"/><circle cx="157.34" cy="305.5" r="6.37"/></g></svg>