<svg id="a4d20a30-b21c-4adc-8d22-7a88145e218e" data-name="Layer 1" xmlns="http://www.w3.org/2000/svg" viewBox="0 0 123.04 141.79"><defs><style>.a797ddf6-3be8-4042-9a64-92021ca39591,.edda7ff6-7213-4f21-bc95-3f9e653371a9{fill:none;stroke:#000;stroke-linecap:round;stroke-linejoin:round;}.a797ddf6-3be8-4042-9a64-92021ca39591{stroke-width:0.63px;}.edda7ff6-7213-4f21-bc95-3f9e653371a9{stroke-width:0.21px;}</style></defs><title>02u</title><g id="fd900fd0-b7a8-4ecb-b1f4-4274947c8d95" data-name="shapes"><polygon class="a797ddf6-3be8-4042-9a64-92021ca39591" points="18.23 45.92 61.56 0.32 104.89 45.91 18.23 45.92"/><polygon class="a797ddf6-3be8-4042-9a64-92021ca39591" points="104.89 45.91 61.55 120.98 18.23 45.92 104.89 45.91"/><polygon class="edda7ff6-7213-4f21-bc95-3f9e653371a9" points="23.64 49.05 99.47 49.05 61.55 114.72 23.64 49.05"/><polygon class="edda7ff6-7213-4f21-bc95-3f9e653371a9" points="29.07 52.19 94.06 52.17 61.55 108.47 29.07 52.19"/><polygon class="edda7ff6-7213-4f21-bc95-3f9e653371a9" points="34.48 55.3 88.64 55.3 61.55 102.2 34.48 55.3"/><polygon class="edda7ff6-7213-4f21-bc95-3f9e653371a9" points="39.9 58.44 83.22 58.44 61.55 95.95 39.9 58.44"/><polygon class="edda7ff6-7213-4f21-bc95-3f9e653371a9" points="45.31 61.56 77.8 61.56 61.55 89.69 45.31 61.56"/><polygon class="edda7ff6-7213-4f21-bc95-3f9e653371a9" points="50.73 64.69 72.38 64.69 61.55 83.44 50.73 64.69"/><polygon class="edda7ff6-7213-4f21-bc95-3f9e653371a9" points="56.16 67.83 66.95 67.83 61.55 77.17 56.16 67.83"/><polygon class="edda7ff6-7213-4f21-bc95-3f9e653371a9" points="61.56 4.87 97.61 42.78 25.52 42.8 61.56 4.87"/><polygon class="edda7ff6-7213-4f21-bc95-3f9e653371a9" points="61.56 9.4 90.31 39.66 32.8 39.66 61.56 9.4"/><polygon class="edda7ff6-7213-4f21-bc95-3f9e653371a9" points="61.56 13.95 83.03 36.53 40.09 36.53 61.56 13.95"/><polygon class="edda7ff6-7213-4f21-bc95-3f9e653371a9" points="61.56 18.48 75.73 33.41 47.38 33.41 61.56 18.48"/><polygon class="edda7ff6-7213-4f21-bc95-3f9e653371a9" points="61.56 23.04 68.44 30.27 54.67 30.27 61.56 23.04"/><polygon class="a797ddf6-3be8-4042-9a64-92021ca39591" points="61.55 120.98 0.4 106.25 18.23 45.92 61.55 120.98"/><polygon class="edda7ff6-7213-4f21-bc95-3f9e653371a9" points="4.33 103.97 19.16 53.8 55.2 116.23 4.33 103.97"/><polygon class="edda7ff6-7213-4f21-bc95-3f9e653371a9" points="8.27 101.7 20.09 61.67 48.84 111.48 8.27 101.7"/><polygon class="edda7ff6-7213-4f21-bc95-3f9e653371a9" points="12.2 99.44 21.02 69.56 42.49 106.73 12.2 99.44"/><polygon class="edda7ff6-7213-4f21-bc95-3f9e653371a9" points="16.14 97.17 21.96 77.44 36.13 101.98 16.14 97.17"/><polygon class="edda7ff6-7213-4f21-bc95-3f9e653371a9" points="20.07 94.89 22.89 85.31 29.79 97.23 20.07 94.89"/><polygon class="a797ddf6-3be8-4042-9a64-92021ca39591" points="61.55 120.98 122.72 106.25 104.89 45.91 61.55 120.98"/><polygon class="edda7ff6-7213-4f21-bc95-3f9e653371a9" points="103.95 53.8 118.78 103.97 67.92 116.23 103.95 53.8"/><polygon class="edda7ff6-7213-4f21-bc95-3f9e653371a9" points="103.03 61.67 114.86 101.7 74.27 111.48 103.03 61.67"/><polygon class="edda7ff6-7213-4f21-bc95-3f9e653371a9" points="102.08 69.56 110.92 99.44 80.63 106.73 102.08 69.56"/><polygon class="edda7ff6-7213-4f21-bc95-3f9e653371a9" points="101.16 77.42 106.98 97.17 86.97 101.98 101.16 77.42"/><polygon class="edda7ff6-7213-4f21-bc95-3f9e653371a9" points="100.22 85.31 103.06 94.89 93.33 97.23 100.22 85.31"/><polygon class="a797ddf6-3be8-4042-9a64-92021ca39591" points="61.55 120.98 61.72 141.47 0.4 106.25 61.55 120.98"/><polygon class="edda7ff6-7213-4f21-bc95-3f9e653371a9" points="20.86 114.39 58.45 123.45 58.55 136.04 20.86 114.39"/><polygon class="edda7ff6-7213-4f21-bc95-3f9e653371a9" points="41.34 122.55 55.34 125.92 55.38 130.62 41.34 122.55"/><polygon class="a797ddf6-3be8-4042-9a64-92021ca39591" points="61.55 120.98 61.72 141.47 122.72 106.25 61.55 120.98"/><polygon class="edda7ff6-7213-4f21-bc95-3f9e653371a9" points="64.7 123.44 102.42 114.36 64.81 136.07 64.7 123.44"/><polygon class="edda7ff6-7213-4f21-bc95-3f9e653371a9" points="67.86 125.91 82.11 122.47 67.89 130.69 67.86 125.91"/><polygon class="a797ddf6-3be8-4042-9a64-92021ca39591" points="104.89 45.91 122.64 35.67 61.56 0.32 104.89 45.91"/><polygon class="edda7ff6-7213-4f21-bc95-3f9e653371a9" points="78.8 13.9 116.39 35.67 105.47 41.98 78.8 13.9"/><polygon class="edda7ff6-7213-4f21-bc95-3f9e653371a9" points="96.03 27.5 110.14 35.66 106.03 38.03 96.03 27.5"/><polygon class="a797ddf6-3be8-4042-9a64-92021ca39591" points="18.23 45.92 0.32 35.67 0.4 106.25 18.23 45.92"/><polygon class="edda7ff6-7213-4f21-bc95-3f9e653371a9" points="3.46 41.08 14.53 47.41 3.5 84.69 3.46 41.08"/><polygon class="edda7ff6-7213-4f21-bc95-3f9e653371a9" points="6.58 46.48 10.81 48.9 6.61 63.15 6.58 46.48"/><polygon class="a797ddf6-3be8-4042-9a64-92021ca39591" points="18.23 45.92 0.32 35.67 61.56 0.32 18.23 45.92"/><polygon class="edda7ff6-7213-4f21-bc95-3f9e653371a9" points="6.59 35.66 44.38 13.85 17.64 41.98 6.59 35.66"/><polygon class="edda7ff6-7213-4f21-bc95-3f9e653371a9" points="12.88 35.66 27.21 27.38 17.07 38.05 12.88 35.66"/><polygon class="a797ddf6-3be8-4042-9a64-92021ca39591" points="104.89 45.91 122.64 35.67 122.72 106.25 104.89 45.91"/><polygon class="edda7ff6-7213-4f21-bc95-3f9e653371a9" points="108.59 47.4 119.52 41.09 119.56 84.53 108.59 47.4"/><polygon class="edda7ff6-7213-4f21-bc95-3f9e653371a9" points="112.3 48.88 116.39 46.51 116.42 62.81 112.3 48.88"/></g></svg>