<svg id="bd85d44f-32c5-4826-bd6b-4f7e0eeaabe5" data-name="Layer 1" xmlns="http://www.w3.org/2000/svg" viewBox="0 0 344.28 349.52"><defs><style>.a214dd4d-2f83-4fe4-b82c-ebfafab5be6e,.aa86a4cf-58a6-4874-b4df-5ef7bb65de6d,.ac05bab5-e7f3-4205-9d54-f9a1671c8737,.aee24842-d1d4-4e1f-a321-3214e7533ca2,.b3a47ad0-1d2a-4a95-ab21-122fbcd5ea4d,.f76a295e-f5ba-4a25-8dcb-4e17b9758b97,.f8c2e692-c0bf-4c77-ad62-0111fe02e6a3{fill:none;stroke:#000;}.a214dd4d-2f83-4fe4-b82c-ebfafab5be6e,.aa86a4cf-58a6-4874-b4df-5ef7bb65de6d,.aee24842-d1d4-4e1f-a321-3214e7533ca2,.b3a47ad0-1d2a-4a95-ab21-122fbcd5ea4d,.f76a295e-f5ba-4a25-8dcb-4e17b9758b97,.f8c2e692-c0bf-4c77-ad62-0111fe02e6a3{stroke-miterlimit:10;}.a214dd4d-2f83-4fe4-b82c-ebfafab5be6e,.aa86a4cf-58a6-4874-b4df-5ef7bb65de6d,.aee24842-d1d4-4e1f-a321-3214e7533ca2,.b3a47ad0-1d2a-4a95-ab21-122fbcd5ea4d,.f76a295e-f5ba-4a25-8dcb-4e17b9758b97{stroke-width:0.5px;}.f76a295e-f5ba-4a25-8dcb-4e17b9758b97{stroke-dasharray:2.96 2.96;}.a214dd4d-2f83-4fe4-b82c-ebfafab5be6e{stroke-dasharray:2.95 2.95;}.aa86a4cf-58a6-4874-b4df-5ef7bb65de6d{stroke-dasharray:2.99 2.99;}.b3a47ad0-1d2a-4a95-ab21-122fbcd5ea4d{stroke-dasharray:2.97 2.97;}.ac05bab5-e7f3-4205-9d54-f9a1671c8737{stroke-linejoin:bevel;}</style></defs><title>04u</title><g id="b94fc0ed-b8a7-4c7a-9bf6-bec821737dc7" data-name="circles"><circle class="f8c2e692-c0bf-4c77-ad62-0111fe02e6a3" cx="172.14" cy="174.76" r="171.64"/><circle class="aee24842-d1d4-4e1f-a321-3214e7533ca2" cx="172.14" cy="174.76" r="74.32"/></g><g id="a9e84523-5b54-429f-8f69-f2ccf64760fe" data-name="straight"><polyline class="aee24842-d1d4-4e1f-a321-3214e7533ca2" points="22.88 90.8 22.87 89.3 24.17 88.55"/><line class="f76a295e-f5ba-4a25-8dcb-4e17b9758b97" x1="26.73" y1="87.07" x2="168.94" y2="4.97"/><polyline class="aee24842-d1d4-4e1f-a321-3214e7533ca2" points="170.22 4.23 171.52 3.48 172.82 4.22"/><line class="f76a295e-f5ba-4a25-8dcb-4e17b9758b97" x1="175.39" y1="5.7" x2="318.2" y2="87.45"/><polyline class="aee24842-d1d4-4e1f-a321-3214e7533ca2" points="319.48 88.19 320.78 88.94 320.78 90.44"/><line class="f76a295e-f5ba-4a25-8dcb-4e17b9758b97" x1="320.78" y1="93.4" x2="320.78" y2="257.6"/><polyline class="aee24842-d1d4-4e1f-a321-3214e7533ca2" points="320.78 259.08 320.78 260.58 319.49 261.33"/><line class="f76a295e-f5ba-4a25-8dcb-4e17b9758b97" x1="316.92" y1="262.81" x2="174.72" y2="344.91"/><polyline class="aee24842-d1d4-4e1f-a321-3214e7533ca2" points="173.44 345.65 172.14 346.4 170.84 345.65"/><line class="f76a295e-f5ba-4a25-8dcb-4e17b9758b97" x1="168.28" y1="344.17" x2="26.08" y2="262.07"/><polyline class="aee24842-d1d4-4e1f-a321-3214e7533ca2" points="24.79 261.33 23.5 260.58 23.49 259.08"/><line class="a214dd4d-2f83-4fe4-b82c-ebfafab5be6e" x1="23.48" y1="256.12" x2="22.88" y2="92.27"/><polyline class="aee24842-d1d4-4e1f-a321-3214e7533ca2" points="246.46 301.99 246.46 303.49 245.16 302.74"/><line class="aa86a4cf-58a6-4874-b4df-5ef7bb65de6d" x1="242.57" y1="301.24" x2="26.09" y2="176.25"/><polyline class="aee24842-d1d4-4e1f-a321-3214e7533ca2" points="24.79 175.51 23.5 174.76 24.79 174.01"/><line class="aa86a4cf-58a6-4874-b4df-5ef7bb65de6d" x1="27.39" y1="172.51" x2="243.87" y2="47.53"/><polyline class="aee24842-d1d4-4e1f-a321-3214e7533ca2" points="245.16 46.78 246.46 46.03 246.46 47.53"/><line class="aa86a4cf-58a6-4874-b4df-5ef7bb65de6d" x1="246.46" y1="50.52" x2="246.46" y2="300.49"/><polyline class="aee24842-d1d4-4e1f-a321-3214e7533ca2" points="97.82 47.53 97.82 46.03 99.12 46.78"/><line class="aa86a4cf-58a6-4874-b4df-5ef7bb65de6d" x1="101.71" y1="48.27" x2="318.19" y2="173.26"/><polyline class="aee24842-d1d4-4e1f-a321-3214e7533ca2" points="319.49 174.01 320.78 174.76 319.49 175.51"/><line class="aa86a4cf-58a6-4874-b4df-5ef7bb65de6d" x1="316.89" y1="177" x2="100.41" y2="301.99"/><polyline class="aee24842-d1d4-4e1f-a321-3214e7533ca2" points="99.12 302.74 97.82 303.49 97.82 301.99"/><line class="aa86a4cf-58a6-4874-b4df-5ef7bb65de6d" x1="97.82" y1="298.99" x2="97.82" y2="49.02"/><polygon class="f8c2e692-c0bf-4c77-ad62-0111fe02e6a3" points="320.78 88.94 172.14 346.4 23.5 88.94 320.78 88.94"/><polygon class="f8c2e692-c0bf-4c77-ad62-0111fe02e6a3" points="23.5 260.58 172.14 3.12 320.78 260.58 23.5 260.58"/><polyline class="aee24842-d1d4-4e1f-a321-3214e7533ca2" points="99.32 217.66 97.82 217.66 98.57 216.37"/><line class="b3a47ad0-1d2a-4a95-ab21-122fbcd5ea4d" x1="100.06" y1="213.79" x2="170.65" y2="91.52"/><polyline class="aee24842-d1d4-4e1f-a321-3214e7533ca2" points="171.39 90.24 172.14 88.94 172.89 90.24"/><line class="b3a47ad0-1d2a-4a95-ab21-122fbcd5ea4d" x1="174.38" y1="92.81" x2="244.97" y2="215.08"/><polyline class="aee24842-d1d4-4e1f-a321-3214e7533ca2" points="245.71 216.37 246.46 217.66 244.96 217.66"/><line class="b3a47ad0-1d2a-4a95-ab21-122fbcd5ea4d" x1="241.99" y1="217.67" x2="100.81" y2="217.67"/><polyline class="aee24842-d1d4-4e1f-a321-3214e7533ca2" points="244.96 131.85 246.46 131.85 245.71 133.15"/><line class="b3a47ad0-1d2a-4a95-ab21-122fbcd5ea4d" x1="244.22" y1="135.72" x2="173.63" y2="257.99"/><polyline class="aee24842-d1d4-4e1f-a321-3214e7533ca2" points="172.89 259.27 172.14 260.57 171.39 259.27"/><line class="b3a47ad0-1d2a-4a95-ab21-122fbcd5ea4d" x1="169.9" y1="256.7" x2="99.31" y2="134.43"/><polyline class="aee24842-d1d4-4e1f-a321-3214e7533ca2" points="98.57 133.15 97.82 131.85 99.32 131.85"/><line class="b3a47ad0-1d2a-4a95-ab21-122fbcd5ea4d" x1="102.29" y1="131.85" x2="243.47" y2="131.85"/><polygon class="ac05bab5-e7f3-4205-9d54-f9a1671c8737" points="221.69 260.57 73.05 174.76 221.69 88.94 221.69 260.57"/><polygon class="ac05bab5-e7f3-4205-9d54-f9a1671c8737" points="122.59 88.94 271.23 174.76 122.59 260.57 122.59 88.94"/></g><g id="e797fba0-bf78-41ec-99e7-4af39db653ba" data-name="EXTRA"><circle cx="271.23" cy="174.76" r="3.12"/><circle cx="221.69" cy="203.39" r="3.12"/><circle cx="221.69" cy="146.91" r="3.12"/><circle cx="172.14" cy="117.47" r="3.12"/><circle cx="122.59" cy="146.91" r="3.12"/><circle cx="122.59" cy="203.39" r="3.12"/><circle cx="172.14" cy="232.13" r="3.12"/><circle cx="221.69" cy="260.57" r="3.12"/><circle cx="320.78" cy="260.57" r="3.12"/><circle cx="23.5" cy="260.57" r="3.12"/><circle cx="23.5" cy="88.94" r="3.12"/><circle cx="320.78" cy="88.94" r="3.12"/><circle cx="172.14" cy="3.12" r="3.12"/><circle cx="172.14" cy="346.4" r="3.12"/><circle cx="122.59" cy="260.57" r="3.12"/><circle cx="73.05" cy="174.76" r="3.12"/><circle cx="122.59" cy="88.94" r="3.12"/><circle cx="221.69" cy="88.94" r="3.81"/></g></svg>