<svg id="e8afb7c5-f324-4cfe-8dd2-786b08bb5f5a" data-name="Layer 1" xmlns="http://www.w3.org/2000/svg" viewBox="0 0 361.15 361"><defs><style>.a16b74f9-d8f7-49cd-9f10-cb88b3093586,.a1f1232b-83d6-4551-9d04-3d86124a6fc6,.a625d541-41c7-4e22-8eab-8efb2e069a53,.a8fdeb24-7597-45b0-aab6-f06798a7c09b,.ad022024-2d6c-40d0-a9d9-7688cf2e4157,.fc9d5940-a094-403a-875e-9d759a72560e{fill:none;stroke:#000;}.a1f1232b-83d6-4551-9d04-3d86124a6fc6,.a8fdeb24-7597-45b0-aab6-f06798a7c09b,.fc9d5940-a094-403a-875e-9d759a72560e{stroke-miterlimit:10;}.a1f1232b-83d6-4551-9d04-3d86124a6fc6,.a625d541-41c7-4e22-8eab-8efb2e069a53,.ad022024-2d6c-40d0-a9d9-7688cf2e4157,.fc9d5940-a094-403a-875e-9d759a72560e{stroke-width:0.5px;}.a625d541-41c7-4e22-8eab-8efb2e069a53,.fc9d5940-a094-403a-875e-9d759a72560e{stroke-dasharray:3 3;}.a16b74f9-d8f7-49cd-9f10-cb88b3093586,.a625d541-41c7-4e22-8eab-8efb2e069a53,.ad022024-2d6c-40d0-a9d9-7688cf2e4157{stroke-linejoin:bevel;}</style></defs><title>05u</title><g id="b186e18b-4f3d-4733-ba8d-f5dd7be2fe5c" data-name="straight"><polyline class="a1f1232b-83d6-4551-9d04-3d86124a6fc6" points="24.69 92 24.69 90.5 25.99 89.75"/><line class="fc9d5940-a094-403a-875e-9d759a72560e" x1="28.59" y1="88.25" x2="177.98" y2="2"/><polyline class="a1f1232b-83d6-4551-9d04-3d86124a6fc6" points="179.28 1.25 180.58 0.5 181.88 1.25"/><line class="fc9d5940-a094-403a-875e-9d759a72560e" x1="184.47" y1="2.75" x2="333.86" y2="89"/><polyline class="a1f1232b-83d6-4551-9d04-3d86124a6fc6" points="335.16 89.75 336.46 90.5 336.46 92"/><line class="fc9d5940-a094-403a-875e-9d759a72560e" x1="336.46" y1="95" x2="336.46" y2="267.5"/><polyline class="a1f1232b-83d6-4551-9d04-3d86124a6fc6" points="336.46 269 336.46 270.5 335.16 271.25"/><line class="fc9d5940-a094-403a-875e-9d759a72560e" x1="332.56" y1="272.75" x2="183.18" y2="359"/><polyline class="a1f1232b-83d6-4551-9d04-3d86124a6fc6" points="181.88 359.75 180.58 360.5 179.28 359.75"/><line class="fc9d5940-a094-403a-875e-9d759a72560e" x1="176.68" y1="358.25" x2="27.29" y2="272"/><polyline class="a1f1232b-83d6-4551-9d04-3d86124a6fc6" points="25.99 271.25 24.69 270.5 24.69 269"/><line class="fc9d5940-a094-403a-875e-9d759a72560e" x1="24.69" y1="266" x2="24.69" y2="93.5"/><polyline class="a1f1232b-83d6-4551-9d04-3d86124a6fc6" points="258.52 314 258.52 315.5 257.22 314.75"/><line class="fc9d5940-a094-403a-875e-9d759a72560e" x1="254.62" y1="313.25" x2="27.29" y2="182"/><polyline class="a1f1232b-83d6-4551-9d04-3d86124a6fc6" points="25.99 181.25 24.69 180.5 25.99 179.75"/><line class="fc9d5940-a094-403a-875e-9d759a72560e" x1="28.59" y1="178.25" x2="255.92" y2="47"/><polyline class="a1f1232b-83d6-4551-9d04-3d86124a6fc6" points="257.22 46.25 258.52 45.5 258.52 47"/><line class="fc9d5940-a094-403a-875e-9d759a72560e" x1="258.52" y1="50" x2="258.52" y2="312.5"/><polyline class="a1f1232b-83d6-4551-9d04-3d86124a6fc6" points="102.64 47 102.64 45.5 103.93 46.25"/><line class="fc9d5940-a094-403a-875e-9d759a72560e" x1="106.53" y1="47.75" x2="333.86" y2="179"/><polyline class="a1f1232b-83d6-4551-9d04-3d86124a6fc6" points="335.16 179.75 336.46 180.5 335.16 181.25"/><line class="fc9d5940-a094-403a-875e-9d759a72560e" x1="332.56" y1="182.75" x2="105.23" y2="314"/><polyline class="a1f1232b-83d6-4551-9d04-3d86124a6fc6" points="103.93 314.75 102.64 315.5 102.64 314"/><line class="fc9d5940-a094-403a-875e-9d759a72560e" x1="102.64" y1="311" x2="102.64" y2="48.5"/><polyline class="ad022024-2d6c-40d0-a9d9-7688cf2e4157" points="334.96 90.5 336.46 90.5 335.71 91.8"/><line class="a625d541-41c7-4e22-8eab-8efb2e069a53" x1="334.21" y1="94.4" x2="182.08" y2="357.9"/><polyline class="ad022024-2d6c-40d0-a9d9-7688cf2e4157" points="181.33 359.2 180.58 360.5 179.83 359.2"/><line class="a625d541-41c7-4e22-8eab-8efb2e069a53" x1="178.33" y1="356.6" x2="26.19" y2="93.1"/><polyline class="ad022024-2d6c-40d0-a9d9-7688cf2e4157" points="25.44 91.8 24.69 90.5 26.19 90.5"/><line class="a625d541-41c7-4e22-8eab-8efb2e069a53" x1="29.19" y1="90.5" x2="333.46" y2="90.5"/><polygon class="a8fdeb24-7597-45b0-aab6-f06798a7c09b" points="24.69 360.5 180.58 90.5 336.46 360.5 24.69 360.5"/><polyline class="ad022024-2d6c-40d0-a9d9-7688cf2e4157" points="26.19 270.5 24.69 270.5 25.44 269.2"/><line class="a625d541-41c7-4e22-8eab-8efb2e069a53" x1="26.94" y1="266.6" x2="179.08" y2="3.1"/><polyline class="ad022024-2d6c-40d0-a9d9-7688cf2e4157" points="179.83 1.8 180.58 0.5 181.33 1.8"/><line class="a625d541-41c7-4e22-8eab-8efb2e069a53" x1="182.83" y1="4.4" x2="334.96" y2="267.9"/><polyline class="ad022024-2d6c-40d0-a9d9-7688cf2e4157" points="335.71 269.2 336.46 270.5 334.96 270.5"/><line class="a625d541-41c7-4e22-8eab-8efb2e069a53" x1="331.96" y1="270.5" x2="27.69" y2="270.5"/><polygon class="a8fdeb24-7597-45b0-aab6-f06798a7c09b" points="336.46 0.5 180.58 270.5 24.69 0.5 336.46 0.5"/><polygon class="a8fdeb24-7597-45b0-aab6-f06798a7c09b" points="270.58 24.61 360.58 180.5 270.58 336.38 90.58 336.38 0.58 180.5 90.58 24.61 270.58 24.61"/><polygon class="a16b74f9-d8f7-49cd-9f10-cb88b3093586" points="270.58 336.38 0.58 180.5 270.58 24.61 270.58 336.38"/><polygon class="a16b74f9-d8f7-49cd-9f10-cb88b3093586" points="90.58 24.61 360.58 180.5 90.58 336.38 90.58 24.61"/></g></svg>