<svg id="afcffbc3-2e1a-43d2-90e9-e9beecd8a0c6" data-name="Layer 1" xmlns="http://www.w3.org/2000/svg" viewBox="0 0 394.89 394.89"><defs><style>.a52e4a0d-ebd2-4ea7-8580-94b8118cea3e,.b28a767d-dd93-4de2-9b80-1d98064d1572,.b982c26a-c63d-4d6c-b608-7ae003c735ea,.bfd55f12-49e5-4073-aab3-d6484209d4df{fill:none;stroke:#000;stroke-miterlimit:10;}.a52e4a0d-ebd2-4ea7-8580-94b8118cea3e,.b982c26a-c63d-4d6c-b608-7ae003c735ea,.bfd55f12-49e5-4073-aab3-d6484209d4df{stroke-width:0.75px;}.b982c26a-c63d-4d6c-b608-7ae003c735ea{stroke-dasharray:2.95 2.95;}.b28a767d-dd93-4de2-9b80-1d98064d1572{stroke-width:2px;}.a52e4a0d-ebd2-4ea7-8580-94b8118cea3e{stroke-dasharray:3 3;}</style></defs><title>07u</title><g id="ac5c89af-f249-4cfa-89fc-e711a5826b27" data-name="straight"><polyline class="bfd55f12-49e5-4073-aab3-d6484209d4df" points="268.35 266.85 268.35 268.35 266.85 268.35"/><line class="b982c26a-c63d-4d6c-b608-7ae003c735ea" x1="263.9" y1="268.35" x2="129.52" y2="268.35"/><polyline class="bfd55f12-49e5-4073-aab3-d6484209d4df" points="128.04 268.35 126.54 268.35 126.54 266.85"/><line class="b982c26a-c63d-4d6c-b608-7ae003c735ea" x1="126.54" y1="263.9" x2="126.54" y2="129.52"/><polyline class="bfd55f12-49e5-4073-aab3-d6484209d4df" points="126.54 128.04 126.54 126.54 128.04 126.54"/><line class="b982c26a-c63d-4d6c-b608-7ae003c735ea" x1="130.99" y1="126.54" x2="265.37" y2="126.54"/><polyline class="bfd55f12-49e5-4073-aab3-d6484209d4df" points="266.85 126.54 268.35 126.54 268.35 128.04"/><line class="b982c26a-c63d-4d6c-b608-7ae003c735ea" x1="268.35" y1="130.99" x2="268.35" y2="265.37"/><polygon class="b28a767d-dd93-4de2-9b80-1d98064d1572" points="44.67 268.35 197.44 3.74 350.22 268.35 44.67 268.35"/><polyline class="bfd55f12-49e5-4073-aab3-d6484209d4df" points="46.17 350.22 44.67 350.22 45.42 348.92"/><line class="a52e4a0d-ebd2-4ea7-8580-94b8118cea3e" x1="46.92" y1="346.32" x2="195.95" y2="88.2"/><polyline class="bfd55f12-49e5-4073-aab3-d6484209d4df" points="196.69 86.91 197.44 85.61 198.19 86.91"/><line class="a52e4a0d-ebd2-4ea7-8580-94b8118cea3e" x1="199.69" y1="89.5" x2="348.72" y2="347.62"/><polyline class="bfd55f12-49e5-4073-aab3-d6484209d4df" points="349.47 348.92 350.22 350.22 348.72 350.22"/><line class="a52e4a0d-ebd2-4ea7-8580-94b8118cea3e" x1="345.72" y1="350.22" x2="47.67" y2="350.22"/><polygon class="b28a767d-dd93-4de2-9b80-1d98064d1572" points="350.22 126.54 197.44 391.15 44.67 126.54 350.22 126.54"/><polyline class="bfd55f12-49e5-4073-aab3-d6484209d4df" points="348.72 44.67 350.22 44.67 349.47 45.97"/><line class="a52e4a0d-ebd2-4ea7-8580-94b8118cea3e" x1="347.97" y1="48.57" x2="198.94" y2="306.69"/><polyline class="bfd55f12-49e5-4073-aab3-d6484209d4df" points="198.19 307.98 197.44 309.28 196.69 307.98"/><line class="a52e4a0d-ebd2-4ea7-8580-94b8118cea3e" x1="195.2" y1="305.39" x2="46.17" y2="47.27"/><polyline class="bfd55f12-49e5-4073-aab3-d6484209d4df" points="45.42 45.97 44.67 44.67 46.17 44.67"/><line class="a52e4a0d-ebd2-4ea7-8580-94b8118cea3e" x1="49.17" y1="44.67" x2="347.22" y2="44.67"/><polyline class="bfd55f12-49e5-4073-aab3-d6484209d4df" points="44.67 46.17 44.67 44.67 45.97 45.42"/><line class="a52e4a0d-ebd2-4ea7-8580-94b8118cea3e" x1="48.57" y1="46.92" x2="306.69" y2="195.95"/><polyline class="bfd55f12-49e5-4073-aab3-d6484209d4df" points="307.98 196.69 309.28 197.44 307.98 198.19"/><line class="a52e4a0d-ebd2-4ea7-8580-94b8118cea3e" x1="305.39" y1="199.69" x2="47.27" y2="348.72"/><polyline class="bfd55f12-49e5-4073-aab3-d6484209d4df" points="45.97 349.47 44.67 350.22 44.67 348.72"/><line class="a52e4a0d-ebd2-4ea7-8580-94b8118cea3e" x1="44.67" y1="345.72" x2="44.67" y2="47.67"/><polyline class="bfd55f12-49e5-4073-aab3-d6484209d4df" points="350.22 348.72 350.22 350.22 348.92 349.47"/><line class="a52e4a0d-ebd2-4ea7-8580-94b8118cea3e" x1="346.32" y1="347.97" x2="88.2" y2="198.94"/><polyline class="bfd55f12-49e5-4073-aab3-d6484209d4df" points="86.91 198.19 85.61 197.44 86.91 196.69"/><line class="a52e4a0d-ebd2-4ea7-8580-94b8118cea3e" x1="89.5" y1="195.2" x2="347.62" y2="46.17"/><polyline class="bfd55f12-49e5-4073-aab3-d6484209d4df" points="348.92 45.42 350.22 44.67 350.22 46.17"/><line class="a52e4a0d-ebd2-4ea7-8580-94b8118cea3e" x1="350.22" y1="49.17" x2="350.22" y2="347.22"/><polyline class="bfd55f12-49e5-4073-aab3-d6484209d4df" points="46.17 350.22 44.67 350.22 45.42 348.92"/><line class="a52e4a0d-ebd2-4ea7-8580-94b8118cea3e" x1="46.92" y1="346.32" x2="195.95" y2="88.2"/><polyline class="bfd55f12-49e5-4073-aab3-d6484209d4df" points="196.69 86.91 197.44 85.61 198.19 86.91"/><line class="a52e4a0d-ebd2-4ea7-8580-94b8118cea3e" x1="199.69" y1="89.5" x2="348.72" y2="347.62"/><polyline class="bfd55f12-49e5-4073-aab3-d6484209d4df" points="349.47 348.92 350.22 350.22 348.72 350.22"/><line class="a52e4a0d-ebd2-4ea7-8580-94b8118cea3e" x1="345.72" y1="350.22" x2="47.67" y2="350.22"/><polyline class="bfd55f12-49e5-4073-aab3-d6484209d4df" points="348.72 44.67 350.22 44.67 349.47 45.97"/><line class="a52e4a0d-ebd2-4ea7-8580-94b8118cea3e" x1="347.97" y1="48.57" x2="198.94" y2="306.69"/><polyline class="bfd55f12-49e5-4073-aab3-d6484209d4df" points="198.19 307.98 197.44 309.28 196.69 307.98"/><line class="a52e4a0d-ebd2-4ea7-8580-94b8118cea3e" x1="195.2" y1="305.39" x2="46.17" y2="47.27"/><polyline class="bfd55f12-49e5-4073-aab3-d6484209d4df" points="45.42 45.97 44.67 44.67 46.17 44.67"/><line class="a52e4a0d-ebd2-4ea7-8580-94b8118cea3e" x1="49.17" y1="44.67" x2="347.22" y2="44.67"/><polyline class="bfd55f12-49e5-4073-aab3-d6484209d4df" points="44.67 46.17 44.67 44.67 45.97 45.42"/><line class="a52e4a0d-ebd2-4ea7-8580-94b8118cea3e" x1="48.57" y1="46.92" x2="306.69" y2="195.95"/><polyline class="bfd55f12-49e5-4073-aab3-d6484209d4df" points="307.98 196.69 309.28 197.44 307.98 198.19"/><line class="a52e4a0d-ebd2-4ea7-8580-94b8118cea3e" x1="305.39" y1="199.69" x2="47.27" y2="348.72"/><polyline class="bfd55f12-49e5-4073-aab3-d6484209d4df" points="45.97 349.47 44.67 350.22 44.67 348.72"/><line class="a52e4a0d-ebd2-4ea7-8580-94b8118cea3e" x1="44.67" y1="345.72" x2="44.67" y2="47.67"/><polyline class="bfd55f12-49e5-4073-aab3-d6484209d4df" points="350.22 348.72 350.22 350.22 348.92 349.47"/><line class="a52e4a0d-ebd2-4ea7-8580-94b8118cea3e" x1="346.32" y1="347.97" x2="88.2" y2="198.94"/><polyline class="bfd55f12-49e5-4073-aab3-d6484209d4df" points="86.91 198.19 85.61 197.44 86.91 196.69"/><line class="a52e4a0d-ebd2-4ea7-8580-94b8118cea3e" x1="89.5" y1="195.2" x2="347.62" y2="46.17"/><polyline class="bfd55f12-49e5-4073-aab3-d6484209d4df" points="348.92 45.42 350.22 44.67 350.22 46.17"/><line class="a52e4a0d-ebd2-4ea7-8580-94b8118cea3e" x1="350.22" y1="49.17" x2="350.22" y2="347.22"/><polyline class="bfd55f12-49e5-4073-aab3-d6484209d4df" points="46.17 350.22 44.67 350.22 45.42 348.92"/><line class="a52e4a0d-ebd2-4ea7-8580-94b8118cea3e" x1="46.92" y1="346.32" x2="195.95" y2="88.2"/><polyline class="bfd55f12-49e5-4073-aab3-d6484209d4df" points="196.69 86.91 197.44 85.61 198.19 86.91"/><line class="a52e4a0d-ebd2-4ea7-8580-94b8118cea3e" x1="199.69" y1="89.5" x2="348.72" y2="347.62"/><polyline class="bfd55f12-49e5-4073-aab3-d6484209d4df" points="349.47 348.92 350.22 350.22 348.72 350.22"/><line class="a52e4a0d-ebd2-4ea7-8580-94b8118cea3e" x1="345.72" y1="350.22" x2="47.67" y2="350.22"/><polyline class="bfd55f12-49e5-4073-aab3-d6484209d4df" points="348.72 44.67 350.22 44.67 349.47 45.97"/><line class="a52e4a0d-ebd2-4ea7-8580-94b8118cea3e" x1="347.97" y1="48.57" x2="198.94" y2="306.69"/><polyline class="bfd55f12-49e5-4073-aab3-d6484209d4df" points="198.19 307.98 197.44 309.28 196.69 307.98"/><line class="a52e4a0d-ebd2-4ea7-8580-94b8118cea3e" x1="195.2" y1="305.39" x2="46.17" y2="47.27"/><polyline class="bfd55f12-49e5-4073-aab3-d6484209d4df" points="45.42 45.97 44.67 44.67 46.17 44.67"/><line class="a52e4a0d-ebd2-4ea7-8580-94b8118cea3e" x1="49.17" y1="44.67" x2="347.22" y2="44.67"/><polyline class="bfd55f12-49e5-4073-aab3-d6484209d4df" points="44.67 46.17 44.67 44.67 45.97 45.42"/><line class="a52e4a0d-ebd2-4ea7-8580-94b8118cea3e" x1="48.57" y1="46.92" x2="306.69" y2="195.95"/><polyline class="bfd55f12-49e5-4073-aab3-d6484209d4df" points="307.98 196.69 309.28 197.44 307.98 198.19"/><line class="a52e4a0d-ebd2-4ea7-8580-94b8118cea3e" x1="305.39" y1="199.69" x2="47.27" y2="348.72"/><polyline class="bfd55f12-49e5-4073-aab3-d6484209d4df" points="45.97 349.47 44.67 350.22 44.67 348.72"/><line class="a52e4a0d-ebd2-4ea7-8580-94b8118cea3e" x1="44.67" y1="345.72" x2="44.67" y2="47.67"/><polyline class="bfd55f12-49e5-4073-aab3-d6484209d4df" points="350.22 348.72 350.22 350.22 348.92 349.47"/><line class="a52e4a0d-ebd2-4ea7-8580-94b8118cea3e" x1="346.32" y1="347.97" x2="88.2" y2="198.94"/><polyline class="bfd55f12-49e5-4073-aab3-d6484209d4df" points="86.91 198.19 85.61 197.44 86.91 196.69"/><line class="a52e4a0d-ebd2-4ea7-8580-94b8118cea3e" x1="89.5" y1="195.2" x2="347.62" y2="46.17"/><polyline class="bfd55f12-49e5-4073-aab3-d6484209d4df" points="348.92 45.42 350.22 44.67 350.22 46.17"/><line class="a52e4a0d-ebd2-4ea7-8580-94b8118cea3e" x1="350.22" y1="49.17" x2="350.22" y2="347.22"/><polyline class="bfd55f12-49e5-4073-aab3-d6484209d4df" points="46.17 350.22 44.67 350.22 45.42 348.92"/><line class="a52e4a0d-ebd2-4ea7-8580-94b8118cea3e" x1="46.92" y1="346.32" x2="195.95" y2="88.2"/><polyline class="bfd55f12-49e5-4073-aab3-d6484209d4df" points="196.69 86.91 197.44 85.61 198.19 86.91"/><line class="a52e4a0d-ebd2-4ea7-8580-94b8118cea3e" x1="199.69" y1="89.5" x2="348.72" y2="347.62"/><polyline class="bfd55f12-49e5-4073-aab3-d6484209d4df" points="349.47 348.92 350.22 350.22 348.72 350.22"/><line class="a52e4a0d-ebd2-4ea7-8580-94b8118cea3e" x1="345.72" y1="350.22" x2="47.67" y2="350.22"/><polyline class="bfd55f12-49e5-4073-aab3-d6484209d4df" points="348.72 44.67 350.22 44.67 349.47 45.97"/><line class="a52e4a0d-ebd2-4ea7-8580-94b8118cea3e" x1="347.97" y1="48.57" x2="198.94" y2="306.69"/><polyline class="bfd55f12-49e5-4073-aab3-d6484209d4df" points="198.19 307.98 197.44 309.28 196.69 307.98"/><line class="a52e4a0d-ebd2-4ea7-8580-94b8118cea3e" x1="195.2" y1="305.39" x2="46.17" y2="47.27"/><polyline class="bfd55f12-49e5-4073-aab3-d6484209d4df" points="45.42 45.97 44.67 44.67 46.17 44.67"/><line class="a52e4a0d-ebd2-4ea7-8580-94b8118cea3e" x1="49.17" y1="44.67" x2="347.22" y2="44.67"/><polyline class="bfd55f12-49e5-4073-aab3-d6484209d4df" points="44.67 46.17 44.67 44.67 45.97 45.42"/><line class="a52e4a0d-ebd2-4ea7-8580-94b8118cea3e" x1="48.57" y1="46.92" x2="306.69" y2="195.95"/><polyline class="bfd55f12-49e5-4073-aab3-d6484209d4df" points="307.98 196.69 309.28 197.44 307.98 198.19"/><line class="a52e4a0d-ebd2-4ea7-8580-94b8118cea3e" x1="305.39" y1="199.69" x2="47.27" y2="348.72"/><polyline class="bfd55f12-49e5-4073-aab3-d6484209d4df" points="45.97 349.47 44.67 350.22 44.67 348.72"/><line class="a52e4a0d-ebd2-4ea7-8580-94b8118cea3e" x1="44.67" y1="345.72" x2="44.67" y2="47.67"/><polyline class="bfd55f12-49e5-4073-aab3-d6484209d4df" points="350.22 348.72 350.22 350.22 348.92 349.47"/><line class="a52e4a0d-ebd2-4ea7-8580-94b8118cea3e" x1="346.32" y1="347.97" x2="88.2" y2="198.94"/><polyline class="bfd55f12-49e5-4073-aab3-d6484209d4df" points="86.91 198.19 85.61 197.44 86.91 196.69"/><line class="a52e4a0d-ebd2-4ea7-8580-94b8118cea3e" x1="89.5" y1="195.2" x2="347.62" y2="46.17"/><polyline class="bfd55f12-49e5-4073-aab3-d6484209d4df" points="348.92 45.42 350.22 44.67 350.22 46.17"/><line class="a52e4a0d-ebd2-4ea7-8580-94b8118cea3e" x1="350.22" y1="49.17" x2="350.22" y2="347.22"/><polygon class="b28a767d-dd93-4de2-9b80-1d98064d1572" points="126.54 44.67 391.15 197.44 126.54 350.22 126.54 44.67"/><polygon class="b28a767d-dd93-4de2-9b80-1d98064d1572" points="268.35 350.22 3.74 197.44 268.35 44.67 268.35 350.22"/><line class="bfd55f12-49e5-4073-aab3-d6484209d4df" x1="44.67" y1="44.67" x2="45.73" y2="45.73"/><line class="a52e4a0d-ebd2-4ea7-8580-94b8118cea3e" x1="47.86" y1="47.86" x2="348.09" y2="348.09"/><line class="bfd55f12-49e5-4073-aab3-d6484209d4df" x1="349.16" y1="349.16" x2="350.22" y2="350.22"/><line class="bfd55f12-49e5-4073-aab3-d6484209d4df" x1="350.22" y1="44.67" x2="349.16" y2="45.73"/><line class="a52e4a0d-ebd2-4ea7-8580-94b8118cea3e" x1="347.03" y1="47.86" x2="46.8" y2="348.09"/><line class="bfd55f12-49e5-4073-aab3-d6484209d4df" x1="45.73" y1="349.16" x2="44.67" y2="350.22"/></g><g id="b4a5a671-35d5-4ad3-91fd-806e38cff007" data-name="EXTRA"><circle cx="3.74" cy="197.44" r="3.74"/><circle cx="391.15" cy="197.44" r="3.74" transform="translate(-25.04 334.41) rotate(-45)"/><circle cx="309.28" cy="197.45" r="3.74" transform="translate(-49.03 276.52) rotate(-45)"/><circle cx="85.61" cy="197.44" r="3.74" transform="translate(-114.53 118.36) rotate(-45)"/><circle cx="197.45" cy="85.61" r="3.74" transform="translate(-2.7 164.69) rotate(-45)"/><circle cx="197.45" cy="309.28" r="3.74" transform="translate(-160.86 230.2) rotate(-45)"/><circle cx="197.45" cy="391.15" r="3.74" transform="translate(-218.75 254.18) rotate(-45)"/><circle cx="197.45" cy="3.74" r="3.74"/><circle cx="126.54" cy="126.53" r="6.37"/><circle cx="268.36" cy="126.53" r="6.37" transform="translate(-16.8 44.63) rotate(-9.22)"/><circle cx="126.56" cy="268.33" r="6.37"/><circle cx="268.36" cy="268.33" r="6.37"/></g></svg>