<svg id="e5e3577c-3196-4bcc-991c-23605a91d116" data-name="Layer 1" xmlns="http://www.w3.org/2000/svg" viewBox="0 0 390.75 350.24"><defs><style>.a69b8d7d-3208-4630-8d21-5b43d5ffe8f8,.b8d144aa-ca37-40d1-838f-443ded7a3fc5,.bab2869f-646c-4fc4-b44c-c4546dd54b87,.bda442a7-c296-4d9f-b205-f410a23aa34a,.beddc5e5-24f3-4647-a8af-4116258ce86c,.fbf63247-250e-4b83-b4b9-857c347591db{fill:none;stroke:#000;stroke-linejoin:round;}.bab2869f-646c-4fc4-b44c-c4546dd54b87,.bda442a7-c296-4d9f-b205-f410a23aa34a,.beddc5e5-24f3-4647-a8af-4116258ce86c,.fbf63247-250e-4b83-b4b9-857c347591db{stroke-width:0.75px;}.beddc5e5-24f3-4647-a8af-4116258ce86c{stroke-dasharray:1.99 1.99;}.a69b8d7d-3208-4630-8d21-5b43d5ffe8f8{stroke-width:1.5px;}.fbf63247-250e-4b83-b4b9-857c347591db{stroke-dasharray:2.02 2.02;}.bda442a7-c296-4d9f-b205-f410a23aa34a{stroke-dasharray:2;}</style></defs><title>08u</title><g id="b4a7c670-3085-4047-8cd3-c562139ed21c" data-name="circles"><circle class="beddc5e5-24f3-4647-a8af-4116258ce86c" cx="195.38" cy="306.15" r="43.68"/><circle class="beddc5e5-24f3-4647-a8af-4116258ce86c" cx="44.07" cy="306.14" r="43.68"/><circle class="a69b8d7d-3208-4630-8d21-5b43d5ffe8f8" cx="195.38" cy="218.79" r="87.36"/><circle class="a69b8d7d-3208-4630-8d21-5b43d5ffe8f8" cx="195.38" cy="131.43" r="43.68"/><circle class="beddc5e5-24f3-4647-a8af-4116258ce86c" cx="195.37" cy="44.07" r="43.68"/><circle class="beddc5e5-24f3-4647-a8af-4116258ce86c" cx="271.03" cy="175.09" r="43.68"/><circle class="a69b8d7d-3208-4630-8d21-5b43d5ffe8f8" cx="119.72" cy="262.47" r="43.68"/><circle class="beddc5e5-24f3-4647-a8af-4116258ce86c" cx="119.72" cy="175.11" r="43.68"/><circle class="b8d144aa-ca37-40d1-838f-443ded7a3fc5" cx="195.38" cy="306.15" r="32.76"/><circle class="b8d144aa-ca37-40d1-838f-443ded7a3fc5" cx="271.03" cy="175.1" r="32.76" transform="translate(54.78 414.59) rotate(-80.78)"/><circle class="b8d144aa-ca37-40d1-838f-443ded7a3fc5" cx="119.72" cy="175.11" r="32.76"/><circle class="a69b8d7d-3208-4630-8d21-5b43d5ffe8f8" cx="271.04" cy="262.47" r="43.68"/><circle class="beddc5e5-24f3-4647-a8af-4116258ce86c" cx="346.69" cy="306.19" r="43.68"/><circle class="fbf63247-250e-4b83-b4b9-857c347591db" cx="195.38" cy="131.43" r="21.84"/><circle class="fbf63247-250e-4b83-b4b9-857c347591db" cx="119.72" cy="262.48" r="21.84"/><path class="fbf63247-250e-4b83-b4b9-857c347591db" d="M260.11,281.38a21.84,21.84,0,1,1,29.83-8h0A21.85,21.85,0,0,1,260.11,281.38Z" transform="translate(0.01 0.01)"/><circle class="bab2869f-646c-4fc4-b44c-c4546dd54b87" cx="346.7" cy="306.15" r="21.84"/><circle class="b8d144aa-ca37-40d1-838f-443ded7a3fc5" cx="44.07" cy="306.15" r="21.84"/><circle class="bab2869f-646c-4fc4-b44c-c4546dd54b87" cx="195.38" cy="44.07" r="21.84"/><circle class="a69b8d7d-3208-4630-8d21-5b43d5ffe8f8" cx="195.38" cy="218.79" r="43.68"/></g><g id="e5e03e95-c116-4de7-b76b-d3cdc3c9cf25" data-name="straight"><polyline class="bab2869f-646c-4fc4-b44c-c4546dd54b87" points="270.04 175.1 271.04 175.1 270.54 175.97"/><line class="beddc5e5-24f3-4647-a8af-4116258ce86c" x1="269.54" y1="177.7" x2="196.38" y2="304.42"/><polyline class="bab2869f-646c-4fc4-b44c-c4546dd54b87" points="195.88 305.29 195.38 306.14 194.88 305.29"/><line class="beddc5e5-24f3-4647-a8af-4116258ce86c" x1="193.89" y1="303.56" x2="120.72" y2="176.84"/><polyline class="bab2869f-646c-4fc4-b44c-c4546dd54b87" points="120.22 175.97 119.72 175.1 120.72 175.1"/><line class="beddc5e5-24f3-4647-a8af-4116258ce86c" x1="122.71" y1="175.11" x2="269.04" y2="175.11"/><polygon class="a69b8d7d-3208-4630-8d21-5b43d5ffe8f8" points="44.07 306.14 195.38 44.06 346.7 306.14 44.07 306.14"/><line class="bda442a7-c296-4d9f-b205-f410a23aa34a" x1="195.38" y1="44.07" x2="195.38" y2="306.15"/><line class="bda442a7-c296-4d9f-b205-f410a23aa34a" x1="44.07" y1="306.15" x2="271.04" y2="175.11"/><line class="bda442a7-c296-4d9f-b205-f410a23aa34a" x1="346.7" y1="306.15" x2="119.72" y2="175.11"/></g></svg>