<svg id="a25f952c-5d7c-4f44-ae0e-dcfd1465b2ed" data-name="Layer 1" xmlns="http://www.w3.org/2000/svg" viewBox="0 0 393.91 362.29"><defs><style>.b5ad61d0-4a0f-42d7-8571-da512a75f347,.bcb1ec54-d013-44b5-9371-938d633f0852{fill:none;}.b5ad61d0-4a0f-42d7-8571-da512a75f347,.bac44d56-7192-496c-ba3b-f3b19b79a591,.bcb1ec54-d013-44b5-9371-938d633f0852{stroke:#000;stroke-miterlimit:10;}.b5ad61d0-4a0f-42d7-8571-da512a75f347{stroke-linecap:round;stroke-width:0.5px;stroke-dasharray:2 2;}.bcb1ec54-d013-44b5-9371-938d633f0852{stroke-width:1.5px;}.bac44d56-7192-496c-ba3b-f3b19b79a591{fill:#fff;}</style></defs><title>14u</title><g id="aa8a4616-c91a-467e-b8d1-34ff1d121241" data-name="circles"><circle class="b5ad61d0-4a0f-42d7-8571-da512a75f347" cx="196.96" cy="180.25" r="71.99" transform="translate(-69.78 192.08) rotate(-45)"/><circle class="b5ad61d0-4a0f-42d7-8571-da512a75f347" cx="196.94" cy="252.25" r="71.99"/><circle class="b5ad61d0-4a0f-42d7-8571-da512a75f347" cx="133.87" cy="290.22" r="71.79" transform="translate(-166.02 179.68) rotate(-45)"/><circle class="b5ad61d0-4a0f-42d7-8571-da512a75f347" cx="259.3" cy="72.26" r="71.99"/><circle class="b5ad61d0-4a0f-42d7-8571-da512a75f347" cx="321.67" cy="180.22" r="71.99" transform="translate(-33.24 280.25) rotate(-45)"/><circle class="b5ad61d0-4a0f-42d7-8571-da512a75f347" cx="72.25" cy="180.26" r="71.99" transform="translate(-106.32 103.9) rotate(-45)"/><circle class="b5ad61d0-4a0f-42d7-8571-da512a75f347" cx="134.59" cy="72.27" r="71.99"/><circle class="b5ad61d0-4a0f-42d7-8571-da512a75f347" cx="259.31" cy="288.23" r="71.99"/><circle class="b5ad61d0-4a0f-42d7-8571-da512a75f347" cx="196.95" cy="108.27" r="71.99"/><circle class="b5ad61d0-4a0f-42d7-8571-da512a75f347" cx="259.3" cy="144.29" r="71.99"/><circle class="b5ad61d0-4a0f-42d7-8571-da512a75f347" cx="134.6" cy="216.26" r="71.99"/><circle class="b5ad61d0-4a0f-42d7-8571-da512a75f347" cx="134.62" cy="144.26" r="71.99" transform="translate(-62.59 137.45) rotate(-45)"/><circle class="b5ad61d0-4a0f-42d7-8571-da512a75f347" cx="259.29" cy="216.24" r="71.99"/><circle class="bcb1ec54-d013-44b5-9371-938d633f0852" cx="196.95" cy="180.26" r="26.35"/><circle class="bcb1ec54-d013-44b5-9371-938d633f0852" cx="72.26" cy="108.27" r="26.35"/><circle class="bcb1ec54-d013-44b5-9371-938d633f0852" cx="72.24" cy="252.27" r="26.35"/><circle class="bcb1ec54-d013-44b5-9371-938d633f0852" cx="196.95" cy="324.25" r="26.35"/><circle class="bcb1ec54-d013-44b5-9371-938d633f0852" cx="196.95" cy="36.27" r="26.35"/><circle class="bcb1ec54-d013-44b5-9371-938d633f0852" cx="321.65" cy="108.25" r="26.35"/><circle class="bcb1ec54-d013-44b5-9371-938d633f0852" cx="321.66" cy="252.27" r="26.35"/></g><g id="be4255a8-fdd8-4d05-bb77-73e6c771bed8" data-name="straight"><polygon class="bcb1ec54-d013-44b5-9371-938d633f0852" points="321.65 108.27 196.95 324.25 72.26 108.27 321.65 108.27"/><polygon class="bcb1ec54-d013-44b5-9371-938d633f0852" points="72.26 252.25 196.95 36.27 321.65 252.25 72.26 252.25"/><line class="bcb1ec54-d013-44b5-9371-938d633f0852" x1="170.6" y1="81.92" x2="170.6" y2="278.6"/><line class="bcb1ec54-d013-44b5-9371-938d633f0852" x1="223.3" y1="81.92" x2="223.3" y2="278.6"/><line class="bcb1ec54-d013-44b5-9371-938d633f0852" x1="124.96" y1="252.25" x2="295.29" y2="153.91"/><line class="bcb1ec54-d013-44b5-9371-938d633f0852" x1="98.61" y1="206.61" x2="268.94" y2="108.27"/><line class="bcb1ec54-d013-44b5-9371-938d633f0852" x1="295.29" y1="206.61" x2="124.96" y2="108.27"/><line class="bcb1ec54-d013-44b5-9371-938d633f0852" x1="268.94" y1="252.25" x2="98.61" y2="153.91"/></g><g id="a9921e44-73f6-478c-9105-237aa2da608d" data-name="EXTRA"><circle class="bac44d56-7192-496c-ba3b-f3b19b79a591" cx="124.96" cy="108.27" r="3.76"/><circle class="bac44d56-7192-496c-ba3b-f3b19b79a591" cx="98.6" cy="153.91" r="3.76"/><circle class="bac44d56-7192-496c-ba3b-f3b19b79a591" cx="98.6" cy="206.61" r="3.76"/><circle class="bac44d56-7192-496c-ba3b-f3b19b79a591" cx="124.96" cy="252.25" r="3.76"/><circle class="bac44d56-7192-496c-ba3b-f3b19b79a591" cx="170.6" cy="278.6" r="3.76"/><circle class="bac44d56-7192-496c-ba3b-f3b19b79a591" cx="223.3" cy="278.6" r="3.76"/><circle class="bac44d56-7192-496c-ba3b-f3b19b79a591" cx="268.94" cy="252.27" r="3.76"/><circle class="bac44d56-7192-496c-ba3b-f3b19b79a591" cx="295.3" cy="206.61" r="3.76"/><circle class="bac44d56-7192-496c-ba3b-f3b19b79a591" cx="295.3" cy="153.91" r="3.76"/><circle class="bac44d56-7192-496c-ba3b-f3b19b79a591" cx="268.94" cy="108.27" r="3.76"/><circle class="bac44d56-7192-496c-ba3b-f3b19b79a591" cx="223.3" cy="81.92" r="3.76"/><circle class="bac44d56-7192-496c-ba3b-f3b19b79a591" cx="170.6" cy="81.92" r="3.76"/></g></svg>