<svg id="f39065ba-03fb-4917-bf6a-c516094bbad3" data-name="Layer 1" xmlns="http://www.w3.org/2000/svg" viewBox="0 0 340.75 348.53"><defs><style>.b408a53e-af40-44c5-a447-b13850ab0a46,.bb05a6a4-e8f2-46d1-8a2a-b5cd9b406ba2,.fbe83e57-91a1-4952-84ae-a191cfc81745{fill:none;}.b408a53e-af40-44c5-a447-b13850ab0a46,.bb05a6a4-e8f2-46d1-8a2a-b5cd9b406ba2,.fa2374ee-9343-411e-a87a-c821b27f1943,.fbe83e57-91a1-4952-84ae-a191cfc81745{stroke:#000;}.b408a53e-af40-44c5-a447-b13850ab0a46,.fa2374ee-9343-411e-a87a-c821b27f1943,.fbe83e57-91a1-4952-84ae-a191cfc81745{stroke-miterlimit:10;}.b408a53e-af40-44c5-a447-b13850ab0a46{stroke-width:0.75px;stroke-dasharray:2;}.bb05a6a4-e8f2-46d1-8a2a-b5cd9b406ba2,.fbe83e57-91a1-4952-84ae-a191cfc81745{stroke-width:1.5px;}.bb05a6a4-e8f2-46d1-8a2a-b5cd9b406ba2{stroke-linecap:round;stroke-linejoin:round;}.fa2374ee-9343-411e-a87a-c821b27f1943{fill:#fff;}</style></defs><title>19u</title><g id="b4cc8536-e0b9-49b5-9c18-d8268532cefe" data-name="circles"><circle class="b408a53e-af40-44c5-a447-b13850ab0a46" cx="170.38" cy="60.91" r="56.67"/><circle class="b408a53e-af40-44c5-a447-b13850ab0a46" cx="170.38" cy="287.6" r="56.67"/><circle class="b408a53e-af40-44c5-a447-b13850ab0a46" cx="72.2" cy="230.93" r="56.67"/><circle class="b408a53e-af40-44c5-a447-b13850ab0a46" cx="268.54" cy="117.58" r="56.67"/><circle class="b408a53e-af40-44c5-a447-b13850ab0a46" cx="268.54" cy="230.93" r="56.67" transform="translate(16.24 479.51) rotate(-85.27)"/><circle class="b408a53e-af40-44c5-a447-b13850ab0a46" cx="72.2" cy="117.58" r="56.67"/><circle class="fbe83e57-91a1-4952-84ae-a191cfc81745" cx="170.38" cy="174.26" r="56.67"/><circle class="b408a53e-af40-44c5-a447-b13850ab0a46" cx="170.38" cy="174.26" r="170"/><circle class="fbe83e57-91a1-4952-84ae-a191cfc81745" cx="170.38" cy="174.26" r="113.35"/></g><g id="fd5973a0-0506-4d71-9d75-c0cdfeb6b8fb" data-name="straight"><polygon class="bb05a6a4-e8f2-46d1-8a2a-b5cd9b406ba2" points="6.79 344.27 170.38 60.93 333.95 344.27 6.79 344.27"/><polygon class="bb05a6a4-e8f2-46d1-8a2a-b5cd9b406ba2" points="333.95 4.24 170.38 287.58 6.79 4.24 333.95 4.24"/><line class="b408a53e-af40-44c5-a447-b13850ab0a46" x1="170.38" y1="4.26" x2="170.38" y2="344.27"/><line class="b408a53e-af40-44c5-a447-b13850ab0a46" x1="23.14" y1="259.26" x2="317.6" y2="89.26"/><line class="b408a53e-af40-44c5-a447-b13850ab0a46" x1="317.6" y1="259.26" x2="23.14" y2="89.26"/></g><g id="a9b920bc-52e8-43c9-96f7-5ae1af6b9976" data-name="EXTRA"><circle class="fa2374ee-9343-411e-a87a-c821b27f1943" cx="170.36" cy="60.9" r="3.76"/><circle class="fa2374ee-9343-411e-a87a-c821b27f1943" cx="170.36" cy="287.62" r="3.76"/><circle class="fa2374ee-9343-411e-a87a-c821b27f1943" cx="72.19" cy="230.94" r="3.76"/><circle class="fa2374ee-9343-411e-a87a-c821b27f1943" cx="268.54" cy="117.58" r="3.76"/><circle class="fa2374ee-9343-411e-a87a-c821b27f1943" cx="333.95" cy="4.26" r="3.76"/><circle class="fa2374ee-9343-411e-a87a-c821b27f1943" cx="6.78" cy="4.26" r="3.76"/><circle class="fa2374ee-9343-411e-a87a-c821b27f1943" cx="333.95" cy="344.27" r="3.76"/><circle class="fa2374ee-9343-411e-a87a-c821b27f1943" cx="104.95" cy="174.25" r="3.76"/><circle class="fa2374ee-9343-411e-a87a-c821b27f1943" cx="235.86" cy="174.25" r="3.76"/><circle class="fa2374ee-9343-411e-a87a-c821b27f1943" cx="6.79" cy="344.27" r="3.76" transform="translate(-1.07 0.02) rotate(-0.18)"/><circle class="fa2374ee-9343-411e-a87a-c821b27f1943" cx="268.54" cy="230.94" r="3.76"/><circle class="fa2374ee-9343-411e-a87a-c821b27f1943" cx="72.19" cy="117.58" r="3.76"/></g></svg>