<svg xmlns="http://www.w3.org/2000/svg" viewBox="0 0 71.26 103.44"><defs><style>.a,.b,.c,.d,.e,.f,.g{fill:none;stroke:#000;stroke-linecap:round;stroke-miterlimit:10;stroke-width:1.25px;}.b{stroke-dasharray:0 2.31;}.c{stroke-dasharray:0 2.66;}.d{stroke-dasharray:0 2.55;}.e{stroke-dasharray:0 2.55;}.f{stroke-dasharray:0 2.66;}.g{stroke-dasharray:0 2.31;}</style></defs><title>01</title><path d="M40.76,19.28c3,4.07,6,8.17,9,12.27s6,8.19,8.89,12.32c5.87,8.25,11.81,16.44,17.62,24.73A.86.86,0,0,1,76,69.81a.82.82,0,0,1-.49.16h0l-34.76.13L6,70a.87.87,0,0,1-.87-.87,1,1,0,0,1,.15-.5C11.09,60.31,17,52.11,22.91,43.86c2.93-4.12,5.91-8.22,8.89-12.31s5.95-8.2,9-12.27c-2.78,4.23-5.6,8.44-8.42,12.64s-5.63,8.42-8.5,12.6C18.13,52.87,12.49,61.28,6.71,69.6L6,68.23l34.76-.13,34.76.13-.71,1.37C69,61.28,63.39,52.87,57.68,44.51c-2.87-4.17-5.68-8.38-8.5-12.59S43.54,23.51,40.76,19.28Z" transform="translate(-5.13)"/><path d="M17.13,49.07a.6.6,0,0,1,.84.09.61.61,0,0,1-.08.84.59.59,0,0,1-.85-.08A.59.59,0,0,1,17.13,49.07Z" transform="translate(-5.13)"/><path d="M15.71,47.11a.62.62,0,0,1,.84.16.6.6,0,0,1-.15.83.59.59,0,0,1-.84-.15A.6.6,0,0,1,15.71,47.11Z" transform="translate(-5.13)"/><path d="M14.47,45a.6.6,0,0,1,.6,1.05.6.6,0,1,1-.6-1.05Z" transform="translate(-5.13)"/><path d="M13.39,42.88a.61.61,0,0,1,.79.29.6.6,0,0,1-.28.8.59.59,0,0,1-.8-.28A.6.6,0,0,1,13.39,42.88Z" transform="translate(-5.13)"/><path d="M12.49,40.64a.6.6,0,0,1,.42,1.13.59.59,0,0,1-.78-.35A.6.6,0,0,1,12.49,40.64Z" transform="translate(-5.13)"/><path d="M11.77,38.34a.6.6,0,0,1,.74.41.62.62,0,0,1-.4.75.6.6,0,0,1-.75-.42A.58.58,0,0,1,11.77,38.34Z" transform="translate(-5.13)"/><path d="M11.24,36a.6.6,0,1,1,.24,1.18.59.59,0,0,1-.71-.47A.6.6,0,0,1,11.24,36Z" transform="translate(-5.13)"/><path d="M10.91,33.59a.6.6,0,0,1,.66.53.61.61,0,0,1-.52.67.6.6,0,1,1-.14-1.2Z" transform="translate(-5.13)"/><path d="M10.77,31.18a.59.59,0,0,1,.61.58.6.6,0,0,1-.57.62.6.6,0,1,1,0-1.2Z" transform="translate(-5.13)"/><path d="M10.82,28.76A.61.61,0,0,1,10.77,30a.61.61,0,1,1,.05-1.21Z" transform="translate(-5.13)"/><path d="M11.06,26.36a.6.6,0,0,1-.15,1.2.6.6,0,1,1,.15-1.2Z" transform="translate(-5.13)"/><path d="M11.49,24a.6.6,0,0,1,.46.71.6.6,0,1,1-.46-.71Z" transform="translate(-5.13)"/><path d="M12.12,21.65a.62.62,0,0,1,.4.75.6.6,0,0,1-.74.41.59.59,0,0,1-.41-.75A.6.6,0,0,1,12.12,21.65Z" transform="translate(-5.13)"/><path d="M12.93,19.38a.6.6,0,0,1,.34.77.61.61,0,0,1-.77.36.6.6,0,0,1-.35-.78A.59.59,0,0,1,12.93,19.38Z" transform="translate(-5.13)"/><path d="M13.92,17.18a.6.6,0,0,1,.28.8.62.62,0,0,1-.8.29.6.6,0,0,1-.28-.81A.59.59,0,0,1,13.92,17.18Z" transform="translate(-5.13)"/><path d="M15.09,15.06a.6.6,0,0,1,.21.82.59.59,0,0,1-.81.23.6.6,0,0,1-.23-.83A.61.61,0,0,1,15.09,15.06Z" transform="translate(-5.13)"/><path d="M16.43,13.05a.63.63,0,0,1,.14.84.6.6,0,0,1-1-.69A.61.61,0,0,1,16.43,13.05Z" transform="translate(-5.13)"/><path d="M17.92,11.15a.61.61,0,0,1-.77.94.61.61,0,0,1,.77-.94Z" transform="translate(-5.13)"/><path d="M19.56,9.38a.6.6,0,1,1-.86,0A.61.61,0,0,1,19.56,9.38Z" transform="translate(-5.13)"/><path d="M21.33,7.74a.6.6,0,0,1-.06.85.61.61,0,0,1-.84-.05.58.58,0,0,1,.05-.85A.59.59,0,0,1,21.33,7.74Z" transform="translate(-5.13)"/><path d="M23.23,6.25a.6.6,0,1,1-.85-.12A.59.59,0,0,1,23.23,6.25Z" transform="translate(-5.13)"/><path d="M25.25,4.92a.61.61,0,0,1-.2.82.6.6,0,0,1-.64-1A.6.6,0,0,1,25.25,4.92Z" transform="translate(-5.13)"/><path d="M27.36,3.75a.6.6,0,0,1-1.07.56.59.59,0,0,1,.25-.81A.61.61,0,0,1,27.36,3.75Z" transform="translate(-5.13)"/><path d="M29.56,2.76a.59.59,0,0,1-.32.78.61.61,0,0,1-.79-.31.6.6,0,1,1,1.11-.47Z" transform="translate(-5.13)"/><path d="M31.84,2a.61.61,0,0,1-.39.75A.6.6,0,1,1,31.84,2Z" transform="translate(-5.13)"/><path d="M34.17,1.33A.6.6,0,0,1,33,1.62a.6.6,0,1,1,1.17-.29Z" transform="translate(-5.13)"/><path d="M36.55.9a.62.62,0,0,1-.51.68.61.61,0,0,1-.69-.49A.61.61,0,1,1,36.55.9Z" transform="translate(-5.13)"/><path d="M39,.66a.59.59,0,0,1-.56.63.61.61,0,0,1-.65-.54A.61.61,0,1,1,39,.66Z" transform="translate(-5.13)"/><path d="M41.36.61a.6.6,0,0,1-1.2,0,.6.6,0,1,1,1.2,0Z" transform="translate(-5.13)"/><path d="M43.77.75A.6.6,0,1,1,43.22.1.59.59,0,0,1,43.77.75Z" transform="translate(-5.13)"/><path d="M46.17,1.09A.61.61,0,0,1,45,.9a.61.61,0,1,1,1.2.19Z" transform="translate(-5.13)"/><path d="M48.52,1.62a.6.6,0,0,1-1.17-.29.6.6,0,1,1,1.17.29Z" transform="translate(-5.13)"/><path d="M50.83,2.33a.59.59,0,0,1-.76.37A.61.61,0,0,1,49.68,2a.61.61,0,0,1,1.15.38Z" transform="translate(-5.13)"/><path d="M53.07,3.23a.61.61,0,0,1-.79.31.6.6,0,1,1,.79-.31Z" transform="translate(-5.13)"/><path d="M55.23,4.31a.6.6,0,0,1-1.07-.56A.59.59,0,0,1,55,3.5.58.58,0,0,1,55.23,4.31Z" transform="translate(-5.13)"/><path d="M57.29,5.56a.59.59,0,0,1-.82.18.6.6,0,1,1,.64-1A.58.58,0,0,1,57.29,5.56Z" transform="translate(-5.13)"/><path d="M59.25,7a.6.6,0,0,1-1-.73.58.58,0,0,1,.84-.12A.6.6,0,0,1,59.25,7Z" transform="translate(-5.13)"/><path d="M61.09,8.54a.61.61,0,0,1-.84.05.6.6,0,0,1-.06-.85.59.59,0,0,1,.85,0A.58.58,0,0,1,61.09,8.54Z" transform="translate(-5.13)"/><path d="M62.8,10.25A.6.6,0,0,1,62,9.38a.6.6,0,1,1,.84.87Z" transform="translate(-5.13)"/><path d="M64.37,12.09a.61.61,0,0,1-.77-.94.61.61,0,0,1,.77.94Z" transform="translate(-5.13)"/><path d="M65.78,14a.6.6,0,0,1-.83-.15.62.62,0,0,1,.14-.84.6.6,0,0,1,.84.15A.59.59,0,0,1,65.78,14Z" transform="translate(-5.13)"/><path d="M67,16.11a.59.59,0,0,1-.81-.23.6.6,0,0,1,.21-.82.6.6,0,0,1,.6,1Z" transform="translate(-5.13)"/><path d="M68.12,18.27a.62.62,0,0,1-.8-.29.61.61,0,0,1,.27-.8.61.61,0,1,1,.53,1.09Z" transform="translate(-5.13)"/><path d="M69,20.51a.61.61,0,0,1-.77-.36.6.6,0,1,1,.77.36Z" transform="translate(-5.13)"/><path d="M69.74,22.81A.6.6,0,0,1,69,22.4a.62.62,0,0,1,.4-.75.6.6,0,0,1,.75.41A.59.59,0,0,1,69.74,22.81Z" transform="translate(-5.13)"/><path d="M70.27,25.17a.61.61,0,1,1,.47-.71A.6.6,0,0,1,70.27,25.17Z" transform="translate(-5.13)"/><path d="M70.61,27.56a.6.6,0,0,1-.15-1.2.6.6,0,0,1,.15,1.2Z" transform="translate(-5.13)"/><path d="M70.75,30a.61.61,0,0,1,0-1.21.61.61,0,1,1,0,1.21Z" transform="translate(-5.13)"/><path d="M70.7,32.38a.6.6,0,0,1,0-1.2.58.58,0,0,1,.58.62A.59.59,0,0,1,70.7,32.38Z" transform="translate(-5.13)"/><path d="M70.47,34.79a.61.61,0,0,1-.52-.67.6.6,0,0,1,.66-.53.6.6,0,1,1-.14,1.2Z" transform="translate(-5.13)"/><path d="M70,37.16A.6.6,0,0,1,70.27,36a.6.6,0,0,1,.48.71A.59.59,0,0,1,70,37.16Z" transform="translate(-5.13)"/><path d="M69.41,39.5a.62.62,0,0,1-.4-.75.6.6,0,0,1,.74-.41.58.58,0,0,1,.41.74A.6.6,0,0,1,69.41,39.5Z" transform="translate(-5.13)"/><path d="M68.61,41.77a.6.6,0,1,1,.78-.35A.6.6,0,0,1,68.61,41.77Z" transform="translate(-5.13)"/><path d="M67.61,44a.6.6,0,0,1,.52-1.09A.6.6,0,1,1,67.61,44Z" transform="translate(-5.13)"/><path d="M66.45,46.09a.6.6,0,1,1,.83-.22A.61.61,0,0,1,66.45,46.09Z" transform="translate(-5.13)"/><path d="M65.12,48.1a.6.6,0,0,1,.68-1A.6.6,0,0,1,66,48,.59.59,0,0,1,65.12,48.1Z" transform="translate(-5.13)"/><path d="M63.63,50a.6.6,0,0,1,.76-.93.6.6,0,1,1-.76.93Z" transform="translate(-5.13)"/><line class="a" x1="6.45" y1="60.86" x2="6.45" y2="60.86"/><line class="b" x1="5.13" y1="58.97" x2="1.83" y2="54.23"/><line class="a" x1="1.17" y1="53.28" x2="1.17" y2="53.28"/><line class="c" x1="3.83" y1="53.28" x2="10.47" y2="53.28"/><line class="a" x1="11.8" y1="53.28" x2="11.8" y2="53.28"/><line class="a" x1="58.89" y1="69.38" x2="58.89" y2="69.38"/><line class="d" x1="57.44" y1="71.47" x2="36.36" y2="101.77"/><line class="a" x1="35.63" y1="102.81" x2="35.63" y2="102.81"/><line class="e" x1="34.18" y1="100.72" x2="13.1" y2="70.43"/><line class="a" x1="12.37" y1="69.38" x2="12.37" y2="69.38"/><line class="a" x1="59.46" y1="53.28" x2="59.46" y2="53.28"/><line class="f" x1="62.12" y1="53.28" x2="68.77" y2="53.28"/><line class="a" x1="70.09" y1="53.28" x2="70.09" y2="53.28"/><line class="g" x1="68.77" y1="55.18" x2="65.47" y2="59.92"/><line class="a" x1="64.81" y1="60.87" x2="64.81" y2="60.87"/></svg>