<svg id="f0abbc72-aa9e-48ad-9f40-0d16aece89c3" data-name="Layer 1" xmlns="http://www.w3.org/2000/svg" viewBox="0 0 202.23 199.2"><defs><style>.b42723b6-c025-4df0-963a-7a4a0e2fa528{fill:#000000;}</style></defs><title>07u</title><g id="ee987519-ae50-437d-a1c8-d30c908edbff" data-name="items"><rect class="b42723b6-c025-4df0-963a-7a4a0e2fa528" x="135.9" y="0.67" width="0.73" height="1.1" transform="translate(17.68 68.36) rotate(-30.03)"/><path class="b42723b6-c025-4df0-963a-7a4a0e2fa528" d="M199.55,111.54l-1.09-1.89.63-.36,1.1,1.89Zm-2.18-3.78-1.09-1.89.63-.36L198,107.4ZM195.18,104l-1.09-1.89.64-.37,1.09,1.89ZM193,100.2l-1.09-1.89.63-.37,1.09,1.89Zm-2.18-3.78-1.1-1.89.64-.37,1.09,1.89Zm-2.19-3.79-1.09-1.89.64-.36,1.09,1.89Zm-2.18-3.78L185.36,87l.63-.36,1.09,1.89Zm-2.18-3.78-1.1-1.89.64-.37,1.09,1.89Zm-2.19-3.78L181,79.4l.64-.37,1.09,1.89Zm-2.18-3.78-1.09-1.89.63-.37,1.09,1.89Zm-2.18-3.79-1.1-1.89.64-.36,1.09,1.89Zm-2.19-3.78-1.09-1.89.64-.36,1.09,1.89Zm-2.18-3.78-1.09-1.89.63-.37L174,65.79Zm-2.18-3.78-1.1-1.89.64-.37L171.8,62ZM169,58.6l-1.09-1.89.63-.37,1.1,1.89Zm-2.18-3.79-1.09-1.89.63-.36,1.09,1.89ZM164.61,51l-1.09-1.89.64-.36,1.09,1.89Zm-2.18-3.78-1.09-1.89L162,45l1.1,1.89Zm-2.18-3.78-1.09-1.89.63-.37,1.09,1.89Zm-2.19-3.78L157,37.8l.64-.37,1.09,1.89Zm-2.18-3.79L154.79,34l.63-.36,1.09,1.89Zm-2.18-3.78-1.09-1.89.63-.36,1.09,1.89Zm-2.19-3.78-1.09-1.89.64-.37L152.15,28Zm-2.18-3.78-1.09-1.89.63-.37L150,24.19Zm-2.18-3.78-1.1-1.89.64-.37,1.09,1.89ZM145,17l-1.09-1.89.64-.36,1.09,1.89Zm-2.18-3.78-1.09-1.89.63-.36,1.09,1.89ZM140.6,9.43l-1.1-1.89.64-.37,1.09,1.89Zm-2.19-3.78-1.09-1.89.64-.37,1.09,1.89Z"/><rect class="b42723b6-c025-4df0-963a-7a4a0e2fa528" x="200.88" y="113.2" width="0.73" height="1.1" transform="translate(-29.91 115.78) rotate(-29.98)"/><rect class="b42723b6-c025-4df0-963a-7a4a0e2fa528" x="135.73" y="0.71" width="0.73" height="1.1" transform="translate(1.86 23.75) rotate(-10.04)"/><path class="b42723b6-c025-4df0-963a-7a4a0e2fa528" d="M165.72,171.39l-.39-2.17.72-.13.39,2.17ZM165,167l-.38-2.17.72-.13.38,2.17Zm-.77-4.34-.38-2.18.72-.12.38,2.17Zm-.76-4.35-.39-2.17.72-.13.39,2.17ZM162.7,154l-.38-2.17.72-.13.38,2.18Zm-.77-4.34-.38-2.18.72-.12.38,2.17Zm-.76-4.35-.39-2.17.73-.13.38,2.17Zm-.77-4.35-.38-2.17.72-.13.38,2.18Zm-.76-4.34-.39-2.18.72-.12.39,2.17Zm-.77-4.35-.39-2.17.73-.13.38,2.17Zm-.77-4.35-.38-2.17.72-.13.38,2.18Zm-.76-4.34-.39-2.18.72-.12.39,2.17Zm-.77-4.35-.38-2.17.72-.13.38,2.17Zm-.77-4.35-.38-2.17.72-.13.38,2.18ZM155,110.5l-.39-2.17.72-.13.39,2.17Zm-.77-4.35-.38-2.17.72-.13L155,106Zm-.77-4.34-.38-2.18.72-.12.38,2.17Zm-.76-4.35-.39-2.17.72-.13.39,2.17ZM152,93.11,151.54,91l.72-.13.38,2.18Zm-.77-4.34-.38-2.18.72-.12.39,2.17Zm-.76-4.35L150,82.29l.73-.13.38,2.17Zm-.77-4.35-.38-2.17.72-.13.38,2.18Zm-.76-4.34-.39-2.18.72-.12.39,2.17Zm-.77-4.35-.38-2.17.72-.13.38,2.17ZM147.37,67,147,64.86l.72-.13L148,67Zm-.76-4.34-.39-2.18.72-.12.39,2.17Zm-.77-4.35-.38-2.17.72-.13.38,2.17ZM145,54l-.38-2.17.72-.13.38,2.18Zm-.76-4.34-.39-2.17.72-.13.39,2.17Zm-.77-4.35-.38-2.17.72-.13.38,2.17ZM142.72,41l-.38-2.18.72-.12.39,2.17ZM142,36.65l-.39-2.17.73-.13.38,2.17Zm-.77-4.35-.38-2.17.72-.13.38,2.18Zm-.81-4.3L140,25.78l.72-.12.39,2.17Zm-.76-4.35-.38-2.17.72-.13.38,2.17Zm-.77-4.35-.38-2.17.72-.13.38,2.18ZM138.13,15l-.39-2.18.72-.12.39,2.17Zm-.77-4.35L137,8.4l.72-.13.38,2.17Zm-.77-4.35-.38-2.17.72-.13.38,2.18Z"/><rect class="b42723b6-c025-4df0-963a-7a4a0e2fa528" x="164.78" y="173.23" width="0.73" height="1.09" transform="translate(-27.27 30.78) rotate(-9.84)"/><rect class="b42723b6-c025-4df0-963a-7a4a0e2fa528" x="135.36" y="0.91" width="1.1" height="0.73" transform="translate(111.08 134.9) rotate(-80.01)"/><path class="b42723b6-c025-4df0-963a-7a4a0e2fa528" d="M102.07,195.26l-.72-.13.38-2.15.72.13Zm.76-4.3-.73-.13.38-2.15.72.13Zm.75-4.3-.72-.12.38-2.15.72.12Zm.76-4.29-.72-.13.38-2.15.72.13Zm.76-4.3-.72-.13.38-2.15.72.13Zm.76-4.3-.72-.13.37-2.14.73.12Zm.75-4.3-.72-.12.38-2.15.72.13Zm.76-4.29-.72-.13.38-2.15.72.13Zm.76-4.3-.72-.13.38-2.15.72.13Zm.76-4.3-.72-.13.38-2.14.72.12Zm.75-4.3-.72-.12.38-2.15.72.13Zm.76-4.29-.72-.13.38-2.15.72.13Zm.76-4.3-.72-.13.38-2.15.72.13Zm.76-4.3-.72-.12.38-2.15.72.12Zm.76-4.29L112,135l.37-2.15.72.13Zm.75-4.3-.72-.13.38-2.15.72.13Zm.76-4.3-.72-.13.38-2.15.72.13Zm.76-4.3-.72-.12.38-2.15.72.12Zm.76-4.29-.72-.13.38-2.15.72.13Zm.75-4.3-.72-.13.38-2.15.72.13Zm.76-4.3-.72-.13.38-2.14.72.12ZM118,105l-.72-.12.38-2.15.72.13Zm.76-4.29-.72-.13.38-2.15.72.13Zm.76-4.3-.73-.13.38-2.15.72.13Zm.75-4.3-.72-.13.38-2.14.72.12Zm.76-4.3-.72-.12.38-2.15.72.13Zm.76-4.29-.72-.13.38-2.15.72.13Zm.76-4.3-.72-.13.37-2.15.73.13Zm.75-4.3-.72-.12.38-2.15.72.12Zm.76-4.29-.72-.13.38-2.15.72.13Zm.76-4.3-.72-.13.38-2.15.72.13Zm.76-4.3-.72-.13.38-2.15.72.13Zm.76-4.3-.73-.12.38-2.15.72.12Zm.75-4.29-.72-.13.38-2.15.72.13Zm.76-4.3-.72-.13.38-2.15.72.13Zm.76-4.3-.72-.13.38-2.14.72.12Zm.76-4.3-.72-.12.37-2.15.73.13Zm.75-4.29-.72-.13.38-2.15.72.13Zm.76-4.3-.72-.13.38-2.15.72.13Zm.76-4.3-.72-.13.38-2.14.72.12Zm.76-4.3-.72-.12.38-2.15.72.13Zm.75-4.29-.72-.13.38-2.15.72.13Zm.76-4.3-.72-.13.38-2.15.72.13Zm.76-4.3-.72-.12.38-2.15.72.12Zm.76-4.3L134.71,6l.38-2.15.72.13Z"/><rect class="b42723b6-c025-4df0-963a-7a4a0e2fa528" x="100.68" y="197.51" width="1.1" height="0.73" transform="translate(-111.21 263.24) rotate(-80.01)"/><rect class="b42723b6-c025-4df0-963a-7a4a0e2fa528" x="135.17" y="0.85" width="1.1" height="0.73" transform="translate(66.85 118.17) rotate(-60.02)"/><path class="b42723b6-c025-4df0-963a-7a4a0e2fa528" d="M37.58,171.92l-.63-.36,1-1.89.63.36Zm2.19-3.78-.64-.36,1.09-1.89.64.36ZM42,164.36l-.64-.36,1.09-1.89.64.37Zm2.18-3.77-.64-.37,1.1-1.89.63.37Zm2.18-3.78-.63-.37,1.09-1.89.63.37ZM48.49,153l-.63-.37L49,150.77l.63.37Zm2.18-3.78-.63-.37L51.13,147l.64.37Zm2.19-3.78-.64-.37,1.09-1.89.64.37ZM55,141.69l-.64-.37,1.09-1.89.64.37Zm2.18-3.78-.63-.36,1.09-1.89.63.36Zm2.18-3.78-.63-.36,1.09-1.89.63.36Zm2.18-3.78L61,130l1-1.9.63.36Zm2.18-3.78-.63-.36,1.09-1.89.64.36ZM66,122.8l-.64-.37,1.09-1.89.64.37Zm2.13-3.8-.64-.37,1.1-1.89.63.37Zm2.18-3.78-.63-.37L70.77,113l.63.37Zm2.18-3.78-.63-.37L73,109.2l.63.37Zm2.18-3.78-.63-.37,1.09-1.89.63.37Zm2.19-3.78-.64-.37,1.09-1.89L78,102ZM79,100.12l-.64-.37,1.09-1.88.64.36Zm2.18-3.78L80.59,96l1.09-1.89.63.36Zm2.18-3.78-.63-.36,1.09-1.89.63.36Zm2.18-3.78L85,88.42l1-1.89.63.36ZM87.76,85l-.63-.37,1.09-1.89.64.37ZM90,81.23l-.64-.37,1-1.86.64.37Zm2.18-3.78-.64-.37,1.1-1.89.63.37Zm2.18-3.78-.63-.37,1.09-1.89.63.37Zm2.18-3.78-.63-.37L97,67.63l.63.37Zm2.18-3.78L98,65.74l1.09-1.89.63.37Zm2.19-3.78-.64-.37,1.09-1.88.64.36ZM103,58.55l-.64-.36,1.09-1.89.64.36Zm2.18-3.78-.63-.36,1.09-1.89.63.36ZM107.4,51l-.63-.36,1.09-1.89.63.36Zm2.18-3.78-.63-.36L110,45l.63.37Zm2.18-3.77-.63-.37,1.09-1.89.64.37ZM114,39.66l-.64-.37,1.09-1.89.64.37Zm2.18-3.78-.64-.37,1.1-1.89.63.37Zm2.18-3.78-.63-.37,1.09-1.89.63.37Zm2.18-3.78-.63-.37L121,26.06l.63.37Zm2.18-3.78-.63-.37,1.09-1.88.63.36Zm2.19-3.78-.64-.36,1.09-1.89.64.36ZM127,17l-.64-.36,1.09-1.89.64.36Zm2.18-3.78-.63-.36L129.68,11l.63.36Zm2.18-3.78-.63-.36,1.09-1.89.63.37Zm2.18-3.77L133,5.28l1-1.89.63.37Z"/><rect class="b42723b6-c025-4df0-963a-7a4a0e2fa528" x="35.35" y="173.73" width="1.1" height="0.73" transform="translate(-132.84 118.19) rotate(-60.02)"/><rect class="b42723b6-c025-4df0-963a-7a4a0e2fa528" x="135.04" y="0.72" width="1.1" height="0.73" transform="translate(31.05 87.44) rotate(-40.02)"/><path class="b42723b6-c025-4df0-963a-7a4a0e2fa528" d="M3.53,112.36l-.47-.56,1.69-1.42.47.56Zm3.39-2.84L6.44,109l1.69-1.42.48.56Zm3.38-2.84-.47-.56,1.69-1.41.47.56Zm3.38-2.83-.47-.56,1.69-1.42.47.56ZM17.06,101l-.47-.56L18.28,99l.47.56Zm3.38-2.84L20,97.61l1.69-1.41.47.56Zm3.38-2.83-.47-.56L25,93.36l.47.56ZM27.2,92.5l-.47-.56,1.69-1.42.47.56Zm3.38-2.84-.47-.56,1.69-1.42.47.57ZM34,86.83l-.47-.56,1.69-1.42.47.56ZM37.34,84l-.47-.56L38.56,82l.47.56Zm3.38-2.84-.47-.56,1.69-1.42.48.56Zm3.39-2.83-.48-.56,1.7-1.42.47.56Zm3.38-2.84L47,74.92l1.69-1.42.47.56Zm3.38-2.84-.47-.56,1.69-1.42.47.56Zm3.38-2.83-.47-.57,1.69-1.41.47.56ZM57.63,67l-.47-.56L58.85,65l.47.56ZM61,64.13l-.47-.56,1.69-1.42.47.56Zm3.38-2.84-.47-.56,1.69-1.42.47.57Zm3.38-2.83-.47-.56L69,56.48l.47.56Zm3.38-2.84-.47-.56,1.69-1.42.47.56Zm3.38-2.84-.47-.56,1.69-1.42.47.56ZM77.92,50l-.48-.56L79.13,48l.48.56Zm3.38-2.84-.47-.56,1.69-1.42.47.56Zm3.38-2.84-.47-.56,1.69-1.42.47.56Zm3.38-2.83-.47-.56,1.69-1.42.47.56Zm3.38-2.84L91,38l1.69-1.42.47.56Zm3.38-2.84-.47-.56L96,33.78l.47.56ZM98.2,33l-.47-.56L99.42,31l.47.56Zm3.38-2.83-.47-.56,1.69-1.42.47.56ZM105,27.25l-.47-.56,1.69-1.42.47.56Zm3.38-2.84-.47-.56,1.69-1.42.4.57Zm3.38-2.83-.47-.56L113,19.6l.48.56Zm3.39-2.84-.48-.56,1.7-1.42.47.56Zm3.38-2.84-.47-.56,1.69-1.42.47.56Zm3.38-2.83-.47-.56,1.69-1.42.47.56Zm3.38-2.84-.47-.56,1.69-1.42.47.56Zm3.38-2.84-.47-.56,1.69-1.42.47.56ZM132,4.56,131.54,4l1.69-1.42.47.56Z"/><rect class="b42723b6-c025-4df0-963a-7a4a0e2fa528" x="0.64" y="113.47" width="1.1" height="0.73" transform="translate(-72.93 27.42) rotate(-40.02)"/><rect class="b42723b6-c025-4df0-963a-7a4a0e2fa528" x="134.92" y="0.55" width="1.1" height="0.73" transform="translate(7.83 46.3) rotate(-19.96)"/><path class="b42723b6-c025-4df0-963a-7a4a0e2fa528" d="M16.08,44.77l-.25-.69,2-.75.25.69Zm4.11-1.5-.25-.68,2-.75.25.69Zm4.1-1.49L24,41.09l2.05-.74.25.68Zm4.1-1.49-.25-.69,2.05-.75.25.69Zm4.11-1.5-.25-.69,2-.74.25.69Zm4.1-1.49-.25-.69,2-.75.25.69Zm4.1-1.49-.25-.69,2.06-.75.25.69Zm4.11-1.5-.25-.69,2-.74.25.69Zm4.1-1.49-.25-.69,2.05-.75.25.69Zm4.1-1.5-.25-.68,2.06-.75.25.69Zm4.11-1.49-.25-.69,2.05-.74.25.68Zm4.1-1.49L61,27.65l2-.75.25.69Zm4.11-1.5-.25-.68,2-.75.25.69Zm4.1-1.49-.25-.69,2-.75.25.69Zm4.1-1.49-.25-.69,2.06-.75.25.69Zm4.11-1.5-.25-.69,2-.74.25.69Zm4.1-1.49-.25-.69,2.05-.75.25.69Zm4.1-1.49-.25-.69,2.06-.75.25.69ZM90,17.88l-.25-.69,2-.74.25.69Zm4.1-1.49-.25-.69,2-.75.25.69Zm4.11-1.5L98,14.21l2-.75.25.69Zm4.1-1.49-.25-.69,2-.74.25.68Zm4.1-1.49-.25-.69,2.06-.75.25.69Zm4.11-1.5-.25-.68,2-.75.25.69Zm4.1-1.49-.25-.69,2-.74.25.68Zm4.1-1.49-.25-.69,2-.74.25.69Zm4.11-1.5-.25-.69,2-.74.25.69Zm4.1-1.49-.25-.69,2-.75.25.69ZM131,3l-.25-.69,2-.75.25.69Z"/><rect class="b42723b6-c025-4df0-963a-7a4a0e2fa528" x="12.84" y="44.98" width="1.1" height="0.73" transform="translate(-14.68 7.29) rotate(-19.96)"/><rect class="b42723b6-c025-4df0-963a-7a4a0e2fa528" x="188.75" y="45.71" width="1.1" height="0.73" transform="translate(111.08 224.51) rotate(-80.01)"/><path class="b42723b6-c025-4df0-963a-7a4a0e2fa528" d="M167.58,171.41l-.72-.13.38-2.15.72.13Zm.76-4.3-.72-.13.38-2.15.72.13Zm.76-4.3-.72-.13.38-2.15.72.13Zm.76-4.3-.72-.13.37-2.15.73.13Zm.75-4.3-.72-.13.38-2.15.72.13Zm.76-4.3-.72-.13.38-2.15.72.13Zm.76-4.3-.72-.13.38-2.15.72.13Zm.76-4.3-.72-.13.38-2.15.72.13Zm.76-4.3-.72-.13.38-2.15.72.13Zm.76-4.3-.72-.13.37-2.15.73.13Zm.75-4.31-.72-.12.38-2.15.72.12Zm.76-4.3-.72-.12.38-2.15.72.12Zm.76-4.3-.72-.12.38-2.15.72.12Zm.76-4.3-.72-.12.38-2.15.72.12Zm.76-4.3-.72-.13.38-2.15.72.13Zm.76-4.3-.72-.13.37-2.15.73.13Zm.75-4.3-.72-.13.38-2.15.72.13Zm.76-4.3-.72-.13.38-2.15.72.13Zm.76-4.3-.72-.13.38-2.15.72.13Zm.76-4.3-.72-.13.38-2.15.72.13Zm.76-4.3-.72-.13.38-2.15.72.13Zm.76-4.3-.72-.13.37-2.15.72.13Zm.75-4.3-.72-.13.38-2.15.72.13Zm.76-4.3-.72-.13.38-2.15.72.12Zm.76-4.31-.72-.12.38-2.15.72.12Zm.76-4.3-.72-.12.38-2.15.72.12Zm.76-4.3-.72-.12.38-2.15.72.12Zm.76-4.3-.72-.12.37-2.15.72.12Zm.75-4.3-.72-.13.38-2.15.72.13Z"/><rect class="b42723b6-c025-4df0-963a-7a4a0e2fa528" x="166.2" y="173.68" width="1.1" height="0.73" transform="translate(-33.58 308.08) rotate(-80.01)"/><rect class="b42723b6-c025-4df0-963a-7a4a0e2fa528" x="188.57" y="45.64" width="1.1" height="0.73" transform="translate(54.76 186.83) rotate(-60.02)"/><path class="b42723b6-c025-4df0-963a-7a4a0e2fa528" d="M103.11,195.75l-.64-.37,1.11-1.91.63.36Zm2.2-3.83-.63-.36,1.1-1.91.64.36Zm2.21-3.82-.63-.37,1.1-1.91.63.37Zm2.21-3.82-.64-.37L110.2,182l.63.37Zm2.2-3.82-.63-.37,1.1-1.91.64.37Zm2.21-3.83-.63-.36,1.1-1.91.64.36Zm2.21-3.82-.64-.36,1.11-1.92.63.37Zm2.2-3.82-.63-.37,1.1-1.91.64.37Zm2.21-3.82-.63-.37,1.1-1.91.64.37Zm2.21-3.82-.64-.37,1.11-1.91.63.36Zm2.2-3.83-.63-.36,1.1-1.91.64.36Zm2.21-3.82-.63-.37,1.1-1.91.64.37Zm2.21-3.82-.64-.37,1.11-1.91.63.37Zm2.21-3.82-.64-.37,1.1-1.91.64.37Zm2.2-3.83-.63-.36,1.1-1.91.64.36Zm2.21-3.82-.64-.36,1.11-1.91.63.36Zm2.21-3.82-.64-.37,1.1-1.91.64.37Zm2.2-3.82-.63-.37,1.1-1.91.64.37Zm2.21-3.82-.64-.37,1.11-1.91.63.36Zm2.21-3.83-.64-.36,1.1-1.91.64.36Zm2.2-3.82-.63-.37,1.1-1.91.64.37Zm2.21-3.82-.64-.37,1.11-1.91.63.37Zm2.21-3.82-.64-.37,1.11-1.91.63.37Zm2.2-3.83-.63-.36,1.1-1.91.64.36Zm2.21-3.82-.64-.36,1.11-1.91.63.36Zm2.21-3.82-.64-.37,1.11-1.91.63.37Zm2.2-3.82-.63-.37,1.1-1.91.64.37Zm2.21-3.82-.64-.37,1.11-1.91.63.36Zm2.21-3.83-.64-.36,1.11-1.91.63.36Zm2.2-3.82-.63-.36,1.1-1.92.64.37Zm2.21-3.82-.64-.37,1.11-1.91.63.37Zm2.21-3.82-.64-.37L172,75l.63.37Zm2.2-3.83-.63-.36,1.1-1.91.64.36Zm2.21-3.82-.63-.36,1.1-1.91.63.36Zm2.21-3.82-.64-.37,1.11-1.91.63.37Zm2.2-3.82-.63-.37,1.1-1.91.64.37Zm2.21-3.82-.63-.37,1.1-1.91.63.37Zm2.21-3.83-.64-.36,1.11-1.91.63.36ZM187,50.5l-.63-.36,1.1-1.92.64.37Z"/><rect class="b42723b6-c025-4df0-963a-7a4a0e2fa528" x="100.85" y="197.57" width="1.1" height="0.73" transform="translate(-120.72 186.86) rotate(-60.02)"/><rect class="b42723b6-c025-4df0-963a-7a4a0e2fa528" x="188.44" y="45.54" width="1.1" height="0.73" transform="translate(14.74 132.28) rotate(-40.02)"/><path class="b42723b6-c025-4df0-963a-7a4a0e2fa528" d="M38.37,172.75l-.47-.56,1.67-1.4.48.56Zm3.35-2.8-.47-.56L42.92,168l.47.56Zm3.34-2.81-.47-.56,1.67-1.4.47.56Zm3.34-2.8-.47-.56,1.67-1.41.47.56Zm3.34-2.81-.47-.56,1.68-1.4.47.56Zm3.35-2.8-.47-.56,1.67-1.41.47.57Zm3.34-2.81-.47-.56,1.67-1.4.47.56Zm3.34-2.8-.47-.56,1.7-1.41.47.57Zm3.35-2.81-.48-.56,1.68-1.4.47.56Zm3.34-2.8L68,147l1.67-1.41.47.57Zm3.34-2.81-.47-.56,1.67-1.4.47.56Zm3.34-2.8-.47-.56,1.67-1.41.48.57Zm3.35-2.81-.47-.56,1.67-1.4.47.56Zm3.34-2.8-.47-.56,1.67-1.4.47.56Zm3.34-2.81-.47-.56,1.67-1.4.47.56Zm3.34-2.8-.47-.56,1.67-1.4.48.56Zm3.35-2.81-.47-.56,1.67-1.4.47.56Zm3.34-2.8-.47-.56,1.67-1.4.47.56Zm3.34-2.81-.47-.56,1.67-1.4.47.56Zm3.35-2.8-.47-.56,1.67-1.4.47.56Zm3.34-2.81-.47-.56,1.67-1.4.47.56Zm3.34-2.8-.47-.56,1.67-1.4.47.56Zm3.34-2.81-.47-.56,1.67-1.4.48.56Zm3.35-2.8-.47-.56,1.67-1.4.47.56Zm3.34-2.81-.47-.56,1.67-1.4.47.56Zm3.34-2.8-.47-.56,1.67-1.4.47.56Zm3.34-2.81-.47-.56,1.68-1.4.47.56Zm3.35-2.8-.47-.56,1.67-1.4.47.56ZM132,94.21l-.47-.56,1.67-1.4.47.56Zm3.34-2.8-.47-.56,1.67-1.4L137,90Zm3.35-2.81-.48-.56,1.68-1.4.47.56ZM142,85.8l-.47-.56,1.67-1.4.47.56Zm3.34-2.8-.47-.57,1.67-1.4.47.56Zm3.34-2.81-.47-.56,1.67-1.4.48.56Zm3.35-2.8-.47-.57,1.67-1.4.47.56Zm3.34-2.81L154.9,74l1.67-1.4.47.56Zm3.34-2.8-.47-.56,1.67-1.41.47.56ZM162.05,69l-.47-.56,1.67-1.4.48.56Zm3.35-2.8-.47-.56,1.67-1.41.47.56Zm3.34-2.81-.47-.56,1.67-1.4.47.56Zm3.34-2.8-.47-.56,1.67-1.41.47.56Zm3.35-2.81-.47-.56,1.67-1.4.47.56Zm3.34-2.8-.47-.56L180,53l.47.56Zm3.34-2.81-.47-.56,1.67-1.4.47.56Zm3.34-2.8-.47-.56,1.67-1.41.48.56Z"/><rect class="b42723b6-c025-4df0-963a-7a4a0e2fa528" x="35.49" y="173.87" width="1.1" height="0.73" transform="translate(-103.6 63.98) rotate(-40.02)"/><rect class="b42723b6-c025-4df0-963a-7a4a0e2fa528" x="188.34" y="45.38" width="1.1" height="0.73" transform="translate(-4.26 67.29) rotate(-19.98)"/><path class="b42723b6-c025-4df0-963a-7a4a0e2fa528" d="M4,113.43l-.25-.69,2-.75.25.69Zm4.11-1.5-.25-.69,2.05-.74.25.69Zm4.09-1.49-.25-.69L14,109l.25.68ZM16.28,109l-.25-.69,2-.75.25.69Zm4.1-1.49-.25-.69,2.05-.75.25.69Zm4.1-1.5-.25-.69,2.05-.74.25.69Zm4.1-1.49-.25-.69,2.05-.74.25.68Zm4.1-1.49-.25-.69,2-.75.25.69Zm4.1-1.49-.25-.69,2-.75.25.69Zm4.1-1.5-.25-.68,2-.75.25.69ZM45,98.5l-.25-.69,2-.74.25.68ZM49.08,97l-.25-.69,2.05-.75.25.69Zm4.1-1.49-.25-.69,2-.75.25.69Zm4.1-1.5L57,93.34l2-.75.25.69Zm4.1-1.49-.25-.69,2-.74.25.69ZM65.48,91l-.25-.69,2-.75.25.69Zm4.1-1.49-.25-.69,2-.75.25.69Zm4.1-1.5-.25-.68,2-.75.25.69Zm4.1-1.49-.25-.69,2-.74.25.69ZM81.88,85l-.25-.69,2.05-.75.25.69ZM86,83.58l-.25-.69,2-.75.25.69Zm4.1-1.5-.25-.68,2-.75.25.69Zm4.1-1.49L94,79.9l2-.74.25.69Zm4.11-1.49L98,78.41l2-.75.25.69Zm4.1-1.49-.25-.69,2-.75.25.69Zm4.1-1.5-.25-.68,2-.75.25.69Zm4.1-1.49-.25-.69,2-.74.25.69Zm4.1-1.49-.25-.69,2-.75.25.69Zm4.1-1.49-.25-.69,2-.75.25.69Zm4.1-1.5-.25-.68,2-.75.25.69Zm4.1-1.49-.25-.69,2-.74.25.69Zm4.1-1.49-.25-.69,2-.74.25.68Zm4.1-1.49L135,65l2-.75.25.69Zm4.1-1.5-.25-.68,2.05-.75.25.69Zm4.1-1.49-.25-.69,2.05-.74.25.69Zm4.1-1.49-.25-.69,2-.74.25.68Zm4.1-1.49-.25-.69,2-.75.25.69Zm4.1-1.49-.25-.69,2-.75.25.69Zm4.1-1.5-.25-.69,2.05-.74.25.69Zm4.1-1.49-.25-.69,2.05-.74.25.68Zm4.1-1.49-.25-.69,2-.75L170,53Zm4.1-1.49-.25-.69,2-.75.25.69Zm4.1-1.5-.25-.69,2-.74.25.69Zm4.11-1.49-.25-.69,2-.74.25.68Zm4.1-1.49-.25-.69,2-.75.25.69Z"/><rect class="b42723b6-c025-4df0-963a-7a4a0e2fa528" x="0.72" y="113.65" width="1.1" height="0.73" transform="translate(-38.88 7.3) rotate(-19.98)"/><rect class="b42723b6-c025-4df0-963a-7a4a0e2fa528" x="188.3" y="45.18" width="1.1" height="0.73"/><path class="b42723b6-c025-4df0-963a-7a4a0e2fa528" d="M186.1,45.91h-2.21v-.73h2.21Zm-4.42,0h-2.2v-.73h2.2Zm-4.41,0h-2.21v-.73h2.21Zm-4.41,0h-2.21v-.73h2.21Zm-4.42,0h-2.2v-.73h2.2Zm-4.41,0h-2.21v-.73H164Zm-4.41,0h-2.21v-.73h2.21Zm-4.42,0H153v-.73h2.2Zm-4.41,0h-2.21v-.73h2.21Zm-4.41,0h-2.21v-.73h2.21Zm-4.42,0h-2.2v-.73H142Zm-4.41,0h-2.21v-.73h2.21Zm-4.41,0h-2.21v-.73h2.21Zm-4.42,0h-2.2v-.73h2.2Zm-4.41,0H122.1v-.73h2.21Zm-4.41,0h-2.21v-.73h2.21Zm-4.42,0h-2.2v-.73h2.2Zm-4.41,0h-2.21v-.73h2.21Zm-4.41,0h-2.21v-.73h2.21Zm-4.42,0H100v-.73h2.21Zm-4.41,0H95.62v-.73h2.21Zm-4.42,0h-2.2v-.73h2.2Zm-4.41,0H86.79v-.73H89Zm-4.41,0H82.38v-.73h2.21Zm-4.42,0H78v-.73h2.2Zm-4.41,0H73.55v-.73h2.21Zm-4.41,0H69.14v-.73h2.21Zm-4.42,0h-2.2v-.73h2.2Zm-4.41,0H60.31v-.73h2.21Zm-4.41,0H55.9v-.73h2.21Zm-4.42,0h-2.2v-.73h2.2Zm-4.41,0H47.07v-.73h2.21Zm-4.41,0H42.66v-.73h2.21Zm-4.42,0h-2.2v-.73h2.2Zm-4.41,0H33.83v-.73H36Zm-4.41,0H29.42v-.73h2.21Zm-4.42,0H25v-.73h2.2Zm-4.41,0H20.59v-.73H22.8Zm-4.41,0H16.18v-.73h2.21Z"/><rect class="b42723b6-c025-4df0-963a-7a4a0e2fa528" x="12.87" y="45.18" width="1.1" height="0.73"/><rect class="b42723b6-c025-4df0-963a-7a4a0e2fa528" x="188.52" y="44.8" width="0.73" height="1.1" transform="translate(81.72 207.37) rotate(-70.02)"/><path class="b42723b6-c025-4df0-963a-7a4a0e2fa528" d="M186.19,44.77,184.14,44l.25-.69,2.05.75Zm-4.1-1.5L180,42.53l.25-.69,2.05.75ZM178,41.78,175.93,41l.25-.68,2.06.74Zm-4.11-1.49-2-.75.25-.69,2,.75Zm-4.1-1.5-2-.74.25-.69,2,.74Zm-4.11-1.49-2-.75.25-.69,2,.75Zm-4.1-1.49-2-.75.25-.69,2,.75Zm-4.1-1.5-2-.74.25-.69,2,.74Zm-4.11-1.49-2.05-.75.25-.69,2.05.75Zm-4.1-1.49-2-.75.25-.69,2,.75Zm-4.1-1.5-2.06-.75.25-.68,2.06.74Zm-4.11-1.49L139,27.59l.25-.69,2.05.75Zm-4.1-1.5-2-.74.25-.69,2,.75Zm-4.1-1.49-2.06-.75.25-.69,2.06.75Zm-4.11-1.49-2-.75.25-.69,2,.75Zm-4.1-1.5-2-.74.25-.69,2,.74Zm-4.11-1.49-2-.75.25-.69,2,.75Zm-4.1-1.49-2-.75.25-.69,2,.75Zm-4.1-1.5-2-.74.25-.69,2,.74Zm-4.11-1.49-2-.75.25-.69,2,.75Zm-4.1-1.5-2-.74.25-.69,2,.75ZM100,13.4l-2-.75.25-.68,2.06.74Zm-4.11-1.49-2-.75.25-.69,2,.75Zm-4.1-1.5-2-.74L90,9l2,.75Zm-4.1-1.49-2.06-.75.25-.68L88,8.23ZM83.6,7.43l-2-.75L81.8,6l2,.75Zm-4.1-1.5-2-.74.25-.69,2,.74ZM75.39,4.44l-2-.75.2-.69,2,.75ZM71.29,3l-2.05-.8.25-.69,2.05.75Z"/><rect class="b42723b6-c025-4df0-963a-7a4a0e2fa528" x="66.43" y="0.37" width="0.73" height="1.1" transform="matrix(0.34, -0.94, 0.94, 0.34, 43.1, 63.38)"/><rect class="b42723b6-c025-4df0-963a-7a4a0e2fa528" x="200.54" y="114.2" width="1.1" height="0.73" transform="translate(-26.58 156.14) rotate(-40.02)"/><path class="b42723b6-c025-4df0-963a-7a4a0e2fa528" d="M103.89,196.6l-.47-.57,1.67-1.4.47.56Zm3.34-2.81-.47-.56,1.67-1.41.48.56Zm3.35-2.81-.47-.56,1.67-1.4.47.56Zm3.34-2.81-.47-.56,1.68-1.4.47.56Zm3.35-2.8-.47-.56,1.67-1.41.47.56Zm3.34-2.81-.47-.56,1.68-1.4.47.56Zm3.35-2.81-.47-.56,1.67-1.4.47.56Zm3.34-2.8-.47-.56,1.68-1.41.47.56Zm3.35-2.81-.47-.56,1.67-1.41.47.56Zm3.35-2.81-.47-.56,1.67-1.4.47.56Zm3.34-2.81-.47-.56,1.67-1.4.47.56Zm3.35-2.8-.47-.56,1.67-1.41.47.56Zm3.34-2.81-.47-.56,1.67-1.4.48.56Zm3.35-2.81-.47-.56,1.67-1.4.47.56Zm3.34-2.8-.47-.56,1.67-1.41.48.56Zm3.35-2.81-.47-.56,1.67-1.41.47.57Zm3.34-2.81-.47-.56,1.68-1.4.47.56Zm3.35-2.8-.47-.57,1.67-1.4.47.56Zm3.34-2.81-.47-.56,1.68-1.41.47.56Zm3.35-2.81-.47-.56,1.67-1.4.47.56Zm3.35-2.81-.48-.56,1.68-1.4.47.56Zm3.34-2.8-.47-.56,1.67-1.41.47.56Zm3.35-2.81-.48-.56,1.68-1.4.47.56Zm3.34-2.81-.47-.56,1.67-1.4.47.56Zm3.35-2.8-.47-.57,1.67-1.4.47.56Zm3.34-2.81-.47-.56,1.67-1.41.47.56Zm3.35-2.81-.47-.56,1.67-1.4.47.56Zm3.34-2.81-.47-.56,1.67-1.4.47.56Zm3.35-2.8-.47-.56,1.67-1.41.47.56Z"/><rect class="b42723b6-c025-4df0-963a-7a4a0e2fa528" x="101.02" y="197.71" width="1.1" height="0.73" transform="translate(-103.59 111.7) rotate(-40.02)"/><rect class="b42723b6-c025-4df0-963a-7a4a0e2fa528" x="200.45" y="114.02" width="1.1" height="0.73" transform="translate(-26.97 75.48) rotate(-19.96)"/><path class="b42723b6-c025-4df0-963a-7a4a0e2fa528" d="M38.86,173.79l-.25-.69,2.07-.75.25.69ZM43,172.28l-.25-.68,2.08-.76.25.69Zm4.15-1.51-.25-.68,2.07-.76.25.69Zm4.15-1.5-.25-.69,2.07-.76.25.69Zm4.15-1.51-.25-.69,2.07-.76.25.69Zm4.14-1.51-.25-.69,2.08-.76.25.69Zm4.15-1.51-.25-.69,2.07-.76.25.69Zm4.15-1.51-.25-.69,2.07-.76.25.69ZM72,161.72l-.25-.69,2.07-.76.25.69Zm4.14-1.51-.25-.69,2.08-.76.25.69Zm4.15-1.51L80,158l2.07-.75.25.68Zm4.15-1.51-.25-.69,2.07-.75.25.68Zm4.14-1.51-.25-.69,2.08-.75.25.68Zm4.15-1.51-.25-.69,2.08-.75.25.68Zm4.15-1.51-.25-.69,2.07-.75.25.69Zm4.15-1.51-.25-.69,2.07-.75.25.69Zm4.14-1.51L105,149l2.08-.75.25.69Zm4.15-1.51-.25-.69,2.07-.75.25.69Zm4.15-1.51-.25-.69,2.07-.75.25.69Zm4.15-1.51-.25-.69,2.07-.75.25.69Zm4.14-1.51-.25-.69,2.08-.75.25.69Zm4.15-1.51-.25-.68,2.07-.76.25.69Zm4.15-1.51-.25-.68,2.07-.76.25.69Zm4.15-1.5-.25-.69,2.07-.76.25.69Zm4.14-1.51-.25-.69,2.08-.76.25.69Zm4.15-1.51-.25-.69,2.07-.76.25.69Zm4.15-1.51-.25-.69,2.07-.76.25.69Zm4.14-1.51-.25-.69,2.08-.76.25.69Zm4.15-1.51-.25-.69,2.07-.76.25.69Zm4.15-1.51-.25-.69,2.07-.76.25.69Zm4.15-1.51-.25-.69,2.07-.75.25.68Zm4.14-1.51-.25-.69,2.08-.75.25.68Zm4.15-1.51-.25-.69,2.07-.75.25.68Zm4.15-1.51-.25-.69,2.07-.75.25.69Zm4.15-1.51-.25-.69,2.07-.75.25.69ZM184,121l-.25-.69,2.08-.75.25.69Zm4.15-1.51-.25-.69,2.1-.8.25.69ZM192.3,118l-.25-.69,2.07-.75.25.69Zm4.15-1.51-.25-.69,2.07-.75.25.69Z"/><rect class="b42723b6-c025-4df0-963a-7a4a0e2fa528" x="35.6" y="174.03" width="1.1" height="0.73" transform="matrix(0.94, -0.34, 0.34, 0.94, -57.36, 22.82)"/><rect class="b42723b6-c025-4df0-963a-7a4a0e2fa528" x="200.41" y="113.84" width="1.1" height="0.73"/><path class="b42723b6-c025-4df0-963a-7a4a0e2fa528" d="M198.23,114.57h-2.18v-.73h2.18Zm-4.36,0h-2.19v-.73h2.19Zm-4.37,0h-2.18v-.73h2.18Zm-4.36,0H183v-.73h2.18Zm-4.37,0h-2.18v-.73h2.18Zm-4.36,0h-2.18v-.73h2.18Zm-4.36,0h-2.18v-.73h2.18Zm-4.37,0H165.5v-.73h2.18Zm-4.36,0h-2.18v-.73h2.18Zm-4.36,0h-2.19v-.73H159Zm-4.37,0h-2.18v-.73h2.18Zm-4.36,0h-2.18v-.73h2.18Zm-4.36,0h-2.19v-.73h2.19Zm-4.37,0h-2.18v-.73h2.18Zm-4.36,0H135v-.73h2.18Zm-4.37,0h-2.18v-.73h2.18Zm-4.36,0h-2.18v-.73h2.18Zm-4.36,0h-2.18v-.73h2.18Zm-4.37,0H117.5v-.73h2.18Zm-4.36,0h-2.18v-.73h2.18Zm-4.36,0h-2.19v-.73H111Zm-4.37,0h-2.18v-.73h2.18Zm-4.36,0h-2.18v-.73h2.18Zm-4.36,0H95.68v-.73h2.19Zm-4.37,0H91.32v-.73H93.5Zm-4.36,0H87v-.73h2.18Zm-4.37,0H82.59v-.73h2.18Zm-4.36,0H78.23v-.73h2.18Zm-4.36,0H73.87v-.73h2.18Zm-4.37,0H69.5v-.73h2.18Zm-4.36,0H65.14v-.73h2.18Zm-4.36,0H60.77v-.73H63Zm-4.37,0H56.41v-.73h2.18Zm-4.36,0H52.05v-.73h2.18Zm-4.36,0H47.68v-.73h2.19Zm-4.37,0H43.32v-.73H45.5Zm-4.36,0H39v-.73h2.18Zm-4.37,0H34.59v-.73h2.18Zm-4.36,0H30.23v-.73h2.18Zm-4.36,0H25.87v-.73h2.18Zm-4.37,0H21.5v-.73h2.18Zm-4.36,0H17.14v-.73h2.18Zm-4.36,0H12.77v-.73H15Zm-4.37,0H8.41v-.73h2.18Zm-4.36,0H4.05v-.73H6.23Z"/><rect class="b42723b6-c025-4df0-963a-7a4a0e2fa528" x="0.77" y="113.84" width="1.1" height="0.73"/><rect class="b42723b6-c025-4df0-963a-7a4a0e2fa528" x="200.63" y="113.46" width="0.73" height="1.1" transform="translate(25.09 263.86) rotate(-69.99)"/><path class="b42723b6-c025-4df0-963a-7a4a0e2fa528" d="M198.3,113.43l-2.05-.75.25-.69,2.05.75Zm-4.1-1.5-2-.74.25-.69,2,.74Zm-4.1-1.49-2-.75.25-.68,2,.74ZM186,109l-2-.8.25-.69,2.05.75Zm-4.1-1.49-2.05-.75.25-.69,2.05.75Zm-4.1-1.5-2.05-.74.25-.69,2.05.74Zm-4.1-1.49-2-.74.25-.69,2,.74ZM169.6,103l-2-.75.25-.69,2,.75Zm-4.1-1.49-2.05-.75.25-.69,2.05.75Zm-4.1-1.5-2.05-.74.25-.69,2.05.75Zm-4.1-1.49-2.05-.75.25-.68,2.05.74ZM153.2,97l-2-.75.25-.69,2,.75Zm-4.1-1.49-2-.75.25-.69,2,.75ZM145,94l-2-.72.25-.69,2.05.75Zm-4.1-1.49-2.06-.74.25-.69,2.06.74ZM136.8,91l-2.06-.75.25-.69,2.06.75Zm-4.11-1.49-2.05-.75.25-.69,2.05.75Zm-4.1-1.5-2-.74.25-.69,2,.75Zm-4.1-1.49-2-.74.25-.69,2,.74ZM120.39,85l-2-.75.25-.69,2,.75Zm-4.1-1.49-2.05-.75.25-.69,2.05.75Zm-4.1-1.5-2-.74.25-.69,2,.75Zm-4.1-1.49-2-.74.25-.69,2,.74ZM104,79.1l-2-.75.25-.69,2,.75Zm-4.1-1.49-2-.75.25-.69,2,.75Zm-4.1-1.5-2-.74.25-.69,2,.75Zm-4.1-1.49-2-.74.25-.69,2,.74Zm-4.1-1.49-2-.75.25-.68,2,.74Zm-4.1-1.49-2-.75.25-.69,2,.75Zm-4.1-1.5-2-.74.25-.69,2,.75Zm-4.1-1.49-2-.74.25-.69,2,.74Zm-4.1-1.49-2-.75.25-.68,2,.74Zm-4.1-1.49-2-.75.25-.69,2,.75ZM63,64.17l-2-.74.25-.69,2,.75Zm-4.1-1.49-2-.74.25-.69,2,.74Zm-4.1-1.49-2-.75.25-.68,2,.74ZM50.68,59.7l-2-.75.25-.69,2,.75Zm-4.1-1.49-2-.75.25-.69,2,.75Zm-4.1-1.5-2-.74.25-.69,2,.74Zm-4.1-1.49-2.05-.75.25-.68,2.05.74Zm-4.1-1.49L32.23,53l.25-.69,2.05.75Zm-4.1-1.49-2.05-.75.25-.69,2.05.75Zm-4.1-1.5L24,50l.25-.69,2,.74ZM22,49.25,20,48.5l.25-.68,2.05.74Zm-4.1-1.49-2-.75.25-.69,2.05.75Z"/><rect class="b42723b6-c025-4df0-963a-7a4a0e2fa528" x="13.02" y="45.19" width="0.73" height="1.1" transform="translate(-34.17 42.66) rotate(-69.98)"/><rect class="b42723b6-c025-4df0-963a-7a4a0e2fa528" x="200.71" y="113.29" width="0.73" height="1.1" transform="translate(-15.41 194.62) rotate(-49.98)"/><path class="b42723b6-c025-4df0-963a-7a4a0e2fa528" d="M198.74,112.36l-1.69-1.42.47-.56,1.69,1.42Zm-3.38-2.84-1.69-1.42.47-.56,1.69,1.42ZM192,106.68l-1.69-1.41.47-.56,1.69,1.41Zm-3.38-2.83-1.69-1.42.47-.56,1.69,1.42Zm-3.4-2.85-1.69-1.42L184,99l1.69,1.42Zm-3.38-2.84-1.69-1.41.47-.56,1.69,1.41Zm-3.38-2.83-1.69-1.42.47-.56,1.69,1.42Zm-3.39-2.84-1.69-1.42.47-.56,1.7,1.42Zm-3.38-2.84L170,88.25l.47-.57,1.69,1.42Zm-3.38-2.83-1.69-1.42.47-.56,1.69,1.42ZM164.93,84l-1.69-1.42.47-.56,1.69,1.42Zm-3.38-2.84-1.69-1.42.47-.56L162,80.59Zm-3.38-2.83-1.69-1.42.47-.56,1.69,1.42Zm-3.38-2.84-1.69-1.42.47-.56,1.69,1.42Zm-3.38-2.84-1.69-1.42.47-.56,1.69,1.42ZM148,69.81l-1.69-1.42.47-.56,1.69,1.41ZM144.65,67,143,65.55l.47-.56,1.69,1.42Zm-3.38-2.84-1.69-1.42.47-.56,1.69,1.42Zm-3.39-2.84-1.69-1.41.48-.57,1.69,1.42Zm-3.38-2.83L132.81,57l.47-.56L135,57.9Zm-3.38-2.84-1.69-1.42.47-.56,1.69,1.42Zm-3.38-2.84-1.69-1.42.47-.56,1.69,1.42ZM124.36,50l-1.69-1.42.47-.56,1.69,1.42ZM121,47.11l-1.69-1.42.47-.56,1.69,1.42Zm-3.38-2.84-1.69-1.42.47-.56,1.69,1.42Zm-3.38-2.83L112.53,40l.47-.56,1.69,1.42Zm-3.38-2.84-1.69-1.42.47-.56L111.31,38Zm-3.38-2.84-1.69-1.42.47-.56L108,35.2Zm-3.38-2.84-1.7-1.41.48-.56,1.69,1.41Zm-3.39-2.83L99,28.67l.47-.56,1.7,1.42Zm-3.38-2.84-1.69-1.42.47-.56,1.69,1.42ZM94,24.41,92.24,23l.47-.57,1.69,1.42Zm-3.38-2.83-1.69-1.42.47-.56L91,21Zm-3.38-2.84L85.5,17.32l.47-.56,1.69,1.42Zm-3.4-2.84L82.1,14.48l.47-.56,1.69,1.42Zm-3.38-2.83-1.69-1.42.47-.56,1.69,1.42ZM77,10.23,75.34,8.81l.47-.56L77.5,9.67ZM73.65,7.39,72,6l.47-.56,1.69,1.42ZM70.27,4.56,68.58,3.14l.47-.56L70.74,4Z"/><rect class="b42723b6-c025-4df0-963a-7a4a0e2fa528" x="66.34" y="0.54" width="0.73" height="1.1" transform="translate(23 51.5) rotate(-50.01)"/><rect class="b42723b6-c025-4df0-963a-7a4a0e2fa528" x="165.55" y="174.21" width="1.1" height="0.73"/><path class="b42723b6-c025-4df0-963a-7a4a0e2fa528" d="M163.37,175h-2.18v-.74h2.18ZM159,175h-2.18v-.74H159Zm-4.37,0h-2.18v-.74h2.18Zm-4.36,0h-2.19v-.74h2.19Zm-4.37,0h-2.18v-.74h2.18Zm-4.37,0h-2.18v-.74h2.18Zm-4.36,0H135v-.74h2.19Zm-4.37,0h-2.18v-.74h2.18Zm-4.37,0h-2.18v-.74h2.18Zm-4.36,0h-2.19v-.74h2.19Zm-4.37,0h-2.19v-.74h2.19Zm-4.37,0h-2.18v-.74h2.18ZM111,175h-2.18v-.74H111Zm-4.36,0h-2.19v-.74h2.19Zm-4.37,0h-2.18v-.74h2.18Zm-4.37,0H95.68v-.74h2.18Zm-4.36,0H91.31v-.74H93.5Zm-4.37,0H87v-.74h2.18Zm-4.37,0H82.58v-.74h2.18Zm-4.37,0H78.21v-.74h2.18ZM76,175H73.84v-.74H76Zm-4.37,0H69.48v-.74h2.18Zm-4.37,0H65.11v-.74h2.18Zm-4.36,0H60.74v-.74h2.19Zm-4.37,0H56.38v-.74h2.18Zm-4.37,0H52v-.74h2.18Zm-4.36,0H47.64v-.74h2.19Zm-4.37,0H43.28v-.74h2.18Zm-4.37,0H38.91v-.74h2.18Z"/><rect class="b42723b6-c025-4df0-963a-7a4a0e2fa528" x="35.63" y="174.21" width="1.1" height="0.73"/><rect class="b42723b6-c025-4df0-963a-7a4a0e2fa528" x="165.76" y="173.84" width="0.73" height="1.1" transform="translate(-54.55 270.89) rotate(-70.01)"/><path class="b42723b6-c025-4df0-963a-7a4a0e2fa528" d="M163.42,173.79l-2.07-.75.25-.69,2.07.76Zm-4.15-1.51-2.07-.75.25-.69,2.07.76Zm-4.14-1.51-2.08-.75.25-.69,2.08.76Zm-4.15-1.5-2.08-.76.25-.69,2.08.76Zm-4.15-1.51-2.07-.76.25-.69,2.07.76Zm-4.15-1.51-2.07-.76.25-.69,2.07.76Zm-4.14-1.51-2.08-.76.25-.69,2.08.76Zm-4.15-1.51-2.07-.76.25-.69,2.07.76Zm-4.15-1.51-2.07-.76.25-.69,2.07.76Zm-4.15-1.51-2.07-.76.25-.68,2.07.75ZM122,158.7l-2.08-.76.25-.68,2.08.75Zm-4.15-1.51-2.07-.76.25-.68,2.07.75Zm-4.15-1.51-2.07-.75.25-.69L114,155Zm-4.15-1.51-2.07-.75.25-.69,2.07.75Zm-4.14-1.51-2.08-.75.25-.69,2.08.75Zm-4.15-1.51-2.07-.75.25-.69,2.07.75Zm-4.15-1.51L95,148.89l.25-.69,2.07.75ZM93,148.13l-2.08-.75.25-.69,2.08.75Zm-4.15-1.51-2.08-.75.25-.69,2.08.75Zm-4.15-1.51-2.07-.75.25-.69,2.07.75Zm-4.15-1.51-2.07-.75.25-.69,2.07.76Zm-4.14-1.51-2.08-.75.25-.69,2.08.76Zm-4.15-1.51-2.07-.75.25-.69,2.07.76ZM68,139.08l-2-.76.25-.69,2.07.76Zm-4.15-1.51-2.07-.76.25-.69,2.07.76Zm-4.14-1.51-2.08-.76.25-.69,2.08.76Zm-4.15-1.51-2.07-.76.25-.69,2.07.76ZM51.44,133l-2.07-.76.25-.69,2.07.76Zm-4.14-1.51-2.08-.76.25-.69,2.08.76ZM43.15,130l-2.08-.76.25-.68,2.08.75ZM39,128.51l-2.07-.76.25-.68,2.07.75ZM34.85,127l-2.07-.76.25-.68,2.07.75Zm-4.14-1.51-2.08-.75.25-.69,2.08.75ZM26.56,124l-2.08-.75.25-.69,2.08.75Zm-4.15-1.51-2.07-.75.25-.69,2.07.75ZM18.26,121l-2.07-.75.25-.69,2.07.75Zm-4.14-1.51L12,118.7l.25-.69,2.08.75ZM10,117.94l-2.07-.75.25-.69,2.07.75Zm-4.15-1.51-2.07-.75L4,115l2.07.75Z"/><rect class="b42723b6-c025-4df0-963a-7a4a0e2fa528" x="0.92" y="113.85" width="0.73" height="1.1" transform="translate(-106.64 76.46) rotate(-69.99)"/><rect class="b42723b6-c025-4df0-963a-7a4a0e2fa528" x="165.87" y="173.7" width="0.73" height="1.1" transform="translate(-74.1 189.63) rotate(-50.01)"/><path class="b42723b6-c025-4df0-963a-7a4a0e2fa528" d="M163.9,172.75l-1.67-1.4.47-.56,1.67,1.4Zm-3.34-2.8-1.67-1.41.47-.56,1.67,1.41Zm-3.34-2.81-1.67-1.4.47-.56,1.67,1.4Zm-3.35-2.8-1.67-1.41.47-.56,1.67,1.41Zm-3.34-2.81-1.67-1.4.47-.56L151,161Zm-3.34-2.8-1.67-1.4.47-.57,1.67,1.41Zm-3.34-2.81-1.68-1.4.48-.56,1.67,1.4Zm-3.35-2.8-1.67-1.4.47-.57,1.67,1.41Zm-3.34-2.81-1.67-1.4.47-.56,1.67,1.4Zm-3.34-2.8-1.67-1.4.47-.57,1.67,1.41Zm-3.35-2.81-1.67-1.4.47-.56,1.68,1.4Zm-3.34-2.8-1.67-1.4.47-.57,1.67,1.41Zm-3.34-2.81-1.67-1.4.47-.56,1.67,1.4Zm-3.34-2.8-1.67-1.4.47-.56,1.67,1.4Zm-3.35-2.81-1.67-1.4.47-.56,1.68,1.4Zm-3.34-2.8-1.67-1.4.47-.56,1.67,1.4Zm-3.34-2.81-1.67-1.4.47-.56,1.67,1.4Zm-3.34-2.8-1.68-1.4.48-.56,1.67,1.4Zm-3.35-2.81-1.67-1.4.47-.56,1.67,1.4Zm-3.34-2.8-1.67-1.4.47-.56,1.67,1.4Zm-3.34-2.81-1.67-1.4.47-.56,1.67,1.4Zm-3.34-2.8L92,112.45l.47-.56,1.68,1.4ZM90.36,111l-1.67-1.4.47-.56,1.67,1.4ZM87,108.24l-1.67-1.4.47-.56,1.67,1.4Zm-3.34-2.81L82,104l.47-.56,1.67,1.4Zm-3.35-2.8-1.67-1.4.47-.56,1.67,1.4ZM77,99.82l-1.67-1.4.47-.56,1.67,1.4ZM73.65,97,72,95.62l.47-.56,1.67,1.4Zm-3.34-2.81-1.68-1.4.48-.56,1.67,1.4ZM67,91.41,65.29,90l.47-.56,1.67,1.4ZM63.62,88.6,62,87.2l.47-.56L64.09,88Zm-3.34-2.8-1.67-1.4.47-.56,1.67,1.4ZM56.94,83l-1.68-1.41.47-.56,1.68,1.4Zm-3.35-2.81-1.67-1.4.47-.56,1.67,1.4Zm-3.34-2.8L48.58,76l.47-.56,1.67,1.4Zm-3.34-2.81-1.67-1.4.47-.56L47.38,74Zm-3.35-2.8-1.67-1.41.47-.56L44,71.22ZM40.22,69l-1.67-1.4L39,67l1.67,1.4Zm-3.34-2.8-1.67-1.41.47-.56,1.67,1.41Zm-3.34-2.81L31.86,62l.48-.56L34,62.8Zm-3.35-2.8-1.67-1.41.47-.56L30.66,60Zm-3.34-2.81-1.67-1.4.47-.56,1.67,1.4ZM23.51,55l-1.67-1.41.47-.56L24,54.39Zm-3.34-2.81-1.68-1.4.47-.56,1.68,1.4Zm-3.35-2.8L15.15,48l.47-.56,1.67,1.41Z"/><rect class="b42723b6-c025-4df0-963a-7a4a0e2fa528" x="12.93" y="45.35" width="0.73" height="1.1" transform="translate(-30.42 26.59) rotate(-50.01)"/><rect class="b42723b6-c025-4df0-963a-7a4a0e2fa528" x="166.01" y="173.58" width="0.73" height="1.1" transform="translate(-64.75 106.44) rotate(-29.98)"/><path class="b42723b6-c025-4df0-963a-7a4a0e2fa528" d="M164.69,171.92,163.6,170l.64-.36,1.09,1.89Zm-2.18-3.78-1.09-1.89.64-.36,1.09,1.89Zm-2.18-3.78-1.09-1.89.63-.36L161,164Zm-2.18-3.77-1.09-1.89.63-.37,1.09,1.89ZM156,156.81l-1.09-1.89.63-.37,1.09,1.89ZM153.78,153l-1.09-1.89.64-.37,1.09,1.89Zm-2.18-3.78-1.09-1.89.64-.37,1.09,1.89Zm-2.18-3.78-1.09-1.89.63-.37,1.1,1.89Zm-2.18-3.78-1.09-1.89.63-.37,1.09,1.89Zm-2.18-3.78L144,136l.63-.36,1.09,1.88Zm-2.18-3.78-1.1-1.89.64-.36,1.09,1.89Zm-2.19-3.78-1.09-1.89.64-.36,1.09,1.89Zm-2.18-3.78-1.09-1.89.64-.36,1.09,1.89Zm-2.18-3.77-1.09-1.89.63-.37L137,122.4ZM134.15,119l-1.09-1.89.63-.37,1.09,1.89ZM132,115.24l-1.09-1.89.63-.37,1.09,1.89Zm-2.19-3.78-1.09-1.89.64-.37,1.09,1.89Zm-2.18-3.78-1.09-1.89.64-.37,1.09,1.89Zm-2.18-3.78-1.12-1.9.63-.37,1.1,1.89Zm-2.18-3.78-1.09-1.89.63-.36,1.09,1.88Zm-2.18-3.78L120,94.45l.63-.36L121.69,96Zm-2.18-3.78-1.1-1.89.64-.36,1.09,1.89Zm-2.19-3.78-1.09-1.89.64-.36,1.09,1.89ZM114.51,85l-1.09-1.88.64-.37,1.09,1.89Zm-2.18-3.77-1.09-1.89.63-.37L113,80.86Zm-2.18-3.78-1.09-1.89.63-.37,1.09,1.89ZM108,73.67l-1.09-1.89.63-.37,1.09,1.89Zm-2.19-3.78L104.69,68l.64-.37,1.09,1.89Zm-2.18-3.78-1.09-1.89.64-.37,1.09,1.89Zm-2.18-3.78-1.09-1.89.63-.36,1.1,1.88Zm-2.18-3.78-1.09-1.89.63-.36,1.09,1.89Zm-2.18-3.78L96,52.88l.63-.36,1.09,1.89ZM94.88,51l-1.1-1.89.64-.36,1.09,1.89Zm-2.19-3.78L91.6,45.33l.64-.37,1.09,1.89Zm-2.18-3.77-1.09-1.89.63-.37,1.1,1.89Zm-2.18-3.78-1.09-1.89.63-.37L89,39.29Zm-2.18-3.78L85.06,34l.63-.37,1.09,1.89ZM84,32.1l-1.09-1.89.63-.37,1.09,1.89Zm-2.19-3.78-1.09-1.89.64-.37L82.42,28ZM79.6,24.54l-1.09-1.89.64-.36,1.09,1.88Zm-2.18-3.78-1.09-1.89.63-.36,1.09,1.89ZM75.24,17l-1.09-1.89.63-.36,1.09,1.89Zm-2.18-3.8L72,11.31l.6-.31,1.09,1.89ZM70.88,9.42l-1.1-1.88.64-.37,1.09,1.89ZM68.69,5.65,67.6,3.76l.64-.37,1.09,1.89Z"/><rect class="b42723b6-c025-4df0-963a-7a4a0e2fa528" x="66.19" y="0.66" width="0.73" height="1.1" transform="translate(8.3 33.42) rotate(-29.98)"/><rect class="b42723b6-c025-4df0-963a-7a4a0e2fa528" x="100.36" y="197.51" width="0.73" height="1.1" transform="translate(-115.73 147.83) rotate(-49.98)"/><path class="b42723b6-c025-4df0-963a-7a4a0e2fa528" d="M98.39,196.6l-1.67-1.41.47-.56,1.67,1.4ZM95,193.79l-1.67-1.41.47-.56,1.67,1.41ZM91.7,191,90,189.58l.47-.56,1.67,1.4Zm-3.35-2.81-1.67-1.4.47-.56,1.67,1.4ZM85,185.37,83.34,184l.47-.56,1.67,1.41Zm-3.35-2.81L80,181.16l.47-.56,1.67,1.4Zm-3.34-2.81-1.68-1.4.47-.56,1.68,1.4ZM75,177l-1.67-1.41.47-.56,1.67,1.4Zm-3.34-2.81L70,172.73l.47-.56,1.68,1.41Zm-3.35-2.81L66.64,170l.47-.56,1.67,1.4ZM65,168.57l-1.68-1.4.47-.56,1.68,1.4Zm-3.35-2.8L60,164.36l.47-.56,1.67,1.41ZM58.27,163l-1.67-1.4L57,161l1.67,1.4ZM54.9,160.1l-1.67-1.4.47-.56,1.67,1.4Zm-3.35-2.8-1.67-1.41.47-.56L52,156.74Zm-3.34-2.81-1.67-1.41.47-.56,1.67,1.41Zm-3.35-2.81-1.67-1.4.47-.56,1.67,1.4Zm-3.34-2.81-1.68-1.4.48-.56,1.67,1.4Zm-3.35-2.8-1.67-1.41.47-.56,1.67,1.41Zm-3.34-2.81-1.68-1.4.48-.56,1.67,1.4Zm-3.35-2.81-1.67-1.4.47-.56,1.67,1.4Zm-3.34-2.8-1.68-1.41.47-.56,1.68,1.41Zm-3.35-2.81-1.67-1.4.47-.56,1.67,1.4ZM21.45,132l-1.68-1.4.47-.56,1.68,1.4Zm-3.35-2.81-1.67-1.4.47-.56,1.67,1.4Zm-3.35-2.8L13.08,125l.47-.56,1.68,1.41Zm-3.34-2.81-1.67-1.4.47-.56,1.67,1.4ZM8.06,120.8l-1.67-1.4.47-.56,1.68,1.4ZM4.72,118l-1.67-1.41.47-.56,1.67,1.41Z"/><rect class="b42723b6-c025-4df0-963a-7a4a0e2fa528" x="0.82" y="114.01" width="0.73" height="1.1" transform="translate(-87.31 41.8) rotate(-49.98)"/><rect class="b42723b6-c025-4df0-963a-7a4a0e2fa528" x="100.51" y="197.39" width="0.73" height="1.1" transform="translate(-85.43 76.92) rotate(-29.99)"/><path class="b42723b6-c025-4df0-963a-7a4a0e2fa528" d="M99.17,195.75l-1.11-1.92.64-.36,1.1,1.91ZM97,191.92,95.86,190l.63-.36,1.11,1.91Zm-2.21-3.82-1.1-1.91.64-.37,1.1,1.91Zm-2.2-3.82-1.11-1.91.64-.37,1.1,1.91Zm-2.21-3.82-1.1-1.91.63-.37L91,180.09Zm-2.21-3.83L87,174.72l.64-.36,1.1,1.91ZM86,172.81l-1.11-1.91.64-.37,1.1,1.92ZM83.72,169l-1.1-1.91.63-.37,1.11,1.91Zm-2.21-3.82-1.1-1.91.64-.37,1.1,1.91Zm-2.2-3.82-1.11-1.92.64-.36,1.1,1.91Zm-2.21-3.83L76,155.61l.63-.36,1.11,1.91Zm-2.21-3.82-1.1-1.91.63-.37,1.11,1.91Zm-2.2-3.82L71.58,148l.64-.37,1.1,1.91Zm-2.21-3.82-1.1-1.91.63-.37,1.11,1.91Zm-2.21-3.83-1.1-1.91.63-.36,1.11,1.91Zm-2.2-3.82L65,136.5l.64-.37,1.1,1.92Zm-2.21-3.82-1.1-1.91.63-.37,1.11,1.91Zm-2.21-3.82-1.1-1.91.63-.37,1.11,1.91ZM59.45,127l-1.11-2,.64-.36,1.1,1.91Zm-2.21-3.83-1.1-1.91.63-.36,1.11,1.91ZM55,119.3l-1.1-1.91.63-.37,1.11,1.91Zm-2.2-3.82-1.11-1.91.64-.37,1.1,1.91Zm-2.21-3.82-1.1-1.91.63-.37,1.1,1.91Zm-2.21-3.83-1.1-1.91.63-.36L49,107.47ZM46.21,104l-1.11-1.9.64-.36,1.1,1.91ZM44,100.19l-1.1-1.91.63-.37,1.1,1.91Zm-2.21-3.82-1.1-1.91.63-.37L42.43,96Zm-2.2-3.82-1.11-1.92.64-.36,1.1,1.91Zm-2.21-3.83-1.1-1.91.63-.36L38,88.36ZM35.17,84.9,34.07,83l.63-.37,1.11,1.92ZM33,81.08l-1.11-1.91.64-.37,1.1,1.91Zm-2.21-3.82-1.1-1.91.63-.37,1.1,1.91Zm-2.21-3.83-1.1-1.91.63-.36,1.11,1.91Zm-2.2-3.82L25.24,67.7l.64-.36L27,69.25Zm-2.21-3.82L23,63.88l.63-.37,1.1,1.91ZM21.93,62l-1.1-1.91.63-.37,1.11,1.91Zm-2.2-3.82-1.11-1.92.64-.36,1.1,1.91Zm-2.21-3.83-1.1-1.91.63-.36L18.15,54ZM15.31,50.5l-1.1-1.91.63-.37L16,50.14Z"/><rect class="b42723b6-c025-4df0-963a-7a4a0e2fa528" x="12.78" y="45.47" width="0.73" height="1.1" transform="translate(-21.24 12.73) rotate(-29.98)"/><rect class="b42723b6-c025-4df0-963a-7a4a0e2fa528" x="100.69" y="197.32" width="0.73" height="1.1" transform="translate(-32.79 20.53) rotate(-9.99)"/><path class="b42723b6-c025-4df0-963a-7a4a0e2fa528" d="M100.21,195.26l-.38-2.15.72-.13.38,2.15Zm-.76-4.3-.38-2.15.72-.13.38,2.15Zm-.76-4.3-.38-2.15.72-.12.38,2.15Zm-.76-4.29-.37-2.15.72-.13.38,2.15Zm-.75-4.3-.38-2.15.72-.13.38,2.15Zm-.76-4.3L96,171.62l.72-.12.38,2.14Zm-.76-4.3-.38-2.14.72-.13.38,2.15Zm-.76-4.29L94.53,163l.72-.13.38,2.15Zm-.75-4.3-.38-2.15.72-.13.38,2.15Zm-.76-4.3L93,154.43l.72-.12.38,2.14Zm-.76-4.3-.38-2.14L93,150l.38,2.15ZM91.87,148l-.38-2.15.72-.13.38,2.15Zm-.75-4.3-.38-2.15.72-.13.38,2.15Zm-.76-4.3L90,137.24l.72-.12.38,2.15Zm-.76-4.29L89.22,133l.72-.13.38,2.15Zm-.76-4.3-.38-2.15.72-.13.38,2.15Zm-.76-4.3-.37-2.15.72-.13.37,2.15Zm-.75-4.3L87,120.05l.72-.12.38,2.15Zm-.76-4.29-.38-2.15.72-.13.38,2.15Zm-.76-4.3-.38-2.15.72-.13.38,2.15Zm-.76-4.3-.38-2.15.73-.12.37,2.14ZM84.3,105l-.38-2.14.72-.13.38,2.15Zm-.76-4.29-.38-2.15.72-.13.38,2.15Zm-.76-4.3-.38-2.15.72-.13.38,2.15ZM82,92.12,81.64,90l.72-.12L82.74,92Zm-.76-4.3-.37-2.14.72-.13L82,87.7Zm-.75-4.29-.38-2.15.72-.13.38,2.15Zm-.76-4.3-.38-2.15.72-.13.38,2.15ZM79,74.93l-.38-2.15.72-.12.38,2.15Zm-.76-4.3-.37-2.14.72-.13L79,70.51Zm-.75-4.29-.38-2.15.72-.13.38,2.15ZM76.72,62l-.38-2.15.72-.13.38,2.15ZM76,57.74l-.38-2.15.72-.12.38,2.15Zm-.76-4.29-.38-2.15.73-.13L76,53.32Zm-.75-4.3L74.07,47l.72-.13L75.17,49Zm-.76-4.3-.38-2.15.72-.12.38,2.14ZM73,40.55l-.38-2.15.72-.12.38,2.15Zm-.76-4.29-.38-2.15.72-.13.38,2.15ZM71.41,32,71,29.81l.72-.13.37,2.15Zm-.75-4.3-.38-2.15.72-.12.38,2.14Zm-.76-4.3-.38-2.14.72-.13.38,2.15Zm-.76-4.29L68.76,17l.72-.13L69.86,19Zm-.76-4.3L68,12.62l.73-.13.37,2.15Zm-.75-4.3-.38-2.15L68,8.2l.38,2.15Zm-.76-4.3L66.49,4l.72-.13L67.59,6Z"/><rect class="b42723b6-c025-4df0-963a-7a4a0e2fa528" x="66" y="0.72" width="0.73" height="1.1" transform="translate(0.8 11.59) rotate(-10.04)"/><rect class="b42723b6-c025-4df0-963a-7a4a0e2fa528" x="35.14" y="173.5" width="0.73" height="1.1" transform="translate(-29.63 8.79) rotate(-9.98)"/><path class="b42723b6-c025-4df0-963a-7a4a0e2fa528" d="M34.7,171.41l-.38-2.15.72-.13.38,2.15Zm-.76-4.3L33.56,165l.72-.13.38,2.15Zm-.76-4.3-.38-2.15.72-.13.38,2.15Zm-.76-4.3L32,156.36l.72-.13.38,2.15Zm-.76-4.3-.38-2.15.72-.13.38,2.15Zm-.76-4.3-.38-2.15.73-.13.37,2.15Zm-.75-4.3-.38-2.15.72-.13.38,2.15Zm-.76-4.3L29,139.16l.72-.13.38,2.15Zm-.76-4.3-.38-2.15.72-.13.38,2.15Zm-.76-4.3-.38-2.16.72-.12.38,2.15Zm-.76-4.31-.38-2.15.72-.12.38,2.15Zm-.76-4.3L26,122l.73-.12L27.1,124Zm-.75-4.3-.38-2.15.72-.12.38,2.15Zm-.76-4.3-.38-2.15.72-.12.38,2.15Zm-.76-4.3-.38-2.15.72-.13.38,2.15Zm-.76-4.3-.38-2.15.72-.13.38,2.15Zm-.76-4.3-.38-2.15.72-.13.38,2.15Zm-.76-4.3-.38-2.15.73-.13.37,2.15ZM21.05,94l-.38-2.15.72-.13.38,2.15Zm-.76-4.3-.38-2.15.72-.13L21,89.57Zm-.76-4.3-.38-2.15.72-.13.38,2.15Zm-.76-4.3L18.39,79l.72-.13L19.49,81ZM18,76.8l-.38-2.15.72-.13.38,2.15Zm-.76-4.3-.37-2.16.72-.12L18,72.37Zm-.75-4.31L16.12,66l.72-.12L17.22,68Zm-.76-4.3-.38-2.15.72-.12.38,2.15ZM15,59.59l-.38-2.15.72-.12.38,2.15Zm-.76-4.3-.38-2.15.72-.12L15,55.17ZM13.46,51l-.38-2.15.72-.13.38,2.15Z"/><rect class="b42723b6-c025-4df0-963a-7a4a0e2fa528" x="12.6" y="45.54" width="0.73" height="1.1" transform="translate(-7.83 2.96) rotate(-10.03)"/><rect class="b42723b6-c025-4df0-963a-7a4a0e2fa528" x="35.17" y="173.66" width="1.1" height="0.73" transform="translate(-141.87 178.8) rotate(-79.94)"/><path class="b42723b6-c025-4df0-963a-7a4a0e2fa528" d="M36.56,171.39l-.72-.13.38-2.17.72.13Zm.77-4.35-.72-.12.38-2.18.72.13Zm.76-4.34-.72-.13.38-2.17.73.12Zm.77-4.35-.72-.13.38-2.17.72.13Zm.77-4.35-.73-.12.39-2.18.72.13Zm.76-4.34-.72-.13.38-2.17.72.12Zm.77-4.35-.72-.13.38-2.17.72.13Zm.76-4.35-.72-.12.39-2.18.72.13Zm.77-4.34-.72-.13.38-2.17.72.12Zm.77-4.35-.72-.13.38-2.17.72.13Zm.76-4.35-.72-.12.39-2.18.72.13Zm.77-4.34-.72-.13.38-2.17.72.12Zm.77-4.35L45,119.1l.38-2.17.72.13Zm.76-4.34-.72-.13.39-2.18.72.13Zm.77-4.35-.72-.13.38-2.17.72.13Zm.77-4.35-.72-.12.38-2.18.72.13Zm.76-4.34-.72-.13.38-2.17.73.12Zm.77-4.35-.72-.13.38-2.17.72.13Zm.76-4.35L49.63,93,50,90.85l.72.13Zm.77-4.34-.72-.13.38-2.17.72.12Zm.77-4.35-.72-.13.38-2.17.72.13Zm.76-4.35L51.93,80l.39-2.18L53,78Zm.77-4.34-.72-.13.38-2.17.72.12Zm.77-4.35-.72-.13.38-2.17.72.13ZM55,67.07,54.23,67l.39-2.18.72.13Zm.77-4.34L55,62.6l.38-2.17.72.12Zm.77-4.35-.72-.13.38-2.17.72.13ZM57.25,54l-.72-.13.39-2.18.72.13ZM58,49.69l-.72-.13.38-2.17.72.13Zm.77-4.35L58,45.22,58.45,43l.72.13ZM59.55,41l-.72-.13.38-2.17.72.12Zm.77-4.35-.72-.13.4-2.17.72.13Zm.77-4.35-.73-.12L60.75,30l.72.13Zm.76-4.3-.72-.13.38-2.17.72.12Zm.77-4.35-.72-.13.38-2.17.72.13Zm.76-4.35-.72-.12L63.05,17l.72.13ZM64.15,15l-.72-.13.38-2.17.72.12Zm.77-4.35-.72-.13.38-2.17.72.13Zm.76-4.35L65,6.1l.39-2.18.72.13Z"/><rect class="b42723b6-c025-4df0-963a-7a4a0e2fa528" x="65.64" y="0.9" width="1.1" height="0.73" transform="translate(53.46 66.23) rotate(-80.01)"/><rect class="b42723b6-c025-4df0-963a-7a4a0e2fa528" x="0.49" y="113.36" width="1.1" height="0.73" transform="translate(-97.99 57.8) rotate(-60.02)"/><path class="b42723b6-c025-4df0-963a-7a4a0e2fa528" d="M2.73,111.54l-.64-.36,1.09-1.89.64.36Zm2.18-3.78-.64-.36,1.1-1.89.63.36ZM7.09,104l-.63-.37,1.09-1.89.63.37Zm2.19-3.78-.64-.37L9.73,98l.64.37Zm2.18-3.78-.63-.37,1.09-1.89.63.37Zm2.18-3.79L13,92.27l1.09-1.89.64.36Zm2.19-3.78-.64-.36,1.09-1.89.64.36ZM18,85.07l-.63-.37,1.09-1.89.63.37Zm2.18-3.78-.63-.37L20.65,79l.64.37Zm2.19-3.78-.64-.37,1.09-1.89.64.37Zm2.18-3.79-.63-.36L25,71.47l.63.36Zm2.18-3.78-.63-.36,1.09-1.89.64.36Zm2.19-3.78-.64-.37,1.09-1.89.64.37Zm2.18-3.78L30.48,62l1.09-1.89.63.37Zm2.2-3.78-.64-.37,1.09-1.89.64.37Zm2.18-3.79-.64-.36,1.1-1.89.63.36ZM37.66,51,37,50.67l1.09-1.89.63.36Zm2.19-3.78-.64-.37L40.3,45l.64.37ZM42,43.47l-.64-.37,1.1-1.89.63.37Zm2.18-3.78-.63-.37,1.09-1.89.63.37ZM46.4,35.9l-.64-.36,1.09-1.89.64.36Zm2.18-3.78L48,31.76l1-1.89.63.36Zm2.18-3.78L50.13,28l1.09-1.89.63.37ZM53,24.56l-.64-.37,1-1.89.64.37Zm2.18-3.78-.63-.37,1.09-1.89.63.37ZM57.31,17l-.63-.36,1.09-1.89.64.36Zm2.19-3.78-.64-.36L60,11l.64.36Zm2.18-3.78-.63-.37,1.09-1.89.63.37Zm2.18-3.78-.63-.37L64.32,3.4l.64.37Z"/><rect class="b42723b6-c025-4df0-963a-7a4a0e2fa528" x="65.46" y="0.84" width="1.1" height="0.73" transform="translate(31.98 57.78) rotate(-60.02)"/><path class="b42723b6-c025-4df0-963a-7a4a0e2fa528" d="M101.14,199.2l-.25-.09L35.13,175.18,35,175,0,114.34l.05-.26L12.2,45.16,66,0h70.25l53.82,45.16v.26l12.16,68.92-.14.23-35,60.61Zm-65-25.2,65,23.67,65-23.67,34.59-59.91L188.72,46l-53-44.48H66.55L13.55,46l-12,68.13Z"/></g></svg>