<svg id="a50db180-cfd2-4395-9e80-4c4ee85d9414" data-name="Layer 1" xmlns="http://www.w3.org/2000/svg" viewBox="0 0 209.4 199.16"><defs><style>.ae1029f7-3d7e-441a-b5d9-1f6f984f8c9b{fill:#000000;}</style></defs><title>08u</title><g id="f828b14d-782b-45fa-bb89-36bc39ff45fd" data-name="items"><rect class="ae1029f7-3d7e-441a-b5d9-1f6f984f8c9b" x="71.9" y="197.43" width="0.73" height="1.1" transform="translate(-102.55 80.26) rotate(-35.99)"/><path class="ae1029f7-3d7e-441a-b5d9-1f6f984f8c9b" d="M70.36,196l-1.28-1.77.59-.43L71,195.56Zm-2.56-3.53-1.29-1.77.6-.43L68.39,192Zm-2.57-3.53L64,187.16l.59-.43,1.28,1.77Zm-2.56-3.53-1.28-1.77.59-.43L63.26,185Zm-2.57-3.53-1.28-1.77.59-.43,1.29,1.77Zm-2.56-3.53-1.28-1.77.59-.43,1.28,1.77ZM55,174.81,53.69,173l.59-.43,1.29,1.77Zm-2.56-3.53-1.28-1.77.59-.43L53,170.85Zm-2.57-3.53L48.56,166l.59-.43,1.29,1.77Zm-2.56-3.53L46,162.45l.59-.43,1.28,1.77Zm-2.56-3.53-1.29-1.77.6-.43,1.28,1.77Zm-2.57-3.53-1.28-1.77.59-.43,1.28,1.77Zm-2.56-3.53-1.29-1.77.6-.43,1.28,1.77ZM37,150.1l-1.28-1.77.59-.43,1.28,1.77Zm-2.56-3.53-1.28-1.77.59-.43L35,146.14ZM31.89,143l-1.28-1.77.59-.43,1.29,1.77Zm-2.56-3.53-1.28-1.76.59-.44L29.92,139ZM26.76,136l-1.28-1.76.59-.44,1.29,1.77Zm-2.56-3.53-1.28-1.76.59-.44L24.79,132Zm-2.57-3.53-1.28-1.76.59-.43,1.29,1.76Zm-2.56-3.53-1.28-1.76.59-.43L19.66,125Zm-2.56-3.53-1.29-1.76.6-.43,1.28,1.76Zm-2.57-3.53-1.28-1.76.59-.43,1.28,1.76Zm-2.56-3.53L10.09,113l.6-.43,1.31,1.8Zm-2.57-3.53-1.28-1.76.59-.43,1.28,1.76Zm-2.56-3.53L5,106l.59-.43,1.28,1.76Zm-2.57-3.53L2.4,102.45,3,102l1.29,1.76Z"/><rect class="ae1029f7-3d7e-441a-b5d9-1f6f984f8c9b" x="0.73" y="99.47" width="0.73" height="1.1" transform="translate(-58.65 19.8) rotate(-36.05)"/><rect class="ae1029f7-3d7e-441a-b5d9-1f6f984f8c9b" x="72.04" y="197.35" width="0.73" height="1.1" transform="translate(-57.67 32.11) rotate(-18.02)"/><path class="ae1029f7-3d7e-441a-b5d9-1f6f984f8c9b" d="M71.21,195.39l-.68-2.11.7-.22.68,2.1Zm-1.36-4.21-.69-2.11.7-.22.68,2.1ZM68.48,187l-.69-2.1.7-.23.68,2.1Zm-1.37-4.21-.68-2.1.69-.23.69,2.1Zm-1.37-4.21-.68-2.1.7-.23.68,2.1Zm-1.36-4.21-.69-2.1.7-.23.68,2.11ZM63,170.13l-.69-2.1.7-.23.68,2.11Zm-1.37-4.21-.68-2.1.69-.23.69,2.11Zm-1.37-4.21-.68-2.1.7-.23.68,2.11ZM58.9,157.5l-.68-2.1.7-.23.68,2.11Zm-1.36-4.2-.69-2.11.7-.23.68,2.11Zm-1.37-4.21L55.48,147l.7-.22.69,2.1Zm-1.37-4.21-.68-2.11.69-.22.69,2.1Zm-1.37-4.21-.68-2.11.7-.22.68,2.1Zm-1.36-4.21-.69-2.11.7-.22.68,2.1Zm-1.37-4.21-.7-2.11.7-.22.69,2.1ZM49.33,128l-.68-2.1.69-.23.69,2.1ZM48,123.83l-.68-2.1.7-.23.68,2.1Zm-1.37-4.21-.68-2.1.7-.23.68,2.1Zm-1.36-4.21-.69-2.1.7-.23.68,2.11ZM43.9,111.2l-.68-2.1.69-.23L44.6,111ZM42.49,107l-.68-2.1.69-.23.69,2.11Zm-1.37-4.21-.68-2.1.7-.23.68,2.11Zm-1.36-4.2-.69-2.11.7-.23.68,2.11Zm-1.37-4.21-.68-2.11L38.4,92l.69,2.11ZM37,90.16l-.68-2.11.69-.22.69,2.1ZM35.65,86,35,83.84l.7-.22.68,2.1Zm-1.36-4.21-.69-2.11.7-.22.68,2.1Zm-1.37-4.21-.69-2.11.7-.22.69,2.1Zm-1.37-4.21-.68-2.11.69-.22.69,2.1Zm-1.37-4.21L29.5,67l.7-.23.68,2.1ZM28.82,64.9l-.69-2.1.7-.23.68,2.1Zm-1.37-4.21-.69-2.1.7-.23.68,2.11Zm-1.37-4.21-.68-2.1.69-.23.69,2.11Zm-1.37-4.21L24,50.17l.7-.23.68,2.11Zm-1.37-4.21L22.66,46l.7-.23L24,47.84ZM22,43.85l-.69-2.1.7-.23.68,2.11Z"/><rect class="ae1029f7-3d7e-441a-b5d9-1f6f984f8c9b" x="20.42" y="38.46" width="0.73" height="1.1" transform="translate(-11.07 8.37) rotate(-18.07)"/><rect class="ae1029f7-3d7e-441a-b5d9-1f6f984f8c9b" x="72.22" y="197.33" width="0.73" height="1.1"/><path class="ae1029f7-3d7e-441a-b5d9-1f6f984f8c9b" d="M73,195.13h-.73v-2.2H73Zm0-4.39h-.73v-2.2H73Zm0-4.4h-.73v-2.19H73ZM73,182h-.73v-2.2H73Zm0-4.39h-.73v-2.2H73Zm0-4.4h-.73V171H73Zm0-4.39h-.73v-2.2H73Zm0-4.39h-.73v-2.2H73Zm0-4.4h-.73v-2.19H73Zm0-4.39h-.73v-2.2H73Zm0-4.39h-.73V149H73Zm0-4.4h-.73v-2.19H73Zm0-4.39h-.73v-2.2H73ZM73,138h-.73v-2.2H73Zm0-4.39h-.73v-2.2H73Zm0-4.4h-.73V127H73Zm0-4.39h-.73v-2.2H73Zm0-4.39h-.73v-2.2H73Zm0-4.4h-.73v-2.19H73Zm0-4.39h-.73v-2.2H73Zm0-4.39h-.73v-2.2H73Zm0-4.4h-.73v-2.19H73Zm0-4.39h-.73v-2.2H73Zm0-4.39h-.73v-2.2H73Zm0-4.4h-.73V87.5H73Zm0-4.39h-.73V83.1H73Zm0-4.39h-.73v-2.2H73Zm0-4.4h-.73V74.32H73Zm0-4.39h-.73V69.9H73Zm0-4.39h-.73v-2.2H73Zm0-4.4h-.73V61.14H73Zm0-4.39h-.73V56.75H73Zm0-4.39h-.73v-2.2H73Zm0-4.39h-.73V48H73Zm0-4.4h-.73V43.57H73Zm0-4.39h-.73v-2.2H73ZM73,37h-.73V34.8H73Zm0-4.4h-.73V30.39H73Zm0-4.39h-.73V26H73Zm0-4.39h-.73V21.6H73Zm0-4.4h-.73V17.21H73ZM73,15h-.73V12.8H73Zm0-4.39h-.73V8.42H73Zm0-4.4h-.73V4H73Z"/><rect class="ae1029f7-3d7e-441a-b5d9-1f6f984f8c9b" x="72.22" y="0.73" width="0.73" height="1.1"/><rect class="ae1029f7-3d7e-441a-b5d9-1f6f984f8c9b" x="72.07" y="197.61" width="1.1" height="0.73" transform="translate(-138.12 205.6) rotate(-71.93)"/><path class="ae1029f7-3d7e-441a-b5d9-1f6f984f8c9b" d="M74,195.39l-.7-.23.68-2.1.7.23Zm1.36-4.21-.69-.22.68-2.11.7.23Zm1.37-4.2-.7-.23.69-2.1.69.22Zm1.37-4.21-.7-.23.68-2.1.7.23Zm1.36-4.21-.69-.22.68-2.11.7.23Zm1.37-4.2-.7-.23.69-2.1.69.22Zm1.37-4.21-.7-.23.68-2.1.7.23Zm1.36-4.21-.69-.22.68-2.11.7.23Zm1.37-4.2-.7-.23.69-2.1.69.22Zm1.37-4.21-.7-.22.68-2.11.7.23Zm1.36-4.2L87,153.1l.68-2.1.7.22ZM89,149.12l-.7-.23.69-2.1.69.23Zm1.37-4.21-.7-.22.68-2.11.7.23Zm1.36-4.2-.69-.23.68-2.1.7.22Zm1.37-4.21-.7-.23.69-2.1.69.23Zm1.37-4.21-.7-.22.68-2.11.7.23Zm1.36-4.2-.69-.23.68-2.1.7.22Zm1.37-4.21-.7-.23.69-2.1.7.23Zm1.37-4.21-.7-.22.68-2.11.7.23Zm1.36-4.2-.69-.23.68-2.1.7.22Zm1.37-4.21-.7-.23.69-2.1.69.23Zm1.37-4.21-.7-.22.68-2.11.7.23Zm1.37-4.2-.7-.23.68-2.1.7.22Zm1.36-4.21-.7-.23.69-2.1.7.23Zm1.37-4.21-.7-.22.69-2.11.69.23Zm1.37-4.2-.7-.23.68-2.1.7.22ZM109.49,86l-.7-.23.69-2.1.7.23Zm1.37-4.21-.7-.22.69-2.11.69.23Zm1.37-4.2-.7-.23.68-2.1.7.22Zm1.36-4.21-.69-.23.68-2.1.7.23ZM115,69.19l-.7-.22.69-2.11.69.23Zm1.37-4.2-.7-.23.68-2.1.7.22Zm1.36-4.21-.69-.22.68-2.11.7.23Zm1.37-4.2-.7-.23.69-2.1.69.22Zm1.37-4.21-.7-.23.68-2.1.7.23Zm1.36-4.21-.69-.22.68-2.11.7.23ZM123.2,44l-.7-.23.69-2.1.69.22Zm1.37-4.21-.7-.23.68-2.1.7.23Zm1.36-4.21-.69-.22.68-2.11.7.23Zm1.37-4.2-.7-.23.69-2.1.69.22Zm1.37-4.21-.7-.23.68-2.1.7.23ZM130,22.92l-.69-.22.68-2.11.7.23Zm1.37-4.2-.7-.23.69-2.1.69.22Zm1.37-4.21-.7-.23.68-2.1.7.23Zm1.36-4.21-.69-.22L134.08,8l.7.23Zm1.37-4.2-.7-.23.69-2.1.69.22Z"/><rect class="ae1029f7-3d7e-441a-b5d9-1f6f984f8c9b" x="136.11" y="0.89" width="1.1" height="0.73" transform="translate(93.19 130.82) rotate(-71.98)"/><rect class="ae1029f7-3d7e-441a-b5d9-1f6f984f8c9b" x="72.35" y="197.62" width="1.1" height="0.73" transform="translate(-130.08 140.41) rotate(-53.95)"/><path class="ae1029f7-3d7e-441a-b5d9-1f6f984f8c9b" d="M74.82,196l-.59-.43,1.29-1.77.59.43Zm2.58-3.55-.59-.43,1.29-1.78.59.43Zm2.6-3.58-.59-.43,1.29-1.78.59.43Zm2.58-3.56-.59-.43,1.29-1.78.6.43Zm2.59-3.55-.6-.43,1.3-1.78.59.43Zm2.58-3.56-.59-.43L88.43,176l.59.43Zm2.58-3.55-.59-.43L91,172.44l.59.43Zm2.58-3.55-.59-.44,1.29-1.77.59.43Zm2.59-3.56-.6-.43,1.29-1.78.6.43ZM98.06,164l-.59-.43,1.29-1.78.59.43Zm2.58-3.56-.59-.43,1.29-1.77.59.43Zm2.58-3.55-.59-.43,1.29-1.78.59.43Zm2.58-3.56-.59-.43,1.29-1.77.6.43Zm2.59-3.55-.6-.43,1.3-1.78.59.43Zm2.58-3.55-.59-.43,1.29-1.78.59.43Zm2.58-3.56-.59-.43,1.29-1.78.59.43Zm2.58-3.55-.59-.43,1.29-1.78.59.43Zm2.58-3.56-.59-.43,1.29-1.77.6.43ZM121.3,132l-.59-.43,1.29-1.78.59.43Zm2.58-3.55-.59-.44,1.29-1.77.59.43Zm2.58-3.56-.59-.43,1.29-1.78.59.43Zm2.58-3.55-.59-.43,1.29-1.78.59.43Zm2.59-3.56-.59-.43,1.29-1.77.59.43Zm2.58-3.55-.59-.43,1.29-1.78.59.43Zm2.58-3.56-.59-.43,1.29-1.77.59.43Zm2.58-3.55-.59-.43,1.29-1.78.59.43Zm2.59-3.55-.6-.43,1.29-1.78.6.43Zm2.58-3.56-.59-.43,1.29-1.78.59.44Zm2.58-3.55-.59-.43,1.29-1.78.59.43Zm2.58-3.56-.59-.43,1.29-1.77.59.43Zm2.58-3.55-.59-.43L153,87.14l.6.43Zm2.59-3.55-.6-.43,1.3-1.78.59.43Zm2.58-3.56-.59-.43L158.15,80l.59.43ZM160,78.69l-.59-.43,1.29-1.78.59.43Zm2.58-3.56L162,74.7l1.29-1.77.59.43Zm2.59-3.55-.6-.43,1.29-1.78.6.43ZM167.78,68l-.59-.43,1.29-1.77.59.43Zm2.58-3.55-.59-.43,1.29-1.78.59.43Zm2.58-3.55-.59-.43,1.29-1.78.59.43Zm2.58-3.56-.59-.43,1.29-1.78.6.44Zm2.59-3.55-.6-.43,1.3-1.78.59.43Zm2.58-3.56-.59-.43L181.39,48l.59.43Zm2.58-3.55-.59-.43L184,44.49l.59.43Zm2.58-3.55-.59-.43,1.29-1.78.59.43Z"/><rect class="ae1029f7-3d7e-441a-b5d9-1f6f984f8c9b" x="187.93" y="38.58" width="1.1" height="0.73" transform="translate(46.07 168.41) rotate(-53.95)"/><rect class="ae1029f7-3d7e-441a-b5d9-1f6f984f8c9b" x="72.49" y="197.73" width="1.1" height="0.73" transform="translate(-102.37 80.58) rotate(-35.94)"/><path class="ae1029f7-3d7e-441a-b5d9-1f6f984f8c9b" d="M75.48,196.77l-.43-.59,1.79-1.3.43.59Zm3.58-2.6-.43-.59,1.79-1.3.43.59Zm3.58-2.6-.43-.59,1.79-1.3.43.59Zm3.58-2.6-.43-.59,1.79-1.3.43.59Zm3.58-2.6-.43-.59,1.79-1.3.43.59Zm3.58-2.6-.43-.6,1.79-1.3.43.6Zm3.58-2.6-.43-.6,1.79-1.3.43.59Zm3.58-2.61-.43-.59,1.79-1.3.43.59Zm3.58-2.6-.43-.59,1.79-1.3.43.59Zm3.58-2.6-.43-.59,1.79-1.3.43.59Zm3.58-2.6-.43-.59,1.8-1.3.43.59Zm3.59-2.6-.43-.59,1.79-1.31.43.6Zm3.58-2.6L118,165l1.79-1.3.43.6ZM122,163l-.43-.6,1.79-1.3.43.59Zm3.58-2.61-.43-.59,1.79-1.3.43.59Zm3.58-2.6-.43-.59,1.79-1.3.43.59Zm3.58-2.6-.43-.59,1.79-1.3.43.59Zm3.58-2.6-.43-.59,1.79-1.3.43.59Zm3.58-2.6-.43-.59,1.79-1.31.43.6Zm3.58-2.6-.43-.6,1.79-1.3.43.6Zm3.58-2.6-.43-.6,1.79-1.3.43.59Zm3.58-2.61-.43-.59,1.79-1.3.43.59Zm3.58-2.6-.43-.59,1.79-1.3.43.59Zm3.58-2.6-.43-.59,1.79-1.3.43.59Zm3.58-2.6-.43-.59,1.79-1.3.43.59Zm3.58-2.6-.43-.6,1.79-1.3.43.6Zm3.58-2.6-.43-.6,1.79-1.3.43.6Zm3.59-2.61-.43-.59,1.79-1.3.43.59Zm3.58-2.6-.43-.59,1.79-1.3.43.59Zm3.58-2.6-.43-.59,1.79-1.3.43.59Zm3.58-2.6-.43-.59,1.79-1.3.43.59Zm3.58-2.6-.43-.59,1.79-1.3.43.59Zm3.58-2.6-.43-.6,1.79-1.3.43.6Zm3.58-2.6-.43-.6L195,109l.43.6Zm3.58-2.61-.43-.59,1.79-1.3.43.59Zm3.58-2.6-.43-.59,1.79-1.3.43.59Zm3.58-2.6-.43-.59,1.79-1.3.43.59Z"/><rect class="ae1029f7-3d7e-441a-b5d9-1f6f984f8c9b" x="207.64" y="99.55" width="1.1" height="0.73" transform="translate(-19.02 141.18) rotate(-35.93)"/><rect class="ae1029f7-3d7e-441a-b5d9-1f6f984f8c9b" x="72.57" y="197.89" width="1.1" height="0.73" transform="translate(-57.77 32.37) rotate(-18.03)"/><path class="ae1029f7-3d7e-441a-b5d9-1f6f984f8c9b" d="M75.82,197.76l-.23-.7,2.08-.67.22.69ZM80,196.41l-.23-.7,2.08-.67.22.7Zm4.15-1.35-.23-.69,2.07-.68.23.7Zm4.15-1.35L88,193l2.07-.68.23.7Zm4.14-1.34-.22-.7,2.07-.67.23.69ZM96.56,191l-.22-.7,2.07-.67.23.69Zm4.15-1.35-.22-.7,2.07-.67.23.7Zm4.15-1.35-.22-.69,2.07-.68.23.7ZM109,187l-.22-.69,2.07-.68.23.7Zm4.15-1.35-.22-.69,2.07-.68.23.7Zm4.15-1.34-.22-.7,2.07-.67.23.69Zm4.15-1.35-.22-.7,2.07-.67.23.69Zm4.15-1.35-.23-.7,2.08-.67.23.7Zm4.15-1.35-.23-.69,2.08-.68.23.7Zm4.15-1.35-.23-.69,2.08-.68.23.7Zm4.15-1.34-.23-.7,2.08-.68.22.7Zm4.15-1.35-.23-.7,2.08-.67.22.69Zm4.15-1.35-.23-.7,2.08-.67.22.69Zm4.15-1.35-.23-.7,2.08-.67.22.7Zm4.15-1.35-.23-.69,2.08-.68.22.7Zm4.15-1.35-.23-.69,2.08-.68.22.7Zm4.15-1.34-.23-.7,2.08-.67.22.69Zm4.15-1.35-.23-.7,2.08-.67.22.69Zm4.15-1.35-.23-.7,2.07-.67.23.7Zm4.15-1.35-.23-.7,2.07-.67.23.7Zm4.14-1.35-.22-.69,2.07-.68.23.7Zm4.16-1.35-.23-.69,2.07-.68.23.7Z"/><rect class="ae1029f7-3d7e-441a-b5d9-1f6f984f8c9b" x="187.72" y="160.45" width="1.1" height="0.73" transform="translate(-40.53 66.17) rotate(-18.03)"/><rect class="ae1029f7-3d7e-441a-b5d9-1f6f984f8c9b" x="20.25" y="159.57" width="0.73" height="1.1"/><path class="ae1029f7-3d7e-441a-b5d9-1f6f984f8c9b" d="M21,157.39h-.73v-2.18H21ZM21,153h-.73v-2.19H21Zm0-4.37h-.73v-2.18H21Zm0-4.36h-.73v-2.18H21Zm0-4.36h-.73v-2.19H21Zm0-4.37h-.73v-2.18H21Zm0-4.36h-.73V129H21Zm0-4.36h-.73v-2.18H21Zm0-4.37h-.73V120.3H21Zm0-4.36h-.73v-2.18H21Zm0-4.36h-.73v-2.18H21Zm0-4.37h-.73v-2.18H21ZM21,105h-.73v-2.18H21Zm0-4.36h-.73V98.49H21Zm0-4.36h-.73V94.12H21Zm0-4.37h-.73V89.76H21Zm0-4.36h-.73V85.4H21Zm0-4.36h-.73V81H21Zm0-4.37h-.73V76.67H21Zm0-4.36h-.73V72.31H21Zm0-4.36h-.73V68H21Zm0-4.37h-.73V63.58H21Zm0-4.36h-.73V59.22H21ZM21,57h-.73V54.86H21Zm0-4.36h-.73V50.49H21Zm0-4.37h-.73V46.13H21ZM21,44h-.73V41.77H21Z"/><rect class="ae1029f7-3d7e-441a-b5d9-1f6f984f8c9b" x="20.25" y="38.49" width="0.73" height="1.1"/><rect class="ae1029f7-3d7e-441a-b5d9-1f6f984f8c9b" x="20.24" y="159.77" width="1.1" height="0.73" transform="translate(-137.91 130.31) rotate(-71.96)"/><path class="ae1029f7-3d7e-441a-b5d9-1f6f984f8c9b" d="M22,157.63l-.7-.22.7-2.11.69.23Zm1.37-4.21-.7-.22.69-2.11.69.23Zm1.37-4.21L24,149l.68-2.11.7.23ZM26.09,145l-.69-.22.68-2.11.7.23Zm1.37-4.2-.7-.23.69-2.11.69.23Zm1.37-4.21-.7-.23.69-2.11.69.23Zm1.37-4.21-.7-.23.68-2.1.7.22Zm1.36-4.21-.69-.23.68-2.1.7.22ZM32.93,124l-.7-.23.69-2.1.7.22Zm1.37-4.21-.7-.23.69-2.1.69.22Zm1.37-4.21-.7-.23.68-2.1.7.23ZM37,111.33l-.69-.23L37,109l.7.23Zm1.37-4.21-.69-.23.68-2.1.7.23Zm1.37-4.21-.7-.22.69-2.11.69.23Zm1.37-4.21-.7-.22.68-2.11.7.23Zm1.36-4.21-.69-.22.68-2.11.7.23Zm1.37-4.21-.69-.22L43.86,88l.7.23Zm1.37-4.21-.7-.22.69-2.11.69.23Zm1.37-4.2-.7-.23.68-2.11.7.23ZM48,77.66l-.7-.23.68-2.1.7.22Zm1.36-4.21-.69-.23.68-2.1.7.22Zm1.37-4.21L50,69l.69-2.1.7.22ZM52.08,65l-.7-.23.69-2.1.69.22Zm1.37-4.21-.7-.23.68-2.1.7.22Zm1.36-4.21-.69-.23.68-2.1.7.23Zm1.37-4.21-.7-.23.69-2.1.7.23Zm1.37-4.21-.7-.23.69-2.1.69.23ZM58.92,44l-.7-.22.68-2.11.7.23Zm1.37-4.21-.7-.22.68-2.11.7.23Zm1.36-4.21L61,35.34l.68-2.11.7.23ZM63,31.35l-.7-.22L63,29l.69.23Zm1.37-4.2-.7-.23.69-2.11.69.23Zm1.37-4.21-.7-.23.68-2.11.7.23Zm1.36-4.21-.69-.23.68-2.1.7.22Zm1.37-4.21-.7-.23.69-2.1.69.22Zm1.37-4.21-.7-.23L69.84,8l.7.22ZM71.23,6.1l-.7-.23.68-2.1.7.22Z"/><rect class="ae1029f7-3d7e-441a-b5d9-1f6f984f8c9b" x="71.87" y="0.89" width="1.1" height="0.73" transform="translate(48.83 69.73) rotate(-71.98)"/><rect class="ae1029f7-3d7e-441a-b5d9-1f6f984f8c9b" x="20.39" y="159.87" width="1.1" height="0.73" transform="translate(-120.93 82.86) rotate(-53.95)"/><path class="ae1029f7-3d7e-441a-b5d9-1f6f984f8c9b" d="M22.85,158.22l-.59-.43L23.55,156l.59.43Zm2.58-3.56-.59-.43,1.29-1.77.59.43ZM28,151.11l-.6-.43,1.3-1.78.59.43Zm2.58-3.55-.59-.43,1.29-1.78.59.43Zm2.6-3.56-.59-.43,1.29-1.78.59.43Zm2.58-3.55-.59-.43,1.29-1.78.59.43Zm2.58-3.56-.59-.43L39,134.69l.6.43Zm2.59-3.55-.6-.43,1.3-1.78.59.43Zm2.58-3.55-.59-.44,1.29-1.77.59.43Zm2.58-3.56-.59-.43,1.29-1.8.59.43Zm2.58-3.55-.59-.43,1.29-1.78.59.43Zm2.59-3.56-.6-.43,1.3-1.78.59.44Zm2.58-3.55-.59-.43,1.29-1.78.59.43ZM56.42,112l-.59-.43,1.29-1.77.59.43ZM59,108.46l-.59-.43,1.29-1.78.59.43Zm2.58-3.55-.59-.43,1.29-1.78.6.43Zm2.59-3.56-.59-.43,1.29-1.78.59.44Zm2.58-3.55-.59-.43,1.29-1.78L68,96Zm2.58-3.56-.59-.43L70,92l.59.43Zm2.58-3.55-.59-.43,1.29-1.78.6.43Zm2.59-3.55-.6-.44,1.3-1.77.59.43Zm2.58-3.56-.59-.43,1.29-1.78.59.43ZM79.66,80l-.59-.43,1.29-1.78.59.43Zm2.58-3.56L81.65,76l1.29-1.77.59.43Zm2.59-3.55-.6-.43,1.29-1.78.6.43Zm2.58-3.56-.59-.43,1.29-1.77.59.43ZM90,65.81l-.59-.43L90.7,63.6l.59.43Zm2.58-3.55L92,61.83l1.29-1.78.59.43Zm2.58-3.56-.59-.43,1.29-1.78.6.44Zm2.59-3.55-.6-.43,1.3-1.78.59.43Zm2.58-3.56-.59-.43L101,49.39l.59.43ZM102.9,48l-.59-.43,1.29-1.78.59.43Zm2.58-3.55-.59-.43,1.29-1.78.59.43Zm2.59-3.56-.6-.43,1.29-1.78.6.43Zm2.58-3.55-.59-.43,1.29-1.78.59.43Zm2.58-3.56-.59-.43,1.29-1.77.59.43Zm2.58-3.55-.59-.43L116.51,28l.59.43Zm2.58-3.56-.59-.43,1.29-1.77.6.43ZM121,23.16l-.6-.43L121.7,21l.59.43Zm2.58-3.55-.59-.43,1.29-1.78.59.43Zm2.58-3.56-.59-.43,1.29-1.78.59.44Zm2.58-3.55-.59-.43,1.29-1.78.59.43Zm2.59-3.56-.6-.43L132,6.74l.6.43Zm2.58-3.55L133.3,5l1.29-1.78.59.43Z"/><rect class="ae1029f7-3d7e-441a-b5d9-1f6f984f8c9b" x="135.95" y="0.81" width="1.1" height="0.73" transform="translate(55.24 110.86) rotate(-53.96)"/><rect class="ae1029f7-3d7e-441a-b5d9-1f6f984f8c9b" x="20.5" y="159.98" width="1.1" height="0.73" transform="translate(-90.11 42.88) rotate(-35.94)"/><path class="ae1029f7-3d7e-441a-b5d9-1f6f984f8c9b" d="M23.51,159l-.43-.59,1.79-1.3.43.59Zm3.58-2.6-.43-.59,1.79-1.3.43.59Zm3.58-2.6-.43-.59,1.79-1.3.43.59Zm3.58-2.6-.43-.59,1.79-1.3.43.59Zm3.57-2.6-.43-.59,1.79-1.3.43.59ZM41.4,146l-.43-.59,1.79-1.3.43.59ZM45,143.4l-.43-.59,1.79-1.3.43.59Zm3.58-2.6-.43-.59,1.79-1.3.43.59Zm3.58-2.6-.43-.59,1.79-1.3.43.59Zm3.57-2.6-.42-.59,1.78-1.3.43.59Zm3.58-2.6-.43-.59,1.79-1.3.43.59Zm3.58-2.6-.43-.59,1.79-1.3.43.59Zm3.58-2.6-.43-.59,1.79-1.3.43.59ZM70,125.2l-.43-.59,1.79-1.3.43.59Zm3.58-2.6-.43-.59,1.79-1.3.43.59Zm3.57-2.6-.43-.59,1.79-1.3.43.59Zm3.58-2.6-.43-.59,1.79-1.3.43.59Zm3.58-2.6-.43-.59,1.79-1.3.43.59Zm3.58-2.6-.43-.59,1.79-1.3.43.59Zm3.58-2.6-.43-.59,1.79-1.3.43.59Zm3.58-2.6-.43-.59,1.79-1.3.43.59Zm3.57-2.6-.43-.59,1.79-1.3.43.59Zm3.58-2.6-.43-.59,1.79-1.3.43.59Zm3.58-2.6-.43-.59,1.79-1.3.43.59Zm3.58-2.59L109,96l1.79-1.3.43.6ZM113,94l-.43-.6,1.79-1.3.43.6Zm3.58-2.6-.43-.6,1.79-1.3.42.6Zm3.57-2.6-.43-.6,1.79-1.3.43.6Zm3.58-2.6-.43-.6,1.79-1.3.43.6Zm3.58-2.6-.43-.6,1.79-1.3.43.6Zm3.58-2.6-.43-.6,1.79-1.3.43.6Zm3.58-2.6-.43-.6,1.79-1.3.43.6Zm3.58-2.6-.43-.6,1.79-1.3.42.6Zm3.57-2.6-.43-.6L143,71.3l.43.6Zm3.58-2.6-.43-.6,1.79-1.3.43.6Zm3.58-2.6-.43-.6,1.79-1.3.43.6Zm3.58-2.6-.43-.6,1.79-1.29.43.59Zm3.58-2.6-.43-.59,1.79-1.3.43.59Zm3.58-2.6-.43-.59,1.78-1.3.43.59Zm3.57-2.6-.43-.59,1.79-1.3.43.59Zm3.58-2.6-.43-.59,1.79-1.3.43.59Zm3.58-2.6-.43-.59,1.79-1.3.43.59Zm3.58-2.6-.43-.59,1.79-1.3.43.59Zm3.58-2.6-.43-.59,1.79-1.3.43.59ZM181,44.6l-.43-.59,1.78-1.3.43.59Zm3.57-2.6-.43-.59,1.79-1.3.43.59Z"/><rect class="ae1029f7-3d7e-441a-b5d9-1f6f984f8c9b" x="187.79" y="38.45" width="1.1" height="0.73" transform="translate(13.13 118.05) rotate(-35.98)"/><rect class="ae1029f7-3d7e-441a-b5d9-1f6f984f8c9b" x="20.6" y="160.13" width="1.1" height="0.73" transform="translate(-48.64 14.43) rotate(-18.03)"/><path class="ae1029f7-3d7e-441a-b5d9-1f6f984f8c9b" d="M23.87,160l-.23-.7,2.09-.68.22.7ZM28,158.64l-.22-.7,2.09-.67.22.69Zm4.18-1.36-.22-.69,2.08-.68.23.69Zm4.18-1.35-.23-.7,2.09-.68.23.7Zm4.18-1.36-.23-.7,2.09-.68.23.7Zm4.18-1.36-.23-.7,2.09-.67.22.69Zm4.17-1.36-.22-.69,2.09-.68.22.69Zm4.18-1.35-.22-.7,2.08-.68.23.7Zm4.18-1.36-.23-.7,2.09-.68.23.7Zm4.18-1.36-.23-.7,2.09-.67.23.69Zm4.18-1.36-.23-.69,2.09-.68.23.69Zm4.18-1.35-.23-.7,2.09-.68.22.7ZM74,143.71l-.22-.7,2.09-.68.22.7Zm4.18-1.36-.23-.7,2-.65.23.69ZM82.36,141l-.23-.69,2.09-.68.23.69Zm4.18-1.35-.23-.7,2.09-.68.23.7Zm4.18-1.36-.23-.7,2.09-.68.22.7Zm4.17-1.36-.22-.7,2.09-.68.22.7Zm4.18-1.36-.22-.69,2.08-.68.23.69Zm4.18-1.35-.23-.7,2.09-.68.23.7Zm4.18-1.36-.23-.7,2.09-.68.23.7Zm4.18-1.36-.23-.7,2.09-.68.23.7Zm4.17-1.36-.22-.69,2.09-.68.22.69Zm4.18-1.36-.22-.69,2.09-.68.22.7Zm4.18-1.35-.23-.7L126,126l.23.7Zm4.18-1.36-.23-.7,2.09-.68.23.7Zm4.18-1.36-.23-.69,2.09-.68.23.69Zm4.17-1.36-.22-.69,2.09-.68.22.7Zm4.18-1.35-.22-.7,2.09-.68.22.7Zm4.18-1.36-.23-.7,2.09-.68.23.7Zm4.18-1.36-.23-.69,2.09-.68.23.69Zm4.18-1.36-.23-.69,2.09-.68.23.7Zm4.18-1.35-.23-.7,2.09-.68.23.7Zm4.17-1.36-.22-.7,2.09-.68.22.7Zm4.18-1.36-.22-.69,2.08-.68.23.69Zm4.18-1.36-.23-.69,2.09-.68.23.7Zm4.18-1.35-.23-.7,2.09-.68.23.7Zm4.18-1.36-.23-.7,2.09-.68.23.7Zm4.17-1.36-.22-.69,2.09-.68.22.69Zm4.18-1.36-.22-.69,2.08-.68.23.7ZM191,105.7l-.23-.7,2.09-.68.23.7Zm4.18-1.36-.23-.7L197,103l.23.7Zm4.18-1.36-.23-.69,2.09-.68.23.69Zm4.18-1.36-.23-.69,2.09-.68.22.69Z"/><rect class="ae1029f7-3d7e-441a-b5d9-1f6f984f8c9b" x="207.56" y="99.37" width="1.1" height="0.73" transform="translate(-20.65 69.31) rotate(-18.03)"/><rect class="ae1029f7-3d7e-441a-b5d9-1f6f984f8c9b" x="20.62" y="160.3" width="1.1" height="0.73"/><path class="ae1029f7-3d7e-441a-b5d9-1f6f984f8c9b" d="M185.47,161h-2.21v-.73h2.21Zm-4.42,0h-2.22v-.73h2.22Zm-4.43,0h-2.21v-.73h2.21Zm-4.42,0H170v-.73h2.22Zm-4.43,0h-2.21v-.73h2.21Zm-4.43,0h-2.21v-.73h2.21Zm-4.42,0h-2.21v-.73h2.21Zm-4.43,0h-2.21v-.73h2.21Zm-4.42,0h-2.22v-.73h2.22Zm-4.43,0h-2.21v-.73h2.21Zm-4.42,0H139v-.73h2.22Zm-4.43,0h-2.21v-.73h2.21Zm-4.43,0h-2.21v-.73h2.21Zm-4.42,0h-2.22v-.73h2.22Zm-4.43,0H121.3v-.73h2.21Zm-4.42,0h-2.22v-.73h2.22Zm-4.43,0h-2.21v-.73h2.21Zm-4.43,0H108v-.73h2.21Zm-4.42,0H103.6v-.73h2.21Zm-4.43,0H99.17v-.73h2.21ZM97,161H94.74v-.73H97Zm-4.43,0H90.32v-.73h2.21Zm-4.43,0H85.89v-.73H88.1Zm-4.42,0H81.47v-.73h2.21Zm-4.43,0H77v-.73h2.21Zm-4.42,0H72.61v-.73h2.22Zm-4.43,0H68.19v-.73H70.4ZM66,161H63.76v-.73H66Zm-4.43,0H59.34v-.73h2.21Zm-4.43,0H54.91v-.73h2.21Zm-4.42,0H50.49v-.73H52.7Zm-4.43,0H46.06v-.73h2.21Zm-4.42,0H41.63v-.73h2.22Zm-4.43,0H37.21v-.73h2.21ZM35,161H32.78v-.73H35Zm-4.42,0H28.36v-.73h2.21Zm-4.43,0H23.93v-.73h2.21Z"/><rect class="ae1029f7-3d7e-441a-b5d9-1f6f984f8c9b" x="187.69" y="160.3" width="1.1" height="0.73"/><rect class="ae1029f7-3d7e-441a-b5d9-1f6f984f8c9b" x="20.78" y="160.28" width="0.73" height="1.1" transform="translate(-138.36 131.27) rotate(-72.01)"/><path class="ae1029f7-3d7e-441a-b5d9-1f6f984f8c9b" d="M133.59,197.76l-2.08-.68.23-.69,2.07.67Zm-4.15-1.35-2.08-.67.23-.7,2.07.67Zm-4.15-1.35-2.08-.67.23-.7,2.07.68Zm-4.15-1.35-2.08-.67.23-.7,2.07.68ZM117,192.37l-2.08-.68.23-.69,2.07.67ZM112.84,191l-2.08-.68.23-.69,2.08.67Zm-4.15-1.35-2.08-.67.23-.7,2.08.67Zm-4.15-1.35-2.08-.67.23-.7,2.08.67Zm-4.15-1.3-2.07-.67.22-.7,2.08.68Zm-4.15-1.35L94.17,185l.22-.7,2.08.68Zm-4.15-1.34L90,183.6l.22-.69,2.08.67ZM87.94,183l-2.07-.68.22-.69,2.08.67Zm-4.15-1.35-2.07-.67.22-.7,2.08.67Zm-4.15-1.35-2.07-.67.22-.7,2.08.68Zm-4.15-1.35-2.07-.67.22-.7,2.08.68Zm-4.15-1.34-2.07-.68.23-.7,2.07.68Zm-4.15-1.35-2.07-.68.23-.69,2.07.67ZM63,174.84l-2-.68.23-.69,2.07.67Zm-4.15-1.35-2.07-.67.23-.7,2.07.67Zm-4.14-1.35-2.08-.67.23-.7,2.07.68Zm-4.15-1.35-2.08-.67.23-.7,2.07.68Zm-4.15-1.34-2.08-.68.23-.69,2.07.67ZM42.3,168.1l-2.08-.68.23-.69,2.07.67Zm-4.15-1.35-2.08-.67.23-.7,2.07.67ZM34,165.4l-2.08-.67.23-.7,2.07.67Zm-4.15-1.35-2.08-.67.23-.7,2.08.68ZM25.7,162.7l-2.08-.7.23-.7,2.08.68Z"/><rect class="ae1029f7-3d7e-441a-b5d9-1f6f984f8c9b" x="135.94" y="197.69" width="0.73" height="1.1" transform="translate(-94.34 266.65) rotate(-72.01)"/><rect class="ae1029f7-3d7e-441a-b5d9-1f6f984f8c9b" x="0.54" y="98.77" width="1.1" height="0.73" transform="translate(-79.7 41.68) rotate(-53.95)"/><path class="ae1029f7-3d7e-441a-b5d9-1f6f984f8c9b" d="M3,97.14l-.59-.43,1.28-1.77.6.44Zm2.57-3.53L5,93.18l1.28-1.77.59.44Zm2.56-3.53-.59-.43,1.28-1.77.59.44Zm2.57-3.53-.6-.43,1.29-1.77.59.44ZM13.25,83l-.59-.43,1.28-1.76.59.43Zm2.57-3.53-.6-.43,1.29-1.76.59.43ZM18.38,76l-.59-.43,1.28-1.76.59.43Zm2.56-3.53L20.35,72l1.29-1.76.59.43Zm2.57-3.53-.59-.43,1.28-1.76.59.43Zm2.56-3.53L25.48,65l1.28-1.76.6.43Zm2.57-3.53-.59-.43,1.28-1.76.59.43Zm2.56-3.53-.59-.43,1.28-1.76.6.43Zm2.57-3.53-.59-.43,1.28-1.76.59.43Zm2.56-3.53-.59-.43L37,49.06l.59.43Zm2.57-3.53-.6-.43,1.29-1.76.59.43Zm2.56-3.53-.59-.43L42.15,42l.59.43ZM44,40.66l-.6-.43,1.29-1.76.59.43Zm2.56-3.53L46,36.7l1.28-1.76.59.43Zm2.56-3.53-.59-.43,1.28-1.76.6.43Zm2.57-3.53-.59-.43,1.28-1.76.59.43Zm2.56-3.53-.59-.43L55,24.35l.6.43ZM56.85,23l-.59-.43,1.28-1.76.59.43Zm2.56-3.53L58.82,19l1.28-1.76.6.43ZM62,16l-.59-.44,1.28-1.76.59.43Zm2.56-3.53L64,12l1.28-1.76.59.43ZM67.11,8.9l-.6-.44L67.8,6.7l.59.43Zm2.56-3.53-.59-.43,1.28-1.77L71,3.6Z"/><rect class="ae1029f7-3d7e-441a-b5d9-1f6f984f8c9b" x="71.71" y="0.82" width="1.1" height="0.73" transform="translate(28.79 58.92) rotate(-53.96)"/><rect class="ae1029f7-3d7e-441a-b5d9-1f6f984f8c9b" x="0.65" y="98.89" width="1.1" height="0.73" transform="translate(-58.09 19.64) rotate(-35.98)"/><path class="ae1029f7-3d7e-441a-b5d9-1f6f984f8c9b" d="M3.66,97.93l-.43-.59L5,96l.43.59Zm3.58-2.6-.43-.6,1.79-1.3L9,94Zm3.58-2.6-.43-.6,1.79-1.3.43.59Zm3.59-2.61L14,89.53l1.79-1.3.43.59ZM18,87.52l-.43-.59,1.79-1.3.43.59Zm3.58-2.6-.43-.59L22.93,83l.43.59Zm3.58-2.6-.43-.59,1.79-1.3L27,81Zm3.58-2.6-.43-.59,1.79-1.31.43.6Zm3.58-2.6-.43-.6,1.79-1.3.43.6Zm3.58-2.6-.43-.6,1.79-1.3.43.59Zm3.58-2.61L39,71.32,40.83,70l.43.59Zm3.58-2.6-.43-.59,1.79-1.3.43.59Zm3.58-2.6-.43-.59L48,64.82l.43.59Zm3.58-2.6-.43-.59,1.79-1.3.43.59Zm3.58-2.6-.43-.59,1.79-1.31.43.6Zm3.58-2.6-.43-.6L58.73,57l.43.6ZM61,56.31l-.43-.6,1.79-1.3.43.59Zm3.58-2.61-.43-.59,1.79-1.3.43.59Zm3.58-2.6-.43-.59,1.79-1.3.43.59Zm3.58-2.6-.43-.59,1.79-1.3.43.59Zm3.59-2.6-.43-.59L76.64,44l.43.59Zm3.58-2.6-.43-.59,1.79-1.31.43.6Zm3.58-2.6L82,40.1l1.79-1.3.43.6ZM86,38.09l-.43-.59,1.79-1.3.43.59Zm3.58-2.6-.43-.59L91,33.6l.43.59Zm3.58-2.6-.43-.59L94.54,31l.43.59Zm3.58-2.6-.43-.59,1.79-1.3.43.59Zm3.58-2.6-.43-.59,1.79-1.3.43.59Zm3.58-2.6-.43-.6,1.79-1.3.43.6Zm3.58-2.6-.43-.6,1.79-1.3.43.6Zm3.58-2.61-.43-.59,1.79-1.3.43.59Zm3.58-2.6-.43-.59,1.79-1.3.43.59Zm3.58-2.6-.43-.59,1.79-1.3.43.59Zm3.58-2.6-.43-.59,1.79-1.3.43.59Zm3.58-2.6L125,8.89l1.79-1.31.43.6ZM129,6.88l-.43-.6L130.34,5l.43.6Zm3.58-2.6-.43-.6,1.8-1.3.43.6Z"/><rect class="ae1029f7-3d7e-441a-b5d9-1f6f984f8c9b" x="135.83" y="0.7" width="1.1" height="0.73" transform="translate(25.4 80.33) rotate(-35.98)"/><rect class="ae1029f7-3d7e-441a-b5d9-1f6f984f8c9b" x="0.8" y="98.95" width="1.1" height="0.73" transform="translate(-30.74 5.32) rotate(-18.07)"/><path class="ae1029f7-3d7e-441a-b5d9-1f6f984f8c9b" d="M4,98.91l-.23-.7,2.09-.68.22.7Zm4.17-1.36L8,96.85l2.09-.67.22.69Zm4.18-1.36-.22-.69,2.08-.68.23.69Zm4.18-1.35-.23-.7,2.09-.68.23.7Zm4.18-1.36-.23-.7,2.09-.68.23.7Zm4.18-1.36-.23-.7,2.09-.67.23.69Zm4.17-1.36-.22-.69L31,89.39l.22.69Zm4.18-1.35-.22-.7L35.13,88l.22.7Zm4.18-1.36-.23-.7,2.09-.68.23.7Zm4.18-1.36-.23-.7,2.09-.68.23.7Zm4.18-1.36-.23-.69L47.66,84l.23.69ZM50,84l-.23-.7,2.09-.68.22.7Zm4.17-1.36-.22-.7,2-.7.22.7Zm4.18-1.36-.23-.7,2.09-.68.23.7Zm4.18-1.36-.23-.69,2.09-.68.23.69Zm4.18-1.36-.23-.69,2.09-.68.23.7Zm4.18-1.35-.23-.7,2.09-.68.23.7ZM75,75.83l-.22-.7,2.09-.68.22.7Zm4.18-1.36L79,73.78l2.08-.68.23.69Zm4.18-1.36-.23-.69,2.09-.68.23.7Zm4.18-1.35-.23-.7,2.09-.68.23.7Zm4.18-1.36-.23-.7,2.13-.7.23.7ZM95.93,69l-.22-.69,2.09-.68.22.69Zm4.18-1.36L99.89,67l2.09-.68.22.7Zm4.18-1.35-.23-.7,2.09-.68.23.7ZM108.47,65l-.23-.7,2.09-.68.23.7Zm4.18-1.36-.23-.69,2.09-.68.23.69Zm4.18-1.36-.23-.69,2.09-.68.22.7ZM121,60.9l-.22-.7,2.09-.68.22.7Zm4.18-1.36-.22-.7,2.08-.68.23.7Zm4.18-1.36-.23-.69,2.09-.68.23.69Zm4.18-1.36-.23-.69,2.09-.68.23.7Zm4.18-1.35-.23-.7,2.09-.68.23.7Zm4.17-1.36-.22-.7,2.09-.68.22.7Zm4.18-1.36-.22-.69,2.08-.68.23.69Zm4.18-1.36L150,50.7l2.09-.68.23.69ZM154.43,50l-.23-.7,2.09-.68.23.7Zm4.18-1.36-.23-.7,2.09-.68.23.7Zm4.18-1.36-.23-.69,2.09-.68.22.69ZM167,46l-.22-.69,2.09-.68.22.69Zm4.18-1.35L171,44l2.09-.68.23.7Zm4.18-1.36-.23-.7,2.09-.68.23.7Zm4.18-1.36-.23-.7,2.09-.67.23.69Zm4.18-1.36-.23-.69,2.09-.68.22.69Z"/><rect class="ae1029f7-3d7e-441a-b5d9-1f6f984f8c9b" x="187.71" y="38.28" width="1.1" height="0.73" transform="translate(-2.72 60.17) rotate(-18.03)"/><rect class="ae1029f7-3d7e-441a-b5d9-1f6f984f8c9b" x="0.77" y="99.21" width="1.1" height="0.73"/><path class="ae1029f7-3d7e-441a-b5d9-1f6f984f8c9b" d="M205.33,99.94h-2.22v-.73h2.22Zm-4.43,0h-2.21v-.73h2.21Zm-4.42,0h-2.21v-.73h2.21Zm-4.42,0h-2.22v-.73h2.22Zm-4.43,0h-2.21v-.73h2.21Zm-4.42,0H181v-.73h2.21Zm-4.42,0h-2.21v-.73h2.21Zm-4.43,0h-2.21v-.73h2.21Zm-4.42,0h-2.21v-.73h2.21Zm-4.42,0h-2.21v-.73h2.21Zm-4.42,0h-2.22v-.73h2.22Zm-4.43,0h-2.21v-.73h2.21Zm-4.42,0H150v-.73h2.21Zm-4.42,0h-2.21v-.73h2.21Zm-4.43,0h-2.21v-.73h2.21Zm-4.42,0h-2.21v-.73H139Zm-4.42,0h-2.21v-.73h2.21Zm-4.43,0h-2.21v-.73h2.21Zm-4.42,0H123.5v-.73h2.21Zm-4.42,0h-2.21v-.73h2.21Zm-4.42,0h-2.22v-.73h2.22Zm-4.43,0h-2.21v-.73h2.21Zm-4.42,0h-2.21v-.73H108Zm-4.42,0h-2.22v-.73h2.22Zm-4.43,0H97v-.73h2.21Zm-4.42,0H92.54v-.73h2.21Zm-4.42,0H88.12v-.73h2.21Zm-4.43,0H83.69v-.73H85.9Zm-4.42,0H79.27v-.73h2.21Zm-4.42,0H74.85v-.73h2.21Zm-4.42,0H70.42v-.73h2.22Zm-4.43,0H66v-.73h2.21Zm-4.42,0H61.58v-.73h2.21Zm-4.42,0H57.16v-.73h2.21Zm-4.43,0H52.73v-.73h2.21Zm-4.42,0H48.31v-.73h2.21Zm-4.42,0H43.89v-.73H46.1Zm-4.43,0H39.46v-.73h2.21Zm-4.42,0H35v-.73h2.21Zm-4.42,0H30.62v-.73h2.21Zm-4.42,0H26.19v-.73h2.22Zm-4.43,0H21.77v-.73H24Zm-4.42,0H17.35v-.73h2.21Zm-4.42,0H12.92v-.73h2.22Zm-4.43,0H8.5v-.73h2.21Zm-4.42,0H4.08v-.73H6.29Z"/><rect class="ae1029f7-3d7e-441a-b5d9-1f6f984f8c9b" x="207.54" y="99.21" width="1.1" height="0.73"/><rect class="ae1029f7-3d7e-441a-b5d9-1f6f984f8c9b" x="0.93" y="99.2" width="0.73" height="1.1" transform="translate(-93.99 70.22) rotate(-72.04)"/><path class="ae1029f7-3d7e-441a-b5d9-1f6f984f8c9b" d="M185.54,160l-2.09-.68.23-.7,2.08.68Zm-4.18-1.36-2.09-.68.23-.69,2.09.67Zm-4.18-1.36-2.09-.68.23-.69,2.09.68ZM173,155.93l-2.09-.68.23-.7,2.09.68Zm-4.17-1.36-2.09-.68.22-.7,2.09.68Zm-4.18-1.36-2.09-.68.23-.69,2.08.67Zm-4.18-1.36-2.09-.68.23-.69,2.09.68Zm-4.18-1.35-2.09-.68.23-.7,2.09.68Zm-4.18-1.36-2.09-.68.23-.7,2.09.68Zm-4.18-1.36-2.08-.68.22-.69,2.09.67Zm-4.17-1.36-2.09-.68.22-.69,2.09.68Zm-4.18-1.36-2.09-.67.23-.7,2.08.68Zm-4.18-1.35-2.09-.68.23-.7,2.09.68Zm-4.18-1.36-2.09-.68.23-.69,2.09.67ZM127,141l-2.08-.68.22-.69,2.09.68Zm-4.17-1.36-2.09-.67.22-.7,2.09.68Zm-4.18-1.35-2.09-.68.23-.7,2.08.68Zm-4.18-1.36-2.09-.68.23-.7,2.09.68Zm-4.18-1.36-2.09-.68.23-.69,2.09.68Zm-4.18-1.36-2.09-.67.23-.7,2.09.68ZM102,132.85l-2.09-.68.22-.7,2.09.68Zm-4.18-1.36-2.09-.68.22-.7,2.09.68Zm-4.18-1.36-2.09-.68.23-.69,2.09.68Zm-4.18-1.36-2.09-.67.23-.7,2.09.68Zm-4.18-1.35-2.09-.68.23-.7,2.09.68Zm-4.18-1.36-2.1-.68.22-.7,2.09.68Zm-4.17-1.36-2.11-.7.22-.69,2.09.68Zm-4.18-1.36-2.09-.67.23-.7,2.09.68ZM68.55,122l-2.09-.68.23-.7,2.09.68Zm-4.18-1.36L62.28,120l.23-.7,2.09.68Zm-4.18-1.36-2.09-.68.23-.69,2.09.68ZM56,117.91l-2.09-.68.22-.69,2.09.68Zm-4.18-1.35-2.09-.68.23-.7,2.08.68Zm-4.18-1.36-2.09-.68.23-.7,2.09.68Zm-4.18-1.36-2.09-.68.23-.69,2.09.67Zm-4.18-1.36-2.09-.68.23-.69,2.09.68Zm-4.17-1.35L33,110.45l.22-.7,2.09.68ZM31,109.77l-2.09-.68.22-.7,2.09.68Zm-4.18-1.36-2.09-.68L25,107l2.09.67Zm-4.18-1.36-2.09-.68.23-.69,2.09.68Zm-4.18-1.35-2.14-.7.23-.7,2.09.68Zm-4.18-1.36-2.08-.68.22-.7,2.09.68ZM10.06,103,8,102.3l.22-.69,2.09.67Zm-4.18-1.36L3.79,101l.23-.69L6.1,101Z"/><rect class="ae1029f7-3d7e-441a-b5d9-1f6f984f8c9b" x="187.89" y="159.94" width="0.73" height="1.1" transform="translate(-22.55 289.93) rotate(-72)"/><rect class="ae1029f7-3d7e-441a-b5d9-1f6f984f8c9b" x="0.85" y="99.34" width="0.73" height="1.1" transform="matrix(0.59, -0.81, 0.81, 0.59, -80.32, 42.17)"/><path class="ae1029f7-3d7e-441a-b5d9-1f6f984f8c9b" d="M133.93,196.77l-1.8-1.3.43-.59,1.8,1.3Zm-3.59-2.6-1.79-1.3.43-.59,1.79,1.3Zm-3.58-2.6-1.79-1.3.43-.59,1.79,1.3Zm-3.58-2.6-1.79-1.3.43-.59,1.79,1.3Zm-3.58-2.6-1.79-1.3.43-.59,1.79,1.3Zm-3.58-2.6-1.79-1.3.43-.6,1.79,1.3Zm-3.58-2.6-1.79-1.3.43-.6,1.79,1.3Zm-3.58-2.61-1.79-1.3.43-.59,1.79,1.3Zm-3.58-2.6-1.79-1.3.43-.59,1.79,1.3Zm-3.58-2.6-1.79-1.3.43-.59,1.79,1.3Zm-3.58-2.6-1.79-1.3.43-.59,1.79,1.3Zm-3.58-2.6-1.79-1.3.43-.59,1.79,1.3ZM91,165.56l-1.79-1.3.43-.6,1.79,1.3ZM87.38,163l-1.79-1.31.43-.59,1.79,1.3Zm-3.58-2.61L82,159.05l.43-.59,1.79,1.3Zm-3.58-2.6-1.79-1.3.43-.59,1.79,1.3Zm-3.58-2.6-1.79-1.3.43-.59,1.79,1.3Zm-3.58-2.6-1.8-1.3.43-.59,1.8,1.3ZM69.47,150l-1.79-1.3.43-.6,1.79,1.31Zm-3.58-2.6-1.79-1.3.43-.6,1.79,1.3Zm-3.58-2.6-1.79-1.31.43-.59,1.79,1.3Zm-3.58-2.61-1.79-1.3.43-.59,1.79,1.3Zm-3.58-2.6-1.79-1.3.43-.59,1.79,1.3ZM51.57,137l-1.79-1.3.43-.59L52,136.4ZM48,134.34,46.2,133l.43-.59,1.79,1.3Zm-3.58-2.6-1.79-1.3.43-.6,1.79,1.31Zm-3.58-2.6L39,127.84l.43-.6,1.79,1.3Zm-3.58-2.6-1.79-1.31.43-.59,1.79,1.3Zm-3.58-2.61-1.79-1.3.43-.59,1.79,1.3Zm-3.58-2.6L28.3,120l.43-.59,1.79,1.3Zm-3.58-2.6-1.79-1.3.43-.59,1.79,1.3Zm-3.58-2.6-1.79-1.3.43-.59,1.79,1.3Zm-3.58-2.6-1.79-1.3.43-.6,1.79,1.31Zm-3.58-2.6L14,109.63l.43-.6,1.79,1.3Zm-3.59-2.61L10.39,107l.43-.59,1.79,1.3Zm-3.58-2.6-1.79-1.3.43-.59L9,105.13ZM5,103.12l-1.79-1.3.43-.59,1.79,1.3Z"/><rect class="ae1029f7-3d7e-441a-b5d9-1f6f984f8c9b" x="136.01" y="197.54" width="0.73" height="1.1" transform="translate(-104.04 192.03) rotate(-54.01)"/><rect class="ae1029f7-3d7e-441a-b5d9-1f6f984f8c9b" x="20.59" y="37.95" width="1.1" height="0.73" transform="translate(-10.82 8.42) rotate(-18.03)"/><path class="ae1029f7-3d7e-441a-b5d9-1f6f984f8c9b" d="M23.85,37.82l-.23-.69,2.08-.68.23.7ZM28,36.47l-.23-.69,2.08-.68.23.7Zm4.15-1.34-.23-.7L34,33.76l.22.69Zm4.15-1.35-.23-.7,2.08-.67.22.69Zm4.15-1.35-.23-.7,2.08-.67.22.7Zm4.15-1.35-.23-.69,2.08-.68.22.7Zm4.15-1.35L48.52,29l2.08-.68.22.7Zm4.15-1.35-.23-.69L54.75,27l.22.7ZM57.05,27l-.23-.7,2.07-.67.23.69Zm4.15-1.35L61,25l2-.68.23.69Zm4.15-1.35-.23-.7,2.07-.6.23.7ZM69.5,23l-.23-.69,2.07-.68.23.7Zm4.14-1.35L73.42,21l2.07-.68.23.7Zm4.15-1.34-.22-.7,2.07-.67.23.69ZM81.94,19l-.22-.7,2.07-.67.23.69Zm4.15-1.35-.22-.7,2.07-.67.23.69Zm4.15-1.35L90,15.6l2.07-.67.23.7ZM94.39,15l-.22-.69,2.07-.68.23.7Zm4.15-1.35-.22-.69,2.07-.68.23.7Zm4.15-1.34-.23-.7,2.08-.67.23.69Zm4.15-1.35-.23-.7,2.08-.67.22.69ZM111,9.51l-.23-.7,2.08-.67.23.7Zm4.15-1.35-.23-.7L117,6.79l.22.7Zm4.15-1.35-.23-.69,2.08-.68.22.7Zm4.15-1.35-.23-.69,2.08-.68.22.7Zm4.15-1.34-.23-.7,2.08-.67.22.69Zm4.15-1.35-.23-.7,2.08-.67.22.69Z"/><rect class="ae1029f7-3d7e-441a-b5d9-1f6f984f8c9b" x="135.75" y="0.53" width="1.1" height="0.73" transform="translate(6.42 42.23) rotate(-18.03)"/><rect class="ae1029f7-3d7e-441a-b5d9-1f6f984f8c9b" x="20.62" y="38.12" width="1.1" height="0.73"/><path class="ae1029f7-3d7e-441a-b5d9-1f6f984f8c9b" d="M185.47,38.85h-2.21v-.73h2.21Zm-4.42,0h-2.22v-.73h2.22Zm-4.43,0h-2.21v-.73h2.21Zm-4.42,0H170v-.73h2.22Zm-4.43,0h-2.21v-.73h2.21Zm-4.43,0h-2.21v-.73h2.21Zm-4.42,0h-2.21v-.73h2.21Zm-4.43,0h-2.21v-.73h2.21Zm-4.42,0h-2.22v-.73h2.22Zm-4.43,0h-2.21v-.73h2.21Zm-4.42,0H139v-.73h2.22Zm-4.43,0h-2.21v-.73h2.21Zm-4.43,0h-2.21v-.73h2.21Zm-4.42,0h-2.22v-.73h2.22Zm-4.43,0H121.3v-.73h2.21Zm-4.42,0h-2.22v-.73h2.22Zm-4.43,0h-2.21v-.73h2.21Zm-4.43,0H108v-.73h2.21Zm-4.42,0H103.6v-.73h2.21Zm-4.43,0H99.17v-.73h2.21Zm-4.42,0H94.74v-.73H97Zm-4.43,0H90.32v-.73h2.21Zm-4.43,0H85.89v-.73H88.1Zm-4.42,0H81.47v-.73h2.21Zm-4.43,0H77v-.73h2.21Zm-4.42,0H72.61v-.73h2.22Zm-4.43,0H68.19v-.73H70.4Zm-4.42,0H63.76v-.73H66Zm-4.43,0H59.34v-.73h2.21Zm-4.43,0H54.91v-.73h2.21Zm-4.42,0H50.49v-.73H52.7Zm-4.43,0H46.06v-.73h2.21Zm-4.42,0H41.63v-.73h2.22Zm-4.43,0H37.21v-.73h2.21Zm-4.43,0H32.78v-.73H35Zm-4.42,0H28.36v-.73h2.21Zm-4.43,0H23.93v-.73h2.21Z"/><rect class="ae1029f7-3d7e-441a-b5d9-1f6f984f8c9b" x="187.69" y="38.12" width="1.1" height="0.73"/><rect class="ae1029f7-3d7e-441a-b5d9-1f6f984f8c9b" x="20.78" y="38.11" width="0.73" height="1.1" transform="translate(-22.16 46.81) rotate(-71.98)"/><path class="ae1029f7-3d7e-441a-b5d9-1f6f984f8c9b" d="M205.39,98.91l-2.09-.68.23-.7,2.08.68Zm-4.18-1.36-2.09-.68.23-.69,2.09.67ZM197,96.19l-2.09-.68.23-.69,2.09.68Zm-4.18-1.35-2.09-.68.23-.7,2.09.68Zm-4.18-1.36-2.08-.68.22-.7,2.09.68Zm-4.17-1.36-2.09-.68.22-.69,2.09.67Zm-4.18-1.36-2.09-.68.23-.69,2.09.68Zm-4.18-1.35L174,88.73l.23-.7,2.09.68ZM172,88.05l-2.09-.68.23-.7,2.09.68Zm-4.18-1.36L165.7,86l.22-.7L168,86Zm-4.17-1.36-2.09-.68.22-.69,2.09.68ZM159.43,84l-2.09-.68.23-.7,2.09.68Zm-4.18-1.36L153.16,82l.23-.7,2.09.68Zm-4.18-1.36-2.07-.7.23-.7,2.09.68Zm-4.18-1.36-2.09-.68.23-.69,2.09.68Zm-4.17-1.36-2.09-.67.22-.7,2.09.68Zm-4.18-1.35-2.09-.68.22-.7,2.09.68Zm-4.18-1.36-2.09-.68.23-.7,2.09.68Zm-4.18-1.36-2.09-.68.23-.69,2.09.68ZM126,73.11l-2.09-.67.23-.7,2.09.68Zm-4.17-1.35-2.09-.68.22-.7,2.09.68Zm-4.18-1.36-2.09-.68.22-.7,2.09.68ZM113.47,69l-2.09-.68.23-.69,2.09.68Zm-4.18-1.36L107.2,67l.23-.7,2.09.68Zm-4.18-1.35L103,65.65l.23-.7,2.09.68ZM100.93,65l-2.08-.68.22-.7,2.09.68Zm-4.17-1.36L94.67,63l.22-.69L97,63Zm-4.18-1.36-2.09-.67.23-.7,2.08.68ZM88.4,60.9l-2.09-.68.23-.7,2.09.68Zm-4.18-1.36-2.09-.68.23-.7,2.09.68ZM80,58.18l-2-.68.23-.69,2.09.68Zm-4.17-1.36-2.09-.68.22-.69,2.09.68Zm-4.18-1.35-2.09-.68.23-.7,2.08.68Zm-4.18-1.36-2.09-.68.23-.7,2.09.68Zm-4.18-1.36-2.09-.68.23-.69,2.09.68Zm-4.18-1.36L57,50.71l.23-.69,2.09.68ZM55,50l-2.08-.68.22-.7,2.09.68Zm-4.2-1.32L48.71,48l.22-.7L51,48Zm-4.18-1.36-2.09-.68.23-.69,2.08.67ZM42.44,46l-2.09-.68.23-.69,2.09.68Zm-4.18-1.35L36.17,44l.23-.7,2.09.68Zm-4.18-1.36L32,42.57l.22-.7,2.09.68Zm-4.17-1.36-2.09-.68.22-.69,2.09.67Zm-4.18-1.36-2.09-.68.23-.69,2.08.68Z"/><rect class="ae1029f7-3d7e-441a-b5d9-1f6f984f8c9b" x="207.74" y="98.84" width="0.73" height="1.1" transform="translate(49.18 266.51) rotate(-71.97)"/><rect class="ae1029f7-3d7e-441a-b5d9-1f6f984f8c9b" x="20.7" y="38.25" width="0.73" height="1.1" transform="matrix(0.59, -0.81, 0.81, 0.59, -22.71, 33.04)"/><path class="ae1029f7-3d7e-441a-b5d9-1f6f984f8c9b" d="M185.89,159l-1.79-1.3.43-.59,1.79,1.3Zm-3.58-2.6-1.78-1.3.43-.59,1.78,1.3Zm-3.57-2.6L177,152.5l.43-.59,1.79,1.3Zm-3.58-2.6-1.79-1.3.43-.59,1.79,1.3Zm-3.58-2.6-1.79-1.3.43-.59L172,148ZM168,146l-1.79-1.3.43-.59,1.79,1.3Zm-3.58-2.6-1.79-1.3.43-.59,1.79,1.3Zm-3.58-2.6-1.78-1.3.43-.59,1.78,1.3Zm-3.57-2.6-1.79-1.3.43-.59,1.79,1.3Zm-3.58-2.6-1.79-1.3.43-.59,1.79,1.3Zm-3.58-2.6-1.79-1.3.43-.59,1.79,1.3Zm-3.58-2.6-1.79-1.3.43-.59,1.79,1.3ZM143,127.8l-1.79-1.3.43-.59,1.79,1.3Zm-3.57-2.6-1.79-1.3.43-.59,1.78,1.3Zm-3.58-2.6L134,121.3l.43-.59,1.79,1.3Zm-3.58-2.6-1.79-1.3.43-.59,1.79,1.3Zm-3.58-2.6-1.79-1.3.43-.59,1.79,1.3Zm-3.58-2.6-1.79-1.3.43-.59,1.79,1.3Zm-3.58-2.6-1.79-1.3.43-.59,1.79,1.3Zm-3.57-2.6-1.79-1.3.43-.59,1.78,1.3Zm-3.58-2.6-1.79-1.3.43-.59,1.79,1.3Zm-3.58-2.6L109,103.1l.43-.59,1.79,1.3Zm-3.58-2.6-1.79-1.3.43-.59,1.79,1.3Zm-3.58-2.6-1.79-1.3.43-.59,1.79,1.3ZM100,96.63l-1.79-1.3.43-.6,1.79,1.3ZM96.44,94l-1.79-1.3.43-.6,1.79,1.3Zm-3.58-2.6-1.79-1.3.43-.6,1.79,1.3Zm-3.58-2.6-1.79-1.3.43-.6,1.79,1.3ZM85.7,86.2l-1.79-1.3.43-.6,1.79,1.3Zm-3.58-2.6-1.79-1.3.43-.6L82.55,83ZM78.54,81l-1.79-1.3.43-.6L79,80.43ZM75,78.43l-1.79-1.3.43-.6,1.79,1.3Zm-3.58-2.6-1.79-1.3.43-.6,1.79,1.3Zm-3.58-2.6L66,71.93l.43-.6,1.79,1.3Zm-3.58-2.6-1.79-1.3.43-.6L64.66,70ZM60.65,68l-1.79-1.3.43-.6,1.79,1.3Zm-3.58-2.6-1.78-1.3.42-.59L57.5,64.8ZM53.5,62.8l-1.79-1.3.43-.59,1.79,1.3Zm-3.58-2.6-1.79-1.3.43-.59,1.79,1.3Zm-3.58-2.6-1.79-1.3.43-.59L46.77,57ZM42.76,55,41,53.73l.43-.59,1.79,1.3Zm-3.58-2.6-1.79-1.3.43-.59,1.79,1.3Zm-3.57-2.6-1.79-1.3.43-.59L36,49.24ZM32,47.23l-1.79-1.3.43-.59,1.79,1.3Zm-3.58-2.6-1.79-1.3.43-.59L28.88,44ZM24.87,42l-1.79-1.3.43-.59,1.79,1.3Z"/><rect class="ae1029f7-3d7e-441a-b5d9-1f6f984f8c9b" x="187.98" y="159.78" width="0.73" height="1.1" transform="translate(-52.09 218.38) rotate(-53.98)"/><rect class="ae1029f7-3d7e-441a-b5d9-1f6f984f8c9b" x="20.57" y="38.39" width="0.73" height="1.1" transform="translate(-18.88 19.74) rotate(-35.99)"/><path class="ae1029f7-3d7e-441a-b5d9-1f6f984f8c9b" d="M134.59,196l-1.29-1.77.59-.43,1.29,1.77ZM132,192.42l-1.29-1.78.6-.43L132.6,192Zm-2.58-3.55-1.29-1.78.59-.43,1.29,1.78Zm-2.58-3.56-1.29-1.78.59-.43,1.29,1.78Zm-2.58-3.55L123,180l.59-.43,1.29,1.78Zm-2.58-3.56-1.3-1.77.6-.43,1.29,1.77Zm-2.59-3.55-1.29-1.78.59-.43,1.3,1.78Zm-2.58-3.55-1.29-1.78.59-.43,1.29,1.77Zm-2.58-3.56-1.29-1.78.59-.43,1.29,1.78ZM111.35,164l-1.29-1.78.59-.43,1.29,1.78Zm-2.59-3.56-1.29-1.77.6-.43,1.29,1.77Zm-2.58-3.55-1.29-1.78.59-.43,1.29,1.78Zm-2.58-3.56-1.29-1.77.59-.43,1.29,1.77Zm-2.6-3.56L99.73,148l.59-.43,1.29,1.78Zm-2.58-3.55-1.3-1.78.6-.43L99,145.79Zm-2.59-3.56-1.29-1.78.59-.43,1.3,1.78Zm-2.58-3.55L92,137.33l.59-.43,1.29,1.78Zm-2.58-3.56-1.29-1.77.59-.43,1.29,1.77ZM88.11,132l-1.29-1.78.59-.43,1.29,1.78Zm-2.59-3.55-1.29-1.78.6-.43L86.12,128Zm-2.58-3.56-1.29-1.78.59-.43,1.29,1.78Zm-2.58-3.55-1.29-1.78.59-.43L81,120.91Zm-2.58-3.56L76.49,116l.59-.43,1.29,1.77Zm-2.58-3.55-1.3-1.78.6-.43,1.29,1.78Zm-2.59-3.56-1.29-1.77.59-.43,1.3,1.77ZM70,107.12l-1.29-1.78.59-.43,1.29,1.78Zm-2.58-3.55-1.29-1.78.59-.43L68,103.14ZM64.87,100l-1.29-1.77.59-.44,1.29,1.78Zm-2.59-3.55L61,94.68l.59-.43L62.88,96ZM59.7,92.9l-1.29-1.77L59,90.7l1.29,1.77Zm-2.58-3.55-1.29-1.78.59-.43,1.29,1.78ZM54.54,85.8,53.25,84l.59-.43,1.29,1.78ZM52,82.24l-1.3-1.78.6-.43,1.29,1.78Zm-2.59-3.55-1.29-1.78.59-.43L50,78.26Zm-2.58-3.56L45.5,73.36l.59-.43,1.29,1.77Zm-2.58-3.55L42.92,69.8l.59-.43,1.29,1.78ZM41.63,68l-1.3-1.78.6-.43,1.29,1.77ZM39,64.47l-1.29-1.78.59-.43L39.64,64Zm-2.58-3.55-1.29-1.78.59-.43L37,60.49Zm-2.58-3.56-1.29-1.77.59-.44,1.29,1.78ZM31.3,53.81,30,52l.59-.43,1.29,1.78Zm-2.58-3.56-1.3-1.77.6-.43,1.29,1.77ZM26.13,46.7l-1.29-1.78.59-.43,1.29,1.78Zm-2.58-3.55-1.29-1.78.59-.43,1.29,1.78Z"/><rect class="ae1029f7-3d7e-441a-b5d9-1f6f984f8c9b" x="136.13" y="197.44" width="0.73" height="1.1" transform="translate(-90.29 118) rotate(-35.99)"/><rect class="ae1029f7-3d7e-441a-b5d9-1f6f984f8c9b" x="72.73" y="0.36" width="0.73" height="1.1" transform="translate(49.64 70.14) rotate(-71.99)"/><path class="ae1029f7-3d7e-441a-b5d9-1f6f984f8c9b" d="M185.55,37.82l-2.07-.67.22-.7,2.08.68Zm-4.15-1.35-2.07-.67.22-.7,2.08.68Zm-4.15-1.34-2.07-.68.23-.69,2.07.67Zm-4.15-1.35L171,33.1l.23-.69,2.07.67ZM169,32.43l-2.08-.67.23-.7,2.07.67Zm-4.16-1.35-2.07-.67.23-.7,2.07.68Zm-4.14-1.35-2.08-.67.23-.7,2.07.68Zm-4.15-1.35-2.08-.67.23-.7,2.07.68ZM152.36,27l-2.08-.68.23-.69,2.07.67Zm-4.15-1.35L146.13,25l.23-.69,2.07.67Zm-4.15-1.35L142,23.67l.23-.7,2.07.67ZM139.91,23l-2.08-.67.23-.7,2.07.68Zm-4.15-1.35L133.68,21l.23-.7L136,21Zm-4.15-1.34-2.08-.68.23-.7,2.08.68ZM127.46,19l-2.08-.68.23-.69,2.08.67Zm-4.15-1.35L121.24,17l.22-.69,2.08.67Zm-4.15-1.35-2.07-.67.22-.7,2.08.67ZM115,14.9l-2.07-.67.22-.7,2.08.68Zm-4.15-1.35-2.07-.67.22-.7,2.08.68Zm-4.15-1.34-2.07-.68.22-.69,2.08.67Zm-4.15-1.35-2.07-.68.22-.69,2.08.67ZM98.41,9.51l-2.07-.68.22-.69,2.08.67ZM94.26,8.16l-2.07-.67.22-.7,2.08.67ZM90.11,6.81,88,6.14l.23-.7,2.07.68ZM86,5.46l-2.07-.67.23-.7,2.07.68ZM81.82,4.12l-2.08-.68L80,2.75l2,.67ZM77.67,2.77l-2.08-.68.23-.69,2.07.67Z"/><rect class="ae1029f7-3d7e-441a-b5d9-1f6f984f8c9b" x="187.9" y="37.77" width="0.73" height="1.1" transform="translate(93.7 205.56) rotate(-72.02)"/><rect class="ae1029f7-3d7e-441a-b5d9-1f6f984f8c9b" x="72.67" y="0.51" width="0.73" height="1.1" transform="translate(29.23 59.51) rotate(-53.99)"/><path class="ae1029f7-3d7e-441a-b5d9-1f6f984f8c9b" d="M205.74,97.93,204,96.63l.43-.59,1.79,1.3Zm-3.58-2.6L200.37,94l.43-.6,1.79,1.3Zm-3.58-2.6-1.79-1.31.43-.59,1.79,1.3ZM195,90.12l-1.79-1.3.43-.59,1.79,1.3Zm-3.58-2.6-1.79-1.3.43-.59,1.79,1.3Zm-3.58-2.6-1.79-1.3.43-.59,1.79,1.3Zm-3.58-2.6L182.47,81l.43-.59,1.79,1.3Zm-3.58-2.6-1.79-1.3.43-.6,1.79,1.31Zm-3.58-2.6-1.79-1.3.43-.6,1.79,1.3Zm-3.58-2.6-1.8-1.31.43-.59,1.8,1.3Zm-3.59-2.61-1.79-1.3.43-.59,1.79,1.3Zm-3.58-2.6L164.56,68l.43-.59,1.79,1.3Zm-3.58-2.6L161,65.41l.43-.59,1.79,1.3Zm-3.58-2.6-1.79-1.3.43-.59,1.79,1.3Zm-3.58-2.6-1.79-1.3.43-.6,1.79,1.3ZM152,58.91l-1.79-1.3.43-.6,1.79,1.3Zm-3.58-2.6L146.66,55l.43-.59,1.79,1.3Zm-3.58-2.61-1.79-1.3.43-.59,1.79,1.3Zm-3.58-2.6-1.79-1.3.43-.59,1.79,1.3Zm-3.58-2.6-1.79-1.3.43-.59,1.79,1.3Zm-3.58-2.6-1.79-1.3.43-.59,1.79,1.3Zm-3.58-2.6L128.76,42l.43-.6L131,42.7ZM127,40.7l-1.79-1.3.43-.6,1.79,1.3Zm-3.58-2.61-1.79-1.3.43-.59,1.79,1.3Zm-3.58-2.6L118,34.19l.43-.59,1.79,1.3Zm-3.58-2.6-1.79-1.3.43-.59,1.79,1.3Zm-3.58-2.6-1.8-1.3.43-.59,1.8,1.3Zm-3.59-2.6-1.79-1.3.43-.6,1.79,1.31Zm-3.58-2.6-1.79-1.3.43-.6,1.79,1.3Zm-3.58-2.6-1.79-1.3.43-.6,1.79,1.3Zm-3.58-2.61-1.79-1.3L97,18l1.79,1.3Zm-3.58-2.6L93,16l.43-.59,1.79,1.3Zm-3.58-2.6-1.79-1.3.43-.59,1.79,1.3Zm-3.58-2.6-1.79-1.3.43-.59L88,11.49ZM84,9.48l-1.79-1.3.43-.6,1.79,1.31Zm-3.58-2.6-1.79-1.3.43-.6,1.79,1.3Zm-3.58-2.6L75.05,3l.43-.59,1.79,1.3Z"/><rect class="ae1029f7-3d7e-441a-b5d9-1f6f984f8c9b" x="207.83" y="98.73" width="0.73" height="1.1" transform="translate(5.47 209.29) rotate(-53.98)"/><rect class="ae1029f7-3d7e-441a-b5d9-1f6f984f8c9b" x="72.54" y="0.62" width="0.73" height="1.1" transform="translate(13.23 43.08) rotate(-36)"/><path class="ae1029f7-3d7e-441a-b5d9-1f6f984f8c9b" d="M186.55,158.22l-1.29-1.78.59-.43,1.29,1.78ZM184,154.66l-1.29-1.77.59-.43,1.29,1.77Zm-2.58-3.55-1.29-1.78.59-.43,1.29,1.78Zm-2.58-3.55-1.3-1.78.6-.43,1.29,1.78ZM176.22,144l-1.29-1.78.59-.43,1.3,1.78Zm-2.58-3.55-1.29-1.78.59-.43,1.29,1.78Zm-2.58-3.56-1.29-1.77.59-.43,1.29,1.77Zm-2.58-3.55-1.29-1.78.59-.43,1.29,1.78Zm-2.59-3.55L164.6,128l.6-.43,1.29,1.77Zm-2.58-3.56L162,124.45l.59-.43,1.29,1.78Zm-2.58-3.55-1.29-1.78.59-.43,1.29,1.78Zm-2.58-3.56-1.29-1.77.59-.44,1.29,1.78Zm-2.58-3.55-1.29-1.78.59-.43,1.29,1.78ZM153,112l-1.29-1.77.59-.43,1.3,1.77Zm-2.58-3.55-1.29-1.78.59-.43L151,108Zm-2.58-3.55-1.29-1.78.59-.43,1.29,1.78Zm-2.58-3.56L144,99.58l.59-.44,1.29,1.78Zm-2.58-3.55L141.36,96l.6-.43,1.29,1.78Zm-2.59-3.56-1.29-1.77.59-.43,1.29,1.77Zm-2.58-3.55-1.29-1.78.59-.43,1.29,1.78Zm-2.58-3.55-1.29-1.78.59-.43,1.29,1.77Zm-2.58-3.56L131,81.8l.59-.43,1.29,1.78ZM129.74,80l-1.29-1.78.59-.43,1.3,1.78Zm-2.58-3.56-1.29-1.77.59-.43L127.75,76Zm-2.58-3.55-1.29-1.78.59-.43,1.29,1.78ZM122,69.36l-1.29-1.77.59-.43,1.29,1.77Zm-2.59-3.55L118.12,64l.6-.43L120,65.38Zm-2.58-3.55-1.29-1.78.59-.43,1.29,1.78Zm-2.58-3.56L113,56.93l.59-.44,1.29,1.78Zm-2.58-3.55-1.29-1.78.59-.43,1.29,1.78Zm-2.58-3.56-1.3-1.77.6-.43,1.29,1.77ZM106.5,48l-1.29-1.78.59-.43,1.3,1.78Zm-2.58-3.55-1.29-1.78.59-.43L104.51,44Zm-2.58-3.56-1.29-1.78.59-.43,1.29,1.78Zm-2.58-3.55L97.47,35.6l.59-.43L99.35,37Zm-2.59-3.56L94.88,32l.6-.43,1.29,1.77Zm-2.58-3.55L92.3,28.49l.59-.43,1.29,1.78ZM91,26.72l-1.29-1.78.59-.43,1.29,1.77Zm-2.58-3.56-1.29-1.78.59-.43L89,22.73Zm-2.58-3.55-1.3-1.78.6-.43,1.29,1.78Zm-2.59-3.56L82,14.28l.59-.43,1.3,1.77ZM80.68,12.5l-1.29-1.78.59-.43,1.29,1.78ZM78.1,8.94,76.81,7.17l.59-.43,1.29,1.77ZM75.52,5.39,74.23,3.61l.59-.43L76.11,5Z"/><rect class="ae1029f7-3d7e-441a-b5d9-1f6f984f8c9b" x="188.1" y="159.68" width="0.73" height="1.1" transform="translate(-58.18 141.33) rotate(-35.99)"/><rect class="ae1029f7-3d7e-441a-b5d9-1f6f984f8c9b" x="72.39" y="0.7" width="0.73" height="1.1" transform="translate(3.2 22.63) rotate(-18.07)"/><path class="ae1029f7-3d7e-441a-b5d9-1f6f984f8c9b" d="M135.45,195.39l-.69-2.1.7-.23.68,2.1Zm-1.37-4.21-.68-2.1.69-.23.69,2.11Zm-1.37-4.2-.68-2.11.7-.22.68,2.1Zm-1.36-4.21-.69-2.1.7-.23.68,2.1ZM130,178.56l-.68-2.1.69-.23.69,2.11Zm-1.37-4.2-.68-2.11.7-.22.68,2.1Zm-1.36-4.21-.69-2.1.7-.23.68,2.1Zm-1.37-4.21-.68-2.1.69-.23.69,2.11Zm-1.37-4.2-.68-2.11.7-.22.68,2.1Zm-1.36-4.21-.69-2.1.7-.23.68,2.11Zm-1.37-4.21-.68-2.1.69-.22.69,2.1Zm-1.37-4.2-.68-2.1.7-.23.68,2.1Zm-1.36-4.21-.69-2.1.7-.23.68,2.11Zm-1.37-4.2-.7-2.11.69-.22.69,2.1Zm-1.37-4.21-.68-2.1.7-.23.68,2.1ZM115,132.29l-.69-2.1.7-.23.68,2.11Zm-1.37-4.2L112.9,126l.69-.22.69,2.1Zm-1.37-4.21-.68-2.1.7-.23.68,2.1Zm-1.36-4.21-.69-2.1.7-.23.68,2.11Zm-1.37-4.2-.69-2.11.7-.22.69,2.1Zm-1.37-4.21-.68-2.1.7-.23.68,2.1Zm-1.36-4.21-.69-2.1.7-.23.68,2.11Zm-1.37-4.2-.68-2.11.69-.22.69,2.1ZM104,98.64l-.68-2.1.7-.23.68,2.1Zm-1.37-4.21-.68-2.1.7-.23.68,2.11Zm-1.36-4.2-.69-2.11.7-.22L102,90ZM99.91,86l-.68-2.1.69-.23.69,2.1Zm-1.37-4.21-.68-2.1.7-.23.68,2.11Zm-1.36-4.2-.69-2.11.7-.22.69,2.1ZM95.81,73.4l-.68-2.1.69-.23.69,2.1Zm-1.37-4.21-.68-2.1.7-.23L95.14,69ZM93.08,65l-.69-2.11.7-.22.68,2.1Zm-1.37-4.21L91,58.68l.69-.23.69,2.11Zm-1.37-4.2-.68-2.11.7-.22.68,2.1ZM89,52.37l-.69-2.1L89,50l.68,2.1Zm-1.37-4.21L87,46.06l.69-.23.69,2.11ZM86.24,44l-.68-2.11.7-.22.68,2.1Zm-1.36-4.21-.69-2.1.7-.23.68,2.1Zm-1.37-4.21-.68-2.1.69-.23.69,2.11Zm-1.37-4.2-.68-2.11.7-.22.68,2.1Zm-1.36-4.21L80.09,25l.7-.23.68,2.1ZM79.41,23l-.68-2.1.69-.23.69,2.11ZM78,18.72l-.68-2.11.7-.22.68,2.1Zm-1.36-4.21L76,12.41l.7-.23.68,2.1ZM75.31,10.3l-.68-2.1.69-.2L76,10.08ZM73.94,6.1,73.26,4l.7-.22.68,2.1Z"/><rect class="ae1029f7-3d7e-441a-b5d9-1f6f984f8c9b" x="136.28" y="197.34" width="0.73" height="1.1" transform="translate(-54.54 52.01) rotate(-18.03)"/><rect class="ae1029f7-3d7e-441a-b5d9-1f6f984f8c9b" x="136.78" y="0.62" width="0.73" height="1.1" transform="translate(25.5 80.84) rotate(-36)"/><path class="ae1029f7-3d7e-441a-b5d9-1f6f984f8c9b" d="M206.41,97.14l-1.28-1.76.59-.44L207,96.71Zm-2.56-3.53-1.29-1.76.6-.44,1.28,1.77Zm-2.57-3.53L200,88.32l.59-.44,1.28,1.77Zm-2.56-3.53-1.28-1.76.59-.44,1.28,1.77ZM196.15,83l-1.28-1.76.59-.43,1.29,1.76Zm-2.56-3.53-1.28-1.76.59-.43L194.18,79ZM191,76l-1.28-1.76.59-.43,1.29,1.76Zm-2.56-3.53-1.28-1.76.59-.43,1.3,1.72ZM185.9,68.9l-1.29-1.76.6-.43,1.28,1.76Zm-2.57-3.53-1.28-1.76.59-.43,1.28,1.76Zm-2.56-3.53-1.29-1.76.6-.43,1.28,1.76Zm-2.57-3.53-1.28-1.76.59-.43,1.28,1.76Zm-2.56-3.53L174.35,53l.6-.43,1.28,1.76Zm-2.57-3.53-1.28-1.76.59-.43,1.28,1.76Zm-2.56-3.53L169.23,46l.59-.43,1.28,1.76Zm-2.57-3.53-1.28-1.76.59-.43,1.29,1.76Zm-2.56-3.53L164.1,38.9l.59-.43L166,40.23Zm-2.57-3.53-1.28-1.76.59-.43,1.29,1.76Zm-2.56-3.53L159,31.84l.59-.43,1.28,1.76Zm-2.56-3.53-1.29-1.76.6-.43,1.28,1.76Zm-2.57-3.53-1.28-1.76.59-.43,1.28,1.76ZM152.56,23l-1.29-1.76.6-.43,1.28,1.76ZM150,19.48l-1.28-1.76.59-.43,1.28,1.76ZM147.43,16l-1.29-1.77.6-.43L148,15.52Zm-2.57-3.53-1.28-1.77.59-.43L145.45,12ZM142.3,8.9,141,7.13l.59-.43,1.28,1.76Zm-2.57-3.53L138.45,3.6l.59-.43,1.29,1.77Z"/><rect class="ae1029f7-3d7e-441a-b5d9-1f6f984f8c9b" x="207.96" y="98.6" width="0.73" height="1.1" transform="translate(-18.5 141.34) rotate(-35.99)"/><rect class="ae1029f7-3d7e-441a-b5d9-1f6f984f8c9b" x="136.62" y="0.71" width="0.73" height="1.1" transform="translate(6.29 42.32) rotate(-17.97)"/><path class="ae1029f7-3d7e-441a-b5d9-1f6f984f8c9b" d="M187.41,157.63l-.68-2.1.7-.23.68,2.11Zm-1.36-4.21-.69-2.1.7-.23.68,2.11Zm-1.37-4.21-.68-2.1.69-.23.69,2.11ZM183.31,145l-.68-2.1.69-.23.69,2.11Zm-1.37-4.2-.68-2.11.7-.23.68,2.11Zm-1.36-4.21-.69-2.11.7-.23.68,2.11Zm-1.37-4.21-.69-2.11.7-.22.68,2.1Zm-1.37-4.21-.68-2.11.69-.22.69,2.1ZM176.47,124l-.68-2.11.69-.22.69,2.1Zm-1.37-4.21-.68-2.11.7-.22.68,2.1Zm-1.36-4.21-.69-2.1.7-.23.68,2.1Zm-1.37-4.21-.68-2.1.69-.23.69,2.1ZM171,107.12l-.68-2.1.69-.23.69,2.1Zm-1.37-4.21-.68-2.1.7-.23.68,2.11Zm-1.36-4.21-.69-2.1.7-.23.68,2.11Zm-1.37-4.21-.69-2.1.7-.23.69,2.11Zm-1.37-4.21-.68-2.1.69-.23.69,2.11Zm-1.37-4.2L163.48,84l.7-.23.68,2.11Zm-1.37-4.21-.68-2.11.7-.23.68,2.11Zm-1.36-4.21-.69-2.11.7-.22.69,2.1Zm-1.37-4.21-.68-2.11.69-.22.69,2.1Zm-1.37-4.21L158,67.13l.7-.22.68,2.1ZM157.32,65l-.68-2.11.7-.22.68,2.1ZM156,60.82l-.69-2.11.7-.22.68,2.1Zm-1.37-4.21-.68-2.1.69-.23.69,2.1Zm-1.37-4.21-.68-2.1.7-.23.68,2.1Zm-1.37-4.21-.68-2.1.7-.23.68,2.11ZM150.49,44l-.69-2.1.7-.23.68,2.11Zm-1.37-4.21-.69-2.1.7-.23.69,2.11Zm-1.37-4.21-.68-2.1.69-.23.69,2.11Zm-1.37-4.21-.68-2.1.7-.23.68,2.11ZM145,27.15,144.33,25l.7-.23.68,2.11Zm-1.37-4.21L143,20.83l.7-.23.68,2.11Zm-1.37-4.21-.68-2.11.69-.22.69,2.1Zm-1.37-4.21-.68-2.11.7-.22.68,2.1Zm-1.37-4.21-.68-2.11.7-.22.68,2.1ZM138.18,6.1,137.49,4l.7-.22.68,2.1Z"/><rect class="ae1029f7-3d7e-441a-b5d9-1f6f984f8c9b" x="188.25" y="159.61" width="0.73" height="1.1" transform="translate(-40.21 66) rotate(-17.97)"/><rect class="ae1029f7-3d7e-441a-b5d9-1f6f984f8c9b" x="136.45" y="0.73" width="0.73" height="1.1"/><path class="ae1029f7-3d7e-441a-b5d9-1f6f984f8c9b" d="M137.19,195.13h-.74v-2.2h.74Zm0-4.39h-.74v-2.2h.74Zm0-4.4h-.74v-2.19h.74Zm0-4.39h-.74v-2.2h.74Zm0-4.39h-.74v-2.2h.74Zm0-4.4h-.74V171h.74Zm0-4.39h-.74v-2.2h.74Zm0-4.39h-.74v-2.2h.74Zm0-4.4h-.74v-2.19h.74Zm0-4.39h-.74v-2.2h.74Zm0-4.39h-.74V149h.74Zm0-4.4h-.74v-2.19h.74Zm0-4.39h-.74v-2.2h.74Zm0-4.39h-.74v-2.2h.74Zm0-4.39h-.74v-2.2h.74Zm0-4.4h-.74V127h.74Zm0-4.39h-.74v-2.2h.74Zm0-4.39h-.74v-2.2h.74Zm0-4.4h-.74v-2.19h.74Zm0-4.39h-.74v-2.2h.74Zm0-4.39h-.74v-2.2h.74Zm0-4.4h-.74v-2.19h.74Zm0-4.39h-.74v-2.2h.74Zm0-4.39h-.74v-2.2h.74Zm0-4.4h-.74V87.5h.74Zm0-4.39h-.74V83.1h.74Zm0-4.39h-.74v-2.2h.74Zm0-4.4h-.74V74.32h.74Zm0-4.39h-.74v-2.2h.74Zm0-4.39h-.74v-2.2h.74Zm0-4.4h-.74V61.14h.74Zm0-4.39h-.74v-2.2h.74Zm0-4.39h-.74v-2.2h.74Zm0-4.4h-.74V48h.74Zm0-4.39h-.74V43.57h.74Zm0-4.39h-.74v-2.2h.74Zm0-4.39h-.74v-2.2h.74Zm0-4.4h-.74V30.39h.74Zm0-4.39h-.74V26h.74Zm0-4.39h-.74V21.6h.74Zm0-4.4h-.74V17.21h.74Zm0-4.39h-.74v-2.2h.74Zm0-4.39h-.74V8.42h.74Zm0-4.4h-.74V4h.74Z"/><rect class="ae1029f7-3d7e-441a-b5d9-1f6f984f8c9b" x="136.45" y="197.33" width="0.73" height="1.1"/><rect class="ae1029f7-3d7e-441a-b5d9-1f6f984f8c9b" x="188.42" y="38.49" width="0.73" height="1.1"/><path class="ae1029f7-3d7e-441a-b5d9-1f6f984f8c9b" d="M189.15,157.39h-.73v-2.18h.73Zm0-4.36h-.73v-2.19h.73Zm0-4.37h-.73v-2.18h.73Zm0-4.36h-.73v-2.18h.73Zm0-4.36h-.73v-2.19h.73Zm0-4.37h-.73v-2.18h.73Zm0-4.36h-.73V129h.73Zm0-4.36h-.73v-2.18h.73Zm0-4.37h-.73V120.3h.73Zm0-4.36h-.73v-2.18h.73Zm0-4.36h-.73v-2.18h.73Zm0-4.36h-.73v-2.19h.73Zm0-4.37h-.73v-2.18h.73Zm0-4.36h-.73V98.49h.73Zm0-4.36h-.73V94.12h.73Zm0-4.37h-.73V89.76h.73Zm0-4.36h-.73V85.4h.73Zm0-4.36h-.73V81h.73Zm0-4.37h-.73V76.67h.73Zm0-4.36h-.73V72.31h.73Zm0-4.36h-.73V68h.73Zm0-4.37h-.73V63.58h.73Zm0-4.36h-.73V59.22h.73Zm0-4.36h-.73V54.86h.73Zm0-4.36h-.73V50.49h.73Zm0-4.37h-.73V46.13h.73Zm0-4.36h-.73V41.77h.73Z"/><rect class="ae1029f7-3d7e-441a-b5d9-1f6f984f8c9b" x="188.42" y="159.57" width="0.73" height="1.1"/><rect class="ae1029f7-3d7e-441a-b5d9-1f6f984f8c9b" x="188.06" y="38.64" width="1.1" height="0.73" transform="translate(93.43 206.45) rotate(-72.07)"/><path class="ae1029f7-3d7e-441a-b5d9-1f6f984f8c9b" d="M138.19,195.39l-.7-.23.69-2.1.69.22Zm1.37-4.21-.7-.23.68-2.1.7.22Zm1.37-4.21-.7-.23.68-2.1.7.23Zm1.36-4.21-.69-.23.68-2.1.7.23Zm1.37-4.21-.7-.23.69-2.1.7.23Zm1.37-4.21-.7-.22L145,172l.69.23Zm1.37-4.21-.7-.22.68-2.11.7.23Zm1.36-4.21-.69-.22.68-2.11.7.23Zm1.37-4.21-.7-.22.69-2.11.7.23Zm1.37-4.21-.7-.22.69-2.11.69.23Zm1.37-4.2-.7-.23.68-2.11.7.23Zm1.37-4.21-.7-.23.68-2.1.7.22Zm1.36-4.21-.69-.23.68-2.1.7.22Zm1.37-4.21-.7-.23.69-2.1.69.22Zm1.37-4.21-.7-.23.69-2.1.69.22Zm1.37-4.21L158,132l.68-2.1.7.22Zm1.36-4.21-.69-.23.68-2.1.7.23Zm1.37-4.21-.7-.23.69-2.1.7.23Zm1.37-4.21-.7-.23.69-2.1.69.23Zm1.37-4.21-.7-.22.68-2.11.7.23Zm1.36-4.21-.69-.22.68-2.11.7.23Zm1.37-4.21-.7-.22.69-2.11.7.23Zm1.37-4.21-.7-.22.69-2.11.69.23Zm1.37-4.2-.7-.23.68-2.11.7.23ZM171,94.37l-.7-.23L171,92l.7.22Zm1.36-4.21-.69-.23.68-2.1.7.22ZM173.75,86l-.7-.23.69-2.1.69.22Zm1.37-4.21-.7-.23.68-2.1.7.22Zm1.37-4.21-.7-.23.68-2.1.7.22Zm1.36-4.21-.69-.23.68-2.1.7.23Zm1.37-4.21-.7-.23.69-2.1.7.23ZM180.59,65l-.7-.23.69-2.1.69.23ZM182,60.69l-.7-.22.68-2.11.7.23Zm1.36-4.21-.69-.22.68-2.11.7.23Zm1.37-4.21-.69-.22.68-2.11.7.23Zm1.37-4.21-.7-.22.69-2.11.69.23Zm1.37-4.21-.7-.22.68-2.11.7.23Z"/><rect class="ae1029f7-3d7e-441a-b5d9-1f6f984f8c9b" x="136.45" y="197.54" width="1.1" height="0.73" transform="translate(-93.48 267.32) rotate(-72.07)"/><rect class="ae1029f7-3d7e-441a-b5d9-1f6f984f8c9b" x="207.76" y="99.66" width="1.1" height="0.73" transform="translate(4.87 209.62) rotate(-53.96)"/><path class="ae1029f7-3d7e-441a-b5d9-1f6f984f8c9b" d="M139,196l-.59-.43,1.28-1.77.6.43Zm2.57-3.53L141,192l1.28-1.77.59.43Zm2.56-3.53-.59-.43,1.28-1.77.59.43Zm2.57-3.53-.6-.43,1.29-1.77.59.43Zm2.56-3.53-.59-.43,1.28-1.77.59.43Zm2.57-3.53-.6-.43,1.29-1.77.59.43Zm2.56-3.53-.59-.43,1.28-1.77.59.43Zm2.56-3.53-.59-.43,1.28-1.77.6.43Zm2.57-3.53-.59-.43,1.28-1.77.59.43Zm2.56-3.53-.59-.43,1.28-1.77.6.43Zm2.57-3.53-.59-.43,1.28-1.77.59.43Zm2.56-3.53-.59-.43L167.9,155l.6.43Zm2.57-3.53-.59-.43,1.28-1.77.59.43Zm2.56-3.53-.59-.43,1.28-1.77.59.43Zm2.57-3.53-.6-.43,1.29-1.77.59.43Zm2.56-3.53-.59-.43,1.28-1.77.59.43Zm2.57-3.53-.6-.43,1.29-1.77.59.44ZM182.6,136l-.59-.43,1.28-1.77.59.44Zm2.56-3.53-.59-.43,1.28-1.77.6.44Zm2.57-3.53-.59-.43,1.28-1.76.59.43Zm2.56-3.53-.59-.43,1.3-1.77.6.43Zm2.57-3.53-.59-.43,1.28-1.76.59.43Zm2.56-3.53-.59-.43,1.28-1.76.6.43ZM198,114.8l-.59-.43,1.28-1.76.59.43Zm2.56-3.53-.59-.43,1.28-1.76.59.43Zm2.57-3.53-.6-.43,1.29-1.76.59.43Zm2.56-3.53-.59-.43,1.28-1.76.59.43Z"/><rect class="ae1029f7-3d7e-441a-b5d9-1f6f984f8c9b" x="136.59" y="197.63" width="1.1" height="0.73" transform="translate(-103.65 192.36) rotate(-53.95)"/><path class="ae1029f7-3d7e-441a-b5d9-1f6f984f8c9b" d="M137.06,199.16H72.35l-.2-.14L20,161.12l-.08-.23L0,99.58l.07-.23L20,38,72.35,0h64.71l.19.14L189.41,38l.07.22L209.4,99.58l-.07.22-19.92,61.32Zm-64.24-1.47h63.76l51.58-37.47,19.71-60.64L188.16,38.94,136.58,1.46H72.82L21.24,38.94,1.54,99.58l19.7,60.64Z"/></g></svg>