<svg id="b3604c2f-3249-4a1a-98c2-2390db639202" data-name="Layer 1" xmlns="http://www.w3.org/2000/svg" viewBox="0 0 201.25 199.19"><defs><style>.af05517a-485e-46b0-8727-f9b267e7d06a{fill:#000000;}</style></defs><title>09u</title><g id="b77486ff-bb34-4ee0-928a-fba472735872" data-name="items"><rect class="af05517a-485e-46b0-8727-f9b267e7d06a" x="129.04" y="0.59" width="0.73" height="1.1" transform="translate(30.89 85.05) rotate(-40.93)"/><path class="af05517a-485e-46b0-8727-f9b267e7d06a" d="M198.06,80.94l-1.43-1.65.55-.48,1.43,1.65Zm-2.86-3.3L193.77,76l.55-.48,1.43,1.65Zm-2.86-3.3-1.43-1.65.56-.47,1.42,1.64Zm-2.86-3.29-1.42-1.65.55-.48L190,70.57Zm-2.85-3.3L185.2,66.1l.55-.48,1.43,1.65Zm-2.86-3.3-1.43-1.65.55-.48L184.32,64Zm-2.86-3.3-1.43-1.64L180,59l1.43,1.64Zm-2.85-3.29-1.43-1.65.55-.48,1.43,1.65Zm-2.86-3.3-1.43-1.65.55-.48,1.43,1.65Zm-2.86-3.3-1.43-1.65.56-.48,1.42,1.65ZM169.48,48l-1.42-1.64.55-.48L170,47.49Zm-2.85-3.29L165.2,43l.55-.48,1.43,1.65Zm-2.86-3.3-1.43-1.65.55-.48,1.43,1.65Zm-2.86-3.3-1.43-1.65L160,36l1.43,1.65Zm-2.85-3.29-1.43-1.65.55-.48,1.43,1.65Zm-2.86-3.3-1.43-1.65.55-.48L155.75,31Zm-2.86-3.3-1.43-1.65.56-.48,1.42,1.65Zm-2.86-3.3-1.42-1.65.55-.47L150,24.4Zm-2.85-3.29L145.2,20l.55-.48,1.43,1.65Zm-2.86-3.3-1.43-1.65.55-.48,1.43,1.65ZM140.91,15l-1.43-1.65.56-.48,1.43,1.65Zm-2.85-3.3-1.43-1.64.55-.48,1.43,1.64ZM135.2,8.4l-1.43-1.65.55-.48,1.43,1.65Zm-2.86-3.3-1.43-1.65.56-.48,1.42,1.65Z"/><rect class="af05517a-485e-46b0-8727-f9b267e7d06a" x="199.74" y="82.19" width="0.73" height="1.1" transform="translate(-5.28 151.33) rotate(-40.93)"/><rect class="af05517a-485e-46b0-8727-f9b267e7d06a" x="128.9" y="0.68" width="0.73" height="1.1" transform="translate(11.21 53.9) rotate(-24.59)"/><path class="af05517a-485e-46b0-8727-f9b267e7d06a" d="M190.7,136.62l-.91-2,.67-.31.9,2Zm-1.81-4-.91-2,.67-.3.9,2Zm-1.81-4-.91-2,.67-.3.9,2Zm-1.81-4-.91-2,.67-.31.9,2Zm-1.81-4-.91-2,.67-.31.9,2Zm-1.81-4-.91-2,.67-.3.9,2Zm-1.81-4-.91-2,.67-.3.9,2Zm-1.81-4-.91-2,.67-.31.9,2Zm-1.81-4-.91-2,.67-.3.9,2Zm-1.81-4-.91-2,.67-.3.9,2Zm-1.81-4-.91-2,.67-.3.9,2Zm-1.81-4-.91-2,.67-.31.9,2Zm-1.81-4-.91-2,.67-.3.9,2Zm-1.81-4-.91-2,.67-.3.9,2Zm-1.81-4-.91-2,.67-.31.91,2Zm-1.81-4-.91-2,.67-.3.9,2Zm-1.81-4-.91-2,.67-.3.91,2Zm-1.81-4-.9-2,.66-.3.91,2Zm-1.81-4-.91-2,.67-.31.91,2Zm-1.81-4-.9-2,.66-.3.91,2Zm-1.81-4-.9-2,.66-.3.91,2Zm-1.81-4-.9-2,.66-.31.91,2Zm-1.81-4-.9-2,.66-.31.91,2Zm-1.81-4-.9-2,.66-.3.91,2Zm-1.81-4-.9-2,.66-.3.91,2Zm-1.81-4-.9-2,.66-.31.91,2Zm-1.81-4-.9-2,.66-.3.91,2Zm-1.81-4-.9-2,.66-.3.91,2Zm-1.81-4-.9-2,.66-.3.91,2Zm-1.81-4-.9-2,.66-.31.91,2Zm-1.81-4-.9-2,.66-.3.91,2Zm-1.81-4-.9-2,.66-.3.91,2Zm-1.81-4-.9-2,.66-.31.91,2Zm-1.81-4-.9-2,.67-.31.9,2Z"/><rect class="af05517a-485e-46b0-8727-f9b267e7d06a" x="191.8" y="138.4" width="0.73" height="1.1" transform="translate(-40.35 92.36) rotate(-24.54)"/><rect class="af05517a-485e-46b0-8727-f9b267e7d06a" x="128.75" y="0.73" width="0.73" height="1.1" transform="matrix(0.99, -0.14, 0.14, 0.99, 1.13, 18.38)"/><path class="af05517a-485e-46b0-8727-f9b267e7d06a" d="M154.33,179.21l-.31-2.16.73-.11.31,2.17Zm-.62-4.32-.31-2.17.73-.1.31,2.16Zm-.62-4.33-.31-2.16.72-.11.31,2.17Zm-.62-4.32-.31-2.17.72-.1.31,2.16Zm-.62-4.33-.32-2.16.73-.11.31,2.17Zm-.63-4.33-.31-2.16.73-.1.31,2.16Zm-.62-4.32-.31-2.16.71-.1.31,2.16Zm-.62-4.33-.31-2.16.72-.1.31,2.16Zm-.62-4.32-.31-2.16.72-.11.31,2.16Zm-.62-4.33-.32-2.16.73-.1.31,2.16Zm-.63-4.32-.31-2.16.73-.11.31,2.16Zm-.62-4.33-.31-2.16.73-.1.31,2.16Zm-.62-4.32-.31-2.17.72-.1.31,2.16Zm-.62-4.33-.31-2.16.72-.11.31,2.17Zm-.62-4.32-.31-2.17.72-.1.31,2.16Zm-.63-4.33-.31-2.16.73-.11.31,2.17Zm-.62-4.32-.31-2.17.73-.1.31,2.16Zm-.62-4.33-.31-2.16.72-.11.32,2.17Zm-.62-4.33-.31-2.16.72-.1.31,2.16ZM142.52,97l-.31-2.16.72-.11.31,2.17Zm-.62-4.33-.32-2.16.73-.1.31,2.16Zm-.63-4.32L141,86.22l.73-.11.31,2.16ZM140.65,84l-.31-2.16.73-.1.31,2.16ZM140,79.73l-.31-2.16.72-.11.31,2.16Zm-.62-4.33-.31-2.16.72-.1.31,2.16Zm-.62-4.32-.32-2.17.73-.1.31,2.16Zm-.63-4.33-.31-2.16.73-.11.31,2.17Zm-.62-4.32-.31-2.17.73-.1.31,2.16Zm-.62-4.33-.31-2.16.72-.11.31,2.17Zm-.62-4.32L136,51.61l.72-.1.31,2.16Zm-.62-4.33-.31-2.16.72-.11.31,2.17ZM135,45.13,134.74,43l.73-.1.31,2.16Zm-.62-4.33-.31-2.16.73-.11.31,2.17Zm-.62-4.33-.31-2.16.72-.1.32,2.16Zm-.62-4.32L132.88,30l.72-.11.31,2.16Zm-.62-4.33-.31-2.16.72-.1.31,2.16ZM132,23.5l-.32-2.16.73-.11.31,2.16Zm-.63-4.33L131,17l.73-.1.31,2.16Zm-.62-4.32-.31-2.16.73-.11.31,2.16Zm-.62-4.33-.31-2.16.72-.1.31,2.16Zm-.62-4.32L129.15,4l.72-.1.31,2.16Z"/><rect class="af05517a-485e-46b0-8727-f9b267e7d06a" x="154.73" y="181.31" width="0.73" height="1.1" transform="matrix(0.99, -0.14, 0.14, 0.99, -24.3, 23.92)"/><rect class="af05517a-485e-46b0-8727-f9b267e7d06a" x="128.42" y="0.92" width="1.1" height="0.73" transform="translate(109.28 128.75) rotate(-81.79)"/><path class="af05517a-485e-46b0-8727-f9b267e7d06a" d="M101.45,195.19l-.72-.1.31-2.2.73.11Zm.63-4.39-.72-.11.31-2.19.73.1Zm.64-4.39-.73-.11.32-2.2.72.11Zm.63-4.4-.73-.1.32-2.2.72.1Zm.63-4.39-.73-.11.32-2.19.72.1Zm.63-4.4-.72-.1.31-2.2.73.11Zm.63-4.39-.72-.1.31-2.2.73.1Zm.63-4.39-.72-.11.31-2.19.73.1Zm.64-4.4-.73-.1.32-2.2.72.11Zm.63-4.39-.73-.1.32-2.2.72.1Zm.63-4.39-.73-.11.32-2.19.72.1Zm.63-4.4-.72-.1.31-2.2.73.11Zm.63-4.39-.72-.11.31-2.19.73.1Zm.63-4.39-.72-.11.32-2.2.72.11Zm.64-4.4-.73-.1.32-2.2.72.1Zm.63-4.39-.73-.11.32-2.19.72.1Zm.63-4.4-.73-.1.32-2.2.73.11Zm.63-4.39-.72-.1.31-2.2.73.1Zm.63-4.39-.72-.11.31-2.19.73.1Zm.63-4.4-.72-.1.32-2.2.72.11Zm.64-4.39-.73-.1.32-2.2.72.1Zm.63-4.39-.73-.11.32-2.19.72.1Zm.63-4.4-.72-.1.31-2.2.73.11Zm.63-4.39-.72-.11.31-2.19.73.1Zm.63-4.39-.72-.11.31-2.2.73.11Zm.64-4.4-.73-.1.32-2.2.72.1Zm.63-4.39-.73-.11.32-2.19.72.1Zm.63-4.4-.73-.1.32-2.2.72.11Zm.63-4.39-.72-.1.31-2.2.73.1Zm.63-4.39-.72-.11.31-2.19.73.1Zm.63-4.4-.72-.1.32-2.2.72.11ZM121,59l-.73-.1.32-2.2.72.1Zm.63-4.39-.73-.11.32-2.2.72.11Zm.63-4.4-.73-.1.32-2.2.72.11Zm.63-4.39-.72-.11.31-2.19.73.1Zm.63-4.4-.72-.1.31-2.2.73.11Zm.63-4.39-.72-.1.32-2.2.72.1Zm.64-4.39-.73-.11.32-2.19.72.1Zm.63-4.4-.73-.1.32-2.2.72.11Zm.63-4.39-.73-.1.32-2.2.72.1Zm.63-4.39-.72-.11.31-2.19.73.1Zm.63-4.4-.72-.1.31-2.2.73.11Zm.63-4.39-.72-.11.32-2.19.72.1Zm.64-4.39-.73-.11.32-2.2.72.11Z"/><rect class="af05517a-485e-46b0-8727-f9b267e7d06a" x="99.93" y="196.98" width="1.1" height="0.73" transform="translate(-108.98 269.2) rotate(-81.95)"/><rect class="af05517a-485e-46b0-8727-f9b267e7d06a" x="128.26" y="0.86" width="1.1" height="0.73" transform="translate(74.25 117.92) rotate(-65.49)"/><path class="af05517a-485e-46b0-8727-f9b267e7d06a" d="M47.78,179.54l-.66-.3.92-2,.67.3Zm1.85-4L49,175.2l.92-2,.67.31Zm1.84-4-.66-.31.92-2,.66.31Zm1.85-4-.67-.3.92-2,.67.3Zm1.84-4-.67-.3.93-2,.66.3Zm1.84-4-.66-.3.92-2,.67.31Zm1.85-4-.67-.31.92-2,.67.31Zm1.84-4L60,151l.92-2,.66.3Zm1.85-4-.67-.3.92-2,.67.3Zm1.84-4-.67-.3.93-2,.66.3Zm1.84-4-.66-.31.92-2,.67.31Zm1.85-4-.67-.31.92-2,.67.3Zm1.84-4-.66-.3.92-2,.66.3Zm1.85-4-.67-.3.92-2,.67.3Zm1.84-4-.67-.31.93-2,.66.31Zm1.84-4-.66-.31.92-2,.67.31Zm1.85-4-.67-.3.92-2,.67.3Zm1.84-4-.67-.3.93-2,.66.3Zm1.85-4-.67-.3.92-2,.67.31Zm1.84-4-.67-.31.93-2,.66.31Zm1.84-4L84,98.48l.92-2,.66.3Zm1.85-4-.67-.3.92-2,.67.3Zm1.84-4-.66-.3.92-2,.66.3Zm1.85-4-.67-.31.92-2,.67.31Zm1.84-4-.67-.31.92-2,.67.3Zm1.84-4-.66-.3.92-2,.66.3Zm1.85-4-.67-.3.92-2,.67.3Zm1.84-4-.66-.3.92-2,.66.31Zm1.85-4-.67-.31.92-2,.67.31Zm1.84-4-.67-.3.92-2,.67.3Zm1.84-4-.66-.3.92-2,.66.3Zm1.85-4-.67-.3.92-2,.67.31Zm1.84-4-.66-.31.92-2,.66.31Zm1.84-4L108,46l.92-2,.67.3Zm1.85-4-.67-.3.92-2,.67.3Zm1.84-4-.66-.3.92-2,.66.3Zm1.85-4-.67-.31.92-2,.67.31Zm1.84-4-.67-.31.93-2,.66.31Zm1.84-4-.66-.3.92-2,.67.3Zm1.85-4-.67-.3.92-2,.67.3Zm1.84-4-.66-.3.92-2,.66.31Zm1.85-4-.67-.31.92-2,.67.31Zm1.84-4-.67-.3.93-2,.66.3Zm1.84-4-.66-.3.92-2,.67.3Z"/><rect class="af05517a-485e-46b0-8727-f9b267e7d06a" x="45.75" y="181.53" width="1.1" height="0.73" transform="matrix(0.42, -0.91, 0.91, 0.42, -138.37, 148.34)"/><rect class="af05517a-485e-46b0-8727-f9b267e7d06a" x="128.12" y="0.78" width="1.1" height="0.73" transform="translate(43.49 97.6) rotate(-49.06)"/><path class="af05517a-485e-46b0-8727-f9b267e7d06a" d="M11.27,137.2l-.55-.47,1.43-1.66.55.48Zm2.86-3.3-.55-.48L15,131.77l.55.48ZM17,130.6l-.56-.48,1.43-1.65.56.48Zm2.86-3.3-.56-.48,1.44-1.65.55.48Zm2.86-3.3-.55-.47,1.43-1.66.55.48Zm2.86-3.3-.55-.48,1.43-1.65L27,119Zm2.86-3.3-.55-.48,1.43-1.65.55.48Zm2.86-3.3-.55-.48L32.18,112l.55.48Zm2.87-3.31-.56-.47L35,108.65l.56.48Zm2.86-3.3-.56-.48,1.44-1.65.55.48Zm2.86-3.3-.55-.48,1.43-1.65.55.48Zm2.86-3.3-.55-.48,1.43-1.65.55.48Zm2.86-3.31-.55-.47,1.43-1.66.55.48Zm2.86-3.3-.55-.48,1.43-1.65.55.48ZM51.33,91l-.55-.48,1.43-1.65.56.48Zm2.87-3.3-.56-.48,1.43-1.65.56.48Zm2.86-3.31-.56-.47,1.44-1.66.55.48Zm2.86-3.3-.55-.48L60.8,79l.55.48Zm2.86-3.3-.55-.48,1.43-1.65.55.48Zm2.86-3.3L65.09,74l1.43-1.65.55.48Zm2.86-3.31-.5-.5L69.38,69l.56.48Zm2.87-3.3-.56-.48,1.43-1.65.56.48Zm2.86-3.3-.56-.48,1.44-1.65.55.48Zm2.86-3.3-.55-.48L78,59.12l.55.48ZM80,57.94l-.55-.47,1.43-1.66.55.48Zm2.86-3.3-.55-.48,1.43-1.65.55.48Zm2.86-3.3-.55-.48,1.43-1.65.56.48ZM88.54,48,88,47.56l1.43-1.65.56.48Zm2.86-3.31-.56-.47,1.44-1.66.55.48Zm2.86-3.3L93.71,41l1.43-1.65.55.48Zm2.86-3.3-.55-.48L98,36l.55.48Zm2.86-3.3-.55-.48,1.43-1.65.55.48Zm2.86-3.31-.55-.47,1.43-1.66.56.48Zm2.87-3.3-.56-.48,1.43-1.65.56.48Zm2.86-3.3L108,24.4l1.44-1.65.55.48Zm2.86-3.3-.55-.48,1.43-1.65.55.48Zm2.86-3.31-.55-.47,1.43-1.66.55.48Zm2.86-3.3-.55-.48,1.4-1.61.55.48Zm2.86-3.3-.55-.48,1.43-1.65.55.48Zm2.87-3.3-.56-.48,1.43-1.65.56.48Zm2.86-3.31-.56-.47L126.62,3l.55.48Z"/><rect class="af05517a-485e-46b0-8727-f9b267e7d06a" x="8.66" y="138.66" width="1.1" height="0.73" transform="translate(-101.85 54.89) rotate(-49.06)"/><rect class="af05517a-485e-46b0-8727-f9b267e7d06a" x="128.04" y="0.67" width="1.1" height="0.73" transform="translate(19.88 69.73) rotate(-32.75)"/><path class="af05517a-485e-46b0-8727-f9b267e7d06a" d="M3.71,81.71l-.4-.61,1.84-1.18.39.62Zm3.67-2.35L7,78.74l1.83-1.18.4.62ZM11,77l-.4-.61,1.84-1.18.39.62Zm3.66-2.35L14.31,74l1.83-1.18.4.62Zm3.67-2.36-.4-.61,1.84-1.18.39.61ZM22,69.94l-.39-.62,1.83-1.18.4.62Zm3.67-2.36L25.3,67l1.83-1.18.4.61Zm3.66-2.35L29,64.61l1.83-1.18.4.62ZM33,62.87l-.4-.61,1.83-1.18.4.61Zm3.66-2.35-.39-.62,1.83-1.18.4.62Zm3.67-2.36-.4-.62,1.83-1.17.4.61ZM44,55.81l-.39-.62L45.46,54l.4.62Zm3.67-2.36-.4-.62,1.83-1.17.4.61Zm3.66-2.35L51,50.48l1.83-1.18.4.62ZM55,48.74l-.4-.62L56.45,47l.4.61Zm3.66-2.36-.39-.61,1.83-1.18.4.62ZM62.35,44l-.4-.62,1.83-1.17.4.61ZM66,41.67l-.39-.61,1.83-1.18.39.62Zm3.67-2.35-.4-.62,1.83-1.18.4.62ZM73.34,37,73,36.35l1.83-1.18.39.62ZM77,34.61,76.6,34l1.83-1.18.4.62Zm3.66-2.36-.39-.61,1.83-1.18.39.62Zm3.67-2.35-.4-.62,1.83-1.18.4.62ZM88,27.54l-.39-.61,1.83-1.18.39.61Zm3.67-2.35-.4-.62,1.83-1.18.4.62Zm3.66-2.36-.39-.61L96.77,21l.39.61ZM99,20.48l-.4-.62,1.83-1.18.4.62Zm3.66-2.36-.39-.62,1.83-1.17.39.61Zm3.67-2.35-.4-.62L107.76,14l.4.62ZM110,13.41l-.4-.62,1.84-1.17.39.61Zm3.67-2.35-.4-.62,1.83-1.18.4.62Zm3.66-2.36-.4-.62,1.84-1.17.39.61ZM121,6.34l-.4-.61,1.83-1.18.4.62ZM124.65,4l-.4-.62,1.84-1.17.39.61Z"/><rect class="af05517a-485e-46b0-8727-f9b267e7d06a" x="0.66" y="82.52" width="1.1" height="0.73" transform="translate(-44.64 13.83) rotate(-32.75)"/><rect class="af05517a-485e-46b0-8727-f9b267e7d06a" x="127.97" y="0.52" width="1.1" height="0.73" transform="translate(4.99 36.37) rotate(-16.42)"/><path class="af05517a-485e-46b0-8727-f9b267e7d06a" d="M27.62,30.89l-.21-.7,2.1-.61.2.7Zm4.19-1.23L31.6,29l2.09-.61.21.7ZM36,28.44l-.2-.71,2.09-.61.21.7Zm4.19-1.23L40,26.5l2.1-.61.2.7ZM44.37,26l-.21-.71,2.09-.61.21.7Zm4.18-1.23-.2-.7,2.09-.62.21.7Zm4.19-1.23-.21-.7,2.1-.62.2.7Zm4.18-1.23-.2-.7L58.81,21l.21.7Zm4.19-1.23-.21-.7,2.1-.62.2.71Zm4.19-1.23-.21-.7,2.09-.62.21.71Zm4.18-1.23-.2-.7,2.09-.61.21.7Zm4.19-1.23-.21-.7,2.1-.61.2.7Zm4.19-1.23-.21-.7,2.09-.61.21.7ZM82,14.91l-.21-.7,2.1-.61.21.7Zm4.19-1.22L86,13l2.09-.61.21.7Zm4.19-1.23-.21-.71,2.09-.61.21.7Zm4.18-1.23-.21-.71,2.1-.61.2.7ZM98.79,10l-.21-.7,2.09-.62.21.7ZM103,8.77l-.2-.7,2.09-.62.21.7Zm4.19-1.23-.21-.7,2.1-.62.2.7Zm4.19-1.23-.21-.7L113.23,5l.21.71Zm4.18-1.23-.2-.7,2.09-.62.21.71Zm4.19-1.23-.21-.7,2.09-.62.21.71Zm4.19-1.23-.21-.7,2.09-.61L126,2Z"/><rect class="af05517a-485e-46b0-8727-f9b267e7d06a" x="24.35" y="30.95" width="1.1" height="0.73" transform="translate(-7.84 8.31) rotate(-16.42)"/><rect class="af05517a-485e-46b0-8727-f9b267e7d06a" x="176.58" y="31.45" width="0.73" height="1.1" transform="matrix(0.99, -0.14, 0.14, 0.99, -2.75, 25.5)"/><path class="af05517a-485e-46b0-8727-f9b267e7d06a" d="M191.56,136.25l-.31-2.16.72-.1.32,2.16Zm-.62-4.32-.31-2.16.72-.1.31,2.16Zm-.62-4.32-.31-2.15.72-.11.31,2.16Zm-.62-4.31-.31-2.16.72-.11.31,2.16Zm-.62-4.32-.31-2.16.72-.11.31,2.16Zm-.62-4.32-.31-2.16.72-.11.31,2.16Zm-.63-4.32-.31-2.16.73-.1.31,2.16Zm-.62-4.32-.31-2.16.73-.1.31,2.16Zm-.62-4.32-.31-2.16.73-.1.31,2.16ZM186,97.38l-.31-2.15.73-.11.31,2.16Zm-.62-4.31L185,90.91l.73-.11L186,93Zm-.62-4.32-.31-2.16.72-.11.32,2.16Zm-.62-4.32-.31-2.16.72-.11.31,2.16Zm-.62-4.32L183.18,78l.72-.1.31,2.16Zm-.62-4.32-.31-2.16.72-.1.31,2.16Zm-.62-4.32L182,69.31l.72-.1.31,2.16Zm-.62-4.32L181.32,65l.72-.11.31,2.16ZM181,62.84l-.31-2.16.73-.11.31,2.16Zm-.62-4.32-.31-2.16.73-.11.31,2.16Zm-.62-4.32-.31-2.2.73-.1.31,2.15Zm-.62-4.32-.31-2.16.73-.1.31,2.16Zm-.62-4.32-.31-2.16.73-.1.31,2.16Zm-.62-4.32-.31-2.16.72-.1.32,2.16Zm-.62-4.32L177,34.77l.72-.11.31,2.16Z"/><rect class="af05517a-485e-46b0-8727-f9b267e7d06a" x="191.95" y="138.36" width="0.73" height="1.1" transform="matrix(0.99, -0.14, 0.14, 0.99, -17.81, 28.78)"/><rect class="af05517a-485e-46b0-8727-f9b267e7d06a" x="175.76" y="31.51" width="1.1" height="0.73" transform="translate(120.05 201.98) rotate(-81.95)"/><path class="af05517a-485e-46b0-8727-f9b267e7d06a" d="M156,179.22l-.72-.11.31-2.15.72.1Zm.62-4.31-.72-.11.31-2.16.72.11Zm.62-4.32-.72-.1.31-2.16.72.11Zm.62-4.31-.72-.1.31-2.16.72.11Zm.62-4.31-.72-.11.31-2.15.72.1Zm.62-4.31-.72-.11.31-2.15.72.1Zm.62-4.31-.72-.11.31-2.16.72.11Zm.62-4.32-.72-.1.31-2.16.72.11Zm.62-4.31-.72-.1.31-2.16.72.1Zm.62-4.31-.72-.11.31-2.15.72.1Zm.62-4.31-.72-.11.31-2.15.72.1Zm.62-4.32-.72-.1.31-2.16.72.11Zm.62-4.31-.72-.1.31-2.16.72.11Zm.62-4.31-.72-.1.31-2.16.72.1Zm.62-4.31-.72-.11.31-2.15.72.1Zm.62-4.31-.72-.11.31-2.15.72.1Zm.62-4.32-.72-.1.31-2.16.72.11Zm.62-4.31-.72-.1.31-2.16.72.11Zm.62-4.31-.72-.1.31-2.16.72.1Zm.62-4.31-.72-.11.31-2.15.72.1ZM168.4,93l-.72-.11.31-2.15.72.1Zm.62-4.32-.72-.1.31-2.16.72.11Zm.62-4.31-.72-.1.31-2.16.72.11Zm.62-4.31-.72-.1.31-2.16.72.1Zm.62-4.31-.72-.11.31-2.15.72.1Zm.62-4.32-.72-.1.31-2.16.72.11Zm.62-4.31-.72-.1.31-2.16.72.11Zm.62-4.31-.72-.1.31-2.16.72.1Zm.62-4.31-.72-.11.31-2.15.72.1Zm.62-4.31-.72-.11.31-2.15.72.1Zm.62-4.32-.72-.1.31-2.16.72.11Zm.62-4.31-.72-.1.31-2.16.72.11Zm.62-4.31-.72-.1.31-2.16.72.1Zm.62-4.31-.72-.11.31-2.15.72.1Z"/><rect class="af05517a-485e-46b0-8727-f9b267e7d06a" x="154.7" y="181.52" width="1.1" height="0.73" transform="translate(-46.94 309.57) rotate(-81.79)"/><rect class="af05517a-485e-46b0-8727-f9b267e7d06a" x="176.07" y="31.59" width="1.1" height="0.73" transform="translate(74.27 179.41) rotate(-65.49)"/><path class="af05517a-485e-46b0-8727-f9b267e7d06a" d="M102.31,195.59l-.66-.3.91-2,.66.3Zm1.82-4-.67-.3.91-2,.67.31Zm1.82-4-.67-.3.91-2,.66.3Zm1.81-4-.67-.31.91-2,.67.31Zm1.82-4-.67-.3.91-2,.66.3Zm1.81-4-.67-.31.91-2,.67.31Zm1.82-4-.67-.3.91-2,.66.3Zm1.81-4-.66-.31.9-2,.67.31Zm1.82-4-.67-.3.91-2,.66.3Zm1.81-4-.66-.31.9-2,.67.31Zm1.82-4-.67-.3.91-2,.67.3Zm1.81-4-.66-.31.9-2,.67.31Zm1.82-4-.67-.3.91-2,.67.3Zm1.81-4-.66-.31.91-2,.66.31Zm1.82-4-.67-.3.91-2,.67.3Zm1.81-4-.66-.31.91-2,.66.31Zm1.82-4-.67-.3.91-2,.67.3Zm1.81-4-.66-.31.91-2,.66.31Zm1.82-4-.67-.3.91-2,.67.3Zm1.81-4-.66-.31.91-2,.66.31Zm1.82-4-.67-.3.91-2,.67.3Zm1.82-4-.67-.31.91-2,.66.3Zm1.81-4-.67-.3.91-2,.67.3Zm1.82-4-.67-.31.91-2,.66.3Zm1.81-4-.66-.3.9-2,.67.3Zm1.82-4-.67-.31.91-2,.66.3Zm1.81-4-.66-.3.9-2,.67.3Zm1.82-4-.67-.31.91-2,.67.3Zm1.81-4-.66-.3.9-2,.67.3Zm1.82-4-.67-.31.91-2,.67.3Zm1.81-4-.66-.3.9-2,.67.3Zm1.82-4-.67-.31.91-2,.67.3Zm1.81-4-.66-.3.91-2,.66.3Zm1.82-4-.67-.31.91-2,.67.3Zm1.81-4-.66-.3.91-2,.66.31Zm1.82-4-.67-.31.91-2,.67.3Zm1.82-4-.67-.3.91-2,.66.31Zm1.81-4-.67-.31.91-2,.67.3Zm1.82-4-.67-.3.91-2,.66.3Zm1.81-4-.66-.31.9-2,.67.3Zm1.82-4-.67-.3.91-2,.66.3Z"/><rect class="af05517a-485e-46b0-8727-f9b267e7d06a" x="100.3" y="197.56" width="1.1" height="0.73" transform="matrix(0.42, -0.91, 0.91, 0.42, -121.09, 207.31)"/><polygon class="af05517a-485e-46b0-8727-f9b267e7d06a" points="176.42 32.54 175.87 32.06 176.59 31.23 177.14 31.71 176.42 32.54"/><path class="af05517a-485e-46b0-8727-f9b267e7d06a" d="M48.52,180.14l-.55-.48L49.42,178l.55.48Zm2.91-3.35-.55-.48,1.45-1.68.55.48Zm2.9-3.36-.55-.48,1.46-1.67.55.47Zm2.91-3.35-.55-.48,1.45-1.68.56.48Zm2.91-3.36-.55-.48,1.45-1.67.55.48Zm2.91-3.35-.56-.48,1.5-1.68.55.48ZM66,160l-.55-.48,1.45-1.67.56.48Zm2.91-3.35-.55-.48,1.45-1.68.55.48Zm2.91-3.36-.56-.48,1.46-1.67.55.48Zm2.9-3.35-.55-.48,1.45-1.68.56.48Zm2.91-3.35-.55-.48,1.45-1.68.55.48Zm2.91-3.36-.56-.48,1.46-1.68.55.48Zm2.9-3.35-.55-.48,1.45-1.68.56.48Zm2.91-3.36L85.8,136l1.45-1.68.55.48Zm2.91-3.35-.56-.48L90.12,131l.55.48Zm2.9-3.36-.55-.48L93,127.66l.56.48ZM95,126.47l-.55-.48,1.45-1.68.55.48Zm2.91-3.36-.56-.48L98.84,121l.55.48Zm2.9-3.35-.55-.48,1.46-1.68.55.48Zm2.91-3.36-.55-.48,1.45-1.67.55.48Zm2.91-3.35-.56-.48,1.46-1.68.55.48Zm2.9-3.36-.55-.48,1.45-1.67.56.48Zm2.91-3.35-.55-.48,1.45-1.68.55.48Zm2.91-3.36-.55-.48,1.45-1.67.55.48Zm2.91-3.35-.56-.48,1.46-1.68.55.48Zm2.9-3.36-.55-.47,1.45-1.68.56.48Zm2.91-3.35-.55-.48L125,90.76l.55.48Zm2.9-3.35-.55-.48,1.46-1.68.55.48Zm2.91-3.36-.55-.48,1.45-1.68.56.48Zm2.91-3.35-.55-.48,1.45-1.68.55.48Zm2.91-3.36-.56-.48,1.46-1.68.55.48Zm2.9-3.35-.55-.48L139.53,74l.56.48Zm2.91-3.36-.55-.48,1.45-1.67.55.48Zm2.91-3.35-.56-.48,1.46-1.68.55.48Zm2.9-3.36-.55-.48,1.45-1.67.56.48Zm2.91-3.35-.55-.48,1.45-1.68.55.48Zm2.91-3.36-.56-.48L154,57.22l.55.48ZM156,56l-.55-.48L157,53.86l.56.48Zm3-3.36-.55-.47,1.45-1.68.55.48Zm2.91-3.35-.56-.48,1.46-1.68.55.48Zm2.9-3.35-.55-.48,1.45-1.68.56.48Zm2.91-3.36-.55-.48,1.45-1.68.55.48Zm2.91-3.35-.56-.48,1.46-1.68.55.48Zm2.9-3.36-.55-.48,1.46-1.68.55.48Z"/><rect class="af05517a-485e-46b0-8727-f9b267e7d06a" x="45.88" y="181.62" width="1.1" height="0.73" transform="translate(-121.46 97.81) rotate(-49.06)"/><rect class="af05517a-485e-46b0-8727-f9b267e7d06a" x="175.85" y="31.4" width="1.1" height="0.73" transform="translate(10.87 100.51) rotate(-32.76)"/><path class="af05517a-485e-46b0-8727-f9b267e7d06a" d="M11.83,138l-.39-.62,1.86-1.2.4.62Zm3.74-2.4-.4-.62L17,133.75l.4.61Zm3.73-2.4-.39-.62,1.86-1.19.4.61ZM23,130.8l-.4-.62L24.51,129l.39.61Zm3.73-2.4-.39-.61,1.86-1.2.4.61ZM30.5,126l-.39-.61,1.87-1.2.39.61Zm3.74-2.4-.4-.61,1.87-1.2.4.61ZM38,121.2l-.39-.61,1.86-1.2.4.61Zm3.74-2.4-.4-.61,1.87-1.2.4.61Zm3.73-2.4-.39-.61,1.86-1.2.4.61Zm3.74-2.4-.4-.61,1.87-1.2.39.61Zm3.73-2.4-.4-.61,1.87-1.2.4.61Zm3.73-2.4-.39-.61,1.87-1.2.39.61Zm3.74-2.4-.4-.61,1.87-1.2.4.61Zm3.73-2.4-.39-.61,1.86-1.2.4.61Zm3.74-2.4-.4-.61,1.87-1.2.39.61Zm3.73-2.4-.4-.61,1.87-1.2.4.61Zm3.74-2.4-.4-.61,1.87-1.2.39.61Zm3.73-2.4-.4-.61L80.52,93l.4.61Zm3.73-2.4-.39-.61,1.86-1.2.4.61ZM86.52,90l-.4-.61L88,88.15l.39.61Zm3.73-2.4-.39-.6,1.86-1.2.4.61ZM94,85.16l-.4-.61,1.87-1.2.39.61Zm3.73-2.39-.4-.62L99.19,81l.4.62Zm3.74-2.4-.4-.62,1.87-1.2.39.62ZM105.2,78l-.4-.62,1.87-1.2.4.62Zm3.73-2.4-.39-.62,1.86-1.2.4.62Zm3.74-2.4-.4-.62,1.87-1.2.39.62Zm3.73-2.4-.39-.62,1.86-1.2.4.62Zm3.74-2.4-.4-.62,1.87-1.2.39.62Zm3.73-2.4-.4-.62,1.87-1.2.4.62Zm3.73-2.4-.4-.57,1.86-1.2.4.62Zm3.74-2.4-.4-.62,1.87-1.2.4.62Zm3.73-2.4-.39-.62,1.86-1.2.4.62Zm3.74-2.4-.4-.62,1.87-1.2.39.62Zm3.73-2.4-.4-.62,1.87-1.2.4.62Zm3.73-2.4-.39-.62,1.87-1.2.39.62Zm3.74-2.4-.4-.62,1.87-1.2.4.62Zm3.73-2.4-.39-.62L155.2,45l.4.62Zm3.74-2.4-.4-.62,1.87-1.2.39.62ZM161.2,42l-.39-.62,1.86-1.2.4.62Zm3.74-2.4-.4-.62,1.87-1.2.39.62Zm3.73-2.4-.4-.62,1.87-1.2.4.62Zm3.73-2.4-.39-.62,1.87-1.2.39.62Z"/><rect class="af05517a-485e-46b0-8727-f9b267e7d06a" x="8.75" y="138.78" width="1.1" height="0.73" transform="translate(-73.81 27.17) rotate(-32.76)"/><rect class="af05517a-485e-46b0-8727-f9b267e7d06a" x="175.79" y="31.27" width="1.1" height="0.73" transform="translate(-1.75 51.17) rotate(-16.43)"/><path class="af05517a-485e-46b0-8727-f9b267e7d06a" d="M4,82.6l-.21-.7,2.1-.61.21.7Zm4.2-1.23-.2-.7,2.09-.62.21.71Zm4.19-1.23-.2-.7,2.09-.62.21.71Zm4.2-1.23-.21-.7,2.1-.62.2.7Zm4.19-1.23-.21-.7,2.1-.62.21.7ZM25,76.45l-.2-.7,2.09-.62.21.7Zm4.2-1.23-.2-.71,2.1-.61.2.7ZM33.36,74l-.21-.71,2.1-.61.21.7Zm4.19-1.24-.21-.7,2.1-.61.21.7Zm4.19-1.23-.2-.7,2.09-.61.21.7Zm4.2-1.23-.21-.7,2.1-.62.2.71Zm4.19-1.23-.21-.7,2.1-.62.21.71Zm4.19-1.23-.2-.7,2.09-.62.21.7Zm4.2-1.23-.21-.7,2.1-.62.2.7Zm4.19-1.23-.21-.7,2.1-.62.2.7Zm4.19-1.23-.21-.71,2.1-.61.21.7Zm4.19-1.23-.2-.71L73,61.59l.21.7Zm4.2-1.24-.21-.7,2.1-.61.2.7Zm4.19-1.23-.21-.7,2.1-.61.21.7Zm4.19-1.23-.2-.7,2.09-.62.21.71ZM87.87,58l-.21-.7,2.09-.62.21.71Zm4.19-1.23-.21-.7,2.1-.62.21.7Zm4.19-1.23-.21-.7,2.1-.62.21.7Zm4.19-1.23-.2-.7,2.09-.62.21.7Zm4.2-1.23-.21-.71,2.1-.61.2.7Zm4.19-1.23-.21-.71,2.1-.61.21.7ZM113,50.59l-.2-.7,2.09-.61.21.7Zm4.19-1.23-.2-.7,2.09-.61.21.7Zm4.2-1.23-.21-.7,2.1-.62.2.71Zm4.19-1.23-.21-.7,2.1-.62.21.71Zm4.19-1.23-.2-.7,2.09-.62.21.7Zm4.2-1.23-.21-.7,2.1-.62.2.7Zm4.19-1.23L138,42.5l2.1-.61.21.7ZM142.37,42l-.2-.71,2.09-.61.21.7Zm4.2-1.23-.21-.71,2.09-.61.21.7Zm4.19-1.24-.21-.7,2.1-.61.2.7ZM155,38.28l-.21-.7,2.1-.62.21.71Zm4.19-1.23-.2-.7,2.09-.62.21.71Zm4.2-1.23-.21-.7,2.1-.62.2.71Zm4.19-1.23-.21-.7,2.1-.62.21.7Zm4.19-1.23-.21-.7,2.1-.62.21.7Z"/><rect class="af05517a-485e-46b0-8727-f9b267e7d06a" x="0.73" y="82.66" width="1.1" height="0.73" transform="translate(-23.43 3.75) rotate(-16.43)"/><rect class="af05517a-485e-46b0-8727-f9b267e7d06a" x="175.77" y="31.1" width="1.1" height="0.73"/><path class="af05517a-485e-46b0-8727-f9b267e7d06a" d="M173.59,31.83h-2.18V31.1h2.18Zm-4.36,0h-2.18V31.1h2.18Zm-4.35,0H162.7V31.1h2.18Zm-4.36,0h-2.18V31.1h2.18Zm-4.36,0H154V31.1h2.18Zm-4.35,0h-2.18V31.1h2.18Zm-4.36,0h-2.18V31.1h2.18Zm-4.36,0h-2.18V31.1h2.18Zm-4.35,0h-2.18V31.1h2.18Zm-4.36,0H132.2V31.1h2.18Zm-4.36,0h-2.18V31.1H130Zm-4.35,0h-2.18V31.1h2.18Zm-4.36,0h-2.18V31.1h2.18Zm-4.36,0h-2.17V31.1H117Zm-4.35,0h-2.18V31.1h2.18Zm-4.36,0h-2.18V31.1h2.18Zm-4.36,0h-2.17V31.1h2.17Zm-4.35,0H97.35V31.1h2.18Zm-4.36,0H93V31.1h2.18Zm-4.35,0H88.64V31.1h2.18Zm-4.36,0H84.28V31.1h2.18Zm-4.36,0H79.92V31.1H82.1Zm-4.35,0H75.57V31.1h2.18Zm-4.36,0H71.21V31.1h2.18Zm-4.36,0H66.85V31.1H69Zm-4.35,0H62.5V31.1h2.18Zm-4.36,0H58.14V31.1h2.18Zm-4.36,0H53.79V31.1H56Zm-4.35,0H49.43V31.1h2.18Zm-4.36,0H45.07V31.1h2.18Zm-4.36,0H40.72V31.1h2.17Zm-4.35,0H36.36V31.1h2.18Zm-4.36,0H32V31.1h2.18Zm-4.35,0H27.65V31.1h2.18Z"/><rect class="af05517a-485e-46b0-8727-f9b267e7d06a" x="24.37" y="31.1" width="1.1" height="0.73"/><rect class="af05517a-485e-46b0-8727-f9b267e7d06a" x="175.96" y="30.76" width="0.73" height="1.1" transform="translate(96.59 191.66) rotate(-73.63)"/><path class="af05517a-485e-46b0-8727-f9b267e7d06a" d="M173.61,30.89l-2.09-.61.21-.7,2.09.61Zm-4.18-1.23-2.1-.61.21-.7,2.09.61Zm-4.19-1.22-2.09-.62.21-.7,2.09.61Zm-4.18-1.23-2.1-.62.21-.7,2.09.61ZM156.87,26l-2.09-.62.2-.7,2.1.61Zm-4.19-1.23-2.09-.62.21-.7,2.09.62Zm-4.18-1.23-2.1-.62.21-.7,2.09.62Zm-4.19-1.23-2.09-.61.2-.71,2.1.62Zm-4.19-1.23L138,20.45l.21-.71,2.09.62Zm-4.18-1.23-2.1-.61.21-.71,2.09.62Zm-4.19-1.23L129.66,18l.21-.7,2.09.61Zm-4.18-1.23-2.1-.61.21-.7,2.09.61Zm-4.19-1.23-2.09-.61.2-.7,2.1.61Zm-4.19-1.23-2.09-.61.21-.7,2.09.61ZM115,13.69l-2.1-.62.21-.7,2.09.61Zm-4.19-1.23-2.09-.62.2-.7,2.1.61Zm-4.19-1.23-2.09-.62.21-.7,2.09.61ZM102.45,10l-2.1-.62.21-.7,2.1.62ZM98.26,8.77l-2.09-.62.21-.7,2.09.62ZM94.08,7.54,92,6.92l.21-.7,2.09.62ZM89.89,6.31,87.8,5.7,88,5l2.1.62ZM85.7,5.08l-2.09-.61.21-.71,2.09.62ZM81.52,3.85l-2.1-.61.21-.7,2.09.61ZM77.33,2.62,75.24,2l.2-.7,2.1.61Z"/><rect class="af05517a-485e-46b0-8727-f9b267e7d06a" x="72.35" y="0.34" width="0.73" height="1.1" transform="matrix(0.28, -0.96, 0.96, 0.28, 51.37, 70.41)"/><rect class="af05517a-485e-46b0-8727-f9b267e7d06a" x="199.7" y="83.31" width="1.1" height="0.73" transform="translate(40.86 230.97) rotate(-65.42)"/><path class="af05517a-485e-46b0-8727-f9b267e7d06a" d="M156.86,179.58l-.67-.31.91-2,.66.3Zm1.81-4-.67-.3.91-2,.67.3Zm1.81-4-.66-.3.9-2,.67.31Zm1.82-4-.67-.3.91-2,.66.31Zm1.81-4-.67-.3.91-2,.66.31Zm1.81-4-.67-.3.91-2,.67.3Zm1.81-4-.66-.31.9-2,.67.3Zm1.81-4-.66-.31.91-2,.66.3Zm1.82-4-.67-.31.91-2,.66.3Zm1.81-4-.67-.3.91-2,.67.3Zm1.81-4-.66-.3.9-2,.67.31Zm1.81-4-.66-.3.91-2,.66.31Zm1.82-4-.67-.3.91-2,.66.31Zm1.81-4-.67-.3.91-2,.67.3Zm1.81-4-.66-.31.9-2,.67.3Zm1.81-4-.66-.31.91-2,.66.3Zm1.82-4-.67-.31.91-2,.66.3Zm1.81-4-.67-.3.91-2,.67.31Zm1.81-4-.66-.3.9-2,.67.31Zm1.81-4-.66-.3.9-2,.67.31Zm1.82-4-.67-.3.91-2,.66.31Zm1.81-4-.67-.3.91-2,.67.3Zm1.81-4-.66-.31.9-2,.67.3Zm1.81-4-.66-.31.9-2,.67.3Z"/><rect class="af05517a-485e-46b0-8727-f9b267e7d06a" x="154.83" y="181.52" width="1.1" height="0.73" transform="translate(-74.66 247.53) rotate(-65.42)"/><rect class="af05517a-485e-46b0-8727-f9b267e7d06a" x="199.57" y="83.22" width="1.1" height="0.73" transform="translate(5.85 179.98) rotate(-49.06)"/><path class="af05517a-485e-46b0-8727-f9b267e7d06a" d="M103,196.19l-.55-.48,1.42-1.65.56.48Zm2.85-3.29-.55-.48,1.43-1.65.55.48Zm2.86-3.3-.56-.48,1.43-1.64.55.48Zm2.85-3.29-.56-.48,1.43-1.64.55.47Zm2.85-3.29-.55-.48,1.42-1.65.56.48Zm2.85-3.29-.55-.48,1.43-1.65.55.48Zm2.86-3.3-.56-.48,1.43-1.64.55.48Zm2.85-3.29-.55-.48,1.42-1.64.56.48Zm2.85-3.29-.55-.48,1.43-1.65.55.48Zm2.85-3.29-.55-.48,1.43-1.65.55.48Zm2.86-3.3-.55-.48,1.42-1.64.55.48Zm2.85-3.29-.55-.48,1.42-1.64.56.48Zm2.85-3.29-.55-.48,1.43-1.65.55.48Zm2.86-3.29-.56-.48,1.43-1.65.55.48Zm2.85-3.3-.55-.47,1.42-1.65.56.48Zm2.85-3.29-.55-.48,1.43-1.64.55.48Zm2.86-3.29-.56-.48,1.43-1.65.55.48Zm2.85-3.29-.55-.48,1.42-1.65.55.48Zm2.85-3.29-.55-.48,1.42-1.65.56.48Zm2.85-3.3-.55-.48,1.43-1.64.55.48Zm2.86-3.29-.56-.48,1.43-1.65.55.48Zm2.85-3.29-.55-.48,1.42-1.65.56.48Zm2.85-3.29-.55-.48,1.43-1.65.55.48Zm2.86-3.3-.56-.48,1.43-1.64.55.48Zm2.85-3.29-.55-.48,1.42-1.65.55.48Zm2.85-3.29-.55-.48,1.42-1.65.56.48Zm2.85-3.29-.55-.48,1.43-1.65.55.48Zm2.86-3.3-.56-.48,1.43-1.64.55.48Zm2.85-3.29-.55-.48,1.42-1.64.56.47Zm2.85-3.29-.55-.48,1.43-1.65.55.48Zm2.86-3.29-.56-.48,1.43-1.65.55.48Zm2.85-3.3-.55-.48L192.35,92l.55.48Zm2.85-3.29-.55-.48,1.43-1.64.55.48Zm2.85-3.29-.55-.48L198,85.41l.55.48Z"/><rect class="af05517a-485e-46b0-8727-f9b267e7d06a" x="100.43" y="197.63" width="1.1" height="0.73" transform="translate(-114.77 144.57) rotate(-49.07)"/><rect class="af05517a-485e-46b0-8727-f9b267e7d06a" x="199.47" y="83.11" width="1.1" height="0.73" transform="translate(-13.36 121.51) rotate(-32.76)"/><path class="af05517a-485e-46b0-8727-f9b267e7d06a" d="M49,180.94l-.39-.61,1.83-1.19.4.62Zm3.68-2.36-.4-.62,1.84-1.18.4.62Zm3.67-2.36L56,175.6l1.84-1.18.39.62ZM60,173.85l-.39-.61,1.83-1.18.4.61Zm3.68-2.36-.4-.61,1.84-1.19.4.62Zm3.67-2.36-.39-.62,1.84-1.18.39.62Zm3.68-2.36-.4-.62L72.53,165l.4.62Zm3.68-2.37-.4-.61,1.84-1.18.39.61Zm3.7-2.4-.39-.61,1.83-1.19.4.62Zm3.68-2.36-.4-.62,1.84-1.18.4.62Zm3.67-2.36-.39-.62,1.84-1.18.39.62ZM89.47,155l-.4-.61,1.84-1.18.4.61Zm3.68-2.36-.4-.61,1.84-1.19.39.62Zm3.67-2.36-.39-.62,1.83-1.18.4.62Zm3.68-2.36-.4-.62,1.84-1.18.4.62Zm3.67-2.37-.39-.61,1.84-1.18.39.61Zm3.68-2.36-.4-.61,1.84-1.19.4.62Zm3.68-2.36-.4-.62L113,139l.4.62Zm3.67-2.36-.39-.62,1.83-1.18.4.62Zm3.68-2.37-.4-.61,1.84-1.18.4.61Zm3.68-2.36-.4-.61,1.84-1.19.39.62Zm3.67-2.36-.4-.62,1.84-1.18.4.62Zm3.68-2.36-.4-.62,1.84-1.18.4.62Zm3.67-2.37-.39-.61,1.84-1.18.39.61Zm3.68-2.36-.4-.61,1.84-1.19.4.62Zm3.68-2.36-.4-.62,1.84-1.18.39.62Zm3.67-2.36-.39-.62,1.83-1.18.4.62Zm3.68-2.37-.4-.61,1.84-1.18.4.61Zm3.67-2.36-.39-.61,1.84-1.19.39.62Zm3.68-2.36-.4-.62,1.84-1.18.4.62Zm3.68-2.36-.4-.62,1.84-1.18.39.62ZM163,107.7l-.39-.61,1.83-1.18.4.61Zm3.68-2.36-.4-.61,1.84-1.19.4.62Zm3.67-2.36-.39-.62,1.84-1.18.39.62Zm3.68-2.36-.39-.62,1.83-1.18.4.62Zm3.68-2.37-.4-.61,1.84-1.18.4.61Zm3.67-2.36-.39-.61,1.84-1.19.39.62Zm3.68-2.36-.4-.62,1.84-1.18.4.62Zm3.68-2.36-.4-.62,1.84-1.18.39.62Zm3.67-2.37-.4-.61L193.84,87l.4.61Zm3.68-2.36-.4-.61,1.84-1.19.4.62Z"/><rect class="af05517a-485e-46b0-8727-f9b267e7d06a" x="45.99" y="181.75" width="1.1" height="0.73" transform="translate(-91.14 54.15) rotate(-32.76)"/><polygon class="af05517a-485e-46b0-8727-f9b267e7d06a" points="199.53 83.84 199.32 83.14 200.38 82.83 200.58 83.53 199.53 83.84"/><path class="af05517a-485e-46b0-8727-f9b267e7d06a" d="M12.13,138.86l-.2-.7,2.12-.62.21.7Zm4.26-1.25-.21-.7,2.13-.63.21.71Zm4.26-1.25-.21-.7,2.13-.63.21.71Zm4.26-1.25-.21-.7,2.13-.63.21.71Zm4.26-1.25-.21-.7,2.13-.63.21.7Zm4.26-1.25-.21-.7,2.13-.63.21.7Zm4.26-1.25-.21-.7,2.13-.63.21.7ZM42,130.11l-.21-.7,2.13-.63.21.7Zm4.26-1.25-.21-.7,2.13-.63.2.7Zm4.25-1.25-.2-.7,2.13-.63.2.7Zm4.26-1.25-.2-.71L56.7,125l.2.7ZM59,125.11l-.21-.71,2.13-.62.21.7Zm4.26-1.25-.21-.71,2.13-.62.21.7Zm4.26-1.26-.21-.7,2.13-.62.21.7Zm4.26-1.25-.21-.7L73.7,120l.21.7ZM76,120.1l-.21-.7,2.13-.62.21.7Zm4.26-1.25-.21-.7,2.13-.62.21.7Zm4.26-1.25-.21-.7,2.13-.62.21.7Zm4.25-1.25-.2-.7L90.7,115l.2.71ZM93,115.1l-.2-.7,2.13-.63.2.71Zm4.26-1.25-.2-.7,2.13-.63.2.71Zm4.26-1.25-.2-.7,2.12-.63.21.71Zm4.26-1.25-.21-.7,2.13-.63.21.7Zm4.26-1.25-.21-.7,2.13-.63.21.7Zm4.26-1.25-.21-.7,2.13-.63.21.7Zm4.26-1.25-.21-.7,2.13-.63.21.7Zm4.26-1.25-.21-.7,2.13-.63.21.7Zm4.26-1.25-.21-.71,2.13-.62.21.7Zm4.26-1.25-.21-.71,2.13-.62.2.7Zm4.25-1.25-.2-.71,2.13-.62.2.7Zm4.26-1.25-.2-.71,2.13-.62.2.7Zm4.26-1.25-.2-.71,2.12-.62.21.7Zm4.26-1.26-.21-.7,2.13-.62.21.7Zm4.26-1.25-.21-.7,2.13-.62.21.7Zm4.26-1.25-.21-.7,2.13-.62.21.7Zm4.26-1.25-.21-.7,2.13-.62.21.7Zm4.26-1.25-.21-.7,2.13-.63.21.71Zm4.26-1.25-.21-.7,2.13-.63.21.71Zm4.3-1.25-.21-.7L175.9,90l.21.71Zm4.25-1.25-.2-.7,2.13-.63.2.71Zm4.26-1.25-.2-.7,2.13-.63.2.7Zm4.26-1.25-.2-.7,2.12-.63.21.7ZM191,86.34l-.21-.7,2.13-.63.21.7Zm4.26-1.25-.21-.7,2.13-.63.21.7Z"/><rect class="af05517a-485e-46b0-8727-f9b267e7d06a" x="8.81" y="138.93" width="1.1" height="0.73" transform="translate(-38.99 8.33) rotate(-16.42)"/><rect class="af05517a-485e-46b0-8727-f9b267e7d06a" x="199.38" y="82.81" width="1.1" height="0.73"/><path class="af05517a-485e-46b0-8727-f9b267e7d06a" d="M197.16,83.54h-2.22v-.73h2.22Zm-4.44,0H190.5v-.73h2.22Zm-4.44,0h-2.21v-.73h2.21Zm-4.43,0h-2.22v-.73h2.22Zm-4.44,0h-2.22v-.73h2.22Zm-4.44,0h-2.22v-.73H175Zm-4.44,0h-2.22v-.73h2.22Zm-4.44,0h-2.22v-.73h2.22Zm-4.44,0h-2.22v-.73h2.22Zm-4.44,0H155v-.73h2.22Zm-4.44,0h-2.22v-.73h2.22Zm-4.44,0h-2.21v-.73h2.21Zm-4.43,0h-2.22v-.73h2.22Zm-4.44,0h-2.22v-.73h2.22Zm-4.44,0H132.8v-.73H135Zm-4.44,0h-2.22v-.73h2.22Zm-4.44,0h-2.22v-.73h2.22Zm-4.44,0h-2.22v-.73h2.22Zm-4.44,0H115v-.73h2.22Zm-4.44,0H110.6v-.73h2.22Zm-4.43,0h-2.22v-.73h2.22Zm-4.44,0h-2.22v-.73H104Zm-4.44,0H97.29v-.73h2.22Zm-4.44,0H92.85v-.73h2.22Zm-4.44,0H88.41v-.73h2.22Zm-4.44,0H84v-.73h2.22Zm-4.44,0H79.53v-.73h2.22Zm-4.44,0H75.09v-.73h2.22Zm-4.43,0H70.66v-.73h2.22Zm-4.44,0H66.22v-.73h2.22Zm-4.44,0H61.78v-.73H64Zm-4.44,0H57.34v-.73h2.22Zm-4.44,0H52.9v-.73h2.22Zm-4.44,0H48.46v-.73h2.22Zm-4.44,0H44v-.73h2.22Zm-4.44,0H39.58v-.73H41.8Zm-4.44,0H35.14v-.73h2.22Zm-4.44,0H30.71v-.73h2.21Zm-4.43,0H26.27v-.73h2.22Zm-4.44,0H21.83v-.73h2.22Zm-4.44,0H17.39v-.73h2.22Zm-4.44,0H13v-.73h2.22Zm-4.44,0H8.51v-.73h2.22Zm-4.44,0H4.07v-.73H6.29Z"/><rect class="af05517a-485e-46b0-8727-f9b267e7d06a" x="0.75" y="82.81" width="1.1" height="0.73"/><polygon class="af05517a-485e-46b0-8727-f9b267e7d06a" points="200.38 83.53 199.32 83.22 199.53 82.52 200.58 82.83 200.38 83.53"/><path class="af05517a-485e-46b0-8727-f9b267e7d06a" d="M197.23,82.6l-2.1-.61.21-.7,2.09.61ZM193,81.37l-2.09-.61.2-.71,2.1.62Zm-4.19-1.23-2.1-.61.21-.71,2.1.62Zm-4.19-1.23-2.1-.62.21-.7,2.1.62Zm-4.19-1.23-2.1-.62.21-.7,2.09.62Zm-4.2-1.23-2.09-.62.2-.7,2.1.62ZM172,75.22l-2-.62.21-.7,2.1.61ZM167.88,74l-2.1-.62.21-.7,2.09.61Zm-4.2-1.24-2.09-.61.2-.7,2.1.61Zm-4.19-1.23-2.1-.61.21-.7,2.1.61ZM155.3,70.3l-2.1-.61.21-.71,2.1.62Zm-4.19-1.23-2.1-.61.21-.71,2.09.62Zm-4.2-1.23-2.09-.62.2-.7,2.1.62Zm-4.19-1.23-2.1-.62.21-.7,2.1.62Zm-4.19-1.23-2.1-.62.21-.7,2.09.61Zm-4.2-1.23-2.09-.62.21-.7,2.09.61Zm-4.19-1.23L128,62.3l.21-.7,2.1.61ZM126,61.67l-2.1-.61.21-.7,2.1.61Zm-4.19-1.23-2.1-.61.21-.7,2.09.61Zm-4.2-1.23-2.09-.61.2-.71,2.1.62ZM113.37,58l-2.1-.61.21-.71,2.1.62Zm-4.19-1.23-2.1-.62.21-.7,2.09.62ZM105,55.52l-2.09-.62.2-.7,2.1.62Zm-4.19-1.23-2.09-.62.2-.7,2.1.62ZM96.6,53.06l-2.1-.62.21-.7,2.1.61Zm-4.19-1.23-2.1-.62.21-.7,2.09.61Zm-4.2-1.24L86.12,50l.2-.7,2.1.61ZM84,49.36l-2.1-.61.21-.7,2.1.61Zm-4.19-1.23-2.1-.61.21-.71,2.09.62Zm-4.2-1.23-2.09-.61.21-.71,2.09.62Zm-4.19-1.23-2.09-.62.2-.7,2.1.62Zm-4.19-1.23-2.1-.62.21-.7,2.1.62ZM63,43.21l-2-.62.21-.7,2.09.62ZM58.86,42l-2.09-.62.2-.7,2.1.61Zm-4.19-1.23-2.1-.62.21-.7,2.1.61Zm-4.19-1.24-2.1-.61.21-.7,2.09.61ZM46.29,38.3l-2.1-.61.21-.7,2.09.61Zm-4.2-1.23L40,36.44l.2-.71,2.1.62ZM37.9,35.82l-2.1-.61.2-.71,2.1.62Zm-4.19-1.23L31.61,34l.21-.7,2.09.62Zm-4.2-1.23-2.09-.62.21-.7,2.09.62Z"/><rect class="af05517a-485e-46b0-8727-f9b267e7d06a" x="24.53" y="31.08" width="0.73" height="1.1" transform="translate(-12.47 46.6) rotate(-73.63)"/><polygon class="af05517a-485e-46b0-8727-f9b267e7d06a" points="200.28 83.48 199.36 82.89 199.75 82.28 200.68 82.87 200.28 83.48"/><path class="af05517a-485e-46b0-8727-f9b267e7d06a" d="M197.53,81.71l-1.84-1.17.4-.62,1.83,1.18Zm-3.67-2.35L192,78.18l.39-.62,1.84,1.18ZM190.2,77l-1.84-1.17.4-.62,1.83,1.18Zm-3.67-2.35-1.83-1.18.39-.62L186.93,74Zm-3.66-2.36L181,71.12l.4-.62,1.83,1.18Zm-3.67-2.35-1.83-1.18.39-.62,1.84,1.18Zm-3.66-2.36L173.7,66.4l.4-.61L175.93,67Zm-3.67-2.35L170,64.05l.4-.62,1.83,1.18Zm-3.66-2.36-1.84-1.18.4-.61,1.83,1.18Zm-3.67-2.35-1.83-1.18.4-.62,1.83,1.18Zm-3.66-2.36L159,57l.4-.61,1.83,1.17Zm-3.67-2.35-1.83-1.18.4-.62,1.83,1.18Zm-3.66-2.36-1.84-1.18.4-.61,1.83,1.17Zm-3.67-2.35-1.83-1.18.4-.62,1.83,1.18Zm-3.66-2.36-1.84-1.18.4-.61,1.83,1.17Zm-3.67-2.36-1.83-1.17.4-.62L143,45.77ZM138.89,44l-1.84-1.18.4-.61,1.83,1.17Zm-3.67-2.36-1.83-1.17.4-.62L135.62,41Zm-3.66-2.35-1.83-1.18.39-.62L132,38.7ZM127.89,37l-1.83-1.17.4-.62,1.83,1.18Zm-3.66-2.35-1.83-1.18.39-.62L124.62,34Zm-3.67-2.36-1.83-1.17.4-.62L121,31.64ZM116.9,29.9l-1.83-1.18.39-.62,1.83,1.18Zm-3.67-2.36-1.83-1.18.4-.61,1.83,1.18Zm-3.66-2.35L107.74,24l.39-.62L110,24.57Zm-3.67-2.36-1.83-1.18.4-.61,1.83,1.18Zm-3.66-2.35-1.83-1.18.39-.62,1.83,1.18Zm-3.67-2.36-1.83-1.18.4-.61L99,17.5Zm-3.66-2.35-1.83-1.18.39-.62,1.84,1.18Zm-3.67-2.36-1.83-1.18.4-.61,1.83,1.17Zm-3.66-2.35L85.75,9.88l.39-.62L88,10.44ZM83.91,8.7,82.08,7.52l.4-.61,1.83,1.17ZM80.25,6.34,78.42,5.17l.39-.62,1.84,1.18ZM76.58,4,74.75,2.81l.4-.61L77,3.37Z"/><rect class="af05517a-485e-46b0-8727-f9b267e7d06a" x="72.29" y="0.48" width="0.73" height="1.1" transform="translate(32.51 61.6) rotate(-57.27)"/><rect class="af05517a-485e-46b0-8727-f9b267e7d06a" x="191.38" y="139.38" width="1.1" height="0.73" transform="translate(-45.09 126.08) rotate(-32.76)"/><path class="af05517a-485e-46b0-8727-f9b267e7d06a" d="M103.58,197l-.4-.62L105,195.2l.4.62Zm3.67-2.36-.4-.62,1.83-1.17.4.61Zm3.67-2.36-.4-.61,1.83-1.18.4.61Zm3.67-2.36-.4-.61,1.83-1.18.4.61Zm3.67-2.36-.4-.61,1.84-1.18.39.61Zm3.67-2.35-.4-.62,1.84-1.18.39.62Zm3.67-2.36-.4-.62L127,181l.39.62Zm3.67-2.36-.4-.62,1.84-1.18.39.62Zm3.67-2.36-.4-.62,1.84-1.18.39.62Zm3.67-2.36-.4-.62,1.84-1.18.39.62Zm3.67-2.36-.4-.61,1.84-1.18.39.61ZM144,171l-.4-.61,1.84-1.18.39.61Zm3.67-2.36-.4-.61,1.84-1.18.4.61Zm3.67-2.35-.4-.62,1.84-1.18.4.62Zm3.67-2.36-.4-.62,1.84-1.18.4.62Zm3.67-2.36-.4-.62,1.84-1.18.4.62Zm3.67-2.36-.4-.62,1.84-1.18.4.62Zm3.67-2.36-.39-.62,1.83-1.18.4.62Zm3.67-2.36-.39-.62,1.83-1.17.4.61Zm3.67-2.36-.39-.61,1.83-1.18.4.61Zm3.67-2.36-.39-.61,1.83-1.18.4.61Zm3.67-2.36-.39-.61,1.83-1.18.4.62Zm3.67-2.35-.39-.62,1.83-1.18.4.62ZM188,142.7l-.39-.62,1.83-1.18.4.62Z"/><rect class="af05517a-485e-46b0-8727-f9b267e7d06a" x="100.52" y="197.77" width="1.1" height="0.73" transform="matrix(0.84, -0.54, 0.54, 0.84, -91.12, 86.17)"/><polygon class="af05517a-485e-46b0-8727-f9b267e7d06a" points="191.44 140.11 191.23 139.41 192.29 139.09 192.49 139.8 191.44 140.11"/><path class="af05517a-485e-46b0-8727-f9b267e7d06a" d="M49.32,181.84l-.21-.71,2.09-.61.21.7Zm4.18-1.23-.21-.7,2.09-.62.21.71Zm4.18-1.23-.21-.7,2.09-.61.21.7Zm4.18-1.23-.21-.7,2.09-.61.21.7ZM66,176.93l-.21-.7,2.09-.62.21.7Zm4.18-1.23L70,175l2.09-.62.21.71Zm4.18-1.23-.21-.7,2.09-.61.21.7Zm4.18-1.22-.21-.71,2.09-.61.21.7ZM82.76,172l-.21-.7,2.09-.62.21.7Zm4.18-1.23-.21-.7,2.09-.62.21.71Zm4.18-1.23-.21-.7,2.09-.61.21.7Zm4.18-1.22-.21-.71,2.09-.61.21.7Zm4.18-1.23-.21-.7,2.09-.62.21.7Zm4.18-1.23-.21-.7,2.09-.61.21.7Zm4.18-1.23-.21-.7,2.09-.61.21.7Zm4.18-1.22-.21-.71,2.09-.61.21.7Zm4.18-1.23-.21-.7,2.09-.62.21.71Zm4.18-1.23-.21-.7,2.09-.61.21.7Zm4.18-1.23-.21-.7,2.09-.61.21.7Zm4.18-1.22-.21-.71,2.09-.61.21.7Zm4.18-1.23-.21-.7,2.09-.62.21.71ZM137.1,156l-.21-.7,2.09-.61.21.7Zm4.18-1.23-.21-.7,2.09-.61.21.7Zm4.18-1.22-.21-.7,2.09-.62.21.7Zm4.18-1.23-.21-.7,2.09-.62.21.71Zm4.18-1.23-.21-.7,2.09-.61.21.7Zm4.18-1.22-.21-.71,2.09-.61.21.7Zm4.18-1.23L162,148l2.09-.62.21.7Zm4.18-1.23-.21-.7,2.09-.62.21.71Zm4.18-1.23-.21-.7,2.09-.61.21.7Zm4.18-1.22-.21-.71,2.09-.61.21.7Zm4.18-1.23-.21-.7,2.09-.62.21.7Zm4.18-1.23-.21-.7,2.09-.61.21.7Zm4.18-1.23-.21-.7,2.09-.61.21.7Z"/><polygon class="af05517a-485e-46b0-8727-f9b267e7d06a" points="46.18 182.76 45.97 182.06 47.02 181.75 47.23 182.45 46.18 182.76"/><rect class="af05517a-485e-46b0-8727-f9b267e7d06a" x="191.29" y="139.08" width="1.1" height="0.73"/><path class="af05517a-485e-46b0-8727-f9b267e7d06a" d="M189.11,139.81h-2.19v-.73h2.19Zm-4.37,0h-2.19v-.73h2.19Zm-4.37,0h-2.19v-.73h2.19Zm-4.37,0h-2.19v-.73H176Zm-4.37,0h-2.19v-.73h2.19Zm-4.37,0h-2.19v-.73h2.19Zm-4.37,0H160.7v-.73h2.19Zm-4.37,0h-2.19v-.73h2.19Zm-4.37,0H152v-.73h2.19Zm-4.37,0h-2.19v-.73h2.19Zm-4.37,0h-2.19v-.73h2.19Zm-4.37,0h-2.19v-.73H141Zm-4.37,0h-2.19v-.73h2.19Zm-4.37,0h-2.19v-.73h2.19Zm-4.37,0h-2.19v-.73h2.19Zm-4.37,0h-2.19v-.73h2.19Zm-4.37,0H117v-.73h2.19Zm-4.37,0h-2.19v-.73h2.19Zm-4.37,0h-2.19v-.73h2.19Zm-4.37,0h-2.19v-.73h2.19Zm-4.37,0H99.53v-.73h2.18Zm-4.37,0H95.16v-.73h2.18Zm-4.37,0H90.79v-.73H93Zm-4.37,0H86.42v-.73H88.6Zm-4.37,0H82.05v-.73h2.18Zm-4.37,0H77.68v-.73h2.18Zm-4.37,0H73.31v-.73h2.18Zm-4.37,0H68.94v-.73h2.18Zm-4.37,0H64.57v-.73h2.18Zm-4.37,0H60.2v-.73h2.18Zm-4.37,0H55.83v-.73H58Zm-4.37,0H51.46v-.73h2.18Zm-4.37,0H47.09v-.73h2.18Zm-4.37,0H42.72v-.73H44.9Zm-4.37,0H38.35v-.73h2.18Zm-4.37,0H34v-.73h2.18Zm-4.37,0H29.61v-.73h2.18Zm-4.37,0H25.24v-.73h2.18Zm-4.37,0H20.87v-.73h2.18Zm-4.37,0H16.5v-.73h2.18Zm-4.37,0H12.13v-.73h2.18Z"/><rect class="af05517a-485e-46b0-8727-f9b267e7d06a" x="8.85" y="139.08" width="1.1" height="0.73"/><polygon class="af05517a-485e-46b0-8727-f9b267e7d06a" points="192.29 139.8 191.23 139.49 191.44 138.79 192.49 139.09 192.29 139.8"/><path class="af05517a-485e-46b0-8727-f9b267e7d06a" d="M189.1,138.86l-2.13-.62.21-.7,2.13.62Zm-4.26-1.25-2.13-.62.21-.71,2.13.63Zm-4.26-1.25-2.12-.62.2-.71,2.13.63Zm-4.25-1.25-2.13-.62.2-.71,2.13.63Zm-4.26-1.25-2.13-.62.2-.71,2.13.63Zm-4.26-1.25-2.13-.63.2-.7,2.13.63Zm-4.26-1.25-2.13-.63.21-.7,2.12.63Zm-4.26-1.25-2.13-.63.21-.7,2.13.63ZM155,128.86l-2.13-.63.21-.7,2.13.63Zm-4.26-1.25-2.13-.63.21-.7,2.13.63Zm-4.26-1.25-2.13-.63.21-.7,2.13.62Zm-4.26-1.25-2.13-.63.21-.7,2.13.62ZM138,123.86l-2.13-.63.21-.7,2.13.62Zm-4.25-1.25-2.13-.63.2-.7,2.13.62Zm-4.26-1.26-2.13-.62.2-.7,2.13.62Zm-4.26-1.25-2.13-.62.2-.7,2.13.62ZM121,118.85l-2.13-.62.21-.7,2.13.62Zm-4.26-1.25-2.13-.62.21-.7,2.13.62Zm-4.26-1.25-2.13-.62.21-.71,2.13.63Zm-4.26-1.25-2.13-.62.21-.71,2.13.63ZM104,113.85l-2.13-.62.21-.71,2.13.63ZM99.7,112.6l-2.17-.6.21-.71,2.13.63Zm-4.26-1.25-2.13-.62.21-.71,2.13.63Zm-4.26-1.25L89,109.47l.2-.7,2.13.63Zm-4.25-1.25-2.13-.63.2-.7,2.13.63Zm-4.26-1.25L80.5,107l.2-.7,2.13.63Zm-4.26-1.25-2.13-.63.21-.7,2.12.63Zm-4.26-1.25L72,104.47l.21-.7,2.13.63Zm-4.26-1.25-2.13-.63.21-.7,2.13.62Zm-4.26-1.25-2.17-.6.21-.7,2.13.62Zm-4.26-1.25-2.13-.63.21-.7,2.13.62Zm-4.26-1.25L55,99.47l.21-.7,2.13.62Zm-4.26-1.26-2.13-.62.21-.7,2.13.62Zm-4.26-1.25L46.42,97l.21-.7,2.13.62Zm-4.26-1.25-2.12-.62.2-.7,2.13.62ZM40,95.09l-2.13-.62.2-.7,2.13.62Zm-4.26-1.25-2.13-.62.2-.7,2.13.62Zm-4.26-1.25L29.39,92l.21-.71,2.13.63Zm-4.26-1.25-2.13-.62L25.3,90l2.13.63ZM23,90.09l-2.13-.62.21-.71,2.13.63Zm-4.26-1.25-2.13-.63.21-.7,2.13.63Zm-4.26-1.25L12.35,87l.21-.7,2.13.63Zm-4.26-1.25-2.13-.63L8.3,85l2.13.63ZM6,85.09l-2.13-.63.21-.7,2.13.63Z"/><polygon class="af05517a-485e-46b0-8727-f9b267e7d06a" points="1.71 83.84 0.65 83.53 0.86 82.83 1.91 83.14 1.71 83.84"/><rect class="af05517a-485e-46b0-8727-f9b267e7d06a" x="191.56" y="138.59" width="0.73" height="1.1" transform="translate(-28.9 225.37) rotate(-57.27)"/><path class="af05517a-485e-46b0-8727-f9b267e7d06a" d="M189.4,138l-1.87-1.2.4-.62,1.87,1.2Zm-3.73-2.4-1.87-1.2.4-.62,1.86,1.2Zm-3.74-2.4-1.87-1.2.4-.62,1.87,1.2Zm-3.73-2.4-1.87-1.2.4-.62,1.86,1.2Zm-3.74-2.4-1.86-1.2.39-.62,1.87,1.21Zm-3.73-2.4-1.87-1.2.4-.62,1.87,1.21ZM167,123.6l-1.87-1.2.39-.61,1.87,1.2Zm-3.74-2.4-1.87-1.2.4-.61,1.87,1.2Zm-3.73-2.4-1.87-1.2.4-.61,1.86,1.2Zm-3.74-2.4-1.86-1.2.39-.61,1.87,1.2Zm-3.73-2.4-1.87-1.2.4-.61,1.87,1.2Zm-3.74-2.4-1.86-1.2.39-.61,1.87,1.2Zm-3.73-2.4-1.87-1.2.4-.61,1.87,1.2Zm-3.73-2.4L139,105.6l.4-.61,1.86,1.2Zm-3.74-2.4-1.87-1.2.4-.61,1.87,1.2Zm-3.73-2.4-1.87-1.2.4-.61,1.86,1.2Zm-3.74-2.4-1.86-1.2.39-.61,1.87,1.2Zm-3.73-2.4L124.05,96l.4-.61,1.87,1.2Zm-3.74-2.4-1.86-1.2.39-.61,1.87,1.2Zm-3.73-2.4-1.87-1.2.4-.61,1.87,1.2ZM114.72,90l-1.87-1.2.4-.61,1.86,1.2ZM111,87.56l-1.86-1.2.39-.61L111.4,87Zm-3.73-2.4L105.38,84l.4-.61,1.86,1.2Zm-3.74-2.4-1.86-1.2L102,81l1.87,1.2Zm-3.73-2.4-1.87-1.2.4-.61,1.87,1.2ZM96.05,78l-1.87-1.19.4-.62,1.86,1.2Zm-3.74-2.4-1.87-1.19.4-.62L92.71,75Zm-3.73-2.39L86.71,72l.4-.62L89,72.55Zm-3.74-2.4L83,69.57l.39-.62,1.87,1.2Zm-3.73-2.4-1.87-1.2.4-.62,1.86,1.2ZM77.38,66l-1.87-1.2.39-.62,1.87,1.2Zm-3.74-2.4-1.87-1.2.4-.62L74,63Zm-3.73-2.4L68,60l.4-.62,1.86,1.2Zm-3.74-2.4L64.3,57.6l.4-.62,1.87,1.2Zm-3.73-2.4-1.87-1.2.4-.62,1.86,1.2ZM58.7,54l-1.86-1.2.39-.62,1.87,1.2ZM55,51.57l-1.87-1.2.4-.62L55.37,51Zm-3.73-2.4L49.37,48l.39-.62,1.87,1.2Zm-3.74-2.4-1.87-1.2L46,45l1.87,1.2Zm-3.73-2.4-1.87-1.2.4-.62,1.86,1.2ZM40,42l-1.86-1.2.39-.62,1.87,1.2Zm-3.73-2.4L34.4,38.4l.4-.62L36.7,39Zm-3.74-2.4L30.7,36l.39-.62L33,36.55ZM28.8,34.8,27,33.57l.4-.62,1.87,1.2Z"/><rect class="af05517a-485e-46b0-8727-f9b267e7d06a" x="24.41" y="31.22" width="0.73" height="1.1" transform="translate(-15.34 35.43) rotate(-57.26)"/><rect class="af05517a-485e-46b0-8727-f9b267e7d06a" x="191.66" y="138.48" width="0.73" height="1.1" transform="translate(-44.13 159.79) rotate(-40.93)"/><path class="af05517a-485e-46b0-8727-f9b267e7d06a" d="M190,137.2l-1.43-1.65.55-.48,1.44,1.66Zm-2.86-3.3-1.43-1.65.55-.48,1.43,1.65Zm-2.86-3.3-1.47-1.6.55-.48,1.43,1.65Zm-2.86-3.3L180,125.65l.55-.48,1.43,1.65Zm-2.9-3.3-1.43-1.65.55-.48,1.43,1.66Zm-2.87-3.3-1.43-1.7.56-.48,1.43,1.65Zm-2.86-3.3-1.43-1.65.56-.48,1.43,1.65Zm-2.86-3.3-1.43-1.65.55-.48,1.43,1.65Zm-2.86-3.31-1.43-1.65.55-.48,1.43,1.66Zm-2.86-3.3-1.43-1.65.55-.48,1.43,1.65Zm-2.86-3.3-1.43-1.65.55-.48,1.43,1.65Zm-2.86-3.3-1.44-1.65.56-.48L159,100.4Zm-2.87-3.31-1.43-1.65.56-.48,1.43,1.66Zm-2.86-3.3-1.43-1.65.55-.48,1.43,1.65ZM149.9,91l-1.43-1.65.55-.48,1.43,1.65ZM147,87.67,145.61,86l.55-.48,1.43,1.65Zm-2.86-3.31-1.43-1.65.55-.48,1.43,1.66Zm-2.86-3.3-1.44-1.65.56-.48,1.43,1.65Zm-2.87-3.3L137,76.11l.56-.48L139,77.28Zm-2.86-3.3-1.43-1.65.55-.48L136.14,74Zm-2.86-3.31L131.3,69.5l.55-.48,1.43,1.66Zm-2.86-3.3L128.4,66.2l.55-.48,1.43,1.65ZM127,64.55l-1.43-1.65.55-.48,1.43,1.65Zm-2.86-3.3L122.7,59.6l.56-.48,1.43,1.65Zm-2.87-3.31-1.43-1.65.56-.48,1.43,1.66Zm-2.86-3.3L117,53l.55-.48L119,54.16Zm-2.86-3.3-1.43-1.65.55-.48,1.43,1.65ZM112.7,48l-1.43-1.65.55-.48,1.43,1.65Zm-2.86-3.31L108.41,43l.55-.48,1.43,1.66ZM107,41.43l-1.44-1.65.56-.48,1.41,1.7Zm-2.87-3.3-1.43-1.65.56-.48,1.43,1.65Zm-2.86-3.3-1.43-1.65.55-.48,1.44,1.65Zm-2.86-3.31L97,29.87l.55-.48L99,31.05Zm-2.86-3.3L94.1,26.57l.55-.48,1.43,1.65Zm-2.86-3.3-1.43-1.65.55-.48,1.43,1.65Zm-2.86-3.3L88.38,20l.55-.48,1.43,1.65ZM87,18.31l-1.43-1.65.56-.48,1.43,1.66ZM84.08,15l-1.43-1.65.56-.48,1.43,1.65Zm-2.86-3.3-1.43-1.65.55-.48,1.43,1.65ZM78.36,8.4,76.93,6.76l.55-.48,1.43,1.65ZM75.5,5.1,74.07,3.45,74.62,3l1.43,1.66Z"/><rect class="af05517a-485e-46b0-8727-f9b267e7d06a" x="72.19" y="0.6" width="0.73" height="1.1" transform="translate(16.99 47.82) rotate(-40.93)"/><rect class="af05517a-485e-46b0-8727-f9b267e7d06a" x="154.06" y="182.04" width="1.1" height="0.73"/><path class="af05517a-485e-46b0-8727-f9b267e7d06a" d="M151.88,182.77H149.7V182h2.18Zm-4.36,0h-2.18V182h2.18Zm-4.36,0H141V182h2.18Zm-4.37,0h-2.18V182h2.18Zm-4.36,0h-2.18V182h2.18Zm-4.36,0h-2.18V182h2.18Zm-4.36,0h-2.19V182h2.19Zm-4.37,0h-2.18V182h2.18Zm-4.36,0H114.8V182H117Zm-4.36,0h-2.19V182h2.19Zm-4.37,0h-2.18V182h2.18Zm-4.36,0h-2.18V182h2.18Zm-4.36,0H97.35V182h2.18Zm-4.37,0H93V182h2.18Zm-4.36,0H88.62V182H90.8Zm-4.36,0H84.26V182h2.18Zm-4.36,0H79.89V182h2.19Zm-4.37,0H75.53V182h2.18Zm-4.36,0H71.17V182h2.18Zm-4.36,0H66.8V182H69Zm-4.37,0H62.44V182h2.18Zm-4.36,0H58.08V182h2.18Zm-4.36,0H53.72V182H55.9Zm-4.37,0H49.35V182h2.18Z"/><rect class="af05517a-485e-46b0-8727-f9b267e7d06a" x="46.07" y="182.04" width="1.1" height="0.73"/><polygon class="af05517a-485e-46b0-8727-f9b267e7d06a" points="155.06 182.76 154 182.45 154.21 181.75 155.27 182.06 155.06 182.76"/><path class="af05517a-485e-46b0-8727-f9b267e7d06a" d="M151.92,181.84l-2.09-.62.2-.7,2.09.61Zm-4.18-1.23-2.09-.61.2-.71,2.09.62Zm-4.19-1.23-2.09-.61.21-.7,2.09.61Zm-4.17-1.23-2.09-.61.2-.7,2.09.61Zm-4.18-1.22-2.09-.62.2-.7,2.09.62ZM131,175.7l-2.09-.61.21-.71,2.09.62Zm-4.18-1.23-2.08-.61.2-.7,2.09.61Zm-4.17-1.22-2.09-.62.2-.7,2.09.61ZM118.48,172l-2.1-.62.21-.7,2.09.62Zm-4.19-1.23-2.08-.61.2-.71,2.09.62Zm-4.17-1.23L108,169l.2-.7,2.09.61Zm-4.18-1.22-2.1-.62.21-.7,2.09.61Zm-4.19-1.23-2.08-.62.2-.7,2.09.62Zm-4.17-1.23-2.09-.61.2-.71,2.09.62Zm-4.18-1.23L91.31,164l.2-.7,2.09.61Zm-4.19-1.22-2.08-.62.2-.7,2.09.61ZM85,162.2l-2-.62.2-.7,2.09.62ZM80.86,161l-2.09-.61.2-.7,2.09.61Zm-4.19-1.23-2.09-.61.21-.7,2.09.61Zm-4.17-1.22-2.09-.62.2-.7,2.09.61Zm-4.18-1.23-2.09-.61.2-.71,2.09.62Zm-4.18-1.23-2.1-.61.21-.7,2.09.61ZM60,154.83l-2.09-.61.2-.7,2.09.61Zm-4.18-1.22L53.69,153l.2-.7,2.09.62Zm-4.18-1.23-2.1-.61.21-.71,2.09.62Zm-4.18-1.23-2.09-.61.2-.7,2.09.61Zm-4.18-1.22-2.09-.62.2-.7,2.09.61ZM39.1,148.7l-2.1-.62.2-.7,2.09.62Zm-4.18-1.23-2.09-.61.2-.71,2.09.62Zm-4.18-1.23-2.09-.61.2-.7,2.09.61ZM26.52,145l-2.09-.62.2-.7,2.09.61Zm-4.19-1.23-2.08-.62.2-.7,2.09.62Zm-4.17-1.23L16.07,142l.2-.7,2.09.61ZM14,141.33l-2.09-.61.2-.7,2.09.61Z"/><rect class="af05517a-485e-46b0-8727-f9b267e7d06a" x="9.01" y="139.05" width="0.73" height="1.1" transform="translate(-127.21 109.25) rotate(-73.63)"/><rect class="af05517a-485e-46b0-8727-f9b267e7d06a" x="154.33" y="181.56" width="0.73" height="1.1" transform="translate(-82.14 213.78) rotate(-57.27)"/><path class="af05517a-485e-46b0-8727-f9b267e7d06a" d="M152.2,180.94l-1.84-1.18.4-.62,1.84,1.19Zm-3.67-2.36-1.84-1.18.39-.62,1.84,1.18Zm-3.68-2.36L143,175l.4-.62,1.84,1.18Zm-3.68-2.37-1.83-1.18.39-.61,1.84,1.18Zm-3.67-2.36-1.84-1.18.4-.62,1.83,1.19Zm-3.68-2.36L132,168l.4-.62,1.84,1.18Zm-3.67-2.36-1.84-1.18.39-.62,1.84,1.18Zm-3.68-2.37-1.84-1.18.4-.61,1.84,1.18Zm-3.68-2.4L121,160.86l.39-.62,1.84,1.19Zm-3.67-2.36-1.84-1.18.4-.62,1.83,1.18Zm-3.68-2.36-1.84-1.18.4-.62,1.84,1.18ZM111.76,155l-1.83-1.18.39-.61,1.84,1.18Zm-3.67-2.36-1.84-1.18.4-.62,1.84,1.19Zm-3.68-2.36-1.84-1.18.4-.62,1.84,1.18Zm-3.67-2.36-1.84-1.18.39-.62,1.84,1.18Zm-3.68-2.37-1.84-1.18.4-.61,1.84,1.18Zm-3.68-2.36L91.55,142l.39-.62,1.84,1.19Zm-3.67-2.36-1.84-1.18.4-.62,1.83,1.18ZM86,138.42l-1.84-1.18.4-.62,1.84,1.18Zm-3.67-2.37-1.84-1.18.39-.61,1.84,1.18Zm-3.68-2.36-1.84-1.18.4-.62,1.84,1.19ZM75,131.33l-1.83-1.18.39-.62,1.84,1.18ZM71.33,129l-1.84-1.18.4-.62,1.83,1.18Zm-3.68-2.37-1.84-1.18.4-.61L68.05,126ZM64,124.24l-1.83-1.18.39-.62,1.84,1.19Zm-3.67-2.36-1.84-1.18.4-.62,1.84,1.18Zm-3.68-2.36-1.84-1.18.4-.62L57,118.9ZM53,117.15,51.11,116l.39-.61,1.84,1.18Zm-3.68-2.36-1.84-1.18.4-.62,1.84,1.19Zm-3.68-2.36-1.83-1.18.39-.62,1.8,1.18ZM42,110.07l-1.84-1.18.4-.62,1.83,1.18Zm-3.68-2.37-1.84-1.18.4-.61,1.84,1.18Zm-3.67-2.36-1.84-1.18.39-.62L35,104.73ZM30.89,103l-1.84-1.18.4-.62,1.84,1.18Zm-3.68-2.36-1.83-1.18.39-.62L27.61,100Zm-3.67-2.37-1.84-1.2.4-.61,1.83,1.18Zm-3.68-2.36L18,94.71l.4-.62,1.84,1.19Zm-3.67-2.36-1.84-1.18.39-.62,1.84,1.18Zm-3.68-2.36L10.67,90l.4-.62,1.84,1.18ZM8.83,88.8,7,87.62,7.39,87l1.84,1.18ZM5.16,86.44,3.32,85.26l.39-.62,1.84,1.19Z"/><rect class="af05517a-485e-46b0-8727-f9b267e7d06a" x="0.85" y="82.92" width="0.73" height="1.1" transform="translate(-69.66 39.36) rotate(-57.27)"/><rect class="af05517a-485e-46b0-8727-f9b267e7d06a" x="154.44" y="181.44" width="0.73" height="1.1" transform="translate(-81.36 145.83) rotate(-40.91)"/><path class="af05517a-485e-46b0-8727-f9b267e7d06a" d="M152.71,180.14l-1.45-1.68.55-.48,1.46,1.68Zm-2.9-3.35-1.46-1.68.56-.48,1.45,1.68Zm-2.91-3.36-1.45-1.68.55-.48,1.45,1.68Zm-2.9-3.35-1.45-1.68.55-.48,1.46,1.68Zm-2.9-3.36-1.46-1.67.56-.48,1.45,1.67Zm-2.91-3.35-1.45-1.68.55-.48,1.45,1.68ZM135.27,160l-1.45-1.67.55-.48,1.46,1.67Zm-2.9-3.35L130.91,155l.56-.48,1.45,1.68Zm-2.91-3.36L128,151.63l.55-.48,1.45,1.67ZM126.55,150l-1.45-1.68.55-.48,1.46,1.68Zm-2.9-3.36L122.19,145l.56-.48,1.45,1.68Zm-2.91-3.35-1.45-1.68.55-.48,1.45,1.68Zm-2.91-3.35-1.45-1.68.55-.48,1.45,1.68Zm-2.91-3.36-1.45-1.68.55-.48,1.46,1.68Zm-2.9-3.35-1.46-1.68.56-.48,1.45,1.68Zm-2.91-3.36-1.45-1.68.55-.48,1.45,1.68Zm-2.91-3.35-1.45-1.68.55-.48,1.46,1.68Zm-2.9-3.36-1.46-1.67.56-.48,1.45,1.67Zm-2.91-3.35-1.45-1.68.55-.48,1.45,1.68Zm-2.91-3.36L96,114.73l.55-.48L98,115.92Zm-2.9-3.35-1.46-1.68.56-.48,1.45,1.68Zm-2.91-3.36L90.22,108l.55-.48,1.45,1.67Zm-2.91-3.35-1.45-1.68.55-.48,1.46,1.68ZM85.86,103l-1.46-1.67.56-.48,1.45,1.67ZM83,99.63,81.5,98l.55-.48L83.5,99.2Zm-3-3.36L78.59,94.6l.55-.48L80.6,95.8Zm-2.9-3.35-1.46-1.68.56-.48,1.45,1.68Zm-2.91-3.35-1.45-1.68.55-.48,1.45,1.68Zm-2.91-3.36-1.45-1.68.55-.48,1.46,1.68Zm-2.9-3.35L67,81.18l.55-.48L69,82.38ZM65.51,79.5l-1.45-1.68.55-.48L66.06,79ZM62.6,76.15l-1.45-1.68L61.7,74l1.46,1.68Zm-2.9-3.36-1.46-1.67.55-.48,1.46,1.67Zm-2.91-3.35-1.46-1.68.56-.48L57.34,69Zm-2.91-3.36-1.45-1.67.55-.48,1.45,1.67ZM51,62.73l-1.45-1.68.55-.48,1.46,1.68Zm-2.9-3.36L46.61,57.7l.56-.48,1.45,1.67ZM45.16,56l-1.45-1.68.55-.48,1.45,1.68Zm-2.91-3.36L40.8,51l.55-.48,1.46,1.68Zm-2.9-3.35-1.46-1.68.56-.48,1.45,1.68ZM36.44,46,35,44.28l.55-.48L37,45.48Zm-2.91-3.4-1.45-1.68.55-.48,1.46,1.68Zm-2.9-3.35-1.46-1.68.56-.48,1.45,1.68Zm-2.91-3.36-1.45-1.68.55-.48,1.45,1.68Z"/><rect class="af05517a-485e-46b0-8727-f9b267e7d06a" x="24.36" y="31.33" width="0.73" height="1.1" transform="translate(-14.84 23.99) rotate(-40.93)"/><rect class="af05517a-485e-46b0-8727-f9b267e7d06a" x="154.56" y="181.38" width="0.73" height="1.1" transform="translate(-61.55 80.74) rotate(-24.53)"/><path class="af05517a-485e-46b0-8727-f9b267e7d06a" d="M153.45,179.54l-.92-2,.67-.3.92,2Zm-1.84-4-.92-2,.66-.31.92,2Zm-1.85-4-.92-2,.67-.31.92,2Zm-1.84-4-.92-2,.66-.3.92,2Zm-1.84-4-.93-2,.67-.3.92,2Zm-1.85-4-.92-2,.67-.3.92,2Zm-1.84-4-.92-2,.66-.31.92,2Zm-1.85-4-.92-2,.67-.3.92,2Zm-1.84-4-.92-2,.66-.3.93,2Zm-1.84-4-.93-2,.67-.3.92,2Zm-1.85-4-.92-2,.67-.31.92,2Zm-1.84-4-.92-2,.66-.3.92,2Zm-1.85-4-.92-2,.67-.3.92,2Zm-1.84-4-.92-2,.66-.3.93,2Zm-1.84-4-.93-2,.67-.31.92,2Zm-1.85-4-.92-2,.67-.31.92,2Zm-1.84-4-.92-2,.66-.3.92,2Zm-1.85-4-.92-2,.67-.3.92,2Zm-1.84-4-.92-2,.66-.3.93,2Zm-1.84-4-.93-2,.67-.31.92,2Zm-1.85-4-.92-2,.67-.3.92,2Zm-1.84-4-.92-2,.66-.3.92,2Zm-1.85-4-.92-2,.67-.3.92,2Zm-1.84-4-.92-2,.66-.31.93,2Zm-1.84-4-.93-2,.67-.31.92,2Zm-1.85-4-.92-2,.67-.3.92,2Zm-1.84-4-.92-2,.66-.3.92,2Zm-1.85-4-.92-2,.67-.31.92,2Zm-1.84-4-.92-2,.66-.31.93,2Zm-1.84-4-.93-2,.67-.3.92,2Zm-1.85-4-.92-2,.67-.3.92,2Zm-1.84-4-.92-2,.66-.3.92,2Zm-1.85-4-.92-2,.67-.31.92,2Zm-1.84-4-.92-2,.66-.3.93,2Zm-1.84-4-.93-2,.67-.3.92,2Zm-1.85-4-.92-2,.67-.3.92,2Zm-1.84-4-.92-2,.66-.31.92,2Zm-1.85-4-.92-2,.67-.31.92,2Zm-1.84-4-.92-2,.67-.3.92,2Zm-1.84-4-.92-2,.66-.3.92,2Zm-1.85-4-.92-2,.67-.31.92,2Zm-1.84-4-.92-2,.66-.31.92,2ZM76,10l-.92-2,.67-.3.92,2ZM74.16,6l-.92-2,.67-.3.92,2Z"/><rect class="af05517a-485e-46b0-8727-f9b267e7d06a" x="72.06" y="0.68" width="0.73" height="1.1" transform="translate(6.05 30.24) rotate(-24.58)"/><rect class="af05517a-485e-46b0-8727-f9b267e7d06a" x="99.79" y="197.56" width="0.73" height="1.1" transform="translate(-120.66 175.29) rotate(-57.28)"/><path class="af05517a-485e-46b0-8727-f9b267e7d06a" d="M97.66,197l-1.83-1.18.39-.62,1.84,1.18ZM94,194.6l-1.84-1.18.4-.61L94.39,194Zm-3.67-2.36-1.84-1.18.4-.61,1.84,1.18Zm-3.67-2.36-1.84-1.18.4-.61,1.84,1.18ZM83,187.52l-1.84-1.18.4-.61,1.84,1.18Zm-3.67-2.35L77.47,184l.4-.62,1.84,1.18Zm-3.67-2.36-1.84-1.18.4-.62L76,182.19ZM72,180.45l-1.84-1.18.4-.62,1.83,1.18Zm-3.67-2.36-1.84-1.18.4-.62,1.83,1.18Zm-3.67-2.36-1.84-1.18.4-.62L65,175.11ZM61,173.37l-1.84-1.18.4-.61,1.83,1.18ZM57.29,171l-1.84-1.18.4-.61,1.83,1.18Zm-3.67-2.36-1.84-1.18.4-.61L54,168ZM50,166.29l-1.84-1.17.4-.62,1.83,1.18Zm-3.68-2.35-1.83-1.18.4-.62,1.83,1.18Zm-3.67-2.36-1.83-1.18.4-.62L43,161ZM39,159.22,37.1,158l.4-.62,1.83,1.18Zm-3.67-2.36-1.83-1.18.4-.62,1.83,1.18Zm-3.67-2.36-1.83-1.18.39-.61,1.8,1.17ZM28,152.14,26.09,151l.39-.61,1.84,1.18Zm-3.67-2.36-1.83-1.18.39-.61,1.84,1.18Zm-3.67-2.36-1.83-1.17.39-.62L21,146.81ZM17,145.07l-1.83-1.18.39-.62,1.84,1.18Zm-3.67-2.36-1.83-1.18.39-.62,1.84,1.18Z"/><rect class="af05517a-485e-46b0-8727-f9b267e7d06a" x="8.94" y="139.2" width="0.73" height="1.1" transform="translate(-113.29 72.02) rotate(-57.27)"/><rect class="af05517a-485e-46b0-8727-f9b267e7d06a" x="99.89" y="197.46" width="0.73" height="1.1" transform="translate(-105.15 113.95) rotate(-40.89)"/><path class="af05517a-485e-46b0-8727-f9b267e7d06a" d="M98.2,196.19l-1.43-1.65.55-.48,1.43,1.65Zm-2.86-3.29-1.42-1.65.55-.48,1.43,1.65Zm-2.85-3.3L91.06,188l.56-.48,1.38,1.6Zm-2.85-3.29-1.43-1.65.55-.47,1.43,1.64ZM86.78,183l-1.42-1.65.55-.48,1.43,1.65Zm-2.85-3.29-1.43-1.65.56-.48,1.42,1.65Zm-2.85-3.3-1.43-1.64.55-.48L81.63,176Zm-2.85-3.29L76.8,171.5l.55-.48,1.43,1.64Zm-2.86-3.29L74,168.2l.55-.48L76,169.37Zm-2.85-3.29-1.43-1.65.56-.48,1.42,1.65Zm-2.85-3.3-1.43-1.64.55-.48,1.43,1.64ZM66.81,160l-1.42-1.64.55-.48,1.43,1.64ZM64,156.68,62.53,155l.56-.48,1.42,1.65Zm-2.85-3.29-1.43-1.65.55-.48,1.43,1.65Zm-2.86-3.3-1.42-1.64.55-.48,1.43,1.65ZM55.4,146.8,54,145.16l.55-.48L56,146.32Zm-2.85-3.29-1.43-1.65.56-.48L53.1,143Zm-2.85-3.29-1.43-1.65.55-.48,1.43,1.65Zm-2.86-3.3-1.42-1.64.55-.48,1.43,1.65ZM44,133.63,42.56,132l.56-.48,1.42,1.64Zm-2.85-3.29-1.43-1.65.55-.48,1.43,1.65Zm-2.85-3.29-1.43-1.65.55-.48,1.43,1.65Zm-2.86-3.29L34,122.11l.55-.48L36,123.28Zm-2.85-3.3-1.43-1.64.56-.48L33.13,120Zm-2.85-3.29-1.43-1.65.55-.48,1.43,1.65Zm-2.86-3.29-1.42-1.65.55-.48,1.43,1.65ZM24,110.59l-1.43-1.65.56-.48,1.42,1.65Zm-2.85-3.3-1.43-1.64.55-.48,1.43,1.64ZM18.32,104l-1.43-1.65.55-.47,1.43,1.64Zm-2.86-3.29L14,99.06l.55-.48L16,100.23Zm-2.85-3.29-1.43-1.65.56-.48,1.42,1.65Zm-2.85-3.3L8.33,92.48,8.88,92l1.43,1.64ZM6.9,90.83,5.48,89.19,6,88.71l1.43,1.64ZM4.05,87.54,2.62,85.89l.56-.48L4.6,87.06Z"/><rect class="af05517a-485e-46b0-8727-f9b267e7d06a" x="0.75" y="83.04" width="0.73" height="1.1" transform="translate(-54.49 21.17) rotate(-40.93)"/><rect class="af05517a-485e-46b0-8727-f9b267e7d06a" x="100.03" y="197.37" width="0.73" height="1.1" transform="matrix(0.91, -0.42, 0.42, 0.91, -73.13, 59.57)"/><path class="af05517a-485e-46b0-8727-f9b267e7d06a" d="M98.92,195.59l-.91-2,.67-.3.91,2Zm-1.81-4-.91-2,.66-.31.91,2Zm-1.82-4-.91-2,.67-.3.91,2Zm-1.82-4-.9-2,.66-.31.91,2Zm-1.81-4-.91-2,.67-.3.91,2Zm-1.82-4-.9-2,.66-.31.91,2Zm-1.81-4-.91-2,.67-.3.91,2Zm-1.82-4-.9-2,.66-.31.91,2Zm-1.81-4-.91-2,.67-.3.9,2Zm-1.82-4-.9-2,.66-.31.91,2Zm-1.81-4-.91-2,.67-.3.9,2Zm-1.82-4-.91-2,.67-.31.91,2Zm-1.81-4-.91-2,.67-.3.9,2Zm-1.82-4-.91-2,.67-.31.91,2Zm-1.81-4-.91-2,.66-.3.91,2Zm-1.82-4-.91-2,.67-.3.91,2Zm-1.81-4L69,130l.66-.3.91,2Zm-1.82-4-.91-2,.67-.3.91,2Zm-1.81-4-.91-2,.66-.3.91,2Zm-1.82-4-.91-2,.67-.31.91,2Zm-1.81-4-.91-2,.66-.3.91,2Zm-1.82-4-.91-2,.67-.3.91,2Zm-1.82-4-.9-2,.66-.3.91,2Zm-1.81-4-.91-2,.67-.3.9,2Zm-1.82-4-.9-2,.66-.3.91,2Zm-1.81-4-.91-2,.67-.3.9,2Zm-1.82-4-.9-2,.66-.31.91,2Zm-1.81-4-.91-2,.67-.3.9,2Zm-1.82-4-.91-2,.67-.31.91,2Zm-1.81-4-.91-2L46,78l.9,2Zm-1.82-4-.91-2,.67-.3.91,2Zm-1.81-4-.91-2,.67-.3.9,2Zm-1.82-4-.91-2,.67-.3.91,2Zm-1.81-4-.91-2,.66-.3.91,2Zm-1.82-4-.91-2,.67-.31.91,2Zm-1.81-4-.91-2,.66-.3.91,2Zm-1.82-4-.91-2,.67-.31.91,2Zm-1.82-4-.9-2,.66-.3.91,2Zm-1.81-4-.91-2,.67-.31.91,2Zm-1.82-4-.9-2,.66-.3.91,2Zm-1.81-4-.91-2,.67-.31.9,2Z"/><rect class="af05517a-485e-46b0-8727-f9b267e7d06a" x="24.24" y="31.42" width="0.73" height="1.1" transform="translate(-11.05 13.11) rotate(-24.54)"/><rect class="af05517a-485e-46b0-8727-f9b267e7d06a" x="100.16" y="197.34" width="0.73" height="1.1" transform="matrix(0.99, -0.14, 0.14, 0.99, -27.13, 16.32)"/><path class="af05517a-485e-46b0-8727-f9b267e7d06a" d="M99.78,195.19,99.47,193l.72-.11.32,2.2Zm-.63-4.39-.31-2.2.72-.1.32,2.19Zm-.63-4.39-.32-2.2.73-.11.31,2.2Zm-.63-4.4-.32-2.2.73-.1.31,2.2Zm-.63-4.39-.32-2.2.73-.1.31,2.19Zm-.63-4.4L96.31,171l.72-.11.32,2.2ZM96,168.83l-.31-2.2.72-.1.32,2.2Zm-.63-4.39-.32-2.2.73-.1.32,2.19Zm-.63-4.4-.32-2.19.73-.11.31,2.2Zm-.63-4.39-.32-2.2.73-.1.31,2.2Zm-.63-4.39-.32-2.2.73-.1.31,2.19Zm-.64-4.4-.31-2.19.72-.11.32,2.2Zm-.63-4.39-.31-2.2.72-.1.32,2.19Zm-.63-4.39-.32-2.2.73-.11.32,2.2Zm-.63-4.4-.32-2.2.73-.1.31,2.2Zm-.63-4.39-.32-2.2.73-.1.31,2.19Zm-.63-4.4-.32-2.19.72-.11.32,2.2ZM89,120.5l-.31-2.2.72-.1.32,2.2Zm-.63-4.39-.31-2.2.72-.1L89.1,116Zm-.63-4.4-.32-2.19.73-.11.31,2.2Zm-.63-4.39-.32-2.2.73-.1.31,2.2Zm-.63-4.39-.32-2.2.73-.11.31,2.2Zm-.63-4.4-.32-2.19.72-.11.32,2.2Zm-.64-4.39-.31-2.2.72-.1L86,94Zm-.63-4.39-.31-2.2.72-.11.32,2.2ZM84,85.35l-.32-2.2.73-.1.31,2.2ZM83.36,81,83,78.76l.73-.1L84,80.85Zm-.63-4.4-.32-2.19.73-.11.31,2.2Zm-.64-4.39L81.78,70l.72-.1.32,2.2Zm-.63-4.39-.31-2.2.72-.1.32,2.19Zm-.63-4.4-.31-2.19.72-.11.32,2.2ZM80.2,59l-.32-2.2.73-.1.31,2.2Zm-.63-4.39-.32-2.2L80,52.3l.31,2.2Zm-.63-4.4L78.62,48l.73-.11.31,2.2Zm-.64-4.39L78,43.61l.72-.1L79,45.7Zm-.63-4.4-.31-2.19.72-.11.32,2.2ZM77,37l-.31-2.2.72-.1.32,2.2Zm-.63-4.39-.32-2.2.73-.1.31,2.19Zm-.63-4.4L75.46,26l.73-.11.31,2.2Zm-.63-4.39-.32-2.2.72-.1.32,2.2Zm-.64-4.39-.31-2.2.72-.1.32,2.19ZM73.84,15l-.31-2.19.72-.11.32,2.2Zm-.63-4.39-.31-2.2.72-.1.32,2.2Zm-.63-4.39-.32-2.2L73,4l.31,2.2Z"/><rect class="af05517a-485e-46b0-8727-f9b267e7d06a" x="71.91" y="0.74" width="0.73" height="1.1" transform="translate(0.55 10.28) rotate(-8.17)"/><rect class="af05517a-485e-46b0-8727-f9b267e7d06a" x="45.48" y="181.36" width="0.73" height="1.1" transform="translate(-71.41 35.47) rotate(-24.54)"/><path class="af05517a-485e-46b0-8727-f9b267e7d06a" d="M44.38,179.58l-.91-2,.67-.3.9,2Zm-1.82-4-.9-2,.66-.3.91,2Zm-1.81-4-.9-2,.66-.31.91,2Zm-1.81-4-.91-2,.67-.31.91,2Zm-1.81-4-.91-2,.67-.31.9,2Zm-1.82-4-.9-2,.66-.3.91,2Zm-1.81-4-.9-2,.66-.3.91,2Zm-1.81-4-.91-2,.67-.3.91,2Zm-1.81-4-.91-2,.67-.3.9,2Zm-1.82-4-.9-2,.66-.3.91,2Zm-1.81-4-.9-2,.66-.31.91,2Zm-1.81-4-.91-2,.67-.31.91,2Zm-1.81-4-.91-2,.67-.31.9,2Zm-1.81-4-.91-2,.67-.3.9,2ZM19,124l-.9-2,.66-.3.91,2Zm-1.81-4-.91-2,.67-.3.91,2Zm-1.81-4-.91-2,.67-.3.9,2Zm-1.81-4-.91-2,.67-.3.9,2Zm-1.82-4-.9-2,.66-.31.91,2Zm-1.81-4L9,102l.67-.31.91,2Zm-1.81-4-.91-2,.67-.31.9,2ZM6.32,96l-.91-2,.67-.3.9,2ZM4.5,92l-.9-2,.66-.3.91,2ZM2.69,88l-.91-2,.67-.3.91,2Z"/><rect class="af05517a-485e-46b0-8727-f9b267e7d06a" x="0.61" y="83.13" width="0.73" height="1.1" transform="translate(-34.65 7.96) rotate(-24.53)"/><rect class="af05517a-485e-46b0-8727-f9b267e7d06a" x="45.62" y="181.33" width="0.73" height="1.1" transform="matrix(0.99, -0.14, 0.14, 0.99, -25.41, 8.39)"/><path class="af05517a-485e-46b0-8727-f9b267e7d06a" d="M45.24,179.22l-.31-2.16.73-.1.31,2.15Zm-.62-4.31-.31-2.16.73-.11.31,2.16ZM44,170.59l-.31-2.15.73-.11.31,2.16Zm-.62-4.31-.31-2.15.73-.11.31,2.16ZM42.76,162l-.31-2.16.73-.1.31,2.15Zm-.62-4.31-.31-2.16.73-.1.31,2.15Zm-.62-4.31-.31-2.16.73-.11.31,2.16ZM40.9,149l-.31-2.15.73-.11.31,2.16Zm-.62-4.31L40,142.56l.73-.1.31,2.16Zm-.62-4.31-.31-2.16.73-.1.31,2.15ZM39,136.1l-.31-2.16.73-.1.31,2.15Zm-.62-4.32-.31-2.15.73-.11.31,2.16Zm-.62-4.31-.31-2.15.73-.11.31,2.16Zm-.62-4.31L36.87,121l.73-.1.31,2.16Zm-.62-4.31-.31-2.16.73-.1.31,2.15Zm-.62-4.31-.31-2.16.73-.1.31,2.15Zm-.62-4.32L35,108.07l.73-.11.31,2.16Zm-.62-4.31-.31-2.15.73-.11.31,2.16ZM34,101.6l-.31-2.16.73-.1.31,2.16Zm-.62-4.31-.31-2.16.73-.1.31,2.15ZM32.84,93l-.31-2.16.73-.11.31,2.16Zm-.62-4.32-.31-2.15.73-.11L33,88.56Zm-.62-4.31-.31-2.15.73-.11.31,2.16ZM31,80l-.31-2.16.73-.1.31,2.15Zm-.62-4.31-.31-2.16.73-.1.31,2.15Zm-.62-4.32-.31-2.15.73-.11.31,2.16Zm-.62-4.31L28.81,65l.73-.11L29.85,67Zm-.62-4.31-.31-2.16.73-.1.31,2.16Zm-.62-4.31-.31-2.16.73-.1.31,2.15Zm-.62-4.31L27,52l.73-.1L28,54.06Zm-.62-4.32-.31-2.15.73-.11.31,2.16ZM26,45.54l-.31-2.15.73-.11.31,2.16Zm-.62-4.31-.31-2.16.73-.1.31,2.16Zm-.62-4.31-.31-2.16.73-.1.31,2.15Z"/><rect class="af05517a-485e-46b0-8727-f9b267e7d06a" x="24.08" y="31.47" width="0.73" height="1.1" transform="translate(-4.31 3.8) rotate(-8.18)"/><rect class="af05517a-485e-46b0-8727-f9b267e7d06a" x="45.6" y="181.51" width="1.1" height="0.73" transform="translate(-140.45 201.58) rotate(-81.79)"/><path class="af05517a-485e-46b0-8727-f9b267e7d06a" d="M46.9,179.21l-.72-.1.31-2.17.72.11Zm.62-4.32-.72-.11.31-2.16.72.1Zm.63-4.33-.73-.1.31-2.17.73.11Zm.62-4.32-.73-.11.31-2.16.73.1Zm.62-4.33-.72-.1.31-2.17.72.11Zm.62-4.33-.72-.1.31-2.16.72.1Zm.62-4.32-.72-.11.31-2.16.72.11Zm.63-4.33-.73-.1.31-2.16.73.1Zm.62-4.32-.73-.11.31-2.16.73.11Zm.62-4.33-.73-.1.32-2.16.72.1Zm.62-4.32-.72-.11.31-2.16.72.11Zm.62-4.33-.72-.1.31-2.16.72.1Zm.63-4.32-.73-.11L54,125l.73.1ZM55,123l-.73-.1.31-2.17.73.11Zm.62-4.32-.73-.11.32-2.16.72.1Zm.62-4.33-.72-.1.31-2.17.72.11Zm.62-4.32-.72-.11.31-2.16.72.1Zm.62-4.33-.72-.1.31-2.17.73.11Zm.63-4.33-.73-.1.31-2.16.73.1ZM58.72,97,58,96.9l.31-2.17.73.11Zm.62-4.33-.72-.1.31-2.16.72.1ZM60,88.38l-.72-.11.31-2.16.72.11Zm.62-4.33L59.9,84l.31-2.16.72.1Zm.63-4.32-.73-.11.31-2.16.73.11Zm.62-4.33-.73-.1.31-2.16.73.1Zm.62-4.32L61.72,71,62,68.81l.72.1Zm.62-4.33-.72-.1.31-2.16.72.1Zm.62-4.32L63,62.32l.31-2.16.72.1Zm.63-4.33-.73-.1.31-2.17.73.11ZM65,53.78l-.73-.11.31-2.16.73.1Zm.62-4.33-.73-.1.32-2.17.72.11Zm.62-4.32L65.46,45l.31-2.16.72.1Zm.62-4.33-.72-.1.31-2.17.72.11Zm.62-4.33-.72-.1L67,34.21l.73.1Zm.63-4.32L67.32,32l.31-2.16.73.11Zm.62-4.33-.73-.1.31-2.16.73.1Zm.62-4.32-.72-.11.31-2.16.72.11ZM70,19.17l-.72-.1.31-2.16.72.1Zm.62-4.32-.72-.11.31-2.16.72.11Zm.63-4.33-.73-.1.31-2.16.73.1Zm.62-4.32-.73-.11.31-2.16.73.1Z"/><rect class="af05517a-485e-46b0-8727-f9b267e7d06a" x="71.57" y="0.91" width="1.1" height="0.73" transform="translate(60.56 72.47) rotate(-81.79)"/><rect class="af05517a-485e-46b0-8727-f9b267e7d06a" x="8.38" y="138.55" width="1.1" height="0.73" transform="translate(-129.84 127.91) rotate(-81.79)"/><path class="af05517a-485e-46b0-8727-f9b267e7d06a" d="M9.67,136.25l-.72-.1L9.26,134l.73.1Zm.63-4.32-.73-.1.31-2.16.73.1Zm.62-4.32-.73-.1.31-2.16.73.11Zm.62-4.31-.73-.11.31-2.16.73.11Zm.62-4.32-.73-.11.31-2.16.73.11Zm.62-4.32-.73-.11.32-2.16.72.11Zm.62-4.32-.72-.1.31-2.16.72.1ZM14,106l-.72-.1.31-2.16.72.1Zm.62-4.32-.72-.1.31-2.16.72.1Zm.62-4.32-.72-.1.31-2.16.72.11Zm.62-4.31-.7,0,.31-2.16.72.11Zm.62-4.32-.72-.11.31-2.16.73.11Zm.63-4.32-.73-.11.31-2.15.73.1Zm.62-4.32L17,80l.31-2.16.73.1Zm.62-4.32-.73-.1L18,73.53l.73.1Zm.65-4.3-.73-.1.31-2.16.73.1Zm.62-4.32-.73-.1.32-2.16.72.11Zm.62-4.31-.73-.11.32-2.16.72.11Zm.62-4.32-.72-.11.31-2.16.72.11Zm.62-4.32-.72-.11.31-2.15.72.1Zm.62-4.32-.72-.1.31-2.16.72.1Zm.62-4.32-.72-.1.31-2.16.72.1Zm.62-4.32-.72-.1.3-2.14.72.1ZM24,36.92l-.73-.1.31-2.16.73.11Z"/><rect class="af05517a-485e-46b0-8727-f9b267e7d06a" x="23.68" y="31.55" width="1.1" height="0.73" transform="translate(-10.77 51.43) rotate(-81.95)"/><rect class="af05517a-485e-46b0-8727-f9b267e7d06a" x="8.53" y="138.57" width="1.1" height="0.73" transform="translate(-121.11 89.56) rotate(-65.49)"/><path class="af05517a-485e-46b0-8727-f9b267e7d06a" d="M10.54,136.62l-.67-.31.91-2,.66.31Zm1.81-4-.67-.31.91-2,.66.3Zm1.81-4-.67-.3.91-2,.66.3Zm1.81-4-.67-.3.91-2,.66.31Zm1.81-4-.67-.31.91-2,.66.31Zm1.81-4-.67-.3.91-2,.66.3Zm1.81-4-.67-.3.91-2,.66.3Zm1.81-4-.67-.31.91-2,.66.31Zm1.81-4-.67-.31.91-2,.66.3Zm1.81-4-.67-.3.91-2,.66.3Zm1.81-4-.67-.3.91-2,.66.3Zm1.81-4-.67-.31.91-2,.66.31Zm1.81-4-.67-.3.91-2,.66.3Zm1.81-4-.67-.3.9-2,.67.3Zm1.81-4-.67-.3.9-2,.67.31Zm1.81-4-.69.25.9-2,.67.3Zm1.81-4-.67-.3.9-2,.67.3Zm1.8-4-.66-.3.9-2,.67.3Zm1.81-4-.66.38.9-2,.67.31Zm1.81-4-.66.38.9-2,.67.3Zm1.81-4-.66-.3.9-2,.67.3Zm1.81-4-.66-.3.9-2,.67.31Zm1.81-4-.66-.31.9-2,.67.31Zm1.81-4-.66-.3.9-2,.67.3Zm1.81-4-.66-.3.9-2,.67.3Zm1.81-4-.66-.3.9-2,.67.31Zm1.81-4-.66-.31.9-2,.67.3Zm1.81-4-.66-.3.9-2,.67.3Zm1.81-4-.66-.3.9-2,.67.3Zm1.81-4-.66-.31.9-2,.67.31Zm1.81-4-.66-.3.9-2,.67.3Zm1.81-4-.66-.3.9-2,.67.3Zm1.81-4-.66-.3.9-2,.67.31Zm1.81-4-.67-.31.91-2,.67.31Z"/><rect class="af05517a-485e-46b0-8727-f9b267e7d06a" x="71.42" y="0.86" width="1.1" height="0.73" transform="translate(41 66.2) rotate(-65.49)"/><rect class="af05517a-485e-46b0-8727-f9b267e7d06a" x="0.56" y="82.39" width="1.1" height="0.73" transform="translate(-62.13 29.37) rotate(-49.06)"/><path class="af05517a-485e-46b0-8727-f9b267e7d06a" d="M3.18,80.94l-.55-.48,1.42-1.65.56.48ZM6,77.64l-.56-.48,1.43-1.65.55.48Zm2.85-3.3-.55-.48,1.43-1.64.55.47Zm2.86-3.29-.55-.48,1.43-1.65.55.48Zm2.86-3.3L14,67.27l1.43-1.65.56.48Zm2.85-3.3L16.91,64l1.43-1.65.55.48Zm2.86-3.3-.55-.48L21.2,59l.55.48Zm2.86-3.29-.55-.48L24,55.73l.56.48ZM26,54.56l-.56-.48,1.43-1.65.55.48Zm2.85-3.3-.55-.48,1.43-1.65.55.48ZM31.75,48l-.55-.47,1.43-1.65.55.48Zm2.86-3.29-.56-.48,1.43-1.65L36,43Zm2.85-3.3-.55-.48,1.43-1.65.55.48Zm2.86-3.3-.55-.48L41.2,36l.55.48Zm2.86-3.29-.55-.48,1.42-1.65.56.48ZM46,31.48,45.48,31l1.43-1.65.55.48Zm2.85-3.3-.55-.48,1.43-1.65.55.48Zm2.86-3.3-.55-.48,1.43-1.64.55.47Zm2.86-3.29L54,21.11l1.43-1.65.56.48Zm2.85-3.3-.55-.48,1.43-1.65.55.48ZM60.32,15l-.55-.48,1.43-1.65.55.48Zm2.86-3.3-.55-.48,1.42-1.64.56.48ZM66,8.4l-.56-.48,1.43-1.65.55.48Zm2.85-3.3-.55-.48L69.77,3l.55.48Z"/><rect class="af05517a-485e-46b0-8727-f9b267e7d06a" x="71.28" y="0.78" width="1.1" height="0.73" transform="translate(23.9 54.65) rotate(-49.06)"/><path class="af05517a-485e-46b0-8727-f9b267e7d06a" d="M100.62,199.19l-55-16.14-.14-.16L8.15,139.76v-.21L0,83.07l.09-.2L23.79,31l.18-.12L72,0h57.28l.18.12,48,30.85.09.19,23.7,51.91v.21l-8.12,56.48-.14.17-37.37,43.12ZM46.48,181.77l54.14,15.89,54.13-15.89,36.95-42.64,8-55.84L176.29,32,128.83,1.46H72.41L25,32,1.51,83.29l8,55.84Z"/></g></svg>