<svg id="b14882f4-7399-4d2f-ac27-ad4bbc240ab0" data-name="Layer 1" xmlns="http://www.w3.org/2000/svg" viewBox="0 0 199.67 199.5"><defs><style>.f2fba6a8-355f-4e42-8cc5-9ea74272e3b1{fill:#000000;}</style></defs><title>10u</title><g id="fba4660a-c686-4306-93db-b5e05889c457" data-name="items"><rect class="f2fba6a8-355f-4e42-8cc5-9ea74272e3b1" x="72.34" y="197.49" width="0.73" height="1.1" transform="translate(-118.74 109.41) rotate(-45)"/><path class="f2fba6a8-355f-4e42-8cc5-9ea74272e3b1" d="M70.48,196.33l-1.57-1.57.52-.52L71,195.82Zm-3.14-3.14-1.58-1.58.52-.51,1.57,1.57ZM64.19,190l-1.57-1.57.51-.52,1.58,1.57ZM61,186.89l-1.57-1.57.52-.52,1.57,1.57Zm-3.14-3.14-1.58-1.58.52-.52,1.57,1.58Zm-3.15-3.15L53.18,179l.51-.51,1.58,1.57Zm-3.15-3.15L50,175.88l.52-.52,1.57,1.57Zm-3.14-3.15-1.58-1.57.52-.52L49,173.79Zm-3.15-3.14-1.57-1.58.51-.51,1.58,1.57ZM42.16,168l-1.57-1.57.52-.52,1.57,1.57ZM39,164.86l-1.57-1.57.52-.52,1.57,1.58Zm-3.14-3.14-1.58-1.58.52-.51,1.57,1.57Zm-3.15-3.15L31.15,157l.51-.52,1.58,1.57Zm-3.15-3.15L28,153.85l.52-.52,1.57,1.57Zm-3.14-3.14-1.58-1.58.52-.52,1.57,1.58Zm-3.15-3.15-1.57-1.57.51-.52,1.58,1.57ZM20.13,146l-1.57-1.57.52-.52,1.57,1.57ZM17,142.83l-1.58-1.57.52-.52,1.57,1.58Zm-3.15-3.14-1.58-1.58.52-.51,1.58,1.57Zm-3.15-3.15L9.12,135l.52-.52L11.21,136Zm-3.15-3.15L6,131.82l.52-.52,1.57,1.58ZM4.4,130.25l-1.58-1.58.52-.51,1.57,1.57Z"/><rect class="f2fba6a8-355f-4e42-8cc5-9ea74272e3b1" x="0.75" y="125.91" width="0.73" height="1.1" transform="translate(-89.09 37.82) rotate(-45)"/><rect class="f2fba6a8-355f-4e42-8cc5-9ea74272e3b1" x="72.44" y="197.41" width="0.73" height="1.1" transform="translate(-89.18 62.87) rotate(-29.98)"/><path class="f2fba6a8-355f-4e42-8cc5-9ea74272e3b1" d="M71.13,195.76l-1.1-1.9.64-.37,1.09,1.9ZM68.94,192l-1.1-1.9.64-.37,1.09,1.9Zm-2.2-3.8-1.09-1.9.63-.36,1.1,1.9Zm-2.19-3.8-1.09-1.9.63-.36,1.1,1.9Zm-2.19-3.79-1.1-1.9.64-.37L63,180.2Zm-2.19-3.8-1.1-1.9.64-.37,1.09,1.9ZM58,173l-1.09-1.9.63-.36,1.1,1.89Zm-2.19-3.8-1.1-1.9.64-.36,1.1,1.9Zm-2.19-3.8-1.1-1.89.64-.37,1.09,1.9Zm-2.19-3.79-1.1-1.9.63-.37,1.1,1.9Zm-2.2-3.8-1.09-1.9.63-.37,1.1,1.9ZM47,154l-1.1-1.9.64-.36,1.1,1.89Zm-2.19-3.8-1.1-1.9.64-.36,1.09,1.9Zm-2.19-3.79-1.1-1.9.63-.37,1.1,1.9Zm-2.2-3.8-1.09-1.9.63-.37,1.1,1.9Zm-2.19-3.8-1.1-1.9.64-.37,1.1,1.9ZM36.05,135,35,133.1l.64-.36,1.09,1.9Zm-2.2-3.8-1.09-1.89.63-.37,1.1,1.9Zm-2.19-3.79-1.09-1.9.63-.37,1.1,1.9Zm-2.19-3.8-1.1-1.9.64-.37,1.09,1.9Zm-2.19-3.8-1.1-1.9.63-.36,1.1,1.89Zm-2.2-3.8L24,114.1l.63-.36,1.1,1.9Zm-2.19-3.79-1.1-1.9.64-.37,1.1,1.9Zm-2.19-3.8-1.1-1.9.64-.37,1.09,1.9Zm-2.19-3.8-1.1-1.9.63-.37,1.1,1.9Zm-2.2-3.8-1.09-1.9.63-.36,1.1,1.9ZM14.12,97,13,95.11l.64-.36,1.09,1.9Zm-2.19-3.79-1.1-1.9.64-.37,1.09,1.9Zm-2.19-3.8-1.1-1.9.63-.37,1.1,1.9Zm-2.2-3.8-1.09-1.9.63-.36,1.1,1.89Zm-2.19-3.8-1.1-1.9.64-.36L6,81.46ZM3.16,78l-1.1-1.89.64-.37,1.09,1.9Z"/><rect class="f2fba6a8-355f-4e42-8cc5-9ea74272e3b1" x="0.64" y="73.02" width="0.73" height="1.1" transform="translate(-36.64 10.35) rotate(-29.99)"/><rect class="f2fba6a8-355f-4e42-8cc5-9ea74272e3b1" x="72.57" y="197.36" width="0.73" height="1.1" transform="translate(-48.74 25.62) rotate(-15)"/><path class="f2fba6a8-355f-4e42-8cc5-9ea74272e3b1" d="M71.88,195.32l-.57-2.14L72,193l.57,2.14ZM70.73,191l-.57-2.14.71-.19.57,2.14Zm-1.14-4.28-.59-2.1.71-.19.57,2.14Zm-1.15-4.28-.57-2.14.7-.19.58,2.14Zm-1.15-4.28L66.72,176l.71-.19L68,178Zm-1.14-4.29-.58-2.14.71-.19.57,2.15ZM65,169.63l-.57-2.14.7-.19.58,2.14Zm-1.15-4.28-.57-2.14L64,163l.57,2.14Zm-1.14-4.28-.58-2.14.71-.19.57,2.14Zm-1.15-4.28L61,154.65l.7-.19.58,2.14Zm-1.15-4.28-.57-2.14.7-.19.58,2.14Zm-1.15-4.28-.57-2.14.71-.19L60,148ZM58.12,144l-.58-2.14.71-.19.58,2.14ZM57,139.67l-.57-2.14.7-.19.58,2.14Zm-1.15-4.28-.57-2.14.71-.19.57,2.14Zm-1.14-4.28L54.1,129l.71-.19.57,2.14Zm-1.15-4.28L53,124.69l.7-.19.58,2.14Zm-1.15-4.28-.57-2.14.71-.19.57,2.14Zm-1.14-4.28-.58-2.14.71-.19.57,2.14ZM50.09,114l-.57-2.14.7-.19.58,2.14Zm-1.15-4.28-.57-2.14.71-.19.57,2.14Zm-1.15-4.29-.57-2.14.71-.18.57,2.14Zm-1.14-4.28L46.07,99l.71-.19.57,2.14ZM45.5,96.86l-.57-2.14.7-.19.58,2.14Zm-1.15-4.28-.57-2.14.71-.19.57,2.14ZM43.21,88.3l-.58-2.14.71-.19.57,2.14ZM42.06,84l-.57-2.14.7-.19.58,2.14Zm-1.15-4.28-.57-2.14.71-.19.57,2.14Zm-1.14-4.28-.58-2.14.71-.19.57,2.14Zm-1.15-4.28L38,69l.71-.19L39.33,71ZM37.47,66.9l-.57-2.14.71-.19.57,2.14Zm-1.14-4.28-.58-2.14.71-.19L37,62.43Zm-1.15-4.28L34.6,56.2l.71-.19.57,2.14ZM34,54.06l-.57-2.14.7-.19.58,2.14Zm-1.15-4.28-.57-2.14.71-.19.57,2.14ZM31.74,45.5l-.58-2.14.71-.19.57,2.14Zm-1.15-4.28L30,39.08l.7-.19L31.3,41Zm-1.15-4.28-.57-2.15.71-.18.57,2.14ZM28.3,32.65l-.58-2.14.71-.19L29,32.46Z"/><rect class="f2fba6a8-355f-4e42-8cc5-9ea74272e3b1" x="26.99" y="27.2" width="0.73" height="1.1" transform="translate(-6.27 8.05) rotate(-15.05)"/><rect class="f2fba6a8-355f-4e42-8cc5-9ea74272e3b1" x="72.73" y="197.33" width="0.73" height="1.1"/><path class="f2fba6a8-355f-4e42-8cc5-9ea74272e3b1" d="M73.46,195.13h-.73v-2.2h.73Zm0-4.39h-.73v-2.2h.73Zm0-4.4h-.73v-2.19h.73Zm0-4.39h-.73v-2.2h.73Zm0-4.39h-.73v-2.2h.73Zm0-4.4h-.73V171h.73Zm0-4.39h-.73v-2.2h.73Zm0-4.39h-.73v-2.2h.73Zm0-4.4h-.73v-2.19h.73Zm0-4.39h-.73v-2.2h.73Zm0-4.39h-.73V149h.73Zm0-4.4h-.73v-2.19h.73Zm0-4.39h-.73v-2.2h.73Zm0-4.39h-.73v-2.2h.73Zm0-4.39h-.73v-2.2h.73Zm0-4.4h-.73V127h.73Zm0-4.39h-.73v-2.2h.73Zm0-4.39h-.73v-2.2h.73Zm0-4.4h-.73v-2.19h.73Zm0-4.39h-.73v-2.2h.73Zm0-4.39h-.73v-2.2h.73Zm0-4.4h-.73v-2.19h.73Zm0-4.39h-.73v-2.2h.73Zm0-4.39h-.73v-2.2h.73Zm0-4.4h-.73V87.5h.73Zm0-4.39h-.73V83.1h.73Zm0-4.39h-.73v-2.2h.73Zm0-4.4h-.73V74.32h.73Zm0-4.39h-.73v-2.2h.73Zm0-4.39h-.73v-2.2h.73Zm0-4.4h-.73V61.14h.73Zm0-4.39h-.73V56.75h.73Zm0-4.39h-.73v-2.2h.73Zm0-4.39h-.73V48h.73Zm0-4.4h-.73V43.57h.73Zm0-4.39h-.73v-2.2h.73Zm0-4.39h-.73v-2.2h.73Zm0-4.4h-.73V30.39h.73Zm0-4.39h-.73V26h.73Zm0-4.39h-.73V21.6h.73Zm0-4.4h-.73V17.21h.73Zm0-4.39h-.73v-2.2h.73Zm0-4.39h-.73V8.42h.73Zm0-4.4h-.73V4h.73Z"/><rect class="f2fba6a8-355f-4e42-8cc5-9ea74272e3b1" x="72.73" y="0.73" width="0.73" height="1.1"/><rect class="f2fba6a8-355f-4e42-8cc5-9ea74272e3b1" x="72.69" y="197.54" width="1.1" height="0.73" transform="translate(-136.88 217.43) rotate(-75)"/><path class="f2fba6a8-355f-4e42-8cc5-9ea74272e3b1" d="M74.29,195.36l-.7-.19.56-2.11.71.19Zm1.13-4.21-.71-.19.57-2.1.7.19Zm1.13-4.21-.71-.19.56-2.1.71.19Zm1.12-4.2-.7-.19.56-2.1.71.18Zm1.13-4.21-.71-.19.57-2.1.71.19Zm1.13-4.2-.71-.19.57-2.11.7.19Zm1.13-4.21-.71-.19.56-2.1.71.19Zm1.12-4.21-.7-.19.56-2.1.71.19Zm1.13-4.2-.71-.19.57-2.1.7.19Zm1.13-4.21-.71-.19.56-2.1.71.19Zm1.12-4.2-.7-.19.56-2.11.71.19Zm1.13-4.21L86,148.9l.57-2.1.7.19Zm1.13-4.2-.71-.19.56-2.11.71.19Zm1.12-4.21-.7-.19.56-2.1.71.19Zm1.13-4.21-.71-.19.57-2.1.7.19Zm1.13-4.2-.71-.19.56-2.1.71.19Zm1.13-4.21-.71-.19.56-2.1.71.19Zm1.12-4.2-.7-.19.56-2.11.71.19Zm1.13-4.21-.71-.19.57-2.1.7.19Zm1.13-4.21-.71-.19.56-2.1.71.19Zm1.12-4.2-.7-.19.56-2.1.71.19ZM98,107l-.71-.19.57-2.1.7.19Zm1.13-4.2-.71-.19L99,100.5l.71.19Zm1.12-4.21-.7-.19.56-2.1.71.19Zm1.13-4.2-.71-.19.57-2.11.7.19Zm1.13-4.21L101.8,90l.56-2.1.71.19ZM103.59,86l-.7-.19.56-2.1.71.19Zm1.13-4.2-.71-.19.57-2.1.71.19Zm1.13-4.21-.71-.19.57-2.1.7.19Zm1.13-4.2-.71-.19.56-2.11.71.19Zm1.12-4.21-.7-.19.56-2.1.71.19ZM109.23,65l-.71-.18.57-2.11.7.19Zm1.13-4.2-.71-.19.56-2.1.71.19Zm1.12-4.21-.7-.19.56-2.1.71.19Zm1.13-4.2-.71-.19.57-2.11.7.19Zm1.13-4.21L113,48l.56-2.1.71.19Zm1.12-4.2-.7-.19.56-2.11.71.19ZM116,39.74l-.71-.19.57-2.1.7.19Zm1.13-4.21-.71-.19.56-2.1.71.19Zm1.13-4.2-.71-.19.56-2.1.71.19Zm1.12-4.21-.71-.19.57-2.1L120,25Zm1.13-4.2-.71-.19.57-2.11.7.19Zm1.13-4.21-.71-.19.56-2.1.71.19Zm1.12-4.21-.7-.18.56-2.11.71.19Zm1.13-4.2-.71-.19.57-2.1.7.19ZM125,6.09l-.71-.19.56-2.1.71.19Z"/><rect class="f2fba6a8-355f-4e42-8cc5-9ea74272e3b1" x="125.36" y="0.89" width="1.1" height="0.73" transform="translate(92.11 122.55) rotate(-75)"/><rect class="f2fba6a8-355f-4e42-8cc5-9ea74272e3b1" x="72.81" y="197.58" width="1.1" height="0.73" transform="translate(-134.76 162.58) rotate(-60.02)"/><path class="f2fba6a8-355f-4e42-8cc5-9ea74272e3b1" d="M75.06,195.75l-.64-.36,1.1-1.9.64.36Zm2.19-3.8-.63-.37,1.1-1.9.63.37Zm2.2-3.81-.63-.36,1.09-1.9.64.36Zm2.2-3.8L81,184l1.1-1.9.64.37Zm2.19-3.8-.63-.37,1.1-1.9.63.36Zm2.2-3.81-.63-.37,1.09-1.9.64.37Zm2.2-3.8-.64-.37,1.1-1.9.63.36Zm2.19-3.81-.63-.36,1.1-1.91.63.37Zm2.2-3.8L92,165l1.09-1.9.64.37Zm2.2-3.81-.64-.36,1.1-1.91.63.37Zm2.19-3.8-.63-.37,1.1-1.9.63.37Zm2.2-3.81-.64-.36,1.1-1.9.64.36Zm2.2-3.8-.64-.37,1.1-1.9.63.37Zm2.19-3.81-.63-.36,1.1-1.9.63.36Zm2.2-3.8-.64-.37,1.1-1.9.64.37Zm2.2-3.8-.64-.37,1.1-1.9.63.36Zm2.19-3.81-.63-.37,1.1-1.9.63.37Zm2.2-3.8-.64-.37,1.1-1.9.64.36Zm2.2-3.81-.64-.36,1.1-1.91.63.37Zm2.19-3.8-.63-.37,1.1-1.9.63.36Zm2.2-3.81-.64-.36,1.1-1.91.64.37Zm2.2-3.8-.64-.37,1.1-1.9.63.37Zm2.19-3.81-.63-.36,1.1-1.91.63.37Zm2.2-3.8-.64-.37L126,106l.64.37Zm2.2-3.81-.64-.36,1.1-1.9.63.36Zm2.19-3.8-.63-.37,1.1-1.9.63.37Zm2.2-3.81-.64-.36,1.1-1.9.64.36Zm2.2-3.8-.64-.37,1.1-1.9.63.37Zm2.19-3.8-.63-.37L137,87l.63.36Zm2.2-3.81-.64-.37,1.1-1.9.64.37Zm2.2-3.8-.64-.37,1.1-1.9.63.36Zm2.19-3.81-.63-.36,1.1-1.91.63.37Zm2.2-3.8-.64-.37,1.1-1.9.64.37Zm2.19-3.81-.63-.36,1.1-1.91.63.37Zm2.2-3.8-.63-.37,1.1-1.9.63.37Zm2.2-3.81-.64-.36,1.1-1.9.64.36Zm2.19-3.8-.63-.37,1.1-1.9.63.37Zm2.2-3.81-.63-.36,1.09-1.9.64.36Zm2.2-3.8-.64-.37,1.1-1.9.64.37Zm2.19-3.8-.63-.37,1.1-1.9.63.36Zm2.2-3.81-.63-.37,1.09-1.9.64.37Zm2.2-3.8-.64-.37,1.1-1.9.64.36ZM167.31,36l-.63-.36,1.1-1.91.63.37Zm2.2-3.8-.63-.37,1.09-1.9.64.36Z"/><rect class="f2fba6a8-355f-4e42-8cc5-9ea74272e3b1" x="171.11" y="27.31" width="1.1" height="0.73" transform="translate(61.91 162.54) rotate(-60.02)"/><rect class="f2fba6a8-355f-4e42-8cc5-9ea74272e3b1" x="72.93" y="197.67" width="1.1" height="0.73" transform="translate(-118.51 109.96) rotate(-45)"/><path class="f2fba6a8-355f-4e42-8cc5-9ea74272e3b1" d="M75.7,196.34l-.52-.52,1.56-1.57.52.52Zm3.13-3.13-.52-.52,1.57-1.57.52.52ZM82,190.07l-.51-.52L83,188l.52.52Zm3.14-3.13-.52-.52,1.57-1.57.51.52Zm3.13-3.14-.52-.51,1.57-1.57.52.52Zm3.13-3.13-.51-.52,1.56-1.56.52.51Zm3.14-3.13L94,177l1.57-1.57.51.52Zm3.13-3.14-.52-.51,1.57-1.57.52.52Zm3.13-3.13-.51-.52,1.56-1.56.52.51Zm3.14-3.13-.52-.52,1.57-1.57.51.52ZM107,165l-.52-.51,1.57-1.57.52.52Zm3.13-3.13-.51-.52,1.56-1.56.52.51Zm3.14-3.13-.52-.52,1.57-1.57.52.52Zm3.13-3.14-.52-.52,1.57-1.56.52.52Zm3.14-3.13L119,152l1.57-1.57.51.52Zm3.13-3.14-.52-.51,1.57-1.57.52.52Zm3.13-3.13-.51-.52,1.56-1.56.52.51Zm3.14-3.13-.52-.52L130,141l.51.52Zm3.13-3.14-.52-.51,1.57-1.57.52.52Zm3.13-3.13-.51-.52,1.56-1.56.52.51Zm3.14-3.13-.52-.52,1.57-1.57.51.52Zm3.13-3.14L141,130l1.57-1.57.52.52Zm3.13-3.13-.51-.52,1.56-1.57.52.52Zm3.14-3.13-.52-.52,1.57-1.57.52.52Zm3.13-3.14-.52-.52,1.57-1.56.52.52ZM154,118l-.52-.52,1.56-1.57.52.52Zm3.13-3.14-.52-.51,1.57-1.57.52.52Zm3.13-3.13-.51-.52,1.56-1.56.52.51Zm3.14-3.13-.52-.52,1.57-1.57.51.52Zm3.13-3.14L166,105l1.57-1.57.52.52Zm3.13-3.13-.51-.52,1.56-1.56.52.51Zm3.14-3.13-.52-.52,1.57-1.57.51.52Zm3.2-3.14-.52-.51L177,94l.52.52Zm3.14-3.13-.52-.52,1.56-1.56.52.51Zm3.13-3.13-.52-.52,1.57-1.57.52.52Zm3.13-3.14-.52-.52,1.57-1.56.52.52Zm3.14-3.13L188,83l1.57-1.57.51.52Zm3.13-3.13-.52-.52,1.57-1.57.52.52Zm3.13-3.14-.51-.52,1.56-1.56.52.51Z"/><rect class="f2fba6a8-355f-4e42-8cc5-9ea74272e3b1" x="197.48" y="73.1" width="1.1" height="0.73" transform="translate(6.05 161.55) rotate(-45)"/><rect class="f2fba6a8-355f-4e42-8cc5-9ea74272e3b1" x="73.02" y="197.78" width="1.1" height="0.73" transform="translate(-89.1 63.19) rotate(-29.95)"/><path class="f2fba6a8-355f-4e42-8cc5-9ea74272e3b1" d="M76.13,197.1l-.37-.64,1.9-1.09L78,196Zm3.79-2.2-.36-.63,1.9-1.1.36.64Zm3.8-2.19-.36-.63,1.89-1.1.37.63Zm3.8-2.19-.37-.64,1.9-1.09.37.63Zm3.8-2.19-.37-.64,1.9-1.1.37.64Zm3.79-2.2-.36-.63,1.9-1.1.35.6Zm3.8-2.19-.36-.63,1.89-1.1.37.63Zm3.8-2.19-.37-.64,1.9-1.09.37.63Zm3.8-2.2-.37-.63,1.9-1.1.37.64Zm3.8-2.19-.37-.63,1.9-1.1.36.64Zm3.79-2.19-.36-.63,1.9-1.1.36.63Zm3.8-2.19-.36-.64,1.89-1.09.37.63Zm3.8-2.2-.37-.63,1.9-1.1.37.64Zm3.8-2.19-.37-.63,1.9-1.1.37.63Zm3.79-2.19-.36-.64,1.9-1.09.36.63Zm3.8-2.19-.36-.64,1.9-1.09.36.63Zm3.8-2.2-.36-.63,1.89-1.1.37.64Zm3.8-2.19-.37-.63,1.9-1.1.37.63Zm3.8-2.19-.37-.64,1.9-1.09.36.63Zm3.79-2.19-.36-.64,1.9-1.09.36.63Zm3.8-2.2-.36-.63,1.89-1.1.37.64Zm3.8-2.19-.37-.63,1.9-1.1.37.63Zm3.8-2.19-.37-.64,1.9-1.09.37.63Zm3.8-2.2-.37-.63,1.9-1.1.36.64Zm3.79-2.19-.36-.63,1.9-1.1.36.64Zm3.8-2.19-.36-.63,1.89-1.1.37.63Zm3.8-2.19-.37-.64,1.9-1.09.37.63Zm3.8-2.2-.37-.63,1.9-1.1.37.64Zm3.79-2.19-.36-.63L184,134l.36.64Zm3.8-2.19-.36-.63,1.89-1.1.37.63Zm3.8-2.19-.36-.64,1.89-1.09.37.63Zm3.8-2.2-.37-.63,1.9-1.1.37.64Z"/><rect class="f2fba6a8-355f-4e42-8cc5-9ea74272e3b1" x="197.4" y="125.96" width="1.1" height="0.73" transform="translate(-36.64 115.74) rotate(-29.96)"/><rect class="f2fba6a8-355f-4e42-8cc5-9ea74272e3b1" x="73.08" y="197.91" width="1.1" height="0.73" transform="translate(-48.81 25.81) rotate(-15)"/><path class="f2fba6a8-355f-4e42-8cc5-9ea74272e3b1" d="M76.4,197.92l-.19-.71,2.15-.58.19.71Zm4.3-1.15-.19-.71,2.15-.58.19.71Zm4.3-1.16-.19-.7,2.15-.58.18.71Zm4.29-1.15-.19-.71,2.15-.57.19.71Zm4.3-1.15-.19-.71,2.15-.57.19.7Zm4.3-1.15-.19-.71,2.15-.57.19.7Zm4.3-1.15-.19-.71,2.15-.58.19.71Zm4.3-1.16-.19-.7,2.15-.58.19.71Zm4.3-1.15-.19-.7,2.15-.58.19.71Zm4.3-1.15-.19-.71,2.15-.57.19.7Zm4.3-1.15-.19-.71,2.15-.57.19.7Zm4.29-1.15-.18-.71,2.14-.58.19.71Zm4.3-1.15-.19-.71,2.15-.58.19.71Zm4.3-1.16-.19-.7,2.15-.58.19.71Zm4.3-1.15-.19-.71,2.15-.57.19.71Zm4.3-1.15-.19-.71,2.15-.57.19.7Zm4.3-1.15-.19-.71,2.15-.58.19.71Zm4.3-1.15-.19-.71,2.15-.58.19.71Zm4.3-1.16-.19-.7,2.15-.58.19.71Zm4.3-1.15-.19-.7,2.15-.58.19.71Zm4.3-1.15-.19-.71,2.14-.57.19.7Zm4.29-1.15-.19-.71,2.15-.57.19.7Z"/><rect class="f2fba6a8-355f-4e42-8cc5-9ea74272e3b1" x="170.85" y="171.72" width="1.1" height="0.73" transform="translate(-38.7 50.22) rotate(-15)"/><rect class="f2fba6a8-355f-4e42-8cc5-9ea74272e3b1" x="26.72" y="170.85" width="0.73" height="1.1" transform="matrix(0.97, -0.26, 0.26, 0.97, -43.44, 12.85)"/><path class="f2fba6a8-355f-4e42-8cc5-9ea74272e3b1" d="M26,168.82l-.57-2.15.71-.19.57,2.15Zm-1.15-4.3-.57-2.15.7-.18.58,2.14Zm-1.15-4.29-.57-2.15.7-.19.58,2.15Zm-1.15-4.3L22,153.78l.71-.19.58,2.15Zm-1.15-4.3-.58-2.15.71-.19.57,2.15Zm-1.15-4.3-.58-2.15.71-.19.57,2.15ZM19.09,143l-.57-2.15.7-.19.58,2.15Zm-1.15-4.3-.57-2.15.7-.19.58,2.15Zm-1.15-4.3-.58-2.15.71-.19.58,2.15Zm-1.15-4.3-.58-2.1.71-.19.57,2.15Zm-1.15-4.3-.58-2.14.71-.19.57,2.15Zm-1.16-4.29-.57-2.15.7-.19.58,2.15Zm-1.15-4.3-.57-2.15.7-.19.58,2.15ZM11,112.94l-.58-2.15.71-.19.58,2.15Zm-1.15-4.3-.58-2.15.71-.19.57,2.15Zm-1.15-4.3-.58-2.15.71-.19.57,2.15ZM7.57,100,7,97.89l.71-.19.57,2.15ZM6.42,95.7l-.57-2.15.7-.19.58,2.15ZM5.27,91.4,4.7,89.29l.7-.19L6,91.25ZM4.12,87.1,3.54,85l.71-.19L4.83,87ZM3,82.85,2.39,80.7l.71-.19.57,2.15Zm-1.15-4.3L1.24,76.4,2,76.21l.57,2.15Z"/><rect class="f2fba6a8-355f-4e42-8cc5-9ea74272e3b1" x="0.51" y="73.06" width="0.73" height="1.1" transform="translate(-19.02 2.74) rotate(-15)"/><rect class="f2fba6a8-355f-4e42-8cc5-9ea74272e3b1" x="26.85" y="170.84" width="0.73" height="1.1"/><path class="f2fba6a8-355f-4e42-8cc5-9ea74272e3b1" d="M27.58,168.65h-.73v-2.19h.73Zm0-4.39h-.73v-2.19h.73Zm0-4.38h-.73v-2.2h.73Zm0-4.39h-.73V153.3h.73Zm0-4.38h-.73v-2.2h.73Zm0-4.39h-.73v-2.19h.73Zm0-4.38h-.73v-2.2h.73Zm0-4.39h-.73v-2.19h.73Zm0-4.39h-.73v-2.19h.73Zm0-4.38h-.73V127h.73Zm0-4.39h-.73V122.6h.73Zm0-4.38h-.73v-2.19h.73Zm0-4.39h-.73v-2.19h.73Zm0-4.38h-.73v-2.19h.73Zm0-4.39h-.73v-2.19h.73Zm0-4.38h-.73v-2.2h.73Zm0-4.39h-.73V96.29h.73Zm0-4.38h-.73V91.9h.73Zm0-4.39h-.73V87.52h.73Zm0-4.38h-.73v-2.2h.73Zm0-4.39h-.73V78.75h.73Zm0-4.38h-.73v-2.2h.73Zm0-4.39h-.73V70h.73Zm0-4.39h-.73V65.59h.73Zm0-4.38h-.73V61.21h.73Zm0-4.39h-.73V56.82h.73Zm0-4.38h-.73V52.44h.73Zm0-4.39h-.73V48.05h.73Zm0-4.38h-.73V43.67h.73Zm0-4.39h-.73V39.28h.73Zm0-4.38h-.73v-2.2h.73Zm0-4.39h-.73V30.51h.73Z"/><rect class="f2fba6a8-355f-4e42-8cc5-9ea74272e3b1" x="26.85" y="27.22" width="0.73" height="1.1"/><rect class="f2fba6a8-355f-4e42-8cc5-9ea74272e3b1" x="26.81" y="171.04" width="1.1" height="0.73" transform="translate(-145.26 153.23) rotate(-74.92)"/><path class="f2fba6a8-355f-4e42-8cc5-9ea74272e3b1" d="M28.43,168.83l-.71-.19.58-2.14.7.19Zm1.15-4.28-.71-.19.57-2.14.71.19Zm1.14-4.28-.7-.19.57-2.14.71.19ZM31.87,156l-.71-.19.58-2.14.7.19ZM33,151.71l-.71-.19.57-2.14.71.19Zm1.14-4.28-.7-.19L34,145.1l.71.19Zm1.15-4.28L34.6,143l.58-2.14.7.19Zm1.15-4.28-.71-.19.58-2.14.7.19Zm1.15-4.28-.71-.19.57-2.14.71.19Zm1.14-4.28-.7-.19L38.6,128l.71.19ZM39.9,126l-.71-.19.58-2.14.7.19Zm1.15-4.28-.71-.19.57-2.14.71.19Zm1.14-4.29-.7-.19.57-2.14.71.19Zm1.15-4.28-.71-.19.58-2.14.7.19Zm1.15-4.28-.71-.19.57-2.14.71.19Zm1.14-4.28-.7-.19.57-2.14.71.19Zm1.15-4.28-.71-.19L46.65,98l.7.19ZM47.93,96l-.71-.19.57-2.14.71.19Zm1.15-4.28-.71-.19.57-2.14.71.19Zm1.14-4.28-.7-.19.57-2.14.71.19Zm1.15-4.28L50.66,83l.58-2.14.7.19Zm1.15-4.28-.71-.19.57-2.14.71.19Zm1.14-4.28-.7-.19.57-2.14.71.19Zm1.15-4.28-.71-.19L54.68,68l.7.19ZM56,66.1l-.71-.19.57-2.14.71.19Zm1.14-4.28-.7-.19L57,59.49l.71.19Zm1.15-4.28-.71-.19.58-2.14.7.19Zm1.15-4.29-.71-.18.57-2.14.71.18ZM60.54,49l-.7-.18.57-2.15.71.19Zm1.15-4.28L61,44.5l.57-2.14.71.19Zm1.15-4.28-.71-.19.58-2.14.7.19ZM64,36.13l-.71-.19.57-2.14.71.19Zm1.14-4.28-.7-.19L65,29.52l.71.19Zm1.15-4.28-.71-.19.58-2.14.7.19Zm1.15-4.28-.71-.19.56-2.1.71.19ZM68.57,19l-.7-.19.57-2.14.71.19Zm1.15-4.28L69,14.54l.58-2.14.7.19Zm1.15-4.28-.71-.19.57-2.14.71.19ZM72,6.17,71.31,6l.57-2.14.71.19Z"/><rect class="f2fba6a8-355f-4e42-8cc5-9ea74272e3b1" x="72.39" y="0.9" width="1.1" height="0.73" transform="translate(52.84 71.39) rotate(-75)"/><polygon class="f2fba6a8-355f-4e42-8cc5-9ea74272e3b1" points="27.54 172.12 26.9 171.75 27.45 170.81 28.09 171.17 27.54 172.12"/><path class="f2fba6a8-355f-4e42-8cc5-9ea74272e3b1" d="M29.18,169.27l-.63-.37,1.1-1.9.63.37Zm2.2-3.81-.64-.36,1.1-1.9.64.36Zm2.2-3.8-.64-.37,1.1-1.9.63.37Zm2.19-3.8-.63-.37,1.1-1.9.63.36Zm2.2-3.81-.64-.37,1.1-1.9.64.37Zm2.19-3.8-.63-.37,1.1-1.9.63.36Zm2.2-3.81-.63-.37,1.1-1.9.63.37Zm2.2-3.8-.64-.37,1.1-1.9.64.36Zm2.19-3.81-.63-.36,1.1-1.91.63.37ZM49,135l-.63-.37,1.09-1.9.64.37Zm2.2-3.81-.64-.36,1.1-1.91.64.37Zm2.19-3.8-.63-.37,1.1-1.9.63.37Zm2.2-3.81-.63-.36,1.09-1.9.64.36Zm2.2-3.8-.64-.37,1.1-1.9.64.37ZM59.93,116l-.63-.36,1.1-1.9.63.36Zm2.2-3.8-.63-.37,1.09-1.9.64.37Zm2.2-3.8-.64-.37,1.1-1.9.64.36Zm2.19-3.81-.63-.37,1.1-1.9.63.37Zm2.2-3.8-.63-.37,1.09-1.9.64.36ZM70.92,97l-.64-.36,1.1-1.91.64.37Zm2.19-3.8-.63-.37,1.1-1.9.63.36Zm2.2-3.81L74.68,89l1.09-1.91.64.37Zm2.2-3.8-.64-.37L78,83.3l.64.37Zm2.19-3.81-.63-.36,1.1-1.91.63.37ZM81.9,78l-.63-.37,1.09-1.9.64.37Zm2.2-3.81-.64-.36,1.1-1.9.64.36Zm2.19-3.8L85.66,70l1.1-1.9.63.37Zm2.2-3.81-.63-.36L89,64.28l.64.36Zm2.2-3.8-.64-.37,1.1-1.9.64.37ZM92.88,59l-.63-.37,1.1-1.9L94,57Zm2.2-3.81-.63-.37,1.09-1.9.64.37Zm2.2-3.8L96.64,51l1.1-1.9.64.36Zm2.19-3.81-.63-.36,1.1-1.91.63.37Zm2.2-3.8-.63-.37,1.09-1.9.64.36Zm2.2-3.81-.64-.36,1.1-1.91L105,38Zm2.19-3.8-.63-.37,1.1-1.9.63.37Zm2.2-3.81-.63-.36,1.09-1.9.64.36Zm2.2-3.8-.64-.37,1.1-1.9.63.37Zm2.19-3.81-.63-.36,1.1-1.9.63.36Zm2.2-3.8-.64-.37,1.1-1.9L116,19Zm2.2-3.81-.64-.36,1.1-1.9.63.36Zm2.19-3.8-.63-.37,1.1-1.9.63.37Zm2.2-3.8-.64-.37,1.1-1.9.64.36Zm2.2-3.81-.64-.4,1.1-1.91.63.37Z"/><rect class="f2fba6a8-355f-4e42-8cc5-9ea74272e3b1" x="125.23" y="0.84" width="1.1" height="0.73" transform="translate(61.89 109.55) rotate(-60.02)"/><rect class="f2fba6a8-355f-4e42-8cc5-9ea74272e3b1" x="27.06" y="171.17" width="1.1" height="0.73" transform="translate(-113.22 69.79) rotate(-45.01)"/><path class="f2fba6a8-355f-4e42-8cc5-9ea74272e3b1" d="M29.79,169.88l-.51-.52,1.53-1.54.52.52Zm3.08-3.08-.52-.52,1.54-1.53.52.51ZM36,163.72l-.52-.51L37,161.67l.52.51Zm3-3.08-.52-.51L40,158.59l.52.52Zm3.08-3.07-.52-.52,1.54-1.54.52.52Zm3.08-3.08-.52-.52,1.54-1.54.52.52Zm3.08-3.08-.52-.52,1.54-1.54.52.52Zm3.07-3.08-.51-.52,1.54-1.54.51.52Zm3.08-3.08-.51-.52,1.54-1.54.51.52Zm3.08-3.08-.51-.52,1.53-1.54.52.52Zm3.08-3.08-.52-.51L61.6,137l.52.51ZM63.66,136l-.52-.51L64.68,134l.52.51Zm3.08-3.07-.52-.52,1.54-1.54.52.52Zm3.08-3.08-.52-.52,1.54-1.54.52.52Zm3.08-3.08-.52-.52,1.54-1.54.52.52ZM76,123.7l-.52-.52L77,121.64l.52.52Zm3.07-3.08-.51-.52,1.54-1.54.51.52Zm3.08-3.08-.51-.52,1.54-1.54.51.52Zm3.08-3.08-.51-.52,1.53-1.54.52.52Zm3.08-3.08-.52-.51,1.54-1.54.52.51Zm3.08-3.08-.52-.51,1.54-1.54.52.51Zm3.08-3.07-.52-.52,1.54-1.54.52.52Zm3.08-3.08-.52-.52,1.54-1.54.52.52Zm3.08-3.08-.52-.52L101.63,97l.52.52ZM103.69,96l-.52-.52,1.54-1.54.52.52Zm3.07-3.08-.51-.52,1.54-1.54.51.52Zm3.08-3.08-.51-.52,1.54-1.54.51.52Zm3.08-3.08-.51-.52,1.53-1.54.52.52ZM116,83.67l-.52-.51L117,81.62l.52.51Zm3.08-3.08-.52-.51,1.54-1.54.52.51Zm3.08-3.07-.52-.52,1.54-1.54.52.52Zm3.08-3.08-.52-.52,1.54-1.54.52.52Zm3.08-3.08-.52-.52,1.54-1.54.52.52Zm3.08-3.08-.52-.52,1.54-1.54.51.52Zm3.07-3.08-.51-.52,1.54-1.54.51.52Zm3.08-3.08L137,61.6l1.54-1.54.51.52ZM140.63,59l-.52-.52L141.65,57l.52.51Zm3.08-3-.52-.51L144.73,54l.52.51Zm3.08-3.08-.52-.51,1.54-1.54.52.52Zm3.08-3.07-.52-.52,1.54-1.54.52.52ZM153,46.73l-.52-.52L154,44.67l.52.52Zm3-3.08-.52-.52L157,41.59l.52.52Zm3.08-3.08-.52-.52,1.54-1.54.51.52Zm3.07-3.08-.51-.52,1.54-1.54.51.52Zm3.08-3.08-.51-.52,1.54-1.54.51.52Zm3.08-3.08-.52-.52,1.54-1.53.52.51Z"/><rect class="f2fba6a8-355f-4e42-8cc5-9ea74272e3b1" x="171" y="27.24" width="1.1" height="0.73" transform="translate(30.73 129.39) rotate(-45)"/><rect class="f2fba6a8-355f-4e42-8cc5-9ea74272e3b1" x="27.14" y="171.3" width="1.1" height="0.73" transform="translate(-82.01 36.75) rotate(-29.95)"/><path class="f2fba6a8-355f-4e42-8cc5-9ea74272e3b1" d="M30.25,170.61l-.36-.64,1.9-1.09.37.63Zm3.81-2.2-.37-.63,1.91-1.1.36.63Zm3.8-2.19-.36-.64,1.9-1.1.37.64Zm3.81-2.2-.37-.64,1.91-1.09.36.63Zm3.8-2.2-.36-.63,1.9-1.1.37.63Zm3.81-2.19-.37-.64,1.9-1.1.37.64Zm3.8-2.2-.36-.64,1.9-1.09.36.63Zm3.81-2.2-.37-.63,1.9-1.1.37.63Zm3.8-2.19-.36-.64,1.9-1.1.36.64Zm3.81-2.2-.37-.63,1.9-1.1.37.63Zm3.8-2.2-.37-.63,1.91-1.1.36.63Zm3.8-2.19-.36-.64,1.9-1.1.37.64Zm3.81-2.2-.37-.63,1.91-1.1.36.63Zm3.8-2.2-.36-.63,1.9-1.1.37.63Zm3.81-2.19-.37-.64,1.9-1.1.37.64Zm3.8-2.2L87,137l1.9-1.1.36.63Zm3.81-2.2-.37-.63,1.9-1.1.37.63Zm3.8-2.19-.36-.64,1.9-1.1.36.64Zm3.81-2.2-.37-.63,1.9-1.1.37.63Zm3.8-2.2-.36-.63,1.9-1.1.36.63Zm3.81-2.19L106,126l1.9-1.1.37.64Zm3.8-2.2-.36-.63,1.9-1.1.36.63Zm3.81-2.2-.37-.63,1.9-1.1.37.64Zm3.8-2.19-.37-.64,1.91-1.09.36.63Zm3.8-2.2-.36-.63,1.9-1.1.37.63Zm3.81-2.2-.37-.63,1.91-1.1.36.64Zm3.8-2.19-.36-.64,1.9-1.09.37.63Zm3.81-2.2-.37-.63,1.9-1.1.37.63Zm3.8-2.2-.36-.63,1.9-1.1.36.64Zm3.81-2.19-.37-.64,1.9-1.09.37.63Zm3.8-2.2-.36-.63,1.9-1.1.36.63Zm3.81-2.2-.37-.63,1.9-1.1.37.64Zm3.8-2.19-.36-.64,1.9-1.09.36.63Zm3.81-2.2-.37-.63,1.9-1.1.37.63Zm3.8-2.2-.37-.63,1.91-1.1.36.64Zm3.8-2.19-.36-.64L165,92l.37.63Zm3.81-2.2-.37-.63,1.91-1.1.36.63Zm3.8-2.2-.36-.63,1.9-1.1.37.64Zm3.81-2.19-.37-.64,1.91-1.09.36.63Zm3.8-2.2-.36-.63,1.9-1.1.37.63Zm3.81-2.19-.37-.64L184,81l.37.64Zm3.8-2.2-.36-.63,1.9-1.1.36.63Zm3.81-2.2-.37-.63,1.9-1.1.37.63Zm3.8-2.19-.36-.64,1.9-1.1.36.64Z"/><rect class="f2fba6a8-355f-4e42-8cc5-9ea74272e3b1" x="197.4" y="72.99" width="1.1" height="0.73" transform="translate(-10.18 108.66) rotate(-29.96)"/><rect class="f2fba6a8-355f-4e42-8cc5-9ea74272e3b1" x="27.19" y="171.44" width="1.1" height="0.73" transform="translate(-43.49 13.02) rotate(-14.99)"/><path class="f2fba6a8-355f-4e42-8cc5-9ea74272e3b1" d="M30.51,171.43l-.19-.7,2.14-.58.19.71Zm4.28-1.14-.19-.71,2.15-.57.18.7Zm4.29-1.15-.19-.71,2.14-.57.18.71ZM43.36,168l-.19-.7,2.14-.58.19.71Zm4.28-1.14-.19-.71,2.14-.57.19.7Zm4.28-1.15-.19-.71,2.14-.57.19.71Zm4.28-1.15-.19-.7,2.14-.58.19.71Zm4.28-1.14-.19-.71,2.14-.57.19.7Zm4.28-1.15-.19-.71,2.14-.57.19.71ZM69,161.11l-.19-.71,2.14-.57.19.71ZM73.32,160l-.19-.7,2.14-.58.19.71Zm4.28-1.14-.19-.71,2.14-.57.19.7Zm4.28-1.15-.19-.71,2.14-.57.19.71Zm4.28-1.15-.19-.7,2.14-.58.19.71Zm4.28-1.14-.19-.71,2.14-.57.19.7Zm4.28-1.15-.19-.71,2.14-.57.19.71ZM99,153.08l-.19-.7,2.15-.58.18.71Zm4.28-1.14-.19-.71,2.15-.57.18.7Zm4.29-1.15-.19-.71,2.14-.57.19.71Zm4.28-1.15-.19-.71,2.14-.57.19.71Zm4.28-1.15-.19-.7,2.14-.58.19.71Zm4.28-1.14-.19-.71,2.14-.57.19.7Zm4.28-1.15-.19-.71,2.14-.57.19.71Zm4.28-1.15-.19-.7,2.14-.58.19.71Zm4.28-1.14-.19-.71,2.14-.57.19.7Zm4.28-1.15-.19-.71,2.14-.57.19.71Zm4.28-1.15-.19-.7,2.14-.58.19.71Zm4.28-1.14-.19-.71,2.14-.57.19.7Zm4.28-1.15-.19-.71,2.14-.57.19.71Zm4.28-1.15-.19-.71,2.14-.57.19.71Zm4.28-1.15-.19-.7,2.14-.58.19.71Zm4.28-1.14-.19-.71,2.14-.57.19.7Zm4.28-1.15-.19-.71,2.14-.57.19.71Zm4.28-1.15-.19-.7,2.15-.58.18.71Zm4.28-1.14-.18-.71,2.14-.57.19.7Zm4.29-1.15-.19-.71,2.14-.57.19.71Zm4.28-1.15-.19-.7,2.14-.58.19.71ZM188.9,129l-.19-.71,2.14-.57.19.7Zm4.28-1.15-.19-.71,2.14-.57.19.71Z"/><rect class="f2fba6a8-355f-4e42-8cc5-9ea74272e3b1" x="197.34" y="125.83" width="1.1" height="0.73" transform="translate(-25.92 55.52) rotate(-15)"/><rect class="f2fba6a8-355f-4e42-8cc5-9ea74272e3b1" x="27.22" y="171.57" width="1.1" height="0.73"/><path class="f2fba6a8-355f-4e42-8cc5-9ea74272e3b1" d="M168.65,172.3h-2.19v-.73h2.19Zm-4.39,0h-2.19v-.73h2.19Zm-4.38,0h-2.2v-.73h2.2Zm-4.39,0H153.3v-.73h2.19Zm-4.38,0h-2.2v-.73h2.2Zm-4.39,0h-2.19v-.73h2.19Zm-4.39,0h-2.19v-.73h2.19Zm-4.38,0h-2.19v-.73H138Zm-4.39,0h-2.19v-.73h2.19Zm-4.38,0H127v-.73h2.19Zm-4.39,0H122.6v-.73h2.19Zm-4.38,0h-2.19v-.73h2.19Zm-4.39,0h-2.19v-.73H116Zm-4.38,0h-2.19v-.73h2.19Zm-4.39,0h-2.19v-.73h2.19Zm-4.38,0h-2.2v-.73h2.2Zm-4.39,0H96.29v-.73h2.19Zm-4.38,0H91.9v-.73h2.2Zm-4.39,0H87.52v-.73h2.19Zm-4.38,0h-2.2v-.73h2.2Zm-4.39,0H78.75v-.73h2.19Zm-4.39,0H74.36v-.73h2.19Zm-4.38,0H70v-.73h2.19Zm-4.39,0H65.59v-.73h2.19Zm-4.38,0H61.21v-.73H63.4Zm-4.39,0H56.82v-.73H59Zm-4.38,0H52.44v-.73h2.19Zm-4.39,0H48.05v-.73h2.19Zm-4.38,0h-2.2v-.73h2.2Zm-4.39,0H39.28v-.73h2.19Zm-4.38,0h-2.2v-.73h2.2Zm-4.39,0H30.51v-.73H32.7Z"/><rect class="f2fba6a8-355f-4e42-8cc5-9ea74272e3b1" x="170.84" y="171.57" width="1.1" height="0.73"/><rect class="f2fba6a8-355f-4e42-8cc5-9ea74272e3b1" x="27.38" y="171.54" width="0.73" height="1.1" transform="translate(-145.66 154.32) rotate(-74.99)"/><path class="f2fba6a8-355f-4e42-8cc5-9ea74272e3b1" d="M122.76,197.92l-2.15-.58.19-.71,2.15.58Zm-4.3-1.15-2.15-.58.19-.71,2.15.58Zm-4.3-1.16L112,195l.19-.71,2.15.58Zm-4.3-1.15-2.15-.57.19-.71,2.15.57Zm-4.3-1.15-2.15-.58.19-.7,2.15.57Zm-4.29-1.15-2.15-.58.18-.7,2.16.57ZM97,191l-2.15-.58.19-.71,2.15.58Zm-4.3-1.16-2.15-.57.19-.71,2.15.58Zm-4.3-1.15-2.15-.57.19-.71,2.15.58Zm-4.3-1.15L81.92,187l.19-.7,2.15.57Zm-4.3-1.15-2.15-.58.19-.7,2.15.57Zm-4.3-1.15-2.15-.58.19-.71,2.15.58Zm-4.3-1.15-2.2-.57.19-.71,2.15.58Zm-4.3-1.16-2.15-.57.19-.71,2.15.58Zm-4.29-1.15-2.15-.57.19-.71,2.14.57Zm-4.3-1.15-2.15-.58.19-.7,2.15.57ZM54,179.49l-2.15-.58.19-.71,2.15.58Zm-4.3-1.15-2.15-.58.19-.71,2.15.58Zm-4.3-1.16-2.15-.57.19-.71,2.15.58ZM41.08,176l-2.15-.57.19-.71,2.15.58Zm-4.3-1.15-2.15-.58.19-.7,2.15.57Zm-4.3-1.15-2.15-.58.19-.7,2.15.57Z"/><rect class="f2fba6a8-355f-4e42-8cc5-9ea74272e3b1" x="125.17" y="197.73" width="0.73" height="1.1" transform="translate(-98.47 268.26) rotate(-75.01)"/><rect class="f2fba6a8-355f-4e42-8cc5-9ea74272e3b1" x="0.33" y="125.16" width="1.1" height="0.73" transform="translate(-120.6 93.88) rotate(-75)"/><path class="f2fba6a8-355f-4e42-8cc5-9ea74272e3b1" d="M2,123l-.71-.19.58-2.15.7.19Zm1.15-4.3-.71-.19.56-2.2.7.19Zm1.15-4.3-.71-.19L4.12,112l.71.19Zm1.15-4.3-.71-.19.58-2.15L6,108Zm1.15-4.3-.7-.19.57-2.15.71.19Zm1.16-4.3L7,101.27l.57-2.15.71.19Zm1.15-4.29L8.15,97l.58-2.15.7.19ZM10,92.86l-.71-.19.58-2.15.7.19Zm1.15-4.3-.71-.19L11,86.22l.71.19Zm1.15-4.3-.7-.19.57-2.15.71.19ZM13.46,80l-.7-.19.57-2.15.71.19Zm1.16-4.3-.71-.19.58-2.15.7.19Zm1.15-4.3-.71-.19L15.64,69l.7.19Zm1.15-4.3-.71-.19.58-2.15.71.19Zm1.15-4.3-.7-.18.57-2.15.71.19Zm1.15-4.29-.7-.19.57-2.15.71.19Zm1.16-4.3L19.67,54l.58-2.15L21,52Zm1.15-4.3-.71-.19.58-2.15.7.19Zm1.15-4.3L22,45.38l.58-2.15.71.19Zm1.15-4.3-.71-.19L23.7,39l.71.19ZM25,37l-.7-.19.57-2.15.71.19Zm1.15-4.3-.7-.19L26,30.33l.71.19Z"/><rect class="f2fba6a8-355f-4e42-8cc5-9ea74272e3b1" x="26.53" y="27.38" width="1.1" height="0.73" transform="translate(-6.73 46.72) rotate(-75)"/><rect class="f2fba6a8-355f-4e42-8cc5-9ea74272e3b1" x="0.46" y="125.22" width="1.1" height="0.73" transform="translate(-108.27 63.68) rotate(-60.01)"/><path class="f2fba6a8-355f-4e42-8cc5-9ea74272e3b1" d="M2.7,123.4l-.64-.4,1.1-1.9.63.37Zm2.19-3.8-.64-.37,1.1-1.9.63.37Zm2.19-3.8-.63-.36,1.09-1.9.64.36ZM9.27,112l-.63-.36,1.1-1.9.63.36Zm2.2-3.79-.64-.37,1.1-1.9.63.37Zm2.19-3.8L13,104l1.1-1.9.63.37Zm2.19-3.8-.63-.37,1.09-1.9.64.37ZM18,96.81l-.63-.36,1.1-1.9.63.36ZM20.2,93l-.64-.36,1.1-1.9.63.37Zm2.19-3.79-.64-.37,1.1-1.9.64.37Zm2.19-3.8L24,85.05l1.09-1.9.64.37Zm2.19-3.8-.63-.37,1.1-1.89.63.36Zm2.2-3.8-.64-.36,1.1-1.9.63.36ZM31.2,74l-.63-.36,1.09-1.9.64.37Zm2.19-3.79-.63-.37L33.85,68l.64.37Zm2.19-3.8L35,66.06l1.1-1.9.63.37Zm2.2-3.8-.64-.36,1.1-1.9.63.36ZM40,58.83l-.63-.36,1.09-1.9.64.37ZM42.16,55l-.63-.37,1.1-1.9.63.37Zm2.2-3.8-.64-.37,1.1-1.9.63.37Zm2.19-3.8L45.91,47,47,45.18l.64.36Zm2.19-3.8-.63-.36,1.09-1.9.64.36Zm2.19-3.8-.63-.36,1.1-1.9L52,38ZM53.13,36l-.64-.37,1.1-1.9.63.37Zm2.19-3.8-.64-.37,1.1-1.9.64.37Zm2.19-3.8L56.88,28,58,26.19l.64.36Zm2.2-3.8-.64-.36,1.1-1.9.63.36Zm2.19-3.79-.64-.37,1.1-1.9L63,19ZM64.09,17l-.63-.37,1.09-1.9.64.37Zm2.19-3.8-.63-.37L66.74,11l.64.37Zm2.2-3.8-.64-.36,1.1-1.9.63.36Zm2.19-3.8L70,5.3l1.1-1.9.63.37Z"/><rect class="f2fba6a8-355f-4e42-8cc5-9ea74272e3b1" x="72.26" y="0.84" width="1.1" height="0.73" transform="translate(35.38 63.67) rotate(-60.02)"/><rect class="f2fba6a8-355f-4e42-8cc5-9ea74272e3b1" x="0.57" y="125.3" width="1.1" height="0.73" transform="translate(-88.55 37.62) rotate(-45.01)"/><path class="f2fba6a8-355f-4e42-8cc5-9ea74272e3b1" d="M3.33,124l-.51-.52,1.56-1.57.52.52Zm3.14-3.13L6,120.33l1.57-1.57.52.52Zm3.13-3.14-.52-.52,1.57-1.56.52.52Zm3.14-3.13-.52-.52,1.57-1.57.51.52Zm3.13-3.14-.52-.51,1.57-1.57.52.52ZM19,108.31l-.51-.52,1.56-1.56.52.51Zm3.14-3.13-.52-.52,1.57-1.57.51.52ZM25.27,102l-.52-.51L26.32,100l.52.52Zm3.13-3.13-.51-.52,1.56-1.56.52.51Zm3.14-3.13L31,95.26l1.57-1.57.51.52Zm3.13-3.14-.52-.51,1.57-1.57.52.52Zm3.13-3.13L37.29,89l1.56-1.57.52.52Zm3.14-3.13-.52-.52L42,84.29l.52.52Zm3.13-3.14-.52-.52,1.57-1.56.52.51Zm3.14-3.13-.52-.52L48.25,78l.52.52ZM50.34,77l-.52-.51,1.57-1.57.52.52Zm3.13-3.13L53,73.32l1.56-1.56.52.51Zm3.14-3.13-.52-.52,1.57-1.57.51.52Zm3.13-3.14-.52-.51,1.57-1.57.52.52Zm3.13-3.13L62.36,64l1.56-1.56.52.51ZM66,61.31l-.52-.52,1.57-1.57.51.52Zm3.13-3.14-.52-.51,1.57-1.57.52.52ZM72.27,55l-.51-.52L73.32,53l.52.52Zm3.14-3.13-.52-.52,1.57-1.57.52.52Zm3.13-3.14L78,48.25l1.57-1.56.52.52Zm3.14-3.13-.52-.52,1.56-1.57.52.52Zm3.13-3.14L84.29,42l1.57-1.57.52.52Zm3.13-3.13-.51-.52L89,37.29l.52.51Zm3.14-3.13-.52-.52,1.57-1.57.51.52Zm3.13-3.14-.52-.51L95.26,31l.52.52ZM97.34,30l-.51-.52,1.56-1.56.52.51Zm3.14-3.13-.52-.52,1.57-1.57.51.52Zm3.13-3.14-.52-.51,1.57-1.57.52.52Zm3.14-3.13-.52-.52,1.56-1.57.52.52Zm3.13-3.13-.52-.52,1.57-1.57.52.52ZM113,14.3l-.52-.52,1.57-1.56.52.51Zm3.14-3.13-.52-.52,1.57-1.57.51.52ZM119.28,8l-.52-.51L120.33,6l.52.52Zm3.13-3.13-.51-.52,1.56-1.56.52.51Z"/><rect class="f2fba6a8-355f-4e42-8cc5-9ea74272e3b1" x="125.13" y="0.74" width="1.1" height="0.73" transform="translate(36.03 89.19) rotate(-45)"/><rect class="f2fba6a8-355f-4e42-8cc5-9ea74272e3b1" x="0.65" y="125.43" width="1.1" height="0.73" transform="translate(-62.64 17.4) rotate(-29.95)"/><path class="f2fba6a8-355f-4e42-8cc5-9ea74272e3b1" d="M3.77,124.73l-.37-.63L5.31,123l.36.64Zm3.8-2.19-.36-.64,1.9-1.1.37.64Zm3.81-2.2-.37-.63,1.9-1.1.37.63Zm3.8-2.2-.36-.63,1.9-1.1.36.64ZM19,116l-.37-.64,1.9-1.1.37.64Zm3.8-2.2-.36-.63,1.9-1.1.36.63Zm3.81-2.2-.37-.63,1.9-1.1.37.64Zm3.8-2.19-.36-.64,1.9-1.09.36.63Zm3.81-2.2-.37-.63,1.9-1.1.37.63ZM38,105l-.37-.63,1.91-1.1.36.64Zm3.8-2.19-.36-.64,1.9-1.09.37.63Zm3.81-2.2-.37-.63,1.91-1.1.36.63Zm3.8-2.2-.36-.63,1.9-1.1.37.64Zm3.81-2.19-.37-.64,1.91-1.09.36.63ZM57,94l-.36-.63,1.9-1.1.36.63Zm3.81-2.2-.37-.63,1.9-1.1.37.64Zm3.8-2.19L64.28,89l1.9-1.09.36.63Zm3.81-2.2-.37-.63,1.9-1.1.37.63Zm3.8-2.2-.36-.63,1.9-1.1.36.64ZM76.06,83l-.37-.64,1.9-1.09.37.63Zm3.8-2.2-.36-.63,1.9-1.1.36.63Zm3.8-2.19L83.3,78l1.9-1.1.37.64Zm3.81-2.2-.37-.64L89,74.68l.36.63Zm3.8-2.2-.36-.63,1.9-1.1.37.63ZM95.08,72l-.37-.64,1.91-1.1.36.64Zm3.8-2.2-.36-.63,1.9-1.1.37.63Zm3.81-2.2-.37-.63,1.9-1.1.37.63Zm3.8-2.19-.36-.64,1.9-1.1.36.64Zm3.81-2.2-.37-.63,1.9-1.1.37.63Zm3.8-2.2-.36-.63,1.9-1.1.36.63Zm3.81-2.19-.37-.64,1.9-1.1.37.64Zm3.8-2.2-.36-.63,1.9-1.1.36.63Zm3.81-2.2-.37-.63,1.9-1.1.37.63Zm3.8-2.19-.37-.64,1.91-1.1.36.64Zm3.8-2.2-.36-.63,1.9-1.1.34.7Zm3.81-2.2-.37-.63,1.91-1.1.36.63Zm3.8-2.19-.36-.64,1.9-1.1.37.64Zm3.81-2.2-.37-.63,1.91-1.1.36.63Zm3.8-2.2-.36-.63,1.9-1.1.37.63Zm3.81-2.19-.37-.64,1.9-1.1.37.64Zm3.8-2.2-.36-.63,1.9-1.1.36.63Zm3.81-2.2-.37-.63,1.9-1.1.37.64Zm3.8-2.19-.36-.64,1.9-1.1.36.64Zm3.81-2.2-.37-.63,1.9-1.1.37.63Z"/><rect class="f2fba6a8-355f-4e42-8cc5-9ea74272e3b1" x="170.91" y="27.14" width="1.1" height="0.73" transform="translate(9.17 89.27) rotate(-29.95)"/><rect class="f2fba6a8-355f-4e42-8cc5-9ea74272e3b1" x="0.71" y="125.56" width="1.1" height="0.73" transform="translate(-32.55 4.62) rotate(-15)"/><path class="f2fba6a8-355f-4e42-8cc5-9ea74272e3b1" d="M4,125.57l-.19-.71,2.1-.56.19.71Zm4.21-1.13-.19-.7,2.1-.57.19.71Zm4.2-1.12-.19-.71,2.11-.56.19.7Zm4.21-1.13-.19-.71,2.1-.56.19.71Zm4.2-1.13-.18-.7,2.1-.57.19.71ZM25,119.94l-.19-.71,2.1-.57.19.71Zm4.21-1.13L29,118.1l2.1-.56.19.7Zm4.2-1.13-.19-.71,2.11-.56.19.71Zm4.21-1.13-.19-.7,2.1-.57.19.71Zm4.2-1.12-.19-.71,2.11-.56.19.7ZM46,114.3l-.19-.71L48,113l.19.71Zm4.2-1.13-.18-.7,2.1-.57.19.71Zm4.21-1.12-.19-.71,2.1-.56.19.7Zm4.21-1.13-.19-.71,2.1-.56.19.71Zm4.2-1.13-.19-.7,2.11-.57.19.71Zm4.21-1.12-.19-.71,2.1-.56.19.7Zm4.2-1.13-.19-.71,2.11-.56.19.71Zm4.21-1.13-.19-.71,2.1-.56.19.71Zm4.21-1.13-.19-.7,2.1-.57.19.71Zm4.2-1.12-.19-.71,2.11-.56.18.7ZM88.11,103l-.19-.71,2.1-.56.19.71Zm4.2-1.13-.19-.7,2.11-.57.19.71Zm4.21-1.12-.19-.71,2.1-.56.19.7Zm4.2-1.13-.18-.71,2.1-.56.19.71Zm4.21-1.13-.19-.7,2.1-.57L107,98Zm4.21-1.12-.19-.71,2.1-.56.19.7Zm4.2-1.13-.19-.71,2.11-.56.19.71Zm4.21-1.13-.19-.7,2.1-.57.19.71Zm4.2-1.12-.19-.71,2.11-.57.19.71Zm4.25-1.1-.19-.71,2.1-.56.19.7Zm4.21-1.13-.19-.71,2.1-.56.19.71Zm4.2-1.13-.19-.7,2.11-.57.18.71Zm4.21-1.12-.19-.71,2.1-.56.19.7Zm4.2-1.13-.19-.71,2.11-.56.19.71ZM147,87.25l-.19-.7,2.1-.57.19.71Zm4.2-1.12-.19-.71,2.11-.56.19.7ZM155.4,85l-.19-.71,2.1-.56.19.71Zm4.21-1.13-.19-.7,2.1-.57.19.71Zm4.2-1.12-.19-.71,2.11-.56.18.7ZM168,81.62l-.19-.71,2.1-.56.19.71Zm4.2-1.13-.19-.7,2.11-.57.19.71Zm4.21-1.12-.19-.71,2.1-.57.19.71Zm4.2-1.13-.18-.71,2.1-.56.19.7Zm4.21-1.13-.19-.71,2.1-.56.19.71ZM189.05,76l-.19-.7,2.1-.57.19.71Zm4.2-1.12-.19-.71,2.11-.56.19.7Z"/><rect class="f2fba6a8-355f-4e42-8cc5-9ea74272e3b1" x="197.34" y="72.89" width="1.1" height="0.73" transform="translate(-12.21 53.68) rotate(-14.99)"/><rect class="f2fba6a8-355f-4e42-8cc5-9ea74272e3b1" x="0.73" y="125.7" width="1.1" height="0.73"/><path class="f2fba6a8-355f-4e42-8cc5-9ea74272e3b1" d="M195.13,126.43h-2.2v-.73h2.2Zm-4.39,0h-2.2v-.73h2.2Zm-4.4,0h-2.19v-.73h2.19Zm-4.39,0h-2.2v-.73H182Zm-4.39,0h-2.2v-.73h2.2Zm-4.4,0H171v-.73h2.19Zm-4.39,0h-2.2v-.73h2.2Zm-4.39,0h-2.2v-.73h2.2Zm-4.4,0h-2.19v-.73H160Zm-4.39,0h-2.2v-.73h2.2Zm-4.39,0H149v-.73h2.2Zm-4.4,0h-2.19v-.73h2.19Zm-4.39,0h-2.2v-.73h2.2Zm-4.39,0h-2.2v-.73H138Zm-4.39,0h-2.2v-.73h2.2Zm-4.4,0H127v-.73h2.19Zm-4.39,0h-2.2v-.73h2.2Zm-4.39,0h-2.2v-.73h2.2Zm-4.4,0h-2.19v-.73h2.19Zm-4.39,0h-2.2v-.73h2.2Zm-4.39,0h-2.2v-.73h2.2Zm-4.4,0h-2.19v-.73h2.19Zm-4.39,0h-2.2v-.73h2.2Zm-4.39,0h-2.2v-.73h2.2Zm-4.4,0H87.5v-.73h2.19Zm-4.39,0H83.1v-.73h2.2Zm-4.39,0h-2.2v-.73h2.2Zm-4.4,0H74.32v-.73h2.19Zm-4.39,0h-2.2v-.73h2.2Zm-4.39,0h-2.2v-.73h2.2Zm-4.4,0H61.14v-.73h2.19Zm-4.39,0H56.75v-.73h2.19Zm-4.39,0h-2.2v-.73h2.2Zm-4.39,0H48v-.73h2.2Zm-4.4,0H43.57v-.73h2.19Zm-4.39,0h-2.2v-.73h2.2Zm-4.39,0h-2.2v-.73H37Zm-4.4,0H30.39v-.73h2.19Zm-4.39,0H26v-.73h2.2Zm-4.39,0H21.6v-.73h2.2Zm-4.4,0H17.21v-.73H19.4Zm-4.39,0h-2.2v-.73H15Zm-4.39,0H8.42v-.73h2.2Zm-4.4,0H4v-.73H6.22Z"/><rect class="f2fba6a8-355f-4e42-8cc5-9ea74272e3b1" x="197.33" y="125.7" width="1.1" height="0.73"/><rect class="f2fba6a8-355f-4e42-8cc5-9ea74272e3b1" x="0.9" y="125.66" width="0.73" height="1.1" transform="translate(-120.97 94.77) rotate(-75)"/><path class="f2fba6a8-355f-4e42-8cc5-9ea74272e3b1" d="M168.64,171.43l-2.14-.57.19-.71,2.14.58Zm-4.28-1.14-2.14-.58.19-.7,2.14.57Zm-4.28-1.15-2.14-.57.19-.71,2.14.57ZM155.8,168l-2.14-.57.19-.71,2.14.58Zm-4.28-1.14-2.14-.58.19-.7,2.14.57Zm-4.28-1.15-2.14-.57.19-.71,2.14.57ZM143,164.55l-2.14-.57.19-.71,2.14.58Zm-4.28-1.14-2.14-.58.19-.7,2.14.57Zm-4.28-1.15-2.14-.57.19-.71,2.14.57Zm-4.28-1.15-2.14-.57.19-.71,2.14.57ZM125.84,160l-2.14-.57.19-.71,2.14.58Zm-4.28-1.14-2.14-.58.19-.7,2.14.57Zm-4.28-1.15-2.15-.57.19-.71,2.14.57ZM113,156.52l-2.14-.57.19-.71,2.14.58Zm-4.28-1.14-2.14-.58.19-.7,2.14.57Zm-4.28-1.15-2.14-.57.19-.71,2.14.57Zm-4.28-1.15L98,152.51l.19-.71,2.14.58Zm-4.28-1.14-2.14-.58.19-.71,2.14.58Zm-4.28-1.15-2.14-.58.19-.7,2.14.57Zm-4.28-1.15-2.14-.57.19-.71,2.14.57ZM83,148.49l-2.14-.57.19-.71,2.14.58Zm-4.28-1.14-2.14-.58.19-.7,2.14.57Zm-4.28-1.15-2.14-.57.19-.71,2.14.57Zm-4.28-1.15L68,144.48l.19-.71,2.14.58Zm-4.28-1.14-2.14-.58.19-.7,2.14.57Zm-4.28-1.15-2.14-.57.19-.71,2.14.57Zm-4.28-1.15L55.21,141l.19-.71,2.14.58ZM53,140.47l-2.14-.58.19-.7,2.14.57Zm-4.28-1.15-2.14-.57.18-.71,2.14.57Zm-4.29-1.15-2.14-.57.19-.71,2.14.57ZM40.22,137l-2.14-.57.19-.71,2.14.58Zm-4.28-1.14-2.14-.58.19-.7,2.14.57Zm-4.28-1.15-2.14-.57.19-.71,2.14.57Zm-4.28-1.15L25.24,133l.19-.71,2.14.58Zm-4.28-1.14-2.1-.56.19-.7,2.14.57Zm-4.28-1.15-2.14-.57.19-.71,2.14.57Zm-4.28-1.15-2.14-.57.19-.71,2.14.58ZM10.26,129l-2.14-.58.19-.71,2.14.58ZM6,127.85l-2.14-.58.19-.7,2.14.57Z"/><rect class="f2fba6a8-355f-4e42-8cc5-9ea74272e3b1" x="171.04" y="171.25" width="0.73" height="1.1" transform="translate(-38.9 292.9) rotate(-75)"/><rect class="f2fba6a8-355f-4e42-8cc5-9ea74272e3b1" x="0.84" y="125.8" width="0.73" height="1.1" transform="translate(-108.83 64.24) rotate(-60.01)"/><path class="f2fba6a8-355f-4e42-8cc5-9ea74272e3b1" d="M123,197.1l-1.9-1.1.37-.63,1.9,1.09Zm-3.8-2.2-1.9-1.09.37-.64,1.9,1.1Zm-3.79-2.19-1.9-1.1.36-.63,1.9,1.1Zm-3.8-2.19-1.9-1.1.36-.63,1.9,1.09Zm-3.8-2.19-1.9-1.1.37-.63,1.9,1.09Zm-3.8-2.2-1.9-1.09.37-.64,1.9,1.1Zm-3.79-2.19-1.9-1.1.36-.63,1.9,1.1Zm-3.8-2.19-1.9-1.1.36-.63,1.9,1.09Zm-3.8-2.2-1.9-1.09.37-.64,1.89,1.1Zm-3.8-2.19L87,176.27l.37-.64,1.9,1.1ZM85,175.17l-1.9-1.1.37-.63,1.9,1.1ZM81.26,173l-1.9-1.1.36-.63,1.9,1.09Zm-3.8-2.2-1.9-1.09.36-.64,1.9,1.1Zm-3.8-2.19-1.9-1.1.37-.63L74,168Zm-3.8-2.19L68,165.3l.37-.63,1.9,1.09Zm-3.8-2.19-1.89-1.1.36-.63,1.9,1.09ZM62.27,162l-1.9-1.09.36-.64,1.9,1.1Zm-3.8-2.19-1.9-1.1.37-.63,1.89,1.1Zm-3.8-2.19-1.9-1.1.37-.63L55,157Zm-3.8-2.19-1.9-1.1.37-.64,1.9,1.1Zm-3.79-2.2-1.9-1.09.36-.64,1.9,1.1ZM43.28,151l-1.9-1.1.36-.63,1.9,1.1Zm-3.8-2.19-1.9-1.1.37-.63,1.89,1.09Zm-3.8-2.2-1.9-1.09.37-.64,1.9,1.1Zm-3.8-2.19L30,143.38l.37-.64,1.9,1.1Zm-3.79-2.19-1.9-1.1.36-.63,1.9,1.1Zm-3.8-2.19-1.9-1.1.36-.63,1.9,1.09Zm-3.8-2.2-1.9-1.09.37-.64,1.9,1.1Zm-3.8-2.19-1.9-1.1.37-.63,1.9,1.1Zm-3.8-2.19L11,132.41l.36-.63,1.9,1.09ZM9.1,131.32l-1.9-1.1.36-.63,1.9,1.09Zm-3.8-2.2L3.4,128l.37-.64,1.89,1.1Z"/><rect class="f2fba6a8-355f-4e42-8cc5-9ea74272e3b1" x="125.22" y="197.62" width="0.73" height="1.1" transform="translate(-108.83 207.89) rotate(-60.01)"/><rect class="f2fba6a8-355f-4e42-8cc5-9ea74272e3b1" x="0.57" y="72.34" width="1.1" height="0.73" transform="translate(-51.08 22.09) rotate(-45)"/><path class="f2fba6a8-355f-4e42-8cc5-9ea74272e3b1" d="M3.34,71l-.52-.52L4.4,68.91l.51.52Zm3.15-3.15L6,67.34l1.57-1.58.52.52Zm3.15-3.14-.52-.52,1.57-1.57.52.51Zm3.14-3.15L12.26,61l1.58-1.57.52.52Zm3.15-3.15-.52-.51L17,56.32l.51.52Zm3.15-3.14-.52-.52,1.57-1.57.52.51Zm3.14-3.15-.51-.52L23.28,50l.52.52ZM25.37,49l-.52-.51,1.58-1.58.51.52Zm3.15-3.14L28,45.31l1.57-1.58.52.52Zm3.14-3.15-.51-.52,1.57-1.57.52.52Zm3.15-3.15L34.29,39l1.58-1.57.51.52ZM38,36.38l-.52-.51L39,34.29l.52.52Zm3.15-3.14-.52-.52,1.57-1.57.52.51Zm3.14-3.15-.52-.52L45.31,28l.52.52Zm3.15-3.15-.52-.51,1.58-1.58.51.52Zm3.15-3.14L50,23.28l1.57-1.57.52.51Zm3.14-3.15-.51-.52,1.57-1.57.52.52Zm3.15-3.15-.56-.5,1.58-1.57.51.52ZM60,14.36l-.52-.52L61,12.26l.52.52Zm3.14-3.15-.51-.52L64.2,9.12l.52.51Zm3.15-3.15-.52-.52L67.34,6l.51.52Zm3.15-3.15-.52-.51,1.57-1.58.52.52Z"/><rect class="f2fba6a8-355f-4e42-8cc5-9ea74272e3b1" x="72.15" y="0.75" width="1.1" height="0.73" transform="translate(20.51 51.73) rotate(-45)"/><rect class="f2fba6a8-355f-4e42-8cc5-9ea74272e3b1" x="0.66" y="72.45" width="1.1" height="0.73" transform="translate(-36.19 10.33) rotate(-29.95)"/><path class="f2fba6a8-355f-4e42-8cc5-9ea74272e3b1" d="M3.77,71.76l-.37-.63L5.3,70l.36.64Zm3.79-2.19-.36-.63,1.9-1.1.36.63Zm3.8-2.19L11,66.74l1.89-1.09.37.63Zm3.8-2.19-.37-.64,1.9-1.09.37.63ZM19,63l-.37-.63,1.9-1.1.37.64Zm3.79-2.19-.36-.63,1.9-1.1.36.63Zm3.8-2.19-.4-.62,1.9-1.09.36.63Zm3.8-2.19L30,55.78l1.9-1.1.37.64Zm3.8-2.2-.37-.63,1.9-1.1.37.64ZM38,52l-.37-.63,1.9-1.1.36.63Zm3.79-2.19-.36-.64,1.9-1.09.36.63Zm3.8-2.2L45.18,47l1.9-1.1.36.64Zm3.8-2.19-.39-.6,1.9-1.1.37.64Zm3.8-2.19-.37-.63,1.9-1.1.37.63ZM57,41l-.37-.64,1.9-1.09.36.63Zm3.79-2.2-.36-.63,1.9-1.1.36.64Zm3.8-2.19L64.22,36l1.84-1,.37.63Zm3.8-2.19L68,33.85l1.9-1.09.37.63Zm3.8-2.19-.37-.64,1.9-1.09.37.63ZM76,30.07l-.36-.63,1.9-1.1.36.64Zm3.8-2.19-.36-.63,1.9-1.1.36.63Zm3.8-2.19-.37-.64L85.05,24l.37.63Zm3.8-2.2-.37-.6,1.9-1.1.37.64Zm3.8-2.19-.37-.63,1.9-1.1.36.64ZM95,19.11l-.36-.63,1.9-1.1.36.63ZM98.71,17l-.36-.64,1.9-1.09.36.63Zm3.8-2.2-.37-.63L104,13l.37.64Zm3.8-2.19-.37-.63,1.9-1.1.37.63Zm3.79-2.19-.36-.64,1.9-1.09.36.63Zm3.8-2.19-.36-.64,1.9-1.09.36.63ZM117.7,6l-.37-.63,1.9-1.1.37.64Zm3.8-2.19-.37-.63,1.9-1.1.37.63Z"/><polygon class="f2fba6a8-355f-4e42-8cc5-9ea74272e3b1" points="125.3 1.6 124.93 0.96 125.88 0.41 126.25 1.05 125.3 1.6"/><rect class="f2fba6a8-355f-4e42-8cc5-9ea74272e3b1" x="0.71" y="72.58" width="1.1" height="0.73" transform="translate(-18.84 2.81) rotate(-15)"/><path class="f2fba6a8-355f-4e42-8cc5-9ea74272e3b1" d="M4,72.59l-.19-.71L6,71.31l.19.7Zm4.28-1.15-.19-.71,2.14-.57.19.71Zm4.28-1.15-.19-.7L14.54,69l.19.71Zm4.28-1.14-.19-.71,2.14-.57.19.7ZM21.15,68,21,67.29l2.14-.57.19.71Zm4.28-1.15-.19-.7,2.14-.58.19.71Zm4.28-1.14L29.52,65l2.14-.57.19.7ZM34,64.56l-.19-.71L36,63.28l.19.71Zm4.28-1.15-.19-.7,2.14-.58.19.71Zm4.28-1.14-.19-.71L44.5,61l.19.71Zm4.28-1.15-.18-.71,2.14-.57.18.7ZM51.12,60l-.19-.71,2.14-.57.19.71Zm4.28-1.15-.19-.7,2.14-.58.19.71Zm4.28-1.14L59.49,57l2.14-.57.19.7ZM64,56.53l-.19-.71L66,55.25l.19.71Zm4.28-1.15-.19-.7,2.14-.58.19.71Zm4.28-1.14-.19-.71,2.1-.53.19.7Zm4.28-1.15-.19-.71,2.14-.57.19.71Zm4.28-1.15-.19-.7L83,50.66l.19.71ZM85.4,50.8l-.19-.71,2.14-.57.19.7Zm4.28-1.15-.19-.71,2.14-.57.19.71ZM94,48.5l-.19-.71,2.14-.57.19.71Zm4.28-1.15-.19-.7,2.14-.58.19.71Zm4.28-1.14-.19-.71,2.14-.57.19.7Zm4.28-1.15-.19-.71,2.14-.57.19.71Zm4.2-1.15-.19-.7,2.15-.58.18.71Zm4.28-1.14-.19-.71,2.15-.57.18.7Zm4.29-1.15-.19-.71,2.14-.57.19.71Zm4.28-1.15-.19-.7,2.14-.58.19.71Zm4.28-1.14-.19-.71,2.14-.57.19.7Zm4.28-1.15-.19-.71,2.14-.57.19.71ZM136.73,37l-.19-.71,2.14-.57.19.71ZM141,35.88l-.19-.7L143,34.6l.19.71Zm4.28-1.14L145.1,34l2.14-.57.19.7Zm4.28-1.15-.19-.71,2.14-.57.19.71Zm4.28-1.15-.19-.7,2.14-.58.19.71Zm4.28-1.14-.19-.71,2.14-.57.19.7Zm4.28-1.15-.19-.71,2.14-.57.19.71ZM166.69,29l-.19-.7,2.14-.58.19.71Z"/><rect class="f2fba6a8-355f-4e42-8cc5-9ea74272e3b1" x="170.86" y="27" width="1.1" height="0.73" transform="translate(-1.24 45.3) rotate(-15)"/><rect class="f2fba6a8-355f-4e42-8cc5-9ea74272e3b1" x="0.73" y="72.73" width="1.1" height="0.73"/><path class="f2fba6a8-355f-4e42-8cc5-9ea74272e3b1" d="M195.13,73.46h-2.2v-.73h2.2Zm-4.39,0h-2.2v-.73h2.2Zm-4.4,0h-2.19v-.73h2.19Zm-4.39,0h-2.2v-.73H182Zm-4.39,0h-2.2v-.73h2.2Zm-4.4,0H171v-.73h2.19Zm-4.39,0h-2.2v-.73h2.2Zm-4.39,0h-2.2v-.73h2.2Zm-4.4,0h-2.19v-.73H160Zm-4.39,0h-2.2v-.73h2.2Zm-4.39,0H149v-.73h2.2Zm-4.4,0h-2.19v-.73h2.19Zm-4.39,0h-2.2v-.73h2.2Zm-4.39,0h-2.2v-.73H138Zm-4.39,0h-2.2v-.73h2.2Zm-4.4,0H127v-.73h2.19Zm-4.39,0h-2.2v-.73h2.2Zm-4.39,0h-2.2v-.73h2.2Zm-4.4,0h-2.19v-.73h2.19Zm-4.39,0h-2.2v-.73h2.2Zm-4.39,0h-2.2v-.73h2.2Zm-4.4,0h-2.19v-.73h2.19Zm-4.39,0h-2.2v-.73h2.2Zm-4.39,0h-2.2v-.73h2.2Zm-4.4,0H87.5v-.73h2.19Zm-4.39,0H83.1v-.73h2.2Zm-4.39,0h-2.2v-.73h2.2Zm-4.4,0H74.32v-.73h2.19Zm-4.39,0h-2.2v-.73h2.2Zm-4.39,0h-2.2v-.73h2.2Zm-4.4,0H61.14v-.73h2.19Zm-4.39,0H56.75v-.73h2.19Zm-4.39,0h-2.2v-.73h2.2Zm-4.39,0H48v-.73h2.2Zm-4.4,0H43.57v-.73h2.19Zm-4.39,0h-2.2v-.73h2.2Zm-4.39,0h-2.2v-.73H37Zm-4.4,0H30.39v-.73h2.19Zm-4.39,0H26v-.73h2.2Zm-4.39,0H21.6v-.73h2.2Zm-4.4,0H17.21v-.73H19.4Zm-4.39,0h-2.2v-.73H15Zm-4.39,0H8.42v-.73h2.2Zm-4.4,0H4v-.73H6.22Z"/><rect class="f2fba6a8-355f-4e42-8cc5-9ea74272e3b1" x="197.33" y="72.73" width="1.1" height="0.73"/><rect class="f2fba6a8-355f-4e42-8cc5-9ea74272e3b1" x="0.91" y="72.68" width="0.73" height="1.1" transform="translate(-69.8 55.51) rotate(-75)"/><path class="f2fba6a8-355f-4e42-8cc5-9ea74272e3b1" d="M195.17,125.57l-2.11-.56.19-.71,2.11.56ZM191,124.44l-2.1-.56.19-.71,2.1.57Zm-4.21-1.12-2.1-.57.19-.7,2.1.56Zm-4.2-1.13-2.1-.56.18-.71,2.11.56Zm-4.21-1.13-2.1-.56.19-.71,2.1.57Zm-4.2-1.12-2.11-.57.19-.71,2.11.57ZM170,118.81l-2.1-.57.19-.7,2.1.56Zm-4.2-1.13-2.11-.56.19-.71,2.1.56Zm-4.21-1.13-2.1-.56.19-.71,2.1.57Zm-4.21-1.12-2.1-.57.19-.7,2.1.56Zm-4.2-1.13-2.11-.56.19-.71,2.11.56Zm-4.21-1.13-2.1-.56.19-.71,2.1.57Zm-4.2-1.12-2.11-.57.19-.7,2.11.56Zm-4.21-1.13-2.1-.56.19-.71,2.1.56Zm-4.21-1.13-2.1-.56.19-.71,2.1.57Zm-4.2-1.12-2.1-.57.18-.7,2.11.56Zm-4.21-1.13-2.1-.56.19-.71,2.1.56Zm-4.2-1.13-2.11-.56.19-.71,2.11.56Zm-4.21-1.13-2.1-.56.19-.71,2.1.57Zm-4.2-1.12-2.11-.57.19-.7,2.11.56ZM111.05,103l-2.1-.56.19-.71,2.1.56Zm-4.21-1.13-2.1-.56.19-.71,2.1.57Zm-4.2-1.12-2.1-.57.18-.7,2.11.56Zm-4.21-1.13-2.1-.56.19-.71,2.1.56Zm-4.2-1.13L92.12,98l.19-.71,2.11.57ZM90,97.4l-2.1-.57.19-.7,2.1.56Zm-4.2-1.13-2.11-.56L83.9,95l2.1.56Zm-4.21-1.13-2.1-.56.19-.71,2.1.57ZM77.4,94l-2.1-.57.19-.71,2.1.57Zm-4.2-1.13-2.11-.57.19-.7,2.11.56ZM69,91.76l-2.1-.56.19-.71,2.1.56Zm-4.2-1.13-2.11-.56.19-.71,2.11.57Zm-4.21-1.12-2.1-.57.19-.7,2.1.56Zm-4.21-1.13-2.1-.56.19-.71,2.1.56Zm-4.2-1.13-2.1-.56.18-.71,2.11.57ZM48,86.13l-2.1-.57.19-.7,2.1.56ZM43.76,85l-2.11-.56.19-.71,2.11.56Zm-4.21-1.13-2.1-.56.19-.71,2.1.57Zm-4.2-1.12-2.11-.57.19-.7,2.11.56Zm-4.21-1.13L29,81.06l.19-.71,2.1.56Zm-4.21-1.13-2.1-.56.19-.71,2.1.56Zm-4.2-1.13-2.1-.56.18-.71,2.11.57Zm-4.21-1.12-2.1-.57.19-.7,2.1.56Zm-4.2-1.13-2.11-.56.19-.71,2.11.56ZM10.11,76,8,75.42l.19-.71,2.1.57ZM5.9,74.86l-2.1-.57.19-.7,2.1.56Z"/><rect class="f2fba6a8-355f-4e42-8cc5-9ea74272e3b1" x="197.54" y="125.38" width="0.73" height="1.1" transform="translate(25.07 284.52) rotate(-75.01)"/><rect class="f2fba6a8-355f-4e42-8cc5-9ea74272e3b1" x="0.84" y="72.82" width="0.73" height="1.1" transform="translate(-62.93 37.72) rotate(-59.99)"/><path class="f2fba6a8-355f-4e42-8cc5-9ea74272e3b1" d="M168.9,170.61l-1.9-1.1.37-.63,1.9,1.09Zm-3.8-2.2-1.9-1.1.36-.63,1.9,1.1Zm-3.81-2.2-1.9-1.09.37-.64,1.9,1.1Zm-3.8-2.19-1.9-1.1.36-.63,1.9,1.09Zm-3.81-2.2-1.9-1.1.37-.63,1.9,1.1Zm-3.8-2.19-1.9-1.1.36-.64,1.91,1.1Zm-3.8-2.2-1.91-1.1.37-.63,1.9,1.09Zm-3.81-2.2-1.9-1.1.36-.63,1.91,1.1Zm-3.8-2.19-1.91-1.1.37-.64,1.9,1.1Zm-3.81-2.2-1.9-1.1.36-.63,1.91,1.1Zm-3.8-2.2-1.91-1.1.37-.63,1.9,1.1Zm-3.81-2.19-1.9-1.1.37-.64,1.9,1.1Zm-3.8-2.2-1.9-1.1.36-.63,1.9,1.1Zm-3.81-2.2-1.9-1.1.37-.63,1.9,1.1Zm-3.8-2.19-1.9-1.1.36-.64,1.9,1.1Zm-3.81-2.2-1.9-1.1.37-.63,1.9,1.1Zm-3.8-2.2-1.9-1.1.36-.63,1.9,1.1Zm-3.81-2.19-1.9-1.1.37-.64,1.9,1.1Zm-3.8-2.2-1.9-1.1.36-.63,1.91,1.1Zm-3.8-2.2-1.91-1.1.37-.63,1.9,1.1Zm-3.81-2.19-1.9-1.1.36-.64,1.91,1.1Zm-3.8-2.2-1.91-1.1.37-.63,1.9,1.1Zm-3.81-2.2-1.9-1.09.36-.64,1.91,1.1Zm-3.8-2.19L79.5,119l.36-.64,1.9,1.1Zm-3.81-2.2-1.9-1.1.37-.63,1.9,1.1Zm-3.8-2.2-1.9-1.09.36-.64,1.9,1.1ZM70,113.5l-1.9-1.1.37-.64,1.9,1.1Zm-3.8-2.2-1.9-1.1.36-.63,1.9,1.1Zm-3.81-2.2L60.47,108l.37-.64,1.9,1.1Zm-3.8-2.19-1.9-1.1.36-.63,1.9,1.09Zm-3.8-2.2-1.91-1.1.37-.63,1.9,1.1ZM51,102.51l-1.9-1.09.36-.64,1.91,1.1Zm-3.8-2.19-1.91-1.1.37-.63,1.9,1.09Zm-3.81-2.2L41.45,97l.36-.63,1.91,1.1Zm-3.8-2.2-1.91-1.09.37-.64,1.9,1.1Zm-3.81-2.19-1.9-1.1.37-.63,1.9,1.09ZM32,91.53l-2-1.1.36-.63,1.9,1.1Zm-3.81-2.2-1.9-1.09.37-.64,1.9,1.1Zm-3.8-2.19L22.43,86l.36-.63,1.9,1.09Zm-3.81-2.2-1.9-1.1.37-.63,1.9,1.1Zm-3.8-2.2-1.9-1.09.36-.64,1.9,1.1ZM13,80.55,11,79.45l.37-.63,1.9,1.09Zm-3.8-2.2-1.9-1.1.36-.63,1.91,1.1Zm-3.8-2.2L3.4,75.06l.37-.64,1.9,1.1Z"/><polygon class="f2fba6a8-355f-4e42-8cc5-9ea74272e3b1" points="171.76 172.25 170.81 171.71 171.17 171.07 172.12 171.62 171.76 172.25"/><rect class="f2fba6a8-355f-4e42-8cc5-9ea74272e3b1" x="0.75" y="72.93" width="0.73" height="1.1" transform="translate(-51.62 22.3) rotate(-44.99)"/><path class="f2fba6a8-355f-4e42-8cc5-9ea74272e3b1" d="M123.46,196.34l-1.56-1.57.51-.51,1.57,1.56Zm-3.13-3.13-1.57-1.57.52-.52,1.57,1.57Zm-3.13-3.14-1.57-1.56.52-.52,1.56,1.57Zm-3.14-3.13-1.57-1.57.52-.52,1.57,1.57Zm-3.13-3.13-1.57-1.57.52-.52,1.57,1.57Zm-3.14-3.14-1.56-1.56.52-.52,1.56,1.56Zm-3.13-3.13L103.09,176l.52-.52,1.57,1.57Zm-3.13-3.14L100,172.84l.52-.52,1.56,1.57Zm-3.14-3.13-1.56-1.57.51-.51,1.57,1.56Zm-3.13-3.13-1.57-1.57.52-.52,1.57,1.57ZM92.13,165l-1.57-1.56.52-.52,1.56,1.57ZM89,161.87l-1.56-1.57.51-.51,1.57,1.56Zm-3.13-3.13-1.57-1.57.52-.52,1.57,1.57Zm-3.14-3.14L81.16,154l.52-.52L83.24,155Zm-3.13-3.13L78,150.9l.52-.52L80.11,152Zm-3.13-3.13-1.57-1.57.52-.52L77,148.82Zm-3.14-3.14-1.56-1.57.51-.51,1.57,1.56Zm-3.13-3.13-1.57-1.57.52-.52,1.57,1.57Zm-3.13-3.14-1.57-1.56.52-.52,1.56,1.57Zm-3.14-3.13-1.56-1.57.51-.51,1.57,1.56Zm-3.13-3.13-1.57-1.57.52-.52,1.57,1.57Zm-3.13-3.14L56.09,129l.52-.52L58.17,130Zm-3.14-3.13L53,125.83l.51-.51L55,126.88Zm-3.13-3.13-1.57-1.57.52-.52,1.57,1.57Zm-3.14-3.14-1.56-1.56.52-.52,1.56,1.57ZM45.12,118l-1.57-1.57.52-.52,1.57,1.57ZM42,114.87l-1.57-1.57.52-.52,1.56,1.57Zm-3.14-3.14-1.56-1.56.51-.52,1.57,1.56Zm-3.13-3.13L34.15,107l.52-.52,1.57,1.57Zm-3.13-3.14L31,103.9l.52-.52L33.1,105Zm-3.14-3.13-1.56-1.57.51-.51L30,101.81ZM26.32,99.2l-1.57-1.57.52-.52,1.57,1.57Zm-3.13-3.14L21.62,94.5l.52-.52,1.56,1.57Zm-3.14-3.13-1.56-1.57.51-.51,1.57,1.56ZM16.92,89.8l-1.57-1.57.52-.52,1.57,1.57Zm-3.13-3.14L12.22,85.1l.52-.52,1.56,1.57Zm-3.14-3.13L9.08,82l.52-.52L11.17,83ZM7.52,80.4,6,78.83l.52-.52L8,79.88ZM4.38,77.26,2.82,75.69l.51-.51L4.9,76.74Z"/><rect class="f2fba6a8-355f-4e42-8cc5-9ea74272e3b1" x="125.32" y="197.49" width="0.73" height="1.1" transform="translate(-103.22 146.87) rotate(-45)"/><rect class="f2fba6a8-355f-4e42-8cc5-9ea74272e3b1" x="27.2" y="26.71" width="1.1" height="0.73" transform="translate(-6.06 8.1) rotate(-14.99)"/><path class="f2fba6a8-355f-4e42-8cc5-9ea74272e3b1" d="M30.52,26.71,30.33,26l2.15-.57.19.71Zm4.3-1.15-.19-.71,2.15-.57L37,25Zm4.3-1.15-.19-.71,2.15-.58.19.71Zm4.3-1.15-.19-.71L45.38,22l.19.71Zm4.3-1.16-.19-.7,2.15-.58.19.71ZM52,21l-.19-.7L54,19.67l.19.71Zm4.3-1.15-.19-.71,2.15-.57.19.7Zm4.3-1.15L60.41,18l2.15-.57.18.7Zm4.29-1.15-.19-.71,2.15-.58L67,17Zm4.3-1.16-.19-.7,2.15-.58.19.71Zm4.3-1.15-.19-.7L75.45,14l.19.71ZM77.81,14l-.19-.71,2.15-.57.19.7Zm4.3-1.15-.19-.71,2.15-.57.19.7Zm4.3-1.15-.19-.7,2.15-.58.19.71Zm4.3-1.16-.19-.7,2.15-.58.19.71ZM95,9.43l-.19-.7L97,8.15l.19.71Zm4.3-1.15-.18-.71L101.26,7l.19.71Zm4.3-1.15-.19-.71,2.15-.57.19.7ZM107.9,6l-.19-.71,2.15-.58.19.71Zm4.3-1.15-.2-.73,2.15-.58.19.71Zm4.3-1.16-.19-.7,2.15-.58.19.71Zm4.3-1.15-.19-.71,2.15-.57L123,2Z"/><rect class="f2fba6a8-355f-4e42-8cc5-9ea74272e3b1" x="124.98" y="0.52" width="1.1" height="0.73" transform="translate(4.05 32.52) rotate(-15)"/><rect class="f2fba6a8-355f-4e42-8cc5-9ea74272e3b1" x="27.22" y="26.85" width="1.1" height="0.73"/><path class="f2fba6a8-355f-4e42-8cc5-9ea74272e3b1" d="M168.65,27.58h-2.19v-.73h2.19Zm-4.39,0h-2.19v-.73h2.19Zm-4.38,0h-2.2v-.73h2.2Zm-4.39,0H153.3v-.73h2.19Zm-4.38,0h-2.2v-.73h2.2Zm-4.39,0h-2.19v-.73h2.19Zm-4.39,0h-2.19v-.73h2.19Zm-4.38,0h-2.19v-.73H138Zm-4.39,0h-2.19v-.73h2.19Zm-4.38,0H127v-.73h2.19Zm-4.39,0H122.6v-.73h2.19Zm-4.38,0h-2.19v-.73h2.19Zm-4.39,0h-2.19v-.73H116Zm-4.38,0h-2.19v-.73h2.19Zm-4.39,0h-2.19v-.73h2.19Zm-4.38,0h-2.2v-.73h2.2Zm-4.39,0H96.29v-.73h2.19Zm-4.38,0H91.9v-.73h2.2Zm-4.39,0H87.52v-.73h2.19Zm-4.38,0h-2.2v-.73h2.2Zm-4.39,0H78.75v-.73h2.19Zm-4.39,0H74.36v-.73h2.19Zm-4.38,0H70v-.73h2.19Zm-4.39,0H65.59v-.73h2.19Zm-4.38,0H61.21v-.73H63.4Zm-4.39,0H56.82v-.73H59Zm-4.38,0H52.44v-.73h2.19Zm-4.39,0H48.05v-.73h2.19Zm-4.38,0h-2.2v-.73h2.2Zm-4.39,0H39.28v-.73h2.19Zm-4.38,0h-2.2v-.73h2.2Zm-4.39,0H30.51v-.73H32.7Z"/><rect class="f2fba6a8-355f-4e42-8cc5-9ea74272e3b1" x="170.84" y="26.85" width="1.1" height="0.73"/><rect class="f2fba6a8-355f-4e42-8cc5-9ea74272e3b1" x="27.38" y="26.81" width="0.73" height="1.1" transform="translate(-5.86 47.09) rotate(-75.02)"/><path class="f2fba6a8-355f-4e42-8cc5-9ea74272e3b1" d="M195.13,72.59,193,72l.19-.7,2.14.57Zm-4.28-1.15-2.14-.57.19-.71,2.14.57Zm-4.28-1.15-2.14-.57.19-.71,2.14.58Zm-4.28-1.14-2.14-.58.19-.7,2.14.57ZM178,68l-2.14-.57.18-.71,2.15.57Zm-4.29-1.15-2.14-.57.19-.71,2.14.58Zm-4.28-1.14-2.14-.58.19-.7,2.14.57Zm-4.28-1.15L163,64l.19-.71,2.14.57Zm-4.28-1.15-2.14-.57.19-.71,2.14.58Zm-4.28-1.14-2.14-.58.19-.71,2.14.58Zm-4.28-1.15-2.14-.58.19-.7,2.14.57ZM148,60l-2.14-.57.19-.71,2.14.57Zm-4.28-1.15-2.14-.57.19-.71,2.14.58Zm-4.28-1.14-2.14-.58.19-.7,2.14.57Zm-4.28-1.15-2.1-.56.19-.71,2.14.57Zm-4.28-1.15-2.14-.57.19-.71,2.14.58Zm-4.28-1.14-2.14-.58.19-.7,2.14.57Zm-4.28-1.15-2.14-.57.19-.71,2.14.57ZM118,52l-2.14-.57.19-.71,2.14.58ZM113.8,50.8l-2.14-.58.19-.71,2.14.58Zm-4.28-1.15-2.14-.58.18-.7,2.15.57Zm-4.28-1.15-2.15-.57.19-.71,2.14.57ZM101,47.35l-2.14-.57.19-.71,2.14.58Zm-4.28-1.14-2.14-.58.19-.7,2.14.57Zm-4.28-1.15-2.14-.57.19-.71,2.14.57Zm-4.28-1.15L86,43.34l.19-.71,2.14.58Zm-4.28-1.14-2.14-.58.19-.7,2.14.57ZM79.6,41.62l-2.14-.57.19-.71,2.14.57Zm-4.28-1.15-2.14-.57.19-.71,2.14.58ZM71,39.33l-2.14-.58L69,38l2.14.58Zm-4.28-1.15-2.14-.57.19-.71,2.14.57ZM62.43,37l-2.14-.57.19-.71,2.14.57Zm-4.28-1.15L56,35.31l.19-.71,2.14.58Zm-4.28-1.14-2.14-.58.19-.7,2.14.57Zm-4.28-1.15L47.45,33l.19-.71,2.14.57Zm-4.28-1.15-2.14-.57.19-.71,2.14.58ZM41,31.3l-2.14-.58.19-.7,2.13.57Zm-4.28-1.15-2.15-.57.19-.71,2.14.57ZM32.46,29l-2.14-.57.19-.71,2.14.58Z"/><rect class="f2fba6a8-355f-4e42-8cc5-9ea74272e3b1" x="197.54" y="72.4" width="0.73" height="1.1" transform="translate(76.25 245.25) rotate(-75.01)"/><rect class="f2fba6a8-355f-4e42-8cc5-9ea74272e3b1" x="27.33" y="26.94" width="0.73" height="1.1" transform="translate(-9.96 37.74) rotate(-60.01)"/><path class="f2fba6a8-355f-4e42-8cc5-9ea74272e3b1" d="M195.39,124.73l-1.9-1.1.36-.63,1.9,1.1Zm-3.81-2.19-1.9-1.1.37-.64,1.9,1.1Zm-3.8-2.2-1.9-1.1.36-.63,1.9,1.1Zm-3.81-2.2-1.9-1.09.37-.64,1.9,1.1Zm-3.8-2.19-1.9-1.1.36-.64,1.91,1.1Zm-3.8-2.2-1.91-1.1.37-.63,1.9,1.1Zm-3.81-2.2-1.9-1.09.36-.64,1.91,1.1Zm-3.8-2.19-1.91-1.1.37-.63,1.9,1.09Zm-3.81-2.2-1.9-1.1.36-.63,1.91,1.1Zm-3.8-2.2-1.91-1.09.37-.64,1.9,1.1Zm-3.81-2.19-1.9-1.1.37-.63,1.9,1.09Zm-3.8-2.2-1.9-1.1.36-.63,1.9,1.1Zm-3.81-2.2-1.9-1.09.37-.64,1.9,1.1Zm-3.8-2.19-1.9-1.1.36-.63,1.9,1.09ZM142.12,94l-1.9-1.1.37-.63,1.9,1.1Zm-3.8-2.2-1.9-1.09.36-.64,1.9,1.1Zm-3.81-2.19-1.9-1.1.37-.63,1.9,1.09Zm-3.8-2.2-1.9-1.1.36-.63,1.91,1.1Zm-3.8-2.19L125,84.1l.37-.64,1.9,1.1ZM123.1,83l-1.9-1.1.36-.63,1.91,1.09Zm-3.8-2.2-1.91-1.1.37-.63,1.9,1.1Zm-3.81-2.19-1.9-1.1.37-.64,1.9,1.1Zm-3.8-2.2-1.9-1.1.36-.63,1.9,1.09Zm-3.81-2.2-1.9-1.1.37-.63,1.9,1.1ZM104.08,72l-1.9-1.1.36-.64,1.9,1.1Zm-3.81-2.2-1.9-1.1.37-.63,1.9,1.1Zm-3.8-2.2-1.9-1.1.36-.63,1.9,1.1Zm-3.81-2.19-1.9-1.1.37-.64,1.9,1.1Zm-3.8-2.2L87,62.13l.36-.63,1.9,1.1ZM85.06,61l-1.91-1.1.37-.63,1.9,1.1Zm-3.81-2.19-1.9-1.1.36-.64,1.91,1.1Zm-3.8-2.2-1.91-1.1.37-.63,1.9,1.1Zm-3.81-2.2-1.9-1.1.36-.63L74,53.81Zm-3.8-2.19-1.91-1.1.37-.64,1.9,1.1ZM66,50.05l-1.87-1,.37-.63,1.9,1.1Zm-3.8-2.2-1.9-1.09.36-.64,1.9,1.1Zm-3.81-2.19-1.9-1.1.37-.64,1.9,1.1Zm-3.8-2.2-1.9-1.1.36-.63,1.9,1.1Zm-3.81-2.2-1.9-1.09.37-.64,1.9,1.1ZM47,39.07,45.11,38l.36-.64,1.91,1.1Zm-3.8-2.2-1.91-1.1.37-.63,1.9,1.1Zm-3.81-2.2-1.9-1.09.36-.64L39.77,34Zm-3.8-2.19-1.91-1.1.37-.63,2,1.09Zm-3.81-2.2-1.9-1.1.36-.63,1.91,1.1Z"/><rect class="f2fba6a8-355f-4e42-8cc5-9ea74272e3b1" x="197.58" y="125.24" width="0.73" height="1.1" transform="translate(-9.93 234.39) rotate(-60.02)"/><rect class="f2fba6a8-355f-4e42-8cc5-9ea74272e3b1" x="27.25" y="27.06" width="0.73" height="1.1" transform="translate(-11.44 27.63) rotate(-45.03)"/><path class="f2fba6a8-355f-4e42-8cc5-9ea74272e3b1" d="M169.36,169.88l-1.54-1.54.52-.52,1.54,1.54Zm-3.07-3.08-1.54-1.54.51-.51,1.54,1.53Zm-3.08-3.08-1.54-1.54.51-.51,1.54,1.54Zm-3.08-3.08-1.54-1.53.52-.52,1.53,1.54Zm-3.08-3.07L155.51,156l.52-.52,1.54,1.54ZM154,154.49,152.43,153l.52-.52,1.54,1.54Zm-3.08-3.08-1.54-1.54.52-.52,1.54,1.54Zm-3.08-3.08-1.54-1.54.52-.52,1.54,1.54Zm-3.08-3.08-1.54-1.54.52-.52,1.54,1.54Zm-3.08-3.08-1.54-1.54.52-.52,1.54,1.54Zm-3.07-3.08L137,137.55l.51-.51,1.54,1.53ZM135.5,136l-1.5-1.53.51-.51L136,135.5Zm-3.08-3.08-1.54-1.53.52-.52,1.53,1.54Zm-3.08-3.07-1.54-1.54.52-.52,1.54,1.54Zm-3.08-3.08-1.54-1.54.52-.52,1.54,1.54Zm-3.08-3.08-1.54-1.54.52-.52,1.54,1.54Zm-3.08-3.08-1.54-1.54.52-.52,1.54,1.54Zm-3.1-3.07L115.48,116l.52-.52,1.54,1.54Zm-3.08-3.08-1.53-1.54.51-.52,1.54,1.54Zm-3.07-3.08-1.54-1.54.51-.51,1.54,1.53Zm-3.08-3.08-1.54-1.54.51-.51,1.54,1.54Zm-3.08-3.08-1.54-1.53.52-.52,1.54,1.54Zm-3.08-3.07-1.54-1.54.52-.52,1.54,1.54Zm-3.08-3.08L97,97.53l.52-.52,1.54,1.54ZM95.47,96l-1.54-1.54.52-.52L96,95.47Zm-3.08-3.08-1.54-1.54.52-.52,1.54,1.54Zm-3.08-3.08L87.77,88.3l.52-.52,1.54,1.54Zm-3.08-3.08L84.7,85.21l.51-.52,1.54,1.54Zm-3.07-3.08-1.54-1.54.51-.51,1.54,1.54ZM80.08,80.6l-1.54-1.54.51-.51,1.54,1.54ZM77,77.52,75.46,76l.52-.52L77.52,77Zm-3.08-3.08L72.38,72.9l.52-.52,1.54,1.54Zm-3.08-3.08L69.3,69.82l.52-.52,1.54,1.54Zm-3.08-3.08-1.54-1.54.52-.52,1.54,1.54ZM64.68,65.2l-1.54-1.54.52-.52,1.54,1.54ZM61.6,62.12l-1.54-1.54.52-.52,1.54,1.54ZM58.52,59,57,57.5l.5-.5L59,58.52Zm-3.07-3-1.54-1.54.51-.51L56,55.45Zm-3.08-3.08-1.54-1.54.51-.51,1.54,1.54Zm-3.08-3.07-1.54-1.54.52-.52,1.54,1.54Zm-3.08-3.08-1.54-1.54.52-.52,1.54,1.54Zm-3.08-3.08-1.54-1.54.52-.52,1.54,1.54Zm-3.08-3.08L38.51,39l.52-.52L40.57,40Zm-3-3.12L35.43,36l.52-.52L37.49,37Zm-3.08-3.08-1.54-1.54.52-.52,1.54,1.54Zm-3.08-3.08-1.53-1.54.51-.52,1.54,1.54Z"/><rect class="f2fba6a8-355f-4e42-8cc5-9ea74272e3b1" x="171.18" y="170.99" width="0.73" height="1.1" transform="translate(-71.05 171.5) rotate(-44.99)"/><rect class="f2fba6a8-355f-4e42-8cc5-9ea74272e3b1" x="27.13" y="27.14" width="0.73" height="1.1" transform="translate(-10.17 17.48) rotate(-30.03)"/><path class="f2fba6a8-355f-4e42-8cc5-9ea74272e3b1" d="M124.1,195.75l-1.1-1.9.64-.36,1.09,1.9Zm-2.2-3.8-1.1-1.9.64-.37,1.1,1.9Zm-2.19-3.8-1.1-1.91.63-.36,1.1,1.9Zm-2.2-3.81-1.1-1.9.64-.37,1.09,1.9Zm-2.2-3.8-1.1-1.91.64-.36,1.1,1.9Zm-2.19-3.81-1.1-1.9.63-.37,1.1,1.91Zm-2.2-3.8-1.1-1.91.64-.36,1.09,1.9Zm-2.2-3.81-1.09-1.9.63-.37,1.1,1.91Zm-2.19-3.8-1.1-1.9.63-.37,1.1,1.9Zm-2.2-3.81-1.1-1.9.64-.37,1.09,1.91Zm-2.2-3.8-1.09-1.9.63-.37,1.1,1.9Zm-2.19-3.81-1.1-1.9.63-.36,1.1,1.9Zm-2.2-3.8-1.1-1.9.64-.37,1.1,1.9Zm-2.2-3.81-1.09-1.9.63-.36,1.1,1.9Zm-2.19-3.8-1.1-1.9.63-.37,1.1,1.9Zm-2.2-3.8-1.1-1.91.64-.36,1.1,1.9ZM89,134.88,87.86,133l.63-.37,1.1,1.9Zm-2.19-3.8-1.1-1.91.63-.36,1.1,1.9Zm-2.2-3.81-1.1-1.9.64-.37,1.1,1.91Zm-2.2-3.8-1.09-1.91.63-.36,1.1,1.9Zm-2.19-3.81-1.1-1.9.63-.37,1.1,1.91Zm-2.2-3.8-1.1-1.9.64-.37,1.1,1.9Zm-2.2-3.81-1.09-1.9.63-.37,1.1,1.91Zm-2.19-3.8-1.1-1.9.63-.37,1.1,1.9Zm-2.2-3.81-1.1-1.9.64-.36,1.1,1.9Zm-2.2-3.8-1.09-1.9.63-.37,1.1,1.9ZM67,96.83l-1.1-1.9.63-.36,1.1,1.9ZM64.79,93l-1.1-1.9.64-.37,1.1,1.9Zm-2.2-3.8L61.5,87.32l.63-.36,1.1,1.9ZM60.4,85.42l-1.1-1.9.63-.37L61,85.06Zm-2.2-3.8-1.1-1.91.64-.36,1.1,1.9ZM56,77.81l-1.09-1.9.63-.37,1.1,1.91ZM53.81,74l-1.1-1.9.63-.37,1.1,1.9Zm-2.2-3.81-1.1-1.9.64-.37,1.1,1.91Zm-2.2-3.8-1.09-1.9.63-.37,1.1,1.9Zm-2.19-3.81-1.1-1.9.63-.36,1.1,1.9ZM45,58.79l-1.1-1.9.64-.37,1.1,1.9ZM42.83,55l-1.1-1.9.63-.36,1.1,1.9Zm-2.2-3.8-1.1-1.9.64-.37,1.09,1.9Zm-2.2-3.8-1.1-1.91.64-.36,1.1,1.9Zm-2.19-3.81-1.1-1.9.63-.37,1.1,1.9ZM34,39.77l-1.1-1.91.64-.36,1.09,1.9ZM31.84,36l-1.1-1.9.64-.37,1.1,1.91Zm-2.19-3.8-1.1-1.91.63-.36,1.1,1.9Z"/><rect class="f2fba6a8-355f-4e42-8cc5-9ea74272e3b1" x="125.86" y="198.29" width="0.73" height="1.1" transform="translate(-82.29 89.34) rotate(-29.89)"/><rect class="f2fba6a8-355f-4e42-8cc5-9ea74272e3b1" x="73.27" y="0.32" width="0.73" height="1.1" transform="translate(53.7 71.76) rotate(-74.97)"/><path class="f2fba6a8-355f-4e42-8cc5-9ea74272e3b1" d="M168.63,26.71l-2.15-.57.19-.71,2.15.57Zm-4.3-1.15L162.18,25l.19-.7,2.15.57ZM160,24.41l-2.15-.58.19-.71,2.14.58Zm-4.3-1.15-2.15-.58.19-.71,2.15.58Zm-4.3-1.16-2.15-.57.19-.71,2.15.58ZM147.14,21,145,20.38l.19-.71,2.15.57Zm-4.3-1.15-2.15-.58.19-.7,2.15.57Zm-4.3-1.15-2.15-.58.19-.7,2.15.57Zm-4.3-1.15L132.09,17l.19-.71,2.15.58Zm-4.3-1.16-2.15-.57.19-.71,2.15.58Zm-4.3-1.15-2.14-.57.18-.71,2.15.58ZM121.35,14l-2.15-.58.19-.7,2.15.57Zm-4.3-1.15-2.15-.58.19-.7,2.15.57Zm-4.3-1.15-2.15-.58.19-.71,2.15.58Zm-4.3-1.16L106.3,10l.19-.71,2.15.58Zm-4.3-1.15L102,8.86l.19-.71,2.15.58Zm-4.3-1.15L97.7,7.71,97.89,7l2.15.57Zm-4.3-1.15L93.4,6.55l.19-.7,2.15.57ZM91.25,6,89.1,5.4l.19-.71,2.15.58ZM87,4.83l-2.15-.58L85,3.54l2.14.58ZM82.7,3.67,80.51,3.1l.19-.71L82.85,3ZM78.4,2.52,76.21,2l.19-.71,2.15.57Z"/><rect class="f2fba6a8-355f-4e42-8cc5-9ea74272e3b1" x="171.06" y="26.53" width="0.73" height="1.1" transform="translate(100.81 185.62) rotate(-74.97)"/><rect class="f2fba6a8-355f-4e42-8cc5-9ea74272e3b1" x="73.21" y="0.47" width="0.73" height="1.1" transform="translate(35.87 64.2) rotate(-59.97)"/><path class="f2fba6a8-355f-4e42-8cc5-9ea74272e3b1" d="M195.39,71.76l-1.9-1.09.37-.64,1.9,1.1Zm-3.8-2.19-1.9-1.1.37-.63,1.9,1.1Zm-3.79-2.19-1.9-1.1.36-.63,1.9,1.09ZM184,65.19l-1.9-1.1.36-.63,1.9,1.09ZM180.2,63l-1.9-1.09.37-.64,1.9,1.1Zm-3.8-2.19-1.9-1.1.37-.63,1.9,1.1Zm-3.8-2.19-1.89-1.1.36-.63L173,58Zm-3.79-2.19-1.9-1.1.36-.63,1.9,1.09Zm-3.8-2.2-1.9-1.09.36-.64,1.9,1.1ZM161.21,52l-1.9-1.1.37-.63,1.9,1.1Zm-3.8-2.19-1.9-1.1.37-.63,1.9,1.09Zm-3.79-2.2-1.9-1.09.36-.64L154,47Zm-3.8-2.19-1.9-1.09.36-.64,1.9,1.1ZM146,43.26l-1.9-1.1.37-.63,1.89,1.1Zm-3.8-2.19L140.3,40l.37-.63,1.9,1.09Zm-3.8-2.2-1.89-1.09.36-.64,1.9,1.1Zm-3.79-2.19-1.9-1.1.36-.63,1.9,1.1Zm-3.8-2.19-1.9-1.1.36-.63,1.9,1.09ZM127,32.3l-1.9-1.1.37-.63,1.9,1.09Zm-3.8-2.2L121.33,29l.37-.64,1.9,1.1Zm-3.8-2.19-1.89-1.1.36-.63,1.9,1.1Zm-3.79-2.19-1.9-1.1.36-.63,1.9,1.09Zm-3.8-2.2-1.9-1.09.37-.64,1.9,1.1ZM108,21.33l-1.9-1.09.37-.64,1.9,1.1Zm-3.8-2.19L102.3,18l.37-.63,1.9,1.1ZM100.45,17l-1.9-1.1.36-.63,1.9,1.09Zm-3.8-2.2-1.9-1.09.36-.64,1.9,1.1Zm-3.8-2.19L91,11.46l.37-.63,1.9,1.1Zm-3.8-2.19-1.9-1.1.37-.63,1.9,1.09Zm-3.8-2.19-1.9-1.1.37-.63,1.9,1.09ZM81.46,6l-1.9-1.09.36-.64,1.9,1.1Zm-3.8-2.19-1.9-1.1.37-.63L78,3.16Z"/><rect class="f2fba6a8-355f-4e42-8cc5-9ea74272e3b1" x="197.59" y="72.28" width="0.73" height="1.1" transform="translate(35.93 207.87) rotate(-60.01)"/><rect class="f2fba6a8-355f-4e42-8cc5-9ea74272e3b1" x="73.11" y="0.58" width="0.73" height="1.1" transform="translate(20.71 52.27) rotate(-44.98)"/><path class="f2fba6a8-355f-4e42-8cc5-9ea74272e3b1" d="M195.82,124l-1.56-1.57.51-.51,1.57,1.56Zm-3.13-3.13-1.57-1.57.52-.52,1.57,1.57Zm-3.13-3.14L188,116.15l.52-.52,1.56,1.56Zm-3.14-3.13-1.57-1.6.52-.52,1.57,1.57Zm-3.13-3.13-1.57-1.57.52-.52,1.57,1.57Zm-3.14-3.14-1.56-1.57.52-.51,1.56,1.56ZM177,105.18l-1.57-1.57.52-.52,1.57,1.57ZM173.89,102l-1.57-1.56.52-.52,1.56,1.57Zm-3.14-3.13-1.56-1.57.51-.51,1.57,1.56Zm-3.13-3.13-1.57-1.57.52-.52,1.57,1.57Zm-3.13-3.14L162.92,91l.52-.52L165,92.13Zm-3.14-3.13-1.56-1.57.51-.51L161.87,89Zm-3.13-3.13-1.57-1.57.52-.52,1.57,1.57Zm-3.14-3.14-1.56-1.56.52-.52,1.56,1.56ZM152,80.11l-1.57-1.57L151,78l1.57,1.57ZM148.82,77l-1.57-1.57.52-.52,1.57,1.57Zm-3.14-3.14-1.56-1.57.51-.51,1.57,1.56Zm-3.13-3.13L141,69.14l.52-.52,1.57,1.57Zm-3.13-3.14L137.85,66l.52-.52,1.56,1.57Zm-3.14-3.13-1.56-1.57.51-.51,1.57,1.56Zm-3.13-3.13-1.57-1.57.52-.52,1.57,1.57ZM130,58.17l-1.57-1.56.52-.52,1.56,1.57ZM126.88,55l-1.56-1.57.51-.51,1.57,1.56Zm-3.13-3.13-1.57-1.57.52-.52,1.57,1.57Zm-3.13-3.14-1.57-1.56.52-.52,1.56,1.56Zm-3.14-3.13L115.91,44l.52-.52L118,45.12Zm-3.13-3.14-1.57-1.56.52-.52L114.87,42Zm-3.14-3.13-1.56-1.57.51-.51,1.57,1.56Zm-3.13-3.13-1.57-1.57.52-.52,1.57,1.57ZM105,33.1l-1.57-1.56L104,31l1.56,1.57ZM101.81,30l-1.56-1.57.51-.51,1.57,1.56Zm-3.13-3.13L97.11,25.3l.52-.52,1.57,1.57ZM95.55,23.7,94,22.14l.52-.52,1.56,1.57Zm-3.14-3.13L90.85,19l.51-.52,1.57,1.57Zm-3.13-3.13-1.57-1.57.52-.52,1.57,1.57ZM86.15,14.3l-1.57-1.56.52-.52,1.56,1.56ZM83,11.17,81.45,9.6,82,9.08l1.57,1.57ZM79.88,8,78.31,6.47,78.83,6,80.4,7.52ZM76.74,4.9,75.18,3.33l.52-.51,1.56,1.56Z"/><rect class="f2fba6a8-355f-4e42-8cc5-9ea74272e3b1" x="197.67" y="125.12" width="0.73" height="1.1" transform="translate(-30.82 177) rotate(-45.04)"/><rect class="f2fba6a8-355f-4e42-8cc5-9ea74272e3b1" x="73.01" y="0.67" width="0.73" height="1.1" transform="translate(9.21 36.83) rotate(-29.98)"/><path class="f2fba6a8-355f-4e42-8cc5-9ea74272e3b1" d="M170,169.27l-1.09-1.9.63-.37,1.1,1.9Zm-2.19-3.81-1.1-1.9.63-.37,1.1,1.91Zm-2.2-3.8-1.1-1.9.64-.37,1.1,1.9Zm-2.2-3.81-1.09-1.9.63-.36,1.1,1.9Zm-2.19-3.8-1.1-1.9.63-.37,1.1,1.9Zm-2.2-3.8-1.1-1.91.64-.36,1.1,1.9Zm-2.2-3.81-1.09-1.9.63-.37,1.1,1.9Zm-2.19-3.8-1.1-1.91.63-.36,1.1,1.9Zm-2.2-3.81-1.1-1.9.64-.37,1.1,1.91Zm-2.19-3.8-1.1-1.91.63-.36,1.1,1.9Zm-2.2-3.81-1.1-1.9.63-.37,1.1,1.91Zm-2.2-3.8-1.1-1.9.64-.37,1.1,1.9Zm-2.19-3.81-1.1-1.9.63-.37,1.1,1.91Zm-2.2-3.8-1.1-1.9.64-.37,1.09,1.9Zm-2.2-3.81-1.1-1.9.64-.36,1.1,1.9ZM137,112.2l-1.1-1.9.63-.37,1.1,1.9Zm-2.2-3.81-1.1-1.9.64-.36,1.09,1.9Zm-2.2-3.8-1.1-1.9.64-.37,1.1,1.9Zm-2.19-3.8-1.1-1.91.63-.36,1.1,1.9ZM128.24,97l-1.1-1.9.64-.37,1.09,1.9ZM126,93.2l-1.1-1.91.64-.36,1.1,1.9Zm-2.19-3.81-1.1-1.9.63-.37,1.1,1.91Zm-2.2-3.8-1.1-1.9.64-.37,1.09,1.9Zm-2.2-3.81-1.1-1.9.64-.37,1.1,1.91ZM117.26,78l-1.1-1.9.63-.37,1.1,1.9Zm-2.2-3.81-1.1-1.9.64-.37,1.09,1.91Zm-2.2-3.8-1.1-1.9.64-.37,1.1,1.9Zm-2.19-3.81-1.1-1.9.63-.36,1.1,1.9Zm-2.2-3.8-1.1-1.9.64-.37,1.09,1.9Zm-2.2-3.8-1.1-2,.64-.36,1.1,1.9Zm-2.19-3.81-1.1-1.9.63-.37,1.1,1.9Zm-2.2-3.8-1.1-1.91.64-.36,1.09,1.9Zm-2.2-3.81-1.1-1.9.64-.37,1.1,1.91Zm-2.19-3.8-1.1-1.91.63-.36,1.1,1.9ZM95.29,40l-1.1-2,.64-.37,1.09,1.91Zm-2.2-3.8L92,34.21l.63-.37,1.1,1.9ZM90.9,32.3l-1.1-1.9.63-.37,1.1,1.91Zm-2.2-3.8-1.1-1.9.64-.37,1.09,1.9Zm-2.2-3.81-1.09-1.9.63-.36,1.1,1.9Zm-2.19-3.8L83.21,19l.63-.37,1.1,1.9Zm-2.2-3.81L81,15.18l.64-.36,1.1,1.9Zm-2.2-3.8-1.09-1.9.63-.37,1.1,1.9Zm-2.19-3.8-1.1-1.91.63-.36,1.1,1.9Zm-2.2-3.81-1.1-1.9.64-.37,1.1,1.9Z"/><rect class="f2fba6a8-355f-4e42-8cc5-9ea74272e3b1" x="171.3" y="170.9" width="0.73" height="1.1" transform="translate(-62.72 108.8) rotate(-30)"/><rect class="f2fba6a8-355f-4e42-8cc5-9ea74272e3b1" x="72.87" y="0.72" width="0.73" height="1.1" transform="matrix(0.97, -0.26, 0.26, 0.97, 2.16, 18.97)"/><path class="f2fba6a8-355f-4e42-8cc5-9ea74272e3b1" d="M124.86,195.36l-.56-2.11.71-.19.56,2.11Zm-1.12-4.21-.57-2.1.71-.19.56,2.1Zm-1.13-4.21-.56-2.1.7-.19.57,2.1Zm-1.13-4.2-.56-2.1.71-.19.56,2.1Zm-1.12-4.21-.57-2.1.71-.19.56,2.1Zm-1.13-4.2-.57-2.11.71-.19.57,2.11Zm-1.13-4.21-.56-2.1.71-.19.56,2.1Zm-1.1-4.21-.56-2.1.71-.19.56,2.11Zm-1.12-4.2-.57-2.1.71-.19.56,2.1Zm-1.13-4.21-.56-2.1.7-.19.57,2.1Zm-1.13-4.2-.56-2.11.71-.19.56,2.11Zm-1.12-4.21-.57-2.1.71-.19.56,2.1Zm-1.13-4.2-.56-2.11.7-.19.57,2.11Zm-1.13-4.21-.56-2.1.71-.19.56,2.1Zm-1.12-4.21-.57-2.1.71-.19.56,2.1Zm-1.13-4.2-.56-2.1.7-.19.57,2.1Zm-1.13-4.21-.56-2.1.71-.19.56,2.1Zm-1.12-4.2-.57-2.11.71-.19.56,2.11Zm-1.13-4.21-.57-2.1.71-.19.57,2.1Zm-1.13-4.21-.56-2.1.7-.19.57,2.11Zm-1.13-4.2-.56-2.1.71-.19.56,2.1ZM101.2,107l-.57-2.1.71-.19.56,2.1Zm-1.13-4.2-.56-2.11.7-.18.57,2.1Zm-1.13-4.21-.56-2.1.71-.19.56,2.1Zm-1.12-4.2-.57-2.11.71-.19.56,2.11Zm-1.13-4.21-.56-2.1.7-.19L97.4,90ZM95.56,86,95,83.9l.71-.19.56,2.1Zm-1.12-4.2-.57-2.1.71-.19.56,2.1Zm-1.13-4.21-.56-2.1.7-.19L94,77.4Zm-1.13-4.2-.56-2.11.71-.19.56,2.11Zm-1.13-4.21-.56-2.1.71-.19.56,2.1ZM89.93,65l-.57-2.11.71-.19.56,2.11ZM88.8,60.77l-.56-2.1.7-.19.57,2.1Zm-1.13-4.21-.56-2.1.71-.19.56,2.1Zm-1.12-4.2L86,50.25l.71-.18.56,2.1Zm-1.13-4.21-.56-2.1.7-.19.57,2.1ZM84.29,44l-.56-2.11.71-.19L85,43.76Zm-1.12-4.21-.57-2.1.71-.19.56,2.1ZM82,35.53l-.56-2.1.7-.19.57,2.1Zm-1.13-4.2-.56-2.1L81,29l.56,2.1Zm-1.12-4.21L79.22,25l.71-.19.56,2.1Zm-1.13-4.2-.57-2.11.71-.19.57,2.11Zm-1.13-4.21L77,16.61l.7-.19.57,2.1Zm-1.13-4.2L75.8,12.4l.71-.19.56,2.11ZM75.28,10.3l-.57-2.1.71-.2L76,10.1ZM74.15,6.09,73.59,4l.7-.19.57,2.1Z"/><rect class="f2fba6a8-355f-4e42-8cc5-9ea74272e3b1" x="125.57" y="197.34" width="0.73" height="1.1" transform="translate(-46.93 39.34) rotate(-15)"/><rect class="f2fba6a8-355f-4e42-8cc5-9ea74272e3b1" x="126.09" y="0.57" width="0.73" height="1.1" transform="translate(36.22 89.71) rotate(-44.98)"/><path class="f2fba6a8-355f-4e42-8cc5-9ea74272e3b1" d="M195.82,71l-1.58-1.57.52-.52,1.57,1.57Zm-3.15-3.15-1.58-1.57.52-.52,1.58,1.58Zm-3.15-3.14L188,63.13l.52-.51L190,64.19Zm-3.14-3.15L184.8,60l.52-.52L186.89,61Zm-3.15-3.15-1.58-1.57.52-.52,1.58,1.58Zm-3.15-3.14-1.57-1.58.51-.51,1.58,1.57Zm-3.15-3.15-1.57-1.57.52-.52,1.57,1.57ZM173.79,49l-1.58-1.57.52-.52,1.57,1.57Zm-3.15-3.14-1.57-1.58.51-.52,1.58,1.58Zm-3.15-3.15-1.57-1.57.52-.52L168,42.16Zm-3.14-3.15L162.77,38l.52-.52L164.86,39Zm-3.15-3.15-1.57-1.57.51-.52,1.58,1.58Zm-3.15-3.14-1.57-1.58.52-.51,1.57,1.57Zm-3.15-3.15-1.57-1.57.52-.52,1.57,1.57ZM151.76,27l-1.58-1.57.52-.52,1.58,1.58Zm-3.15-3.14L147,22.22l.51-.51,1.58,1.57Zm-3.15-3.15-1.57-1.57.52-.52L146,20.13Zm-3.14-3.15L140.74,16l.52-.52L142.83,17Zm-3.15-3.14-1.57-1.58.51-.52,1.58,1.58ZM136,11.21l-1.57-1.57.52-.52,1.57,1.57Zm-3.14-3.15L131.3,6.49l.52-.52,1.57,1.57Zm-3.15-3.15-1.57-1.57.51-.52,1.58,1.58Z"/><rect class="f2fba6a8-355f-4e42-8cc5-9ea74272e3b1" x="197.66" y="72.14" width="0.73" height="1.1" transform="translate(6.66 161.45) rotate(-45.04)"/><rect class="f2fba6a8-355f-4e42-8cc5-9ea74272e3b1" x="125.97" y="0.67" width="0.73" height="1.1" transform="translate(16.29 63.29) rotate(-29.98)"/><path class="f2fba6a8-355f-4e42-8cc5-9ea74272e3b1" d="M196.46,123.4l-1.09-1.9.63-.37,1.1,1.9Zm-2.19-3.8-1.1-1.9.64-.37,1.09,1.9Zm-2.19-3.8-1.1-1.9.63-.36,1.1,1.9Zm-2.2-3.8-1.09-1.89.63-.37,1.1,1.9Zm-2.19-3.79-1.1-1.9.64-.37,1.1,1.9Zm-2.19-3.8-1.1-1.9.64-.37,1.09,1.9Zm-2.19-3.8-1.1-1.9.63-.36,1.1,1.89Zm-2.2-3.8L180,94.91l.63-.36,1.1,1.9ZM178.92,93l-1.1-1.89.64-.37,1.09,1.9Zm-2.19-3.79-1.1-1.9.64-.37,1.09,1.9Zm-2.19-3.8-1.1-1.9.63-.37,1.1,1.9Zm-2.2-3.8-1.09-1.9.63-.36,1.1,1.89Zm-2.19-3.8-1.1-1.9.64-.36,1.09,1.9ZM168,74l-1.1-1.9.64-.37,1.09,1.9Zm-2.2-3.8-1.09-1.9.63-.37,1.1,1.9Zm-2.19-3.8-1.09-1.9.63-.37,1.1,1.9Zm-2.19-3.8-1.1-1.9.64-.36,1.09,1.9Zm-2.19-3.8-1.1-1.89.63-.37,1.1,1.9ZM157,55l-1.09-1.9.63-.37,1.1,1.9Zm-2.19-3.8-1.09-1.9.63-.37,1.1,1.9Zm-2.19-3.8-1.1-1.9.64-.36L153.25,47Zm-2.19-3.8-1.1-1.9.63-.36,1.1,1.9Zm-2.2-3.79L147.13,38l.63-.37,1.1,1.9ZM146,36.05l-1.1-1.9.64-.37,1.09,1.9Zm-2.19-3.8-1.1-1.9.64-.37,1.09,1.9Zm-2.2-3.8-1.09-1.9.63-.36,1.1,1.9Zm-2.19-3.8-1.09-1.9.63-.36,1.1,1.9Zm-2.19-3.79-1.1-1.9.64-.37,1.09,1.9ZM135,17.06l-1.1-1.9.64-.37,1.09,1.9Zm-2.2-3.8-1.09-1.9.63-.36,1.1,1.89Zm-2.19-3.8-1.1-1.9.64-.36,1.1,1.9Zm-2.19-3.8-1.1-1.89L128,3.4l1.09,1.9Z"/><rect class="f2fba6a8-355f-4e42-8cc5-9ea74272e3b1" x="197.78" y="125.04" width="0.73" height="1.1" transform="translate(-36.25 116.02) rotate(-30.03)"/><rect class="f2fba6a8-355f-4e42-8cc5-9ea74272e3b1" x="125.84" y="0.7" width="0.73" height="1.1" transform="translate(3.97 32.69) rotate(-14.99)"/><path class="f2fba6a8-355f-4e42-8cc5-9ea74272e3b1" d="M170.73,168.83l-.58-2.14.71-.19.57,2.14Zm-1.15-4.28-.57-2.14.7-.19.58,2.14Zm-1.15-4.28-.57-2.14.71-.19.57,2.14ZM167.29,156l-.58-2.14.71-.19.57,2.14Zm-1.15-4.28-.57-2.14.7-.19.58,2.14ZM165,147.43l-.57-2.14.71-.19.57,2.14Zm-1.14-4.28-.58-2.14.71-.19.57,2.14Zm-1.15-4.28-.57-2.14.7-.19.58,2.14Zm-1.15-4.28-.57-2.14.71-.19.57,2.14Zm-1.14-4.28-.58-2.14.71-.19.57,2.14ZM159.26,126l-.58-2.14.71-.19.57,2.14Zm-1.15-4.28-.57-2.15.7-.18.58,2.14ZM157,117.46l-.57-2.14.71-.19.57,2.14Zm-1.14-4.28-.58-2.14.71-.19.57,2.14Zm-1.15-4.28-.57-2.14.7-.19.58,2.14Zm-1.15-4.28-.57-2.14.71-.19.57,2.14Zm-1.14-4.28-.58-2.14.71-.19.57,2.14Zm-1.15-4.28-.57-2.14.7-.19.58,2.14Zm-1.15-4.28-.57-2.14.71-.19.57,2.14ZM149,87.5l-.57-2.14.71-.19.57,2.14Zm-1.14-4.28-.58-2.14.71-.19L148.5,83Zm-1.15-4.28-.57-2.14.7-.19.58,2.14Zm-1.15-4.28L145,72.52l.71-.19.57,2.14Zm-1.14-4.28-.58-2.14.71-.19.57,2.14ZM143.2,66.1l-.57-2.1.7-.19.58,2.14Zm-1.15-4.28-.57-2.14.71-.19.57,2.14Zm-1.14-4.28-.58-2.14.71-.19.57,2.14Zm-1.15-4.29-.57-2.14.7-.18.58,2.14ZM138.61,49,138,46.83l.71-.19.57,2.14Zm-1.15-4.28-.57-2.14.71-.19.57,2.14Zm-1.14-4.28-.58-2.14.71-.19.57,2.14Zm-1.15-4.28L134.6,34l.7-.19.58,2.14ZM134,31.85l-.57-2.14.71-.19.57,2.14Zm-1.14-4.28-.58-2.14.71-.19.57,2.14Zm-1.15-4.28-.57-2.14.7-.19.58,2.14ZM130.58,19,130,16.87l.71-.19.57,2.14Zm-1.14-4.28-.58-2.14.71-.19.57,2.14Zm-1.15-4.28-.57-2.14.7-.19.58,2.14Zm-1.15-4.28L126.57,4l.71-.19L127.85,6Z"/><rect class="f2fba6a8-355f-4e42-8cc5-9ea74272e3b1" x="171.44" y="170.85" width="0.73" height="1.1" transform="translate(-38.51 50.31) rotate(-15)"/><rect class="f2fba6a8-355f-4e42-8cc5-9ea74272e3b1" x="125.7" y="0.73" width="0.73" height="1.1"/><path class="f2fba6a8-355f-4e42-8cc5-9ea74272e3b1" d="M126.43,195.13h-.73v-2.2h.73Zm0-4.39h-.73v-2.2h.73Zm0-4.4h-.73v-2.19h.73Zm0-4.39h-.73v-2.2h.73Zm0-4.39h-.73v-2.2h.73Zm0-4.4h-.73V171h.73Zm0-4.39h-.73v-2.2h.73Zm0-4.39h-.73v-2.2h.73Zm0-4.4h-.73v-2.19h.73Zm0-4.39h-.73v-2.2h.73Zm0-4.39h-.73V149h.73Zm0-4.4h-.73v-2.19h.73Zm0-4.39h-.73v-2.2h.73Zm0-4.39h-.73v-2.2h.73Zm0-4.39h-.73v-2.2h.73Zm0-4.4h-.73V127h.73Zm0-4.39h-.73v-2.2h.73Zm0-4.39h-.73v-2.2h.73Zm0-4.4h-.73v-2.19h.73Zm0-4.39h-.73v-2.2h.73Zm0-4.39h-.73v-2.2h.73Zm0-4.4h-.73v-2.19h.73Zm0-4.39h-.73v-2.2h.73Zm0-4.39h-.73v-2.2h.73Zm0-4.4h-.73V87.5h.73Zm0-4.39h-.73V83.1h.73Zm0-4.39h-.73v-2.2h.73Zm0-4.4h-.73V74.32h.73Zm0-4.39h-.73v-2.2h.73Zm0-4.39h-.73v-2.2h.73Zm0-4.4h-.73V61.14h.73Zm0-4.39h-.73v-2.2h.73Zm0-4.39h-.73v-2.2h.73Zm0-4.4h-.73V48h.73Zm0-4.39h-.73V43.57h.73Zm0-4.39h-.73v-2.2h.73Zm0-4.39h-.73v-2.2h.73Zm0-4.4h-.73V30.39h.73Zm0-4.39h-.73V26h.73Zm0-4.39h-.73V21.6h.73Zm0-4.4h-.73V17.21h.73Zm0-4.39h-.73v-2.2h.73Zm0-4.39h-.73V8.42h.73Zm0-4.4h-.73V4h.73Z"/><rect class="f2fba6a8-355f-4e42-8cc5-9ea74272e3b1" x="125.7" y="197.33" width="0.73" height="1.1"/><rect class="f2fba6a8-355f-4e42-8cc5-9ea74272e3b1" x="172.44" y="27.1" width="0.73" height="1.1" transform="translate(-1.27 45.68) rotate(-15)"/><path class="f2fba6a8-355f-4e42-8cc5-9ea74272e3b1" d="M197.21,123l-.58-2.15.71-.19.58,2.15Zm-1.15-4.3-.58-2.15.71-.19.58,2.15Zm-1.15-4.3-.58-2.15L195,112l.57,2.15Zm-1.16-4.3-.57-2.15.71-.19.57,2.15Zm-1.15-4.3-.6-2.2.7-.19.58,2.15Zm-1.15-4.3-.57-2.15.7-.18.58,2.14Zm-1.15-4.29L189.72,95l.71-.19L191,97Zm-1.15-4.3-.58-2.15.71-.19.57,2.15ZM188,88.56l-.58-2.15.71-.19.57,2.15Zm-1.16-4.3-.57-2.15.7-.19.58,2.15ZM185.69,80l-.57-2.15.7-.19.58,2.15Zm-1.15-4.3L184,73.51l.71-.19.58,2.15Zm-1.15-4.3-.58-2.15.71-.19.58,2.15Zm-1.15-4.3L181.66,65l.71-.19.57,2.15Zm-1.16-4.3-.57-2.15.71-.18.57,2.14Zm-1.15-4.29-.57-2.15.7-.19.58,2.15Zm-1.15-4.3L178.21,52l.7-.19.58,2.15Zm-1.15-4.3-.58-2.15.71-.19.58,2.15Zm-1.15-4.3-.58-2.15.71-.19.57,2.15Zm-1.15-4.3-.58-2.15.71-.19.57,2.15ZM174.17,37l-.57-2.15.7-.19.58,2.15ZM173,32.67l-.57-2.15.7-.19.58,2.15Z"/><rect class="f2fba6a8-355f-4e42-8cc5-9ea74272e3b1" x="198.81" y="125.46" width="0.73" height="1.1" transform="translate(-25.83 55.86) rotate(-15)"/><rect class="f2fba6a8-355f-4e42-8cc5-9ea74272e3b1" x="171.57" y="27.22" width="0.73" height="1.1"/><path class="f2fba6a8-355f-4e42-8cc5-9ea74272e3b1" d="M172.3,168.65h-.73v-2.19h.73Zm0-4.39h-.73v-2.19h.73Zm0-4.38h-.73v-2.2h.73Zm0-4.39h-.73V153.3h.73Zm0-4.38h-.73v-2.2h.73Zm0-4.39h-.73v-2.19h.73Zm0-4.38h-.73v-2.2h.73Zm0-4.39h-.73v-2.19h.73Zm0-4.39h-.73v-2.19h.73Zm0-4.38h-.73V127h.73Zm0-4.39h-.73V122.6h.73Zm0-4.38h-.73v-2.19h.73Zm0-4.39h-.73v-2.19h.73Zm0-4.38h-.73v-2.19h.73Zm0-4.39h-.73v-2.19h.73Zm0-4.38h-.73v-2.2h.73Zm0-4.39h-.73V96.29h.73Zm0-4.38h-.73V91.9h.73Zm0-4.39h-.73V87.52h.73Zm0-4.38h-.73v-2.2h.73Zm0-4.39h-.73V78.75h.73Zm0-4.38h-.73v-2.2h.73Zm0-4.39h-.73V70h.73Zm0-4.39h-.73V65.59h.73Zm0-4.38h-.73V61.21h.73Zm0-4.39h-.73V56.82h.73Zm0-4.38h-.73V52.44h.73Zm0-4.39h-.73V48.05h.73Zm0-4.38h-.73V43.67h.73Zm0-4.39h-.73V39.28h.73Zm0-4.38h-.73v-2.2h.73Zm0-4.39h-.73V30.51h.73Z"/><rect class="f2fba6a8-355f-4e42-8cc5-9ea74272e3b1" x="171.57" y="170.84" width="0.73" height="1.1"/><rect class="f2fba6a8-355f-4e42-8cc5-9ea74272e3b1" x="171.25" y="27.38" width="1.1" height="0.73" transform="translate(100.54 186.51) rotate(-75)"/><path class="f2fba6a8-355f-4e42-8cc5-9ea74272e3b1" d="M127.28,195.32l-.71-.19.57-2.14.71.19Zm1.14-4.28-.7-.19.57-2.14.71.19Zm1.15-4.28-.71-.19.58-2.14.7.19Zm1.15-4.28-.71-.19.57-2.14.71.19Zm1.14-4.28-.7-.19.57-2.14.71.19Zm1.15-4.28-.71-.19.58-2.14.7.18Zm1.15-4.29-.71-.18.57-2.15.71.19Zm1.14-4.28-.7-.19.57-2.14.71.19Zm1.15-4.28-.7-.19.57-2.14.71.19Zm1.15-4.28-.71-.19.57-2.14.71.19Zm1.15-4.28-.71-.19.57-2.14.71.19Zm1.14-4.28-.7-.19.57-2.14.71.19ZM141,144l-.71-.19.58-2.14.7.19Zm1.15-4.28-.71-.19.57-2.14.71.19Zm1.14-4.28-.7-.19.57-2.14.71.19Zm1.15-4.28-.71-.19.58-2.14.7.19Zm1.15-4.28-.71-.19.57-2.14.71.19Zm1.14-4.28-.7-.19.57-2.14.71.19Zm1.15-4.28-.71-.19.58-2.14.71.19ZM149,114l-.71-.19.57-2.14.71.19Zm1.15-4.28-.71-.19.57-2.14.71.19Zm1.14-4.28-.7-.19.57-2.14.71.18Zm1.15-4.29-.71-.18.58-2.15.7.19Zm1.15-4.28-.71-.19.57-2.14.71.19Zm1.14-4.28-.7-.19.57-2.14.71.19ZM156,88.3l-.71-.19.58-2.14.7.19Zm1.1-4.3-.71-.19.57-2.14.71.19Zm1.14-4.28-.7-.19.57-2.14.71.19Zm1.15-4.28-.71-.19.58-2.14.7.19Zm1.15-4.28-.71-.19.57-2.14.71.19Zm1.15-4.28-.71-.19.57-2.14.71.19Zm1.14-4.28-.7-.19.57-2.14.71.19ZM164,58.34l-.71-.19.58-2.14.7.19Zm1.15-4.28-.71-.19.57-2.14.71.19Zm1.14-4.28-.7-.19.57-2.14.71.19Zm1.15-4.28-.71-.19.58-2.14.7.19Zm1.15-4.28-.71-.19.57-2.14.71.19Zm1.14-4.28-.7-.19.57-2.14.71.18Zm1.15-4.29-.71-.19.58-2.14.7.19Z"/><rect class="f2fba6a8-355f-4e42-8cc5-9ea74272e3b1" x="125.66" y="197.51" width="1.1" height="0.73" transform="translate(-97.57 268.6) rotate(-75.01)"/><rect class="f2fba6a8-355f-4e42-8cc5-9ea74272e3b1" x="197.74" y="73.26" width="1.1" height="0.73" transform="translate(75.64 245.95) rotate(-74.93)"/><path class="f2fba6a8-355f-4e42-8cc5-9ea74272e3b1" d="M173.15,168.82l-.7-.19.57-2.15.71.19Zm1.15-4.3-.7-.19.57-2.14.71.19Zm1.16-4.29-.71-.19.58-2.15.7.19Zm1.15-4.3-.71-.19.58-2.15.7.19Zm1.15-4.3-.71-.19.58-2.15.71.19Zm1.15-4.3-.7-.19.57-2.15.71.19Zm1.15-4.3-.7-.19.57-2.15.71.19Zm1.16-4.3-.71-.19.57-2.15.71.19Zm1.15-4.3-.71-.19.58-2.15.7.19Zm1.15-4.3-.71-.19.58-2.15.71.19Zm1.15-4.3-.71-.18.58-2.15.71.19Zm1.15-4.29-.7-.19.57-2.15.71.19Zm1.15-4.3-.7-.19.57-2.15.71.19Zm1.16-4.3-.71-.19.58-2.15.7.19Zm1.15-4.3-.71-.19.58-2.15.7.19Zm1.15-4.3-.71-.19.58-2.15.71.19Zm1.15-4.3-.7-.19.57-2.15.71.19Zm1.15-4.3-.7-.19.57-2.15.71.19Zm1.16-4.3-.71-.19.57-2.14.71.18ZM195,87.15l-.71-.19.58-2.15.7.19Zm1.15-4.3-.71-.19.58-2.15.71.19Zm1.15-4.3-.71-.19.58-2.15.71.19Z"/><rect class="f2fba6a8-355f-4e42-8cc5-9ea74272e3b1" x="171.52" y="171.02" width="1.1" height="0.73" transform="translate(-38.01 293.24) rotate(-75)"/><rect class="f2fba6a8-355f-4e42-8cc5-9ea74272e3b1" x="197.6" y="73.2" width="1.1" height="0.73" transform="translate(35.41 208.44) rotate(-60.02)"/><path class="f2fba6a8-355f-4e42-8cc5-9ea74272e3b1" d="M128,195.76l-.64-.37,1.1-1.9.63.37Zm2.19-3.8-.64-.37,1.1-1.9.64.37Zm2.19-3.8-.63-.36,1.09-1.9.64.36Zm2.19-3.8L134,184l1.1-1.9.63.36Zm2.2-3.79-.64-.37,1.1-1.9.63.37Zm2.19-3.8-.63-.37,1.09-1.9.64.37Zm2.19-3.8-.63-.37,1.09-1.89.64.36Zm2.2-3.8-.64-.36,1.1-1.9.63.36Zm2.19-3.79-.64-.37,1.1-1.9.63.37Zm2.19-3.8-.63-.37,1.09-1.9.64.37Zm2.19-3.8-.63-.37,1.09-1.9.64.37Zm2.2-3.8-.64-.36,1.1-1.9.63.36Zm2.19-3.8-.64-.36,1.1-1.9.64.36Zm2.19-3.79-.63-.37,1.09-1.9.64.37Zm2.19-3.8-.63-.37,1.1-1.9.63.37Zm2.2-3.8-.64-.37,1.1-1.9.63.37Zm2.19-3.8-.63-.36,1.09-1.9.64.36Zm2.19-3.8-.63-.36,1.09-1.9.64.37Zm2.2-3.79-.64-.37,1.1-1.9.63.37Zm2.19-3.8-.64-.37,1.1-1.9.63.37Zm2.19-3.8-.63-.37,1.09-1.89.64.36ZM174,116l-.63-.36,1.1-1.9.63.36Zm2.2-3.79-.64-.37,1.1-1.9.63.37Zm2.19-3.8-.64-.37,1.1-1.9.63.37Zm2.19-3.8-.63-.37,1.09-1.9.64.37Zm2.19-3.8-.63-.36,1.1-1.9.63.36ZM185,97l-.64-.36,1.1-1.9.63.37Zm2.19-3.79-.64-.37,1.1-1.9.64.37Zm2.19-3.8-.63-.37,1.09-1.9.64.37Zm2.2-3.8-.64-.37,1.1-1.89.63.36Zm2.19-3.8-.64-.36,1.1-1.9.63.36ZM196,78l-.63-.36,1.09-1.9.64.37Z"/><rect class="f2fba6a8-355f-4e42-8cc5-9ea74272e3b1" x="125.78" y="197.56" width="1.1" height="0.73" transform="translate(-108.24 208.45) rotate(-60.02)"/><rect class="f2fba6a8-355f-4e42-8cc5-9ea74272e3b1" x="197.5" y="126.11" width="1.1" height="0.73" transform="translate(-31.48 176.84) rotate(-44.94)"/><path class="f2fba6a8-355f-4e42-8cc5-9ea74272e3b1" d="M128.67,196.33l-.51-.51,1.57-1.58.52.52Zm3.15-3.14-.52-.52,1.58-1.57.51.51ZM135,190l-.52-.52L136,188l.52.52Zm3.14-3.15-.51-.52,1.57-1.57.52.52Zm3.15-3.14-.52-.52,1.58-1.58.51.52Zm3.15-3.15-.52-.52,1.57-1.57.52.51Zm3.14-3.15-.51-.52,1.57-1.57.52.52Zm3.15-3.15-.52-.51,1.58-1.58.52.52Zm3.15-3.14-.52-.52,1.58-1.57.51.51ZM157,168l-.52-.52,1.57-1.57.52.52Zm3.14-3.15-.51-.51,1.57-1.58.52.52Zm3.15-3.14-.52-.52,1.58-1.57.51.51Zm3.15-3.15-.52-.52,1.57-1.57.52.52Zm3.14-3.15-.51-.52,1.57-1.57.52.52Zm3.15-3.14-.52-.52,1.58-1.58.51.52Zm3.15-3.15-.52-.52,1.57-1.57.52.51ZM179,146l-.51-.52,1.57-1.57.52.52Zm3.15-3.15-.52-.51,1.58-1.58.52.52Zm3.15-3.14-.52-.52,1.58-1.57.51.51Zm3.15-3.15L188,136l1.57-1.57.52.52Zm3.14-3.15-.52-.51,1.58-1.58.52.52Zm3.15-3.14-.52-.52,1.58-1.57.51.51Z"/><rect class="f2fba6a8-355f-4e42-8cc5-9ea74272e3b1" x="125.9" y="197.67" width="1.1" height="0.73" transform="translate(-103 147.41) rotate(-45)"/><path class="f2fba6a8-355f-4e42-8cc5-9ea74272e3b1" d="M126.26,199.16H72.9L26.68,172.47l-.1-.17L0,126.26V72.9l.1-.17L26.68,26.68,72.9,0h53.36l46.21,26.68.1.17L199.16,72.9v53.36l-.1.17-26.59,46Zm-53-1.47h52.58L171.4,171.4l26.29-45.53V73.29L171.4,27.75,125.87,1.46H73.29L27.75,27.75,1.46,73.29v52.58L27.75,171.4Z"/></g></svg>