<svg id="ea5a5b55-98d0-41dc-bddf-57bd25c6c7ed" data-name="Layer 1" xmlns="http://www.w3.org/2000/svg" viewBox="0 0 199.16 199.16"><defs><style>.fbb676b1-810b-4751-9b04-30c7d7fba057{fill:#000000;}</style></defs><title>11u</title><g id="e5c08955-b0d8-45da-a2c0-f48c8eb12a65" data-name="items"><path class="fbb676b1-810b-4751-9b04-30c7d7fba057" d="M47.76,176.33c-.74,0-1.48,0-2.2-.07v-.73c.71,0,1.44.06,2.17.06Zm2.21-.05v-.73c.71,0,1.43-.08,2.17-.15l.06.73c-.77.07-1.5.12-2.2.15Zm-6.62-.23c-.74-.09-1.47-.21-2.18-.35l.14-.72c.69.14,1.41.26,2.13.35Zm11-.17-.09-.73c.7-.09,1.42-.2,2.15-.33l.12.72c-.72.13-1.45.24-2.17.34ZM39,175.19c-.72-.21-1.43-.44-2.11-.7l.26-.68c.66.25,1.35.47,2.05.67Zm19.69-.06-.15-.71c.71-.15,1.41-.31,2.13-.48l.17.71Zm4.28-1-.19-.7c.69-.19,1.39-.39,2.1-.61l.21.7L63,174.1Zm-28.12-.49c-.67-.34-1.32-.7-1.94-1.09l.39-.62c.61.36,1.23.7,1.87,1Zm32.33-.78-.22-.69c.68-.23,1.37-.46,2.06-.71l.25.69-2.08.68Zm4.15-1.47-.26-.68,2-.8.27.68Zm-40.24-.13a18,18,0,0,1-1.66-1.49l.51-.51a18.09,18.09,0,0,0,1.61,1.43Zm44.31-1.52-.29-.67c.66-.28,1.33-.58,2-.88l.3.67c-.66.27-1.33.57-2,.85ZM28,168.08a21.16,21.16,0,0,1-1.29-1.81l.62-.39a19.71,19.71,0,0,0,1.24,1.75Zm51.47-.17-.32-.66,2-.95.33.66ZM83.36,166l-.34-.65,1.94-1,.34.64C84.65,165.3,84,165.64,83.36,166Zm-57.79-1.64a21,21,0,0,1-.89-2l.68-.26c.26.68.55,1.34.86,2Zm61.66-.43-.35-.64c.63-.35,1.27-.7,1.9-1.07l.37.64-1.92,1Zm3.82-2.17-.38-.63L92.55,160l.38.63Zm-67-1.58c-.2-.7-.37-1.42-.52-2.16l.72-.14c.14.72.31,1.42.5,2.1Zm70.82-.73-.39-.62,1.84-1.18.4.62Zm3.68-2.38-.4-.61,1.81-1.22.42.6Zm-75.37-1.23c-.09-.71-.16-1.45-.21-2.21h.73c.05.73.12,1.46.21,2.16Zm79-1.24-.42-.6,1.79-1.26.43.59ZM105.7,152l-.43-.59,1.76-1.3.44.59Zm-82.12-.62h-.73v-.2c0-.66,0-1.33,0-2h.73c0,.66-.05,1.32-.05,2Zm85.63-2-.44-.58,1.72-1.34.46.58ZM23.78,147.1,23,147c.06-.72.15-1.45.24-2.19l.73.09c-.07.75-.15,1.47-.21,2.19Zm88.89-.39-.46-.57,1.69-1.37.47.56Zm3.39-2.78-.47-.56c.56-.46,1.11-.93,1.67-1.41l.47.56c-.57.48-1.13.94-1.73,1.4Zm-91.71-1.15-.72-.12c.12-.71.26-1.43.41-2.16l.72.15c-.17.71-.31,1.42-.43,2.12Zm95-1.7-.48-.55,1.64-1.44.49.54Zm-94.16-2.56-.71-.17c.17-.71.35-1.42.55-2.13l.71.19c-.18.7-.36,1.4-.53,2.1Zm97.44-.35-.49-.54,1.61-1.48.5.54Zm3.22-3-.5-.53,1.58-1.51.51.52Zm-99.51-.88-.71-.21c.21-.69.43-1.39.67-2.09l.69.22c-.21.71-.43,1.41-.63,2.09ZM129,132.14l-.51-.53,1.55-1.54.31.21.22.3Zm-101.31-2L27,129.9c.24-.69.49-1.38.76-2.07l.68.26c-.23.71-.44,1.39-.72,2.07ZM132.18,129l-.52-.52c.51-.52,1-1,1.52-1.57l.53.51ZM29.27,126.08l-.68-.27c.27-.68.55-1.35.84-2l.68.29Q29.68,125.08,29.27,126.08Zm106-.26-.54-.5c.5-.53,1-1.06,1.49-1.6l.54.5c-.53.54-1,1.07-1.53,1.6Zm3-3.22-.55-.49c.49-.54,1-1.08,1.46-1.63l.55.49ZM31,122.07l-.67-.3c.3-.67.61-1.33.92-2l.67.31C31.58,120.75,31.28,121.41,31,122.07Zm110.14-2.75-.55-.48,1.43-1.65.55.47-1.45,1.66Zm-108.28-1.2-.65-.33c.32-.65.65-1.3,1-2l.65.33c-.37.7-.7,1.35-1,2ZM144,116l-.56-.47c.47-.56.93-1.12,1.39-1.69l.57.47ZM34.84,114.23l-.65-.35c.34-.64.69-1.28,1.05-1.93l.64.36C35.52,113,35.18,113.59,34.84,114.23Zm111.91-1.64-.57-.46c.45-.57.91-1.14,1.35-1.71l.58.45C147.66,111.45,147.21,112,146.75,112.59ZM37,110.4l-.64-.36,1.1-1.9.63.37A15.28,15.28,0,0,0,37,110.4Zm112.5-1.26-.58-.45q.68-.87,1.32-1.74l.59.44c-.49.61-.93,1.17-1.38,1.75Zm-110.28-2.5-.63-.38c.38-.62.76-1.25,1.15-1.87l.62.39c-.43.62-.82,1.22-1.19,1.86Zm112.92-1-.6-.43c.44-.59.86-1.19,1.29-1.78l.59.43ZM41.54,103l-.62-.4,1.2-1.84.61.41c-.45.6-.85,1.21-1.24,1.82Zm113.15-.88-.6-.42,1.24-1.8.6.41ZM43.9,99.29l-.61-.41,1.25-1.81.6.42Zm113.21-.86-.62-.41q.62-.92,1.2-1.83l.61.4ZM46.4,95.71l-.6-.43,1.29-1.78.59.43C47.25,94.52,46.82,95.11,46.4,95.71Zm113.08-1-.62-.39c.39-.62.77-1.24,1.15-1.86l.62.38c-.37.65-.76,1.27-1.15,1.9ZM49,92.18l-.58-.44L49.72,90l.58.45ZM161.76,91l-.63-.38c.37-.63.74-1.26,1.1-1.89l.63.37ZM51.64,88.71l-.57-.45c.45-.58.9-1.15,1.36-1.72L53,87Zm112.3-1.54-.64-.35c.35-.64.7-1.28,1-1.92l.65.34C164.64,85.88,164.3,86.53,163.94,87.17ZM54.38,85.3l-.57-.47,1.4-1.69.56.47C55.3,84.17,54.84,84.74,54.38,85.3ZM166,83.3l-.65-.34c.33-.65.66-1.3,1-1.95l.66.32ZM57.18,81.94l-.55-.47c.47-.56.95-1.11,1.43-1.66l.55.48Zm110.76-2.58-.66-.32c.31-.66.61-1.32.91-2l.67.3ZM60.06,78.65l-.55-.49c.48-.54,1-1.09,1.47-1.63l.54.49C61,77.56,60.54,78.1,60.06,78.65ZM63,75.41l-.53-.5L64,73.31l.54.5C64,74.34,63.49,74.88,63,75.41Zm106.75-.06-.67-.29c.29-.67.56-1.35.83-2l.68.27c-.28.67-.59,1.34-.85,2ZM66,72.23l-.53-.51c.5-.53,1-1,1.53-1.57l.52.51C67,71.18,66.5,71.7,66,72.23Zm105.38-1L170.7,71c.26-.68.51-1.37.75-2l.69.24c-.24.65-.49,1.34-.76,2ZM69.08,69.08l-.52-.51c.51-.52,1-1,1.54-1.53l.51.53Zm103.77-2-.69-.23c.23-.7.45-1.39.65-2.08l.7.21c-.21.73-.43,1.45-.66,2.15ZM72.18,66l-.51-.52L73.26,64l.5.53Zm3.18-3-.5-.54L76.48,61l.49.54C76.43,62.05,75.89,62.54,75.36,63Zm98.76-.12-.71-.2c.2-.7.38-1.41.54-2.11l.72.18c-.17.74-.36,1.45-.55,2.17ZM78.59,60.1l-.48-.54,1.64-1.45.49.55Zm96.55-1.46-.71-.15c.15-.72.28-1.43.4-2.14l.72.12C175.43,57.19,175.3,57.91,175.14,58.64ZM81.89,57.23l-.47-.56c.55-.48,1.11-1,1.67-1.42l.47.57C83,56.28,82.45,56.75,81.89,57.23Zm3.35-2.81-.46-.56,1.7-1.39.46.58Zm90.65-.12-.73-.1q.15-1.1.24-2.16l.73.06C176.07,52.83,176,53.56,175.89,54.3ZM88.66,51.69l-.46-.58,1.74-1.35.44.59C89.81,50.79,89.23,51.23,88.66,51.69Zm87.62-1.79h-.73V47.7h.74V48A17.28,17.28,0,0,1,176.28,49.9ZM92.12,49l-.44-.58,1.77-1.31.43.59Zm3.53-2.58-.43-.6L97,44.58l.42.6c-.58.41-1.18.82-1.77,1.26Zm79.87-.91c-.05-.73-.11-1.45-.2-2.15l.72-.1c.09.72.16,1.46.21,2.21ZM99.23,43.94l-.41-.61,1.82-1.22.41.61Zm3.65-2.42-.4-.61,1.85-1.18.39.62ZM175,41.24c-.14-.71-.31-1.42-.51-2.1l.71-.2c.19.7.37,1.42.52,2.16Zm-68.39-2-.38-.62c.63-.39,1.26-.76,1.88-1.13l.37.63Zm67.2-2.1c-.25-.68-.55-1.34-.86-2l.65-.32c.33.65.63,1.32.9,2ZM110.34,37l-.36-.63,1.91-1.08.36.64Zm3.83-2.11-.35-.65,2-1,.33.66a21.37,21.37,0,0,0-2,1Zm57.69-1.62a17.94,17.94,0,0,0-1.25-1.75l.57-.45a19.26,19.26,0,0,1,1.3,1.81Zm-53.81-.38-.32-.65,2-1,.31.66ZM122,31l-.3-.67,2-.88.29.67Zm47.18-1.1a18.09,18.09,0,0,0-1.61-1.43l.46-.57a19.48,19.48,0,0,1,1.66,1.48ZM126,29.29l-.28-.68,2-.8.26.68Zm4.08-1.55-.25-.69c.7-.25,1.39-.49,2.08-.71l.23.69-2,.71Zm35.72-.5a13.54,13.54,0,0,0-1.88-1l.33-.65c.66.33,1.31.69,1.94,1.08Zm-31.58-.86-.21-.71,2.11-.6.19.7c-.67.23-1.37.39-2.07.61Zm27.73-1c-.66-.25-1.35-.48-2-.67l.19-.71c.72.2,1.43.44,2.11.69Zm-23.53-.11-.17-.71c.72-.18,1.44-.34,2.15-.49l.15.72Zm4.27-.89-.13-.72c.74-.13,1.46-.24,2.18-.34l.1.73Zm15.1-.17c-.69-.14-1.41-.25-2.13-.34l.09-.73c.74.09,1.48.21,2.19.35ZM147,23.76V23c.74-.07,1.48-.12,2.2-.15v.73Zm6.5-.13c-.71,0-1.44-.06-2.17-.07v-.73c.74,0,1.48,0,2.21.07Z" transform="translate(0 0)"/><path class="fbb676b1-810b-4751-9b04-30c7d7fba057" d="M151.2,176.33c-.64,0-1.29,0-1.95-.05v-.73h2.18v.74Zm2.47-.08v-.73c.73-.05,1.46-.11,2.16-.2l.09.72C155.16,176.13,154.42,176.2,153.67,176.25Zm-6.62-.12q-1.08-.09-2.19-.24l.1-.73c.72.1,1.45.18,2.16.24Zm11-.44-.15-.72c.72-.14,1.43-.31,2.1-.51l.2.71c-.68.2-1.41.37-2.14.52Zm-15.38-.13c-.71-.13-1.43-.26-2.16-.41l.15-.72c.72.15,1.43.28,2.14.4Zm-4.31-.9-2.13-.54.19-.71,2.11.54Zm23.95-.19-.26-.69c.68-.26,1.34-.55,2-.86l.33.65a22.13,22.13,0,0,1-2.06.9Zm-28.2-1-2.1-.66.23-.69c.7.23,1.4.45,2.08.65Zm32.18-1-.4-.62a17.94,17.94,0,0,0,1.75-1.25l.46.58a20.51,20.51,0,0,1-1.8,1.3ZM130,172.14c-.69-.24-1.38-.49-2.07-.76l.26-.68,2.05.75Zm-4.11-1.56c-.68-.27-1.35-.55-2-.84l.28-.67,2,.83Zm43.93-.89-.52-.51a19.69,19.69,0,0,0,1.42-1.61l.58.46a20.05,20.05,0,0,1-1.53,1.66Zm-48-.83-2-.92.31-.66,2,.91Zm-4-1.87-2-1,.33-.65,2,1Zm54.72-.78-.62-.39a19.93,19.93,0,0,0,1-1.88l.66.33a15.11,15.11,0,0,1-1,1.94ZM113.91,165,112,164l.35-.64,1.93,1Zm-3.84-2.12c-.63-.36-1.27-.72-1.9-1.1l.37-.63,1.89,1.1Zm64.44-.63-.69-.26c.25-.66.47-1.35.67-2.05l.71.2c-.2.7-.44,1.41-.69,2.09Zm-68.22-1.6c-.63-.37-1.25-.76-1.87-1.15l.39-.62,1.86,1.15Zm-3.72-2.33c-.62-.39-1.23-.79-1.84-1.2l.4-.61,1.83,1.2Zm73.14-.34-.72-.14c.14-.69.25-1.41.34-2.14l.73.09a22,22,0,0,1-.35,2.21Zm-76.8-2.08-1.81-1.24.42-.6,1.8,1.24Zm77.35-2.31h-.73c0-.7.06-1.43.06-2.16h.74c0,.68,0,1.42-.07,2.14Zm-80.95-.2c-.6-.42-1.19-.85-1.78-1.29l.43-.59,1.77,1.29Zm-3.55-2.59L90,149.45l.44-.58,1.74,1.32Zm83.79-1.59c0-.72-.09-1.44-.16-2.17l.73-.07c.07.74.12,1.48.16,2.2Zm-87.27-1.08-1.72-1.36.46-.58,1.72,1.36Zm-3.42-2.74L83.17,144l.47-.56,1.68,1.39Zm90.29-.51c-.1-.71-.21-1.43-.33-2.15l.72-.13c.12.74.24,1.46.33,2.18Zm-93.66-2.31-1.66-1.43.48-.55L82,142Zm92.92-2-.48-2.13.71-.17c.17.72.33,1.44.48,2.15Zm-96.22-.9-1.64-1.47.5-.54,1.62,1.46Zm-3.25-2.95c-.54-.49-1.07-1-1.61-1.5l.51-.53,1.59,1.49Zm98.44-.39c-.18-.69-.39-1.39-.6-2.09l.7-.21c.22.71.42,1.41.61,2.11ZM71.75,133.71c-.53-.5-1-1-1.58-1.53l.51-.52,1.57,1.52Zm100.38-1.55c-.23-.68-.47-1.37-.71-2.06l.69-.25c.24.7.48,1.39.71,2.08ZM68.61,130.64l.26-.26-.3.22L67,129l.52-.51L69.06,130l-.21.31Zm102.05-2.59c-.25-.67-.52-1.35-.8-2l.68-.28c.28.69.55,1.37.81,2Zm-105.17-.59L64,125.87l.53-.5c.5.53,1,1.06,1.51,1.58Zm-3-3.19L61,122.65l.54-.49L63,123.77ZM169,124c-.29-.66-.58-1.33-.88-2l.67-.3.88,2ZM59.5,121l-1.45-1.64.55-.49c.48.55,1,1.1,1.45,1.64Zm107.7-1-.95-2,.66-.32c.33.66.64,1.32,1,2ZM56.65,117.71c-.48-.55-.95-1.11-1.42-1.67l.56-.47,1.42,1.67ZM165.3,116.1l-1-1.93.64-.35c.35.67.68,1.33,1,2ZM53.83,114.35l-1.38-1.7.57-.46,1.38,1.7Zm109.42-2.1-1.07-1.91.63-.36c.37.64.73,1.28,1.08,1.91ZM51.09,110.93l-1.35-1.74.58-.44c.45.57.89,1.15,1.35,1.72Zm110-2.47c-.37-.63-.75-1.25-1.13-1.88l.63-.38,1.13,1.88Zm-112.66-1c-.44-.58-.88-1.17-1.31-1.76l.59-.43L49,107Zm110.38-2.72c-.38-.61-.77-1.23-1.17-1.84l.62-.4c.4.62.79,1.24,1.17,1.85Zm-113-.81-1.27-1.8.6-.42,1.26,1.79Zm110.61-2.86c-.4-.61-.81-1.21-1.22-1.82l.6-.41q.63.91,1.23,1.83Zm-113.13-.74c-.41-.61-.82-1.22-1.22-1.83l.61-.4,1.22,1.81ZM154,97.44l-1.26-1.79.59-.43L154.6,97ZM40.89,96.65c-.4-.62-.79-1.24-1.18-1.86l.62-.38,1.17,1.84Zm110.54-2.77-1.3-1.76.59-.44,1.3,1.77ZM38.56,92.93c-.39-.63-.76-1.26-1.13-1.88l.63-.38,1.12,1.88Zm110.25-2.55-1.34-1.72.58-.46,1.34,1.74ZM36.33,89.15q-.55-1-1.08-1.92l.64-.35L37,88.78Zm109.78-2.21-1.38-1.7.57-.46,1.38,1.7ZM34.2,85.3l-1-1.94.65-.34,1,1.94Zm109.14-1.74-1.41-1.67.55-.47c.48.55,1,1.11,1.42,1.67ZM32.2,81.4c-.33-.67-.65-1.33-1-2l.66-.31c.3.65.62,1.3,1,2Zm108.3-1.16c-.48-.55-1-1.1-1.45-1.64l.55-.49,1.45,1.65ZM30.33,77.42c-.31-.67-.6-1.34-.89-2l.68-.29c.28.67.57,1.33.87,2ZM137.59,77l-1.47-1.61.53-.5,1.48,1.62Zm-3-3.21-1.51-1.58.53-.51,1.52,1.59Zm-106-.38c-.28-.68-.54-1.36-.8-2l.68-.26c.26.67.52,1.35.8,2Zm103-2.77-1.52-1.53.5-.54-.26.26.27-.24c.52.51,1,1,1.53,1.54ZM27,69.27c-.25-.69-.49-1.39-.72-2.07L27,67c.23.68.46,1.37.71,2.06Zm101.5-1.75L126.93,66l.51-.53c.52.5,1.05,1,1.57,1.53ZM25.66,65.1c-.21-.71-.41-1.42-.6-2.12l.7-.19.6,2.1Zm99.68-.61L123.75,63l.5-.54,1.6,1.5Zm-3.2-3L120.51,60l.49-.55L122.63,61Zm-97.63-.67c-.18-.72-.34-1.44-.49-2.15l.72-.14c.15.7.31,1.41.48,2.12Zm94.36-2.24-1.66-1.43.48-.55L119.35,58Zm-95.26-2c-.12-.73-.23-1.46-.33-2.18l.72-.09c.1.7.21,1.42.33,2.15Zm91.93-.77-1.68-1.39.46-.57,1.69,1.4ZM112.16,53l-1.71-1.35.45-.58,1.72,1.36ZM23,52.17c-.07-.74-.12-1.47-.15-2.2h.73c0,.71.08,1.43.15,2.17Zm85.69-1.86L107,49l.44-.58,1.75,1.32ZM23.56,47.77h-.73c0-.75,0-1.49.07-2.21h.73C23.59,46.31,23.56,47,23.56,47.77Zm81.66-.09-1.77-1.28.43-.59,1.78,1.28Zm-3.55-2.54-1.8-1.24.41-.6,1.8,1.24Zm-77.84-1.7-.73-.09c.1-.74.22-1.48.36-2.18l.71.14A18.54,18.54,0,0,0,23.83,43.44Zm74.22-.76-1.83-1.19.4-.62,1.84,1.2Zm-3.67-2.36c-.63-.39-1.24-.78-1.86-1.15l.38-.63c.62.38,1.24.76,1.86,1.16ZM24.67,39.21,24,39c.2-.72.44-1.43.69-2.11l.69.26A17.86,17.86,0,0,0,24.67,39.21Zm66-1.17-1.92-1,.37-.64,1.9,1.1Zm-3.79-2.16c-.64-.36-1.28-.7-1.92-1l.34-.65c.64.34,1.29.69,1.93,1.05Zm-60.64-.7-.66-.32a20.49,20.49,0,0,1,1.09-1.94l.62.39c-.39.6-.75,1.23-1.08,1.87ZM83,33.82l-2-1,.32-.65,2,1ZM79.07,31.9c-.66-.32-1.32-.62-2-.92l.3-.67,2,.92ZM28.5,31.56l-.57-.46a19.48,19.48,0,0,1,1.48-1.66l.52.51A18.09,18.09,0,0,0,28.5,31.56Zm46.59-1.45c-.67-.29-1.33-.57-2-.84l.27-.68,2,.84ZM31.53,28.52,31.07,28a19.3,19.3,0,0,1,1.82-1.29l.39.61A13.57,13.57,0,0,0,31.53,28.52Zm39.52-.05-2-.75.24-.69c.68.24,1.37.49,2.06.76ZM66.93,27c-.7-.23-1.39-.45-2.08-.65l.21-.7q1.05.3,2.1.66Zm-31.78-.79-.32-.65a21,21,0,0,1,2-.89l.27.68c-.66.27-1.32.56-2,.87Zm27.61-.46c-.71-.2-1.42-.38-2.11-.55l.17-.71c.7.17,1.41.35,2.13.55Zm-4.24-1c-.72-.15-1.43-.29-2.14-.41l.13-.72c.71.12,1.43.26,2.16.41Zm-19.35-.06L39,24c.69-.2,1.42-.37,2.15-.52l.15.72a19.51,19.51,0,0,0-2.13.48ZM54.23,24q-1.09-.15-2.16-.24l.07-.73c.72.06,1.45.15,2.19.25Zm-10.82-.16-.09-.73c.71-.09,1.45-.16,2.2-.21v.73C44.84,23.68,44.11,23.75,43.41,23.84Zm6.49-.23c-.66,0-1.31-.05-1.95-.05h-.22v-.73H48c.65,0,1.31,0,2,.05Z" transform="translate(0 0)"/><path class="fbb676b1-810b-4751-9b04-30c7d7fba057" d="M99.79,143.44h-2.4v-.73h2.4Zm2.19,0v-.74h2.18v.73Zm-6.79,0-2.19-.1v-.73l2.19.06Zm11.18-.06v-.73l2.18-.08v.73Zm-15.56-.07-2.2-.1v-.73l2.18.1Zm19.94-.11v-.73c.73,0,1.45-.07,2.18-.12v.73l-2.18.08Zm-24.33-.1L84.23,143l.06-.73,2.18.14Zm28.71-.16v-.73l2.18-.16.06.73Zm-33.08-.14-2.19-.19.07-.73,2.17.19Zm37.46-.2-.07-.73,2.18-.21.07.73Zm-41.83-.19-2.18-.23.08-.73,2.17.23Zm46.19-.25-.08-.73,2.17-.25.09.72Zm-50.55-.23-2.18-.28.09-.72,2.17.27Zm54.91-.3-.1-.73c.73-.09,1.45-.19,2.17-.3l.1.73ZM69,141.32,66.79,141l.11-.72,2.17.32Zm63.61-.36-.11-.72,2.16-.35.12.72Zm-67.94-.31-2.17-.38.13-.72,2.16.37Zm72.27-.41-.13-.72,2.15-.4.14.72Zm-76.59-.36-2.16-.43.15-.71,2.14.42Zm80.9-.47-.15-.71,2.14-.45.16.71-2.19.45ZM56,139l-2.14-.47.17-.72c.7.17,1.41.32,2.13.48Zm89.5-.52-.16-.71,2.12-.51.18.71C146.93,138.15,146.22,138.32,145.5,138.48ZM51.73,138l-2.13-.53.18-.71,2.12.53Zm98-.58-.18-.71,2.11-.56.2.7Zm-102.29-.51-2.11-.6.2-.7,2.11.59ZM154,136.28l-.2-.71,2.09-.62.21.7Zm-110.74-.57c-.71-.22-1.41-.43-2.1-.66l.22-.69,2.09.65ZM158.2,135l-.23-.7c.7-.22,1.39-.45,2.08-.69l.23.7Zm-119.12-.63c-.7-.23-1.39-.48-2.08-.72l.25-.69,2.06.72Zm123.27-.79-.25-.69c.7-.25,1.38-.5,2.05-.76l.26.68-2.06.76Zm-127.41-.69-2-.8.28-.68,2,.79ZM166.46,132l-.28-.68c.69-.27,1.36-.55,2-.83l.29.67C167.82,131.45,167.14,131.73,166.46,132Zm-135.6-.76c-.68-.29-1.35-.58-2-.88l.3-.66,2,.87Zm139.64-1-.3-.67,2-.92.32.66c-.68.36-1.34.69-2,1ZM26.85,129.4c-.67-.31-1.32-.64-2-1l.33-.66,2,1Zm147.62-1.06-.33-.65,1.93-1,.35.64Zm-151.54-.92c-.66-.35-1.3-.71-1.93-1.06l.37-.64c.62.36,1.26.71,1.9,1.06Zm155.41-1.17-.37-.64c.64-.36,1.26-.73,1.88-1.11l.38.62c-.62.42-1.23.8-1.89,1.17Zm-159.23-1c-.63-.39-1.25-.78-1.86-1.18l.4-.61c.6.39,1.21.78,1.84,1.16Zm163-1.3-.4-.61c.62-.41,1.21-.82,1.8-1.23l.42.6c-.62.45-1.22.86-1.85,1.29ZM15.43,122.86c-.61-.43-1.2-.86-1.78-1.3l.45-.59c.57.44,1.15.87,1.75,1.29Zm170.24-1.43-.44-.58c.58-.45,1.15-.91,1.69-1.36l.47.56c-.55.46-1.13,1-1.72,1.38ZM11.93,120.18c-.58-.47-1.13-1-1.67-1.44l.5-.54a20.1,20.1,0,0,0,1.64,1.42Zm177.12-1.59-.5-.54c.54-.5,1.07-1,1.56-1.51l.53.52q-.76.76-1.59,1.53ZM8.67,117.21c-.53-.53-1-1.07-1.51-1.61l.55-.49c.46.53,1,1.06,1.48,1.58Zm183.47-1.77-.55-.49c.48-.55.94-1.11,1.37-1.67l.58.45C193.1,114.3,192.63,114.87,192.14,115.44ZM5.75,113.9c-.46-.6-.9-1.2-1.3-1.79l.61-.41c.39.58.81,1.17,1.27,1.75Zm189.08-2-.62-.4c.41-.61.78-1.23,1.12-1.84l.64.35c-.35.65-.73,1.29-1.14,1.91ZM3.29,110.22a21.94,21.94,0,0,1-1-2l.67-.3a16.76,16.76,0,0,0,1,1.92ZM197,108l-.67-.29c.29-.66.55-1.34.77-2l.7.23ZM1.48,106.18a19.87,19.87,0,0,1-.61-2.13l.71-.17a21,21,0,0,0,.59,2.06Zm196.85-2.35-.71-.16c.15-.69.26-1.41.34-2.11l.72.08A17.83,17.83,0,0,1,198.33,103.83ZM.5,101.86a20.7,20.7,0,0,1-.14-2.23H1.1a19.05,19.05,0,0,0,.12,2.14Zm197.56-2.44a19.22,19.22,0,0,0-.14-2.14l.73-.09a20.7,20.7,0,0,1,.14,2.23ZM1.21,97.49l-.73-.08a20,20,0,0,1,.36-2.19l.72.16A18.94,18.94,0,0,0,1.21,97.49Zm196.34-2.32a18.64,18.64,0,0,0-.6-2.06l.7-.24c.24.7.44,1.42.61,2.14ZM2.13,93.32l-.69-.24c.23-.68.5-1.38.8-2.06l.67.29Q2.48,92.32,2.13,93.32Zm194-2.2a16.82,16.82,0,0,0-1-1.92l.63-.36a20.72,20.72,0,0,1,1,2ZM3.88,89.39,3.24,89c.34-.62.73-1.26,1.15-1.89l.61.41C4.59,88.16,4.21,88.78,3.88,89.39Zm190.16-2c-.39-.58-.82-1.17-1.27-1.75l.57-.45c.46.59.9,1.2,1.31,1.79ZM6.26,85.79l-.58-.44c.44-.57.91-1.15,1.41-1.71l.55.48C7.15,84.68,6.69,85.24,6.26,85.79ZM191.38,84c-.48-.53-1-1-1.49-1.57l.52-.52c.53.53,1,1.07,1.51,1.61ZM9.11,82.54,8.59,82q.77-.77,1.59-1.53l.5.54C10.13,81.53,9.61,82,9.11,82.54Zm179.21-1.65c-.53-.48-1.07-1-1.64-1.42l.46-.57c.58.48,1.14,1,1.67,1.45Zm-176-1.28L11.84,79c.56-.46,1.13-.92,1.73-1.37l.44.58-1.7,1.4ZM185,78.12c-.56-.43-1.15-.86-1.75-1.29l.42-.59c.61.42,1.2.86,1.78,1.3ZM15.76,77l-.42-.6c.59-.42,1.2-.83,1.82-1.24l.4.61A20.5,20.5,0,0,0,15.76,77Zm165.66-1.35c-.6-.39-1.22-.78-1.85-1.16l.39-.62q.94.57,1.86,1.17Zm-162-1L19,73.94c.61-.38,1.25-.76,1.89-1.12l.36.63Zm158.3-1.22-1.91-1,.34-.64c.66.35,1.3.7,1.93,1.06Zm-154.52-1-.35-.64c.67-.35,1.33-.68,2-1l.33.65a16.06,16.06,0,0,0-2,1Zm150.67-1.1-2-1,.32-.66c.67.31,1.33.64,2,1Zm-146.8-.91-.31-.66,2-.92.3.66Zm142.84-1c-.66-.3-1.32-.59-2-.87l.29-.68c.68.29,1.35.58,2,.88ZM31.05,68.63,30.76,68l2-.84.27.68Zm134.84-.91-2-.8.26-.68c.69.26,1.37.53,2,.8ZM35.1,67l-.26-.68,2.06-.77.25.69Zm126.71-.83-2.07-.72.24-.69,2.07.72Zm-122.6-.65L39,64.83c.69-.24,1.39-.47,2.09-.69l.22.69Zm118.46-.75c-.69-.22-1.38-.44-2.09-.65l.22-.7,2.09.65Zm-114.3-.59-.22-.7,2.11-.63.2.7Zm110.12-.68-2.1-.59.19-.71,2.11.59ZM47.57,63l-.2-.7,2.12-.57.19.71Zm101.71-.61-2.12-.53.17-.71,2.13.53ZM51.8,61.87l-.18-.71,2.14-.51.16.72Zm93.2-.55-2.14-.48.16-.71,2.14.47Zm-89-.43-.15-.72L58,59.72l.14.72Zm84.7-.49c-.71-.15-1.42-.29-2.14-.42l.14-.72,2.15.42ZM60.34,60l-.14-.72,2.16-.4.13.72Zm76.12-.44-2.16-.37.12-.72,2.17.37Zm-71.82-.33-.12-.72,2.17-.35.11.72Zm67.51-.38-2.15-.3.11-.73c.72.11,1.45.21,2.17.33ZM69,58.58l-.1-.73,2.17-.3.1.73Zm58.86-.33L125.65,58l.09-.73,2.17.28ZM73.3,58l-.09-.72L75.39,57l.08.72Zm50.18-.27-2.18-.23.07-.72,2.19.22Zm-45.84-.2-.07-.73,2.18-.21.07.73C79.09,57.38,78.37,57.45,77.64,57.53Zm41.49-.23L117,57.12v-.73l2.19.18ZM82,57.14l-.06-.73,2.19-.17.05.73ZM114.77,57l-2.19-.14v-.73l2.18.14Zm-28.41-.13v-.73L88.51,56v.73Zm24-.12-2.18-.1v-.73l2.2.1Zm-19.67-.09v-.73l2.19-.08v.74Zm15.3-.08H103.8v-.73l2.19,0Zm-10.93,0v-.73h2.2v.73Zm6.56,0H99.47v-.73h2.19Z" transform="translate(0 0)"/><path class="fbb676b1-810b-4751-9b04-30c7d7fba057" d="M99.74,198.79v-.73a19.06,19.06,0,0,0,2.14-.14l.09.73A20.7,20.7,0,0,1,99.74,198.79Zm-2.22-.11a18.3,18.3,0,0,1-2.2-.35l.16-.71c.7.15,1.41.26,2.11.34Zm6.63-.42-.17-.71a20.08,20.08,0,0,0,2-.55l.24.7A21.45,21.45,0,0,1,104.15,198.26Zm-11-.51c-.69-.23-1.39-.5-2.07-.8l.3-.67c.66.29,1.33.55,2,.77Zm15.16-.93-.31-.66a19.58,19.58,0,0,0,1.92-1l.36.63a16.39,16.39,0,0,1-1.94,1ZM89.12,196c-.63-.35-1.27-.73-1.89-1.15l.4-.61c.61.4,1.23.78,1.85,1.12Zm23.07-1.32-.41-.61c.59-.39,1.18-.82,1.75-1.27l.45.57c-.58.43-1.19.87-1.79,1.28Zm-26.76-1.11c-.57-.44-1.15-.91-1.71-1.4l.48-.56c.55.49,1.12.95,1.67,1.38ZM115.67,192l-.48-.55c.52-.46,1-1,1.58-1.49l.51.52c-.53.56-1.07,1-1.61,1.49Zm-33.57-1.3c-.52-.5-1-1-1.54-1.58l.54-.5c.5.54,1,1.06,1.51,1.56Zm36.71-1.81-.55-.5a20.1,20.1,0,0,0,1.42-1.64l.57.47-1.44,1.64Zm-39.7-1.43c-.47-.55-.93-1.13-1.38-1.72l.58-.45c.45.59.9,1.15,1.36,1.7Zm42.51-2L121,185c.43-.57.86-1.16,1.28-1.76l.6.42C122.49,184.25,122.06,184.85,121.62,185.42Zm-45.2-1.52c-.42-.59-.84-1.2-1.25-1.82l.61-.4,1.23,1.8Zm47.73-2.08-.61-.4c.39-.6.78-1.21,1.16-1.84l.63.38c-.39.63-.78,1.25-1.18,1.86ZM74,180.23c-.38-.62-.75-1.25-1.12-1.89l.63-.37c.37.64.74,1.26,1.11,1.87Zm52.46-2.17-.64-.36a20.42,20.42,0,0,0,1-1.91l.65.35c-.31.65-.67,1.29-1,1.92ZM71.8,176.41c-.34-.63-.67-1.28-1-1.95l.66-.33c.33.66.67,1.3,1,1.94Zm56.73-2.22-.65-.33c.32-.65.64-1.3,1-2l.67.31c-.33.71-.65,1.37-1,2Zm-58.72-1.7c-.31-.65-.62-1.32-.92-2l.66-.3.92,2Zm60.61-2.28-.67-.29.87-2,.67.29c-.29.67-.59,1.34-.88,2ZM68,168.49l-.84-2,.68-.28c.28.68.56,1.36.84,2Zm64.13-2.32-.68-.28c.27-.67.53-1.34.79-2l.69.26c-.28.66-.54,1.34-.81,2Zm-65.77-1.76c-.26-.68-.51-1.36-.76-2.06l.69-.25c.25.69.5,1.38.76,2.05Zm67.32-2.35-.69-.25c.25-.68.49-1.37.72-2.06l.7.23c-.25.7-.49,1.39-.74,2.08Zm-68.81-1.78c-.23-.69-.47-1.38-.69-2.09l.69-.22q.34,1,.69,2.07Zm70.22-2.38-.69-.23c.22-.69.44-1.38.65-2.08l.7.21c-.21.71-.44,1.41-.67,2.1Zm-71.57-1.8c-.21-.69-.43-1.4-.63-2.1l.7-.21.63,2.1Zm72.85-2.4-.7-.21c.2-.69.39-1.39.59-2.1l.7.19-.6,2.12Zm-74.08-1.82c-.19-.7-.38-1.41-.56-2.12l.71-.18c.18.71.37,1.41.56,2.11Zm75.23-2.42-.7-.18c.18-.7.35-1.41.53-2.12l.71.17c-.19.67-.36,1.43-.55,2.13Zm-76.33-1.83-.51-2.13.72-.17c.16.72.33,1.43.5,2.13Zm77.37-2.44-.71-.16c.16-.71.32-1.42.47-2.13l.72.15ZM60.2,143.36c-.16-.72-.31-1.43-.46-2.15l.72-.15.45,2.14Zm79.28-2.46-.72-.14.42-2.15.72.14Zm-80.16-1.84c-.14-.72-.27-1.44-.4-2.16l.72-.13c.13.72.26,1.44.4,2.15Zm81-2.47-.72-.13c.13-.71.25-1.43.37-2.15l.72.12c-.15.72-.27,1.44-.4,2.16Zm-81.75-1.85c-.12-.72-.23-1.45-.35-2.17l.73-.11c.11.72.22,1.44.34,2.15ZM141,132.26l-.72-.11c.11-.72.21-1.44.32-2.16l.72.1C141.23,130.82,141.12,131.54,141,132.26ZM57.87,130.4c-.11-.72-.2-1.45-.3-2.17l.72-.1c.1.72.2,1.45.3,2.16Zm83.76-2.48-.73-.1c.1-.72.19-1.44.28-2.17l.72.09Zm-84.34-1.87c-.09-.72-.17-1.45-.25-2.18l.73-.08c.08.73.16,1.45.25,2.17Zm84.86-2.49-.73-.08c.08-.72.16-1.45.23-2.18l.73.08c-.07.73-.15,1.45-.23,2.18Zm-85.34-1.87-.21-2.19.73-.06c.06.73.13,1.45.21,2.17Zm85.77-2.5-.72-.06L142,117l.73.06c0,.68-.08,1.41-.15,2.13Zm-86.17-1.87c0-.73-.11-1.46-.16-2.19H57c.05.73.11,1.46.16,2.18Zm86.52-2.5h-.73c.05-.73.09-1.45.13-2.18h.73c-.06.72-.06,1.45-.13,2.18Zm-86.82-1.88L56,110.75h.73l.12,2.19Zm87.07-2.5h-.73l.09-2.18h.73c0,.74-.06,1.45-.09,2.18Zm-87.29-1.88c0-.73,0-1.46-.07-2.19h.73c0,.74.05,1.46.08,2.19Zm87.46-2.51h-.73v-2.18h.73c0,.72,0,1.46,0,2.18Zm-87.59-1.88V102h.73v2.19Zm87.67-2.5h-.73V99.48h.73v.11c0,.69,0,1.41,0,2.08Zm-87-1.88H55.7V97.38h.73v2.41Zm86.25-2.5V95.1h.74v2.19ZM56.49,95.2h-.73c0-.73,0-1.46.05-2.19h.73C56.52,93.74,56.5,94.47,56.49,95.2Zm86.12-2.28c0-.73-.05-1.46-.07-2.19h.73c0,.73,0,1.46.07,2.2Zm-86-2.09h-.73c0-.73.06-1.46.09-2.19h.73Zm85.82-2.28c0-.73-.07-1.46-.12-2.19H143c0,.73.08,1.46.12,2.19Zm-85.6-2.09H56.1c0-.73.09-1.46.14-2.19H57C56.92,85,56.87,85.73,56.83,86.46Zm85.35-2.28c-.05-.73-.1-1.45-.16-2.18l.73-.06c.06.73.11,1.46.16,2.19ZM57.13,82.1,56.4,82l.18-2.18.73.06Zm84.71-2.28-.21-2.17.73-.08.21,2.19ZM57.51,77.75l-.72-.08c.07-.73.14-1.45.22-2.18l.73.08C57.66,76.29,57.59,77,57.51,77.75Zm83.89-2.28c-.08-.73-.16-1.45-.25-2.17l.73-.09c.08.73.17,1.45.25,2.18ZM58,73.4l-.72-.09c.08-.73.18-1.45.27-2.17l.73.09C58.17,72,58.08,72.67,58,73.4Zm82.89-2.27-.3-2.16.72-.11c.11.72.2,1.45.3,2.18ZM58.56,69.07,57.84,69c.1-.73.21-1.45.32-2.17l.72.11C58.77,67.62,58.67,68.34,58.56,69.07Zm81.69-2.27c-.11-.72-.22-1.44-.34-2.16l.72-.12c.12.72.24,1.44.35,2.17Zm-81-2.06-.72-.12c.12-.72.24-1.44.37-2.16l.72.13c-.15.71-.27,1.41-.39,2.15Zm80.31-2.25c-.13-.72-.27-1.44-.4-2.15l.72-.14c.14.72.27,1.44.4,2.16ZM60,60.44l-.72-.14.42-2.15.72.15C60.27,59,60.13,59.72,60,60.44Zm78.72-2.24-.45-2.14.71-.16c.16.71.31,1.43.45,2.15Zm-77.85-2-.72-.2c.16-.72.31-1.43.48-2.14l.71.16c-.16.71-.34,1.42-.47,2.14ZM137.79,54c-.16-.72-.33-1.43-.5-2.13l.71-.17c.17.7.34,1.41.5,2.13ZM61.84,52l-.71-.18.54-2.13.71.19c-.19.63-.38,1.33-.54,2Zm74.91-2.22c-.18-.71-.37-1.41-.56-2.11l.71-.2c.19.71.38,1.41.56,2.13Zm-73.82-2-.7-.2c.19-.71.39-1.41.59-2.11l.7.2c-.2.62-.39,1.36-.59,2Zm72.67-2.21c-.2-.7-.41-1.4-.62-2.09l.7-.21c.21.69.42,1.39.62,2.1Zm-71.45-2-.7-.22c.21-.7.43-1.4.65-2.09l.7.22c-.22.62-.44,1.32-.65,2Zm70.17-2.18c-.22-.7-.45-1.39-.68-2.08l.69-.23.69,2.08Zm-68.83-2-.7-.24c.24-.7.48-1.39.73-2.07l.69.25c-.21.63-.49,1.31-.72,2Zm67.43-2.16c-.25-.69-.51-1.37-.76-2l.68-.26c.26.68.51,1.37.76,2.06ZM67,35.2l-.68-.26c.26-.69.52-1.37.8-2l.67.27A15.27,15.27,0,0,0,67,35.2Zm64.4-2.13c-.27-.68-.55-1.35-.83-2l.67-.28c.29.66.57,1.34.84,2ZM68.59,31.15l-.68-.29c.29-.68.59-1.35.88-2l.67.3C69.17,29.8,68.87,30.47,68.59,31.15Zm61.06-2.1c-.3-.67-.6-1.33-.91-2l.66-.31c.31.65.62,1.32.92,2ZM70.38,27.17l-.67-.32c.32-.67.64-1.33,1-2l.65.33C71,25.85,70.69,26.5,70.38,27.17Zm57.4-2.05-1-1.94.64-.34c.34.63.68,1.28,1,1.94ZM72.34,23.27l-.64-.34c.35-.66.7-1.3,1.06-1.93l.64.37C73,22,72.69,22.62,72.34,23.27Zm53.37-2c-.37-.64-.74-1.27-1.12-1.88l.63-.38c.38.62.75,1.25,1.12,1.89Zm-51.2-1.79-.63-.38c.39-.64.78-1.26,1.18-1.86l.61.4c-.39.61-.78,1.22-1.16,1.85Zm48.92-1.93c-.41-.61-.82-1.21-1.23-1.79l.6-.43c.42.59.83,1.2,1.24,1.82Zm-46.54-1.7-.59-.42c.43-.61.86-1.2,1.3-1.78l.58.44C77.75,14.66,77.32,15.25,76.89,15.85Zm44-1.84c-.45-.58-.9-1.15-1.36-1.69l.57-.47c.46.55.92,1.13,1.37,1.72ZM79.54,12.39,79,11.93c.48-.58,1-1.13,1.45-1.67l.54.5C80.48,11.28,80,11.83,79.54,12.39Zm38.58-1.71q-.74-.81-1.5-1.56l.51-.52q.78.75,1.53,1.59ZM82.46,9.19,82,8.67c.53-.53,1.07-1,1.61-1.51l.48.55C83.52,8.17,83,8.67,82.46,9.19ZM115,7.64c-.54-.48-1.11-.95-1.66-1.38l.44-.58c.57.44,1.15.92,1.71,1.41ZM85.71,6.33l-.45-.58c.59-.46,1.19-.9,1.79-1.3l.41.61C86.87,5.45,86.28,5.88,85.71,6.33ZM111.61,5c-.61-.41-1.23-.78-1.84-1.12l.36-.64c.62.34,1.26.73,1.89,1.15ZM89.3,3.93l-.36-.64a21.94,21.94,0,0,1,2-1l.3.67A20.64,20.64,0,0,0,89.3,3.93Zm18.54-1c-.66-.29-1.33-.55-2-.78l.23-.69a20.15,20.15,0,0,1,2.07.81ZM93.21,2.17,93,1.48c.69-.24,1.4-.44,2.11-.61l.17.71C94.59,1.74,93.89,1.94,93.21,2.17Zm10.57-.61c-.7-.15-1.41-.27-2.12-.35l.08-.73a20.61,20.61,0,0,1,2.2.37Zm-6.39-.34L97.3.5A18.41,18.41,0,0,1,99.53.37V1.1A19.05,19.05,0,0,0,97.39,1.22Z" transform="translate(0 0)"/><path class="fbb676b1-810b-4751-9b04-30c7d7fba057" d="M70.35,192.78V192a17.72,17.72,0,0,0,2.15-.16l.08.73C71.82,192.7,71.07,192.75,70.35,192.78Zm-2.22,0c-.75-.05-1.5-.14-2.21-.26l.12-.72c.71.12,1.42.2,2.13.25Zm6.62-.48-.14-.72c.69-.14,1.39-.3,2.1-.5l.19.71c-.72.21-1.44.33-2.15.47Zm-11-.28a20.08,20.08,0,0,1-2.1-.73l.28-.68a19.77,19.77,0,0,0,2,.71ZM79,191.09l-.24-.69c.67-.23,1.36-.49,2-.76l.28.67Q80,190.75,79,191.09Zm-19.38-.8c-.65-.36-1.28-.76-1.89-1.18l.42-.6A19.45,19.45,0,0,0,60,189.64Zm23.47-.86-.31-.67c.64-.3,1.29-.62,1.94-1l.34.65c-.65.38-1.31.71-2,1ZM56,187.73a19.39,19.39,0,0,1-1.6-1.54l.53-.5c.5.53,1,1,1.55,1.49Zm31-.36-.36-.63c.61-.36,1.23-.73,1.86-1.13l.39.62Q87.95,186.83,87,187.37ZM90.73,185l-.42-.6c.6-.41,1.19-.82,1.78-1.26l.44.6C91.92,184.19,91.33,184.62,90.73,185Zm-37.79-.51c-.45-.56-.89-1.17-1.31-1.79l.61-.41c.41.61.84,1.2,1.27,1.75Zm41.34-2.08-.44-.57c.57-.44,1.13-.9,1.7-1.36L96,181c-.58.49-1.15,1-1.73,1.39Zm-43.81-1.6a15.54,15.54,0,0,1-1-2l.66-.32c.33.66.67,1.3,1,1.91Zm47.22-1.18-.48-.55c.55-.47,1.09-1,1.64-1.45l.49.55q-.82.76-1.65,1.47Zm-49.17-2.78c-.28-.67-.55-1.35-.8-2.06l.69-.25c.25.69.51,1.37.79,2Zm52.44-.16-.51-.54c.53-.49,1-1,1.57-1.51l.52.52Zm3.13-3.09-.52-.51,1.51-1.57.53.5c-.51.56-1,1.09-1.52,1.6ZM47,172.72c-.21-.69-.41-1.4-.61-2.12l.71-.19c.19.71.39,1.41.6,2.09Zm60.09-2.29-.54-.5c.48-.53,1-1.07,1.45-1.63l.55.49c-.47.55-1,1.1-1.45,1.64Zm-61.22-2c-.16-.7-.31-1.42-.45-2.15l.72-.14c.14.72.28,1.43.44,2.13Zm64.13-1.3-.56-.48c.47-.55.94-1.11,1.4-1.67l.57.46Zm-64.95-3c-.11-.72-.22-1.44-.31-2.18l.73-.09c.09.73.19,1.44.3,2.15Zm67.74-.41-.57-.45,1.35-1.72.58.45Zm2.69-3.47-.59-.44c.44-.58.87-1.16,1.3-1.75l.6.43c-.44.6-.87,1.19-1.31,1.77Zm-71-.49c-.07-.72-.14-1.45-.19-2.19l.73,0c0,.73.12,1.45.19,2.17Zm73.58-3-.6-.43,1.26-1.78.6.41c-.41.62-.83,1.22-1.25,1.81Zm-73.91-1.33c0-.73-.07-1.46-.09-2.2h.73c0,.73.05,1.46.09,2.18Zm76.41-2.28-.61-.41c.41-.6.81-1.21,1.21-1.82l.61.4c-.39.63-.77,1.24-1.2,1.84ZM44,151v-2.24h.73V151Zm79-1.56-.61-.39c.39-.61.78-1.23,1.16-1.85l.63.39C123.76,148.21,123.37,148.83,123,149.44Zm-78.16-2.82h-.73c0-.72,0-1.45.08-2.19h.73c-.06.75-.09,1.47-.11,2.19Zm80.49-.9-.63-.38c.38-.62.75-1.25,1.13-1.88l.62.37c-.4.64-.78,1.26-1.15,1.89ZM45,142.26h-.73c0-.72.1-1.45.16-2.19l.73.06C45.11,140.81,45.06,141.54,45,142.26Zm82.52-.32-.63-.36,1.08-1.9.64.36c-.35.63-.71,1.27-1.08,1.9Zm2.16-3.82-.65-.36c.35-.63.7-1.27,1-1.92l.65.35Zm-84.32-.21-.73-.07c.07-.73.15-1.45.23-2.19l.73.09c-.08.72-.15,1.45-.22,2.17Zm86.39-3.66-.65-.34,1-1.94.65.33Zm-85.91-.68-.72-.1c.09-.72.19-1.44.29-2.17l.72.1c-.13.73-.19,1.45-.28,2.17Zm87.9-3.23-.66-.33,1-2,.65.32Zm-87.29-1.1-.72-.11c.11-.72.23-1.44.35-2.17l.72.12c-.11.72-.22,1.44-.34,2.16Zm89.2-2.85-.66-.31c.31-.66.62-1.32.92-2l.67.3Zm-88.47-1.46-.72-.13c.13-.72.26-1.43.41-2.16l.71.14-.39,2.15Zm90.31-2.52-.67-.3c.29-.67.59-1.33.88-2l.67.29ZM48,120.64l-.71-.15c.14-.71.3-1.43.45-2.14l.72.15C48.32,119.22,48.17,119.93,48,120.64Zm91.23-2.25-.67-.29.84-2V116l.68.28v.11c-.26.61-.54,1.33-.83,2Zm-90.29-2-.71-.16c.16-.71.33-1.43.51-2.14l.71.17Zm92-2.14-.68-.27.81-2,.68.27Zm-91-2.11-.71-.18c.18-.7.36-1.41.55-2.12l.71.19c-.13.69-.31,1.39-.49,2.09Zm92.57-2-.68-.26c.25-.69.51-1.37.76-2l.69.25c-.19.65-.45,1.33-.71,2ZM51.13,107.9l-.71-.2.6-2.11.71.21Q51.42,106.85,51.13,107.9Zm93-1.87-.69-.25c.25-.69.49-1.37.73-2.06l.69.24c-.28.69-.52,1.38-.77,2ZM52.35,103.7l-.7-.21c.21-.7.42-1.4.64-2.1l.7.22C52.77,102.31,52.56,103,52.35,103.7Zm93.18-1.81-.7-.24.69-2.07.69.22C146,100.5,145.76,101.19,145.53,101.89ZM53.66,99.53,53,99.3c.22-.69.45-1.38.69-2.08l.69.23C54.11,98.15,53.88,98.84,53.66,99.53Zm93.22-1.82-.7-.22c.22-.69.43-1.39.64-2.09l.71.22C147.32,96.31,147.1,97,146.88,97.71ZM55.05,95.38l-.69-.24c.23-.68.48-1.37.73-2.06l.69.24C55.53,94,55.29,94.7,55.05,95.38Zm93.1-1.87-.71-.2c.21-.7.41-1.41.6-2.1l.71.19ZM56.52,91.27,55.83,91c.26-.69.51-1.37.78-2.06l.68.26C57,89.9,56.77,90.59,56.52,91.27Zm92.81-2-.71-.19c.19-.71.37-1.42.55-2.12l.71.18c-.18.73-.36,1.44-.55,2.15ZM58.08,87.18l-.68-.27c.26-.67.53-1.35.81-2l.67.27C58.61,85.83,58.34,86.51,58.08,87.18ZM150.41,85l-.71-.17.51-2.13.71.17Q150.68,84,150.41,85ZM59.73,83l-.7-.22v-.07c.27-.65.55-1.3.82-2l.68.29c-.25.76-.53,1.42-.8,2.07Zm91.67-2.31-.71-.16c.15-.71.31-1.43.45-2.14l.72.15c-.15.79-.3,1.46-.46,2.22ZM61.4,79l-.67-.29c.29-.67.59-1.34.89-2l.67.3c-.29.73-.58,1.39-.87,2.06Zm90.87-2.64-.72-.14c.14-.72.28-1.43.41-2.15l.72.14c-.11.76-.25,1.5-.39,2.22ZM63.21,75.11l-.66-.3c.3-.67.61-1.33.92-2l.66.31Zm89.87-3-.73-.12c.12-.72.24-1.44.35-2.16l.72.12c-.11.75-.22,1.47-.34,2.19Zm-88-1-.66-.32,1-2,.66.32Zm88.67-3.36-.73-.1c.1-.72.2-1.44.29-2.16l.73.09c0,.77-.19,1.5-.29,2.22ZM67,67.24l-.65-.33c.33-.66.67-1.31,1-2l.64.34Zm87.28-3.79-.73-.08c.08-.73.15-1.45.22-2.17l.73.07c-.05.73-.12,1.45-.2,2.18ZM69,63.36,68.4,63l1-1.93.65.35c-.31.66-.66,1.3-1,1.94Zm2.1-3.83-.64-.36c.36-.64.72-1.27,1.09-1.9l.63.36Zm83.57-.45L154,59c.06-.73.11-1.46.16-2.18h.73c-.06.79-.11,1.52-.17,2.26ZM73.33,55.74l-.63-.37c.38-.63.75-1.26,1.13-1.88l.63.38Zm81.67-1h-.73c0-.73.06-1.46.08-2.18h.73c0,.67-.08,1.44-.08,2.14ZM75.6,52l-.6-.38,1.17-1.86.62.4Zm79.53-1.71h-.74V48.1h.73v2.2ZM78,48.32l-.62-.4,1.22-1.83.61.41A19.79,19.79,0,0,0,78,48.32Zm76.39-2.39a17.58,17.58,0,0,0-.09-2.18H155l.09,2.2Zm-74-1.23-.6-.42q.61-.9,1.26-1.8l.59.43C81.23,43.5,80.81,44.1,80.4,44.7Zm73.72-3.12c-.05-.74-.12-1.46-.19-2.18l.73-.07c.07.72.14,1.45.19,2.19Zm-71.19-.44-.59-.44c.43-.59.87-1.18,1.31-1.76l.58.44C83.8,40,83.36,40.54,82.93,41.14Zm2.63-3.5L85,37.19l1.35-1.72.58.46C86.46,36.49,86,37.06,85.56,37.64Zm68.12-.4c-.09-.73-.19-1.45-.31-2.16l.73-.11c.11.71.21,1.44.31,2.17Zm-65.4-3-.57-.47,1.41-1.68.56.47c-.47.54-.93,1.1-1.4,1.67ZM153,32.94c-.14-.73-.29-1.44-.45-2.14l.72-.16q.24,1.07.45,2.16Zm-61.89-2-.55-.49c.48-.55,1-1.1,1.46-1.64l.54.5c-.48.49-1,1-1.45,1.59ZM152,28.69c-.19-.71-.39-1.4-.6-2.09l.7-.21c.21.69.42,1.39.61,2.11Zm-58-1-.53-.5c.51-.54,1-1.07,1.52-1.58l.52.51Zm56.69-3.11c-.25-.69-.51-1.37-.79-2l.67-.28c.29.67.56,1.35.81,2.05Zm-53.64,0L96.58,24l1.58-1.53.51.53c-.53.52-1,1-1.58,1.54Zm3.18-3L99.78,21c.55-.5,1.09-1,1.64-1.46l.48.56c-.54.47-1.09.95-1.63,1.44Zm48.77-1c-.32-.66-.67-1.3-1-1.91l.63-.36a18.83,18.83,0,0,1,1,2ZM103.57,18.7l-.46-.57c.57-.47,1.15-.93,1.72-1.37l.45.58C104.71,17.78,104.14,18.23,103.57,18.7Zm43.32-1.9c-.41-.61-.84-1.19-1.28-1.74l.58-.46c.44.57.88,1.17,1.3,1.79ZM107,16l-.44-.59,1.8-1.27.42.6C108.21,15.18,107.61,15.59,107,16Zm3.6-2.45-.4-.62c.63-.4,1.26-.78,1.89-1.15l.36.64c-.59.39-1.21.76-1.83,1.16Zm33.58-.15a20,20,0,0,0-1.56-1.49l.49-.55c.54.48,1.08,1,1.6,1.54Zm-29.82-2-.35-.65c.66-.35,1.32-.68,2-1l.31.66c-.65.31-1.32.64-1.94,1ZM141,10.62a19,19,0,0,0-1.82-1.13l.35-.64A18.29,18.29,0,0,1,141.37,10ZM118.3,9.54l-.3-.67c.68-.28,1.38-.55,2.06-.79l.24.7C119.66,9,119,9.27,118.3,9.54Zm18.89-1a17.59,17.59,0,0,0-2-.71l.2-.7a19.47,19.47,0,0,1,2.11.73ZM122.4,8.13l-.2-.7c.72-.2,1.44-.38,2.15-.52l.15.72C123.81,7.77,123.1,7.94,122.4,8.13Zm10.66-.74a19,19,0,0,0-2.13-.24V6.41a13.61,13.61,0,0,1,2.21.26Zm-6.43-.11-.09-.72c.74-.09,1.49-.15,2.21-.18v.74C128.07,7.14,127.35,7.19,126.63,7.28Z" transform="translate(0 0)"/><path class="fbb676b1-810b-4751-9b04-30c7d7fba057" d="M150,155.13h-1.19v-.73H151v.73Zm3.21,0v-.74a17.5,17.5,0,0,0,2.18-.09V155Zm-6.59,0-2.2-.08v-.73l2.18.08Zm-4.39-.2-2.19-.16.06-.73,2.17.16Zm15.36,0v-.73c.73-.06,1.46-.12,2.17-.2l.08.73c-.73,0-1.47.07-2.21.13Zm-19.74-.34-2.18-.22.08-.73,2.17.23Zm24.12-.11-.09-.73c.73-.09,1.45-.19,2.16-.31l.11.73c-.68,0-1.4.15-2.15.24ZM133.53,154l-2.18-.29.1-.73,2.17.29Zm32.83-.32-.14-.72q1.08-.21,2.13-.45l.16.72c-.7.2-1.42.35-2.15.49Zm-37.18-.29L127,153l.13-.73c.72.13,1.44.24,2.15.35Zm41.47-.69-.19-.71c.71-.19,1.41-.39,2.09-.6l.22.7c-.69.25-1.4.46-2.12.65Zm-45.8,0-2.16-.41.14-.72L125,152Zm-4.31-.84-2.14-.46.15-.71,2.14.45Zm54.32-.44-.25-.69c.69-.25,1.37-.51,2-.79l.29.68c-.65.28-1.34.55-2,.8Zm-58.6-.5-2.14-.51.18-.71,2.12.51Zm-4.27-1-2.12-.55.19-.71,2.11.55Zm66.94-.18-.32-.66c.65-.32,1.3-.66,1.91-1l.36.63c-.62.29-1.28.66-1.95,1Zm-71.18-1-2.11-.6.21-.71,2.1.6Zm-4.21-1.23-2.09-.64.21-.7,2.09.64Zm79.22,0-.41-.61c.61-.41,1.2-.84,1.75-1.28l.45.58c-.55.39-1.17.83-1.79,1.25Zm-83.41-1.29-2.08-.68.23-.7,2.08.69Zm-4.15-1.39-2.07-.73.24-.69,2.07.73Zm91-.09-.5-.53c.52-.5,1-1,1.48-1.55l.56.48c-.45.49-1,1-1.51,1.54ZM91,143.4l-2-.77.26-.69,2,.77Zm-4-1.62L85,141l.27-.68,2,.81Zm102.18-.41-.6-.42a17.84,17.84,0,0,0,1.13-1.82l.64.35a20.86,20.86,0,0,1-1.21,1.89ZM82.9,140.14h-.11l-2-.85.29-.67,2,.84.11,0Zm-4.14-1.76-2-.89.3-.66,2,.88Zm112.51-.91-.68-.28a17.54,17.54,0,0,0,.7-2l.71.2A21.33,21.33,0,0,1,191.27,137.47Zm-116.52-.88-2-.93.31-.66,2,.92Zm-4-1.88-2-1,.32-.66,2,1Zm121.7-1.52-.73-.12c.12-.71.2-1.42.25-2.14h.73a14.7,14.7,0,0,1-.21,2.26Zm-125.63-.43-2-1,.34-.65,1.94,1Zm-3.89-2-1.93-1,.35-.65,1.92,1Zm129.07-2a19.62,19.62,0,0,0-.16-2.15l.72-.09c.09.74.15,1.49.17,2.21Zm-132.92-.16-1.9-1.09.36-.63,1.9,1.08Zm-3.8-2.2L53.4,125.3l.38-.63c.62.38,1.25.75,1.88,1.12Zm136.21-1.92c-.14-.69-.31-1.4-.5-2.1l.7-.2c.2.72.37,1.45.52,2.15Zm-140-.35L49.72,123l.39-.62L52,123.52Zm-3.7-2.37L46,120.57l.4-.61,1.83,1.21Zm142.51-1.45c-.23-.66-.49-1.34-.77-2l.68-.28c.29.7.55,1.39.78,2.06Zm-146.15-1-1.79-1.26.42-.6,1.79,1.26Zm-3.57-2.54-1.77-1.31.44-.59c.58.44,1.17.87,1.76,1.3Zm148.08-.47c-.31-.65-.63-1.29-1-1.94l.64-.35c.35.67.69,1.33,1,2ZM37.15,114.15l-1.73-1.36.46-.57c.56.45,1.14.9,1.72,1.35Zm149.56-1.67c-.36-.62-.73-1.24-1.13-1.86l.62-.39c.4.63.78,1.25,1.15,1.88Zm-153-1.07L32,110l.48-.56,1.67,1.4Zm150.67-2.61c-.41-.59-.83-1.19-1.26-1.78l.59-.43c.44.6.86,1.2,1.27,1.8Zm-154-.24c-.56-.48-1.1-1-1.64-1.46l.49-.54L30.85,108Zm-3.25-3c-.54-.51-1.07-1-1.59-1.52l.51-.53L27.63,105Zm154.7-.33c-.44-.57-.89-1.14-1.36-1.71l.57-.46c.47.57.92,1.15,1.37,1.72ZM24,102.54,22.45,101l.53-.51c.5.53,1,1,1.52,1.57Zm155.08-.64c-.47-.54-1-1.09-1.45-1.63l.55-.49c.49.55,1,1.1,1.45,1.65ZM21,99.34c-.5-.55-1-1.1-1.45-1.65l.55-.48c.47.55,1,1.09,1.44,1.64Zm155.17-.67c-.49-.53-1-1-1.51-1.58l.52-.51c.52.53,1,1,1.53,1.58ZM18.09,96c-.47-.58-.92-1.15-1.37-1.72l.58-.45c.44.57.89,1.13,1.36,1.7Zm155-.45c-.51-.51-1-1-1.57-1.52l.5-.53,1.56,1.5Zm-3.18-3-1.63-1.45.48-.55L170.38,92Zm-154.49,0c-.44-.6-.86-1.2-1.27-1.8l.61-.41c.4.59.82,1.18,1.25,1.78ZM166.63,89.7c-.55-.47-1.11-.93-1.68-1.4l.47-.56c.57.46,1.13.93,1.68,1.4ZM12.92,88.89q-.59-.94-1.14-1.89l.64-.37c.35.62.73,1.24,1.12,1.87Zm150.31-2-1.71-1.35L162,85c.59.45,1.16.9,1.73,1.35ZM10.71,85.08c-.34-.67-.67-1.32-1-2l.66-.31c.31.64.63,1.29,1,1.94Zm149.07-.85L158,82.93l.43-.59c.6.43,1.19.87,1.77,1.31Zm-3.53-2.58-1.79-1.25.42-.6,1.79,1.26ZM8.84,81.08c-.28-.7-.54-1.39-.77-2.07l.69-.24c.22.66.48,1.35.76,2Zm143.82-1.91L150.83,78l.41-.61c.61.4,1.22.8,1.82,1.21ZM7.41,76.9c-.2-.72-.37-1.44-.51-2.15l.72-.14c.13.68.3,1.39.5,2.1ZM149,76.77l-1.85-1.17.39-.62,1.85,1.17Zm-3.71-2.31c-.62-.38-1.25-.75-1.88-1.12l.38-.63,1.88,1.12ZM6.55,72.56c-.09-.74-.15-1.48-.17-2.21h.73a19.62,19.62,0,0,0,.16,2.15Zm135-.33-1.89-1.08.36-.64,1.9,1.09Zm-3.8-2.14c-.64-.35-1.28-.7-1.93-1l.35-.65,1.93,1ZM7.15,68.17H6.42A13.6,13.6,0,0,1,6.68,66l.72,0C7.28,66.72,7.2,67.44,7.15,68.17ZM133.86,68l-1.94-1,.33-.65,1.95,1ZM130,66l-2-1,.32-.66,2,1Zm-4-1.86-2-.93.3-.66,2,.92ZM7.88,63.94l-.71-.2c.21-.71.46-1.41.74-2.1l.68.28A17.91,17.91,0,0,0,7.88,63.94Zm114.18-1.63-2-.89.29-.67,2,.89Zm-4-1.75-2-.83.23-.69h0l2,.82ZM9.51,60l-.64-.35a20.56,20.56,0,0,1,1.18-1.89l.6.42A21.34,21.34,0,0,0,9.51,60ZM114,58.89l-2-.81.26-.68c.67.26,1.33.53,2,.81Zm-4.07-1.6-2-.77.25-.68,2.06.77Zm-98-.82-.5-.47A19.88,19.88,0,0,1,13,54.39l.5.53A14.49,14.49,0,0,0,12,56.47Zm93.85-.69-2.06-.73.24-.69,2.07.73Zm-4.13-1.44-2.07-.68.22-.7,2.09.69Zm-86.6-.83-.45-.57c.56-.45,1.17-.89,1.79-1.31l.41.61c-.56.41-1.15.83-1.7,1.27ZM97.55,53l-2.09-.64.21-.7,2.09.64Zm-4.19-1.26-2.1-.6.2-.71,2.1.6Zm-74.67-.62-.37-.64a17.76,17.76,0,0,1,2-1l.32.65a16.9,16.9,0,0,0-1.95,1Zm70.46-.56L87,50l.19-.71,2.12.56Zm-4.24-1.08L82.79,49l.16-.71,2.14.51ZM22.57,49.2l-.28-.68c.67-.28,1.35-.55,2.06-.8l.25.69C23.91,48.66,23.23,48.92,22.57,49.2Zm58.09-.72L78.52,48l.15-.72,2.14.46Zm-54-.76-.22-.7c.69-.22,1.4-.42,2.12-.61l.19.7C28,47.3,27.34,47.5,26.66,47.72Zm49.72-.12-2.15-.41.13-.72,2.16.41Zm-4.3-.79-2.16-.34.11-.73,2.17.35Zm-41.22-.22-.16-.71c.7-.16,1.42-.31,2.15-.45l.14.72C32.27,46.29,31.56,46.43,30.86,46.59Zm36.9-.44c-.73-.11-1.45-.2-2.17-.29l.09-.73,2.18.29Zm-32.63-.37L35,45.05l2.18-.31.09.73C36.56,45.56,35.84,45.67,35.13,45.78Zm28.29-.18-2.17-.23.07-.73,2.18.23Zm-24-.38-.08-.73,2.2-.19.05.73Zm19.61,0c-.73-.06-1.45-.12-2.17-.16v-.73c.73,0,1.46.1,2.19.16Zm-4.35-.29-2.19-.08v-.73l2.19.08Zm-10.91,0V44.2c.72,0,1.46-.07,2.2-.09v.73Zm6.54-.12H48.17V44h2.2Z" transform="translate(0 0)"/><path class="fbb676b1-810b-4751-9b04-30c7d7fba057" d="M48.22,155.13H46v-.73H48.2Zm2.2,0v-.74H52.6v.73Zm-6.6-.13c-.74,0-1.47-.08-2.19-.14v-.73c.72.06,1.45.1,2.18.14Zm11,0v-.73l2.18-.12v.73Zm4.38-.28-.06-.73,2.18-.2.07.73Zm-19.75,0c-.74-.07-1.47-.15-2.19-.25l.1-.72q1.06.13,2.16.24Zm24.12-.39-.08-.72,2.17-.26.09.72c-.75.05-1.47.13-2.19.21Zm-28.48-.17c-.74-.11-1.46-.24-2.17-.37L33,153c.71.13,1.42.26,2.15.37Zm32.84-.38-.11-.73c.72-.1,1.44-.2,2.16-.32l.12.73Zm-37.17-.44c-.73-.16-1.44-.34-2.14-.52l.19-.71c.69.18,1.39.36,2.11.52Zm41.5-.23-.12-.73,2.15-.37.13.72Zm4.32-.79-.14-.72,2.14-.43.15.72Zm-50.08-.11c-.71-.22-1.41-.45-2.09-.7l.25-.69c.67.24,1.36.47,2.06.69Zm54.38-.78-.16-.72,2.13-.48.17.71Zm-58.53-.72c-.69-.29-1.37-.6-2-.91l.32-.66c.63.31,1.3.61,2,.89Zm62.8-.27-.17-.71,2.12-.54.18.71Zm4.25-1.09-.19-.71,2.11-.58.2.71Zm-71-.58c-.65-.37-1.28-.76-1.88-1.16l.4-.61c.59.39,1.21.77,1.84,1.13Zm75.25-.6-.21-.71,2.1-.62.21.7Zm4.2-1.27-.22-.7,2.08-.67.23.7Zm-83.13-.59c-.59-.47-1.15-.95-1.68-1.45l.5-.53c.51.48,1.06.95,1.63,1.4Zm87.3-.77-.23-.69,2.07-.71.24.69Zm4.14-1.44-.24-.69c.68-.24,1.37-.49,2-.75l.26.69Zm-94.67-.84a21.22,21.22,0,0,1-1.38-1.75l.6-.42c.41.58.86,1.14,1.33,1.69Zm98.79-.68-.26-.68,2-.79.27.68Zm4.08-1.6-.27-.68,2-.83h.11l.27.68h-.1ZM8.9,139.58a21.94,21.94,0,0,1-1-2l.68-.28c.28.66.59,1.31.93,1.94Zm109.59-.37-.29-.68,2-.86.29.67Zm4-1.76-.3-.67,2-.9.3.66Zm4-1.84-.31-.66,2-.94.32.66Zm-119.3-.14a20.06,20.06,0,0,1-.5-2.17l.72-.13a18.78,18.78,0,0,0,.48,2.1Zm123.25-1.77-.33-.66c.66-.32,1.31-.65,2-1l.33.65Zm3.91-2-.34-.65,1.93-1,.35.65ZM6.42,131.09v-2.23h.73v.65c0,.5,0,1,0,1.5Zm131.79-1.46-.35-.64,1.91-1.06.36.63c-.63.36-1.27.72-1.92,1.07Zm3.83-2.15-.37-.64,1.89-1.1.37.63ZM7.27,126.74l-.73-.09c.08-.71.2-1.44.35-2.18l.71.14C7.46,125.33,7.35,126.05,7.27,126.74Zm138.54-1.5-.38-.63,1.86-1.14.39.62Zm3.72-2.32-.39-.62,1.83-1.19.41.61ZM8.1,122.51l-.71-.2c.2-.7.42-1.41.66-2.11l.69.24C8.5,121.12,8.29,121.82,8.1,122.51Zm145.1-2-.41-.61,1.81-1.24.41.61ZM9.5,118.41l-.68-.28c.27-.67.57-1.34.89-2l.66.31C10.06,117.09,9.77,117.75,9.5,118.41Zm147.31-.4-.43-.6,1.78-1.28.43.59Zm3.54-2.6-.44-.58c.59-.44,1.17-.89,1.74-1.33l.45.58Zm-149-.94-.65-.34c.34-.64.69-1.28,1.07-1.93l.63.37c-.4.64-.73,1.27-1.06,1.9Zm152.48-1.75-.46-.57,1.7-1.38.46.57c-.53.46-1.13.92-1.71,1.38Zm-150.31-2-.61-.39c.38-.61.78-1.23,1.2-1.84l.61.41c-.43.6-.82,1.2-1.21,1.81Zm153.7-.78-.48-.56L168.4,108l.48.55ZM16,107.11l-.59-.43c.43-.59.87-1.18,1.32-1.76l.58.44C16.82,106,16.38,106.53,16,107.11ZM170.51,107l-.5-.55c.55-.49,1.08-1,1.61-1.48l.5.53Zm3.19-3-.51-.52,1.55-1.54.52.51C174.75,103,174.23,103.49,173.7,104Zm-155.07-.35-.57-.47q.69-.84,1.41-1.68l.53.5c-.45.54-.92,1.1-1.37,1.66Zm158.15-2.78-.53-.51c.5-.53,1-1.07,1.48-1.6l.54.49c-.48.55-1,1.09-1.49,1.63Zm-155.31-.53-.55-.49,1.49-1.62.54.5c-.51.55-.95,1.08-1.48,1.62ZM179.72,97.6l-.55-.48c.48-.56.94-1.11,1.4-1.67l.56.46c-.45.57-.92,1.09-1.41,1.7ZM24.46,97.17l-.52-.51c.51-.52,1-1,1.55-1.55l.52.52C25.48,96.14,25,96.66,24.46,97.17Zm158-3-.58-.45c.45-.58.89-1.16,1.31-1.74l.59.43a18,18,0,0,1-1.28,1.79Zm-154.88,0-.5-.53c.53-.5,1.06-1,1.61-1.5l.49.55Zm3.23-2.94-.48-.55c.54-.48,1.1-1,1.66-1.44l.47.56C31.9,90.23,31.35,90.7,30.81,91.18Zm154.27-.55-.6-.41c.41-.61.81-1.21,1.19-1.82l.62.39C185.9,89.4,185.5,90,185.08,90.63ZM34.14,88.35l-.47-.56c.57-.47,1.13-.93,1.71-1.39l.46.57C35.26,87.43,34.7,87.89,34.14,88.35Zm153.29-1.44-.63-.37c.36-.64.71-1.27,1-1.9l.65.33C188.16,85.62,187.8,86.26,187.43,86.91ZM37.55,85.62,37.1,85l1.75-1.33.44.59ZM189.47,83l-.66-.31c.31-.67.6-1.33.87-2l.67.28C190.08,81.65,189.79,82.32,189.47,83ZM41.05,83l-.44-.6,1.78-1.28.43.6C42.22,82.14,41.63,82.57,41.05,83Zm3.56-2.54-.42-.6L46,78.62l.41.61Zm146.52-1.55-.7-.24c.24-.69.45-1.39.64-2.07l.71.19C191.59,77.49,191.37,78.2,191.13,78.91ZM48.23,78l-.4-.62,1.84-1.19.39.62Zm3.68-2.36L51.52,75l1.87-1.15.38.63Zm140.37-1-.72-.14c.14-.72.25-1.44.33-2.14l.73.09C192.54,73.16,192.42,73.9,192.28,74.64ZM55.65,73.39l-.38-.63,1.9-1.11.36.64Zm3.78-2.19-.36-.64L61,69.5l.35.64Zm133.35-1h-.73v-.6c0-.52,0-1-.05-1.56h.73c0,.53.06,1.07.06,1.61,0,.18,0,.35,0,.58ZM63.26,69.1l-.34-.65,1.94-1,.34.64Zm3.88-2-.33-.65,2-1,.32.66ZM191.74,66c-.13-.7-.29-1.4-.49-2.09l.7-.21a20.1,20.1,0,0,1,.51,2.17Zm-120.69-.8-.31-.66,2-1,.32.66Zm4-1.87-.31-.67,2-.91.3.67Zm115.52-1.45a20.21,20.21,0,0,0-.94-1.93l.64-.35a18.65,18.65,0,0,1,1,2ZM79,61.47l-.29-.67c.66-.3,1.34-.59,2-.87l.29.67Zm4.07-1.74-.19-.31-.09-.36c.67-.28,1.33-.55,2-.81l.28.68Zm4-1.61-.27-.68,2-.79.27.68Zm101.36,0a21.31,21.31,0,0,0-1.33-1.68l.55-.49A14.91,14.91,0,0,1,189,57.7ZM91.16,56.56l-.25-.69L93,55.12l.25.69Zm4.12-1.48L95,54.39l2.08-.71.23.7Zm90.33-.24a14.6,14.6,0,0,0-1.64-1.4l.45-.57c.59.46,1.16,1,1.69,1.44ZM99.42,53.69,99.2,53c.69-.22,1.39-.45,2.09-.66l.21.69Zm4.17-1.31-.21-.7,2.11-.63.2.71Zm78.63-.2c-.59-.39-1.21-.77-1.85-1.13l.37-.64c.65.37,1.28.76,1.88,1.16Zm-74.43-1-.2-.71,2.12-.58.19.71ZM178.46,50c-.64-.31-1.31-.6-2-.89l.28-.67c.69.28,1.37.59,2,.91ZM112,50l-.18-.7,2.13-.54.18.71Zm4.25-1-.17-.72,2.14-.48.16.71Zm58.2-.62c-.68-.24-1.36-.47-2.07-.69l.22-.7c.71.22,1.41.45,2.09.7Zm-53.93-.32-.15-.72,2.15-.43.14.71Zm4.29-.84-.13-.72,2.16-.38.12.72Zm45.48-.13c-.69-.18-1.39-.35-2.11-.51l.16-.72,2.14.52Zm-41.17-.6-.11-.72c.72-.12,1.45-.22,2.17-.33l.1.73Zm36.93-.35c-.71-.14-1.42-.26-2.15-.37L164,45c.74.12,1.46.24,2.17.38Zm-32.61-.26-.09-.73,2.18-.26.08.73c-.71.07-1.43.15-2.16.25Zm28.3-.42q-1.06-.14-2.16-.24l.07-.73c.74.07,1.47.16,2.19.25Zm-24-.07-.07-.73,2.18-.2.06.73Zm4.35-.36,0-.73,2.19-.12v.73Zm15.27,0-2.18-.14v-.73l2.19.14Zm-10.91-.21v-.73h2.2v.73Zm6.55,0h-2.18V44h2.2Z" transform="translate(0 0)"/><path class="fbb676b1-810b-4751-9b04-30c7d7fba057" d="M129.56,192.79h-.64v-.73h.62q.77,0,1.53-.06v.73C130.62,192.77,130.09,192.79,129.56,192.79Zm-2.85-.17c-.72-.08-1.46-.2-2.19-.34l.14-.72c.71.14,1.43.25,2.13.34Zm6.64-.16-.12-.72c.7-.13,1.4-.29,2.09-.49l.2.7a20.1,20.1,0,0,1-2.17.51Zm-11-.68c-.69-.19-1.4-.41-2.11-.65l.24-.69c.69.23,1.39.44,2.07.63Zm15.26-.57-.28-.68a17.19,17.19,0,0,0,1.93-.94l.36.64a21.75,21.75,0,0,1-2,1Zm-19.44-.85c-.67-.28-1.35-.57-2-.89l.3-.66c.67.31,1.34.6,2,.87ZM141.51,189l-.43-.59c.58-.42,1.15-.87,1.69-1.34l.48.55A21.07,21.07,0,0,1,141.51,189Zm-27.33-.55c-.64-.33-1.29-.69-1.93-1.06l.36-.63c.64.36,1.28.71,1.91,1Zm-3.82-2.2c-.61-.38-1.22-.79-1.84-1.2l.41-.61c.61.41,1.22.81,1.82,1.19Zm34.49-.18-.54-.5a15.38,15.38,0,0,0,1.4-1.64l.58.45a21,21,0,0,1-1.44,1.73Zm-38.13-2.29c-.59-.43-1.17-.87-1.76-1.32l.45-.58c.58.45,1.16.89,1.74,1.31Zm40.87-1.19-.61-.41c.38-.58.76-1.2,1.13-1.84l.63.36c-.37.69-.74,1.3-1.15,1.93Zm-44.36-1.5q-.84-.68-1.68-1.41l.48-.55c.55.48,1.11.94,1.67,1.4Zm46.54-2.35-.66-.32c.31-.64.61-1.3.89-2l.68.29c-.29.75-.59,1.42-.91,2.07Zm-49.87-.51-1.62-1.49.5-.53,1.61,1.48Zm-3.2-3q-.78-.76-1.56-1.56l.53-.51,1.54,1.54Zm54.78-.55-.69-.25c.24-.67.47-1.36.68-2.06l.7.21q-.33,1.11-.69,2.13Zm-57.86-2.59c-.5-.53-1-1.07-1.49-1.61l.54-.5,1.49,1.61Zm59.16-1.63-.71-.18c.18-.69.36-1.4.52-2.12l.71.16c-.16.76-.3,1.47-.52,2.17Zm-62.11-1.62c-.49-.55-1-1.1-1.44-1.66l.56-.48c.47.56.95,1.11,1.42,1.66Zm63.08-2.67L153,166c.13-.7.25-1.42.37-2.15l.72.12c-.12.76-.24,1.49-.37,2.2Zm-65.93-.68c-.46-.56-.92-1.12-1.38-1.7l.57-.46c.46.58.91,1.14,1.37,1.7Zm-2.74-3.43c-.45-.57-.89-1.15-1.33-1.74l.58-.44c.44.59.88,1.16,1.33,1.74Zm69.35-.24-.73-.09c.09-.71.17-1.44.25-2.17l.73.07c-.08.77-.16,1.5-.25,2.22Zm-72-3.26-1.29-1.78.6-.43c.42.6.85,1.19,1.28,1.78Zm72.43-1.12-.73-.05c.05-.72.09-1.44.13-2.18H155c0,.79-.07,1.54-.12,2.26Zm-75-2.46c-.42-.59-.83-1.2-1.24-1.81l.61-.41,1.23,1.81Zm75.2-1.93h-.73v-2.18h.73a20.47,20.47,0,0,1,0,2.21ZM77.4,151.34l-1.19-1.84.62-.39c.39.61.79,1.23,1.19,1.83Zm77-2.67v-2.19h.74v2.2Zm-79.32-1c-.39-.62-.77-1.24-1.15-1.87l.62-.38,1.15,1.86Zm79.19-3.35c0-.72-.08-1.45-.13-2.18h.73c0,.73.09,1.46.13,2.19Zm-81.47-.4L71.68,142l.63-.36,1.11,1.88Zm-2.2-3.8c-.36-.63-.71-1.27-1.07-1.92l.65-.35c.35.64.7,1.28,1.06,1.91ZM154,140c-.05-.73-.12-1.45-.19-2.18l.73-.07c.07.73.13,1.46.19,2.19Zm-85.49-3.7c-.35-.64-.69-1.28-1-1.93l.65-.34,1,1.93Zm85.07-.65c-.08-.72-.17-1.44-.26-2.17l.72-.09c.1.73.18,1.45.27,2.17ZM66.44,132.4l-1-2,.65-.33c.33.66.65,1.31,1,2ZM153,131.29c-.1-.71-.21-1.43-.32-2.16l.72-.11c.11.73.22,1.45.32,2.17Zm-88.51-2.82-.95-2,.66-.31c.32.66.63,1.32,1,2Zm87.84-1.5c-.12-.71-.25-1.43-.38-2.15l.72-.13c.13.72.26,1.44.38,2.16ZM62.62,124.5c-.31-.66-.61-1.33-.91-2l.66-.3.91,2Zm88.92-1.83c-.14-.71-.28-1.42-.43-2.14l.72-.15c.15.72.29,1.44.43,2.15ZM60.82,120.5c-.3-.67-.58-1.34-.87-2l.67-.29.87,2Zm89.83-2.1c-.15-.71-.31-1.42-.48-2.14l.71-.16c.17.71.33,1.43.49,2.14ZM59.1,116.46v-.09c-.29-.68-.56-1.36-.83-2l.68-.27c.27.67.54,1.35.82,2l0,.11Zm90.56-2.32c-.17-.71-.35-1.41-.53-2.12l.71-.19c.18.72.36,1.43.53,2.13Zm-92.24-1.85-.79-2,.68-.26c.26.68.52,1.36.79,2Zm91.16-2.39c-.19-.7-.38-1.4-.58-2.11l.71-.19.58,2.11Zm-92.73-1.71-.75-2.06.69-.24.75,2Zm91.55-2.5c-.2-.7-.41-1.39-.62-2.09l.7-.22c.21.71.42,1.41.62,2.11Zm-93-1.63c-.24-.69-.47-1.38-.7-2.07l.69-.23c.23.68.47,1.37.71,2.06Zm91.76-2.55c-.21-.7-.44-1.39-.66-2.08l.69-.23c.23.7.45,1.39.67,2.09ZM53,99.91c-.23-.7-.45-1.4-.67-2.09l.7-.22c.21.69.44,1.38.66,2.08Zm91.8-2.56c-.23-.69-.47-1.38-.71-2.07l.69-.24c.24.69.48,1.39.71,2.08ZM51.66,95.72c-.21-.7-.42-1.4-.62-2.1l.7-.21c.2.7.41,1.4.62,2.1Zm91.68-2.5c-.24-.68-.49-1.37-.74-2l.68-.26c.26.69.51,1.38.75,2.06Zm-92.9-1.71c-.2-.71-.39-1.42-.58-2.12l.7-.19c.19.7.38,1.41.58,2.11Zm91.39-2.39c-.26-.68-.52-1.36-.79-2l.68-.27c.27.69.53,1.37.79,2ZM49.3,87.27c-.18-.71-.36-1.42-.53-2.13l.71-.17c.17.7.35,1.41.53,2.12Zm90.93-2.22c-.26-.67-.53-1.33-.81-2l.32-.19.34-.14v.06c.28.65.54,1.31.81,2Zm-92-2c-.17-.72-.33-1.43-.48-2.14l.71-.16L49,82.84Zm90.3-2-.87-2,.67-.29.87,2ZM47.32,78.72c-.15-.72-.3-1.44-.44-2.15l.72-.14c.14.71.28,1.42.43,2.14ZM136.8,77l-.9-2,.66-.3c.31.66.61,1.32.91,2ZM46.48,74.41c-.14-.72-.26-1.44-.38-2.16l.72-.12c.12.71.25,1.43.38,2.15ZM135,73c-.32-.66-.63-1.32-.95-2l.66-.32c.32.65.63,1.31.95,2ZM45.77,70c-.12-.72-.22-1.45-.33-2.17l.73-.1c.1.72.21,1.44.32,2.16Zm87.32-1-1-2,.65-.33c.33.65.66,1.3,1,2Zm-88-3.26C45,65,45,64.28,44.87,63.56l.73-.08c.08.72.17,1.44.26,2.17Zm86-.54c-.33-.65-.68-1.29-1-1.93l.65-.35,1,1.94ZM44.64,61.37c-.07-.73-.13-1.46-.19-2.18l.73-.06c0,.72.12,1.44.19,2.17Zm84.38,0c-.35-.65-.71-1.28-1.06-1.91l.63-.36c.36.63.72,1.27,1.07,1.91Zm-2.15-3.81c-.37-.64-.73-1.27-1.1-1.89l.63-.37c.37.62.74,1.25,1.1,1.89ZM44.29,57c0-.74-.09-1.47-.13-2.2h.73c0,.72.08,1.45.13,2.18Zm80.35-3.23-1.14-1.86.62-.38c.38.61.77,1.24,1.15,1.87ZM44.08,52.61v-2.2h.73c0,.72,0,1.44,0,2.18Zm78.25-2.54-1.19-1.84.61-.4,1.2,1.84ZM44.76,48.22H44V46h.73C44.78,46.76,44.76,47.49,44.76,48.22Zm75.17-1.81-1.23-1.8.6-.42c.41.6.83,1.2,1.24,1.81Zm-75-2.55H44.2c0-.74.08-1.47.13-2.19h.73c-.06.73-.14,1.46-.17,2.19Zm72.55-1c-.42-.6-.85-1.19-1.28-1.77l.59-.44L118,42.39ZM45.21,39.51l-.73-.07c.08-.74.16-1.47.25-2.19l.73.1C45.37,38.06,45.29,38.78,45.21,39.51Zm69.65-.22c-.44-.58-.88-1.16-1.33-1.73l.58-.45c.45.57.89,1.15,1.33,1.74Zm-2.68-3.45c-.46-.57-.91-1.14-1.37-1.7l.56-.46c.46.56.93,1.13,1.38,1.7Zm-66.42-.65L45,35.07c.12-.73.24-1.45.38-2.16l.72.13C46,33.75,45.88,34.46,45.76,35.19Zm63.64-2.72c-.47-.56-1-1.11-1.42-1.66l.55-.48c.48.55,1,1.1,1.43,1.66ZM46.58,30.91l-.72-.16c.17-.73.34-1.44.53-2.14l.71.19C46.91,29.49,46.74,30.19,46.58,30.91Zm59.94-1.73c-.49-.54-1-1.07-1.48-1.6l.53-.5c.5.53,1,1.07,1.49,1.61ZM47.7,26.71l-.7-.22c.22-.71.45-1.41.7-2.09l.69.25C48.14,25.32,47.91,26,47.7,26.71Zm55.83-.7c-.52-.53-1-1-1.55-1.55l.52-.52c.52.51,1,1,1.55,1.56Zm-3.12-3c-.53-.51-1.07-1-1.6-1.48L99.3,21c.54.48,1.08,1,1.62,1.49Zm-51.24-.33-.67-.28c.29-.69.6-1.37.91-2l.66.32c-.31.57-.61,1.23-.9,1.91Zm48-2.59c-.56-.48-1.11-1-1.67-1.4l.46-.57c.56.46,1.13.93,1.69,1.41Zm-46.09-1.3-.64-.36c.37-.64.76-1.28,1.16-1.88l.61.4a18.25,18.25,0,0,0-1.13,1.79Zm42.71-1.46c-.58-.45-1.16-.89-1.74-1.31l.43-.59c.59.43,1.17.87,1.76,1.32ZM53.48,15.14l-.58-.45c.47-.59,1-1.15,1.45-1.68l.53.5A20.56,20.56,0,0,0,53.48,15.14Zm36.79-.43c-.61-.41-1.22-.81-1.82-1.19l.39-.62c.61.38,1.23.79,1.84,1.2Zm-3.68-2.32c-.64-.37-1.27-.72-1.91-1.05l.34-.65c.65.34,1.29.69,1.94,1.07ZM56.43,12,56,11.46a15.7,15.7,0,0,1,1.74-1.38l.43.6Q57.27,11.3,56.43,12Zm26.31-1.64c-.67-.31-1.33-.6-2-.87L81,8.82c.67.28,1.34.57,2,.89ZM59.93,9.54l-.35-.64a18.65,18.65,0,0,1,2-1l.28.68A17.33,17.33,0,0,0,59.93,9.54Zm18.79-.8c-.69-.24-1.38-.45-2.07-.64l.2-.7c.7.19,1.41.41,2.11.65ZM63.89,7.89l-.2-.7a20.06,20.06,0,0,1,2.17-.5l.12.72A19.13,19.13,0,0,0,63.89,7.89ZM74.55,7.6c-.71-.14-1.43-.25-2.13-.33l.08-.73c.73.08,1.46.2,2.19.35Zm-6.43-.45-.05-.73c.73,0,1.47-.06,2.22,0v.73A14.29,14.29,0,0,0,68.12,7.15Z" transform="translate(0 0)"/><path class="fbb676b1-810b-4751-9b04-30c7d7fba057" d="M99.58,199.16a99.58,99.58,0,1,1,99.58-99.58A99.58,99.58,0,0,1,99.58,199.16Zm0-197.7a98.12,98.12,0,1,0,98.11,98.13h0A98.24,98.24,0,0,0,99.58,1.46Z" transform="translate(0 0)"/></g></svg>