<svg xmlns="http://www.w3.org/2000/svg" viewBox="0 0 65.58 90.91"><title>01</title><path d="M32.79,31.77l-4.7-9.56a.5.5,0,1,1,.9-.44l3.8,7.73,3.8-7.73a.5.5,0,0,1,.9.44Z"/><polygon points="27.64 22.43 24.86 16.77 32.79 0 40.72 16.77 37.94 22.43 36.14 21.55 38.49 16.76 32.79 4.68 27.08 16.76 29.44 21.55 27.64 22.43"/><path d="M32.79,41.14,28,31.41l4.78-10.12,4.78,10.12ZM29.12,31.4l3.67,7.48,3.67-7.48-3.67-7.77Z"/><path d="M32.79,81.27,32.11,80a.51.51,0,0,1,.2-.68.54.54,0,0,1,.48,0,.54.54,0,0,1,.48,0,.51.51,0,0,1,.2.68Z"/><path d="M31.58,78.5a.5.5,0,0,1-.44-.26l-.48-.89a.49.49,0,0,1,.2-.67.49.49,0,0,1,.68.2l.48.89a.49.49,0,0,1-.2.67A.41.41,0,0,1,31.58,78.5Zm-1.45-2.67a.49.49,0,0,1-.44-.26l-.48-.89a.49.49,0,0,1,.2-.67.5.5,0,0,1,.68.2l.48.89a.49.49,0,0,1-.2.67A.43.43,0,0,1,30.13,75.83Zm-1.45-2.66a.51.51,0,0,1-.44-.26L27.75,72a.5.5,0,0,1,.2-.68.5.5,0,0,1,.68.2l.49.89a.51.51,0,0,1-.2.68A.53.53,0,0,1,28.68,73.17ZM27.23,70.5a.51.51,0,0,1-.44-.26l-.49-.89a.5.5,0,0,1,.88-.48l.48.89a.49.49,0,0,1-.2.68A.46.46,0,0,1,27.23,70.5Zm-1.46-2.67a.52.52,0,0,1-.44-.26l-.48-.89a.5.5,0,1,1,.88-.48l.48.89a.51.51,0,0,1-.2.68A.5.5,0,0,1,25.77,67.83Zm-1.45-2.67a.51.51,0,0,1-.44-.26L23.4,64a.49.49,0,0,1,.2-.68.51.51,0,0,1,.68.2l.48.89a.51.51,0,0,1-.2.68A.53.53,0,0,1,24.32,65.16Zm-1.45-2.67a.51.51,0,0,1-.44-.26l-.49-.89a.5.5,0,1,1,.88-.48l.49.89a.51.51,0,0,1-.2.68A.53.53,0,0,1,22.87,62.49Zm-1.46-2.67a.51.51,0,0,1-.43-.26l-.49-.89a.5.5,0,1,1,.88-.48l.48.89a.49.49,0,0,1-.2.68A.48.48,0,0,1,21.41,59.82ZM20,57.15a.52.52,0,0,1-.44-.26L19,56a.5.5,0,0,1,.88-.48l.48.89a.5.5,0,0,1-.44.74Zm-1.45-2.67a.51.51,0,0,1-.44-.26l-.48-.89a.49.49,0,0,1,.2-.68.51.51,0,0,1,.68.2l.48.89a.51.51,0,0,1-.2.68A.53.53,0,0,1,18.51,54.48Zm-1.45-2.67a.49.49,0,0,1-.44-.26l-.49-.89a.5.5,0,0,1,.88-.48l.49.89a.51.51,0,0,1-.2.68A.53.53,0,0,1,17.06,51.81Zm-1.45-2.67a.49.49,0,0,1-.44-.26L14.68,48a.5.5,0,1,1,.88-.48l.48.89a.49.49,0,0,1-.2.68A.46.46,0,0,1,15.61,49.14Zm-1.46-2.67a.5.5,0,0,1-.44-.26l-.48-.89a.5.5,0,0,1,.88-.48l.48.89a.5.5,0,0,1-.44.74ZM12.7,43.8a.49.49,0,0,1-.44-.26l-.48-.89A.49.49,0,0,1,12,42a.51.51,0,0,1,.68.2l.48.89a.5.5,0,0,1-.2.68A.53.53,0,0,1,12.7,43.8Zm-1.45-2.67a.49.49,0,0,1-.44-.26L10.32,40a.51.51,0,0,1,.2-.68.5.5,0,0,1,.68.2l.49.89a.5.5,0,0,1-.2.68A.53.53,0,0,1,11.25,41.13ZM9.8,38.46a.49.49,0,0,1-.44-.26l-.49-.89a.5.5,0,1,1,.88-.48l.49.89a.5.5,0,0,1-.2.68A.53.53,0,0,1,9.8,38.46ZM8.34,35.79a.5.5,0,0,1-.44-.26l-.48-.89a.51.51,0,0,1,.2-.68.5.5,0,0,1,.68.21l.48.88a.5.5,0,0,1-.44.74ZM6.89,33.12a.49.49,0,0,1-.44-.26L6,32a.49.49,0,0,1,.2-.68.5.5,0,0,1,.68.21l.48.88a.5.5,0,0,1-.2.68A.53.53,0,0,1,6.89,33.12ZM5.44,30.46A.5.5,0,0,1,5,30.19l-.49-.89a.5.5,0,0,1,.88-.47l.49.89a.49.49,0,0,1-.2.67A.44.44,0,0,1,5.44,30.46ZM4,27.79a.5.5,0,0,1-.44-.27l-.49-.89a.5.5,0,0,1,.88-.47l.48.89a.48.48,0,0,1-.2.67A.39.39,0,0,1,4,27.79ZM2.53,25.12a.52.52,0,0,1-.44-.26L1.61,24a.5.5,0,0,1,.88-.47l.48.89a.51.51,0,0,1-.2.68A.5.5,0,0,1,2.53,25.12Z"/><path d="M1.08,22.45a.51.51,0,0,1-.44-.26L0,21H1.34a.5.5,0,0,1,.24.94.51.51,0,0,1-.26.44A.53.53,0,0,1,1.08,22.45Z"/><path d="M62.21,22h-1a.51.51,0,0,1-.5-.5.5.5,0,0,1,.5-.5h1a.5.5,0,0,1,.5.5A.51.51,0,0,1,62.21,22Zm-3.05,0h-1a.5.5,0,0,1-.5-.5.5.5,0,0,1,.5-.5h1a.5.5,0,0,1,.5.5A.5.5,0,0,1,59.16,22Zm-3,0h-1a.5.5,0,0,1-.5-.5.5.5,0,0,1,.5-.5h1a.5.5,0,0,1,.5.5A.5.5,0,0,1,56.12,22Zm-3,0h-1a.51.51,0,0,1-.5-.5.5.5,0,0,1,.5-.5h1a.5.5,0,0,1,.5.5A.51.51,0,0,1,53.08,22Zm-3,0H49a.5.5,0,0,1-.5-.5A.5.5,0,0,1,49,21h1a.5.5,0,0,1,.5.5A.51.51,0,0,1,50,22Zm-3,0H46a.5.5,0,0,1-.5-.5A.5.5,0,0,1,46,21h1a.5.5,0,0,1,.5.5A.5.5,0,0,1,47,22Zm-3,0h-1a.51.51,0,0,1-.5-.5.5.5,0,0,1,.5-.5h1a.5.5,0,0,1,.5.5A.51.51,0,0,1,44,22Zm-3,0h-1a.5.5,0,0,1-.5-.5.5.5,0,0,1,.5-.5h1a.5.5,0,0,1,.5.5A.51.51,0,0,1,40.91,22Zm-3,0h-1a.5.5,0,0,1-.5-.5.5.5,0,0,1,.5-.5h1a.5.5,0,0,1,.5.5A.5.5,0,0,1,37.86,22Zm-3,0h-1a.51.51,0,0,1-.5-.5.5.5,0,0,1,.5-.5h1a.5.5,0,0,1,.5.5A.51.51,0,0,1,34.82,22Zm-3,0h-1a.5.5,0,0,1-.5-.5.5.5,0,0,1,.5-.5h1a.5.5,0,0,1,.5.5A.51.51,0,0,1,31.78,22Zm-3.05,0h-1a.5.5,0,0,1-.5-.5.5.5,0,0,1,.5-.5h1a.5.5,0,0,1,.5.5A.5.5,0,0,1,28.73,22Zm-3,0h-1a.51.51,0,0,1-.5-.5.5.5,0,0,1,.5-.5h1a.5.5,0,0,1,.5.5A.51.51,0,0,1,25.69,22Zm-3,0h-1a.5.5,0,0,1-.5-.5.5.5,0,0,1,.5-.5h1a.5.5,0,0,1,.5.5A.51.51,0,0,1,22.65,22Zm-3,0h-1a.5.5,0,0,1-.5-.5.5.5,0,0,1,.5-.5h1a.5.5,0,0,1,.5.5A.5.5,0,0,1,19.6,22Zm-3,0h-1a.51.51,0,0,1-.5-.5.5.5,0,0,1,.5-.5h1a.5.5,0,0,1,.5.5A.51.51,0,0,1,16.56,22Zm-3,0h-1a.5.5,0,0,1-.5-.5.5.5,0,0,1,.5-.5h1a.5.5,0,0,1,.5.5A.51.51,0,0,1,13.52,22Zm-3,0h-1a.5.5,0,0,1-.5-.5.5.5,0,0,1,.5-.5h1a.5.5,0,0,1,.5.5A.5.5,0,0,1,10.47,22Zm-3,0h-1a.51.51,0,0,1-.5-.5.5.5,0,0,1,.5-.5h1a.5.5,0,0,1,.5.5A.51.51,0,0,1,7.43,22Zm-3,0h-1a.5.5,0,0,1-.5-.5.5.5,0,0,1,.5-.5h1a.5.5,0,0,1,.5.5A.51.51,0,0,1,4.39,22Z"/><path d="M64.5,22.45a.5.5,0,0,1-.24-.06A.51.51,0,0,1,64,22a.5.5,0,0,1,.24-.94h1.34l-.64,1.18A.52.52,0,0,1,64.5,22.45Z"/><path d="M34,78.5a.41.41,0,0,1-.24-.06.49.49,0,0,1-.2-.67l.48-.89a.5.5,0,0,1,.68-.21.51.51,0,0,1,.2.68l-.48.89A.5.5,0,0,1,34,78.5Zm1.45-2.67a.43.43,0,0,1-.24-.06.49.49,0,0,1-.2-.67l.48-.89a.5.5,0,0,1,.68-.2.49.49,0,0,1,.2.67l-.48.89A.49.49,0,0,1,35.45,75.83Zm1.45-2.66a.53.53,0,0,1-.24-.06.51.51,0,0,1-.2-.68l.49-.89a.5.5,0,0,1,.88.47l-.49.9A.51.51,0,0,1,36.9,73.17Zm1.45-2.67a.46.46,0,0,1-.23-.06.5.5,0,0,1-.21-.68l.49-.89a.5.5,0,0,1,.88.47l-.49.89A.5.5,0,0,1,38.35,70.5Zm1.46-2.67a.5.5,0,0,1-.24-.06.51.51,0,0,1-.2-.68l.48-.89a.5.5,0,0,1,.88.48l-.48.89A.52.52,0,0,1,39.81,67.83Zm1.45-2.67A.53.53,0,0,1,41,65.1a.51.51,0,0,1-.2-.68l.48-.89a.51.51,0,0,1,.68-.2.5.5,0,0,1,.2.68l-.48.89A.51.51,0,0,1,41.26,65.16Zm1.45-2.67a.53.53,0,0,1-.24-.06.51.51,0,0,1-.2-.68l.49-.89a.49.49,0,0,1,.67-.2.49.49,0,0,1,.2.68l-.48.89A.51.51,0,0,1,42.71,62.49Zm1.45-2.67a.53.53,0,0,1-.24-.06.51.51,0,0,1-.2-.68l.49-.89a.5.5,0,0,1,.88.48l-.49.89A.51.51,0,0,1,44.16,59.82Zm1.46-2.67a.5.5,0,0,1-.24-.06.49.49,0,0,1-.2-.68l.48-.89a.5.5,0,0,1,.88.48l-.48.89A.53.53,0,0,1,45.62,57.15Zm1.45-2.67a.53.53,0,0,1-.24-.06.51.51,0,0,1-.2-.68l.48-.89a.5.5,0,0,1,.88.48l-.48.89A.51.51,0,0,1,47.07,54.48Zm1.45-2.67a.53.53,0,0,1-.24-.06.51.51,0,0,1-.2-.68l.49-.89a.49.49,0,0,1,.67-.2.49.49,0,0,1,.2.68l-.48.89A.51.51,0,0,1,48.52,51.81ZM50,49.14a.53.53,0,0,1-.24-.06.51.51,0,0,1-.2-.68l.49-.89a.5.5,0,0,1,.88.48l-.49.89A.49.49,0,0,1,50,49.14Zm1.46-2.67a.48.48,0,0,1-.24-.06.49.49,0,0,1-.2-.68l.48-.89a.5.5,0,0,1,.88.48l-.48.89A.51.51,0,0,1,51.43,46.47Zm1.45-2.67a.5.5,0,0,1-.44-.74l.48-.89a.5.5,0,1,1,.88.48l-.48.89A.5.5,0,0,1,52.88,43.8Zm1.45-2.67a.53.53,0,0,1-.24-.06.5.5,0,0,1-.2-.68l.48-.89a.51.51,0,0,1,.68-.2.49.49,0,0,1,.2.68l-.48.89A.49.49,0,0,1,54.33,41.13Zm1.45-2.67a.53.53,0,0,1-.24-.06.5.5,0,0,1-.2-.68l.49-.89a.5.5,0,1,1,.88.48l-.49.89A.49.49,0,0,1,55.78,38.46Zm1.46-2.67a.48.48,0,0,1-.24-.06.49.49,0,0,1-.2-.68l.48-.89a.5.5,0,1,1,.88.48l-.49.89A.49.49,0,0,1,57.24,35.79Zm1.45-2.67a.5.5,0,0,1-.44-.74l.48-.88a.5.5,0,0,1,.68-.21.51.51,0,0,1,.2.68l-.48.89A.5.5,0,0,1,58.69,33.12Zm1.45-2.67a.53.53,0,0,1-.24-.06.49.49,0,0,1-.2-.67l.48-.89a.49.49,0,0,1,.68-.2.48.48,0,0,1,.2.67l-.48.89A.49.49,0,0,1,60.14,30.45Zm1.45-2.66a.44.44,0,0,1-.24-.07.49.49,0,0,1-.2-.67l.49-.89a.5.5,0,0,1,.88.47l-.49.89A.5.5,0,0,1,61.59,27.79ZM63,25.12a.39.39,0,0,1-.23-.07.48.48,0,0,1-.2-.67l.48-.89A.5.5,0,0,1,64,24l-.49.89A.5.5,0,0,1,63,25.12Z"/><polygon points="32.79 90.91 7.43 43.94 13.59 43.94 13.59 45.94 10.78 45.94 32.79 86.7 54.8 45.94 51.27 45.94 51.27 43.94 58.15 43.94 32.79 90.91"/><path d="M32.79,60a19.5,19.5,0,1,1,19.5-19.5A19.53,19.53,0,0,1,32.79,60Zm0-38a18.5,18.5,0,1,0,18.5,18.5A18.52,18.52,0,0,0,32.79,22Z"/></svg>