<svg xmlns="http://www.w3.org/2000/svg" viewBox="0 0 69.73 71.69"><defs><style>.a,.b{fill:none;stroke:#000;stroke-linecap:round;stroke-miterlimit:10;}.b{stroke-dasharray:0.99 1.98;}</style></defs><title>02</title><path d="M53.91,13.89a.45.45,0,0,1-.25-.07.49.49,0,0,1-.18-.68l.25-.43a.5.5,0,1,1,.86.5l-.25.43A.5.5,0,0,1,53.91,13.89Z"/><path d="M36.11,44.66a.43.43,0,0,1-.25-.07.51.51,0,0,1-.19-.68l.5-.86a.5.5,0,1,1,.86.5l-.49.86A.5.5,0,0,1,36.11,44.66Zm1.48-2.57a.54.54,0,0,1-.25-.06.51.51,0,0,1-.18-.69l.49-.85a.5.5,0,0,1,.87.5l-.5.85A.5.5,0,0,1,37.59,42.09Zm1.48-2.56a.47.47,0,0,1-.25-.07.49.49,0,0,1-.18-.68l.5-.86a.5.5,0,1,1,.86.5l-.49.86A.51.51,0,0,1,39.07,39.53ZM40.56,37a.51.51,0,0,1-.44-.76l.5-.85a.5.5,0,1,1,.86.5l-.49.86A.5.5,0,0,1,40.56,37ZM42,34.4a.45.45,0,0,1-.25-.07.49.49,0,0,1-.18-.68l.49-.85a.51.51,0,0,1,.69-.19.51.51,0,0,1,.18.69l-.5.85A.5.5,0,0,1,42,34.4Zm1.48-2.56a.47.47,0,0,1-.25-.07.49.49,0,0,1-.18-.68l.5-.86a.5.5,0,1,1,.86.5l-.49.86A.51.51,0,0,1,43.52,31.84ZM45,29.27a.5.5,0,0,1-.44-.75l.5-.85a.5.5,0,1,1,.86.5l-.49.85A.5.5,0,0,1,45,29.27Zm1.48-2.56a.47.47,0,0,1-.25-.07.49.49,0,0,1-.18-.68l.49-.86a.51.51,0,0,1,.69-.18.5.5,0,0,1,.18.68l-.5.86A.5.5,0,0,1,46.49,26.71ZM48,24.15a.59.59,0,0,1-.25-.07.5.5,0,0,1-.18-.68l.5-.86a.5.5,0,1,1,.86.5l-.49.86A.51.51,0,0,1,48,24.15Zm1.49-2.57a.45.45,0,0,1-.25-.07.49.49,0,0,1-.18-.68l.49-.85a.5.5,0,1,1,.86.5l-.49.85A.5.5,0,0,1,49.46,21.58ZM50.94,19a.47.47,0,0,1-.25-.07.49.49,0,0,1-.18-.68l.49-.86a.5.5,0,0,1,.87.5l-.5.86A.5.5,0,0,1,50.94,19Zm1.48-2.57a.57.57,0,0,1-.25-.06A.51.51,0,0,1,52,15.7l.5-.85a.5.5,0,1,1,.86.5l-.49.85A.51.51,0,0,1,52.42,16.45Z"/><path d="M34.87,47.3l-.69-1.18a.51.51,0,0,1,.69-.69.52.52,0,0,1,.5,0,.51.51,0,0,1,.18.69Z"/><path d="M33.63,44.66a.5.5,0,0,1-.43-.25l-.5-.86a.49.49,0,0,1,.18-.68.51.51,0,0,1,.69.18l.49.86a.49.49,0,0,1-.18.68A.47.47,0,0,1,33.63,44.66Zm-1.49-2.57a.5.5,0,0,1-.43-.25L31.22,41a.5.5,0,0,1,.86-.5l.5.85a.51.51,0,0,1-.19.69A.51.51,0,0,1,32.14,42.09Zm-1.48-2.56a.5.5,0,0,1-.43-.25l-.5-.86a.5.5,0,0,1,.87-.5l.49.86a.49.49,0,0,1-.18.68A.45.45,0,0,1,30.66,39.53ZM29.18,37a.48.48,0,0,1-.43-.25l-.5-.85a.49.49,0,0,1,.18-.68.51.51,0,0,1,.69.18l.49.85a.51.51,0,0,1-.18.69A.57.57,0,0,1,29.18,37ZM27.69,34.4a.5.5,0,0,1-.43-.25l-.49-.85a.5.5,0,1,1,.86-.5l.5.85a.49.49,0,0,1-.19.68A.43.43,0,0,1,27.69,34.4Zm-1.48-2.56a.5.5,0,0,1-.43-.25l-.5-.86a.5.5,0,0,1,.87-.5l.49.86a.49.49,0,0,1-.18.68A.45.45,0,0,1,26.21,31.84Zm-1.48-2.57a.52.52,0,0,1-.44-.25l-.49-.85a.5.5,0,1,1,.86-.5l.5.85a.51.51,0,0,1-.18.69A.57.57,0,0,1,24.73,29.27Zm-1.49-2.56a.5.5,0,0,1-.43-.25l-.49-.85a.51.51,0,0,1,.18-.69.5.5,0,0,1,.68.18l.5.86a.5.5,0,0,1-.18.68A.48.48,0,0,1,23.24,26.71Zm-1.48-2.56a.5.5,0,0,1-.43-.25l-.5-.86a.5.5,0,0,1,.87-.5l.49.85a.51.51,0,0,1-.18.69A.55.55,0,0,1,21.76,24.15Zm-1.48-2.57a.52.52,0,0,1-.44-.25l-.49-.85a.51.51,0,0,1,.18-.69.49.49,0,0,1,.68.19l.5.85a.49.49,0,0,1-.18.68A.47.47,0,0,1,20.28,21.58ZM18.79,19a.5.5,0,0,1-.43-.25l-.49-.86a.5.5,0,1,1,.86-.5l.5.86A.5.5,0,0,1,19,19,.43.43,0,0,1,18.79,19Zm-1.48-2.57a.5.5,0,0,1-.43-.25l-.5-.85a.5.5,0,0,1,.18-.68.51.51,0,0,1,.69.18l.49.85a.51.51,0,0,1-.18.69A.54.54,0,0,1,17.31,16.45Z"/><path d="M15.83,13.89a.51.51,0,0,1-.44-.25l-.25-.43a.5.5,0,1,1,.87-.5l.25.43a.49.49,0,0,1-.18.68A.47.47,0,0,1,15.83,13.89Z"/><polygon points="14.71 13.46 6.92 0 62.81 0 55.02 13.46 53.29 12.46 59.34 2 10.39 2 16.44 12.46 14.71 13.46"/><path d="M34.87,46.8A22.75,22.75,0,1,1,57.62,24.05,22.77,22.77,0,0,1,34.87,46.8Zm0-44.5A21.75,21.75,0,1,0,56.62,24.05,21.77,21.77,0,0,0,34.87,2.3Z"/><polygon points="34.87 71.69 0 11.43 15.63 11.43 15.63 13.43 3.47 13.43 34.87 67.69 66.27 13.43 54.47 13.43 54.47 11.43 69.73 11.43 34.87 71.69"/><line class="a" x1="15.33" y1="12.52" x2="15.83" y2="12.52"/><line class="b" x1="17.81" y1="12.52" x2="52.54" y2="12.43"/><line class="a" x1="53.53" y1="12.43" x2="54.03" y2="12.42"/></svg>