<?xml version="1.0" encoding="utf-8"?>
<!-- Generator: Adobe Illustrator 23.0.3, SVG Export Plug-In . SVG Version: 6.00 Build 0)  -->
<svg version="1.1" id="Layer_1" xmlns="http://www.w3.org/2000/svg" xmlns:xlink="http://www.w3.org/1999/xlink" x="0px" y="0px"
	 viewBox="0 0 462 462" style="enable-background:new 0 0 462 462;" xml:space="preserve">
<style type="text/css">
	.st0{fill:none;stroke:#000000;stroke-width:14;stroke-miterlimit:10;}
</style>
<title>facebook-outline</title>
<path class="st0" d="M407,7H55C28.49,7,7,28.49,7,55v352c0,26.51,21.49,48,48,48h137.25V302.69h-63V231h63v-54.64
	c0-62.15,37-96.48,93.67-96.48c27.14,0,55.52,4.84,55.52,4.84v61h-31.27c-30.81,0-40.42,19.12-40.42,38.73V231h68.78l-11,71.69
	h-57.78V455H407c26.51,0,48-21.49,48-48V55C455,28.49,433.51,7,407,7z"/>
</svg>
