<?xml version="1.0" encoding="utf-8"?>
<!-- Generator: Adobe Illustrator 23.0.3, SVG Export Plug-In . SVG Version: 6.00 Build 0)  -->
<svg version="1.1" id="Layer_1" xmlns="http://www.w3.org/2000/svg" xmlns:xlink="http://www.w3.org/1999/xlink" x="0px" y="0px"
	 viewBox="0 0 510 497.61" style="enable-background:new 0 0 510 497.61;" xml:space="preserve">
<style type="text/css">
	.st0{fill:none;stroke:#000000;stroke-width:14;stroke-miterlimit:10;}
</style>
<title>github-outline</title>
<path class="st0" d="M251.8,7C113.1,7,7,112.3,7,251c0,110.9,69.8,205.8,169.5,239.2c12.8,2.3,17.3-5.6,17.3-12.1
	c0-6.2-0.3-40.4-0.3-61.4c0,0-70,15-84.7-29.8c0,0-11.4-29.1-27.8-36.6c0,0-22.9-15.7,1.6-15.4c0,0,24.9,2,38.6,25.8
	c21.9,38.6,58.6,27.5,72.9,20.9c2.3-16,8.8-27.1,16-33.7c-55.9-6.2-112.3-14.3-112.3-110.5c0-27.5,7.6-41.3,23.6-58.9
	c-2.6-6.5-11.1-33.3,2.6-67.9c20.9-6.5,69,27,69,27c41.1-11.33,84.5-11.33,125.6,0c0,0,48.1-33.6,69-27c13.7,34.7,5.2,61.4,2.6,67.9
	c16,17.7,25.8,31.5,25.8,58.9c0,96.5-58.9,104.2-114.8,110.5c9.2,7.9,17,22.9,17,46.4c0,33.7-0.3,75.4-0.3,83.6
	c0,6.5,4.6,14.4,17.3,12.1C435.2,456.8,503,361.9,503,251C503,112.3,390.5,7,251.8,7z"/>
</svg>
