<?xml version="1.0" encoding="utf-8"?>
<!-- Generator: Adobe Illustrator 23.0.3, SVG Export Plug-In . SVG Version: 6.00 Build 0)  -->
<svg version="1.1" id="f97cee9c-1c01-47ec-9a7f-e71843accea0"
	 xmlns="http://www.w3.org/2000/svg" xmlns:xlink="http://www.w3.org/1999/xlink" x="0px" y="0px" viewBox="0 0 382 333.9"
	 style="enable-background:new 0 0 382 333.9;" xml:space="preserve">
<style type="text/css">
	.st0{fill:none;stroke:#000000;stroke-width:2;stroke-linecap:round;stroke-linejoin:round;}
	.st1{fill:none;stroke:#000000;stroke-width:2;stroke-linecap:round;stroke-linejoin:bevel;}
	.st2{fill:none;stroke:#000000;stroke-linecap:round;stroke-linejoin:round;}
	.st3{fill:none;stroke:#000000;stroke-linecap:round;stroke-linejoin:round;stroke-dasharray:2.99,2.99;}
	.st4{fill:none;stroke:#000000;stroke-linecap:round;stroke-linejoin:round;stroke-dasharray:3.05,3.05;}
</style>
<title>02u</title>
<g id="aaf6744f-3257-4abc-91bd-fd87e3de5871">
	<polygon class="st0" points="1,330.1 191,1 381,330.1 	"/>
	<polygon class="st1" points="286,165.5 191,330.1 96,165.5 	"/>
	<line class="st2" x1="191" y1="330.1" x2="191" y2="328.6"/>
	<line class="st3" x1="191" y1="325.6" x2="191" y2="4"/>
	<line class="st2" x1="191" y1="2.5" x2="191" y2="1"/>
	<line class="st2" x1="286" y1="165.5" x2="284.7" y2="166.3"/>
	<line class="st3" x1="282.1" y1="167.8" x2="3.6" y2="328.6"/>
	<line class="st2" x1="2.3" y1="329.3" x2="1" y2="330.1"/>
	<line class="st2" x1="96" y1="165.5" x2="97.3" y2="166.3"/>
	<line class="st3" x1="99.9" y1="167.8" x2="378.4" y2="328.6"/>
	<line class="st2" x1="379.7" y1="329.3" x2="381" y2="330.1"/>
	<polyline class="st2" points="96,167 96,165.5 97.3,164.8 	"/>
	<line class="st4" x1="99.9" y1="163.3" x2="188.4" y2="112.2"/>
	<polyline class="st2" points="189.7,111.4 191,110.7 192.3,111.4 	"/>
	<line class="st4" x1="194.9" y1="113" x2="283.4" y2="164"/>
	<polyline class="st2" points="284.7,164.8 286,165.5 286,167 	"/>
	<line class="st4" x1="286" y1="170.1" x2="286" y2="272.2"/>
	<polyline class="st2" points="286,273.7 286,275.2 284.7,276 	"/>
	<line class="st4" x1="282.1" y1="277.5" x2="193.6" y2="328.6"/>
	<polyline class="st2" points="192.3,329.3 191,330.1 189.7,329.3 	"/>
	<line class="st4" x1="187.1" y1="327.8" x2="98.6" y2="276.8"/>
	<polyline class="st2" points="97.3,276 96,275.2 96,273.7 	"/>
	<line class="st4" x1="96" y1="270.7" x2="96" y2="168.6"/>
</g>
<g id="e9067b92-5fd5-4ad8-88cd-4bcaedcdf125">
	<circle cx="191" cy="110.7" r="3.8"/>
	<circle cx="191" cy="220.4" r="3.8"/>
	<circle cx="191" cy="330.1" r="3.8"/>
	<circle cx="96" cy="275.2" r="3.8"/>
	<circle cx="286" cy="165.5" r="3.8"/>
	<circle cx="286" cy="275.2" r="3.8"/>
	<circle cx="96" cy="165.5" r="3.8"/>
</g>
</svg>
