<svg xmlns="http://www.w3.org/2000/svg" viewBox="0 0 104 119.62"><defs><style>.a{fill:none;stroke:#000;stroke-linecap:round;stroke-linejoin:round;stroke-width:3px;}</style></defs><title>04r</title><polyline class="a" points="93.41 65.06 102.5 59.81 93.41 54.56"/><polyline class="a" points="10.59 6.75 1.5 1.5 1.5 12"/><polyline class="a" points="1.5 107.63 1.5 118.13 10.59 112.88"/><polyline class="a" points="52 41.16 52 30.66 42.91 35.91"/><polyline class="a" points="10.59 54.56 1.5 59.81 10.59 65.06"/><polyline class="a" points="42.91 83.72 52 88.97 52 78.47"/><polygon class="a" points="27 103.55 27 74.39 1.75 88.97 27 103.55"/><polygon class="a" points="27 45.39 27 74.55 52.25 59.97 27 45.39"/><polygon class="a" points="77 74.55 77 45.39 51.75 59.97 77 74.55"/><polygon class="a" points="27 45.55 27 16.39 1.75 30.97 27 45.55"/></svg>