<svg id="b94ae048-bd6b-439e-a652-a5b259c881f1" data-name="Layer 1" xmlns="http://www.w3.org/2000/svg" viewBox="0 0 237.29 205.64"><title>03u</title><g id="e998ee7a-b6fb-47aa-bfb9-d262f4ef3f2b" data-name="Layer 1-2"><path d="M37.75,205.5H237.29l-18.44-31.93h0L118.65,0,100.13,32.07h0v.08L0,205.5H37l0,.14Zm197.81-1H43.42l174.39-30.75ZM87.62,83.16,163.48,127,87.62,99.35Zm36.54,60.29-7.24-2.63,7,1.23Zm-.7-2.49-4.2-.74h3.93Zm-.87-1.74h-7.71l3.86-6.68Zm-3.29-7.7.51-.6,1.46,4Zm1.23-1.54,1.09-.91,1.34,7.57Zm-6.82,9.26-.77-.14,2.74-3.27Zm10.73.07-2-11.07,2-1.13Zm-12.67-.37-1.34-.48,5.9-5Zm12.67,5.68v2.26l-10.57-6.11Zm-15.17-6.5-2-1.13,10.57-6.1Zm15.29,10-.58,3.3-13.9-11.66Zm.88-5V126.39l3.15-1.14Zm-19.24-6.61-2.57-2.16,17.05-6.21Zm17.73,16.18-1.64,4.5L105.61,137.3Zm5.78-28,4.72-.83-8.87,24.37Zm-27.15,9L99.47,130,125,125.47Zm19.52,24.82-3.35,5.79-18.11-31.4Zm13.59-35.13h6.69l-18.11,31.36Zm-37.22,5.8-3.35-5.8h36.23Zm19.9,36.46-5.91,7-17-46.72ZM143.71,123l9,1.59-32,38.11Zm-49.57-.66L91,113.71l49,8.64ZM111.8,173.8l-9.41,7.89L90.85,116.26Zm42.27-49.2,11.41,4.15L115.14,171Zm-63.87-12-2.11-12,61.82,22.5Zm11.37,70.23-13.95,8.06v-87.2ZM166.85,129l14,8.1L105,180.82Zm15.27,8.54L198.28,151,91,190.06ZM87.37,81.87l-.07-.05L91,61l87.77,73.65Zm-.75,3.79v106l-20,7.27Zm112.61,66.07L217,172.88l-147.16,26ZM91.1,59.77,100.47,34l95.28,113.55ZM65.52,199.59l-27,4.77L89.3,64.7ZM118.65,2l96.49,167.14-14.91-17.78h0l-.09-.08L100.81,32.89ZM1.73,204.5,98.12,37.55l-60.76,167Z"/></g></svg>