<svg id="b9bf679a-32ab-4335-bd98-aa9bf90098ed" data-name="Layer 1" xmlns="http://www.w3.org/2000/svg" viewBox="0 0 414.01 358.92"><defs><style>.a5fde29c-8600-41b7-a600-cca8563358b2{fill:#000000;}</style></defs><title>03u</title><g id="bda4b5fb-c277-4c49-b13f-c934557fa845" data-name="Layer 1-2"><path class="a5fde29c-8600-41b7-a600-cca8563358b2" d="M175.39,358.81H1.14a1.16,1.16,0,0,1-1-.56,1.16,1.16,0,0,1,0-1.14L87.28,206.2a1.15,1.15,0,0,1,2,1.14L3.1,356.54H175.39a1.14,1.14,0,1,1,.21,2.27Z" transform="translate(0.01 0.11)"/><path class="a5fde29c-8600-41b7-a600-cca8563358b2" d="M294.11,153.18a1.14,1.14,0,0,1-1-.56L207,3.41,120.84,152.62a1.12,1.12,0,0,1-1.54.41h0a1.14,1.14,0,0,1-.42-1.55L206,.57a1.19,1.19,0,0,1,1.65-.35,1.17,1.17,0,0,1,.35.35l87.1,150.91a1.14,1.14,0,0,1-.42,1.55A1.13,1.13,0,0,1,294.11,153.18Z" transform="translate(0.01 0.11)"/><path class="a5fde29c-8600-41b7-a600-cca8563358b2" d="M412.83,358.81H238.58a1.14,1.14,0,1,1-.21-2.27.74.74,0,0,1,.21,0H410.87l-86.15-149.2a1.15,1.15,0,1,1,2-1.14l87.13,150.91a1.16,1.16,0,0,1,0,1.14A1.14,1.14,0,0,1,412.83,358.81Z" transform="translate(0.01 0.11)"/><path class="a5fde29c-8600-41b7-a600-cca8563358b2" d="M207,180.54a1.15,1.15,0,0,1-1.13-1.13V1.14a1.14,1.14,0,0,1,2.27-.21.74.74,0,0,1,0,.21V179.41A1.14,1.14,0,0,1,207,180.54Z" transform="translate(0.01 0.11)"/><path class="a5fde29c-8600-41b7-a600-cca8563358b2" d="M1.14,358.81a1.14,1.14,0,0,1-1-.56,1.15,1.15,0,0,1,.42-1.56L155,267.56a1.14,1.14,0,0,1,1.56.41h0a1.15,1.15,0,0,1-.42,1.56L1.7,358.66A1,1,0,0,1,1.14,358.81Z" transform="translate(0.01 0.11)"/><path class="a5fde29c-8600-41b7-a600-cca8563358b2" d="M412.83,358.81a1.13,1.13,0,0,1-.57-.15L257.88,269.53a1.14,1.14,0,1,1,1.14-2h0L413.4,356.69a1.13,1.13,0,0,1-.57,2.12Z" transform="translate(0.01 0.11)"/><path class="a5fde29c-8600-41b7-a600-cca8563358b2" d="M266.34,256a1.13,1.13,0,0,1-1.15-1.13,1.09,1.09,0,0,1,.15-.58l42.58-73.75H222.78a1.14,1.14,0,1,1-.21-2.27.74.74,0,0,1,.21,0h87.13a1.15,1.15,0,0,1,1,.57,1.09,1.09,0,0,1,0,1.13l-43.56,75.46A1.12,1.12,0,0,1,266.34,256Z" transform="translate(0.01 0.11)"/><path class="a5fde29c-8600-41b7-a600-cca8563358b2" d="M207,358.81a1.14,1.14,0,0,1-1-.56l-43.56-75.46a1.15,1.15,0,1,1,2-1.14L207,355.4l42.58-73.75a1.14,1.14,0,0,1,1.56-.41h0a1.12,1.12,0,0,1,.41,1.54h0L208,358.25A1.14,1.14,0,0,1,207,358.81Z" transform="translate(0.01 0.11)"/><path class="a5fde29c-8600-41b7-a600-cca8563358b2" d="M147.63,256a1.12,1.12,0,0,1-1-.57L103.08,180a1.09,1.09,0,0,1,0-1.13,1.15,1.15,0,0,1,1-.57h87.13a1.14,1.14,0,0,1,0,2.27H106l42.58,73.75a1.14,1.14,0,0,1-.42,1.56,1.17,1.17,0,0,1-.58.15Z" transform="translate(0.01 0.11)"/><path class="a5fde29c-8600-41b7-a600-cca8563358b2" d="M207,358.81a1.14,1.14,0,0,1-1.13-1.13h0V281.91a1.14,1.14,0,0,1,2.27,0v75.77a1.14,1.14,0,0,1-1.13,1.13Z" transform="translate(0.01 0.11)"/><path class="a5fde29c-8600-41b7-a600-cca8563358b2" d="M244.3,218.43a1.14,1.14,0,0,1-.57-2.12l65.61-37.89a1.15,1.15,0,0,1,1.14,2h0L244.86,218.3A1,1,0,0,1,244.3,218.43Z" transform="translate(0.01 0.11)"/><path class="a5fde29c-8600-41b7-a600-cca8563358b2" d="M169.67,218.43a1.14,1.14,0,0,1-.57-.16l-65.61-37.88a1.15,1.15,0,1,1,1.14-2l65.61,37.89a1.14,1.14,0,0,1,.42,1.55A1.17,1.17,0,0,1,169.67,218.43Z" transform="translate(0.01 0.11)"/><path class="a5fde29c-8600-41b7-a600-cca8563358b2" d="M195.74,287h-.43a49.5,49.5,0,0,1-36.46-59.8c.18-.74.38-1.47.59-2.2a1.14,1.14,0,1,1,2.23.46,1.21,1.21,0,0,1,0,.18c-.2.69-.38,1.39-.56,2.1a47.2,47.2,0,0,0,34.76,57h0a1.21,1.21,0,0,1,.92,1.39A1.11,1.11,0,0,1,195.74,287Zm22.85-.08a1.14,1.14,0,0,1-.28-2.24,47.25,47.25,0,0,0,34.58-57.18c-.18-.71-.37-1.42-.58-2.13a1.14,1.14,0,0,1,2.18-.65A49.55,49.55,0,0,1,221,286.3c-.72.22-1.44.41-2.16.59Zm-46.68-80.33a1.14,1.14,0,0,1-.78-.32,1.12,1.12,0,0,1,0-1.58l0,0a49.55,49.55,0,0,1,70.05-1.74c.54.51,1.07,1,1.59,1.58a1.13,1.13,0,0,1,.11,1.61,1.15,1.15,0,0,1-1.61.11,1,1,0,0,1-.14-.15,47.28,47.28,0,0,0-66.85-1.37c-.51.5-1,1-1.51,1.52a1.11,1.11,0,0,1-.86.34Z" transform="translate(0.01 0.11)"/></g></svg>