<?xml version="1.0" encoding="utf-8"?>
<!-- Generator: Adobe Illustrator 23.0.3, SVG Export Plug-In . SVG Version: 6.00 Build 0)  -->
<svg version="1.1" id="b75824ce-3333-47df-9b6c-f8bb6180899c"
	 xmlns="http://www.w3.org/2000/svg" xmlns:xlink="http://www.w3.org/1999/xlink" x="0px" y="0px" viewBox="0 0 237.3 205.6"
	 style="enable-background:new 0 0 237.3 205.6;" xml:space="preserve">
<title>06u</title>
<g id="a17d983d-b1af-43fe-a419-8df3523619a7">
	<path d="M107.8,18.7L0,205.5h20.7v0.1l0.8-0.1h215.7l-10.4-17.9h0.1l-0.5-0.7L118.6,0l-10.4,18v-0.1L107.8,18.7z M103,29.1
		l-2.4,5.2l-0.1-0.1l-0.3,0.9l-79,169.4H1.7L103,29.1z M89.3,95.1l63.4,29.6l-62.8-22.8L89.3,95.1z M123.8,144.4l-3.2-1.5l3.2,1.1
		L123.8,144.4z M123.6,142.9l-1.4-0.5l1.4,0.4L123.6,142.9z M115.1,139l3.5-6.1l3.5,6.1H115.1z M121.1,129.8l0.1-0.1l0.3,1.5
		L121.1,129.8z M111.1,138.4H111l1.2-1L111.1,138.4z M123.8,145.5v0.6l-5.1-2.9L123.8,145.5z M122.1,129l0.3-0.2l0.3,3.5L122.1,129z
		 M109.9,137.9l-0.3-0.2l2.9-2L109.9,137.9z M123.8,147.2l-0.1,0.8l-7-4.9L123.8,147.2z M123.8,133.7l-0.5-5.6l0.5-0.3V133.7z
		 M108.6,137.3l-0.5-0.3l5.1-2.9L108.6,137.3z M123.6,149.2l-0.2,1.1l-8.9-7.5L123.6,149.2z M124.8,135.5v-8.2l0.8-0.3L124.8,135.5z
		 M107.1,136.4l-0.7-0.5l7.7-3.6L107.1,136.4z M123.1,151.4l-0.4,1.4l-10.7-10.7L123.1,151.4z M126.7,126.6l1-0.4l-2,11.4
		L126.7,126.6z M105.6,135.3l-0.9-0.7l10.9-4L105.6,135.3z M122.6,153.9l-0.6,1.7L109.6,141L122.6,153.9z M128.8,125.8l1.4-0.4
		l-3.9,14.6L128.8,125.8z M103.8,133.8l-1-1l14.6-3.9L103.8,133.8z M121.5,156.7l-1,2.1l-13.6-19.5L121.5,156.7z M131.3,125.2
		l1.8-0.3l-6.5,18L131.3,125.2z M102,131.9l-1.2-1.4l18.8-3.3L102,131.9z M120,159.8l-1.4,2.4L104.1,137L120,159.8z M134.2,124.7
		l2.3-0.2l-10,21.5L134.2,124.7z M100.1,129.7l-1.3-1.9l23.7-2.1L100.1,129.7z M125.9,149.6l11.7-25.2h2.8l-10.9,18.9L125.9,149.6z
		 M98.2,126.8l-1.4-2.4h29.1L98.2,126.8z M118,163.2l-1.9,2.8l-14.9-31.9L118,163.2z M130.4,143.8l11.2-19.4l3.4,0.3l-20.2,28.8
		L130.4,143.8z M96.3,123.4l-1.4-3.1l35,3.1H96.3z M115.4,166.9l-2.6,3.1l-14.4-39.6L115.4,166.9z M146.1,124.9l4,0.7L123,157.9
		L146.1,124.9z M94.4,119.3l-1.4-3.8l41.5,7.3L94.4,119.3z M112.1,170.8l-3.4,3.4l-13-48.4L112.1,170.8z M151.2,125.8l4.7,1.3
		l-35.5,35.5L151.2,125.8z M92.6,114.4l-1.2-4.7l48.4,13L92.6,114.4z M107.8,175l-4.4,3.7l-10.3-58.4L107.8,175z M156.9,127.3l5.3,2
		l-45.5,38.2L156.9,127.3z M91.1,108.6l-1-5.6l55.8,20.4L91.1,108.6z M102.6,179.4l-5.5,3.9L91,113.6L102.6,179.4z M163.4,129.7
		l6.1,2.9l-57.3,40.1L163.4,129.7z M96.1,183.9l-6.8,3.9v-82L96.1,183.9z M170.5,133l6.8,4l-71,41L170.5,133z M89.3,94v-7.9l71,41
		L89.3,94z M88.3,96.8v91.6l-8.4,3.9L88.3,96.8z M178.3,137.6l7.6,5.3l-86.9,40.5L178.3,137.6z M89.3,85l0.8-9.2l78.5,55L89.3,85z
		 M78.9,192.7l-10.1,3.7l19.4-110L78.9,192.7z M186.8,143.6l8.2,6.9L89.9,188.7L186.8,143.6z M90.2,74.7l1.9-10.6l85.6,71.8
		L90.2,74.7z M89.2,74.9L67.7,196.8L55.6,200L89.2,74.7L89.2,74.9z M79.5,193.6l116.3-42.4l8.8,8.8L79.3,193.7L79.5,193.6z
		 M187.1,142.6L92.3,63l3.2-12.1l91.8,91.8L187.1,142.6z M91.5,62.3L91.5,62.3l-0.2,0.8L54.5,200.3l-14.3,2.5L91.8,61L91.5,62.3z
		 M67.5,197.9L67.5,197.9l0.8-0.2l137.2-36.8l9.3,11.1L66.1,198.2L67.5,197.9z M196.9,150.9L196.9,150.9l-0.6-0.6L95.9,49.8l5-13.6
		l97,115.7L196.9,150.9z M95.1,49.1L95.1,49.1l-0.3,0.8L39.1,203l-16.8,1.5l74-158.6L95.1,49.1z M54.2,201.3L54.2,201.3l0.8-0.1
		l160.5-28.3l9.7,13.8L50.8,201.9L54.2,201.3z M206.5,160.6L206.5,160.6L206,160L101.3,35.1l7.1-15.3l100.4,143.4L206.5,160.6z
		 M33,204.5l5.8-0.5v0.1l0.8-0.1l186.3-16.3l9.7,16.9H33z M219.9,177.4l-3.3-4.7h0.1l-0.6-0.7L108.9,18.9L118.6,2L219.9,177.4z"/>
</g>
</svg>
