<svg id="be3d2e15-d8ba-46f5-be8a-24413ce6883e" data-name="Layer 1" xmlns="http://www.w3.org/2000/svg" viewBox="0 0 414.2 359.28"><defs><style>.be546065-f6b0-4737-a5d9-098300ae7b4d{fill:#000000;}</style></defs><title>06u</title><g id="f4866966-be43-4ef2-8e31-c0bc5279a8d4" data-name="Layer 1-2"><path class="be546065-f6b0-4737-a5d9-098300ae7b4d" d="M414.2,357.77a1.51,1.51,0,0,1-1.51,1.51H207.1a1.5,1.5,0,0,1-1.5-1.53,1.6,1.6,0,0,1,.19-.74L308.58,179a1.52,1.52,0,0,1,2.06-.56h0a1.53,1.53,0,0,1,.56,2.07L209.72,356.28h203A1.51,1.51,0,0,1,414.2,357.77Z"/><path class="be546065-f6b0-4737-a5d9-098300ae7b4d" d="M414.2,357.77a1.51,1.51,0,0,1-2.82.75l-102.8-178a1.52,1.52,0,0,1,2.63-1.51L414,357A1.38,1.38,0,0,1,414.2,357.77Z"/><path class="be546065-f6b0-4737-a5d9-098300ae7b4d" d="M208.61,1.68a1.36,1.36,0,0,1-.2.76l-102.79,178a1.5,1.5,0,0,1-2.06.56,1.52,1.52,0,0,1-.56-2.07h0L205.79.92a1.52,1.52,0,0,1,2.06-.56,1.5,1.5,0,0,1,.76,1.32Z"/><path class="be546065-f6b0-4737-a5d9-098300ae7b4d" d="M311.41,179.72a1.45,1.45,0,0,1-.76,1.31,1.52,1.52,0,0,1-2.07-.55L205.79,2.48A1.51,1.51,0,1,1,208.41,1l102.8,178A1.6,1.6,0,0,1,311.41,179.72Z"/><path class="be546065-f6b0-4737-a5d9-098300ae7b4d" d="M208.61,357.77a1.5,1.5,0,0,1-1.51,1.51H1.51A1.5,1.5,0,0,1,0,357.75,1.6,1.6,0,0,1,.2,357L103,179a1.51,1.51,0,0,1,2.62,1.51L4.13,356.28h203A1.51,1.51,0,0,1,208.61,357.77Z"/><path class="be546065-f6b0-4737-a5d9-098300ae7b4d" d="M311.41,179.72a1.52,1.52,0,0,1-1.52,1.52h-203L208.41,357a1.51,1.51,0,1,1-2.62,1.51L103,180.48a1.53,1.53,0,0,1,1.31-2.27H309.89A1.52,1.52,0,0,1,311.41,179.72Z"/><path class="be546065-f6b0-4737-a5d9-098300ae7b4d" d="M208.61,1.68V168.36a1.51,1.51,0,1,1-3,.35,2,2,0,0,1,0-.35V1.68A1.52,1.52,0,0,1,206.94,0a1.5,1.5,0,0,1,1.67,1.33A1,1,0,0,1,208.61,1.68Zm0,189.41V357.77a1.51,1.51,0,0,1-3,0V191.09a1.52,1.52,0,0,1,1.33-1.67,1.5,1.5,0,0,1,1.67,1.33A1,1,0,0,1,208.61,191.09Z"/><path class="be546065-f6b0-4737-a5d9-098300ae7b4d" d="M311.41,179.72a1.45,1.45,0,0,1-.76,1.31L166.3,264.37a1.51,1.51,0,0,1-1.51-2.62h0l144.35-83.34a1.51,1.51,0,0,1,2.27,1.31Zm-164,94.71a1.51,1.51,0,0,1-.76,1.31L2.27,359.08a1.51,1.51,0,0,1-1.52-2.61h0l144.35-83.34a1.52,1.52,0,0,1,2.27,1.31Z"/><path class="be546065-f6b0-4737-a5d9-098300ae7b4d" d="M414.2,357.77a1.3,1.3,0,0,1-.2.75,1.51,1.51,0,0,1-2.07.56L267.58,275.74a1.51,1.51,0,0,1,1.52-2.62h0l144.34,83.34A1.47,1.47,0,0,1,414.2,357.77Zm-164-94.71a1.36,1.36,0,0,1-.2.76,1.52,1.52,0,0,1-2.07.55L103.58,181a1.51,1.51,0,0,1,1.51-2.62h0l144.32,83.34a1.51,1.51,0,0,1,.76,1.31Z"/></g></svg>