<svg id="fda8fcb3-95c9-40e6-8e0d-03f69f44d015" data-name="Layer 1" xmlns="http://www.w3.org/2000/svg" viewBox="0 0 414.81 359.91"><defs><style>.b7c3d3d2-89e6-496d-b102-e908f019d85d{fill:#000000;}</style></defs><title>07u</title><g id="ee01465c-ea82-416a-a847-32b46dc97ba5" data-name="Layer 1-2"><path class="b7c3d3d2-89e6-496d-b102-e908f019d85d" d="M39.4,359.64H1.52A1.5,1.5,0,0,1,.2,357.37l18.94-32.81a1.52,1.52,0,0,1,2.63,1.52L4.14,356.61H39.4a1.52,1.52,0,0,1,0,3Z" transform="translate(0.01 0.25)"/><path class="b7c3d3d2-89e6-496d-b102-e908f019d85d" d="M53.29,268.43a1.53,1.53,0,1,1,2.09-.57,1.54,1.54,0,0,1-2.09.57Z" transform="translate(0.01 0.25)"/><path class="b7c3d3d2-89e6-496d-b102-e908f019d85d" d="M87.66,210.44a1.45,1.45,0,0,1-.76-.21,1.52,1.52,0,0,1-.57-2.06h0L120,150a1.56,1.56,0,0,1,2.07-.54,1.52,1.52,0,0,1,.55,2.08h0L89,209.69A1.59,1.59,0,0,1,87.66,210.44ZM154.86,94a1.45,1.45,0,0,1-.76-.21,1.51,1.51,0,0,1-.71-.93,1.44,1.44,0,0,1,.15-1.13,1.56,1.56,0,0,1,2.08-.56,1.52,1.52,0,0,1-.76,2.83Z" transform="translate(0.01 0.25)"/><path class="b7c3d3d2-89e6-496d-b102-e908f019d85d" d="M226.35,35.84a1.53,1.53,0,0,1-1.32-.76L207.41,4.55,189.78,35.08a1.52,1.52,0,0,1-2.64-1.5h0L206.09.76a1.58,1.58,0,0,1,2.19-.44,1.84,1.84,0,0,1,.44.44l18.94,32.81a1.5,1.5,0,0,1-.55,2.06h0A1.53,1.53,0,0,1,226.35,35.84Z" transform="translate(0.01 0.25)"/><path class="b7c3d3d2-89e6-496d-b102-e908f019d85d" d="M258.64,93.28a1.51,1.51,0,1,1,2.62-1.51h0a1.49,1.49,0,0,1-.53,2l0,0a1.49,1.49,0,0,1-2-.52Z" transform="translate(0.01 0.25)"/><path class="b7c3d3d2-89e6-496d-b102-e908f019d85d" d="M360.75,268.63a1.51,1.51,0,1,1,1.31-2.27,1.45,1.45,0,0,1,.15,1.15,1.48,1.48,0,0,1-.7.92A1.36,1.36,0,0,1,360.75,268.63Zm-33.6-58.2a1.51,1.51,0,0,1-1.31-.76l-33.61-58.18a1.61,1.61,0,0,1-.15-1.16,1.45,1.45,0,0,1,.72-.92,1.53,1.53,0,0,1,2.06.56l33.6,58.19a1.49,1.49,0,0,1-.51,2l-.05,0a1.34,1.34,0,0,1-.75.2Z" transform="translate(0.01 0.25)"/><path class="b7c3d3d2-89e6-496d-b102-e908f019d85d" d="M413.3,359.64H375.41a1.52,1.52,0,0,1,0-3h35.26L393,326.08a1.52,1.52,0,0,1,2.63-1.52l18.94,32.81a1.51,1.51,0,0,1-1.31,2.27Z" transform="translate(0.01 0.25)"/><path class="b7c3d3d2-89e6-496d-b102-e908f019d85d" d="M306.69,358.14a1.52,1.52,0,1,1,1.54,1.5h0A1.52,1.52,0,0,1,306.69,358.14Z" transform="translate(0.01 0.25)"/><path class="b7c3d3d2-89e6-496d-b102-e908f019d85d" d="M241,359.64H173.8a1.52,1.52,0,0,1,0-3H241a1.52,1.52,0,1,1,.49,3A1.35,1.35,0,0,1,241,359.64Zm-134.4,0a1.52,1.52,0,1,1,1.51-1.53h0A1.52,1.52,0,0,1,106.6,359.64Z" transform="translate(0.01 0.25)"/><path class="b7c3d3d2-89e6-496d-b102-e908f019d85d" d="M207.41,359.64a1.52,1.52,0,0,1-1.52-1.5h0V320.25a1.52,1.52,0,1,1,3-.49,1.35,1.35,0,0,1,0,.49v37.88A1.52,1.52,0,0,1,207.41,359.64Z" transform="translate(0.01 0.25)"/><path class="b7c3d3d2-89e6-496d-b102-e908f019d85d" d="M205.9,264.07a1.52,1.52,0,0,1,1.5-1.52h0a1.53,1.53,0,0,1,0,3.05,1.52,1.52,0,0,1-1.51-1.51Z" transform="translate(0.01 0.25)"/><path class="b7c3d3d2-89e6-496d-b102-e908f019d85d" d="M207.41,209.41a1.5,1.5,0,0,1-1.51-1.49h0V151.74a1.52,1.52,0,0,1,3,0v56.17A1.52,1.52,0,0,1,207.41,209.41Zm0-112.32a1.39,1.39,0,1,1,1.49-1.52A1.52,1.52,0,0,1,207.41,97.09Z" transform="translate(0.01 0.25)"/><path class="b7c3d3d2-89e6-496d-b102-e908f019d85d" d="M207.41,40.91a1.52,1.52,0,0,1-1.52-1.51V1.52a1.52,1.52,0,1,1,3-.49,1.35,1.35,0,0,1,0,.49V39.4A1.52,1.52,0,0,1,207.41,40.91Z" transform="translate(0.01 0.25)"/><path class="b7c3d3d2-89e6-496d-b102-e908f019d85d" d="M277.55,200.28a1.52,1.52,0,0,1-.76-2.83l32.8-18.94a1.52,1.52,0,0,1,1.52,2.63L278.3,200.08A1.53,1.53,0,0,1,277.55,200.28Z" transform="translate(0.01 0.25)"/><path class="b7c3d3d2-89e6-496d-b102-e908f019d85d" d="M227.59,227.61a1.52,1.52,0,1,1,2.52-1.69,1.74,1.74,0,0,1,.11.18,1.53,1.53,0,0,1-1.32,2.27A1.51,1.51,0,0,1,227.59,227.61Z" transform="translate(0.01 0.25)"/><path class="b7c3d3d2-89e6-496d-b102-e908f019d85d" d="M83,312.62a1.5,1.5,0,0,1-1.3-.76,1.53,1.53,0,0,1,.54-2.08,1.57,1.57,0,0,1,2.08.57,1.49,1.49,0,0,1,.15,1.15A1.55,1.55,0,0,1,83,312.62Zm48.66-28.09a1.53,1.53,0,0,1-1.32-.76,1.47,1.47,0,0,1-.15-1.14,1.43,1.43,0,0,1,.69-.92l48.66-28.1a1.56,1.56,0,0,1,2.06.56,1.47,1.47,0,0,1,.15,1.16,1.43,1.43,0,0,1-.7.91l-48.64,28.09a1.66,1.66,0,0,1-.79.2Z" transform="translate(0.01 0.25)"/><path class="b7c3d3d2-89e6-496d-b102-e908f019d85d" d="M1.52,359.64a1.51,1.51,0,0,1-.76-2.82l32.8-18.95a1.52,1.52,0,0,1,1.52,2.63L2.27,359.44A1.53,1.53,0,0,1,1.52,359.64Z" transform="translate(0.01 0.25)"/><path class="b7c3d3d2-89e6-496d-b102-e908f019d85d" d="M137.27,200.28a1.54,1.54,0,0,1-.76-.2L103.7,181.14a1.52,1.52,0,0,1,1.52-2.63L138,197.45a1.52,1.52,0,0,1-.76,2.83Z" transform="translate(0.01 0.25)"/><path class="b7c3d3d2-89e6-496d-b102-e908f019d85d" d="M185.15,228.16a1.51,1.51,0,1,1,2.08-.55,1.54,1.54,0,0,1-1.32.76A1.66,1.66,0,0,1,185.15,228.16Z" transform="translate(0.01 0.25)"/><path class="b7c3d3d2-89e6-496d-b102-e908f019d85d" d="M331.84,312.62a1.44,1.44,0,0,1-.75-.21,1.52,1.52,0,0,1-.72-.91,1.53,1.53,0,0,1,2.23-1.72,1.52,1.52,0,0,1-.76,2.84ZM283.2,284.53a1.53,1.53,0,0,1-.75-.2l-48.66-28.09a1.5,1.5,0,0,1-.54-2.07,1.57,1.57,0,0,1,2.06-.56L284,281.71a1.51,1.51,0,0,1,.55,2.06A1.53,1.53,0,0,1,283.2,284.53Z" transform="translate(0.01 0.25)"/><path class="b7c3d3d2-89e6-496d-b102-e908f019d85d" d="M413.29,359.64a1.53,1.53,0,0,1-.75-.2L379.73,340.5a1.52,1.52,0,0,1,1.52-2.63l32.8,18.95a1.51,1.51,0,0,1-.76,2.82Z" transform="translate(0.01 0.25)"/></g></svg>