<svg data-name="Layer 1" xmlns="http://www.w3.org/2000/svg" viewBox="0 0 120.2 104.5"><defs><style>.a12d54e1-7fd2-4c0e-9b82-2e75f7098ebc,.a49fbf99-3c10-45d0-8039-afa86b346b96,.b427034d-37ea-4cab-a357-b0bea457c92a,.bba4995c-5afe-424d-995c-1c0e8e884fdd,.f057d523-2903-49a9-9aee-457dc5e92ee1,.f1465528-a9fd-4ac1-9385-aa45d0c99fb0,.f63e1088-9001-451d-9476-a205dfe4a3d3,.fb09c7a1-6e97-4d38-87cd-1a11c85c3ac9{fill:none;stroke:#000;stroke-linecap:round;stroke-linejoin:round;}.f63e1088-9001-451d-9476-a205dfe4a3d3{stroke-width:3px;}.b427034d-37ea-4cab-a357-b0bea457c92a{stroke-dasharray:2.12 2.12;}.a12d54e1-7fd2-4c0e-9b82-2e75f7098ebc{stroke-dasharray:2.12 2.12;}.f057d523-2903-49a9-9aee-457dc5e92ee1{stroke-dasharray:2.12 2.12;}.bba4995c-5afe-424d-995c-1c0e8e884fdd{stroke-dasharray:1.88 1.88;}.fb09c7a1-6e97-4d38-87cd-1a11c85c3ac9{stroke-dasharray:2.1 2.1;}.a49fbf99-3c10-45d0-8039-afa86b346b96{stroke-dasharray:2.12 2.12;}</style></defs><title>13</title><path class="f63e1088-9001-451d-9476-a205dfe4a3d3" d="M60.16,103H1.5L60.1,1.5,118.7,103ZM89.4,52.25V86m0,0L60.16,103M30.8,52.25v34M60.16,103,30.8,86.2M60.17,35.33,89.4,52.25m-58.6,0L60.17,35.33"/><line class="f1465528-a9fd-4ac1-9385-aa45d0c99fb0" x1="60.1" y1="1.5" x2="60.1" y2="2.5"/><line class="b427034d-37ea-4cab-a357-b0bea457c92a" x1="60.11" y1="4.62" x2="60.17" y2="33.27"/><line class="f1465528-a9fd-4ac1-9385-aa45d0c99fb0" x1="60.17" y1="34.33" x2="60.17" y2="35.33"/><line class="f1465528-a9fd-4ac1-9385-aa45d0c99fb0" x1="60.16" y1="103" x2="60.16" y2="102"/><line class="a12d54e1-7fd2-4c0e-9b82-2e75f7098ebc" x1="60.16" y1="99.88" x2="60.24" y2="71.29"/><line class="f1465528-a9fd-4ac1-9385-aa45d0c99fb0" x1="60.24" y1="70.23" x2="60.24" y2="69.23"/><line class="f1465528-a9fd-4ac1-9385-aa45d0c99fb0" x1="118.7" y1="103" x2="117.84" y2="102.5"/><line class="f057d523-2903-49a9-9aee-457dc5e92ee1" x1="116" y1="101.44" x2="91.19" y2="87.07"/><line class="f1465528-a9fd-4ac1-9385-aa45d0c99fb0" x1="90.27" y1="86.54" x2="89.4" y2="86.04"/><line class="f1465528-a9fd-4ac1-9385-aa45d0c99fb0" x1="60.24" y1="69.23" x2="59.38" y2="68.73"/><line class="bba4995c-5afe-424d-995c-1c0e8e884fdd" x1="57.75" y1="67.79" x2="32.48" y2="53.22"/><line class="f1465528-a9fd-4ac1-9385-aa45d0c99fb0" x1="31.67" y1="52.75" x2="30.8" y2="52.25"/><line class="f1465528-a9fd-4ac1-9385-aa45d0c99fb0" x1="1.81" y1="103" x2="2.68" y2="102.5"/><line class="fb09c7a1-6e97-4d38-87cd-1a11c85c3ac9" x1="4.49" y1="101.45" x2="29.03" y2="87.23"/><line class="f1465528-a9fd-4ac1-9385-aa45d0c99fb0" x1="29.94" y1="86.71" x2="30.8" y2="86.2"/><line class="f1465528-a9fd-4ac1-9385-aa45d0c99fb0" x1="60.24" y1="69.23" x2="61.11" y2="68.72"/><line class="a49fbf99-3c10-45d0-8039-afa86b346b96" x1="62.94" y1="67.66" x2="87.62" y2="53.29"/><line class="f1465528-a9fd-4ac1-9385-aa45d0c99fb0" x1="88.54" y1="52.75" x2="89.4" y2="52.25"/></svg>