<svg id="a764bd30-1e75-46ee-adda-1648d469bd5b" data-name="Layer 1" xmlns="http://www.w3.org/2000/svg" viewBox="0 0 413.6 358.5"><defs><style>.b275f556-09d9-415b-8a1f-67c1c323d9af{fill:#000000;}</style></defs><title>09u</title><g id="b56dc486-8dfc-49ae-84cc-7eb6d18960e6" data-name="Layer 1-2"><path class="b275f556-09d9-415b-8a1f-67c1c323d9af" d="M206.89,358.49h0a1.21,1.21,0,0,1-1.21-1.21,1.16,1.16,0,0,1,.36-.86,1.19,1.19,0,0,1,.85-.35,1.21,1.21,0,1,1,0,2.42Zm-17.69-1.3H189A119.94,119.94,0,0,1,86.87,238.47a118.81,118.81,0,0,1,8.24-43.58,1.22,1.22,0,0,1,2.25.92,117.58,117.58,0,0,0,92,159,1.15,1.15,0,0,1,.79.47,1.21,1.21,0,0,1-.26,1.7,1.26,1.26,0,0,1-.74.24Zm35.38-.06a1.22,1.22,0,0,1-1-1.93,1.36,1.36,0,0,1,.81-.48,118.69,118.69,0,0,0,47.88-18.58A117.44,117.44,0,0,0,316.14,195.6a1.24,1.24,0,0,1,.7-1.58,1.22,1.22,0,0,1,1.56.69,120,120,0,0,1-44.76,143.45,121.48,121.48,0,0,1-48.88,19ZM104,180.54a1.19,1.19,0,0,1-1.19-.91,1.21,1.21,0,0,1,.14-.91v-.11h0a1.21,1.21,0,0,1,1.63-.43,1.15,1.15,0,0,1,.58.73,1.25,1.25,0,0,1-.12.91h0v.06h0A1.21,1.21,0,0,1,104,180.54Zm205.65-.15a1.24,1.24,0,0,1-1.06-.61,1.22,1.22,0,0,1,.44-1.67h0a1.26,1.26,0,0,1,1.66.44h0a1.2,1.2,0,0,1-.43,1.64h0a1.12,1.12,0,0,1-.64.19ZM114,165.76a1.27,1.27,0,0,1-.75-.25,1.22,1.22,0,0,1-.21-1.71h0a120.05,120.05,0,0,1,187.51-.07,1.24,1.24,0,0,1,.26.89,1.21,1.21,0,0,1-1.34,1.07,1.23,1.23,0,0,1-.81-.45,117.52,117.52,0,0,0-142.36-32.79A116.59,116.59,0,0,0,115,165.3h0A1.18,1.18,0,0,1,114,165.76Z" transform="translate(0 0)"/><path class="b275f556-09d9-415b-8a1f-67c1c323d9af" d="M412.4,358.49a1.2,1.2,0,0,1-1.22-1.21,1.21,1.21,0,1,1,2.06.86A1.15,1.15,0,0,1,412.4,358.49Z" transform="translate(0 0)"/><path class="b275f556-09d9-415b-8a1f-67c1c323d9af" d="M403.56,343.19a1.2,1.2,0,0,1-1.05-.61l-16.87-29.2-16.86-29.21a1.21,1.21,0,1,1,2.1-1.22l16.86,29.21h0l16.87,29.21a1.22,1.22,0,0,1-.45,1.66A1.15,1.15,0,0,1,403.56,343.19Z" transform="translate(0 0)"/><path class="b275f556-09d9-415b-8a1f-67c1c323d9af" d="M318.43,343.19a1.2,1.2,0,0,1-1.05-1.81h0L351.11,283a1.21,1.21,0,1,1,2.1,1.22l-33.73,58.42A1.23,1.23,0,0,1,318.43,343.19Z" transform="translate(0 0)"/><path class="b275f556-09d9-415b-8a1f-67c1c323d9af" d="M394.72,358.49H327.27a1.22,1.22,0,1,1-.22-2.43h67.67a1.22,1.22,0,1,1,.22,2.43Z" transform="translate(0 0)"/><path class="b275f556-09d9-415b-8a1f-67c1c323d9af" d="M249.37,76.13a1.2,1.2,0,0,1-1.05-.61l-16.87-29.2h0L214.59,17.1a1.21,1.21,0,1,1,2.1-1.21L233.55,45.1h0l16.86,29.21A1.22,1.22,0,0,1,250,76h0A1.23,1.23,0,0,1,249.37,76.13Z" transform="translate(0 0)"/><path class="b275f556-09d9-415b-8a1f-67c1c323d9af" d="M206.8,2.4a1.21,1.21,0,0,1-.86-.35,1.25,1.25,0,0,1-.35-.86,1.3,1.3,0,0,1,.35-.86,1.3,1.3,0,0,1,1.73,0,1.22,1.22,0,0,1,.34.85,1.24,1.24,0,0,1-.34.86A1.23,1.23,0,0,1,206.8,2.4Z" transform="translate(0 0)"/><path class="b275f556-09d9-415b-8a1f-67c1c323d9af" d="M164.24,76.13a1.15,1.15,0,0,1-.6-.16,1.22,1.22,0,0,1-.45-1.66L180.05,45.1h0l16.87-29.21a1.21,1.21,0,1,1,2.21,1,1.59,1.59,0,0,1-.13.22L182.16,46.31,165.29,75.52A1.2,1.2,0,0,1,164.24,76.13Z" transform="translate(0 0)"/><path class="b275f556-09d9-415b-8a1f-67c1c323d9af" d="M215.64,343.19a1.2,1.2,0,0,1-1.16-1.25,1.14,1.14,0,0,1,.16-.57l16.86-29.21h0L248.32,283a1.2,1.2,0,0,1,1.64-.45h0a1.22,1.22,0,0,1,.45,1.66l-16.86,29.2h0L216.7,342.63A1.22,1.22,0,0,1,215.64,343.19Z" transform="translate(0 0)"/><path class="b275f556-09d9-415b-8a1f-67c1c323d9af" d="M291.93,358.49H224.47a1.22,1.22,0,0,1,0-2.43h67.46a1.22,1.22,0,0,1,0,2.43Z" transform="translate(0 0)"/><path class="b275f556-09d9-415b-8a1f-67c1c323d9af" d="M343.33,269.47H275.87a1.22,1.22,0,0,1,0-2.43h67.46a1.22,1.22,0,0,1,0,2.43Z" transform="translate(0 0)"/><path class="b275f556-09d9-415b-8a1f-67c1c323d9af" d="M300.76,343.19a1.23,1.23,0,0,1-1.05-.6l-16.86-29.21h0L266,284.17a1.22,1.22,0,0,1,2.11-1.22L285,312.16h0l16.86,29.21a1.2,1.2,0,0,1-.43,1.65,1.23,1.23,0,0,1-.62.17Z" transform="translate(0 0)"/><path class="b275f556-09d9-415b-8a1f-67c1c323d9af" d="M309.6,358.49a1.21,1.21,0,0,1-.86-.35,1.25,1.25,0,0,1-.35-.86,1.21,1.21,0,0,1,.35-.86,1.24,1.24,0,0,1,1.72,0,1.23,1.23,0,0,1,.35.85,1.21,1.21,0,0,1-1.21,1.21Z" transform="translate(0 0)"/><path class="b275f556-09d9-415b-8a1f-67c1c323d9af" d="M112.84,343.19a1.2,1.2,0,0,1-1.16-1.25,1.14,1.14,0,0,1,.16-.57l16.86-29.21h0L145.52,283a1.21,1.21,0,1,1,2.1,1.22l-16.86,29.2h0L113.9,342.59A1.24,1.24,0,0,1,112.84,343.19Z" transform="translate(0 0)"/><path class="b275f556-09d9-415b-8a1f-67c1c323d9af" d="M189.14,358.49H121.68a1.22,1.22,0,0,1,0-2.43h67.46a1.22,1.22,0,0,1,0,2.43Z" transform="translate(0 0)"/><path class="b275f556-09d9-415b-8a1f-67c1c323d9af" d="M240.53,269.47H173.08a1.22,1.22,0,1,1-.22-2.43.81.81,0,0,1,.22,0h67.45a1.22,1.22,0,1,1,.22,2.43Z" transform="translate(0 0)"/><path class="b275f556-09d9-415b-8a1f-67c1c323d9af" d="M198,343.19a1.23,1.23,0,0,1-1.05-.6l-16.86-29.21h0l-16.86-29.2a1.22,1.22,0,0,1,.45-1.66,1.19,1.19,0,0,1,1.64.43h0l16.87,29.21h0l16.8,29.2a1.2,1.2,0,0,1-.43,1.65,1.23,1.23,0,0,1-.62.17Z" transform="translate(0 0)"/><path class="b275f556-09d9-415b-8a1f-67c1c323d9af" d="M361,269.47a1.18,1.18,0,0,1-.87-.35,1.22,1.22,0,0,1,1.72-1.73,1.22,1.22,0,0,1,0,1.73A1.17,1.17,0,0,1,361,269.47Z" transform="translate(0 0)"/><path class="b275f556-09d9-415b-8a1f-67c1c323d9af" d="M352.16,254.17a1.2,1.2,0,0,1-1.05-.61l-33.73-58.42a1.21,1.21,0,0,1,2.1-1.21l33.73,58.42a1.22,1.22,0,0,1-.43,1.66,1.29,1.29,0,0,1-.57.16Z" transform="translate(0 0)"/><path class="b275f556-09d9-415b-8a1f-67c1c323d9af" d="M267,254.17a1.15,1.15,0,0,1-.6-.16,1.22,1.22,0,0,1-.45-1.66l33.73-58.42a1.2,1.2,0,0,1,1.65-.44h0a1.2,1.2,0,0,1,.45,1.64h0l-33.72,58.42A1.22,1.22,0,0,1,267,254.17Z" transform="translate(0 0)"/><path class="b275f556-09d9-415b-8a1f-67c1c323d9af" d="M164.24,254.17a1.15,1.15,0,0,1-.6-.16,1.22,1.22,0,0,1-.45-1.66l16.86-29.21h0l16.87-29.21a1.21,1.21,0,0,1,2.1,1.21l-16.86,29.21-16.87,29.21A1.2,1.2,0,0,1,164.24,254.17Z" transform="translate(0 0)"/><path class="b275f556-09d9-415b-8a1f-67c1c323d9af" d="M291.93,180.45H224.47a1.22,1.22,0,0,1,0-2.43h67.46a1.22,1.22,0,0,1,0,2.43Z" transform="translate(0 0)"/><path class="b275f556-09d9-415b-8a1f-67c1c323d9af" d="M249.37,254.17a1.2,1.2,0,0,1-1.05-.61l-16.87-29.21-16.86-29.21a1.19,1.19,0,0,1,.43-1.64h0a1.22,1.22,0,0,1,1.66.43h0l16.86,29.21h0l16.86,29.21A1.22,1.22,0,0,1,250,254,1.27,1.27,0,0,1,249.37,254.17Z" transform="translate(0 0)"/><path class="b275f556-09d9-415b-8a1f-67c1c323d9af" d="M258.2,269.47a1.17,1.17,0,0,1-.86-.35,1.21,1.21,0,0,1-.35-.86,1.3,1.3,0,0,1,.35-.87,1.25,1.25,0,0,1,1.71,0,1.23,1.23,0,0,1,.36.87,1.21,1.21,0,0,1-.35.86A1.25,1.25,0,0,1,258.2,269.47Z" transform="translate(0 0)"/><path class="b275f556-09d9-415b-8a1f-67c1c323d9af" d="M61.45,254.17a1.2,1.2,0,0,1-1.05-1.82l16.86-29.21h0l16.87-29.21a1.21,1.21,0,0,1,2.1,1.21L79.36,224.35,62.5,253.56A1.2,1.2,0,0,1,61.45,254.17Z" transform="translate(0 0)"/><path class="b275f556-09d9-415b-8a1f-67c1c323d9af" d="M189.14,180.45H121.68a1.22,1.22,0,0,1,0-2.43h67.46a1.22,1.22,0,0,1,0,2.43Z" transform="translate(0 0)"/><path class="b275f556-09d9-415b-8a1f-67c1c323d9af" d="M146.58,254.17a1.22,1.22,0,0,1-1.06-.61l-33.73-58.42a1.21,1.21,0,0,1,.58-1.62,1.22,1.22,0,0,1,1.53.41l33.72,58.42a1.22,1.22,0,0,1-.43,1.66,1.29,1.29,0,0,1-.57.16Z" transform="translate(0 0)"/><path class="b275f556-09d9-415b-8a1f-67c1c323d9af" d="M215.64,165.15a1.2,1.2,0,0,1-1.16-1.25,1.14,1.14,0,0,1,.16-.57l33.73-58.42a1.21,1.21,0,1,1,2.1,1.21h0l-33.73,58.42A1.22,1.22,0,0,1,215.64,165.15Z" transform="translate(0 0)"/><path class="b275f556-09d9-415b-8a1f-67c1c323d9af" d="M300.76,165.15a1.21,1.21,0,0,1-1.05-.61l-16.86-29.21h0L266,106.12a1.21,1.21,0,0,1,.58-1.62,1.22,1.22,0,0,1,1.53.41L285,134.12h0l16.86,29.21a1.2,1.2,0,0,1-.43,1.65,1.23,1.23,0,0,1-.62.17Z" transform="translate(0 0)"/><path class="b275f556-09d9-415b-8a1f-67c1c323d9af" d="M112.84,165.15a1.15,1.15,0,0,1-.6-.16,1.22,1.22,0,0,1-.45-1.66l33.73-58.42a1.2,1.2,0,0,1,1.65-.44h0a1.2,1.2,0,0,1,.45,1.64h0L113.9,164.54A1.22,1.22,0,0,1,112.84,165.15Z" transform="translate(0 0)"/><path class="b275f556-09d9-415b-8a1f-67c1c323d9af" d="M258.2,91.43a1.2,1.2,0,0,1-1.2-1.2v0a1.23,1.23,0,0,1,.35-.85,1.24,1.24,0,0,1,1.72,0,1.3,1.3,0,0,1,.35.86,1.2,1.2,0,0,1-1.18,1.22h0Z" transform="translate(0 0)"/><path class="b275f556-09d9-415b-8a1f-67c1c323d9af" d="M240.53,91.43H173.08a1.22,1.22,0,1,1-.22-2.43.81.81,0,0,1,.22,0h67.45a1.22,1.22,0,1,1,.22,2.43Z" transform="translate(0 0)"/><path class="b275f556-09d9-415b-8a1f-67c1c323d9af" d="M155.41,91.43a1.3,1.3,0,0,1-.87-.35,1.35,1.35,0,0,1-.35-.87,1.25,1.25,0,0,1,.35-.86,1.3,1.3,0,0,1,1.73,0,1.25,1.25,0,0,1,.35.86,1.23,1.23,0,0,1-.35.87A1.25,1.25,0,0,1,155.41,91.43Z" transform="translate(0 0)"/><path class="b275f556-09d9-415b-8a1f-67c1c323d9af" d="M198,165.15a1.2,1.2,0,0,1-1.05-.61l-16.86-29.21h0l-16.86-29.21a1.21,1.21,0,1,1,2.1-1.21h0l16.87,29.21h0L199,163.33a1.22,1.22,0,0,1-.43,1.66,1.33,1.33,0,0,1-.62.16Z" transform="translate(0 0)"/><path class="b275f556-09d9-415b-8a1f-67c1c323d9af" d="M206.8,180.45a1.2,1.2,0,0,1-1.21-1.21,1.27,1.27,0,0,1,.36-.87,1.22,1.22,0,0,1,1.72,1.73A1.35,1.35,0,0,1,206.8,180.45Z" transform="translate(0 0)"/><path class="b275f556-09d9-415b-8a1f-67c1c323d9af" d="M10.05,343.19a1.15,1.15,0,0,1-.6-.16A1.22,1.22,0,0,1,9,341.37L42.73,283a1.21,1.21,0,1,1,2.1,1.22L11.1,342.59A1.23,1.23,0,0,1,10.05,343.19Z" transform="translate(0 0)"/><path class="b275f556-09d9-415b-8a1f-67c1c323d9af" d="M1.23,358.49a1.18,1.18,0,0,1-.87-.35,1.31,1.31,0,0,1-.36-.86,1.22,1.22,0,0,1,.36-.86,1.24,1.24,0,0,1,1.72,0,1.18,1.18,0,0,1,.36.85,1.31,1.31,0,0,1-.36.86A1.18,1.18,0,0,1,1.23,358.49Z" transform="translate(0 0)"/><path class="b275f556-09d9-415b-8a1f-67c1c323d9af" d="M86.34,358.49H18.89a1.22,1.22,0,1,1-.22-2.43H86.34a1.22,1.22,0,1,1,.22,2.43Z" transform="translate(0 0)"/><path class="b275f556-09d9-415b-8a1f-67c1c323d9af" d="M155.41,269.47a1.22,1.22,0,0,1-.87-2.08,1.3,1.3,0,0,1,1.73,0,1.23,1.23,0,0,1,0,1.73A1.21,1.21,0,0,1,155.41,269.47Z" transform="translate(0 0)"/><path class="b275f556-09d9-415b-8a1f-67c1c323d9af" d="M137.74,269.47H70.28a1.22,1.22,0,0,1,0-2.43h67.46a1.22,1.22,0,0,1,0,2.43Z" transform="translate(0 0)"/><path class="b275f556-09d9-415b-8a1f-67c1c323d9af" d="M52.61,269.47a1.19,1.19,0,0,1-.85-.35,1.22,1.22,0,0,1,0-1.73h0a1.25,1.25,0,0,1,1.71,0,1.24,1.24,0,0,1,0,1.73A1.17,1.17,0,0,1,52.61,269.47Z" transform="translate(0 0)"/><path class="b275f556-09d9-415b-8a1f-67c1c323d9af" d="M95.18,343.19a1.23,1.23,0,0,1-1.05-.6L60.4,284.17A1.21,1.21,0,0,1,62.5,283l33.73,58.42a1.22,1.22,0,0,1-.45,1.66A1.13,1.13,0,0,1,95.18,343.19Z" transform="translate(0 0)"/><path class="b275f556-09d9-415b-8a1f-67c1c323d9af" d="M104,358.49a1.21,1.21,0,0,1-.85-2.07,1.25,1.25,0,0,1,1.71,0,1.21,1.21,0,0,1,.35.86,1.13,1.13,0,0,1-.36.86A1.17,1.17,0,0,1,104,358.49Z" transform="translate(0 0)"/></g></svg>