<svg data-name="Layer 1" xmlns="http://www.w3.org/2000/svg" viewBox="0 0 120.2 104.5"><defs><style>.a4300a43-465a-49bc-9d50-59e9de84562a,.aaa2251b-6b06-47e1-9c2e-167cfccc53bf,.b482c3b8-5b84-4b1f-b5bf-b01d69f8ceff,.b53d1cc0-cd0f-46a4-82ce-f12aaf0a57c0,.b72740fe-4d9f-4fd4-88d2-449db634f084,.b85af9ae-32d5-42b9-bff5-3ea6b09eca25,.ebbe175d-a416-4354-b2ae-958f9da0997b,.ef3143f4-09cb-4117-b440-d4b04c106180,.f3a2ab60-10a1-4211-a2de-66513bf682b2,.f3a75c4f-3ff6-43d3-ad6b-569210f956db,.f998af93-7cbd-4bf5-bdf6-be60ecb8223e{fill:none;stroke:#000;stroke-linecap:round;stroke-linejoin:round;}.f3a75c4f-3ff6-43d3-ad6b-569210f956db{stroke-dasharray:1.95 1.95;}.f3a2ab60-10a1-4211-a2de-66513bf682b2{stroke-dasharray:1.95 1.95;}.a4300a43-465a-49bc-9d50-59e9de84562a{stroke-dasharray:1.95 1.95;}.b85af9ae-32d5-42b9-bff5-3ea6b09eca25{stroke-dasharray:2 2;}.b72740fe-4d9f-4fd4-88d2-449db634f084{stroke-dasharray:2 2;}.b482c3b8-5b84-4b1f-b5bf-b01d69f8ceff{stroke-dasharray:2 2;}.aaa2251b-6b06-47e1-9c2e-167cfccc53bf{stroke-width:3px;}.f998af93-7cbd-4bf5-bdf6-be60ecb8223e{stroke-dasharray:2;}.ef3143f4-09cb-4117-b440-d4b04c106180{stroke-dasharray:1.95 1.95;}.b53d1cc0-cd0f-46a4-82ce-f12aaf0a57c0{stroke-dasharray:1.95 1.95;}</style></defs><title>16</title><line class="ebbe175d-a416-4354-b2ae-958f9da0997b" x1="45.51" y1="77.68" x2="46.38" y2="77.18"/><line class="f3a75c4f-3ff6-43d3-ad6b-569210f956db" x1="48.06" y1="76.2" x2="87.69" y2="53.24"/><line class="ebbe175d-a416-4354-b2ae-958f9da0997b" x1="88.54" y1="52.75" x2="89.4" y2="52.25"/><line class="ebbe175d-a416-4354-b2ae-958f9da0997b" x1="74.81" y1="77.63" x2="73.94" y2="77.13"/><line class="f3a2ab60-10a1-4211-a2de-66513bf682b2" x1="72.25" y1="76.15" x2="32.51" y2="53.24"/><line class="ebbe175d-a416-4354-b2ae-958f9da0997b" x1="31.67" y1="52.75" x2="30.8" y2="52.25"/><line class="ebbe175d-a416-4354-b2ae-958f9da0997b" x1="60.13" y1="52.25" x2="60.13" y2="53.25"/><line class="a4300a43-465a-49bc-9d50-59e9de84562a" x1="60.13" y1="55.2" x2="60.16" y2="101.02"/><line class="ebbe175d-a416-4354-b2ae-958f9da0997b" x1="60.16" y1="102" x2="60.16" y2="103"/><line class="ebbe175d-a416-4354-b2ae-958f9da0997b" x1="16.15" y1="77.63" x2="17.15" y2="77.63"/><line class="b85af9ae-32d5-42b9-bff5-3ea6b09eca25" x1="19.15" y1="77.63" x2="102.05" y2="77.63"/><line class="ebbe175d-a416-4354-b2ae-958f9da0997b" x1="103.05" y1="77.63" x2="104.05" y2="77.63"/><line class="ebbe175d-a416-4354-b2ae-958f9da0997b" x1="30.8" y1="103" x2="31.3" y2="102.13"/><line class="b72740fe-4d9f-4fd4-88d2-449db634f084" x1="32.3" y1="100.41" x2="73.81" y2="28.7"/><line class="ebbe175d-a416-4354-b2ae-958f9da0997b" x1="74.31" y1="27.84" x2="74.81" y2="26.97"/><line class="ebbe175d-a416-4354-b2ae-958f9da0997b" x1="89.4" y1="103" x2="88.9" y2="102.13"/><line class="b482c3b8-5b84-4b1f-b5bf-b01d69f8ceff" x1="87.9" y1="100.4" x2="46.51" y2="28.61"/><line class="ebbe175d-a416-4354-b2ae-958f9da0997b" x1="46.01" y1="27.74" x2="45.51" y2="26.88"/><polygon class="aaa2251b-6b06-47e1-9c2e-167cfccc53bf" points="60.16 103 1.5 103 60.1 1.5 118.7 103 60.16 103"/><polygon class="f998af93-7cbd-4bf5-bdf6-be60ecb8223e" points="60.16 103 89.4 52.25 30.8 52.25 60.16 103"/><line class="ebbe175d-a416-4354-b2ae-958f9da0997b" x1="1.5" y1="103" x2="2.37" y2="102.5"/><line class="ef3143f4-09cb-4117-b440-d4b04c106180" x1="4.06" y1="101.53" x2="43.8" y2="78.67"/><line class="ebbe175d-a416-4354-b2ae-958f9da0997b" x1="44.64" y1="78.18" x2="45.51" y2="77.68"/><line class="ebbe175d-a416-4354-b2ae-958f9da0997b" x1="74.81" y1="77.63" x2="75.67" y2="78.13"/><line class="b53d1cc0-cd0f-46a4-82ce-f12aaf0a57c0" x1="77.36" y1="79.1" x2="116.99" y2="102.01"/><line class="ebbe175d-a416-4354-b2ae-958f9da0997b" x1="117.84" y1="102.5" x2="118.7" y2="103"/><line class="ebbe175d-a416-4354-b2ae-958f9da0997b" x1="60.1" y1="1.5" x2="60.1" y2="2.5"/><line class="a4300a43-465a-49bc-9d50-59e9de84562a" x1="60.1" y1="4.45" x2="60.13" y2="50.27"/><line class="ebbe175d-a416-4354-b2ae-958f9da0997b" x1="60.13" y1="51.25" x2="60.13" y2="52.25"/></svg>