<svg id="b6184767-8e69-442b-a9e4-df0b7acf9634" data-name="Layer 1" xmlns="http://www.w3.org/2000/svg" viewBox="0 0 433.67 378.48"><defs><style>.b67a21e1-4d11-46c2-9757-f151d814ffbd{fill:#000000;}</style></defs><title>11u</title><g id="bf72166b-fd18-42f0-a2db-78cd6887f857" data-name="Layer 1-2"><path class="b67a21e1-4d11-46c2-9757-f151d814ffbd" d="M9.42,367.54a1.53,1.53,0,0,1,.2-.75L215.51,10.18a1.53,1.53,0,0,1,1.32-.76,1.51,1.51,0,0,1,1.31.76L424,366.79a1.52,1.52,0,0,1-.57,2.07,1.49,1.49,0,0,1-.74.2H10.94a1.5,1.5,0,0,1-1.52-1.5v0ZM216.83,14,13.56,366H420.09Z"/><path class="b67a21e1-4d11-46c2-9757-f151d814ffbd" d="M215.31,367.55a1.5,1.5,0,0,1,1.52-1.52,1.5,1.5,0,0,1,1.52,1.5,1.48,1.48,0,0,1-.44,1.08,1.53,1.53,0,0,1-1.08.45,1.52,1.52,0,0,1-1.52-1.51Z"/><path class="b67a21e1-4d11-46c2-9757-f151d814ffbd" d="M216.83,356.88a1.52,1.52,0,1,1-1.52,1.52h0A1.52,1.52,0,0,1,216.83,356.88Zm0-9.14a1.52,1.52,0,1,1-1.52,1.52h0A1.52,1.52,0,0,1,216.83,347.74Zm0-9.15a1.52,1.52,0,1,1-1.52,1.52h0A1.52,1.52,0,0,1,216.83,338.59Zm0-9.13a1.52,1.52,0,1,1-.49,0A1.35,1.35,0,0,1,216.83,329.46Zm0-9.14a1.52,1.52,0,1,1-.49,0A1.35,1.35,0,0,1,216.83,320.32Zm0-9.15a1.52,1.52,0,1,1-.49,0A1.35,1.35,0,0,1,216.83,311.17Zm0-9.16a1.41,1.41,0,1,1-.24,2.77,1.51,1.51,0,0,1-1.25-1.25,1.53,1.53,0,0,1,1.49-1.53Zm0-9.13a1.52,1.52,0,1,1-1.52,1.52h0a1.51,1.51,0,0,1,1.52-1.51Zm0-9.14a1.52,1.52,0,1,1-1.52,1.52h0a1.51,1.51,0,0,1,1.5-1.52Zm0-9.15a1.52,1.52,0,1,1-1.52,1.52h0a1.51,1.51,0,0,1,1.52-1.51Zm0-9.14a1.52,1.52,0,1,1-1.52,1.52h0a1.52,1.52,0,0,1,1.52-1.52Zm0-9.15a1.52,1.52,0,1,1-1.52,1.52h0a1.51,1.51,0,0,1,1.52-1.51Zm0-9.14a1.52,1.52,0,1,1-1.52,1.52,1.52,1.52,0,0,1,1.52-1.52Zm0-9.15a1.52,1.52,0,1,1-1.52,1.52h0a1.52,1.52,0,0,1,1.52-1.52Zm0-9.14a1.52,1.52,0,1,1-1.52,1.52,1.52,1.52,0,0,1,1.52-1.52Zm0-9.13a1.5,1.5,0,0,1,1.51,1.49v0a1.52,1.52,0,1,1-1.53-1.51Zm0-9.16a1.52,1.52,0,1,1-1.52,1.52,1.52,1.52,0,0,1,1.52-1.52Zm0-9.13a1.5,1.5,0,0,1,1.51,1.49v0a1.52,1.52,0,1,1-1.53-1.51Zm0-9.16a1.52,1.52,0,1,1-1.52,1.52,1.52,1.52,0,0,1,1.52-1.52Zm0-9.13a1.5,1.5,0,0,1,1.51,1.49v0a1.52,1.52,0,1,1-1.53-1.51Zm0-9.16a1.52,1.52,0,1,1-1.52,1.52,1.52,1.52,0,0,1,1.52-1.52Zm0-9.13a1.52,1.52,0,1,1-1.52,1.52h0a1.51,1.51,0,0,1,1.52-1.51Zm0-9.15a1.52,1.52,0,1,1-.49,0A1.35,1.35,0,0,1,216.83,155.72Zm0-9.14a1.52,1.52,0,1,1-1.52,1.52h0a1.51,1.51,0,0,1,1.52-1.51Zm0-9.14a1.52,1.52,0,1,1-1.52,1.52,1.52,1.52,0,0,1,1.52-1.52Zm0-9.15a1.52,1.52,0,1,1-1.52,1.52h0a1.51,1.51,0,0,1,1.52-1.51Zm0-9.14a1.52,1.52,0,1,1-1.52,1.52,1.52,1.52,0,0,1,1.52-1.52Zm0-9.15a1.52,1.52,0,1,1-1.52,1.52h0a1.51,1.51,0,0,1,1.52-1.51Zm0-9.14a1.52,1.52,0,1,1-1.52,1.52,1.52,1.52,0,0,1,1.52-1.52Zm0-9.15a1.52,1.52,0,1,1-1.52,1.52,1.52,1.52,0,0,1,1.52-1.52Zm0-9.14a1.52,1.52,0,1,1-1.52,1.52,1.52,1.52,0,0,1,1.52-1.52Zm0-9.15a1.52,1.52,0,1,1-1.52,1.52,1.52,1.52,0,0,1,1.52-1.52Zm0-9.14a1.52,1.52,0,1,1-1.52,1.52,1.52,1.52,0,0,1,1.52-1.52Zm0-9.15a1.52,1.52,0,1,1-1.52,1.52,1.52,1.52,0,0,1,1.52-1.52Zm0-9.14a1.52,1.52,0,1,1-1.52,1.52A1.52,1.52,0,0,1,216.83,46Zm0-9.13a1.52,1.52,0,1,1-.49,0A1.35,1.35,0,0,1,216.83,36.86Zm0-9.15a1.52,1.52,0,1,1-.49,0A1.35,1.35,0,0,1,216.83,27.71Zm0-9.14a1.52,1.52,0,1,1-.49,0A1.35,1.35,0,0,1,216.83,18.57Z"/><path class="b67a21e1-4d11-46c2-9757-f151d814ffbd" d="M215.31,10.93a1.5,1.5,0,0,1,1.49-1.51h0a1.56,1.56,0,0,1,1.08.44,1.61,1.61,0,0,1,0,2.15,1.56,1.56,0,0,1-1.08.44,1.62,1.62,0,0,1-1.08-.45A1.54,1.54,0,0,1,215.31,10.93Z"/><path class="b67a21e1-4d11-46c2-9757-f151d814ffbd" d="M318.26,189.23a1.42,1.42,0,0,1,.44-1.06,1.51,1.51,0,0,1,2.15,0,1.57,1.57,0,0,1,0,2.14,1.52,1.52,0,0,1-2.59-1.08Z"/><path class="b67a21e1-4d11-46c2-9757-f151d814ffbd" d="M18.1,361.65a1.52,1.52,0,1,1-.56,2.08,1.53,1.53,0,0,1,.56-2.08ZM26,357.09a1.49,1.49,0,0,1,2,.54h0a1.51,1.51,0,0,1-2.62,1.51h0a1.34,1.34,0,0,1-.2-.75A1.49,1.49,0,0,1,26,357.09Zm7.91-4.57a1.51,1.51,0,1,1-.55,2.07,1.44,1.44,0,0,1-.21-.75A1.48,1.48,0,0,1,33.94,352.52Zm7.92-4.58a1.53,1.53,0,1,1-.55,2.09,1.49,1.49,0,0,1-.21-.77,1.54,1.54,0,0,1,.76-1.32Zm7.91-4.57a1.52,1.52,0,1,1,1.62,2.57l-.1.06a1.53,1.53,0,0,1-2.09-.61,1.48,1.48,0,0,1-.19-.71,1.51,1.51,0,0,1,.76-1.31Zm7.88-4.57a1.49,1.49,0,0,1,2.05.54h0A1.52,1.52,0,1,1,57.14,341l-.06-.1a1.53,1.53,0,0,1-.19-.76A1.51,1.51,0,0,1,57.65,338.8Zm8-4.57a1.51,1.51,0,0,1,1.52,2.62h0a1.53,1.53,0,0,1-2.08-.55,1.34,1.34,0,0,1-.2-.75A1.48,1.48,0,0,1,65.65,334.23Zm7.91-4.58a1.54,1.54,0,0,1,2.08.56,1.52,1.52,0,0,1-.56,2.06,1.5,1.5,0,0,1-2-.5l0,0a1.53,1.53,0,0,1,.52-2.08Zm7.92-4.56a1.51,1.51,0,1,1-.55,2.06h0A1.51,1.51,0,0,1,81.48,325.09Zm7.92-4.57a1.5,1.5,0,1,1-.57,2,1.53,1.53,0,0,1-.19-.73,1.48,1.48,0,0,1,.73-1.31Zm7.92-4.58a1.51,1.51,0,0,1,1.51,2.62h0a1.5,1.5,0,0,1-2.27-1.3,1.53,1.53,0,0,1,.73-1.32Zm7.91-4.58a1.53,1.53,0,1,1-.54,2.09h0a1.59,1.59,0,0,1,.52-2.08Zm7.92-4.56a1.51,1.51,0,1,1,1.52,2.62,1.49,1.49,0,0,1-2-.53l0,0a1.31,1.31,0,0,1-.21-.75,1.5,1.5,0,0,1,.72-1.31Zm7.93-4.57a1.51,1.51,0,0,1,1.51,2.62h0a1.51,1.51,0,1,1-1.51-2.62Zm7.91-4.58a1.49,1.49,0,1,1-.55,2.08,1.66,1.66,0,0,1-.21-.76,1.51,1.51,0,0,1,.73-1.32Zm7.92-4.56a1.49,1.49,0,0,1,2,.51l0,0a1.51,1.51,0,0,1-.52,2.07h0a1.5,1.5,0,0,1-2.27-1.32,1.5,1.5,0,0,1,.72-1.3Zm7.91-4.58a1.52,1.52,0,1,1-.53,2.08v0a1.34,1.34,0,0,1-.2-.75,1.51,1.51,0,0,1,.71-1.31Zm7.93-4.57a1.51,1.51,0,1,1-.55,2.07,1.44,1.44,0,0,1-.21-.75,1.51,1.51,0,0,1,.73-1.32Zm7.9-4.58a1.5,1.5,0,0,1,2,.54v0a1.48,1.48,0,0,1-.5,2l0,0a1.51,1.51,0,0,1-1.52-2.62Zm7.91-4.56a1.51,1.51,0,1,1-.54,2.07h0a1.49,1.49,0,0,1,.51-2Zm7.93-4.58a1.52,1.52,0,0,1,1.51,2.64,1.51,1.51,0,0,1-2.27-1.32,1.5,1.5,0,0,1,.75-1.32Zm7.91-4.57a1.52,1.52,0,1,1-.55,2.07h0a1.53,1.53,0,0,1,.54-2.07Zm7.92-4.58a1.52,1.52,0,1,1-.54,2.08,1.49,1.49,0,0,1,.49-2l0,0Zm7.93-4.56a1.51,1.51,0,0,1,1.51,2.62,1.53,1.53,0,0,1-2.07-.56,1.47,1.47,0,0,1-.2-.74,1.5,1.5,0,0,1,.75-1.32Zm7.91-4.58a1.52,1.52,0,1,1-.55,2.08,1.51,1.51,0,0,1,.53-2.07Zm7.92-4.57a1.52,1.52,0,1,1-.56,2.07h0a1.53,1.53,0,0,1,.55-2.07ZM224,242.8a1.49,1.49,0,0,1,2,.51l0,0a1.51,1.51,0,1,1-2.62,1.52,1.51,1.51,0,0,1,.56-2.06Zm7.91-4.58a1.51,1.51,0,0,1,1.51,2.62,1.49,1.49,0,0,1-2-.53l0,0a1.38,1.38,0,0,1-.21-.74,1.5,1.5,0,0,1,.75-1.32Zm7.92-4.58a1.52,1.52,0,0,1,1.51,2.64,1.52,1.52,0,0,1-1.52-2.64Zm7.91-4.57a1.52,1.52,0,1,1-.56,2.08,1.52,1.52,0,0,1,.56-2.08Zm7.9-4.56a1.52,1.52,0,0,1,2.07.54h0a1.52,1.52,0,1,1-2.83.76A1.48,1.48,0,0,1,255.65,224.51Zm7.9-4.58A1.52,1.52,0,1,1,263,222h0a1.54,1.54,0,0,1-.2-.76,1.56,1.56,0,0,1,.76-1.32Zm7.93-4.57a1.51,1.51,0,1,1-.55,2.07,1.55,1.55,0,0,1-.21-.76,1.53,1.53,0,0,1,.78-1.31Zm7.92-4.58a1.52,1.52,0,0,1,1.52,2.64,1.5,1.5,0,0,1-2.27-1.32,1.56,1.56,0,0,1,.77-1.32Zm7.91-4.56a1.51,1.51,0,1,1-.54,2.06,1.45,1.45,0,0,1-.21-.76,1.49,1.49,0,0,1,.77-1.3Zm7.93-4.58a1.51,1.51,0,0,1,1.51,2.62,1.49,1.49,0,0,1-2-.53l0,0a1.31,1.31,0,0,1-.21-.75,1.49,1.49,0,0,1,.78-1.31Zm7.92-4.57a1.51,1.51,0,1,1-.56,2.07,1.53,1.53,0,0,1-.19-.76,1.5,1.5,0,0,1,.77-1.31Zm7.91-4.56a1.51,1.51,0,0,1,2.07.52v0a1.54,1.54,0,0,1-.56,2.08,1.52,1.52,0,0,1-2.06-.56,1.45,1.45,0,0,1-.21-.76,1.49,1.49,0,0,1,.77-1.3Z"/><path class="b67a21e1-4d11-46c2-9757-f151d814ffbd" d="M9.42,367.55a1.52,1.52,0,0,1,3,0,1.48,1.48,0,0,1-.44,1.08,1.53,1.53,0,0,1-1.08.45,1.54,1.54,0,0,1-1.51-1.51Z"/><path class="b67a21e1-4d11-46c2-9757-f151d814ffbd" d="M112.37,189.23a1.52,1.52,0,0,1,1.51-1.51,1.53,1.53,0,0,1,1.08.45,1.57,1.57,0,0,1,0,2.14,1.53,1.53,0,0,1-2.15,0A1.56,1.56,0,0,1,112.37,189.23Z"/><path class="b67a21e1-4d11-46c2-9757-f151d814ffbd" d="M120.49,193.05a1.51,1.51,0,1,1,2.62,1.52h0a1.51,1.51,0,0,1-2.82-.76A1.54,1.54,0,0,1,120.49,193.05Zm7.92,4.58a1.51,1.51,0,1,1,.55,2.06h0a1.49,1.49,0,0,1-.76-1.31A1.54,1.54,0,0,1,128.41,197.63Zm7.91,4.57a1.52,1.52,0,0,1,2.08-.56,1.51,1.51,0,1,1-2.27,1.31,1.52,1.52,0,0,1,.19-.75Zm7.93,4.56a1.51,1.51,0,0,1,2.62,1.52h0a1.51,1.51,0,1,1-2.62-1.52Zm7.92,4.58a1.5,1.5,0,1,1-.21.76,1.36,1.36,0,0,1,.21-.76Zm7.91,4.58a1.51,1.51,0,0,1,2.07-.56h0a1.52,1.52,0,0,1-1.51,2.64h0a1.53,1.53,0,0,1-.56-2.06Zm7.93,4.57a1.49,1.49,0,1,1,.52,2,1.46,1.46,0,0,1-.73-1.29,1.44,1.44,0,0,1,.21-.75Zm7.91,4.56a1.52,1.52,0,1,1,.56,2.08A1.52,1.52,0,0,1,175.92,225.05Zm7.92,4.58a1.51,1.51,0,1,1,.56,2.06h0a1.47,1.47,0,0,1-.77-1.3,1.55,1.55,0,0,1,.21-.76Zm7.93,4.58a1.5,1.5,0,0,1,2-.58h0a1.54,1.54,0,0,1,.56,2.08,1.52,1.52,0,0,1-2.84-.76,1.43,1.43,0,0,1,.22-.75Zm7.91,4.56a1.51,1.51,0,0,1,2.62,1.51h0a1.49,1.49,0,0,1-2,.58l0,0a1.53,1.53,0,0,1-.76-1.32,1.5,1.5,0,0,1,.17-.75Zm7.92,4.57a1.51,1.51,0,1,1,.56,2.08,1.49,1.49,0,0,1-.58-2Zm7.91,4.58a1.52,1.52,0,1,1,.58,2.07h0a1.5,1.5,0,0,1-.76-1.3,1.54,1.54,0,0,1,.2-.76Zm7.93,4.57a1.51,1.51,0,1,1-.2.75,1.34,1.34,0,0,1,.2-.75Zm7.92,4.57a1.51,1.51,0,1,1,.55,2.07,1.53,1.53,0,0,1-.76-1.32,1.44,1.44,0,0,1,.21-.75Zm7.91,4.57a1.51,1.51,0,1,1,.56,2.08,1.53,1.53,0,0,1-.56-2.08Zm7.93,4.58a1.48,1.48,0,0,1,2-.58l0,0a1.51,1.51,0,0,1-1.52,2.62,1.48,1.48,0,0,1-.58-2Zm7.9,4.57a1.5,1.5,0,1,1,.54,2A1.52,1.52,0,0,1,255.1,270.78Zm7.93,4.57a1.53,1.53,0,1,1-.2.75,1.54,1.54,0,0,1,.2-.75Zm7.92,4.57a1.52,1.52,0,0,1,2.06-.56,1.51,1.51,0,1,1-1.53,2.6,1.52,1.52,0,0,1-.74-1.28,1.55,1.55,0,0,1,.21-.76Zm7.91,4.58a1.54,1.54,0,1,1-.19.74,1.48,1.48,0,0,1,.19-.74Zm7.93,4.56a1.52,1.52,0,1,1,.56,2.09,1.52,1.52,0,0,1-.56-2.09Zm7.92,4.57a1.51,1.51,0,1,1-.21.76,1.45,1.45,0,0,1,.21-.76Zm7.91,4.58a1.51,1.51,0,0,1,2.62,1.52,1.5,1.5,0,0,1-2,.56l0,0a1.46,1.46,0,0,1-.75-1.3,1.56,1.56,0,0,1,.22-.76Zm7.93,4.58a1.48,1.48,0,0,1,2-.58l0,0a1.51,1.51,0,1,1-1.52,2.61,1.5,1.5,0,0,1-.75-1.31,1.3,1.3,0,0,1,.21-.74Zm7.91,4.56a1.52,1.52,0,1,1-.2.76,1.54,1.54,0,0,1,.2-.76Zm7.92,4.57a1.5,1.5,0,0,1,2.58,1.53,1.51,1.51,0,0,1-2.06.53,1.54,1.54,0,0,1-.73-1.3,1.66,1.66,0,0,1,.21-.76Zm7.91,4.58a1.52,1.52,0,1,1,.58,2.07h0a1.49,1.49,0,0,1-.75-1.3,1.53,1.53,0,0,1,.19-.76Zm7.93,4.56a1.53,1.53,0,1,1,.57,2.09,1.54,1.54,0,0,1-.57-2.09Zm7.91,4.58a1.51,1.51,0,1,1-.2.75,1.52,1.52,0,0,1,.2-.75Zm7.92,4.57a1.54,1.54,0,0,1,2.08-.56,1.52,1.52,0,0,1-1.48,2.64,1.62,1.62,0,0,1-.6-2.08Zm7.93,4.58a1.48,1.48,0,0,1,2-.58l0,0a1.51,1.51,0,1,1-2.27,1.3,1.38,1.38,0,0,1,.21-.74Zm7.91,4.56a1.53,1.53,0,1,1,.57,2.09,1.54,1.54,0,0,1-.57-2.09Zm7.92,4.58a1.49,1.49,0,1,1,.56,2.07,1.56,1.56,0,0,1-.76-1.32,1.53,1.53,0,0,1,.2-.75Zm7.93,4.57a1.52,1.52,0,0,1,2.06-.56,1.54,1.54,0,0,1,.56,2.08,1.51,1.51,0,1,1-2.62-1.52Zm7.91,4.56a1.53,1.53,0,1,1,.57,2.09,1.54,1.54,0,0,1-.57-2.09Zm7.92,4.58a1.52,1.52,0,1,1-.21.76,1.45,1.45,0,0,1,.21-.76Zm7.93,4.58a1.51,1.51,0,0,1,2.06-.57h0a1.52,1.52,0,1,1-2.28,1.35,1.34,1.34,0,0,1,.22-.78Z"/><path class="b67a21e1-4d11-46c2-9757-f151d814ffbd" d="M421.21,367.55a1.48,1.48,0,0,1,.44-1.08,1.52,1.52,0,0,1,1.07-.44,1.5,1.5,0,0,1,1.06.44,1.55,1.55,0,0,1,0,2.14,1.47,1.47,0,0,1-1.06.45,1.49,1.49,0,0,1-1.07-.45A1.42,1.42,0,0,1,421.21,367.55Z"/><circle class="b67a21e1-4d11-46c2-9757-f151d814ffbd" cx="422.73" cy="367.53" r="10.93"/><circle class="b67a21e1-4d11-46c2-9757-f151d814ffbd" cx="10.93" cy="367.55" r="10.93"/><circle class="b67a21e1-4d11-46c2-9757-f151d814ffbd" cx="216.83" cy="10.93" r="10.93"/></g></svg>