<svg id="e9d1e5cb-88f5-4a47-a9d2-dd883399ae9f" data-name="Layer 1" xmlns="http://www.w3.org/2000/svg" viewBox="0 0 414.8 359.66"><defs><style>.a2552345-6c2f-43bd-913a-4e61ddc01bd6{fill:#000000;}</style></defs><title>13u</title><g id="b6555395-7805-414f-897a-9d09ac2be6f3" data-name="Layer 1-2"><path class="a2552345-6c2f-43bd-913a-4e61ddc01bd6" d="M1.51,356.62a1.48,1.48,0,0,1,1.06.46,1.46,1.46,0,0,1,.07,2.06l-.07.07a1.55,1.55,0,0,1-2.14,0A1.49,1.49,0,0,1,0,358.14a1.45,1.45,0,0,1,.43-1.06A1.51,1.51,0,0,1,1.51,356.62Z" transform="translate(0 0.02)"/><path class="a2552345-6c2f-43bd-913a-4e61ddc01bd6" d="M86.28,209.75a1.44,1.44,0,0,1,.76.2,1.52,1.52,0,0,1,.55,2.07l-33.3,57.69h0L21,327.4a1.51,1.51,0,1,1-2.62-1.52h0l33.3-57.68L85,210.51A1.51,1.51,0,0,1,86.28,209.75Z" transform="translate(0 0.02)"/><path class="a2552345-6c2f-43bd-913a-4e61ddc01bd6" d="M189.24,31.44a1.45,1.45,0,0,1,.76.21,1.55,1.55,0,0,1,.54,2.08L123.93,149.1a1.57,1.57,0,0,1-2.13.52,1.51,1.51,0,0,1-.55-2.05h0L187.92,32.2A1.54,1.54,0,0,1,189.24,31.44ZM104.46,178.28a1.49,1.49,0,0,1,.74.2,1.51,1.51,0,0,1,.56,2.07h0a1.58,1.58,0,0,1-2.07.56,1.52,1.52,0,0,1-.7-.93,1.49,1.49,0,0,1,.15-1.15A1.53,1.53,0,0,1,104.46,178.28Z" transform="translate(0 0.02)"/><path class="a2552345-6c2f-43bd-913a-4e61ddc01bd6" d="M207.39,0a1.56,1.56,0,0,1,1.08.44,1.55,1.55,0,0,1,.44,1.08,1.52,1.52,0,0,1-.44,1.06,1.58,1.58,0,0,1-2.16,0,1.58,1.58,0,0,1-.44-1.06,1.51,1.51,0,0,1,.46-1.08A1.42,1.42,0,0,1,207.39,0Z" transform="translate(0 0.02)"/><path class="a2552345-6c2f-43bd-913a-4e61ddc01bd6" d="M225.56,31.44a1.51,1.51,0,0,1,1.31.76l33.31,57.68h0l33.3,57.68a1.51,1.51,0,0,1-2.62,1.52L257.55,91.39h0L224.25,33.7a1.52,1.52,0,0,1,.55-2.08h0A1.55,1.55,0,0,1,225.56,31.44Z" transform="translate(0 0.02)"/><path class="a2552345-6c2f-43bd-913a-4e61ddc01bd6" d="M310.34,178.28a1.53,1.53,0,0,1,1.32.76,1.52,1.52,0,0,1-2.57,1.62l-.06-.1a1.52,1.52,0,0,1,.54-2.07h0A1.45,1.45,0,0,1,310.34,178.28Zm18.17,31.47a1.51,1.51,0,0,1,1.31.76l66.61,115.37a1.56,1.56,0,0,1,.16,1.16,1.5,1.5,0,0,1-.72.9,1.54,1.54,0,0,1-2.06-.54L327.2,212a1.52,1.52,0,0,1,.55-2.08h0A1.54,1.54,0,0,1,328.51,209.75Z" transform="translate(0 0.02)"/><path class="a2552345-6c2f-43bd-913a-4e61ddc01bd6" d="M413.28,356.62a1.49,1.49,0,0,1,1.08,2.55,1.57,1.57,0,0,1-2.15,0,1.5,1.5,0,0,1,0-2.13A1.48,1.48,0,0,1,413.28,356.62Z" transform="translate(0 0.02)"/><path class="a2552345-6c2f-43bd-913a-4e61ddc01bd6" d="M243.73,356.62H377a1.52,1.52,0,1,1,.49,3,2,2,0,0,1-.49,0H243.73a1.52,1.52,0,1,1-.49-3A1.35,1.35,0,0,1,243.73,356.62Z" transform="translate(0 0.02)"/><path class="a2552345-6c2f-43bd-913a-4e61ddc01bd6" d="M37.8,356.62H171.07a1.5,1.5,0,1,1,0,3H37.8a1.5,1.5,0,0,1-1.5-1.48v0A1.52,1.52,0,0,1,37.8,356.62Zm169.59,0a1.39,1.39,0,1,1-1.48,1.52A1.53,1.53,0,0,1,207.39,356.62Z" transform="translate(0 0.02)"/><path class="a2552345-6c2f-43bd-913a-4e61ddc01bd6" d="M207.39,356.62a1.52,1.52,0,0,1,1.08.46,1.5,1.5,0,0,1,0,2.13,1.55,1.55,0,0,1-2.14,0,1.47,1.47,0,0,1-.07-2.07l.07-.06A1.48,1.48,0,0,1,207.39,356.62Z" transform="translate(0 0.02)"/><path class="a2552345-6c2f-43bd-913a-4e61ddc01bd6" d="M207.39,209.75a1.52,1.52,0,0,1,1.52,1.51V326.62a1.52,1.52,0,0,1-3,0V211.26A1.52,1.52,0,0,1,207.39,209.75Z" transform="translate(0 0.02)"/><path class="a2552345-6c2f-43bd-913a-4e61ddc01bd6" d="M207.39,31.44A1.52,1.52,0,0,1,208.91,33V148.34a1.51,1.51,0,1,1-3,0V33A1.51,1.51,0,0,1,207.39,31.44Zm0,146.84a1.52,1.52,0,1,1,.49,3,2,2,0,0,1-.49,0,1.52,1.52,0,0,1,0-3Z" transform="translate(0 0.02)"/><path class="a2552345-6c2f-43bd-913a-4e61ddc01bd6" d="M207.39,0a1.56,1.56,0,0,1,1.08.44,1.55,1.55,0,0,1,.44,1.08,1.52,1.52,0,0,1-.44,1.06,1.58,1.58,0,0,1-2.16,0,1.58,1.58,0,0,1-.44-1.06,1.51,1.51,0,0,1,.46-1.08A1.42,1.42,0,0,1,207.39,0Z" transform="translate(0 0.02)"/><path class="a2552345-6c2f-43bd-913a-4e61ddc01bd6" d="M310.34,178.28a1.44,1.44,0,0,1,1.07.44,1.53,1.53,0,0,1,.44,1.08,1.48,1.48,0,0,1-.44,1.07,1.52,1.52,0,0,1-2.59-1.07,1.5,1.5,0,0,1,1.48-1.52Z" transform="translate(0 0.02)"/><path class="a2552345-6c2f-43bd-913a-4e61ddc01bd6" d="M283.09,194a1.51,1.51,0,0,1,1.52,1.5,1.53,1.53,0,0,1-.76,1.32l-50,28.85h0l-50,28.84a1.51,1.51,0,0,1-1.52-2.62l50-28.84h0l50-28.84A1.45,1.45,0,0,1,283.09,194Z" transform="translate(0 0.02)"/><path class="a2552345-6c2f-43bd-913a-4e61ddc01bd6" d="M155.92,267.44a1.53,1.53,0,0,1,1.32.76,1.59,1.59,0,0,1,.15,1.15,1.52,1.52,0,0,1-2.78.36,1.52,1.52,0,0,1,.55-2.07A1.44,1.44,0,0,1,155.92,267.44Zm-27.25,15.73a1.53,1.53,0,0,1,1.32.76,1.49,1.49,0,0,1,.15,1.15,1.53,1.53,0,0,1-.71.92L29.51,343.69a1.55,1.55,0,0,1-2.07-.56,1.51,1.51,0,0,1,.56-2.06l99.92-57.69A1.44,1.44,0,0,1,128.67,283.17Z" transform="translate(0 0.02)"/><path class="a2552345-6c2f-43bd-913a-4e61ddc01bd6" d="M1.51,356.62a1.48,1.48,0,0,1,1.06.46,1.46,1.46,0,0,1,.07,2.06l-.07.07a1.55,1.55,0,0,1-2.14,0A1.49,1.49,0,0,1,0,358.14a1.45,1.45,0,0,1,.43-1.06A1.51,1.51,0,0,1,1.51,356.62Z" transform="translate(0 0.02)"/><path class="a2552345-6c2f-43bd-913a-4e61ddc01bd6" d="M104.44,178.28a1.56,1.56,0,0,1,1.08.44,1.53,1.53,0,0,1,.44,1.08,1.48,1.48,0,0,1-.44,1.07,1.57,1.57,0,0,1-2.14,0,1.49,1.49,0,0,1-.45-1.07,1.5,1.5,0,0,1,1.51-1.52Z" transform="translate(0 0.02)"/><path class="a2552345-6c2f-43bd-913a-4e61ddc01bd6" d="M131.7,194a1.44,1.44,0,0,1,.76.2l50,28.84h0l49.95,28.84a1.51,1.51,0,1,1-1.51,2.62l-50-28.84h0l-50-28.85a1.52,1.52,0,0,1-.56-2.06,1.49,1.49,0,0,1,1.32-.76Z" transform="translate(0 0.02)"/><path class="a2552345-6c2f-43bd-913a-4e61ddc01bd6" d="M258.86,267.44a1.36,1.36,0,0,1,.76.2,1.52,1.52,0,0,1,.56,2.07,1.55,1.55,0,0,1-2.07.55,1.48,1.48,0,0,1-.7-.91,1.45,1.45,0,0,1,.15-1.15A1.5,1.5,0,0,1,258.86,267.44Zm27.26,15.73a1.45,1.45,0,0,1,.76.21l99.92,57.69a1.49,1.49,0,0,1,.56,2l0,0a1.53,1.53,0,0,1-2.06.56L285.37,286a1.53,1.53,0,0,1-.54-2.08,1.5,1.5,0,0,1,1.29-.75Z" transform="translate(0 0.02)"/><path class="a2552345-6c2f-43bd-913a-4e61ddc01bd6" d="M413.28,356.62a1.49,1.49,0,0,1,1.08,2.55,1.57,1.57,0,0,1-2.15,0,1.5,1.5,0,0,1,0-2.13A1.48,1.48,0,0,1,413.28,356.62Z" transform="translate(0 0.02)"/></g></svg>