<svg id="f23649fd-9e17-44cd-8295-d02f75b53679" data-name="Layer 1" xmlns="http://www.w3.org/2000/svg" viewBox="0 0 414.81 359.89"><defs><style>.b6485317-b6ff-4533-95f6-ffb38e0dc4f9{fill:#000000;}</style></defs><title>14u</title><g id="af492397-47b7-472f-8d79-16541df875ed" data-name="Layer 1-2"><path class="b6485317-b6ff-4533-95f6-ffb38e0dc4f9" d="M31.81,303.87a1.54,1.54,0,0,1,.76.2,1.52,1.52,0,0,1,.55,2.07l-29,50.25h58a1.52,1.52,0,0,1,0,3H1.51A1.52,1.52,0,0,1,0,357.86a1.49,1.49,0,0,1,.2-.74l30.31-52.5A1.53,1.53,0,0,1,31.81,303.87Z" transform="translate(0 0.25)"/><path class="b6485317-b6ff-4533-95f6-ffb38e0dc4f9" d="M58,260a1.49,1.49,0,0,1,.58,2l0,0a1.51,1.51,0,1,1-2.62-1.51,1.48,1.48,0,0,1,1.3-.76A1.66,1.66,0,0,1,58,260Zm-7.26,12.58a1.51,1.51,0,1,1-2.07.56,1.5,1.5,0,0,1,1.31-.76A1.54,1.54,0,0,1,50.74,272.62Z" transform="translate(0 0.25)"/><path class="b6485317-b6ff-4533-95f6-ffb38e0dc4f9" d="M159,83.69a1.78,1.78,0,0,1,.75.2,1.52,1.52,0,0,1,.7.93,1.45,1.45,0,0,1-.15,1.15,1.5,1.5,0,0,1-2.06.54,1.42,1.42,0,0,1-.71-.91,1.5,1.5,0,0,1,.15-1.15A1.53,1.53,0,0,1,159,83.69Zm-7.28,12.58a1.66,1.66,0,0,1,.76.21,1.51,1.51,0,0,1,.71.93,1.44,1.44,0,0,1-.15,1.13,1.55,1.55,0,0,1-2.07.56,1.52,1.52,0,0,1-.55-2.07,1.54,1.54,0,0,1,1.3-.76Zm-18.15,31.46a1.65,1.65,0,0,1,.76.2,1.54,1.54,0,0,1,.7.94,1.4,1.4,0,0,1-.16,1.13L76.71,230.66A1.52,1.52,0,0,1,74,229.3l.1-.17L132.2,128.49a1.57,1.57,0,0,1,1.32-.76Z" transform="translate(0 0.25)"/><path class="b6485317-b6ff-4533-95f6-ffb38e0dc4f9" d="M207.4-.25a1.52,1.52,0,0,1,1.32.75L239,53a1.51,1.51,0,0,1-2.62,1.52l-29-50.22-29,50.22a1.51,1.51,0,1,1-2.75-1.24,1.56,1.56,0,0,1,.16-.28L206.11.5A1.53,1.53,0,0,1,207.4-.25Z" transform="translate(0 0.25)"/><path class="b6485317-b6ff-4533-95f6-ffb38e0dc4f9" d="M257.18,84.45A1.51,1.51,0,1,1,254.56,86h0a1.51,1.51,0,0,1,2.62-1.52ZM264.44,97a1.51,1.51,0,1,1-2.06-.56h0A1.52,1.52,0,0,1,264.44,97Z" transform="translate(0 0.25)"/><path class="b6485317-b6ff-4533-95f6-ffb38e0dc4f9" d="M281.29,127.73a1.53,1.53,0,0,1,1.32.76l58.11,100.64a1.51,1.51,0,0,1-2.62,1.52L280,130a1.51,1.51,0,0,1,.54-2.06h0A1.65,1.65,0,0,1,281.29,127.73Zm76.28,132.1a1.59,1.59,0,0,1,1.32.76,1.52,1.52,0,0,1-.55,2.07h0a1.55,1.55,0,0,1-2.08-.56,1.52,1.52,0,0,1,.56-2.06A1.66,1.66,0,0,1,357.57,259.83Zm7.24,12.56a1.52,1.52,0,0,1,1.5,1.52,1.51,1.51,0,0,1-3,0,1.51,1.51,0,0,1,.76-1.31A1.54,1.54,0,0,1,364.81,272.39Z" transform="translate(0 0.25)"/><path class="b6485317-b6ff-4533-95f6-ffb38e0dc4f9" d="M383,303.87a1.52,1.52,0,0,1,1.31.75l30.31,52.5a1.51,1.51,0,0,1-1.32,2.27H352.68a1.52,1.52,0,0,1,0-3h58l-29-50.22a1.52,1.52,0,0,1,.55-2.07A1.57,1.57,0,0,1,383,303.87Z" transform="translate(0 0.25)"/><path class="b6485317-b6ff-4533-95f6-ffb38e0dc4f9" d="M303.35,357.88a1.52,1.52,0,1,1-1.55-1.49h0a1.51,1.51,0,0,1,1.54,1.46Zm14.53,0a1.52,1.52,0,1,1-1.55-1.49h0a1.51,1.51,0,0,1,1.51,1.49Z" transform="translate(0 0.25)"/><path class="b6485317-b6ff-4533-95f6-ffb38e0dc4f9" d="M98.44,356.39a1.52,1.52,0,1,1,.49,3,1.35,1.35,0,0,1-.49,0,1.52,1.52,0,0,1,0-3Zm14.53,0a1.52,1.52,0,1,1,.49,3,1.35,1.35,0,0,1-.49,0,1.52,1.52,0,0,1,0-3Zm36.32,0H265.52a1.52,1.52,0,0,1,0,3H149.29a1.52,1.52,0,0,1,0-3Z" transform="translate(0 0.25)"/><path class="b6485317-b6ff-4533-95f6-ffb38e0dc4f9" d="M207.4,295.75a1.52,1.52,0,0,1,1.52,1.51v60.61a1.52,1.52,0,1,1-3,.5,1.4,1.4,0,0,1,0-.5V297.26A1.52,1.52,0,0,1,207.4,295.75Z" transform="translate(0 0.25)"/><path class="b6485317-b6ff-4533-95f6-ffb38e0dc4f9" d="M208.92,256.07a1.52,1.52,0,1,1-1.53-1.51h0A1.53,1.53,0,0,1,208.92,256.07Zm0,11.76a1.52,1.52,0,1,1-1.54-1.5h0A1.51,1.51,0,0,1,208.92,267.83Z" transform="translate(0 0.25)"/><path class="b6485317-b6ff-4533-95f6-ffb38e0dc4f9" d="M207.41,89.79a1.52,1.52,0,1,1-1.52,1.52h0A1.52,1.52,0,0,1,207.41,89.79Zm0,11.77a1.51,1.51,0,1,1-1.52,1.5,1.52,1.52,0,0,1,1.52-1.5Zm0,29.41a1.52,1.52,0,0,1,1.51,1.52v94.15a1.52,1.52,0,1,1-3,.5,1.4,1.4,0,0,1,0-.5V132.49a1.53,1.53,0,0,1,1.49-1.52Z" transform="translate(0 0.25)"/><path class="b6485317-b6ff-4533-95f6-ffb38e0dc4f9" d="M207.4-.25a1.52,1.52,0,0,1,1.52,1.5h0V61.87a1.52,1.52,0,1,1-3,.5,1.4,1.4,0,0,1,0-.5V1.26A1.52,1.52,0,0,1,207.4-.25Z" transform="translate(0 0.25)"/><path class="b6485317-b6ff-4533-95f6-ffb38e0dc4f9" d="M310.35,178.05a1.53,1.53,0,0,1,1.51,1.53,1.51,1.51,0,0,1-.75,1.3l-52.49,30.31a1.51,1.51,0,0,1-2.05-.63,1.53,1.53,0,0,1,.53-2l52.49-30.3A1.66,1.66,0,0,1,310.35,178.05Z" transform="translate(0 0.25)"/><path class="b6485317-b6ff-4533-95f6-ffb38e0dc4f9" d="M233.7,223.83a1.53,1.53,0,0,1-.57,2.07,1.51,1.51,0,0,1-2-.7,1.43,1.43,0,0,1,1.28-2.13A1.59,1.59,0,0,1,233.7,223.83Zm-10.2,5.88a1.52,1.52,0,1,1-2.08-.56,1.53,1.53,0,0,1,2.08.56Z" transform="translate(0 0.25)"/><path class="b6485317-b6ff-4533-95f6-ffb38e0dc4f9" d="M196.71,243.66a1.52,1.52,0,0,1,.75,2.84l-81.55,47.07a1.53,1.53,0,0,1-2.06-.56,1.44,1.44,0,0,1-.15-1.13,1.52,1.52,0,0,1,.7-.93L196,243.87A1.66,1.66,0,0,1,196.71,243.66Zm-107,61.79a1.52,1.52,0,0,1,.77,2.84,1.55,1.55,0,0,1-2.07-.56,1.5,1.5,0,0,1,.54-2.05h0a1.44,1.44,0,0,1,.7-.22Zm-10.22,5.94a1.59,1.59,0,0,1,1.32.7,1.52,1.52,0,1,1-2.64,1.52h0a1.45,1.45,0,0,1,1.32-2.22Z" transform="translate(0 0.25)"/><path class="b6485317-b6ff-4533-95f6-ffb38e0dc4f9" d="M54,326.05a1.53,1.53,0,0,1,1.51,1.53,1.51,1.51,0,0,1-.75,1.3L2.27,359.19a1.51,1.51,0,0,1-2-.7,1.53,1.53,0,0,1,.52-1.93l52.49-30.3A1.66,1.66,0,0,1,54,326.05Z" transform="translate(0 0.25)"/><path class="b6485317-b6ff-4533-95f6-ffb38e0dc4f9" d="M104.46,178.05a1.66,1.66,0,0,1,.76.21l52.49,30.3a1.52,1.52,0,0,1-1.52,2.63L103.7,180.88a1.52,1.52,0,0,1-.54-2.08,1.54,1.54,0,0,1,1.3-.75Z" transform="translate(0 0.25)"/><path class="b6485317-b6ff-4533-95f6-ffb38e0dc4f9" d="M183.19,223.27a1.52,1.52,0,0,1-1.51,2.63,1.51,1.51,0,0,1-.59-2.05,1.54,1.54,0,0,1,2.1-.58Zm10.18,5.89a1.48,1.48,0,1,1-2,.51,1.5,1.5,0,0,1,1.29-.72A1.48,1.48,0,0,1,193.37,229.16Z" transform="translate(0 0.25)"/><path class="b6485317-b6ff-4533-95f6-ffb38e0dc4f9" d="M218.1,243.66a1.66,1.66,0,0,1,.76.21L300.41,291a1.52,1.52,0,0,1,.7.93A1.4,1.4,0,0,1,301,293a1.54,1.54,0,0,1-2.06.56L217.35,246.5a1.52,1.52,0,0,1-.55-2.09v0A1.53,1.53,0,0,1,218.1,243.66Zm107,61.79a1.49,1.49,0,0,1,.74.22,1.55,1.55,0,0,1,.72.91,1.54,1.54,0,0,1-.16,1.15,1.56,1.56,0,0,1-2.07.56,1.49,1.49,0,0,1-.52-2.08,1.54,1.54,0,0,1,1.33-.76Zm10.22,5.94a1.54,1.54,0,0,1,.76.2,1.52,1.52,0,0,1,.56,2.06,1.55,1.55,0,0,1-2.07.56,1.52,1.52,0,0,1-.56-2.08A1.57,1.57,0,0,1,335.32,311.39Z" transform="translate(0 0.25)"/><path class="b6485317-b6ff-4533-95f6-ffb38e0dc4f9" d="M360.81,326.05a1.66,1.66,0,0,1,.75.21l52.49,30.3a1.52,1.52,0,0,1-1.51,2.63l-52.49-30.31a1.52,1.52,0,0,1-.54-2.08A1.54,1.54,0,0,1,360.81,326.05Z" transform="translate(0 0.25)"/></g></svg>