<svg id="b26e23e9-edb1-4c4d-aa6b-bd3262a68cb1" data-name="Layer 1" xmlns="http://www.w3.org/2000/svg" viewBox="0 0 417.03 361.16"><defs><style>.fb2c4d49-caeb-4cb4-b096-f716b3e19686{fill:#000000;}</style></defs><title>15u</title><g id="a1ffd027-4b07-49b1-bf29-227927e65348" data-name="Layer 1-2"><polygon class="fb2c4d49-caeb-4cb4-b096-f716b3e19686" points="39.19 293.27 41.82 294.79 5.25 358.13 78.39 358.13 78.39 361.16 0 361.16 39.19 293.27"/><rect class="fb2c4d49-caeb-4cb4-b096-f716b3e19686" x="29.01" y="179.8" width="153.09" height="3.03" transform="translate(-104.24 182.07) rotate(-60)"/><polygon class="fb2c4d49-caeb-4cb4-b096-f716b3e19686" points="208.52 0 247.71 67.89 245.08 69.4 208.52 6.06 171.95 69.4 169.32 67.89 208.52 0"/><rect class="fb2c4d49-caeb-4cb4-b096-f716b3e19686" x="309.95" y="104.78" width="3.03" height="153.09" transform="translate(-48.94 180.03) rotate(-30)"/><polygon class="fb2c4d49-caeb-4cb4-b096-f716b3e19686" points="377.84 293.27 417.03 361.16 338.64 361.16 338.64 358.13 411.78 358.13 375.21 294.79 377.84 293.27"/><rect class="fb2c4d49-caeb-4cb4-b096-f716b3e19686" x="131.97" y="358.13" width="153.09" height="3.03"/><rect class="fb2c4d49-caeb-4cb4-b096-f716b3e19686" x="207" y="283.88" width="3.03" height="75.76"/><rect class="fb2c4d49-caeb-4cb4-b096-f716b3e19686" x="207" y="121.02" width="3.03" height="120.64"/><rect class="fb2c4d49-caeb-4cb4-b096-f716b3e19686" x="207" y="3.04" width="3.03" height="75.76"/><rect class="fb2c4d49-caeb-4cb4-b096-f716b3e19686" x="240.78" y="198.75" width="75.76" height="3.03" transform="translate(-62.79 166.1) rotate(-29.99)"/><rect class="fb2c4d49-caeb-4cb4-b096-f716b3e19686" x="96.73" y="269" width="120.64" height="3.03" transform="translate(-114.22 114.77) rotate(-30)"/><rect class="fb2c4d49-caeb-4cb4-b096-f716b3e19686" x="-2.46" y="339.17" width="75.76" height="3.03" transform="translate(-165.55 63.32) rotate(-29.99)"/><rect class="fb2c4d49-caeb-4cb4-b096-f716b3e19686" x="136.86" y="162.4" width="3.03" height="75.76" transform="translate(-104.26 219.98) rotate(-60)"/><rect class="fb2c4d49-caeb-4cb4-b096-f716b3e19686" x="258.47" y="210.18" width="3.03" height="120.64" transform="translate(-104.27 360.4) rotate(-60)"/><rect class="fb2c4d49-caeb-4cb4-b096-f716b3e19686" x="380.09" y="302.83" width="3.03" height="75.76" transform="translate(-104.26 500.83) rotate(-60)"/></g></svg>