<svg xmlns="http://www.w3.org/2000/svg" viewBox="0 0 88.6 77" fill="none" stroke="#000" stroke-linecap="round" stroke-linejoin="round" stroke-width="2">
    <polyline points="48.8 8.79 44.3 1 39.8 8.79"/>
    <polyline points="5.5 68.21 1 76 10 76"/>
    <polyline points="78.6 76 87.6 76 83.1 68.21"/>
    <polyline points="48.8 68.21 44.3 76 39.8 68.21"/>
    <polyline points="27.15 46.29 22.65 38.5 31.65 38.5"/>
    <polyline points="56.95 38.5 65.95 38.5 61.45 46.29"/>
    <polyline points="19.32 57.25 11.82 57.25 15.57 63.74"/>
    <polyline points="18.9 69.5 22.65 76 26.4 69.5"/>    
    <polyline points="51.38 26.25 55.13 19.75 47.63 19.75"/>
    <polyline points="40.98 19.75 33.48 19.75 37.23 26.25"/>
    <polyline points="62.2 69.5 65.95 76 69.7 69.5"/>
    <polyline points="73.03 63.74 76.78 57.25 69.28 57.25"/>
    <g stroke-dasharray="15.61 6.24">
        <line x1="29.52" y1="64.1" x2="49.82" y2="28.95"/>
        <line x1="40.35" y1="31.65" x2="60.64" y2="66.8"/>
        <line x1="63.03" y1="57.25" x2="22.45" y2="57.25"/>
    </g>
</svg>