<svg id="ae737071-b4ea-4af8-9e4b-eef7e5379f95" data-name="Layer 1" xmlns="http://www.w3.org/2000/svg" viewBox="0 0 412.15 357.36"><defs><style>.a1dfe403-acea-4593-bdf1-f7a6df537f67{fill:#000000;}</style></defs><title>18u</title><g id="f4299e2f-4d64-4f30-8a7e-10dbcc8d7872" data-name="Layer 1-2"><path class="a1dfe403-acea-4593-bdf1-f7a6df537f67" d="M206.07,0a1.56,1.56,0,0,1,1.08.44,1.53,1.53,0,0,1,0,2.15,1.57,1.57,0,0,1-2.14,0,1.51,1.51,0,0,1,0-2.14h0A1.54,1.54,0,0,1,206.07,0Z" transform="translate(0 0.02)"/><path class="a1dfe403-acea-4593-bdf1-f7a6df537f67" d="M227.61,37.32a1.52,1.52,0,0,1,1.31.75l161.5,279.68a1.52,1.52,0,0,1-2.63,1.52L226.3,39.55a1.45,1.45,0,0,1,1.31-2.23Z" transform="translate(0 0.02)"/><path class="a1dfe403-acea-4593-bdf1-f7a6df537f67" d="M410.63,354.32a1.5,1.5,0,0,1,1.08.42,1.44,1.44,0,0,1,.44,1.07,1.42,1.42,0,0,1-.44,1.06,1.59,1.59,0,0,1-2.15,0,1.53,1.53,0,0,1,0-2.13A1.45,1.45,0,0,1,410.63,354.32Z" transform="translate(0 0.02)"/><path class="a1dfe403-acea-4593-bdf1-f7a6df537f67" d="M44.58,354.32h323a1.52,1.52,0,1,1,.49,3,1.35,1.35,0,0,1-.49,0h-323a1.52,1.52,0,0,1,0-3Z" transform="translate(0 0.02)"/><path class="a1dfe403-acea-4593-bdf1-f7a6df537f67" d="M1.51,354.32a1.45,1.45,0,0,1,1.08.44A1.44,1.44,0,0,1,3,355.83a1.42,1.42,0,0,1-.44,1.06,1.57,1.57,0,0,1-2.15,0,1.5,1.5,0,0,1,0-2.13A1.46,1.46,0,0,1,1.51,354.32Z" transform="translate(0 0.02)"/><path class="a1dfe403-acea-4593-bdf1-f7a6df537f67" d="M184.55,37.27a1.54,1.54,0,0,1,.75.21,1.52,1.52,0,0,1,.57,2.06h0L24.36,319.27a1.51,1.51,0,0,1-2.62-1.52L183.23,38A1.53,1.53,0,0,1,184.55,37.27Z" transform="translate(0 0.02)"/><path class="a1dfe403-acea-4593-bdf1-f7a6df537f67" d="M371.27,331.55a1.54,1.54,0,0,1,1.07.46,1.52,1.52,0,0,1,.44,1.07,1.56,1.56,0,0,1-.44,1.08,1.58,1.58,0,0,1-2.13,0,1.52,1.52,0,0,1-.46-1.08A1.58,1.58,0,0,1,371.27,331.55Z" transform="translate(0 0.02)"/><path class="a1dfe403-acea-4593-bdf1-f7a6df537f67" d="M75.66,331.56H336.49a1.52,1.52,0,1,1,.49,3,1.35,1.35,0,0,1-.49,0H75.66a1.52,1.52,0,0,1,0-3Z" transform="translate(0 0.02)"/><path class="a1dfe403-acea-4593-bdf1-f7a6df537f67" d="M40.88,331.55A1.51,1.51,0,0,1,42,332a1.52,1.52,0,0,1,0,2.13,1.57,1.57,0,0,1-2.14,0,1.52,1.52,0,0,1-.46-1.08,1.54,1.54,0,0,1,1.52-1.51Z" transform="translate(0 0.02)"/><path class="a1dfe403-acea-4593-bdf1-f7a6df537f67" d="M188.69,75.56a1.54,1.54,0,0,1,.76.2,1.52,1.52,0,0,1,.55,2.07L59.59,303.72A1.52,1.52,0,0,1,57,302.2L187.38,76.32A1.51,1.51,0,0,1,188.69,75.56Z" transform="translate(0 0.02)"/><path class="a1dfe403-acea-4593-bdf1-f7a6df537f67" d="M206.07,45.44a1.5,1.5,0,0,1,1.52,1.48v0a1.52,1.52,0,0,1-.44,1.07A1.57,1.57,0,0,1,205,48a1.51,1.51,0,0,1,0-2.15A1.54,1.54,0,0,1,206.07,45.44Z" transform="translate(0 0.02)"/><path class="a1dfe403-acea-4593-bdf1-f7a6df537f67" d="M223.46,75.56a1.52,1.52,0,0,1,1.32.75L355.15,302.2a1.51,1.51,0,0,1-2.62,1.52L222.15,77.83a1.5,1.5,0,0,1,.55-2.06h0A1.53,1.53,0,0,1,223.46,75.56Z" transform="translate(0 0.02)"/><path class="a1dfe403-acea-4593-bdf1-f7a6df537f67" d="M331.9,308.82a1.57,1.57,0,0,1,1.08,2.64,1.6,1.6,0,0,1-2.16,0,1.54,1.54,0,0,1,0-2.14A1.59,1.59,0,0,1,331.9,308.82Z" transform="translate(0 0.02)"/><path class="a1dfe403-acea-4593-bdf1-f7a6df537f67" d="M106.74,308.83H305.41a1.52,1.52,0,1,1,.49,3,1.35,1.35,0,0,1-.49,0H106.74a1.52,1.52,0,0,1,0-3Z" transform="translate(0 0.02)"/><path class="a1dfe403-acea-4593-bdf1-f7a6df537f67" d="M80.25,308.82a1.5,1.5,0,0,1,1.07.46,1.51,1.51,0,0,1,0,2.14,1.54,1.54,0,0,1-2.13,0,1.47,1.47,0,0,1-.06-2.08l0,0A1.46,1.46,0,0,1,80.25,308.82Z" transform="translate(0 0.02)"/><path class="a1dfe403-acea-4593-bdf1-f7a6df537f67" d="M192.84,113.84a1.51,1.51,0,0,1,1.31,2.27l-99.34,172a1.52,1.52,0,0,1-2.66-1.46l99.37-172.06A1.52,1.52,0,0,1,192.84,113.84Z" transform="translate(0 0.02)"/><path class="a1dfe403-acea-4593-bdf1-f7a6df537f67" d="M206.07,90.9a1.49,1.49,0,0,1,1.08,2.56,1.57,1.57,0,0,1-2.14,0,1.53,1.53,0,0,1,0-2.15h0A1.5,1.5,0,0,1,206.07,90.9Z" transform="translate(0 0.02)"/><path class="a1dfe403-acea-4593-bdf1-f7a6df537f67" d="M219.32,113.84a1.53,1.53,0,0,1,1.32.75L320,286.65a1.51,1.51,0,0,1-2.62,1.52h0L218,116.11a1.5,1.5,0,0,1,.55-2.06h0A1.53,1.53,0,0,1,219.32,113.84Z" transform="translate(0 0.02)"/></g></svg>