<svg id="ad6bfa7d-67c3-457c-a40c-167a2371b685" data-name="Layer 1" xmlns="http://www.w3.org/2000/svg" viewBox="0 0 415.63 361.09"><defs><style>.b754bd7f-da49-4dda-93ff-33ca5c8f20ca{fill:#000000;}</style></defs><title>19u</title><g id="ff09a4a9-f169-4d39-aa34-0c614335f1a4" data-name="Layer 1-2"><polygon class="b754bd7f-da49-4dda-93ff-33ca5c8f20ca" points="176.22 359.95 0 359.95 88.11 207.34 90.08 208.47 3.94 357.68 176.22 357.68 176.22 359.95"/><polygon class="b754bd7f-da49-4dda-93ff-33ca5c8f20ca" points="293.96 153.75 207.82 4.55 121.67 153.75 119.7 152.61 207.82 0 295.93 152.61 293.96 153.75"/><polygon class="b754bd7f-da49-4dda-93ff-33ca5c8f20ca" points="415.63 359.95 239.41 359.95 239.41 357.68 411.7 357.68 325.55 208.47 327.52 207.34 415.63 359.95"/><path class="b754bd7f-da49-4dda-93ff-33ca5c8f20ca" d="M207.82,154.94a1.14,1.14,0,0,1-1.14-1.14V2.27a1.14,1.14,0,0,1,2.27,0V153.8A1.14,1.14,0,0,1,207.82,154.94Z"/><path class="b754bd7f-da49-4dda-93ff-33ca5c8f20ca" d="M2,360a1.14,1.14,0,0,1-.57-2.12l131.23-75.76a1.15,1.15,0,0,1,1.13,2L2.54,359.8A1.18,1.18,0,0,1,2,360Z"/><path class="b754bd7f-da49-4dda-93ff-33ca5c8f20ca" d="M413.66,360a1.09,1.09,0,0,1-.56-.15L281.87,284a1.15,1.15,0,1,1,1.14-2l131.22,75.76a1.14,1.14,0,0,1-.57,2.12Z"/><polygon class="b754bd7f-da49-4dda-93ff-33ca5c8f20ca" points="268.16 256.57 266.19 255.43 308.77 181.68 223.61 181.68 223.61 179.41 312.71 179.41 268.16 256.57"/><polygon class="b754bd7f-da49-4dda-93ff-33ca5c8f20ca" points="207.82 361.09 163.27 283.93 165.24 282.79 207.82 356.54 250.4 282.79 252.37 283.93 207.82 361.09"/><polygon class="b754bd7f-da49-4dda-93ff-33ca5c8f20ca" points="147.47 256.57 102.92 179.41 192.02 179.41 192.02 181.68 106.86 181.68 149.44 255.43 147.47 256.57"/><path class="b754bd7f-da49-4dda-93ff-33ca5c8f20ca" d="M207.82,360a1.14,1.14,0,0,1-1.14-1.14h0V283.05a1.14,1.14,0,0,1,2.27-.21.74.74,0,0,1,0,.21v75.76a1.14,1.14,0,0,1-1.09,1.19Z"/><path class="b754bd7f-da49-4dda-93ff-33ca5c8f20ca" d="M245.13,219.56a1.12,1.12,0,0,1-1-.57,1.14,1.14,0,0,1,.42-1.55l65.61-37.88a1.14,1.14,0,0,1,1.55.4h0a1.14,1.14,0,0,1-.41,1.56h0l-65.6,37.88A1.13,1.13,0,0,1,245.13,219.56Z"/><path class="b754bd7f-da49-4dda-93ff-33ca5c8f20ca" d="M170.5,219.56a1.09,1.09,0,0,1-.56-.15l-65.62-37.88a1.14,1.14,0,0,1-.41-1.56h0a1.12,1.12,0,0,1,1.54-.41h0l65.61,37.88a1.14,1.14,0,0,1-.57,2.12Z"/><polygon class="b754bd7f-da49-4dda-93ff-33ca5c8f20ca" points="199.92 270.81 154.39 270.81 177.15 231.38 179.12 232.52 158.32 268.54 199.92 268.54 199.92 270.81"/><polygon class="b754bd7f-da49-4dda-93ff-33ca5c8f20ca" points="228.61 218.84 207.82 182.82 187.02 218.84 185.05 217.7 207.82 178.27 230.58 217.7 228.61 218.84"/><polygon class="b754bd7f-da49-4dda-93ff-33ca5c8f20ca" points="261.25 270.81 215.72 270.81 215.72 268.54 257.31 268.54 236.51 232.52 238.48 231.38 261.25 270.81"/><path class="b754bd7f-da49-4dda-93ff-33ca5c8f20ca" d="M207.82,219.56a1.14,1.14,0,0,1-1.14-1.14V180.54a1.14,1.14,0,0,1,2.27,0v37.88A1.14,1.14,0,0,1,207.82,219.56Z"/><path class="b754bd7f-da49-4dda-93ff-33ca5c8f20ca" d="M156.36,270.82a1.14,1.14,0,0,1-1.14-1.14,1.1,1.1,0,0,1,.57-1l32.8-18.94a1.15,1.15,0,1,1,1.14,2l-32.81,18.94A1.08,1.08,0,0,1,156.36,270.82Z"/><path class="b754bd7f-da49-4dda-93ff-33ca5c8f20ca" d="M259.28,270.82a1.14,1.14,0,0,1-.57-.16l-32.8-18.94a1.15,1.15,0,1,1,1.13-2l32.81,18.94a1.14,1.14,0,0,1-.57,2.13Z"/></g></svg>