<svg data-name="Layer 1" xmlns="http://www.w3.org/2000/svg" viewBox="0 0 119.62 104"><defs><style>.a8a6ee85-afca-4b18-b118-84a2f0a53d76,.ba486cf2-339c-4bab-8038-9ea242c016ff{fill:none;stroke:#000;stroke-linecap:round;stroke-linejoin:round;stroke-width:3px;}.ba486cf2-339c-4bab-8038-9ea242c016ff{stroke-dasharray:21.14 8.05;}</style></defs><title>27</title><polyline class="a8a6ee85-afca-4b18-b118-84a2f0a53d76" points="65.06 10.59 59.81 1.5 54.56 10.59"/><line class="ba486cf2-339c-4bab-8038-9ea242c016ff" x1="50.54" y1="17.57" x2="8.76" y2="89.92"/><polyline class="a8a6ee85-afca-4b18-b118-84a2f0a53d76" points="6.75 93.41 1.5 102.5 12 102.5"/><line class="ba486cf2-339c-4bab-8038-9ea242c016ff" x1="20.05" y1="102.5" x2="103.6" y2="102.5"/><polyline class="a8a6ee85-afca-4b18-b118-84a2f0a53d76" points="107.63 102.5 118.13 102.5 112.88 93.41"/><line class="ba486cf2-339c-4bab-8038-9ea242c016ff" x1="108.85" y1="86.43" x2="67.08" y2="14.08"/><polyline class="a8a6ee85-afca-4b18-b118-84a2f0a53d76" points="41.16 52 30.66 52 35.91 61.09"/><polyline class="a8a6ee85-afca-4b18-b118-84a2f0a53d76" points="54.56 93.41 59.81 102.5 65.06 93.41"/><polyline class="a8a6ee85-afca-4b18-b118-84a2f0a53d76" points="83.72 61.09 88.97 52 78.47 52"/><polyline class="a8a6ee85-afca-4b18-b118-84a2f0a53d76" points="98.3 86.34 103.55 77.25 93.05 77.25"/><polyline class="a8a6ee85-afca-4b18-b118-84a2f0a53d76" points="84.89 77.25 74.39 77.25 79.64 86.34"/><polyline class="a8a6ee85-afca-4b18-b118-84a2f0a53d76" points="83.72 93.41 88.97 102.5 94.22 93.41"/><polyline class="a8a6ee85-afca-4b18-b118-84a2f0a53d76" points="40.3 86.09 45.55 77 35.05 77"/><polyline class="a8a6ee85-afca-4b18-b118-84a2f0a53d76" points="26.89 77 16.39 77 21.64 86.09"/><polyline class="a8a6ee85-afca-4b18-b118-84a2f0a53d76" points="25.72 93.16 30.97 102.25 36.22 93.16"/><polyline class="a8a6ee85-afca-4b18-b118-84a2f0a53d76" points="50.64 67.91 45.39 77 55.89 77"/><polyline class="a8a6ee85-afca-4b18-b118-84a2f0a53d76" points="64.05 77 74.55 77 69.3 67.91"/><polyline class="a8a6ee85-afca-4b18-b118-84a2f0a53d76" points="65.22 60.84 59.97 51.75 54.72 60.84"/><polyline class="a8a6ee85-afca-4b18-b118-84a2f0a53d76" points="69.3 36.09 74.55 27 64.05 27"/><polyline class="a8a6ee85-afca-4b18-b118-84a2f0a53d76" points="55.89 27 45.39 27 50.64 36.09"/><polyline class="a8a6ee85-afca-4b18-b118-84a2f0a53d76" points="54.72 43.16 59.97 52.25 65.22 43.16"/></svg>