<svg id="ae7f6b2a-de7c-4c3a-8c7f-0f84e233b136" data-name="Layer 1" xmlns="http://www.w3.org/2000/svg" viewBox="0 0 414.75 359.82"><defs><style>.aa8bac5b-9ed8-4b8d-a76a-0460fdf63331{fill:#000000;}</style></defs><title>22u</title><g id="ac4af10d-9698-4974-b4f2-9a220c568574" data-name="Layer 1-2"><path class="aa8bac5b-9ed8-4b8d-a76a-0460fdf63331" d="M104.46,178.27H310.31a1.52,1.52,0,0,1,1.51,1.53,1.49,1.49,0,0,1-.2.74L208.7,358.81a1.58,1.58,0,0,1-2.19.44,1.84,1.84,0,0,1-.44-.44L103.15,180.57a1.52,1.52,0,0,1,.58-2.07,1.46,1.46,0,0,1,.73-.2Zm203.23,3H107.09L207.39,355Z"/><path class="aa8bac5b-9ed8-4b8d-a76a-0460fdf63331" d="M77.3,225.31a1.54,1.54,0,0,1,.76.2,1.52,1.52,0,0,1,.55,2.07l-74.45,129h148.9a1.52,1.52,0,1,1,.5,3,1.4,1.4,0,0,1-.5,0H1.54a1.51,1.51,0,0,1-1.31-.76,1.46,1.46,0,0,1,0-1.51L76,226.07A1.51,1.51,0,0,1,77.3,225.31Z"/><path class="aa8bac5b-9ed8-4b8d-a76a-0460fdf63331" d="M207.39,0a1.52,1.52,0,0,1,1.31.75L284.46,132a1.51,1.51,0,1,1-2.62,1.52h0L207.39,4.5l-74.46,129a1.51,1.51,0,1,1-2.62-1.52L206.07.75A1.53,1.53,0,0,1,207.39,0Z"/><path class="aa8bac5b-9ed8-4b8d-a76a-0460fdf63331" d="M337.47,225.31a1.51,1.51,0,0,1,1.28.76l75.8,131.23a1.52,1.52,0,0,1-1.32,2.27H261.75a1.52,1.52,0,0,1-.49-3,1.34,1.34,0,0,1,.49,0H410.61l-74.45-129a1.53,1.53,0,0,1,.55-2.07A1.59,1.59,0,0,1,337.47,225.31Z"/><path class="aa8bac5b-9ed8-4b8d-a76a-0460fdf63331" d="M207.39,237.69a1.52,1.52,0,0,1,1.51,1.52V358.05a1.52,1.52,0,1,1-3,.49,2,2,0,0,1,0-.49V239.21A1.53,1.53,0,0,1,207.39,237.69Z"/><path class="aa8bac5b-9ed8-4b8d-a76a-0460fdf63331" d="M207.39,0a1.52,1.52,0,0,1,1.51,1.51V122.73a1.52,1.52,0,1,1-3,.49,2,2,0,0,1,0-.49V1.51A1.53,1.53,0,0,1,207.39,0Z"/><path class="aa8bac5b-9ed8-4b8d-a76a-0460fdf63331" d="M310.31,178.27a1.52,1.52,0,0,1,.76,2.83L208.14,240.52a1.52,1.52,0,0,1-1.69-2.52l.18-.11,102.92-59.42A1.57,1.57,0,0,1,310.31,178.27Z"/><path class="aa8bac5b-9ed8-4b8d-a76a-0460fdf63331" d="M106.52,295.93a1.51,1.51,0,0,1,1.52,1.5,1.48,1.48,0,0,1-.76,1.32l-105,60.62a1.52,1.52,0,0,1-1.54-2.63h0l105-60.61A1.5,1.5,0,0,1,106.52,295.93Z"/><path class="aa8bac5b-9ed8-4b8d-a76a-0460fdf63331" d="M104.46,178.27a1.54,1.54,0,0,1,.76.2l102.92,59.42a1.52,1.52,0,0,1-1.51,2.63L103.7,181.1a1.52,1.52,0,0,1,.76-2.83Z"/><path class="aa8bac5b-9ed8-4b8d-a76a-0460fdf63331" d="M308.25,295.93a1.54,1.54,0,0,1,.76.2l105,60.61a1.52,1.52,0,0,1-1.51,2.63l-105-60.62a1.5,1.5,0,0,1-.55-2.06,1.48,1.48,0,0,1,1.3-.76Z"/></g></svg>