<svg id="fffb3f46-ddd9-4468-83a2-eb6fb0aa0f25" data-name="Layer 1" xmlns="http://www.w3.org/2000/svg" viewBox="0 0 412.13 357.37"><defs><style>.f46ba36f-9f52-48b5-8205-979418aae146{fill:#000000;}</style></defs><title>23u</title><g id="bb8d39e1-c51a-44bd-b9fb-9003d61879ae" data-name="Layer 1-2"><path class="f46ba36f-9f52-48b5-8205-979418aae146" d="M207.57,1.52a1.62,1.62,0,0,1-.45,1.08A1.56,1.56,0,0,1,206,3,1.5,1.5,0,0,1,205,2.6a1.55,1.55,0,0,1,0-2.14A1.46,1.46,0,0,1,206,0a1.56,1.56,0,0,1,1.08.44A1.62,1.62,0,0,1,207.57,1.52Z"/><path class="f46ba36f-9f52-48b5-8205-979418aae146" d="M390.59,318.54a1.52,1.52,0,0,1-2.83.76L226.27,39.58a1.51,1.51,0,1,1,2.62-1.52l161.5,279.72A1.54,1.54,0,0,1,390.59,318.54Z"/><path class="f46ba36f-9f52-48b5-8205-979418aae146" d="M412.13,355.83a1.62,1.62,0,0,1-.45,1.08,1.51,1.51,0,0,1-2.14,0,1.59,1.59,0,0,1,0-2.15,1.51,1.51,0,0,1,2.14,0A1.6,1.6,0,0,1,412.13,355.83Z"/><path class="f46ba36f-9f52-48b5-8205-979418aae146" d="M369.06,355.83a1.52,1.52,0,0,1-1.52,1.52h-323a1.52,1.52,0,1,1-.49-3,1.35,1.35,0,0,1,.49,0h323A1.52,1.52,0,0,1,369.06,355.83Z"/><path class="f46ba36f-9f52-48b5-8205-979418aae146" d="M3,355.83a1.56,1.56,0,0,1-.44,1.08,1.5,1.5,0,0,1-1.06.44,1.52,1.52,0,0,1-1.07-.44,1.59,1.59,0,0,1,0-2.15,1.68,1.68,0,0,1,1.07-.41,1.5,1.5,0,0,1,1.06.44A1.56,1.56,0,0,1,3,355.83Z"/><path class="f46ba36f-9f52-48b5-8205-979418aae146" d="M186,38.82a1.54,1.54,0,0,1-.2.76L24.33,319.3a1.51,1.51,0,0,1-2.62-1.52L183.2,38.06a1.52,1.52,0,0,1,2.83.76Z"/><path class="f46ba36f-9f52-48b5-8205-979418aae146" d="M372.75,333.11a1.51,1.51,0,1,1-1.52-1.52,1.5,1.5,0,0,1,1.52,1.52Z"/><path class="f46ba36f-9f52-48b5-8205-979418aae146" d="M338,333.11a1.52,1.52,0,0,1-1.52,1.51H75.63a1.52,1.52,0,0,1,0-3H336.46A1.52,1.52,0,0,1,338,333.11Z"/><path class="f46ba36f-9f52-48b5-8205-979418aae146" d="M42.36,333.11a1.52,1.52,0,1,1-.44-1.08A1.56,1.56,0,0,1,42.36,333.11Z"/><path class="f46ba36f-9f52-48b5-8205-979418aae146" d="M190.17,77.1a1.54,1.54,0,0,1-.2.76L59.55,303.74a1.51,1.51,0,1,1-2.62-1.51L187.34,76.35a1.52,1.52,0,0,1,2.83.76Z"/><path class="f46ba36f-9f52-48b5-8205-979418aae146" d="M207.57,47A1.52,1.52,0,0,1,206,48.49h0a1.5,1.5,0,0,1-1.06-.44,1.52,1.52,0,0,1,2.14-2.15A1.62,1.62,0,0,1,207.57,47Z"/><path class="f46ba36f-9f52-48b5-8205-979418aae146" d="M355.37,303a1.52,1.52,0,0,1-2.83.76L222.12,77.86a1.52,1.52,0,0,1,2.63-1.52L355.16,302.23A1.54,1.54,0,0,1,355.37,303Z"/><path class="f46ba36f-9f52-48b5-8205-979418aae146" d="M333.38,310.35a1.5,1.5,0,0,1-1.49,1.51h0a1.56,1.56,0,0,1-1.08-.44,1.59,1.59,0,0,1,0-2.15,1.5,1.5,0,0,1,1.06-.44,1.59,1.59,0,0,1,1.07.44A1.51,1.51,0,0,1,333.38,310.35Z"/><path class="f46ba36f-9f52-48b5-8205-979418aae146" d="M306.9,310.35a1.52,1.52,0,0,1-1.52,1.51H106.71a1.52,1.52,0,0,1,0-3H305.38A1.52,1.52,0,0,1,306.9,310.35Z"/><path class="f46ba36f-9f52-48b5-8205-979418aae146" d="M81.74,310.35a1.53,1.53,0,0,1-.45,1.07,1.5,1.5,0,0,1-1.06.44,1.55,1.55,0,0,1-1.08-.44,1.59,1.59,0,0,1,0-2.15,1.52,1.52,0,0,1,2.59,1.08Z"/><path class="f46ba36f-9f52-48b5-8205-979418aae146" d="M194.32,115.35a1.55,1.55,0,0,1-.21.76l-99.33,172a1.52,1.52,0,0,1-2.63-1.51l99.34-172a1.52,1.52,0,0,1,2.83.76Z"/><path class="f46ba36f-9f52-48b5-8205-979418aae146" d="M207.57,92.44A1.52,1.52,0,0,1,206,94h0a1.66,1.66,0,0,1-1.08-.44,1.58,1.58,0,0,1,0-2.13,1.46,1.46,0,0,1,1.06-.46,1.55,1.55,0,0,1,1.55,1.52Z"/><path class="f46ba36f-9f52-48b5-8205-979418aae146" d="M320.14,287.43a1.51,1.51,0,0,1-2.82.76L218,116.14a1.51,1.51,0,1,1,2.62-1.52L320,286.68A1.49,1.49,0,0,1,320.14,287.43Z"/><path class="f46ba36f-9f52-48b5-8205-979418aae146" d="M294,287.65a1.5,1.5,0,0,1-1.49,1.51h0a1.52,1.52,0,0,1-1.08-2.59,1.66,1.66,0,0,1,1.08-.44,1.5,1.5,0,0,1,1.52,1.52Z"/><path class="f46ba36f-9f52-48b5-8205-979418aae146" d="M269.32,287.65a1.52,1.52,0,0,1-1.52,1.51H144.29a1.52,1.52,0,0,1,0-3H267.8A1.52,1.52,0,0,1,269.32,287.65Z"/><path class="f46ba36f-9f52-48b5-8205-979418aae146" d="M121.11,287.65a1.54,1.54,0,0,1-.46,1.07,1.5,1.5,0,0,1-1.06.44,1.52,1.52,0,0,1-1.07-.44,1.52,1.52,0,0,1,1.07-2.59,1.5,1.5,0,0,1,1.06.44A1.56,1.56,0,0,1,121.11,287.65Z"/><path class="f46ba36f-9f52-48b5-8205-979418aae146" d="M195.21,159.29a1.54,1.54,0,0,1-.2.76l-61.76,107a1.51,1.51,0,1,1-2.62-1.51h0l61.75-107a1.52,1.52,0,0,1,2.83.76Z"/><path class="f46ba36f-9f52-48b5-8205-979418aae146" d="M207.57,137.89a1.52,1.52,0,0,1-1.52,1.52h0A1.5,1.5,0,0,1,205,139a1.57,1.57,0,0,1,0-2.14,1.6,1.6,0,0,1,1.08-.45,1.56,1.56,0,0,1,1.08.44A1.62,1.62,0,0,1,207.57,137.89Z"/><path class="f46ba36f-9f52-48b5-8205-979418aae146" d="M281.67,266.25a1.52,1.52,0,0,1-2.83.76L217.08,160a1.52,1.52,0,0,1,2.63-1.52l61.75,107A1.45,1.45,0,0,1,281.67,266.25Z"/><path class="f46ba36f-9f52-48b5-8205-979418aae146" d="M254.65,264.92a1.54,1.54,0,1,1-2.69-1.08,1.56,1.56,0,0,1,1.17-.49,1.61,1.61,0,0,1,1.08.44A1.58,1.58,0,0,1,254.65,264.92Z"/><path class="f46ba36f-9f52-48b5-8205-979418aae146" d="M233.72,264.92a1.52,1.52,0,0,1-1.51,1.51H179.89a1.52,1.52,0,1,1-.49-3,1.35,1.35,0,0,1,.49,0h52.32A1.51,1.51,0,0,1,233.72,264.92Z"/><path class="f46ba36f-9f52-48b5-8205-979418aae146" d="M160.48,264.92a1.5,1.5,0,0,1-1.49,1.51h0a1.54,1.54,0,1,1,0-3.08,1.66,1.66,0,0,1,1.08.44A1.61,1.61,0,0,1,160.48,264.92Z"/><path class="f46ba36f-9f52-48b5-8205-979418aae146" d="M197.1,201.48a1.54,1.54,0,0,1-.2.76l-26.17,45.31a1.51,1.51,0,1,1-2.62-1.51l26.16-45.32a1.52,1.52,0,0,1,2.83.76Z"/><path class="f46ba36f-9f52-48b5-8205-979418aae146" d="M207.57,183.35a1.52,1.52,0,0,1-1.52,1.52h0a1.66,1.66,0,0,1-1.08-.44,1.59,1.59,0,0,1,0-2.14,1.47,1.47,0,0,1,1.06-.45,1.55,1.55,0,0,1,1.55,1.51Z"/><path class="f46ba36f-9f52-48b5-8205-979418aae146" d="M244.19,246.79a1.52,1.52,0,0,1-2.83.76L215.2,202.24a1.51,1.51,0,0,1,2.62-1.52L244,246A1.53,1.53,0,0,1,244.19,246.79Z"/></g></svg>