<svg id="abdcde8e-b1a7-4f3a-b3c3-82cbc1dacedc" data-name="Layer 1" xmlns="http://www.w3.org/2000/svg" viewBox="0 0 414.73 359.6"><defs><style>.f7e46153-2b9d-428b-8500-c274dc7a2256{fill:#000000;}</style></defs><title>24u</title><g id="f51bd930-c6dd-4808-93a2-b463082e7796" data-name="Layer 1-2"><path class="f7e46153-2b9d-428b-8500-c274dc7a2256" d="M310.3,178.27a1.55,1.55,0,0,1,1.51,1.53,1.53,1.53,0,0,1-.45,1.08,1.59,1.59,0,0,1-2.14,0,1.5,1.5,0,0,1-.44-1.06,1.52,1.52,0,0,1,1.51-1.53h0Z"/><path class="f7e46153-2b9d-428b-8500-c274dc7a2256" d="M292.61,208.92a1.52,1.52,0,0,1,1.32,2.26h0l-67.55,117a1.52,1.52,0,0,1-2.64-1.52l67.54-117A1.51,1.51,0,0,1,292.61,208.92Z"/><path class="f7e46153-2b9d-428b-8500-c274dc7a2256" d="M207.36,356.58a1.48,1.48,0,0,1,1.08.44,1.44,1.44,0,0,1,.44,1.07,1.42,1.42,0,0,1-.44,1.06,1.56,1.56,0,0,1-2.13,0,1.46,1.46,0,0,1-.07-2.06l.07-.07A1.46,1.46,0,0,1,207.36,356.58Z"/><path class="f7e46153-2b9d-428b-8500-c274dc7a2256" d="M242.73,356.58H377.84a1.52,1.52,0,0,1,0,3H242.73a1.52,1.52,0,1,1-.49-3A1.35,1.35,0,0,1,242.73,356.58Z"/><path class="f7e46153-2b9d-428b-8500-c274dc7a2256" d="M413.21,356.58a1.49,1.49,0,0,1,1.08,2.55,1.59,1.59,0,0,1-2.15,0,1.55,1.55,0,0,1,0-2.13A1.49,1.49,0,0,1,413.21,356.58Z"/><path class="f7e46153-2b9d-428b-8500-c274dc7a2256" d="M310.3,178.27a1.55,1.55,0,0,1,1.51,1.53,1.53,1.53,0,0,1-.45,1.08,1.59,1.59,0,0,1-2.14,0,1.5,1.5,0,0,1-.44-1.06,1.52,1.52,0,0,1,1.51-1.53h0Z"/><path class="f7e46153-2b9d-428b-8500-c274dc7a2256" d="M328,208.92a1.53,1.53,0,0,1,1.32.76l33.77,58.49h0l33.77,58.5a1.51,1.51,0,0,1-2.62,1.51l-33.77-58.49h0l-33.77-58.5a1.5,1.5,0,0,1,.55-2.06h0A1.47,1.47,0,0,1,328,208.92Z"/><path class="f7e46153-2b9d-428b-8500-c274dc7a2256" d="M413.21,356.58a1.49,1.49,0,0,1,1.08,2.55,1.59,1.59,0,0,1-2.15,0,1.55,1.55,0,0,1,0-2.13A1.49,1.49,0,0,1,413.21,356.58Z"/><path class="f7e46153-2b9d-428b-8500-c274dc7a2256" d="M207.36,0a1.51,1.51,0,0,1,1.08.45,1.56,1.56,0,0,1,.44,1.08,1.46,1.46,0,0,1-.44,1.06,1.58,1.58,0,0,1-2.13,0,1.56,1.56,0,0,1-.46-1.08,1.51,1.51,0,0,1,.46-1.08A1.48,1.48,0,0,1,207.36,0Z"/><path class="f7e46153-2b9d-428b-8500-c274dc7a2256" d="M189.68,30.65a1.54,1.54,0,0,1,.76.2,1.52,1.52,0,0,1,.55,2.07l-67.54,117a1.52,1.52,0,0,1-2.74-1.33l.11-.18,67.55-117A1.51,1.51,0,0,1,189.68,30.65Z"/><path class="f7e46153-2b9d-428b-8500-c274dc7a2256" d="M104.45,178.27A1.52,1.52,0,0,1,106,179.8a1.5,1.5,0,0,1-.44,1.06,1.57,1.57,0,0,1-2.15,0,1.5,1.5,0,0,1-.44-1.06,1.56,1.56,0,0,1,.44-1.08A1.62,1.62,0,0,1,104.45,178.27Z"/><path class="f7e46153-2b9d-428b-8500-c274dc7a2256" d="M207.36,0a1.5,1.5,0,0,1,1.52,1.48v0a1.56,1.56,0,0,1-.44,1.08,1.6,1.6,0,0,1-2.13,0,1.56,1.56,0,0,1-.46-1.08,1.51,1.51,0,0,1,.46-1.08A1.49,1.49,0,0,1,207.36,0Z"/><path class="f7e46153-2b9d-428b-8500-c274dc7a2256" d="M225.06,30.65a1.51,1.51,0,0,1,1.31.76l67.55,117a1.52,1.52,0,1,1-2.52,1.69,1.74,1.74,0,0,1-.11-.18l-67.54-117a1.52,1.52,0,0,1,.55-2.07A1.54,1.54,0,0,1,225.06,30.65Z"/><path class="f7e46153-2b9d-428b-8500-c274dc7a2256" d="M310.3,178.27a1.55,1.55,0,0,1,1.51,1.53,1.53,1.53,0,0,1-.45,1.08,1.59,1.59,0,0,1-2.14,0,1.5,1.5,0,0,1-.44-1.06,1.52,1.52,0,0,1,1.51-1.53h0Z"/><path class="f7e46153-2b9d-428b-8500-c274dc7a2256" d="M104.45,178.27A1.52,1.52,0,0,1,106,179.8a1.5,1.5,0,0,1-.44,1.06,1.57,1.57,0,0,1-2.15,0,1.5,1.5,0,0,1-.44-1.06,1.56,1.56,0,0,1,.44-1.08A1.62,1.62,0,0,1,104.45,178.27Z"/><path class="f7e46153-2b9d-428b-8500-c274dc7a2256" d="M86.73,208.92a1.52,1.52,0,0,1,1.32,2.26h0l-33.78,58.5h0L20.52,328.18a1.51,1.51,0,0,1-2.62-1.51h0l67.54-117A1.53,1.53,0,0,1,86.73,208.92Z"/><path class="f7e46153-2b9d-428b-8500-c274dc7a2256" d="M1.52,356.58a1.44,1.44,0,0,1,1.07.44A1.44,1.44,0,0,1,3,358.09a1.5,1.5,0,0,1-.44,1.06,1.57,1.57,0,0,1-2.15,0,1.49,1.49,0,0,1,0-2.13A1.42,1.42,0,0,1,1.52,356.58Z"/><path class="f7e46153-2b9d-428b-8500-c274dc7a2256" d="M36.9,356.58H172a1.52,1.52,0,0,1,0,3H36.9a1.52,1.52,0,1,1-.49-3A1.35,1.35,0,0,1,36.9,356.58Z"/><path class="f7e46153-2b9d-428b-8500-c274dc7a2256" d="M207.36,356.58a1.48,1.48,0,0,1,1.08.44,1.44,1.44,0,0,1,.44,1.07,1.42,1.42,0,0,1-.44,1.06,1.56,1.56,0,0,1-2.13,0,1.46,1.46,0,0,1-.07-2.06l.07-.07A1.46,1.46,0,0,1,207.36,356.58Z"/><path class="f7e46153-2b9d-428b-8500-c274dc7a2256" d="M310.3,178.27a1.55,1.55,0,0,1,1.51,1.53,1.53,1.53,0,0,1-.45,1.08,1.59,1.59,0,0,1-2.14,0,1.5,1.5,0,0,1-.44-1.06,1.52,1.52,0,0,1,1.51-1.53h0Z"/><path class="f7e46153-2b9d-428b-8500-c274dc7a2256" d="M139.83,178.28H274.91a1.52,1.52,0,1,1,.49,3,1.35,1.35,0,0,1-.49,0H139.83a1.52,1.52,0,1,1-.49-3A1.35,1.35,0,0,1,139.83,178.28Z"/><path class="f7e46153-2b9d-428b-8500-c274dc7a2256" d="M104.45,178.27A1.52,1.52,0,0,1,106,179.8a1.5,1.5,0,0,1-.44,1.06,1.57,1.57,0,0,1-2.15,0,1.5,1.5,0,0,1-.44-1.06,1.56,1.56,0,0,1,.44-1.08A1.62,1.62,0,0,1,104.45,178.27Z"/><path class="f7e46153-2b9d-428b-8500-c274dc7a2256" d="M122.13,208.92a1.53,1.53,0,0,1,1.32.76l67.54,117a1.51,1.51,0,0,1-2.62,1.51L154.6,269.7h0l-33.78-58.5a1.5,1.5,0,0,1,.55-2.06h0A1.44,1.44,0,0,1,122.13,208.92Z"/><path class="f7e46153-2b9d-428b-8500-c274dc7a2256" d="M207.36,356.58a1.48,1.48,0,0,1,1.08.44,1.44,1.44,0,0,1,.44,1.07,1.42,1.42,0,0,1-.44,1.06,1.56,1.56,0,0,1-2.13,0,1.46,1.46,0,0,1-.07-2.06l.07-.07A1.46,1.46,0,0,1,207.36,356.58Z"/><path class="f7e46153-2b9d-428b-8500-c274dc7a2256" d="M207.36,237.7a1.57,1.57,0,0,1,1.08.45,1.5,1.5,0,0,1,.44,1.06,1.51,1.51,0,0,1-2.57,1.08,1.51,1.51,0,0,1-.46-1.08,1.57,1.57,0,0,1,1.51-1.51Z"/><path class="f7e46153-2b9d-428b-8500-c274dc7a2256" d="M207.37,258.13a1.52,1.52,0,0,1,1.51,1.51v78a1.52,1.52,0,0,1-3,0v-78A1.53,1.53,0,0,1,207.37,258.13Z"/><path class="f7e46153-2b9d-428b-8500-c274dc7a2256" d="M207.36,356.58a1.48,1.48,0,0,1,1.08.44,1.44,1.44,0,0,1,.44,1.07,1.42,1.42,0,0,1-.44,1.06,1.56,1.56,0,0,1-2.13,0,1.46,1.46,0,0,1-.07-2.06l.07-.07A1.46,1.46,0,0,1,207.36,356.58Z"/><path class="f7e46153-2b9d-428b-8500-c274dc7a2256" d="M207.36,0a1.5,1.5,0,0,1,1.52,1.48v0a1.56,1.56,0,0,1-.44,1.08,1.6,1.6,0,0,1-2.13,0,1.56,1.56,0,0,1-.46-1.08,1.51,1.51,0,0,1,.46-1.08A1.49,1.49,0,0,1,207.36,0Z"/><path class="f7e46153-2b9d-428b-8500-c274dc7a2256" d="M207.37,20.44a1.5,1.5,0,0,1,1.51,1.49v78a1.52,1.52,0,1,1-3,.49,1.35,1.35,0,0,1,0-.49V22A1.5,1.5,0,0,1,207.37,20.44Z"/><path class="f7e46153-2b9d-428b-8500-c274dc7a2256" d="M207.36,118.86a1.52,1.52,0,1,1,.49,3,1.35,1.35,0,0,1-.49,0,1.52,1.52,0,0,1,0-3Zm0,20.42a1.52,1.52,0,0,1,1.52,1.52h0v78a1.52,1.52,0,0,1-1.52,1.51,1.5,1.5,0,0,1-1.49-1.51h0v-78a1.5,1.5,0,0,1,1.48-1.52Z"/><path class="f7e46153-2b9d-428b-8500-c274dc7a2256" d="M207.36,237.7a1.57,1.57,0,0,1,1.08.45,1.5,1.5,0,0,1,.44,1.06,1.51,1.51,0,0,1-2.57,1.08,1.51,1.51,0,0,1-.46-1.08,1.57,1.57,0,0,1,1.51-1.51Z"/><path class="f7e46153-2b9d-428b-8500-c274dc7a2256" d="M207.36,237.7a1.57,1.57,0,0,1,1.08.45,1.5,1.5,0,0,1,.44,1.06,1.51,1.51,0,0,1-2.57,1.08,1.51,1.51,0,0,1-.46-1.08,1.57,1.57,0,0,1,1.51-1.51Z"/><path class="f7e46153-2b9d-428b-8500-c274dc7a2256" d="M292.6,188.49a1.52,1.52,0,0,1,.76,2.83l-33.77,19.5-33.77,19.5a1.52,1.52,0,0,1-1.52-2.63l33.77-19.49h0l33.78-19.49A1.52,1.52,0,0,1,292.6,188.49Z"/><path class="f7e46153-2b9d-428b-8500-c274dc7a2256" d="M310.3,178.27a1.52,1.52,0,0,1,1.51,1.53,1.5,1.5,0,0,1-.44,1.06,1.59,1.59,0,0,1-2.15,0,1.56,1.56,0,0,1-.44-1.08,1.48,1.48,0,0,1,.44-1.08A1.55,1.55,0,0,1,310.3,178.27Z"/><path class="f7e46153-2b9d-428b-8500-c274dc7a2256" d="M1.52,356.58a1.44,1.44,0,0,1,1.07.44A1.44,1.44,0,0,1,3,358.09a1.5,1.5,0,0,1-.44,1.06,1.57,1.57,0,0,1-2.15,0,1.49,1.49,0,0,1,0-2.13A1.42,1.42,0,0,1,1.52,356.58Z"/><path class="f7e46153-2b9d-428b-8500-c274dc7a2256" d="M86.73,307.34a1.52,1.52,0,0,1,.76,2.83L53.73,329.66,20,349.16a1.51,1.51,0,0,1-1.88-2.36,1.39,1.39,0,0,1,.37-.22l33.77-19.5h0L86,307.58A1.58,1.58,0,0,1,86.73,307.34Z"/><path class="f7e46153-2b9d-428b-8500-c274dc7a2256" d="M189.68,247.91a1.52,1.52,0,0,1,.76,2.84l-67.55,39a1.55,1.55,0,0,1-2.06-.56,1.52,1.52,0,0,1,.54-2.08l67.55-39A1.54,1.54,0,0,1,189.68,247.91Zm-85.23,49.22a1.54,1.54,0,0,1,1.47,1.91,1.58,1.58,0,0,1-.71.91,1.55,1.55,0,0,1-2.08-.55,1.53,1.53,0,0,1,.56-2.07A1.36,1.36,0,0,1,104.45,297.13Z"/><path class="f7e46153-2b9d-428b-8500-c274dc7a2256" d="M207.36,237.7a1.57,1.57,0,0,1,1.08.45,1.5,1.5,0,0,1,.44,1.06,1.51,1.51,0,0,1-2.57,1.08,1.51,1.51,0,0,1-.46-1.08,1.57,1.57,0,0,1,1.51-1.51Z"/><path class="f7e46153-2b9d-428b-8500-c274dc7a2256" d="M207.36,237.7a1.57,1.57,0,0,1,1.08.45,1.5,1.5,0,0,1,.44,1.06,1.51,1.51,0,0,1-2.57,1.08,1.51,1.51,0,0,1-.46-1.08,1.57,1.57,0,0,1,1.51-1.51Z"/><path class="f7e46153-2b9d-428b-8500-c274dc7a2256" d="M122.14,188.49a1.54,1.54,0,0,1,.75.21l33.77,19.49h0l33.77,19.49a1.52,1.52,0,0,1-1.52,2.63l-33.77-19.5-33.77-19.5a1.52,1.52,0,0,1,.76-2.83Z"/><path class="f7e46153-2b9d-428b-8500-c274dc7a2256" d="M104.45,178.27A1.55,1.55,0,0,1,106,179.8a1.53,1.53,0,0,1-.45,1.08,1.59,1.59,0,0,1-2.14,0,1.66,1.66,0,0,1-.44-1.08,1.52,1.52,0,0,1,1.51-1.53Z"/><path class="f7e46153-2b9d-428b-8500-c274dc7a2256" d="M413.21,356.58a1.49,1.49,0,0,1,1.08,2.55,1.59,1.59,0,0,1-2.15,0,1.55,1.55,0,0,1,0-2.13A1.49,1.49,0,0,1,413.21,356.58Z"/><path class="f7e46153-2b9d-428b-8500-c274dc7a2256" d="M328,307.34a1.51,1.51,0,0,1,.74.24L362.51,327h0l33.78,19.54a1.51,1.51,0,0,1-1.56,2.58L361,329.67h0l-33.77-19.5a1.52,1.52,0,0,1,.76-2.83Z"/><path class="f7e46153-2b9d-428b-8500-c274dc7a2256" d="M225.06,247.91a1.55,1.55,0,0,1,.76.21l67.54,39a1.52,1.52,0,1,1-1.52,2.64l-67.53-39a1.53,1.53,0,0,1,.75-2.85Zm85.24,49.22a1.48,1.48,0,0,1,1.45,1.12,1.45,1.45,0,0,1-.15,1.15,1.53,1.53,0,0,1-2.06.55,1.5,1.5,0,0,1-.57-2v0A1.53,1.53,0,0,1,310.3,297.13Z"/><path class="f7e46153-2b9d-428b-8500-c274dc7a2256" d="M207.36,237.7a1.57,1.57,0,0,1,1.08.45,1.5,1.5,0,0,1,.44,1.06,1.51,1.51,0,0,1-2.57,1.08,1.51,1.51,0,0,1-.46-1.08,1.57,1.57,0,0,1,1.51-1.51Z"/></g></svg>