<svg xmlns="http://www.w3.org/2000/svg" viewBox="0 0 59.99 134.03"><title>47</title><circle cx="30" cy="79.3" r="0.6"/><polygon points="30 114.67 40.63 92.78 41.53 93.23 30 114.67"/><polygon points="19.36 92.78 30 114.67 18.47 93.23 19.36 92.78"/><path d="M30,0,15.69,28.85C10.93,38.47,6.06,48,1.25,57.64l.07-.31a.37.37,0,0,0,0-.18l0-.1v0l0,0,0,.07.08.14.14.28.29.55.58,1.11,1.15,2.23,2.32,4.44L10.5,74.8l9.19,17.8a.88.88,0,0,1-.38,1.18.78.78,0,0,1-.39.1h0l-9.4,0,.8-1.31,20.57,40H29.1l20.58-40,.8,1.31-9.4,0h0A.87.87,0,0,1,40.2,93a.91.91,0,0,1,.1-.4l9.19-17.8,4.62-8.88,2.32-4.45,1.15-2.22.58-1.11.29-.55.14-.28.07-.14,0-.07,0,0v0l0,.1a.57.57,0,0,0,0,.18l.08.31C53.93,48,49.06,38.47,44.3,28.85L30,0,45,28.48C50,38,55,47.52,59.92,57h0a.53.53,0,0,1,.07.3.75.75,0,0,1,0,.2.61.61,0,0,1-.05.11v.06l0,.07-.07.14-.14.28-.28.56-.56,1.11-1.13,2.24-2.25,4.48-4.5,9L41.86,93.4l-.78-1.27,9.4,0a.9.9,0,0,1,.9.9.92.92,0,0,1-.1.41l-20.4,40.08a1,1,0,0,1-1.34.43.92.92,0,0,1-.44-.43L8.71,93.41a.9.9,0,0,1,.8-1.3l9.4,0-.78,1.27L9.07,75.53l-4.5-9L2.32,62.11,1.2,59.87.63,58.75.35,58.2l-.14-.29-.07-.13,0-.07,0,0v0a.61.61,0,0,1,0-.11.75.75,0,0,1,0-.2A.6.6,0,0,1,.07,57h0C5,47.52,10,38,15,28.48Z"/><path d="M2.26,50.23a.61.61,0,0,1,.42,1.14A.6.6,0,0,1,1.9,51,.6.6,0,0,1,2.26,50.23Z"/><path d="M1.57,47.91a.61.61,0,0,1,.73.42.62.62,0,0,1-.41.75.61.61,0,1,1-.32-1.17Z"/><path d="M1.07,45.54a.61.61,0,0,1,.69.49.61.61,0,0,1-.47.7.61.61,0,1,1-.22-1.19Z"/><path d="M.77,43.14a.6.6,0,0,1,.65.54.61.61,0,0,1-.53.66.6.6,0,1,1-.12-1.2Z"/><path d="M.66,40.72a.61.61,0,0,1,0,1.21.6.6,0,0,1-.62-.59A.6.6,0,0,1,.66,40.72Z"/><path d="M.76,38.3a.61.61,0,0,1-.07,1.21A.61.61,0,0,1,.76,38.3Z"/><path d="M1.05,35.9a.6.6,0,0,1,.5.68.61.61,0,0,1-.67.52.6.6,0,0,1-.52-.69A.59.59,0,0,1,1.05,35.9Z"/><path d="M1.54,33.53a.6.6,0,0,1,.44.72.61.61,0,0,1-.71.46.61.61,0,1,1,.27-1.18Z"/><path d="M2.22,31.2a.61.61,0,0,1-.37,1.16.6.6,0,0,1-.39-.76A.61.61,0,0,1,2.22,31.2Z"/><path d="M3.09,29a.59.59,0,0,1,.32.78.6.6,0,1,1-1.11-.45A.59.59,0,0,1,3.09,29Z"/><path d="M4.15,26.77a.6.6,0,0,1,.26.81.62.62,0,0,1-.81.27.61.61,0,0,1,.55-1.08Z"/><path d="M5.39,24.69a.6.6,0,0,1,.18.83.62.62,0,0,1-.82.2.6.6,0,0,1-.19-.84A.59.59,0,0,1,5.39,24.69Z"/><path d="M6.79,22.71a.61.61,0,0,1-.72,1,.61.61,0,0,1,.72-1Z"/><path d="M8.35,20.86a.61.61,0,0,1,.05.85.6.6,0,0,1-.85.06.61.61,0,0,1,.8-.91Z"/><path d="M10.06,19.15A.61.61,0,0,1,10,20a.62.62,0,0,1-.85,0,.6.6,0,1,1,.87-.84Z"/><path d="M11.9,17.58a.6.6,0,0,1-.93.76.59.59,0,0,1,.08-.85A.59.59,0,0,1,11.9,17.58Z"/><path d="M13.87,16.16a.63.63,0,0,1-.16.84.62.62,0,0,1-.84-.15.61.61,0,0,1,1-.69Z"/><path d="M15.94,14.92a.6.6,0,0,1-.23.81.61.61,0,0,1-.82-.21.6.6,0,0,1,.23-.83A.59.59,0,0,1,15.94,14.92Z"/><path d="M18.11,13.84a.6.6,0,0,1-1.09.52.6.6,0,1,1,1.09-.52Z"/><path d="M20.36,13a.6.6,0,0,1-1.13.42.6.6,0,0,1,.36-.78A.58.58,0,0,1,20.36,13Z"/><path d="M22.68,12.26a.6.6,0,0,1-.42.73.6.6,0,1,1,.42-.73Z"/><path d="M38.47,12.58a.61.61,0,1,1-.42-.74A.6.6,0,0,1,38.47,12.58Z"/><path d="M40.75,13.38a.6.6,0,1,1-.35-.78A.59.59,0,0,1,40.75,13.38Z"/><path d="M43,14.36a.61.61,0,1,1-.29-.81A.61.61,0,0,1,43,14.36Z"/><path d="M45.09,15.52A.61.61,0,0,1,44,14.91a.61.61,0,0,1,1.05.61Z"/><path d="M47.11,16.85a.59.59,0,0,1-.83.14.6.6,0,0,1-.16-.83.6.6,0,0,1,1,.69Z"/><path d="M49,18.34a.61.61,0,0,1-.84.08.6.6,0,1,1,.76-.93A.59.59,0,0,1,49,18.34Z"/><path d="M50.8,20A.61.61,0,0,1,50,20a.6.6,0,0,1,0-.84.58.58,0,0,1,.85,0A.6.6,0,0,1,50.8,20Z"/><path d="M52.43,21.77a.61.61,0,1,1,.06-.86A.61.61,0,0,1,52.43,21.77Z"/><path d="M53.92,23.68a.61.61,0,0,1-.73-1,.6.6,0,0,1,.85.13A.58.58,0,0,1,53.92,23.68Z"/><path d="M55.24,25.71a.61.61,0,0,1-.64-1,.6.6,0,0,1,.83.2A.59.59,0,0,1,55.24,25.71Z"/><path d="M56.39,27.84a.61.61,0,1,1,.26-.81A.59.59,0,0,1,56.39,27.84Z"/><path d="M57.36,30.06a.61.61,0,1,1,.33-.79A.61.61,0,0,1,57.36,30.06Z"/><path d="M58.14,32.35a.6.6,0,0,1-.37-1.15.6.6,0,1,1,.37,1.15Z"/><path d="M58.72,34.7a.6.6,0,0,1-.71-.46.61.61,0,0,1,.44-.72.61.61,0,1,1,.27,1.18Z"/><path d="M59.11,37.09a.6.6,0,0,1-.67-.52.62.62,0,0,1,.5-.68.61.61,0,1,1,.17,1.2Z"/><path d="M59.31,39.5a.61.61,0,1,1,.57-.64A.6.6,0,0,1,59.31,39.5Z"/><path d="M59.3,41.92a.61.61,0,0,1-.58-.62.62.62,0,0,1,.61-.59.6.6,0,0,1,.59.62A.59.59,0,0,1,59.3,41.92Z"/><path d="M59.1,44.33a.6.6,0,0,1-.53-.66.62.62,0,0,1,.66-.54.61.61,0,0,1,.54.67A.59.59,0,0,1,59.1,44.33Z"/><path d="M58.7,46.72a.61.61,0,0,1-.47-.7.6.6,0,1,1,1.18.22A.6.6,0,0,1,58.7,46.72Z"/><path d="M58.1,49.07a.61.61,0,0,1-.41-.74.6.6,0,1,1,.41.74Z"/><path d="M57.31,51.35a.6.6,0,0,1-.35-.77.62.62,0,0,1,.77-.36.6.6,0,0,1,.36.78A.59.59,0,0,1,57.31,51.35Z"/><path d="M38.78,90.16a.6.6,0,1,1-.09.84A.59.59,0,0,1,38.78,90.16Z"/><path d="M37.27,88.29a.6.6,0,1,1-.09.84A.59.59,0,0,1,37.27,88.29Z"/><path d="M35.75,86.42a.6.6,0,0,1,.85.09.6.6,0,0,1-.93.75A.6.6,0,0,1,35.75,86.42Z"/><path d="M34.24,84.55a.6.6,0,0,1,.85.09.59.59,0,0,1-.09.84.6.6,0,0,1-.85-.09A.61.61,0,0,1,34.24,84.55Z"/><path d="M32.73,82.68a.6.6,0,1,1-.09.84A.59.59,0,0,1,32.73,82.68Z"/><path d="M31.22,80.81a.59.59,0,0,1,.84.09.6.6,0,1,1-.84-.09Z"/><path d="M28,81.74a.6.6,0,1,1,.84-.09A.59.59,0,0,1,28,81.74Z"/><path d="M26.51,83.61a.6.6,0,1,1,.84-.09A.59.59,0,0,1,26.51,83.61Z"/><path d="M25,85.48a.61.61,0,0,1-.09-.84.6.6,0,0,1,.85-.09.59.59,0,0,1,.09.84A.6.6,0,0,1,25,85.48Z"/><path d="M23.48,87.35a.59.59,0,0,1-.09-.84.6.6,0,1,1,.09.84Z"/><path d="M22,89.22a.59.59,0,0,1-.09-.84.6.6,0,1,1,.93.75A.59.59,0,0,1,22,89.22Z"/><path d="M20.46,91.09A.6.6,0,1,1,21.3,91,.59.59,0,0,1,20.46,91.09Z"/><path d="M22.48,93a.58.58,0,1,1-.58-.6A.59.59,0,0,1,22.48,93Z"/><path d="M24.79,93a.58.58,0,1,1-.58-.6A.59.59,0,0,1,24.79,93Z"/><path d="M27.11,93a.58.58,0,1,1-.58-.6A.59.59,0,0,1,27.11,93Z"/><path d="M29.42,93a.58.58,0,1,1-.58-.6A.59.59,0,0,1,29.42,93Z"/><path d="M31.73,93a.58.58,0,1,1-.58-.6A.59.59,0,0,1,31.73,93Z"/><path d="M34,93a.58.58,0,1,1-.58-.6A.59.59,0,0,1,34,93Z"/><ellipse cx="35.78" cy="93" rx="0.58" ry="0.6"/><ellipse cx="38.09" cy="93" rx="0.58" ry="0.6"/></svg>