<svg xmlns="http://www.w3.org/2000/svg" viewBox="0 0 73.49 119.5"><title>49</title><path d="M36.74,0l18.4,29.56L73.4,59.2a.56.56,0,0,1,0,.6h0l-18,29.56-18,29.53a.74.74,0,0,1-1,.25.67.67,0,0,1-.25-.25l-18-29.53L.09,59.8h0a.61.61,0,0,1,0-.6L18.35,29.56,36.74,0,19,29.94,1.07,59.8v-.6L19.24,88.64l18.14,29.47H36.11L54.25,88.64,72.42,59.2v.6L54.52,29.94Z"/><path d="M36.74,0c-5,6.14-10,12.24-14.94,18.34s-10,12.21-15,18.29l.14-.38.17,23c.08,7.67.1,15.33.12,23L7,81.69l30.51,36.17H36L66.49,81.69l-.21.56c0-7.67,0-15.33.11-23l.18-23,.14.38q-7.54-9.11-15-18.28T36.74,0c5.19,6,10.33,11.93,15.48,17.9s10.29,12,15.39,18a.59.59,0,0,1,.14.37h0l.18,23c.08,7.67.09,15.33.11,23a.86.86,0,0,1-.21.56L37.51,119.14a1,1,0,0,1-1.4.13.8.8,0,0,1-.13-.13L5.66,82.81a.85.85,0,0,1-.21-.56q0-11.5.11-23l.18-23h0a.55.55,0,0,1,.14-.37q7.67-9,15.4-18T36.74,0Z"/><path d="M36.74,0,16.94,15.68l.07-.14c.13,14.57.09,29.14.15,43.71L17.27,103l-.17-.35,19.95,15.5h-.61l20-15.5-.17.35.11-43.71c.06-14.57,0-29.14.15-43.71l.07.14L36.74,0l20,15.4a.19.19,0,0,1,.07.14c.13,14.57.1,29.14.15,43.71L57.1,103a.44.44,0,0,1-.17.34L37.05,118.89a.48.48,0,0,1-.61,0L16.56,103.3a.42.42,0,0,1-.17-.34l.11-43.71c.05-14.57,0-29.14.15-43.71a.19.19,0,0,1,.07-.14Z"/></svg>