<svg xmlns="http://www.w3.org/2000/svg" viewBox="0 0 104 104"><defs><style>.a{fill:#fff;stroke-width:2px;}.a,.b,.c,.d,.e,.f,.g,.h{stroke:#000;stroke-linecap:round;}.a,.b,.f,.g,.h{stroke-linejoin:round;}.b,.c,.d,.e,.f,.g,.h{fill:none;}.b{stroke-dasharray:2;}.c,.d,.e{stroke-miterlimit:10;}.d,.g{stroke-dasharray:2.01 2.01;}.e{stroke-dasharray:2 2;}.h{stroke-dasharray:2 2;}</style></defs><title>02</title><rect class="a" x="15.94" y="15.94" width="72.12" height="72.12" transform="translate(-21.54 52) rotate(-45)"/><line class="b" x1="50" y1="51.92" x2="4" y2="52"/><line class="b" x1="52" y1="100" x2="52" y2="53.92"/><line class="c" x1="77.54" y1="77.46" x2="76.83" y2="76.75"/><line class="d" x1="75.41" y1="75.33" x2="53.42" y2="53.34"/><polyline class="c" points="52.71 52.63 52 51.92 52.71 51.21"/><line class="e" x1="54.12" y1="49.8" x2="76.08" y2="27.87"/><line class="c" x1="76.79" y1="27.17" x2="77.5" y2="26.46"/><line class="f" x1="26.46" y1="77.46" x2="27.17" y2="76.75"/><line class="g" x1="28.59" y1="75.33" x2="50.58" y2="53.34"/><polyline class="f" points="51.29 52.63 52 51.92 51.29 51.21"/><line class="h" x1="49.88" y1="49.8" x2="27.95" y2="27.87"/><line class="f" x1="27.25" y1="27.17" x2="26.54" y2="26.46"/><line class="b" x1="100" y1="52" x2="54" y2="51.92"/><line class="b" x1="52" y1="4" x2="52" y2="49.92"/></svg>