<?xml version="1.0" encoding="utf-8"?>
<!-- Generator: Adobe Illustrator 23.0.3, SVG Export Plug-In . SVG Version: 6.00 Build 0)  -->
<svg version="1.1" id="a1a000b1-2c0b-4fee-9b4e-2cc807639874"
	 xmlns="http://www.w3.org/2000/svg" xmlns:xlink="http://www.w3.org/1999/xlink" x="0px" y="0px" viewBox="0 0 141.3 141.3"
	 style="enable-background:new 0 0 141.3 141.3;" xml:space="preserve">
<style type="text/css">
	.st0{fill:#000000;}
</style>
<title>02u</title>
<g id="bad1bce8-7aae-4aca-99a5-c02844cc7bc9">
	<rect x="0.6" y="139.8" transform="matrix(0.7071 -0.7071 0.7071 0.7071 -98.7622 41.843)" class="st0" width="1.1" height="0.7"/>
	<path class="st0" d="M3.3,138.5l-0.5-0.5l1.5-1.5l0.5,0.5L3.3,138.5z M6.4,135.3l-0.5-0.5l1.6-1.6l0.5,0.5L6.4,135.3z M9.5,132.2
		L9,131.7l1.6-1.6l0.5,0.5L9.5,132.2z M12.7,129.1l-0.5-0.5l1.5-1.5l0.5,0.5L12.7,129.1z M15.8,126l-0.5-0.5l1.6-1.6l0.5,0.5
		L15.8,126z M18.9,122.9l-0.5-0.5l1.6-1.6l0.5,0.5L18.9,122.9z M22,119.8l-0.5-0.5l1.5-1.5l0.5,0.5L22,119.8z M25.1,116.7l-0.5-0.5
		l1.6-1.6l0.5,0.5L25.1,116.7z M28.2,113.6l-0.5-0.5l1.6-1.6l0.5,0.5L28.2,113.6z M31.3,110.5l-0.5-0.5l1.5-1.5l0.5,0.5L31.3,110.5z
		 M34.4,107.4l-0.5-0.5l1.6-1.6l0.5,0.5L34.4,107.4z M37.5,104.3l-0.5-0.5l1.6-1.6l0.5,0.5L37.5,104.3z M40.6,101.2l-0.5-0.5
		l1.5-1.5l0.5,0.5L40.6,101.2z M43.7,98.1l-0.5-0.5l1.5-1.5l0.5,0.5L43.7,98.1z M46.8,95l-0.5-0.5l1.6-1.6l0.5,0.5L46.8,95z
		 M49.9,91.9l-0.5-0.5l1.6-1.6l0.5,0.5L49.9,91.9z M53,88.7l-0.5-0.5l1.5-1.5l0.5,0.5L53,88.7z M56.1,85.6l-0.5-0.5l1.6-1.6l0.5,0.5
		L56.1,85.6z M59.2,82.5L58.7,82l1.6-1.6l0.5,0.5L59.2,82.5z M62.4,79.4l-0.5-0.5l1.5-1.5l0.5,0.5L62.4,79.4z M65.5,76.3l-0.5-0.5
		l1.6-1.6l0.5,0.5L65.5,76.3z M68.6,73.2L68,72.7l1.5-1.5l0.5,0.5L68.6,73.2z M71.7,70.1l-0.5-0.5l1.5-1.5l0.5,0.5L71.7,70.1z
		 M74.8,67l-0.5-0.5l1.6-1.6l0.5,0.5L74.8,67z M77.9,63.9l-0.5-0.5l1.6-1.6l0.5,0.5L77.9,63.9z M81,60.8l-0.5-0.5l1.5-1.5l0.5,0.5
		L81,60.8z M84.1,57.7l-0.5-0.5l1.6-1.6l0.5,0.5L84.1,57.7z M87.2,54.6l-0.5-0.5l1.6-1.6l0.5,0.5L87.2,54.6z M90.3,51.5L89.8,51
		l1.5-1.5l0.5,0.5L90.3,51.5z M93.4,48.4l-0.5-0.5l1.6-1.6l0.5,0.5L93.4,48.4z M96.5,45.3L96,44.7l1.6-1.6l0.5,0.5L96.5,45.3z
		 M99.6,42.2l-0.5-0.5l1.5-1.5l0.5,0.5L99.6,42.2z M102.7,39l-0.5-0.5l1.5-1.5l0.5,0.5L102.7,39z M105.8,35.9l-0.5-0.5l1.6-1.6
		l0.5,0.5L105.8,35.9z M108.9,32.8l-0.5-0.5l1.6-1.6l0.5,0.5L108.9,32.8z M112.1,29.7l-0.5-0.5l1.5-1.5l0.5,0.5L112.1,29.7z
		 M115.2,26.6l-0.5-0.5l1.6-1.6l0.5,0.5L115.2,26.6z M118.3,23.5l-0.5-0.5l1.6-1.6l0.5,0.5L118.3,23.5z M121.4,20.4l-0.5-0.5
		l1.5-1.5l0.5,0.5L121.4,20.4z M124.5,17.3l-0.5-0.5l1.6-1.6l0.5,0.5L124.5,17.3z M127.6,14.2l-0.5-0.5l1.6-1.6l0.5,0.5L127.6,14.2z
		 M130.7,11.1l-0.5-0.5l1.5-1.5l0.5,0.5L130.7,11.1z M133.8,8l-0.5-0.5l1.6-1.6l0.5,0.5L133.8,8z M136.9,4.9l-0.5-0.5l1.6-1.6
		l0.5,0.5L136.9,4.9z"/>
	<rect x="139.6" y="0.8" transform="matrix(0.7071 -0.7071 0.7071 0.7071 40.248 99.4228)" class="st0" width="1.1" height="0.7"/>
	<rect x="0.8" y="0.6" transform="matrix(0.7071 -0.7071 0.7071 0.7071 -0.4672 1.1278)" class="st0" width="0.7" height="1.1"/>
	<path class="st0" d="M137.9,138.5l-1.5-1.5l0.5-0.5l1.5,1.5L137.9,138.5z M134.8,135.3l-1.6-1.6l0.5-0.5l1.5,1.5L134.8,135.3z
		 M131.7,132.2l-1.6-1.6l0.5-0.5l1.6,1.6L131.7,132.2z M128.6,129.1l-1.5-1.5l0.5-0.5l1.5,1.5L128.6,129.1z M125.5,126l-1.6-1.6
		l0.5-0.5l1.6,1.6L125.5,126z M122.4,122.9l-1.6-1.6l0.5-0.5l1.6,1.6L122.4,122.9z M119.3,119.8l-1.5-1.5l0.5-0.5l1.5,1.5
		L119.3,119.8z M116.2,116.7l-1.6-1.6l0.5-0.5l1.6,1.6L116.2,116.7z M113.1,113.6l-1.6-1.6l0.5-0.5l1.6,1.6L113.1,113.6z M110,110.5
		l-1.5-1.5l0.5-0.5l1.5,1.5L110,110.5z M106.9,107.4l-1.6-1.6l0.5-0.5l1.6,1.6L106.9,107.4z M103.8,104.3l-1.6-1.6l0.5-0.5l1.6,1.6
		L103.8,104.3z M100.7,101.2l-1.5-1.5l0.5-0.5l1.5,1.5L100.7,101.2z M97.6,98.1L96,96.5l0.5-0.5l1.5,1.5L97.6,98.1z M94.4,95
		l-1.6-1.6l0.5-0.5l1.6,1.6L94.4,95z M91.3,91.9l-1.6-1.6l0.5-0.5l1.6,1.6L91.3,91.9z M88.2,88.7l-1.5-1.5l0.5-0.5l1.5,1.5
		L88.2,88.7z M85.1,85.6l-1.6-1.6l0.5-0.5l1.6,1.6L85.1,85.6z M82,82.5L80.5,81l0.5-0.5l1.6,1.6L82,82.5z M78.9,79.4l-1.5-1.5
		l0.5-0.5l1.6,1.6L78.9,79.4z M75.8,76.3l-1.6-1.6l0.5-0.5l1.6,1.6L75.8,76.3z M72.7,73.2l-1.5-1.5l0.5-0.5l1.6,1.6L72.7,73.2z
		 M69.6,70.1L68,68.6l0.5-0.5l1.5,1.5L69.6,70.1z M66.5,67l-1.6-1.6l0.5-0.5l1.6,1.6L66.5,67z M63.4,63.9l-1.6-1.6l0.5-0.5l1.6,1.6
		L63.4,63.9z M60.3,60.8l-1.5-1.5l0.5-0.5l1.5,1.5L60.3,60.8z M57.2,57.7l-1.6-1.6l0.5-0.5l1.6,1.6L57.2,57.7z M54.1,54.6L52.5,53
		l0.5-0.5l1.6,1.6L54.1,54.6z M51,51.5l-1.5-1.5l0.5-0.5l1.5,1.5L51,51.5z M47.8,48.4l-1.6-1.6l0.5-0.5l1.5,1.5L47.8,48.4z
		 M44.7,45.3l-1.6-1.6l0.5-0.5l1.6,1.6L44.7,45.3z M41.6,42.2l-1.5-1.5l0.5-0.5l1.5,1.5L41.6,42.2z M38.5,39L37,37.5l0.5-0.5
		l1.5,1.5L38.5,39z M35.4,35.9l-1.6-1.6l0.5-0.5l1.6,1.6L35.4,35.9z M32.3,32.8l-1.6-1.6l0.5-0.5l1.6,1.6L32.3,32.8z M29.2,29.7
		l-1.5-1.5l0.5-0.5l1.5,1.5L29.2,29.7z M26.1,26.6l-1.6-1.6l0.5-0.5l1.6,1.6L26.1,26.6z M23,23.5L21.4,22l0.5-0.5l1.6,1.6L23,23.5z
		 M19.9,20.4l-1.5-1.5l0.5-0.5l1.5,1.5L19.9,20.4z M16.8,17.3l-1.6-1.6l0.5-0.5l1.6,1.6L16.8,17.3z M13.7,14.2l-1.6-1.6l0.5-0.5
		l1.6,1.6L13.7,14.2z M10.6,11.1L9,9.5L9.5,9l1.5,1.5L10.6,11.1z M7.5,8L5.9,6.4l0.5-0.5L8,7.5L7.5,8z M4.4,4.9L2.8,3.3l0.5-0.5
		l1.6,1.6L4.4,4.9z"/>
	
		<rect x="139.8" y="139.6" transform="matrix(0.7071 -0.7071 0.7071 0.7071 -58.047 140.138)" class="st0" width="0.7" height="1.1"/>
	<rect x="0.7" y="70.3" class="st0" width="1.1" height="0.7"/>
	<path class="st0" d="M4,71l0-0.7l2.2,0l0,0.7L4,71z M8.4,71l0-0.7l2.2,0l0,0.7H8.4z M12.7,71l0-0.7l2.2,0l0,0.7L12.7,71z M17.1,71
		l0-0.7l2.2,0l0,0.7H17.1z M21.5,71l0-0.7l2.2,0l0,0.7L21.5,71z M25.8,71l0-0.7l2.2,0l0,0.7L25.8,71z M30.2,71l0-0.7l2.2,0l0,0.7
		H30.2z M34.6,71v-0.7l2.2,0l0,0.7L34.6,71z M39,71l0-0.7l2.2,0V71L39,71z M43.3,71l0-0.7l2.2,0V71L43.3,71z M47.7,71l0-0.7l2.2,0
		V71L47.7,71z M52.1,71l0-0.7l2.2,0l0,0.7L52.1,71z M56.4,71l0-0.7h2.2l0,0.7H56.4z M60.8,71v-0.7l2.2,0V71L60.8,71z M65.2,71v-0.7
		l2.2,0l0,0.7L65.2,71z M69.5,71l0-0.7l2.2,0V71L69.5,71z M73.9,71l0-0.7l2.2,0V71L73.9,71z M78.3,71l0-0.7l2.2,0V71L78.3,71z
		 M82.6,71l0-0.7l2.2,0V71L82.6,71z M87,71l0-0.7h2.2l0,0.7H87z M91.4,71v-0.7l2.2,0l0,0.7L91.4,71z M95.7,71v-0.7l2.2,0l0,0.7
		L95.7,71z M100.1,71v-0.7l2.2,0l0,0.7L100.1,71z M104.5,71l0-0.7l2.2,0V71L104.5,71z M108.9,71l0-0.7l2.2,0l0,0.7H108.9z M113.2,71
		l0-0.7l2.1,0l0,0.7L113.2,71z M117.6,71l0-0.7l2.2,0l0,0.7H117.6z M122,71l0-0.7h2.2l0,0.7H122z M126.3,71l0-0.7l2.2,0V71L126.3,71
		z M130.7,71v-0.7l2.2,0l0,0.7H130.7z M135.1,71l0-0.7l2.2,0V71H135.1z"/>
	<rect x="139.4" y="70.3" class="st0" width="1.1" height="0.7"/>
	<rect x="70.3" y="0.7" class="st0" width="0.7" height="1.1"/>
	<path class="st0" d="M70.3,137.2v-2.2H71v2.2H70.3z M70.3,132.9l0-2.2H71l0,2.2H70.3z M70.3,128.5v-2.2H71v2.2H70.3z M70.3,124.2
		V122H71v2.2H70.3z M70.3,119.8l0-2.2H71l0,2.2H70.3z M70.3,115.4l0-2.2H71l0,2.2H70.3z M70.3,111v-2.2H71v2.2L70.3,111z
		 M70.3,106.7v-2.2H71v2.2H70.3z M70.3,102.3v-2.2H71l0,2.2L70.3,102.3z M70.3,97.9l0-2.2H71l0,2.2H70.3z M70.3,93.6v-2.2H71v2.2
		H70.3z M70.3,89.2l0-2.2H71l0,2.2H70.3z M70.3,84.8l0-2.2H71l0,2.2H70.3z M70.3,80.4l0-2.2l0.7,0l0,2.2L70.3,80.4z M70.3,76.1v-2.2
		H71v2.2H70.3z M70.3,71.7v-2.2H71l0,2.2L70.3,71.7z M70.3,67.4l0-2.2H71l0,2.2H70.3z M70.3,63l0-2.2H71V63L70.3,63z M70.3,58.6
		l0-2.2l0.7,0v2.2L70.3,58.6z M70.2,54.2l0-2.2H71l0,2.2H70.2z M70.3,49.9l0-2.2H71L71,49.9H70.3z M70.3,45.5v-2.2H71v2.2H70.3z
		 M70.3,41.2V39H71v2.2H70.3z M70.3,36.8l0-2.2H71l0,2.2H70.3z M70.3,32.4l0-2.2H71l0,2.2H70.3z M70.3,28l0-2.1H71l0,2.1H70.3z
		 M70.3,23.7l0-2.2H71l0,2.2H70.3z M70.3,19.3l0-2.2H71l0,2.2L70.3,19.3z M70.3,14.9l0-2.2H71v2.2L70.3,14.9z M70.3,10.5V8.4H71v2.2
		L70.3,10.5z M70.3,6.2l0-2.2H71l0,2.2L70.3,6.2z"/>
	<rect x="70.3" y="139.4" class="st0" width="0.7" height="1.1"/>
	<path class="st0" d="M0,141.3l0-0.7L0,0l141.3,0v0.7v140.5H0z M1.5,1.5l0,138.3h138.3V1.5H1.5z"/>
</g>
</svg>
