<svg id="be322121-da01-473a-a735-c52a28956db7" data-name="Layer 1" xmlns="http://www.w3.org/2000/svg" viewBox="0 0 188 188"><title>04u</title><g id="bcbafec2-1a26-4f26-8e8e-d91ae77ff9a2" data-name="Layer 1-2"><path d="M0,0V188H188V0ZM187,155.49,159.76,1H187Zm-69.44-50.36V105h0l-6.09-34.53h6.12ZM70.44,82.87V83h0l6.09,34.52H70.44Zm47,27.57-29,5.12,28.14-10.24Zm-47-32.88,29-5.12-28,10.24ZM88.29,88.29H99.71V99.71H88.29Zm-1,11.36-1.08-.19,1.08-6.11Zm12.36,1.06-.19,1.08-6.12-1.08Zm1.06-12.36,1.08.19-1.08,6.11ZM88.35,87.29l.19-1.08,6.12,1.08ZM85.23,99.22l-1.36-.5L86.69,91Zm14,3.55-.5,1.36L91,101.32Zm3.55-14,1.36.5L101.31,97Zm-14-3.55.5-1.36L97,86.69ZM83,98.33l-1.61-.94,5.29-9.16Zm15.38,6.72-.94,1.61-9.16-5.29Zm6.72-15.38,1.61.94-5.29,9.16ZM89.67,83l.94-1.61,9.16,5.29ZM80.5,96.85l-1.8-1.51,8.56-10.2ZM96.85,107.5l-1.51,1.8-10.2-8.56ZM107.5,91.15l1.8,1.51-8.56,10.2ZM91.15,80.5l1.51-1.8,10.2,8.56ZM78,94.66l-1.87-2.23,12.64-10.6ZM94.66,110l-2.23,1.87-10.6-12.6ZM110,93.34l1.87,2.23-12.64,10.6ZM93.34,78l2.23-1.87,10.6,12.63ZM75.48,91.64,73.7,88.56,91.18,78.47Zm16.16,20.88-3.08,1.78L78.47,96.82Zm20.88-16.16,1.78,3.08L96.82,109.53ZM96.36,75.48l3.08-1.78,10.09,17.48ZM73.22,87.68l-1.47-4.06,23-8.37Zm14.46,27.1-4.06,1.47-8.37-23Zm27.1-14.46,1.47,4.06-23,8.37Zm-14.46-27.1,4.06-1.47,8.37,23ZM82.68,116.58l-5.12.9-5.12-29Zm22.64-45.16,5.12-.9,5.12,29Zm-.35-1h0L70.44,76.56V70.44h34.69ZM83,117.53h0l34.53-6.09v6.12H82.87Zm28.24-48.09v-.08l-.45.08H70.43l1.28-7.27L113,69.44Zm-41.8,7.29h-.08l.08.45v40.37l-7.27-1.28L69.44,75Zm7.29,41.83v.08l.45-.08h40.37l-1.28,7.27L75,118.56Zm41.83-7.29h.08l-.08-.45V70.43l7.27,1.28L118.56,113ZM71.86,61.18l3-8.23,46.7,17Zm-10.68,55-8.23-3,17-46.7Zm55,10.68-3,8.24-46.7-17Zm10.68-55,8.23,3-17,46.7ZM75.15,52l5.19-9,50.92,29.4ZM52,112.85l-9-5.19L72.4,56.74ZM112.85,136l-5.19,9L56.74,115.6ZM136,75.15l9,5.19-29.4,50.92Zm-55.23-33,7.86-9.37,53.15,44.6ZM42.11,107.22l-9.37-7.86,44.6-53.15Zm65.11,38.67-7.86,9.37-53.15-44.6Zm38.67-65.11,9.37,7.86-44.6,53.15ZM89.21,31.91l11-9.26,52.51,62.58ZM31.91,98.79l-9.26-11L85.23,35.25Zm66.88,57.3-11,9.26L35.25,102.77Zm57.3-66.88,9.26,11-62.58,52.51Zm-55.17-67.3,14.66-8.47,48,83.14Zm-79,65.17L13.44,72.42l83.15-48Zm65.16,79-14.66,8.47-48-83.14Zm79-65.16,8.47,14.66-83.14,48ZM116.37,12.8,135,6l38.53,105.84ZM12.8,71.63,6,53,111.86,14.44ZM71.63,175.2,53,182,14.44,76.15ZM175.2,116.37,182,135,76.14,173.56ZM135.9,5.47l22.92-4,22.92,130ZM5.47,52.1l-4-22.92,130-22.92ZM52.1,182.53l-22.92,4L6.26,56.59ZM182.53,135.9l4,22.92-130,22.92ZM155.49,1,1,28.24V1ZM1,32.51,28.24,187H1ZM32.51,187,187,159.76V187Z"/></g></svg>