<?xml version="1.0" encoding="utf-8"?>
<!-- Generator: Adobe Illustrator 23.0.3, SVG Export Plug-In . SVG Version: 6.00 Build 0)  -->
<svg version="1.1" id="fcb37f87-6ce7-42a5-9fc8-3b8ad97ec461"
	 xmlns="http://www.w3.org/2000/svg" xmlns:xlink="http://www.w3.org/1999/xlink" x="0px" y="0px" viewBox="0 0 169.3 169.3"
	 style="enable-background:new 0 0 169.3 169.3;" xml:space="preserve">
<title>05u</title>
<g id="b37721ac-8b0d-41ca-b39b-f133ddc1387a">
	<path d="M169.3,0L0,0l0,169.3h169.3L169.3,0z M89.1,135.4L45.8,99.1l46.5,32.6L89.1,135.4z M80.2,33.8l43.3,36.4L77,37.6L80.2,33.8
		z M84.6,96.5L72.8,84.6l11.8-11.8l11.8,11.8L84.6,96.5z M85.4,72.1l0.4-0.4l3.9,4.7L85.4,72.1z M76.5,79.6l-4.3,4.3l-0.3-0.4
		L76.5,79.6z M83.9,97.2l-0.4,0.3l-3.9-4.7L83.9,97.2z M92.8,89.7l4.3-4.3l0.4,0.4L92.8,89.7z M86.5,71.1l0.5-0.4l4.4,6.3L86.5,71.1
		z M71.1,82.7l-0.4-0.6l6.3-4.4L71.1,82.7z M82.8,98.1l-0.6,0.4l-4.4-6.3L82.8,98.1z M98.1,86.5l0.4,0.5l-6.3,4.4L98.1,86.5z
		 M87.9,70.2l0.7-0.4l4.7,8.1L87.9,70.2z M70.2,81.4l-0.4-0.7l8.1-4.7L70.2,81.4z M81.4,99.1l-0.7,0.4L76,91.4L81.4,99.1z
		 M99.1,87.9l0.4,0.7l-8.1,4.6L99.1,87.9z M89.5,69.3l0.9-0.4L95.1,79L89.5,69.3z M69.3,79.8l-0.4-0.9l10.2-4.7L69.3,79.8z
		 M79.8,100l-0.9,0.4l-4.8-10.2L79.8,100z M100,89.5l0.4,0.9l-10.2,4.7L100,89.5z M91.3,68.5l1.1-0.4l4.5,12.4L91.3,68.5z M68.5,78
		L68.1,77l12.4-4.5L68.5,78z M78,100.9l-1.1,0.4l-4.5-12.4L78,100.9z M100.8,91.3l0.4,1.1l-12.4,4.5L100.8,91.3z M93.3,67.7l1.3-0.3
		l4,14.9L93.3,67.7z M67.6,76l-0.3-1.3l14.9-4L67.6,76z M75.9,101.7l-1.3,0.3l-4-14.9L75.9,101.7z M101.5,93.4l0.4,1.3l-14.9,4
		L101.5,93.4z M95.6,67.1l1.5-0.3l3.1,17.5L95.6,67.1z M67.1,73.7l-0.3-1.5l17.5-3.1L67.1,73.7z M73.7,102.2l-1.5,0.3l-3.1-17.5
		L73.7,102.2z M102.2,95.6l0.3,1.5L85,100.2L102.2,95.6z M98.1,66.6l1.8-0.1l1.8,20.3L98.1,66.6z M66.7,71.2l-0.1-1.8l20.3-1.8
		L66.7,71.2z M71.2,102.6l-1.8,0.2l-1.8-20.3L71.2,102.6z M102.7,98.1l0.2,1.8l-20.3,1.8L102.7,98.1z M100.9,66.4h2l0,23.2
		L100.9,66.4z M66.4,68.4l0-2h23.2L66.4,68.4z M68.3,102.9l-2,0l0.1-23.2L68.3,102.9z M102.9,100.9v2l-23.2,0L102.9,100.9z
		 M103.9,66.4l2.3,0.2l-2.3,26.1L103.9,66.4z M66.4,65.4l0.2-2.3l26.2,2.3L66.4,65.4z M65.4,102.9l-2.3-0.2l2.3-26.2L65.4,102.9z
		 M102.9,103.9l-0.2,2.3l-26.1-2.3L102.9,103.9z M107.2,66.6l2.5,0.4l-5.1,29.2L107.2,66.6z M66.6,62.1l0.5-2.5l29.2,5.1L66.6,62.1z
		 M62.1,102.7l-2.6-0.4L64.7,73L62.1,102.7z M102.7,107.2l-0.4,2.6L73,104.6L102.7,107.2z M110.7,67.2l2.8,0.7l-8.6,32.1L110.7,67.2
		z M67.2,58.5l0.8-2.8l32.1,8.6L67.2,58.5z M58.6,102l-2.8-0.8l8.6-32.1L58.6,102z M102.1,110.7l-0.7,2.8L69.2,105L102.1,110.7z
		 M114.5,68.2l3.1,1.1l-12.7,34.9L114.5,68.2z M68.2,54.8l1.1-3.1l34.9,12.7L68.2,54.8z M54.8,101.1l-3.1-1.2l12.7-34.9L54.8,101.1z
		 M101.1,114.6l-1.1,3l-34.9-12.7L101.1,114.6z M118.5,69.6l3.3,1.5l-17.5,37.5L118.5,69.6z M69.6,50.8l1.5-3.3L108.6,65L69.6,50.8z
		 M50.8,99.7l-3.3-1.5L65,60.7L50.8,99.7z M99.7,118.5l-1.5,3.3l-37.5-17.5L99.7,118.5z M122.7,71.5l3.5,2l-23,39.9L122.7,71.5z
		 M71.5,46.6l2.1-3.5l39.8,23L71.5,46.6z M46.6,97.8l-3.5-2l23-39.9L46.6,97.8z M97.8,122.7l-2,3.5l-39.9-23L97.8,122.7z
		 M127.1,73.9l3.7,2.6l-29.3,41.8L127.1,73.9z M73.9,42.2l2.6-3.7l41.8,29.3L73.9,42.2z M42.2,95.3l-3.7-2.6L67.8,51L42.2,95.3z
		 M95.3,127.1l-2.6,3.7l-41.8-29.3L95.3,127.1z M131.6,77l3.8,3.2l-36.4,43.3L131.6,77z M37.6,92.3l-3.8-3.2l36.4-43.3L37.6,92.3z
		 M95.9,128.9l40.3-48.1l3.9,3.9L95.9,128.9z M80.7,33.1l3.9-3.9l44.2,44.2L80.7,33.1z M73.3,40.5L33.1,88.6l-3.9-3.9L73.3,40.5z
		 M88.5,136.3l-3.9,3.9L40.4,96L88.5,136.3z M140.9,85.3l3.9,4.6l-52.8,44.4L140.9,85.3z M85.3,28.4l4.6-3.9l44.4,52.8L85.3,28.4z
		 M28.4,84l-3.9-4.6L77.4,35L28.4,84z M84,140.9l-4.6,3.9L35.1,91.9L84,140.9z M145.6,90.7l3.8,5.4L87,139.7L145.6,90.7z M90.6,23.8
		l5.4-3.8l43.6,62.3L90.6,23.8z M23.8,78.7L20,73.2l62.3-43.6L23.8,78.7z M78.7,145.5l-5.4,3.8L29.6,87L78.7,145.5z M150,96.8
		l3.7,6.3L81.2,145L150,96.8z M96.8,19.3l6.3-3.6L145,88.1L96.8,19.3z M19.3,72.5l-3.7-6.3l72.5-41.8L19.3,72.5z M72.5,150l-6.3,3.7
		L24.3,81.2L72.5,150z M154.3,103.9l3.4,7.3l-83.4,38.9L154.3,103.9z M103.9,15l7.3-3.4L150.1,95L103.9,15z M15,65.4l-3.4-7.3
		L95,19.2L15,65.4z M65.4,154.3l-7.3,3.4L19.2,74.3L65.4,154.3z M158.2,112.1l3,8.3l-94.9,34.6L158.2,112.1z M112.1,11l8.3-3
		l34.5,95L112.1,11z M11,57.2l-3-8.3l95-34.5L11,57.2z M57.2,158.2l-8.3,3L14.4,66.3L57.2,158.2z M161.8,121.3l2.5,9.4L57.2,159.3
		L161.8,121.3z M121.3,7.5l9.4-2.5l28.7,107.1L121.3,7.5z M7.5,48L5,38.7L112.1,10L7.5,48z M48,161.8l-9.4,2.5L10,57.2L48,161.8z
		 M164.7,131.5l1.8,10.5L46.9,163.1L164.7,131.5z M131.5,4.6L142,2.7l21.1,119.7L131.5,4.6z M4.6,37.7L2.7,27.3L122.4,6.2L4.6,37.7z
		 M37.8,164.7l-10.5,1.8L6.2,46.9L37.8,164.7z M167,143l1,11.6L35.3,166.2L167,143z M143,2.3l11.6-1L166.2,134L143,2.3z M2.3,26.3
		l-1-11.6L134,3.1L2.3,26.3z M26.3,167l-11.6,1L3.1,35.3L26.3,167z M168.3,155.5v12.7l-145.8,0L168.3,155.5z M168.3,146.8L155.5,1
		h12.7L168.3,146.8z M146.8,1L1,13.7V1L146.8,1z M1,22.5l12.8,145.7H1.1L1,22.5z"/>
</g>
</svg>
